<?xml version="1.0" ?><!DOCTYPE svg  PUBLIC '-//W3C//DTD SVG 20010904//EN'  'http://www.w3.org/TR/2001/REC-SVG-20010904/DTD/svg10.dtd'><svg height="850.000000pt" preserveAspectRatio="xMidYMid meet" version="1.0" viewBox="0 0 850.000000 850.000000" width="850.000000pt" xmlns="http://www.w3.org/2000/svg">
<metadata>
Created by potrace 1.14, written by Peter Selinger 2001-2017
</metadata>
<g fill="#ffffff" stroke="none" transform="translate(0.000000,850.000000) scale(0.100000,-0.100000)">
<path d="M0 7323 l0 -1176 30 41 c63 87 192 166 323 197 90 21 238 19 331 -5 96 -24 215 -85 284 -146 31 -27 58 -44 67 -40 8 3 27 31 42 62 47 101 126 158 231 171 110 13 228 -57 294 -174 16 -29 33 -54 36 -54 4 -1 26 -3 50 -4 105 -7 193 -117 217 -272 5 -34 11 -42 33 -48 15 -4 56 -21 92 -39 l66 -33 43 38 c107 95 261 135 348 90 37 -18 103 -85 103 -103 0 -4 4 -18 10 -33 l10 -26 33 25 c77 59 144 69 246 37 77 -24 123 -59 157 -119 15 -26 37 -58 48 -70 76 -85 309 -127 788 -141 239 -7 281 -11 265 -27 -9 -9 -203 -34 -272 -34 -33 0 -70 -3 -81 -6 l-22 -6 24 -86 c14 -48 29 -104 35 -125 l10 -38 31 30 c80 78 275 109 402 65 21 -8 41 -14 45 -14 3 0 7 34 8 76 5 166 66 309 177 419 81 79 145 117 237 141 106 27 221 -1 290 -72 34 -35 49 -32 49 12 0 12 15 51 33 88 l33 66 -165 2 c-177 3 -208 14 -92 34 93 16 351 81 396 99 28 13 35 20 29 33 -92 215 7 533 219 700 125 99 230 137 377 136 103 0 164 -15 294 -69 16 -7 18 -5 12 11 -42 109 -47 320 -10 417 39 100 131 186 234 218 62 20 228 22 302 5 66 -15 67 -15 110 8 95 53 213 54 313 4 109 -56 228 -236 241 -364 l7 -61 52 -6 c141 -14 259 -138 272 -285 5 -56 7 -60 38 -71 18 -6 50 -23 71 -37 l38 -26 15 23 c8 13 49 58 90 100 119 119 243 169 418 169 l93 0 0 735 0 735 -4250 0 -4250 0 0 -1177z m981 385 c-34 -76 -51 -89 -89 -66 -15 10 -48 30 -74 45 -26 15 -48 31 -48 35 0 14 74 21 104 10 26 -10 35 -8 74 18 25 16 48 27 53 25 4 -3 -4 -33 -20 -67z m1654 -199 c9 -16 22 -28 28 -25 7 2 29 10 50 17 38 12 38 12 87 -36 55 -54 53 -74 -3 -50 -45 19 -76 19 -96 1 -9 -8 -28 -17 -42 -21 -22 -6 -30 -1 -47 27 -11 18 -39 44 -61 58 -22 14 -41 28 -41 31 0 5 67 24 97 28 7 0 20 -13 28 -30z m1364 -84 c250 -59 418 -302 381 -549 -24 -162 -137 -319 -281 -390 -148 -73 -292 -72 -446 4 -97 48 -187 138 -233 235 -86 181 -47 405 98 557 125 131 304 184 481 143z m-2571 -102 c-2 -5 -15 -33 -30 -63 -15 -30 -29 -63 -32 -73 -5 -17 -13 -18 -67 -12 -77 9 -112 18 -116 31 -5 15 42 34 84 34 28 0 46 9 85 45 43 39 87 60 76 38z m-788 -334 c0 -5 -13 -27 -30 -47 -16 -20 -41 -63 -55 -95 -14 -32 -31 -60 -39 -63 -8 -3 -29 2 -48 12 -20 11 -67 20 -123 23 -49 3 -90 11 -90 16 0 6 23 21 50 35 37 18 66 25 113 25 48 0 63 4 67 16 15 45 155 116 155 78z m4575 -66 c42 -20 41 -35 -3 -44 -17 -3 -45 -18 -62 -33 -23 -18 -43 -26 -71 -26 -22 0 -54 -7 -70 -16 -56 -28 -65 -15 -27 41 33 50 34 50 83 47 42 -2 53 2 73 23 27 30 31 30 77 8z m-3098 -89 c10 -24 21 -44 25 -44 4 0 30 14 58 31 l49 30 81 -18 c44 -10 79 -22 77 -28 -4 -12 -48 -22 -103 -24 -30 -1 -57 -11 -94 -36 -29 -19 -56 -35 -62 -35 -23 0 -48 23 -74 67 -15 27 -40 64 -56 83 -42 52 -36 61 27 38 48 -18 56 -26 72 -64z m-129 -182 c-32 -56 -49 -72 -74 -72 -37 0 -157 51 -146 62 5 5 48 13 94 17 51 5 95 14 108 24 34 24 42 11 18 -31z m144 -353 c39 -20 44 -20 94 -6 29 8 55 12 59 9 9 -10 -88 -102 -108 -102 -20 0 -87 62 -106 98 -16 29 5 29 61 1z" id="1"/>
<path d="M940 7718 c-14 -11 -33 -17 -45 -15 -11 3 -31 8 -45 12 -22 6 -20 2 14 -29 22 -20 45 -36 52 -36 12 0 60 78 52 85 -2 2 -14 -6 -28 -17z" id="2"/>
<path d="M2570 7505 c0 -12 79 -85 93 -85 8 0 20 7 27 15 7 9 29 15 53 15 l41 0 -21 21 -21 21 -47 -21 c-26 -12 -49 -21 -51 -21 -2 0 -10 14 -19 30 -9 18 -23 30 -35 30 -11 0 -20 -2 -20 -5z" id="3"/>
<path d="M3751 7395 c-130 -37 -248 -134 -304 -252 -27 -59 -32 -81 -36 -162 -6 -172 29 -272 130 -373 106 -106 275 -163 412 -139 149 26 285 131 353 274 59 125 65 224 23 352 -40 123 -151 237 -276 285 -76 29 -225 36 -302 15z" id="4"/>
<path d="M1335 7240 c-13 -14 -31 -20 -64 -20 -57 -1 -36 -16 28 -21 42 -4 45 -2 58 29 15 36 5 42 -22 12z" id="5"/>
<path d="M549 6950 c-23 -12 -41 -31 -48 -51 -10 -30 -12 -31 -53 -25 -25 4 -62 1 -88 -7 l-44 -13 68 -12 c38 -7 82 -20 98 -28 l28 -15 30 63 c16 35 37 73 46 86 20 27 11 27 -37 2z" id="6"/>
<path d="M5140 6895 c-21 -23 -29 -25 -68 -19 -40 6 -46 4 -68 -22 -32 -40 -30 -45 11 -28 19 7 50 14 68 14 23 0 47 10 72 30 21 17 43 30 49 30 14 0 -15 20 -30 20 -6 0 -21 -11 -34 -25z" id="7"/>
<path d="M2080 6807 c23 -36 47 -68 55 -70 7 -3 35 8 62 25 26 17 64 35 83 41 l35 10 -26 9 c-22 7 -39 2 -92 -27 -71 -39 -66 -41 -102 30 -11 22 -28 41 -38 43 -13 3 -8 -11 23 -61z" id="8"/>
<path d="M1880 6641 l-65 -6 47 -19 c26 -10 54 -16 62 -13 15 6 42 48 29 45 -4 -1 -37 -4 -73 -7z" id="9"/>
<path d="M2131 6260 c28 -43 46 -48 74 -19 l26 25 -38 0 c-21 0 -47 4 -58 9 -19 9 -19 8 -4 -15z" id="10"/>
<path d="M6918 7586 c-20 -7 -51 -22 -70 -33 -31 -18 -37 -18 -83 -5 -76 22 -258 21 -321 -1 -151 -52 -228 -163 -241 -342 -6 -82 7 -183 32 -256 7 -19 41 -63 75 -97 l62 -62 39 10 c46 13 103 0 143 -31 41 -32 30 -39 -21 -12 -38 19 -57 23 -93 19 -25 -4 -54 -7 -66 -9 -15 -1 -31 12 -55 43 -42 54 -102 88 -229 131 -227 75 -433 20 -606 -164 -158 -167 -227 -423 -157 -578 l21 -46 63 14 c38 8 87 11 121 7 108 -11 238 -94 284 -180 19 -36 19 -36 73 -31 66 7 183 62 234 111 21 20 43 36 48 36 12 0 12 -17 -1 -25 -35 -22 27 -45 124 -46 51 -1 64 -3 46 -9 -43 -14 -118 -11 -160 6 -40 16 -41 16 -78 -9 -58 -41 -146 -77 -200 -84 l-49 -5 27 -72 c15 -39 33 -102 40 -139 10 -55 15 -67 28 -62 39 15 103 17 134 4 26 -10 32 -11 36 0 10 30 66 81 107 97 41 15 66 15 109 -2 13 -5 16 1 16 28 0 47 53 150 98 189 20 18 61 44 92 58 47 22 68 26 153 26 53 0 97 0 97 0 0 0 -7 18 -15 40 -30 85 -11 234 42 324 182 311 657 348 851 66 27 -39 39 -49 57 -47 13 2 33 -2 44 -7 18 -10 20 -7 26 36 6 49 33 143 56 200 12 30 11 34 -11 58 -13 13 -46 33 -74 44 l-51 19 -6 68 c-6 80 -31 134 -86 185 -52 50 -108 76 -180 84 l-61 7 0 48 c0 148 -131 338 -267 389 -63 24 -142 26 -197 7z" id="11"/>
<path d="M8295 6995 c-180 -33 -334 -154 -414 -325 -39 -83 -61 -170 -61 -237 0 -29 -2 -53 -5 -53 -3 0 -19 10 -35 21 -22 17 -36 20 -63 15 -32 -6 -35 -4 -48 26 -20 49 -107 137 -164 166 -145 73 -321 70 -478 -10 -163 -82 -270 -283 -239 -449 6 -34 19 -73 28 -88 l18 -26 25 79 c14 44 31 81 37 83 10 3 87 -205 140 -377 9 -30 26 -63 38 -72 l21 -17 -49 -99 c-27 -55 -46 -104 -42 -110 6 -11 42 -10 132 4 22 3 39 16 61 48 41 57 94 97 151 111 42 11 48 16 60 51 24 71 81 114 151 114 30 0 51 -9 85 -35 50 -38 49 -39 61 50 9 65 51 196 82 260 88 176 238 271 443 282 90 4 182 -11 253 -42 16 -7 17 12 17 313 l0 319 -37 7 c-52 8 -86 6 -168 -9z" id="12"/>
<path d="M1245 6395 c-63 -23 -109 -68 -148 -143 -33 -63 -51 -82 -77 -82 -5 0 -35 23 -67 50 -70 60 -194 124 -283 145 -83 19 -237 19 -319 0 -128 -30 -251 -111 -323 -209 -28 -38 -28 -41 -28 -178 l0 -140 31 27 c118 99 315 132 448 75 60 -26 143 -112 161 -166 9 -27 16 -34 29 -28 9 4 42 9 73 12 47 3 64 0 94 -17 l37 -22 25 24 c20 20 22 28 13 45 -21 40 -13 59 37 87 55 31 69 26 88 -28 10 -29 11 -44 2 -63 -11 -23 -8 -29 30 -66 l41 -42 11 47 c25 98 132 177 239 177 67 0 128 -28 172 -78 30 -34 37 -37 77 -34 36 3 49 0 71 -22 l27 -26 52 20 c36 14 77 20 132 20 146 0 243 -57 302 -178 17 -37 33 -68 33 -70 1 -1 28 10 59 24 45 20 74 26 129 27 80 0 122 -16 156 -58 l20 -26 52 15 c123 37 244 13 309 -61 l40 -45 67 7 c38 4 102 18 143 31 74 23 79 24 385 18 173 -3 339 -1 375 4 57 8 43 10 -106 11 -204 1 -459 24 -569 51 -44 11 -109 35 -145 53 -56 28 -69 40 -102 96 -45 75 -54 83 -128 118 -40 19 -72 27 -116 27 -54 1 -67 -3 -117 -37 -32 -20 -57 -42 -57 -47 0 -6 -6 -10 -13 -10 -8 0 -19 22 -26 51 -26 102 -106 157 -213 147 -64 -7 -172 -61 -225 -115 l-44 -44 -27 20 c-32 23 -145 71 -167 71 -8 0 -16 10 -19 23 -2 12 -9 48 -15 81 -21 116 -102 206 -186 206 -48 0 -64 11 -95 65 -33 56 -98 123 -145 147 -51 27 -147 33 -200 13z" id="13"/>
<path d="M8169 6379 c-163 -24 -286 -116 -362 -272 -43 -88 -87 -249 -87 -318 0 -26 -5 -51 -11 -54 -6 -4 -31 13 -56 38 -51 52 -87 64 -138 47 -41 -14 -85 -62 -85 -95 0 -32 -22 -51 -68 -58 -50 -8 -112 -54 -151 -110 -34 -50 -46 -57 -101 -57 -20 0 -52 -3 -69 -6 l-31 -6 0 -82 c0 -44 4 -87 8 -93 6 -10 27 -11 92 -2 124 15 137 23 209 128 34 50 68 91 76 91 7 0 23 -16 35 -36 l23 -35 29 36 c76 92 194 106 272 31 33 -30 39 -32 90 -28 l54 4 6 40 c4 21 13 41 21 44 12 5 15 31 15 138 0 72 5 149 11 171 11 37 62 97 102 120 15 8 19 29 24 125 8 132 20 117 22 -25 1 -88 2 -90 30 -107 16 -9 36 -27 45 -40 22 -34 34 -145 28 -264 -4 -95 -3 -103 16 -113 11 -6 22 -23 24 -38 3 -27 4 -26 38 24 l35 53 93 0 92 0 0 351 0 350 -43 19 c-45 20 -152 41 -202 39 -16 -1 -55 -5 -86 -10z" id="14"/>
<path d="M5367 6126 c-80 -34 -131 -70 -179 -130 -53 -67 -89 -145 -91 -201 -1 -25 -6 -45 -11 -45 -5 0 -31 21 -58 46 -67 62 -118 84 -201 84 -86 0 -159 -25 -241 -84 -152 -108 -235 -281 -236 -488 0 -47 -4 -78 -10 -78 -6 0 -39 9 -73 21 -115 39 -297 13 -380 -54 -31 -25 -34 -49 -29 -234 l2 -73 60 0 c58 0 80 12 40 23 -11 3 -20 9 -20 14 0 5 40 52 88 103 62 66 93 92 104 88 9 -4 30 -32 48 -64 18 -31 46 -72 62 -90 30 -33 30 -54 2 -54 -12 0 -14 -10 -12 -42 3 -40 5 -43 36 -46 25 -3 32 1 32 14 0 10 -7 25 -15 34 -14 16 -14 22 1 61 23 61 47 79 103 79 43 0 47 2 66 38 19 35 24 38 83 46 l62 10 2 60 c1 34 1 82 0 108 -2 32 4 57 18 81 11 19 24 61 28 93 5 42 11 59 22 59 11 0 16 -14 18 -54 3 -46 9 -61 38 -93 25 -28 34 -47 34 -72 0 -19 -4 -38 -10 -41 -5 -3 -10 -30 -10 -58 l1 -52 25 52 c14 28 40 65 59 82 31 27 33 32 23 59 -10 25 -9 35 7 58 11 18 19 51 21 91 2 35 8 72 14 83 26 48 67 4 76 -81 4 -30 15 -73 26 -96 11 -23 17 -51 14 -61 -4 -11 0 -24 8 -31 11 -10 15 -8 19 6 3 10 10 39 17 65 15 58 64 116 130 157 47 29 50 33 50 74 0 24 -5 48 -11 54 -28 28 33 119 94 142 26 10 27 14 27 78 0 75 14 114 23 67 3 -16 3 -52 0 -81 -5 -46 -3 -53 12 -53 27 0 82 -62 93 -106 6 -21 14 -64 17 -95 6 -46 11 -59 30 -67 43 -20 101 -80 124 -130 l24 -50 31 41 c38 49 107 98 184 129 48 19 76 23 172 23 109 0 118 -2 184 -33 38 -17 84 -46 103 -62 29 -26 36 -28 53 -18 13 9 20 24 20 46 0 43 16 72 40 72 21 0 40 -27 40 -57 0 -15 9 -18 60 -20 74 -1 138 -36 177 -94 14 -21 29 -39 32 -39 4 0 17 9 29 20 19 18 22 31 22 111 0 87 -1 91 -40 153 -43 68 -45 77 -30 104 12 20 80 257 80 277 0 21 -69 40 -147 39 -57 -1 -83 -7 -127 -28 -107 -52 -187 -176 -172 -267 7 -45 4 -47 -31 -19 -58 45 -152 14 -199 -66 -26 -45 -38 -52 -49 -33 -16 24 -57 30 -118 14 -33 -8 -61 -14 -62 -13 -1 2 -12 50 -23 107 -25 126 -67 213 -140 292 -74 80 -140 112 -246 116 -69 3 -90 0 -139 -21z" id="15"/>
<path d="M6837 5942 c-31 -103 -57 -192 -57 -197 0 -6 30 -9 78 -7 112 4 162 12 162 25 0 16 -111 350 -119 359 -3 4 -32 -77 -64 -180z" id="16"/>
<path d="M5091 6049 c-63 -16 -120 -31 -125 -33 -6 -2 35 -5 92 -5 l102 -1 38 35 c44 41 40 41 -107 4z" id="17"/>
<path d="M8026 5959 c-20 -17 -40 -47 -46 -67 -19 -70 -21 -69 90 -68 100 1 100 1 100 26 -1 49 -19 105 -41 123 -31 25 -64 21 -103 -14z" id="18"/>
<path d="M259 5939 c-71 -10 -160 -49 -216 -95 l-43 -35 0 -255 0 -254 110 0 110 0 0 70 c0 59 -3 71 -20 80 -16 9 -20 21 -20 68 0 67 11 82 58 82 25 0 35 -5 39 -20 7 -27 17 -25 31 6 15 32 61 30 78 -3 l11 -23 11 25 c6 14 16 25 22 25 24 0 50 -22 50 -43 1 -18 3 -16 15 11 11 24 20 32 40 32 30 0 32 -4 38 -88 5 -60 4 -64 -19 -72 -22 -9 -24 -15 -24 -80 0 -79 -5 -76 98 -64 44 6 52 10 52 28 0 41 -12 65 -33 68 -25 3 -34 33 -36 116 -1 55 9 64 48 43 14 -8 34 4 100 60 45 39 80 76 78 82 -2 7 -17 18 -32 26 -29 14 -92 8 -147 -14 -14 -6 -22 3 -38 40 -30 69 -57 104 -109 136 -71 46 -157 62 -252 48z" id="19"/>
<path d="M1289 5867 c-79 -30 -127 -80 -150 -156 -12 -42 -12 -44 12 -63 13 -10 50 -42 82 -70 56 -48 59 -49 77 -33 22 20 70 13 70 -10 0 -23 -40 -119 -54 -130 -10 -8 -12 -34 -8 -108 4 -83 7 -97 21 -95 12 3 15 13 13 47 -4 40 -1 46 42 87 l46 44 1 72 c0 40 4 91 8 113 7 35 9 28 15 -56 5 -53 5 -106 1 -118 -5 -17 -2 -21 14 -21 18 0 21 6 21 50 0 97 59 213 137 271 59 44 31 86 -50 74 -39 -6 -43 -4 -62 25 -48 73 -154 108 -236 77z" id="20"/>
<path d="M962 5852 c-34 -17 -35 -20 -17 -78 6 -18 -10 -36 -96 -110 -57 -49 -118 -104 -137 -122 -33 -31 -36 -32 -53 -16 -27 24 -33 12 -23 -43 15 -79 30 -72 192 82 l142 137 63 -45 c34 -25 94 -71 132 -104 94 -79 140 -113 152 -113 8 0 33 63 33 84 0 12 -23 6 -41 -10 -17 -15 -25 -11 -133 75 -141 113 -180 155 -171 185 10 29 10 76 -1 86 -5 4 -24 1 -42 -8z" id="21"/>
<path d="M7993 5793 c-22 -4 -23 -9 -23 -105 0 -99 0 -100 23 -94 12 3 57 6 100 6 l77 0 0 94 0 93 -52 7 c-56 6 -89 6 -125 -1z m131 -36 c13 -10 17 -24 14 -62 l-3 -50 -45 2 c-29 2 -49 8 -57 20 -18 23 -16 68 3 87 19 19 64 21 88 3z" id="22"/>
<path d="M8046 5724 c-12 -30 -6 -42 24 -49 39 -9 48 -2 42 35 -4 25 -9 30 -32 30 -16 0 -30 -7 -34 -16z" id="23"/>
<path d="M5303 5750 c-32 -19 -70 -76 -59 -88 5 -4 174 -6 204 -2 1 0 -5 17 -13 38 -29 71 -73 88 -132 52z" id="24"/>
<path d="M1789 5747 c-147 -42 -254 -168 -266 -316 -5 -61 -3 -73 17 -101 18 -25 21 -40 17 -73 -5 -40 -3 -43 33 -69 41 -28 59 -23 40 12 -8 15 -3 46 20 137 17 65 40 144 51 176 10 31 19 73 19 91 0 57 17 50 25 -9 3 -31 21 -88 40 -128 18 -39 43 -106 55 -146 20 -68 21 -77 7 -100 -10 -18 -12 -33 -6 -48 7 -20 16 -23 59 -23 l50 0 0 58 c0 46 -4 63 -20 77 -11 10 -20 28 -20 39 0 23 96 186 109 186 14 0 38 -32 75 -101 42 -76 43 -89 16 -114 -17 -15 -20 -31 -20 -102 0 -45 3 -83 6 -83 3 0 26 14 51 31 l46 32 44 -22 45 -21 -5 77 c-2 43 -8 90 -12 105 -10 38 1 75 26 83 26 9 47 -9 57 -49 5 -20 15 -32 29 -34 17 -3 21 4 26 44 6 55 34 89 66 79 20 -6 22 -12 25 -80 1 -22 6 -30 19 -29 9 0 61 1 116 2 l98 2 9 31 c18 63 65 62 79 -2 9 -39 20 -37 31 9 7 30 14 38 36 40 36 4 51 -26 46 -94 l-5 -52 59 -7 c44 -5 87 -1 170 16 128 26 124 31 -37 49 -60 7 -115 15 -122 17 -6 3 -19 23 -28 46 -21 53 -40 74 -90 100 -52 28 -189 29 -250 3 l-39 -17 -31 35 c-36 43 -69 56 -140 56 -57 0 -155 -31 -175 -55 -22 -26 -36 -16 -49 35 -32 126 -139 209 -280 216 -44 2 -95 -1 -122 -9z" id="25"/>
<path d="M6798 5703 c-16 -2 -28 -8 -28 -14 0 -5 14 -32 31 -60 31 -50 33 -51 68 -43 20 4 56 8 80 10 43 2 45 4 73 58 l28 56 -112 -1 c-62 -1 -125 -4 -140 -6z" id="26"/>
<path d="M836 5533 l-137 -128 3 -45 3 -45 63 -3 62 -3 0 29 c0 42 17 52 87 52 52 0 64 -3 73 -20 8 -16 7 -27 -6 -49 -17 -29 -17 -30 26 -103 97 -163 107 -198 66 -220 -20 -11 -22 -17 -15 -37 7 -18 14 -22 32 -17 12 3 48 6 80 6 57 0 57 0 57 30 0 24 -4 30 -21 30 -19 0 -21 4 -15 30 7 36 59 115 81 123 12 5 15 24 15 85 0 169 6 157 -157 290 -79 64 -147 118 -152 120 -4 1 -69 -55 -145 -125z m186 66 c25 -13 48 -68 48 -113 0 -44 -20 -56 -89 -56 -41 0 -52 4 -62 21 -14 27 -7 122 10 143 15 18 63 21 93 5z" id="27"/>
<path d="M946 5564 c-3 -9 -6 -36 -6 -60 l0 -44 44 0 c25 0 48 5 51 11 10 16 -4 76 -21 94 -20 20 -60 19 -68 -1z" id="28"/>
<path d="M5280 5623 c-20 -8 -30 -24 -30 -49 0 -21 3 -21 43 -12 23 5 70 7 105 4 55 -6 62 -5 62 11 0 39 -17 47 -92 50 -40 1 -80 0 -88 -4z" id="29"/>
<path d="M8354 5588 c2 -7 22 -66 43 -130 l38 -118 33 0 32 0 0 130 0 130 -76 0 c-57 0 -74 -3 -70 -12z" id="30"/>
<path d="M216 5572 c-3 -5 -8 -28 -12 -50 -6 -39 -5 -42 20 -52 l27 -10 -7 -80 -7 -80 40 0 40 0 5 49 c3 28 12 61 22 75 18 29 56 35 75 12 9 -10 30 -104 31 -133 0 -2 11 -3 25 -3 25 0 25 1 25 84 0 81 1 84 25 90 23 6 25 11 25 57 0 54 -19 65 -30 18 -11 -45 -61 -34 -72 16 -4 18 -6 18 -16 -6 -18 -45 -53 -46 -66 -1 -8 24 -36 31 -36 8 0 -18 -27 -46 -45 -46 -8 0 -20 12 -27 27 -14 28 -33 40 -42 25z" id="31"/>
<path d="M8281 5529 c-19 -28 -60 -82 -91 -120 l-57 -70 23 -57 c18 -44 28 -57 43 -56 12 0 59 1 106 2 l85 2 0 81 c0 63 -7 100 -31 175 -17 52 -34 94 -38 94 -3 0 -21 -23 -40 -51z m25 -84 c3 -14 3 -32 0 -41 -10 -27 -31 -9 -34 29 -2 28 1 37 12 37 9 0 18 -11 22 -25z m-6 -109 c15 -20 9 -61 -10 -61 -10 0 -16 12 -18 38 -3 39 7 47 28 23z" id="32"/>
<path d="M6878 5563 c-29 -3 -39 -9 -42 -26 -3 -12 -8 -218 -11 -457 -6 -433 -6 -435 16 -480 12 -25 27 -48 33 -52 6 -4 41 -8 79 -8 l67 0 0 163 c0 89 -5 212 -10 272 -5 61 -14 184 -20 275 -5 91 -13 200 -16 243 -7 86 1 80 -96 70z m68 -74 c9 -18 17 -53 18 -78 l1 -46 -59 -3 -58 -3 7 58 c12 100 57 136 91 72z" id="33"/>
<path d="M6890 5464 c-6 -14 -10 -36 -10 -50 0 -20 5 -24 30 -24 33 0 35 6 19 63 -12 43 -26 47 -39 11z" id="34"/>
<path d="M7980 5561 l-45 -6 -6 -55 c-3 -30 -4 -58 -3 -61 2 -4 21 -9 41 -12 21 -4 56 -16 78 -27 21 -11 41 -20 42 -20 2 0 2 42 1 93 l-3 92 -30 1 c-16 1 -50 -1 -75 -5z" id="35"/>
<path d="M8113 5504 c4 -38 7 -87 7 -108 l0 -40 45 64 c34 49 45 73 45 102 0 30 -4 38 -19 38 -10 0 -33 3 -51 7 l-33 6 6 -69z" id="36"/>
<path d="M7562 5529 c-24 -12 -54 -36 -68 -55 -32 -41 -27 -50 60 -132 37 -34 66 -68 66 -77 0 -14 47 -44 53 -34 1 2 15 30 31 62 33 65 87 113 149 132 30 9 42 18 42 31 0 23 -52 31 -86 14 -18 -10 -26 -7 -58 23 -66 64 -114 73 -189 36z" id="37"/>
<path d="M4906 5509 c-12 -61 -8 -89 14 -89 15 0 20 7 20 29 0 40 -11 91 -20 91 -4 0 -10 -14 -14 -31z" id="38"/>
<path d="M5340 5409 l0 -129 63 0 c34 0 73 3 86 7 21 5 23 10 17 50 -11 81 -74 170 -137 192 l-29 10 0 -130z" id="39"/>
<path d="M5267 5510 c-34 -27 -59 -105 -55 -172 l3 -53 48 -3 47 -3 0 125 c0 70 -4 126 -9 126 -4 0 -20 -9 -34 -20z" id="40"/>
<path d="M5938 5514 c-100 -24 -199 -86 -243 -152 -21 -32 -24 -43 -16 -65 6 -15 15 -27 21 -27 6 0 31 -19 55 -42 l45 -41 79 81 c85 90 102 96 152 60 57 -42 170 -179 168 -202 -2 -12 9 -34 27 -53 l30 -33 49 19 c56 21 67 44 39 85 -24 38 -12 89 31 123 33 26 35 32 35 88 0 55 -1 58 -17 43 -15 -16 -19 -14 -61 22 -106 94 -253 129 -394 94z" id="41"/>
<path d="M5485 5469 c36 -52 55 -105 55 -151 0 -27 2 -28 55 -28 l54 0 -15 42 c-26 73 -62 125 -111 157 -67 44 -77 39 -38 -20z" id="42"/>
<path d="M6440 5402 l0 -119 -40 -32 c-43 -35 -54 -77 -25 -101 8 -7 15 -24 15 -39 0 -26 1 -26 60 -23 46 3 60 7 60 19 0 8 14 31 30 50 17 18 30 40 30 47 0 16 -25 39 -67 60 l-33 17 0 97 c0 101 -6 142 -21 142 -5 0 -9 -53 -9 -118z" id="43"/>
<path d="M1722 5489 c-6 -15 -14 -43 -17 -63 l-7 -36 42 0 c46 0 46 1 10 85 l-18 40 -10 -26z" id="44"/>
<path d="M5158 5467 c-48 -37 -83 -93 -93 -149 l-7 -38 60 0 59 0 5 78 c3 44 12 91 22 110 21 41 9 41 -46 -1z" id="45"/>
<path d="M7359 5453 c-12 -21 -48 -72 -79 -113 l-56 -75 4 -77 4 -78 37 0 c20 0 42 -4 50 -9 11 -7 22 1 42 29 35 48 102 94 159 110 25 7 51 14 59 16 10 3 -6 25 -48 65 -34 33 -78 85 -98 115 -20 30 -39 54 -44 54 -4 0 -18 -17 -30 -37z" id="46"/>
<path d="M1972 5398 l-41 -72 25 -27 c23 -25 24 -30 18 -105 l-6 -79 34 -33 c34 -32 35 -32 53 -12 16 17 17 32 12 109 -5 76 -3 93 14 120 10 17 19 37 19 44 0 16 -69 127 -79 127 -4 0 -26 -32 -49 -72z" id="47"/>
<path d="M3205 5426 c-38 -13 -103 -27 -142 -31 -73 -7 -89 -16 -55 -33 15 -8 175 -28 281 -35 19 -1 36 -8 39 -15 5 -17 -54 -40 -167 -64 -53 -11 -98 -22 -100 -24 -2 -2 6 -23 18 -47 11 -24 21 -51 21 -60 0 -21 18 -21 44 -2 27 20 48 19 99 -6 l45 -22 36 41 c54 60 116 86 201 87 51 0 78 -5 98 -17 14 -10 29 -18 31 -18 7 0 76 219 76 242 0 16 -10 18 -102 18 -57 0 -159 2 -228 5 -113 4 -132 2 -195 -19z" id="48"/>
<path d="M6497 5443 c-9 -9 -9 -125 1 -139 4 -6 22 -19 39 -28 66 -34 77 -90 27 -137 -35 -33 -31 -57 12 -75 20 -8 37 -14 39 -12 14 16 35 72 35 93 0 35 23 86 48 108 31 28 55 18 68 -28 7 -22 16 -56 22 -75 8 -29 10 -17 11 73 1 105 -4 122 -29 92 -19 -23 -28 -19 -49 23 -23 45 -66 87 -104 101 -31 12 -110 15 -120 4z" id="49"/>
<path d="M362 5393 c-6 -16 -14 -43 -17 -60 -7 -33 -6 -33 34 -33 l40 0 -5 38 c-9 68 -14 82 -28 82 -7 0 -18 -12 -24 -27z" id="50"/>
<path d="M2441 5392 c-6 -12 -11 -39 -11 -61 0 -36 -3 -40 -30 -46 -46 -10 -68 2 -76 41 -8 42 -20 51 -34 24 -8 -16 -7 -25 5 -42 11 -17 15 -48 15 -120 0 -54 3 -98 7 -98 3 0 20 11 37 24 17 13 49 27 71 30 l40 7 0 124 c0 126 -5 152 -24 117z" id="51"/>
<path d="M7897 5374 c-3 -16 -9 -80 -13 -143 -7 -126 -5 -131 54 -131 l32 0 0 72 c0 80 -22 170 -49 207 l-19 24 -5 -29z" id="52"/>
<path d="M4880 5375 c-7 -8 -10 -25 -6 -40 5 -21 12 -25 45 -25 49 0 66 18 50 54 -10 20 -19 26 -44 26 -18 0 -38 -7 -45 -15z" id="53"/>
<path d="M7837 5360 c-15 -17 -32 -50 -38 -73 -14 -49 -27 -177 -19 -181 3 -2 21 -1 42 1 l36 5 4 136 c2 76 3 138 2 140 -1 2 -13 -11 -27 -28z" id="54"/>
<path d="M2767 5373 c-13 -12 -7 -43 8 -43 8 0 15 6 15 13 0 18 -15 38 -23 30z" id="55"/>
<path d="M2877 5373 c-4 -3 -7 -16 -7 -28 0 -40 -19 -44 -201 -47 l-174 -3 -3 -72 -3 -73 72 0 c46 0 78 -5 88 -13 9 -8 33 -24 53 -36 l37 -22 12 40 c16 54 61 106 109 127 l40 18 0 58 c0 54 -7 68 -23 51z m-267 -148 c0 -8 -5 -17 -11 -21 -16 -9 -30 18 -17 33 12 15 28 8 28 -12z m60 -6 c0 -10 -7 -19 -15 -19 -15 0 -21 31 -9 43 11 10 24 -3 24 -24z m66 16 c3 -8 3 -19 -1 -25 -10 -16 -35 7 -28 26 7 18 22 18 29 -1z" id="56"/>
<path d="M3716 5262 c-22 -64 -41 -123 -44 -129 -2 -7 2 -13 9 -13 8 0 23 24 34 52 27 70 46 72 69 8 18 -51 36 -74 36 -45 0 13 -59 236 -64 242 -1 1 -19 -51 -40 -115z" id="57"/>
<path d="M7965 5364 c21 -50 35 -125 35 -186 l0 -68 30 0 c24 0 31 5 36 27 10 40 -12 141 -41 184 -28 43 -74 76 -60 43z" id="58"/>
<path d="M4649 5343 c-11 -20 -16 -60 -18 -135 l-1 -108 40 0 40 0 0 79 c0 44 5 83 10 86 18 11 11 43 -16 74 -14 17 -29 31 -33 31 -4 0 -14 -12 -22 -27z" id="59"/>
<path d="M8062 5311 c24 -47 30 -71 31 -130 l1 -71 29 0 30 0 -6 69 c-7 80 -33 140 -76 170 -16 12 -31 21 -34 21 -3 0 8 -26 25 -59z" id="60"/>
<path d="M857 5354 c-3 -3 -1 -18 4 -32 5 -14 6 -29 2 -33 -12 -11 -561 -28 -720 -22 l-143 6 0 -67 c0 -66 1 -67 23 -59 37 13 101 9 144 -11 l40 -18 39 27 c32 22 47 26 83 22 23 -3 55 -14 70 -24 25 -19 27 -19 66 -2 54 25 131 24 180 -1 33 -17 41 -18 54 -6 40 36 132 40 191 10 20 -9 35 -10 68 -1 23 6 42 15 42 19 0 5 -13 32 -30 61 -31 55 -38 91 -20 102 6 3 10 13 10 21 0 10 -13 14 -48 14 -27 0 -51 -3 -55 -6z" id="61"/>
<path d="M1687 5353 c-4 -3 -7 -15 -7 -25 0 -20 12 -22 83 -12 41 6 45 9 36 25 -7 15 -21 19 -58 19 -26 0 -51 -3 -54 -7z" id="62"/>
<path d="M7750 5318 c-30 -41 -52 -101 -66 -180 l-6 -38 36 0 36 0 0 50 c0 59 17 145 36 183 22 42 0 32 -36 -15z" id="63"/>
<path d="M1406 5309 c-27 -22 -33 -48 -16 -79 12 -23 6 -30 -67 -71 -29 -16 -53 -34 -53 -40 0 -10 329 -2 340 8 3 3 -8 14 -25 26 -72 53 -81 64 -67 86 41 69 -45 123 -112 70z" id="64"/>
<path d="M5894 5248 c-41 -39 -74 -77 -74 -85 0 -7 1 -13 3 -13 1 0 37 34 79 75 42 41 81 75 86 75 5 0 39 -36 76 -80 38 -44 75 -80 83 -80 14 0 13 3 -3 23 -49 60 -150 157 -162 157 -8 0 -47 -32 -88 -72z" id="65"/>
<path d="M8420 5268 c0 -38 0 -38 40 -38 40 0 40 0 40 38 0 37 0 37 -40 37 -40 0 -40 0 -40 -37z" id="66"/>
<path d="M7096 5287 l-79 -10 6 -85 c4 -46 8 -86 10 -88 2 -3 43 -1 91 2 l86 7 0 49 c0 26 -5 57 -12 67 -9 15 -9 25 0 45 13 30 21 29 -102 13z" id="67"/>
<path d="M1708 5282 c-34 -2 -48 -7 -48 -18 0 -7 -1 -17 -2 -21 -3 -7 152 -4 164 3 4 3 5 11 2 18 -6 16 -48 22 -116 18z" id="68"/>
<path d="M4920 5189 c0 -82 1 -87 23 -93 39 -10 47 -7 47 20 0 42 -20 99 -46 130 l-23 29 -1 -86z" id="69"/>
<path d="M4990 5230 c11 -22 23 -60 27 -85 4 -35 10 -45 24 -45 37 0 20 101 -23 148 -36 38 -51 28 -28 -18z" id="70"/>
<path d="M4865 5229 c-9 -16 -19 -52 -22 -80 -6 -48 -5 -49 21 -49 26 0 26 0 26 80 0 44 -2 80 -5 80 -2 0 -12 -14 -20 -31z" id="71"/>
<path d="M5920 5205 l-54 -55 107 0 108 0 -43 54 c-24 30 -48 55 -53 55 -6 1 -35 -24 -65 -54z" id="72"/>
<path d="M5069 5232 c5 -10 14 -47 20 -82 21 -119 15 -110 76 -110 51 0 56 2 65 28 20 55 36 78 87 130 l52 52 -155 0 c-145 0 -154 -1 -145 -18z" id="73"/>
<path d="M5445 5241 c-35 -9 -91 -37 -99 -50 -3 -4 34 -11 82 -14 66 -4 92 -2 109 9 28 18 54 18 79 -1 12 -9 43 -14 88 -15 l69 0 -24 26 c-42 46 -70 54 -176 53 -54 -1 -111 -4 -128 -8z" id="74"/>
<path d="M6701 5224 c-12 -15 -21 -38 -21 -53 -1 -14 -9 -51 -20 -81 l-19 -55 27 -19 c15 -11 48 -43 74 -70 26 -28 49 -48 51 -46 11 12 -49 336 -63 345 -5 3 -18 -7 -29 -21z" id="75"/>
<path d="M2870 5219 c-13 -6 -33 -18 -43 -27 -20 -17 -57 -84 -57 -100 0 -17 68 -23 186 -16 l116 7 -5 35 c-4 19 -13 45 -22 59 -30 45 -115 66 -175 42z" id="76"/>
<path d="M4803 5192 c-11 -20 -23 -49 -27 -64 -5 -23 -3 -28 12 -28 14 0 20 13 29 62 7 34 11 64 9 65 -1 2 -12 -14 -23 -35z" id="77"/>
<path d="M7493 5200 c-23 -10 -64 -40 -90 -67 -56 -56 -69 -51 130 -55 l127 -3 0 61 c0 55 -2 62 -25 72 -38 17 -94 14 -142 -8z" id="78"/>
<path d="M1670 5190 c0 -18 7 -20 65 -20 58 0 65 2 65 20 0 18 -7 20 -65 20 -58 0 -65 -2 -65 -20z" id="79"/>
<path d="M8182 5148 c3 -53 3 -53 38 -56 19 -2 90 -1 158 3 l122 7 0 49 0 49 -161 0 -160 0 3 -52z" id="80"/>
<path d="M3465 5181 c-16 -4 -41 -13 -55 -20 -35 -18 -90 -72 -90 -88 0 -20 24 -16 38 7 16 25 80 58 129 65 21 3 62 -1 93 -9 60 -16 66 -15 56 9 -13 35 -99 53 -171 36z" id="81"/>
<path d="M3732 5145 c-11 -23 -10 -25 13 -25 26 0 29 7 19 34 -9 23 -19 20 -32 -9z" id="82"/>
<path d="M5545 5146 c-23 -35 -5 -78 32 -74 38 4 54 49 28 78 -24 26 -41 25 -60 -4z" id="83"/>
<path d="M280 5139 c-14 -6 -35 -19 -47 -31 l-22 -20 -56 27 c-42 21 -64 26 -91 22 -53 -9 -64 -23 -64 -78 l0 -49 443 0 c386 0 609 9 624 23 2 3 -6 26 -18 51 -24 51 -49 59 -102 31 -25 -13 -31 -12 -63 7 -46 27 -144 22 -176 -9 l-21 -21 -45 24 c-58 31 -115 31 -175 0 -45 -22 -47 -23 -63 -5 -9 11 -33 23 -53 29 -42 12 -39 12 -71 -1z" id="84"/>
<path d="M5300 5135 c-7 -9 -11 -17 -9 -18 10 -6 219 6 219 13 0 9 -76 20 -145 20 -35 0 -57 -5 -65 -15z" id="85"/>
<path d="M1661 5123 c23 -30 32 -33 89 -33 62 0 86 11 77 34 -5 13 -23 16 -93 16 -81 0 -86 -1 -73 -17z" id="86"/>
<path d="M2118 5089 c-38 -28 -68 -54 -68 -59 0 -4 7 -13 14 -20 8 -6 29 -34 47 -62 28 -43 33 -47 42 -32 7 13 7 19 -1 22 -26 8 -8 32 58 78 39 26 70 55 70 63 0 14 -67 61 -87 61 -4 0 -38 -23 -75 -51z" id="87"/>
<path d="M5650 5120 c0 -18 7 -20 81 -20 60 0 80 3 77 13 -5 15 -46 24 -110 26 -42 1 -48 -2 -48 -19z" id="88"/>
<path d="M1802 5006 c-87 -138 -91 -146 -64 -146 11 0 27 7 36 15 12 12 83 148 124 238 2 4 -3 7 -10 7 -8 0 -47 -51 -86 -114z" id="89"/>
<path d="M2409 5110 c-15 -4 -46 -22 -70 -39 -24 -18 -64 -46 -89 -64 l-45 -32 69 -3 69 -3 108 72 c60 39 109 73 109 75 0 7 -125 2 -151 -6z" id="90"/>
<path d="M3458 5111 c-39 -13 -88 -50 -88 -67 0 -8 3 -14 8 -14 4 0 63 -36 131 -80 69 -44 128 -80 133 -80 9 0 9 144 -1 179 -3 13 -18 32 -31 42 -29 21 -113 32 -152 20z m72 -66 c16 -20 5 -45 -20 -45 -14 0 -20 7 -20 23 0 38 18 48 40 22z" id="91"/>
<path d="M5861 5063 c10 -31 19 -78 19 -105 0 -26 3 -48 6 -48 3 0 44 31 90 70 47 38 106 82 132 97 l47 28 -55 7 c-30 3 -101 6 -157 7 l-102 1 20 -57z" id="92"/>
<path d="M1870 4989 l-63 -122 147 5 c80 3 149 8 152 11 3 3 -5 22 -19 42 -36 53 -141 184 -148 184 -3 1 -34 -54 -69 -120z" id="93"/>
<path d="M2515 5048 l-100 -63 180 -8 c267 -11 259 -15 140 66 -55 37 -105 67 -110 67 -6 0 -56 -28 -110 -62z" id="94"/>
<path d="M3055 5019 c-168 -127 -242 -193 -222 -197 8 -2 49 24 89 58 116 98 247 182 271 174 11 -3 52 -25 91 -49 39 -23 122 -70 183 -104 62 -35 115 -67 119 -72 3 -5 20 -9 37 -9 30 0 26 4 -47 51 -113 72 -371 228 -387 233 -8 3 -68 -35 -134 -85z" id="95"/>
<path d="M1394 5083 c-120 -3 -155 -7 -164 -18 -7 -9 -11 -17 -8 -20 2 -2 104 -1 225 2 212 6 222 7 212 25 -8 14 -20 18 -62 16 -29 -1 -120 -4 -203 -5z" id="96"/>
<path d="M3676 4968 c7 -127 13 -148 45 -148 17 0 19 9 19 104 0 145 -5 166 -42 166 l-29 0 7 -122z" id="97"/>
<path d="M3764 5038 c3 -29 6 -90 6 -135 l0 -83 30 0 30 0 0 89 c0 48 -3 109 -6 135 -6 43 -9 46 -37 46 l-30 0 7 -52z" id="98"/>
<path d="M4057 5022 c-37 -37 -67 -71 -67 -75 0 -4 50 -7 110 -7 61 0 110 3 110 8 0 4 -20 37 -43 74 l-43 68 -67 -68z" id="99"/>
<path d="M5295 5081 c-20 -4 -31 -13 -33 -26 -2 -19 4 -20 155 -23 142 -2 155 -1 127 12 -17 7 -34 21 -37 30 -5 13 -22 16 -94 15 -48 -1 -101 -4 -118 -8z" id="100"/>
<path d="M7052 5073 c-19 -4 -23 -9 -18 -26 3 -12 6 -43 6 -68 l0 -47 113 5 c61 2 136 6 165 9 l53 6 -34 61 -34 62 -114 1 c-63 1 -125 0 -137 -3z" id="101"/>
<path d="M7749 5072 l-37 -3 5 -87 c3 -48 6 -88 7 -88 0 -1 91 -3 201 -5 l200 -4 3 95 3 96 -173 -1 c-95 0 -189 -1 -209 -3z m55 -58 c3 -9 6 -34 6 -56 0 -31 -3 -39 -17 -36 -23 4 -38 54 -24 84 12 28 26 31 35 8z m142 -8 c9 -39 1 -81 -18 -84 -23 -4 -41 41 -33 80 8 36 42 39 51 4z m122 -34 c3 -55 -9 -68 -34 -34 -25 32 -14 95 15 90 12 -2 17 -17 19 -56z" id="102"/>
<path d="M4530 5065 c0 -4 17 -51 37 -106 26 -71 41 -99 53 -99 9 0 19 3 22 6 11 10 -79 199 -96 202 -9 2 -16 1 -16 -3z" id="103"/>
<path d="M4604 5038 c58 -136 77 -168 96 -168 11 0 20 1 20 3 0 2 -17 46 -38 98 -34 84 -41 94 -66 97 l-27 3 15 -33z" id="104"/>
<path d="M4712 4971 c23 -56 46 -101 52 -101 35 1 35 17 -3 105 -33 77 -42 90 -64 93 l-26 3 41 -100z" id="105"/>
<path d="M4760 5061 c0 -5 7 -26 16 -47 9 -22 21 -50 26 -63 l9 -25 27 27 27 27 -25 45 c-20 37 -30 45 -52 45 -16 0 -28 -4 -28 -9z" id="106"/>
<path d="M4850 5063 c0 -3 11 -20 24 -38 20 -26 30 -31 55 -27 37 5 39 15 6 47 -22 23 -85 36 -85 18z" id="107"/>
<path d="M4988 5063 c-21 -5 -21 -5 -6 -38 9 -21 18 -25 55 -25 48 0 62 15 43 49 -11 21 -47 26 -92 14z" id="108"/>
<path d="M5630 5060 c0 -5 -11 -12 -25 -16 -58 -15 -16 -24 106 -24 115 0 130 2 125 16 -3 9 -6 20 -6 25 0 5 -45 9 -100 9 -59 0 -100 -4 -100 -10z" id="109"/>
<path d="M6127 5054 c-38 -21 -31 -25 32 -17 51 6 56 15 16 26 -11 3 -33 -1 -48 -9z" id="110"/>
<path d="M8160 4973 l0 -93 170 0 170 0 0 93 0 93 -170 0 -170 -1 0 -92z m110 1 c0 -15 -6 -24 -15 -24 -15 0 -21 40 -9 53 12 11 24 -3 24 -29z m70 6 c0 -11 -7 -20 -15 -20 -8 0 -15 9 -15 20 0 11 7 20 15 20 8 0 15 -9 15 -20z m70 0 c0 -11 -7 -20 -15 -20 -8 0 -15 9 -15 20 0 11 7 20 15 20 8 0 15 -9 15 -20z" id="111"/>
<path d="M1704 5038 c1 -19 -4 -23 -26 -20 l-28 3 0 -180 c0 -117 4 -182 11 -186 6 -4 12 -5 14 -3 2 2 5 53 8 113 l4 110 50 80 c27 44 53 86 57 93 5 9 -5 12 -42 12 -44 0 -49 -2 -48 -22z" id="112"/>
<path d="M6360 5045 c-30 -9 -65 -22 -77 -30 -20 -13 -103 -115 -103 -126 0 -10 548 -10 554 0 12 19 -72 97 -140 131 -79 39 -155 47 -234 25z" id="113"/>
<path d="M2797 5040 c5 -3 25 -18 46 -34 42 -31 48 -53 15 -58 -19 -2 -24 -10 -26 -42 l-3 -40 43 40 c24 21 71 61 106 88 34 27 62 50 62 52 0 2 -56 3 -125 2 -69 -1 -122 -5 -118 -8z" id="114"/>
<path d="M4483 5038 c-30 -38 -47 -88 -49 -150 l-3 -66 60 -7 59 -7 0 -110 c0 -99 2 -109 18 -106 15 3 17 18 20 110 2 98 0 115 -27 193 -43 120 -64 160 -78 143z" id="115"/>
<path d="M7362 5038 c5 -15 328 -24 328 -10 0 14 -80 22 -212 22 -91 0 -119 -3 -116 -12z" id="116"/>
<path d="M3190 4941 c0 -49 -3 -96 -6 -105 -5 -13 2 -16 35 -16 l41 0 0 83 0 82 -35 23 -35 22 0 -89z" id="117"/>
<path d="M1347 5013 c-84 -3 -98 -6 -93 -19 3 -9 6 -20 6 -25 0 -10 137 -12 268 -3 88 7 92 8 92 30 0 26 9 26 -273 17z" id="118"/>
<path d="M3112 4990 l-43 -31 3 -72 3 -72 30 -3 c52 -4 56 5 53 112 l-3 98 -43 -32z" id="119"/>
<path d="M5146 4998 c4 -7 21 -31 37 -53 l28 -40 -3 50 c-3 49 -4 50 -37 53 -25 3 -31 0 -25 -10z" id="120"/>
<path d="M5239 5006 c-2 -2 -3 -81 -1 -175 3 -162 4 -171 22 -171 19 0 20 8 20 129 0 150 -8 221 -25 221 -6 0 -14 -2 -16 -4z" id="121"/>
<path d="M5306 4913 c3 -54 7 -135 10 -180 l6 -83 45 0 46 0 -6 53 c-4 28 -9 106 -13 172 -4 69 -12 123 -18 127 -6 4 -25 8 -43 8 l-31 0 4 -97z" id="122"/>
<path d="M6099 5003 c-37 -3 -62 -10 -72 -21 -15 -16 -10 -17 66 -13 86 4 127 14 127 31 0 5 -15 9 -32 8 -18 -1 -58 -3 -89 -5z" id="123"/>
<path d="M5415 4973 c5 -30 25 -272 25 -304 0 -10 5 -19 10 -19 6 0 10 65 10 175 l0 175 -25 0 c-21 0 -24 -4 -20 -27z" id="124"/>
<path d="M5492 4826 l1 -176 47 0 47 0 7 47 c7 55 -4 282 -14 288 -4 2 -26 7 -48 11 l-42 7 2 -177z" id="125"/>
<path d="M483 4983 l-483 -3 2 -93 c1 -87 1 -88 7 -30 6 67 18 87 47 81 31 -5 57 -74 62 -160 4 -76 5 -78 31 -78 26 0 26 0 26 83 1 85 15 131 47 151 14 8 22 6 39 -10 16 -17 23 -43 32 -123 14 -127 32 -135 40 -17 8 110 34 164 71 150 28 -11 44 -56 51 -142 6 -69 10 -82 25 -82 16 0 19 12 22 96 3 86 5 98 27 115 53 43 80 7 88 -120 l6 -91 27 0 28 0 4 96 c4 91 6 98 32 120 22 19 31 22 47 13 27 -14 37 -45 45 -139 6 -74 9 -80 29 -80 21 0 23 5 30 96 5 74 11 100 26 115 45 45 74 14 84 -88 10 -112 13 -123 41 -123 24 0 24 2 23 88 0 48 -4 107 -7 132 -7 42 -9 45 -37 45 -16 0 -247 -1 -512 -2z" id="126"/>
<path d="M5623 4821 c2 -159 3 -171 21 -171 17 0 18 9 13 168 -5 136 -8 168 -20 170 -13 3 -15 -22 -14 -167z" id="127"/>
<path d="M5687 4823 c3 -93 6 -169 7 -170 1 -1 22 -3 46 -5 l45 -3 3 80 c2 44 0 122 -3 173 l-7 92 -49 0 -48 0 6 -167z" id="128"/>
<path d="M5817 4828 c5 -182 6 -188 28 -188 13 0 15 19 15 123 0 169 -8 227 -30 227 -17 0 -18 -12 -13 -162z" id="129"/>
<path d="M7397 4955 c5 -31 3 -35 -16 -35 -15 0 -21 -6 -21 -22 0 -20 2 -21 98 -15 53 4 127 7 165 7 l67 0 0 50 0 50 -149 0 -150 0 6 -35z" id="130"/>
<path d="M4325 4950 c-24 -46 -20 -51 31 -48 46 3 46 3 49 41 2 36 1 37 -31 37 -27 0 -36 -6 -49 -30z" id="131"/>
<path d="M5020 4971 c-37 -4 -50 -9 -41 -15 7 -5 19 -24 27 -42 l14 -34 80 0 c44 0 80 3 80 8 -1 4 -13 25 -28 47 -30 44 -40 46 -132 36z" id="132"/>
<path d="M3290 4890 l0 -70 45 0 45 0 0 45 c0 41 -3 47 -40 70 -22 14 -42 25 -45 25 -3 0 -5 -31 -5 -70z" id="133"/>
<path d="M4880 4947 c-43 -21 -60 -71 -60 -177 0 -124 8 -170 29 -170 14 0 16 12 13 86 -3 65 0 91 12 109 34 52 62 6 72 -119 6 -75 9 -86 25 -86 18 0 19 10 19 140 0 150 -11 199 -48 219 -26 14 -31 14 -62 -2z m26 -48 c10 -17 -23 -46 -38 -31 -8 8 -8 15 2 27 15 18 26 19 36 4z" id="134"/>
<path d="M2434 4913 c3 -21 6 -50 6 -65 0 -24 4 -28 30 -28 27 0 30 3 30 29 0 16 7 37 16 46 23 22 44 2 44 -41 0 -27 4 -34 20 -34 14 0 20 7 20 23 0 12 7 33 16 45 20 29 41 15 50 -34 3 -19 10 -34 15 -34 10 0 14 8 23 53 4 18 13 27 25 27 21 0 31 -19 31 -56 0 -13 5 -24 10 -24 14 0 30 44 30 84 l0 33 -92 7 c-50 3 -134 6 -186 6 l-95 0 7 -37z" id="135"/>
<path d="M1432 4932 l-173 -2 3 -33 3 -32 175 0 175 0 3 29 c2 16 0 31 -5 35 -4 3 -86 5 -181 3z" id="136"/>
<path d="M2180 4902 c0 -22 3 -87 7 -145 l6 -107 47 0 c58 0 60 -4 60 -111 l0 -79 35 -1 c19 -1 41 -2 48 -3 9 -1 14 50 18 209 4 116 5 225 2 243 l-5 32 -109 0 -109 0 0 -38z m128 -14 c7 -7 12 -26 12 -44 0 -36 -21 -50 -51 -34 -33 18 -20 90 16 90 6 0 16 -5 23 -12z m-2 -154 c4 -17 1 -31 -10 -42 -15 -15 -17 -15 -32 0 -22 22 -11 68 16 68 13 0 22 -9 26 -26z" id="137"/>
<path d="M3013 4920 c-32 -25 -33 -96 -2 -105 11 -4 23 -5 25 -2 3 3 4 32 2 65 l-3 60 -22 -18z" id="138"/>
<path d="M5949 4920 l-24 -20 110 6 c122 6 135 9 135 24 0 6 -38 10 -99 10 -84 0 -102 -3 -122 -20z" id="139"/>
<path d="M905 4908 c-8 -20 -22 -178 -16 -183 2 -3 20 -5 38 -5 33 0 34 1 29 33 -3 17 -8 62 -11 100 -5 49 -10 67 -21 67 -8 0 -17 -6 -19 -12z" id="140"/>
<path d="M1074 4823 l4 -98 73 0 74 0 3 98 3 97 -81 0 -81 0 5 -97z" id="141"/>
<path d="M4014 4907 c-8 -5 -14 -24 -14 -47 l0 -40 99 0 c55 0 102 3 104 8 2 4 2 24 0 44 l-5 37 -85 3 c-46 2 -91 -1 -99 -5z" id="142"/>
<path d="M47 4904 c-3 -5 -8 -55 -12 -111 l-8 -103 37 0 c40 0 39 -5 26 98 -9 71 -32 133 -43 116z" id="143"/>
<path d="M222 4897 c-11 -13 -31 -126 -32 -174 0 -20 5 -23 40 -23 40 0 40 0 39 38 -1 66 -15 152 -25 162 -8 8 -14 7 -22 -3z" id="144"/>
<path d="M541 4891 c-6 -11 -11 -56 -11 -100 l0 -81 30 0 30 0 -1 68 c-2 113 -23 162 -48 113z" id="145"/>
<path d="M721 4888 c-4 -13 -11 -56 -14 -96 -7 -80 0 -90 49 -78 26 7 26 7 20 84 -4 42 -10 85 -12 95 -7 24 -33 21 -43 -5z" id="146"/>
<path d="M7108 4903 l-58 -4 0 -114 0 -115 123 0 c175 0 167 -4 167 95 0 45 -3 97 -6 114 l-6 31 -82 -2 c-44 -1 -107 -3 -138 -5z m10 -73 c4 -38 -14 -63 -28 -40 -11 18 -13 64 -3 74 14 14 28 -1 31 -34z m110 -13 c-4 -43 -26 -45 -33 -3 -9 43 1 62 21 45 9 -7 14 -25 12 -42z m64 -2 c-15 -32 -32 -24 -32 14 0 36 10 45 29 27 12 -12 12 -20 3 -41z m-117 25 c7 -23 -12 -63 -26 -55 -15 10 -11 75 5 75 8 0 17 -9 21 -20z" id="147"/>
<path d="M375 4883 c-4 -10 -9 -55 -12 -100 -6 -89 -5 -90 46 -76 23 6 23 8 16 77 -3 39 -9 81 -12 94 -6 26 -28 29 -38 5z" id="148"/>
<path d="M3410 4855 l0 -35 68 0 67 1 -60 34 c-33 19 -63 35 -67 35 -5 0 -8 -16 -8 -35z" id="149"/>
<path d="M4338 4873 c-19 -5 -22 -12 -12 -37 4 -10 18 -16 39 -16 32 0 45 13 45 46 0 14 -34 17 -72 7z" id="150"/>
<path d="M5998 4873 l-108 -4 0 -113 c0 -92 3 -115 15 -120 9 -3 15 -18 15 -36 l0 -30 91 0 c128 0 129 2 129 177 0 121 -2 133 -17 131 -10 -1 -66 -4 -125 -5z m-40 -125 c-2 -40 -7 -73 -13 -73 -5 0 -11 33 -13 73 -2 60 0 72 13 72 13 0 15 -12 13 -72z m60 -1 c2 -55 0 -67 -13 -67 -12 0 -15 14 -15 71 0 52 3 70 13 67 7 -3 13 -29 15 -71z m62 3 c0 -56 -3 -70 -15 -70 -12 0 -15 14 -15 70 0 56 3 70 15 70 12 0 15 -14 15 -70z" id="151"/>
<path d="M2915 4845 l-30 -24 38 -1 c33 0 37 3 37 25 0 31 -7 31 -45 0z" id="152"/>
<path d="M3860 4846 c0 -25 2 -26 55 -26 48 0 55 2 55 20 0 12 -7 20 -17 20 -10 0 -35 3 -55 6 -36 6 -38 5 -38 -20z" id="153"/>
<path d="M5107 4852 l-88 -3 3 -127 3 -127 27 -3 c21 -3 29 3 40 25 11 23 20 29 56 31 35 3 45 8 52 28 12 30 13 171 3 176 -5 2 -48 2 -96 0z m-12 -62 c0 -16 -6 -26 -19 -28 -25 -5 -39 12 -31 38 10 31 50 24 50 -10z m65 11 c0 -19 -23 -35 -34 -24 -14 15 -5 43 14 43 13 0 20 -7 20 -19z" id="154"/>
<path d="M6170 4736 c0 -98 3 -127 13 -124 6 3 16 29 20 59 13 89 27 128 48 139 50 27 89 -27 89 -125 0 -30 5 -55 10 -55 6 0 10 17 10 38 0 83 38 152 84 152 33 0 56 -31 65 -87 l7 -48 8 40 c10 55 32 85 60 85 39 0 60 -34 64 -106 5 -77 22 -86 22 -11 0 61 29 117 60 117 28 0 40 -30 40 -99 0 -33 5 -63 10 -66 6 -4 10 32 10 99 l0 106 -227 0 c-126 0 -265 3 -310 7 l-83 6 0 -127z" id="155"/>
<path d="M7388 4854 c-10 -3 -18 -13 -18 -21 0 -15 46 -16 493 -9 534 9 786 22 457 25 -102 0 -349 3 -550 6 -201 2 -373 2 -382 -1z" id="156"/>
<path d="M1932 4840 c-72 -3 -132 -8 -132 -12 0 -5 0 -46 0 -93 l0 -85 180 0 180 0 0 69 c0 38 -3 83 -6 100 -6 29 -9 31 -48 29 -22 -1 -101 -5 -174 -8z m178 -51 c0 -10 -7 -19 -15 -19 -15 0 -21 31 -9 43 11 10 24 -3 24 -24z m-233 -23 c-4 -9 -11 -16 -17 -16 -15 0 -24 26 -16 47 6 15 8 15 23 1 9 -9 13 -24 10 -32z m51 -3 c-16 -15 -18 -15 -24 0 -3 9 -3 25 0 34 6 15 8 15 24 0 15 -16 15 -18 0 -34z m64 5 c-16 -16 -37 4 -28 28 6 16 8 16 23 1 13 -13 15 -19 5 -29z m65 26 c8 -21 -13 -42 -28 -27 -13 13 -5 43 11 43 6 0 13 -7 17 -16z m-60 -80 c8 -21 -13 -42 -28 -27 -13 13 -5 43 11 43 6 0 13 -7 17 -16z m119 5 c10 -17 -13 -36 -27 -22 -12 12 -4 33 11 33 5 0 12 -5 16 -11z m-250 -35 c-5 -13 -10 -14 -18 -6 -6 6 -8 18 -4 28 5 13 10 14 18 6 6 -6 8 -18 4 -28z m64 16 c0 -11 -7 -20 -15 -20 -8 0 -15 9 -15 20 0 11 7 20 15 20 8 0 15 -9 15 -20z m130 7 c0 -8 -3 -17 -7 -20 -9 -9 -34 13 -27 24 8 14 34 11 34 -4z" id="157"/>
<path d="M1715 4827 c-3 -7 -5 -49 -3 -93 3 -77 4 -79 28 -79 25 0 25 1 25 90 0 86 -1 90 -23 93 -12 2 -24 -3 -27 -11z" id="158"/>
<path d="M4663 4833 l-53 -4 0 -119 0 -118 63 -7 c77 -8 133 -4 130 11 -1 6 -5 63 -9 128 l-7 116 -36 -2 c-20 -1 -60 -3 -88 -5z" id="159"/>
<path d="M1260 4775 c0 -49 2 -55 20 -55 13 0 24 10 31 27 13 34 37 52 70 53 36 0 48 -17 61 -89 12 -66 28 -81 28 -28 0 17 9 51 20 75 15 33 24 42 44 42 33 0 53 -31 62 -97 10 -83 24 -62 24 37 l0 90 -180 0 -180 0 0 -55z" id="160"/>
<path d="M8200 4799 c-118 -4 -352 -7 -520 -7 l-305 0 -3 -56 -3 -56 29 0 c31 0 42 -14 42 -55 0 -18 4 -22 20 -18 13 4 20 13 19 27 -8 87 16 136 66 136 31 0 46 -28 54 -100 6 -51 8 -55 34 -58 26 -3 27 -2 27 42 0 85 41 137 92 117 31 -12 40 -30 47 -101 6 -53 7 -55 37 -58 31 -3 31 -2 37 50 8 61 34 102 69 106 37 5 59 -28 65 -97 5 -55 8 -61 29 -61 19 0 25 9 38 53 41 142 136 145 136 5 l0 -58 34 0 c32 0 35 2 41 40 4 22 17 54 29 72 18 27 28 33 56 33 31 0 36 -4 47 -35 7 -19 12 -54 12 -77 1 -42 2 -43 36 -43 l35 0 0 105 0 105 -42 -2 c-24 -1 -140 -5 -258 -9z" id="161"/>
<path d="M2432 4782 c-2 -7 -3 -14 -1 -16 2 -2 211 1 464 6 414 7 1586 -6 1607 -18 9 -6 21 16 13 24 -4 4 -473 9 -1042 12 -841 4 -1036 3 -1041 -8z" id="162"/>
<path d="M6257 4769 c-8 -13 -18 -52 -22 -87 l-7 -63 38 3 39 3 3 61 c2 48 -1 66 -16 84 l-19 24 -16 -25z" id="163"/>
<path d="M6414 4769 c-14 -16 -19 -36 -19 -82 l0 -62 45 0 45 0 -2 63 c-4 97 -28 126 -69 81z" id="164"/>
<path d="M4890 4687 c0 -83 2 -97 16 -97 15 0 16 10 11 87 -9 125 -27 132 -27 10z" id="165"/>
<path d="M6561 4751 c-7 -15 -11 -50 -9 -77 3 -47 4 -49 33 -49 29 0 30 1 33 57 5 89 -31 132 -57 69z" id="166"/>
<path d="M6704 4745 c-7 -19 -14 -53 -14 -75 0 -38 2 -40 30 -40 30 0 30 1 30 53 0 98 -20 124 -46 62z" id="167"/>
<path d="M1347 4752 c-23 -25 -21 -32 8 -32 14 0 29 -8 35 -20 13 -25 33 -27 27 -2 -3 9 -8 29 -11 45 -7 32 -35 36 -59 9z" id="168"/>
<path d="M1520 4755 c-7 -8 -15 -35 -18 -60 l-5 -45 38 0 37 0 -7 46 c-11 77 -20 89 -45 59z" id="169"/>
<path d="M2918 4743 l-68 -4 0 -49 c0 -47 2 -51 33 -64 18 -7 49 -32 69 -55 37 -44 48 -50 48 -26 0 19 56 83 81 90 17 6 20 14 17 58 l-3 52 -55 1 c-30 0 -85 -1 -122 -3z" id="170"/>
<path d="M3130 4697 c0 -51 2 -54 34 -70 20 -9 45 -33 58 -57 13 -22 26 -40 30 -40 3 0 15 16 27 35 11 20 36 45 56 56 33 20 35 24 35 75 l0 54 -120 0 -120 0 0 -53z" id="171"/>
<path d="M3400 4693 c0 -55 2 -59 33 -73 18 -8 39 -29 47 -47 8 -18 17 -33 20 -33 3 0 13 13 23 29 9 16 35 38 56 48 32 15 40 25 45 53 14 84 20 80 -109 80 l-115 0 0 -57z" id="172"/>
<path d="M3660 4718 c0 -18 -3 -43 -6 -55 -4 -16 0 -23 18 -28 32 -10 75 -52 83 -82 l6 -26 34 37 c18 20 47 41 64 47 30 11 31 13 31 68 l0 58 -82 6 c-147 12 -148 12 -148 -25z" id="173"/>
<path d="M7704 4725 c-9 -14 -19 -46 -22 -71 l-5 -45 44 3 44 3 0 58 c0 40 -5 61 -15 67 -22 14 -28 12 -46 -15z" id="174"/>
<path d="M2430 4628 l0 -112 27 42 c17 25 43 50 65 60 43 20 52 37 42 87 l-6 35 -64 0 -64 0 0 -112z" id="175"/>
<path d="M2590 4692 c0 -45 2 -49 34 -65 23 -10 40 -29 52 -56 17 -40 44 -56 44 -27 0 21 49 76 77 87 20 7 23 15 23 59 l0 50 -115 0 -115 0 0 -48z" id="176"/>
<path d="M3918 4681 c3 -55 6 -60 33 -72 17 -6 37 -26 46 -43 8 -17 17 -33 18 -34 2 -2 20 15 40 37 21 23 43 41 50 41 23 0 33 56 19 108 -6 21 -11 22 -108 22 l-101 0 3 -59z" id="177"/>
<path d="M4154 4709 c3 -17 6 -44 6 -59 0 -21 7 -30 30 -40 17 -7 41 -26 54 -43 23 -29 24 -29 31 -8 3 12 24 33 46 47 37 23 39 27 39 73 l0 48 -52 7 c-29 3 -77 6 -107 6 l-53 0 6 -31z" id="178"/>
<path d="M7511 4709 c-6 -18 -11 -47 -11 -65 0 -32 2 -34 35 -34 35 0 35 1 35 43 0 23 -3 52 -6 65 -9 33 -40 28 -53 -9z" id="179"/>
<path d="M7921 4726 c-13 -15 -31 -103 -23 -111 3 -3 23 -5 44 -5 l38 0 0 46 c0 71 -29 106 -59 70z" id="180"/>
<path d="M8121 4706 c-12 -18 -24 -47 -27 -65 l-6 -31 46 0 46 0 0 49 c0 88 -23 106 -59 47z" id="181"/>
<path d="M4390 4675 c0 -48 3 -57 23 -64 28 -11 63 -49 72 -78 3 -13 13 -23 21 -23 11 0 14 21 14 110 l0 110 -65 0 -65 0 0 -55z" id="182"/>
<path d="M8335 4706 c-9 -13 -18 -40 -22 -59 -5 -35 -5 -35 36 -39 23 -2 44 -2 47 1 8 8 4 69 -6 95 -12 33 -35 33 -55 2z" id="183"/>
<path d="M495 4679 c-132 -3 -297 -8 -367 -9 l-128 -2 0 -45 0 -45 62 6 c166 16 511 26 904 26 296 0 434 3 434 10 0 6 -7 24 -15 40 l-16 30 -317 -2 c-174 -1 -425 -5 -557 -9z" id="184"/>
<path d="M7054 4641 c-2 -2 -4 -26 -4 -53 l0 -48 43 0 c24 0 105 -3 180 -7 l137 -6 0 60 0 61 -176 -2 c-96 0 -177 -3 -180 -5z" id="185"/>
<path d="M1447 4597 l5 -24 255 -6 c141 -4 326 -7 410 -7 l154 0 -3 28 -3 27 -411 3 -411 2 4 -23z" id="186"/>
<path d="M5120 4606 c0 -21 60 -25 437 -33 336 -6 345 -6 341 13 -3 17 -15 20 -108 25 -58 4 -232 7 -387 8 -233 1 -283 -1 -283 -13z" id="187"/>
<path d="M2525 4591 c-16 -10 -38 -32 -48 -50 l-18 -31 106 0 105 0 -15 38 c-27 64 -72 79 -130 43z" id="188"/>
<path d="M2782 4584 c-17 -16 -32 -38 -34 -49 -3 -18 4 -19 100 -22 76 -1 102 1 102 11 0 23 -66 77 -102 82 -29 5 -40 1 -66 -22z" id="189"/>
<path d="M3059 4581 c-16 -16 -29 -39 -29 -50 0 -20 6 -21 90 -21 103 0 110 7 59 65 -40 45 -78 47 -120 6z" id="190"/>
<path d="M3350 4597 c-13 -7 -35 -28 -48 -47 l-23 -35 92 -3 c50 -1 93 -1 96 1 12 13 -14 61 -41 78 -36 22 -43 23 -76 6z" id="191"/>
<path d="M3592 4593 c-28 -13 -62 -57 -62 -78 0 -3 47 -5 105 -5 58 0 105 2 105 5 0 16 -33 66 -52 79 -28 20 -54 20 -96 -1z" id="192"/>
<path d="M6445 4591 c-288 -6 -315 -10 -330 -49 -9 -25 2 -27 102 -20 54 3 212 10 351 14 139 4 254 10 256 13 2 3 0 16 -5 29 -7 19 -15 22 -51 20 -24 -1 -169 -4 -323 -7z" id="193"/>
<path d="M3855 4578 c-21 -11 -54 -48 -55 -60 0 -5 43 -8 95 -8 86 0 94 2 88 18 -19 54 -78 78 -128 50z" id="194"/>
<path d="M4082 4553 l-37 -38 89 -3 c49 -2 91 -1 93 2 11 11 -11 47 -37 61 -45 23 -69 18 -108 -22z" id="195"/>
<path d="M4315 4565 c-46 -45 -35 -55 60 -55 54 0 85 4 85 11 0 6 -13 24 -29 40 -38 37 -82 39 -116 4z" id="196"/>
<path d="M460 4568 c0 -7 15 -30 33 -51 l32 -38 61 39 c34 22 65 45 68 51 5 8 -23 11 -93 11 -74 0 -101 -3 -101 -12z" id="197"/>
<path d="M683 4558 l-21 -23 22 -60 23 -60 72 -3 c44 -2 72 1 69 7 -5 14 -131 161 -139 161 -3 0 -15 -10 -26 -22z" id="198"/>
<path d="M760 4573 c1 -15 68 -84 73 -76 3 4 8 25 12 46 l7 37 -46 0 c-25 0 -46 -3 -46 -7z" id="199"/>
<path d="M865 4525 c-15 -54 -15 -57 5 -85 19 -27 23 -28 78 -23 31 3 58 6 58 7 1 0 5 36 9 79 l7 77 -70 0 -71 0 -16 -55z" id="200"/>
<path d="M1051 4558 c-5 -13 -11 -49 -15 -80 l-7 -58 101 0 101 0 -48 61 c-26 34 -54 70 -62 80 -19 27 -59 25 -70 -3z" id="201"/>
<path d="M1140 4572 c0 -10 79 -87 83 -81 2 2 18 23 36 47 l33 42 -76 0 c-42 0 -76 -4 -76 -8z" id="202"/>
<path d="M1325 4569 c-4 -6 1 -39 11 -75 l19 -64 39 0 c35 0 38 2 31 23 -4 12 -9 46 -12 75 l-5 52 -39 0 c-21 0 -41 -5 -44 -11z" id="203"/>
<path d="M7440 4559 c0 -16 4 -19 18 -14 69 29 519 29 842 0 208 -18 200 -19 200 3 0 17 -13 19 -157 25 -87 4 -326 7 -530 7 -373 0 -373 0 -373 -21z" id="204"/>
<path d="M160 4561 c-21 -6 -69 -70 -70 -92 0 -11 95 -69 112 -69 8 0 39 38 70 85 l55 85 -71 -1 c-39 -1 -82 -4 -96 -8z" id="205"/>
<path d="M327 4517 c-21 -29 -47 -67 -58 -85 l-21 -32 139 6 c76 4 140 8 142 10 4 4 -88 125 -107 142 -31 24 -56 13 -95 -41z" id="206"/>
<path d="M4930 4559 c-96 -4 -221 -5 -277 -2 l-103 6 0 -57 0 -56 57 0 c37 0 62 5 74 16 15 13 85 18 451 31 238 8 476 12 529 9 156 -8 419 4 419 21 0 11 -54 13 -292 13 -250 0 -618 13 -668 23 -8 2 -94 0 -190 -4z" id="207"/>
<path d="M0 4519 l0 -41 38 7 c20 4 38 8 38 8 1 1 9 17 18 35 l17 32 -56 0 -55 0 0 -41z" id="208"/>
<path d="M1266 4506 c-32 -43 -32 -51 -1 -72 27 -18 70 -10 61 11 -3 8 -10 32 -16 54 -6 23 -12 41 -14 41 -2 0 -15 -15 -30 -34z" id="209"/>
<path d="M1440 4529 c0 -27 24 -89 34 -89 27 1 35 16 29 58 -5 38 -8 42 -34 42 -16 0 -29 -5 -29 -11z" id="210"/>
<path d="M1530 4500 c0 -38 2 -40 30 -40 28 0 30 2 30 40 0 38 -2 40 -30 40 -28 0 -30 -2 -30 -40z" id="211"/>
<path d="M1620 4500 c0 -40 0 -40 38 -40 34 0 39 4 50 33 17 47 17 47 -38 47 l-50 0 0 -40z" id="212"/>
<path d="M7515 4534 c-11 -3 -37 -12 -59 -20 -33 -13 -76 -13 -315 -4 -291 12 -955 -2 -1015 -21 -16 -5 -189 -9 -385 -9 -196 0 -507 -5 -691 -11 -296 -11 -336 -14 -347 -29 -11 -16 -112 -17 -1586 -13 -1433 4 -1578 3 -1613 -12 -40 -16 -124 -19 -1206 -41 l-298 -6 0 -34 0 -34 323 0 c177 1 550 5 829 9 l507 9 67 32 c65 32 67 33 153 24 120 -12 1479 -7 1801 7 233 11 976 16 1100 9 25 -2 88 2 140 9 70 9 390 12 1235 10 627 -1 1152 1 1168 5 19 6 35 3 54 -9 25 -17 57 -18 483 -12 251 4 498 10 548 13 l92 7 0 43 c0 29 -4 44 -12 44 -7 0 -83 7 -168 16 -150 14 -765 28 -805 18z" id="213"/>
<path d="M1747 4513 c-2 -10 -8 -26 -12 -35 -6 -16 0 -18 64 -18 39 0 71 3 71 6 0 3 -8 19 -17 35 -15 25 -24 29 -59 29 -31 0 -43 -4 -47 -17z" id="214"/>
<path d="M1887 4495 c17 -35 19 -36 67 -33 44 3 50 6 57 30 4 15 4 29 1 32 -3 3 -36 6 -74 6 l-68 0 17 -35z" id="215"/>
<path d="M2047 4523 c-2 -5 -7 -20 -11 -35 -6 -28 -6 -28 45 -28 43 0 50 3 45 16 -3 9 -6 24 -6 35 0 15 -7 19 -34 19 -19 0 -37 -3 -39 -7z" id="216"/>
<path d="M2150 4518 c0 -7 3 -23 6 -36 6 -21 12 -23 58 -20 49 3 51 4 51 33 0 30 -1 30 -57 33 -43 2 -58 0 -58 -10z" id="217"/>
<path d="M595 4495 c-22 -14 -44 -26 -50 -28 -5 -2 -2 -16 8 -30 15 -23 24 -27 67 -27 29 0 50 5 50 11 0 21 -23 99 -29 99 -3 0 -24 -12 -46 -25z" id="218"/>
<path d="M2608 4483 c-98 -2 -178 -7 -178 -12 0 -4 379 -10 843 -13 1128 -7 1239 -6 1244 10 4 9 -160 12 -799 12 -441 0 -832 2 -868 3 -36 2 -145 2 -242 0z" id="219"/>
<path d="M27 4462 c-23 -3 -27 -8 -27 -35 l0 -32 66 3 c36 2 62 7 58 10 -5 4 -22 19 -39 32 -20 17 -39 25 -58 22z" id="220"/>
<path d="M7307 4373 c-4 -3 -550 -7 -1214 -7 -1009 -1 -1218 -3 -1271 -15 -55 -13 -66 -13 -95 1 -28 13 -85 14 -452 7 -231 -4 -521 -13 -645 -18 -289 -14 -1627 -19 -1747 -7 -89 9 -92 8 -138 -18 -40 -24 -62 -29 -173 -36 -70 -5 -452 -11 -849 -12 l-723 -3 0 -26 0 -26 493 -7 c270 -4 514 -10 541 -14 80 -11 72 -30 -29 -66 -20 -7 -20 -8 -1 -18 40 -23 501 9 585 39 22 9 21 10 -18 25 -84 33 -53 43 179 57 287 18 573 24 603 12 38 -15 32 -40 -18 -69 l-40 -23 120 4 c147 6 228 29 230 65 3 47 49 58 279 71 116 7 185 7 197 1 10 -6 87 -12 171 -15 359 -10 675 -25 692 -31 10 -4 16 -15 14 -28 -3 -21 0 -21 142 -20 148 2 329 19 343 33 4 4 1 14 -8 21 -21 18 -19 37 7 51 25 13 137 6 256 -16 54 -10 82 -21 95 -36 21 -26 47 -24 307 26 97 19 216 37 265 40 120 9 283 -8 299 -31 11 -15 50 -18 337 -25 178 -4 425 -10 549 -13 l225 -6 -55 19 c-70 24 -77 46 -17 55 66 10 702 -16 1102 -44 217 -16 607 -50 633 -55 21 -5 22 -3 22 76 l0 82 -147 -6 c-82 -4 -328 -10 -549 -14 -361 -6 -404 -5 -434 10 -36 18 -53 21 -63 10z" id="221"/>
<path d="M4508 4283 c-22 -5 -22 -12 -1 -35 14 -16 15 -20 2 -33 -22 -22 -128 -36 -320 -42 -197 -6 -229 -3 -229 28 0 11 -6 21 -12 24 -7 2 -134 9 -283 15 -148 6 -325 13 -392 17 l-123 6 0 -29 c0 -53 4 -54 140 -43 124 10 281 6 395 -11 45 -7 66 -16 82 -35 20 -22 33 -26 102 -32 43 -3 231 0 417 8 390 16 512 17 679 5 l120 -8 80 43 c76 41 84 43 160 43 90 -1 138 -18 143 -51 3 -19 11 -22 65 -27 118 -12 489 -26 499 -20 6 4 169 11 362 15 427 11 651 24 731 44 81 19 338 20 440 0 43 -8 101 -27 129 -43 28 -16 64 -32 80 -36 16 -4 186 -4 378 0 l348 7 0 47 0 46 -242 22 c-457 42 -934 71 -1263 78 l-230 4 54 -20 c64 -23 86 -39 72 -53 -8 -8 -250 -3 -980 22 -214 7 -235 9 -248 27 -13 18 -28 19 -191 19 -162 -1 -191 -4 -332 -34 -85 -18 -194 -35 -242 -38 -78 -5 -88 -4 -88 11 0 22 -27 31 -135 45 -130 17 -148 18 -167 14z" id="222"/>
<path d="M3024 4245 c-24 -24 -25 -29 -18 -94 7 -75 9 -70 -63 -121 -31 -22 -45 -40 -53 -71 -16 -58 -30 -147 -30 -190 0 -36 16 -53 94 -102 l29 -18 -44 -46 c-76 -78 -221 -183 -589 -426 -47 -31 -121 -87 -166 -124 -44 -38 -149 -124 -232 -192 -84 -68 -152 -127 -152 -132 0 -5 14 -9 31 -9 24 0 49 16 117 78 152 137 249 212 522 407 107 76 273 196 368 268 113 84 177 126 183 120 22 -22 -127 -407 -215 -556 l-29 -48 53 3 52 3 20 50 c10 28 32 77 48 110 16 33 58 125 93 205 36 79 69 146 75 148 16 5 21 -23 23 -138 l3 -105 -57 -134 c-32 -74 -55 -136 -53 -139 3 -2 34 -7 69 -9 l64 -5 7 101 c7 111 27 257 53 389 15 81 15 85 -7 169 l-23 85 104 99 c57 54 112 98 123 98 10 1 39 21 63 46 25 24 67 61 94 82 27 20 49 43 49 51 0 18 -26 2 -120 -73 -88 -71 -99 -75 -182 -77 l-72 -1 -37 41 c-20 23 -43 42 -51 42 -8 0 -29 5 -47 11 -36 13 -41 42 -12 67 11 10 21 26 22 37 4 32 -12 109 -25 117 -22 15 -57 7 -82 -17z m238 -321 c21 -15 38 -32 38 -38 0 -13 -88 -86 -103 -86 -10 0 -3 122 8 140 9 14 15 13 57 -16z m-294 -56 c17 -21 51 -167 40 -174 -5 -3 -26 7 -46 24 -34 27 -37 34 -37 78 1 75 17 102 43 72z" id="223"/>
<path d="M3220 3880 c0 -33 11 -38 30 -15 10 12 10 18 0 30 -19 23 -30 18 -30 -15z" id="224"/>
<path d="M2947 3824 c-13 -13 -7 -61 8 -74 24 -20 28 -5 13 40 -7 23 -17 38 -21 34z" id="225"/>
<path d="M2720 4247 c-39 -10 -46 -16 -50 -42 -4 -26 -12 -32 -56 -47 -93 -31 -311 -49 -343 -29 -22 14 -6 38 41 63 l43 23 -125 3 c-128 3 -610 -15 -618 -23 -3 -2 5 -13 18 -23 19 -16 20 -19 7 -30 -36 -31 -281 -62 -487 -63 -145 -1 -185 5 -194 27 -5 13 10 26 58 51 27 15 -106 22 -519 28 -192 3 -383 8 -422 11 l-73 5 0 -36 c0 -41 -23 -39 240 -25 195 10 246 5 264 -22 8 -13 5 -23 -14 -43 l-23 -25 29 0 c37 0 138 18 171 31 21 8 22 11 11 29 -19 30 3 40 83 40 88 0 115 -19 98 -68 -6 -18 -8 -36 -5 -40 4 -3 66 -11 139 -16 155 -11 434 3 652 34 243 34 335 62 335 99 0 25 19 31 90 31 78 0 110 -24 93 -69 -8 -23 -8 -33 0 -38 21 -13 342 -16 414 -4 116 20 143 31 190 74 44 41 48 42 124 46 76 3 78 4 88 32 l10 29 -112 -1 c-62 0 -132 -6 -157 -12z" id="226"/>
<path d="M5176 4138 c-77 -42 -81 -43 -165 -41 -47 1 -129 6 -181 10 -52 4 -131 5 -175 1 -44 -3 -256 -10 -470 -14 l-391 -7 -35 31 c-45 39 -130 52 -352 52 -206 0 -236 -5 -248 -39 -6 -14 -18 -34 -26 -43 -9 -10 -12 -19 -7 -19 5 -1 96 -3 203 -4 l193 -2 40 34 c74 61 127 55 95 -12 -9 -19 -21 -35 -27 -35 -5 0 -10 -4 -10 -10 0 -5 17 -10 38 -10 58 0 151 -19 205 -42 50 -22 70 -56 47 -83 -23 -28 0 -35 108 -35 126 0 205 16 362 70 184 63 390 88 492 59 45 -12 61 -48 34 -78 -36 -40 -24 -44 122 -39 168 6 229 26 289 92 34 37 47 45 90 51 57 7 140 -2 150 -17 3 -6 -12 -25 -33 -43 -21 -18 -37 -36 -34 -38 3 -3 65 -11 138 -18 l132 -11 49 45 c26 25 63 52 81 62 48 25 215 65 270 65 64 0 78 -17 62 -76 -21 -78 -24 -75 86 -69 278 17 491 52 645 105 122 42 203 53 336 47 174 -8 258 -40 245 -92 -9 -36 20 -40 261 -40 l210 0 3 22 c4 30 36 37 126 30 73 -7 153 -30 222 -65 22 -11 63 -25 92 -30 l52 -9 0 85 0 84 -367 -3 -368 -4 -75 37 c-93 47 -139 56 -310 64 -114 5 -151 3 -240 -15 -115 -24 -284 -34 -870 -51 -365 -12 -791 0 -817 22 -6 5 -10 15 -7 22 10 25 -27 40 -109 43 -80 3 -84 2 -161 -39z" id="227"/>
<path d="M2779 4130 c-45 -45 -97 -64 -228 -81 -97 -13 -350 -7 -394 10 -26 10 -28 15 -25 54 l3 42 -61 3 c-55 3 -62 1 -67 -18 -11 -42 -119 -73 -394 -112 -134 -19 -203 -22 -453 -23 -359 0 -354 -2 -325 93 7 21 5 22 -58 22 -58 0 -65 -2 -60 -18 6 -25 -13 -39 -82 -57 -95 -24 -177 -29 -200 -11 -20 15 -19 15 15 45 l35 29 -26 7 c-15 4 -123 3 -240 -2 l-214 -8 -3 -45 -3 -45 128 0 c158 -1 187 -7 181 -39 -4 -21 0 -25 31 -30 20 -3 52 -3 71 -1 19 3 110 10 202 15 190 12 244 3 242 -38 -1 -41 1 -41 446 13 263 32 929 47 967 22 18 -12 6 -31 -33 -52 -47 -25 -28 -35 72 -35 92 0 234 22 294 46 30 12 40 22 40 39 0 15 9 26 28 34 37 15 126 31 173 31 25 0 54 10 86 30 56 36 62 45 56 88 l-5 32 -80 0 c-79 0 -80 0 -119 -40z" id="228"/>
<path d="M7093 4039 c-24 -4 -93 -24 -154 -44 -168 -54 -449 -95 -657 -95 -90 0 -88 1 -105 -71 l-7 -26 279 -6 c450 -8 692 9 868 65 131 41 324 16 441 -57 74 -45 142 -53 485 -57 l258 -3 -3 59 -3 59 -61 13 c-34 7 -84 24 -112 38 -67 34 -153 56 -218 56 -43 0 -53 -3 -57 -20 -9 -36 -51 -42 -272 -38 -236 4 -270 12 -270 61 -1 15 -5 31 -11 37 -32 32 -292 51 -401 29z" id="229"/>
<path d="M3232 4018 c8 -13 26 -29 39 -36 34 -17 126 -5 167 23 32 22 32 23 10 29 -13 3 -70 6 -127 6 l-103 0 14 -22z" id="230"/>
<path d="M6034 4025 c-113 -24 -217 -92 -254 -164 -22 -45 -38 -137 -21 -127 6 4 11 16 11 27 0 34 47 114 91 153 56 51 130 83 241 105 84 17 88 19 43 19 -27 0 -77 -6 -111 -13z" id="231"/>
<path d="M3566 3999 c-10 -6 -33 -28 -50 -47 -17 -19 -49 -43 -71 -53 -22 -10 -60 -38 -84 -63 l-44 -45 59 5 c179 15 264 26 308 39 70 21 108 19 147 -10 69 -50 61 -49 501 -55 314 -4 420 -8 430 -17 27 -28 278 -14 563 33 102 16 189 24 276 24 l127 0 10 29 11 30 -52 5 c-29 3 -85 8 -126 11 -122 10 -148 31 -96 79 14 13 25 27 25 31 0 4 -27 5 -61 3 -55 -4 -64 -8 -95 -42 -66 -72 -177 -106 -345 -106 -145 0 -173 17 -128 74 35 44 17 51 -139 50 -149 0 -182 -7 -382 -74 -137 -47 -213 -60 -341 -60 -80 0 -101 3 -120 19 -21 17 -22 21 -11 46 11 24 11 31 -1 43 -37 36 -272 75 -311 51z" id="232"/>
<path d="M23 3994 c-21 -5 -23 -11 -23 -67 l0 -62 67 3 c37 2 101 1 142 -3 75 -7 98 -20 127 -70 15 -27 102 -30 282 -11 469 51 765 65 1004 48 158 -12 177 -18 221 -65 l28 -30 182 6 c100 3 245 13 322 22 141 15 431 45 450 45 6 0 16 33 22 73 6 39 15 80 18 90 6 15 1 17 -46 17 -30 0 -76 -6 -104 -13 -43 -12 -50 -17 -47 -36 4 -27 -49 -52 -163 -76 -83 -18 -273 -24 -312 -11 -34 11 -29 42 10 63 l32 17 -50 8 c-56 10 -443 2 -670 -13 -82 -5 -237 -21 -345 -34 -194 -25 -294 -31 -324 -19 -9 3 -16 17 -16 30 0 36 -30 38 -271 24 -119 -7 -233 -10 -254 -6 -32 6 -36 10 -31 31 5 18 1 24 -17 29 -33 8 -208 15 -234 10z" id="233"/>
<path d="M6083 3985 c-154 -34 -256 -118 -282 -236 -15 -65 1 -111 70 -202 85 -114 107 -204 74 -313 -47 -158 -236 -229 -705 -263 -264 -20 -670 -34 -975 -35 -454 -1 -1714 22 -1902 35 l-162 11 -142 -123 c-78 -68 -147 -127 -153 -131 -6 -4 -8 -9 -6 -12 5 -5 869 -67 1255 -91 787 -47 1672 -46 2195 4 58 6 161 15 229 21 287 26 419 98 508 276 29 61 38 91 41 143 3 60 0 73 -37 149 -44 89 -51 135 -25 150 15 8 13 11 -12 23 -19 10 -30 23 -32 41 -3 24 1 27 30 30 37 4 28 11 -40 28 -51 13 -61 31 -37 66 16 25 20 26 72 19 62 -8 67 8 7 20 -55 10 -105 37 -102 55 2 10 27 20 78 30 l74 16 43 139 c23 77 43 146 43 153 0 15 -27 14 -107 -3z" id="234"/>
<path d="M7395 3855 c-56 -18 -214 -57 -270 -66 -39 -7 -266 -14 -519 -18 l-449 -6 -14 -47 c-12 -42 -18 -48 -51 -58 -20 -5 -45 -10 -55 -10 -33 0 -8 -18 43 -30 59 -14 64 -19 50 -55 -10 -25 -13 -27 -67 -23 -75 4 -79 -14 -6 -32 54 -14 58 -17 58 -45 0 -25 -5 -31 -30 -36 -46 -8 312 -22 391 -14 170 16 234 39 340 124 87 70 153 97 279 113 172 22 355 -13 430 -84 54 -49 144 -81 288 -102 113 -17 419 -36 585 -36 l102 0 0 145 0 145 -217 0 c-120 0 -273 5 -340 10 -104 7 -129 12 -165 34 -78 46 -127 65 -209 81 -75 14 -149 18 -174 10z" id="235"/>
<path d="M23 3842 c-23 -3 -23 -6 -23 -138 l0 -135 88 8 c135 12 478 8 551 -6 74 -14 136 -43 145 -66 3 -9 6 -34 6 -56 0 -49 14 -55 132 -64 120 -9 439 10 449 27 13 19 11 105 -3 151 -7 23 -32 61 -55 86 -24 24 -43 49 -43 53 0 17 69 38 122 38 66 0 114 -24 151 -77 24 -34 30 -54 38 -144 5 -57 12 -110 14 -118 5 -11 36 -13 178 -8 256 9 359 36 483 128 36 26 86 55 112 63 75 25 212 45 388 58 l163 12 -45 39 c-33 29 -44 46 -44 68 0 25 -3 29 -22 24 -13 -2 -72 -9 -133 -14 -60 -6 -202 -20 -315 -32 -113 -12 -271 -22 -352 -23 l-147 -1 -39 38 c-36 35 -47 40 -118 49 -129 16 -677 3 -889 -22 -99 -11 -243 -23 -321 -27 -153 -6 -178 -1 -194 43 -5 13 -20 28 -32 33 -25 9 -208 19 -245 13z" id="236"/>
<path d="M3695 3814 c-36 -14 -123 -24 -335 -40 -63 -5 -80 -10 -108 -34 -28 -23 -32 -31 -23 -47 9 -18 25 -20 193 -26 210 -7 438 -34 651 -78 179 -36 291 -74 345 -117 98 -78 171 -85 797 -77 384 4 526 9 575 20 36 8 75 16 87 17 21 3 22 4 7 35 -9 17 -40 60 -70 94 -53 62 -77 111 -89 182 l-6 37 -134 0 c-95 0 -179 -7 -287 -25 -270 -44 -486 -56 -541 -31 -26 12 -113 16 -427 19 -417 5 -446 8 -499 53 -38 32 -85 38 -136 18z" id="237"/>
<path d="M1406 3691 c70 -43 86 -93 100 -311 3 -58 12 -119 19 -137 17 -40 91 -95 172 -128 62 -25 256 -68 365 -80 56 -7 57 -7 99 32 l42 40 -124 6 c-149 7 -272 39 -369 97 -121 71 -149 120 -157 269 -6 123 -15 152 -64 195 -30 28 -48 36 -77 36 l-37 0 31 -19z" id="238"/>
<path d="M1348 3657 c36 -39 64 -115 64 -176 0 -54 -12 -95 -82 -286 -42 -114 -12 -280 63 -353 46 -44 105 -67 239 -92 l117 -23 34 29 c19 16 92 76 161 133 69 57 125 106 123 107 -2 2 -57 13 -123 24 -203 34 -327 81 -403 152 -49 46 -58 78 -70 246 -6 84 -17 167 -25 186 -17 41 -61 76 -94 76 l-25 0 21 -23z" id="239"/>
<path d="M3256 3609 c10 -61 11 -57 -16 -216 -13 -79 -21 -145 -19 -147 2 -2 166 1 364 6 198 5 437 7 530 4 279 -9 583 -54 673 -100 62 -31 94 -32 358 -11 242 20 531 67 600 99 75 34 163 131 140 153 -3 3 -43 -1 -88 -10 -69 -14 -177 -17 -633 -19 -631 -3 -638 -3 -759 77 -37 24 -95 53 -129 64 -193 64 -563 120 -891 137 l-138 7 8 -44z" id="240"/>
<path d="M7040 3619 c-74 -13 -145 -47 -203 -97 -127 -110 -188 -126 -477 -127 -216 0 -225 -1 -230 -20 -3 -11 -16 -24 -28 -30 -30 -13 -28 -24 17 -110 45 -83 57 -141 43 -201 l-9 -41 165 -6 c240 -10 421 -7 467 7 35 10 40 16 46 48 9 56 33 84 101 117 164 80 468 87 1213 31 143 -11 281 -22 308 -25 l47 -6 0 119 0 119 -227 7 c-468 14 -677 53 -764 142 -50 52 -135 75 -289 79 -69 2 -150 0 -180 -6z" id="241"/>
<path d="M2720 3613 c-108 -8 -275 -35 -333 -54 -38 -12 -87 -39 -127 -69 -112 -87 -261 -123 -502 -123 -87 0 -158 -3 -158 -6 0 -3 8 -18 18 -34 22 -33 70 -70 135 -103 l48 -25 121 16 c66 8 212 33 324 55 113 22 217 40 233 40 20 0 76 33 192 115 90 63 184 132 209 154 l45 40 -80 -1 c-44 -1 -100 -3 -125 -5z" id="242"/>
<path d="M38 3553 l-38 -4 0 -355 c0 -195 4 -354 8 -354 5 0 59 9 120 20 119 21 192 45 192 62 0 6 -18 31 -41 55 -32 35 -40 50 -37 75 5 55 71 83 257 110 86 13 577 18 715 8 l69 -5 10 30 c5 17 23 60 40 98 16 37 28 69 26 72 -3 2 -90 0 -194 -5 -207 -9 -343 0 -381 25 -20 13 -24 24 -24 65 0 41 -4 51 -22 61 -61 33 -135 41 -398 44 -146 1 -282 1 -302 -2z" id="243"/>
<path d="M2831 3431 l-153 -116 98 -6 c55 -3 105 -8 112 -10 9 -3 28 37 58 120 25 67 44 124 42 125 -2 1 -72 -50 -157 -113z" id="244"/>
<path d="M3071 3355 c-19 -42 -32 -78 -29 -80 2 -2 20 -6 39 -7 l34 -3 3 60 c2 34 -1 71 -6 84 -7 19 -12 13 -41 -54z" id="245"/>
<path d="M5865 3293 c-69 -78 -118 -97 -326 -133 -182 -30 -303 -44 -530 -59 l-135 -9 -58 -56 -59 -56 35 0 c23 0 41 7 54 21 60 69 140 100 151 59 7 -26 24 -25 69 5 42 29 89 33 102 9 11 -20 54 -16 124 12 45 17 48 17 67 0 23 -21 50 -15 98 20 31 24 73 32 73 15 0 -24 47 -19 94 11 61 37 83 30 78 -26 l-3 -35 38 15 c100 42 134 68 163 125 21 40 38 139 24 138 -5 0 -31 -25 -59 -56z" id="246"/>
<path d="M2625 3278 c-11 -6 -65 -43 -120 -82 l-100 -71 100 -6 c193 -13 301 -10 315 6 16 19 72 137 67 141 -2 2 -27 8 -57 14 -70 13 -180 12 -205 -2z" id="247"/>
<path d="M2245 3244 c-93 -19 -217 -40 -275 -48 -96 -12 -103 -14 -76 -25 35 -14 186 -31 281 -31 70 1 70 1 175 70 59 39 96 70 85 69 -11 0 -96 -16 -190 -35z" id="248"/>
<path d="M3021 3236 c-5 -6 -21 -37 -35 -68 l-25 -58 43 0 c43 0 43 0 65 56 11 31 21 59 21 64 0 12 -59 18 -69 6z" id="249"/>
<path d="M3458 3223 l-248 -3 -2 -35 c-1 -19 -2 -44 -2 -55 -1 -21 2 -21 469 -20 563 0 1095 10 1095 21 0 17 -130 44 -365 75 -118 16 -512 23 -947 17z" id="250"/>
<path d="M7215 3189 c-227 -17 -355 -75 -355 -159 0 -65 -71 -83 -315 -79 -332 5 -405 4 -405 -6 0 -6 67 -13 167 -17 235 -9 303 -20 303 -48 0 -19 -43 -31 -179 -50 -216 -30 -237 -40 -130 -61 110 -22 128 -66 46 -113 -96 -56 -224 -80 -472 -91 -363 -15 -962 -53 -1112 -70 -67 -8 -241 -22 -387 -31 -313 -21 -442 -16 -900 40 -518 64 -816 69 -1218 20 -114 -14 -231 -24 -260 -22 -46 3 -54 6 -66 30 -13 29 -15 29 -256 64 -163 23 -201 52 -150 114 l25 29 -38 7 c-57 10 -126 48 -161 88 -40 45 -73 151 -74 238 l-2 67 -60 5 c-328 29 -776 2 -903 -54 -55 -24 -55 -44 -2 -106 25 -29 39 -54 37 -68 -5 -32 -65 -56 -215 -85 l-133 -26 0 -113 0 -113 33 5 c168 28 644 46 922 36 401 -16 575 -48 575 -106 0 -24 -43 -54 -170 -119 -133 -69 -160 -86 -160 -103 0 -17 30 -23 165 -33 147 -12 370 -5 585 17 285 29 390 71 390 155 0 88 185 109 609 69 258 -24 291 -31 291 -65 0 -16 -11 -33 -30 -47 -16 -12 -30 -28 -30 -36 0 -27 387 -7 1030 53 826 76 1325 109 1980 130 489 16 615 25 639 49 11 11 11 21 2 47 -30 86 -3 146 75 168 167 47 726 37 1374 -24 85 -8 170 -15 188 -15 l32 0 -2 188 -3 187 -300 22 c-573 41 -777 48 -980 32z" id="251"/>
<path d="M5637 3105 c-39 -27 -104 -34 -125 -13 -8 8 -20 5 -50 -15 -40 -28 -108 -37 -128 -17 -7 7 -25 4 -58 -10 -57 -24 -124 -27 -132 -5 -9 22 -36 18 -74 -10 -41 -30 -76 -32 -90 -5 -6 11 -17 20 -24 20 -14 0 -85 -51 -86 -61 0 -11 414 15 588 37 170 21 204 32 214 69 4 16 6 30 5 32 -2 1 -20 -9 -40 -22z" id="252"/>
<path d="M2291 3049 l-54 -39 56 0 c48 0 65 6 112 35 30 20 55 38 55 40 0 3 -26 5 -57 4 -51 -1 -65 -6 -112 -40z" id="253"/>
<path d="M2461 3045 c-60 -37 -64 -40 -39 -43 19 -2 43 7 74 30 l46 33 124 0 c68 -1 124 2 124 7 0 4 -59 8 -132 10 l-131 3 -66 -40z" id="254"/>
<path d="M4568 3084 c-4 -3 -313 -6 -687 -5 -375 0 -681 -4 -681 -8 0 -13 798 -25 1168 -17 280 6 332 5 332 -7 0 -8 -9 -22 -20 -32 -11 -10 -20 -24 -20 -30 0 -25 51 -1 107 51 l58 53 -126 1 c-69 0 -128 -3 -131 -6z" id="255"/>
<path d="M2963 3063 c15 -2 37 -2 50 0 12 2 0 4 -28 4 -27 0 -38 -2 -22 -4z" id="256"/>
<path d="M2525 3023 l-30 -17 25 -7 c14 -4 68 -7 121 -8 77 -1 99 2 110 15 21 25 -6 34 -106 33 -64 0 -99 -4 -120 -16z" id="257"/>
<path d="M2927 3023 c-18 -17 -5 -33 26 -33 31 0 57 14 57 32 0 10 -74 11 -83 1z" id="258"/>
<path d="M3204 3006 c3 -21 8 -21 357 -29 195 -4 509 -8 698 -9 l343 -2 19 23 c11 13 19 26 19 30 0 3 -324 6 -720 7 l-719 1 3 -21z" id="259"/>
<path d="M6092 2862 c-33 -59 -130 -145 -202 -179 -57 -27 -138 -48 -260 -67 -87 -14 -666 -47 -970 -55 -430 -12 -1079 2 -1555 34 -793 53 -1153 83 -1470 122 -46 5 -93 -9 -102 -33 -12 -33 22 -46 193 -70 199 -29 234 -38 234 -65 0 -17 8 -19 73 -19 39 0 140 9 222 21 191 26 605 36 831 20 88 -6 290 -27 449 -47 458 -55 697 -56 1205 -4 102 11 300 26 440 34 140 9 289 18 330 21 41 3 180 10 309 15 316 15 456 42 529 105 l27 23 -45 12 c-119 32 -125 35 -128 56 -5 33 47 51 197 71 72 9 131 20 131 23 0 9 -168 20 -306 20 l-110 0 -22 -38z" id="260"/>
<path d="M6997 2789 c-139 -19 -167 -48 -140 -144 16 -54 15 -57 -4 -76 -11 -11 -38 -25 -59 -30 -45 -10 -318 -24 -799 -39 -472 -15 -896 -43 -1600 -106 -746 -66 -1135 -92 -1199 -80 -58 11 -63 29 -20 76 22 24 33 45 28 50 -10 10 -219 33 -452 50 -111 8 -177 8 -242 1 -117 -15 -138 -25 -146 -70 -3 -20 -13 -46 -20 -58 -48 -77 -286 -120 -714 -130 -266 -6 -417 4 -446 28 -42 34 1 76 163 159 67 34 129 70 138 80 16 17 15 19 -5 30 -126 67 -964 87 -1428 34 l-52 -6 0 -438 0 -438 43 -6 c167 -23 328 -31 602 -31 267 0 334 4 480 24 230 31 388 60 725 136 367 82 554 118 810 155 500 72 863 95 1380 87 630 -10 1230 -56 1985 -152 426 -54 545 -65 775 -72 170 -4 234 -2 303 10 147 26 171 54 144 170 -22 93 -22 100 8 135 58 69 252 93 592 74 187 -10 465 -37 611 -58 l42 -6 0 289 0 289 -132 13 c-449 41 -645 52 -963 56 -187 2 -371 0 -408 -6z" id="261"/>
<path d="M7442 2180 c-86 -11 -156 -39 -172 -70 -10 -18 -8 -39 5 -105 20 -96 13 -124 -43 -162 -58 -38 -130 -48 -367 -47 -248 0 -325 7 -825 69 -836 105 -1532 155 -2145 155 -327 0 -524 -10 -830 -40 -404 -41 -668 -85 -1165 -195 -662 -147 -830 -169 -1255 -170 -274 0 -435 8 -602 31 l-43 6 0 -310 0 -309 68 -7 c343 -31 1093 -40 1522 -17 634 34 905 62 1635 171 645 96 834 114 1230 114 302 0 435 -9 561 -41 84 -20 115 -41 143 -96 47 -91 173 -123 521 -134 372 -11 844 27 1555 127 513 72 983 120 1177 120 97 0 88 -43 88 434 l0 422 -162 18 c-90 9 -210 21 -268 26 -155 15 -544 20 -628 10z" id="262"/>
<path d="M4200 1264 c-25 -2 -108 -8 -185 -14 -191 -14 -405 -42 -830 -105 -592 -89 -894 -122 -1430 -157 -410 -27 -1532 -14 -1722 19 l-33 5 0 -400 0 -400 37 -5 c89 -14 1015 -19 1358 -8 693 22 1069 47 2320 151 1472 123 1858 146 2580 157 488 6 895 -4 1630 -42 259 -14 494 -25 523 -25 l52 0 0 400 0 400 -43 0 c-64 0 -342 -19 -527 -36 -197 -18 -389 -41 -765 -94 -692 -97 -1273 -137 -1615 -111 -274 20 -365 51 -412 136 -37 69 -72 85 -243 111 -95 14 -585 27 -695 18z" id="263"/>
<path d="M6075 473 c-575 -14 -1084 -48 -2400 -158 -985 -82 -1280 -103 -1900 -136 -267 -14 -1397 -22 -1608 -12 l-167 8 0 -87 0 -88 4250 0 4250 0 0 205 0 205 -43 0 c-24 0 -266 11 -538 25 -805 40 -1339 51 -1844 38z" id="264"/>
</g>
</svg>