<?xml version="1.0" ?><!DOCTYPE svg  PUBLIC '-//W3C//DTD SVG 20010904//EN'  'http://www.w3.org/TR/2001/REC-SVG-20010904/DTD/svg10.dtd'><svg height="850.000000pt" preserveAspectRatio="xMidYMid meet" version="1.0" viewBox="0 0 850.000000 850.000000" width="850.000000pt" xmlns="http://www.w3.org/2000/svg">
<metadata>
Created by potrace 1.14, written by Peter Selinger 2001-2017
</metadata>
<g fill="#ffffff" stroke="none" transform="translate(0.000000,850.000000) scale(0.100000,-0.100000)">
<path d="M0 4250 l0 -4250 4250 0 4250 0 0 4250 0 4250 -4250 0 -4250 0 0 -4250z m5647 4095 c48 -20 71 -41 94 -87 38 -74 18 -135 -94 -283 -93 -124 -239 -354 -267 -421 -52 -120 -63 -267 -35 -439 28 -174 64 -257 119 -280 33 -14 109 -9 208 14 87 20 95 27 103 90 17 146 74 323 136 428 105 174 347 316 679 400 174 43 256 49 391 29 59 -9 138 -16 177 -16 68 0 211 24 243 41 48 25 88 -92 96 -281 6 -147 -10 -233 -59 -320 -35 -63 -103 -153 -142 -189 -14 -14 -26 -34 -26 -45 0 -63 -169 -259 -297 -345 -149 -99 -317 -162 -486 -181 -176 -20 -380 20 -599 119 -64 28 -65 28 -89 10 -39 -30 -118 -52 -212 -58 l-87 -6 26 -50 c44 -82 103 -152 270 -316 176 -173 201 -189 364 -239 58 -17 161 -50 230 -72 69 -23 184 -53 257 -68 l131 -26 94 58 c178 110 327 153 507 145 306 -13 527 -141 675 -390 62 -105 89 -204 89 -332 0 -101 -3 -119 -37 -219 -42 -125 -157 -356 -226 -454 l-47 -66 90 -60 c224 -149 307 -297 307 -546 0 -52 -7 -126 -15 -165 -14 -64 -14 -71 1 -80 85 -51 151 -133 174 -215 16 -57 12 -165 -8 -218 -29 -74 -88 -159 -171 -242 -120 -120 -166 -229 -417 -965 -150 -439 -234 -606 -382 -753 -142 -143 -367 -279 -563 -343 -90 -29 -150 -61 -180 -95 -10 -11 -53 -73 -97 -139 -127 -192 -204 -251 -357 -275 -77 -12 -132 -8 -247 21 -214 53 -307 47 -433 -29 -113 -69 -152 -88 -213 -101 -82 -17 -186 -13 -359 14 -180 28 -304 32 -385 10 -31 -8 -102 -35 -158 -60 -171 -77 -221 -90 -290 -77 -33 6 -99 27 -147 47 -48 21 -119 46 -158 58 -89 25 -136 17 -314 -56 l-126 -52 -120 0 c-148 0 -190 15 -350 121 -136 90 -221 130 -303 143 -37 6 -140 8 -246 4 -207 -7 -251 0 -360 54 -110 54 -173 100 -294 215 -172 164 -211 186 -411 239 -280 74 -409 151 -495 299 -44 74 -107 244 -180 480 -32 102 -80 248 -108 325 -49 134 -54 143 -119 210 -118 124 -169 222 -194 378 -20 124 -19 185 6 288 l22 87 -31 54 c-91 158 -124 368 -83 528 26 104 121 300 189 394 l51 69 -54 69 c-86 109 -127 203 -133 296 -5 101 16 158 113 299 205 300 465 743 750 1282 155 293 274 470 410 606 148 150 296 220 576 277 99 20 144 23 334 22 247 0 340 -15 463 -75 112 -55 272 -231 313 -344 16 -43 24 -44 38 -3 20 58 99 173 154 226 108 101 248 176 263 139 4 -13 -21 -97 -52 -172 -5 -12 21 3 67 39 80 63 166 109 269 147 52 18 86 23 170 23 98 1 108 -1 158 -29 106 -58 155 -149 156 -289 1 -76 -3 -98 -21 -132 -12 -22 -29 -46 -37 -53 -18 -15 -21 -31 -6 -31 31 0 125 -47 164 -81 76 -67 98 -133 54 -163 -17 -12 -49 -16 -133 -16 -121 0 -166 -9 -216 -43 -70 -47 -130 -160 -100 -190 16 -16 131 4 216 38 39 15 104 47 145 71 153 87 263 110 338 71 93 -50 99 -205 12 -328 -21 -28 -21 -29 -3 -54 17 -23 24 -24 103 -25 100 -1 148 -18 204 -76 42 -43 86 -122 86 -154 0 -11 2 -20 4 -20 1 0 45 20 97 44 52 24 108 46 124 50 l30 7 5 92 c14 270 0 346 -97 510 -82 138 -107 191 -147 313 -46 146 -51 169 -87 413 -63 438 -71 562 -44 751 41 284 136 521 261 645 127 128 242 171 341 130z" id="1"/>
<path d="M5571 8264 c-30 -38 -35 -62 -17 -89 13 -20 25 -25 56 -25 70 0 100 70 53 123 -24 26 -68 22 -92 -9z" id="2"/>
<path d="M5475 8231 c-62 -38 -126 -105 -183 -190 -67 -100 -113 -204 -150 -340 -25 -91 -26 -109 -26 -336 0 -187 3 -261 17 -335 118 -637 134 -689 265 -887 111 -169 138 -253 122 -378 -16 -124 -12 -198 20 -321 44 -173 96 -273 134 -258 11 4 5 24 -30 97 -60 127 -81 254 -65 406 6 58 11 133 11 166 0 53 -3 62 -32 92 -47 49 -30 48 32 -1 31 -25 86 -87 125 -142 39 -53 92 -127 119 -163 27 -36 77 -109 111 -161 34 -52 119 -178 189 -280 70 -102 150 -223 178 -269 28 -46 80 -115 116 -153 64 -68 66 -69 84 -50 21 21 30 7 -420 597 -173 227 -507 755 -476 755 4 0 41 -33 83 -73 122 -117 232 -166 631 -281 85 -25 184 -54 220 -65 36 -12 75 -21 86 -21 12 0 40 -6 62 -14 38 -14 62 -8 62 15 0 4 -51 19 -112 34 -355 84 -630 181 -758 268 -73 50 -299 267 -340 327 -41 61 -141 255 -159 311 -6 19 -31 55 -56 79 -45 44 -57 67 -31 57 9 -4 16 1 18 11 3 13 8 10 20 -13 9 -16 28 -41 43 -55 24 -22 36 -25 124 -28 114 -4 193 8 268 43 l54 24 124 -59 c174 -84 219 -95 400 -95 111 0 166 4 212 17 91 25 267 106 350 162 69 45 224 178 231 197 2 5 -18 9 -45 10 -61 0 -131 13 -118 20 6 4 28 12 50 19 107 34 180 94 256 209 28 41 61 109 76 155 23 71 26 98 27 223 1 78 -2 144 -6 148 -3 3 -23 -2 -45 -13 -65 -34 -153 -46 -283 -39 -65 4 -125 9 -133 13 -12 4 -30 -16 -70 -78 -76 -118 -182 -210 -224 -194 -22 9 -9 49 39 123 37 57 91 173 84 180 -2 2 -59 -12 -127 -32 -68 -19 -129 -35 -135 -35 -31 0 -248 -81 -308 -114 -201 -113 -275 -251 -356 -668 l-11 -56 -62 -26 c-160 -66 -307 -60 -373 15 -118 135 -162 499 -89 729 38 117 56 150 210 382 l135 203 -40 6 c-22 3 -51 16 -66 30 -23 21 -25 30 -21 72 2 26 1 47 -2 47 -3 0 -19 -8 -36 -19z m1505 -702 c0 -5 -31 -43 -69 -83 -38 -40 -89 -104 -113 -142 -48 -75 -159 -284 -151 -284 2 0 53 28 111 62 105 61 130 83 287 249 59 63 185 158 185 141 0 -5 -41 -44 -90 -87 -50 -43 -88 -80 -86 -82 9 -9 111 30 133 50 13 11 26 17 30 14 11 -11 -25 -43 -70 -62 -138 -59 -154 -69 -234 -145 -82 -80 -189 -156 -261 -187 -20 -9 -70 -26 -110 -38 l-73 -22 83 -22 c89 -23 85 -23 376 16 44 6 58 -8 24 -26 -22 -12 -231 -41 -294 -41 -46 0 -182 32 -220 51 -10 5 -58 9 -107 9 -126 0 -217 -27 -425 -128 -5 -3 -5 1 -1 8 15 24 127 89 180 105 73 21 107 64 135 169 32 122 60 206 88 261 32 65 122 195 134 195 5 0 8 -3 6 -7 -2 -5 -36 -73 -76 -153 -53 -108 -80 -175 -101 -260 -16 -63 -33 -123 -37 -134 -7 -18 -2 -18 107 -13 63 3 132 11 154 18 59 20 113 81 174 197 68 129 98 171 206 288 82 89 105 107 105 83z" id="3"/>
<path d="M2065 6813 c-16 -2 -50 -6 -74 -9 l-43 -6 21 -22 c43 -46 26 -74 -75 -124 -34 -17 -90 -54 -125 -82 -81 -65 -115 -83 -144 -76 -28 7 -50 64 -41 103 l7 25 -28 -20 c-79 -56 -247 -274 -335 -433 l-68 -124 35 -6 c48 -8 57 -19 63 -77 5 -54 -15 -109 -69 -193 -16 -26 -41 -75 -54 -110 -27 -69 -60 -110 -81 -102 -26 10 -47 89 -41 160 4 51 2 62 -6 47 -6 -10 -67 -111 -135 -224 -69 -113 -150 -248 -180 -300 -65 -114 -151 -254 -203 -332 -22 -31 -39 -58 -39 -60 0 -2 15 -2 34 0 25 3 40 -2 56 -18 36 -36 25 -112 -35 -240 -57 -122 -86 -160 -113 -144 -37 24 -56 75 -57 152 l0 74 -33 -74 c-27 -58 -34 -86 -33 -134 1 -101 36 -189 109 -266 78 -84 144 -114 386 -179 169 -45 201 -60 306 -136 87 -64 250 -146 289 -146 20 0 69 14 99 29 2 1 -7 17 -18 37 -59 99 -20 264 84 355 20 18 41 32 46 32 6 0 10 20 10 44 0 109 48 242 111 305 36 36 121 81 155 81 30 0 50 20 63 62 35 108 202 208 395 233 44 6 55 13 130 90 83 85 131 115 186 115 35 0 80 -38 80 -68 0 -35 -30 -106 -62 -146 l-32 -40 28 -20 c23 -18 42 -21 129 -21 112 -1 162 -16 225 -70 34 -28 72 -92 72 -120 0 -11 11 -15 48 -15 26 0 67 -9 91 -20 24 -11 45 -20 47 -20 2 0 4 15 4 33 0 46 26 129 50 160 17 22 19 34 13 101 -6 72 -13 90 -28 66 -11 -18 -142 -79 -183 -86 -53 -8 -82 8 -82 46 0 22 17 47 73 107 40 43 83 94 95 114 38 63 84 81 142 55 11 -4 23 9 44 50 18 34 54 78 93 112 35 32 63 62 63 67 0 6 16 35 36 64 l37 54 -18 34 c-10 18 -68 99 -129 179 -175 229 -261 353 -307 437 -39 74 -45 81 -102 108 -33 15 -101 37 -151 49 -51 11 -107 30 -125 41 -27 16 -32 24 -29 51 6 62 123 104 220 80 23 -6 43 -10 45 -8 7 6 -70 106 -113 147 -89 82 -207 136 -364 165 -69 12 -381 17 -465 7z m410 -169 c113 -52 100 -104 -37 -145 -40 -11 -106 -34 -146 -50 -89 -36 -135 -38 -156 -7 -22 31 -20 54 9 103 27 47 81 92 134 112 46 17 144 11 196 -13z m-641 -345 c34 -27 33 -56 -3 -106 -46 -64 -249 -233 -297 -247 -55 -17 -71 73 -33 189 26 76 77 140 133 166 59 27 165 26 200 -2z m608 -66 c10 -9 18 -30 18 -50 0 -59 -52 -103 -218 -183 -150 -73 -180 -82 -207 -60 -31 26 -11 83 58 157 107 117 291 188 349 136z m489 -164 c24 -24 20 -55 -12 -100 -39 -56 -212 -139 -288 -139 -34 0 -43 4 -52 24 -17 36 26 122 84 170 55 45 111 64 190 65 45 1 61 -3 78 -20z m227 -355 c57 -40 69 -136 27 -221 -46 -91 -157 -176 -269 -204 -59 -15 -96 5 -96 52 0 46 14 66 111 161 59 57 97 104 113 138 41 88 68 106 114 74z m-1508 -64 c25 -25 26 -70 1 -118 -34 -66 -218 -232 -257 -232 -43 0 -56 68 -29 158 17 55 102 158 160 194 40 24 99 24 125 -2z m683 -123 c43 -18 59 -40 60 -81 2 -78 -72 -140 -266 -224 -126 -55 -200 -53 -226 5 -43 93 112 248 299 297 70 19 93 19 133 3z m-1265 -248 c68 -24 84 -110 37 -198 -34 -61 -187 -201 -221 -201 -52 0 -72 97 -39 190 29 82 108 193 150 210 27 12 37 12 73 -1z m597 -242 c57 -48 40 -148 -35 -207 -57 -45 -226 -130 -259 -130 -65 0 -65 49 1 161 98 164 221 238 293 176z m-731 -453 c54 -54 -30 -178 -198 -291 -101 -69 -166 -71 -166 -7 0 40 81 183 125 222 89 78 201 114 239 76z m412 -234 c39 -15 53 -39 54 -88 0 -58 -25 -109 -69 -137 -60 -39 -201 -71 -293 -66 -79 4 -78 110 2 179 32 28 233 118 272 121 4 1 19 -4 34 -9z" id="4"/>
<path d="M2306 6630 c-48 -15 -106 -61 -132 -106 -14 -24 -23 -48 -19 -54 12 -20 77 -10 153 24 42 19 100 40 129 46 98 22 93 57 -12 85 -66 17 -77 17 -119 5z" id="5"/>
<path d="M1639 6270 c-52 -27 -86 -73 -106 -138 -19 -66 -23 -143 -7 -149 6 -2 40 20 76 49 36 29 92 74 125 99 68 53 104 110 87 137 -17 26 -128 28 -175 2z" id="6"/>
<path d="M2309 6205 c-68 -25 -104 -48 -167 -109 -72 -69 -100 -112 -83 -129 17 -17 314 135 346 177 14 18 25 40 25 48 0 30 -58 36 -121 13z" id="7"/>
<path d="M2768 6046 c-83 -23 -144 -81 -155 -151 l-6 -38 40 5 c86 12 263 121 263 163 0 26 -80 38 -142 21z" id="8"/>
<path d="M3104 5682 c-6 -4 -22 -27 -34 -52 -13 -25 -60 -83 -105 -130 -125 -129 -147 -189 -64 -176 56 9 132 49 186 99 79 73 109 163 76 227 -18 35 -38 46 -59 32z" id="9"/>
<path d="M1545 5623 c-100 -54 -154 -128 -162 -223 -5 -55 -4 -60 14 -60 23 0 154 113 202 174 17 22 34 51 38 64 13 53 -35 76 -92 45z" id="10"/>
<path d="M2158 5480 c-101 -42 -177 -101 -209 -162 -25 -49 -24 -74 5 -93 33 -22 75 -10 229 65 171 83 210 124 170 179 -18 23 -28 26 -84 28 -45 2 -78 -4 -111 -17z" id="11"/>
<path d="M989 5235 c-27 -14 -99 -118 -118 -168 -17 -44 -14 -146 4 -153 23 -9 190 148 209 197 41 103 -10 170 -95 124z" id="12"/>
<path d="M1565 5014 c-73 -38 -225 -232 -211 -270 8 -20 28 -14 140 44 157 81 207 150 155 216 -24 30 -42 32 -84 10z" id="13"/>
<path d="M801 4542 c-30 -15 -73 -45 -96 -67 -43 -42 -105 -153 -105 -188 0 -72 268 119 306 218 9 24 13 48 9 54 -11 18 -57 12 -114 -17z" id="14"/>
<path d="M1225 4296 c-129 -48 -197 -97 -211 -151 -15 -59 34 -68 177 -34 132 31 179 70 179 150 0 65 -40 75 -145 35z" id="15"/>
<path d="M1801 6750 c-81 -32 -167 -84 -181 -111 -17 -30 -12 -97 7 -108 25 -14 58 3 130 64 35 30 92 68 127 85 90 42 97 73 23 89 -27 7 -50 3 -106 -19z" id="16"/>
<path d="M4000 6763 c-81 -10 -145 -29 -219 -65 -68 -33 -101 -56 -165 -122 -136 -137 -204 -290 -214 -478 -8 -164 5 -212 85 -314 37 -46 68 -82 70 -80 2 2 -7 37 -20 77 -38 115 -51 212 -51 364 0 120 3 149 23 204 23 65 75 151 91 151 21 0 18 -21 -11 -74 -44 -82 -59 -147 -59 -266 0 -175 31 -328 91 -454 34 -71 56 -96 81 -96 22 0 22 9 3 80 -19 70 -19 183 -1 244 14 47 14 49 -19 109 -18 34 -41 98 -51 142 -21 99 -9 199 36 292 67 137 171 213 290 213 111 0 197 -56 258 -168 26 -48 30 -51 35 -30 26 93 -23 195 -113 239 -57 29 -98 38 -140 32z" id="17"/>
<path d="M3370 6633 c-115 -130 -150 -218 -150 -378 l0 -104 60 -90 c56 -83 93 -126 77 -90 -65 150 -61 133 -62 304 0 136 2 160 15 160 12 0 16 -26 21 -155 3 -85 10 -166 17 -180 l11 -25 0 28 c1 41 30 174 50 232 17 48 17 52 0 90 -22 49 -24 153 -4 210 8 21 13 41 11 43 -2 1 -23 -19 -46 -45z" id="18"/>
<path d="M3900 6592 c-75 -38 -150 -182 -150 -291 0 -49 25 -137 41 -147 5 -3 35 21 67 54 60 62 162 120 255 143 40 10 47 15 47 36 0 37 -59 141 -95 169 -33 25 -96 54 -117 54 -7 0 -29 -8 -48 -18z" id="19"/>
<path d="M2839 6471 c-71 -23 -87 -49 -46 -75 12 -8 66 -24 120 -35 55 -12 112 -28 129 -37 16 -9 32 -13 35 -10 3 2 -5 32 -18 66 -18 45 -32 66 -53 77 -34 18 -130 26 -167 14z" id="20"/>
<path d="M4074 6236 c-84 -31 -128 -60 -208 -135 -112 -108 -145 -202 -126 -356 17 -130 14 -125 65 -125 l44 0 -16 38 c-26 58 -22 211 6 284 22 56 45 86 54 71 3 -5 -6 -40 -19 -78 -27 -81 -30 -151 -9 -221 26 -90 51 -103 129 -70 39 16 39 17 18 32 -12 8 -34 36 -49 61 -23 39 -27 59 -28 117 0 59 5 81 29 129 64 125 199 203 364 208 34 1 62 6 62 11 0 5 -24 20 -52 33 -71 33 -177 34 -264 1z" id="21"/>
<path d="M1142 5984 c-33 -23 -87 -139 -102 -215 -9 -52 -9 -80 0 -123 16 -79 31 -74 68 24 11 30 41 91 66 135 49 84 62 129 52 170 -8 30 -48 34 -84 9z" id="22"/>
<path d="M4609 5941 c-24 -17 -70 -50 -101 -75 -32 -24 -84 -54 -115 -66 -65 -24 -281 -52 -340 -43 l-38 5 25 -26 c58 -60 226 -84 358 -52 31 8 81 19 110 25 61 12 154 55 178 83 10 10 12 18 6 18 -33 0 -68 79 -42 95 6 3 10 -2 10 -13 0 -23 30 -52 53 -52 27 0 23 83 -5 110 -29 27 -46 25 -99 -9z" id="23"/>
<path d="M7185 5840 c-202 -43 -389 -191 -486 -381 -24 -49 -89 -268 -89 -303 0 -8 57 -11 202 -11 185 0 210 -2 278 -23 252 -80 431 -250 530 -504 l27 -70 103 98 c197 190 269 340 256 539 -18 289 -216 537 -506 635 -72 24 -246 35 -315 20z m268 -74 c36 -14 67 -54 67 -84 0 -31 -39 -64 -135 -117 -113 -61 -265 -152 -287 -172 -10 -9 -25 -13 -34 -9 -15 6 -16 19 -11 114 6 115 16 154 50 190 65 70 264 114 350 78z" id="24"/>
<path d="M7260 5716 c-144 -61 -148 -63 -158 -98 -13 -40 -26 -188 -17 -188 3 0 43 22 88 48 45 27 123 73 172 102 50 29 97 59 106 67 19 16 15 48 -9 76 -23 26 -113 22 -182 -7z" id="25"/>
<path d="M5969 5654 c81 -116 170 -224 187 -224 23 0 164 -78 211 -116 25 -21 61 -59 80 -86 51 -70 64 -63 84 47 19 107 33 155 65 214 13 24 24 44 24 46 0 1 -33 8 -72 15 -67 11 -233 60 -498 145 -58 19 -113 37 -124 41 -12 4 4 -24 43 -82z" id="26"/>
<path d="M5680 5615 c0 -123 1 -125 71 -125 33 0 59 2 59 5 0 3 -29 49 -65 103 l-65 97 0 -80z" id="27"/>
<path d="M4373 5629 c-57 -28 -149 -145 -121 -153 7 -2 32 -9 55 -15 28 -8 53 -24 74 -50 l33 -38 45 14 c31 10 74 13 134 10 100 -5 104 -3 113 81 11 102 -66 165 -211 170 -66 2 -87 -1 -122 -19z" id="28"/>
<path d="M4015 5596 c-82 -38 -174 -158 -150 -196 9 -15 93 -12 118 5 32 20 127 52 181 60 34 6 47 12 52 29 3 11 19 42 35 69 16 26 29 49 29 52 0 3 -48 5 -107 5 -92 0 -115 -4 -158 -24z" id="29"/>
<path d="M3782 5569 c-120 -23 -222 -148 -257 -316 -8 -37 -15 -76 -15 -85 0 -31 19 -19 41 25 48 95 117 156 211 188 49 16 52 20 63 63 6 25 24 63 38 85 15 22 27 43 27 46 0 7 -57 4 -108 -6z" id="30"/>
<path d="M4760 5491 c0 -17 -8 -53 -19 -80 l-18 -49 28 -21 c39 -29 70 -92 76 -156 l6 -53 70 -16 c38 -9 76 -16 83 -16 8 0 27 27 44 60 26 51 30 70 30 139 0 74 -2 82 -33 122 -45 59 -113 93 -199 97 l-68 4 0 -31z" id="31"/>
<path d="M4113 5400 c-120 -31 -152 -56 -182 -136 -25 -66 -38 -154 -23 -154 6 0 34 5 62 11 63 13 129 -1 177 -37 30 -22 33 -23 66 -9 62 26 157 169 157 236 -1 97 -99 130 -257 89z" id="32"/>
<path d="M5660 5381 c0 -6 16 -48 36 -92 36 -76 38 -79 56 -62 24 22 43 5 34 -32 -12 -48 -109 -69 -198 -44 -41 11 -53 39 -17 39 l21 0 -20 33 c-11 17 -30 61 -43 96 l-23 63 -55 -6 c-97 -12 -174 -36 -231 -73 -49 -33 -53 -37 -36 -47 45 -26 96 -80 116 -123 28 -61 36 -162 17 -233 -15 -54 -15 -55 9 -77 46 -42 71 -159 53 -244 -14 -68 -71 -189 -110 -233 l-30 -34 46 -74 c24 -40 57 -88 72 -106 l28 -33 109 16 c60 8 133 15 163 15 l53 0 0 49 c0 73 27 215 61 316 79 236 212 418 362 495 37 19 67 37 66 40 0 3 -51 77 -112 165 -111 159 -113 160 -162 173 -73 19 -265 28 -265 13z" id="33"/>
<path d="M3793 5345 c-124 -38 -205 -139 -219 -272 -11 -102 29 -193 85 -193 21 0 29 7 39 33 18 51 68 113 118 145 l45 30 3 74 c2 54 10 87 29 128 14 30 25 55 24 56 -14 10 -91 9 -124 -1z" id="34"/>
<path d="M4510 5353 c-68 -11 -90 -24 -90 -51 0 -33 -29 -97 -69 -155 l-29 -43 51 -12 c28 -7 68 -23 89 -37 34 -23 91 -89 100 -117 6 -16 84 23 137 68 84 72 107 169 57 245 -32 48 -87 85 -146 98 -46 11 -57 11 -100 4z" id="35"/>
<path d="M3443 5263 c-46 -58 -64 -99 -79 -182 -19 -106 -17 -114 12 -53 14 29 40 64 58 77 31 23 34 31 39 93 2 37 8 75 12 85 12 30 -10 19 -42 -20z" id="36"/>
<path d="M6171 5293 c11 -25 164 -213 173 -213 6 1 22 7 34 14 l24 13 -55 59 c-48 51 -186 151 -176 127z" id="37"/>
<path d="M5101 5197 c-7 -19 -25 -54 -40 -79 l-29 -46 39 -31 c21 -17 51 -53 66 -79 24 -40 28 -58 28 -124 l0 -77 37 36 c57 56 81 122 76 208 -6 90 -41 160 -101 198 -53 35 -63 34 -76 -6z" id="38"/>
<path d="M3234 5128 c-17 -18 -43 -51 -59 -73 -15 -22 -50 -61 -76 -86 -27 -25 -49 -53 -49 -62 0 -39 127 -4 210 57 43 31 46 37 57 102 11 61 11 70 -4 82 -27 19 -47 14 -79 -20z" id="39"/>
<path d="M3474 5080 c-53 -38 -76 -87 -82 -177 -4 -70 11 -157 29 -169 4 -2 27 16 50 41 23 25 56 54 74 65 l34 21 -26 55 c-18 41 -25 73 -26 124 -1 39 -3 70 -7 70 -3 -1 -24 -14 -46 -30z" id="40"/>
<path d="M6640 5094 c-50 -9 -265 -57 -268 -60 -2 -1 36 -55 85 -119 l88 -117 3 41 c3 42 24 56 36 25 11 -28 6 -94 -8 -122 -36 -69 -125 -104 -171 -68 -20 16 -20 16 3 22 12 3 22 9 22 11 0 3 -22 30 -49 59 -28 30 -73 93 -101 139 -28 47 -57 85 -64 85 -7 0 -44 -22 -82 -49 -214 -150 -344 -398 -374 -713 -17 -174 5 -323 66 -439 32 -61 161 -226 211 -272 17 -15 51 -19 214 -27 107 -6 228 -15 269 -21 41 -6 134 -13 205 -16 238 -9 335 34 634 286 205 173 229 208 256 391 19 120 19 190 0 313 -38 253 -195 471 -421 585 -111 56 -153 64 -349 67 -99 2 -191 1 -205 -1z m375 -271 c146 -73 177 -146 115 -270 -37 -74 -89 -129 -149 -157 -42 -19 -63 -21 -256 -21 -115 0 -215 -3 -221 -7 -7 -4 -17 -1 -24 7 -10 12 -2 25 46 72 62 61 156 120 262 165 79 33 88 41 118 100 26 51 31 97 13 115 -17 17 -1 35 24 27 12 -4 45 -18 72 -31z" id="41"/>
<path d="M6960 4778 c-1 -33 -37 -108 -68 -142 -15 -15 -52 -39 -82 -53 -72 -32 -196 -105 -238 -140 l-34 -28 174 -3 c155 -3 180 -1 229 17 99 37 200 169 184 241 -8 37 -47 76 -107 106 -58 29 -58 29 -58 2z" id="42"/>
<path d="M2550 5069 c-19 -12 -62 -50 -95 -84 l-60 -64 47 -6 c26 -3 65 -12 87 -20 l41 -14 35 43 c32 39 65 102 65 125 0 19 -32 41 -58 41 -15 0 -43 -10 -62 -21z" id="43"/>
<path d="M4796 5045 c-33 -55 -94 -109 -161 -142 -52 -26 -55 -29 -55 -64 0 -36 1 -37 48 -43 96 -13 173 -83 207 -188 10 -29 19 -54 20 -56 6 -7 163 78 195 104 95 81 94 258 -3 340 -41 35 -121 72 -180 83 l-47 8 -24 -42z" id="44"/>
<path d="M3931 5065 c-64 -18 -111 -51 -152 -108 -37 -52 -63 -137 -54 -180 11 -50 75 -165 107 -193 l30 -24 38 34 c22 19 57 40 79 47 37 11 40 14 33 38 -4 14 -7 60 -7 101 0 89 24 146 93 215 l44 45 -36 15 c-55 23 -115 26 -175 10z" id="45"/>
<path d="M4228 5031 c-110 -43 -174 -131 -184 -251 -7 -90 6 -112 76 -126 30 -6 73 -20 95 -31 85 -43 141 -35 229 32 42 32 86 116 86 163 0 88 -52 182 -121 217 -38 20 -124 18 -181 -4z" id="46"/>
<path d="M2200 4854 c-113 -30 -183 -77 -232 -153 -37 -59 -36 -71 5 -71 44 0 137 -24 219 -56 l66 -26 34 25 c44 34 100 57 137 57 25 0 34 7 50 38 19 38 61 80 111 113 l25 16 -42 22 c-100 50 -259 65 -373 35z" id="47"/>
<path d="M3604 4821 c-57 -26 -124 -88 -145 -136 -21 -45 -24 -119 -8 -162 14 -37 52 -77 112 -115 44 -28 53 -30 115 -26 87 7 142 33 143 67 0 14 4 35 8 46 6 16 -1 29 -36 63 -55 53 -112 170 -115 235 -3 54 -10 57 -74 28z" id="48"/>
<path d="M438 4789 c-27 -21 -42 -45 -53 -81 -27 -93 -14 -233 22 -226 20 4 115 211 121 264 8 77 -28 95 -90 43z" id="49"/>
<path d="M5244 4762 c-23 -26 -61 -61 -85 -77 -24 -17 -63 -48 -86 -71 -42 -40 -43 -41 -24 -58 37 -33 63 -115 65 -198 0 -43 4 -78 8 -78 4 0 34 25 67 56 72 66 114 145 137 254 17 83 9 155 -24 197 l-17 23 -41 -48z" id="50"/>
<path d="M2663 4762 c-58 -21 -115 -61 -140 -99 -14 -21 -14 -26 -2 -34 8 -5 23 -9 33 -9 40 0 164 -70 228 -129 l66 -61 21 34 c25 40 92 102 127 118 22 10 25 17 20 42 -9 42 -50 91 -103 123 -61 35 -173 42 -250 15z" id="51"/>
<path d="M3322 4718 c-29 -59 -36 -111 -23 -151 10 -29 18 -36 47 -42 20 -3 42 -9 50 -12 11 -4 12 0 3 27 -7 18 -9 52 -5 80 5 39 2 58 -16 94 -12 25 -25 46 -29 46 -4 0 -16 -19 -27 -42z" id="52"/>
<path d="M4573 4748 c-5 -7 -18 -30 -28 -51 -36 -70 -119 -131 -214 -157 -38 -10 -42 -14 -36 -33 17 -56 25 -95 25 -124 0 -27 8 -39 53 -72 153 -116 293 -123 369 -19 43 57 60 116 61 203 0 148 -56 220 -199 260 -12 3 -25 0 -31 -7z" id="53"/>
<path d="M3986 4600 c-98 -31 -143 -154 -95 -260 27 -60 64 -98 124 -126 63 -30 109 -30 165 -1 106 54 121 243 27 352 -32 37 -35 38 -113 41 -43 2 -92 -1 -108 -6z" id="54"/>
<path d="M1853 4576 c-128 -32 -214 -146 -230 -305 l-6 -53 44 8 c74 15 179 8 265 -18 l81 -24 36 32 c21 19 59 40 91 49 l56 16 0 43 c0 38 17 118 34 158 6 13 -2 22 -35 39 -115 58 -242 79 -336 55z" id="55"/>
<path d="M2415 4581 c-111 -29 -185 -130 -185 -253 0 -48 0 -48 33 -48 66 0 156 -30 290 -98 4 -2 7 4 7 13 0 8 26 42 58 74 59 61 101 81 170 81 48 0 41 22 -30 96 -100 105 -244 161 -343 135z" id="56"/>
<path d="M3047 4555 c-54 -20 -115 -71 -149 -124 -42 -66 -38 -82 28 -114 74 -37 148 -108 180 -174 l27 -54 13 37 c29 85 135 150 232 142 53 -5 53 -5 47 21 -23 94 -113 204 -207 250 -67 34 -111 38 -171 16z" id="57"/>
<path d="M4918 4524 l-56 -26 -11 -60 c-20 -113 -92 -229 -160 -258 l-29 -12 19 -32 c10 -17 19 -46 21 -64 3 -39 20 -46 91 -37 109 14 203 80 249 174 19 38 23 62 23 141 0 83 -3 102 -26 145 -15 31 -33 51 -45 53 -10 1 -44 -10 -76 -24z" id="58"/>
<path d="M3386 4458 c33 -37 55 -77 73 -132 l18 -51 61 -2 c34 0 62 3 62 8 0 17 -82 99 -149 149 -70 53 -97 64 -65 28z" id="59"/>
<path d="M7664 4472 c2 -4 9 -50 15 -103 13 -116 1 -242 -33 -343 -13 -39 -23 -72 -22 -74 7 -7 58 71 73 114 22 58 49 74 38 23 -25 -117 -132 -232 -446 -482 -127 -101 -262 -178 -354 -202 -67 -17 -185 -19 -290 -5 -415 57 -710 70 -810 37 -55 -18 -95 -22 -95 -8 0 16 99 51 162 57 35 3 69 8 77 10 8 3 -9 28 -49 71 -77 82 -153 196 -175 263 -13 40 -45 203 -45 233 0 13 -261 7 -368 -8 -100 -14 -142 -10 -142 14 0 11 36 21 75 21 52 1 53 11 9 77 -40 61 -41 62 -52 39 -32 -70 -213 -226 -262 -226 -9 0 -22 -16 -29 -37 -16 -44 -59 -109 -90 -137 l-22 -20 108 -27 c60 -15 161 -51 228 -82 113 -51 183 -77 248 -91 30 -7 37 -26 10 -26 -37 0 -206 51 -331 99 -156 60 -190 69 -307 80 -108 10 -431 -3 -570 -22 -124 -18 -262 -55 -269 -72 -2 -7 7 -35 21 -61 22 -45 24 -58 21 -154 -3 -95 -6 -112 -35 -171 -36 -72 -119 -159 -152 -159 -12 0 -26 -11 -35 -27 -8 -16 -28 -41 -45 -57 -23 -22 -29 -35 -25 -55 3 -14 -1 -49 -9 -77 l-13 -51 66 0 c64 0 110 -14 110 -33 0 -6 -36 -10 -82 -10 -103 0 -208 -23 -408 -89 -85 -28 -181 -55 -213 -61 -66 -10 -219 1 -342 25 -237 47 -544 22 -805 -65 -68 -23 -115 -32 -165 -33 -79 -1 -98 7 -242 99 -49 31 -131 84 -183 117 -207 132 -273 177 -258 177 29 0 113 -43 219 -111 58 -38 109 -69 112 -69 15 0 -31 91 -53 107 -46 30 -82 68 -102 106 -26 52 -33 154 -15 251 14 78 14 80 -9 114 -13 19 -26 49 -30 68 -11 61 0 156 26 208 16 34 20 51 12 54 -50 16 -201 100 -264 145 -106 77 -138 92 -277 127 -67 17 -159 44 -204 60 -45 17 -87 28 -93 26 -16 -6 -112 -145 -167 -241 -128 -222 -135 -425 -24 -639 57 -110 113 -183 240 -313 336 -344 733 -550 1267 -657 99 -20 312 -50 535 -76 289 -34 473 -58 735 -96 513 -73 628 -60 1139 125 472 172 674 206 1166 200 398 -5 610 -2 725 11 500 58 1198 402 1604 790 186 178 325 367 395 539 34 83 36 91 36 211 0 125 0 126 -37 200 -61 123 -162 221 -350 338 -67 42 -84 49 -74 34z m128 -549 c35 -38 55 -81 73 -155 17 -74 20 -174 4 -184 -19 -11 -26 14 -32 104 -6 100 -25 162 -67 213 -26 33 -29 49 -10 49 3 0 18 -12 32 -27z m218 -42 c15 -29 13 -81 -4 -81 -14 0 -36 66 -28 88 6 18 20 15 32 -7z m-91 -64 c5 -13 12 -49 16 -80 6 -48 5 -57 -8 -57 -11 0 -18 13 -22 38 -3 20 -10 54 -14 74 -5 20 -6 40 -3 43 11 11 23 4 31 -18z m-7441 -209 c-92 -109 -113 -156 -144 -318 -20 -103 -41 -117 -36 -24 3 67 34 178 67 244 31 61 135 174 148 161 6 -6 -5 -28 -35 -63z m7372 -118 c0 -21 -15 -27 -25 -10 -7 12 2 30 16 30 5 0 9 -9 9 -20z m-7370 -104 c0 -8 -5 -27 -11 -43 -6 -15 -14 -55 -17 -88 -5 -44 -11 -60 -22 -60 -29 0 -22 84 15 172 14 34 35 45 35 19z m6905 -40 c30 -68 45 -150 45 -248 0 -59 -3 -78 -14 -78 -17 0 -26 44 -26 124 0 64 -21 160 -45 210 -8 16 -12 32 -9 37 12 20 26 6 49 -45z m244 17 c24 -94 24 -105 5 -101 -13 2 -22 19 -31 58 -7 30 -11 61 -8 68 8 23 24 12 34 -25z m99 12 c16 -34 15 -45 -3 -45 -17 0 -39 46 -29 61 9 16 20 10 32 -16z m-183 -139 c9 -24 15 -52 13 -62 -5 -29 -27 -28 -33 3 -4 15 -11 40 -17 55 -10 27 -5 48 12 48 4 0 16 -20 25 -44z m-479 -32 c35 -80 54 -167 54 -256 0 -61 -3 -78 -14 -78 -10 0 -16 19 -20 68 -12 129 -27 207 -51 259 -13 28 -21 54 -17 57 13 14 25 2 48 -50z m-6528 -44 c1 -30 -2 -61 -7 -69 -18 -27 -31 1 -31 65 0 57 2 65 18 62 13 -2 18 -15 20 -58z m120 -105 c7 -49 13 -99 14 -110 5 -37 -26 -21 -38 20 -13 43 -18 177 -7 189 13 13 20 -10 31 -99z m6617 24 c0 -59 -3 -74 -15 -74 -11 0 -16 14 -18 54 -4 66 4 104 21 98 8 -2 12 -29 12 -78z m-95 20 c15 -54 10 -114 -10 -114 -11 0 -16 17 -21 70 -3 39 -4 73 -2 78 9 18 23 4 33 -34z m-553 -11 c57 -62 83 -163 83 -320 0 -76 -3 -98 -14 -98 -10 0 -14 30 -19 128 -6 144 -22 208 -66 263 -17 21 -31 40 -31 43 0 14 28 4 47 -16z m-5901 -121 c8 -31 20 -70 29 -87 16 -32 4 -50 -20 -30 -15 13 -40 83 -50 143 -5 33 -4 38 11 35 12 -2 21 -21 30 -61z m85 -3 c9 -99 28 -149 66 -185 40 -35 33 -58 -11 -38 -41 19 -66 70 -82 166 -18 115 -18 125 4 121 13 -2 18 -17 23 -64z m4932 -19 c16 -44 35 -113 43 -153 19 -101 19 -264 -1 -302 -28 -54 -53 -33 -30 24 32 76 7 297 -49 437 -31 77 -31 81 -9 77 10 -2 27 -32 46 -83z m1088 -6 c22 -61 30 -111 20 -128 -14 -21 -31 -3 -31 32 -1 18 -9 56 -19 84 -10 29 -15 55 -13 58 13 12 28 -4 43 -46z m129 25 c12 -32 13 -101 1 -108 -16 -10 -29 18 -33 77 -4 43 -1 57 9 57 7 0 18 -12 23 -26z m-341 -106 c18 -93 18 -142 0 -146 -13 -2 -17 9 -22 55 -4 32 -9 77 -13 101 -5 34 -4 42 9 42 11 0 19 -16 26 -52z m-5633 -82 c38 -83 42 -109 17 -104 -17 3 -73 125 -73 160 0 38 23 15 56 -56z m3520 -77 c18 -171 18 -329 0 -329 -21 0 -26 23 -26 128 -1 53 -5 144 -10 202 -8 108 -7 124 13 117 7 -2 17 -50 23 -118z m1375 64 c9 -23 38 -225 39 -271 0 -8 -8 -12 -17 -10 -15 3 -20 22 -29 108 -6 58 -15 126 -19 153 -8 53 8 66 26 20z m-184 -39 c24 -103 10 -209 -26 -201 -9 2 -14 10 -11 18 9 30 11 148 2 180 -5 19 -7 40 -4 47 8 26 27 4 39 -44z m343 -62 c15 -48 10 -97 -10 -97 -11 0 -17 16 -21 60 -4 33 -5 63 -2 68 10 16 23 5 33 -31z m-4885 -33 c26 -31 28 -50 8 -56 -14 -5 -66 64 -58 77 10 17 22 12 50 -21z m4965 1 c0 -5 -7 -10 -16 -10 -8 0 -12 5 -9 10 3 6 10 10 16 10 5 0 9 -4 9 -10z m-525 -76 c0 -56 -1 -59 -25 -59 -20 0 -26 6 -28 28 -2 15 1 27 7 27 6 0 11 13 11 28 0 32 8 44 24 39 6 -2 11 -30 11 -63z m-1414 -86 c24 -119 25 -250 4 -268 -24 -20 -40 1 -25 31 15 26 7 155 -15 263 -8 38 -12 73 -9 78 13 20 28 -14 45 -104z m459 28 c0 -64 -14 -92 -31 -65 -10 16 -12 113 -2 122 3 4 12 7 20 7 9 0 13 -17 13 -64z m250 49 c0 -8 -7 -15 -15 -15 -8 0 -15 7 -15 15 0 8 7 15 15 15 8 0 15 -7 15 -15z m-131 -25 c10 -31 6 -60 -9 -60 -12 0 -17 10 -25 53 -6 29 -4 37 8 37 8 0 20 -14 26 -30z m-351 -128 c-2 -9 -9 -17 -15 -19 -16 -6 -36 45 -28 66 5 13 10 12 26 -8 11 -13 19 -31 17 -39z m-139 -3 c6 -18 11 -42 11 -55 0 -23 -16 -41 -27 -30 -8 8 -22 99 -16 109 9 15 21 6 32 -24z m-318 -25 c18 -79 -4 -192 -35 -181 -12 5 -12 13 4 75 6 27 7 56 1 84 -6 23 -7 46 -4 50 9 17 28 1 34 -28z m-337 -26 c9 -35 7 -208 -4 -252 -10 -46 -35 -75 -50 -60 -7 7 -5 23 7 50 14 30 17 66 17 162 -1 90 2 122 11 122 7 0 15 -10 19 -22z m459 -24 c8 -51 -12 -108 -41 -112 -25 -4 -27 5 -7 32 8 11 15 38 15 61 0 64 24 78 33 19z m-244 -66 c-2 -128 -11 -193 -29 -193 -16 0 -16 -3 -4 178 4 74 9 97 20 97 11 0 14 -18 13 -82z m-106 -67 c-1 -58 -14 -91 -34 -91 -8 0 -2 119 7 148 2 8 10 12 17 9 8 -3 11 -24 10 -66z m-232 -17 c-6 -53 -47 -114 -77 -114 -22 0 -17 19 16 57 17 18 30 44 30 57 0 26 9 38 24 33 6 -2 9 -17 7 -33z m-151 -14 c0 -24 -25 -60 -42 -60 -22 0 -22 3 -3 40 15 28 45 42 45 20z" id="60"/>
<path d="M3775 4355 c-22 -8 -66 -14 -98 -14 l-57 -1 24 -47 c13 -27 43 -68 65 -93 23 -25 51 -64 62 -88 12 -23 30 -47 41 -53 23 -12 21 -14 38 30 8 19 28 53 46 76 l32 42 -32 40 c-18 23 -40 59 -50 82 -11 22 -22 41 -25 40 -3 -1 -24 -7 -46 -14z" id="61"/>
<path d="M2743 4296 c-101 -32 -173 -131 -173 -238 l0 -58 48 0 c67 0 134 -22 198 -64 30 -20 55 -36 57 -36 2 0 18 22 34 48 36 58 87 99 143 116 l40 12 -22 44 c-34 69 -114 143 -181 168 -66 25 -85 26 -144 8z" id="62"/>
<path d="M4284 4259 c-18 -40 -85 -109 -105 -109 -17 0 -5 -85 19 -141 44 -102 125 -161 221 -161 67 0 114 18 163 61 68 59 87 143 47 207 -23 38 -47 54 -78 54 -38 0 -131 41 -190 85 l-59 43 -18 -39z" id="63"/>
<path d="M5152 4240 c-24 -16 -46 -30 -50 -32 -4 -2 -20 -25 -36 -52 -15 -26 -46 -66 -67 -87 -21 -21 -34 -39 -29 -39 45 0 202 140 221 197 6 19 9 36 7 38 -2 2 -23 -9 -46 -25z" id="64"/>
<path d="M2143 4230 c-66 -15 -120 -70 -148 -149 -21 -62 -19 -100 11 -159 43 -86 165 -152 279 -152 49 0 53 2 58 28 11 53 69 125 130 161 l57 34 0 63 c0 34 2 69 5 77 4 10 -17 23 -76 46 -134 53 -238 70 -316 51z" id="65"/>
<path d="M3279 4202 c-59 -31 -99 -80 -99 -122 0 -23 8 -32 43 -50 120 -63 230 -167 258 -245 12 -32 16 -35 55 -35 49 0 90 28 99 68 7 32 -33 169 -72 245 -31 61 -94 130 -137 151 -49 23 -86 20 -147 -12z" id="66"/>
<path d="M3524 4195 c77 -77 156 -249 156 -340 0 -38 3 -45 19 -45 77 0 102 91 61 224 -38 123 -121 196 -222 196 l-49 0 35 -35z" id="67"/>
<path d="M1630 4174 c-67 -24 -105 -57 -137 -121 -40 -82 -40 -178 0 -245 43 -74 145 -133 262 -152 l41 -7 19 63 c21 72 80 143 125 153 l28 6 -19 42 c-24 54 -24 123 0 180 l19 45 -25 11 c-41 19 -160 41 -216 41 -29 -1 -72 -8 -97 -16z" id="68"/>
<path d="M3926 4133 c-52 -70 -55 -101 -17 -157 45 -65 63 -121 64 -198 1 -48 5 -68 14 -68 7 0 45 9 85 20 40 11 113 26 163 33 106 15 117 29 51 70 -76 47 -127 132 -147 241 -12 64 -13 66 -43 66 -27 1 -63 11 -118 34 -12 6 -26 -4 -52 -41z" id="69"/>
<path d="M3043 4009 c-37 -11 -95 -64 -118 -110 -47 -91 -20 -197 64 -250 25 -17 88 -43 139 -59 152 -49 254 -36 306 39 51 73 30 147 -68 238 -80 75 -148 120 -210 138 -56 17 -67 17 -113 4z" id="70"/>
<path d="M3815 3993 c4 -10 10 -50 12 -90 5 -69 4 -73 -23 -101 -16 -16 -35 -31 -42 -33 -11 -4 -7 -16 12 -53 15 -27 31 -67 38 -88 6 -21 17 -38 24 -38 19 0 70 67 83 109 23 78 3 180 -50 257 -30 44 -68 69 -54 37z" id="71"/>
<path d="M4825 3990 c-16 -4 -53 -8 -81 -9 -47 -1 -53 -3 -64 -31 -18 -43 -123 -137 -168 -149 -20 -6 -58 -11 -84 -11 -27 0 -48 -3 -48 -7 0 -15 282 9 343 29 49 15 122 79 147 129 32 61 26 67 -45 49z" id="72"/>
<path d="M2556 3944 c-112 -35 -176 -109 -176 -203 0 -150 117 -239 363 -274 26 -4 37 -2 37 7 0 22 68 151 89 171 19 17 20 19 3 49 -11 20 -16 54 -16 97 l0 67 -48 32 c-53 36 -139 70 -178 69 -14 0 -47 -7 -74 -15z" id="73"/>
<path d="M1955 3825 c-42 -22 -90 -78 -103 -123 -44 -146 32 -241 236 -293 41 -10 99 -19 127 -19 52 0 52 0 64 39 6 22 34 65 62 95 49 54 50 55 34 80 -10 14 -23 45 -30 68 l-12 43 -59 7 c-91 10 -162 37 -231 87 -49 36 -49 36 -88 16z" id="74"/>
<path d="M3631 3734 c-18 -13 -55 -27 -82 -30 -36 -5 -49 -11 -49 -23 0 -9 -7 -29 -16 -46 -12 -24 -13 -30 -2 -33 24 -8 126 -121 164 -182 29 -47 40 -58 53 -51 48 26 81 97 81 174 0 43 -8 71 -40 135 -45 91 -54 95 -109 56z" id="75"/>
<path d="M1450 3714 c-83 -35 -144 -125 -144 -216 -1 -48 4 -63 31 -100 60 -83 172 -138 312 -154 60 -6 61 -6 61 18 0 52 33 122 81 170 l48 48 -19 42 c-11 24 -20 50 -20 59 0 12 -17 20 -62 28 -70 14 -156 50 -203 85 -47 35 -48 35 -85 20z" id="76"/>
<path d="M2887 3598 c-64 -85 -86 -171 -61 -236 50 -133 340 -226 460 -147 62 40 83 138 45 213 -28 54 -48 67 -126 81 -77 14 -142 39 -227 88 -31 18 -59 33 -62 33 -3 0 -16 -15 -29 -32z" id="77"/>
<path d="M3869 3554 c-39 -29 -48 -41 -53 -77 -4 -23 -17 -60 -30 -83 l-23 -41 20 -39 c14 -25 21 -59 21 -96 1 -32 4 -58 7 -58 11 0 87 87 103 117 26 51 40 189 26 256 -6 31 -14 57 -18 56 -4 0 -28 -16 -53 -35z" id="78"/>
<path d="M8084 3548 c-9 -18 -34 -59 -56 -90 -38 -57 -38 -58 -22 -90 9 -17 18 -56 21 -87 3 -46 0 -63 -19 -96 -47 -80 -175 -155 -308 -181 -108 -20 -147 -39 -265 -128 -359 -271 -877 -499 -1275 -562 -120 -18 -129 -22 -277 -111 -136 -82 -196 -106 -310 -123 -84 -13 -129 -10 -378 22 -260 33 -395 19 -667 -72 -199 -67 -244 -73 -387 -54 -64 8 -130 18 -146 23 -20 5 -46 3 -75 -6 -196 -60 -371 -79 -576 -64 -144 10 -211 19 -482 62 -164 25 -309 44 -502 64 -591 60 -847 123 -1266 311 -86 39 -134 54 -165 54 -75 0 -180 28 -237 62 -115 69 -174 149 -194 260 -9 53 -18 69 -87 150 l-76 90 -14 -43 c-7 -24 -15 -94 -18 -156 -5 -95 -2 -122 16 -181 24 -79 78 -158 144 -210 97 -77 266 -136 452 -157 129 -14 244 -52 445 -148 264 -125 394 -153 670 -143 223 8 242 5 503 -80 313 -102 427 -112 683 -60 240 49 316 56 611 56 335 0 498 12 698 50 301 58 358 64 485 51 63 -7 178 -27 255 -44 195 -44 296 -43 419 3 50 18 157 74 245 127 191 116 363 204 456 232 78 24 209 29 325 11 104 -16 250 -12 310 7 74 24 148 95 240 233 86 128 168 211 245 246 28 13 93 33 145 44 284 63 351 86 436 150 63 48 146 161 170 232 21 64 15 165 -14 230 -22 51 -106 148 -128 148 -7 0 -21 -15 -30 -32z" id="79"/>
<path d="M3394 3531 l-52 -27 18 -24 c27 -39 41 -94 39 -154 -2 -39 2 -61 14 -73 8 -10 25 -40 36 -66 22 -51 21 -51 87 -27 66 25 112 101 100 165 -13 68 -142 237 -179 234 -7 0 -35 -13 -63 -28z" id="80"/>
<path d="M2375 3509 c-63 -55 -81 -114 -64 -206 21 -111 71 -172 178 -213 62 -24 191 -37 264 -26 44 7 47 9 53 44 3 20 17 57 30 81 l24 44 -24 26 c-33 36 -49 69 -55 116 l-6 39 -82 13 c-98 15 -164 39 -226 81 -25 18 -48 32 -51 32 -3 0 -21 -14 -41 -31z" id="81"/>
<path d="M1828 3413 c-55 -59 -73 -111 -73 -208 0 -73 4 -98 22 -130 30 -57 78 -99 148 -132 54 -25 71 -28 160 -27 73 0 115 6 154 20 52 18 55 21 67 69 7 31 22 58 39 73 l28 23 -26 27 c-29 30 -77 127 -77 155 0 43 -18 57 -75 57 -92 0 -225 38 -287 81 -35 26 -50 24 -80 -8z" id="82"/>
<path d="M7930 3324 c-19 -25 -93 -102 -165 -171 l-129 -125 44 7 c111 18 241 83 288 143 18 23 27 50 30 85 4 51 -10 107 -25 107 -5 -1 -24 -21 -43 -46z" id="83"/>
<path d="M3704 3322 c-5 -4 -15 -29 -22 -56 -22 -86 -76 -140 -161 -161 -44 -12 -45 -13 -57 -64 -11 -52 -11 -53 15 -63 34 -13 101 -3 150 22 99 50 157 190 117 284 -16 37 -27 48 -42 38z" id="84"/>
<path d="M1356 3253 c-10 -78 -7 -202 8 -236 35 -85 157 -139 313 -140 77 0 97 4 127 23 l37 22 -35 39 c-43 47 -72 103 -90 171 l-13 52 -79 13 c-96 16 -188 47 -230 79 l-31 23 -7 -46z" id="85"/>
<path d="M3345 3200 c-62 -68 -202 -80 -345 -29 -110 39 -112 39 -127 7 -34 -68 -35 -190 -2 -275 28 -74 105 -132 174 -133 42 0 140 26 202 54 137 63 209 230 153 354 -21 47 -29 51 -55 22z" id="86"/>
<path d="M2370 3038 c-37 -60 -34 -151 6 -232 33 -63 39 -66 143 -66 53 0 137 -7 186 -15 119 -19 144 -19 183 5 l34 21 -31 35 c-43 48 -67 99 -81 169 l-12 60 -116 0 c-101 1 -128 4 -195 28 -42 15 -82 27 -87 27 -6 0 -19 -14 -30 -32z" id="87"/>
<path d="M3430 2941 c0 -16 -109 -129 -147 -153 -20 -12 -64 -32 -97 -44 -57 -20 -59 -22 -37 -34 34 -17 136 4 365 75 72 23 91 33 106 58 18 29 35 95 27 103 -2 3 -30 -2 -61 -10 -51 -14 -63 -14 -99 -1 -50 17 -57 18 -57 6z" id="88"/>
<path d="M2235 2880 c-76 -23 -226 -26 -284 -5 -39 13 -42 13 -37 -3 3 -9 10 -37 16 -62 16 -61 42 -110 77 -142 l29 -28 103 35 c57 19 130 40 163 46 48 10 58 15 54 28 -3 9 -16 46 -28 83 -13 37 -25 67 -28 67 -3 -1 -32 -9 -65 -19z" id="89"/>
<path d="M1805 2845 c-48 -16 -206 -19 -254 -5 -19 5 -36 8 -37 7 -2 -2 4 -26 12 -54 17 -57 41 -77 174 -145 61 -31 71 -33 167 -33 56 0 105 3 108 7 3 3 -5 18 -19 33 -16 17 -37 63 -53 116 -28 97 -28 97 -98 74z" id="90"/>
<path d="M7970 2845 c-24 -13 -73 -26 -300 -75 -175 -38 -248 -88 -351 -242 -33 -48 -78 -111 -102 -140 -37 -46 -45 -62 -50 -113 -6 -60 -20 -114 -96 -390 -80 -285 -166 -557 -236 -743 -25 -64 -43 -117 -42 -119 2 -1 57 15 122 36 304 96 458 214 574 441 79 153 102 214 226 605 78 243 165 478 236 636 28 61 49 113 47 114 -2 2 -14 -3 -28 -10z m-292 -134 c3 -8 -1 -12 -9 -9 -7 2 -15 10 -17 17 -3 8 1 12 9 9 7 -2 15 -10 17 -17z m124 -51 c-3 -34 -31 -55 -49 -37 -22 21 0 69 30 65 17 -2 21 -9 19 -28z m-397 -140 c-3 -5 -10 -10 -16 -10 -5 0 -9 5 -9 10 0 6 7 10 16 10 8 0 12 -4 9 -10z m319 -121 c-3 -5 -10 -7 -15 -3 -5 3 -7 10 -3 15 3 5 10 7 15 3 5 -3 7 -10 3 -15z m-196 -25 c4 -39 -32 -86 -62 -82 -18 3 -21 9 -20 47 1 48 23 74 59 69 14 -2 21 -12 23 -34z m58 -115 c10 -17 -13 -36 -27 -22 -12 12 -4 33 11 33 5 0 12 -5 16 -11z m-322 -90 c-3 -5 -10 -7 -15 -3 -5 3 -7 10 -3 15 3 5 10 7 15 3 5 -3 7 -10 3 -15z m256 -25 c0 -8 -4 -12 -10 -9 -5 3 -10 10 -10 16 0 5 5 9 10 9 6 0 10 -7 10 -16z m110 -49 c0 -8 -7 -15 -15 -15 -8 0 -15 7 -15 15 0 8 7 15 15 15 8 0 15 -7 15 -15z m-392 -97 c-6 -18 -28 -21 -28 -4 0 9 7 16 16 16 9 0 14 -5 12 -12z m132 -63 c0 -18 -37 -48 -49 -40 -16 9 -13 36 6 57 12 14 19 15 30 7 7 -6 13 -17 13 -24z m130 -130 c0 -8 -4 -15 -10 -15 -5 0 -10 7 -10 15 0 8 5 15 10 15 6 0 10 -7 10 -15z m-272 -38 c4 -31 -32 -97 -53 -97 -21 0 -28 36 -14 78 16 51 18 54 42 50 16 -2 23 -11 25 -31z m92 18 c0 -8 -6 -15 -14 -15 -17 0 -28 14 -19 24 12 12 33 6 33 -9z m110 -15 c0 -5 -4 -10 -9 -10 -6 0 -13 5 -16 10 -3 6 1 10 9 10 9 0 16 -4 16 -10z m26 -41 c10 -17 -13 -36 -27 -22 -12 12 -4 33 11 33 5 0 12 -5 16 -11z m-70 -116 c-10 -10 -19 5 -10 18 6 11 8 11 12 0 2 -7 1 -15 -2 -18z m82 -51 c2 -7 -3 -12 -12 -12 -9 0 -16 7 -16 16 0 17 22 14 28 -4z m-394 -295 c8 -13 6 -22 -11 -38 -11 -12 -26 -18 -32 -15 -15 9 -14 49 1 64 15 15 28 11 42 -11z" id="91"/>
<path d="M7476 2368 c-30 -43 -11 -81 20 -40 15 20 18 62 5 62 -6 0 -17 -10 -25 -22z" id="92"/>
<path d="M7182 1755 c-7 -14 -12 -32 -12 -40 0 -25 17 -16 30 16 16 39 -1 62 -18 24z" id="93"/>
<path d="M530 2748 c0 -8 8 -37 17 -64 21 -61 97 -138 174 -176 48 -23 185 -55 195 -45 2 1 -33 27 -77 55 -74 50 -168 122 -266 207 -26 22 -43 31 -43 23z" id="94"/>
<path d="M2958 2716 c-10 -7 -18 -16 -18 -20 0 -3 37 -6 82 -6 71 0 80 2 68 14 -22 21 -111 29 -132 12z" id="95"/>
<path d="M7093 2282 c-38 -21 -43 -27 -43 -60 0 -62 -19 -163 -45 -240 -14 -40 -25 -80 -25 -89 0 -9 -40 -136 -89 -282 -49 -146 -115 -345 -146 -441 -32 -96 -62 -183 -67 -193 -15 -28 -5 -29 34 -2 31 21 43 42 79 132 117 299 356 1112 347 1178 -3 20 -3 20 -45 -3z" id="96"/>
<path d="M5003 2290 c-260 -26 -491 -84 -835 -210 -178 -66 -174 -73 42 -74 135 0 150 2 220 28 101 37 290 92 370 107 95 18 252 14 442 -10 323 -41 419 -23 647 119 l65 40 -140 0 c-76 0 -269 2 -429 4 -159 3 -331 1 -382 -4z" id="97"/>
<path d="M550 2278 c0 -2 11 -37 25 -77 14 -40 37 -116 50 -169 64 -253 159 -562 202 -652 50 -106 159 -212 274 -269 74 -36 272 -91 285 -78 2 2 -7 31 -20 65 -29 73 -58 175 -87 297 -41 179 -178 655 -200 697 -5 10 -15 18 -21 18 -5 0 -8 9 -5 20 3 11 2 22 -3 25 -4 2 -76 16 -161 31 -149 25 -301 65 -326 86 -7 6 -13 8 -13 6z m153 -160 c4 -12 4 -24 2 -26 -6 -6 -35 25 -35 37 0 20 28 11 33 -11z m187 -9 c0 -5 -4 -9 -10 -9 -5 0 -10 7 -10 16 0 8 5 12 10 9 6 -3 10 -10 10 -16z m174 -115 c4 -9 4 -25 0 -36 -4 -15 -9 -17 -20 -7 -21 18 -17 59 7 59 4 0 10 -7 13 -16z m-286 -84 c5 -34 -7 -70 -23 -70 -16 0 -45 49 -45 78 0 10 5 23 12 30 16 16 52 -7 56 -38z m198 -131 c10 -17 -13 -36 -27 -22 -12 12 -4 33 11 33 5 0 12 -5 16 -11z m-176 -9 c12 -8 11 -10 -7 -10 -13 0 -23 5 -23 10 0 13 11 13 30 0z m85 -15 c0 -11 -7 -21 -16 -23 -18 -3 -33 23 -23 39 10 17 39 5 39 -16z m310 -175 c33 -36 -4 -100 -40 -70 -24 20 -17 90 10 90 6 0 20 -9 30 -20z m-155 -35 c0 -8 -4 -15 -10 -15 -5 0 -10 7 -10 15 0 8 5 15 10 15 6 0 10 -7 10 -15z m-120 -15 c0 -21 -15 -27 -25 -10 -7 12 2 30 16 30 5 0 9 -9 9 -20z m130 -96 c0 -13 -9 -28 -20 -34 -17 -9 -22 -7 -29 12 -9 25 -4 49 13 60 15 10 36 -11 36 -38z m186 35 c3 -6 2 -15 -2 -19 -12 -12 -38 5 -30 19 9 14 23 14 32 0z m-96 -270 c0 -24 -23 -21 -28 4 -2 10 3 17 12 17 10 0 16 -9 16 -21z m60 6 c0 -8 -4 -15 -10 -15 -5 0 -10 7 -10 15 0 8 5 15 10 15 6 0 10 -7 10 -15z m90 -70 c0 -8 -7 -15 -15 -15 -16 0 -20 12 -8 23 11 12 23 8 23 -8z" id="98"/>
<path d="M730 1917 c0 -23 11 -47 22 -47 14 0 5 53 -9 58 -7 2 -13 -3 -13 -11z" id="99"/>
<path d="M1160 1550 c0 -11 5 -20 10 -20 6 0 10 9 10 20 0 11 -4 20 -10 20 -5 0 -10 -9 -10 -20z" id="100"/>
<path d="M1010 1441 c0 -6 5 -13 10 -16 6 -3 10 1 10 9 0 9 -4 16 -10 16 -5 0 -10 -4 -10 -9z" id="101"/>
<path d="M6410 2234 c-30 -8 -110 -41 -176 -74 l-122 -59 -5 -83 c-8 -146 -37 -378 -73 -578 -37 -211 -71 -377 -81 -393 -3 -5 1 -13 8 -18 12 -7 11 -10 -3 -21 -9 -8 -27 -60 -43 -128 -15 -63 -38 -152 -51 -198 -14 -47 -23 -85 -22 -86 10 -5 149 -40 233 -58 l100 -22 71 22 c92 28 148 77 267 237 110 147 147 224 233 491 37 115 91 276 121 359 88 243 182 644 146 622 -31 -20 -147 -24 -264 -11 -155 17 -268 16 -339 -2z m401 -161 c3 -50 -11 -83 -37 -83 -19 0 -29 47 -15 76 12 28 50 33 52 7z m92 -10 c9 -9 -13 -34 -24 -27 -14 8 -11 34 4 34 8 0 17 -3 20 -7z m-428 -43 c0 -22 -29 -18 -33 3 -3 14 1 18 15 15 10 -2 18 -10 18 -18z m-215 -16 c0 -8 -7 -14 -15 -14 -15 0 -21 21 -9 33 10 9 24 -2 24 -19z m514 -123 c9 -14 -4 -41 -20 -41 -8 0 -14 8 -14 18 0 29 22 43 34 23z m-251 -16 c1 -5 -6 -11 -15 -13 -11 -2 -18 3 -18 13 0 17 30 18 33 0z m-317 -62 c-10 -10 -19 5 -10 18 6 11 8 11 12 0 2 -7 1 -15 -2 -18z m62 -101 c4 -40 -21 -82 -47 -82 -25 0 -32 23 -19 62 23 68 61 79 66 20z m-148 -27 c0 -8 -6 -15 -14 -15 -17 0 -28 14 -19 24 12 12 33 6 33 -9z m290 -70 c0 -8 -4 -15 -10 -15 -5 0 -10 7 -10 15 0 8 5 15 10 15 6 0 10 -7 10 -15z m120 -6 c0 -5 -4 -9 -10 -9 -5 0 -10 7 -10 16 0 8 5 12 10 9 6 -3 10 -10 10 -16z m-40 -64 c0 -8 -4 -15 -10 -15 -5 0 -10 7 -10 15 0 8 5 15 10 15 6 0 10 -7 10 -15z m-75 -36 c-8 -12 -45 -12 -45 0 0 10 30 20 43 14 4 -3 5 -9 2 -14z m316 -14 c-1 -15 -24 -12 -29 3 -3 9 2 13 12 10 10 -1 17 -7 17 -13z m-551 -85 c0 -5 -7 -10 -15 -10 -8 0 -15 5 -15 10 0 6 7 10 15 10 8 0 15 -4 15 -10z m376 -1 c10 -17 -13 -36 -27 -22 -12 12 -4 33 11 33 5 0 12 -5 16 -11z m-396 -65 c0 -8 -4 -12 -10 -9 -5 3 -10 10 -10 16 0 5 5 9 10 9 6 0 10 -7 10 -16z m80 -9 c0 -8 -7 -15 -15 -15 -8 0 -15 7 -15 15 0 8 7 15 15 15 8 0 15 -7 15 -15z m300 -15 c10 -38 -3 -75 -26 -75 -27 0 -47 46 -34 80 13 34 51 31 60 -5z m78 -102 c16 -16 15 -53 -2 -67 -11 -10 -17 -7 -30 10 -8 12 -14 25 -12 28 2 3 6 14 9 24 7 20 18 22 35 5z m-438 -53 c19 -23 -5 -78 -52 -120 -35 -33 -42 -35 -55 -22 -30 30 32 157 77 157 10 0 23 -7 30 -15z m80 -190 c0 -8 -6 -15 -14 -15 -17 0 -28 14 -19 24 12 12 33 6 33 -9z m305 -75 c-5 -8 -11 -8 -17 -2 -6 6 -7 16 -3 22 5 8 11 8 17 2 6 -6 7 -16 3 -22z m-420 -90 c-3 -5 -10 -10 -16 -10 -5 0 -9 5 -9 10 0 6 7 10 16 10 8 0 12 -4 9 -10z m-73 -25 c15 -34 0 -80 -27 -80 -16 0 -21 8 -23 39 -2 21 -1 44 2 52 9 23 35 16 48 -11z" id="102"/>
<path d="M6777 2063 c-10 -10 -8 -53 2 -53 8 0 20 32 21 53 0 9 -14 9 -23 0z" id="103"/>
<path d="M6226 1694 c-3 -9 -6 -25 -6 -37 1 -22 1 -22 15 -3 17 22 20 56 6 56 -5 0 -12 -7 -15 -16z" id="104"/>
<path d="M6500 1296 c0 -14 5 -28 10 -31 6 -4 10 7 10 24 0 17 -4 31 -10 31 -5 0 -10 -11 -10 -24z" id="105"/>
<path d="M6122 1117 c-12 -13 -25 -38 -28 -57 l-7 -35 22 20 c13 11 29 32 37 47 26 51 13 64 -24 25z" id="106"/>
<path d="M6042 745 c0 -16 2 -22 5 -12 2 9 2 23 0 30 -3 6 -5 -1 -5 -18z" id="107"/>
<path d="M1127 2073 c14 -38 64 -221 113 -408 101 -389 135 -504 175 -593 24 -54 34 -65 73 -82 25 -11 46 -19 47 -18 2 2 -28 85 -66 185 -68 180 -179 538 -224 723 -12 52 -33 127 -45 167 -19 63 -25 73 -52 82 -17 6 -34 11 -38 11 -4 0 4 -30 17 -67z" id="108"/>
<path d="M1246 2023 c14 -43 33 -116 43 -163 56 -260 131 -503 246 -797 43 -111 51 -124 89 -149 22 -15 93 -66 156 -114 306 -230 377 -257 636 -244 l132 7 -36 61 c-98 167 -226 465 -455 1061 l-73 190 -112 7 c-176 11 -265 38 -516 157 -71 34 -130 61 -132 61 -1 0 9 -35 22 -77z m100 -90 c-10 -10 -19 5 -10 18 6 11 8 11 12 0 2 -7 1 -15 -2 -18z m634 -123 c0 -5 -7 -10 -15 -10 -8 0 -15 5 -15 10 0 6 7 10 15 10 8 0 15 -4 15 -10z m-92 -62 c15 -15 16 -74 2 -83 -27 -17 -61 55 -39 81 14 17 21 18 37 2z m-468 -73 c0 -8 -4 -15 -10 -15 -5 0 -10 7 -10 15 0 8 5 15 10 15 6 0 10 -7 10 -15z m601 2 c-1 -12 -15 -9 -19 4 -3 6 1 10 8 8 6 -3 11 -8 11 -12z m-537 -28 c-3 -5 -10 -7 -15 -3 -5 3 -7 10 -3 15 3 5 10 7 15 3 5 -3 7 -10 3 -15z m112 -38 c-11 -18 -36 -13 -36 7 0 10 3 22 7 26 10 10 37 -20 29 -33z m-136 -39 c0 -13 -12 -22 -22 -16 -10 6 -1 24 13 24 5 0 9 -4 9 -8z m30 -37 c0 -8 -4 -15 -10 -15 -5 0 -10 7 -10 15 0 8 5 15 10 15 6 0 10 -7 10 -15z m520 -95 c0 -5 -7 -10 -15 -10 -8 0 -15 5 -15 10 0 6 7 10 15 10 8 0 15 -4 15 -10z m-414 -116 c9 -34 -8 -50 -30 -29 -12 12 -13 21 -6 36 15 26 28 24 36 -7z m184 -64 c0 -5 -4 -10 -9 -10 -6 0 -13 5 -16 10 -3 6 1 10 9 10 9 0 16 -4 16 -10z m263 -104 c8 -20 -20 -43 -35 -28 -14 14 -3 42 16 42 7 0 16 -6 19 -14z m-373 -36 c20 -39 28 -110 12 -110 -28 0 -87 105 -76 134 11 30 43 18 64 -24z m490 10 c0 -5 -7 -10 -15 -10 -8 0 -15 5 -15 10 0 6 7 10 15 10 8 0 15 -4 15 -10z m-290 -21 c0 -5 -4 -9 -10 -9 -5 0 -10 7 -10 16 0 8 5 12 10 9 6 -3 10 -10 10 -16z m291 -143 c15 -32 -1 -81 -26 -81 -26 0 -39 27 -31 68 8 44 40 51 57 13z m-101 -91 c0 -8 -4 -15 -10 -15 -5 0 -10 7 -10 15 0 8 5 15 10 15 6 0 10 -7 10 -15z m-210 -5 c8 -5 11 -12 8 -16 -10 -9 -38 3 -38 16 0 12 10 13 30 0z m270 -120 c0 -5 -7 -10 -15 -10 -8 0 -15 5 -15 10 0 6 7 10 15 10 8 0 15 -4 15 -10z" id="109"/>
<path d="M1860 1727 c0 -23 11 -47 22 -47 14 0 5 53 -9 58 -7 2 -13 -3 -13 -11z" id="110"/>
<path d="M1630 1121 c0 -17 30 -74 36 -68 8 8 -7 56 -22 68 -11 9 -14 9 -14 0z" id="111"/>
<path d="M2127 953 c-11 -10 -8 -43 3 -43 6 0 10 11 10 25 0 26 -2 29 -13 18z" id="112"/>
<path d="M6030 2047 l-55 -33 -7 -105 c-3 -57 -15 -160 -27 -229 -11 -69 -32 -228 -46 -355 -14 -126 -37 -281 -51 -343 -25 -113 -91 -318 -121 -375 -14 -28 -14 -29 2 -23 9 3 30 6 46 6 22 0 32 7 44 30 15 30 123 450 145 565 55 292 74 412 101 619 16 131 29 247 27 257 -3 17 -8 16 -58 -14z" id="113"/>
<path d="M5845 1939 c-206 -111 -332 -128 -560 -75 -110 25 -299 55 -352 56 -22 0 -23 -3 -23 -99 0 -93 -27 -380 -50 -544 -22 -149 -95 -437 -184 -728 l-33 -106 71 -6 c39 -4 139 -21 221 -38 232 -48 310 -43 455 31 263 134 271 140 308 208 84 154 150 442 187 812 4 36 13 106 20 155 17 111 38 346 34 367 -3 12 -23 5 -94 -33z m-747 -191 c18 -18 14 -63 -7 -89 -16 -20 -21 -21 -35 -10 -20 17 -21 75 0 95 19 19 26 20 42 4z m198 -59 c10 -17 -13 -36 -27 -22 -12 12 -4 33 11 33 5 0 12 -5 16 -11z m414 -4 c18 -22 6 -93 -20 -119 -21 -21 -21 -21 -36 -1 -11 14 -13 32 -8 60 11 68 37 92 64 60z m-150 -130 c0 -8 -4 -15 -10 -15 -5 0 -10 7 -10 15 0 8 5 15 10 15 6 0 10 -7 10 -15z m-275 -95 c0 -22 -39 -19 -43 3 -3 15 1 18 20 15 12 -2 23 -10 23 -18z m365 -65 c0 -8 -4 -15 -10 -15 -5 0 -10 7 -10 15 0 8 5 15 10 15 6 0 10 -7 10 -15z m140 -20 c0 -8 -4 -15 -10 -15 -5 0 -10 7 -10 15 0 8 5 15 10 15 6 0 10 -7 10 -15z m-645 -29 c17 -12 18 -18 7 -54 -23 -76 -82 -124 -110 -89 -21 25 11 114 50 141 27 19 29 19 53 2z m349 -12 c21 -21 20 -67 -1 -93 -16 -19 -20 -20 -36 -8 -23 16 -27 78 -8 101 17 20 26 20 45 0z m170 -35 c-3 -5 -10 -7 -15 -3 -5 3 -7 10 -3 15 3 5 10 7 15 3 5 -3 7 -10 3 -15z m-354 -59 c0 -5 -7 -10 -16 -10 -8 0 -12 5 -9 10 3 6 10 10 16 10 5 0 9 -4 9 -10z m270 -60 c0 -5 -4 -10 -9 -10 -6 0 -13 5 -16 10 -3 6 1 10 9 10 9 0 16 -4 16 -10z m-353 -46 c-9 -9 -28 6 -21 18 4 6 10 6 17 -1 6 -6 8 -13 4 -17z m77 -45 c-8 -14 -34 -11 -34 4 0 8 3 17 7 20 9 9 34 -13 27 -24z m-197 -5 c9 -23 -11 -38 -26 -20 -13 16 -7 36 10 36 5 0 12 -7 16 -16z m61 -101 c-4 -22 -22 -20 -26 1 -2 10 3 16 13 16 10 0 15 -7 13 -17z m399 -29 c13 -33 -71 -161 -100 -152 -19 7 -20 52 -2 94 10 25 12 40 5 42 -5 2 -10 8 -10 14 0 7 4 7 13 0 8 -7 18 -6 31 4 26 18 55 18 63 -2z m-256 -9 c-1 -15 -24 -12 -29 3 -3 9 2 13 12 10 10 -1 17 -7 17 -13z m319 -155 c0 -11 -6 -20 -13 -20 -19 0 -27 10 -20 26 8 21 33 17 33 -6z m-730 -4 c0 -8 -4 -17 -9 -21 -12 -7 -24 12 -16 25 9 15 25 12 25 -4z m200 -22 c0 -8 -4 -12 -10 -9 -5 3 -10 10 -10 16 0 5 5 9 10 9 6 0 10 -7 10 -16z m331 -47 c-1 -12 -15 -9 -19 4 -3 6 1 10 8 8 6 -3 11 -8 11 -12z m-541 -107 c0 -55 -31 -66 -50 -20 -10 25 -10 36 0 58 l12 27 19 -24 c10 -13 19 -31 19 -41z m230 35 c0 -17 -9 -29 -29 -40 -37 -18 -48 -6 -31 36 16 39 60 42 60 4z m162 -30 c0 -5 -5 -11 -11 -13 -6 -2 -11 4 -11 13 0 9 5 15 11 13 6 -2 11 -8 11 -13z m113 -34 c7 -12 -12 -24 -25 -16 -11 7 -4 25 10 25 5 0 11 -4 15 -9z m-609 -28 c-10 -10 -19 5 -10 18 6 11 8 11 12 0 2 -7 1 -15 -2 -18z m193 -7 c8 -10 8 -16 -2 -24 -15 -13 -37 2 -37 25 0 17 25 17 39 -1z" id="114"/>
<path d="M5065 1720 c-9 -14 4 -52 16 -45 12 8 12 55 0 55 -6 0 -13 -5 -16 -10z" id="115"/>
<path d="M5670 1635 c-8 -25 -9 -40 -2 -47 7 -7 14 2 21 28 14 51 -3 68 -19 19z" id="116"/>
<path d="M5085 1293 c-29 -43 -34 -86 -10 -76 9 3 25 23 35 44 37 72 19 95 -25 32z" id="117"/>
<path d="M5460 1284 c0 -45 24 -42 28 4 2 24 -1 32 -12 32 -12 0 -16 -10 -16 -36z" id="118"/>
<path d="M5518 933 c-15 -17 -48 -84 -48 -98 0 -3 4 -5 9 -5 16 0 63 78 59 100 -3 22 -3 22 -20 3z" id="119"/>
<path d="M4805 1911 c-35 -5 -40 -9 -37 -31 2 -14 -2 -61 -8 -105 -5 -44 -15 -149 -20 -234 -6 -85 -20 -215 -31 -290 -11 -75 -27 -179 -34 -231 -26 -177 -96 -451 -145 -564 -11 -26 -20 -49 -20 -50 0 -3 91 25 97 29 2 1 32 98 68 215 68 223 112 389 139 525 20 102 66 568 66 668 0 85 5 80 -75 68z" id="120"/>
<path d="M4630 1875 c-47 -13 -106 -32 -131 -43 -104 -45 -259 -59 -424 -38 -176 23 -595 19 -620 -6 -3 -3 3 -43 14 -89 10 -46 24 -118 30 -160 25 -164 102 -479 184 -761 29 -95 100 -274 146 -365 26 -51 35 -60 77 -76 186 -69 333 -64 497 19 54 28 75 57 117 166 90 231 155 606 195 1110 17 222 18 268 8 267 -5 0 -46 -11 -93 -24z m-632 -196 c3 -30 -29 -76 -46 -65 -15 9 -15 38 0 71 15 32 42 29 46 -6z m432 11 c0 -5 -7 -10 -15 -10 -8 0 -15 5 -15 10 0 6 7 10 15 10 8 0 15 -4 15 -10z m-746 -31 c-3 -5 -10 -7 -15 -3 -5 3 -7 10 -3 15 3 5 10 7 15 3 5 -3 7 -10 3 -15z m349 -64 c6 -14 -19 -55 -33 -55 -20 0 -29 37 -14 58 15 22 39 20 47 -3z m108 2 c-13 -13 -26 -3 -16 12 3 6 11 8 17 5 6 -4 6 -10 -1 -17z m297 -25 c-4 -35 -25 -39 -39 -8 -9 20 -9 29 1 41 18 21 42 0 38 -33z m53 25 c-1 -12 -15 -9 -19 4 -3 6 1 10 8 8 6 -3 11 -8 11 -12z m-681 -12 c0 -8 -4 -15 -10 -15 -5 0 -10 7 -10 15 0 8 5 15 10 15 6 0 10 -7 10 -15z m300 -95 c0 -5 -7 -10 -15 -10 -8 0 -15 5 -15 10 0 6 7 10 15 10 8 0 15 -4 15 -10z m-143 -66 c-9 -9 -28 6 -21 18 4 6 10 6 17 -1 6 -6 8 -13 4 -17z m-207 -9 c0 -8 -4 -15 -10 -15 -5 0 -10 7 -10 15 0 8 5 15 10 15 6 0 10 -7 10 -15z m118 -125 c3 -41 -18 -76 -41 -67 -41 15 -26 111 16 105 17 -2 23 -10 25 -38z m600 -22 c27 -27 1 -138 -33 -138 -35 0 -40 76 -9 128 16 25 25 27 42 10z m-408 -13 c0 -8 -6 -15 -14 -15 -17 0 -28 14 -19 24 12 12 33 6 33 -9z m106 -142 c-10 -10 -19 5 -10 18 6 11 8 11 12 0 2 -7 1 -15 -2 -18z m-98 -106 c2 -10 -3 -17 -12 -17 -18 0 -29 16 -21 31 9 14 29 6 33 -14z m347 -37 c-3 -5 -10 -10 -16 -10 -5 0 -9 5 -9 10 0 6 7 10 16 10 8 0 12 -4 9 -10z m135 -20 c0 -11 -4 -20 -10 -20 -5 0 -10 9 -10 20 0 11 5 20 10 20 6 0 10 -9 10 -20z m-633 -36 c9 -25 -15 -92 -47 -127 -24 -26 -32 -30 -47 -21 -35 22 -29 83 13 133 28 34 71 42 81 15z m347 -10 c16 -42 -2 -104 -30 -104 -23 0 -44 58 -32 92 11 31 51 40 62 12z m76 -143 c0 -6 -4 -13 -10 -16 -5 -3 -10 1 -10 9 0 9 5 16 10 16 6 0 10 -4 10 -9z m-36 -34 c8 -12 7 -21 -6 -33 -20 -20 -38 -11 -38 20 0 39 23 46 44 13z m-163 -20 c-13 -13 -26 -3 -16 12 3 6 11 8 17 5 6 -4 6 -10 -1 -17z m-321 -82 c16 -19 3 -40 -16 -24 -15 13 -19 39 -5 39 5 0 14 -7 21 -15z m406 -16 c3 -6 1 -16 -5 -22 -9 -9 -14 -8 -21 3 -9 15 -4 30 10 30 5 0 12 -5 16 -11z m-205 -20 c24 -24 22 -52 -4 -57 -24 -5 -47 16 -47 43 0 40 19 46 51 14z m399 -103 c0 -18 -16 -29 -30 -21 -13 8 -1 35 16 35 8 0 14 -6 14 -14z m-300 -52 c0 -8 -4 -12 -10 -9 -5 3 -10 10 -10 16 0 5 5 9 10 9 6 0 10 -7 10 -16z m-110 -15 c0 -5 -4 -9 -10 -9 -5 0 -10 7 -10 16 0 8 5 12 10 9 6 -3 10 -10 10 -16z m196 -66 c-10 -10 -19 5 -10 18 6 11 8 11 12 0 2 -7 1 -15 -2 -18z m-86 -18 c0 -8 -4 -15 -10 -15 -5 0 -10 7 -10 15 0 8 5 15 10 15 6 0 10 -7 10 -15z" id="121"/>
<path d="M3837 1296 c-8 -19 3 -57 14 -50 12 7 12 64 0 64 -5 0 -11 -6 -14 -14z" id="122"/>
<path d="M4444 1216 c-8 -48 1 -68 15 -33 14 35 14 67 1 67 -5 0 -12 -16 -16 -34z" id="123"/>
<path d="M3855 863 c-27 -40 -33 -77 -12 -71 17 6 57 68 57 89 0 30 -17 22 -45 -18z" id="124"/>
<path d="M4234 886 c-8 -22 4 -68 16 -61 13 8 13 62 0 70 -6 3 -13 -1 -16 -9z" id="125"/>
<path d="M4000 576 c0 -8 5 -18 10 -21 6 -3 10 1 10 9 0 8 -4 18 -10 21 -5 3 -10 -1 -10 -9z" id="126"/>
<path d="M2020 1881 c0 -6 20 -59 44 -118 24 -59 60 -155 79 -213 82 -247 210 -550 354 -831 78 -154 86 -167 114 -171 28 -4 30 -3 24 19 -3 13 -39 102 -80 199 -91 215 -148 369 -215 584 -29 91 -66 197 -83 235 -17 39 -49 122 -71 185 l-41 115 -62 3 c-38 2 -63 -1 -63 -7z" id="127"/>
<path d="M2190 1876 c0 -7 16 -58 36 -112 20 -55 85 -245 145 -424 95 -281 180 -502 287 -747 17 -39 35 -65 47 -69 43 -13 141 -67 227 -125 147 -99 200 -122 296 -127 91 -5 145 10 273 74 37 18 98 39 135 45 38 7 71 14 72 15 2 1 -12 38 -31 81 -19 43 -47 112 -62 153 -33 94 -155 517 -155 539 0 9 -35 142 -79 296 -68 242 -81 280 -97 279 -11 -1 -67 -9 -125 -18 -134 -20 -268 -21 -366 0 -41 8 -150 40 -242 70 -225 75 -361 101 -361 70z m100 -87 c0 -5 -7 -9 -15 -9 -15 0 -20 12 -9 23 8 8 24 -1 24 -14z m160 -104 c0 -8 -7 -15 -15 -15 -16 0 -20 12 -8 23 11 12 23 8 23 -8z m130 -36 c13 -24 5 -73 -16 -90 -36 -29 -63 61 -28 95 21 21 31 20 44 -5z m196 -50 c10 -17 -13 -36 -27 -22 -12 12 -4 33 11 33 5 0 12 -5 16 -11z m417 -10 c13 -21 1 -82 -23 -111 -20 -23 -20 -23 -35 -4 -19 25 -19 57 0 102 15 38 39 43 58 13z m-287 -36 c-10 -10 -19 5 -10 18 6 11 8 11 12 0 2 -7 1 -15 -2 -18z m-146 -184 c0 -25 -33 -22 -38 4 -2 12 3 17 17 17 15 0 21 -6 21 -21z m98 -22 c2 -10 1 -26 -3 -35 -6 -15 -9 -14 -25 6 -11 13 -16 30 -13 38 7 20 37 13 41 -9z m272 -42 c0 -8 -4 -15 -10 -15 -5 0 -10 7 -10 15 0 8 5 15 10 15 6 0 10 -7 10 -15z m140 -20 c0 -8 -7 -15 -15 -15 -16 0 -20 12 -8 23 11 12 23 8 23 -8z m-646 -31 c19 -18 19 -13 5 -55 -18 -53 -57 -99 -83 -99 -29 0 -37 18 -29 65 6 36 59 105 81 105 6 0 18 -7 26 -16z m350 -10 c22 -21 20 -67 -3 -95 -16 -20 -21 -21 -34 -10 -25 20 -31 68 -13 96 19 29 29 31 50 9z m347 -7 c-1 -12 -15 -9 -19 4 -3 6 1 10 8 8 6 -3 11 -8 11 -12z m-177 -28 c-3 -5 -10 -7 -15 -3 -5 3 -7 10 -3 15 3 5 10 7 15 3 5 -3 7 -10 3 -15z m-694 -15 c0 -8 -4 -12 -10 -9 -5 3 -10 10 -10 16 0 5 5 9 10 9 6 0 10 -7 10 -16z m550 -132 c0 -13 -12 -22 -22 -16 -10 6 -1 24 13 24 5 0 9 -4 9 -8z m-310 -48 c0 -8 -4 -12 -10 -9 -5 3 -10 10 -10 16 0 5 5 9 10 9 6 0 10 -7 10 -16z m588 -26 c-6 -18 -28 -21 -28 -4 0 9 7 16 16 16 9 0 14 -5 12 -12z m160 -96 c6 -18 -15 -14 -22 4 -4 10 -1 14 6 12 6 -2 14 -10 16 -16z m-645 -56 c6 -18 5 -31 -4 -42 -10 -13 -15 -12 -35 7 -30 28 -39 56 -23 75 10 12 15 13 32 1 12 -8 25 -26 30 -41z m187 -21 c0 -8 -4 -15 -10 -15 -5 0 -10 7 -10 15 0 8 5 15 10 15 6 0 10 -7 10 -15z m290 -15 c14 -26 6 -51 -25 -80 -20 -19 -27 -21 -40 -10 -18 15 -19 43 -4 73 22 41 52 49 69 17z m67 -166 c8 -21 -23 -52 -38 -37 -14 14 -2 53 17 53 8 0 17 -7 21 -16z m213 -59 c0 -8 -4 -15 -9 -15 -13 0 -22 16 -14 24 11 11 23 6 23 -9z m-520 -31 c0 -8 -4 -12 -10 -9 -5 3 -10 10 -10 16 0 5 5 9 10 9 6 0 10 -7 10 -16z m241 -7 c-1 -12 -15 -9 -19 4 -3 6 1 10 8 8 6 -3 11 -8 11 -12z m149 -15 c0 -13 -12 -22 -22 -16 -10 6 -1 24 13 24 5 0 9 -4 9 -8z" id="128"/>
<path d="M2545 1630 c-3 -6 -3 -20 0 -31 6 -17 9 -19 16 -8 12 19 11 49 0 49 -6 0 -13 -5 -16 -10z" id="129"/>
<path d="M3152 1557 c-15 -34 -16 -67 -2 -67 13 0 23 41 18 71 -4 24 -5 24 -16 -4z" id="130"/>
<path d="M2578 1223 c-23 -27 -38 -59 -38 -82 0 -30 23 -17 48 28 33 59 26 95 -10 54z" id="131"/>
<path d="M2940 1195 c0 -25 4 -35 13 -32 6 2 12 16 12 32 0 16 -6 30 -12 33 -9 2 -13 -8 -13 -33z" id="132"/>
<path d="M2740 853 c1 -12 29 -47 34 -42 7 7 -13 49 -24 49 -5 0 -10 -3 -10 -7z" id="133"/>
<path d="M3227 783 c-4 -3 -7 -17 -7 -31 0 -21 2 -22 15 -12 8 7 15 21 15 31 0 19 -11 25 -23 12z" id="134"/>
<path d="M3358 1773 c-10 -2 -18 -8 -18 -13 0 -4 24 -99 54 -211 30 -112 75 -285 100 -384 79 -306 152 -526 233 -702 28 -61 38 -73 57 -73 24 0 24 2 -30 126 -103 240 -148 384 -219 714 -88 407 -116 533 -121 542 -5 8 -27 9 -56 1z" id="135"/>
</g>
</svg>