<?xml version="1.0" ?><!DOCTYPE svg  PUBLIC '-//W3C//DTD SVG 20010904//EN'  'http://www.w3.org/TR/2001/REC-SVG-20010904/DTD/svg10.dtd'><svg height="850.000000pt" preserveAspectRatio="xMidYMid meet" version="1.0" viewBox="0 0 850.000000 850.000000" width="850.000000pt" xmlns="http://www.w3.org/2000/svg">
<metadata>
Created by potrace 1.14, written by Peter Selinger 2001-2017
</metadata>
<g fill="#ffffff" stroke="none" transform="translate(0.000000,850.000000) scale(0.100000,-0.100000)">
<path d="M0 4250 l0 -4250 4250 0 4250 0 0 4250 0 4250 -4250 0 -4250 0 0 -4250z m2110 3530 c28 -39 58 -74 66 -77 8 -3 57 10 109 28 63 21 99 29 105 23 7 -7 35 -2 83 14 96 33 264 42 355 18 87 -22 206 -81 400 -196 41 -24 53 -40 31 -40 -6 0 -56 -18 -111 -40 -55 -23 -120 -43 -144 -47 -24 -3 -44 -9 -44 -13 0 -4 18 -12 40 -19 43 -13 48 -25 24 -56 -35 -46 -47 -206 -24 -310 6 -28 12 -76 12 -107 1 -54 3 -58 24 -58 86 0 156 78 157 175 1 40 -7 65 -41 128 -49 92 -54 137 -19 188 49 74 138 105 204 72 48 -24 75 -62 77 -109 1 -46 -17 -55 -34 -15 -13 33 -33 44 -61 36 -29 -10 -33 -48 -13 -127 34 -134 17 -262 -47 -355 -51 -74 -164 -107 -269 -79 l-55 14 -60 -35 c-33 -19 -67 -38 -74 -42 -13 -6 -35 -60 -28 -67 1 -2 23 2 47 7 160 38 345 -49 460 -215 39 -57 174 -335 167 -343 -3 -3 -36 3 -73 12 -52 13 -84 15 -133 9 -134 -16 -269 4 -369 56 -73 38 -113 73 -150 133 l-30 48 -11 -68 c-7 -37 -15 -102 -20 -144 -11 -98 -14 -103 -53 -83 -39 20 -85 15 -228 -26 -70 -20 -127 -30 -173 -30 l-67 0 31 -61 c102 -204 73 -407 -116 -807 -40 -84 -76 -154 -80 -155 -4 -1 -13 16 -20 38 -19 66 -43 103 -121 191 -159 179 -229 293 -265 432 -20 81 -24 173 -9 237 5 22 8 41 6 42 -2 2 -39 -30 -83 -71 -45 -41 -91 -77 -103 -81 -14 -4 -39 2 -74 19 -64 31 -72 32 -114 6 -51 -31 -72 -75 -72 -148 0 -57 3 -67 29 -93 44 -44 100 -39 127 12 11 22 12 34 4 49 -14 27 -26 25 -46 -5 -41 -63 -121 16 -84 85 15 28 71 43 118 31 50 -14 78 -45 93 -103 32 -118 -62 -216 -181 -189 -110 25 -177 119 -168 235 6 68 40 146 82 185 14 13 23 27 21 32 -8 13 -105 37 -177 44 -38 4 -68 10 -68 14 0 3 9 29 19 57 25 64 36 142 27 189 l-7 36 -43 -58 c-47 -65 -96 -107 -241 -210 -88 -62 -218 -181 -258 -237 -24 -32 -37 -9 -37 63 0 37 -9 116 -20 176 -34 187 -24 286 45 433 75 158 213 291 390 374 71 33 75 48 14 48 -47 0 -51 16 -15 63 13 18 54 92 91 165 66 132 176 308 241 388 32 40 59 56 116 68 15 4 35 20 47 39 31 51 61 60 192 61 l117 1 49 47 c80 74 154 105 337 137 59 11 111 22 114 25 8 9 7 10 62 -64z m4417 29 c107 -14 307 -82 395 -134 137 -81 236 -208 275 -356 10 -39 17 -106 17 -170 l1 -106 45 -47 c39 -40 50 -46 86 -46 22 0 63 -7 90 -15 44 -13 104 -20 104 -12 0 2 -7 28 -16 58 -39 132 -150 327 -243 429 -23 24 -41 47 -41 51 0 34 102 47 190 25 118 -30 233 -119 311 -239 73 -112 110 -256 88 -343 -12 -46 -12 -46 22 -72 62 -47 107 -100 138 -164 35 -70 82 -274 80 -342 -2 -33 5 -53 28 -87 89 -130 107 -210 78 -355 -12 -59 -15 -104 -10 -138 12 -91 13 -89 -30 -108 -73 -33 -90 -45 -86 -59 11 -36 12 -89 2 -107 -9 -17 -6 -26 14 -50 14 -17 37 -57 52 -89 24 -51 27 -70 27 -163 0 -119 -19 -187 -78 -275 -18 -28 -36 -61 -40 -73 -8 -25 -24 -29 -32 -8 -3 8 -24 27 -47 42 -63 41 -167 144 -188 186 -11 21 -24 38 -29 38 -12 0 -13 -17 -1 -24 15 -10 19 -56 8 -93 -13 -41 -80 -121 -113 -133 -21 -8 -22 -12 -12 -44 23 -73 -28 -156 -107 -174 -72 -16 -82 1 -34 55 37 43 34 57 -14 61 -69 6 -170 -57 -207 -127 -24 -46 -94 -113 -145 -139 -35 -17 -104 -35 -170 -45 -17 -2 -12 -11 35 -61 l54 -58 10 29 c37 115 168 180 525 262 192 45 288 83 368 149 29 23 55 42 58 42 9 0 5 -54 -19 -220 -28 -193 -50 -261 -112 -352 -117 -172 -268 -252 -501 -265 l-101 -6 2 -81 c2 -67 -1 -85 -16 -102 -13 -15 -21 -48 -28 -123 -11 -121 -32 -172 -88 -223 -47 -43 -92 -54 -156 -40 -52 11 -57 6 -106 -93 -22 -44 -33 -54 -95 -85 -48 -24 -92 -57 -136 -102 -83 -85 -105 -90 -214 -50 -44 16 -94 32 -110 35 l-30 6 3 -75 c7 -124 -51 -248 -167 -364 -72 -73 -148 -123 -296 -198 -66 -34 -141 -74 -167 -89 -26 -15 -50 -24 -54 -20 -5 4 -2 27 5 50 53 175 52 167 45 422 -5 204 -4 250 10 310 28 119 85 192 179 231 26 10 47 23 47 27 0 5 -19 31 -42 58 l-42 50 -30 -58 c-44 -82 -183 -218 -276 -270 -93 -52 -243 -103 -329 -112 l-64 -6 -74 -135 c-40 -74 -72 -137 -71 -141 2 -3 37 2 78 12 41 10 117 23 169 29 102 11 173 41 179 74 3 14 0 17 -18 11 -27 -8 -60 19 -60 49 0 74 128 126 179 72 45 -48 36 -147 -19 -210 -35 -39 -110 -74 -177 -82 -76 -9 -77 -10 -47 -49 18 -25 34 -35 53 -35 33 0 107 -46 143 -88 64 -76 95 -248 64 -355 -9 -31 -31 -73 -48 -92 -37 -43 -174 -155 -188 -155 -6 0 -19 -5 -30 -12 -29 -18 -33 -5 -16 46 9 26 16 77 16 114 0 71 -1 73 -82 200 -50 78 -65 138 -50 190 17 57 52 103 95 125 l39 20 -41 41 -40 40 -82 -12 c-45 -6 -102 -21 -125 -33 -61 -29 -140 -103 -175 -163 -32 -56 -36 -78 -16 -95 8 -6 19 -28 25 -50 l12 -39 88 19 c48 10 99 24 114 30 15 6 31 9 35 6 5 -3 6 -44 2 -91 -8 -103 -37 -160 -105 -207 l-46 -31 103 -46 c57 -25 123 -47 147 -50 23 -2 45 -8 48 -13 9 -15 -23 -64 -69 -107 -43 -38 -80 -54 -179 -76 -28 -6 -28 -7 -28 -84 0 -156 -44 -258 -192 -448 -173 -223 -230 -319 -275 -464 -15 -47 -33 -95 -41 -108 -33 -50 -99 -33 -182 48 -63 62 -98 133 -110 223 -11 89 -21 121 -70 222 -22 44 -47 109 -57 145 -23 89 -23 271 1 365 20 77 64 180 95 224 12 16 21 31 21 34 0 2 -21 10 -47 16 -64 16 -115 51 -151 104 -34 49 -69 154 -55 168 4 4 28 2 53 -7 25 -9 95 -22 155 -30 61 -8 123 -19 139 -24 26 -9 28 -8 23 13 -22 91 -12 168 34 258 28 55 99 131 160 169 50 33 69 33 69 0 0 -24 66 -170 77 -170 4 0 38 42 75 93 271 372 368 513 368 535 0 7 -14 12 -33 12 -18 0 -64 9 -102 21 -39 11 -89 26 -112 33 -56 16 -68 28 -54 54 6 12 29 80 51 152 22 71 51 155 65 185 51 116 143 229 234 287 l44 28 -94 -7 c-110 -7 -149 3 -212 51 l-42 32 -34 -57 c-58 -100 -143 -191 -231 -250 l-24 -16 32 -39 c38 -48 75 -128 99 -214 16 -57 18 -103 16 -359 -1 -184 -6 -298 -12 -304 -7 -7 -29 8 -69 49 -35 35 -103 85 -168 124 -217 129 -337 240 -386 357 -12 29 -26 53 -32 53 -6 -1 -31 -11 -55 -24 l-43 -23 71 -52 c127 -94 217 -211 269 -349 21 -55 26 -85 26 -167 1 -93 -1 -104 -29 -154 -48 -86 -132 -128 -206 -102 -32 11 -35 10 -71 -31 -51 -59 -113 -181 -128 -252 -24 -116 11 -243 102 -372 65 -92 82 -142 68 -196 -23 -82 -88 -126 -154 -103 -135 47 -177 245 -52 245 26 0 41 -7 60 -31 14 -17 26 -37 26 -45 0 -25 -20 -54 -36 -54 -12 0 -13 8 -9 34 6 30 3 37 -19 51 -21 14 -29 15 -41 5 -39 -33 0 -128 67 -165 44 -24 77 -12 109 37 33 54 22 100 -51 207 -139 204 -147 396 -23 578 25 37 51 82 59 99 12 29 11 33 -12 55 -78 73 -99 180 -51 262 35 60 91 84 142 63 74 -31 95 -125 40 -173 -35 -30 -61 -29 -69 2 -4 14 -13 25 -21 25 -20 0 -19 -9 4 -46 26 -43 99 -71 139 -55 93 38 70 185 -52 332 -89 108 -218 181 -344 195 -31 4 -79 15 -107 25 -27 11 -51 19 -53 19 -2 0 17 -24 42 -52 54 -62 128 -207 150 -294 58 -230 35 -529 -65 -842 -23 -70 -43 -155 -46 -189 -8 -91 -24 -97 -68 -26 -54 84 -113 142 -269 261 -258 197 -393 345 -481 526 -66 137 -89 229 -89 361 0 116 10 167 51 253 l25 52 -29 47 c-26 42 -35 49 -74 55 -24 4 -91 22 -147 39 -121 37 -171 36 -233 -5 -54 -36 -99 -108 -99 -159 0 -109 156 -208 238 -151 26 18 27 34 6 75 -14 28 -18 30 -54 24 -64 -11 -120 32 -120 91 0 30 50 64 96 64 58 0 92 -14 137 -58 56 -54 81 -107 81 -172 0 -67 -22 -110 -75 -139 -174 -98 -469 90 -471 301 -1 99 48 154 197 223 55 25 131 60 169 78 104 49 132 108 83 174 l-23 31 -33 -39 c-38 -47 -111 -90 -201 -121 -57 -20 -84 -23 -225 -22 -145 0 -167 3 -241 27 -93 31 -263 130 -362 210 -132 107 -246 222 -239 239 5 13 12 15 35 9 92 -27 241 54 462 249 178 159 307 241 399 256 l41 7 0 61 c0 101 -31 179 -111 277 l-21 26 27 59 c126 277 189 375 265 414 30 16 38 26 43 57 9 51 56 148 98 200 19 23 60 62 91 86 52 41 91 59 233 113 50 20 54 24 92 109 22 48 61 63 169 64 l72 1 33 51 c76 120 206 145 404 80 41 -14 61 -17 64 -9 2 6 18 27 36 46 l32 35 -45 44 c-82 83 -115 196 -114 398 0 144 17 266 64 460 23 93 32 155 33 218 0 48 4 87 8 87 16 0 127 -61 193 -106 154 -106 307 -269 378 -404 84 -160 121 -409 79 -533 -11 -32 -17 -59 -14 -61 3 -2 26 -7 51 -11 42 -6 45 -5 46 17 3 41 79 232 112 281 40 58 118 118 192 148 40 16 84 23 160 26 75 4 110 10 123 21 26 23 21 29 -30 37 -26 4 -70 15 -98 26 -60 23 -135 83 -120 97 12 12 127 32 184 32 l42 0 -17 33 c-53 102 -31 181 69 253 22 15 31 33 38 69 12 66 50 103 174 173 55 31 147 93 205 137 118 92 278 204 327 229 52 26 86 21 136 -23 38 -33 56 -40 117 -49 115 -17 152 -53 153 -151 0 -49 -6 -69 -35 -122 -20 -35 -46 -95 -57 -134 -29 -92 -40 -108 -108 -147 -72 -42 -109 -95 -152 -219 -43 -124 -83 -192 -153 -262 l-58 -58 32 -27 c44 -38 68 -95 68 -170 0 -68 -22 -136 -42 -130 -7 3 -14 15 -16 29 -7 70 -16 91 -53 133 -22 25 -45 46 -50 46 -5 0 -9 -20 -9 -44 0 -23 -5 -58 -12 -77 -15 -46 -117 -191 -129 -183 -5 3 -16 21 -24 41 -8 20 -38 67 -66 105 l-52 69 -26 -24 c-33 -32 -77 -53 -124 -62 -23 -5 -46 -18 -58 -34 -18 -23 -20 -35 -15 -96 3 -38 12 -99 21 -135 19 -86 19 -209 -1 -259 -14 -36 -14 -42 0 -70 17 -33 81 -101 95 -101 5 0 11 21 15 48 35 261 275 494 534 518 142 13 241 -42 306 -168 33 -65 40 -89 44 -155 3 -62 0 -89 -17 -133 -20 -54 -20 -54 -1 -75 43 -46 59 -143 35 -208 -13 -31 36 -30 115 4 41 17 76 32 78 34 1 1 -6 22 -17 46 -11 24 -31 98 -45 164 -38 175 -47 203 -73 242 l-23 34 41 47 c37 42 99 137 99 153 0 10 -167 79 -232 95 -46 12 -88 15 -155 11 -111 -6 -116 1 -45 63 129 114 297 169 381 125 28 -14 64 -52 87 -91 9 -15 15 -8 42 50 17 37 41 80 52 96 l20 28 -71 22 c-140 42 -189 125 -215 363 -9 78 -20 149 -25 158 -21 40 -11 56 37 63 81 11 199 7 245 -9 137 -47 269 -238 269 -390 0 -30 4 -45 13 -45 14 0 115 138 148 202 11 22 23 64 26 92 5 48 3 52 -24 68 -73 43 -164 161 -204 267 -11 31 -37 117 -56 191 -42 160 -44 166 -91 207 -44 39 -38 49 38 62 77 12 108 12 197 0z m-6118 -2163 c29 -27 124 -76 186 -96 101 -32 213 -103 245 -156 l23 -35 76 4 c48 3 103 14 151 32 77 28 185 38 243 22 24 -6 28 -12 23 -30 -6 -27 23 -79 56 -101 20 -13 36 -14 115 -4 126 16 126 16 218 -217 51 -128 93 -202 144 -249 38 -36 39 -49 6 -70 -37 -24 -87 -106 -140 -228 -39 -90 -56 -116 -99 -155 -64 -59 -131 -93 -182 -94 -36 0 -43 -5 -100 -77 -34 -42 -69 -92 -78 -109 -19 -38 -14 -37 -58 -19 -19 8 -88 22 -153 31 -134 19 -231 46 -268 75 -32 25 -47 75 -47 156 l0 62 -45 21 c-38 18 -45 26 -45 50 0 15 -16 57 -35 93 -41 78 -75 195 -75 258 0 27 10 66 25 98 l24 52 -47 24 c-94 48 -165 151 -197 290 -19 79 -21 396 -3 396 7 0 23 -11 37 -24z" id="1"/>
<path d="M2025 7800 c-11 -5 -36 -9 -55 -9 -56 -2 -197 -39 -257 -68 -31 -16 -80 -50 -107 -77 l-51 -50 77 -18 77 -19 48 27 c43 25 46 26 29 6 -24 -27 -17 -28 37 -2 l42 21 -24 -21 c-30 -26 -21 -36 20 -21 39 13 59 14 39 1 -12 -7 -7 -16 26 -44 25 -22 52 -59 69 -98 27 -58 30 -74 33 -205 5 -170 -7 -250 -54 -356 -35 -80 -39 -107 -36 -216 l2 -64 62 68 c65 70 106 95 158 95 22 0 30 5 30 18 0 39 32 139 57 177 16 23 26 51 24 65 -4 37 -44 116 -96 188 -52 73 -56 103 -19 129 76 53 94 74 94 112 -1 56 -39 137 -124 259 -42 62 -78 112 -79 111 -1 0 -11 -4 -22 -9z" id="2"/>
<path d="M2525 7755 c-33 -7 -77 -20 -98 -28 -31 -13 -37 -21 -37 -46 0 -60 8 -64 52 -26 l40 34 162 -3 c152 -3 168 -5 286 -40 157 -46 240 -66 240 -57 0 13 -287 152 -345 166 -72 18 -218 18 -300 0z" id="3"/>
<path d="M2332 7718 c-6 -6 -40 -21 -75 -33 l-65 -21 34 -55 c18 -30 41 -84 51 -121 17 -66 17 -69 -1 -103 -17 -31 -18 -37 -4 -52 122 -144 183 -222 200 -258 12 -24 25 -42 30 -39 12 8 10 222 -3 269 -6 22 -39 96 -72 164 -54 108 -62 133 -65 192 -4 70 -9 78 -30 57z" id="4"/>
<path d="M2452 7627 c-34 -35 -39 -56 -21 -88 10 -20 11 -20 31 -2 21 18 21 18 9 -4 -20 -39 -12 -44 27 -16 l37 28 -32 -38 c-18 -21 -33 -40 -33 -43 0 -2 11 -27 25 -54 32 -62 55 -159 55 -229 l0 -54 56 59 c61 65 61 59 -2 -31 -72 -105 -101 -186 -37 -107 17 20 52 52 79 71 l49 35 -62 -66 c-35 -37 -63 -70 -63 -75 0 -4 24 -8 54 -9 96 -1 166 -70 166 -164 0 -25 5 -40 13 -40 14 0 128 69 157 95 25 22 26 61 4 193 -18 111 -12 204 16 270 l19 43 -27 10 c-70 25 -90 37 -180 107 -117 89 -217 142 -270 142 -30 0 -45 -7 -70 -33z" id="5"/>
<path d="M2680 7634 c25 -15 82 -56 128 -91 55 -42 92 -63 110 -63 41 0 141 26 197 50 l50 22 -180 50 c-122 33 -207 51 -265 54 l-85 6 45 -28z" id="6"/>
<path d="M1279 7569 c-33 -35 -36 -49 -13 -49 9 0 32 -9 51 -21 l34 -21 73 49 c41 26 82 53 93 60 14 10 -4 12 -95 12 l-114 1 -29 -31z" id="7"/>
<path d="M1448 7501 c-87 -57 -145 -112 -154 -145 -5 -23 37 -119 101 -226 l27 -45 -6 70 c-4 39 -11 96 -17 127 -6 31 -9 68 -5 82 8 33 96 127 141 151 36 20 36 20 51 0 17 -22 13 -98 -6 -120 -6 -7 -42 -16 -80 -19 -59 -6 -70 -10 -70 -26 0 -24 26 -50 49 -50 30 0 98 27 156 62 62 37 67 55 36 125 -23 50 -45 63 -104 63 -36 0 -58 -9 -119 -49z" id="8"/>
<path d="M1730 7532 c0 -5 53 -51 118 -103 64 -51 122 -100 129 -109 20 -25 16 21 -7 83 -24 65 -71 115 -113 121 -91 14 -127 16 -127 8z" id="9"/>
<path d="M1131 7474 c-48 -40 -184 -251 -258 -398 -36 -72 -74 -144 -85 -159 l-20 -28 23 -6 c12 -4 68 -29 123 -56 112 -55 227 -97 264 -97 16 0 47 22 96 68 39 38 82 76 95 85 18 12 21 17 10 21 -8 2 -33 9 -57 15 -94 26 -152 111 -151 221 l0 65 23 -78 c26 -87 47 -121 94 -153 29 -20 150 -50 160 -40 10 11 -21 46 -41 46 -21 0 -97 44 -97 56 0 5 24 -1 60 -14 8 -4 -4 16 -27 43 -23 27 -40 51 -38 54 3 2 21 -9 40 -24 20 -15 38 -25 39 -24 2 2 -25 56 -60 119 -75 136 -81 170 -34 223 17 19 30 37 30 41 0 12 -57 34 -106 40 -47 6 -55 4 -83 -20z" id="10"/>
<path d="M1713 7476 c3 -8 9 -30 12 -50 6 -30 3 -39 -19 -60 -34 -30 -165 -96 -194 -96 -38 0 -24 -18 26 -34 26 -9 105 -29 176 -46 71 -17 149 -39 174 -50 25 -11 47 -18 50 -16 2 3 -1 19 -7 37 -19 56 -3 44 27 -19 l29 -61 6 80 c4 43 2 90 -2 102 -10 26 -74 81 -162 140 -30 20 -66 48 -79 62 -26 27 -45 33 -37 11z" id="11"/>
<path d="M1502 7444 l-37 -36 34 6 c18 3 40 6 47 6 9 0 14 11 14 30 0 39 -12 38 -58 -6z" id="12"/>
<path d="M3213 7424 c-77 -38 -85 -104 -24 -218 49 -93 53 -144 17 -222 -36 -78 -109 -123 -181 -111 -34 6 -67 -15 -51 -31 15 -14 160 -6 192 11 65 34 106 103 125 213 9 55 8 77 -10 160 -27 120 -19 156 35 174 28 10 33 14 23 26 -15 19 -86 18 -126 -2z" id="13"/>
<path d="M2182 7314 c-12 -8 -22 -21 -22 -28 0 -7 27 -50 60 -96 79 -110 110 -211 74 -241 -26 -21 -47 -70 -64 -148 l-16 -75 -56 -11 c-66 -13 -114 -47 -157 -111 -39 -59 -45 -95 -32 -169 6 -32 9 -60 7 -62 -2 -2 -18 32 -36 77 -36 90 -46 97 -130 87 -73 -9 -200 -79 -200 -111 0 -30 -24 -35 -78 -17 -62 21 -92 47 -179 159 -36 46 -67 81 -70 78 -10 -9 155 -244 212 -301 83 -84 165 -106 260 -69 22 9 96 31 166 49 172 45 259 84 361 160 193 145 246 259 204 439 -22 91 -63 167 -148 268 -38 46 -76 95 -86 111 -19 31 -38 34 -70 11z" id="14"/>
<path d="M1447 7127 c4 -95 10 -129 24 -154 24 -38 27 -40 128 -48 63 -6 81 -5 81 5 0 9 5 8 18 -3 26 -24 32 -21 33 16 l1 32 11 -32 c7 -18 18 -38 25 -45 9 -9 12 -5 13 23 l1 34 12 -40 c14 -45 31 -45 28 0 -1 25 0 27 7 10 5 -11 12 -33 17 -49 5 -16 15 -31 23 -34 11 -4 12 10 7 74 -6 77 -5 78 9 41 8 -21 18 -61 21 -89 l7 -51 15 29 c9 16 26 58 38 93 20 58 21 68 9 92 -35 67 -84 89 -310 139 -79 18 -158 42 -182 56 l-41 24 5 -123z" id="15"/>
<path d="M2543 6960 c-19 -8 -20 -12 -11 -52 18 -77 5 -181 -31 -250 -22 -43 -31 -75 -32 -112 l-1 -51 -14 33 c-21 47 -37 30 -30 -32 l6 -51 -18 38 -17 38 -70 -56 c-39 -31 -108 -75 -153 -98 -86 -42 -113 -73 -126 -138 -2 -13 -7 -35 -11 -49 -8 -33 24 -75 72 -95 58 -24 138 -18 274 21 97 28 136 34 180 31 l55 -5 17 122 c15 109 40 220 107 471 32 122 14 192 -60 230 -32 16 -102 19 -137 5z" id="16"/>
<path d="M1430 6882 c-19 -9 -68 -48 -108 -86 l-74 -70 26 -19 c14 -10 49 -48 77 -85 79 -101 149 -171 186 -183 30 -10 34 -8 67 28 19 22 61 52 93 69 49 25 70 29 135 29 l77 0 -6 95 c-3 54 -11 105 -19 117 l-14 23 -53 -21 c-83 -33 -95 -33 -53 -3 l39 29 -79 5 -79 5 40 12 c22 7 54 15 70 19 l30 7 -45 14 c-25 7 -79 16 -120 19 -41 2 -93 7 -115 9 -25 2 -53 -2 -75 -13z" id="17"/>
<path d="M766 6774 c-104 -53 -173 -101 -254 -178 -90 -86 -87 -96 34 -96 l84 0 83 81 c79 77 201 159 239 159 9 0 20 5 23 10 7 11 -94 60 -123 60 -9 -1 -48 -17 -86 -36z" id="18"/>
<path d="M943 6711 c-76 -26 -132 -67 -151 -109 -25 -57 -22 -209 6 -299 12 -40 26 -75 32 -78 5 -3 22 16 37 42 24 41 29 63 34 148 7 125 32 186 100 250 26 25 53 45 59 45 6 0 8 5 5 10 -9 15 -64 11 -122 -9z" id="19"/>
<path d="M1059 6672 c-24 -16 -56 -47 -72 -70 -46 -71 -56 -129 -47 -291 7 -137 3 -192 -25 -287 -6 -20 -2 -22 55 -28 89 -10 200 -51 292 -107 45 -27 90 -49 101 -49 10 0 49 28 85 61 77 71 170 144 208 164 25 13 24 13 -65 61 -50 26 -115 69 -145 95 l-54 48 -68 -19 c-38 -10 -70 -17 -72 -16 -6 6 54 40 93 52 39 12 38 13 -50 14 -87 1 -89 2 -55 15 19 7 52 14 72 14 l37 1 -25 44 c-25 45 -49 56 -128 56 -46 0 -20 14 37 20 l52 6 -42 22 c-24 12 -43 24 -43 25 0 2 17 1 38 -1 l37 -4 -30 32 c-16 17 -51 43 -78 57 -26 15 -45 28 -43 31 9 9 67 -10 102 -34 l37 -25 -6 36 c-3 20 -18 52 -32 71 -23 30 -31 34 -74 34 -35 0 -59 -7 -92 -28z" id="20"/>
<path d="M2798 6659 c-34 -10 -39 -16 -53 -62 -8 -28 -15 -52 -15 -53 0 -1 34 -10 75 -19 l75 -16 42 36 c23 19 65 46 93 60 l50 24 -40 17 c-48 20 -175 27 -227 13z" id="21"/>
<path d="M3003 6560 c-74 -37 -94 -57 -67 -66 174 -61 257 -106 359 -195 38 -32 70 -57 72 -56 2 2 -23 52 -55 110 -86 160 -158 237 -223 237 -14 0 -53 -14 -86 -30z" id="22"/>
<path d="M708 6543 c-77 -81 -88 -106 -88 -207 0 -50 5 -111 10 -136 12 -54 40 -120 51 -120 9 0 129 98 129 106 0 3 -9 23 -20 44 -34 67 -52 166 -48 263 2 48 4 87 3 87 0 0 -17 -17 -37 -37z" id="23"/>
<path d="M1300 6527 c0 -56 95 -213 168 -278 39 -34 154 -111 222 -149 62 -34 140 -70 151 -69 16 0 150 150 163 182 5 12 17 39 27 60 12 25 13 37 6 37 -36 0 -170 -32 -222 -53 -85 -35 -157 -41 -225 -21 -43 13 -67 29 -120 82 -36 37 -90 103 -118 147 -29 43 -52 71 -52 62z" id="24"/>
<path d="M2723 6455 c17 -119 114 -211 264 -250 31 -8 67 -15 79 -15 22 0 21 2 -11 51 -37 54 -55 105 -55 156 0 40 -7 44 -139 77 -145 36 -145 36 -138 -19z" id="25"/>
<path d="M372 6411 c-67 -132 -69 -162 -37 -400 l28 -203 29 33 c44 51 56 86 78 225 24 149 58 256 106 337 19 32 34 61 34 64 0 3 -23 3 -51 1 -48 -5 -92 1 -131 17 -13 5 -24 -10 -56 -74z" id="26"/>
<path d="M3030 6397 c0 -45 32 -116 72 -161 l40 -46 111 0 112 1 -45 41 c-68 62 -159 127 -222 159 -32 16 -60 29 -63 29 -3 0 -5 -10 -5 -23z" id="27"/>
<path d="M563 6330 c-11 -25 -25 -62 -32 -82 -12 -38 -61 -310 -56 -316 2 -2 31 19 66 45 35 27 74 56 87 64 l22 16 -26 58 c-21 45 -28 81 -33 159 l-7 101 -21 -45z" id="28"/>
<path d="M1946 6094 l-48 -55 16 -52 c20 -64 46 -184 46 -214 0 -13 4 -23 8 -23 24 0 136 -85 164 -125 20 -28 35 -42 41 -36 5 5 12 50 15 100 9 162 -31 282 -123 376 -27 28 -54 59 -60 68 -9 15 -17 9 -59 -39z" id="29"/>
<path d="M1693 6049 c-49 -19 -95 -96 -108 -180 -7 -49 7 -168 26 -216 l12 -28 7 25 c30 103 123 215 205 245 66 24 66 25 54 68 -8 30 -14 37 -28 32 -10 -3 -47 9 -84 28 -42 21 -72 30 -84 26z" id="30"/>
<path d="M1114 5872 c-40 -44 -74 -127 -74 -183 0 -44 21 -103 48 -132 43 -48 136 -71 185 -46 41 21 57 51 57 107 0 46 -4 58 -29 83 -52 51 -147 32 -125 -25 8 -21 17 -20 39 4 58 64 138 -27 88 -100 -28 -40 -45 -49 -95 -50 -66 0 -103 32 -119 106 -20 90 13 180 82 221 33 20 33 32 0 44 -18 7 -28 2 -57 -29z" id="31"/>
<path d="M1834 5860 c-101 -57 -174 -172 -174 -272 0 -61 16 -95 83 -181 l29 -38 33 79 c32 79 79 156 109 181 11 9 16 30 16 62 0 75 -21 199 -34 199 -6 0 -34 -13 -62 -30z" id="32"/>
<path d="M1968 5508 c-4 -269 -1 -379 10 -390 15 -15 172 341 172 392 0 46 -88 152 -157 189 l-23 12 -2 -203z" id="33"/>
<path d="M1908 5570 c-32 -42 -108 -197 -108 -219 0 -9 29 -48 64 -88 l64 -72 7 152 c4 84 5 177 3 207 l-3 55 -27 -35z" id="34"/>
<path d="M6359 7766 c15 -18 300 -212 326 -222 12 -5 12 2 -4 42 -11 27 -27 74 -38 104 -24 72 -46 82 -188 88 -101 4 -109 4 -96 -12z" id="35"/>
<path d="M5619 7747 c-55 -27 -271 -178 -265 -184 3 -3 33 6 68 20 55 22 148 53 228 76 22 7 24 12 21 57 -1 27 -4 50 -5 51 -2 2 -23 -7 -47 -20z" id="36"/>
<path d="M5710 7717 c0 -38 48 -117 91 -150 31 -22 109 -35 109 -18 0 15 -88 109 -152 163 l-48 40 0 -35z" id="37"/>
<path d="M6670 7736 c0 -3 11 -41 25 -85 32 -101 67 -152 191 -276 60 -61 114 -127 138 -168 21 -37 41 -67 43 -67 7 0 -8 110 -24 180 -21 87 -63 178 -125 272 -51 77 -52 77 -140 113 -85 34 -108 40 -108 31z" id="38"/>
<path d="M6380 7692 c0 -16 71 -274 86 -311 20 -50 39 -57 213 -76 142 -16 180 -25 244 -57 22 -11 41 -17 44 -14 9 8 -158 175 -226 225 -95 70 -361 242 -361 233z" id="39"/>
<path d="M5860 7674 c0 -4 18 -26 40 -50 55 -60 55 -97 0 -152 -51 -51 -81 -59 -124 -33 -32 20 -86 104 -86 134 0 27 -21 30 -38 6 -24 -35 -214 -261 -295 -351 -69 -78 -74 -88 -34 -66 12 6 105 39 208 74 281 94 395 158 440 245 32 64 22 144 -23 172 -27 17 -88 32 -88 21z" id="40"/>
<path d="M7001 7516 c59 -112 87 -215 94 -344 l4 -97 33 -7 c42 -8 48 1 48 82 0 154 -54 294 -151 396 -34 35 -66 64 -70 64 -4 0 15 -42 42 -94z" id="41"/>
<path d="M5462 7560 c-138 -52 -414 -196 -467 -243 -36 -31 -44 -45 -50 -86 -6 -43 -13 -54 -59 -94 -68 -58 -83 -93 -66 -150 14 -47 54 -109 97 -150 l29 -27 -4 90 c-14 285 98 424 497 622 86 43 149 77 141 77 -8 0 -61 -17 -118 -39z" id="42"/>
<path d="M5720 7597 c0 -20 34 -85 57 -109 31 -33 49 -34 81 -9 27 24 28 31 1 31 -29 0 -58 17 -101 58 -21 20 -38 33 -38 29z" id="43"/>
<path d="M5440 7482 c-240 -119 -359 -211 -415 -322 -32 -63 -55 -164 -54 -240 l0 -55 27 35 c14 19 101 112 192 205 160 164 397 432 389 440 -3 2 -65 -26 -139 -63z" id="44"/>
<path d="M7300 7449 c0 -6 18 -32 41 -57 22 -25 61 -80 87 -121 l47 -76 3 80 c1 44 -1 98 -6 120 -6 34 -13 42 -42 52 -45 15 -130 17 -130 2z" id="45"/>
<path d="M7506 7267 c2 -124 5 -152 28 -219 14 -42 26 -84 26 -92 0 -41 20 -8 41 67 17 62 23 110 23 196 l1 115 -50 38 c-27 21 -54 38 -60 38 -6 0 -9 -53 -9 -143z" id="46"/>
<path d="M5825 7314 c-44 -24 -165 -71 -270 -105 -300 -98 -372 -137 -475 -262 -56 -69 -63 -88 -22 -59 81 57 277 141 497 212 184 60 270 95 303 124 19 17 61 123 50 130 -1 1 -39 -17 -83 -40z" id="47"/>
<path d="M6510 7286 c0 -15 60 -92 102 -133 48 -47 132 -88 201 -98 43 -7 247 11 247 22 0 16 -34 65 -61 87 -74 63 -155 89 -324 106 -55 5 -115 12 -132 16 -18 4 -33 3 -33 0z" id="48"/>
<path d="M3557 7268 c4 -7 30 -46 57 -86 26 -41 67 -115 90 -165 23 -51 50 -108 59 -127 l18 -35 -5 40 c-3 22 -8 86 -12 143 l-7 103 -56 43 c-58 45 -136 96 -146 96 -3 0 -2 -6 2 -12z" id="49"/>
<path d="M7670 7260 c-1 -82 -34 -242 -67 -326 -4 -10 4 -14 28 -14 19 0 52 -5 74 -11 87 -23 83 -23 89 8 11 48 -12 163 -48 238 -36 77 -75 130 -76 105z" id="50"/>
<path d="M3546 7168 c-4 -29 -16 -90 -27 -136 -36 -154 -19 -233 66 -318 46 -47 180 -124 214 -124 37 0 -86 359 -179 525 -28 50 -55 94 -59 98 -5 5 -11 -16 -15 -45z" id="51"/>
<path d="M6005 7131 l-30 -7 45 -23 c49 -26 107 -68 158 -115 39 -36 42 -23 11 60 -29 78 -48 94 -106 93 -27 -1 -61 -4 -78 -8z" id="52"/>
<path d="M6190 7115 c0 -4 7 -19 15 -35 8 -16 22 -60 31 -97 10 -43 30 -89 55 -127 21 -32 39 -62 39 -67 0 -5 5 -9 11 -9 16 0 3 165 -17 222 -18 51 -38 74 -86 99 -39 20 -48 22 -48 14z" id="53"/>
<path d="M5510 7049 c-192 -66 -414 -169 -473 -221 -49 -43 -63 -88 -36 -122 25 -31 122 -63 235 -77 140 -17 159 -4 216 151 25 67 27 70 21 30 -3 -25 -13 -69 -23 -97 -9 -29 -13 -53 -8 -53 22 0 58 53 73 106 23 81 25 85 22 37 -1 -24 1 -43 4 -43 10 0 72 128 114 235 20 50 38 96 42 103 8 17 6 17 -187 -49z" id="54"/>
<path d="M3794 7083 c2 -10 10 -97 16 -193 6 -96 20 -217 31 -267 10 -51 19 -106 19 -123 0 -39 16 -39 24 1 3 18 33 89 66 158 76 160 79 200 23 270 -48 59 -162 171 -175 171 -5 0 -7 -8 -4 -17z" id="55"/>
<path d="M5974 7063 c3 -10 10 -62 16 -116 6 -55 15 -107 20 -117 20 -37 99 -65 193 -68 49 -2 93 0 98 5 24 24 -128 196 -240 271 -68 45 -96 53 -87 25z" id="56"/>
<path d="M6692 6968 c-14 -48 -39 -98 -71 -143 -133 -186 -189 -293 -177 -339 3 -14 30 -44 59 -67 77 -61 78 -76 11 -151 -46 -52 -52 -94 -24 -184 l24 -74 -28 -96 c-31 -109 -29 -177 8 -237 23 -38 123 -147 134 -147 4 0 18 9 32 19 19 15 27 35 36 90 13 77 54 173 104 246 42 61 36 79 -50 156 -38 35 -68 65 -65 67 8 8 100 -52 132 -87 18 -19 35 -32 39 -29 10 11 -5 44 -56 123 -27 41 -47 75 -45 75 3 0 23 -16 45 -36 45 -41 49 -36 20 27 -27 61 -26 118 4 162 l25 36 -41 36 c-48 41 -34 46 28 10 64 -38 66 -12 3 51 -29 30 -49 54 -43 54 17 0 102 -59 108 -75 6 -17 36 -20 36 -4 0 6 -12 31 -27 57 l-26 47 41 -39 c23 -22 44 -37 47 -34 3 3 -2 22 -11 44 -22 53 -15 172 14 237 19 44 20 50 7 90 l-15 42 25 -28 c30 -33 45 -28 45 16 0 29 1 30 14 12 14 -19 15 -19 62 7 27 14 68 31 92 38 36 9 41 13 33 29 -5 9 -31 28 -57 42 -53 27 -90 29 -262 15 l-103 -9 24 -26 c38 -42 66 -87 82 -132 19 -52 12 -62 -10 -17 -33 63 -97 140 -143 169 -25 16 -49 29 -52 29 -3 0 -16 -33 -28 -72z" id="57"/>
<path d="M6371 6833 c0 -79 2 -143 5 -143 2 0 21 7 40 15 36 15 36 15 29 62 -8 53 -33 132 -57 178 -16 29 -16 23 -17 -112z" id="58"/>
<path d="M7227 6909 c-102 -24 -205 -110 -228 -191 -18 -62 -16 -146 4 -195 9 -23 14 -49 11 -57 -3 -8 -32 -33 -64 -55 -65 -46 -107 -91 -116 -126 -3 -14 6 -52 24 -98 57 -142 51 -198 -35 -334 -45 -71 -73 -125 -73 -139 0 -14 198 204 240 264 65 93 92 150 130 272 18 58 44 136 58 173 26 65 28 68 70 79 23 6 45 15 48 20 4 6 -21 37 -56 69 -48 46 -55 57 -33 48 51 -19 93 -51 109 -80 21 -42 31 -29 28 38 l-4 58 17 -50 c21 -63 22 -64 39 -41 9 14 14 49 15 110 l0 91 15 -40 c8 -22 15 -66 16 -97 1 -51 3 -56 18 -48 9 5 23 31 31 57 l14 48 5 -42 5 -43 53 25 c87 40 107 34 162 -50 28 -43 31 -46 26 -20 -14 60 -76 176 -122 225 -97 104 -274 160 -407 129z" id="59"/>
<path d="M7635 6829 c30 -29 68 -72 82 -98 15 -25 28 -47 29 -49 1 -2 15 5 31 15 l28 18 -23 -29 c-27 -36 -28 -50 -1 -43 17 5 18 3 8 -9 -6 -8 -10 -16 -8 -18 2 -1 33 -22 69 -46 36 -24 89 -68 118 -98 28 -30 52 -50 52 -44 0 26 -30 150 -45 187 -30 73 -75 132 -135 179 -81 64 -133 86 -203 86 l-59 0 57 -51z" id="60"/>
<path d="M4703 6851 c-24 -4 -45 -10 -48 -13 -4 -3 19 -18 50 -34 43 -21 77 -29 136 -32 50 -3 79 -1 79 6 0 5 -18 26 -40 46 -35 31 -46 36 -88 35 -26 -1 -66 -5 -89 -8z" id="61"/>
<path d="M3466 6783 c-3 -16 -9 -93 -12 -173 -10 -221 19 -347 100 -437 l43 -47 54 23 c30 12 85 37 123 54 l69 31 -7 126 c-11 190 -10 188 -82 214 -123 45 -200 102 -246 183 -16 29 -31 53 -33 53 -1 0 -5 -12 -9 -27z" id="62"/>
<path d="M4040 6788 c0 -13 -27 -79 -60 -148 -68 -144 -90 -218 -90 -309 0 -63 0 -64 20 -46 18 17 22 16 103 -19 46 -20 89 -36 95 -36 22 0 45 102 44 196 -1 107 -22 211 -64 312 -30 72 -48 91 -48 50z" id="63"/>
<path d="M6041 6729 c31 -61 76 -97 148 -119 l64 -20 46 42 c25 24 46 45 45 48 0 3 -4 17 -8 33 -8 26 -11 27 -45 20 -67 -15 -163 -7 -215 15 -27 12 -50 22 -52 22 -3 0 5 -19 17 -41z" id="64"/>
<path d="M4892 6706 c-33 -29 -86 -124 -97 -176 l-8 -34 34 25 c19 14 49 36 67 50 19 13 47 42 63 63 l28 39 -22 28 c-27 35 -29 35 -65 5z" id="65"/>
<path d="M6410 6664 c-56 -24 -97 -61 -140 -125 -62 -91 -86 -144 -115 -258 -30 -118 -56 -175 -114 -248 l-40 -52 20 -45 c11 -25 33 -106 49 -179 34 -154 57 -223 100 -290 32 -50 101 -101 160 -117 69 -19 195 -9 239 19 21 14 31 116 14 148 -7 14 -38 49 -68 79 -68 67 -91 132 -82 236 l6 68 -37 9 c-20 5 -46 12 -57 14 -11 3 9 5 44 4 58 -1 65 2 72 22 11 28 -5 35 -126 60 l-90 19 82 1 c45 1 94 -4 109 -9 15 -6 29 -8 32 -6 13 13 -26 37 -101 63 -91 31 -75 45 23 19 30 -8 56 -13 57 -12 1 1 0 18 -3 38 -6 34 -9 36 -53 42 -77 11 -85 26 -13 26 34 0 62 4 62 9 0 5 3 16 6 25 5 12 -1 16 -22 16 -16 0 -47 9 -69 20 l-40 20 75 -6 c67 -5 77 -4 94 14 18 20 17 21 -36 48 -63 32 -49 44 22 18 62 -22 76 -10 30 25 -104 78 -114 123 -55 235 39 73 34 80 -35 50z" id="66"/>
<path d="M4642 6639 c-65 -12 -141 -51 -194 -98 -46 -41 -99 -132 -114 -196 -6 -27 2 -21 82 55 93 88 206 177 284 223 44 26 44 27 15 26 -16 -1 -49 -5 -73 -10z" id="67"/>
<path d="M4968 6612 c-23 -35 -132 -126 -165 -139 -7 -3 -13 -10 -13 -15 0 -15 97 1 150 24 59 25 98 63 110 107 11 39 7 47 -31 56 -22 5 -29 1 -51 -33z" id="68"/>
<path d="M4721 6595 c-87 -47 -195 -131 -309 -242 -93 -91 -96 -94 -62 -88 19 3 77 10 130 16 52 5 110 15 129 21 55 17 107 72 125 131 43 148 55 192 53 194 -1 1 -31 -14 -66 -32z" id="69"/>
<path d="M5098 6589 c-10 -68 30 -163 108 -254 l34 -40 0 105 c0 81 -5 114 -19 146 -22 49 -25 51 -79 60 -37 6 -41 4 -44 -17z" id="70"/>
<path d="M5378 6593 c-10 -2 -18 -8 -18 -11 1 -15 26 -40 55 -54 32 -17 68 -61 97 -118 l17 -35 0 50 c1 110 -71 189 -151 168z" id="71"/>
<path d="M5247 6558 c13 -24 19 -67 23 -162 l5 -129 27 39 c46 66 61 113 56 176 -5 74 -34 108 -90 108 l-39 0 18 -32z" id="72"/>
<path d="M7636 6557 c-36 -46 -32 -53 9 -20 19 15 35 34 35 41 0 22 -18 13 -44 -21z" id="73"/>
<path d="M7797 6492 c7 -121 17 -149 61 -169 l37 -17 -34 -4 -34 -4 29 -23 c25 -20 26 -23 7 -18 -20 5 -21 2 -21 -59 0 -73 -14 -108 -69 -169 -51 -56 -101 -82 -228 -120 -107 -31 -112 -32 -245 -26 -130 6 -244 -3 -279 -23 -13 -7 -10 -11 14 -20 17 -6 53 -28 80 -49 78 -59 212 -121 261 -121 13 0 36 16 55 38 44 51 78 72 116 72 42 0 90 -41 104 -91 7 -21 17 -39 23 -39 6 0 34 15 62 34 95 64 245 319 280 473 20 92 14 159 -21 218 -29 51 -100 124 -159 165 l-43 29 4 -77z" id="74"/>
<path d="M7514 6516 c-59 -43 -218 -203 -327 -327 -51 -58 -210 -290 -203 -296 2 -2 16 1 32 7 16 5 60 14 97 19 111 16 233 107 303 228 14 23 47 103 75 179 27 76 61 158 74 183 14 24 25 45 25 47 0 12 -24 -1 -76 -40z" id="75"/>
<path d="M7357 6507 c-92 -33 -122 -48 -133 -67 -16 -30 -74 -204 -74 -225 0 -8 40 29 89 83 48 53 125 132 169 175 45 42 78 77 74 76 -4 0 -60 -19 -125 -42z" id="76"/>
<path d="M5045 6509 c-28 -29 -92 -65 -142 -79 -43 -11 -53 -28 -34 -58 15 -24 106 -17 156 13 59 34 67 51 51 104 l-12 42 -19 -22z" id="77"/>
<path d="M7653 6493 c-28 -42 -25 -204 4 -258 25 -47 104 -135 121 -135 18 0 32 44 32 100 0 65 -7 82 -29 69 -11 -8 -29 -8 -58 0 -64 17 -69 29 -49 117 27 123 18 167 -21 107z" id="78"/>
<path d="M7580 6463 c-12 -26 -38 -92 -57 -147 -19 -55 -48 -125 -63 -157 -36 -70 -127 -171 -189 -207 l-46 -27 45 -7 c25 -3 79 -7 122 -7 l76 -1 26 44 c34 59 109 123 160 138 23 6 43 13 44 14 2 1 -14 26 -36 56 -64 85 -86 190 -61 297 13 60 6 61 -21 4z" id="79"/>
<path d="M7720 6475 c0 -22 -7 -66 -14 -97 -11 -43 -11 -59 -3 -66 11 -9 97 -24 97 -17 0 10 -62 189 -70 203 -7 13 -10 8 -10 -23z" id="80"/>
<path d="M5920 6453 c0 -5 18 -17 41 -27 51 -23 106 -77 130 -130 l19 -41 0 38 c0 44 -27 102 -64 136 -26 24 -126 44 -126 24z" id="81"/>
<path d="M5820 6417 c-20 -7 -58 -29 -85 -47 l-50 -35 95 -12 c96 -11 157 -31 251 -79 28 -14 53 -23 56 -21 7 7 -25 78 -51 112 -26 34 -104 80 -151 89 -16 3 -46 0 -65 -7z" id="82"/>
<path d="M4763 6393 c-61 -100 -116 -129 -276 -148 -67 -8 -147 -22 -177 -31 l-55 -17 42 -12 c87 -26 153 -87 153 -142 0 -13 2 -23 4 -23 2 0 28 11 58 25 106 50 192 20 278 -97 l27 -37 6 50 c4 31 0 85 -10 137 -23 119 -23 230 0 265 24 38 22 57 -8 57 -16 0 -30 -9 -42 -27z" id="83"/>
<path d="M4837 6333 c-16 -28 -16 -85 2 -193 17 -103 19 -134 10 -200 -8 -57 -8 -84 0 -99 18 -32 28 -25 35 23 8 52 2 114 -25 250 -20 102 -19 143 8 185 13 20 13 25 2 32 -17 11 -27 11 -32 2z" id="84"/>
<path d="M3906 6231 c-9 -10 -56 -35 -104 -56 -48 -21 -112 -49 -142 -62 -30 -13 -67 -36 -82 -50 -26 -25 -47 -87 -34 -100 3 -3 30 11 60 31 43 31 66 39 116 43 50 5 64 10 68 25 4 17 5 17 17 1 11 -15 15 -12 34 28 l21 44 -4 -37 c-3 -21 -3 -38 -1 -38 1 0 23 11 46 25 62 35 112 33 179 -7 30 -18 69 -52 86 -75 l32 -42 11 29 c15 44 18 37 11 -22 -4 -29 -4 -62 0 -73 6 -16 10 -11 23 25 15 44 15 44 16 13 1 -18 -6 -50 -15 -72 -8 -22 -14 -52 -12 -68 3 -27 4 -27 31 19 15 26 56 77 92 115 72 76 82 109 44 157 -31 39 -68 54 -207 86 -70 16 -153 40 -185 54 -69 31 -79 32 -101 7z" id="85"/>
<path d="M8047 6131 c-10 -47 -38 -119 -67 -177 -28 -53 -50 -100 -50 -104 0 -3 15 -14 33 -23 l32 -16 -49 2 c-59 2 -70 -14 -27 -39 43 -25 39 -34 -10 -22 l-41 11 -43 -50 c-45 -51 -155 -119 -179 -110 -8 3 -17 22 -20 42 -15 76 -48 110 -95 98 -26 -7 -26 -7 3 -46 13 -18 35 -71 50 -118 14 -47 34 -94 45 -103 13 -12 43 -20 85 -23 75 -6 97 4 200 94 33 29 96 71 139 92 l79 38 3 109 c2 60 7 133 13 163 5 31 5 74 0 100 -8 48 -58 153 -74 158 -5 2 -17 -33 -27 -76z" id="86"/>
<path d="M5510 6152 c0 -5 11 -13 25 -16 79 -20 156 -150 161 -271 3 -70 3 -70 57 -126 l55 -56 23 41 c20 35 24 55 24 131 0 76 -4 98 -26 145 -29 60 -76 113 -123 137 -36 19 -196 31 -196 15z" id="87"/>
<path d="M5340 6091 c-36 -22 -74 -49 -84 -60 -19 -21 -19 -21 20 -21 71 0 173 -86 198 -167 7 -20 14 -23 65 -23 32 0 73 -3 90 -6 l31 -6 0 47 c0 125 -71 235 -170 260 -75 20 -77 20 -150 -24z" id="88"/>
<path d="M3890 6044 c-52 -27 -81 -35 -143 -40 -68 -5 -84 -10 -130 -42 -50 -36 -55 -37 -127 -34 -204 9 -195 10 -192 -21 3 -23 -13 -44 -100 -135 -155 -161 -196 -228 -217 -362 -14 -87 8 -245 43 -305 53 -89 159 -153 269 -162 40 -3 81 -11 92 -17 11 -6 54 -9 95 -8 58 3 94 -3 159 -22 100 -31 245 -37 235 -11 -16 39 -202 153 -309 189 -131 43 -162 94 -129 214 6 22 5 22 -92 23 -77 0 -94 2 -74 10 14 6 58 13 98 16 39 3 72 10 72 14 0 5 -39 9 -87 10 -87 1 -88 1 -48 14 22 8 58 14 79 14 57 1 37 13 -57 33 l-82 18 97 -4 c95 -3 114 4 62 24 -30 12 -31 30 -3 30 19 0 20 4 13 43 -12 63 -8 104 15 136 26 36 26 39 -1 68 -25 26 -13 31 20 7 32 -22 27 -7 -20 61 l-43 60 41 -32 c22 -17 46 -43 54 -57 7 -14 16 -26 20 -26 4 0 32 20 64 44 84 65 146 86 269 88 157 2 234 -33 305 -143 39 -59 41 -60 52 -38 18 34 7 164 -20 226 -24 57 -66 101 -125 132 -53 28 -78 26 -155 -15z" id="89"/>
<path d="M7654 6056 c-35 -15 -124 -97 -124 -113 0 -16 125 32 176 68 24 16 44 36 44 44 0 19 -53 19 -96 1z" id="90"/>
<path d="M3152 6023 c-30 -14 -54 -39 -109 -111 -21 -28 -27 -29 -112 -34 -106 -6 -132 -20 -149 -75 -17 -56 -56 -87 -147 -117 -147 -48 -257 -139 -314 -260 -38 -80 -51 -147 -51 -259 1 -231 89 -402 204 -394 l36 2 3 -90 c2 -101 29 -173 79 -208 26 -20 27 -20 65 1 200 112 248 126 408 126 130 1 177 -10 289 -67 58 -28 80 -49 269 -247 28 -31 75 -66 102 -80 48 -23 59 -24 257 -24 115 -1 208 1 208 3 0 2 -11 23 -24 45 -40 69 -157 150 -276 192 -53 19 -66 28 -72 50 -9 34 -79 107 -133 139 -84 49 -150 63 -330 70 -178 7 -286 24 -364 55 -56 23 -50 24 64 5 50 -8 151 -17 225 -20 121 -5 131 -4 100 8 -19 8 -78 17 -130 21 -52 3 -113 11 -135 17 -53 14 -126 41 -122 45 2 2 49 -5 106 -16 56 -11 107 -20 114 -20 7 1 -28 20 -78 44 -49 24 -121 66 -158 94 -78 58 -109 70 -222 87 l-80 12 49 8 c27 4 73 3 103 -2 29 -5 53 -6 53 -1 0 12 -115 85 -156 98 -55 19 -34 21 31 5 32 -9 59 -14 61 -12 2 2 -31 24 -74 50 -89 55 -75 63 23 13 l67 -34 -6 38 c-9 59 19 146 75 229 28 40 47 77 42 81 -4 4 -26 19 -48 34 -38 26 -34 28 23 11 22 -6 23 -5 12 15 -13 25 -2 22 33 -8 26 -23 22 4 -6 42 -49 65 -43 78 11 25 18 -18 34 -30 35 -28 2 2 16 24 32 49 16 25 75 93 132 151 93 96 103 109 101 139 -3 29 1 34 27 42 17 5 72 6 123 3 87 -6 93 -5 90 12 -2 13 -24 23 -88 40 -104 27 -221 29 -268 6z" id="91"/>
<path d="M4548 6026 c-52 -19 -126 -76 -199 -154 l-63 -67 59 -5 c67 -6 88 -15 129 -58 23 -25 30 -43 37 -104 4 -40 8 -77 9 -81 0 -5 12 5 26 22 29 34 92 83 79 60 -5 -7 -23 -32 -40 -54 -32 -40 -55 -78 -55 -91 0 -3 18 10 39 29 39 35 81 62 81 53 0 -3 -20 -28 -45 -56 -48 -54 -71 -90 -57 -90 5 0 17 9 28 21 10 11 28 26 39 32 19 10 19 9 5 -9 -8 -10 -29 -37 -47 -58 -30 -36 -42 -66 -27 -66 3 0 18 8 32 19 64 44 74 39 21 -11 -55 -51 -57 -55 -63 -116 -7 -75 -29 -129 -80 -195 -21 -27 -36 -51 -34 -52 2 -2 33 16 68 41 71 50 125 81 117 67 -3 -5 -71 -61 -151 -123 -80 -63 -144 -116 -142 -117 2 -2 32 10 67 26 126 58 140 45 19 -18 -63 -34 -136 -78 -161 -100 -57 -50 -119 -168 -125 -237 -2 -27 -1 -42 2 -34 28 65 122 154 219 209 l40 23 -45 -38 c-136 -114 -209 -210 -210 -275 0 -37 22 -87 60 -134 18 -22 41 -57 52 -79 l19 -38 29 58 c41 87 135 191 260 289 66 52 125 108 149 141 74 103 75 213 5 319 -20 30 -34 59 -30 63 4 4 67 7 140 7 146 0 170 8 206 68 38 62 36 106 -9 289 -24 93 -40 176 -37 185 4 10 -9 30 -35 56 -25 26 -64 86 -100 159 -66 131 -114 192 -174 219 -47 22 -58 22 -107 5z" id="92"/>
<path d="M5178 5953 c-29 -32 -78 -104 -78 -115 0 -4 6 -5 14 -2 26 10 125 -17 155 -42 l29 -24 71 22 c41 13 71 28 71 36 0 7 -14 33 -30 57 -63 91 -179 125 -232 68z" id="93"/>
<path d="M3711 5844 c-161 -43 -229 -167 -167 -301 21 -43 60 -83 71 -71 1 2 -6 29 -16 61 -45 140 39 266 207 312 l49 13 -45 0 c-25 1 -69 -6 -99 -14z" id="94"/>
<path d="M3994 5800 c27 -32 42 -103 32 -145 -4 -14 -29 -65 -57 -113 -55 -96 -103 -214 -120 -294 -16 -74 -6 -183 25 -260 14 -35 26 -74 26 -86 0 -37 18 -33 32 6 12 37 54 117 215 417 l72 134 -19 59 c-46 141 -108 247 -169 288 -50 34 -69 31 -37 -6z" id="95"/>
<path d="M3782 5799 c-75 -24 -132 -75 -150 -135 -14 -47 -16 -100 -4 -108 11 -6 129 22 163 40 60 31 80 98 32 110 -36 10 -107 -16 -111 -40 -4 -17 1 -18 41 -12 25 4 48 3 51 -2 19 -32 -107 -51 -127 -20 -31 47 40 111 123 112 56 1 121 -37 152 -90 23 -39 33 -37 42 8 8 45 -8 95 -41 130 -33 34 -78 36 -171 7z" id="96"/>
<path d="M6884 5792 c-69 -51 -155 -178 -154 -229 1 -18 113 -93 209 -140 63 -31 137 -30 226 3 266 99 288 106 343 100 48 -6 53 -5 48 11 -3 10 -8 32 -12 48 -9 37 -40 101 -54 110 -6 4 -29 -10 -52 -30 -32 -30 -46 -36 -68 -31 -66 13 -194 70 -251 113 -111 81 -169 93 -235 45z" id="97"/>
<path d="M5082 5788 c-12 -15 -37 -113 -47 -183 l-7 -50 51 56 c27 31 79 75 115 99 36 23 66 45 66 49 0 4 -16 15 -35 24 -42 20 -128 23 -143 5z" id="98"/>
<path d="M5468 5779 c-159 -23 -327 -126 -412 -253 -31 -46 -32 -68 -6 -166 30 -114 27 -195 -10 -265 l-30 -58 35 -52 c49 -70 65 -130 72 -262 3 -62 9 -113 13 -113 3 0 32 36 64 80 31 44 81 106 111 138 l53 58 -9 49 c-38 203 -31 326 26 442 78 158 236 230 365 166 53 -27 64 -18 55 42 -21 140 -154 219 -327 194z" id="99"/>
<path d="M4283 5751 c-36 -22 -83 -87 -83 -114 0 -10 5 -28 11 -39 11 -20 12 -20 36 8 l24 29 -16 -32 c-22 -47 -18 -62 8 -26 33 49 38 40 11 -24 -13 -32 -24 -71 -24 -87 0 -17 -23 -67 -59 -125 -32 -53 -97 -171 -144 -262 -67 -130 -87 -179 -92 -225 -4 -33 -21 -88 -37 -124 -17 -36 -36 -87 -44 -115 -16 -56 -18 -125 -5 -125 16 0 140 139 161 180 11 22 32 73 47 112 33 92 50 118 88 134 23 9 34 24 48 62 9 28 47 90 83 139 121 160 183 322 184 474 0 92 -14 124 -64 154 -51 30 -90 32 -133 6z" id="100"/>
<path d="M3468 5673 c-40 -43 -41 -64 -13 -179 27 -106 29 -162 10 -274 -6 -30 -2 -39 22 -62 15 -14 63 -38 106 -54 88 -31 176 -80 226 -127 26 -24 32 -27 27 -12 -43 117 -45 260 -7 368 l20 58 -27 10 c-15 6 -79 17 -142 24 -108 12 -116 15 -142 44 -36 41 -62 130 -53 187 3 24 5 44 2 44 -2 0 -15 -12 -29 -27z" id="101"/>
<path d="M3885 5648 c-17 -57 -98 -105 -202 -123 -48 -8 -50 -11 -27 -43 11 -17 25 -22 57 -23 45 0 123 -12 147 -23 11 -4 25 13 53 69 l39 75 -26 45 c-15 25 -29 45 -31 45 -2 0 -7 -10 -10 -22z" id="102"/>
<path d="M5827 5652 c-3 -4 -2 -26 3 -48 6 -25 5 -53 -1 -79 -10 -36 -9 -41 12 -58 22 -18 24 -18 36 -1 19 26 16 113 -5 153 -17 35 -36 49 -45 33z" id="103"/>
<path d="M7925 5508 c-97 -84 -140 -102 -221 -93 -49 5 -72 13 -96 33 -36 30 -111 53 -146 45 -23 -5 -22 -7 19 -49 24 -24 41 -44 37 -44 -3 0 -32 16 -64 35 -32 19 -64 35 -71 35 -20 0 -16 -18 7 -30 24 -13 83 -91 75 -98 -3 -3 -20 8 -38 25 -44 41 -92 73 -110 73 -8 0 -57 -16 -108 -36 -78 -30 -107 -36 -169 -37 -88 0 -99 5 -245 103 l-101 68 -32 -27 c-18 -14 -32 -35 -32 -47 0 -31 81 -137 132 -172 71 -49 130 -64 248 -64 60 0 134 7 173 16 105 24 112 23 194 -44 85 -70 94 -71 220 -34 68 20 101 24 146 20 47 -5 57 -3 57 10 0 32 36 82 117 166 53 53 90 100 98 124 12 37 7 75 -11 81 -5 1 -40 -25 -79 -59z" id="104"/>
<path d="M5555 5511 c-130 -59 -205 -219 -191 -407 9 -128 54 -325 56 -244 1 73 73 164 202 254 90 63 149 125 181 189 35 69 34 103 -3 149 -60 72 -162 97 -245 59z" id="105"/>
<path d="M6067 5436 c-60 -22 -70 -34 -44 -50 10 -6 30 -2 61 12 25 12 50 22 56 22 14 0 13 15 -2 28 -9 7 -30 3 -71 -12z" id="106"/>
<path d="M4491 5417 c-1 -10 -17 -55 -37 -100 -32 -76 -52 -108 -158 -261 -21 -31 -46 -80 -56 -108 -14 -44 -21 -54 -42 -56 -38 -5 -54 -28 -97 -140 -39 -103 -83 -172 -160 -246 l-41 -40 92 -48 c50 -27 93 -47 95 -45 2 3 -1 16 -7 31 -27 72 2 207 67 311 21 33 98 132 172 220 74 88 145 183 157 210 27 58 43 223 26 265 -8 19 -11 21 -11 7z" id="107"/>
<path d="M7972 5362 c-51 -53 -53 -56 -41 -84 8 -19 29 -38 58 -53 25 -12 63 -40 85 -62 l38 -38 -4 80 c-5 83 -34 170 -66 198 -15 13 -23 9 -70 -41z" id="108"/>
<path d="M2899 5348 c-30 -56 -34 -72 -34 -138 0 -96 26 -153 109 -235 79 -78 139 -109 376 -191 284 -98 352 -128 414 -185 30 -27 56 -49 59 -49 2 0 7 17 11 39 3 21 21 78 40 127 19 48 32 93 29 100 -2 7 -40 13 -101 17 -58 3 -123 13 -162 26 -96 31 -173 38 -205 17 -27 -17 -42 -14 -62 15 -9 12 -32 18 -91 21 -62 4 -89 11 -132 34 -70 38 -140 107 -166 164 -22 49 -50 230 -42 274 8 43 -7 30 -43 -36z" id="109"/>
<path d="M5860 5347 c0 -58 3 -67 41 -117 84 -110 135 -265 126 -375 l-5 -60 24 30 c13 17 37 55 52 85 24 48 27 67 27 150 0 162 -53 257 -177 319 -86 43 -88 42 -88 -32z" id="110"/>
<path d="M6117 5375 c-21 -7 -41 -16 -44 -19 -4 -3 7 -25 24 -49 41 -57 64 -127 70 -217 10 -142 -34 -234 -208 -429 -60 -68 -134 -156 -163 -195 -67 -88 -165 -242 -172 -273 -13 -50 -35 -19 -54 76 -9 45 -142 396 -155 409 -10 10 -139 -90 -216 -168 -68 -68 -90 -97 -103 -138 -11 -31 -30 -62 -49 -78 -29 -24 -37 -26 -92 -21 -33 3 -68 9 -78 12 -9 4 -17 3 -17 -2 0 -4 23 -14 52 -21 61 -14 142 -61 195 -113 21 -20 61 -76 88 -123 95 -165 81 -148 113 -132 41 21 172 46 244 46 35 0 92 -7 127 -15 35 -9 65 -14 66 -13 1 2 7 25 14 51 6 27 41 125 76 217 36 93 65 178 65 189 0 27 16 35 78 38 29 1 105 20 171 42 66 22 137 45 158 51 32 9 42 19 62 60 33 68 104 145 214 231 50 40 107 86 125 103 31 29 34 30 47 13 18 -26 39 -141 38 -212 -1 -33 -8 -80 -17 -104 -20 -55 -20 -54 5 -46 30 10 106 -4 124 -22 37 -36 201 65 193 119 -4 32 -63 39 -73 9 -10 -33 -54 -39 -77 -11 -24 29 -23 51 4 85 58 74 188 86 255 23 l21 -20 48 36 c26 20 51 36 55 36 5 0 9 4 9 10 0 23 -63 38 -207 49 -204 16 -286 41 -381 118 -24 20 -44 34 -45 32 -1 -2 -12 -22 -23 -44 -28 -52 -89 -93 -205 -139 -52 -21 -118 -49 -147 -63 -29 -14 -56 -22 -60 -19 -3 4 0 21 8 39 10 23 14 83 14 212 1 178 1 181 31 240 16 33 30 62 32 65 2 3 -18 11 -44 18 -25 7 -66 26 -90 42 -50 34 -53 34 -106 15z" id="111"/>
<path d="M6630 5333 c0 -103 36 -211 95 -281 37 -45 130 -102 197 -123 33 -11 121 -23 201 -29 78 -6 159 -15 181 -21 37 -10 40 -9 68 25 44 53 139 117 259 173 58 28 109 55 113 62 12 19 -65 13 -154 -14 -122 -37 -137 -35 -216 30 -37 31 -69 54 -71 52 -2 -2 6 -25 18 -51 31 -70 18 -77 -21 -11 -35 58 -63 85 -76 73 -3 -4 4 -23 16 -42 32 -53 19 -65 -18 -18 l-33 41 -122 -6 c-132 -6 -197 3 -271 37 -47 23 -108 75 -144 125 l-21 30 -1 -52z" id="112"/>
<path d="M6530 5313 c-25 -6 -64 -12 -87 -12 -33 -1 -48 -7 -68 -28 -26 -28 -55 -107 -55 -150 0 -30 27 -30 101 0 90 38 127 71 145 133 8 30 14 58 12 62 -2 4 -23 2 -48 -5z" id="113"/>
<path d="M7866 5254 c-10 -15 -24 -47 -30 -73 -10 -37 -17 -47 -37 -50 -32 -4 -39 -18 -27 -52 10 -29 93 -129 108 -129 4 0 10 44 13 98 2 53 11 115 19 137 11 28 12 48 6 68 -12 34 -27 34 -52 1z" id="114"/>
<path d="M2186 5220 c-47 -43 -79 -98 -169 -288 l-58 -123 31 -35 c67 -77 100 -182 100 -322 0 -79 24 -197 56 -278 42 -104 102 -159 217 -200 48 -17 50 -25 -42 135 -152 266 -164 376 -61 552 28 46 50 94 50 105 0 25 -41 44 -99 45 -20 0 -45 4 -56 8 -16 7 -14 9 14 14 19 4 44 7 57 7 36 0 29 15 -17 36 -53 23 -33 31 28 10 25 -9 48 -15 49 -13 2 2 -5 31 -16 65 -25 80 -43 223 -34 278 3 24 3 44 0 44 -4 0 -26 -18 -50 -40z" id="115"/>
<path d="M6582 5222 c-7 -22 -12 -61 -12 -88 0 -51 26 -173 41 -188 13 -14 48 22 59 62 8 30 6 41 -12 71 -12 19 -32 68 -43 109 l-22 73 -11 -39z" id="116"/>
<path d="M5761 5189 c-23 -27 -73 -70 -110 -96 -153 -107 -192 -164 -199 -289 -4 -67 0 -94 19 -150 l23 -69 7 69 c10 94 50 171 149 287 79 91 125 165 149 242 19 58 10 59 -38 6z" id="117"/>
<path d="M5828 5161 c-24 -74 -25 -83 -12 -120 36 -104 44 -291 19 -400 -9 -35 -14 -66 -12 -68 9 -8 141 151 153 185 18 52 17 187 -2 253 -16 56 -71 167 -102 207 -18 23 -18 22 -44 -57z" id="118"/>
<path d="M7981 5149 c11 -34 25 -102 31 -150 7 -49 16 -89 19 -89 12 0 59 104 66 143 5 34 2 40 -55 97 -33 33 -65 60 -70 60 -6 0 -1 -28 9 -61z" id="119"/>
<path d="M7923 5133 c-4 -27 -8 -83 -8 -126 0 -76 1 -80 33 -108 18 -16 37 -29 43 -29 18 0 -5 175 -37 288 -10 35 -22 26 -31 -25z" id="120"/>
<path d="M6480 5126 c-44 -28 -94 -46 -131 -46 -28 0 -29 -2 -29 -47 0 -27 3 -78 7 -116 6 -66 6 -67 26 -50 49 44 193 284 170 282 -5 0 -24 -10 -43 -23z" id="121"/>
<path d="M6506 5040 c-21 -41 -64 -110 -97 -152 -33 -43 -58 -78 -56 -78 3 0 49 18 103 41 102 42 138 65 128 81 -3 5 -14 48 -23 96 l-18 86 -37 -74z" id="122"/>
<path d="M7637 5039 c-14 -8 -15 -14 -6 -30 14 -28 -4 -78 -41 -114 -34 -33 -36 -40 -14 -49 37 -14 134 97 134 154 0 44 -33 62 -73 39z" id="123"/>
<path d="M5735 4918 c-74 -192 -96 -288 -102 -462 -4 -101 -3 -147 4 -145 6 2 37 42 68 89 49 73 61 101 86 199 20 77 29 138 29 191 0 87 -17 231 -29 243 -4 4 -29 -47 -56 -115z" id="124"/>
<path d="M4915 5008 c-22 -5 -75 -8 -117 -5 -43 2 -78 2 -78 0 0 -1 34 -40 76 -85 174 -188 195 -353 64 -515 l-49 -61 58 -16 c31 -9 78 -16 103 -16 56 0 79 24 100 103 16 65 16 348 -1 429 -13 60 -83 179 -104 177 -7 -1 -30 -5 -52 -11z" id="125"/>
<path d="M7500 4966 c-65 -43 -140 -116 -140 -137 0 -7 7 -8 18 -4 44 20 119 44 133 45 29 0 91 78 87 108 -4 39 -25 37 -98 -12z" id="126"/>
<path d="M5658 4898 c-98 -121 -119 -177 -119 -313 1 -79 6 -113 23 -160 l23 -60 7 105 c10 148 24 218 68 350 21 63 37 116 36 118 -2 1 -19 -17 -38 -40z" id="127"/>
<path d="M4787 4825 c10 -75 7 -220 -6 -260 -7 -24 -9 -12 -10 60 l-1 90 -33 -75 c-32 -73 -63 -130 -54 -100 2 8 8 26 12 40 6 22 3 21 -36 -16 -24 -22 -82 -70 -129 -106 -172 -133 -274 -297 -225 -362 10 -13 12 -33 8 -67 -5 -45 -4 -49 21 -60 39 -18 68 2 131 91 30 44 101 121 166 181 252 232 273 261 274 379 0 54 -6 77 -32 130 -18 36 -47 81 -64 100 l-30 35 8 -60z" id="128"/>
<path d="M6684 4830 c-21 -17 -45 -43 -51 -58 -27 -58 -45 -134 -38 -160 l7 -27 20 25 c40 50 118 233 105 247 -2 2 -21 -11 -43 -27z" id="129"/>
<path d="M5330 4797 c-19 -17 -74 -83 -122 -146 -64 -84 -88 -124 -88 -145 0 -28 4 -25 93 61 52 50 112 102 134 116 23 15 44 31 47 36 7 11 -12 99 -23 105 -3 2 -22 -10 -41 -27z" id="130"/>
<path d="M7384 4785 c-105 -53 -138 -79 -130 -100 4 -12 14 -9 50 19 102 78 226 83 226 9 0 -13 -5 -33 -10 -44 -13 -23 -2 -24 27 -4 30 21 45 77 31 116 -22 63 -76 64 -194 4z" id="131"/>
<path d="M6740 4778 c0 -8 -16 -46 -35 -87 -19 -40 -35 -74 -35 -77 0 -2 20 6 45 18 l45 22 0 62 c0 35 -4 66 -10 69 -5 3 -10 0 -10 -7z" id="132"/>
<path d="M2342 4758 c-3 -12 -29 -69 -59 -126 -47 -93 -53 -111 -53 -166 0 -108 26 -174 155 -396 68 -116 84 -152 99 -222 5 -21 12 -28 29 -28 25 0 79 -27 153 -78 55 -38 78 -38 197 -7 104 28 115 21 169 -99 29 -66 78 -112 157 -150 65 -31 68 -31 221 -31 139 0 166 3 260 29 58 15 163 38 234 50 86 15 132 27 136 37 46 100 97 195 122 226 31 39 80 134 73 141 -2 3 -26 -11 -52 -31 -181 -132 -459 -186 -733 -142 -202 33 -333 84 -427 169 -67 60 -103 118 -153 246 -23 58 -45 110 -49 115 -3 6 -8 -15 -11 -45 l-6 -55 -7 50 c-19 132 -31 145 -57 63 -16 -53 -39 -102 -39 -83 0 6 6 39 14 75 25 116 24 118 -112 129 -7 1 -28 15 -47 32 -46 40 -77 123 -79 211 -2 66 -2 67 -30 66 -15 -1 -41 9 -57 20 -36 27 -40 27 -48 0z" id="133"/>
<path d="M7023 4741 c-45 -21 -72 -56 -55 -73 7 -7 17 -3 31 11 43 43 131 19 131 -36 0 -55 -97 -134 -182 -148 -25 -5 -38 -12 -38 -22 0 -23 112 -12 175 18 60 28 129 95 139 133 15 60 -54 136 -125 136 -19 0 -53 -9 -76 -19z" id="134"/>
<path d="M6498 4673 c-65 -67 -128 -148 -128 -165 0 -4 7 -8 15 -8 8 0 30 -14 49 -31 l36 -31 55 56 c48 47 55 60 48 79 -10 28 -10 103 0 140 4 15 4 27 -1 27 -4 0 -37 -30 -74 -67z" id="135"/>
<path d="M7915 4684 c-36 -28 -99 -57 -179 -85 l-79 -26 -48 -111 c-46 -108 -102 -206 -142 -249 -30 -33 -11 -28 65 16 165 97 303 233 368 364 45 89 49 116 15 91z" id="136"/>
<path d="M6715 4600 c-17 -11 -38 -20 -47 -20 -18 0 -88 -56 -88 -71 0 -4 12 -4 28 1 15 5 46 14 70 20 35 9 45 17 57 47 8 20 14 37 12 39 -1 2 -16 -6 -32 -16z" id="137"/>
<path d="M2914 4556 c-60 -14 -197 -76 -209 -95 -3 -6 12 -19 34 -30 62 -32 104 -91 156 -219 80 -196 133 -260 270 -328 159 -78 481 -117 663 -79 151 31 250 72 358 152 103 75 105 126 7 174 -45 23 -58 24 -243 24 -202 0 -193 -1 -284 43 -4 2 -5 -6 -1 -19 17 -52 15 -52 -13 1 -17 30 -41 65 -55 78 l-25 23 -8 -73 c-9 -88 -21 -63 -23 48 -1 55 -5 75 -19 87 -14 13 -21 14 -30 5 -9 -9 -12 -5 -12 20 0 18 -3 32 -6 32 -3 0 -30 -21 -61 -47 l-55 -47 22 37 c12 21 33 46 46 56 28 22 29 27 8 35 -18 7 -79 -22 -144 -68 -72 -51 -77 -52 -44 -11 18 22 57 56 88 75 30 19 55 37 55 40 1 9 -80 51 -138 72 -74 26 -251 33 -337 14z" id="138"/>
<path d="M7550 4553 c-90 -17 -263 -68 -328 -98 -144 -67 -187 -135 -139 -223 14 -26 28 -68 32 -94 6 -36 12 -48 25 -48 31 0 168 39 207 58 49 26 120 101 160 172 33 57 103 215 103 231 0 9 -16 10 -60 2z" id="139"/>
<path d="M7886 4495 c-76 -110 -232 -241 -376 -316 -65 -34 -65 -34 -32 -37 60 -6 194 27 279 68 76 38 84 44 108 94 22 46 70 234 61 243 -1 2 -20 -22 -40 -52z" id="140"/>
<path d="M6685 4495 c-67 -14 -192 -62 -201 -76 -3 -5 -2 -18 1 -29 6 -19 8 -19 35 -5 79 41 146 8 245 -118 53 -68 71 -83 145 -121 47 -25 98 -58 115 -75 l29 -31 13 22 c15 28 17 87 2 124 -5 16 -47 67 -93 114 -66 69 -85 95 -94 133 -7 25 -11 52 -10 59 4 18 -111 20 -187 3z" id="141"/>
<path d="M6185 4424 c-71 -25 -155 -47 -186 -51 l-56 -6 -31 -86 c-16 -47 -49 -135 -72 -196 -89 -229 -62 -333 97 -376 92 -25 93 -25 93 16 0 47 35 149 71 208 l30 48 -33 42 c-50 66 -51 67 -44 67 4 0 27 -19 51 -41 25 -23 45 -39 45 -37 0 3 -7 25 -15 48 -19 53 -13 64 11 19 16 -31 17 -32 30 -14 12 16 12 22 -1 42 -9 13 -20 35 -25 51 -9 25 -7 24 24 -11 38 -42 61 -42 52 2 -6 24 -5 25 8 7 8 -10 19 -16 23 -15 5 2 55 51 110 109 l102 106 -30 47 c-29 47 -61 68 -102 66 -12 0 -80 -21 -152 -45z" id="142"/>
<path d="M1924 4370 c-44 -22 -92 -50 -109 -64 -28 -23 -29 -25 -14 -43 9 -10 38 -61 64 -113 55 -112 102 -172 164 -211 78 -50 134 -47 209 10 l24 18 -59 59 c-67 67 -113 162 -133 274 -20 113 -19 110 -44 110 -13 0 -59 -18 -102 -40z" id="143"/>
<path d="M6515 4339 c-49 -31 -175 -146 -175 -159 0 -16 101 -19 190 -5 52 8 128 15 168 15 39 0 72 3 72 7 0 15 -89 119 -124 145 -50 36 -71 35 -131 -3z" id="144"/>
<path d="M4650 4203 c-62 -59 -129 -132 -150 -163 -75 -110 -136 -143 -195 -104 -23 15 -25 15 -31 -2 -18 -57 -30 -83 -57 -122 -27 -40 -29 -48 -22 -100 l7 -56 19 25 c10 13 19 32 19 42 0 19 37 97 46 97 3 0 2 -10 -1 -22 -4 -13 -9 -32 -12 -43 -3 -11 23 10 57 48 34 37 66 67 72 67 6 0 3 -9 -7 -20 -38 -42 -4 -27 104 47 149 101 240 186 278 260 37 70 50 132 31 144 -29 19 -51 5 -158 -98z" id="145"/>
<path d="M1695 4212 c-22 -20 -69 -63 -104 -94 l-63 -57 63 -73 c88 -103 139 -138 229 -159 34 -8 147 9 218 32 l34 11 -50 29 c-70 40 -128 111 -192 236 -64 125 -75 132 -135 75z" id="146"/>
<path d="M4846 4213 c-4 -15 -16 -47 -28 -71 -11 -24 -18 -45 -16 -47 2 -3 31 7 64 20 32 13 85 27 117 31 46 5 55 9 46 20 -15 18 -106 61 -145 69 -28 5 -32 3 -38 -22z" id="147"/>
<path d="M7680 4142 c-62 -21 -96 -26 -200 -28 -89 -1 -148 -8 -204 -23 -44 -12 -95 -21 -115 -22 -32 0 -34 -1 -17 -12 11 -7 37 -27 58 -46 l39 -34 102 6 c174 10 304 58 387 141 24 26 40 46 35 45 -6 -1 -44 -13 -85 -27z" id="148"/>
<path d="M6575 4148 c-44 -5 -84 -13 -88 -17 -11 -11 65 -46 144 -66 96 -25 106 -37 25 -30 -48 5 -66 4 -62 -4 12 -18 57 -38 119 -52 76 -16 88 -34 18 -26 -44 5 -51 4 -41 -8 6 -7 30 -17 53 -20 96 -17 184 -72 212 -135 36 -81 8 -220 -62 -304 -13 -16 -22 -30 -20 -32 4 -5 106 29 136 45 13 7 28 35 41 79 28 90 60 250 54 267 -3 8 -24 20 -47 28 -47 15 -58 39 -32 67 36 40 -12 113 -104 159 -118 60 -180 69 -346 49z" id="149"/>
<path d="M6305 4124 c-48 -18 -93 -58 -111 -100 -7 -18 -16 -69 -19 -115 l-6 -84 21 40 c11 22 18 32 16 23 -12 -43 -18 -167 -9 -183 9 -15 12 -10 17 26 4 24 14 55 22 69 l15 25 -5 -30 c-3 -16 -9 -64 -12 -105 -5 -61 -4 -78 9 -88 13 -11 16 -5 21 40 4 29 16 71 27 93 12 25 17 30 14 15 -3 -14 -8 -67 -12 -118 l-6 -93 51 -49 c27 -26 59 -53 69 -58 18 -10 19 -7 15 48 -5 68 8 113 48 169 53 73 151 102 221 65 17 -8 33 -13 36 -11 2 3 -1 24 -7 47 -6 23 -11 59 -10 79 1 20 2 41 1 47 -2 24 -217 207 -276 235 -68 33 -74 33 -130 13z" id="150"/>
<path d="M4892 4093 c-23 -8 -40 -18 -37 -23 3 -5 35 -20 73 -34 37 -14 119 -55 182 -90 63 -36 116 -63 118 -61 5 5 -95 178 -118 203 -18 19 -30 22 -98 21 -42 0 -96 -7 -120 -16z" id="151"/>
<path d="M4770 3998 c-6 -24 -13 -50 -16 -59 -6 -21 49 -77 91 -94 30 -13 78 -19 124 -16 l25 1 -26 28 c-14 15 -45 56 -68 92 -64 101 -112 118 -130 48z" id="152"/>
<path d="M1410 3980 c-41 -28 -99 -58 -127 -67 -29 -9 -53 -20 -53 -23 0 -4 60 -22 133 -40 107 -27 157 -34 262 -37 l130 -4 -51 30 c-28 16 -84 66 -124 110 -40 45 -78 81 -84 81 -6 0 -45 -23 -86 -50z" id="153"/>
<path d="M4677 3985 c-27 -25 -117 -90 -200 -147 -84 -56 -179 -129 -213 -162 -55 -55 -61 -66 -67 -111 -3 -27 -3 -52 -1 -54 10 -10 116 23 190 60 167 82 305 254 348 432 9 37 -1 34 -57 -18z" id="154"/>
<path d="M7081 4012 c-6 -11 -9 -27 -9 -38 1 -10 -2 -28 -5 -39 -6 -16 0 -24 28 -39 47 -25 52 -51 31 -160 -41 -216 -70 -271 -160 -296 -54 -15 -51 -26 9 -36 57 -8 86 -1 125 32 47 40 60 75 75 200 8 76 18 121 29 133 25 28 22 154 -5 198 -34 55 -99 80 -118 45z" id="155"/>
<path d="M4927 3969 c25 -43 81 -107 105 -120 12 -7 47 -8 94 -4 64 6 72 9 57 20 -35 24 -250 135 -262 135 -8 0 -6 -10 6 -31z" id="156"/>
<path d="M2322 3900 c7 -69 63 -179 158 -305 95 -128 113 -156 200 -324 73 -140 57 -129 171 -115 37 4 104 -1 205 -16 346 -53 573 -22 836 112 120 61 213 153 247 242 22 61 30 206 11 206 -10 0 -46 -70 -70 -137 -14 -38 -20 -41 -135 -59 -49 -8 -157 -31 -240 -50 -178 -42 -268 -50 -394 -35 -161 18 -256 80 -316 207 -20 41 -43 78 -52 81 -9 4 -57 -4 -107 -17 -110 -27 -146 -21 -219 39 -33 28 -64 43 -102 51 -53 11 -55 13 -65 53 -19 74 -25 82 -80 99 l-52 17 4 -49z" id="157"/>
<path d="M2220 3894 c-36 -18 -93 -43 -127 -54 -34 -12 -66 -27 -71 -33 -6 -7 -24 -49 -40 -94 -35 -96 -79 -164 -127 -196 -19 -13 -32 -27 -28 -30 13 -14 248 -7 306 8 108 28 216 94 237 144 10 26 7 38 -29 112 -22 46 -44 105 -48 130 l-8 47 -65 -34z" id="158"/>
<path d="M6109 3883 c-65 -151 -63 -244 8 -398 42 -90 52 -104 81 -115 46 -17 94 -61 163 -152 86 -112 112 -122 171 -60 19 20 51 62 70 92 19 30 42 61 51 69 10 7 17 16 17 20 0 3 -37 6 -83 7 -71 0 -92 4 -150 31 -69 33 -150 101 -199 167 -21 29 -28 34 -29 20 0 -10 -11 13 -24 51 -12 39 -23 61 -24 50 -1 -15 -4 -16 -13 -7 -8 8 -12 55 -12 142 0 71 -2 130 -4 130 -1 0 -12 -21 -23 -47z" id="159"/>
<path d="M5511 3903 c-20 -4 -17 -8 25 -27 60 -28 110 -69 129 -106 13 -26 15 -26 60 -16 39 9 45 14 40 31 -3 11 -8 35 -12 53 -5 29 -11 34 -57 46 -58 16 -149 25 -185 19z" id="160"/>
<path d="M6750 3876 c0 -8 11 -21 25 -30 14 -9 39 -35 55 -58 26 -35 30 -50 30 -103 0 -116 -18 -153 -62 -126 -15 9 -19 8 -24 -6 -15 -53 -58 -121 -89 -142 -37 -25 -97 -32 -150 -18 -25 7 -28 6 -17 -5 8 -8 37 -13 75 -13 48 0 77 7 129 32 122 57 199 152 214 262 13 99 -29 159 -143 204 -35 14 -43 14 -43 3z" id="161"/>
<path d="M5338 3868 c-39 -10 -47 -25 -26 -46 25 -25 -6 -34 -69 -21 -59 12 -59 12 -131 -26 -66 -35 -191 -139 -180 -151 3 -2 30 5 59 17 127 50 296 61 427 28 l82 -20 38 23 c20 13 54 31 75 40 43 20 41 33 -10 79 -42 38 -74 55 -133 73 -60 18 -78 18 -132 4z" id="162"/>
<path d="M1265 3805 c137 -125 311 -240 434 -286 45 -17 59 -18 89 -8 56 18 114 85 149 169 53 129 53 124 -3 116 -284 -40 -437 -30 -648 43 -33 12 -64 21 -70 21 -6 0 16 -25 49 -55z" id="163"/>
<path d="M6740 3814 c0 -11 7 -46 15 -77 18 -70 18 -64 0 -71 -9 -3 -38 3 -66 14 -65 26 -98 25 -140 -3 -59 -39 -93 -99 -97 -170 -3 -45 1 -67 12 -82 15 -19 15 -18 16 22 0 55 15 91 53 132 63 66 148 79 232 36 27 -13 50 -23 52 -21 2 1 6 30 9 63 7 67 -7 102 -60 152 -24 23 -26 23 -26 5z" id="164"/>
<path d="M5709 3715 c-97 -36 -97 -34 -96 -132 0 -104 -20 -189 -68 -290 -19 -40 -29 -73 -23 -73 24 0 184 176 213 233 28 59 28 59 12 105 -22 60 -21 79 3 127 11 22 20 41 20 42 0 6 -26 1 -61 -12z" id="165"/>
<path d="M5791 3686 c-42 -68 -20 -121 128 -296 83 -100 119 -166 128 -239 l6 -52 39 6 c22 4 81 7 131 7 76 0 105 -4 167 -27 41 -15 92 -30 112 -32 36 -5 41 -1 109 67 50 52 89 80 135 101 56 25 67 35 88 78 14 27 33 56 42 65 22 23 12 30 -44 30 -42 -1 -52 -6 -101 -50 -29 -27 -80 -88 -112 -135 -97 -145 -157 -162 -240 -71 -24 27 -61 71 -82 98 -44 57 -93 94 -139 103 -25 5 -34 13 -36 31 -5 45 -76 190 -90 185 -11 -4 -12 4 -7 37 l7 43 -37 -35 -37 -35 22 44 c25 51 22 55 -49 66 -25 4 -62 15 -83 26 l-37 19 -20 -34z" id="166"/>
<path d="M5085 3630 c-38 -11 -99 -30 -135 -43 -65 -23 -65 -24 -102 -98 -35 -69 -113 -307 -105 -316 3 -2 36 3 75 12 90 21 210 92 351 207 58 48 145 118 193 155 48 38 87 71 87 75 2 13 -103 28 -197 27 -63 0 -122 -7 -167 -19z" id="167"/>
<path d="M5525 3622 c-22 -13 -70 -47 -107 -74 -64 -47 -68 -52 -68 -88 0 -109 -52 -238 -132 -326 l-52 -57 34 8 c64 14 222 74 242 92 26 24 86 142 110 218 21 66 36 239 22 247 -5 3 -27 -6 -49 -20z" id="168"/>
<path d="M6615 3598 c-11 -6 -32 -22 -47 -36 -26 -24 -27 -27 -11 -44 27 -30 93 -21 93 12 0 13 -5 17 -21 13 -17 -5 -20 -2 -17 13 4 25 41 30 62 9 21 -22 20 -37 -5 -69 -26 -33 -84 -36 -122 -6 -22 17 -26 18 -31 4 -11 -29 -6 -62 10 -68 34 -13 107 -6 140 14 34 22 74 90 74 128 0 37 -79 56 -125 30z" id="169"/>
<path d="M4360 3516 c-14 -8 -51 -21 -84 -29 -32 -9 -60 -18 -63 -21 -3 -3 7 -36 23 -75 l28 -69 100 -48 c55 -27 122 -66 148 -87 l48 -38 -6 58 c-10 87 -50 203 -91 267 -40 60 -57 67 -103 42z" id="170"/>
<path d="M2485 3498 c-18 -58 -71 -93 -255 -169 -113 -47 -192 -109 -205 -162 -29 -113 94 -279 240 -322 126 -39 221 2 232 99 10 82 -60 182 -144 205 -65 18 -116 -24 -77 -64 14 -13 28 -16 65 -11 43 6 49 4 72 -24 51 -60 43 -130 -18 -155 -66 -28 -141 -12 -205 43 -98 83 -105 188 -20 286 69 78 157 108 245 83 169 -48 225 -61 231 -55 9 10 -136 268 -152 268 -1 0 -6 -10 -9 -22z" id="171"/>
<path d="M4145 3419 c-38 -58 -101 -125 -141 -150 -19 -11 -34 -28 -34 -37 0 -54 118 -208 206 -270 l32 -22 -5 63 c-3 36 3 113 15 185 l19 124 -27 69 c-14 38 -29 71 -32 74 -3 3 -17 -13 -33 -36z" id="172"/>
<path d="M5235 3398 c-154 -133 -295 -219 -405 -247 -40 -10 -69 -21 -64 -23 40 -25 170 -51 256 -52 l97 -1 46 45 c53 52 106 135 128 200 19 57 31 140 20 139 -4 0 -39 -27 -78 -61z" id="173"/>
<path d="M5850 3319 c-60 -27 -107 -74 -136 -134 -37 -79 -33 -90 21 -56 25 16 90 43 145 60 55 18 102 36 105 40 5 9 -50 90 -69 103 -15 10 -15 10 -66 -13z" id="174"/>
<path d="M4290 3276 c0 -9 77 -161 173 -339 l84 -157 7 76 c3 43 6 109 6 149 0 64 -3 77 -29 112 -16 22 -42 49 -58 60 -43 30 -183 105 -183 99z" id="175"/>
<path d="M4249 3168 c-16 -94 -17 -217 -1 -244 6 -12 59 -50 117 -84 58 -34 108 -66 111 -71 3 -5 14 -14 26 -20 18 -10 19 -8 13 13 -8 24 -245 478 -250 478 -2 0 -9 -33 -16 -72z" id="176"/>
<path d="M5980 3189 c-8 -5 -44 -18 -80 -30 -96 -32 -174 -74 -204 -109 -23 -28 -26 -40 -26 -107 0 -41 3 -73 8 -71 123 57 265 133 290 155 31 25 34 35 39 94 6 67 -1 85 -27 68z" id="177"/>
<path d="M3718 3135 c-37 -13 -93 -29 -125 -35 -52 -11 -55 -13 -38 -26 10 -8 33 -14 49 -14 52 0 156 -29 225 -62 90 -43 216 -169 262 -263 57 -117 51 -227 -16 -271 -39 -25 -124 -15 -170 21 -46 35 -69 84 -55 120 12 32 54 34 87 3 20 -19 25 -20 33 -8 25 39 -13 110 -59 110 -32 0 -80 -48 -92 -93 -21 -78 31 -176 114 -216 51 -25 87 -26 125 -7 68 35 102 104 102 204 0 165 -103 353 -261 479 -110 86 -104 84 -181 58z" id="178"/>
<path d="M2779 3099 c-29 -16 -39 -30 -57 -82 -62 -177 -41 -372 65 -580 l36 -72 13 72 c32 189 127 363 252 464 40 32 42 37 41 84 -1 27 -4 64 -8 80 -6 29 -10 31 -81 42 -116 18 -218 15 -261 -8z" id="179"/>
<path d="M3157 3083 c-6 -11 11 -179 23 -224 13 -46 27 -58 130 -110 119 -60 221 -162 277 -279 23 -47 47 -105 54 -130 14 -45 14 -45 20 -15 10 48 10 153 -1 245 -23 185 -84 324 -195 438 l-71 72 -101 0 c-56 0 -108 3 -116 6 -8 3 -17 2 -20 -3z" id="180"/>
<path d="M6143 3072 c-9 -6 -4 -23 18 -67 16 -32 32 -76 35 -97 4 -21 10 -41 15 -44 22 -13 44 174 24 205 -7 13 -74 14 -92 3z" id="181"/>
<path d="M6032 3044 c-11 -19 -8 -65 14 -218 9 -60 13 -128 9 -150 l-6 -41 36 35 c60 57 108 128 100 148 -3 9 -11 39 -16 65 -5 27 -23 78 -39 113 -28 57 -34 64 -60 64 -16 0 -33 -7 -38 -16z" id="182"/>
<path d="M5004 2988 c-15 -29 -45 -79 -67 -112 -59 -88 -286 -398 -310 -423 -26 -29 -20 -35 26 -22 21 5 41 7 46 4 5 -3 21 20 35 50 32 70 69 116 135 165 69 52 122 67 291 84 80 8 162 20 183 26 83 24 145 115 131 189 -11 56 -62 64 -117 20 -36 -28 -34 -47 4 -51 41 -4 56 -28 44 -64 -15 -42 -83 -72 -206 -89 -58 -8 -132 -21 -165 -29 -113 -28 -124 -29 -130 -12 -3 9 25 74 68 153 79 149 85 163 69 163 -6 0 -23 -24 -37 -52z" id="183"/>
<path d="M5957 2980 c-15 -12 -70 -42 -124 -67 -54 -25 -111 -55 -126 -66 l-29 -20 7 -97 c4 -60 2 -126 -5 -174 -6 -43 -10 -79 -8 -81 6 -6 122 136 166 203 72 110 162 305 149 319 -2 2 -16 -6 -30 -17z" id="184"/>
<path d="M5990 2900 c-1 -23 -81 -177 -133 -255 -25 -38 -75 -104 -111 -145 -36 -41 -64 -76 -62 -78 6 -5 203 95 262 134 69 43 79 73 71 216 -4 60 -11 117 -16 126 -8 14 -10 14 -11 2z" id="185"/>
<path d="M3063 2832 c-135 -136 -241 -430 -190 -528 19 -36 134 -162 186 -203 l38 -30 -5 93 c-8 154 26 293 95 382 l34 46 -35 111 c-19 62 -37 129 -41 150 -3 20 -10 37 -15 37 -6 0 -36 -26 -67 -58z" id="186"/>
<path d="M3214 2718 c18 -60 60 -156 116 -268 98 -197 136 -331 164 -579 8 -74 20 -139 26 -145 7 -7 10 -5 10 7 0 9 18 74 41 144 22 70 49 170 60 221 18 87 19 98 4 153 -57 224 -173 381 -345 468 -45 23 -83 41 -85 41 -2 0 2 -19 9 -42z" id="187"/>
<path d="M5199 2567 c-49 -32 -71 -81 -66 -144 2 -28 11 -63 21 -78 l18 -27 24 53 c14 29 44 70 67 91 l41 39 -19 35 c-27 51 -46 58 -86 31z" id="188"/>
<path d="M5326 2524 c19 -36 34 -72 34 -79 0 -8 13 -21 30 -30 16 -8 41 -32 56 -53 l26 -37 -7 45 c-10 71 -54 151 -103 187 -67 51 -76 43 -36 -33z" id="189"/>
<path d="M3206 2518 c-72 -97 -108 -320 -71 -445 14 -47 22 -56 113 -123 53 -40 125 -98 160 -127 34 -30 62 -53 62 -51 0 2 -7 62 -15 133 -17 147 -42 261 -78 356 -35 94 -129 289 -138 289 -4 0 -19 -15 -33 -32z" id="190"/>
<path d="M4336 2480 c-91 -98 -131 -223 -102 -323 21 -74 30 -80 99 -66 l56 12 -14 27 c-8 16 -19 59 -25 97 -12 74 3 183 34 258 19 44 19 45 7 45 -4 0 -29 -23 -55 -50z" id="191"/>
<path d="M4417 2496 c-24 -50 -52 -207 -43 -241 l7 -29 19 41 c10 23 37 62 61 88 l42 45 -29 65 c-16 35 -32 65 -35 65 -3 0 -13 -16 -22 -34z" id="192"/>
<path d="M5274 2432 c-36 -42 -53 -72 -65 -115 -7 -24 -2 -41 24 -91 29 -55 32 -69 32 -148 0 -80 1 -85 17 -72 9 9 27 39 39 67 21 45 24 68 24 172 0 110 -17 226 -33 224 -4 0 -21 -17 -38 -37z" id="193"/>
<path d="M4614 2381 c-44 -27 -46 -32 -33 -104 l12 -65 60 39 c33 22 65 39 71 39 32 1 38 17 21 56 -9 21 -21 42 -28 46 -22 14 -71 8 -103 -11z" id="194"/>
<path d="M5378 2271 c3 -77 0 -124 -11 -160 -8 -28 -12 -51 -8 -51 15 0 81 77 96 112 20 50 19 76 -6 123 -21 40 -57 85 -68 85 -4 0 -5 -49 -3 -109z" id="195"/>
<path d="M4475 2339 c-89 -107 -99 -239 -19 -239 44 0 94 72 94 136 0 44 -27 134 -40 134 -5 0 -20 -14 -35 -31z" id="196"/>
<path d="M4906 2306 c-46 -11 -50 -14 -62 -54 -6 -23 -19 -54 -28 -67 -9 -13 -16 -27 -16 -30 0 -21 123 84 162 137 22 31 20 32 -56 14z" id="197"/>
<path d="M4765 2271 c-79 -28 -115 -50 -172 -104 -67 -63 -68 -77 -5 -77 106 0 185 50 218 136 23 60 17 66 -41 45z" id="198"/>
<path d="M4967 2249 c-16 -22 -55 -58 -88 -82 l-60 -42 42 -20 41 -20 38 42 c36 41 66 114 58 146 -2 11 -12 4 -31 -24z" id="199"/>
<path d="M3935 2111 c38 -41 136 -89 197 -97 38 -5 52 -3 77 16 17 12 29 26 25 31 -14 23 -72 41 -176 54 -62 8 -122 18 -133 21 -16 5 -15 1 10 -25z" id="200"/>
<path d="M3890 2089 c21 -39 83 -100 121 -120 44 -22 112 -25 128 -5 9 11 4 15 -26 20 -55 9 -135 49 -181 90 -45 41 -58 46 -42 15z" id="201"/>
<path d="M4720 2085 c-19 -7 -45 -14 -57 -14 -31 -1 -29 -13 5 -33 26 -16 34 -16 91 -2 34 8 72 19 83 25 21 11 21 12 -3 25 -30 17 -74 16 -119 -1z" id="202"/>
<path d="M4295 2046 c-120 -56 -254 -255 -289 -428 -40 -198 5 -422 110 -547 33 -40 39 -35 19 15 -29 75 -55 199 -61 293 -10 156 31 326 109 448 30 48 172 172 244 215 l48 28 -65 0 c-47 0 -79 -7 -115 -24z" id="203"/>
<path d="M4473 2026 c-67 -32 -139 -81 -103 -71 14 4 63 8 110 11 91 4 79 -4 -38 -26 -82 -14 -149 -44 -189 -83 -40 -38 -43 -56 -5 -29 39 28 116 52 165 51 l42 0 -60 -18 c-143 -42 -221 -109 -257 -223 -19 -62 -23 -95 -23 -213 0 -159 16 -243 70 -361 32 -70 105 -187 125 -199 5 -3 16 10 24 30 26 61 102 167 192 266 l85 94 -5 60 c-3 33 -8 74 -11 90 -5 25 27 -46 42 -95 4 -12 7 -12 19 4 20 28 18 64 -10 151 -13 41 -22 75 -20 75 7 0 47 -85 59 -125 l13 -40 12 27 c18 39 -1 119 -53 228 -53 109 -53 111 -22 75 43 -49 78 -114 96 -179 16 -57 17 -59 24 -32 11 41 -11 147 -45 222 -16 35 -27 64 -25 64 13 0 71 -102 85 -149 17 -56 17 -56 24 -24 7 29 -1 67 -41 203 -2 8 5 -1 17 -20 l21 -35 -5 34 c-16 96 -87 196 -171 240 -51 27 -78 26 -142 -3z" id="204"/>
<path d="M4758 2001 l-36 -6 18 -23 c29 -35 149 -72 236 -72 111 0 115 8 27 47 -147 66 -158 68 -245 54z" id="205"/>
<path d="M4859 1839 c30 -53 32 -54 74 -53 53 2 137 37 168 70 28 30 22 37 -19 23 -34 -12 -189 -7 -231 6 -23 8 -23 7 8 -46z" id="206"/>
<path d="M4825 1801 c22 -143 15 -202 -37 -325 -44 -102 -101 -185 -218 -316 -131 -147 -220 -278 -220 -324 0 -14 38 -86 45 -86 2 0 11 24 21 53 38 117 112 238 267 437 50 63 105 147 124 185 64 136 77 279 32 370 l-19 40 5 -34z" id="207"/>
<path d="M4141 936 c-9 -11 -9 -25 -1 -55 10 -39 30 -57 30 -27 0 49 54 18 108 -61 75 -111 63 -145 -14 -40 -54 73 -71 84 -49 31 31 -75 98 -143 130 -130 21 8 19 63 -2 104 -24 43 -161 192 -177 192 -8 0 -19 -6 -25 -14z" id="208"/>
<path d="M413 5545 c7 -71 49 -155 103 -210 25 -25 49 -45 53 -45 4 0 1 27 -8 60 -15 58 -12 92 13 150 5 11 -15 25 -80 57 l-87 41 6 -53z" id="209"/>
<path d="M599 5478 c-38 -71 20 -249 80 -248 9 1 46 29 83 64 l67 63 -29 35 c-26 32 -152 108 -179 108 -5 0 -16 -10 -22 -22z" id="210"/>
<path d="M390 5404 c0 -100 48 -244 108 -322 22 -28 113 -92 133 -92 3 0 4 24 1 54 -3 40 1 65 17 101 24 55 24 55 12 55 -18 0 -134 73 -168 104 -18 17 -48 58 -68 90 l-35 60 0 -50z" id="211"/>
<path d="M1115 5376 c-79 -19 -84 -26 -38 -50 117 -62 185 -160 141 -204 -7 -7 -8 -12 -2 -12 6 0 14 4 20 9 5 6 27 17 49 26 39 15 39 15 19 -2 -11 -10 -31 -26 -45 -36 l-24 -18 29 6 c15 3 42 8 60 10 l31 5 -27 -12 c-16 -7 -28 -14 -28 -18 0 -3 23 -16 51 -29 27 -14 56 -32 62 -41 7 -9 26 -25 42 -35 17 -10 38 -25 48 -34 21 -17 116 -24 134 -9 18 14 16 63 -3 100 -25 49 -99 122 -194 193 -84 62 -120 107 -120 149 0 13 -13 16 -77 15 -43 0 -101 -6 -128 -13z" id="212"/>
<path d="M869 5332 c-76 -22 -190 -166 -205 -259 -5 -33 -2 -44 21 -71 28 -33 73 -62 98 -62 8 0 19 23 28 62 9 41 21 65 34 72 11 6 22 12 24 13 2 2 -2 9 -9 18 -23 27 -2 28 25 1 14 -14 27 -26 29 -26 2 0 -3 19 -11 41 -7 23 -12 43 -11 45 2 2 19 -18 38 -44 29 -38 46 -51 92 -66 l57 -19 25 30 c14 16 41 41 60 54 20 13 36 32 36 42 0 28 -77 104 -134 132 -49 24 -166 46 -197 37z" id="213"/>
<path d="M1523 5253 c-24 -2 -43 -7 -43 -12 0 -4 23 -24 51 -45 85 -66 158 -173 159 -233 0 -38 -42 -77 -84 -77 -20 0 -36 -3 -36 -6 0 -3 16 -22 36 -41 20 -18 40 -43 46 -54 11 -19 10 -19 -16 -2 -31 21 -32 18 -6 -25 24 -40 26 -58 3 -35 -16 15 -18 12 -34 -54 -22 -84 -66 -179 -111 -237 -32 -42 -34 -43 -78 -37 -68 8 -79 -6 -33 -44 21 -17 54 -37 74 -43 32 -9 43 -7 85 13 80 40 137 99 174 181 76 169 92 197 130 237 l41 42 -30 28 c-48 45 -87 116 -147 267 -60 152 -81 185 -117 182 -12 -1 -41 -3 -64 -5z" id="214"/>
<path d="M1120 5039 c-24 -45 -5 -72 83 -114 86 -42 127 -85 127 -131 0 -36 -30 -59 -116 -88 -44 -14 -103 -40 -132 -56 l-53 -31 33 -40 c84 -105 84 -104 114 -94 21 8 40 30 70 85 22 41 62 98 87 127 43 46 46 54 37 78 -7 19 -6 44 5 91 23 100 21 119 -18 143 -40 25 -137 51 -189 51 -27 0 -40 -5 -48 -21z" id="215"/>
<path d="M855 5029 c-9 -24 -35 -160 -35 -180 0 -29 22 -18 33 16 17 49 77 145 92 145 28 0 45 -13 76 -61 17 -27 35 -49 40 -49 15 0 22 69 8 86 -32 39 -203 73 -214 43z" id="216"/>
<path d="M940 4957 c0 -7 13 -37 28 -67 23 -44 34 -56 56 -58 26 -3 27 -2 16 20 -42 83 -100 144 -100 105z" id="217"/>
<path d="M635 4921 c-54 -81 -39 -207 41 -358 19 -35 34 -73 34 -84 0 -11 13 -25 33 -35 17 -9 55 -34 83 -55 49 -38 77 -47 100 -31 6 4 38 43 72 86 64 84 65 92 24 129 -19 17 -22 17 -51 2 -48 -24 -101 -23 -123 4 -15 19 -18 41 -18 117 0 93 0 95 -26 105 -15 5 -28 8 -29 7 -2 -2 -12 -19 -24 -38 -29 -48 -27 -15 3 43 13 26 20 47 17 47 -4 0 -24 -14 -45 -32 l-38 -31 17 32 c9 18 32 42 52 53 l36 22 -45 13 c-25 7 -51 20 -58 28 -19 22 -27 19 -55 -24z" id="218"/>
<path d="M1426 4934 c-10 -26 -7 -62 7 -67 7 -3 5 -6 -5 -6 -10 -1 -18 -8 -18 -16 0 -8 8 -15 18 -16 12 0 11 -3 -7 -10 -18 -7 -22 -14 -16 -32 16 -53 17 -67 4 -67 -9 -1 -7 -6 5 -15 19 -15 19 -15 -3 -15 -12 0 -32 -5 -44 -12 -21 -11 -20 -12 18 -23 l40 -12 -40 -7 c-22 -4 -48 -10 -58 -13 -10 -2 -33 -36 -52 -74 -51 -101 -104 -126 -167 -79 -17 12 -33 18 -37 13 -3 -5 -21 -31 -40 -58 l-34 -48 24 -20 c37 -30 124 -19 223 29 56 26 97 39 138 42 50 4 62 9 84 35 46 55 93 167 109 259 9 59 -11 114 -59 163 -57 56 -82 70 -90 49z" id="219"/>
<path d="M894 4885 c-21 -51 -18 -55 31 -55 25 0 45 2 45 5 0 8 -52 85 -57 85 -2 0 -11 -16 -19 -35z" id="220"/>
<path d="M1098 4881 c-9 -21 -13 -50 -11 -64 6 -32 -9 -40 -53 -28 l-36 10 6 -32 6 -32 -20 25 c-11 14 -20 28 -20 33 0 11 -30 9 -30 -2 0 -5 4 -22 10 -38 l10 -28 -28 33 c-18 20 -38 32 -54 32 -25 0 -25 0 -21 -77 2 -43 6 -88 9 -100 7 -37 53 -30 128 21 84 58 125 78 214 107 41 13 78 31 82 40 17 30 -25 78 -95 110 -36 16 -68 29 -73 29 -5 0 -16 -18 -24 -39z" id="221"/>
<path d="M1221 4337 c-51 -24 -79 -31 -128 -31 -49 -1 -63 -4 -63 -16 0 -9 -6 -5 -13 9 -18 36 -37 38 -38 4 l-1 -28 -12 27 c-9 20 -15 25 -26 18 -24 -15 -63 -11 -98 10 -18 11 -35 20 -39 20 -13 0 6 -122 22 -141 28 -30 122 -60 245 -76 63 -8 131 -20 152 -27 l37 -13 26 39 c14 21 41 56 59 76 62 69 62 74 4 121 -28 22 -53 41 -57 40 -3 0 -35 -15 -70 -32z" id="222"/>
</g>
</svg>