<?xml version="1.0" ?><!DOCTYPE svg  PUBLIC '-//W3C//DTD SVG 20010904//EN'  'http://www.w3.org/TR/2001/REC-SVG-20010904/DTD/svg10.dtd'><svg height="850.000000pt" preserveAspectRatio="xMidYMid meet" version="1.0" viewBox="0 0 850.000000 850.000000" width="850.000000pt" xmlns="http://www.w3.org/2000/svg">
<metadata>
Created by potrace 1.14, written by Peter Selinger 2001-2017
</metadata>
<g fill="#ffffff" stroke="none" transform="translate(0.000000,850.000000) scale(0.100000,-0.100000)">
<path d="M0 4250 l0 -4250 4250 0 4250 0 0 4250 0 4250 -4250 0 -4250 0 0 -4250z m4643 4059 c51 -27 97 -71 97 -94 0 -59 -133 -184 -242 -227 -32 -13 -58 -26 -58 -30 0 -4 15 -16 33 -25 42 -23 132 -120 142 -153 4 -14 20 -39 36 -56 16 -16 35 -50 42 -75 11 -38 20 -48 66 -73 29 -16 92 -37 140 -48 47 -11 96 -22 109 -25 15 -4 22 -1 22 9 0 8 11 30 25 49 24 31 25 40 19 95 -5 55 -4 63 14 76 11 7 28 33 37 56 10 23 34 57 55 75 21 17 45 48 53 69 22 53 51 78 91 78 18 0 39 7 46 16 21 25 51 37 110 46 48 8 156 11 215 8 11 -1 49 2 85 5 60 6 70 4 142 -29 57 -27 82 -44 93 -67 12 -22 34 -39 80 -59 64 -29 85 -51 85 -90 0 -11 16 -43 35 -71 19 -28 35 -59 35 -68 1 -9 3 -43 5 -76 3 -33 5 -71 4 -85 -2 -44 0 -74 7 -116 4 -28 1 -51 -10 -71 -11 -22 -13 -46 -9 -87 6 -62 -7 -89 -53 -100 -13 -4 -24 -12 -24 -20 0 -26 -42 -66 -80 -76 -23 -6 -50 -24 -66 -43 -14 -17 -35 -37 -45 -42 -18 -10 -12 -18 58 -92 85 -89 133 -115 163 -88 9 8 24 15 33 15 9 0 33 9 54 20 31 15 53 18 118 15 104 -5 175 -21 190 -42 11 -15 19 -5 60 76 63 127 94 171 117 171 23 0 138 -86 138 -103 0 -7 -31 -64 -69 -127 -76 -126 -78 -142 -18 -170 25 -12 33 -22 35 -47 2 -18 7 -33 12 -33 18 0 68 -51 75 -77 3 -16 14 -36 23 -47 14 -14 17 -41 18 -132 1 -87 5 -119 18 -138 20 -31 21 -60 2 -75 -10 -8 -13 -23 -9 -46 4 -27 1 -36 -20 -49 -15 -11 -27 -29 -29 -49 -3 -18 -8 -39 -12 -47 -5 -12 2 -18 26 -25 28 -9 34 -15 36 -44 2 -19 10 -44 18 -55 8 -11 14 -31 14 -43 0 -12 9 -27 20 -33 14 -7 20 -21 20 -44 0 -19 7 -39 15 -46 8 -7 15 -22 15 -34 0 -12 4 -26 9 -31 13 -15 23 -282 11 -290 -6 -4 -8 -21 -4 -41 3 -19 2 -40 -4 -47 -13 -15 -13 -32 -11 -222 1 -116 -2 -143 -14 -154 -13 -10 -14 -17 -4 -38 10 -22 8 -28 -14 -47 -14 -11 -29 -29 -32 -38 -8 -22 -57 -24 -97 -3 -16 8 -54 37 -86 65 -31 28 -59 48 -62 45 -3 -2 3 -25 13 -51 11 -30 14 -49 7 -56 -12 -12 -85 7 -102 27 -7 8 -22 15 -33 15 -20 0 -20 0 1 -23 15 -15 22 -36 22 -61 0 -49 -13 -72 -52 -92 -31 -16 -32 -16 -59 14 -15 17 -47 39 -71 50 -23 10 -52 29 -62 41 -23 26 -49 28 -42 4 18 -64 28 -155 24 -230 -3 -73 -9 -100 -37 -158 -18 -39 -38 -105 -46 -148 -25 -145 -87 -247 -224 -370 l-42 -38 21 -29 c35 -49 82 -158 78 -182 -3 -26 -76 -71 -96 -60 -6 5 -32 53 -57 107 -25 57 -50 99 -57 98 -7 -1 -35 -10 -61 -19 l-48 -17 39 -41 c55 -57 72 -86 72 -119 0 -16 11 -42 25 -59 18 -21 25 -41 25 -72 0 -23 7 -51 15 -62 17 -22 19 -77 5 -104 -6 -11 -8 -30 -5 -43 5 -20 15 -24 92 -34 48 -7 92 -18 99 -25 10 -11 8 -33 -15 -118 l-27 -105 -50 2 c-89 5 -108 -2 -122 -47 -6 -22 -12 -53 -12 -70 0 -17 -11 -53 -25 -80 -14 -27 -25 -63 -25 -79 0 -17 -5 -41 -11 -54 -8 -18 -7 -39 5 -88 25 -101 78 -195 177 -319 109 -137 203 -277 254 -381 25 -49 47 -81 66 -92 16 -9 29 -23 29 -31 0 -8 11 -32 25 -52 32 -47 34 -110 5 -147 l-20 -26 35 -64 c40 -73 48 -81 87 -91 38 -9 59 -33 52 -60 -3 -14 2 -31 15 -48 15 -18 21 -41 21 -75 1 -26 7 -59 15 -73 22 -39 18 -60 -28 -135 -33 -55 -50 -73 -77 -82 -72 -25 -218 -12 -285 25 -37 20 -162 27 -345 19 -70 -3 -98 0 -154 20 -38 12 -86 23 -106 23 -21 0 -59 10 -86 22 -31 13 -72 22 -112 23 -55 1 -76 8 -164 53 -104 54 -137 60 -80 16 18 -14 32 -31 32 -38 0 -6 10 -20 21 -30 17 -14 20 -25 15 -54 -9 -52 29 -157 66 -184 43 -30 58 -68 58 -145 0 -85 -12 -103 -93 -145 -53 -27 -76 -32 -152 -36 -150 -7 -263 32 -388 133 -48 38 -77 55 -97 55 -16 0 -55 9 -85 21 -67 25 -85 50 -110 152 -25 105 -103 298 -132 324 -28 27 -57 29 -107 8 -32 -14 -40 -14 -73 1 -29 12 -56 14 -113 9 -54 -4 -87 -2 -116 9 -48 17 -231 14 -265 -5 -12 -6 -50 -9 -88 -7 l-66 3 -52 -150 c-28 -82 -52 -160 -52 -173 -1 -34 -28 -79 -50 -85 -11 -2 -21 -15 -23 -28 -2 -16 -12 -25 -37 -32 -19 -5 -44 -15 -55 -23 -11 -8 -29 -14 -40 -14 -11 0 -54 -17 -95 -39 -228 -116 -546 -146 -702 -66 -32 17 -69 98 -69 153 0 50 31 84 108 119 31 14 59 27 61 29 2 2 -4 15 -13 29 -25 38 -27 110 -5 139 11 13 19 31 19 40 0 8 9 20 20 26 11 6 20 17 20 24 0 8 18 35 39 61 50 60 94 142 87 160 -3 8 -24 24 -48 36 -24 11 -72 51 -108 88 -50 51 -81 73 -132 95 -37 15 -72 34 -78 41 -6 8 -34 21 -61 30 -27 9 -55 26 -63 37 -26 37 -60 48 -103 32 -21 -7 -50 -13 -65 -14 -45 0 -156 50 -190 86 -18 19 -47 39 -65 45 -18 6 -38 19 -43 29 -28 52 -51 239 -65 536 -8 170 -15 312 -15 316 0 4 -30 -12 -67 -34 -85 -52 -136 -59 -177 -27 -20 15 -43 24 -69 24 -36 0 -43 -5 -82 -55 -46 -59 -73 -86 -80 -78 -2 2 10 47 27 100 l32 96 -36 31 c-46 40 -65 83 -50 116 9 20 7 32 -14 69 -29 51 -26 76 11 100 20 13 25 25 25 59 0 33 7 53 30 83 16 21 35 57 41 79 6 22 23 56 38 75 35 44 51 74 51 95 0 38 32 82 78 109 27 16 54 37 61 48 17 28 136 325 154 386 l16 51 -35 20 c-19 12 -45 23 -58 27 -13 3 -29 17 -35 31 -7 14 -23 35 -37 46 -19 14 -24 27 -21 44 3 15 -1 27 -11 32 -17 10 -43 97 -35 119 3 7 25 23 48 35 68 35 145 97 145 117 0 10 45 71 101 137 215 252 341 435 459 668 90 177 110 238 110 344 0 121 16 249 46 369 14 57 23 106 21 109 -3 2 -20 -3 -37 -12 -18 -9 -61 -27 -95 -40 -56 -22 -64 -22 -84 -9 -36 26 -45 53 -25 75 32 35 245 162 281 168 32 5 39 13 74 80 22 40 55 96 74 123 l35 49 -30 38 c-17 21 -54 51 -82 66 -28 15 -53 36 -55 45 -5 19 -88 59 -166 80 -65 17 -76 40 -36 74 17 14 36 26 42 26 7 0 -19 16 -57 35 -39 19 -75 35 -82 35 -6 0 -17 7 -24 15 -7 9 -46 31 -87 50 -75 35 -94 55 -74 79 7 8 9 25 5 40 -8 35 12 41 77 26 45 -11 58 -10 108 6 31 11 83 36 116 57 33 21 79 47 102 58 23 11 45 24 48 29 3 5 24 15 46 22 27 8 45 21 55 40 11 21 36 39 89 63 40 18 78 42 84 53 6 11 25 25 42 31 18 6 38 20 46 31 7 10 29 22 49 26 19 3 39 14 44 24 17 31 64 44 123 32 48 -10 55 -9 89 15 31 21 45 24 80 19 40 -6 44 -4 56 21 6 15 12 38 12 51 0 13 12 36 28 50 34 33 72 94 72 116 0 10 13 29 28 44 16 15 35 43 42 62 19 51 29 60 64 60 24 1 36 8 51 33 14 22 30 33 49 35 16 2 51 22 77 44 45 38 51 40 92 34 38 -6 50 -3 83 19 34 23 46 26 87 20 33 -4 64 -1 96 10 41 13 53 14 87 2 21 -8 55 -12 75 -10 27 4 42 -1 66 -21 17 -14 43 -26 57 -26 16 0 37 -10 50 -25 l23 -25 44 48 c52 56 171 207 188 240 14 25 15 26 44 11z m3041 -307 c21 -77 21 -125 -2 -145 -10 -9 -40 -26 -67 -38 -38 -17 -61 -20 -109 -16 -66 5 -112 22 -120 43 -3 9 4 16 22 19 82 17 107 29 152 74 26 26 53 64 61 84 20 56 43 49 63 -21z m-4505 -56 c19 -20 31 -41 28 -49 -9 -25 -297 -147 -345 -147 -39 0 -46 24 -32 101 16 92 32 109 108 110 31 0 77 4 102 8 88 16 104 13 139 -23z m3691 -281 c-28 -37 -62 -89 -75 -115 -14 -27 -29 -51 -34 -54 -17 -11 -40 6 -71 52 -41 62 -37 91 15 117 85 42 200 84 208 76 5 -5 -15 -39 -43 -76z m349 -652 c32 -22 103 -176 109 -236 l5 -48 -64 -60 c-97 -90 -125 -91 -107 -4 5 28 10 95 11 150 1 92 -1 103 -26 142 -32 50 -33 60 -9 66 35 9 58 7 81 -10z m-5827 -203 c40 -19 42 -38 10 -89 -24 -40 -32 -46 -58 -43 -16 1 -47 3 -69 4 -78 2 -195 -81 -230 -164 -18 -44 -20 -122 -4 -167 6 -18 8 -35 5 -38 -29 -29 -56 140 -37 231 26 128 88 221 176 263 41 20 61 23 115 20 36 -3 77 -10 92 -17z m6420 -678 c2 -5 31 -26 66 -47 34 -21 61 -43 59 -49 -5 -14 -118 -95 -134 -96 -6 0 -21 15 -33 33 -12 17 -43 51 -69 74 -53 49 -51 56 29 77 65 17 77 19 82 8z m-6585 -598 c5 -16 -56 -88 -107 -128 -25 -19 -91 -58 -147 -86 -167 -83 -223 -97 -243 -61 -14 28 -13 168 2 177 7 4 55 7 108 5 115 -2 186 14 290 68 76 39 91 43 97 25z m6707 -283 c26 -27 46 -55 44 -64 -4 -21 -255 -257 -273 -257 -8 0 -21 13 -30 30 -8 16 -29 37 -45 45 -17 9 -30 21 -30 28 0 18 252 267 270 267 9 0 37 -22 64 -49z m-6168 -36 c7 -18 -61 -168 -87 -191 -14 -12 -36 -17 -81 -16 -35 1 -93 -4 -129 -11 -75 -15 -89 -13 -89 14 0 49 74 133 128 144 15 4 45 13 67 22 146 57 181 64 191 38z m5577 -1038 c10 -27 -29 -84 -123 -176 -133 -131 -125 -127 -205 -102 -72 23 -167 27 -211 11 -47 -18 -104 -28 -104 -19 0 20 86 102 130 124 26 13 94 33 152 44 106 20 217 60 293 105 47 28 61 31 68 13z m-6287 -698 c7 -13 -12 -41 -114 -164 -93 -111 -213 -235 -228 -235 -14 0 -26 240 -12 257 5 6 46 26 91 44 45 18 118 50 162 70 91 43 91 43 101 28z m5877 -935 c-7 -128 -16 -186 -33 -206 l-18 -23 -72 24 c-75 26 -120 54 -120 75 0 17 43 55 117 105 103 68 129 73 126 25z m389 -850 c17 -9 83 -27 147 -40 139 -29 198 -48 272 -85 72 -36 78 -51 33 -92 -117 -107 -166 -111 -292 -29 -43 29 -100 59 -127 68 -28 9 -54 20 -59 24 -10 9 -36 151 -29 163 6 11 21 9 55 -9z m-5353 -451 c23 -27 41 -54 41 -61 0 -7 -26 -24 -57 -38 -43 -20 -67 -24 -98 -20 -22 3 -77 9 -122 12 -120 9 -113 25 40 96 67 31 130 57 139 57 9 1 35 -20 57 -46z" id="1"/>
<path d="M4565 8189 c-33 -45 -82 -106 -108 -137 -59 -70 -46 -77 49 -31 74 37 152 102 185 156 l23 36 -34 29 c-19 15 -39 28 -45 28 -5 -1 -37 -37 -70 -81z" id="2"/>
<path d="M4000 8059 c-14 -6 -49 -8 -81 -4 -45 4 -59 2 -70 -11 -23 -28 -76 -46 -99 -34 -30 16 -43 12 -94 -30 -26 -22 -58 -40 -70 -40 -16 0 -27 -11 -39 -35 -17 -35 -23 -39 -63 -36 -17 2 -26 -8 -40 -44 -9 -26 -28 -54 -41 -62 -13 -9 -23 -25 -23 -39 0 -13 -8 -31 -19 -41 -10 -10 -21 -27 -25 -39 -3 -12 -18 -26 -31 -32 -20 -9 -25 -19 -25 -46 0 -19 -4 -38 -10 -41 -5 -3 -10 -16 -10 -28 0 -13 -7 -32 -15 -43 -10 -15 -12 -30 -6 -50 5 -17 4 -40 -2 -54 -8 -21 -16 -71 -17 -105 0 -39 15 -87 31 -96 24 -12 68 13 189 106 308 238 462 342 587 393 175 73 398 69 557 -9 33 -16 61 -29 63 -29 1 0 3 9 3 20 0 11 -15 37 -34 57 -18 21 -39 55 -45 76 -7 20 -16 37 -20 37 -5 0 -23 16 -42 36 -19 19 -50 44 -70 54 -20 11 -39 27 -43 36 -5 12 -14 15 -40 10 -31 -6 -33 -5 -28 19 6 33 -11 51 -56 60 -20 3 -48 14 -62 23 -14 9 -41 18 -60 18 -19 1 -55 5 -80 8 -25 3 -56 1 -70 -5z m360 -184 c0 -8 -4 -15 -10 -15 -5 0 -10 7 -10 15 0 8 5 15 10 15 6 0 10 -7 10 -15z m25 -34 c-7 -23 -25 -29 -25 -8 0 14 21 39 28 33 2 -3 1 -14 -3 -25z m49 -26 c-4 -8 -13 -15 -21 -15 -13 0 -13 3 -3 15 7 8 16 15 21 15 5 0 6 -7 3 -15z m46 -14 c0 -12 -20 -25 -27 -18 -7 7 6 27 18 27 5 0 9 -4 9 -9z m-1060 -271 c0 -5 -9 -10 -20 -10 -11 0 -20 5 -20 10 0 6 9 10 20 10 11 0 20 -4 20 -10z m0 -70 c0 -5 -4 -10 -9 -10 -6 0 -13 5 -16 10 -3 6 1 10 9 10 9 0 16 -4 16 -10z m-3 -75 c1 -28 -3 -35 -18 -35 -14 0 -19 7 -19 28 0 54 36 60 37 7z m7 -74 c3 -4 3 -11 0 -14 -8 -8 -34 3 -34 14 0 11 27 12 34 0z" id="3"/>
<path d="M5613 8040 c-13 -5 -60 -9 -105 -8 -81 2 -84 1 -115 -30 -21 -21 -41 -32 -61 -32 -31 0 -55 -21 -66 -57 -4 -12 -25 -39 -46 -61 -22 -21 -49 -61 -60 -87 -11 -27 -28 -53 -36 -60 -13 -9 -14 -18 -4 -53 9 -35 8 -48 -6 -77 -8 -19 -22 -39 -30 -46 -20 -16 -17 -39 7 -65 17 -18 19 -26 9 -44 -9 -18 -8 -30 10 -67 12 -26 25 -65 29 -87 5 -34 13 -44 40 -57 19 -9 40 -28 48 -42 8 -17 28 -31 53 -38 22 -7 46 -22 55 -35 18 -28 97 -43 120 -24 13 10 15 8 15 -13 0 -33 20 -46 27 -18 7 27 23 17 23 -15 0 -29 15 -31 32 -5 11 18 13 18 25 3 12 -16 14 -16 27 1 13 16 14 16 19 -4 3 -11 10 -18 15 -15 6 3 12 1 14 -5 3 -8 37 -12 95 -14 l91 -1 42 38 c37 34 43 37 56 23 19 -18 34 -11 34 16 0 12 5 17 10 14 15 -9 40 14 40 36 0 21 11 24 26 9 18 -18 42 -1 37 23 -5 18 -3 20 8 10 20 -20 25 -16 39 30 17 53 17 52 34 38 26 -22 38 -2 16 26 -24 30 -26 47 -5 39 17 -6 22 29 5 39 -16 10 -12 19 13 30 28 13 34 56 12 101 -14 31 -15 38 -1 64 11 22 13 49 9 106 -5 67 -11 83 -44 132 -22 32 -39 69 -39 85 0 27 -22 38 -35 17 -11 -18 -26 -10 -20 10 6 20 -9 28 -20 10 -11 -18 -23 -11 -18 10 6 23 -15 27 -36 8 -11 -11 -12 -9 -6 10 8 28 -18 41 -42 21 -15 -13 -15 -11 -9 23 6 36 6 37 -50 68 -52 30 -60 32 -112 25 -73 -10 -113 -10 -132 -3 -8 4 -25 3 -37 -2z m537 -420 c0 -5 -9 -10 -20 -10 -11 0 -20 5 -20 10 0 6 9 10 20 10 11 0 20 -4 20 -10z m-15 -61 c11 -17 0 -20 -21 -4 -17 13 -17 14 -2 15 9 0 20 -5 23 -11z m-12 -69 c-3 -11 -9 -17 -14 -14 -5 3 -7 9 -4 14 3 5 1 11 -5 15 -6 4 -8 11 -4 16 10 17 32 -10 27 -31z m-33 -96 c0 -8 -4 -12 -10 -9 -5 3 -10 13 -10 21 0 8 5 12 10 9 6 -3 10 -13 10 -21z m-40 -65 c0 -11 -4 -17 -10 -14 -5 3 -10 13 -10 21 0 8 5 14 10 14 6 0 10 -9 10 -21z m-32 -46 c-2 -18 -10 -29 -23 -32 -11 -2 -24 -9 -28 -17 -11 -18 -27 -18 -27 1 0 8 14 21 30 30 17 9 30 22 30 30 0 8 5 15 11 15 6 0 9 -12 7 -27z m-324 -59 c17 -7 22 -44 6 -44 -5 0 -10 9 -10 20 0 17 -4 19 -26 14 -19 -5 -25 -4 -20 5 8 12 26 14 50 5z m212 -21 c-10 -10 -19 5 -10 18 6 11 8 11 12 0 2 -7 1 -15 -2 -18z m-125 -26 c-17 -17 -24 -1 -10 25 12 21 14 21 17 4 2 -10 -1 -23 -7 -29z" id="4"/>
<path d="M4210 7661 c-67 -9 -148 -35 -214 -69 -147 -73 -406 -259 -466 -334 -42 -53 -48 -80 -28 -123 10 -22 8 -29 -14 -53 -53 -57 -60 -95 -26 -150 18 -30 20 -39 10 -66 -23 -63 -13 -106 35 -158 21 -22 24 -33 19 -60 -5 -27 0 -43 24 -82 17 -26 34 -46 38 -44 33 14 131 96 131 109 1 9 -15 60 -34 113 -19 53 -35 100 -35 103 0 4 26 -31 58 -77 31 -47 65 -86 74 -88 20 -4 104 55 100 70 -1 6 -14 25 -27 42 -13 17 -38 63 -55 101 -17 39 -40 89 -52 112 -14 30 -19 52 -14 76 5 26 2 38 -14 52 -28 26 -25 51 10 77 26 19 29 27 24 53 -6 34 6 51 123 170 61 63 187 128 283 147 36 7 68 17 72 23 5 7 8 6 8 -1 0 -18 49 -23 66 -7 12 13 14 13 14 0 0 -18 37 -29 46 -15 4 7 10 4 16 -6 5 -9 20 -16 33 -16 13 0 26 -4 30 -9 9 -15 66 -41 76 -35 5 3 36 11 70 18 33 6 60 16 60 21 1 17 -120 73 -190 89 -85 19 -182 26 -251 17z" id="5"/>
<path d="M4117 7529 c-20 -6 -42 -20 -48 -30 -6 -12 -20 -19 -40 -19 -21 0 -40 -10 -62 -32 -18 -18 -45 -39 -62 -48 -16 -8 -36 -27 -43 -42 -7 -16 -22 -33 -33 -39 -25 -13 -39 -48 -29 -74 6 -15 0 -26 -24 -47 -31 -26 -31 -26 -14 -60 9 -18 19 -44 22 -58 23 -111 79 -244 120 -285 19 -19 35 -25 69 -25 24 0 47 3 50 6 4 4 -8 23 -25 42 -33 39 -82 136 -76 153 2 6 18 -10 37 -36 48 -66 68 -84 139 -117 55 -27 71 -30 132 -26 75 4 108 21 138 70 15 26 15 32 -2 100 -23 87 -35 148 -29 148 2 0 28 -51 57 -114 30 -62 59 -116 65 -120 6 -4 11 -16 11 -27 0 -16 5 -18 28 -13 25 6 26 5 10 -11 -15 -16 -15 -20 0 -51 10 -19 22 -32 29 -29 7 2 10 -2 7 -10 -9 -23 5 -38 23 -24 12 11 13 9 8 -14 -9 -35 2 -52 23 -35 14 10 15 10 5 -2 -16 -18 2 -54 24 -46 11 4 13 2 10 -9 -4 -8 2 -20 12 -27 9 -7 20 -21 24 -31 9 -24 37 -33 48 -16 7 10 8 6 3 -12 -7 -34 14 -49 33 -23 13 17 14 17 11 -11 -3 -43 9 -60 30 -43 13 11 15 11 9 -4 -8 -22 21 -48 33 -28 6 10 9 5 12 -15 4 -38 21 -42 35 -8 11 27 12 27 7 -8 -4 -27 -2 -38 10 -42 9 -4 16 -1 16 6 0 7 6 1 13 -12 15 -31 34 -37 40 -14 4 15 6 14 12 -6 8 -23 9 -23 21 -6 11 14 14 15 18 4 2 -8 6 -21 9 -30 7 -21 51 -29 95 -17 45 13 99 72 107 118 17 111 16 146 -10 195 -13 28 -22 58 -19 70 3 11 -2 34 -10 49 -8 17 -12 41 -9 57 4 23 -1 34 -27 57 -20 19 -28 32 -21 37 18 10 2 27 -20 20 -21 -7 -25 5 -7 23 8 8 5 21 -15 51 -40 60 -87 111 -103 111 -8 0 -25 10 -37 23 -13 12 -35 30 -50 40 -15 9 -27 26 -27 37 0 12 -10 24 -24 30 -14 5 -30 18 -36 30 -6 11 -17 20 -25 20 -18 0 -167 136 -177 161 -10 25 -148 100 -175 96 -14 -3 -23 1 -23 8 0 15 -28 28 -42 19 -6 -4 -14 -1 -18 6 -10 16 -193 23 -243 9z m373 -120 c0 -11 -4 -18 -10 -14 -5 3 -7 12 -3 20 7 21 13 19 13 -6z m40 -6 c0 -14 -19 -38 -25 -32 -8 8 5 39 16 39 5 0 9 -3 9 -7z m21 -66 c-8 -8 -11 -7 -11 4 0 20 13 34 18 19 3 -7 -1 -17 -7 -23z m35 -24 c-10 -10 -19 5 -10 18 6 11 8 11 12 0 2 -7 1 -15 -2 -18z m374 -323 c0 -13 -42 -30 -55 -22 -5 3 4 12 20 18 37 16 35 16 35 4z m35 -90 c-3 -5 -14 -10 -23 -10 -15 0 -15 2 -2 10 20 13 33 13 25 0z" id="6"/>
<path d="M4595 7470 c-3 -5 9 -17 27 -26 18 -9 64 -47 103 -85 79 -77 180 -159 195 -159 5 0 19 -18 30 -39 11 -22 30 -43 42 -46 13 -4 62 -45 109 -91 105 -102 194 -150 262 -140 23 3 114 10 201 15 135 8 167 7 205 -6 78 -26 123 -53 184 -112 79 -74 122 -140 197 -296 51 -109 63 -127 72 -112 14 25 -28 157 -88 276 -85 171 -219 321 -262 294 -22 -13 -198 -9 -235 6 -16 6 -54 10 -86 9 -50 -3 -62 1 -101 30 -29 21 -55 32 -78 32 -24 0 -42 9 -64 30 -16 17 -40 33 -53 36 -25 6 -75 50 -75 65 0 5 -11 11 -25 15 -30 7 -65 49 -65 76 0 26 -30 117 -41 124 -5 3 -9 18 -9 33 0 26 -5 29 -62 44 -35 9 -83 21 -108 27 -58 12 -267 13 -275 0z" id="7"/>
<path d="M3106 7444 c-21 -19 -36 -24 -55 -20 -90 20 -115 19 -140 -8 -17 -18 -35 -26 -57 -26 -23 0 -36 -7 -48 -25 -9 -14 -25 -25 -36 -25 -11 0 -31 -13 -46 -29 -14 -16 -52 -41 -85 -56 -43 -19 -66 -37 -84 -65 -17 -27 -34 -40 -57 -45 -18 -4 -42 -15 -53 -25 -19 -17 -40 -29 -115 -67 -19 -9 -47 -26 -62 -36 -15 -10 -58 -29 -96 -42 -53 -18 -76 -22 -105 -16 -32 8 -37 6 -43 -11 -8 -26 -1 -32 65 -58 30 -11 65 -30 79 -40 14 -11 32 -20 42 -20 10 0 28 -9 42 -19 13 -11 42 -24 63 -30 22 -6 46 -15 54 -20 10 -7 26 0 54 22 37 30 44 32 129 33 103 1 130 15 111 57 -14 30 -1 47 35 47 25 0 200 65 217 81 5 5 16 9 25 9 10 0 27 9 40 20 13 11 33 20 45 20 13 0 28 7 35 15 7 8 23 15 35 15 13 0 25 7 29 15 3 10 19 15 46 15 l41 0 -20 26 c-14 18 -18 32 -12 43 4 9 7 45 5 81 -1 38 3 75 11 90 7 15 9 33 4 45 -4 11 -8 32 -8 48 -1 23 -5 27 -28 27 -16 0 -41 -12 -57 -26z m-118 -106 c14 -14 16 -28 2 -28 -5 0 -14 9 -20 20 -12 22 -1 27 18 8z m-118 -67 c0 -15 -15 -21 -38 -14 -32 8 -27 23 8 23 17 0 30 -4 30 -9z" id="8"/>
<path d="M3384 7161 c-118 -82 -279 -160 -409 -198 -11 -4 -31 -14 -44 -25 -13 -10 -34 -18 -48 -18 -16 0 -27 -8 -33 -25 -8 -22 -15 -25 -59 -25 -45 0 -52 -3 -65 -28 -23 -45 -8 -91 43 -129 23 -18 55 -36 69 -39 15 -4 55 -20 89 -35 34 -16 69 -29 77 -29 9 0 23 -11 32 -25 10 -16 26 -25 43 -25 14 -1 44 -14 66 -30 22 -16 58 -39 80 -51 90 -48 204 -129 275 -195 l75 -69 3 52 c3 60 -24 147 -65 207 -81 116 -282 214 -568 276 -115 24 -142 40 -71 40 149 0 450 -98 565 -184 19 -14 36 -24 39 -22 2 3 -11 44 -29 93 -23 62 -34 109 -36 158 -2 38 -8 84 -14 103 -14 43 -5 86 27 135 22 34 25 45 17 81 l-8 42 -51 -35z m-254 -251 c0 -5 -6 -10 -14 -10 -8 0 -18 5 -21 10 -3 6 3 10 14 10 12 0 21 -4 21 -10z m-49 -26 c11 -14 10 -15 -11 -12 -13 1 -25 9 -28 16 -5 17 23 15 39 -4z" id="9"/>
<path d="M6718 6953 c-25 -43 -49 -89 -53 -103 -4 -14 -18 -46 -31 -72 -13 -26 -24 -51 -24 -56 0 -4 16 -14 36 -21 35 -13 37 -12 75 25 35 34 128 175 142 215 3 11 -9 28 -38 53 -24 20 -48 36 -52 36 -5 0 -30 -35 -55 -77z" id="10"/>
<path d="M5615 6863 c-53 -7 -58 -11 -39 -30 36 -36 75 -110 100 -188 47 -150 41 -335 -17 -509 l-20 -58 27 -40 c34 -48 105 -130 110 -126 2 2 -3 22 -11 43 -8 22 -14 66 -15 98 0 70 24 122 76 165 l36 30 -30 39 c-47 58 -65 116 -65 213 1 88 27 184 58 210 16 14 11 31 -27 87 -45 66 -82 79 -183 66z" id="11"/>
<path d="M5463 6825 c-18 -8 -33 -16 -33 -18 0 -2 20 -24 44 -49 105 -110 150 -318 111 -513 -11 -61 -11 -73 1 -93 8 -12 19 -20 24 -17 12 8 48 168 56 250 13 143 -44 345 -119 423 -35 36 -39 37 -84 17z" id="12"/>
<path d="M6300 6805 c-7 -8 -25 -15 -41 -15 -48 0 -33 -13 54 -50 45 -18 118 -60 162 -91 45 -31 92 -59 105 -61 14 -2 24 -9 23 -15 -2 -9 7 -11 30 -7 29 5 30 4 15 -9 -27 -22 -21 -37 13 -37 25 0 29 -3 20 -13 -8 -10 0 -24 34 -58 24 -24 47 -57 51 -73 3 -16 19 -54 35 -85 16 -30 29 -61 29 -68 0 -6 5 -24 12 -40 14 -35 10 -148 -7 -189 -20 -49 -72 -100 -139 -138 -56 -31 -154 -121 -144 -131 2 -3 23 5 46 16 56 28 109 42 155 41 20 -1 37 3 37 8 0 5 17 18 38 29 34 17 42 28 60 86 12 36 22 72 22 81 0 8 12 27 26 41 20 19 25 33 21 53 -4 17 0 36 10 50 14 19 14 26 3 44 -8 13 -14 64 -17 135 -2 96 -6 118 -22 135 -11 12 -21 32 -23 46 -2 15 -18 35 -45 53 -34 22 -43 35 -43 56 0 23 -5 30 -29 34 -18 4 -32 14 -36 27 -8 24 -18 25 -35 5 -19 -22 -49 -18 -108 15 -45 27 -51 34 -46 55 15 61 -2 69 -172 80 -65 4 -84 2 -94 -10z m510 -309 c0 -9 -30 -14 -35 -6 -4 6 3 10 14 10 12 0 21 -2 21 -4z m90 -185 c0 -28 -11 -52 -21 -45 -16 9 -11 64 6 64 8 0 15 -9 15 -19z" id="13"/>
<path d="M5840 6805 c0 -17 38 -76 76 -118 55 -62 85 -140 91 -243 7 -102 -1 -144 -32 -178 -23 -25 -24 -27 -7 -56 9 -16 20 -30 24 -30 12 0 31 103 35 197 10 173 -35 314 -124 392 -42 38 -63 49 -63 36z" id="14"/>
<path d="M5328 6755 c-27 -20 -48 -43 -48 -53 0 -28 44 -135 91 -221 54 -98 152 -251 161 -251 15 0 23 58 23 165 -1 127 -24 220 -75 297 -30 45 -84 98 -98 98 -4 0 -28 -16 -54 -35z" id="15"/>
<path d="M2491 6768 c-19 -5 -46 -22 -61 -37 -19 -21 -39 -30 -78 -36 -29 -4 -54 -10 -57 -15 -3 -4 16 -13 41 -19 63 -16 141 -57 157 -82 6 -11 30 -30 52 -41 22 -12 60 -41 85 -65 122 -119 133 -125 238 -143 93 -15 172 -7 298 31 95 28 112 35 103 43 -2 2 -109 56 -238 121 -296 148 -325 166 -358 229 -8 15 -24 19 -79 21 -38 2 -84 -1 -103 -7z" id="16"/>
<path d="M6159 6738 c82 -126 145 -265 164 -365 7 -37 17 -63 24 -63 22 0 84 62 108 109 l23 46 12 -27 c8 -16 10 -43 6 -70 -5 -36 -15 -51 -51 -81 -24 -20 -53 -37 -64 -37 -12 0 -21 -5 -21 -10 0 -6 -12 -9 -27 -8 -21 2 -28 -1 -27 -14 1 -9 -4 -14 -11 -12 -6 3 -18 -2 -25 -11 -7 -8 -25 -15 -39 -15 -32 0 -73 -28 -53 -36 21 -9 13 -25 -10 -22 -30 4 -61 -47 -38 -62 12 -8 11 -11 -7 -16 -44 -12 -72 -174 -35 -206 49 -43 107 -51 161 -23 18 9 68 50 112 92 44 42 82 73 86 69 4 -4 2 -24 -4 -46 -10 -39 -9 -40 14 -40 35 0 61 16 116 68 51 50 63 40 22 -20 -31 -46 -31 -50 3 -42 47 12 114 53 164 100 42 39 48 51 48 85 0 26 -5 42 -15 45 -12 5 -13 10 -4 20 6 8 8 26 4 46 -12 59 -77 182 -120 229 -23 25 -45 55 -49 66 -6 20 -38 45 -120 93 -31 19 -42 21 -57 12 -26 -17 -31 -15 -20 6 12 22 -4 43 -25 35 -8 -3 -14 1 -14 11 0 9 -7 16 -16 16 -9 0 -22 7 -28 15 -9 13 -184 95 -202 95 -3 0 4 -15 15 -32z m537 -473 c-3 -9 0 -15 9 -15 18 0 19 -12 3 -28 -17 -17 -31 -15 -24 5 4 9 1 20 -5 24 -13 8 -4 29 13 29 5 0 8 -7 4 -15z m34 -74 c0 -13 -26 -32 -33 -24 -8 7 11 33 24 33 5 0 9 -4 9 -9z m-4 -69 c-23 -23 -33 -6 -10 19 12 13 20 16 22 9 3 -7 -3 -19 -12 -28z m4 -32 c0 -5 -7 -10 -16 -10 -8 0 -12 5 -9 10 3 6 10 10 16 10 5 0 9 -4 9 -10z" id="17"/>
<path d="M4397 6743 c-15 -8 -53 -17 -83 -20 -65 -7 -94 -34 -143 -135 -42 -87 -61 -168 -61 -263 1 -290 191 -465 525 -481 l90 -4 -79 20 c-279 71 -411 281 -344 545 16 66 77 176 127 235 48 55 48 55 33 88 -17 35 -24 37 -65 15z" id="18"/>
<path d="M4031 6704 c-170 -194 -157 -494 29 -685 54 -55 152 -112 215 -124 l30 -6 -30 22 c-227 171 -269 511 -95 763 l31 45 -28 7 c-15 3 -41 10 -57 15 -46 14 -52 12 -95 -37z" id="19"/>
<path d="M3910 6648 c-45 -62 -62 -128 -67 -264 -6 -136 6 -196 59 -295 94 -178 316 -291 566 -288 l87 1 -101 17 c-213 38 -337 91 -425 182 -137 142 -187 343 -130 529 13 41 31 89 42 106 39 65 14 75 -31 12z" id="20"/>
<path d="M5825 6648 c-10 -25 -20 -79 -22 -128 -6 -99 17 -178 66 -224 l28 -27 7 49 c11 87 -24 336 -52 364 -6 6 -16 -8 -27 -34z" id="21"/>
<path d="M4463 6628 c-47 -50 -89 -125 -118 -213 -51 -151 -22 -296 79 -397 94 -95 279 -158 371 -126 22 7 41 20 43 29 2 14 -7 17 -62 17 -52 0 -74 5 -109 25 -94 55 -147 146 -155 263 -6 97 15 159 74 218 l45 44 -63 85 c-35 47 -65 86 -69 86 -3 1 -19 -14 -36 -31z" id="22"/>
<path d="M5910 6639 c0 -2 7 -36 15 -74 8 -39 15 -119 15 -180 l1 -110 19 24 c40 47 14 290 -35 331 -8 7 -15 11 -15 9z" id="23"/>
<path d="M3734 6567 c-90 -95 -127 -155 -119 -192 4 -16 10 -75 14 -130 l6 -100 109 -158 c163 -236 252 -307 412 -327 92 -12 268 1 408 30 54 11 136 23 182 27 89 6 92 8 78 60 l-6 23 -42 -24 c-98 -58 -379 -78 -527 -38 -207 56 -388 212 -466 404 -44 109 -40 306 8 433 22 58 22 55 10 55 -5 0 -35 -28 -67 -63z" id="24"/>
<path d="M6068 6449 c9 -216 -53 -403 -176 -531 -31 -33 -33 -38 -16 -38 54 0 177 206 215 360 7 30 13 98 13 150 0 76 -4 103 -21 135 l-21 39 6 -115z" id="25"/>
<path d="M4616 6406 c-46 -46 -59 -93 -54 -181 4 -54 11 -84 31 -116 65 -111 169 -156 256 -111 45 22 55 46 14 35 -15 -4 -53 -8 -84 -7 -106 1 -179 77 -179 188 0 82 27 134 91 180 19 13 20 18 9 31 -20 24 -46 18 -84 -19z" id="26"/>
<path d="M2632 6338 c-50 -73 -104 -188 -88 -188 7 0 20 -7 27 -16 12 -14 7 -22 -39 -63 -50 -43 -55 -52 -82 -142 -66 -222 -77 -474 -31 -734 33 -186 29 -180 57 -105 23 64 24 66 8 135 -48 215 -21 423 83 630 59 118 125 206 228 304 47 44 85 82 85 84 0 2 -25 12 -56 22 -51 16 -77 34 -141 95 l-21 21 -30 -43z" id="27"/>
<path d="M4695 6358 c-59 -47 -82 -152 -46 -218 41 -77 144 -104 231 -60 62 32 107 114 75 140 -11 9 -18 4 -35 -29 -43 -84 -152 -94 -204 -19 -32 46 -12 144 35 168 16 9 18 14 8 26 -16 19 -32 18 -64 -8z" id="28"/>
<path d="M3318 6306 c-58 -44 -92 -91 -134 -181 -60 -129 -85 -242 -91 -400 -3 -79 -1 -151 5 -165 9 -23 10 -20 21 30 35 166 147 279 277 280 182 1 277 -153 186 -300 l-30 -48 31 -6 c84 -14 194 -16 316 -7 74 6 137 13 140 17 3 3 -2 10 -12 16 -10 5 -33 22 -50 38 -31 27 -34 27 -61 13 l-28 -15 18 31 c18 31 18 31 -3 52 l-21 22 -49 -40 c-26 -23 -59 -46 -73 -53 l-25 -13 20 24 c10 13 39 45 63 70 l44 47 -24 36 c-12 20 -28 36 -33 36 -6 0 -33 -22 -60 -50 -27 -27 -53 -50 -58 -50 -9 0 23 49 65 98 32 37 34 50 14 77 -14 19 -15 19 -58 -4 l-43 -24 33 35 c37 39 39 57 14 88 l-18 23 -62 -48 c-34 -27 -64 -46 -67 -43 -3 2 20 31 50 64 52 55 55 61 43 83 -19 36 -32 35 -85 -2 -26 -19 -64 -42 -83 -51 l-35 -17 45 43 c25 24 60 55 78 69 l34 26 -25 28 -24 28 -96 -47 c-53 -27 -101 -46 -107 -44 -5 1 28 27 75 57 47 30 85 60 85 67 0 6 -11 19 -23 27 -22 14 -30 13 -106 -14 -45 -16 -88 -29 -94 -29 -18 1 21 28 87 62 l58 29 -23 26 c-42 45 -53 46 -101 9z" id="29"/>
<path d="M6126 6279 c-4 -27 -18 -82 -32 -120 -14 -39 -23 -73 -20 -77 3 -3 6 -1 6 5 0 5 14 31 31 57 26 38 33 61 37 117 6 81 -12 96 -22 18z" id="30"/>
<path d="M3079 6285 c-86 -28 -204 -101 -264 -164 -42 -44 -39 -48 21 -27 22 7 61 16 89 21 27 4 68 16 90 26 l40 20 -27 -25 c-25 -23 -28 -32 -28 -93 0 -38 -7 -95 -15 -127 -9 -33 -14 -61 -12 -63 13 -13 48 43 67 107 29 100 77 200 133 283 l47 67 -33 0 c-17 -1 -66 -12 -108 -25z" id="31"/>
<path d="M5243 6233 c-18 -9 -33 -19 -33 -22 0 -3 28 -22 61 -41 202 -116 278 -348 184 -559 -37 -82 -84 -126 -135 -126 -59 0 -94 31 -98 86 -2 34 2 50 18 67 27 28 66 29 75 1 10 -29 29 -8 22 24 -7 24 -43 47 -78 47 -29 0 -90 -28 -116 -52 -29 -27 -30 -74 -2 -133 25 -52 61 -82 126 -101 121 -36 250 0 318 91 64 83 103 273 75 361 -25 77 -160 235 -282 330 -61 47 -84 52 -135 27z" id="32"/>
<path d="M5832 6183 c-55 -52 -69 -103 -51 -179 8 -32 19 -59 26 -61 12 -4 47 79 68 167 29 118 20 133 -43 73z" id="33"/>
<path d="M5908 6083 c-15 -59 -26 -108 -24 -110 8 -8 67 98 73 131 6 37 -2 86 -15 86 -4 0 -19 -48 -34 -107z" id="34"/>
<path d="M5130 6161 c-89 -19 -193 -103 -238 -194 -89 -179 -1 -417 154 -417 43 0 43 0 37 31 -3 18 -25 50 -49 74 -72 72 -91 181 -49 281 36 86 164 174 253 174 48 0 54 13 15 34 -39 19 -82 25 -123 17z" id="35"/>
<path d="M2365 6087 c-162 -99 -218 -157 -141 -144 48 8 159 64 229 116 32 23 57 44 55 45 -2 2 -23 6 -48 9 -38 4 -53 0 -95 -26z" id="36"/>
<path d="M2824 6056 c-108 -40 -169 -105 -235 -251 -38 -84 -37 -94 6 -56 20 17 57 42 83 55 26 13 55 37 64 53 9 15 31 42 48 58 l32 30 -40 -63 -39 -63 34 -92 c18 -51 36 -99 39 -106 7 -22 113 203 135 288 10 41 19 96 19 123 l0 48 -42 -1 c-24 0 -70 -10 -104 -23z" id="37"/>
<path d="M5165 6060 c-60 -23 -121 -80 -146 -135 -37 -81 -17 -198 45 -254 l26 -25 30 29 29 28 -24 29 c-50 60 -21 185 58 255 43 37 117 67 152 61 14 -3 25 -2 25 1 0 35 -115 41 -195 11z" id="38"/>
<path d="M6022 6008 c-16 -29 -28 -55 -26 -57 9 -9 44 34 55 66 17 53 4 49 -29 -9z" id="39"/>
<path d="M5265 6002 c-80 -38 -135 -116 -135 -194 0 -65 22 -82 97 -74 73 8 122 -14 139 -63 l11 -33 30 26 c45 37 56 75 51 159 -6 84 -30 150 -62 171 -39 25 -87 28 -131 8z" id="40"/>
<path d="M6909 5836 c-6 -13 -26 -32 -45 -42 -18 -10 -43 -31 -54 -47 -21 -28 -21 -29 -4 -70 31 -74 31 -262 0 -457 -31 -192 -41 -298 -33 -331 3 -14 21 -33 39 -44 18 -10 53 -38 78 -61 70 -65 84 -69 115 -38 19 19 25 33 21 49 -4 15 1 28 15 41 19 17 20 28 18 144 -1 69 0 148 4 175 3 28 8 70 12 95 3 25 6 59 7 75 4 51 -11 213 -20 232 -13 24 -32 86 -32 102 0 7 -9 24 -20 38 -11 14 -20 36 -20 48 0 12 -9 30 -20 40 -11 10 -20 31 -20 47 0 35 -26 38 -41 4z m76 -226 c17 -7 14 -9 -13 -9 -20 -1 -31 3 -27 9 7 12 13 12 40 0z m30 -60 c-3 -5 -15 -10 -26 -10 -10 0 -19 5 -19 10 0 6 12 10 26 10 14 0 23 -4 19 -10z m10 -50 c-3 -5 -16 -10 -28 -9 -21 0 -21 1 -2 9 28 12 37 12 30 0z" id="41"/>
<path d="M5720 5789 c0 -120 -48 -255 -119 -332 -41 -45 -41 -57 4 -57 21 0 102 130 121 195 21 72 25 228 7 246 -11 10 -13 0 -13 -52z" id="42"/>
<path d="M2967 5798 c-20 -24 -53 -80 -74 -123 -37 -77 -38 -84 -38 -185 0 -125 16 -179 79 -269 71 -103 160 -167 273 -196 61 -16 169 -20 177 -7 12 19 -60 59 -116 65 -77 7 -165 56 -243 132 -166 164 -179 400 -33 587 36 46 13 42 -25 -4z" id="43"/>
<path d="M3312 5804 c-89 -45 -146 -142 -159 -269 -7 -81 8 -130 68 -219 62 -93 112 -137 209 -183 69 -33 82 -36 154 -35 72 2 82 0 106 -23 23 -22 39 -26 145 -36 150 -13 362 -13 399 1 18 7 33 7 46 0 13 -7 27 -6 45 2 20 9 34 9 58 0 23 -8 43 -9 66 -2 19 5 41 6 50 2 22 -11 150 -7 182 6 21 8 34 7 60 -7 26 -14 40 -16 61 -9 17 6 33 6 47 -1 11 -6 33 -11 50 -11 16 0 42 -6 58 -14 52 -26 102 -37 137 -31 28 6 38 3 52 -14 13 -14 30 -21 56 -21 20 0 40 -5 44 -11 3 -6 16 -8 29 -5 14 4 32 -1 48 -14 14 -11 36 -20 50 -20 13 0 30 -6 36 -14 7 -8 25 -18 41 -21 16 -3 31 -13 34 -21 3 -8 19 -14 41 -14 19 0 35 -4 35 -8 0 -14 94 -80 120 -84 14 -2 29 -13 35 -26 5 -12 16 -20 23 -17 12 5 82 -61 82 -77 0 -5 9 -8 20 -8 19 0 19 -1 5 -24 -14 -21 -14 -25 0 -36 12 -10 18 -10 30 0 23 19 48 4 41 -24 -6 -26 13 -41 48 -37 18 3 19 1 3 -22 -21 -32 -3 -55 25 -30 10 9 18 11 18 5 0 -6 -4 -14 -10 -17 -16 -10 -12 -33 8 -40 9 -3 28 -22 42 -41 49 -70 49 -70 148 -73 85 -2 94 0 116 22 31 31 41 94 33 201 -12 158 -70 317 -147 400 -37 40 -48 46 -84 46 -51 0 -156 48 -178 82 -9 13 -22 44 -29 69 -7 24 -19 52 -28 62 -31 36 -204 149 -289 189 -79 37 -89 40 -117 28 -102 -42 -194 -42 -271 -1 -50 27 -64 38 -98 84 -23 29 -35 37 -61 37 -17 0 -54 12 -80 26 -79 41 -175 50 -340 31 -275 -33 -378 -48 -393 -56 -8 -5 -32 -6 -52 -4 -25 4 -62 -3 -113 -21 -83 -29 -107 -32 -124 -15 -8 8 -22 8 -45 2 -38 -11 -147 -11 -165 0 -7 4 -29 1 -49 -8 -48 -20 -64 -19 -64 3 0 14 -13 22 -47 31 -48 13 -64 14 -147 10 -52 -3 -88 17 -116 64 -22 35 -26 106 -10 138 14 25 62 49 97 49 59 0 96 -58 58 -90 -17 -14 -30 -7 -30 18 0 12 -10 18 -32 20 -68 7 -82 -82 -20 -134 38 -32 81 -28 133 11 43 33 64 73 64 125 0 83 -56 137 -152 146 -44 5 -62 1 -106 -22z m1479 -384 c-19 -16 -39 -26 -44 -23 -13 8 39 53 61 53 12 -1 7 -9 -17 -30z m114 20 c-9 -15 -65 -42 -77 -38 -6 2 4 14 23 26 36 23 65 29 54 12z m-205 -7 c0 -10 -32 -43 -42 -43 -14 0 -9 22 10 36 19 15 32 18 32 7z m-240 -38 c-13 -14 -31 -25 -39 -25 -11 0 -5 11 17 31 39 35 56 31 22 -6z m100 26 c0 -13 -29 -35 -37 -28 -7 8 15 37 28 37 5 0 9 -4 9 -9z m386 -6 c-26 -19 -42 -19 -26 0 7 8 20 15 29 15 13 -1 13 -3 -3 -15z m-556 -15 c-9 -18 -40 -40 -54 -40 -17 0 -2 23 27 40 40 25 40 25 27 0z m-130 -25 c-7 -9 -15 -13 -17 -11 -7 7 7 26 19 26 6 0 6 -6 -2 -15z m1734 -477 c-9 -14 -24 2 -24 25 1 21 1 21 15 3 8 -10 12 -23 9 -28z m72 -13 c7 -29 1 -41 -15 -30 -14 8 -14 55 -1 55 5 0 12 -11 16 -25z m64 -34 c13 -26 14 -69 0 -55 -15 15 -30 74 -20 74 5 0 14 -9 20 -19z m70 -94 c0 -53 -16 -38 -26 23 -7 41 -6 44 9 31 11 -8 17 -28 17 -54z" id="44"/>
<path d="M5913 5824 c-8 -4 0 -21 22 -49 93 -123 118 -354 54 -502 -31 -71 -36 -160 -10 -201 41 -64 121 -89 199 -61 64 22 97 134 52 179 -23 23 -49 18 -30 -5 35 -42 -20 -125 -74 -111 -33 8 -34 33 -1 119 30 80 49 230 41 312 -15 144 -101 291 -183 314 -41 12 -51 12 -70 5z" id="45"/>
<path d="M5774 5727 c-1 -123 -36 -234 -95 -301 -23 -26 -40 -48 -38 -50 8 -7 68 -36 74 -36 12 0 75 150 89 212 8 35 16 101 19 146 5 73 3 86 -14 103 -10 10 -22 19 -26 19 -5 0 -8 -42 -9 -93z" id="46"/>
<path d="M6420 5807 c-23 -12 -25 -16 -22 -87 3 -58 -1 -86 -17 -122 -11 -27 -17 -48 -12 -48 20 0 113 114 143 175 32 65 33 67 14 81 -24 17 -73 18 -106 1z" id="47"/>
<path d="M2653 5751 c-118 -85 -167 -227 -143 -416 10 -81 51 -229 68 -247 4 -4 7 50 8 120 1 100 6 140 22 187 11 33 28 102 37 153 9 50 19 92 22 92 3 0 2 -44 -1 -98 l-7 -99 33 -14 c18 -7 57 -33 87 -57 l54 -44 -7 33 c-3 19 -10 75 -15 124 -11 110 -75 295 -101 295 -10 0 -35 -13 -57 -29z" id="48"/>
<path d="M2971 5719 c-25 -44 -19 -58 22 -59 14 0 17 9 17 50 0 28 -4 50 -8 50 -5 0 -19 -19 -31 -41z" id="49"/>
<path d="M6336 5748 c-3 -7 -7 -37 -10 -66 -3 -30 -17 -74 -30 -99 l-25 -44 27 3 c22 2 31 12 49 58 27 66 31 160 8 160 -9 0 -17 -6 -19 -12z" id="50"/>
<path d="M5905 5607 l0 -142 -38 -85 c-52 -115 -53 -117 -27 -125 29 -9 46 8 85 85 45 89 60 169 46 244 -9 50 -53 166 -63 166 -2 0 -3 -64 -3 -143z" id="51"/>
<path d="M6675 5720 c-46 -12 -82 -28 -90 -39 -3 -6 -21 -11 -38 -11 -26 0 -37 -8 -57 -37 -27 -39 -27 -46 -18 -338 3 -89 0 -105 -20 -144 -13 -24 -35 -54 -49 -67 l-26 -24 27 -21 c19 -15 26 -30 26 -55 0 -27 4 -34 20 -34 11 0 27 -11 36 -25 9 -14 22 -25 29 -25 7 0 20 -11 28 -24 9 -12 33 -31 54 -40 21 -10 47 -28 58 -41 11 -12 35 -25 54 -29 l33 -6 -8 38 c-17 70 -9 251 17 392 34 188 35 422 2 493 -22 48 -27 50 -78 37z m10 -670 c-3 -5 -10 -10 -16 -10 -5 0 -9 5 -9 10 0 6 7 10 16 10 8 0 12 -4 9 -10z m-28 -118 l-12 -25 -6 24 c-7 28 10 57 22 38 4 -7 2 -23 -4 -37z" id="52"/>
<path d="M3919 5703 c23 -43 87 -106 135 -133 60 -35 103 -37 246 -15 182 29 346 45 463 45 64 0 117 2 117 5 0 3 -9 24 -21 47 l-21 40 -81 -7 c-45 -3 -122 -15 -172 -25 -299 -61 -498 -50 -626 35 -46 30 -53 31 -40 8z" id="53"/>
<path d="M6268 5702 c-8 -9 -21 -32 -28 -50 -7 -18 -21 -37 -31 -43 -20 -10 -26 -54 -8 -64 24 -15 71 52 88 124 10 46 1 60 -21 33z" id="54"/>
<path d="M5868 5697 c-5 -10 -8 -31 -8 -46 0 -50 -40 -184 -77 -258 -26 -55 -33 -77 -25 -85 29 -29 91 90 112 213 12 70 10 207 -2 176z" id="55"/>
<path d="M2934 5625 c-4 -9 -7 -39 -8 -67 l-1 -52 50 3 c28 1 51 4 53 6 2 2 0 24 -4 50 -6 41 -11 49 -40 61 -42 17 -43 17 -50 -1z" id="56"/>
<path d="M5375 5603 c-11 -2 -30 -9 -43 -16 -18 -8 -28 -8 -43 1 -25 16 -39 8 -39 -22 0 -59 78 -66 128 -12 17 20 32 40 32 46 0 10 -2 11 -35 3z" id="57"/>
<path d="M6206 5488 c-3 -7 -7 -56 -10 -108 -3 -52 -9 -105 -12 -117 -5 -20 -3 -23 21 -23 17 0 37 -11 55 -30 l28 -30 30 25 c41 34 62 84 62 144 0 62 -28 122 -65 139 -34 16 -105 16 -109 0z" id="58"/>
<path d="M2934 5465 c-6 -15 22 -111 35 -119 4 -3 31 11 59 30 l52 34 -17 35 c-16 34 -19 35 -70 35 -38 0 -55 -4 -59 -15z" id="59"/>
<path d="M6407 5413 c22 -85 -6 -183 -71 -240 -31 -27 -45 -49 -50 -75 -9 -47 3 -49 66 -9 81 51 117 172 84 284 -17 57 -44 95 -29 40z" id="60"/>
<path d="M2640 5391 c-13 -25 -30 -141 -30 -213 0 -69 41 -207 78 -261 29 -43 120 -123 129 -114 3 4 1 12 -4 19 -17 22 -53 127 -53 156 0 16 5 33 11 39 8 8 5 25 -14 65 -23 48 -58 153 -56 167 0 3 24 -41 52 -99 59 -119 35 -108 202 -96 44 3 82 6 84 6 2 0 -20 19 -49 43 -28 23 -75 73 -103 111 -51 68 -143 153 -197 181 -37 19 -37 19 -50 -4z" id="61"/>
<path d="M3042 5348 c-28 -18 -52 -36 -52 -40 0 -13 72 -88 84 -88 7 0 23 22 35 49 22 46 22 50 7 80 -9 17 -18 31 -19 31 -1 0 -26 -15 -55 -32z" id="62"/>
<path d="M5937 5294 c-34 -62 -41 -94 -19 -94 10 0 65 137 60 151 -2 6 -20 -20 -41 -57z" id="63"/>
<path d="M2320 5248 c-7 -24 -40 -97 -74 -163 -97 -186 -197 -340 -329 -502 -32 -40 -53 -73 -47 -73 27 0 98 74 187 195 53 71 101 135 106 140 21 23 -49 -105 -94 -172 -27 -40 -49 -75 -49 -78 0 -3 13 1 28 10 36 22 114 127 188 254 32 55 60 99 62 97 7 -7 -59 -154 -98 -218 -41 -68 -37 -88 9 -39 16 17 36 31 43 31 8 0 27 23 42 51 16 28 30 48 33 46 2 -3 0 -14 -6 -25 -32 -59 14 -44 56 19 24 37 26 44 20 127 -6 98 -47 342 -57 342 -4 0 -13 -19 -20 -42z" id="64"/>
<path d="M3125 5241 l-25 -50 28 -19 c51 -35 52 -35 68 3 15 36 14 38 -12 76 -15 21 -28 39 -30 39 -2 0 -15 -22 -29 -49z" id="65"/>
<path d="M3220 5160 c-14 -26 -6 -35 38 -43 40 -8 40 1 3 37 l-29 28 -12 -22z" id="66"/>
<path d="M6140 5128 l0 -32 21 21 c22 22 19 43 -7 43 -9 0 -14 -11 -14 -32z" id="67"/>
<path d="M2511 5048 c-26 -81 -50 -262 -66 -493 -10 -151 -34 -326 -55 -405 -26 -98 -26 -108 0 -85 12 11 18 25 15 36 -7 20 19 49 45 49 10 0 22 9 25 20 3 11 19 122 35 246 16 124 31 228 34 232 14 13 0 -273 -20 -405 -6 -40 -5 -43 17 -43 13 0 29 4 36 8 13 8 32 105 63 317 l19 130 -3 -162 c-4 -153 -3 -163 14 -163 10 0 32 12 49 26 30 25 31 28 31 112 0 48 3 112 7 142 10 83 21 30 22 -109 1 -100 3 -112 16 -101 8 7 15 21 15 31 0 10 9 23 20 29 20 10 20 17 14 97 -8 101 8 109 27 13 l11 -59 28 14 c15 8 30 23 33 35 3 12 16 22 35 26 22 4 32 14 37 32 7 30 4 34 -60 57 -163 58 -316 196 -393 353 -15 28 -29 52 -33 52 -4 0 -12 -15 -18 -32z" id="68"/>
<path d="M3525 5015 c83 -53 172 -90 238 -98 l48 -7 -3 38 c-3 35 -5 37 -48 45 -25 5 -100 22 -168 38 -68 16 -127 29 -130 29 -4 0 25 -21 63 -45z" id="69"/>
<path d="M2895 5024 c-82 -13 -105 -24 -105 -49 0 -43 50 -153 92 -199 33 -38 52 -49 117 -70 73 -23 202 -46 258 -46 25 0 23 3 -26 54 -28 30 -51 59 -51 64 0 5 -14 12 -30 16 -30 6 -143 57 -137 62 1 2 42 -9 91 -23 86 -24 89 -25 99 -7 5 11 38 47 73 82 35 35 64 64 64 65 0 1 -26 3 -58 4 -31 2 -88 12 -127 23 -70 21 -203 33 -260 24z" id="70"/>
<path d="M6238 5014 c-16 -16 -14 -20 35 -74 29 -31 67 -87 86 -124 22 -46 43 -74 63 -85 17 -9 48 -31 70 -48 22 -18 49 -33 60 -33 11 0 34 -14 50 -32 29 -31 31 -32 44 -13 18 24 18 61 1 68 -18 7 -48 72 -42 89 4 9 -10 22 -41 37 -26 13 -49 32 -51 42 -3 11 -14 19 -24 19 -10 0 -26 11 -34 24 -9 13 -27 27 -41 30 -23 6 -29 19 -25 62 2 31 -20 45 -81 51 -42 4 -56 1 -70 -13z" id="71"/>
<path d="M3395 4967 c-53 -27 -162 -137 -171 -172 -6 -26 -2 -34 40 -72 59 -53 97 -64 182 -52 136 19 250 60 350 125 l59 38 -70 12 c-65 12 -75 11 -145 -11 -60 -20 -180 -44 -223 -45 -23 0 7 18 36 23 61 10 197 49 197 57 0 4 -26 19 -57 33 -32 14 -81 39 -108 55 l-50 30 -40 -21z" id="72"/>
<path d="M3854 4975 c-4 -8 -3 -26 0 -40 l6 -25 223 2 222 3 3 33 3 34 -139 -4 c-76 -3 -143 -8 -149 -11 -6 -4 -24 -3 -39 2 -16 5 -51 12 -77 15 -37 4 -49 2 -53 -9z" id="73"/>
<path d="M4408 4982 c-56 -3 -58 -4 -58 -31 l0 -28 201 -7 c111 -4 221 -9 244 -13 40 -5 43 -4 49 22 4 15 3 32 -1 36 -5 5 -72 11 -148 14 -77 3 -160 7 -185 8 -25 1 -71 1 -102 -1z" id="74"/>
<path d="M4890 4929 l0 -34 83 -21 c45 -12 137 -43 205 -68 68 -25 129 -46 137 -46 7 0 15 12 18 28 9 47 -50 82 -150 85 -28 2 -49 9 -66 25 -20 19 -32 23 -57 17 -22 -5 -37 -2 -48 8 -9 8 -30 17 -47 20 -16 3 -40 8 -52 12 -21 7 -23 4 -23 -26z" id="75"/>
<path d="M4070 4816 c0 -27 51 -176 60 -176 12 0 63 66 100 133 l32 57 -96 0 c-77 0 -96 -3 -96 -14z" id="76"/>
<path d="M4296 4801 c-9 -17 -13 -31 -9 -32 5 0 40 0 78 1 225 4 524 -58 779 -162 168 -69 400 -211 469 -288 20 -22 40 -40 46 -40 5 0 18 25 27 55 l18 55 -40 41 c-93 97 -351 239 -560 308 -178 60 -319 81 -576 88 l-216 6 -16 -32z" id="77"/>
<path d="M5370 4781 c0 -17 0 -34 -1 -38 -1 -4 31 -24 71 -45 82 -43 183 -113 219 -152 33 -35 47 -33 62 11 12 36 11 37 -32 74 -24 21 -52 39 -62 39 -10 0 -20 6 -23 14 -9 23 -91 76 -117 76 -13 0 -31 9 -38 19 -8 11 -29 22 -46 26 -32 6 -33 5 -33 -24z" id="78"/>
<path d="M2356 4734 c-27 -24 -62 -46 -78 -49 -16 -4 -36 -18 -44 -31 -9 -13 -26 -24 -38 -24 -41 0 -65 -12 -68 -33 -2 -15 -13 -23 -36 -28 -19 -4 -40 -16 -47 -27 -10 -13 -30 -21 -60 -25 -29 -3 -54 -13 -66 -25 -10 -12 -37 -26 -59 -32 -27 -7 -44 -19 -49 -34 -5 -12 -27 -34 -48 -48 -22 -14 -47 -42 -57 -61 -9 -20 -32 -45 -51 -57 -19 -12 -38 -27 -42 -34 -5 -8 -27 -23 -50 -35 -50 -25 -53 -38 -18 -79 15 -18 25 -42 25 -61 0 -17 3 -31 8 -31 4 0 14 -12 23 -26 9 -14 34 -34 57 -44 39 -18 41 -18 76 1 20 10 42 19 50 19 7 0 24 8 37 19 13 10 41 24 62 30 21 7 57 23 80 36 23 13 53 26 67 30 14 4 38 18 53 31 16 13 34 24 41 24 7 0 30 14 51 30 21 17 44 30 51 30 10 0 37 29 71 79 2 2 20 7 40 10 37 6 38 7 45 61 11 87 31 394 27 412 -3 12 -15 6 -53 -28z m-296 -269 c0 -14 -4 -25 -10 -25 -5 0 -10 11 -10 25 0 14 5 25 10 25 6 0 10 -11 10 -25z m-38 -19 c1 -10 -3 -21 -9 -23 -9 -3 -13 6 -13 28 0 34 15 31 22 -5z m-52 -48 c0 -24 -17 -23 -25 2 -8 26 4 48 16 29 5 -8 9 -22 9 -31z m-50 -24 c0 -8 -4 -14 -10 -14 -5 0 -10 9 -10 21 0 11 5 17 10 14 6 -3 10 -13 10 -21z m-36 -10 c7 -19 -2 -37 -15 -29 -12 8 -12 45 0 45 5 0 12 -7 15 -16z m-68 -49 c7 -29 1 -41 -15 -30 -14 8 -14 55 -1 55 5 0 12 -11 16 -25z m-66 -68 c0 -18 -2 -19 -10 -7 -13 20 -13 43 0 35 6 -3 10 -16 10 -28z" id="79"/>
<path d="M3785 4744 c-11 -9 -44 -27 -73 -40 l-53 -24 37 -68 c21 -37 39 -69 41 -71 5 -7 133 57 133 66 -2 22 -48 147 -56 150 -5 1 -18 -5 -29 -13z" id="80"/>
<path d="M4003 4750 c-59 -24 -74 -122 -33 -217 l22 -52 41 30 c56 41 137 63 206 56 31 -3 101 -19 155 -36 105 -33 181 -41 259 -28 37 7 47 5 47 -6 0 -50 -100 -77 -290 -77 -217 0 -260 -19 -260 -114 0 -32 6 -56 17 -68 16 -17 17 -17 27 4 35 70 159 83 289 30 111 -46 202 -40 275 15 40 30 57 20 48 -29 -22 -117 -125 -161 -296 -123 -87 19 -194 19 -209 1 -17 -21 -3 -44 61 -98 85 -72 99 -79 122 -62 25 18 59 18 143 -2 93 -22 161 -15 215 22 24 16 48 29 53 29 6 0 12 -20 15 -44 4 -33 12 -49 33 -65 25 -19 40 -21 135 -19 90 2 114 -1 149 -18 l42 -20 40 21 c45 22 45 23 31 49 -12 23 -48 37 -130 51 -35 7 -76 18 -90 25 -58 30 -120 121 -120 175 0 27 13 25 46 -5 32 -29 114 -62 169 -66 22 -2 78 0 125 4 67 6 94 5 129 -7 24 -9 45 -16 46 -16 1 0 8 21 15 46 13 45 13 46 -16 70 -61 50 -106 64 -232 73 -135 9 -165 21 -215 83 -38 48 -30 60 30 42 74 -23 243 -13 243 14 0 26 -239 132 -298 132 -65 0 -74 -14 -83 -126 -8 -108 -20 -167 -44 -229 -12 -30 -14 -33 -9 -10 9 45 6 201 -5 280 -6 39 -11 73 -11 77 0 21 -62 75 -114 99 -97 46 -189 62 -329 57 -112 -3 -127 -6 -187 -35 -36 -18 -82 -42 -102 -55 -36 -22 -37 -22 -57 -4 -11 10 -31 50 -43 87 -12 38 -24 69 -27 68 -4 0 -16 -4 -28 -9z" id="81"/>
<path d="M3610 4663 c-44 -16 -52 -81 -21 -161 41 -104 151 -314 209 -399 225 -327 543 -544 897 -609 114 -21 365 -15 470 10 299 73 467 202 539 413 29 85 60 222 53 229 -3 3 -23 -6 -44 -20 -20 -14 -50 -26 -64 -26 -24 0 -39 -15 -39 -40 0 -4 20 -13 44 -19 25 -6 47 -15 50 -20 9 -13 -33 -141 -57 -176 -34 -50 -70 -85 -87 -85 -8 0 -35 31 -59 70 -37 59 -46 68 -62 60 -31 -17 -29 -26 21 -75 28 -27 50 -57 50 -66 0 -39 -172 -156 -216 -147 -10 1 -21 17 -26 33 -5 17 -18 55 -29 86 -18 50 -23 55 -45 51 -29 -5 -29 -10 -4 -86 29 -86 27 -104 -15 -122 -56 -23 -182 -39 -210 -26 -23 11 -24 17 -27 104 -3 92 -3 93 -28 93 -25 0 -25 -1 -28 -91 -3 -86 -4 -92 -28 -103 -63 -28 -227 5 -287 59 l-32 28 28 87 c16 47 26 93 23 101 -11 28 -32 13 -68 -48 -20 -35 -48 -76 -62 -93 l-25 -30 -43 23 c-52 28 -217 158 -224 177 -3 8 24 48 60 91 61 71 74 95 53 96 -5 0 -45 -26 -90 -57 l-82 -58 -57 63 c-57 61 -118 145 -118 162 0 4 34 33 76 64 l76 56 -20 21 -21 20 -64 -41 c-35 -23 -70 -42 -79 -42 -19 0 -148 191 -148 219 0 4 34 25 75 47 74 39 82 47 67 71 -6 9 -26 3 -78 -24 -44 -23 -77 -34 -88 -30 -10 4 -34 43 -53 87 -20 44 -39 80 -42 79 -3 0 -13 -3 -21 -6z" id="82"/>
<path d="M3044 4595 c-11 -26 -22 -37 -44 -42 -20 -4 -30 -11 -30 -24 0 -10 -13 -25 -29 -33 -16 -9 -31 -22 -35 -31 -3 -9 -18 -20 -34 -26 -15 -5 -36 -24 -45 -42 -17 -29 -72 -77 -119 -102 -10 -6 -18 -21 -18 -37 0 -18 -7 -29 -20 -33 -11 -4 -31 -18 -44 -32 -13 -14 -39 -28 -57 -32 -22 -4 -35 -13 -38 -26 -4 -25 -19 -35 -53 -35 -21 0 -28 -5 -28 -20 0 -12 -24 -39 -65 -71 -36 -28 -65 -55 -65 -60 0 -5 -9 -9 -19 -9 -10 0 -33 -16 -51 -36 -27 -31 -31 -42 -25 -70 4 -26 2 -36 -10 -40 -12 -5 -13 -10 -4 -20 20 -24 3 -46 -30 -39 -19 4 -43 -1 -73 -15 -40 -20 -43 -25 -40 -55 5 -44 -42 -126 -96 -165 -47 -34 -59 -67 -44 -118 9 -28 8 -41 -4 -65 -15 -27 -14 -33 1 -68 15 -33 16 -43 4 -70 -12 -31 -11 -33 20 -60 28 -23 32 -32 27 -57 -5 -22 -1 -36 17 -58 13 -16 29 -54 35 -84 11 -49 18 -60 59 -90 71 -52 95 -100 90 -178 -4 -56 -2 -64 18 -80 12 -10 42 -24 65 -32 24 -8 51 -26 64 -43 11 -16 44 -40 71 -53 69 -33 139 -75 147 -88 33 -52 27 -51 129 -26 161 38 160 37 197 110 27 53 32 72 27 104 -13 84 -76 158 -275 321 -72 59 -136 120 -150 144 -28 45 -50 49 -60 10 -4 -14 -24 -48 -44 -77 -21 -28 -44 -76 -53 -107 -9 -30 -20 -55 -24 -55 -5 0 -9 21 -9 47 0 33 8 61 29 98 16 29 33 68 36 88 6 29 20 47 71 89 61 49 64 54 64 95 0 34 5 46 25 59 14 9 25 26 25 38 0 35 37 84 79 105 22 12 42 29 45 39 7 22 81 77 150 112 41 21 50 30 51 54 1 40 25 53 108 61 73 7 191 34 183 42 -2 3 -39 -1 -80 -8 -42 -6 -79 -9 -82 -6 -3 3 43 24 103 47 132 51 149 62 170 105 16 33 16 35 -18 97 -63 119 -35 234 74 302 60 37 81 25 48 -27 -37 -60 -21 -140 33 -165 30 -13 48 -8 94 25 42 31 68 84 82 166 20 114 -9 195 -101 284 -72 69 -133 90 -282 97 l-128 7 -15 -36z m10 -161 c20 -8 21 -24 2 -24 -8 0 -16 7 -20 15 -6 17 -4 18 18 9z m-20 -33 c3 -4 3 -11 0 -14 -8 -8 -34 3 -34 14 0 11 27 12 34 0z m-151 -115 c6 -16 -11 -36 -30 -36 -7 0 -13 -7 -13 -16 0 -9 -7 -14 -17 -12 -27 5 -23 42 5 46 12 2 22 10 22 18 0 18 26 18 33 0z m-138 -97 c4 -6 5 -12 2 -15 -7 -7 -37 7 -37 17 0 13 27 11 35 -2z m-114 -105 c12 -14 11 -16 -5 -13 -11 2 -21 10 -24 17 -5 17 13 15 29 -4z m-66 -54 c3 -5 -1 -10 -9 -10 -9 0 -16 5 -16 10 0 6 4 10 9 10 6 0 13 -4 16 -10z m-75 -71 c0 -5 -7 -9 -15 -9 -8 0 -15 7 -15 15 0 9 6 12 15 9 8 -4 15 -10 15 -15z m387 -36 c6 -16 -30 -174 -50 -220 -5 -12 -42 -43 -81 -69 -39 -26 -110 -76 -159 -111 -48 -36 -93 -63 -101 -60 -18 7 -78 153 -74 180 2 15 34 39 108 82 58 33 156 96 218 138 62 42 117 77 123 77 5 0 13 -8 16 -17z m-469 -16 c2 -10 -3 -17 -11 -17 -16 0 -30 24 -19 34 10 10 27 1 30 -17z m-54 -33 c22 -9 20 -24 -3 -24 -26 0 -51 10 -51 21 0 10 31 12 54 3z m-4 -59 c8 -9 8 -15 2 -15 -18 0 -42 12 -42 21 0 14 26 10 40 -6z" id="83"/>
<path d="M2725 3814 c-60 -41 -147 -96 -193 -121 -65 -35 -82 -49 -77 -62 4 -9 16 -40 27 -69 19 -47 23 -51 39 -40 10 7 57 40 105 73 175 122 166 112 191 200 13 44 22 83 21 87 -2 4 -52 -26 -113 -68z" id="84"/>
<path d="M5746 4514 c-21 -51 -22 -49 64 -159 25 -33 59 -81 74 -107 31 -55 46 -59 75 -22 26 34 27 54 1 61 -11 3 -20 13 -20 23 0 10 -7 23 -15 30 -8 7 -36 48 -62 91 -26 43 -58 90 -72 103 l-26 25 -19 -45z" id="85"/>
<path d="M4133 4526 c-60 -19 -113 -55 -113 -76 0 -10 21 -46 47 -81 l47 -64 7 39 c14 85 82 111 284 108 133 -1 159 7 72 22 -21 4 -81 20 -134 37 -104 32 -146 35 -210 15z" id="86"/>
<path d="M3853 4467 c-35 -17 -63 -36 -63 -42 0 -14 103 -165 112 -165 9 0 118 71 118 76 0 4 -91 147 -99 155 -3 4 -34 -7 -68 -24z" id="87"/>
<path d="M5325 4374 c-32 -10 -81 -14 -137 -11 -73 3 -85 1 -76 -10 23 -28 54 -36 170 -44 121 -8 175 -24 237 -69 39 -27 44 -25 36 13 -11 46 -39 81 -89 111 -50 29 -69 30 -141 10z" id="88"/>
<path d="M5724 4315 c-4 -11 -20 -50 -35 -87 -32 -73 -33 -78 -20 -78 17 0 111 92 111 108 0 10 -11 31 -24 47 -23 28 -25 29 -32 10z" id="89"/>
<path d="M4276 4270 c-64 -20 -83 -65 -45 -106 22 -23 22 -23 47 -4 31 25 143 27 242 5 87 -19 137 -18 185 4 36 16 76 64 63 76 -2 3 -20 -2 -38 -12 -19 -9 -66 -18 -105 -21 -63 -4 -80 -1 -146 27 -80 34 -157 46 -203 31z" id="90"/>
<path d="M2306 4204 c-16 -20 -43 -42 -61 -49 -17 -8 -37 -20 -44 -28 -6 -8 -26 -21 -44 -28 -18 -7 -45 -23 -60 -36 -16 -13 -36 -23 -45 -23 -8 0 -46 -16 -83 -35 -38 -19 -73 -35 -79 -35 -6 0 -28 -11 -48 -25 -20 -14 -44 -25 -53 -25 -25 0 -46 -31 -53 -80 -4 -25 -33 -110 -65 -190 -34 -86 -54 -147 -48 -149 19 -7 71 64 96 131 40 104 61 151 67 146 4 -4 -33 -132 -53 -185 -3 -9 3 -13 20 -13 21 0 30 11 59 73 19 39 47 107 63 150 30 83 39 95 25 32 -16 -67 -14 -74 17 -66 21 6 38 27 77 99 27 51 51 90 53 88 3 -2 -7 -37 -21 -77 -14 -40 -24 -74 -23 -76 2 -1 19 5 37 15 24 12 45 36 69 79 19 35 36 61 38 59 2 -2 -4 -25 -12 -51 -9 -26 -15 -48 -13 -50 2 -2 15 -1 29 2 16 3 32 17 44 40 10 19 40 52 67 75 40 33 51 51 67 104 11 35 23 86 27 114 8 62 -8 67 -50 14z" id="91"/>
<path d="M4027 4184 c-60 -40 -67 -48 -55 -62 7 -9 37 -46 67 -82 30 -36 58 -69 62 -73 3 -5 38 15 77 43 l71 52 -71 81 c-39 45 -74 83 -77 84 -3 1 -37 -18 -74 -43z" id="92"/>
<path d="M5984 4195 c-36 -40 -33 -44 41 -70 63 -23 126 -15 184 23 l42 27 -73 6 c-45 4 -90 15 -115 28 -23 11 -44 21 -45 21 -2 0 -17 -16 -34 -35z" id="93"/>
<path d="M3289 4164 c-7 -8 -13 -37 -13 -64 -1 -52 18 -87 67 -124 34 -25 142 -34 205 -17 78 21 142 98 142 170 0 44 -14 45 -34 1 -40 -90 -156 -148 -245 -121 -68 20 -109 82 -102 154 3 21 -3 22 -20 1z" id="94"/>
<path d="M5050 4120 c0 -35 105 -109 156 -110 43 0 127 -33 151 -58 l25 -27 54 57 c30 31 54 63 54 72 0 27 -72 39 -164 27 -91 -12 -158 -4 -232 28 -24 11 -44 16 -44 11z" id="95"/>
<path d="M6265 4094 c-22 -13 -58 -30 -80 -36 -22 -7 -60 -27 -84 -45 -48 -36 -67 -36 -33 0 28 30 28 37 -3 37 -14 0 -48 9 -77 20 -28 11 -53 18 -55 17 -6 -7 -33 -150 -33 -177 0 -26 4 -29 50 -39 28 -6 66 -11 84 -11 82 0 245 127 266 209 6 23 10 44 8 46 -2 2 -21 -8 -43 -21z" id="96"/>
<path d="M3705 4053 c-36 -86 -124 -136 -240 -137 -93 -1 -155 28 -196 92 -20 33 -29 40 -29 26 0 -37 56 -111 107 -141 44 -25 57 -28 143 -28 89 0 100 2 170 37 41 20 88 50 104 66 l28 31 -33 45 c-18 25 -34 46 -36 46 -1 0 -10 -17 -18 -37z" id="97"/>
<path d="M5847 4059 c-19 -19 -44 -61 -56 -94 -12 -33 -38 -90 -58 -127 -19 -38 -33 -75 -29 -83 12 -32 96 -59 181 -60 75 0 85 3 138 35 59 35 168 139 132 125 -101 -39 -122 -42 -204 -24 -41 8 -55 7 -80 -6 -18 -9 -31 -11 -31 -5 0 6 7 13 15 16 10 4 12 15 8 35 -3 16 2 70 12 119 10 50 15 93 12 97 -4 3 -22 -10 -40 -28z" id="98"/>
<path d="M5536 3975 c-25 -30 -46 -57 -46 -62 0 -5 16 -33 37 -63 l36 -54 33 38 c18 21 42 64 53 96 21 65 19 69 -35 88 -31 10 -34 8 -78 -43z" id="99"/>
<path d="M4256 3926 c-31 -35 -56 -68 -56 -73 0 -9 160 -131 200 -153 21 -11 26 -10 45 14 11 14 34 51 50 82 29 54 29 56 11 68 -10 6 -54 37 -97 69 -44 31 -83 57 -88 57 -5 0 -34 -29 -65 -64z" id="100"/>
<path d="M3775 3937 c-16 -16 -64 -46 -105 -66 -89 -43 -73 -52 51 -26 130 26 157 47 121 94 -25 33 -32 33 -67 -2z" id="101"/>
<path d="M4507 3963 c-31 -8 -13 -27 69 -70 129 -68 236 -95 379 -95 125 0 254 24 262 49 6 17 -58 27 -125 20 -108 -11 -212 30 -212 85 0 23 -8 23 -61 -2 -52 -23 -114 -25 -189 -6 -82 20 -103 24 -123 19z" id="102"/>
<path d="M3856 3832 l-39 -27 74 -12 c107 -17 107 -17 64 27 -21 22 -44 40 -50 39 -5 0 -28 -12 -49 -27z" id="103"/>
<path d="M5317 3820 c-32 -15 -60 -30 -63 -32 -8 -8 49 -148 60 -148 18 0 109 56 133 82 l23 24 -48 51 -47 52 -58 -29z" id="104"/>
<path d="M2065 3776 c-33 -17 -72 -39 -86 -49 -14 -10 -34 -15 -42 -11 -12 4 -20 -1 -26 -17 -5 -13 -19 -33 -31 -44 -12 -11 -31 -40 -42 -65 -22 -51 -32 -60 -70 -60 -17 0 -42 -13 -65 -34 -21 -18 -52 -41 -70 -49 -17 -9 -41 -30 -53 -47 -12 -16 -26 -30 -31 -30 -25 0 -99 -62 -105 -88 -10 -48 -26 -82 -56 -119 -15 -20 -31 -48 -35 -62 -8 -37 -39 -95 -57 -110 -11 -9 -16 -30 -16 -63 0 -40 -5 -53 -26 -73 -29 -27 -27 -50 6 -80 20 -18 28 -65 11 -65 -5 0 -11 -7 -15 -15 -6 -16 39 -75 58 -75 7 0 27 22 44 49 68 105 197 194 236 162 17 -14 39 -97 31 -120 -3 -9 -38 -36 -78 -59 -116 -67 -113 -63 -75 -106 17 -20 41 -36 52 -36 12 0 48 15 80 33 44 25 62 41 67 62 5 15 18 38 30 51 19 20 21 30 15 79 -8 68 8 103 59 135 36 22 57 53 69 103 4 15 23 46 43 68 l36 40 -26 27 c-30 31 -33 52 -15 81 9 15 9 25 0 46 -15 32 -16 82 -2 90 7 4 8 28 4 64 -7 69 10 110 60 143 47 31 81 93 81 148 0 43 2 45 50 72 28 15 55 29 60 32 7 2 7 7 0 13 -6 6 -31 -1 -70 -21z m-365 -427 c0 -20 -15 -26 -25 -9 -9 15 3 43 15 35 5 -3 10 -15 10 -26z m-66 -35 c4 -9 4 -19 2 -21 -8 -8 -26 8 -26 23 0 19 16 18 24 -2z m-34 -60 c0 -7 -4 -15 -9 -18 -11 -7 -21 17 -21 47 1 22 1 22 15 3 8 -11 15 -25 15 -32z m-52 -44 c3 -21 2 -22 -12 -11 -19 16 -21 44 -3 39 6 -3 14 -15 15 -28z m-50 -42 c7 -7 12 -18 12 -25 0 -11 -5 -11 -20 -3 -11 6 -20 17 -20 25 0 18 12 19 28 3z m-43 -98 c3 -5 -1 -10 -9 -10 -8 0 -18 5 -21 10 -3 6 1 10 9 10 8 0 18 -4 21 -10z m-46 -53 c6 -8 8 -17 4 -20 -7 -8 -33 11 -33 24 0 13 16 11 29 -4z m-19 -81 c0 -9 -30 -14 -35 -6 -4 6 3 10 14 10 12 0 21 -2 21 -4z" id="105"/>
<path d="M4597 3718 l-27 -83 22 -17 c41 -30 178 -62 228 -51 l31 6 -3 85 -3 85 -60 13 c-33 7 -80 20 -104 28 -24 9 -46 16 -50 16 -4 0 -19 -37 -34 -82z" id="106"/>
<path d="M3330 3740 c-47 -27 -91 -53 -99 -58 -14 -8 -12 -13 25 -70 1 -2 29 15 61 37 33 22 95 57 138 78 l78 37 -54 12 c-30 7 -56 13 -59 13 -3 0 -43 -22 -90 -49z" id="107"/>
<path d="M3675 3755 c-50 -13 -50 -13 -13 -14 21 -1 84 -10 140 -21 149 -29 318 -26 269 5 -6 3 -58 14 -117 25 -121 22 -205 24 -279 5z" id="108"/>
<path d="M5020 3741 c-49 -5 -55 -9 -54 -28 0 -13 1 -50 2 -83 l2 -60 48 0 c40 0 147 22 157 32 2 2 -4 35 -14 73 -17 69 -18 70 -52 71 -19 1 -59 -2 -89 -5z" id="109"/>
<path d="M3535 3700 c-79 -16 -187 -65 -220 -98 -39 -40 -60 -85 -50 -109 7 -17 8 -17 18 1 48 79 130 128 244 146 72 12 90 10 252 -22 72 -14 123 -19 166 -15 60 6 170 40 180 56 2 5 -48 8 -113 8 -73 1 -145 7 -192 17 -90 21 -230 28 -285 16z" id="110"/>
<path d="M5603 3658 l-41 -43 14 -65 c8 -36 17 -117 21 -180 7 -147 27 -194 91 -222 24 -11 46 -17 49 -14 3 3 -13 26 -35 51 -63 71 -74 146 -50 336 7 63 8 110 2 138 l-9 42 -42 -43z" id="111"/>
<path d="M5681 3587 c-9 -263 -7 -310 14 -347 l20 -35 6 85 c22 284 23 298 5 344 -32 84 -41 74 -45 -47z" id="112"/>
<path d="M6037 3687 c-17 -12 -15 -19 24 -107 23 -52 43 -96 44 -98 1 -1 15 3 29 10 33 15 30 33 -22 132 -40 76 -49 83 -75 63z" id="113"/>
<path d="M3100 3624 c-25 -14 -65 -45 -90 -68 -29 -28 -89 -65 -170 -104 -195 -95 -261 -172 -261 -307 0 -35 5 -74 12 -86 15 -28 99 -119 110 -119 4 0 36 39 70 88 34 48 67 92 72 97 13 12 -34 -70 -84 -150 l-38 -60 26 -27 c15 -16 32 -28 37 -28 6 1 45 48 86 106 41 58 81 110 89 117 15 13 -89 -162 -126 -211 -13 -18 -23 -36 -21 -40 2 -5 22 -25 44 -45 l42 -37 78 130 c42 71 79 128 81 126 2 -2 -28 -68 -67 -147 l-72 -144 25 -44 25 -44 99 199 c54 110 112 231 128 269 34 79 45 66 20 -22 -33 -115 -89 -251 -162 -398 -41 -82 -84 -174 -95 -203 -11 -29 -34 -72 -52 -95 -18 -24 -36 -56 -40 -71 -4 -15 -26 -49 -50 -74 -24 -26 -48 -57 -55 -69 -10 -21 -5 -83 8 -83 3 1 24 30 46 66 63 104 70 96 15 -16 -27 -57 -50 -111 -50 -120 0 -9 -9 -26 -20 -37 -15 -16 -19 -34 -18 -75 1 -37 -4 -62 -17 -81 -15 -23 -16 -32 -6 -54 11 -24 15 -19 84 118 68 136 184 339 193 339 2 0 -53 -114 -123 -254 l-127 -253 21 -33 20 -32 43 79 c56 103 151 263 156 263 2 0 -36 -81 -86 -180 -49 -99 -90 -186 -90 -193 0 -8 11 -19 25 -25 14 -7 35 -28 46 -47 12 -19 22 -35 24 -35 11 0 95 163 95 185 0 15 8 42 19 59 10 17 24 49 31 71 7 22 19 49 26 60 10 13 12 35 8 72 -5 40 -3 58 10 78 19 28 56 55 83 59 13 2 35 42 75 137 32 74 58 142 58 151 0 10 21 84 46 165 52 167 69 250 79 373 6 79 5 89 -20 135 -14 28 -32 75 -40 105 -27 106 -77 225 -110 260 -18 19 -36 51 -39 70 -7 34 -66 160 -76 160 -3 0 -25 -12 -50 -26z" id="114"/>
<path d="M3600 3594 c52 -8 121 -23 154 -34 33 -11 78 -20 101 -20 58 0 155 19 185 37 l25 14 -25 -6 c-70 -18 -187 -16 -280 4 -57 13 -126 21 -175 20 l-80 -1 95 -14z" id="115"/>
<path d="M4117 3564 c-78 -35 -123 -48 -221 -64 -146 -23 -154 -26 -268 -92 -155 -89 -235 -205 -202 -292 9 -24 24 -19 24 7 0 39 45 120 94 170 65 68 147 104 266 117 177 20 232 31 306 59 72 28 174 86 174 100 0 7 -58 41 -68 40 -4 0 -51 -21 -105 -45z" id="116"/>
<path d="M5830 3540 c0 -23 -16 -80 -37 -133 -63 -159 -45 -248 48 -232 45 8 56 -5 26 -33 -60 -57 -183 -55 -248 4 -22 20 -26 13 -34 -66 -6 -54 -4 -68 9 -79 21 -18 21 -92 0 -132 -8 -17 -40 -57 -70 -90 -75 -81 -74 -102 9 -209 104 -136 129 -174 117 -178 -18 -6 -76 45 -136 118 -31 39 -58 70 -61 70 -3 0 -31 -26 -62 -58 -32 -32 -91 -83 -132 -114 -41 -30 -79 -61 -85 -69 -7 -8 -25 -54 -42 -104 -23 -71 -34 -91 -50 -93 -29 -4 -80 -65 -111 -132 -22 -47 -26 -69 -26 -146 0 -75 3 -96 18 -112 11 -12 16 -26 12 -32 -20 -32 91 -233 183 -332 35 -37 95 -86 133 -110 38 -23 69 -48 69 -54 0 -19 33 -41 82 -53 70 -17 99 -14 143 15 74 49 95 75 95 115 0 20 7 42 15 49 19 16 19 34 -1 51 -12 10 -15 24 -10 61 7 47 6 48 -32 72 -22 14 -42 36 -46 50 -7 28 -62 66 -96 66 -13 0 -39 -5 -57 -12 -28 -10 -36 -10 -42 1 -5 7 -19 18 -32 25 -18 8 -26 24 -32 58 -8 43 -6 50 29 105 21 32 39 72 39 89 1 22 19 51 61 102 32 38 75 98 94 132 28 50 44 67 83 86 27 14 52 35 57 48 5 14 29 38 53 55 46 31 57 48 57 83 0 11 19 38 43 59 23 22 42 42 42 47 2 32 20 94 39 131 19 37 43 161 32 161 -2 0 -23 -7 -46 -15 -83 -29 -120 -18 -120 36 0 25 33 91 54 109 10 7 14 20 11 31 -5 13 -1 19 10 19 9 0 40 18 70 40 50 37 54 42 43 65 -8 18 -7 33 6 65 15 39 15 43 -4 80 -11 22 -20 53 -20 71 0 19 -10 43 -26 62 -16 19 -24 38 -20 50 3 11 -2 33 -10 48 -18 35 -73 99 -85 99 -5 0 -9 -18 -9 -40z m-2 -822 c17 -17 15 -31 -4 -24 -12 4 -14 1 -9 -14 9 -28 -10 -25 -30 6 -16 25 -16 26 6 19 18 -6 21 -4 16 9 -7 19 4 21 21 4z m-51 -124 c-10 -10 -37 16 -37 34 0 13 4 12 22 -5 12 -13 19 -25 15 -29z m-213 -256 c26 -37 19 -57 -9 -25 -14 15 -25 32 -25 38 0 16 18 10 34 -13z m-25 -44 c12 -15 21 -31 21 -37 0 -13 -38 21 -51 45 -15 28 7 22 30 -8z m-68 -43 c13 -11 20 -23 16 -27 -4 -4 -20 4 -35 19 -30 31 -16 37 19 8z m-61 -81 c8 -5 12 -12 8 -15 -9 -9 -48 4 -48 16 0 12 21 11 40 -1z m-30 -70 c0 -5 -7 -10 -15 -10 -8 0 -15 5 -15 10 0 6 7 10 15 10 8 0 15 -4 15 -10z" id="117"/>
<path d="M3428 3551 c-75 -16 -114 -65 -90 -114 5 -12 22 -52 37 -90 l27 -67 52 53 c47 50 213 153 275 172 12 4 19 10 15 15 -24 21 -254 44 -316 31z" id="118"/>
<path d="M5451 3534 c-40 -51 -54 -119 -46 -223 4 -53 10 -134 14 -181 4 -63 8 -78 14 -58 12 44 27 207 27 304 0 50 6 112 14 137 16 52 8 60 -23 21z" id="119"/>
<path d="M5510 3535 c-7 -17 -16 -100 -20 -190 -5 -88 -11 -185 -15 -215 l-6 -55 20 35 c43 73 61 156 60 269 0 58 -6 124 -13 146 l-13 40 -13 -30z" id="120"/>
<path d="M4293 3524 c-52 -40 -192 -101 -273 -118 -41 -8 -121 -20 -177 -25 -58 -6 -126 -20 -160 -33 l-58 -23 175 -8 c265 -13 259 -14 399 103 65 55 124 106 131 115 19 23 -1 18 -37 -11z" id="121"/>
<path d="M4365 3486 c-60 -29 -281 -211 -348 -286 -55 -63 -95 -140 -103 -196 -5 -37 -4 -36 20 19 55 130 122 200 307 323 130 86 189 134 189 153 0 16 -9 14 -65 -13z" id="122"/>
<path d="M5353 3488 c-33 -36 -43 -63 -43 -114 0 -80 53 -328 72 -340 10 -7 8 83 -8 286 -6 78 -1 120 21 173 10 25 -17 22 -42 -5z" id="123"/>
<path d="M4447 3456 c-15 -19 -91 -77 -170 -130 -211 -141 -294 -236 -327 -374 -12 -51 -7 -86 6 -46 48 146 125 222 349 345 90 50 200 150 211 192 7 31 7 32 -22 41 -16 5 -27 -1 -47 -28z" id="124"/>
<path d="M4544 3423 c-32 -69 -120 -144 -253 -219 -137 -76 -212 -138 -261 -214 -45 -70 -33 -83 16 -19 77 102 173 161 362 224 139 46 197 83 239 155 43 71 43 86 -4 94 -21 3 -48 9 -60 12 -17 5 -24 -1 -39 -33z" id="125"/>
<path d="M5221 3438 c-14 -37 -20 -74 -41 -253 -11 -93 -27 -197 -35 -230 -32 -132 -9 -124 36 13 27 84 33 118 40 257 4 88 11 177 15 198 7 41 -2 50 -15 15z" id="126"/>
<path d="M5154 3429 c-16 -17 -20 -43 -25 -152 -4 -111 -10 -142 -31 -195 l-26 -64 21 -35 c19 -34 21 -35 29 -14 4 12 17 104 28 204 12 100 25 200 30 222 15 64 9 72 -26 34z" id="127"/>
<path d="M4698 3373 c-50 -110 -110 -153 -293 -213 -131 -43 -200 -78 -263 -135 -55 -49 -117 -123 -110 -130 2 -3 27 12 54 33 85 63 190 110 299 131 180 36 252 68 325 147 73 79 119 214 73 214 -10 0 -27 3 -38 6 -17 4 -25 -5 -47 -53z" id="128"/>
<path d="M4836 3376 c-10 -68 -60 -158 -116 -210 -70 -65 -157 -103 -303 -132 -117 -23 -182 -42 -174 -51 3 -2 55 -10 116 -18 98 -13 121 -13 180 -1 113 24 203 80 270 169 53 70 93 176 89 236 -3 41 -6 46 -29 49 -24 3 -27 -1 -33 -42z" id="129"/>
<path d="M4971 3383 c-10 -21 -24 -58 -31 -82 -20 -74 -55 -143 -113 -221 -65 -87 -79 -130 -75 -225 l3 -70 23 62 c13 35 55 111 93 169 101 151 139 245 139 346 0 61 -14 68 -39 21z" id="130"/>
<path d="M5046 3337 c-11 -112 -52 -210 -141 -337 -57 -82 -98 -156 -93 -170 5 -16 165 138 203 196 65 98 89 215 66 318 -16 65 -28 62 -35 -7z" id="131"/>
<path d="M5248 3210 c-4 -120 -10 -159 -31 -225 -27 -82 -28 -102 -2 -69 32 40 64 112 75 171 10 51 10 74 -4 142 -28 139 -33 136 -38 -19z" id="132"/>
<path d="M3645 3267 c-52 -18 -102 -55 -125 -91 -18 -31 -21 -46 -16 -99 3 -34 5 -69 6 -77 1 -19 22 -104 27 -109 2 -3 10 4 19 15 14 18 15 16 9 -25 -8 -63 -38 -146 -111 -312 -89 -203 -104 -251 -111 -349 -9 -138 29 -262 95 -306 29 -20 102 -46 270 -94 41 -12 72 -23 70 -25 -4 -4 -178 14 -203 21 -14 4 -17 3 -10 -4 16 -16 173 -68 246 -82 61 -11 71 -10 112 8 24 11 48 25 51 31 4 6 7 59 7 117 -1 106 24 368 55 579 18 119 43 387 37 394 -14 18 -103 -129 -103 -172 0 -28 -23 -42 -38 -24 -21 26 -54 156 -59 233 -9 126 27 225 117 329 22 26 40 47 40 48 0 8 -361 3 -385 -6z m388 -707 c-1 -8 -17 -58 -35 -110 l-33 -95 -90 -17 c-160 -29 -241 -71 -319 -162 -35 -40 -47 -48 -57 -39 -9 9 -9 16 -2 25 6 7 16 33 23 58 23 88 103 186 187 228 21 11 72 27 113 36 75 17 144 50 170 81 16 19 46 15 43 -5z" id="133"/>
<path d="M3930 2485 c-14 -7 -63 -23 -108 -34 -124 -31 -181 -67 -234 -150 -36 -58 -36 -69 3 -36 65 54 229 115 311 115 30 0 46 24 63 93 8 30 1 32 -35 12z" id="134"/>
<path d="M6080 3051 c-19 -4 -48 -15 -65 -23 -58 -31 -172 -166 -153 -183 1 -1 37 6 78 17 58 15 93 18 152 14 l78 -6 6 27 c3 16 13 52 22 81 18 58 11 72 -35 72 -12 0 -27 2 -35 4 -7 2 -29 0 -48 -3z" id="135"/>
<path d="M5299 2978 c-35 -70 -81 -128 -133 -170 -68 -54 -81 -49 -82 32 -1 36 -9 83 -18 105 l-17 39 -47 -49 c-26 -28 -78 -79 -116 -115 -69 -65 -96 -108 -96 -154 0 -57 -26 -73 -56 -33 -15 21 -16 15 -10 -104 4 -91 15 -159 36 -245 47 -182 56 -207 89 -225 18 -11 31 -28 36 -48 4 -17 10 -31 15 -31 11 0 24 76 15 90 -8 13 5 353 13 345 4 -3 9 -70 12 -148 l5 -142 23 37 c18 28 25 60 32 145 18 208 23 248 31 268 5 11 6 -52 3 -150 l-6 -170 29 40 c23 32 33 62 46 145 10 58 24 130 32 160 l14 55 -4 -82 c-3 -46 -8 -96 -11 -113 -8 -37 3 -38 44 -2 24 20 36 43 48 87 30 118 35 137 40 132 5 -4 -8 -92 -21 -154 -8 -35 15 -28 63 17 43 41 102 133 102 159 0 8 17 41 38 75 55 87 68 155 46 226 -4 10 -20 -2 -53 -40 -29 -33 -53 -51 -62 -48 -8 3 -20 26 -28 52 -7 25 -17 49 -22 51 -4 3 -18 -14 -30 -37z" id="136"/>
<path d="M1906 2988 c-8 -13 -17 -38 -21 -56 -6 -31 -40 -71 -98 -118 -24 -20 -25 -26 -20 -77 3 -35 1 -68 -6 -86 -10 -22 -10 -55 -2 -138 6 -59 14 -182 17 -273 7 -184 13 -207 38 -168 14 22 17 53 16 189 0 90 3 209 7 264 6 85 8 94 14 60 4 -22 8 -74 8 -116 1 -42 4 -97 7 -122 l7 -46 28 14 c47 25 57 48 48 108 -10 63 -30 350 -25 355 6 6 24 -86 43 -221 9 -70 20 -127 23 -127 3 0 17 14 29 31 24 32 25 69 5 244 -11 96 14 32 33 -84 l18 -114 29 25 c25 22 29 32 32 92 4 84 -17 132 -79 177 -45 32 -66 62 -67 93 0 22 -50 116 -61 116 -5 0 -15 -10 -23 -22z" id="137"/>
<path d="M4678 2965 l-27 -15 19 -55 c31 -91 39 -98 40 -34 0 31 3 71 6 88 7 35 1 37 -38 16z" id="138"/>
<path d="M4162 2922 c-23 -16 -100 -488 -123 -756 -13 -158 -7 -252 21 -305 26 -51 90 -107 140 -122 36 -11 51 -10 118 9 42 13 133 51 202 85 117 58 128 66 165 120 33 49 40 67 43 123 5 67 -24 248 -38 239 -4 -2 -10 -18 -13 -34 -8 -41 -62 -150 -91 -186 -24 -30 -24 -29 9 86 58 199 71 307 58 483 -8 100 -18 170 -31 206 -18 52 -21 55 -48 50 -40 -7 -169 -5 -294 4 -58 4 -111 3 -118 -2z" id="139"/>
<path d="M1512 2780 c-17 -11 -53 -41 -78 -67 -47 -50 -121 -169 -110 -180 3 -3 32 18 63 49 32 30 91 74 132 97 70 41 73 44 67 73 -3 17 -6 34 -6 39 0 15 -34 10 -68 -11z" id="140"/>
<path d="M2119 2479 c-36 -26 -69 -62 -94 -103 -25 -41 -55 -74 -89 -97 l-51 -35 -5 -85 c-5 -77 -8 -88 -39 -126 -43 -54 -54 -111 -40 -211 13 -93 21 -110 62 -127 18 -7 43 -25 57 -40 31 -34 122 -75 165 -75 18 0 51 6 73 14 22 8 49 12 61 9 16 -4 21 1 26 31 8 42 0 54 -62 97 -42 29 -43 32 -43 84 0 95 18 155 61 198 24 25 41 53 45 76 10 57 27 80 118 171 47 46 86 89 86 95 0 14 -59 52 -93 61 -15 3 -39 21 -53 39 -23 30 -86 65 -117 65 -7 0 -38 -18 -68 -41z m69 -68 c3 -8 -1 -12 -9 -9 -7 2 -15 10 -17 17 -3 8 1 12 9 9 7 -2 15 -10 17 -17z m-28 -71 c0 -5 -9 -10 -20 -10 -11 0 -20 5 -20 10 0 6 9 10 20 10 11 0 20 -4 20 -10z m-45 -31 c4 -11 4 -23 1 -27 -10 -9 -39 25 -32 37 11 17 24 13 31 -10z m-31 -55 c22 -9 20 -24 -3 -24 -21 0 -34 13 -24 24 8 7 8 7 27 0z m-39 -75 c4 -6 5 -13 1 -16 -8 -8 -56 6 -56 17 0 13 47 13 55 -1z m-36 -65 c3 -16 1 -17 -13 -5 -19 16 -21 34 -3 29 6 -3 14 -13 16 -24z m-29 -84 c0 -5 -13 -10 -30 -10 -16 0 -30 5 -30 10 0 6 14 10 30 10 17 0 30 -4 30 -10z m-25 -50 c4 -6 -5 -10 -19 -10 -14 0 -26 5 -26 10 0 6 9 10 19 10 11 0 23 -4 26 -10z" id="141"/>
<path d="M5862 2356 c-23 -37 -42 -70 -42 -74 0 -4 16 -20 35 -35 l35 -28 1 38 c1 34 2 35 9 13 4 -14 8 -38 9 -55 1 -16 14 -56 30 -89 l30 -59 3 44 c3 43 4 42 23 -39 16 -67 26 -89 53 -115 l34 -32 -7 50 c-4 28 -5 48 -2 45 3 -3 21 -41 40 -84 31 -71 39 -81 78 -100 29 -14 49 -32 59 -53 13 -29 44 -52 55 -41 7 6 -102 175 -166 259 -154 198 -178 238 -214 353 l-21 69 -42 -67z" id="142"/>
<path d="M2408 2231 c-90 -89 -99 -102 -113 -156 -12 -45 -24 -67 -51 -90 -39 -34 -54 -76 -54 -152 0 -46 3 -54 29 -72 38 -27 41 -26 41 7 0 15 9 38 20 52 15 19 18 35 13 67 -5 35 -1 48 19 75 14 18 28 43 32 56 4 13 18 27 30 32 18 7 24 18 28 55 4 31 16 61 37 88 114 151 99 168 -31 38z" id="143"/>
<path d="M2755 2299 c-22 -4 -61 -8 -86 -8 -62 -1 -128 -39 -179 -103 -29 -36 -40 -60 -40 -84 0 -43 -18 -82 -42 -90 -10 -3 -27 -23 -38 -44 -11 -21 -24 -41 -30 -45 -5 -3 -7 -25 -3 -50 4 -35 1 -49 -16 -73 -16 -23 -21 -46 -22 -94 0 -34 -1 -88 -2 -118 l-2 -55 39 -12 c21 -7 51 -22 67 -34 16 -11 57 -32 92 -46 46 -18 78 -41 124 -88 53 -54 140 -115 163 -115 9 0 90 181 90 202 0 33 -41 97 -75 117 -20 11 -42 36 -50 53 -7 18 -29 60 -49 92 -41 68 -42 77 -17 130 13 27 17 52 13 83 -4 35 0 50 17 74 20 27 21 33 10 87 -16 78 -8 105 58 173 59 62 58 65 -22 48z m-305 -429 c0 -5 -4 -10 -9 -10 -6 0 -13 5 -16 10 -3 6 1 10 9 10 9 0 16 -4 16 -10z m-12 -78 c4 -14 -34 -16 -42 -3 -6 10 13 21 28 17 6 -1 12 -8 14 -14z m-8 -52 c0 -5 -7 -10 -16 -10 -8 0 -12 5 -9 10 3 6 10 10 16 10 5 0 9 -4 9 -10z m30 -58 c0 -13 -49 -36 -57 -28 -5 4 1 14 11 22 22 15 46 19 46 6z m0 -61 c0 -13 -29 -35 -37 -28 -7 8 15 37 28 37 5 0 9 -4 9 -9z m60 -47 c0 -9 -32 -33 -44 -34 -5 0 -1 9 9 20 18 20 35 26 35 14z m25 -64 c-10 -11 -20 -18 -23 -15 -3 3 3 14 13 25 10 11 20 18 23 15 3 -3 -3 -14 -13 -25z" id="144"/>
<path d="M5741 2190 c-23 -27 -71 -70 -106 -96 -84 -59 -86 -78 -12 -148 30 -28 64 -68 77 -89 12 -22 40 -51 60 -66 74 -54 142 -121 149 -148 6 -21 14 -29 37 -31 16 -2 36 -10 44 -17 8 -7 25 -16 37 -19 11 -4 28 -18 37 -31 11 -17 26 -25 46 -25 21 0 40 -12 71 -45 23 -24 58 -50 78 -56 20 -6 53 -20 75 -31 l39 -20 51 28 c28 15 54 32 58 38 10 15 -3 68 -24 95 -10 13 -18 32 -18 42 0 13 -7 19 -22 19 -31 0 -42 9 -62 49 -13 25 -32 40 -77 59 -49 21 -61 31 -67 56 -6 24 -17 34 -47 44 -48 16 -65 29 -65 53 0 10 -10 21 -22 25 -13 4 -51 34 -86 67 -50 48 -64 68 -69 100 -3 22 -18 54 -35 72 -15 18 -35 49 -43 68 -12 30 -40 57 -58 57 -2 0 -23 -22 -46 -50z" id="145"/>
<path d="M3144 2035 c-24 -24 -26 -32 -21 -77 5 -41 2 -59 -18 -99 -14 -26 -25 -62 -25 -78 0 -17 -5 -41 -11 -55 -15 -33 0 -53 47 -62 19 -3 51 -19 73 -34 64 -47 93 -57 173 -62 72 -5 80 -8 124 -44 106 -87 135 -92 264 -43 69 27 91 31 140 26 68 -6 68 -6 77 89 l6 62 -29 5 c-16 3 -51 9 -79 12 -98 12 -241 56 -340 104 -111 55 -250 160 -303 231 -19 25 -38 46 -43 48 -5 2 -20 -8 -35 -23z m56 -63 c0 -10 -7 -27 -15 -38 -14 -18 -14 -17 -15 12 0 17 3 34 7 37 12 13 23 7 23 -11z m35 -62 c-5 -15 -10 -19 -17 -12 -5 5 -7 20 -3 32 5 15 10 19 17 12 5 -5 7 -20 3 -32z m35 -40 c0 -11 -4 -20 -10 -20 -5 0 -10 9 -10 20 0 11 5 20 10 20 6 0 10 -9 10 -20z m40 -30 c0 -11 -4 -20 -10 -20 -5 0 -10 9 -10 20 0 11 5 20 10 20 6 0 10 -9 10 -20z m40 -25 c0 -14 -4 -25 -9 -25 -10 0 -21 36 -13 44 12 13 22 5 22 -19z m44 -11 c7 -18 0 -34 -15 -34 -5 0 -9 11 -9 25 0 28 15 34 24 9z m44 -43 c3 -8 -1 -12 -9 -9 -7 2 -15 10 -17 17 -3 8 1 12 9 9 7 -2 15 -10 17 -17z" id="146"/>
<path d="M4780 1954 c-156 -158 -476 -293 -697 -294 -70 0 -62 11 -83 -109 -12 -69 -8 -79 35 -82 42 -3 61 4 93 32 38 34 49 35 82 9 33 -26 53 -25 125 6 90 38 119 43 197 32 92 -12 122 -6 197 42 46 30 72 40 101 40 27 0 47 7 61 21 20 20 21 27 13 98 -4 42 -9 97 -9 123 -1 36 -7 53 -23 68 -12 12 -22 32 -22 45 0 14 -4 25 -8 25 -4 0 -32 -25 -62 -56z m50 -36 c-1 -28 -2 -30 -11 -15 -6 10 -8 25 -5 33 9 24 16 16 16 -18z m-40 -48 c0 -11 -4 -20 -10 -20 -5 0 -10 9 -10 20 0 11 5 20 10 20 6 0 10 -9 10 -20z m-35 -50 c-6 -9 -9 -9 -16 1 -10 17 0 34 13 21 6 -6 7 -16 3 -22z m-42 -27 c-4 -10 -9 -11 -16 -4 -5 5 -7 18 -3 28 6 14 9 15 16 4 4 -8 6 -21 3 -28z m-43 -7 c0 -8 -4 -17 -9 -21 -12 -7 -24 12 -16 25 9 15 25 12 25 -4z m-48 -41 c-12 -22 -27 -2 -18 22 5 12 10 13 17 6 7 -7 8 -17 1 -28z m-46 -21 c-4 -12 -10 -14 -17 -7 -5 5 -7 17 -3 27 4 12 10 14 17 7 5 -5 7 -17 3 -27z m-50 -21 c-10 -10 -19 5 -10 18 6 11 8 11 12 0 2 -7 1 -15 -2 -18z" id="147"/>
<path d="M5505 1957 c-8 -11 -17 -47 -21 -78 -5 -47 -13 -66 -40 -96 -19 -21 -34 -47 -34 -59 0 -27 36 -42 80 -33 22 5 46 3 65 -5 39 -17 95 -64 95 -81 0 -8 15 -24 33 -36 51 -37 58 -49 51 -97 -3 -28 -1 -49 7 -58 7 -8 12 -30 11 -49 -1 -26 4 -38 19 -46 19 -10 21 -9 15 18 -14 68 -26 166 -22 171 7 6 9 -1 36 -103 29 -109 36 -124 66 -135 15 -6 28 -9 31 -7 2 2 -4 35 -12 72 -9 37 -15 82 -13 99 2 24 10 7 33 -74 30 -103 31 -104 65 -111 19 -4 37 -6 39 -4 2 2 -4 32 -12 67 -18 71 -30 148 -22 148 2 0 16 -39 30 -87 39 -133 39 -133 80 -133 39 0 39 0 24 70 -17 80 -4 82 21 3 l22 -73 45 0 c39 0 44 2 38 18 -13 32 -25 76 -21 79 4 5 46 -65 46 -76 0 -20 33 -31 124 -41 54 -6 104 -9 112 -6 10 4 8 17 -13 63 -35 78 -37 79 -75 59 -33 -17 -34 -17 -98 13 -36 17 -73 31 -83 31 -10 0 -40 22 -66 49 -37 37 -54 48 -69 44 -15 -3 -30 4 -49 24 -36 38 -79 64 -109 68 -28 3 -64 32 -64 51 0 19 -86 106 -137 139 -23 14 -54 45 -69 68 -15 23 -54 67 -86 99 -57 55 -59 56 -73 35z" id="148"/>
<path d="M3020 1560 c-24 -34 -151 -296 -168 -348 -6 -18 -14 -58 -18 -90 -5 -48 -3 -65 15 -97 12 -22 21 -45 21 -52 0 -9 10 -11 30 -7 19 4 38 1 55 -10 13 -9 40 -16 59 -16 25 0 45 -9 69 -30 28 -24 40 -28 69 -24 28 5 40 2 58 -16 15 -15 29 -20 46 -16 13 4 32 3 42 -2 9 -5 35 -12 57 -15 36 -6 42 -3 80 36 48 51 92 131 110 198 7 27 12 49 10 49 -2 0 -27 -16 -56 -36 -63 -42 -149 -87 -155 -81 -3 2 36 34 85 71 105 79 151 127 186 196 29 56 23 80 -19 80 -25 0 -56 19 -106 65 -19 18 -59 49 -89 69 -50 34 -58 36 -133 36 -74 0 -82 2 -131 35 -64 43 -89 44 -117 5z" id="149"/>
<path d="M4736 1487 c-64 -34 -126 -40 -252 -23 -107 15 -164 -7 -164 -64 0 -46 75 -181 147 -264 89 -103 107 -126 96 -126 -5 0 -28 16 -51 36 -47 40 -48 39 -26 -37 24 -82 63 -125 120 -134 39 -5 50 -3 69 15 17 16 34 21 66 19 24 -1 58 4 76 12 27 11 36 11 58 -1 23 -12 29 -12 48 0 15 10 51 15 112 15 l90 0 6 39 c15 95 -104 461 -170 520 -16 14 -39 20 -93 22 -66 3 -78 0 -132 -29z" id="150"/>
<path d="M3789 1448 c-45 -37 -190 -352 -175 -377 12 -19 64 -18 120 0 46 16 65 18 88 10 21 -8 42 -7 74 1 37 10 52 9 97 -6 43 -14 69 -17 128 -11 58 5 83 3 113 -9 37 -15 40 -15 72 5 42 26 43 45 9 165 -64 218 -87 235 -265 194 -52 -12 -58 -12 -111 13 -60 29 -125 35 -150 15z m-9 -278 c-6 -12 -14 -19 -17 -17 -2 3 1 15 7 27 6 12 14 19 17 17 2 -3 -1 -15 -7 -27z m98 -9 c-7 -11 -16 -17 -20 -14 -10 5 10 33 23 33 5 0 4 -9 -3 -19z m132 -3 c0 -19 -18 -43 -25 -36 -9 9 4 48 16 48 5 0 9 -6 9 -12z m47 -25 c-3 -10 -5 -4 -5 12 0 17 2 24 5 18 2 -7 2 -21 0 -30z" id="151"/>
<path d="M5110 1302 c0 -15 80 -203 94 -221 12 -16 144 -81 163 -81 17 0 16 4 -6 48 -21 40 -251 273 -251 254z" id="152"/>
<path d="M5720 1256 c0 -26 -42 -66 -111 -107 -73 -43 -93 -46 -186 -23 -25 7 -26 6 -19 -27 4 -20 18 -43 35 -56 16 -13 31 -33 35 -47 3 -13 16 -30 28 -38 43 -28 209 -89 226 -84 10 4 52 -5 93 -19 55 -19 85 -24 116 -20 23 3 51 1 62 -4 14 -8 28 -7 54 4 29 12 42 12 93 0 32 -7 79 -11 105 -8 33 4 56 0 85 -14 55 -28 157 -46 215 -38 51 7 62 16 114 97 23 35 23 40 10 72 -8 20 -15 54 -15 77 0 26 -7 50 -17 61 -9 10 -19 35 -22 56 -6 33 -10 37 -31 33 -49 -8 -269 -5 -470 6 -213 12 -252 20 -338 68 -51 29 -62 31 -62 11z m355 -325 c-3 -6 -11 -11 -17 -11 -6 0 -6 6 2 15 14 17 26 13 15 -4z m111 -16 c-7 -18 -26 -20 -26 -2 0 18 24 41 28 27 2 -6 1 -17 -2 -25z m104 18 c-1 -14 -27 -43 -39 -43 -15 0 -14 10 6 32 16 18 33 24 33 11z m70 -11 c0 -5 -7 -17 -15 -28 -15 -19 -20 -8 -9 20 6 17 24 22 24 8z m40 -23 c-7 -11 -14 -18 -17 -15 -8 8 5 36 17 36 7 0 7 -6 0 -21z m100 -8 c0 -11 -29 -35 -35 -29 -10 9 7 38 21 38 8 0 14 -4 14 -9z m60 -5 c0 -16 -24 -38 -33 -30 -8 9 11 44 23 44 6 0 10 -6 10 -14z" id="153"/>
<path d="M2709 1013 c-31 -28 -39 -42 -39 -70 0 -30 -2 -34 -15 -23 -19 16 -35 4 -35 -25 0 -15 -7 -26 -20 -30 -21 -7 -28 -35 -9 -35 7 0 9 -12 5 -34 -6 -30 -2 -38 26 -66 18 -17 47 -37 63 -44 62 -28 141 -67 175 -86 21 -12 55 -19 85 -19 28 -1 66 -1 86 -1 23 0 43 -8 54 -20 13 -15 22 -17 42 -9 13 5 50 9 81 9 31 0 76 7 100 15 24 9 48 13 53 10 5 -4 9 0 9 8 0 7 -11 19 -25 25 -14 6 -25 18 -25 27 0 18 5 19 31 5 30 -17 79 13 79 48 0 16 5 33 12 40 8 8 8 16 -3 32 -11 17 -27 22 -73 26 -32 2 -64 8 -71 14 -6 5 -27 7 -47 4 -29 -5 -38 -2 -51 16 -13 19 -21 21 -55 15 -37 -6 -43 -4 -68 24 -23 26 -34 31 -75 31 -34 0 -51 5 -57 16 -7 13 -17 15 -38 10 -64 -16 -69 -14 -72 29 -4 42 -30 80 -64 88 -13 4 -32 -6 -59 -30z m5 -69 c9 -23 7 -54 -2 -54 -9 0 -32 44 -32 60 0 16 27 11 34 -6z m50 -50 c4 -9 4 -19 2 -21 -8 -8 -26 8 -26 23 0 19 16 18 24 -2z m50 -30 c9 -22 8 -24 -9 -24 -8 0 -15 9 -15 20 0 24 15 27 24 4z m487 -245 c7 -14 6 -19 -4 -19 -17 0 -50 34 -41 43 10 9 34 -4 45 -24z m-116 -9 c7 -11 -6 -13 -29 -4 -9 3 -16 13 -16 20 0 11 4 12 19 4 11 -5 23 -15 26 -20z m45 15 c7 -9 11 -18 8 -20 -8 -9 -36 5 -42 21 -7 19 18 18 34 -1z m-112 -14 c3 -8 -1 -12 -9 -9 -7 2 -15 10 -17 17 -3 8 1 12 9 9 7 -2 15 -10 17 -17z" id="154"/>
<path d="M5165 915 c-27 -13 -71 -17 -165 -16 -19 0 -50 -7 -67 -16 -30 -16 -35 -16 -60 -1 -25 15 -31 15 -57 1 -18 -10 -42 -13 -64 -9 -28 4 -41 0 -65 -20 -20 -17 -37 -23 -51 -20 -12 3 -31 9 -43 12 -16 4 -24 0 -33 -17 -11 -19 -9 -24 10 -39 19 -14 24 -29 26 -79 5 -88 22 -122 77 -149 48 -24 95 -24 145 1 16 8 25 8 33 0 9 -9 16 -9 30 0 14 9 22 7 37 -6 16 -14 32 -17 88 -13 71 5 127 18 147 34 7 5 24 12 40 16 15 3 27 13 27 21 0 21 15 26 45 15 43 -16 83 17 68 56 -3 10 -13 14 -25 10 -17 -4 -19 -1 -13 22 9 38 6 111 -7 136 -17 34 -61 76 -77 75 -9 0 -29 -7 -46 -14z m-331 -91 c23 -9 20 -24 -4 -24 -11 0 -20 7 -20 15 0 17 2 18 24 9z m60 -9 c3 -8 2 -15 -3 -15 -5 0 -14 7 -21 15 -10 12 -10 15 3 15 8 0 17 -7 21 -15z m-109 -6 c12 -19 -5 -23 -22 -6 -16 16 -16 17 -1 17 9 0 20 -5 23 -11z m-107 -11 c16 -16 15 -28 -3 -28 -8 0 -15 2 -15 4 0 2 -3 11 -6 20 -7 19 7 21 24 4z m52 -4 c0 -17 -22 -14 -28 4 -2 7 3 12 12 12 9 0 16 -7 16 -16z m-100 -14 c0 -5 -4 -10 -9 -10 -6 0 -13 5 -16 10 -3 6 1 10 9 10 9 0 16 -4 16 -10z m637 -77 c-16 -16 -17 -16 -17 3 0 26 11 37 24 24 7 -7 5 -16 -7 -27z m-53 9 c3 -5 -2 -19 -11 -31 -20 -30 -40 -13 -21 18 14 22 24 26 32 13z" id="155"/>
<path d="M2513 634 c-17 -9 -39 -24 -49 -35 -17 -19 -17 -21 2 -47 29 -39 95 -70 167 -77 35 -4 129 0 216 9 153 16 202 26 124 26 -22 0 -65 5 -94 10 -51 9 -77 21 -223 99 -66 35 -96 38 -143 15z" id="156"/>
<path d="M5339 584 c-13 -14 -35 -32 -49 -39 -33 -17 -219 -54 -290 -57 -51 -3 -53 -4 -32 -16 68 -39 274 -54 353 -27 90 32 131 112 77 149 -29 21 -30 21 -59 -10z" id="157"/>
<path d="M3150 510 c-39 -26 -159 -51 -310 -65 -189 -17 -266 -10 -342 29 -26 14 -48 23 -48 20 0 -3 7 -18 15 -34 11 -22 28 -33 68 -45 133 -39 198 -40 399 -1 88 17 240 75 246 94 4 14 -7 15 -28 2z" id="158"/>
<path d="M4850 479 c117 -96 215 -132 355 -132 93 0 138 13 198 55 45 32 34 51 -15 23 -66 -38 -161 -50 -264 -36 -102 14 -176 40 -230 81 -45 34 -84 42 -44 9z" id="159"/>
<path d="M7622 7968 c-29 -47 -61 -74 -117 -101 l-48 -24 40 -6 c49 -8 132 14 157 42 14 15 16 29 11 58 -10 63 -19 69 -43 31z" id="160"/>
<path d="M2955 7929 c-33 -5 -65 -11 -71 -13 -12 -4 -36 -115 -28 -128 6 -10 62 8 181 57 124 51 136 60 109 81 -22 16 -95 17 -191 3z" id="161"/>
<path d="M6770 7664 c-36 -14 -69 -29 -74 -34 -12 -12 0 -50 27 -84 l23 -28 47 83 c26 45 46 84 44 85 -1 1 -31 -9 -67 -22z" id="162"/>
<path d="M7180 6965 c27 -43 36 -146 22 -240 -6 -38 -10 -71 -7 -73 2 -2 26 17 54 43 59 55 61 68 27 158 -43 114 -63 147 -92 147 l-26 0 22 -35z" id="163"/>
<path d="M1250 6800 c-75 -13 -136 -63 -176 -142 -13 -26 -24 -50 -24 -54 0 -3 18 10 40 29 67 61 115 81 198 82 66 0 75 3 92 25 11 14 20 28 20 31 0 18 -102 37 -150 29z" id="164"/>
<path d="M7747 6103 l-37 -15 32 -37 c18 -20 40 -46 48 -59 l15 -22 48 31 c26 17 47 34 47 38 -1 6 -105 82 -112 80 -2 0 -20 -7 -41 -16z" id="165"/>
<path d="M1040 5448 c-67 -21 -124 -31 -193 -35 l-99 -6 6 -30 c3 -16 6 -47 6 -69 0 -39 1 -40 28 -34 51 12 287 135 327 170 22 19 36 35 30 35 -5 -1 -53 -14 -105 -31z" id="166"/>
<path d="M7748 5156 l-107 -111 40 -39 39 -38 113 108 c61 60 114 110 116 111 8 5 -72 83 -84 82 -5 -1 -58 -52 -117 -113z" id="167"/>
<path d="M1649 5182 c-26 -9 -53 -22 -60 -28 -8 -6 -33 -16 -55 -22 -27 -8 -55 -27 -78 -52 -39 -43 -47 -67 -18 -55 9 4 62 11 117 14 l100 6 37 65 c21 36 38 71 38 77 0 17 -25 15 -81 -5z" id="168"/>
<path d="M7260 4125 c-68 -39 -177 -76 -266 -90 -106 -17 -182 -45 -211 -77 -17 -19 -17 -19 12 -11 51 14 157 9 222 -11 l63 -19 86 79 c122 112 164 169 94 129z" id="169"/>
<path d="M895 3389 c-38 -17 -94 -40 -123 -51 l-54 -20 7 -72 c10 -114 10 -113 64 -54 27 29 74 85 106 123 32 39 65 78 73 88 21 24 8 21 -73 -14z" id="170"/>
<path d="M6815 2491 c-33 -21 -68 -47 -78 -59 -19 -20 -18 -21 20 -40 58 -29 114 -45 123 -36 5 5 12 46 16 92 8 98 6 99 -81 43z" id="171"/>
<path d="M7305 1660 c-3 -5 0 -29 6 -54 10 -41 15 -46 56 -60 25 -9 81 -39 125 -67 86 -55 132 -68 169 -49 32 17 109 80 109 90 0 18 -149 73 -272 100 -74 16 -146 34 -161 39 -15 6 -29 7 -32 1z" id="172"/>
<path d="M1826 1220 c-88 -42 -88 -41 36 -55 44 -5 62 -3 82 10 l25 17 -27 34 c-15 19 -29 34 -32 33 -3 0 -41 -18 -84 -39z" id="173"/>
</g>
</svg>