<?xml version="1.0" ?><!DOCTYPE svg  PUBLIC '-//W3C//DTD SVG 20010904//EN'  'http://www.w3.org/TR/2001/REC-SVG-20010904/DTD/svg10.dtd'><svg height="850.000000pt" preserveAspectRatio="xMidYMid meet" version="1.0" viewBox="0 0 850.000000 850.000000" width="850.000000pt" xmlns="http://www.w3.org/2000/svg">
<metadata>
Created by potrace 1.14, written by Peter Selinger 2001-2017
</metadata>
<g fill="#ffffff" stroke="none" transform="translate(0.000000,850.000000) scale(0.100000,-0.100000)">
<path d="M0 4250 l0 -4250 1415 0 1414 0 17 31 c42 82 171 246 255 323 121 112 194 148 394 196 66 16 138 35 160 43 22 8 108 29 190 47 246 52 491 141 720 259 223 116 276 158 347 274 l43 71 3 197 c4 223 -15 370 -69 559 -32 113 -146 390 -160 390 -5 0 -9 -20 -9 -45 0 -34 11 -67 45 -132 24 -49 52 -119 60 -157 29 -126 -7 -240 -113 -361 -22 -25 -49 -71 -61 -104 -26 -71 -67 -111 -161 -155 -60 -29 -73 -31 -171 -31 -98 0 -110 2 -163 30 -101 52 -145 144 -125 265 10 60 27 110 39 110 4 0 15 -20 24 -45 27 -71 120 -134 196 -135 70 0 144 75 120 121 -6 11 -41 39 -78 63 -139 90 -176 147 -191 296 -6 51 -12 94 -15 97 -2 3 -52 9 -111 14 -125 11 -208 36 -290 90 -59 39 -61 39 -156 39 -53 0 -163 9 -245 20 -316 42 -385 63 -529 155 -118 76 -185 133 -242 208 -62 81 -191 224 -209 231 -8 3 -56 13 -106 21 -136 24 -206 65 -338 195 -58 58 -118 127 -134 153 -67 117 -171 526 -210 827 -9 69 -23 157 -31 195 -8 39 -16 86 -17 105 -3 34 -4 35 -48 36 -68 1 -67 0 -118 54 -45 49 -50 51 -112 56 -75 7 -320 60 -333 73 -15 15 22 77 109 179 49 57 102 108 126 122 55 30 58 35 51 91 -6 55 15 100 87 181 l41 48 -26 92 c-31 108 -52 158 -88 212 -29 41 -35 81 -15 89 7 2 40 -4 73 -15 53 -17 78 -18 215 -13 85 4 163 9 172 11 18 5 88 135 88 164 0 18 134 421 166 500 61 151 239 361 424 499 58 44 202 121 307 165 90 38 290 75 491 91 97 8 182 15 188 15 6 0 40 29 75 65 127 130 347 261 529 315 93 28 272 37 420 21 161 -17 481 -93 617 -147 64 -25 132 -48 150 -51 40 -7 129 35 214 99 92 70 237 209 274 263 42 61 75 153 75 210 0 38 -7 50 -66 116 -87 97 -124 153 -210 318 -52 101 -79 142 -104 159 l-33 22 -577 0 -577 0 -44 -61 c-55 -76 -77 -92 -164 -117 -146 -42 -236 -37 -274 17 -23 32 -28 92 -11 135 l10 26 -1805 0 -1805 0 0 -4250z m3292 3438 c31 -59 31 -157 1 -214 -29 -54 -105 -121 -157 -136 -23 -7 -79 -13 -126 -13 -71 0 -94 4 -140 26 -85 40 -134 101 -122 152 7 27 48 31 126 13 89 -20 120 -20 187 1 71 23 174 121 184 176 4 20 11 37 16 37 5 0 19 -19 31 -42z m-2216 -236 c21 -15 64 -38 94 -51 189 -80 197 -161 43 -424 -44 -75 -45 -81 -40 -138 6 -74 -5 -76 -71 -15 -61 57 -107 134 -145 243 -26 75 -31 103 -31 188 -1 87 2 105 21 136 27 43 69 89 81 89 5 0 27 -13 48 -28z m301 -3458 c6 -16 -9 -50 -48 -110 -11 -18 -26 -70 -33 -117 -23 -139 -67 -212 -157 -257 -65 -34 -75 -29 -81 38 -3 32 -19 89 -36 128 -39 93 -47 143 -29 185 26 61 59 82 153 95 54 8 95 20 112 33 34 26 110 29 119 5z m-545 -573 c100 -42 162 -97 198 -175 40 -87 57 -149 43 -153 -7 -3 -47 -29 -90 -60 -94 -68 -146 -92 -196 -93 -55 0 -121 35 -154 82 -26 39 -28 47 -28 147 0 105 25 249 49 280 16 20 90 9 178 -28z m1585 -1024 c40 -15 129 -89 174 -144 56 -70 106 -159 137 -246 53 -146 118 -467 129 -639 6 -90 7 -97 29 -101 12 -2 28 -1 34 3 19 12 40 101 40 172 0 70 -5 84 -70 198 -24 41 -26 73 -5 90 22 18 33 5 41 -48 4 -26 17 -68 30 -94 40 -79 48 -137 30 -208 -20 -75 -20 -80 -2 -54 22 31 35 90 46 219 13 140 15 151 37 159 28 11 36 -9 18 -43 -9 -18 -23 -87 -31 -153 -17 -136 -29 -173 -79 -233 -18 -23 -37 -55 -41 -71 -8 -35 -68 -158 -96 -197 -11 -15 -59 -57 -107 -91 -47 -35 -130 -111 -183 -168 -102 -111 -149 -144 -180 -127 -31 17 -16 89 30 142 8 9 13 19 10 22 -2 3 -34 -26 -70 -63 -139 -145 -197 -175 -256 -132 l-31 23 -42 -32 c-56 -41 -89 -40 -138 4 -21 19 -46 35 -55 35 -10 0 -42 -25 -73 -55 -64 -63 -106 -73 -143 -32 -45 47 -1 116 106 166 72 33 101 69 85 100 -17 31 -13 90 9 121 51 72 44 100 -26 100 -31 0 -51 7 -70 24 -26 22 -27 25 -14 55 20 49 49 63 127 62 78 -1 107 14 116 59 13 61 -58 194 -203 385 -108 142 -140 205 -140 279 0 52 21 83 74 107 118 54 348 -6 557 -144 26 -18 27 -17 33 8 4 14 1 85 -6 158 -20 212 -18 256 18 313 17 29 44 56 64 66 40 20 44 21 87 5z" id="1"/>
<path d="M3241 7605 c-81 -119 -253 -174 -391 -125 -68 24 -70 24 -70 2 0 -50 113 -111 205 -112 56 0 68 4 141 50 101 62 154 118 154 163 0 53 -13 60 -39 22z" id="2"/>
<path d="M3173 7417 c-35 -22 -61 -42 -60 -44 17 -17 137 51 137 78 0 15 -11 10 -77 -34z" id="3"/>
<path d="M1013 7408 c-53 -58 -55 -90 -8 -138 28 -29 38 -50 50 -107 8 -39 26 -90 40 -114 18 -33 25 -59 25 -101 0 -31 5 -60 10 -63 6 -3 10 3 10 14 0 33 38 112 95 196 70 102 80 155 41 202 -15 18 -54 42 -93 59 -38 15 -82 38 -99 51 -38 29 -45 29 -71 1z" id="4"/>
<path d="M950 7243 c2 -100 81 -308 134 -352 14 -12 15 -8 10 35 -3 26 -17 70 -31 98 -15 28 -32 80 -40 115 -20 96 -74 172 -73 104z" id="5"/>
<path d="M1266 3955 c-22 -13 -58 -27 -80 -30 -112 -17 -156 -55 -156 -133 0 -44 18 -111 42 -155 5 -11 13 -40 17 -66 l7 -46 33 100 c37 112 69 170 141 257 65 78 76 98 53 98 -10 0 -36 -11 -57 -25z" id="6"/>
<path d="M1236 3753 c-43 -89 -85 -193 -77 -193 16 0 51 47 75 100 28 62 43 130 29 130 -5 0 -17 -17 -27 -37z" id="7"/>
<path d="M692 3403 c-17 -43 -42 -194 -42 -252 0 -66 18 -108 64 -149 54 -47 105 -45 177 8 30 22 72 52 94 67 49 34 48 37 -12 160 -51 105 -89 143 -178 174 -74 26 -90 24 -103 -8z" id="8"/>
<path d="M2305 2326 c-10 -15 -16 -28 -14 -30 2 -2 30 -15 62 -29 98 -44 248 -175 302 -263 45 -73 25 -9 -22 74 -83 142 -200 256 -277 269 -29 4 -37 1 -51 -21z" id="9"/>
<path d="M2280 2205 c0 -61 -12 -49 120 -124 34 -19 92 -61 130 -93 60 -50 73 -57 90 -48 11 6 20 15 20 19 0 5 -25 40 -55 79 -71 91 -181 174 -280 212 -25 9 -25 9 -25 -45z" id="10"/>
<path d="M2294 2073 c2 -10 7 -37 11 -60 8 -50 16 -57 89 -83 31 -10 80 -35 110 -54 29 -20 56 -36 60 -36 3 0 6 15 6 33 0 29 -9 40 -69 90 -74 60 -178 127 -199 127 -8 0 -11 -7 -8 -17z" id="11"/>
<path d="M1683 1955 c-55 -23 -71 -85 -17 -65 69 27 200 6 314 -49 54 -26 56 -26 86 -2 l25 20 -77 36 c-85 40 -208 75 -263 75 -20 -1 -50 -7 -68 -15z" id="12"/>
<path d="M2320 1856 l0 -63 58 -12 c32 -6 91 -27 131 -46 59 -28 71 -32 67 -17 -3 9 -8 29 -12 45 -10 42 -80 92 -193 137 l-51 20 0 -64z" id="13"/>
<path d="M2608 1884 c-22 -47 11 -151 141 -444 50 -113 51 -114 51 -70 -1 129 -48 411 -77 459 -28 45 -66 81 -85 81 -10 0 -24 -12 -30 -26z" id="14"/>
<path d="M1652 1862 c-15 -10 -9 -30 25 -85 21 -34 28 -38 51 -32 71 18 137 23 208 16 44 -5 83 -5 88 -1 12 11 -60 56 -130 82 -63 23 -219 36 -242 20z" id="15"/>
<path d="M2086 1804 c-49 -48 3 -145 147 -275 119 -107 166 -142 317 -233 52 -32 119 -78 149 -102 30 -25 56 -42 59 -40 27 28 -195 329 -353 478 -182 171 -272 220 -319 172z" id="16"/>
<path d="M2434 1679 c80 -75 96 -84 154 -94 41 -7 43 -6 34 11 -33 61 -133 124 -219 140 l-38 7 69 -64z" id="17"/>
<path d="M1748 1723 c-16 -2 -28 -7 -28 -10 0 -3 15 -25 33 -49 30 -40 35 -43 67 -37 19 3 80 7 136 7 l100 1 -14 36 c-8 20 -25 42 -39 48 -23 10 -195 13 -255 4z" id="18"/>
<path d="M1857 1601 c-21 -3 -38 -9 -37 -14 0 -19 46 -76 58 -72 31 12 201 27 245 22 26 -4 47 -4 47 -2 0 11 -85 46 -142 60 -65 15 -105 17 -171 6z" id="19"/>
<path d="M2559 1533 c11 -16 26 -35 33 -44 16 -19 89 -69 101 -69 12 0 0 49 -19 78 -16 25 -86 61 -117 62 -17 0 -17 -2 2 -27z" id="20"/>
<path d="M1967 1500 c-38 -5 -71 -11 -74 -13 -8 -8 37 -88 53 -94 8 -3 64 2 124 12 66 10 127 14 155 10 50 -8 55 -2 23 26 -65 56 -153 74 -281 59z" id="21"/>
<path d="M2689 1358 c12 -18 33 -54 46 -80 26 -49 52 -75 42 -42 -4 11 -11 40 -18 67 -11 47 -46 87 -76 87 -12 0 -10 -7 6 -32z" id="22"/>
<path d="M2030 1368 c-36 -6 -66 -12 -68 -13 -4 -3 26 -64 39 -81 6 -8 26 -7 69 2 77 16 303 18 382 4 33 -6 62 -9 64 -7 8 7 -147 78 -204 92 -62 17 -183 18 -282 3z" id="23"/>
<path d="M2195 1262 c-71 -6 -165 -25 -171 -33 -3 -5 5 -28 18 -52 28 -49 5 -47 308 -29 184 11 291 7 345 -14 18 -7 18 -5 -3 18 -31 34 -125 76 -209 93 -66 13 -226 23 -288 17z" id="24"/>
<path d="M2843 1212 c-12 -9 -39 -48 -61 -87 -29 -52 -55 -83 -103 -120 -94 -73 -183 -165 -229 -236 -38 -59 -51 -99 -31 -99 5 0 42 37 82 81 41 45 118 118 172 161 128 104 188 186 203 277 7 45 0 50 -33 23z" id="25"/>
<path d="M2309 1118 c-81 -4 -157 -12 -170 -17 -22 -8 -19 -10 31 -25 79 -23 283 -56 343 -56 69 0 156 24 181 50 18 17 19 22 7 30 -34 21 -205 29 -392 18z" id="26"/>
<path d="M1748 1109 c-10 -5 -18 -19 -18 -31 0 -20 4 -20 67 -14 65 7 109 28 97 47 -7 12 -125 11 -146 -2z" id="27"/>
<path d="M1944 1101 c-18 -11 -36 -25 -40 -33 -12 -18 -11 -99 1 -95 40 15 174 56 190 59 17 3 15 7 -12 21 -18 10 -40 29 -49 42 -20 30 -48 32 -90 6z" id="28"/>
<path d="M2124 1010 c-108 -16 -261 -82 -289 -124 -12 -18 -13 -30 -5 -50 30 -81 1 -125 -109 -165 -63 -23 -98 -62 -85 -95 11 -28 36 -17 98 42 223 209 349 307 465 362 42 19 49 26 34 31 -22 9 -42 9 -109 -1z" id="29"/>
<path d="M2285 986 c-63 -16 -99 -34 -208 -109 -50 -34 -116 -91 -153 -133 l-66 -73 29 -25 28 -25 55 62 c111 125 166 170 376 304 25 16 5 15 -61 -1z" id="30"/>
<path d="M2520 957 c-101 -50 -176 -104 -247 -178 -67 -70 -123 -141 -123 -156 0 -32 40 -5 134 90 55 57 151 141 211 187 160 121 162 126 25 57z" id="31"/>
<path d="M2394 972 c-105 -37 -254 -146 -359 -265 -96 -107 -106 -158 -17 -81 42 35 63 42 93 30 11 -5 27 8 56 47 64 84 161 176 243 229 41 27 77 51 79 54 11 10 -49 2 -95 -14z" id="32"/>
<path d="M3630 8474 c-32 -82 8 -139 91 -132 64 6 237 91 304 150 5 4 -80 8 -188 8 l-197 0 -10 -26z" id="33"/>
<path d="M5351 8448 c20 -52 127 -260 156 -305 16 -24 33 -30 33 -12 0 6 -16 45 -36 87 -20 42 -53 122 -74 177 -36 95 -40 100 -69 103 l-31 3 21 -53z" id="34"/>
<path d="M5474 8443 c8 -75 25 -130 70 -227 21 -44 42 -100 48 -125 24 -104 47 -124 29 -25 -6 32 -11 119 -11 193 0 75 -3 160 -6 189 l-7 52 -65 0 -65 0 7 -57z" id="35"/>
<path d="M5632 8353 c4 -82 14 -186 22 -233 9 -47 16 -89 16 -93 0 -5 4 -6 8 -3 5 3 14 31 21 63 7 32 25 99 42 148 16 50 37 129 47 178 l19 87 -91 0 -91 0 7 -147z" id="36"/>
<path d="M5877 8423 c-15 -195 -90 -510 -152 -642 -66 -138 -222 -302 -412 -432 -56 -38 -104 -73 -107 -78 -6 -9 85 -76 143 -106 48 -24 76 -17 236 60 272 129 439 245 486 336 15 31 19 60 19 156 1 93 5 130 21 173 35 95 35 95 -9 153 -22 28 -50 72 -62 95 -12 24 -39 63 -61 87 -45 49 -49 76 -14 102 26 18 47 67 60 136 l7 37 -74 0 -75 0 -6 -77z" id="37"/>
<path d="M6048 8435 c-14 -60 -14 -65 1 -65 25 0 41 20 41 51 0 39 17 47 109 58 45 5 85 12 88 15 4 3 -45 6 -108 6 l-115 0 -16 -65z" id="38"/>
<path d="M6308 8473 c-6 -16 -13 -59 -15 -98 -4 -66 -3 -73 26 -112 35 -49 95 -83 144 -83 37 0 97 18 97 28 0 4 -21 15 -46 26 -98 40 -148 111 -148 209 1 53 -1 57 -23 57 -16 0 -27 -8 -35 -27z" id="39"/>
<path d="M6400 8441 c0 -51 4 -64 34 -103 33 -42 63 -65 73 -54 3 3 0 28 -6 56 -6 28 -11 76 -11 105 l0 55 -45 0 -45 0 0 -59z" id="40"/>
<path d="M6520 8475 c0 -22 4 -25 38 -25 40 0 86 25 77 41 -4 5 -31 9 -61 9 -51 0 -54 -1 -54 -25z" id="41"/>
<path d="M6682 8478 c8 -13 30 -31 49 -41 l34 -17 3 26 c6 44 -4 54 -54 54 -46 0 -46 0 -32 -22z" id="42"/>
<path d="M6810 8483 c0 -49 22 -92 55 -112 42 -24 43 -30 10 -69 -14 -17 -25 -34 -25 -39 0 -6 44 -19 97 -29 112 -22 122 -33 78 -90 -32 -42 -91 -80 -159 -104 -50 -17 -51 -18 -48 -54 3 -34 0 -38 -33 -51 -38 -16 -41 -25 -23 -58 21 -39 57 -239 69 -377 17 -212 -12 -344 -108 -492 -95 -145 -251 -243 -506 -318 -43 -13 -80 -26 -82 -30 -12 -20 206 -97 247 -87 108 26 211 58 248 77 46 23 151 126 330 322 92 102 151 191 170 258 11 37 1 38 -90 10 -36 -11 -69 -20 -74 -20 -4 0 -6 46 -4 103 3 75 11 122 30 177 l26 75 -57 61 c-45 48 -60 72 -68 110 -6 27 -17 63 -24 81 -17 41 -7 51 34 34 18 -8 67 -26 111 -42 85 -30 116 -53 144 -108 28 -52 46 -47 50 15 6 108 -102 599 -160 727 l-21 47 -109 0 c-96 0 -108 -2 -108 -17z" id="43"/>
<path d="M7089 8474 c12 -15 21 -32 21 -38 1 -26 17 -38 38 -27 18 10 62 69 62 85 0 3 -32 6 -71 6 l-70 0 20 -26z" id="44"/>
<path d="M7240 8480 c0 -11 18 -59 41 -107 83 -179 162 -409 194 -563 18 -89 44 -170 53 -170 4 1 23 24 42 52 85 126 160 129 364 17 44 -24 81 -49 83 -55 2 -7 -10 -17 -27 -23 -43 -15 -108 -67 -126 -103 -12 -24 -13 -36 -4 -64 18 -54 9 -64 -58 -64 -44 0 -70 6 -103 25 -63 36 -100 51 -136 58 -31 6 -33 5 -33 -21 1 -47 33 -100 104 -172 l69 -70 66 0 c170 2 287 -7 316 -23 17 -8 60 -47 97 -85 67 -67 95 -87 171 -116 58 -23 50 -35 -48 -70 -19 -7 -19 -9 8 -30 32 -26 34 -36 7 -36 -31 0 -24 -15 20 -44 22 -14 40 -31 40 -36 0 -14 -44 -12 -115 4 -33 8 -63 12 -67 10 -4 -3 -3 -16 2 -30 15 -38 13 -39 -22 -12 -56 43 -98 59 -197 79 -152 31 -193 61 -210 153 -7 38 -18 57 -50 86 -23 21 -41 46 -42 56 0 20 -113 109 -138 109 -9 0 -20 -20 -28 -50 -8 -27 -19 -67 -25 -87 -9 -34 -6 -45 35 -130 118 -242 157 -342 188 -487 28 -126 30 -168 14 -292 -24 -185 -87 -323 -227 -500 -101 -127 -191 -186 -353 -230 -67 -19 -107 -22 -240 -23 -176 0 -258 13 -367 59 -114 49 -105 53 -192 -78 l-77 -116 69 -68 c93 -92 167 -232 197 -370 8 -38 6 -38 -61 -18 -27 8 -91 22 -142 30 -145 24 -221 73 -253 163 -6 18 -15 32 -21 32 -5 0 -41 -24 -81 -53 -40 -29 -83 -60 -97 -69 -14 -9 -41 -30 -60 -46 l-34 -29 51 -26 c38 -20 59 -39 83 -79 18 -29 57 -79 87 -110 39 -42 70 -90 111 -175 55 -115 57 -120 56 -198 -1 -62 -6 -90 -24 -124 -28 -56 -21 -74 59 -132 65 -48 101 -101 122 -182 6 -27 18 -51 25 -54 10 -4 10 -10 2 -29 -8 -18 -8 -39 1 -81 21 -97 53 -154 124 -222 90 -88 119 -153 118 -265 -1 -45 -6 -117 -11 -161 -14 -110 -12 -311 4 -423 23 -165 2 -222 -126 -333 -40 -35 -107 -98 -148 -139 -66 -66 -78 -83 -95 -140 -23 -75 -25 -213 -5 -374 12 -99 16 -399 6 -433 -3 -10 -10 -65 -16 -123 -6 -58 -18 -143 -26 -190 -9 -47 -16 -108 -15 -137 2 -102 102 -362 189 -490 23 -33 87 -104 144 -157 l102 -96 948 0 948 0 0 4250 0 4250 -630 0 c-621 0 -630 0 -630 -20z m-50 -3376 c0 -4 -13 -22 -30 -41 -52 -59 -38 -103 61 -199 113 -108 132 -112 225 -55 72 44 99 48 119 18 40 -62 -23 -158 -126 -192 -37 -13 -72 -16 -123 -13 -238 16 -373 241 -243 409 36 47 117 98 117 73z m251 -1035 c142 -69 147 -74 120 -133 -43 -99 -141 -200 -216 -225 -37 -12 -186 -33 -193 -27 -5 5 -46 117 -68 185 -33 103 -3 196 77 239 70 38 142 28 280 -39z m243 -471 c126 16 187 -4 221 -73 15 -33 16 -45 5 -114 -10 -58 -10 -82 -1 -98 24 -46 7 -123 -26 -123 -10 0 -39 23 -65 50 -33 34 -72 61 -121 84 -84 38 -140 84 -167 135 -20 39 -36 124 -26 139 3 6 23 5 51 -1 32 -7 70 -7 129 1z m-560 -1765 c-29 -120 -98 -215 -224 -310 -89 -67 -164 -98 -240 -98 -38 0 -78 7 -95 16 -34 16 -32 4 -18 185 17 204 70 237 323 202 127 -17 173 -15 206 10 41 30 56 28 48 -5z" id="45"/>
<path d="M7066 4954 c-13 -34 -6 -83 17 -107 36 -40 172 -144 216 -166 95 -49 249 5 239 85 -6 49 -30 52 -90 11 -106 -73 -160 -58 -282 81 -42 48 -76 93 -76 99 0 18 -17 16 -24 -3z" id="46"/>
<path d="M7080 4792 c0 -17 101 -110 126 -116 36 -9 43 1 14 21 -12 9 -45 36 -72 60 -47 41 -68 52 -68 35z" id="47"/>
<path d="M7160 4062 c-20 -11 -43 -35 -54 -57 -18 -37 -19 -42 -4 -94 9 -31 26 -82 39 -114 l24 -59 75 5 c138 9 233 64 280 163 16 32 19 48 11 57 -6 7 -56 35 -113 62 -121 58 -198 70 -258 37z" id="48"/>
<path d="M7601 3563 l-64 -4 69 -46 c91 -60 144 -112 210 -205 63 -90 81 -99 68 -35 -4 23 -8 81 -8 129 -1 72 -5 91 -22 115 -39 53 -60 56 -253 46z" id="49"/>
<path d="M7550 3491 c0 -5 15 -28 33 -52 33 -43 132 -107 145 -94 8 8 -70 80 -135 126 -24 17 -43 26 -43 20z" id="50"/>
<path d="M6673 1810 c-68 -16 -93 -63 -93 -174 0 -41 -5 -87 -10 -102 -15 -39 11 -63 78 -71 l52 -6 24 54 c20 45 34 61 83 92 33 21 75 56 92 77 18 23 58 53 92 70 32 17 59 32 59 34 0 1 -33 1 -73 -2 -54 -3 -98 1 -164 17 -98 23 -93 22 -140 11z" id="51"/>
<path d="M7008 1729 c-20 -10 -53 -39 -74 -64 -20 -26 -57 -57 -80 -71 -48 -28 -104 -87 -104 -109 0 -21 5 -20 74 22 99 60 236 201 224 232 -2 5 -20 1 -40 -10z" id="52"/>
<path d="M3990 8433 c-19 -14 -66 -40 -104 -58 -78 -37 -77 -53 3 -25 52 19 141 82 141 101 0 12 1 12 -40 -18z" id="53"/>
<path d="M6171 8449 c-12 -5 -21 -15 -19 -22 3 -6 20 -76 39 -154 l34 -141 90 -28 c50 -15 107 -35 127 -45 48 -24 73 -24 109 2 46 32 24 48 -106 75 -68 14 -195 82 -169 91 8 3 7 20 -2 60 -9 40 -10 69 -4 98 17 71 15 75 -32 74 -24 0 -54 -5 -67 -10z" id="54"/>
<path d="M6627 8439 c-9 -6 -36 -13 -60 -18 l-42 -7 3 -43 c4 -72 49 -132 87 -117 15 5 39 127 34 168 -3 22 -7 25 -22 17z" id="55"/>
<path d="M7178 8405 c-39 -43 -47 -79 -28 -115 5 -10 23 -87 40 -172 50 -249 52 -254 168 -460 70 -125 89 -140 125 -100 24 26 21 52 -17 182 -18 63 -43 155 -56 204 -12 48 -39 134 -60 190 -41 107 -125 305 -131 309 -2 2 -21 -16 -41 -38z" id="56"/>
<path d="M6665 8358 c-3 -29 -7 -73 -8 -98 -2 -39 1 -45 18 -45 45 0 68 133 30 175 -27 30 -33 25 -40 -32z" id="57"/>
<path d="M6765 8327 c-10 -66 -43 -124 -88 -157 -22 -16 -47 -30 -55 -30 -7 0 -12 -8 -10 -17 2 -12 14 -19 35 -21 26 -3 41 5 76 38 39 35 117 161 117 187 0 5 -15 17 -34 26 l-34 16 -7 -42z" id="58"/>
<path d="M6044 8328 c-16 -12 -32 -26 -35 -32 -4 -5 27 -49 69 -98 42 -50 78 -84 81 -77 2 7 -7 61 -20 121 -21 97 -26 108 -45 108 -12 0 -34 -10 -50 -22z" id="59"/>
<path d="M6857 8213 c-4 -3 -7 -17 -7 -31 0 -22 3 -24 38 -18 l37 6 -24 -17 c-45 -32 -59 -48 -66 -70 -9 -31 17 -30 84 3 49 25 91 71 91 100 0 21 -136 45 -153 27z" id="60"/>
<path d="M6555 8172 l-30 -17 34 -3 c24 -3 40 3 55 17 l20 21 -24 0 c-14 -1 -38 -8 -55 -18z" id="61"/>
<path d="M6782 8157 c-12 -13 -22 -34 -22 -48 0 -24 16 -49 32 -49 9 0 28 66 28 98 0 28 -11 28 -38 -1z" id="62"/>
<path d="M6700 8080 c-8 -6 -37 -17 -65 -25 -27 -9 -65 -29 -83 -45 -19 -16 -42 -32 -52 -35 -18 -6 -70 11 -185 58 -33 14 -77 29 -99 33 l-39 7 18 -29 c9 -16 34 -49 55 -73 l38 -44 37 17 c42 20 84 14 111 -15 36 -39 48 -40 156 -13 57 15 120 35 140 45 35 18 36 21 28 50 -8 27 -36 79 -43 79 -1 0 -9 -5 -17 -10z" id="63"/>
<path d="M6140 7904 c-14 -35 -12 -88 5 -160 22 -97 34 -116 64 -109 59 14 154 96 190 163 11 20 9 27 -20 60 -18 20 -38 36 -43 34 -22 -7 -48 -38 -81 -97 -38 -66 -44 -64 -19 8 l16 47 -43 40 c-24 21 -47 39 -52 40 -4 0 -12 -12 -17 -26z" id="64"/>
<path d="M6639 7871 c-23 -18 -23 -19 -7 -60 21 -52 15 -52 -17 -1 -29 45 -41 49 -78 20 -22 -18 -25 -24 -16 -44 13 -27 92 -90 133 -106 35 -13 50 -2 67 48 13 39 16 133 5 151 -11 17 -61 13 -87 -8z" id="65"/>
<path d="M6942 7789 c3 -24 19 -31 101 -43 26 -4 47 -3 47 2 0 13 -71 50 -113 57 -36 7 -39 6 -35 -16z" id="66"/>
<path d="M7250 7775 c0 -17 112 -224 164 -304 85 -130 137 -193 197 -241 94 -74 84 -41 -17 58 -107 104 -171 192 -274 380 -56 101 -70 122 -70 107z" id="67"/>
<path d="M6442 7757 c-17 -21 -32 -67 -48 -147 -7 -41 -28 -104 -45 -139 -37 -74 -150 -198 -224 -246 -115 -74 -320 -112 -547 -101 -71 4 -128 3 -128 -2 0 -5 11 -19 24 -31 28 -27 27 -26 276 -18 143 4 179 9 270 34 110 31 207 76 250 115 67 62 132 176 175 309 9 30 29 80 43 112 20 47 23 62 14 82 -15 32 -46 49 -60 32z" id="68"/>
<path d="M7657 7740 c-34 -27 -83 -89 -91 -117 -10 -32 10 -30 94 7 43 19 92 32 132 35 l63 5 -70 -19 c-72 -19 -166 -61 -198 -89 -45 -40 75 -44 171 -5 61 24 172 96 172 112 0 4 -38 26 -85 49 -97 48 -147 54 -188 22z" id="69"/>
<path d="M7026 7711 c-9 -14 59 -72 77 -65 9 3 17 9 17 14 0 21 -84 67 -94 51z" id="70"/>
<path d="M7240 7696 c0 -7 -3 -27 -6 -43 -5 -25 -2 -31 21 -41 15 -7 30 -11 32 -8 7 6 -30 106 -39 106 -5 0 -8 -6 -8 -14z" id="71"/>
<path d="M6737 7643 c-17 -19 -42 -35 -62 -39 -37 -7 -35 -3 -49 -109 -13 -96 -139 -289 -235 -359 -120 -89 -237 -118 -451 -115 -154 3 -320 -8 -320 -21 0 -12 96 -90 190 -156 47 -32 111 -77 143 -100 82 -61 116 -70 180 -49 79 25 172 63 276 111 170 80 280 211 324 389 23 92 39 259 35 375 l-3 105 -28 -32z" id="72"/>
<path d="M6509 7628 c-25 -85 -109 -279 -145 -334 -65 -98 -168 -159 -353 -210 l-104 -29 43 -7 c124 -21 327 34 433 117 107 85 206 248 227 375 l10 65 -36 33 c-21 17 -43 32 -50 32 -7 0 -19 -19 -25 -42z" id="73"/>
<path d="M6268 7590 c-25 -16 -68 -35 -95 -43 -58 -17 -65 -38 -26 -79 66 -70 91 -62 143 43 38 76 48 109 33 109 -5 0 -29 -14 -55 -30z" id="74"/>
<path d="M7092 7584 c-38 -46 -72 -161 -72 -242 0 -72 -1 -72 96 -26 82 39 131 80 164 136 41 71 38 109 -10 124 -19 6 -40 10 -45 7 -6 -2 -28 -44 -49 -93 -41 -97 -69 -140 -92 -140 -20 0 -18 7 16 49 31 40 90 160 90 183 0 8 -5 19 -12 26 -22 22 -56 13 -86 -24z" id="75"/>
<path d="M7461 7511 c-12 -8 -12 -13 3 -35 23 -35 38 -33 34 6 -3 34 -15 43 -37 29z" id="76"/>
<path d="M7756 7474 c-22 -8 -41 -16 -44 -18 -7 -8 32 -24 76 -31 l42 -7 0 36 c0 41 -10 44 -74 20z" id="77"/>
<path d="M6005 7407 c-89 -70 -230 -150 -346 -198 -44 -18 -79 -37 -79 -42 0 -15 245 -1 315 18 124 33 237 103 278 173 l17 30 -42 35 c-24 19 -48 37 -53 40 -6 3 -46 -22 -90 -56z" id="78"/>
<path d="M7304 7418 c-15 -24 -44 -63 -66 -87 -21 -24 -38 -48 -38 -52 0 -22 -77 -202 -119 -277 -80 -147 -241 -298 -391 -370 -36 -18 -109 -44 -162 -59 -54 -15 -98 -30 -98 -34 0 -4 24 -16 53 -26 42 -14 82 -18 207 -18 93 1 177 6 210 14 131 32 238 108 362 259 87 104 123 164 180 296 64 148 64 173 -2 250 -28 32 -62 78 -76 102 -14 24 -28 44 -30 44 -2 0 -16 -19 -30 -42z" id="79"/>
<path d="M3935 7430 c-137 -21 -322 -107 -442 -203 -121 -97 -134 -126 -57 -127 39 0 195 -39 327 -82 95 -31 98 -31 112 -12 16 22 74 140 106 216 34 83 34 82 124 64 150 -31 258 -15 408 61 41 20 76 32 87 28 27 -9 150 -247 164 -317 l10 -57 101 -37 c127 -47 172 -70 183 -92 12 -22 6 -37 -30 -88 -17 -23 -28 -49 -26 -59 2 -11 40 -29 116 -55 62 -22 140 -51 172 -66 l60 -27 39 36 c57 51 111 86 148 93 31 6 32 5 47 -45 8 -29 18 -86 22 -127 8 -89 2 -84 153 -114 90 -18 111 -19 152 -9 42 11 57 10 102 -4 30 -9 61 -17 69 -17 9 0 35 -16 58 -35 53 -44 83 -49 245 -41 225 10 374 46 512 122 93 52 96 66 8 38 -79 -25 -178 -33 -296 -23 -158 13 -307 54 -534 149 -94 39 -349 202 -465 297 -36 29 -93 70 -127 91 -34 20 -113 71 -175 113 -108 73 -244 147 -298 164 -14 4 -61 25 -105 45 -79 37 -272 84 -455 110 -104 15 -442 21 -515 10z" id="80"/>
<path d="M4531 7319 c-49 -22 -47 -10 -16 -149 9 -41 20 -76 25 -78 40 -14 134 -84 151 -111 26 -44 40 -30 42 41 1 43 -5 64 -28 103 -16 28 -48 87 -72 133 -24 45 -47 82 -51 81 -4 0 -27 -9 -51 -20z" id="81"/>
<path d="M4028 7238 c-8 -13 -44 -84 -80 -158 -48 -99 -80 -151 -120 -195 -90 -98 -97 -127 -45 -171 l32 -27 6 57 c4 33 15 69 26 84 33 45 165 151 220 177 30 14 81 54 117 90 62 63 98 85 135 85 9 0 48 -20 85 -45 71 -46 86 -49 86 -13 0 27 -21 99 -33 116 -12 15 -58 15 -145 1 -55 -9 -83 -8 -153 5 -110 21 -114 20 -131 -6z" id="82"/>
<path d="M7759 7199 c-25 -9 -49 -45 -49 -74 0 -15 37 -45 56 -45 6 0 18 17 27 38 9 20 22 45 29 54 7 9 10 19 8 21 -13 12 -48 14 -71 6z" id="83"/>
<path d="M7930 7182 c8 -5 37 -12 64 -16 27 -3 74 -20 104 -37 66 -37 64 -16 -2 26 -38 23 -62 30 -115 33 -42 2 -61 0 -51 -6z" id="84"/>
<path d="M4237 7120 c-22 -22 -38 -42 -36 -44 2 -3 23 1 47 7 41 11 43 10 79 -25 21 -19 58 -49 83 -66 25 -18 72 -66 106 -109 33 -43 76 -88 95 -101 40 -27 54 -56 74 -155 22 -105 23 -106 46 -78 41 50 14 131 -106 311 -97 145 -170 224 -251 271 -68 39 -88 37 -137 -11z" id="85"/>
<path d="M7980 7142 c0 -4 19 -17 43 -29 23 -11 78 -50 122 -86 82 -68 111 -80 59 -26 -49 51 -147 125 -183 137 -40 14 -41 14 -41 4z" id="86"/>
<path d="M7832 7128 c-21 -21 -14 -25 61 -37 39 -7 98 -22 130 -35 31 -13 57 -21 57 -17 0 9 -95 66 -142 86 -45 18 -90 19 -106 3z" id="87"/>
<path d="M3205 7063 c-220 -20 -570 -124 -745 -220 -161 -90 -348 -274 -442 -438 -55 -94 -119 -231 -143 -305 -15 -47 -39 -107 -53 -135 -31 -62 -43 -103 -32 -110 13 -8 211 -37 216 -32 3 3 18 63 35 133 44 194 76 288 134 405 94 187 151 264 249 333 217 154 484 216 816 190 236 -18 518 -7 558 23 15 11 27 25 27 32 0 11 -133 71 -205 92 -32 9 -342 41 -365 37 -5 -1 -28 -3 -50 -5z" id="88"/>
<path d="M4250 7062 c-110 -39 -331 -176 -364 -227 -28 -43 -23 -101 23 -250 63 -208 58 -202 136 -169 27 11 36 20 32 32 -37 115 -111 300 -125 310 -16 12 -14 16 18 43 46 40 244 171 298 198 24 12 42 27 40 33 -6 18 -42 36 -58 30z" id="89"/>
<path d="M7810 7061 c0 -18 41 -59 74 -75 18 -9 80 -27 137 -41 57 -14 122 -31 144 -39 22 -9 51 -15 64 -16 23 0 23 1 7 19 -10 11 -30 22 -44 26 -15 3 -52 23 -82 44 -84 59 -169 91 -240 91 -33 0 -60 -4 -60 -9z" id="90"/>
<path d="M4520 7043 c0 -5 14 -22 31 -39 17 -16 52 -65 79 -109 27 -45 59 -90 71 -100 l21 -20 -7 45 c-9 57 -39 128 -68 158 -38 40 -127 86 -127 65z" id="91"/>
<path d="M7444 6993 c-6 -21 1 -42 29 -93 46 -85 133 -344 149 -444 20 -133 0 -288 -65 -477 -31 -91 -65 -171 -81 -192 -39 -51 -166 -152 -235 -186 -31 -16 -99 -43 -151 -62 -90 -31 -103 -33 -235 -33 -77 -1 -171 3 -208 7 -95 11 -78 -6 32 -32 99 -24 267 -28 367 -10 73 12 205 54 255 80 43 21 206 182 249 243 86 127 150 325 151 471 1 97 -19 231 -50 335 -29 97 -169 401 -191 415 -5 3 -13 -7 -16 -22z" id="92"/>
<path d="M4223 6950 c-96 -59 -111 -76 -62 -66 78 14 237 19 269 7 18 -6 35 -9 38 -7 2 3 -21 30 -53 61 -40 39 -65 55 -84 55 -15 0 -64 -23 -108 -50z" id="93"/>
<path d="M8265 6991 c-6 -11 26 -31 49 -31 24 0 19 15 -9 28 -31 14 -32 14 -40 3z" id="94"/>
<path d="M4749 6937 c-10 -22 0 -215 17 -333 5 -37 2 -45 -35 -87 -34 -40 -63 -109 -50 -121 2 -2 41 -7 86 -11 l82 -7 6 28 c30 132 80 284 120 357 25 46 45 87 45 90 0 15 -216 107 -252 107 -5 0 -13 -10 -19 -23z" id="95"/>
<path d="M7870 6956 c0 -16 55 -37 128 -50 66 -12 90 -21 118 -45 27 -24 44 -31 77 -31 88 0 87 37 0 51 -43 6 -247 56 -301 74 -12 3 -22 4 -22 1z" id="96"/>
<path d="M7820 6942 c0 -16 37 -43 86 -61 61 -23 154 -37 154 -23 0 13 -49 28 -113 36 -27 3 -61 14 -75 24 -42 29 -52 34 -52 24z" id="97"/>
<path d="M2883 6851 c-185 -44 -319 -97 -428 -170 -81 -54 -96 -68 -152 -143 -116 -152 -193 -363 -259 -708 -4 -24 1 -28 93 -67 54 -23 98 -41 99 -40 2 2 17 118 34 261 22 182 159 455 282 559 60 50 260 157 295 157 13 0 67 12 120 26 99 26 139 29 674 47 51 2 65 11 93 57 l18 32 -218 -4 c-121 -1 -298 0 -394 4 -154 7 -185 6 -257 -11z" id="98"/>
<path d="M4229 6859 c-21 -8 -28 -18 -31 -47 -3 -20 -2 -48 2 -62 l7 -25 12 30 c7 16 33 49 58 72 l46 43 -34 -1 c-19 0 -46 -5 -60 -10z" id="99"/>
<path d="M4370 6820 c0 -79 -17 -130 -55 -165 -36 -32 -34 -54 5 -75 32 -17 99 5 110 36 23 59 -4 203 -45 243 -13 14 -15 9 -15 -39z" id="100"/>
<path d="M7303 6778 c-147 -194 -245 -282 -424 -377 -167 -89 -247 -108 -499 -119 l-165 -7 -5 -90 c-5 -84 -6 -90 -28 -93 -12 -2 -59 9 -104 24 -107 35 -168 92 -193 177 -20 71 -31 77 -192 111 -142 30 -172 41 -358 134 -138 70 -261 117 -320 124 -28 3 -31 -1 -52 -52 -12 -30 -23 -79 -25 -109 -4 -64 -30 -45 232 -168 102 -48 239 -117 305 -154 136 -77 330 -146 485 -174 52 -9 149 -30 215 -47 146 -38 291 -43 483 -16 277 40 475 133 587 277 51 65 111 192 136 286 32 118 32 365 0 365 -5 0 -40 -42 -78 -92z" id="101"/>
<path d="M4022 6820 c-26 -24 -27 -45 -7 -119 20 -76 35 -87 35 -26 0 27 7 68 16 92 26 67 2 96 -44 53z" id="102"/>
<path d="M4123 6828 c-24 -32 -35 -81 -31 -138 4 -52 9 -65 38 -95 56 -58 132 -89 220 -89 l75 -1 3 29 c4 28 3 28 -35 20 -72 -16 -129 -9 -173 21 -63 43 -72 69 -64 175 6 77 5 90 -8 90 -9 0 -20 -6 -25 -12z" id="103"/>
<path d="M4446 6810 c14 -56 10 -309 -5 -363 -14 -50 -5 -81 16 -55 18 21 73 187 73 217 0 32 -63 209 -81 225 -8 8 -9 2 -3 -24z" id="104"/>
<path d="M7459 6823 c23 -44 71 -188 92 -279 18 -81 21 -114 16 -212 -6 -124 -13 -152 -72 -275 -42 -89 -108 -165 -203 -235 -202 -149 -412 -189 -667 -128 -152 37 -223 61 -287 100 -30 18 -74 40 -97 50 -24 9 -59 28 -79 41 -20 14 -48 25 -61 25 -31 0 -228 55 -309 86 -71 27 -72 28 -72 14 0 -6 26 -27 57 -47 31 -20 82 -55 112 -78 31 -23 139 -85 241 -138 207 -107 289 -134 498 -161 156 -20 310 -20 404 -1 41 9 121 39 183 69 92 44 119 63 167 115 145 156 227 389 215 606 -9 155 -95 449 -135 463 -11 3 -12 0 -3 -15z" id="105"/>
<path d="M4288 6813 c-25 -29 -38 -60 -38 -90 0 -37 13 -56 36 -51 14 3 18 11 16 31 -2 18 2 27 12 27 23 0 31 22 13 35 -15 10 -15 14 -2 31 8 10 15 22 15 27 0 14 -37 7 -52 -10z" id="106"/>
<path d="M8256 6810 c5 -5 25 -13 44 -16 32 -7 34 -6 21 9 -7 9 -27 17 -44 17 -20 0 -28 -3 -21 -10z" id="107"/>
<path d="M4520 6757 c0 -8 7 -31 15 -50 22 -53 18 -117 -11 -202 -32 -92 -28 -108 14 -69 21 19 42 53 57 97 41 111 33 148 -43 212 -23 19 -32 22 -32 12z" id="108"/>
<path d="M3470 6738 c-36 -4 -100 -5 -143 -2 -60 5 -82 3 -101 -9 -23 -16 -73 -103 -63 -113 2 -2 92 18 198 45 252 65 269 70 269 82 0 10 -46 9 -160 -3z" id="109"/>
<path d="M7436 6685 c-40 -376 -200 -603 -501 -713 -44 -16 -128 -40 -186 -52 l-106 -23 -24 -46 c-13 -25 -25 -49 -27 -52 -5 -10 157 -29 243 -29 195 1 390 76 479 184 71 88 127 181 149 250 20 63 22 92 22 266 0 177 -2 199 -21 240 l-21 45 -7 -70z" id="110"/>
<path d="M3015 6710 c-172 -33 -359 -112 -448 -190 -27 -24 -71 -77 -100 -119 -51 -76 -113 -208 -103 -218 3 -4 30 17 60 45 113 107 323 222 556 304 47 16 95 36 108 45 25 15 85 130 76 145 -7 11 -33 9 -149 -12z" id="111"/>
<path d="M3605 6699 c-27 -11 -133 -51 -235 -89 -542 -201 -602 -226 -720 -296 -112 -67 -205 -147 -272 -235 -76 -99 -99 -160 -105 -279 l-5 -95 51 -40 c52 -41 108 -63 121 -48 4 4 15 40 25 78 94 386 380 686 820 861 111 44 184 64 269 74 70 8 84 14 113 42 18 17 33 36 33 40 0 14 -43 8 -95 -13z" id="112"/>
<path d="M3706 6658 c-9 -12 -16 -27 -16 -34 0 -6 -22 -43 -50 -81 -27 -39 -52 -82 -55 -96 -6 -24 -3 -27 57 -45 74 -23 158 -38 158 -27 0 4 -15 27 -32 52 -28 38 -36 44 -58 38 -81 -20 -76 -20 -60 -1 8 10 37 28 65 40 57 26 115 71 115 91 0 19 -71 85 -92 85 -9 0 -24 -10 -32 -22z" id="113"/>
<path d="M5477 6646 c-49 -30 -87 -66 -87 -82 0 -15 31 -34 54 -34 9 0 18 13 22 35 3 19 13 40 22 47 16 14 16 15 -5 -80 -4 -18 1 -25 31 -37 65 -27 69 -24 61 53 -8 75 -23 116 -45 119 -8 2 -32 -8 -53 -21z" id="114"/>
<path d="M4621 6553 c-12 -43 -36 -106 -53 -141 -16 -35 -27 -66 -24 -69 12 -12 73 36 96 78 19 34 25 58 25 109 0 36 -5 73 -11 83 -8 14 -14 3 -33 -60z" id="115"/>
<path d="M3550 6605 c-73 -11 -117 -25 -322 -105 -94 -37 -258 -126 -258 -141 0 -4 -26 -24 -57 -45 -116 -77 -258 -244 -331 -389 -32 -66 -88 -231 -98 -293 l-6 -39 45 -12 c62 -15 91 -44 120 -121 27 -70 61 -243 76 -380 9 -84 10 -85 52 -120 23 -19 76 -64 118 -100 154 -132 222 -179 388 -265 92 -47 128 -52 121 -18 -2 10 -59 55 -128 101 -238 160 -431 335 -481 438 l-32 64 6 143 c3 78 13 202 22 275 l16 133 -37 41 c-64 71 -110 219 -86 273 11 23 16 25 49 19 54 -9 111 -36 163 -76 l45 -36 117 59 c205 103 326 148 547 203 129 33 203 64 181 75 -8 5 -35 12 -60 16 -25 4 -78 20 -118 36 -41 16 -85 29 -98 29 -14 0 -27 7 -30 15 -6 14 20 48 139 190 15 18 24 35 20 37 -4 2 -42 -1 -83 -7z" id="116"/>
<path d="M4070 6552 c0 -29 52 -112 70 -112 5 0 17 12 26 26 17 25 17 26 -32 69 -27 24 -52 44 -56 45 -5 0 -8 -13 -8 -28z" id="117"/>
<path d="M3812 6524 c-30 -21 -27 -47 9 -83 34 -35 53 -40 45 -13 -2 9 -8 36 -11 59 -8 51 -15 57 -43 37z" id="118"/>
<path d="M7517 6424 c-4 -38 -7 -90 -7 -116 0 -111 -94 -290 -212 -405 -129 -125 -254 -166 -498 -166 -176 -1 -263 17 -404 79 -129 58 -149 51 -26 -9 65 -31 143 -58 244 -83 137 -34 158 -36 245 -31 119 8 190 27 300 80 70 34 102 58 176 132 147 147 193 246 202 435 6 127 -10 194 -20 84z" id="119"/>
<path d="M4158 6383 c-22 -46 -32 -82 -32 -115 0 -68 12 -76 76 -51 29 12 103 40 165 63 105 40 155 71 140 87 -4 3 -36 -6 -72 -20 -65 -27 -135 -36 -135 -18 0 6 20 13 45 17 50 7 65 24 65 73 l0 31 -111 0 -110 0 -31 -67z" id="120"/>
<path d="M4940 6389 c0 -5 9 -22 20 -37 29 -39 37 -101 32 -245 l-4 -127 -27 -6 c-70 -15 -65 -20 45 -52 144 -42 217 -55 286 -50 54 4 60 7 125 69 38 36 89 78 113 95 24 16 45 34 47 40 2 7 -112 70 -264 146 -291 146 -373 182 -373 167z" id="121"/>
<path d="M5923 6383 c-18 -7 -16 -69 3 -109 9 -19 35 -50 58 -68 40 -32 175 -91 185 -80 3 2 7 33 9 67 3 69 -15 112 -63 143 -37 24 -41 12 -12 -46 24 -48 27 -87 6 -74 -5 3 -20 29 -34 59 -41 85 -102 129 -152 108z" id="122"/>
<path d="M4025 6340 c-11 -5 -39 -9 -62 -9 -28 -1 -43 -5 -43 -13 1 -7 22 -49 49 -93 48 -81 79 -105 115 -92 15 6 15 10 -5 36 -20 27 -21 37 -15 105 7 80 5 85 -39 66z" id="123"/>
<path d="M4894 6319 c-19 -21 -46 -22 -126 -3 -45 10 -34 -11 47 -99 41 -44 75 -89 75 -99 0 -40 -21 -23 -125 100 -43 50 -84 92 -91 92 -9 0 -11 -16 -7 -59 5 -50 2 -62 -14 -78 -11 -11 -27 -23 -34 -25 -41 -15 51 -80 138 -98 74 -16 184 -15 194 2 16 24 11 226 -6 258 -18 36 -26 37 -51 9z" id="124"/>
<path d="M4540 6297 c-30 -18 -71 -39 -90 -47 -62 -24 -195 -91 -209 -105 -23 -23 45 -35 147 -25 172 17 245 44 256 97 8 36 -14 107 -34 110 -8 2 -40 -12 -70 -30z" id="125"/>
<path d="M3755 6238 c-27 -11 -100 -33 -161 -48 -61 -15 -175 -51 -255 -80 -166 -60 -441 -201 -468 -239 -34 -48 -52 -133 -62 -296 -5 -88 -13 -191 -18 -230 -9 -76 -2 -158 17 -190 6 -11 12 -15 12 -10 3 83 26 199 51 263 17 42 51 136 75 207 131 382 145 400 363 449 108 25 446 141 481 166 50 36 41 38 -35 8z" id="126"/>
<path d="M3817 6214 c-45 -30 -107 -54 -365 -140 -109 -36 -217 -77 -241 -91 -52 -30 -81 -87 -165 -328 -92 -264 -124 -353 -141 -384 -17 -34 -20 -88 -6 -124 17 -43 121 -145 270 -265 183 -147 340 -254 366 -250 20 3 67 87 95 170 14 42 6 120 -15 141 -7 8 -55 20 -105 26 -93 12 -151 33 -182 67 -25 29 -98 204 -98 237 l0 30 53 -6 c28 -4 71 -10 95 -13 49 -8 52 1 26 76 -21 58 -20 195 2 270 34 119 123 223 289 340 166 117 215 155 220 172 7 21 -31 98 -48 98 -7 0 -29 -12 -50 -26z" id="127"/>
<path d="M4444 6106 c-42 -19 -44 -23 -33 -81 20 -107 74 -178 202 -268 37 -26 70 -47 71 -47 2 0 18 21 34 48 34 52 76 168 68 187 -4 13 -137 58 -145 50 -2 -3 -3 -28 -3 -57 3 -79 -15 -95 -23 -22 -11 107 -15 119 -55 162 -42 45 -64 50 -116 28z" id="128"/>
<path d="M3879 6072 c-126 -95 -331 -293 -356 -344 -36 -70 -53 -157 -55 -263 -2 -148 8 -198 40 -218 15 -8 44 -32 65 -53 21 -20 39 -35 40 -33 2 2 10 22 18 44 16 43 87 105 121 105 22 0 23 7 -6 -133 -11 -54 -26 -92 -47 -121 -27 -38 -30 -49 -27 -101 l3 -59 39 60 c22 32 59 85 83 116 23 31 43 66 43 77 0 12 -21 83 -47 158 -39 115 -47 151 -47 214 0 68 3 84 37 151 76 155 205 246 385 273 53 8 111 15 129 15 40 0 45 9 37 59 l-6 40 -87 3 c-47 2 -121 -1 -164 -6 -76 -9 -78 -9 -105 17 -35 33 -47 33 -93 -1z" id="129"/>
<path d="M5572 6035 c-46 -20 -138 -93 -199 -160 -56 -59 -60 -65 -41 -65 18 0 276 142 311 171 l30 26 -21 21 c-25 25 -35 26 -80 7z" id="130"/>
<path d="M2706 5988 c10 -62 42 -145 69 -176 28 -32 33 -29 41 29 5 38 2 51 -20 83 -37 56 -32 66 12 23 40 -39 62 -46 81 -23 22 26 -102 106 -164 106 -24 0 -25 -2 -19 -42z" id="131"/>
<path d="M5594 5922 c-38 -26 -93 -66 -122 -89 -76 -57 -190 -112 -262 -125 -81 -16 -135 -4 -280 61 -62 28 -121 51 -130 51 -16 0 -80 -111 -80 -140 0 -8 -4 -21 -9 -28 -16 -26 -230 99 -305 178 -29 31 -43 39 -60 34 -52 -15 -245 -85 -287 -103 -63 -28 -133 -107 -177 -199 -32 -68 -37 -86 -37 -152 0 -58 5 -83 21 -110 30 -51 53 -46 74 16 25 71 46 109 87 155 48 53 82 70 166 80 72 9 102 25 113 63 8 28 34 56 50 56 10 0 11 -6 5 -22 -4 -13 -11 -42 -14 -64 -7 -40 -6 -42 24 -48 47 -9 98 -7 120 5 19 10 20 8 13 -25 l-6 -36 93 44 c145 67 193 76 454 87 428 16 842 66 978 118 36 14 29 25 -36 57 -29 15 -83 51 -120 81 -85 68 -144 103 -178 103 -14 0 -55 -21 -95 -48z" id="132"/>
<path d="M4154 5915 c-107 -16 -182 -52 -247 -117 -56 -56 -122 -173 -115 -205 3 -13 11 -6 34 31 45 77 90 122 153 155 71 36 180 75 258 91 32 7 71 19 88 28 28 14 28 16 10 23 -28 11 -87 9 -181 -6z" id="133"/>
<path d="M4820 5906 c0 -18 7 -26 28 -31 15 -3 61 -22 103 -40 115 -52 190 -69 248 -55 26 6 60 22 76 35 l30 23 -25 6 c-14 2 -61 7 -105 10 -58 3 -107 14 -178 40 -54 20 -116 36 -137 36 -35 0 -40 -3 -40 -24z" id="134"/>
<path d="M6483 5877 c-46 -5 -83 -13 -83 -17 0 -4 24 -17 53 -28 95 -37 94 -38 117 7 23 47 24 52 8 50 -7 -1 -50 -6 -95 -12z" id="135"/>
<path d="M1780 5807 c-18 -9 -39 -45 -77 -132 -29 -66 -52 -126 -53 -133 0 -10 9 -12 33 -7 67 13 94 26 128 61 73 77 196 106 275 66 104 -53 158 -169 173 -372 l7 -95 14 65 c16 76 48 117 79 101 25 -14 30 -28 43 -142 8 -71 8 -121 0 -182 -21 -160 -70 -243 -201 -334 -36 -26 -68 -48 -70 -50 -3 -2 0 -8 5 -13 32 -32 153 46 194 126 14 28 44 73 67 100 62 75 76 109 81 200 4 79 3 86 -69 299 -40 120 -82 232 -93 249 -15 22 -54 47 -138 88 -173 85 -347 131 -398 105z" id="136"/>
<path d="M6000 5700 c-98 -35 -225 -63 -390 -85 -58 -8 -150 -21 -205 -29 -158 -24 -337 -38 -510 -41 -102 -2 -182 -9 -218 -18 -99 -26 -261 -137 -200 -137 10 0 32 9 48 20 51 34 52 22 3 -24 -28 -25 -48 -53 -48 -64 0 -23 6 -22 130 28 134 55 177 61 505 70 171 5 328 12 349 15 123 18 481 146 651 233 l50 25 -30 13 c-41 18 -71 17 -135 -6z" id="137"/>
<path d="M6165 5660 c-163 -73 -342 -142 -530 -203 l-230 -76 -305 -6 c-168 -3 -318 -8 -335 -12 -42 -8 -315 -111 -343 -129 -12 -8 -36 -33 -53 -56 -16 -23 -54 -60 -84 -81 -41 -29 -55 -45 -55 -63 0 -47 55 -28 160 55 26 21 79 51 117 66 58 24 86 29 188 33 103 4 127 8 168 29 46 25 50 25 225 20 133 -4 199 -10 267 -26 149 -36 156 -36 278 -1 160 47 310 127 414 223 43 40 137 158 161 204 17 32 -1 41 -43 23z" id="138"/>
<path d="M1369 5633 l-87 -4 25 -52 c14 -29 32 -87 41 -129 12 -61 19 -78 32 -78 10 0 23 7 31 16 7 8 26 22 42 30 25 14 34 14 75 0 25 -9 49 -16 54 -16 16 0 35 57 42 120 3 36 7 76 9 90 2 25 2 25 -88 26 -49 0 -129 -1 -176 -3z m91 -63 c50 -25 120 -92 120 -113 0 -20 -4 -21 -32 -6 -24 13 -168 128 -168 135 0 11 45 2 80 -16z" id="139"/>
<path d="M1904 5620 c-23 -11 -52 -32 -64 -45 l-24 -25 20 -28 c23 -31 103 -76 153 -87 46 -10 38 10 -25 57 -55 42 -65 58 -36 58 26 0 96 -53 136 -103 38 -47 44 -117 26 -289 -7 -66 -10 -121 -8 -123 7 -7 98 123 110 156 13 37 5 246 -11 300 -14 46 -48 96 -84 123 -41 30 -139 34 -193 6z" id="140"/>
<path d="M6224 5583 c-121 -189 -400 -378 -616 -417 -21 -4 -38 -11 -38 -16 0 -5 16 -21 34 -35 19 -15 40 -41 46 -59 6 -18 24 -46 41 -62 17 -16 37 -41 45 -56 22 -42 49 -35 152 38 88 63 161 140 287 299 21 28 65 79 95 115 31 36 71 86 90 112 l33 47 -29 25 c-16 14 -46 34 -66 46 l-37 21 -37 -58z" id="141"/>
<path d="M2400 5570 c0 -6 11 -33 25 -60 14 -27 36 -77 49 -112 13 -35 35 -85 49 -113 32 -65 51 -171 44 -247 -7 -80 -50 -164 -132 -258 -61 -69 -65 -76 -48 -88 21 -15 60 -8 85 15 9 8 36 47 59 87 23 39 57 89 74 111 18 22 37 50 44 62 14 27 14 142 1 288 -17 190 -51 262 -135 294 -72 27 -115 35 -115 21z" id="142"/>
<path d="M4170 5516 c-25 -7 -60 -22 -78 -33 -40 -25 -112 -137 -112 -173 1 -24 2 -24 28 10 59 77 113 127 171 160 86 48 82 61 -9 36z" id="143"/>
<path d="M1684 5493 c-30 -32 -48 -66 -58 -105 -8 -35 4 -35 35 -2 52 56 116 69 156 32 l23 -21 0 25 c0 14 -10 40 -23 59 -19 28 -30 35 -65 37 -35 3 -46 -1 -68 -25z" id="144"/>
<path d="M4319 5510 c-75 -22 -223 -110 -209 -123 6 -5 204 67 250 92 19 10 36 24 38 30 4 13 -39 14 -79 1z" id="145"/>
<path d="M4383 5383 c-41 -69 -69 -105 -97 -123 -35 -22 -37 -25 -16 -28 30 -5 73 14 103 46 25 26 87 160 87 188 0 32 -22 8 -77 -83z" id="146"/>
<path d="M4275 5416 c-117 -38 -185 -78 -237 -141 -33 -39 -48 -66 -48 -86 0 -16 4 -29 9 -29 5 0 38 13 73 30 34 16 70 30 78 30 19 0 98 47 137 80 59 51 105 142 71 139 -7 -1 -44 -11 -83 -23z" id="147"/>
<path d="M1880 5362 c-7 -31 -21 -72 -31 -91 -11 -18 -18 -35 -16 -38 10 -9 222 113 222 127 0 15 -64 41 -132 53 -32 6 -32 6 -43 -51z" id="148"/>
<path d="M1706 5389 c-26 -20 -36 -59 -15 -59 16 0 53 21 66 39 32 42 -5 56 -51 20z" id="149"/>
<path d="M1471 5373 c-27 -23 -36 -86 -26 -200 l7 -88 100 -98 c100 -98 129 -118 181 -131 40 -10 217 34 217 53 0 4 -43 12 -95 19 -52 7 -123 23 -158 37 -109 44 -246 172 -162 151 25 -6 27 -5 22 16 -3 13 -11 38 -18 55 -11 27 -11 41 0 80 26 89 25 98 -4 111 -34 16 -39 15 -64 -5z" id="150"/>
<path d="M1763 5345 c-24 -21 -26 -26 -13 -35 32 -22 63 -24 77 -5 17 24 16 30 -3 49 -21 21 -28 20 -61 -9z" id="151"/>
<path d="M1386 5323 c-4 -11 -25 -35 -47 -52 -22 -18 -56 -57 -75 -86 l-35 -53 36 -76 c20 -42 39 -76 43 -76 5 0 28 46 52 103 45 106 63 206 42 243 -9 16 -10 16 -16 -3z" id="152"/>
<path d="M1942 5255 c-51 -30 -107 -65 -125 -79 -61 -45 -97 -59 -149 -54 -33 4 -48 2 -45 -6 7 -20 69 -55 138 -78 67 -21 68 -21 166 -4 54 10 103 22 109 27 15 12 37 161 33 209 -3 21 -10 36 -19 37 -8 1 -57 -22 -108 -52z" id="153"/>
<path d="M1571 5277 c-15 -38 -14 -52 4 -67 21 -18 30 10 17 57 l-9 38 -12 -28z" id="154"/>
<path d="M1627 5293 c-13 -13 -7 -62 10 -78 22 -22 88 -14 116 13 25 26 18 37 -40 56 -50 17 -76 20 -86 9z" id="155"/>
<path d="M2305 5213 c-23 -110 -43 -161 -80 -202 -17 -20 -48 -61 -68 -92 -43 -69 -79 -97 -188 -148 -90 -42 -165 -65 -241 -76 -54 -7 -78 -26 -78 -59 0 -33 23 -48 78 -53 40 -4 70 4 200 55 180 71 222 94 301 168 66 61 106 131 117 207 8 58 -5 277 -16 277 -5 0 -16 -35 -25 -77z" id="156"/>
<path d="M3297 5253 c-8 -13 86 -156 116 -176 22 -14 119 -47 139 -47 20 0 -30 65 -79 102 -56 43 -73 68 -45 68 16 0 96 -74 156 -145 l25 -30 0 25 c1 38 -33 103 -67 132 -56 47 -229 97 -245 71z" id="157"/>
<path d="M3685 5233 c-33 -32 -47 -118 -26 -152 12 -19 37 20 50 79 20 85 11 109 -24 73z" id="158"/>
<path d="M6217 5243 c-21 -20 -1 -53 75 -126 44 -42 78 -80 75 -84 -9 -8 -103 57 -147 102 -48 50 -90 43 -90 -14 1 -77 114 -175 240 -210 88 -25 110 -26 110 -6 0 20 -85 192 -114 229 -74 96 -125 133 -149 109z" id="159"/>
<path d="M3892 5228 c-34 -34 0 -108 50 -108 29 0 30 1 23 36 -14 76 -42 103 -73 72z" id="160"/>
<path d="M4218 5200 c-107 -18 -204 -58 -186 -75 4 -4 38 -10 75 -12 75 -5 119 8 172 53 52 44 40 51 -61 34z" id="161"/>
<path d="M4905 5193 l-30 -16 25 -10 c76 -29 217 -101 267 -135 86 -59 179 -161 213 -234 16 -35 34 -97 41 -138 6 -41 14 -88 17 -103 l7 -28 49 32 c27 18 73 56 102 84 65 64 78 105 72 230 -3 76 -8 98 -33 145 -53 97 -136 140 -339 175 -123 21 -351 20 -391 -2z" id="162"/>
<path d="M4635 5161 c-58 -10 -116 -32 -162 -64 -33 -22 -44 -47 -20 -47 64 -1 162 -26 221 -56 74 -37 108 -62 230 -166 113 -98 176 -133 298 -166 94 -25 119 -37 174 -77 23 -17 27 3 16 71 -30 179 -158 324 -389 438 -48 24 -106 49 -128 54 -58 15 -182 22 -240 13z" id="163"/>
<path d="M2209 5128 c-7 -13 -25 -39 -40 -58 -31 -39 -66 -127 -54 -138 10 -10 92 85 116 135 21 44 22 74 2 80 -6 2 -17 -6 -24 -19z" id="164"/>
<path d="M1373 5033 c-56 -135 -54 -322 6 -405 41 -57 81 -81 123 -73 31 6 37 2 81 -49 61 -70 104 -84 288 -93 154 -7 210 5 296 61 81 53 69 89 -28 79 -31 -3 -85 -1 -121 6 -52 9 -74 8 -119 -4 -119 -33 -153 -37 -196 -26 -74 20 -102 83 -68 156 15 30 20 33 78 38 35 3 76 11 92 18 29 12 27 13 -60 34 -49 12 -104 29 -121 38 -41 21 -144 133 -185 201 -19 30 -38 56 -42 56 -4 0 -15 -17 -24 -37z" id="165"/>
<path d="M3966 5051 c-9 -15 19 -73 50 -102 l24 -23 58 18 c80 25 102 41 102 74 0 28 -1 28 -62 28 -35 0 -86 4 -114 8 -35 6 -53 5 -58 -3z" id="166"/>
<path d="M3826 4998 c-28 -29 -68 -78 -88 -108 -40 -61 -122 -220 -116 -226 2 -2 28 14 57 36 52 39 107 58 137 46 11 -4 44 19 105 74 l88 81 -50 75 c-28 41 -57 74 -65 74 -8 0 -39 -24 -68 -52z" id="167"/>
<path d="M4380 5009 c-22 -9 -16 -13 65 -40 165 -55 310 -137 375 -214 102 -119 204 -165 388 -173 61 -2 112 -2 112 2 0 13 -80 45 -141 56 -106 19 -201 78 -374 229 -38 34 -88 72 -111 86 -87 51 -250 79 -314 54z" id="168"/>
<path d="M2985 4961 c21 -41 124 -130 283 -243 102 -74 144 -98 167 -98 l30 1 -22 17 c-12 9 -48 34 -80 54 -32 20 -90 63 -129 95 -39 32 -111 91 -160 131 -49 39 -92 72 -97 72 -4 0 -1 -13 8 -29z" id="169"/>
<path d="M1159 4951 c-78 -49 -216 -216 -187 -225 37 -12 219 -46 258 -48 43 -3 45 -2 48 26 2 17 1 49 -3 73 -8 52 -22 55 -115 18 -36 -14 -68 -24 -73 -22 -19 6 75 58 129 72 32 8 59 17 61 19 6 6 -44 91 -61 105 -9 8 -24 3 -57 -18z" id="170"/>
<path d="M4180 4944 c-97 -29 -108 -35 -207 -116 -63 -52 -94 -88 -77 -88 3 0 52 10 107 22 78 16 136 21 242 21 166 0 219 -12 350 -82 103 -55 186 -84 299 -106 104 -20 120 -19 67 5 -25 12 -89 64 -148 120 -94 91 -114 105 -226 159 -127 63 -218 91 -283 90 -22 0 -77 -11 -124 -25z" id="171"/>
<path d="M2644 4844 c-43 -52 -83 -104 -88 -115 -8 -17 0 -30 50 -81 32 -33 88 -80 124 -104 36 -24 94 -64 130 -89 36 -26 86 -57 113 -71 26 -13 91 -54 145 -90 53 -37 127 -81 163 -99 37 -18 77 -40 90 -49 38 -26 56 -21 63 22 14 84 16 82 -75 82 l-82 0 6 45 c4 24 22 84 40 132 l34 88 -91 45 c-150 74 -282 166 -466 324 -36 31 -68 56 -71 56 -3 0 -42 -43 -85 -96z" id="172"/>
<path d="M5700 4859 c0 -141 -34 -207 -140 -279 -32 -22 -60 -47 -64 -56 -6 -14 -1 -16 35 -10 113 18 194 106 206 221 7 67 -4 157 -22 181 -13 17 -14 11 -15 -57z" id="173"/>
<path d="M1926 4867 c-69 -22 -91 -42 -65 -58 39 -25 149 0 197 44 45 42 -23 49 -132 14z" id="174"/>
<path d="M5766 4831 c-4 -5 -5 -38 -4 -74 3 -105 -55 -198 -161 -261 l-35 -20 34 -9 c105 -27 147 -44 191 -79 27 -21 55 -38 62 -38 23 0 66 92 79 168 23 135 -17 253 -101 300 -42 24 -57 27 -65 13z" id="175"/>
<path d="M4041 4735 c-80 -15 -106 -29 -81 -45 8 -6 22 -7 30 -3 29 12 328 15 411 4 64 -9 108 -23 189 -61 116 -54 255 -87 410 -96 99 -5 82 9 -22 20 -116 11 -257 53 -373 110 -157 77 -194 86 -354 85 -75 0 -169 -7 -210 -14z" id="176"/>
<path d="M3746 4710 c-35 -11 -66 -38 -66 -58 0 -12 13 -14 73 -10 93 6 169 44 123 61 -30 12 -103 16 -130 7z" id="177"/>
<path d="M2502 4648 c-21 -21 -13 -44 34 -108 61 -84 353 -375 434 -435 74 -54 170 -105 198 -105 11 0 25 7 32 15 7 9 39 32 72 52 32 20 57 37 55 39 -1 2 -43 18 -92 37 -202 77 -421 223 -599 399 -65 65 -120 118 -120 118 -1 0 -7 -5 -14 -12z" id="178"/>
<path d="M2337 4644 c-19 -20 -4 -79 45 -171 28 -54 68 -132 88 -173 27 -54 56 -92 101 -135 126 -119 267 -217 366 -255 53 -20 63 -18 63 10 0 29 28 44 76 41 44 -2 60 12 26 23 -28 9 -185 117 -257 176 -95 79 -329 332 -366 396 -17 30 -41 61 -53 69 -27 18 -79 29 -89 19z" id="179"/>
<path d="M4070 4644 c-58 -8 -62 -11 -36 -37 13 -13 29 -39 36 -59 l13 -35 86 -6 c47 -4 144 -18 216 -32 152 -29 273 -32 395 -9 92 18 125 34 69 34 -71 0 -204 31 -282 66 -154 68 -191 77 -332 79 -71 2 -146 1 -165 -1z" id="180"/>
<path d="M2270 4618 c-1 -1 -2 -24 -4 -51 -6 -79 -61 -134 -191 -192 l-55 -24 6 -43 c11 -77 52 -272 64 -303 9 -23 13 -26 20 -15 6 8 10 23 10 33 0 37 41 96 101 146 121 102 179 158 179 176 0 10 -14 42 -31 73 -18 30 -42 87 -54 125 -13 39 -28 73 -34 75 -6 2 -11 2 -11 0z" id="181"/>
<path d="M3634 4607 c-6 -16 23 -87 35 -87 12 0 43 79 36 91 -9 14 -65 11 -71 -4z" id="182"/>
<path d="M3760 4601 c0 -13 54 -57 108 -88 26 -14 58 -36 71 -47 43 -39 117 -167 94 -165 -4 0 -34 32 -66 70 -57 68 -232 203 -249 193 -4 -3 -8 -26 -8 -51 0 -60 30 -111 89 -151 53 -36 212 -92 262 -92 29 0 31 2 25 28 -3 15 -15 76 -27 137 -21 117 -33 139 -86 161 -36 16 -213 19 -213 5z" id="183"/>
<path d="M5988 4517 c-4 -83 -9 -101 -39 -157 l-34 -62 50 -44 c27 -24 57 -44 66 -44 38 0 69 153 51 249 -10 58 -54 140 -78 148 -8 3 -13 -28 -16 -90z" id="184"/>
<path d="M3440 4558 c-41 -66 -80 -157 -86 -201 -6 -41 -5 -45 18 -50 14 -4 48 0 75 8 83 25 152 90 173 165 13 45 -4 110 -28 110 -25 0 -86 -67 -112 -123 -24 -51 -35 -63 -45 -48 -7 13 17 72 48 113 41 55 41 58 7 58 -23 0 -35 -7 -50 -32z" id="185"/>
<path d="M4133 4463 c-26 -10 -15 -69 34 -191 15 -34 23 -65 20 -69 -11 -10 -285 15 -348 33 -73 21 -127 66 -158 133 -14 28 -28 51 -31 51 -15 0 -87 -158 -100 -218 -7 -34 -11 -64 -9 -66 2 -2 42 5 89 16 127 29 316 28 439 -2 83 -20 101 -21 148 -11 73 17 151 60 268 151 55 42 122 88 149 102 l49 25 -119 6 c-71 3 -149 14 -194 26 -70 19 -205 27 -237 14z" id="186"/>
<path d="M4880 4458 c-38 -11 -170 -88 -208 -122 -33 -29 -55 -75 -91 -193 -26 -84 -39 -110 -77 -152 -26 -29 -44 -54 -41 -57 3 -3 22 -9 41 -14 46 -10 115 5 144 32 20 19 22 31 22 114 0 120 14 183 54 241 48 70 126 109 260 131 58 9 106 20 106 25 0 10 -169 7 -210 -5z" id="187"/>
<path d="M5155 4444 c-38 -14 -105 -29 -148 -34 -105 -12 -219 -67 -263 -127 -39 -52 -59 -148 -50 -242 7 -84 19 -117 67 -197 49 -81 78 -168 87 -263 l8 -76 18 34 c10 19 20 59 22 90 5 58 7 50 -87 306 -26 70 -29 91 -26 166 6 155 65 216 282 288 152 50 220 80 185 80 -14 0 -56 -12 -95 -25z" id="188"/>
<path d="M5305 4445 c-22 -14 -92 -41 -155 -61 -219 -68 -271 -97 -312 -177 -46 -90 -33 -188 48 -382 33 -78 38 -100 38 -170 1 -96 -14 -144 -61 -196 -34 -38 -35 -41 -25 -82 14 -52 -1 -168 -28 -233 -11 -24 -40 -66 -65 -93 -45 -48 -46 -51 -40 -95 6 -40 4 -49 -19 -77 -14 -17 -26 -39 -26 -50 0 -21 35 -39 75 -39 57 0 75 -98 28 -150 -77 -83 -177 -18 -226 147 l-21 72 -13 -37 c-24 -70 -9 -124 60 -214 20 -27 33 -48 29 -48 -17 0 -72 67 -97 119 -20 39 -30 50 -36 40 -13 -20 -2 -45 58 -137 90 -137 136 -143 326 -46 88 45 107 41 199 -39 38 -34 114 -96 168 -137 247 -189 351 -202 642 -79 65 28 124 48 131 46 19 -6 -264 -144 -334 -162 -90 -24 -180 -15 -301 28 -112 40 -195 95 -309 204 -99 95 -116 101 -180 66 -27 -14 -54 -32 -61 -40 -8 -10 4 -49 50 -166 115 -285 134 -358 157 -603 18 -183 15 -246 -16 -414 -45 -233 -97 -390 -129 -390 -14 0 -13 6 9 48 21 41 47 159 38 169 -4 3 -39 -25 -79 -62 -40 -37 -95 -78 -123 -92 -27 -14 -75 -43 -105 -63 -30 -20 -74 -47 -98 -59 -100 -51 -410 -144 -598 -180 -55 -11 -125 -26 -155 -35 -30 -9 -101 -25 -159 -36 -184 -35 -248 -57 -336 -115 -110 -73 -317 -292 -364 -386 l-20 -39 1622 1 c1526 0 1756 4 1501 26 -71 6 -72 7 -51 22 38 27 158 20 248 -14 60 -22 96 -29 180 -32 l104 -4 -55 58 c-96 101 -136 170 -211 363 -84 215 -92 283 -53 510 19 109 27 437 14 548 -55 482 -42 527 233 790 104 100 140 178 104 227 -14 19 -72 24 -138 10 -26 -6 -30 -4 -21 5 26 27 126 30 186 5 17 -7 18 1 11 146 -5 116 -2 180 9 259 30 200 32 289 9 367 -17 54 -30 77 -64 108 -135 127 -154 160 -179 299 l-11 66 -34 0 c-27 0 -34 -4 -34 -20 0 -11 5 -20 11 -20 24 0 -14 -30 -52 -42 -22 -6 -38 -16 -36 -22 2 -6 25 -23 52 -39 55 -32 66 -44 95 -104 26 -55 26 -107 0 -133 -11 -11 -24 -20 -30 -20 -17 0 -11 -30 17 -78 21 -36 23 -43 8 -32 -24 20 -75 90 -75 104 0 7 16 18 35 25 23 8 37 21 41 36 14 56 -45 149 -114 182 -54 26 -161 131 -189 187 -31 61 -36 149 -11 188 10 15 38 34 65 44 26 9 52 21 58 26 25 23 -350 341 -439 372 -56 19 -209 49 -276 53 -45 3 -62 -1 -95 -22z m310 -494 c22 -12 31 -26 33 -49 l3 -32 -53 0 c-29 1 -80 7 -113 15 -129 31 -223 11 -353 -75 -41 -28 -77 -48 -80 -46 -9 10 96 110 139 131 146 74 345 100 424 56z m159 -174 c51 -59 56 -81 12 -52 -27 18 -86 92 -86 108 0 18 25 -1 74 -56z m-232 -55 c9 -9 6 -13 -12 -20 -19 -7 -12 -11 46 -27 91 -24 104 -31 104 -60 0 -30 -30 -50 -89 -59 -24 -4 -56 -13 -71 -21 -15 -8 -55 -19 -90 -24 -34 -6 -81 -20 -103 -32 -37 -19 -42 -19 -53 -5 -10 15 -15 15 -47 1 -41 -17 -75 -19 -97 -5 -11 7 -9 11 14 20 22 8 26 13 17 23 -8 11 -2 17 26 31 20 9 59 36 87 60 75 62 101 76 169 91 l62 13 -48 1 c-58 1 -129 -30 -217 -95 -67 -49 -75 -53 -61 -25 16 28 137 122 179 138 44 16 166 13 184 -5z m369 -78 c12 -14 11 -16 -5 -13 -11 2 -21 10 -24 17 -5 17 13 15 29 -4z m355 -210 c8 -33 -10 -53 -34 -38 -18 12 -27 46 -18 70 8 22 44 0 52 -32z m-176 -7 c0 -31 -35 -67 -65 -67 -34 0 -32 24 4 61 36 35 61 38 61 6z m-135 -40 c0 -37 4 -43 33 -57 37 -18 33 -30 -9 -30 -49 0 -72 55 -49 116 14 35 25 22 25 -29z m235 -97 c7 -18 22 -33 36 -36 29 -8 22 -24 -11 -24 -29 0 -55 34 -55 73 0 34 13 29 30 -13z m192 -107 c8 -10 28 -42 43 -71 17 -30 43 -61 62 -73 24 -15 33 -27 31 -43 -3 -18 -9 -21 -43 -19 -133 8 -204 6 -240 -6 -47 -15 -198 -81 -269 -118 -47 -24 -50 -24 -63 -7 -26 35 -8 64 41 64 52 0 147 52 198 109 39 43 51 51 71 46 13 -4 41 1 62 9 50 21 60 20 73 -9 6 -14 27 -33 47 -42 36 -17 57 -12 40 11 -6 7 -27 38 -48 69 -37 56 -67 72 -83 46 -4 -8 -27 -9 -66 -5 -45 4 -65 2 -84 -10 -21 -15 -24 -15 -24 -1 0 9 12 25 26 36 20 16 35 19 72 15 26 -3 58 -1 72 5 38 15 65 13 82 -6z m-321 -161 c-12 -23 -50 -56 -56 -50 -3 3 6 20 20 37 29 34 52 43 36 13z m419 -91 c0 -23 -55 -50 -123 -61 -39 -7 -101 -23 -137 -37 -61 -23 -110 -24 -110 -3 0 5 8 11 18 14 9 2 62 17 117 32 55 14 127 34 160 44 74 22 75 22 75 11z m-290 -505 c0 -5 -72 -51 -93 -59 -34 -13 -14 27 23 45 32 16 70 23 70 14z m-1013 -627 c101 -235 255 -620 302 -754 91 -259 -14 -28 -137 300 -33 88 -96 239 -140 336 -67 146 -112 263 -112 288 0 21 30 -38 87 -170z m545 -1387 c14 -96 18 -162 14 -222 -3 -47 -1 -92 4 -100 17 -27 64 36 140 185 78 155 84 147 10 -15 -85 -187 -121 -237 -157 -214 -16 10 -18 31 -19 180 0 166 -11 254 -39 335 -21 58 -18 71 6 26 12 -23 28 -92 41 -175z m-1267 129 c119 -7 153 -15 400 -84 149 -42 302 -83 340 -92 39 -9 86 -27 106 -40 33 -21 179 -177 179 -190 0 -3 -7 -5 -16 -5 -9 0 -51 33 -93 74 -42 40 -95 83 -118 95 -26 13 -112 33 -220 52 -98 16 -266 52 -373 79 -107 26 -242 56 -300 65 -148 24 -154 25 -144 35 22 20 60 22 239 11z" id="189"/>
<path d="M5420 3639 c0 -6 8 -18 17 -25 16 -11 16 -13 -8 -24 -20 -9 -32 -9 -48 -1 -23 13 -28 2 -9 -17 17 -17 64 -15 83 4 23 24 16 68 -12 72 -13 2 -23 -2 -23 -9z" id="190"/>
<path d="M5513 3608 l0 -44 49 15 c26 8 48 18 48 21 0 14 -38 40 -66 46 -30 6 -31 5 -31 -38z" id="191"/>
<path d="M5310 3545 c-17 -20 -6 -31 21 -19 18 8 19 11 6 22 -11 10 -17 9 -27 -3z" id="192"/>
<path d="M6237 3035 c-50 -14 -77 -30 -77 -47 0 -6 8 -7 18 -3 9 4 45 14 80 22 38 9 62 19 59 26 -5 17 -25 17 -80 2z" id="193"/>
<path d="M1576 4381 c-3 -4 3 -60 14 -123 53 -318 171 -746 243 -883 61 -117 263 -290 385 -330 178 -58 707 -182 856 -200 46 -6 56 -5 56 8 0 8 -6 19 -13 25 -15 12 -281 72 -482 108 -263 47 -395 91 -535 180 -193 122 -270 257 -379 666 -28 101 -53 209 -56 239 -9 72 -54 278 -66 301 -11 20 -15 22 -23 9z" id="194"/>
<path d="M6117 4376 c-4 -10 -7 -26 -7 -37 0 -10 -9 -46 -21 -79 -25 -73 -23 -114 7 -118 18 -3 25 5 38 44 19 56 20 137 2 179 -10 25 -13 27 -19 11z" id="195"/>
<path d="M1643 4364 c-15 -39 125 -638 184 -789 42 -105 108 -223 157 -281 30 -35 166 -124 272 -177 56 -29 267 -86 379 -103 61 -9 185 -34 276 -55 91 -21 173 -39 182 -39 12 0 17 8 17 29 l0 28 -93 11 c-104 12 -227 58 -227 86 0 8 11 32 25 52 14 20 23 40 20 43 -2 4 -30 13 -62 20 -182 41 -312 99 -428 193 -74 59 -82 63 -147 69 -115 13 -193 68 -233 163 -23 55 -8 68 90 74 50 3 75 9 72 16 -11 30 -79 244 -109 341 -24 80 -34 137 -38 209 l-5 99 -115 3 c-63 1 -137 7 -163 12 -38 8 -50 7 -54 -4z" id="196"/>
<path d="M4564 4310 c-22 -17 -66 -53 -99 -81 -33 -27 -93 -67 -134 -87 -68 -34 -82 -37 -155 -37 -45 0 -114 8 -154 18 -140 33 -334 27 -428 -14 -51 -21 -54 -32 -18 -56 25 -16 28 -16 70 8 l45 24 25 -33 c30 -38 40 -39 101 -11 75 34 178 51 278 46 106 -5 157 -23 238 -84 33 -23 69 -43 82 -43 25 0 83 58 109 108 9 17 25 65 37 109 12 43 30 95 40 115 25 48 11 55 -37 18z" id="197"/>
<path d="M2288 4200 c-95 -95 -119 -125 -128 -161 -15 -52 -18 -162 -6 -204 7 -29 9 -27 36 47 30 81 91 171 156 228 61 53 52 17 -17 -67 -34 -43 -73 -102 -87 -131 -24 -54 -42 -172 -26 -172 5 0 34 22 65 48 31 26 79 64 105 85 112 86 129 168 71 341 -18 55 -37 100 -42 101 -6 1 -63 -51 -127 -115z" id="198"/>
<path d="M3490 4254 c-16 -42 -24 -134 -12 -134 10 0 52 120 52 149 0 22 -31 11 -40 -15z" id="199"/>
<path d="M2530 4078 c-1 -88 -24 -133 -106 -204 -140 -122 -194 -177 -194 -198 0 -41 101 -179 175 -239 80 -64 247 -148 372 -187 l103 -31 55 48 c48 42 55 53 55 85 0 33 -3 38 -27 44 -58 13 -63 16 -63 39 0 13 4 34 9 48 12 31 3 44 -55 76 -62 33 -179 180 -159 199 10 11 127 53 190 69 33 9 67 18 75 20 8 2 -28 25 -80 51 -109 54 -195 111 -287 189 l-63 54 0 -63z" id="200"/>
<path d="M3377 4079 c-21 -5 -63 -25 -93 -45 -46 -31 -60 -47 -94 -117 -22 -45 -47 -111 -56 -147 -16 -60 -16 -68 -1 -103 16 -37 41 -56 55 -42 4 3 9 41 12 83 5 70 7 77 28 80 17 3 22 10 22 31 0 25 21 51 72 90 30 22 144 -20 211 -78 105 -92 125 -105 142 -91 27 22 19 95 -17 164 -71 133 -179 200 -281 175z" id="201"/>
<path d="M3970 4055 c-100 -23 -170 -47 -193 -66 l-22 -18 28 -1 c15 0 46 9 69 21 36 18 55 21 137 17 96 -4 96 -4 213 -66 167 -89 281 -110 376 -70 24 11 18 12 -58 18 -95 8 -126 21 -197 82 -100 86 -216 114 -353 83z" id="202"/>
<path d="M3653 4013 c-6 -16 43 -119 75 -155 15 -18 62 -25 62 -10 0 4 -16 32 -35 62 -19 30 -35 59 -35 65 0 14 -38 55 -51 55 -5 0 -13 -8 -16 -17z" id="203"/>
<path d="M6098 3955 c-49 -26 -88 -67 -88 -94 0 -10 6 -26 14 -36 14 -19 16 -18 76 13 60 30 109 39 144 26 32 -12 14 -24 -37 -24 -31 0 -61 -6 -73 -15 -18 -13 -16 -14 21 -15 22 0 64 -3 93 -6 49 -6 52 -6 52 16 0 80 -62 160 -123 160 -18 -1 -53 -12 -79 -25z" id="204"/>
<path d="M3860 3953 c-30 -12 -58 -45 -53 -63 3 -10 16 -28 29 -41 23 -22 23 -22 86 -4 72 20 190 23 243 5 20 -7 38 -10 40 -8 2 1 -40 28 -93 58 -89 51 -102 55 -167 57 -38 1 -77 0 -85 -4z" id="205"/>
<path d="M3049 3904 c-7 -9 -16 -59 -20 -117 -4 -56 -15 -131 -23 -167 -20 -84 -20 -144 0 -164 8 -9 20 -13 26 -10 9 6 8 23 -8 87 -5 22 3 46 35 107 22 43 41 93 41 110 0 17 9 58 20 91 11 33 18 64 15 70 -10 15 -71 10 -86 -7z" id="206"/>
<path d="M3317 3862 c-39 -45 -45 -92 -13 -92 14 0 56 67 56 89 0 17 -28 20 -43 3z" id="207"/>
<path d="M4595 3827 c-74 -38 -86 -40 -160 -40 -48 0 -97 7 -124 17 -69 26 -69 19 5 -36 38 -28 92 -73 121 -100 28 -26 61 -48 73 -48 35 0 85 26 113 59 29 35 60 127 55 165 l-3 24 -80 -41z" id="208"/>
<path d="M3373 3805 c-24 -48 -25 -57 -13 -65 8 -5 18 -10 21 -10 9 0 31 51 39 93 11 57 -15 47 -47 -18z" id="209"/>
<path d="M3960 3831 c-58 -12 -82 -29 -74 -54 7 -26 41 -64 68 -79 13 -7 32 -4 75 15 31 14 93 33 138 43 95 20 96 30 7 64 -56 20 -143 25 -214 11z" id="210"/>
<path d="M4706 3798 c-17 -105 -97 -192 -188 -204 -44 -6 -48 -9 -42 -28 19 -64 83 -88 150 -56 72 35 124 134 124 237 0 89 -32 127 -44 51z" id="211"/>
<path d="M3406 3713 c-31 -63 -56 -117 -56 -119 0 -7 65 -4 147 7 78 11 81 13 87 41 12 61 -24 128 -88 166 l-35 21 -55 -116z" id="212"/>
<path d="M2855 3797 c-44 -17 -75 -36 -75 -46 0 -16 90 -124 118 -143 39 -26 50 -23 61 19 13 46 -4 68 -63 84 -65 16 -70 19 -60 29 7 7 31 5 68 -5 32 -8 62 -13 67 -9 5 3 9 23 9 45 l0 39 -47 -1 c-27 0 -61 -6 -78 -12z" id="213"/>
<path d="M3726 3778 c-9 -12 -16 -28 -16 -36 0 -7 -11 -35 -25 -62 -30 -60 -32 -80 -5 -80 11 0 20 -6 20 -13 0 -17 -49 -85 -80 -112 -31 -27 -110 -134 -110 -150 0 -8 27 -14 88 -18 147 -9 132 -23 202 192 71 220 74 253 28 281 -44 27 -83 26 -102 -2z" id="214"/>
<path d="M6165 3770 c-4 -6 -2 -17 5 -25 9 -10 6 -15 -10 -20 -15 -5 -19 -10 -12 -17 18 -18 54 10 50 39 -3 28 -22 41 -33 23z" id="215"/>
<path d="M3240 3702 c0 -45 15 -69 51 -77 21 -5 31 -1 48 21 11 15 21 32 21 39 0 10 -92 55 -113 55 -4 0 -7 -17 -7 -38z" id="216"/>
<path d="M4131 3710 c-123 -42 -131 -56 -29 -51 44 2 98 -2 118 -8 58 -17 105 -73 146 -172 58 -139 151 -208 240 -179 45 15 51 28 17 36 -83 18 -132 45 -153 83 -5 10 -14 49 -20 86 -6 37 -19 84 -30 104 -35 70 -124 131 -190 131 -8 0 -53 -13 -99 -30z" id="217"/>
<path d="M3876 3688 c-13 -50 5 -65 39 -32 15 15 15 18 -1 35 -22 25 -30 24 -38 -3z" id="218"/>
<path d="M4790 3657 c0 -37 -45 -133 -81 -172 -40 -43 -90 -65 -148 -65 -57 0 -25 -32 49 -49 81 -18 166 27 195 103 20 51 18 167 -3 188 -9 9 -12 8 -12 -5z" id="219"/>
<path d="M2033 3652 c-41 -4 -41 -17 -3 -69 35 -48 117 -93 168 -93 l33 0 -23 43 c-24 42 -24 42 -76 39 -63 -4 -71 15 -11 24 40 7 60 27 43 43 -11 11 -89 18 -131 13z" id="220"/>
<path d="M3074 3626 c-9 -15 -17 -43 -18 -63 -2 -62 63 -92 201 -93 39 0 84 5 100 11 29 11 83 57 83 71 0 4 -46 8 -102 8 -128 0 -173 12 -214 57 l-32 35 -18 -26z" id="221"/>
<path d="M4015 3619 c-4 -6 2 -17 13 -25 11 -7 41 -43 66 -78 25 -35 52 -66 61 -69 28 -11 16 -38 -25 -54 -22 -9 -40 -21 -40 -26 0 -9 37 -52 143 -169 78 -86 260 -73 342 24 l28 33 -49 6 c-99 12 -144 53 -205 184 -51 111 -82 153 -125 171 -40 17 -200 19 -209 3z" id="222"/>
<path d="M3869 3565 c-28 -15 -43 -41 -33 -56 3 -5 31 -9 62 -9 64 0 132 -16 132 -30 0 -13 -43 -13 -107 -1 -58 11 -102 3 -117 -23 -9 -14 -6 -22 17 -41 62 -55 134 -53 235 5 l52 31 -29 42 c-50 72 -75 90 -133 94 -34 2 -62 -2 -79 -12z" id="223"/>
<path d="M3448 3505 c-24 -19 -63 -44 -87 -55 l-44 -21 27 -28 c16 -16 50 -38 76 -49 46 -19 49 -19 64 -3 9 10 16 23 16 30 0 7 23 35 50 63 54 55 60 72 31 88 -40 21 -87 12 -133 -25z" id="224"/>
<path d="M3055 3420 c-8 -16 -15 -35 -15 -43 0 -8 29 -26 66 -42 36 -15 94 -47 130 -70 100 -66 116 -71 168 -51 42 16 74 41 64 51 -2 2 -35 11 -72 19 -41 8 -77 23 -91 36 -15 14 -42 24 -70 28 -52 5 -56 25 -7 30 35 4 38 9 19 36 -13 18 -78 34 -144 35 -26 1 -35 -5 -48 -29z" id="225"/>
<path d="M4766 3358 c-7 -13 -16 -55 -19 -95 -9 -115 -57 -190 -157 -247 -49 -28 -32 -35 32 -12 93 33 166 134 189 261 16 90 -11 147 -45 93z" id="226"/>
<path d="M3980 3323 l-35 -15 47 -40 c26 -21 77 -77 114 -124 99 -125 174 -170 274 -162 l45 3 -43 14 c-64 21 -114 71 -203 202 -45 66 -89 124 -99 129 -25 14 -58 11 -100 -7z" id="227"/>
<path d="M3818 3284 c-8 -17 -30 -35 -61 -49 l-48 -21 36 -69 c61 -116 124 -204 173 -240 91 -70 218 -82 347 -34 61 22 120 57 112 66 -3 2 -35 11 -71 18 -100 21 -149 55 -223 156 -66 90 -171 180 -225 194 -23 6 -29 3 -40 -21z" id="228"/>
<path d="M4640 3245 c-58 -90 -101 -114 -222 -125 -51 -5 -102 -10 -112 -10 -17 0 -16 -4 10 -31 122 -131 335 -61 390 127 16 55 11 104 -11 104 -7 0 -32 -29 -55 -65z" id="229"/>
<path d="M2981 3259 c-19 -11 -44 -33 -55 -47 -25 -30 -65 -94 -66 -103 0 -14 60 -31 125 -36 57 -4 77 -1 105 15 45 25 69 58 77 106 l6 39 -37 -6 c-21 -3 -69 -22 -106 -42 -73 -37 -90 -42 -90 -25 0 6 39 29 88 51 81 38 86 41 68 55 -28 20 -75 17 -115 -7z" id="230"/>
<path d="M3544 3208 c19 -118 19 -178 0 -219 l-18 -41 27 -52 c38 -71 120 -171 169 -206 93 -68 273 -92 413 -55 143 37 272 128 326 230 40 75 36 74 -182 -40 -168 -87 -338 -61 -460 73 -52 57 -129 202 -151 284 -13 51 -38 68 -101 68 -29 0 -30 0 -23 -42z" id="231"/>
<path d="M3440 3180 c-24 -16 -57 -32 -71 -35 -15 -4 -32 -12 -38 -18 -18 -23 -61 -165 -61 -206 0 -22 -5 -43 -10 -46 -23 -14 -20 30 10 141 17 64 29 123 26 130 -3 7 -23 22 -45 33 l-40 21 -20 -26 c-47 -60 -40 -181 19 -298 68 -136 54 -134 171 -15 143 147 149 155 149 221 0 53 -22 128 -38 128 -4 0 -27 -13 -52 -30z" id="232"/>
<path d="M4611 2966 c-50 -18 -57 -35 -43 -102 14 -67 64 -179 94 -211 48 -51 110 -7 92 65 -8 31 -15 39 -54 53 -59 22 -72 53 -42 102 12 19 22 51 22 71 0 40 -10 44 -69 22z" id="233"/>
<path d="M2556 2828 c54 -56 117 -120 140 -142 56 -56 266 -180 355 -210 76 -24 211 -56 332 -77 71 -12 194 -16 203 -6 3 3 -19 41 -49 84 -61 87 -101 163 -127 238 -9 28 -23 50 -30 50 -13 0 -49 -42 -92 -105 -22 -34 -45 -19 -70 45 -34 88 -16 80 -308 135 -85 16 -188 34 -227 39 -40 6 -95 20 -123 31 -28 11 -63 20 -77 20 -24 0 -17 -10 73 -102z" id="234"/>
<path d="M3510 2894 c0 -6 25 -61 56 -123 44 -87 68 -122 114 -164 86 -80 224 -136 335 -137 113 0 243 57 324 141 54 57 119 154 109 164 -2 2 -26 -14 -53 -36 -130 -103 -259 -149 -418 -149 -192 0 -303 64 -421 245 -25 39 -46 65 -46 59z" id="235"/>
<path d="M3447 2852 c-25 -28 -21 -62 16 -117 18 -28 50 -80 70 -116 101 -183 330 -333 530 -347 76 -5 78 -4 84 19 4 13 26 62 50 108 23 47 41 87 38 89 -3 3 -35 -4 -72 -14 -95 -27 -256 -25 -335 4 -129 47 -214 128 -288 276 -30 61 -60 111 -66 113 -6 2 -18 -5 -27 -15z" id="236"/>
<path d="M4375 2603 c-94 -110 -171 -238 -191 -315 -22 -87 -15 -228 14 -284 30 -59 68 -101 135 -151 91 -66 103 -57 31 22 -74 80 -87 115 -92 232 -7 167 34 269 162 408 31 33 56 63 56 67 0 12 -52 68 -63 68 -7 -1 -30 -22 -52 -47z" id="237"/>
<path d="M4436 2466 c-126 -135 -175 -340 -114 -472 11 -23 46 -73 79 -110 81 -95 104 -143 104 -224 0 -49 -6 -77 -25 -115 -33 -65 -71 -87 -165 -93 -67 -4 -77 -2 -134 28 -34 19 -71 45 -82 58 -12 16 -19 19 -19 10 0 -22 49 -64 105 -90 41 -19 67 -23 145 -23 87 0 101 3 161 32 102 50 125 87 170 264 48 188 43 220 -56 349 -108 142 -127 201 -98 304 39 143 13 173 -71 82z" id="238"/>
<path d="M4560 2383 c-12 -64 -11 -73 8 -114 11 -24 52 -79 91 -123 88 -98 106 -141 98 -238 -4 -40 -9 -86 -13 -103 -6 -26 -5 -28 8 -17 9 7 26 36 38 64 19 43 22 65 18 129 -4 69 -11 90 -66 205 -34 71 -66 152 -72 181 -9 42 -16 53 -38 61 -15 6 -34 13 -43 17 -14 5 -19 -5 -29 -62z" id="239"/>
<path d="M4425 1677 c-48 -73 -121 -93 -219 -58 -32 11 -67 28 -77 37 -53 48 -24 -60 31 -120 l39 -41 88 -3 c97 -3 123 5 157 51 15 20 20 43 21 87 0 73 -13 89 -40 47z" id="240"/>
</g>
</svg>