<?xml version="1.0" ?><!-- Generator: Adobe Illustrator 22.0.1, SVG Export Plug-In . SVG Version: 6.00 Build 0)  --><svg height="850.000000pt" id="图层_1" version="1.1" viewBox="0 0 850.000000 850.000000" width="850.000000pt" xml:space="preserve" xmlns="http://www.w3.org/2000/svg" xmlns:xlink="http://www.w3.org/1999/xlink">
<g fill="#ffffff" stroke="none" transform="scale(0.100000,0.100000)">
	<path d="M5343.2,4545.5c-9.1-19.3-20.8-37.9-39.8-48.8c-4.7-2.7-6.6-3.5-12-5.4c-4.9-1.7-9.9-3.1-14.9-4.2   c-10.5-2.3-21.3-3.4-32-3.9c-20.9-1-38.9,0.3-60.5,0.7c-24.8,0.6-49.9,1.7-75,5.4c-82.4,12.1-162.2,45.4-226.5,98.5   c3.4,8.3,6,17,7.7,25.8c5.3,28,5.1,57.6-1.2,85.5c-2.3,10.1-5.3,19.8-9.1,29.2c3.6,4.1,7.2,8.2,10.7,12.4   c16.1,18.8,32.1,37.9,49.9,55.2c18,17.4,37.4,33.4,57.8,47.9c41.4,29.4,87.1,53,134.7,70.9c26.1,9.8,53,17.6,80.6,21.8   c13.7,2,26.1,3.1,39.1,2.5c6.3-0.3,12.4-0.8,18.6-2.1c1.2-0.4,2.4-0.8,3.5-1.3c1.2-0.5,2.4-1,3.6-1.5c0,0,0.1,0,0.1,0   c0.2-0.1,0.7-0.4,1.1-0.6c1.7-1.1,4.7-3.2,6-4c0,0,0,0,0.1,0c1-0.9,2-1.7,3-2.7c0,0,0.1-0.1,0.1-0.1c-0.5,0.4-0.4,0.1,1.7-1.7   c1.4-1.7,2.8-3.7,4.3-5.3c0.2-0.3,0.3-0.5,0.5-0.8c0.7-1.1,1.5-2.3,2.2-3.5c0.6-0.9,1.1-2.4,1.8-3.3c1.1-2.4,2.2-4.9,3.1-7.4   c0,0,0.1-0.3,0.3-0.6c0.1-0.2,0.1-0.4,0.2-0.8c0.1-0.4,0.2-0.8,0.4-1.3c0.8-2.9,1.4-5.9,1.9-8.9c0.1-0.7,0.4-4.1,0.3-2   c0.1-0.8,0.1-1.6,0.1-2.4c0.2-5.5-0.5-10.9-1.3-16.4c-1.1-7.3-2.1-12.3-3.7-19.2c-1.6-6.8-3.3-13.6-5-20.3   c-7-28.1-13.4-56.3-8.8-85.3c5.1-32.3,24.8-57.9,45.7-81.9c4.1-4.7,9.3-9.6,12.7-15c0.4-0.8,1-1.9,1.3-2.3c0.6-0.9,1.2-1.9,1.8-2.8   c0.7-1.2,1.4-2.4,2.1-3.6c0-0.1,0.1-0.2,0.1-0.4c1.2-2.9,3.4-6.3,3.8-9.4c0,0,0,0,0,0c0.1-0.3,0.1-0.5,0.2-0.7   c0.4-1.4,0.8-2.8,1.1-4.2c0.7-2.8,1.2-5.7,1.7-8.6c0.1-1,0.3-1.9,0.4-2.9c-0.5,3.9,0.1-0.9,0.1-1.4   C5359.1,4589.8,5353.8,4568.1,5343.2,4545.5z" id="1" style="fill:#FFFFFF;"/>
	<path d="M5288.4,4926.6c0.3-0.2,0.8-0.6,1.1-1.1c0.1-0.1,0.1-0.2,0.2-0.2   C5289.3,4925.7,5288.8,4926.2,5288.4,4926.6z" id="2" style="fill:#FFFFFF;"/>
	<path d="M5302.8,4902.2c-0.2,0.7-0.4,1.2-0.5,1.6C5302.5,4903.1,5302.8,4902.3,5302.8,4902.2z" id="3" style="fill:#FFFFFF;"/>
	<path d="M5278,4934.1c0,0,0.3-0.1,0.8-0.4c-0.2,0.1-0.4,0.2-0.7,0.3C5278.1,4934,5278,4934,5278,4934.1z" id="4" style="fill:#FFFFFF;"/>
	<path d="M4889.9,4512.1c0.2-0.3,0.4-0.6,0.6-0.9C4890,4511.3,4884.1,4521.8,4889.9,4512.1z" id="5" style="fill:#FFFFFF;"/>
	<path d="M4156.1,4763.2c0-0.1,0-0.1,0.1-0.1c0,0,0,0,0,0C4156.1,4763.1,4156.1,4763.2,4156.1,4763.2z" id="6" style="fill:#FFFFFF;"/>
	<path d="M4818.6,4780.8c0.1-0.1,0.3-0.1,0.4-0.2c0-0.2-0.1-0.4-0.1-0.6c-0.1-1.6-0.2-3.3-0.3-4.9   c-0.1,0.3-0.3,0.5-0.4,0.8c-1.9-5.5,1.8-12.5,4.1-17.4c3.9-8,9.9-15.2,16.2-21.4c0.8-0.8,2-1.9,3.4-3.1c1.9-11.9,2.6-23.9,2.2-36.1   c-1.7-27.9-8.9-56.6-23.3-80.8c-7.6-11.6-16.7-21.5-29.4-27.4c-17.7-6.3-36.9-6.2-55.2-10c-22.5-4.6-44-12.8-67.3-11.6   c-7.2,0.9-14,2.7-20.9,5c-0.4,0.2-0.8,0.3-1.2,0.5c-1.9,0.8-3.8,1.8-5.7,2.7c-1.9,1-3.7,2-5.6,3c-0.3,0.2-0.6,0.4-1,0.6   c-4.3,3.3-3.4,2.4-1.6,1.1c-2.6,1.8-5.3,3.6-7.9,5.5c-1.3,1-2.6,2-3.9,3.1c-0.1,0.1-0.2,0.2-0.3,0.3c-3.3,2.9-6.4,5.8-9.5,8.8   c-2.2,2.1-9.6,10.1-7.1,7.3c-4.6,5.1-9.1,10.3-13.4,15.7c-1,1.4-2,2.8-2.9,4.2c-1.2,1.8-2.4,3.7-3.6,5.5c-1.9,3.7-3.5,7.5-5.4,11.2   c0.5-1,0.9-1.8,1.3-2.5c0.9-2,1.7-3.4,0,0c-0.4,0.9-0.8,1.9-1.1,2.6c-0.7,2-1.3,4.1-1.8,6.2c-0.1,0.4-0.2,0.9-0.3,1.3   c-0.2,2.1-0.6,4.2-0.7,6.3c-0.2,3.2-0.2,6.4-0.1,9.6c1.9,13.6,7.3,26.1,14.4,37.8c23.1,34.7,57.1,62.8,95.2,79.4   c24.3,9.7,50.1,14.1,76.2,12.2c13-1.6,25.2-5.1,37.8-8.5C4806.4,4785.7,4812.5,4783.4,4818.6,4780.8z" id="7" style="fill:#FFFFFF;"/>
	<path d="M4140.1,7572.8c0.1-0.2,0.1-0.4,0.1-0.6c1.3-5.4,2.7-10.8,3.9-16.2c4.9-22.3,8.1-45,9.8-67.8   c0.2-2.4,0.3-4.8,0.5-7.3c0-0.7,0.2-4.7,0.2-5.8c0.2-5.9,0.3-11.8,0.3-17.6c0-10.5-0.3-21.1-0.8-31.6c-1.3-23.8-3.9-47.5-8-71   c-4.1-24-8.2-41.9-15-64.2c-13.6-44.8-33.2-86.1-57.1-126.2c-28.2-47.4-56.8-94.5-84.3-142.3c-54.2-94.4-103.9-191.9-136.1-296.1   c-33.1-107-50.5-218.8-54.2-330.6c-1.8-55.1,0-110.2,2.6-165.3c2.6-56,6.1-112.3,15-167.7c8.9-55.7,24.4-110.2,34.8-165.7   c2.2-11.9,4.5-23.8,6.8-35.8c-7.3,5.8-14.6,11.6-22,17.2c-3.9,3-7.9,6-11.8,9c-2.1,1.6-4.2,3.4-6.4,5c9.1-6.5,0.6-0.4-2.9,2.4   c-0.5,0.5-1,1-1.4,1.3c-1.7,1.4-3.4,2.9-5,4.4c-5.8,5-11.9,9.4-18,14c-3.3,2.5-6.5,5-9.8,7.5c-0.2,0.1-0.3,0.2-0.5,0.4   c-1.4,1.1-2.8,2.2-4.1,3.3c-7.6,6.1-15.1,12.2-22.5,18.5c-14.2,11.9-28,24.2-41.5,36.9c-6.4,6-12.7,12.2-19,18.4   c-2.5,2.5-4.9,5-7.4,7.5c12.5-12.4,0.8-0.7-1.8,2c-11.3,12.1-22.1,24.7-32.9,37.3c-10.5,12.3-20.6,24.9-30.2,37.9   c-0.3,0.4-0.8,1.2-1.4,2c-0.2,0.3-0.4,0.6-0.5,0.8c-2,2.9-4,5.8-5.9,8.7c-4.9,7.3-9.7,14.8-14.3,22.3   c-9.1,14.9-17.7,30.2-25.7,45.7c-1.3,2.5-2.6,5-3.9,7.6c-0.2,0.5-1,2.1-1.7,3.4c-0.1,0.1-0.1,0.2-0.2,0.3c-0.8,1.7-1.6,3.4-2.4,5.1   c-3.7,7.7-7.2,15.4-10.7,23.2c-14.7,32.9-27.8,66.5-40.9,100c-6.6,16.9-13.3,33.8-19.4,51c-3.1,8.6-6,17.3-8.7,26   c-1.3,4.1-2.6,8.3-3.8,12.4c-0.5,1.8-1.1,3.7-1.6,5.5c-0.1,0.3-0.3,1.2-0.6,2.2c2-6.9-0.7,2.8-1.1,4.3c-0.6,2.3-1.2,4.6-1.7,7   c-1,4.2-2,8.4-2.9,12.6c-1.9,8.4-3.6,16.9-5.1,25.4c-3.1,17.5-5.4,35.2-6.9,53c-0.4,5.2-0.8,10.4-1,15.7c0,0.5-0.1,1.1-0.2,1.7   c0,1,0,2,0,2.9c-0.2,8.3-0.2,16.6-0.1,24.9c0.3,17.5,1.4,34.9,3.3,52.3c3.5,32.8,9.6,65.3,17.9,97.2   c15.8,57.4,38.2,112.9,65.4,165.9c22.6,44,48.3,86.3,76.7,126.8c26.6,37.8,54,75,79,113.8c12.5,19.3,25,39,35.2,59.7   c10.2,20.6,18.8,42.6,26.1,64.4c7.7,23,13.4,46.9,16.3,71c1.7,13.6,3.1,27.9,0.7,41.5c-2,11.8-5.1,23.4-8.5,34.9   c-4.9,16.6-18,32.3-32.8,41.2c-4.6,2.8-10.7,6.1-16.3,5c-6.5-1.2-7.4-6.3-7.9-11.9c-1.5-16-5.3-31.6-7.1-47.6   c-0.7-6.5-1.7-12.9-2.9-19.3c-0.2-1.1-0.4-2.3-0.7-3.4c-0.7-0.5-1.9-7.9-2.1-8.8c-3.2-12.6-7.3-24.9-11.9-37   c-3.5-9-7.4-17.6-11.6-26.1c-1.1,0.4-2.1,0.5-3.1,0.5c-120.8-4.7-239-23.3-342.9-89.3c-115.2-73.2-179.1-190.3-214.3-319.2   c-41.5-151.9-41.4-312.5-21.6-467.7c40.8-320.5,180.5-620.2,219.1-941.2c20.5-170.3,26.6-343.2,9.4-514.1   c-15.9-158.1-50.6-318.2-118.9-462.5c-118.3-250.1-340.8-424.9-597.6-518.8c-276.4-101.1-580.4-106.3-863.8-31   c-140,37.2-275.5,93.9-400.4,167.1c-61.6,36-122.4,76.4-177.6,119.8c-27.3,21.5-53.8,44-79.5,67.4c-24.5,22.4-49.1,46.5-69,67.7   c-180.8,192.7-306.1,438.1-334.2,706.7c-28.5,272.3,55.6,557.4,236.6,764.1c90.1,102.9,202.5,188.2,328.5,242   c136.9,58.5,286.4,79.1,434.3,65.5c88.6-8.1,175.9-27.5,260.2-56c0-0.1,0-0.1,0.1-0.2c0-0.2,0.1-0.3,0.1-0.5   c0.4-1.6,0.8-3.2,1.2-4.9c0.6-2.8,1-5.6,1.4-8.5c0-0.4,0.1-1,0.1-1.3c0-0.9,0.1-1.9,0.1-2.8c0-1.9,0-3.7,0-5.6   c-0.1-4-0.4-8.1-1-12.1c-1.7-12.8-5.6-25.6-11-38c-4.9-11.4-11.1-22.3-18.3-32.4c0-0.1-0.1-0.1-0.1-0.2c-0.1-0.1-0.2-0.2-0.3-0.4   c-0.4-0.6-0.9-1.1-1.3-1.7c-0.9-1.1-1.8-2.3-2.7-3.4c-1.8-2.2-3.6-4.4-5.5-6.6c-4.1-4.7-8.5-9.2-13-13.4   c-9.1-8.5-19-16.2-29.6-22.8c-10.8-6.8-19.4-11.1-30.9-15.6c-11.4-4.4-23.2-7.6-35.2-9.7c-6.1-1-12.3-1.8-18.5-2   c-0.9,0-1.7-0.1-2.6-0.1c0,0,0,0-0.1,0c-1.7,0-3.4,0-5,0c-2.9,0.1-5.8,0.2-8.6,0.4c-9.5,0.7-10.8-7.8-8.5-15.1   c3.1-9.7,11.2-19.4,20.8-23.3c1.8-0.7,3.6-1.5,5.4-2.3c1.3-0.6,3.4-2.2,4.9-2.5c0,0,0.1,0,0.1,0c0.7-0.4,1.3-0.8,2-1.1   c1.5-0.9,2.9-1.8,4.3-2.7c1.6-1.1,3.2-2.1,4.8-3.3c0.3-0.2,0.5-0.3,0.7-0.5c2.8-2.3,5.5-4.6,8.1-7c0.4-0.4,1.5-1.5,2.3-2.3   c0.7-0.7,1.5-1.6,1.8-1.9c2.4-2.7,4.7-5.5,6.9-8.5c0,0,0.1-0.1,0.1-0.1c0.1-0.2,0.2-0.3,0.4-0.6c1-1.4,1.9-2.8,2.8-4.3   c1.9-3,3.5-6.2,5.3-9.2c0.2-0.5,0.5-1,0.7-1.4c0.7-1.5,1.4-3.1,2.1-4.7c1.1-2.7,2.2-5.4,3.1-8.2c0,0.1,0.6-1.8,0.8-2.4   c0.1-0.3,0.2-0.7,0.2-0.7c0.4-1.4,0.8-2.8,1.1-4.2c0.7-3.1,1.4-6.2,1.9-9.3c0.6-3.4,1-6.8,1.3-10.2c0-0.3,0.1-0.6,0.1-0.9   c0-0.4,0.1-1,0.1-1.3c0-1.6,0.1-3.1,0.1-4.7c0.1-7-0.3-13.9-1.3-20.9c-0.3-2-0.6-4.1-1-6.1c-0.1-0.8-0.3-1.5-0.4-2.3   c0,0-0.1-0.6-0.2-1c-0.1-0.4-0.2-1-0.2-1c-0.2-1-0.5-2-0.8-3c-0.4-1.5-0.8-3-1.2-4.5c-2-6.7-4.4-13.3-7.3-19.7   c-2.9-6.4-6.1-12.6-9.8-18.5c-1.9-3-3.8-6-5.9-8.8c0,0.1-1.5-2-1.8-2.3c-1.1-1.4-2.3-2.8-3.4-4.2c-18.3-21.7-41.5-36.6-67.3-45.7   c-11-3.9-22.4-6.6-34-8c-14.1,4.2-28.6,7.5-43.4,9.8c-139.7,22.5-268.2-52.5-352.9-159c-46.2-58.1-82.9-121.4-95.7-195.2   c-12.8-73.7-4.7-150.9,9.7-223.8c26-131.3,79.6-258.2,152.1-370.5c74.1-114.7,169.9-218.6,286.4-291.1   c125.5-78.2,276.4-115.2,423.9-104.7c147.7,10.6,287.8,79.8,409.4,161.1c228.4,152.6,386.8,395.1,420.2,669.6   c21.4,176.1-10.2,353.2-40.2,526.3c-15.2,87.9-32.8,175.5-55,261.9c-21.8,84.6-49,167.8-73.7,251.6   c-24.4,82.8-47.1,166.7-59.9,252.1c-13,86.6-15.9,174.6-9.1,261.9c11.9,151.9,53.9,301.8,120.8,438.7   c113.5,232.2,301.2,424,526.1,550.1c224.2,125.7,483.2,183.6,739.5,166.4c3.1-42.9,16.6-84.4,33.1-124.2   c9.9-23.9,20.7-47.4,30.2-71.4c5.1-12.8,9.8-25.7,13.9-38.8c0.3-0.9,0.5-1.8,0.8-2.7C4138.9,7576.7,4139,7576.3,4140.1,7572.8z" id="8" style="fill:#FFFFFF;"/>
	<path d="M5279.2,4933.4c-0.2,0.1-0.3,0.2-0.4,0.3C5280.5,4932.8,5280,4933,5279.2,4933.4z" id="9" style="fill:#FFFFFF;"/>
	<path d="M4544,4599.1c-37.8-86.5-102.5-163.6-187.4-206.8c-43.8-22.3-95.5-35.2-144.5-25.7   c-5.9,1.1-11.8,2.6-17.6,4.5c-5.2,1.7-8.2,2.8-13.6,5.4c-2.7,1.3-5.3,2.7-8,4.1c-0.3,0.2-0.6,0.3-0.8,0.4c-0.2,0.1-0.4,0.3-0.7,0.5   c-0.8,0.5-1.7,1.1-2.5,1.6c-2.2,1.5-4.2,3-6.3,4.6c-0.2,0.2-0.4,0.4-0.6,0.5c-1.1,1-2.1,2-3.2,3c-0.2,0.2-0.4,0.4-0.6,0.6   c-0.3,0.3-0.6,0.6-0.8,0.9c-0.6,0.7-1.2,1.5-1.9,2.3c-0.1,0.1-0.2,0.2-0.3,0.3c0,0.1-0.1,0.1-0.1,0.2c-0.8,1.2-1.6,2.5-2.4,3.7   c-0.1,0.1-0.2,0.2-0.2,0.4c-0.7,1.3-1.4,2.7-2,4c0,0-1.2,2.9-1.4,3.1c-0.4,1-0.7,2.1-1.1,3.1c-3.8,11.6-4.9,23.3-4.9,35.8   c0,26.5,5.3,53.2,14,78.2c4.4,12.6,10.3,24.5,15.4,36.8c4.7,11.4,8.4,23.2,10.9,35.3c5.1,25.4,5,51.3,1.5,76.9   c-3.6,26.7-13.9,51.4-23.5,76.3c-1.2,3.1-2.4,6.2-3.5,9.3c-0.4,1-0.7,2.1-1.1,3.1c0-0.1-0.1,0.3-0.5,1.4c0,0.1-0.1,0.2-0.1,0.2   c-1.9,5.8-3.6,11.5-5.1,17.4c-0.8,3.2-1.5,6.5-2,9.7c-0.3,1.6-0.5,3.3-0.8,4.9c-0.1,0.5-0.1,0.9-0.2,1.1c0,0.3,0,0.7-0.1,1.2   c-0.4,6.2-0.6,12.3,0,18.4c2.1,22.5,13.9,41,31.6,54.6c18.2,13.9,40.2,20.7,63.9,21.8c12.7,0.6,26.4-1,39.2-3.3   c14.7-2.7,24.6-5.5,38.3-10.1c11-3.7,21.8-7.7,32.5-12.3c5.8-2.5,11.6-5.1,17.3-7.8c2.4-1.1,4.7-2.3,7.1-3.5   c1.4-0.7,2.8-1.4,4.2-2.1c3.1-1.6,0.6-0.3-0.3,0.1c21.2-10.2,40.8-24.1,59.8-37.7c2.6-1.8,5.1-3.7,7.6-5.6c0.3-0.3,0.6-0.5,0.8-0.6   c0.2-0.2,0.5-0.4,0.8-0.6c1.2-1,2.5-1.9,3.7-2.9c4.3-3.4,8.6-6.9,12.8-10.5c9-7.7,17.6-15.7,25.9-24.1c0.5-0.5,5.1-5.1,2.3-2.3   c-2.8,2.8,0.9-0.9,1.2-1.3c3-3.2,6.1-6.1,9.3-9c0.9-0.9,1.8-1.8,2.8-2.6c0.6-0.5,0.9-0.8,1.1-0.9c1.6-1.7,3.2-3.5,4.8-5.2   c4.2-4.6,8.1-9.4,12.2-14.1c-14.6-39.9,2.3-82.7,25.5-115.9C4549.7,4613.1,4547,4606.1,4544,4599.1z" id="10" style="fill:#FFFFFF;"/>
	<path d="M5291.2,4923.9c-0.4,0.4-0.8,0.7-1.1,1c-0.1,0.1-0.2,0.3-0.3,0.4   C5290.2,4924.8,5290.7,4924.3,5291.2,4923.9z" id="11" style="fill:#FFFFFF;"/>
	<path d="M4156.1,4763.1c0.2-0.5,0.3-0.9,0.5-1.4C4156.6,4761.7,4156.3,4762.6,4156.1,4763.1z" id="12" style="fill:#FFFFFF;"/>
	<path d="M1774.9,5581c30.2,12.6,54.9,32.7,73.3,59.7c17.4,25.5,27.4,56.8,27.6,87.7   c0.3,44.9-20.3,89.3-52.6,121c16.1,2.7,31.9,7.4,46.9,14.2c49.8,22.6,91.5,64.7,107.8,117.6c5.4,17.5,8.3,35.7,6.8,54   c-0.6,6.9-1.8,13.6-3.6,20.2c48.9-18.3,96.7-39.7,143-63.7c64.5-33.5,129.1-71.6,184.6-118.8c50.5-42.9,90.7-89,123.6-146   c64.5-111.4,78.3-249,35.6-372.9c-42.4-122.9-141.2-258.5-278.1-280.6c-29.1-4.7-61.1-3.8-88.7,7.4c-12.1,4.9-15.6,7.6-24,15.5   c-0.2,0.2-0.4,0.5-0.6,0.8c-1.8,2.2-3.7,4.4-5.4,6.6c1.1-1.1-5.9,9.7-6.6,11.1c-2.2,3.9-3.9,7.8-7.2,15.9   c-1.9,4.7-3.8,9.6-5.5,14.4c-6.2,18.2-10.7,37.1-16.1,55.7c-10.9,38.1-22.2,76.2-36.6,113.1c-42.4,108.7-122.5,210.8-227.1,266   C1772.9,5580.2,1773.9,5580.6,1774.9,5581z" id="13" style="fill:#FFFFFF;"/>
	<path d="M1321.4,3977.8c10,3.3,19.7,7.8,29.9,10.5c8.4,2.3,17.1,3.4,25.8,3.6c10.6-0.4,21-2.1,31.2-4.9   c22.4-11.8,45-23.2,67.9-34.1c1.8-2.7,3.6-5.3,5.3-8.1c-0.1,0.2-0.3,0.5-0.4,0.7c2.8-4.4,5.9-8.5,9.2-12.7c0.9-1.1,1.8-2.3,2.7-3.4   c0,0,0,0,0-0.1c0.1-0.1,0.1-0.2,0.2-0.2c0.9-1.2,1.7-2.3,2.5-3.5c1.7-2.4,3.3-4.7,4.9-7.1c2.8-4.2,5.4-8.4,8-12.7   c0.5-0.9,1-1.7,1.4-2.6c1.3-2.5,2.6-4.9,3.8-7.4c1.3-2.6,2.5-5.3,3.7-8c0.5-1.1,0.9-2.1,1.4-3.2c-0.2,0.5-0.4,1-0.6,1.4   c-0.8,2.1-2.8,6.3,0,0c0-0.1,0.1-0.2,0.1-0.3c1.8-4.8,3.3-9.7,4.5-14.7c0.2-0.8,0.4-1.5,0.5-2.3c0,0,0-0.1,0-0.1   c0.4-2.4,0.6-4.7,0.8-7.1c0.3-3.7,0.3-7.3,0-11c-1.2-7.7-3.8-15-7.8-21.7c-6.8-9.4-16.1-16.9-26.5-22c-7.8-3-16-4.8-24.3-5.5   c-1.8,1.2-3.7,2.5-5.6,3.7c-1,0.7-2.2,1.7-3.3,2.1c2.5-1.9,4.9-3.8,7.4-5.7c-3.6,2.6-7.2,5.2-10.7,7.8c-6.3,3.7-12.4,5.5-18.9,7.1   c0.9-0.2,1.9-0.4,2.8-0.7c-6.7,1.6-18.4,5.8-27.8,6.3c-0.4,0.2-0.8,0.4-1.2,0.5c-7.6,1.6-13.1-1.8-15.3-7.9   c-0.6,0.2-1.1,0.4-1.7,0.6c-26.3,10-51.8,22.1-77.1,34.3c-27.3,13.2-54.3,27.1-80.9,41.5c-6.7,3.6-13.3,7.2-20,10.9   c-3.3,1.8-6.6,3.7-9.9,5.5c11.2-6.2,1-0.5-1.6,0.9c-13.2,7.4-26.3,15-39.4,22.6c-50.9,29.7-101,60.8-151.5,91.3   c-24.4,14.7-48.6,29.7-71.8,46.3c-3.7,2.7-7.4,5.4-11.1,8.2c-1.2,0.9-5.2,4-6.9,5.3c-2.3,1.9-4.6,3.7-6.8,5.6   c-5.9,4.9-11.6,10-17.2,15.3c-2.2,2-4.3,4.1-6.4,6.1c-0.6,0.5-1.1,1.1-1.6,1.6c-7.6,8.3-14.7,16.8-21.5,25.6   c-0.5,0.7-1,1.4-1.5,2.1c-1.8,2.7-3.6,5.5-5.4,8.3c-1.8,2.9-3.6,5.9-5.3,8.9c-0.7,1.2-3.4,6.4-4.4,8.5c-1.4,3-2.7,5.9-4,8.9   c-1.1,2.5-2.1,5-3,7.6c-0.5,1.3-1.4,4.1-1.9,5.9c-2.8,10.1-5.2,20.3-6.7,30.7c-0.6,6.5-1,13.2-0.3,19.7c0.6,1.9,1.3,3.8,2.2,5.6   c1.7,1.8,3.6,3.4,5.7,4.7c3.7,1.3,7.5,1.9,11.4,2.2c5.7-0.3,11.4-1.3,17-2.7c16.9-5.7,33-14,48.8-22.2c0.7-0.4,1.3-0.7,1.8-1   c2.3-1.3,4.6-2.6,6.8-3.9c4.5-2.6,9-5.3,13.5-8.1c8.9-5.5,17.7-11.3,26.3-17.3c7.8-5.4,15.5-10.9,23.1-16.6   c3.8-2.8,7.6-5.7,11.4-8.6c0.1-0.1,0.3-0.2,0.4-0.3c1.1-0.9,2.2-1.7,3.3-2.6c14.6-11.5,29-23.3,43.3-35.3   c31.7-26.4,63.2-53.1,95.8-78.4c14.9-11.6,30-22.8,45.6-33.3c18.5-12.5,37.6-25,58-34.2C1272.1,3974.5,1297.2,3969.9,1321.4,3977.8   z" id="14" style="fill:#FFFFFF;"/>
	<path d="M920.1,4224.4C912.7,4228.3,916.9,4226.1,920.1,4224.4L920.1,4224.4z" id="15" style="fill:#FFFFFF;"/>
	<path d="M1786.7,5843.4c-0.1,0-0.1,0-0.2,0c0,0,0,0,0,0C1786.5,5843.4,1786.6,5843.4,1786.7,5843.4z" id="16" style="fill:#FFFFFF;"/>
	<path d="M4140.4,7571.6c-0.1,0.4-0.3,0.8-0.4,1.2c0,0.1-0.1,0.3-0.1,0.4   C4140.1,7572.7,4140.3,7572.2,4140.4,7571.6z" id="17" style="fill:#FFFFFF;"/>
	<path d="M1785.9,5843.7c0.2-0.1,0.4-0.2,0.5-0.3c0,0,0,0-0.1,0C1785.2,5843.8,1783.8,5845,1785.9,5843.7z" id="18" style="fill:#FFFFFF;"/>
	<path d="M971.9,3389.8c4.6,20.2,10,40.2,16.2,60c22.4,71.1,55.7,137.7,98.8,198.5   c10,13.7,20.5,26.9,31.6,39.7c20.4,23.4,42.6,45.7,66.4,65.7c11.8,9.9,24.2,19.1,36.2,28.6c12.3,9.7,25,18.9,38.1,27.5   c2.6,1.7,2.3,5.5,1.4,8.8c27.8-14.3,55.9-28,84.3-40.9c26.5-12,53.2-23.4,80.9-32.5c1.9-0.6,3.8-1.2,5.7-1.8   c0.2-0.2,0.4-0.5,0.7-0.7c0.2-0.2,0.4-0.4,0.6-0.6c2.2-2.2,2.9-2.9,2.3-2.2c3.9-3.7,8.1-7.3,12-11c0.1-0.1,0.1-0.1,0.2-0.2   c0.7-0.7,1.4-1.4,2.1-2.2c-2.7,2.7,5.2-5.4,7.9-8.4c3.1-3.4,6.1-6.9,9.1-10.4c4.1-5,8.1-10.1,11.9-15.3   c13.3-19.8,25.1-40.8,35.2-62.4c13.3-31.5,23.5-64.6,31.1-97.9c9.2-46.8,13-94.5,12.1-142.2c-3-76.5-17.8-152.1-41-225.1   c-11.6-34.6-24.9-68.6-40-101.9c-56-123.8-133.8-237.4-217-344.4c-36.6-46.7-74.4-92.5-112.7-137.8c-4.9,9.9-9.8,19.7-14.6,29.6   c-0.5,1.1-1.1,2.2-1.6,3.3c-1.8,3.8-3.6,7.5-5.4,11.3c-4.2,8.8-8.4,17.7-12.6,26.6c-7.6,16.3-15.1,32.6-22.5,49   c-27.1,60.4-52.2,121.9-73.4,184.6c-5.3,15.7-10.4,31.5-15.2,47.3c-1.2,3.9-2.3,7.7-3.5,11.6c-0.3,0.9-0.5,1.8-0.8,2.8   c0,0,0,0.1,0,0.1c-2.2,7.8-4.3,15.5-6.3,23.3c-8.3,31.5-15.4,63.4-21.1,95.5c-5.7,32.1-10,64.5-12.6,97c-0.2,2.4-0.4,4.8-0.6,7.3   c0,0.1,0,0.2,0,0.3c-0.2,3.5-0.4,7-0.6,10.5c-0.3,6.1-0.6,12.2-0.7,18.3c-0.4,13.3-0.4,26.6-0.1,40   C955.2,3289.7,961.2,3340.2,971.9,3389.8z" id="19" style="fill:#FFFFFF;"/>
	<path d="M4461.6,4931.7C4464.9,4928.4,4469,4924.2,4461.6,4931.7L4461.6,4931.7z" id="20" style="fill:#FFFFFF;"/>
	<path d="M922.2,4081.1c2-1.5,3.4-2.6,4.4-3.3C925.1,4078.8,923.7,4080,922.2,4081.1z" id="21" style="fill:#FFFFFF;"/>
	<path d="M3704.9,7339.2c-0.1-0.3-0.1-0.7-0.2-1C3703.6,7332.3,3704.6,7338.3,3704.9,7339.2z" id="22" style="fill:#FFFFFF;"/>
	<path d="M4818.1,4427.8c-36.7-5.9-73.2-12.5-109.5-20.4c-37.8-8.2-75.3-17.6-112.5-28c0,0.1,0.1,0.2,0.1,0.3   c12.1,24.7,20.3,51.1,26.2,78c3.3,15.2,4.2,26.9,5,43.2c0.7,13.3,0.7,26.7,0.2,40c6.8-5.1,13.9-9.8,21.1-14.2   c15.6-9.4,33.3-16.5,51.5-18.4c20.9-2.2,40.3,2,60.4,7.4c16.5,4.4,33.1,6.5,49.9,9.2c15.6,2.5,31.9,7.3,43.7,18.3   c3.2,3.1,6.2,6.5,9,10.1c0.7-1.2,1.4-2.3,2.1-3.5c0.8-1.3,1.5-2.8,2.5-4c1.8-2.2-1.2,2.5-1,2.3c1.8-1.7,3.3-6.5,4.6-8.7   c4.2-6.7,8.7-13.2,13.1-19.8c0.9-1.4,4.3-8.2,5.8-8.5c2.1-3.5,4.5-6.8,7.1-10c1-1.3,2.1-2.5,3.2-3.7c4.4-5.3,9-10.5,13.7-15.6   c1.8-2,3.7-3.9,5.5-5.9c0.9-1,6.3-6.7,8.1-8.5c2.5-2.5,4.9-5,7.4-7.5c5.4-5.4,11-10.6,16.7-15.7c1.3-1.2,2.7-2.4,4.1-3.5   c-13.2-0.6-26.5-0.4-39.2-0.9C4883.8,4438.9,4850.8,4433,4818.1,4427.8z" id="23" style="fill:#FFFFFF;"/>
	<path d="M1142.8,3845.3c8.8-1.9,17.8-3.1,26.7-4.7c-1.6-0.7-3.2-1.5-4.8-2.3c-9.1-4-17.7-10-26-15.3   c-70.7-45.5-126.4-110.2-167.4-183.2c-28.6-50.9-50.1-105.5-65.6-161.7c-1.3-0.1-2.6-0.5-3.9-1.2c-3.6-2-7.3-3.9-11-5.7   c-6.4-2.1-12.5-6.2-18.6-9.1c-5.7-2.3-11.6-4.5-17.6-5.8c-7-1.6-14.1-2.7-21.1-4.2c-13-2.8-26.3-4.3-39.6-4.8   c-33.9-0.2-67.5,4.2-100.4,12.4c-25.7,7.1-50.7,16.5-75.5,26.2c-53,20.7-105.7,42.9-161.9,53.3c-21.2,3.9-42.3,5.4-63.6,4.9   c38.6,35.3,79.1,68.5,121.5,99.2c48.7,35.3,98.6,68.5,151.5,97.2c21,11.1,42.3,21.6,64,31.2c80.9,36.1,166.6,61.5,254.5,73   C1036.8,3851,1090.2,3854.8,1142.8,3845.3z" id="24" style="fill:#FFFFFF;"/>
	<path d="M4891.6,4544.5c-0.1,0.1-0.3,0.3-0.4,0.4C4891.3,4544.8,4891.5,4544.7,4891.6,4544.5z" id="25" style="fill:#FFFFFF;"/>
	<path d="M7402.4,475.7c-5.4,4.8-11.4,8.7-17.8,11.2c-10.5,4.1-21,8.3-31.5,12.6c-0.6,0.2-0.9,0.4-1.1,0.5   c-0.2,0.1-0.5,0.2-1.1,0.5c-1.4,0.6-2.7,1.1-4.1,1.7c-2.5,1-4.9,2-7.3,3.1c-6.3,2.8-12.5,5.7-18.7,8.6c-10.5,4.9-21,10.1-31.5,15   c-20.5,9.5-41.2,18.6-61.5,28.4c-20.3,9.8-40.5,19.9-60.4,30.3c-10.1,5.3-20.1,10.6-30.2,16.1c-4.4,2.4-8.8,4.8-13.2,7.2   c-0.7,0.4-1.4,0.8-2.1,1.2c-2.5,1.4-5,2.9-7.6,4.3c-39,22.3-77.9,44.7-115.6,69.2c-37.1,24.1-73.2,49.6-108.2,76.6   c-2,1.6-4,3.1-6,4.7c-4.2,3.3-8.4,6.7-12.6,10.1c-8.4,6.8-16.6,13.6-24.9,20.6c-16.8,14.2-33.3,28.8-49.4,43.8   c-15.8,14.7-31.2,29.7-46.3,45.2c-0.6,0.6-1.2,1.2-1.8,1.8c-1,1.1-2,2.1-3,3.2c-3.5,3.6-6.9,7.3-10.4,10.9   c-7.3,7.7-14.4,15.5-21.5,23.4c-14.4,16.1-28.5,32.6-42.1,49.4c-6.6,8.2-13.1,16.4-19.5,24.7c-3.4,4.4-6.7,8.8-10,13.2   c-1.3,1.7-2.6,3.4-3.8,5.2c-24.6,34.1-47.5,69.2-68.3,105.7c-5.1,9-10.3,17.9-15.4,26.9c-1.6,2.8-3.2,5.7-4.8,8.5   c-0.2,0.4-0.4,0.7-0.6,1.1c-2,3.7-4,7.4-5.9,11.2c-9.6,18.5-18.6,37.2-28.3,55.7c-5.4,10.3-10.6,20.7-15.6,31.2   c-1.2,2.5-2.4,5-3.5,7.5c-0.4,0.9-1.9,4.2-2.5,5.4c35.1-31.6,76.1-56.9,118.8-78.7c76-38.8,156.5-67.6,233.9-103.3   c4.4-2,9-2.8,13.1-2.3c3.5,0.2,6.6,1.6,8.9,4.5c2,2.4,3.3,5.6,3.5,9.9c0,0.2,0,0.3,0,0.5c0.6,8.5-3,17.4-8.2,25.4   c-4.7,7.7-10.9,14.6-16.6,19.7c-12.3,11.9-20.8,22.2-32.5,32.8c-30.9,37.7-50.9,84.2-63.8,133.5c68.6-12.7,133.5-40.2,203.4-47.5   c38.9-4.1,78.4-13.2,117.7-11.3c17.2,0.8,34.5,4.6,51.5,7.2c8.3,1.3,16.6,2.6,24.9,3.6c4.6,0.6,9.2,1.1,13.7,1.6   c1.8,0.2,11.7-0.3,6.7,1.6c15.2-5.8,26.2-0.3,24.9,16.3c-1.6,19.2-17.7,37.7-32.9,48.2c-77.5,53.5-150.3,113.3-218.1,178.6   c-48.8,47-107.7,101.3-119.3,170.2c52.8-37.4,110.2-67.7,164.2-103.7c68-45.3,133-95.9,217.9-101.6c0.3,0,0.6,0,0.9,0   c6.2-0.7,12.3,0.9,15.3,7.7c4.7,10.7-2.7,25.4-8.2,34.2c-29.5,47-63.5,97.8-81.5,146.4c-9.7,26.1-17.1,51.4-16.3,79.6   c0.4,12.7,1.7,24.7,6.7,36.1c0.7,1.7,1.9,2.2,2.8,2.3c2.8-3,6.8-7.7,8.8-9.7c42.7-42,89.3-77.5,143.3-103.7   c54.7-26.5,112.2-39.4,172.3-45.4c21.1-2.1,18,18.7,13.2,32.2c-14.7,42.9-44.2,78-73.5,111.7c-22.8,26.3-49.6,52-53.2,88.1   c-2,20.1,12.5,32,27.2,43.2c8.6,6.5,17.7,12.6,27.1,18.2c0.9-1.8,1.9-3.6,2.9-5.3c5.2-8.7,12.3-16.5,18.6-24.6   c4.1-5.2,8.1-10.4,12.1-15.7c1.7-2.3,3.4-4.5,5-6.8c14.9-21.1,28.7-42.8,41.5-65.2c5.8-10.1,11.4-20.4,16.8-30.7   c1.6-3,3.1-6.1,4.7-9.2c0.1-0.2,0.2-0.4,0.3-0.7c0.8-1.7,1.4-2.9,1.9-3.8c1.3-2.7,2.5-5.3,3.8-8c9.9-21.1,18.9-42.7,27.1-64.5   c4.1-11,8-22,11.8-33.1c1.9-5.6,3.7-11.2,5.4-16.8c0.4-1.3,0.7-2.7,1.2-4c0.2-0.4,0.3-0.7,0.4-0.8c0.8-2.7,1.4-5.4,2-8.1   c3.6-14.5,6.5-29.2,10.4-43.6c1.6-6.1,3.3-12.1,4.9-18.2c0.5-2,1-3.9,1.5-5.9c22-91.7,32.3-186.3,34.8-280.5   c0.5-31.9,0.1-63.9-1.2-95.8c-5.1-119.4-24.9-237-48.9-353.8c-6.3-28.8-13.9-57.4-21.9-85.8c-6.9-24.4-14.3-48.6-22.2-72.7   c-3.8-11.5-7.7-23-11.7-34.4c-4.2-12.1-7-24.6-11.3-36.7c-9-24.9-19.9-48.4-34.6-70.1C7434.1,505.1,7419,489.5,7402.4,475.7z" id="26" style="fill:#FFFFFF;"/>
	<path d="M7494.8,1755.8c-0.6,1.2-1.2,2.5-1.8,3.7C7494.6,1756.3,7497.1,1751.1,7494.8,1755.8z" id="27" style="fill:#FFFFFF;"/>
	<path d="M7491.5,1762.6c0.5-1.1,1-2.1,1.5-3.1c0,0.1-0.1,0.1-0.1,0.2   C7492.5,1760.5,7492.1,1761.5,7491.5,1762.6z" id="28" style="fill:#FFFFFF;"/>
	<path d="M3757.4,1744.4c0-0.1-0.1-0.1-0.1-0.2c-0.1-0.1-0.1-0.1-0.2-0.2c0,0,0,0.1,0.1,0.1   C3757.3,1744.3,3757.4,1744.3,3757.4,1744.4z" id="29" style="fill:#FFFFFF;"/>
	<path d="M6275.6,906.6c0,0,0.2-0.1,0.3-0.3C6275.8,906.4,6275.7,906.5,6275.6,906.6z" id="30" style="fill:#FFFFFF;"/>
	<path d="M2407.6,3264.6c0.2-0.2,0.4-0.4,0.5-0.6c-1,0.8-1.9,1.7-2.8,2.6   C2405.7,3266.3,2406.9,3265.4,2407.6,3264.6z" id="31" style="fill:#FFFFFF;"/>
	<path d="M2120.4,3509.3C2120.5,3509.9,2120.7,3510.6,2120.4,3509.3L2120.4,3509.3z" id="32" style="fill:#FFFFFF;"/>
	<path d="M3817.9,5362.1c-0.6,0.6-1.1,1.1-1.5,1.6c-0.2,0.2-0.3,0.3-0.5,0.5   C3816.6,5363.5,3817.2,5362.8,3817.9,5362.1z" id="33" style="fill:#FFFFFF;"/>
	<path d="M3815.5,5364.7c0.2-0.2,0.3-0.3,0.5-0.5c-0.5,0.6-1.1,1.1-1.6,1.7c-0.6,0.6-1.1,1.1-1.7,1.7   C3811.4,5368.9,3814,5366.2,3815.5,5364.7z" id="34" style="fill:#FFFFFF;"/>
	<path d="M3883.4,1960.4c0.9-0.6,1.8-1.5,2.3-2.1c-0.9,0.9-1.9,1.6-2.8,2.5   C3883,1960.7,3883.2,1960.5,3883.4,1960.4z" id="35" style="fill:#FFFFFF;"/>
	<path d="M2409,3263.3c-0.2,0.2-0.5,0.4-0.7,0.6c0,0-0.1,0.1-0.1,0.1   C2408.4,3263.8,2408.7,3263.5,2409,3263.3z" id="36" style="fill:#FFFFFF;"/>
	<path d="M4874.2,4564.3c0.1,0,0.1-0.1,0.2-0.1c0,0,0,0,0,0C4874.3,4564.3,4874.3,4564.3,4874.2,4564.3z" id="37" style="fill:#FFFFFF;"/>
	<path d="M4336.4,5039c1-0.7,2-1.5,3-2.2c0.4-0.3,0.8-0.6,1.1-0.8c-0.1,0-0.1,0.1-0.2,0.1   C4339.3,5036.8,4338,5037.8,4336.4,5039z" id="38" style="fill:#FFFFFF;"/>
	<path d="M3900.8,5223.1c35.1,1.5,70.1-2.5,104.4-10.2c29.8-7.5,58.8-17.7,87.1-29.7c7-3,14-6.1,21-9.3   c2-0.9,3.9-1.8,5.9-2.8c1.2-0.6,2.7-1.3,3.3-1.6c1.7-0.8,3.4-1.7,5.1-2.6c14.1-7.1,28.1-14.6,41.9-22.4   c43.6-24.4,86.3-50.4,127.6-78.5c10-6.8,20.1-13.5,30-20.4c4.5-3.2,9-6.4,13.5-9.6c0.2-0.2,0.5-0.3,0.7-0.5c2-1.4,3.9-2.9,5.9-4.4   c18.5-13.8,36.5-28.2,54-43.1c17.9-15.3,35.3-31.3,52.2-47.8c2.2-2.2,4.4-4.4,6.6-6.6c0.4-0.4,0.9-1,1.5-1.5c2.9-3,5.8-6,8.6-9   c8-8.5,15.9-17.2,23.6-26c16-18.3,31.3-37.1,46-56.4c7.7-10,15.8-19.7,23.5-29.7c2.9-3.7,5.7-7.4,8.5-11.2   c-4.8-4.6-9.3-9.5-13.7-14.5c-8.5-9.8-16.5-20.4-23-31.8c-1.6,2.3-3.2,4.5-4.8,6.8c-1.8,2.5-3.7,5.1-5.6,7.6c0,0,0,0-0.1,0.1   c0.1,0,0.1-0.1,0.2-0.1c-0.1,0-0.1,0.1-0.2,0.2c-0.4,0.5-0.8,0.9-1.1,1.1c-1.5,1.8-2.9,4.6-4,6.2c-4.3,5.9-8.8,11.3-13.8,16.7   c-9.2,10-18.8,19.7-28.8,29c-19.6,18.2-40.8,34.6-63.5,48.7c-44.2,27.6-94,49.5-145.3,59.1c-28.1,5.3-58.6,5.9-85.8-4.1   c-22.6-8.2-42.4-22.3-55.5-42.7c-15.1-23.6-15.9-53.1-10.2-79.8c5.6-26.4,17.6-50.9,27.3-75.9c0.8-2.1,1.6-4.2,2.3-6.2   c-0.3,0.7-1.1,3.1,0.1-0.3c1.1-3.2,2.1-6.3,3-9.5c1.7-5.9,3.1-11.8,4.2-17.9c2-10.8,3-25.4,3-37.8c0-26.2-5.8-51.4-16.2-75.3   c-11.3-25.9-20-52.1-23.6-80.2c-3.6-28.2-3.6-56.7,6.9-83.6c10.8-27.6,32.5-49.7,58.1-64c21.9-12.3,46.6-17.8,71.4-19.2   c53.3-3.2,106.1,15.7,150.9,43.4c42.2,26.1,78.3,60.8,107.3,100.9c14.7,20.4,28.7,42.4,38.6,65.5c7.8,18.2,14.2,37,19.3,56.1   c6.4-7.9,13.1-15.6,20.2-22.9c-3.4-18.1-8.4-35.8-14.7-53c0.7,1.2,1.4,2.3,2.1,3.5c-4-6.3-5.5-13.5-7.9-20.6   c-2.2-6.3-4.5-12.6-7-18.8c-4.8-11.9-10.4-23.2-15.9-34.7c-11-23.1-23.2-45.4-37.3-66.8c-17.5-25.7-37-49.9-58-72.7   c-40.3-43.7-85.7-83.3-133.8-118.2c-52.9-38.3-109.9-69.8-169-97.4c-20-9.1-40.3-17.7-61.2-24.6c-18.8-6.2-38.1-11.2-57.7-13.7   c-20.1-2.6-40.2-3.6-60.2-6.9c-39.1-6.3-78-15.1-117.8-15.9c-44,0.4-88.3,8.4-130.6,19.8c-3,0.8-6.1,1.7-9.1,2.5   c-1,0.3-2.1,0.7-3.2,0.9c-3.7,1.1-7.5,2.3-11.2,3.5c-9.4,3-18.7,6.2-27.9,9.6c-16.8,6.2-33.5,12.8-49.7,20.4   c-6.9,3.2-13.8,6.6-20.5,10.1c-1.3,0.8-2.8,1.5-4.2,2.2c-3.6,2-7.1,4.1-10.6,6.2c-6.7,4-13.3,8.3-19.8,12.7   c-3.3,2.3-6.6,4.6-9.9,7.1c-0.2,0.2-0.4,0.3-0.6,0.5c-0.5,0.4-1,0.8-1.5,1.2c-5.9,4.8-11.7,9.9-17.2,15.2c-0.9,0.9-1.8,1.7-2.7,2.6   c-2.1,2.3-4.1,4.6-6.1,6.9c-1.9,2.3-3.8,4.6-5.6,7c-0.5,0.8-1,1.5-1.6,2.3c-2.2,3.3-4.3,6.8-6.3,10.3c-0.2,0.4-0.4,0.8-0.6,1.2   c-1.6,3.5-3.2,7-4.6,10.5c-0.4,1.1-0.9,2.3-1.3,3.4c-2,7.2-3.8,14.4-4.9,21.8c-0.1,0.4-0.2,1.2-0.3,2c-0.1,1.9-0.3,3.8-0.4,5.7   c-0.2,4.3-0.2,8.7-0.1,13c0.3,8,1.1,16,2.5,24c9.3,44.1,31.8,84,57.5,120.7c29.4,41,62.4,80,87.1,124.2   c23.7,42.4,35.8,89.7,39,138.1c3.3,49.4-2.1,99.1-8.7,148c-3.2,23.4-6.8,46.7-10,70.1c-1.4,10.4-2.7,20.8-3.9,31.2   c-0.6,5.6-1.2,11.2-1.7,16.8c0,0,0,0,0,0c0,0.4-0.1,0.8-0.1,1.2c-0.2,2.5-0.4,4.9-0.5,7.4c-2.9,41.4-2.2,83.3,6.1,124.1   c7.4,31.1,19.8,60.8,38.3,87c21.8,28.2,49.9,50.5,81.4,67C3823,5210.5,3861.6,5220.2,3900.8,5223.1z" id="39" style="fill:#FFFFFF;"/>
	<path d="M4635.8,4579.3c-0.7,0.5-1.3,1-2,1.5c0.3-0.2,0.7-0.5,1-0.7   C4635.1,4579.9,4635.4,4579.6,4635.8,4579.3z" id="40" style="fill:#FFFFFF;"/>
	<path d="M4875.1,4563.3c-0.2,0.3-0.5,0.6-0.7,1c0,0,0,0,0,0C4875.4,4563.4,4877.1,4560.5,4875.1,4563.3z" id="41" style="fill:#FFFFFF;"/>
	<path d="M5074.2,4421.7c-11.1,5.3-22.2,10.7-33.3,16.2c-2.4,2.1-4.9,4-7.5,5.7c-3.7,2.4-11.6,6.9-18.1,7.7   c-4.6,2.5-9.2,5.1-13.7,7.8c-14.2,8.4-28.6,16.6-42.4,25.7c-5.5,3.6-10.9,7.4-16.1,11.3c-2.3,1.7-4.6,3.4-6.8,5.2   c-0.3,0.2-0.6,0.4-0.8,0.7c-0.1,0.1-0.1,0.1-0.2,0.2c-2.3,2-4,3.4-5.1,4.3c-0.8,0.8-1.7,1.5-2.5,2.3c-2,1.9-4,3.8-6,5.7   c-2,1.9-3.8,3.9-5.8,5.8c-3.5,3.4,1.7-1.9,2.7-3c-4.5,4.7-8.7,8.8-13.5,13.2c6.3-5.8-1.5,1.7-3,3.1c-1.9,1.9-3.7,3.8-5.6,5.7   c-0.3,0.3-0.6,0.6-0.8,0.9c-0.7,0.8-1.4,1.7-2.4,2.8c-2.3,2.8-4.9,5.5-7.6,7.9c-1.5,1.7-3,3.3-4.4,5c-1.7,1.9-3.4,3.9-5,5.8   c-0.5,0.6-1.3,2-2,2.5c0,0,0,0,0,0c-0.7,1-1.4,1.9-2.1,2.8c1.9,3.4,3.7,6.8,5.4,10.2c75.8-75.1,178.9-118.4,284.8-127.1   c22.9-1.9,46-2.3,68.9-3.1c23.6-0.9,47.7-1.3,70.9,3.9c22,4.9,40.9,15.3,54.7,33.3c15.5,20.2,27,43.4,32.3,68.3   c5.8,27,5,54.8-5.7,80.6c-6.2,15-15.6,28.4-26,40.9c-4.5,5.4-9.2,10.6-13.8,16c-2,2.3-4,4.7-6,7.1c-1.1,1.3-2.1,2.6-3.1,4   c-0.7,0.9-1.4,1.8-2,2.7c0.6-0.8,1.2-1.6,1.7-2.4c-2.3,1.7-5.5,7.7-6.5,10.4c1.8-4.8-0.3,0.8-0.7,1.5c-0.8,1.6-1.5,3.3-2.1,5   c-0.1,0.4-1.2,3.4-1.2,3.4c-0.3,1.1-0.6,2.2-0.9,3.4c-0.8,3.3-1.3,6.6-1.9,10c-0.1,1-0.2,1.6-0.2,1.7c-0.1,0.7-0.1,1.5-0.2,2.2   c-0.1,1.7-0.2,3.3-0.2,5c-0.1,3.3,0,6.7,0.2,10c0.4,6.7,1.3,13.4,2.5,20.1c1.1,6.3,2.6,12.7,4.3,19.8c1.6,6.8,3.4,13.5,5,20.3   c3.6,14.5,7.1,29.2,8.4,44.1c2.4,27.5-10,54.8-26.1,76.4c-16,21.5-40.3,40.2-67.6,43.5c-29.2,3.5-59.6-0.6-88-7.4   c-27.1-6.5-53.5-15.9-79.1-26.9c-49.2-21.1-95.8-48.8-137-83c-4.5-3.7-8.9-7.5-13.3-11.4c20.7,43.7,41.9,87.2,65.9,129.3   c29.3,51.4,61.6,101.1,96.8,148.7c12.2,16.3,24.7,32.4,37.5,48.2c44.8,55.1,94,110.5,157.7,144c34.4,16.5,71.4,24.5,109.4,27.4   c23.3,1.2,46.7,0.9,70,0c22-0.8,44.6-0.7,66.3-4.9c3.1-0.9,6.1-1.9,9.1-3.1c0.3-0.2,0.6-0.3,0.9-0.5c0.1-0.1,0.1-0.2,0.2-0.2   c0.6-0.9,1.1-1.8,1.5-2.3c1.5-3.5,2.8-7,4-10.6c2.2-9.1,3.7-18.4,4.5-27.8c1-35-6.3-69.7-7-104.6c-0.4-19.3,0.5-39.1,4.9-57.9   c4.9-20.9,12.2-39.5,21.8-58.6c14.4-28.8,34.6-54.7,56.4-78.3c22.9-24.7,47.5-47.5,72-70.6c24.8-23.5,49.2-47.4,73.2-71.7   c36-36.7,71.7-74.1,102-115.6c10.5-15.4,20.2-31.4,28.5-48c5.8-13,10.8-26.4,14.7-40.1c3.8-16.7,6.1-33.7,6.9-50.8   c0.2-42.1-6.5-85-17.3-125.7c-8.5-29.2-20.6-57.4-38.5-82c-17.1-21-38.2-38-61.9-51c-38.4-18.9-80.8-27.7-123.2-31.6   c-1.2-0.1-2.4-0.2-3.6-0.3c-26.9-2.1-54-2.4-80.9-1.6c-120.1,3.4-240.9,18.2-357,49.7c-30.9,8.7-61.5,18.5-91.6,29.8   C5126.2,4398.2,5099.9,4409.3,5074.2,4421.7z" id="42" style="fill:#FFFFFF;"/>
	<path d="M3882.4,1961.2c0.1-0.1,0.3-0.3,0.4-0.4c0,0-0.1,0-0.1,0.1C3882.6,1961,3882.5,1961.1,3882.4,1961.2   z" id="43" style="fill:#FFFFFF;"/>
	<path d="M3591,2495.9c4.5,11.1,8.7,22.2,12.8,33.4c29-50.1,61.4-98,95.9-145c0.3-0.4,0.6-0.8,1-1.4   c1.4-2,2.9-4,4.3-6c2.5-3.5,4.9-7,7.4-10.5c5.1-7.4,10.1-14.9,14.9-22.5c2.8-4.5,5.6-9,8.2-13.7c1.1-2,4.1-7.7,3.8-7   c3.4-6.8,6.6-13.7,9.4-20.8c1-2.4,1.9-4.9,2.8-7.3c0.1-0.4,0.2-0.9,0.4-1.5c1.1-3.9,2.2-7.8,3.2-11.8c1.9-7.7,3.4-17,3.8-21.7   c1.5-18.6,0.7-37.6-3-55.9c-6.7-32.7-26.1-64.2-27-98c-1.4-49.9,42.4-87.8,82.9-108.4c14-7.1,28.5-13.3,42.6-20.3   c2.5-1.2,5-2.5,7.5-3.8c0.4-0.2,2-1,3.1-1.7c1.6-1,6.3-3.7,7.4-4.4c3.5-2.2,6.9-4.6,10.3-6.9c3.2-3.3,3.6-3.3,2.9-2.5   c0.1-0.1,0.2-0.2,0.3-0.3c0,0,0,0,0,0c0.2-0.9,0.4-1.8,0.7-2.7c0.1-0.4,0.2-0.7,0.3-1c0.1-1.8,0.2-3.6,0.3-5.4   c0.2-14-4-26.7-11-41.3c-29.5-61.1-91.2-101.5-118.9-163.5c-0.2-0.2-0.2-0.3-0.1-0.1c-0.4-1-0.9-1.9-1.3-2.9c-2-4-2.2-8.5-1.3-13.2   c1.2-7,4.9-14.3,9.2-20.8c0,0,0,0,0-0.1c0.1-0.1,0.2-0.2,0.2-0.4c0.3-0.4,0.6-0.8,0.8-1.2c5-8,11.8-15.7,19.7-21.5   c7.4-5.9,16.2-10.8,23.7-10.1c1.5,0,3,0.3,4.4,0.8c90.5,2,180.8,41.4,250.8,97.5c13.6,10.9,26.4,22,37.6,35.2   c0.4,0.4,0.8,0.9,1.1,1.3c-2.9-9.9-6.3-19.8-9.9-29.5c-23.4-62.5-54.8-122.8-89-180.1c-0.4-0.3-0.8-0.6-1.1-0.9   c-8-7.8-4.4-20.7-0.6-29.6c7.4-16.8,20-31.5,35.9-38.1c6-3.3,12.2-5.1,17.8-3.6c2.7,0,5.4,0.2,8.1,0.7c21,3.5,42.2,6.7,62.3,14.2   c40.7,15.3,75.6,40.8,111.2,65.3c40.1,27.6,82.3,52.1,123.6,77.8c-35.2-54-85.4-99.5-132.6-142.4c-58.4-53.1-120.5-102-185.3-147   c-3.7-2-7.2-4.4-10.5-7.2c-8.6-5.9-5.7-18.3-0.8-28.9c1.7-3.9,3.7-7.5,5.4-10.3c4.1-7,9.7-13.6,16.1-19.1   c7.1-6.6,15.5-12,24.4-13.2c0,0,0,0,0,0c103.6-26.8,208.9-2.6,311,18.9c49.9,10.5,100.3,18.5,150.4,28.2   c-13.4-11.7-27.1-23.1-41.1-34.1c-22.6-17.8-43.5-38.1-65.4-56.7c-22-18.6-44.4-36.9-67.1-54.7c-45.6-35.9-92.1-70.8-139.8-103.9   c-93.8-65.1-192.4-123.5-293.9-175.8c-33.1-16.9-66.6-33.1-100.5-48.5c-31-14.1-62.5-27-93.9-40.3c-35.2-15-70.9-28.9-107.3-40.7   c-64.5-20.8-130.8-31.8-198-38.3c-0.9,2.2-1.8,4.5-2.7,6.7c-10.8,27.3-19.5,55.3-27,83.7c-1.3,4.7-2.4,9.5-3.8,14.2   c-2,6.7-2.1,7-0.2,0.8c-0.1,0.5-0.3,1-0.4,1.5c-0.4,1.5-0.9,3-1.3,4.5c-1.9,6.6-3.7,13.1-5.4,19.7c-3.8,14.3-7.2,28.7-10.4,43.1   c-12.8,59-20.3,118.8-25.2,178.9c-1.2,14.7-2.2,29.4-3,44.1c0,0-0.2,4-0.3,5.6c0,0.2,0,0.3,0,0.4c-0.2,3.8-0.3,7.6-0.5,11.5   c-0.3,7.1-0.5,14.2-0.7,21.3c-0.9,30.5-1.1,61.1-0.7,91.6c0.8,62.8,3.7,125.7,8.4,188.3c9.5,126.9,26.1,253.6,50,378.6   c12,62.4,25.8,124.4,41.6,186c3.8,14.7,7.6,29.3,11.6,44c0.3,1.2,1.6,5.9,2,7.2c1.1,3.8,2.1,7.6,3.2,11.4c2,7.1,4,14.1,6,21.1   c8.8,30.3,17.7,60.6,27.2,90.6c3.2,10,5.8,20.1,8.2,30.3c0,0.1,0.3,1.3,0.5,2.2c0.2,0.9,0.5,2.1,0.5,2.2c1,3.9,2,7.8,3,11.6   c4.3,16.5,9.3,32.7,14.6,48.8c9.7,29.3,19.8,58.4,30.4,87.4C3568.1,2437.7,3579.3,2466.9,3591,2495.9z" id="44" style="fill:#FFFFFF;"/>
	<path d="M4341.6,5035.2c2.7-1.9,6.9-5.1-0.4,0.3c-0.2,0.1-0.4,0.3-0.5,0.4   C4340.9,5035.7,4341.2,5035.5,4341.6,5035.2z" id="45" style="fill:#FFFFFF;"/>
	<path d="M4130.7,1833.9c0.1,0,0.2,0,0.3,0C4130.9,1833.9,4130.8,1833.9,4130.7,1833.9   C4130.7,1833.9,4130.7,1833.9,4130.7,1833.9z" id="46" style="fill:#FFFFFF;"/>
	<path d="M3751,2296.9C3750.8,2297.4,3750.8,2297.5,3751,2296.9L3751,2296.9z" id="47" style="fill:#FFFFFF;"/>
	<path d="M3887,1954C3887.9,1950.9,3887.3,1952.5,3887,1954L3887,1954z" id="48" style="fill:#FFFFFF;"/>
	<path d="M4633.2,4581.2c0.2-0.1,0.4-0.3,0.6-0.4C4633.6,4580.9,4633.3,4581.1,4633.2,4581.2z" id="49" style="fill:#FFFFFF;"/>
	<path d="M6684.2,2243.9c0.3-0.2,0.6-0.3,0.9-0.5C6684.7,2243.6,6684.4,2243.8,6684.2,2243.9z" id="50" style="fill:#FFFFFF;"/>
	<path d="M5451.2,6328.5C5451.2,6328.4,5451.2,6328.4,5451.2,6328.5c0.2-0.3,0.3-0.5,0.4-0.7   C5451.4,6328,5451.3,6328.3,5451.2,6328.5z" id="51" style="fill:#FFFFFF;"/>
	<path d="M5765.8,6015.8c-0.6,0.8-1.1,1.5-1.5,2.1c0,0-0.1,0.1-0.1,0.1   C5764.7,6017.3,5765.2,6016.5,5765.8,6015.8z" id="52" style="fill:#FFFFFF;"/>
	<path d="M4765.6,2359.5C4766.2,2359.2,4766,2359.3,4765.6,2359.5L4765.6,2359.5z" id="53" style="fill:#FFFFFF;"/>
	<path d="M5989.1,2535.7c2.8-3.1,5.5-6.4,8.1-9.7c2.4-3.7,4.7-7.4,6.8-11.3c2.1-4.6,3.9-9.3,5.6-14.1   c1.6-6.4,2.8-12.9,3.5-19.5c0.2-9.8-0.6-19.5-2.5-29.1c-3.8-14-9.9-27.3-18.1-39.3c-8.7-10.9-19.1-19.9-31.3-26.6   c-12.5-5.6-25.8-9.2-39.4-10.3c-5.4,0-10.8,0.5-16.1,1.5c-0.9,0.3-1.8,0.6-2.7,1c-0.6,0.5-1.2,1-1.8,1.5c-0.6,0.8-1.3,1.5-1.9,2.3   c-2.5,3.7-4.8,7.6-7,11.4c-0.3,0.6-0.7,1.2-1,1.8c-0.6,1.2-1.3,2.5-1.9,3.7c-3.6,7.2-7.5,14.2-11.7,21   c-5.8,9.3-11.6,18.8-19.9,26.2c-5.6,5-12,8.8-17.6,13.9c-2.5,2.3-7,5.5-10.6,6.1c-1.2,0.2-3.2,0.3-4.4-0.5   c-0.5-0.1-0.9-0.4-1.4-0.7c-5.9-4.2-13.7-6.7-18-12.5c-4.4-6-9.3-11.8-14.4-17.2c-7.9-8.6-17.8-15.3-28.2-20.7   c-16.2-7.1-34.2-11.6-51.9-12.9c-9.6-0.1-19.2,0.8-28.7,2.8c-4.2,1.3-8.4,2.8-12.4,4.6c-1.6,0.9-3.2,1.9-4.8,3   c-0.3,0.2-0.5,0.4-0.8,0.7c-0.2,0.2-0.4,0.5-0.6,0.7c-0.8,1.3-1.6,2.5-2.3,3.8c-1.3,2.9-2.5,5.9-3.5,9c-1.4,5.7-2.4,11.4-3,17.2   c-0.3,10,0.6,19.9,2.5,29.7c4.4,15.8,11.6,30.5,20.9,43.9c14.8,18.7,33.4,33.9,54.4,45.1c20.2,9.6,41.7,16,63,22.8   c11.3,3.6,22.3,8.4,33.1,13.3c6.9,3.2,14.2,6.2,20.5,10.6c2.1,1.4,4.2,2.9,6.2,4.5c2.7,2.3,4.7,5.3,6.7,8.3c1.5,2,3,4,4.5,6   c0.6-0.7,1.2-1.5,1.8-2.2c5.8-7.1,12.3-13.5,19.4-19.3c11.5-9.4,23.6-18.1,35.9-26.5c16.8-11.5,34.9-20.8,51.7-32.4   C5980.4,2543.5,5984.9,2539.7,5989.1,2535.7z" id="54" style="fill:#FFFFFF;"/>
	<path d="M6686.6,2242.6c-0.4,0.2-0.7,0.4-1,0.5c-0.2,0.1-0.4,0.3-0.6,0.4   C6685.6,2243.1,6686.1,2242.8,6686.6,2242.6z" id="55" style="fill:#FFFFFF;"/>
	<path d="M5450.5,6329.4c-0.8,1.1-1.4,2.4-1.3,2.6c0.7-1.1,1.4-2.3,2-3.4   C5451,6328.8,5450.7,6329.1,5450.5,6329.4z" id="56" style="fill:#FFFFFF;"/>
	<path d="M5764.2,6018c-0.3,0.4-0.6,0.8-0.9,1.2C5761.5,6021.8,5762.8,6019.9,5764.2,6018z" id="57" style="fill:#FFFFFF;"/>
	<path d="M5789.4,5973.6c-0.2,0.4-0.4,0.7-0.5,1.1c-0.1,0.1-0.1,0.3-0.2,0.4   C5789,5974.6,5789.2,5974.1,5789.4,5973.6z" id="58" style="fill:#FFFFFF;"/>
	<path d="M6408.6,4497.4c-0.8,0.6-1.5,1.2-2.2,1.7c-0.1,0.1-0.2,0.2-0.3,0.3   C6406.9,4498.7,6407.7,4498,6408.6,4497.4z" id="59" style="fill:#FFFFFF;"/>
	<path d="M6404.3,4500.8c0.6-0.5,1.2-1,1.8-1.5c-1,0.8-1.9,1.5-2.9,2.3   C6400.1,4504,6402.6,4502.1,6404.3,4500.8z" id="60" style="fill:#FFFFFF;"/>
	<path d="M6453,4514.2c-30.3,32-65.6,59-102.8,82.5c-22.8,14.4-46.1,27.8-69.8,40.6   c-21.3,11.5-43.1,23.5-65.7,32.4c-10.8,4.3-21.8,8-32.6,12.3c-13.7,5.4-27.6,10.4-41.5,15.3c-22.5,7.9-45.3,14.7-68.3,20.8   c-24,6.4-48.5,12.9-73.2,16c-13.6,1.7-27.1,3.6-40.7,5.4c-37.4,59.5-86.7,110-136.3,159.4c-26.1,26-52.6,51.5-79.6,76.5   c-22,20.4-44.7,40.2-66,61.4c-5.3,5.6-10.5,11.4-15.5,17.4c-3.2,3.8-6.4,7.8-9.4,11.8c-0.3,0.3-0.6,0.8-1,1.3   c0,0.1-0.1,0.1-0.1,0.2c-2.8,4.1-5.4,8.3-7.9,12.6c-1.1,1.9-2.2,3.9-3.3,5.9c-2.7,6-5.1,12.1-7.1,18.4c-2.1,8.7-3.4,17.6-4.2,26.5   c-0.3,10.2,0.1,20.4,0.8,30.5c3.1,44.3,11.1,89,0.5,133c-13.2,54.9-47.5,105.9-101.5,127.4c-23.3,9.3-48.6,10.3-73.2,11.4   c-22.7,1-45.5,1.9-68.3,1.5c-47.1-0.7-94.8-5.6-138.5-24.3c-79.5-34.2-137.6-99.9-190.5-166.2c-55.3-69.3-104.9-143.3-147.4-221.1   c-10.3-18.9-20.2-38-29.7-57.3c-9.5-19.2-19.3-38.7-27-58.7c-4-10.4-7.9-20.9-11.7-31.4c-3.6-10.1-8.3-20.5-10.4-31   c-2.3-11.2-4.4-22.4-6.4-33.6c-0.3-1.4-0.5-2.8-0.7-4.2c-0.1,0.1-0.2,0.3-0.3,0.4c-2.7,3.3-5.9,6.5-8.9,9.5   c-4.4,4.4-9.1,8.5-14.2,12.1c-10.4,7.2-21.2,14-33.1,18.6c-7.9,3.1-16.2,5.3-24.6,6.9c-17.7,3.4-36.1,4.4-54,2.6   c-27.2-2.8-53.8-12.3-77.3-26.4c-0.6,0.9-1.1,1.9-1.7,2.8c-3.8,6.2-7.7,12.5-11.6,18.6c-1.6,2.5-3.2,5-4.8,7.5   c-3,4.5-9.5,13.4-8.2,11.4c-1.2,1.7-2.4,3.3-3.6,5c-8,11.1-16.3,22.1-24.7,32.9c-15.7,20-32.1,39.4-49.3,58.2   c-37.1,40.6-77,78.7-119.8,113.4c-43.2,35-88.7,66.9-136.2,95.8c-53,32.2-107.6,62.6-164.5,87.2c-59.8,25.8-125.9,44.2-191.7,46.5   c-4.2,8.8-9,17.2-14.3,25.2c-9.8,14.9-20.2,29.5-31.7,43.2c-6.8,8.1-13.8,16-20.9,23.7c12,1,24.1,1.4,36.2,1.4   c6.6-0.7,13.1-2,19.6-3.2c5.7-1,11.6-1.2,17.4-1.9c12.2-1.5,24.4-3.5,36.4-6.1c7.4-1.6,13.6,1.8,17,8.2c3.8,7.2-0.4,18.8-2.8,25.4   c-9.7,26.2-21.2,51.7-30.1,78.2c-7.1,23.3-13.2,46.7-23.8,68.7c-2.8,5.7-5.7,11.4-8.7,17c9-2.9,17.8-6.5,26.3-10.7   c9.8-5.3,19.4-11,29.3-16.1c-2.6,1.4-5.2,2.7-7.9,4.1c0.8-0.4,1.7-0.9,2.5-1.3c-1.4,0.7-2.7,1.4-4.1,2.1c1.4-0.7,2.8-1.5,4.2-2.2   c0.9-0.5,1.9-1,2.8-1.5c5.4-2.9,10.8-5.8,16.2-8.8c4.8-2.7,9.5-5.9,14.6-7.9c0.1-0.1,0.3-0.1,0.4-0.1c21.4-32.7,46-63.4,74.2-91.2   c3.1-3.1,15.2-15.2,20.8-10.5c5.6,4.7-4.2,18.7-6.8,22.3c-13.9,19.4-25.7,38.9-37.6,58.4c-49.1,81-75.2,171.4-91.6,264.3   c-9.5,53.4-17.2,107.2-28.6,160.3c-11.2,52.1-20.4,103.2-23.9,156.5c-13.4,206.6-5.2,419.1,69.6,614.4   c37.6,98.1,89.1,190,142.7,280.1c25.6,43.1,53.5,85.3,77.2,129.5c20.5,38.2,35.5,79.2,46.1,121.1c22.9,89.7,29,185.5,9,276.4   c-10.9,49.5-31.1,94.9-51.1,141.2c-5.3,12.2-10.4,24.4-15.1,36.8c-2.1,5.5-4.1,11-6,16.6c-0.4,1.2-4.4,14.3-3.7,11.4   c-2.8,10.3-5,20.8-6.4,31.4c-0.5,3.8-0.9,7.7-1.2,11.6c0.2-2.5-0.1,7-0.1,9.1c0.1,10.3,1,20.6,2.7,30.7c0.2,1,2.5,11.5,1.8,9   c1.1,3.9,2.3,7.9,3.7,11.7c6.7,18.7,15.1,32.6,27.2,43.9c15.9,14.9,34.8,22.5,56,26.6c6.4,1.2,12.8,2.1,19.2,2.8   c2,0.2,4.1,0.4,6.2,0.5c0.8,0,2.8,0.1,3.1,0.1c9.6,0.1,19.1-0.2,28.6-1.2c10-1,20-2.7,30-4.3c4.4-0.7,8.6-1.7,13-2.5   c1-0.2,1.5-0.2,1.6-0.2c2-0.6,3.9-1.3,5.8-1.9c17.4-5.9,33.9-13.8,49.2-24c7.9-5.2,11.6-8.4,18.4-14.6c1-0.9,1.6-1.5,2.1-1.9   c0.4-0.4,0.8-1,1.5-1.8c1.8-2.1,9.2-12.8,5.1-6.2c9.9-16,15.4-26.5,21-45.2c3.5-11.5,13.8-22.8,23.1-30.1   c1.6-1.3,18.6-12.8,18.7-3.1c0.2,19.7-2.7,37.1-9.6,55c3.8,3.6,7.5,7.4,11.6,10.6c7.2,5.6,14.8,11.1,21.5,17.2   c13.6,12.4,29.1,22.6,45.7,30.5c1.8,0.8,3.6,1.7,5.4,2.5c19.7,9,40.9,14.4,62.6,15.3c11.6-0.2,23.1-1.7,34.3-4.6   c7.5-2.2,14.8-4.9,21.8-8.1c1.4-0.7,2.8-1.3,4.2-2c2.8-1.6,5.5-3.2,8.2-5c3.1-2,6.2-4.1,9.2-6.2c0.5-0.4,1.1-0.8,1.6-1.2   c5.2-4.2,10.1-8.6,15-13.2c1.8-1.7,3.5-3.4,5.2-5.2c3.3-3.5,6.6-6.9,10-10.2c0.4-0.4,0.9-0.9,1.3-1.3c2.3-2.5,4.6-5,6.8-7.6   c4.8-5.5,9.5-11.2,14.1-16.9c2.5-3,4.9-6,7.2-9.1c1-1.3,1.9-2.5,2.9-3.8c3.4-4.7,6.9-9.4,10.6-13.9c1.7-2.1,3.6-4.2,5.5-6.2   c1-1.4,2-2.8,3-4.1c3.5-4.8,7.2-9.3,11.2-13.4c1.8-2.6,3.6-5.2,5.4-7.9c0.2-0.3,0.4-0.5,0.5-0.7c2-3,4.1-6,6.4-8.8   c3.5-4.2,7.5-8,11.5-11.8c1.6-1.5,8.7-8.3,10.3-3.8c1.2,3.4-0.2,6.5-1.3,9.7c-1.9,5.6-5.1,11.9-5.9,17.9c0.3-0.1,0.6-0.3,0.9-0.4   c-0.6,2.2-1.1,4.4-1.7,6.6c-0.3,0.7-0.6,1.5-0.9,2.2c-0.7,1.7-1.3,3.4-2,5c-2.2,5.5-3.9,11.1-6.1,16.5   c-8.4,20.8-19.7,40.6-31.9,59.3c-0.3,0.5-0.6,0.9-0.9,1.3c5,1.4,9.6,4.4,14.3,6.6c-1.8-0.8-3.7-1.7-5.5-2.5   c8.2,3.7,15.9,8.1,23.9,12.1c26.7,12.2,56.1,20.2,85.5,22c16.1,0.2,32.1-1.5,47.8-5.1c12.8-3.7,25.3-8.6,37.2-14.6   c-3.3,1.7-6.5,3.3-9.8,5c4.3-2.2,8.7-4.4,13.1-6.6c5.5-2.9,10.8-5.9,16-9.3c2.8-1.8,5.5-3.6,8.1-5.5c1.4-1,2.9-2.1,4.3-3.1   c1.9-1.4,1.4-1,0,0.1c3.1-2.3,6.3-4.6,9.4-6.9c0.3-0.3,1.8-1.4,5.3-3.9c2.6-2,5.1-4.1,7.7-6.1c3.2-1.9,5.5-3.3,6.9-4   c4.3-3.5,8.4-6.6,13.1-9.1c5-4,10.3-8.4,16.2-9.9c3.3-0.8,8.1-1.3,9,3.3c1,5-0.7,10.7-2.9,15.3c-0.6,1.8-0.7,1.7-0.4-0.4   c-0.4,2.4-0.9,4.8-1.5,7.1c-0.5,1.8-1.2,3.6-1.9,5.3c12,3.2,24.1,5.7,36.4,7c3.7,0.4,7.4,0.7,11.2,0.9c2.3,0.1,4.7,0.2,7,0.3   c0.2,0,0.6,0,1.2-0.1c5.2-0.3,10.4-0.1,15.7,0.3c2.2,0.2,4.4,0.3,6.7,0.5c0.1,0,0.4,0,0.8,0.1c1.2,0,4.2,0.1,4.7,0.1   c1.8,0,3.5-0.1,5.3-0.1c3.1-0.1,6.2-0.3,9.3-0.6c5.7-0.5,11.3-1.5,16.9-2.5c0.3-0.1,0.7-0.3,1.2-0.4c1.2-0.5,2.4-0.8,3.7-1.3   c2.6-0.9,5.2-2,7.8-3c2.6-1,5.2-2,7.7-3.1c1.6-0.7,5.1-3.4,1.2-0.5c-4.6,3.5,1.2-0.7,2.1-1.2c5.5-3.1,10.7-6.5,16-10   c0.2-0.1,0.5-0.3,0.8-0.5c1.3-1,2.9-2.3,3.7-2.9c2-1.7,4-3.5,6-5.3c2.4-2.8,4.6-5.6,6.9-8.5c0.3-0.5,0.6-0.9,0.9-1.4   c1.1-1.8,2.1-3.7,3.1-5.5c1-2.3,1.9-4.6,2.7-7c0.7-2,1.4-4.1,2.1-6.2c0.4-1.6,0.8-3.4,1-4c1.4-6.4,2.4-12.8,3.1-19.3   c0.2-1.7,0.3-3.3,0.4-5c0-1.6,0.1-5.4,0.1-6.5c-0.1-6.1-0.4-12.1-1-18.2c-1.1-11.4-3.2-22.6-5.8-33.8c-2.9-10.2-6.2-20.3-10.1-30.2   c-17.8-45.5-45.1-85.1-73.7-124.4c-31.2-42.9-62-86.1-93.3-128.8c-56.6-77.1-114.3-153.7-164.4-235.3   c-49.8-81.1-92.2-167.8-115.4-260.6c-25.2-100.9-32.6-205.4-22.9-308.9c5-54,15.7-107.4,30-159.6c7.2-26,17.3-51,27.3-76.1   c2.1-5.2,4.5-10.2,6.8-15.3c0.4-0.9,3.4-7.2,2-4.1c2.7-5.9,4.4-10,7.7-17.7c1.6-3.8,3.2-7.4,5.4-10.9c2.4-3.8,2.8-4.4,1-2   c0.2-0.4,0.5-0.9,0.7-1.3c0.9-2.3,2.5-4.5,3.5-6.6c2.6-5.2,4.9-10.7,7.3-16.1c5.3-11.4,14.3-23,24.9-29.7c1.8-1.1,7.1-4.5,9.7-2.4   c2.6,2.2,0.1,7.9-0.6,10c-5.1,14.4-8.3,29-12.6,43.6c-1.7,5.7-3,11.7-4.6,19.8c-1.9,9.3-4.4,18.5-6.4,27.8   c-3.3,15.3-5.8,30.8-9.1,46.1c-7.3,33-13,66.4-16.6,100c-7.1,65.8-9.5,132-4,198c5.3,63.6,17.3,126.5,37.6,187.1   c19.6,58.6,46.3,114.6,77,168.1c62.4,108.6,140.6,206.9,215,307.3c21.3,28.8,42.5,57.6,63.6,86.5c19,26.1,38.6,51.9,54.9,79.8   c9.7,16.6,18.4,33.9,25.7,51.7c0.2-0.1,0.5-0.3,0.7-0.4c5.2-2.5,11.5-4.4,16.7-1c6.4,4.2,13.1,7.9,20.1,11   c20.4,8.2,42.2,11.7,64.1,11c11-0.9,21.8-2.8,32.5-5.2c2.5-4.8,4.9-9.7,7.3-14.5c9.5-19.4,18.8-38.9,28.1-58.3   c19.4-40.7,39.1-81.3,60-121.3c37.8-72.3,81.3-141.5,123.5-211.2c21.1-34.9,42.1-69.9,62.3-105.3c9.8-17.3,19.6-34.6,29.2-52   c2.7-5,5.4-10,8.1-15c0.9-1.7,1.8-3.4,2.7-5.1c1.6-5.4,2.4-6.1,2.3-5.1c1.4-2.5,3-5,4.2-7.4c2.4-4.6,4.7-9.3,7-13.9   c17.9-36,34.4-72.8,48.8-110.4c3.4-8.9,6.6-17.8,9.8-26.8c0-0.1,0-0.1,0.1-0.2c0-0.1,0.1-0.2,0.1-0.4c0.5-1.7,1.1-3.3,1.6-5   c1.3-4.1,2.7-8.3,4-12.4c5.6-18,10.3-36.1,14.9-54.3c4.6-18.3,8.8-36.8,12.3-55.4c1-5.2,1.9-10.4,2.7-15.6c0.1-0.9,0.3-1.8,0.4-2.7   c0-0.2,0.7-4.7,0.8-5.3c1.2-8.7,2.3-17.4,3.2-26.2c3.9-37.3,4.6-74.8,2.8-112.3c-3.5-73.4-21.8-147.5-56.8-212.2   c-6.1-11.2,28.6-44.6,32.5-38.8c7.1,10.4,13.8,21.1,20,32.1c25,44.3,43,92,52.8,141.8c10.1,51.3,12.4,103.8,8.9,155.9   c-3.6,53.5-12.6,106.7-27.2,158.3c-15.7,55.3-36.5,109.1-60.5,161.2c-48.8,106.1-110.2,205.2-170.4,304.9   c-14.7,24.4-29.4,48.8-43.7,73.4c-7.2,12.3-14.3,24.7-21.3,37.2c-3.9,7-7.8,14.1-11.6,21.2c-1.9,3.5-3.8,7.1-5.7,10.6   c-0.6,1.2-4.1,7.8-4,7.6c-0.2,0.4-0.4,0.7-0.4,0.8c-0.7,1.3-1.4,2.7-2.1,4c-1.6,3.1-3.2,6.3-4.8,9.4c-3.4,6.7-6.8,13.5-10.1,20.2   c-6.7,13.5-13.2,27.1-19.7,40.7c-13,27.2-25.9,54.4-39.1,81.5c-11.3,23.2-24.6,45.9-33.2,70.4c-0.3,1.1-0.7,2.2-1,3   c-0.7,2.5-1.4,5-2,7.5c-1.3,5.2-2.5,10.4-3.4,15.6c-1.1,6.1-2.1,12.1-2.8,18.3c-0.1,1.1-0.2,2.3-0.4,3.5c0.1-0.5,0.2-1,0.2-1.5   c0-0.2,0-0.4,0-0.6c0.1-1.9,0.9-5.8,0,0.6c-0.2,2.9-0.4,5.8-0.5,8.7c-0.5,11.6-0.2,23.3,1,34.9c0.6,5.8,1.3,11.5,2.3,17.2   c0.5,2.6,1.9,8.3,0.4,2.6c0.8,3,1.4,6,2.2,8.9c5.3,20.3,13.7,39.6,25.5,56.9c14.1,18.4,32,32.8,52.5,43.4   c14.9,6.8,30.6,11.6,46.8,14.4c8.2,1.4,16.5,2.2,24.8,2.7c0.3,0,0.5,0,0.7,0c0.2,0,0.4,0,0.7,0c1.5,0,3,0,4.6,0   c4.5-0.1,9.1-0.3,13.6-0.7c7.5-0.6,15-1.6,22.5-3c3.7-0.7,7.4-1.4,11-2.3c0.6-0.1,7.8-1.7,2.4-0.5c-5.6,1.2,2.3-0.7,2.9-0.9   c7.9-2.5,15.8-5.3,23.4-8.5c3.8-1.6,7.6-3.3,11.3-5.1c1.4-0.7,2.9-1.4,4.3-2.1c1.8-2.5,8.1-4.5,10.7-6.1c3.6-2.2,7.1-4.4,10.6-6.7   c3.5-2.3,6.9-4.7,10.3-7.1c0.9-0.7,3.9-2.9,5.8-4.3c1.3-1.1,2.7-2.2,3.2-2.5c1.3-1.1,2.6-2.1,3.9-3.2c3.2-2.7,6.4-5.5,9.5-8.3   c5.7-5.1,11.2-10.3,16.5-15.7c0.6-0.6,1.1-1.1,1.7-1.7c0.7-0.8,1.4-1.5,2.1-2.3c2.9-3.1,5.7-6.2,8.5-9.4c5-5.7,10-11.5,14.9-17.3   c5.6-6.6,11-13.4,16.3-20.4c1-1.4,1.9-2.7,2.9-4.1c2.5-3.7,5-7.5,7.4-11.3c2.7-4.1,5.4-8.3,8-12.5c0.5-0.8,1.2-1.8,1.9-2.8   c0.1-0.4,0.3-0.8,0.6-1.3c4.1-8.1,8.2-16.2,12.1-24.3c0.1-0.3,2-4.3,2.3-4.8c0.6-1.5,1.2-3.1,1.7-4.7c1.4-3.9,2.8-7.9,3.9-12   c2.4-8.5,4.1-17.2,5.4-25.9c1.5-10.4,11.8-21.2,19.2-28c1.9-1.8,15.7-14.1,17.4-5.8c3.4,16.7,3.4,33.9,1,50.8   c-6.3,44.2-28.7,85.2-54.3,121.2c-1.7,2.4-3.5,4.9-5.3,7.3c2.3,4.9,5,9.6,7.9,14.2c2,3,4,5.9,5.9,8.9c16.7,24.7,40.9,44,67.5,57.3   c18.3,8,37.7,12.3,57.6,13.2c15.3-0.1,30.4-2.2,45.1-5.9c11.9-3.7,23.6-8.3,34.8-13.8c7.9-4.4,15.5-9.2,22.9-14.5   c0.1-0.1,0.2-0.2,0.4-0.3c1.1-0.9,2.3-1.8,3.4-2.8c3.8-3.2,7.6-6.5,11.2-10c0.8-0.8,1.7-1.6,2.5-2.4c2.9-3.1,5.7-6.4,8.4-9.6   c2.5-3,4.8-6,7.2-9.1c1.1-1.7,2.3-3.3,3.4-5c5.3-8,10.5-16.2,15.4-24.5c2.3-3.8,4.2-7.8,6.5-11.6c0.8-1.6,1.6-3.2,2.3-4.7   c4.1-8.6,7.6-17.4,11.3-26.2c2-4.7,4.3-9.3,6.3-14c0.9-2.1,1.8-4.2,2.6-6.3c0.4-1.1,0.8-2.1,1.3-3.2c0.1-0.1,0.1-0.3,0.2-0.4   c2.2-6.3,4.3-12.8,7.2-18.7c1.1-2.3,2.4-4.4,3.7-6.6c0-0.1,0.1-0.3,0.2-0.5c1.2-3,2.7-6,4.2-8.9c1.5-3.1,3.2-6.1,4.9-9   c0,0,0.1-0.1,0.1-0.2c-2.1,2.4,3.6-5.9,4.1-6.7c4.9-7.6,11.7-15.9,19.5-20.8c1.8-1.1,4.6-3.1,6.8-3c2.8,0.1,2.8,1.9,4.1,4.5   c-0.4-0.8-0.8-1.5-1.1-2.3c3.3,6.4,3.7,12.8,4,19.8c0.9,6.3,0.7,12-0.2,18.3c-1.3,9.8-2.8,19.6-4.5,29.3   c-2.5,14.4-7.5,28.3-12.4,42.1c-9,25.2-20.6,49.9-35.9,71.8c-1,1.4-2,2.9-3.1,4.3c11.1,6.4,22.6,12,34.5,16.9   c19.7,7.5,40.5,12.9,61.2,17c19.8,3.9,40.2,5.9,60.3,6.4c21.8-0.2,43.4-2.8,64.5-8.1c9.5-2.8,18.7-6.3,27.6-10.5   c3.7-2,7.3-4.1,10.8-6.5c1.8-1.6,3.5-3.2,5.3-4.8c0.2-0.2,0.3-0.4,0.5-0.6c0.7-0.9,1.4-1.8,2.1-2.7c0.3-0.4,0.5-0.8,0.8-1.1   c1.4-2.2,2.7-4.3,4.1-6.5c2.6-4.3,5-8.8,7.3-13.3c1.9-3.7,3.8-7.4,5.8-11.1c0.2-0.3,0.3-0.7,0.5-1c3.3-6.9,6.4-13.9,9.1-21   c1.1-2.8,4.4-13.3,2.7-7.5c0.6-2.1,1.3-4.2,1.9-6.4c0.9-3.3,2-6.6,3.2-9.8c0.2-0.6,0.3-1.2,0.5-1.8c1.5-5.1,3.2-9.9,5.3-14.6   c1.4-5.3,2.7-10.7,4.8-15.8c0.6-1.6,1.2-3.2,2-4.7c0.2-0.9,0.4-1.9,0.6-2.8c0.3-1.4,0.5-2.8,0.8-4.1c0.4-2,1-4,1.7-5.9   c0.5-0.9,1.1-1.7,1.6-2.6c2.1-9.1,9.6-17.5,15.9-24c3.1-3.2,11.7-12.3,17.2-9.8c3.7,1.7,4.8,4.1,6.3,7.9c1,2.5,1.7,5.1,2.8,7.6   c1.5,2.3,2.7,4.6,3.1,7.5c0.5,3.8,1,7.8,1.3,11.7c3.6,11.4,1.1,26.1-1,37.4c-1.7,9-3.9,17.9-6.6,26.7   c-7.6,24.9-16.9,48.3-30.2,70.8c-5.9,9.9-12.5,19.4-19.8,28.4c2,1.2,3.9,2.3,5.9,3.5c30.3,18.3,68.9,16.8,103,12.4   c25.4-3.3,45.6-14.7,66.6-28.6c5.8-3.8,5.9-3.6,10.1-7.1c1.6-1.4,7.4-7.2,6.5-6c0.9-1.1,1.8-2.1,2.7-3.2c0.1-0.1,0.1-0.1,0.2-0.2   c0.9-1.4,1.8-2.8,2.6-4.3c1-2.6,3.6-9.8,3.2-7.7c0.9-3.3,1.5-6.7,2.1-10c1.3-8.1,1.3-8.6,0.9-18.5c-0.7-18.6-4.7-36.6-10.5-54.2   c-12.2-36.9-29.5-71.8-46.6-106.7c-47.8-97.4-75.5-201.7-78.9-310.4c-3.4-111.4,15.3-221.1,45.8-327.9   c60.6-212.2,178.2-405.5,197.3-629.1c16.3-190.6-68.4-371.7-67-561.5c0.8-102,28.2-202.2,92.7-282.8c33.5-41.8,76.6-74.7,121-104.1   c20-13.2,40.4-25.8,60.5-38.8c1.6-1.1,3.3-2.1,4.9-3.2c-173-17-336.5-96.3-460.4-218.2c-22.4-22.1,22.1-75.8,46.9-75.4   c85.1,1.6,170.7-11,251.3-38.4c-31.1-10.9-61.3-24.1-90.5-39.6c-99.8-52.7-183.1-131.5-240-229   C6480.4,4720.9,6453.6,4619.2,6453,4514.2z M5806.4,6027.5c-49.9,76.2-123.5,131.4-199.3,179.8c-17.8,11.4-35.8,22.4-53.8,33.5   c-8.9,5.5-17.6,11.1-26.3,17c-0.1,0-0.1,0.1-0.2,0.1c-1,0.7-2,1.4-3,2.1c-1.9,1.4-3.8,2.7-5.8,4.1c-4.2,3.1-8.4,6.2-12.5,9.4   c-8.6,6.7-16.8,13.8-24.9,21.1c-2.3,2.1-4.5,4.2-6.8,6.4c-0.3,0.3-0.5,0.6-0.8,0.8c-3.5,3.7-6.9,7.5-10.1,11.4   c-3.5,4.2-6.6,8.7-10,13c-0.6,0.7-1.1,1.5-1.7,2.2c-1.4,2.9-2,3.8-2.1,3.5c-0.5,0.8-0.9,1.6-1.3,2.3c0,0,0,0.1-0.1,0.1   c-1.2,2.6-2.4,5.2-4,7.7c-0.8,1.2-1.5,2.1-2.1,3c-0.1,0.1-0.2,0.2-0.3,0.4c-0.6,0.9-1.3,1.9-1.9,2.8c-3,4.7-4.9,7.6-7,11.1   c-0.9,2.8-1.8,5.6-2.5,8.6c-1.5,6.5-6.1,12.3-11,16.6c-0.9,0.8-7.6,6.1-10,4.5c-1.2,1.2-2.4,2.2-3.5,3.1c-2.9,2.2-10.1,6.2-9.5-0.5   c0.1-1.7-1-5.3-1.5-7.3c-0.6-2.6,0.2-1.3-1.3-3.9c-0.5-0.9-0.9-1.9-1.3-2.8c-2.5-4.8-5.1-9.5-7.9-14.1c-2.9-4.8-5.8-9.9-8.1-15.1   c-0.8-1.3-0.8-1.4,0.2-0.2c-0.8-1.1-1.6-2.1-2.4-3.2c-0.3-0.5-0.7-1-1-1.4c-1.2-1.5-0.9-1.3,0.7,0.8c-0.1-1-2.3-2.8-2.9-3.6   c-0.9-1.1-1.8-2.3-2.7-3.4c-23.8-29.8-57.7-51.3-90.8-69.6c-6.6-3.6-13.2-7-19.9-10.4c-66.6-33.8-134.5-65.8-194.3-111.1   c-29.9-22.6-56.7-48.5-79.6-78.2c-23.3-30.2-39.9-64.1-50.6-100.6c-11.4-38.9-15.1-80.9-9.5-121.1c5.8-41.2,20.8-81.8,43.4-116.8   c23.4-36.2,54.5-68.4,92.5-89.4c18.7-10.4,38.3-17.8,59.1-22.5c23.4-5.3,48.1-5.3,71.8-2.4c24.9,3,49.2,10,72.5,19.3   c22,8.8,43.3,19.3,62.9,32.6c17.1,11.6,33.1,25.1,46.1,41.3c6.9,8.6,12,18.7,16.6,28.6c0.4,0.8,0.8,1.7,1.1,2.6   c3.7-7.7,7.9-15.1,13-22.1c8.4-11.5,17.7-22.2,27.9-32.2c18.6-18.2,39.8-33.6,62.3-46.6c49.3-28.5,105.4-48.5,163.1-42.9   c90,8.8,162.4,83.8,189.7,166.7C5874.1,5850.8,5857,5950.3,5806.4,6027.5z" id="61" style="fill:#FFFFFF;"/>
	<path d="M6013,4508.6c4.3,38.2,4.4,78.1-5,115.6c-6.1,24.3-14.4,47.7-24.9,70.2c7.1-1.7,14.1-3.5,21.2-5.4   c13.3-3.5,26.1-8.4,39.3-12.1c26-7.3,51.7-15.5,77-24.7c2.8-1,5.7-2.1,8.5-3.1c1.5-0.6,11.1-4.5,3.7-1.4c5-2.1,10.1-3.9,15.1-5.9   c11.1-4.5,22.2-8.9,33.2-13.5c11-4.7,22.1-9.3,32.7-14.6c10.5-5.3,20.8-10.9,31.3-16c10.4-5,20.7-10.2,30.9-15.5   c5.2-2.7,10.4-5.5,15.6-8.3c2.6-1.4,5.2-2.8,7.8-4.3c0.6-0.3,1.1-0.6,1.7-0.9c19.7-11.3,39-23.1,57.9-35.6   c9.7-6.5,19.3-13.2,28.7-20c4.7-3.4,9.4-6.8,14-10.3c0.5-0.4,0.9-0.7,1.4-1.1c0.7-0.6,1.8-1.4,3.3-2.5c0.4-0.3,0.8-0.7,1.2-1   c8.7-7.1,17-14.6,25-22.4c2.8-2.8,12-12.9,0.5-0.3c1.7-1.9,3.5-3.8,5.2-5.7c3.6-4.1,7.2-8.2,10.6-12.5c1.1-1.3,2.1-2.7,3.2-4.1   c1.1-1.4,4.8-6.4-0.2,0.4c-7.3,9.9,5-6.7,7.5-10c0.1-0.2,0.3-0.3,0.4-0.5c1.4-2,2.8-4,4.2-6.1c1.6-2.4,3.1-4.9,4.6-7.3   c0.1-0.2,0.4-0.7,0.7-1.1c2.4-4.5,4.7-9.1,6.8-13.7c0.3-0.7,0.6-1.3,0.9-2c0.3-0.7,0.5-1.4,0.8-2c0.9-2.5,1.8-4.9,2.6-7.4   c1.8-5.3,3.3-10.7,4.9-16c0.5-1.5,1.4-3.6,1.5-5.2c0,0.1,0,0.2,0,0.4c0-0.4,0.1-0.8,0.2-1c0.6-2.7,1.2-5.4,1.7-8.1   c1-5.5,1.8-11.1,2.2-16.6c-156.2,53.9-322.4,87.6-487.4,93.7C6007.6,4469.7,6010.8,4489.1,6013,4508.6z" id="62" style="fill:#FFFFFF;"/>
	<path d="M5787.1,5978.5c0.1-0.2,1-2,1.5-3c0.1-0.2,0.1-0.3,0.2-0.5c-0.2,0.5-0.5,1-0.7,1.5   C5787.7,5977.2,5787.4,5977.9,5787.1,5978.5z" id="63" style="fill:#FFFFFF;"/>
	<path d="M6153.7,1032.9c-0.2,0.2-0.4,0.5-0.5,0.7c0.6-0.8,1.3-1.6,1.8-2.4   C6154.6,1031.8,6154.2,1032.3,6153.7,1032.9z" id="64" style="fill:#FFFFFF;"/>
	<path d="M6155.2,1031c0,0.1-0.1,0.2-0.2,0.3c0,0,0.1-0.1,0.1-0.1C6155.1,1031.1,6155.1,1031,6155.2,1031z" id="65" style="fill:#FFFFFF;"/>
	<path d="M4139.1,7575.9c0.2-0.6,0.5-1.7,0.8-2.7C4139.7,7574.2,4139.4,7575,4139.1,7575.9z" id="66" style="fill:#FFFFFF;"/>
	<path d="M6508.7,7757.1c0.2-0.7,0.3-1.3,0.5-2c0,0,0,0.1-0.1,0.1C6509,7755.9,6508.9,7756.5,6508.7,7757.1z" id="67" style="fill:#FFFFFF;"/>
	<path d="M7465.8,2369.1c-62.8-6.8-126-9.4-189.1-7c-97.6,3.7-194.9,19.3-288.3,48.1   c-93.7,28.9-183.3,71.9-262.5,129.9c-2.8,2-9,6.1-8.6-0.3c0.3-6.1,7.2-13.4,11.8-16.8c10.8-8.1,21.8-16,32.9-23.6   c81.4-55.6,172.2-96.8,266.7-124.4c96.3-28.2,196.7-42,296.9-44.2c37.7-0.8,75.3,0.1,112.8,2.6c-7.4-10.1-14.4-20.4-20.7-31.2   c-19.7-33.6-26.3-73.1-23.7-111.7c1.4-20.4,4.2-41.3,9.2-61.1c1.2-4.7,3.2-9.3,4.6-13.9c0-0.3,0.1-1.6,0.7-4.9   c1.6-10.2,6-20.2,9.9-29.8c5.8-14.4,18.2-30.8,5.2-44.2c-11.5-11.8-30.6-17.8-45-25.1c-31-15.9-66-33.2-90.2-58.9   c-29.4-31.2-19-75.4-3.7-111.2c15.7-36.6,41.6-68.5,67.5-98.5c11.6-13.4,24-26.5,34.4-40.9c-46.1,6.8-89.8,18.6-132.4,40.3   c-42.3,21.5-76.5,52-109.8,85.2c-17.5,17.4-45.9,39.4-71.7,26.6c-21-10.4-22.1-38.4-23.4-58.8c-3.3-51.9,14.5-104.3,35.4-147.7   c15.1-31.3,32.6-61.2,50.8-90.7c-56.6,14.8-101.9,51.6-151.8,84.4c-61.7,40.5-129.8,72.8-186,121.1c-11.1,9.5-40.7,26.2-42.6-0.6   c-8-112.1,78.9-205.5,152.5-278.7c52.9-52.6,109.2-101.7,168.3-147.4c-10.7-1.7-21.4-3.4-32.1-5c-37.9-5.5-77.3,4.4-115.1,8.7   c-40.5,4.6-78.9,12.5-118,24c-33.3,9.8-66.4,20-100.5,25.7c3.7,0.5,1.1,0.4-1.4,0.2c-1.8,0.3-3.5,0.6-5.3,0.9   c-2.2,0.4-4.5,0.7-6.8,1c-6.8,0.9-11.4-1.2-14-5c-3.2-4.4-3.8-11.1-2.3-18c8.9-42.4,21.6-84.4,40.5-123.4c8-16.5,17-33.7,27.2-50.1   c-43.2,18.1-86.5,35.9-128.7,56.3c-31.6,15.2-63.2,31.4-91.2,52.9c-21.8,16.7-36.2,33-49.7,56.4c-7.5,12.9-29.8,37-47.6,32.3   c-19.1-5-7.2-31.2-1-41.9c4.2-7.3,8.7-14.4,13.5-21.2c1.3-5.7,2.6-11.4,3.9-17.1c0.6-2.4,0.8-5.7,2-7.9c0.1-0.3,0.1-0.5,0.2-0.8   c1.3-5.1,2.6-10.1,3.9-15.2c1.2-4.7,2.5-9.4,3.7-14c6-22,12.5-43.9,21.2-65c17.4-42.3,37.6-83.1,60.8-122.5   c45.9-78,101.1-150.8,162.7-217.1c65.4-70.4,138.4-133.2,216-189.7c36.5-26.6,74.1-51.6,112.6-75.1c19.1-11.7,38.5-23,58.1-34   c3-1.7,6-3.4,9.1-5c1-0.6,2-1.1,3-1.7c10.4-5.7,11.4-6.3,3-1.7c1.4-0.8,2.9-1.6,4.3-2.4c5.9-3.3,12-6.4,18-9.5   c10.2-5.3,20.4-10.4,30.7-15.5c31.1-15.4,62.7-29.9,94.5-43.7c-7.3,1.6-14.7,3.2-22,4.9c-13.6,3.2-26.9,7.6-40.6,10.6   c-52.8,11.7-105.5,24.6-157.4,39.9c-12.9,3.8-25.4,8.5-38.3,12.3c-13,3.8-26,7.7-39,11.7c-25.5,7.9-50.9,16.1-76.2,24.8   c-2,0.7-4.1,1.4-6.1,2.1c-0.2,0.1-0.5,0.2-0.7,0.3c-3.1,1.1-6.2,2.2-9.3,3.3c-5.8,2-11.6,4.1-17.4,6.2c-12.7,4.5-25.5,9-38.1,13.7   c-25,9.2-49.8,18.8-74.5,28.7c-90.9,36.7-179.7,78.3-265.2,126.3c-10.1,5.6-20,11.4-30,17.3c-4.7,2.8-9.3,5.6-13.9,8.3   c3.3-2-2.8,1.7-4,2.5c-2.4,1.5-4.8,2.9-7.1,4.4c-19.5,12.2-38.8,24.9-57.6,38.2c-18.5,13-36.6,26.5-54.2,40.5   c-4.6,3.7-9.2,7.4-13.7,11.1c-2.1,1.8-4.3,3.5-6.4,5.3c-0.5,0.4-1,0.9-1.5,1.3c-8.2,7.1-16.4,14.2-24.5,21.6   c-16.7,15.2-32.8,31.1-48.4,47.5c-0.5,0.6-1,1.1-1.5,1.7c-1.6,1.8-3.2,3.6-4.9,5.3c-5.1,5.7-10.4,11.2-15.8,16.6   c-0.5,0.9-2.2,2.5-2.6,2.9c-1.6,1.8-3.1,3.7-4.7,5.5c-3.5,4.2-7,8.4-10.5,12.7c-3.2,4-6.3,8-9.5,12c-3,5.4-2.9,4.1-1.9,2.5   c-0.2,0.2-0.4,0.5-0.5,0.7c-1.7,2.2-3.3,4.4-4.9,6.7c-6.5,8.9-12.8,18-18.9,27.2c-3.2,4.8-6.3,9.7-9.4,14.6   c-0.6,0.9-1.2,1.9-1.7,2.8c-1.4,2.4-2.9,4.8-4.3,7.2c-3.8,6.4-7.4,12.8-11,19.3c0.2,0.8,0.3,1.5,0.5,2.2c1.1,4.5-2.3,11.4-4.3,15   c-2.6,4.6-5.6,8.8-8.9,12.9c-5.2,6.4-15.8,17.9-25.2,17.8c-3.8,0-8.1,0.5-11.6-0.9c-3.1-1.2-5.8-3.2-8.6-4.9c-4.9-3-9.9-6-14.9-8.9   c-9-5.2-18.2-9.9-27.3-14.8c-8.5-0.6-15.7-5.4-23.1-9.2c-5.2-2.7-10.4-5.3-15.7-7.8c-17.9-8.3-36.2-15.4-54.6-22.5   c-66-25.3-136.4-39.7-207-42.5c-16.6-0.4-33.1-0.2-49.7,0.7c-63.6,3.3-127.1,14.6-188,33.5c-14.9,4.8-29.6,10.4-44.5,15.3   c2.5-0.8,5-1.7,7.5-2.5c-26.2,9-51.9,19.6-77.4,30.6c-12.2,5.2-24.2,10.8-36.1,16.6c-8.9,8.8-21.8,17.5-32.9,14.3   c-2.3,0.8-4.6,1.5-7,2.2c-3.7,1-2.7-3.7-1.7-6.7c-12.2-7.1-25.3-13.6-36-22.7c-11.6-9.9-23.3-19.6-35.2-29.1   c-83.5-67-174.4-125.5-269.1-175.5c-101.2-52.6-207-96.1-315.9-130c-105.6-32.9-213.8-57.2-323-74.5   c-104.6-16.6-210.6-28.4-316.4-33.5c-97.4-4.7-194.1-1.7-290.9,9.5c-37.8,4.4-75.4,10.5-112.4,19.1c24.4,2.6,48.6,6.5,72.7,11.5   c50.6,10.5,101,25,149.6,42.7c86.5,31.4,171,69.2,253,111c83.9,42.7,164.8,91.3,242.7,144.1c76.4,51.8,149.1,108.2,218.4,169.2   c17.2,15.1,34.5,30.3,51,46.2c8,7.8,15.3,16.4,22.8,24.7c8,8.8,16.2,17.4,24.3,26c15.8,16.8,31.4,33.8,46.8,51   c7.4,8.4,14.8,16.8,22.2,25.2c8.6,9.9,14.1,22.5,20.3,34c1.2,2.3,1.1,5.3,0.4,8.3c4.5,9.9-2.8,25.4-8,34.2   c-5.6,9.5-14.8,19.1-24,25.1c-5.2,3.4-16.6,9.6-23.6,7.2c-95.5-33.4-196.3-44.8-295-65.3c-56.6-11.7-113.8-25-171.2-29.5   c10.5,8,20.8,16.2,31.1,24.5c62.2,50.1,123.3,104,176,164.2c46.8,53.4,86.9,117.5,85,190.7c3.2,5.1,5.6,11.1,5.8,16.2   c1,23.5-22.8,47.6-41.9,57.1c-16.7,8.3-25.3-3.4-33.6-15c-61.9-48.5-131.5-85.4-197.2-128.4c-27-17.6-52.8-37.4-80.4-54   c18.8,37.8,36.5,76.7,48.1,117.3c13.8,48,14.6,94.8-24.3,131.9c-16,15.3-42.6,28.7-65.3,20.9c-15.2-5.2-25.6-18.5-35.6-30.3   c-11.8-13.8-25.3-25.4-39.5-36.7c-34.7-27.5-73.8-50.2-115.5-66.1c7.9,9.4,15.6,18.8,23,28.6c21.1,28.2,40.2,58.6,43,94.6   c3.3,44.1-23.6,85.7-56.5,112.8c-30.1,24.7-65.4,39.2-100,56.4c-0.5,0.2-0.9,0.4-1.2,0.6c0,0.7,0,1.1,0,1.3c0-0.2,0.2-0.3,0.7,1.6   c1.7,6.9,4,13.7,6.4,20.4c13.3,37.7,24.7,75.7,23.2,116.2c-3.2,84.5-52.8,153.2-101.1,218.7c-1.2,1.6-7,9.6-7.2,9.9   c-2,2.7-3.9,5.4-5.9,8.2c-5.6,7.9-11.2,15.9-16.6,24c-12.8,19.3-24.7,39.2-36.3,59.2c-11,18.9-21.3,37.7-31.1,57.2   c12.2-3,24.3-5.8,36.5-8.5c106.9-23.7,215.9-37.9,325.3-42.7c109.1-4.7,218.2,1.5,326.2,17.5c27.3,4,54.4,8.7,81.5,14   c26.6,5.2,52.5,12,78.8,18.8c52.1,13.4,103.9,28.7,154.1,48.2c0.9,0.3-7.7,14.8-11.5,13.7c-13.1-3.8-26.3-7.3-39.4-11.1   c-26.1-7.5-52.3-14.5-78.7-20.7c-26.4-6.3-52.9-11.1-79.6-16c-53.7-10.1-107.5-19.4-162-24.7c-108.3-10.5-217-13.8-325.7-7.3   c-107.6,6.5-214.4,22.7-319.3,47.5c-5.6,12.2-11,24.8-16.3,37.8c-24.7,61.5-39.1,126.7-44.7,193.1c7.1-2.2,14.3-4.5,21.4-6.6   c104.2-31.5,210.8-55.9,318-74.7c112.2-19.7,225.6-32.4,339.4-37.8c56.4-2.7,112.7-3.2,169.1-2.3c56.6,0.8,113.5,2,169.6,9.2   c4.1,0.5-8.3,19.1-13.7,19c-14.3-0.1-28.6,0.2-43-0.4c-112.5-4.6-225.4-2.1-337.7,6c-112.5,8.2-224.6,22.2-335.5,42.6   c-97.4,17.9-194.5,40.1-289.3,68.9c-1,18-1.3,36.1-1.1,54.2c1.5,116.9,24.7,232.6,60,344.5c14.1-9.5,28.3-18.8,42.6-27.9   c91.1-57.9,186.7-109,285.9-151.6c98.9-42.4,201.1-77.2,305.5-103.7c103.4-26.3,209.2-42.6,315.3-51.8   c52.9-4.6,106.5-8.1,159.6-7.3c26.2,0.4,52.4,1.5,78.5,2.6c20.4,0.9,40.8,1.7,61.1,3.9c-6.5-12.1-12.5-24.5-18-37   c-1.8-4.2,2.4-11.1,4.3-14.8c3.6-7,8.9-13.2,14.3-18.7c3.9-4,9.9-9.2,15.4-10.9c4.1-1.3,6.3-0.9,8.1,2.8c2.5,5.1,5.2,10.1,7.9,15.1   c11.6,21,25.5,40.3,40.3,59.2c52.7,67.6,122.8,121.9,200.9,157.1c1.9,0.9,3.9,1.7,5.8,2.6c-1.7-0.8-3.4-1.5-5.1-2.3   c13.7,6.1,27.6,11.7,41.8,16.6c49.6,17.2,101.8,26.4,154.3,26.9c45.5-0.4,90.4-7.5,134.3-19.6c35.5-10.5,69.8-24.5,102.7-41.5   c26.9-14.5,52.7-30.8,77.4-48.8c2.9-2.1,5.8-4.2,8.6-6.4c0.5-0.4,1.1-0.8,1.6-1.2c4.3-3.3,8.6-6.6,12.9-9.9   c1.2-0.9,2.4-1.9,3.6-2.8c11.2-8.9,22.2-18,33-27.5c10.5-9.3,20.8-18.9,30.8-28.7c4.4-4.3,8.7-8.7,13.1-13.2   c0.7-0.8,1.5-1.6,2.2-2.4c2.3-2.4,4.5-4.9,6.8-7.3c7.1-7.7,14.6-14.9,22.1-22.2c0.8-0.8,1.6-1.5,2.3-2.3c1.8-2.1,3.6-4.2,5.4-6.3   c9-10.6,17.7-21.5,26.2-32.6c0.8-1.1,1.6-2.1,2.4-3.2c1.6-2.2,3.3-4.5,4.9-6.7c4-5.5,7.9-11.1,11.7-16.7   c5.5-8.1,10.6-16.6,17.1-23.9c4.9-5.4,9.7-11,14.3-16.7c5.6-6.8,14.3-15.9,23.5-17.6c6.6-1.2,7,4.2,6,9.1c2.7-0.6,5.3-0.6,6.7,1.1   c14.6,17.6,29.5,34.8,45,51.6c13.9,15,28.7,29.1,43.5,43.2c14.8,14,30.2,27.5,46.1,40.2c30.7,24.4,63.6,46.2,99,63.2   c43.7,20.1,91.3,32.6,139.3,35.5c41,1.3,82.3-4.1,122.2-13.3c28.5-7.3,56.4-17,83-29.4c18.5-9.3,36-20.3,52.9-32.3   c10.9-8.4,21.1-17.4,30.9-27.1c8.3-8.9,16.1-18.3,24.2-27.5c4.7-5.4,10.1-10.2,15.4-15.1c0.2-0.2,0.6-0.6,1-1   c1.2-1.5,3.8-4.5,4.6-5.6c2.2-2.8,4.3-5.6,6.5-8.4c0.9-1.1,1.7-2.3,2.6-3.4c1.3-1.8,3.3-4.5,4.3-5.9c4-5.6,7.9-11.2,11.8-16.9   c3.9-5.7,7.7-11.4,11.5-17.1c8.2-12.5,18.8-22.3,28.9-33.2c4.5-4.8,14.2-13.3,21.6-12.3c7.5,1,5,9.5,3.7,14.3   c-2.7,10-5.1,19.8-9.9,29.2c-10.2,19.9-20.8,39.6-31.9,59c-2.3,4.1-4.7,8.1-7.1,12.1c-1.1,1.8-2.1,3.5-3.2,5.3   c-0.3,0.5-0.6,1-0.9,1.5c-1.4,2.9-2.9,5.9-4.4,8.8c-2,4-3.9,8.3-6.2,12.1c-2.5,4.2-5.8,8.1-8.7,12c-1.4,1.9-2.8,3.8-4.2,5.7   c-25.3,34.1-54.9,65.4-89.4,90.3c-58.6,42.3-129.4,65.7-200.3,76.4c-65.3,9.8-133.4,8.4-195.9-14.6c-59.6-22-112.7-57.6-159-100.8   c-42.9-40-80.2-86-115-133.1c-5.5,9-11.2,17.9-17.1,26.7c-5.6,8.4-11.3,16.6-17.2,24.8c-4.4,6.1-8.8,12.1-13.3,18   c-0.1,0.1-1.1,1.5-1.8,2.7c-0.8,1.3-1.7,2.5-2.5,3.7c-26.5,39.5-60.6,74.4-95.4,106.7c-63.4,59.1-138.5,107.5-219.3,139   c-78.4,30.6-162.5,43.5-246.4,34.4c-80.1-8.7-157.7-38.2-224.2-83.5c-32.6-22.2-62.9-48-89.5-77.2c-13.4-14.7-25.9-30.1-37.5-46.2   c-10.4-14.4-20.3-29.2-28.5-44.9c-13.2,0.2-26.3-0.1-39.6-0.5c-53.5-1.7-106.8-0.2-160.2,1.9c-53,2.2-106,6.4-158.7,12.8   c-105.7,12.7-210.3,35.1-312.9,63.6c-101.4,28.1-200.6,64-296.5,107.1c-96,43.2-188.9,92.7-277.2,150c-2,1.3-4.1,2.7-6.1,4   c20.8,63.2,45.2,125.2,71.6,185.4c40.4,92.4,87.1,182.3,140.7,267.7c51.2,81.6,120.9,149.1,185.3,219.9c4.9,5.4,5.7,12,4.4,18.8   c1.6,0.3,3.3,0.5,4.9,0.8c15.8,2.5,31.8,3.5,47.6,5.4c15.5,1.9,30.7,5.3,45.6,9.7c32,9.4,62.5,23.1,92.5,37.5   c57.3,27.6,112.5,58.7,163.4,96.9c45.8,34.2,88.8,72.8,127.3,115.1c10.1,11.1,19.8,22.5,29.2,34.2c4.6-1.9,9.6-3.1,13.4-1.8   c39.1,12.8,78.5,24.7,118.2,35.4c71.3,19.2,143.6,34,216.6,45.3c18.5,2.8,37,5.5,55.6,7.9c13.3,1.7,26.8,2,40.2,2.4   c25.1,0.6,52.2,0,76.3,8.2c45.3-26.7,92.9-49,142.2-67.6c69.2-26.2,141.1-45.5,213.8-59.6c70.7-13.7,142.4-22.2,214.3-27.1   c59.1-4,119.4-4.2,177.5,8.6c55,12.1,109.9,38.4,145.5,83.3c16,20.2,28.6,41.9,38.2,65.3c116.8,1.1,234.8-15.9,348.6-40.9   c195.4-43,380.3-120.4,550.6-224.3c80-48.8,156.6-103.1,228.4-163c37.3-31.2,73.5-63.8,108.4-97.7c16.2-15.7,34.7-34.3,48.5-48.7   c14.1-14.8,27.3-30.9,42.4-44.7c57.8-66.1,111.5-133.5,157.8-207.7c22.9-36.6,40.5-64.5,62.7-107.3c20.9-40.4,38-79,54.4-118.4   c25.2-60.8,45.7-124.7,60.4-190.1c-74.7-49.3-153.1-92.7-234-131.1c-97.7-46.4-198.4-86-301-120.4c-101.8-34.1-205.2-63.3-309.1-90   c-7-1.8,9.3-25.2,16.3-23.5c13,3.2,26.1,6.5,39.1,9.8c104.6,26.6,208.6,56.1,310.8,90.8c101.8,34.6,202,74.2,298.4,121.8   c64.3,31.7,126.9,66.8,187.1,105.7c15.9-84.3,21.9-170.5,15.8-254.8c-3.1-43.4-9.9-85.9-20.5-127.5   c-75.6-23.2-152.7-41.5-230.7-54.5c-92-15.3-185.8-24.3-279.1-24.1c-98.4,0.2-197.1,11.9-290.3,44.6c-6.1,2.1-3.1-5.7-1.7-8.3   c3-5.5,8.2-12.1,14.3-14.4c11.8-4.3,23.7-8.4,35.7-12.1c94.5-29.2,194-39.3,292.6-38.5c93.8,0.7,187.5,10.4,279.8,27   c56.2,10.1,112.2,22.8,167.3,38.3c-7.2-22.2-15.4-44.2-24.9-65.9c-31.6-72.4-72.4-142.2-119.3-205.8   C7482.8,2390.5,7474.3,2379.8,7465.8,2369.1z M5348.7,2253c-4.9,7.7-12.2,15.6-19.6,21c-3.9,2.8-12.5,8.5-18.1,7.2   c-60.6-14.1-122.5-20-184.7-18.2c-15.3,0.7-30.6,1.9-46,3.1c-56.2,4.4-111.7,15-165.6,31.1c-27.8,8.7-55.1,19-81.9,30.5   c-23.8,10.3-47.3,21.2-70.1,33.5c-0.8,0.5-1.7,0.9-2.5,1.4c-2.9,1.6-5.7,3.2-8.5,4.9c-5.7,3.3-11.3,6.6-16.9,10   c-11.1,6.8-22.2,13.7-33.1,20.8c-10.8,7.1-21.5,14.6-32,22.3c-10.8,7.9-21,16.6-32,24.1c-2.8,1.9-5.6,3.8-8.2,5.9   c-0.6,0.5-1.2,1-1.8,1.5c-0.6,0.5-1.1,0.9-1.7,1.4c-5,4.2-9.9,8.4-14.7,12.7c-4.8,4.3-9.6,8.7-14.3,13.1   c-7.8,7.2-16.7,12.1-25.4,17.8c-3.5,2.3-9.2,5-12.1,0.8c-3-4.3,1.6-12.3,3.6-16.1c5.8-11,11.4-21.7,19.7-31.2   c10.7-12.3,21.8-24.2,33.2-35.9c2.1-2.1,4.1-4.2,6.2-6.3c0.5-0.6,1.1-1.2,1.6-1.8c1.7-1.9,3.4-3.7,5.1-5.5   c-3.9,0.1-7.8-0.1-11.7-0.6c-11.9-1.5-27.5-5.1-36.2-14c-9.1-9.3-18.4-17.7-26.3-28.1c-4.1-5.3-7.9-10.8-11.6-16.3   c-2-3-4.4-6.1-5.9-9.4c-1.6-3.5-1.7-7.7-2.3-11.5c-0.6-4.3,2.3-9,4.3-12.7c2.7-5,6.5-9.6,10.4-13.8c4-4.4,13.9-15.9,21.2-12.8   c2.3,1,5.1,1.7,7.3,3c1.9,1.1,3.2,3.1,4.6,4.9c2.9,3.5,5.8,7,8.8,10.5c6,6.9,12.3,13.5,19.1,19.5c3.6,3.2,7.4,6.3,11.4,9   c3.7,2.5,7.9,3.9,11.7,6.3c6.6,4.2,13.4,8.1,20.6,11.1c10.8,3.6,22.3,5.2,33.6,2.8c0.7-0.1,1.2-0.1,1.7,0.1   c3.4-2.6,6.7-5.1,10.1-7.6c-14-3.9-27.5-10-40-17.3c-6.9-4.1-13.4-8.8-19.6-13.8c-3-2.4-6.3-4.7-8.8-7.5c-2.6-3-4.6-6.4-7.3-9.3   c-5.3-5.7-10.5-11.6-15.5-17.5c-2.7-3.2-5.6-6.3-8.1-9.7c-3.3-4.4-3.8-9-5-14.2c-0.9-3.8,2.6-10.2,4.3-13.1c2.4-4,5.2-7.9,8.1-11.5   c3.5-4.4,7.7-8.4,12.2-11.7c2.2-1.6,6.7-5.5,9.8-4.8c2.8,0.7,5.8,1.3,8.6,2.1c3.4,1,5.3,3.1,7.8,5.4c4.1,3.9,8.2,7.7,12.4,11.5   c4,3.6,7.9,7.2,12.1,10.5c4.2,3.4,9,5.7,13.1,9.3c15.7,13.6,32.9,25.6,52.2,33.5c5.4,2,10.9,3.6,16.3,5.7c-1.2-0.4-2.4-0.9-3.5-1.3   c8.3,3,16.8,5.1,25.5,5.9c5.5-3,10.9-6,16.4-9c11.2-6,22.6-11.8,34.1-17.3c-6-1.8-12-4-17.9-6.4c-16-6.6-32-15.7-44.7-27.6   c-7.2-6.7-13.7-14.3-19.6-22.1c-3.2-4.3-8.3-9.7-9.9-14.8c-0.8-2.5-0.7-5.1-1.2-7.6c-0.5-2.4-1.6-4.4-2.6-6.6   c-4.3-9.3-8.2-18.8-11.8-28.3c-1.8-4.7-3.5-9.4-5.3-14.1c-1.9-5.1-2.3-10.6-3.1-15.9c-0.5-3.1,2.5-7.1,4-9.7c2.4-4,5.4-7.6,8.5-11   c1.5-1.7,12.4-14.4,16.1-11.1c2.9,2.5,6.2,4.9,8.5,8c2.1,2.8,3.9,5.9,5.9,8.8c4.3,6.3,8.7,12.6,13.3,18.7c2.3,3.1,4.7,6.1,7.1,9.1   c1.5,1.9,2.7,3.2,4.7,4.4c1.4,0.8,3.1,1.3,4.5,2.3c3,2.1,5.1,6.2,7.3,9.2c2.4,3.1,4.9,6.2,7.4,9.2c19,22.1,42.3,40,69.4,50.8   c14.1,5.1,28.8,9.1,43.7,10.8c7.6,0.9,15.3,1.3,23,1c3.2-0.1,6.3-0.1,9.4-0.1c27.5-7.9,55.5-14.3,83.6-19.3   c56-9.8,112.7-13.3,169.5-9.9c52.8,3.2,105.5,11.7,156.5,25.8C5365.3,2224.8,5353.4,2245.5,5348.7,2253z M6089.1,2463.2   c-5.1,28.2-16.7,56.2-32.6,80.1c-16.8,25.3-37.1,48.2-61.5,66.3c-20.1,15-41.3,29.2-63.3,41.3c-9.5,5.2-19,10.5-28.1,16.4   c-10.7,6.9-22,15.4-34.5,18.9c-0.5,0.3-1.1,0.5-1.6,0.8c-0.9,0.7-1.9,1.5-2.9,2.2c-5,4-16.6,10.9-23,5.5c-0.5-0.4-0.9-0.9-1.3-1.3   c-0.1,0.1-0.2,0.1-0.3,0.2c-5.6,2.8-9.8,3.7-15.2,1.5c-6.3-2.4-12.9-3.7-19.5-4.6c-6.1-0.8-12.4-3.1-18.1-5.3   c-12.3-4.8-25-8.6-37.7-12.2c-27.6-7.6-54.9-17.7-80.2-30.9c-41.4-21.6-76.1-61.4-87.3-107.2c-6.6-27.1-7.4-55.3,0-82.5   c9.8-35.9,28.9-68.6,57-93.4c37.8-33.4,89.9-47.5,139.3-36.6c20,4.4,39.4,14.5,54.7,28.1c6,5.3,11.6,11.4,16.3,18.1   c16.2-30.2,39.7-57.8,72.8-69.3c42.1-14.6,94.2-4.2,126.6,26.9C6085.3,2361.3,6097.9,2414.3,6089.1,2463.2z M6679,2399.4   c-14.5-10.5-29.4-20.6-44.6-30c-29.6-18.4-59.9-35.6-91.4-50.6c-26.8-12.4-54.3-23.7-82.2-33.5c-50.6-17.8-102.9-30.5-156.1-37.8   c-52.2-7.1-105.5-9.9-158.1-7.1c-42.2,2.6-84,9.3-125,19.7c-5.2,1.3-9.3,0.1-11.5-4.8c-2.5-5.7,1.6-13.9,3.9-19   c3.8-8.3,10.6-16.8,17.3-23c5.5-5.2,12.3-10.3,19.7-12.5c6.6-1.9,13.2-3.8,19.9-5.5c52.3-13.7,106.2-21.8,160.2-24.4   c55.7-2.7,111.1,1.1,166,10.9c23,4.1,45.9,9.2,68.6,15.3c0.8,0,1.6,0,2.5,0c7.8,0.1,15.5-0.3,23.3-1.2c1.9-0.2,3.7-0.5,5.6-0.7   c0.6-0.1,0.9-0.1,1.1-0.1c0.1,0,0.5-0.1,1.1-0.2c3.1-0.6,6.3-1.3,9.4-2.1c6.7-1.6,13.3-3.5,19.8-5.7c3.2-1.1,6.4-2.3,9.6-3.5   c0.5-0.2,1-0.5,1.6-0.7c1.2-0.6,2.4-1.1,3.6-1.7c3.1-1.5,6.1-3.1,9-4.7c1.4-0.8,2.7-1.6,4.1-2.4c0.2-0.1,0.6-0.4,1.1-0.6   c0.9-0.6,2-1.3,2.4-1.6c1.5-1,3-2.1,4.4-3.2c1.1-0.8,2.1-1.6,3.1-2.4c2-1.8,4-3.7,6-5.6c1.1-1.1,2.3-2.2,3.4-3.3   c0.4-0.4,1.1-1.1,1.7-1.8c0.3-0.3,0.6-0.7,0.8-0.9c1.1-1.3,2.2-2.6,3.3-3.9c0.8-0.9,1.5-1.9,2.3-2.8c5.9-9.2,12.9-17.4,20.9-24.6   c1.1-1.6,2.1-3.1,3.2-4.7c1.1-1.7,5.5-8.9,1.4-2.1c1.2-2.1,2.5-4.1,3.8-6.1c6.4-10.6,12.8-20.9,20.1-30.9   c4.3-5.9,9.8-12.5,16.2-16.3c3.9-2.3,6.6-2.5,5.6,2.5c-2.1,10.1-5.8,19.4-9.8,29c-1.9,4.6-3.9,9.3-5.9,13.8c-2,4.4-4,8.8-6.1,13.2   c-2.5,16.6-14.7,31.1-24.6,44.1c-7.3,9.5-15.4,18.6-24,26.9c-12,11.7-26.1,22.1-41,30.3c2.5,1,5,2,7.5,3   c26.9,11,53.3,23.6,78.9,37.6c1.4-0.2,2.9-0.3,4.3-0.6c0.3-0.1,3.6-0.8,3.4-0.8c7-1.7,13.8-4.1,20.7-6.4c1.9-0.6,3.9-1.3,5.8-2   c0.6-0.2,1.3-0.5,1.9-0.7c0.1-0.1,0.3-0.1,0.4-0.2c3.5-1.6,6.9-3.3,10.2-5.1c2.2-1.2,4.4-2.7,6.6-4c-1.7,0.9-2.9,1.4,1.5-0.9   c0.1-0.1,0.2-0.1,0.3-0.2c1.4-1,2.9-2,4.3-3.1c2.9-2.1,5.8-4.3,8.6-6.5c0.3-0.3,1.2-1,2.1-1.7c0.5-0.5,1-0.9,1.3-1.1   c1.6-1.4,3.1-2.8,4.6-4.2c2.3-1.9,4.6-3.9,6.9-5.8c1.9-1.4,3.8-2.7,5.8-3.9c0.8-0.7,1.6-1.5,2.4-2.2c5.2-4.8,10.2-9.8,15.2-14.8   c4.8-4.8,9.4-9.6,15.1-13.4c3.9-2.7,8.3-4.3,12.5-6.4c2.6-1.3,4.8-1.1,6.3,1c1.7,2.5-0.3,6.5-1.1,9c-2.3,6.6-4.9,12.7-8.7,18.6   c-3.5,5.4-8,10.3-12.1,15.3c-5.4,6.4-10.8,12.7-16.4,18.8c-1.3,1.4-2.5,2.8-3.8,4.2c-1.4,1.8-2.7,3.6-4.1,5.4   c-5.1,6.1-10.7,11.1-16.8,16.1c-7,5.9-14.1,11.8-21.7,16.9c-3.2,2.1-6.4,4.2-9.7,6.2c7.3,4.8,14.6,9.8,21.7,14.9   c5.3,3.8,10.6,7.7,16,11.6c5.9,1,11.9,1.2,17.8,0.6c1.4-0.1,2.8-0.3,4.3-0.5c0.2-0.1,1.7-0.3,2.3-0.5c3-0.7,6-1.5,8.9-2.5   c1.3-0.4,2.6-1,3.9-1.4c2.8-1.4,5.5-2.8,8.2-4.4c0.9-0.6,3.3-2,4.9-2.9c3-2,6-4.1,9.3-5.6c0.8-0.6,1.5-1.2,2.3-1.8   c1.2-1.1,2.3-2.2,3.5-3.3c0.4-0.4,0.9-0.9,1.3-1.3c1.5-2.3,4.2-4.5,5.9-6.6c2-2.4,4-4.9,6-7.3c0.9-1.1,1.8-2.3,2.7-3.4   c3.3-4.3-0.3,0.5-1.5,2c6.5-8.4,12.7-16.6,21.6-22.7c2.4-1.7,4.8-3.2,7.2-5c4.4-3.2,12.1-4.9,10.3,3.1c-1,4.5-1.9,9-3.9,13.3   c-2.6,5.7-6.1,10.9-9.5,16.1c-3.8,5.7-7.6,11.3-11.7,16.8c-5.6,7.4-11.1,14.7-17.4,21.6c-4.2,4.6-8.4,9.2-12.9,13.4   c-2.3,2.2-4.7,4.2-7,6.2c-0.1,0.1-0.1,0.1-0.2,0.2c0.9-0.7,1.1-0.8-0.9,1.2c-4,3.9-8.4,7.4-13.1,10.6c1.2,1.2,2.3,2.4,3.5,3.7   c9.2,10.1,19.2,19.5,28.5,29.5c4.5,4.8,8.9,9.7,13.3,14.7c5,5.8,7.6,13.9,10.6,20.9c1.8,4.2-2.4,11.1-4.3,14.8   c-3,5.7-7.2,11-11.6,15.7c-4.8,5.2-16.3,17.9-24.9,13.8c-4.8-2.3-10.1-4.3-14.7-7.1c-3.9-2.4-7.4-6.3-10.9-9.3   c-7.6-6.6-15.4-13-23.3-19.2c-7.2-5.7-14.5-10.8-22.2-15.8C6692.9,2410.4,6686.1,2404.6,6679,2399.4z" id="68" style="fill:#FFFFFF;"/>
	<path d="M6497,7790.4c-0.4,1.2-0.8,2.4-1.2,3.7C6496.2,7792.9,6496.6,7791.7,6497,7790.4z" id="69" style="fill:#FFFFFF;"/>
	<path d="M5488.5,7665.8c-0.1,0.6-0.3,1.3-0.5,1.9c0-0.1,0.1-0.3,0.1-0.4   C5488.3,7666.8,5488.5,7666.3,5488.5,7665.8z" id="70" style="fill:#FFFFFF;"/>
	<path d="M0,0v8500h8500V0H0z M8230.9,2616.8c-12.4-5.5-24.9-10.7-37.1-16.5   c-99.1-47.1-200.3-89.4-303.3-127.1c-98.8-36.2-200.3-66.1-303.8-85.9c10.6,16.2,20.8,32.7,30.6,49.4   c41,70.2,77.9,145.2,96.6,224.7c3,12.9,5.8,25.9,8.2,39c4,1.4,8,2.7,12,4.1c86.6,30.5,170.4,67.8,251.2,111.4   c20.1,10.8,39.9,22.1,59.6,33.7c19.6,11.6,38.1,24.8,57,37.4c38.3,25.4,76.2,51.8,111.1,81.8c2.3,2-9.8,16.9-12.7,15.1   c-9.5-6.1-19.2-12-28.5-18.3c-37.7-25.8-76.3-51.6-116.9-72.7c-40.4-20.9-79.5-44.1-120.4-64.2c-66.7-32.9-135.6-61.5-205.7-86.3   c7.6,55.8,9.8,112.3,6.6,168.7c-4.3,74.3-15.7,148.2-33.3,220.3c5.4,3.8,10.7,7.5,16.1,11.3c77.3,55.3,149.1,117.2,213.6,187   c32.2,34.8,62.7,71.3,90.7,109.6c3.8,5.2,6.5,11,10,16.4c3,4.7,6.3,9.2,9.4,13.8c6.8,10.1,13.4,20.4,19.9,30.7   c12.7,20.3,25.2,40.7,35.2,62.4c1.3,2.9-9.8,13.2-10.4,12.4c-6.8-9.4-13.2-19-19.5-28.7c-12.8-19.5-26.3-38.6-40.3-57.3   c-3.5-4.7-6.9-9.5-10.6-13.9c-3.7-4.4-8-8.3-11.7-12.8c-7.4-9.1-14.5-18.4-21.9-27.5c-29.8-36.3-61.6-70.9-95.1-103.8   c-60.4-59.3-126-113.9-195-163.1c-22,80.1-51.5,157.6-87.1,230.8c-10.3,21.1-21.1,42-32.2,62.7c-4.8,8.9-9.7,17.7-14.7,26.4   c-2.5,4.4-5.3,8.8-7.7,13.2c-4.8,8.8,2.6-4.7-1.6,3.2c-10.7,20.5-24.9,40.9-35.8,58.2c-10.6,16.8-21.5,33.4-32.8,49.8   c-24.4,35.3-50.1,69.6-77,102.9c-23.1,28.6-46.5,61.5-74.7,86c-75.4,82.5-156.6,159.4-244.3,228.6   c-157.8,124.6-333,225.9-519.4,299.5c-11.2,4.4-22.4,8.7-33.6,12.9c0.2,5,0.2,10,0.1,15c-0.4,14.5-4.7,29.6-9.2,43.3   c-4.8,14.7-10.8,29.2-18,42.9c-2.6,4.9-5.3,9.7-8.1,14.4c5.1,57.4,18.6,114.1,38.5,168.2c74.6,203.7,248.7,358.6,462.8,400.1   c14,2.7,12,19.9,9.1,29.7c-4.6,15.5-17.8,33.4-32.3,41.5c-84.7,47.5-175.6,79-270,92.8c118.1,88,262.1,138.9,409.7,147.2   c4.8,1.1,8.2,4,10.2,8.5c11.3,33.3-13.1,66.1-36.1,87.9c-37.4,35.5-84,62-125.4,92.5c-2.1,1.6-5.5,4.1-10,7.6   c-5.1,3.9-10,8-15,12.1c-8.8,7.4-17.4,15-25.6,23.1c-0.8,0.8-1.8,1.9-2.5,2.6c-1.8,2-3.7,4-5.5,6.1c-4.2,4.8-8.2,9.8-12.2,14.8   c0,0-1.4,2-2.4,3.3c-0.9,1.4-2.4,3.6-2.4,3.5c-3.6,5.5-7.3,10.9-10.8,16.5c-13.4,21.7-18.9,33.5-27.5,58.8   c-6.3,18.3-10.6,37.6-13.7,59.8c-6.6,45.9-4.7,92.4,0.3,138.4c10.8,99.7,37.3,196.7,53.7,295.5c17.9,107.6,15.7,214.6-7.6,321.4   c-49.3,226.6-174.5,428.3-212.3,657.9c-18,109.6-16.6,221.7,12.5,329.3c13.5,50,34,96.9,55.8,143.7c17.6,37.6,33.7,75.5,42.7,116.2   c8.9,40.6,7.3,84.1-10.6,122.2c-25,53.1-70.2,87.1-121.2,113.2c-44.8,23-99.6,28.1-148.5,15.4c-24.3-6.3-40.9-19.6-56-36.1   c-7.3,4-14.9,7.4-22.8,10.3c-33.8,12.4-69.2,16.4-104.9,15.6c-30.6-0.7-59.9-7.3-88.1-19.1c-27.4-11.4-52.5-29.2-74-49.6   c-3.7,3.6-7.4,7.2-11.3,10.7c-20.1,17.9-42.1,32.4-65.9,44.6c-39.5,20.3-85.7,29.6-129.9,23.3c-37.9-5.4-73.9-24.6-98.3-54.2   c-13-15.7-24-33.2-28.9-53.1c-0.3-1.1-0.5-2.2-0.8-3.4c-9.6,9.6-19.5,18.9-29.9,27.6c-31.4,26.3-66.4,49.3-105.1,63.6   c-35.2,13-71.3,18.1-108.6,14.6c-33.4-3.1-66.5-14.7-94-33.9c-26.8-18.7-47.1-46.5-59.2-76.6c-23.2-57.8-21.9-126-2.4-185.4   c-0.4,0.1-0.7,0.3-1.1,0.4c-16,5.5-32.3,7.3-49.2,7.3c-11.3,0-22.6-1.3-33.6-3.7c2.1,18,2.5,36.2,0.7,54.6   c-7.5,78.1-60,148.2-131,180.1c-30.9,13.9-66.5,17.3-100,13.9c-26.6-2.7-52.2-17.3-72-35.6c-6.4,7.1-13.4,13.7-20.8,19.8   c-23,18.7-47.6,34.2-75.8,43.8c-24.9,8.5-51.2,13.7-77.6,13.1c-25.7-0.6-52.9-3.5-76.6-14c-12.6-5.6-25-11.8-36.6-19.3   c-5.3-3.4-10.8-6.8-15.2-11.3c-3.9-3.9-8.3-8-10.9-13c-10.3,9.6-21.4,18.4-33,26.5c-29,20.3-63.7,34.8-99.6,34.8   c-37.4,0-74.8-10-104.7-33.2c-14-10.9-28.3-24.2-37.1-39.7c-4-7-7.3-14.1-9.8-21.7c-45.8,59.4-118.6,101.3-192.1,106.9   c-47.3,3.6-101.7-3.8-137-38.4c-28.1-27.6-42.1-66.5-45.7-105.3c-7,7.7-15.8,14.4-25.5,15.2c-127.5,10.4-256.1,2.8-381.3-23.3   c-253.2-52.7-491-178.5-674.2-361.4c-199-198.6-327.5-460.2-360.8-739.6c-21.2-177.8,3.2-351.5,50.2-523.2   c22.9-83.6,49.5-166.2,72.6-249.8c23.7-85.8,41.9-173,57.8-260.6c31.7-174.4,65.2-354.1,48.8-532   c-13.4-144.9-65.9-287.1-145.9-408.5c-71.3-108.3-168.1-198.4-276.3-269.1c-123.8-80.9-264.4-146.9-414.4-151.2   c-142.3-4.1-283.6,39.5-397.6,124.4c-98.5,73.4-176.2,173.6-233.8,283.5c-60.7,115.7-103,249.3-104,380.8   c-0.3,39.3,3.5,78.9,15.6,116.4c11.1,34.6,29.5,66.2,49.5,96.3c36.8,55.4,84.4,105.2,140.6,141.1c56.1,35.9,122.9,55.3,189.7,49.3   c69.7-6.3,132.8-39.3,182-88.5c47.9-47.9,77.5-114.1,97.8-179.8c21.9-70.7,34.5-146.2,82.6-205c45.3-55.4,111.3-80.7,181.9-76.3   c68.8,4.3,132.7,40.4,182.7,86.1c103.7,94.8,166.5,236.9,167.3,377.3c0.8,143-60.3,279.8-152.7,387.1   c-101.4,117.8-240.1,200-381.1,262.1c-144.2,63.5-301.5,103.5-459.5,106c-150.5,2.4-296.9-29.5-431.3-97.4   c-252.4-127.5-433.9-369-503.3-641.2c-69.2-271.3-27.4-559,96.4-808.4c124.2-250.4,318.7-457.2,553.6-606.5   c-10.6-3.9-21.2-7.9-32.6-8.7c-4.7,0.3-9.2,1.1-13.7,2.2c-5.7,2-11.2,4.5-16.5,7.3c-1.4,0.8-2.7,1.6-4.1,2.4   c-3.1,1.8-6.1,3.7-9.1,5.6c-11.9,7.5-23.5,15.4-34.9,23.7c-5.8,4.2-11.6,8.5-17.3,12.8c-2.5,1.9-5,3.8-7.5,5.8   c-0.7,0.5-1.4,1.1-2.1,1.6c-22.6,17.9-44.5,36.6-66.5,55.3c-45.7,38.8-91.9,77.9-143,109.4c-26.2,16.2-53.7,31-82.4,42.1   c-13,5-27,9.1-41,9.2c-13.9,0.1-29.7-1.6-39.6-12.6c-12.4-13.7-13.2-31.9-11.8-49.4c1.4-16.9,4-33.6,9-49.8   c10.8-35.6,27.8-68.3,49.7-98.3c42-57.7,98.8-101.2,158.9-138.8c13.5-8.5,27.2-16.8,40.9-25.1c-34.6,0.5-69-2.5-103.2-7.3   c-66.6-9.3-131.9-26.7-194.6-50.7c-65.7-25.1-128.8-57.4-188.7-94.4c-58.2-36-112.4-77.3-163.4-123   c-50.9-45.6-98.5-94.9-143.6-146.2c-6.5-7.4-8.7-15.9-6.7-25.7c1.6-8.1,4.9-15.7,8.9-22.8c9.9-17.7,28.7-33.2,49-36.4   c47.2-7.4,94,6.7,140.8,10.8c29.8,1.5,59.4-2.2,88.4-8.7c34.2-8.5,67.3-20.6,100.4-32.8c58.4-21.5,117.9-42.8,180.7-46.2   c28.8-1.5,58.2,1.1,85.9,9.8c2.1,0.7,4.2,1.4,6.2,2.2c-13-87.8-10.4-177,2.5-264.8c16-108.6,48.2-214.7,87.9-316.9   c40.6-104.6,89.5-205.8,139.3-306.4c6.9-14,20.9-26,34.9-32.5c9-4.2,25.3-9.2,33.4,0.1c7.4,8.5,14.8,17,22.3,25.5   c61.3,70.2,122.9,139.8,180.5,213.1c56,71.2,107.8,145.5,150.6,225.4c43.6,81.5,77.9,168.6,99.6,258.5   c21.4,88.9,29.1,182.4,19,273.4c-2.7,24.4-7.1,48.3-12.3,72.3c-4,18.5-8.5,37.1-15,54.9c-14.4,39.8-32.9,78.2-56.7,113.2   c-10.3,15.8-22.1,30.4-34.7,44.2c11.6,4.8,22.2,12,29.8,21.9c0.1,0.1,0.1,0.2,0.2,0.3c1.3-3.2,2.5-6.3,3.8-9.5   c22.9-57.1,46.8-113.8,72.8-169.7c26-55.9,55.5-110.5,88.2-162.8c31.5-50.3,66.5-98.8,106.2-143.1c38.3-42.7,80.6-81.6,126.8-115.6   c44.5-32.7,92.9-60.5,144.1-81.1c50.6-20.4,104.5-33.8,159-37.6c43.4-3,89.6,0.1,129,20.2c19.6,10,35.8,23,49.1,40.7   c13.5,18,21.1,39.6,24.6,61.6c4.4,27.1,2.1,55.4-9.2,80.7c-13.8,30.9-35.8,55.6-66.9,69.5c-23.6,10.6-50.2,9.9-73.1-1.6   c-10.4-5.2-17.7-11.7-24.1-21.4c-3.3-5-6-9.9-8.2-15.5c-2.1-5.5-2.9-10.9-4.4-16.5c-1.4-5,5.9-12.7,8.9-15.7   c1.4-1.4,9.5-9,10.8-4.1c2.4,8.7,11,16.5,18.1,21.6c7.6,5.5,18,9.9,28.4,12.7c5,1.3,10.2,2.1,15.3,2.7c0.8,0.1,5.2,0.3,0.7,0.1   c1.3,0,2.6,0.1,3.8,0.1c2.6,0,5.1-0.1,7.7-0.3c1.6-0.1,7.3-1.8,8.8-1.2c1.2-0.3,2.4-0.7,3.6-1.1c1.2-0.4,2.4-0.8,3.6-1.3   c1.9-1.5,4.9-2.5,6.9-3.7c1.2-0.7,2.3-1.6,3.5-2.3c-0.4,0.2-0.7,0.4-1,0.6c0,0-0.1,0-0.1,0.1c-1.7,1.3-5,2.8,0.1-0.1   c0.9-0.7,1.7-1.4,2.5-2.2c-0.5,0.3-0.1-0.2,3-2.7c0.7-0.8,1.5-1.5,2.2-2.3c1.7-1.9,3.3-3.9,4.9-5.9c0.1-0.1,0.1-0.2,0.2-0.3   c0.8-1.2,1.5-2.4,2.2-3.6c1.4-2.4,2.6-5,4-7.5c-4.5,7.7,0.1-0.6,1-2.9c1-2.7,1.8-5.4,2.7-8.1c0,0,0-0.1,0-0.1   c0.1-0.3,0.1-0.5,0.2-0.8c0.2-0.9,0.4-1.9,0.6-2.8c0.6-2.8,1-5.6,1.3-8.4c0.3-2.3,1.3-6.2,0.7-8.5c-0.1,3.1-0.1,3.5-0.1,1.2   c0-0.5,0-0.9,0-1.4c0-1.5-0.1-2.9-0.2-4.4c-0.3-6.2-0.9-12.4-1.9-18.6c-0.4-2.7-0.9-5.4-1.5-8c-0.3-1.3-0.6-2.6-0.9-3.9   c-0.1-0.5-0.2-1.2-0.2-1.8c-0.7-4.2-3.3-9.2-4.8-12.9c-1.8-4.4-3.9-8.8-6.3-13c-1.9-3.3-4.1-8.3-7-11.4c-0.4-0.3-1-0.8-1.4-1.3   c-0.7-0.9-1.5-1.8-2.2-2.6c-1.5-1.7-3-3.4-4.6-5c-6.3-6.5-13.4-12.2-21-17.1c-8.7-5.7-13.8-8.2-23.9-12.1c-9-3.5-18.2-6.2-27.6-8.3   c-10.1-2.3-20.4-3.8-30.8-4.7c-0.8-0.1-5-0.4-3.4-0.3c-0.8,0-1.5-0.1-2.3-0.1c-2.1-0.1-4.3-0.2-6.4-0.3c-5.2-0.2-10.3-0.2-15.5-0.1   c-25.1,0.4-50.3,3.2-75,7.6c-49.2,8.7-97.5,25.7-142.8,48.2c-3.1,1.5-6.2,3.1-9.2,4.7c-0.6,0.3-1.2,0.6-1.4,0.8   c-1.4,0.7-2.8,1.5-4.2,2.2c-5.6,3-11.1,6.1-16.5,9.2c-10.9,6.3-21.7,13-32.3,19.9c-11,7.3-21.9,14.8-32.5,22.7   c-3,2.2-5.9,4.4-8.9,6.7c-1.1,0.9-2.2,1.7-3.3,2.6c-0.4,0.3-0.8,0.7-1,0.8c-4.6,3.6-9.1,7.3-13.6,11   c-20.1,16.6-39.3,34.2-57.6,52.6c-2.6,2.6-5.2,5.3-7.8,8c-0.1,0.1-0.2,0.2-0.3,0.3c0,0,0,0-0.1,0.1c-1.1,1.2-2.2,2.3-3.3,3.5   c-4.4,4.6-8.7,9.3-12.9,14c-8.6,9.6-17,19.4-25.2,29.4c-9.3,11.4-18.4,23-27.2,34.7c-0.6,0.7-5.2,6.8-1.9,2.6   c-1.1,1.4-2.1,2.8-3.1,4.3c-2.1,2.9-4.1,5.7-6.2,8.6c-3.8,5.3-7.5,10.6-11.1,15.9c-16.3,23.8-31.7,48.1-46.4,72.9   c-3.8,6.3-7.5,12.7-11.1,19.1c-0.4,0.8-1.5,2.7-1.6,2.8c-0.9,1.5-1.7,3.1-2.6,4.6c-1.7,3.1-3.5,6.2-5.2,9.3   c-6.9,12.4-13.5,24.9-20.1,37.5c-13.5,25.8-26.8,51.8-39.5,78c-24.2,49.8-47.3,100.2-70,150.7c4.3,7.7,7.1,16,8.5,24.6   c11-9.2,21.1-18.5,31.6-28.9c13.5-13.5,23.2-24.2,35.8-39c24.1-28.3,46.3-58,68.9-87.5c46.4-60.3,94.8-120.7,156.9-165.6   c28.5-20.6,59.7-37.5,92.7-49.6c32-11.7,67-19.1,101.2-14.6c27.6,3.7,54.4,16.7,70.5,40c16.4,23.7,18.5,51.9,8,78.5   c-13.9,35.1-47.7,61.9-82.7,74.1c-18.6,6.5-39.2,12-59.1,11.8c-4.7-0.1-9.6-0.6-14-2.1c-4-1.4-6.6-4.3-9.6-7.1   c-5.5-5.3-9.6-10.8-11-18.5c-1-5.7,15.8-23.9,18.2-18.4c2.8,6.4,9.4,11.7,16.4,12.7c8.6,1.2,17.2,1.8,25.8,0.2   c9.1-1.7,18.1-4,26.9-6.6c6.9-2,14.1-4.6,21.8-7.9c4.1-1.7,8.2-3.6,12.1-5.7c0.2-0.1,1.2-0.7,1.8-1c0.3-0.2,0.6-0.4,0.6-0.4   c1.9-1.2,3.8-2.4,5.6-3.6c1.8-1.3,3.6-2.6,5.4-3.9c-3.8,2.8,1.1-1,1.8-1.7c1-0.9,2-1.9,3-2.9c0.3-0.3,0.6-0.6,0.8-0.9   c0.9-1,1.7-2,2.5-3c0.3-0.6,0.9-1.2,1.2-1.7c0.7-1,1.2-2.1,1.9-3.2c0.1-0.3,0.3-0.5,0.4-0.8c0.7-1.5,1.3-3.1,2-4.6   c0.1-0.3,0.2-0.6,0.3-0.9c0.8-2.7,1.3-5.5,1.9-8.3c0,0,0,0,0,0c0.1-0.7,0.1-1.5,0.2-2.2c0.1-1.3,0.1-2.6,0.2-3.9   c0-2.6,0-5.2-0.3-7.8c-0.1-0.9-0.2-1.7-0.3-2.6c0-0.1,0-0.1,0-0.2c-0.3-1.3-0.5-2.6-0.8-3.8c-0.7-2.7-1.5-5.4-2.5-8   c-1.9-5.2-4.5-10.3-7.6-15c-0.1-0.1-1.6-2.2-1.9-2.6c-0.9-1.2-1.9-2.5-2.9-3.6c-1.8-2.1-3.7-4.1-5.7-6c-4.6-4.4-9.6-8.3-15-11.6   c-24-14.8-54.9-16.9-82.5-13c-32.6,4.6-62.3,16-91.2,31.3c-6.7,3.5-13.2,7.2-19.7,11.1c-0.4,0.3-1.5,0.9-1.7,1   c-0.8,0.5-1.7,1.1-2.5,1.6c-1.5,0.9-2.9,1.9-4.4,2.8c-3,2-6,4-9,6.1c-6.9,4.8-13.6,9.9-20.2,15.2c-1.8,1.5-3.7,3-5.5,4.5   c-0.4,0.3-2.6,2.2-3,2.5c-3.3,2.8-6.6,5.7-9.8,8.6c-6.4,5.8-12.7,11.8-18.9,17.9c-3.3,3.3-6.5,6.6-9.8,9.9   c-1.4,1.5-2.8,2.9-4.2,4.4c-0.1,0.1-0.1,0.1-0.2,0.2c0,0,0,0,0,0c-0.6,0.6-1.2,1.3-1.8,1.9c-12.1,13-23.7,26.5-35,40.2   c-22.6,27.3-44.2,55.6-66.5,83.2c-35.4,43.9-72.8,87-116.4,122.8c0,3.5-0.3,7.1-0.8,10.6c-3.7,27.4-15.4,52.1-29.3,75.7   c-6.5,11-14,21.4-21.7,31.5c203-88.1,422.9-137.8,644.3-137.5c290.9,0.4,589.1,86.4,819.8,267.8   c103.6,81.4,190.2,183.5,253.5,299.1c75.4,137.7,115.5,292.6,138.1,447.2c24.8,170.2,25.9,344.5,8,515.4   c-17.5,166.8-54.7,328.4-100.1,489.6c-44,156.2-92.3,311.6-123,471.1c-15.3,79.3-29,159.3-31.9,240.1c-3,80.9,2.4,162,18.5,241.4   c27.5,135.8,81.8,265.8,195.9,350.5c85.6,63.5,194.7,98,301.6,109.4c-26.3-45.6-58.1-87.3-88.8-129.9   c-68.2-94.7-126.5-196.4-159.8-308.9c-18.1-61.3-29.8-124.3-30.5-188.3c-0.7-69.6,10.5-137.2,31.1-203.6   c9.5-30.7,21.5-60.5,33.3-90.4c11.8-29.6,24.2-58.9,37.7-87.8c29.3-62.5,63.1-122.1,106.4-176c9.3-11.6,18.9-23,29-33.8   c3.1-3.2,6.3-6.4,9.4-9.7c-0.4,0.4-0.8,0.8-1.1,1.1c2.5-2.6,5-5.1,7.5-7.6c2.4-2.5,4.9-5,7.3-7.4c4.9-4.9,9.9-9.7,15-14.5   c21.3-20.1,43.7-39,66.8-57c15.4-12,31-23.8,46.9-35.1c12.6-9,25.2-18.7,38.8-26.2c1.4-0.8,2.3-1.3,3.1-1.7   c5.4-3.2,11.1-6.2,16.4-9.5c-7.7,4.9,1.2-0.8,3.3-2c9.9-5.8,19.8-11.7,29.8-17.4c4.3-2.5,8.6-4.7,13-6.9   c5.5-24.6,11.5-49.1,18.8-73.2c9.4-31.3,20.5-62,33.6-91.9c-35.8,19.4-75.2,34.7-116.6,27.4c-10.3-1.8-12.6-12.6-11.8-21.2   c1.2-13.2,8-25.7,16.6-35.6c3-3.5,5.9-7,8.7-10.6c0.5-0.6,0.9-1.2,1.3-1.8c4.4-6.5,8.6-13.1,12.4-20c0.6-1,1.1-2,1.7-3   c1.7-3.4,3.3-6.9,4.8-10.3c3.1-7.2,5.9-14.6,8.4-22.1c5.9-19.2,11.5-38.4,19.1-57c2.5-6.1,5.1-12.2,7.9-18.2   c-2.3,0.2-4.6,0.3-6.9,0.5c-7.9,0.5-16,1-24,0.4c-5.7-0.5-11.5-1.4-17.2-1.8c-12.4-1-24.8-0.9-37.2-2.2   c-12.7-1.3-25.4-3.3-37.9-5.6c-9.4-1.8-8.7-12.2-6.8-19.3c3.2-12.1,12.1-25.1,21.7-33.1c11.4-9.5,22.4-19.5,33.1-29.8   c4.7-4.5,9.3-9,13.8-13.6c0.5-0.5,1.6-1.7,3.8-3.9c2.3-2.5,4.5-4.9,6.8-7.4c9.9-11.1,19.9-22.1,29.4-33.5c1.1-1.3,2.2-2.7,3.3-4.1   c1.4-1.7,8.5-9.3,7.5-8.1c0.3-0.3,0.5-0.6,0.8-0.9c-41.7-1.9-82.9-10.8-121.9-29c-25.1-11.7-48.8-25.8-69.6-44.2   c-20.6-18.3-38.2-40.6-51.6-64.7c-28.1-50.6-36.7-110.7-35.9-167.8c0.8-61.2,11.6-121.4,20.5-181.8c2.4-16.1,4.6-32.3,6.4-48.5   c0.2-1.8,0.4-3.5,0.6-5.3c-0.1,0.9-0.1,1.2,0.2-1.7c-0.1,0.6-0.1,1.1-0.2,1.7c0.1-0.6,0.2-1.5,0.2-1.9c0.3-3.8,0.7-7.7,1-11.6   c0.6-7.7,1-15.4,1.3-23.1c1.1-29.7-0.3-59.4-5.6-88.6c-10.3-47.8-33.2-89.6-61.1-129.4c-8.3-11.6-17-23.1-25.6-34.6   c-39.2-52.3-77-106.1-88.9-171.7c-11.9-65.9,13-130.6,55.2-180.9c39.6-47.2,92.4-81.6,148-107c59.4-27.2,124-47,188.8-55.7   c22.8-3.1,45.8-4.7,68.8-4.2c-28-30.2-55.7-60.9-81.1-93.4c-31.1-39.7-57.6-82.3-82.9-125.9c-50.4-87-94.3-177.8-131.8-271.1   c-18-44.9-34.9-90.7-49.9-137.4c-62.1,44.1-121.9,91.7-178.5,142.7c-2.3,2.1-11.2,10.1-13.7,4c-2.4-5.8,6.3-15.5,10-19   c9.6-9,19.2-17.9,29-26.7c47.1-42.5,96.2-82.6,147.2-120.2c-40.4-130.7-65.3-266.9-58.3-403.1c0.4-7.4,0.9-14.9,1.5-22.3   c-70.5,24.3-139.4,53.3-204.4,89.9c-81.5,45.9-155.9,104.1-216.2,175.9c-1.2,1.4-8.5,10.1-11.4,7.6c-3-2.5,4-10.8,5.5-12.6   c7.8-9.5,15.8-18.8,24.1-27.9c64.9-71.5,142.7-130.1,227.2-176.6c56.9-31.3,116.5-57.3,177.5-79.4c9-82.1,30.8-161.7,64.9-237.4   c-84.6,23.1-167.5,52.3-248,87.3c-99.8,43.4-195.5,96.3-285.4,157.7c-4.7,3.2-6.4,0.5-4.8-4c2.2-6.1,7.6-11.6,12.8-15.2   c11.4-7.9,22.9-15.8,34.5-23.5c91.5-60.6,188.8-112.6,289.9-155.2c65.9-27.8,133.6-51.8,202.4-71.7c-2.3-3.8-4.7-7.7-7-11.5   c-16-26.6-27.7-56.5-40.4-84.9c-12.6-28.3-24.8-56.7-36.5-85.4c-12-29.2-23.1-58.8-35.6-87.8c-12.4-28.8-22.2-58.2-31.6-88.1   c-39.1-124.6-69.2-252.2-91.8-380.8c-22.4-127.4-36.4-256.1-42.3-385.3c-5.8-127.3-5.6-256.2,11.8-382.7   c8.3-60,20.4-119.6,37.9-177.6c18.9-62.6,48.2-121.8,82.7-177.2c6.6-10.6,20.2-26.1,34.1-28.9c11.4-6.3,23-12.4,34.8-18.1   c27.7-13.4,56.2-24.9,85.3-34.9c8.9-3,17.8-5.9,26.7-8.8c-1.1,0.4,2.3-0.8,2.8-1c2-0.7,4-1.4,5.9-2.1c5.1-1.8,10.1-3.5,15.3-5   c14.6-4.2,29.3-8,44.1-11.6c61.8-14.7,124.5-22.9,187.8-27.1c130.2-8.6,261.3-1.6,390.9,11.5c140.7,14.2,281,40.6,416.9,79.9   c129.6,37.5,254.8,88,373.1,153c56.3,30.9,110.7,64.9,162.5,103c25.7,18.9,50.9,38.7,75.4,59.2c12.5,10.5,24.8,21.2,37,32   c7.9,7.1,14.8,13.7,21.1,22.3c5.7,7.9,11.4,15.9,17,23.9c0.8,1.1,1.4,2.3,2,3.4c14.4-9.7,29-19,43.8-28   c25.1-15.2,51.9-28.7,79.1-39.9c50.4-20.8,103.1-36.8,156.7-47c51.3-9.7,104.2-11.4,156.2-8.3c49.3,2.9,98.3,11.4,145.4,26.4   c26.1,8.3,51.2,18.4,75.7,30.5c11,5.5,21.9,11.3,32.6,17.4c5.4,3.1,10.7,6.3,15.9,9.5c5.6,3.4,9.7,6.7,13.1,11.8   c9.3,6.4,18.2,13.6,26.9,20.8c2.6,2.2,5.2,4.4,7.8,6.6c9.9-17.2,20.5-34.1,31.6-50.5c6.3-9.3,12.9-18.5,19.6-27.6   c5-6.7,10.1-13.4,15.2-20c1.7-2.2,3.4-4.3,5.1-6.5c0.8-1.1,6.1-8.8,3.1-3.7c-2.9,4.9,0.1-0.2,1-1.3c0.8-1.1,1.6-2.1,2.4-3.2   c3-4.1,6-8.3,9.3-12.2c3.6-4.2,7.2-8.3,10.8-12.4c9.4-10.6,19.1-20.9,28.9-31.2c15.8-16.5,32.3-32.4,49.2-47.7   c73.3-66.3,154.9-122,240.4-171.2c88-50.6,181.7-92.2,276-129.5c52.6-20.8,106-39.8,160-56.8c26.1-8.2,52.3-16.1,78.7-23.5   c25.6-7.2,51.9-12.7,77.8-18.8c26.5-6.3,53.1-12.2,79.8-17.6c13.1-2.7,26.3-5.3,39.5-7.7c15.5-2.9,31.3-4,46.9-6.3   c49.2-7.4,98.7-11,148.3-13.5c3.7-3,7.7-4.9,11.3-3.8c13.7,4.3,26.9,9.5,39.1,17.1c11.1,6.9,21.6,14.9,31,24   c11,10.5,19.3,22.4,27.2,35.4c7.1,11.7,12.9,24,18.5,36.5c5,11.3,11.3,22,16,33.3c19.1,46.9,36.2,94.7,51.3,143.1   c16.3,52.2,32.1,104.3,43.4,157.8c11.2,53,20.1,106.4,26.5,160.2c13.2,110.5,16.8,223.5,5.5,334.4c-5.4,52.6-13.9,104.9-26.1,156.3   c-3.9,16.4-7.6,32.9-12.4,49c-3.7,12.7-8.8,25.1-13.5,37.4c-9.2,24-17.7,48.1-27.8,71.7c-21.9,51.1-47.6,100.8-78,147.4   c-16.2,24.8-33.6,49-52,72.3c-8.2,10.3-16.6,20.6-25.4,30.4c-2.9,3.3-6,6.3-9.2,9.1c13.7,6.4,27.9,12.5,39.7,21.2   c18.7,13.7,23.6,34.3,19.7,56.3c-3.7,20.6-14.8,38.3-21,58c-2.5,8-5,17.2-7.2,25.2c1.7-6.2-0.7,5.2-1,6.5c-1,4.6-1.9,9.2-2.7,13.9   c-6.4,37.1-4.3,76,13,110c19,37.3,49.2,67.8,73.7,101.4c3,4.1,6,8.2,8.9,12.4c25.3,4,50.5,8.6,75.5,13.8   c53.9,11.3,107.2,25.1,159.8,41.5c51.8,16.2,104,33.6,153.9,55c100.6,43,201,87.9,295.4,143.6   C8246.2,2602.4,8234.8,2618.5,8230.9,2616.8z" id="71" style="fill:#FFFFFF;"/>
	<path d="M4725.1,7851.9c0.6-0.7,1.3-1.3,1.9-2c0.1-0.1,0.3-0.3,0.4-0.4   C4719.9,7857,4723,7854.1,4725.1,7851.9z" id="72" style="fill:#FFFFFF;"/>
	<path d="M4651.9,7901.5c2.2-0.6,4.4-1.3,6.6-1.9C4656.4,7900.2,4654.1,7900.8,4651.9,7901.5   C4651.9,7901.5,4651.9,7901.5,4651.9,7901.5z" id="73" style="fill:#FFFFFF;"/>
	<path d="M6781.1,2293.9c0.5-0.5,1-1,1.5-1.5C6786.1,2288.8,6782.6,2292.1,6781.1,2293.9z" id="74" style="fill:#FFFFFF;"/>
	<path d="M5023.6,7847.2c-0.3,0.2-0.6,0.4-0.8,0.6c-0.1,0.1-0.3,0.2-0.4,0.3   C5022.8,7847.8,5023.2,7847.5,5023.6,7847.2z" id="75" style="fill:#FFFFFF;"/>
	<path d="M5811.3,5862.6c-0.2,3.9,0-1.2,0-1.7c-0.1-5.3-0.3-10.6-0.8-15.9c-0.9-10.8-2.5-21.6-4.8-32.3   c-1.1-5.1-2.4-10.1-3.8-15.2c0,0,0-0.1,0-0.1c0-0.1-0.1-0.2-0.1-0.4c-0.4-1.4-0.9-2.7-1.3-4.1c-0.7-2.3-1.5-4.5-2.3-6.8   c-7.2-20.1-16.9-39.3-28.8-57.1c-1.8-2.7-3.7-5.5-5.7-8.1c-0.5-0.7-2.9-3.9-3.2-4.2c-2.9-3.7-5.9-7.3-9.1-10.9   c-7.1-8-14.8-15.6-22.9-22.6c-7.7-6.6-15.9-12.7-24.4-18.1c-4.6-3-9.4-5.7-14.2-8.3c-0.2-0.1-0.4-0.2-0.5-0.3   c-0.2-0.1-0.4-0.2-0.6-0.3c-0.8-0.4-1.6-0.8-2.5-1.2c-2.5-1.2-5-2.3-7.5-3.4c-9.3-3.9-18.9-7.1-28.7-9.5   c-5.4-1.3-10.9-2.4-16.4-3.1c-2.5-0.4-5.1-0.7-7.7-0.9c-1.4-0.1-2.8-0.3-4.2-0.4c0.2,0-3.3-0.2-3.5-0.3   c-25.6-1.3-51.7,2.7-76.1,10.5c-13,4.1-25.6,9.2-37.9,15c-5.9,2.8-11.7,5.7-17.4,8.8c-0.2,0.1-2.4,1.3-3,1.6   c-1.2,0.7-2.4,1.3-3.6,2c-2.4,1.4-4.8,2.8-7.2,4.2c-10.1,6-20.1,12.3-29.5,19.4c-1.4,1.1-2.9,2.2-4.3,3.3c-0.3,0.3-1,0.8-1.5,1.2   c-2,1.7-4,3.4-5.9,5.1c-3.7,3.3-7.4,6.6-10.7,10.3c-0.7,0.9-1.7,1.9-2,2.3c-1,1.1-2,2.3-3,3.5c-0.5,0.6-3.8,5-3.4,4.4   c-0.5,0.7-1,1.5-1.6,2.2c-0.1,0.1-0.1,0.2-0.2,0.3c0.1-0.1,0.2-0.2,0.2-0.3c0.9-1.3-7,9-3.1,4c-0.6,0.8-1.2,1.7-1.8,2.5   c0,0.1-2,2.9-1.7,2.4c-3.9,6.6-7,14.4-9.3,22.5c0.3,1.7,0.5,3.5,0.7,5.2c0.4,3.6-2.8,7.9-5.6,11.1c-1.9,3-4.6,5.8-6.8,7.9   c-0.3,0.3-8.2,6.9-8.1,2.9c0.1-3.6,0.3-7.1,0.8-10.7c-1.8-4.4-3.8-8.8-6.1-12.9c-13.1-23.4-33.9-42.5-56.1-57.3   c-24.7-16.4-52.4-28.9-80.4-38.4c-15.4-5.2-31.2-9.4-47.2-12.1c-16.1-2.7-30.3-3.8-45.9-3.1c-8.3,0.4-16.7,1.3-24.9,2.7   c-3.6,0.6-7.2,1.4-10.7,2.1c-0.1,0-0.1,0-0.2,0c-0.1,0-0.2,0.1-0.3,0.1c-1.5,0.4-3.1,0.8-4.6,1.3c-5.9,1.7-11.7,3.7-17.4,6   c-2.9,1.2-5.8,2.4-8.7,3.7c-1.3,0.7-2.6,1.3-3.9,2c-5.4,2.8-10.6,5.9-15.7,9.3c-1.5,1-2.9,1.9-4.4,3c-2,1.6-4.1,3.1-6.2,4.7   c-4.8,3.8-9.3,7.9-13.7,12.1c-1.1,1-2.1,2.3-3.3,3.3c-2,2.1-3.9,4.2-5.8,6.3c-4.1,4.6-7.9,9.5-11.6,14.4c-0.7,1-1.5,2-2.1,3   c-1.7,2.5-3.3,5-4.9,7.5c-3.3,5.3-6.4,10.7-9.3,16.2c-0.8,1.4-1.5,2.9-2.2,4.3c-0.2,0.4-0.9,1.8-1.4,2.8c-0.1,0.2-0.1,0.3-0.2,0.4   c-0.7,1.5-1.3,3-2,4.4c-5,11.5-9.1,23.4-12.4,35.5c-0.1,0.5-0.3,1.1-0.4,1.6c-0.2,1-0.5,2-0.7,3c-0.7,2.9-1.3,5.9-1.8,8.9   c-1.2,6.1-2.1,12.3-2.8,18.6c-0.7,6.4-1.2,12.9-1.4,19.4c0,1.5-0.1,3-0.1,4.5c0,0.7,0,1.3,0,2c0.1,3,0.2,6,0.4,9   c0.8,13.4,2.5,26.6,4.8,39.8c1.1,6.3,2.4,12.6,3.9,18.8c0.8,3.2,1.6,6.3,2.5,9.4c0.4,1.6,0.9,3.1,1.3,4.6c0.1,0.4,0.5,1.7,0.8,2.5   c0.1,0.3,0.2,0.6,0.2,0.7c0.2,0.6,0.4,1.3,0.6,1.9c0.4,1.3,0.9,2.6,1.3,3.8c1,2.7,2,5.5,3,8.2c2.2,5.6,4.5,11.1,7,16.5   c9.6,20.5,21.6,39.8,35.6,57.6c9.5,11.6,19.6,22.6,30.5,33c40.9,39.2,89.4,69,138.7,96.3c21.2,11.6,42.7,22.7,64.3,33.7   c36,18.3,72.6,36.6,104.4,61.7c8,6.3,15.5,13.3,22.4,20.7c7.4,7.9,15,16.4,20.3,25.8c2.8,4.9,5.8,10.3,8.2,15.9   c1.3-2.8,2.7-5.6,4-8.3c5.3-10.7,13.2-20.7,20.7-29.9c14.9-18.3,32.5-34.3,51.2-48.6c34.7-26.5,72.6-48.6,109.1-72.6   c4.7-3.1,9.4-6.1,14-9.3c0,0-6.5,4.4-2.8,1.9c1.2-0.8,2.3-1.6,3.5-2.4c1.9-1.3,3.8-2.6,5.7-3.9c8.8-6.1,17.5-12.2,26.1-18.4   c16.7-12,33-24.6,48.6-38c7.8-6.7,15.5-13.7,23-20.8c2-1.9,9.3-9.3,1-0.9c1.7-1.7,3.4-3.5,5.1-5.2c3.2-3.3,6.4-6.7,9.5-10.2   c6.8-7.5,13.3-15.2,19.5-23.2c2.4-3,4.6-6.2,6.9-9.3c0.3-0.4,0.6-0.8,1-1.3c0.5-0.7,1-1.5,1.4-1.9c1.3-2,2.7-4,3.9-6   c5.3-8.3,10.2-16.8,14.7-25.6c1-1.9,1.9-3.8,2.8-5.7c-0.1,0.1,0.3-0.8,1.8-3.9c1.8-4.2,3.5-8.4,5.2-12.7c3.5-9.3,6.5-18.8,9-28.4   c0.4-1.6,0.8-3.3,1.2-4.9c0.4-2,0.9-4,1.3-6.1c1-5.1,1.8-10.3,2.6-15.4c1.5-10.9,2.4-22,2.8-33c0.1-3.3,0.2-6.6,0.3-9.9   C5811.2,5863.7,5811.5,5858.7,5811.3,5862.6z" id="76" style="fill:#FFFFFF;"/>
	<path d="M5488,7667.7c-0.1,0.2-0.2,0.4-0.2,0.6c-1.1,3.2-1,3.1-0.6,2c0-0.1,0-0.1,0-0.2   C5487.5,7669.4,5487.8,7668.6,5488,7667.7z" id="77" style="fill:#FFFFFF;"/>
	<path d="M5017.4,7851.7c-0.5,0.4,1.8-1.2,3.2-2.3c0.6-0.5,1.1-0.9,1.7-1.3c-0.8,0.6-1.5,1.2-2.3,1.7   C5019.2,7850.5,5018.3,7851.1,5017.4,7851.7z" id="78" style="fill:#FFFFFF;"/>
	<path d="M6601.9,2128.7c0.1-0.2,0.3-0.4,0.4-0.6C6597.9,2133,6600.8,2130.2,6601.9,2128.7z" id="79" style="fill:#FFFFFF;"/>
	<path d="M5769.6,7040.5c0-0.1,0-0.1,0.1-0.2c0,0,0,0,0,0C5769.6,7040.4,5769.6,7040.4,5769.6,7040.5z" id="80" style="fill:#FFFFFF;"/>
	<path d="M5770.9,7037.9c0.6-1,0.9-2.1,0.9-2.6c-0.9,1.7-1.7,3.3-2.2,5   C5770.1,7039.5,5770.5,7038.7,5770.9,7037.9z" id="81" style="fill:#FFFFFF;"/>
</g>
</svg>