<?xml version="1.0" ?><!DOCTYPE svg  PUBLIC '-//W3C//DTD SVG 20010904//EN'  'http://www.w3.org/TR/2001/REC-SVG-20010904/DTD/svg10.dtd'><svg height="850.000000pt" preserveAspectRatio="xMidYMid meet" version="1.0" viewBox="0 0 850.000000 850.000000" width="850.000000pt" xmlns="http://www.w3.org/2000/svg">
<metadata>
Created by potrace 1.14, written by Peter Selinger 2001-2017
</metadata>
<g fill="#ffffff" stroke="none" transform="translate(0.000000,850.000000) scale(0.100000,-0.100000)">
<path d="M0 8115 l0 -385 38 18 c108 55 238 83 385 83 373 0 706 -239 828 -594 39 -114 53 -212 46 -337 -22 -392 -297 -719 -683 -811 -76 -18 -110 -20 -229 -16 -117 4 -154 9 -225 32 -47 15 -102 36 -122 46 l-38 19 0 -243 0 -244 163 -6 c262 -10 420 -44 592 -126 173 -83 290 -191 354 -326 112 -237 44 -534 -193 -849 l-62 -82 41 -64 c57 -90 82 -153 102 -260 17 -90 18 -92 43 -86 150 30 399 31 560 2 41 -8 78 -11 82 -7 4 3 29 42 56 86 27 44 86 132 131 195 116 161 169 281 193 435 6 39 21 115 33 170 l23 100 -23 75 c-13 41 -35 136 -48 210 -15 79 -34 153 -47 179 -21 39 -22 47 -11 78 11 29 11 40 0 59 -10 19 -10 29 0 48 11 20 10 28 -3 48 -14 22 -14 27 9 73 43 84 32 127 -62 252 -108 143 -117 165 -134 319 -9 75 -19 120 -36 151 -12 24 -23 50 -23 58 0 24 105 49 200 49 99 -1 119 -6 342 -86 149 -53 173 -58 215 -52 29 4 53 14 61 25 10 15 26 19 72 19 32 0 60 5 62 10 4 12 144 40 204 40 35 0 44 3 44 18 0 26 19 193 26 225 17 82 127 -44 210 -240 28 -67 35 -76 87 -107 32 -19 67 -38 78 -41 37 -12 92 -69 145 -151 60 -93 91 -121 143 -130 110 -18 203 -71 227 -129 23 -54 30 -172 14 -221 -8 -22 -12 -63 -11 -92 3 -69 -31 -144 -109 -238 -33 -40 -64 -84 -70 -99 -19 -49 -12 -136 16 -195 l25 -55 -20 -16 c-26 -22 -27 -35 -1 -42 23 -6 26 -34 5 -61 -22 -29 -18 -68 11 -107 23 -30 25 -40 18 -84 -13 -90 -8 -121 32 -192 89 -160 90 -163 108 -488 l14 -250 46 -123 c90 -238 118 -428 98 -661 -20 -228 -53 -354 -162 -631 -119 -301 -159 -459 -167 -665 -4 -108 -1 -155 11 -208 20 -85 50 -145 79 -156 102 -40 144 -242 67 -326 -10 -11 -21 -31 -25 -45 -12 -41 -73 -97 -120 -110 -25 -7 -84 -10 -141 -8 -80 2 -108 8 -145 27 -53 26 -103 25 -179 -4 -37 -14 -67 -16 -165 -12 -158 6 -191 18 -227 82 -46 80 -78 154 -78 180 0 23 -4 25 -42 25 -124 1 -264 46 -342 109 -50 40 -76 46 -131 31 -49 -14 -65 -8 -65 21 0 18 -4 20 -43 14 -33 -5 -46 -3 -56 9 -12 14 -11 20 5 37 18 20 18 21 -1 35 -39 29 -102 14 -142 -33 -24 -29 -53 -26 -53 5 0 34 -22 43 -50 22 -14 -11 -35 -20 -47 -20 -21 0 -23 5 -23 53 0 74 -24 104 -168 216 l-43 33 -212 -1 c-213 -2 -351 8 -504 35 -314 54 -466 258 -308 411 24 22 76 57 117 76 360 171 432 216 489 305 16 26 34 65 40 87 17 61 5 173 -26 246 -96 226 -98 234 -98 294 0 136 103 216 240 187 103 -21 181 -98 218 -214 10 -29 21 -57 25 -61 4 -5 15 23 24 63 13 57 16 119 15 303 -2 160 2 252 11 295 7 37 9 67 4 72 -17 17 -227 33 -349 26 -133 -6 -243 -22 -261 -36 -6 -6 -16 -35 -23 -66 -35 -155 -166 -336 -287 -395 -56 -28 -71 -31 -128 -27 -119 7 -187 81 -194 209 -5 89 21 150 97 222 67 64 138 102 285 153 l107 37 -7 61 c-8 76 -41 177 -78 235 l-28 43 -46 -44 c-78 -75 -218 -185 -336 -262 -114 -75 -340 -206 -357 -206 -5 0 -9 -386 -9 -975 l0 -974 43 -11 c536 -141 998 -372 1427 -716 173 -138 436 -401 574 -574 105 -131 286 -391 286 -410 0 -6 294 -10 798 -10 l798 0 17 35 c9 20 17 55 17 79 0 56 -29 83 -132 121 -93 35 -145 65 -185 107 -90 93 -80 204 27 308 92 90 325 214 549 291 169 58 326 88 541 103 19 1 52 13 73 27 l39 24 -5 91 c-6 105 -23 146 -67 163 -16 6 -44 16 -60 22 -43 16 -88 74 -106 136 -13 46 -21 55 -67 81 -29 16 -72 47 -97 68 -25 22 -67 50 -95 64 -110 54 -206 188 -220 305 -5 41 -12 54 -26 58 -29 8 -23 34 26 135 24 50 51 115 60 144 22 74 20 195 -5 260 -50 136 -100 386 -100 506 0 35 -3 42 -19 42 -23 0 -31 18 -20 45 18 45 9 151 -23 270 -28 107 -32 135 -32 258 0 75 -3 137 -6 137 -3 -1 -16 -7 -30 -15 -65 -37 -90 -1 -37 53 45 48 61 81 82 172 48 211 97 343 173 465 32 52 33 65 3 65 -10 0 -24 7 -31 15 -10 12 -7 19 16 40 15 14 25 27 23 29 -2 2 -26 9 -54 15 -62 15 -95 36 -95 60 0 22 19 31 64 31 42 0 128 26 191 57 62 31 139 93 128 103 -4 4 -33 12 -64 19 -104 22 -122 64 -31 73 28 3 65 14 83 26 l33 21 -29 6 c-95 22 -105 26 -105 45 0 13 9 22 28 26 102 23 205 67 231 98 10 12 8 17 -18 31 -17 8 -31 20 -31 26 0 5 25 34 55 64 30 29 55 60 55 68 0 31 -146 68 -236 60 -52 -5 -68 -2 -102 17 -50 28 -100 88 -108 130 -4 16 -10 30 -15 30 -5 0 -36 24 -68 53 -32 28 -70 60 -85 70 -29 20 -50 83 -40 123 4 15 27 51 52 82 28 34 56 85 74 136 29 76 31 93 38 281 4 110 12 213 19 228 6 16 11 31 11 35 0 4 -75 8 -168 8 -201 2 -330 16 -477 54 -305 79 -495 214 -698 496 l-88 122 -67 -34 c-81 -41 -224 -89 -317 -105 -37 -6 -111 -9 -164 -7 -124 6 -201 38 -267 111 -110 123 -92 293 46 420 83 78 146 100 275 100 84 1 114 -4 184 -28 93 -32 205 -101 266 -164 21 -22 45 -41 52 -41 22 0 206 191 254 265 59 89 115 201 146 290 24 72 53 215 53 266 l0 29 -1610 0 -1610 0 0 -385z" id="1"/>
<path d="M3245 8443 c-31 -271 -151 -518 -344 -710 -132 -131 -122 -129 -222 -44 -231 200 -523 228 -685 65 -69 -68 -89 -115 -89 -209 0 -90 13 -123 71 -179 130 -126 413 -120 693 17 47 23 89 43 92 45 4 1 46 -53 95 -120 212 -293 405 -433 699 -504 154 -36 223 -44 445 -50 l205 -5 38 53 c20 29 37 57 37 63 0 6 -78 10 -218 11 -496 3 -760 88 -973 311 -69 73 -229 283 -229 301 0 5 30 33 66 63 119 97 227 235 302 385 76 152 110 284 117 456 l4 108 -49 0 -49 0 -6 -57z m-760 -737 c45 -22 101 -61 137 -95 l61 -57 -64 -41 c-87 -56 -210 -94 -326 -100 -111 -7 -166 10 -213 63 -37 43 -40 97 -9 161 39 81 112 114 245 110 83 -3 99 -6 169 -41z" id="2"/>
<path d="M2170 7698 c-61 -32 -90 -77 -90 -143 0 -57 9 -69 70 -101 90 -46 364 6 474 91 18 14 17 16 -25 54 -24 22 -75 57 -114 78 -65 35 -77 37 -170 41 -89 3 -105 1 -145 -20z" id="3"/>
<path d="M3367 8368 c-13 -296 -127 -541 -362 -775 l-113 -113 91 -122 c100 -137 169 -208 255 -266 197 -134 389 -179 798 -189 l250 -6 22 27 c11 15 29 26 39 25 22 -3 83 32 83 47 0 6 11 21 25 34 l25 24 -26 21 c-17 14 -25 28 -21 37 7 19 102 56 163 65 38 5 44 9 44 30 0 30 17 63 32 63 7 0 21 -9 33 -20 l21 -20 33 40 c17 22 38 40 45 40 7 0 21 19 32 43 29 64 164 193 301 286 68 46 147 108 175 139 104 110 130 133 146 130 38 -7 110 -272 118 -437 7 -124 21 -168 52 -156 9 4 26 8 38 9 67 9 369 291 486 456 76 106 172 287 211 396 22 61 56 206 70 297 l4 27 -1532 0 -1532 0 -6 -132z" id="4"/>
<path d="M6451 8419 c-60 -394 -324 -803 -690 -1069 -72 -52 -83 -77 -30 -66 21 4 36 -1 58 -19 l29 -25 63 47 c85 64 258 231 330 319 132 162 255 381 313 560 27 82 66 265 66 309 0 24 -3 25 -63 25 l-64 0 -12 -81z" id="5"/>
<path d="M6615 8448 c-46 -365 -251 -753 -541 -1028 -55 -52 -174 -155 -193 -167 -1 -1 2 -8 9 -15 6 -7 19 -29 28 -48 9 -19 33 -44 52 -57 19 -12 49 -32 65 -45 17 -13 55 -31 85 -41 65 -19 150 -71 150 -90 0 -7 -6 -19 -12 -26 -11 -10 -4 -21 33 -54 30 -27 49 -54 54 -74 7 -35 57 -110 87 -132 14 -9 18 -20 14 -37 -4 -16 3 -38 23 -69 59 -93 88 -189 106 -347 5 -45 10 -58 23 -58 9 0 80 5 157 10 314 23 548 74 777 170 l78 32 -55 61 c-148 163 -163 375 -37 518 87 99 290 144 476 104 159 -34 256 -145 256 -295 0 -112 -69 -236 -182 -329 l-69 -56 28 -8 c41 -11 349 -21 416 -13 l57 7 0 1070 0 1069 -939 0 -939 0 -7 -52z" id="6"/>
<path d="M5362 7750 c-38 -41 -111 -101 -185 -152 -67 -45 -152 -111 -188 -146 -63 -59 -73 -74 -139 -212 -5 -9 -18 -14 -33 -12 -19 2 -27 -4 -37 -27 -16 -38 -41 -62 -48 -43 -6 20 -33 43 -43 37 -5 -4 -9 -19 -9 -34 0 -27 -3 -29 -66 -39 -67 -11 -89 -21 -66 -29 26 -10 43 -35 36 -57 -9 -27 -20 -34 -47 -29 -27 5 -54 -21 -59 -57 -2 -19 -10 -26 -31 -28 -22 -3 -32 -12 -43 -38 -14 -33 -36 -44 -49 -24 -9 15 -22 4 -30 -27 -3 -15 -19 -42 -35 -60 -35 -39 -44 -91 -32 -190 6 -56 5 -70 -4 -62 -7 5 -15 21 -19 36 -12 50 -19 10 -21 -135 -3 -165 -15 -229 -67 -334 -18 -38 -32 -68 -30 -68 21 0 71 33 82 53 8 15 24 34 37 42 22 14 22 14 15 -13 -11 -37 -100 -213 -119 -234 -14 -16 -11 -21 29 -62 75 -75 157 -83 267 -26 128 66 136 84 34 78 -48 -2 -57 0 -60 15 -3 14 4 17 45 17 26 0 65 -5 86 -11 48 -13 62 -2 106 80 31 59 39 91 22 91 -21 0 -197 -81 -208 -96 -13 -17 -33 -11 -33 11 0 11 82 51 222 108 l37 16 -1 68 c-2 71 -4 67 70 197 15 26 32 49 37 50 6 0 13 -24 16 -54 12 -109 20 -114 40 -21 12 55 34 112 64 168 26 47 43 89 38 92 -4 4 -30 13 -58 20 -51 13 -71 29 -55 45 6 6 19 5 33 -1 48 -22 112 -26 151 -9 76 32 75 14 -4 -71 -97 -103 -140 -209 -140 -345 0 -43 3 -78 6 -78 3 0 40 9 83 20 86 22 300 57 375 62 76 5 71 -18 -6 -27 -105 -11 -248 -35 -346 -57 -75 -17 -92 -25 -88 -37 3 -9 17 -47 30 -86 30 -83 32 -131 7 -204 l-19 -54 68 6 c81 7 137 33 178 83 43 52 54 39 46 -52 -4 -45 -3 -74 3 -74 5 0 32 16 59 35 27 19 53 35 57 35 5 0 7 -30 5 -67 -2 -45 1 -67 9 -70 19 -7 103 83 110 118 8 41 40 36 72 -13 l24 -38 36 27 c60 44 101 86 138 141 19 29 40 51 46 49 7 -2 14 -21 17 -43 9 -61 18 -70 46 -43 43 40 92 123 109 182 10 35 21 56 28 54 17 -6 11 -71 -12 -122 l-20 -45 67 -44 c37 -24 80 -57 96 -75 35 -37 42 -38 66 -8 l19 22 44 -23 c64 -34 114 -78 163 -145 l44 -59 0 77 0 78 40 -6 c23 -3 62 -19 88 -36 25 -16 48 -28 50 -26 2 1 -4 42 -14 91 -14 71 -15 95 -6 130 10 38 9 47 -12 86 -35 63 -44 99 -61 240 -8 70 -24 152 -35 181 -28 74 -84 164 -133 215 -33 34 -40 46 -31 59 18 29 -24 111 -91 175 -53 51 -59 59 -48 77 11 17 8 21 -32 40 -24 11 -62 23 -84 27 -27 4 -46 14 -56 30 -8 13 -30 31 -48 40 -42 22 -77 54 -88 82 -6 16 -17 22 -38 22 -17 0 -42 11 -59 24 -19 17 -36 23 -50 19 -13 -3 -35 3 -55 16 -19 12 -45 21 -59 21 -32 0 -67 39 -79 87 -5 21 -9 73 -9 115 0 115 -57 359 -83 357 -7 0 -40 -31 -75 -69z m78 -47 c48 -174 49 -274 4 -343 -15 -22 -28 -51 -29 -63 -1 -12 -9 -23 -17 -25 -20 -4 -48 56 -57 124 -4 30 -10 57 -13 60 -8 7 -58 -25 -58 -37 0 -5 -7 -9 -15 -9 -10 0 -15 10 -15 28 0 15 -5 44 -11 65 -13 48 1 73 68 118 68 45 103 80 103 101 0 33 29 19 40 -19z m160 -497 c0 -15 -21 -26 -51 -26 -20 0 -20 -1 2 -40 30 -53 19 -64 -47 -50 -60 13 -114 44 -114 65 0 20 8 19 55 -5 38 -20 65 -25 65 -15 0 4 -7 19 -15 36 -9 16 -13 34 -10 39 10 16 115 12 115 -4z m-242 -56 c-1 -34 4 -56 15 -68 18 -20 23 -52 8 -52 -5 0 -21 14 -34 30 l-26 30 -36 -21 c-42 -25 -90 -18 -109 16 -6 11 -12 22 -13 24 -1 2 -25 -6 -52 -18 -56 -24 -105 -28 -99 -9 3 7 26 20 52 30 26 9 62 28 81 42 45 34 55 33 55 -8 0 -76 68 -72 110 7 33 62 49 61 48 -3z m-681 -447 c2 -6 -18 -37 -46 -67 -57 -63 -91 -125 -117 -211 -20 -70 -68 -125 -108 -125 -33 0 -33 16 -1 42 36 28 43 46 60 144 22 124 40 152 135 208 46 27 70 30 77 9z m1458 -197 c0 -42 -136 -81 -198 -57 -50 19 -27 36 44 33 58 -3 67 -1 93 23 31 29 61 30 61 1z m-68 -135 c17 -27 76 -45 102 -32 25 14 51 14 51 1 0 -5 -11 -26 -25 -46 -14 -20 -25 -50 -25 -66 0 -40 42 -80 78 -76 19 2 27 -2 27 -12 0 -22 -61 -25 -92 -5 -44 30 -60 89 -38 148 5 10 -4 16 -31 20 -42 7 -84 41 -84 69 0 24 22 23 37 -1z m-1437 -81 c0 -5 -4 -10 -9 -10 -31 0 -213 -204 -234 -262 -4 -10 -11 -18 -17 -18 -46 0 70 168 178 256 52 42 82 55 82 34z m1423 -180 c29 -34 50 -90 45 -122 -4 -31 -32 -29 -36 2 -5 51 -13 69 -38 99 -23 28 -25 51 -4 51 4 0 19 -13 33 -30z m-1728 -140 c0 -22 -29 -18 -33 3 -3 14 1 18 15 15 10 -2 18 -10 18 -18z m203 -43 c2 -10 -3 -17 -12 -17 -18 0 -29 16 -21 31 9 14 29 6 33 -14z m-278 -7 c0 -11 -7 -20 -15 -20 -8 0 -15 9 -15 20 0 11 7 20 15 20 8 0 15 -9 15 -20z m120 0 c0 -11 -7 -20 -15 -20 -8 0 -15 9 -15 20 0 11 7 20 15 20 8 0 15 -9 15 -20z m-174 -51 c10 -17 -13 -36 -27 -22 -12 12 -4 33 11 33 5 0 12 -5 16 -11z m102 -1 c-3 -7 -11 -13 -18 -13 -7 0 -15 6 -17 13 -3 7 4 12 17 12 13 0 20 -5 18 -12z" id="7"/>
<path d="M5331 7602 c-70 -51 -76 -60 -67 -97 8 -32 20 -31 52 0 14 14 29 25 33 25 13 0 21 -27 21 -68 0 -50 11 -112 19 -112 20 0 51 81 51 132 0 71 -20 168 -34 167 -6 0 -40 -22 -75 -47z" id="8"/>
<path d="M295 7799 c-77 -11 -187 -44 -247 -75 l-48 -24 0 -560 0 -559 53 -55 c68 -69 160 -128 245 -158 54 -19 88 -23 177 -23 136 0 225 26 332 97 173 116 256 279 256 503 0 218 -80 368 -236 444 -206 101 -464 25 -557 -164 -22 -43 -25 -64 -25 -155 0 -96 2 -110 28 -159 63 -119 175 -200 258 -186 21 4 56 20 78 35 140 102 144 387 5 383 -30 -1 -45 -8 -66 -32 -32 -36 -35 -57 -12 -89 17 -24 43 -29 62 -10 20 20 26 -1 7 -22 -23 -26 -46 -25 -79 1 -21 16 -26 29 -26 63 0 23 7 52 16 64 34 49 117 67 162 36 83 -58 83 -256 -1 -365 -119 -156 -327 -98 -431 120 -28 60 -31 75 -31 161 0 83 4 103 28 156 49 106 161 196 277 223 71 17 182 13 249 -8 221 -69 332 -256 318 -535 -9 -179 -50 -279 -166 -399 -123 -128 -265 -190 -436 -191 -167 -1 -297 50 -421 166 l-64 60 0 -171 0 -172 63 -29 c155 -73 371 -95 542 -56 208 47 405 183 524 362 190 283 190 666 0 948 -186 277 -508 422 -834 375z" id="9"/>
<path d="M7705 7026 c-103 -26 -170 -78 -216 -166 -20 -38 -24 -60 -24 -140 0 -85 3 -101 29 -155 18 -37 56 -87 98 -128 l67 -69 -76 -35 c-226 -104 -542 -175 -859 -191 l-129 -7 1 -33 c4 -68 -4 -66 187 -59 193 7 332 25 487 63 116 29 348 107 470 159 l80 33 72 -18 c108 -28 222 -40 426 -47 l182 -6 0 49 0 49 -182 0 c-174 0 -373 18 -383 35 -3 5 15 20 40 35 74 43 169 139 205 207 27 51 34 77 38 139 6 96 -7 135 -63 197 -68 76 -122 95 -275 99 -79 1 -143 -2 -175 -11z m287 -118 c71 -33 98 -72 98 -143 -1 -124 -119 -260 -282 -324 l-57 -23 -46 32 c-134 92 -178 293 -88 400 74 88 251 115 375 58z" id="10"/>
<path d="M7736 6895 c-48 -17 -83 -42 -110 -79 -18 -23 -21 -42 -21 -114 0 -104 19 -148 92 -211 53 -47 60 -48 150 -4 118 58 214 178 217 272 1 62 -22 96 -87 127 -61 28 -176 32 -241 9z" id="11"/>
<path d="M3007 6539 c-11 -86 -9 -139 6 -139 6 0 38 -11 70 -24 32 -14 57 -19 57 -13 0 18 -78 171 -103 201 l-24 29 -6 -54z" id="12"/>
<path d="M1854 6400 c-32 -13 -35 -23 -20 -71 8 -24 20 -88 25 -142 13 -114 24 -140 116 -263 37 -49 73 -102 80 -117 14 -34 87 -84 133 -93 43 -8 51 -29 21 -54 l-24 -19 43 -1 c62 0 65 -21 18 -131 -6 -14 5 -17 86 -21 212 -12 322 -113 258 -237 l-21 -43 23 7 c39 12 94 43 126 70 44 37 52 32 52 -27 l0 -53 35 40 c29 33 36 37 45 25 5 -8 10 -29 10 -47 0 -49 13 -46 43 8 40 71 50 67 62 -23 l6 -48 25 17 c24 15 26 15 58 -16 42 -40 99 -51 147 -27 34 17 63 21 57 9 -25 -53 -58 -88 -58 -62 0 7 -11 8 -30 4 -34 -8 -93 9 -131 38 -25 18 -28 18 -53 2 -15 -10 -30 -33 -36 -55 -14 -50 -60 -112 -106 -140 l-37 -24 -16 21 c-16 20 -16 20 -47 -15 -38 -44 -64 -39 -64 13 0 41 -2 42 -38 15 -15 -11 -51 -25 -79 -33 -52 -13 -53 -13 -36 -36 8 -13 40 -34 70 -47 49 -22 54 -27 49 -49 -6 -22 -4 -23 25 -15 17 5 42 16 56 25 25 16 43 13 43 -9 0 -6 -23 -38 -52 -70 l-51 -58 18 -35 c10 -18 37 -51 59 -71 37 -32 41 -34 44 -17 7 37 20 39 74 13 58 -28 138 -45 138 -28 0 17 25 11 74 -16 49 -27 136 -57 136 -47 0 3 -10 21 -21 40 -29 46 -15 58 42 37 49 -17 178 -44 215 -44 24 0 24 0 7 35 -9 19 -13 38 -9 42 3 4 27 2 51 -5 48 -13 165 -17 165 -5 0 3 -12 26 -26 51 -20 33 -23 47 -14 55 8 9 15 6 28 -11 10 -13 21 -20 25 -16 14 14 7 66 -13 91 -25 32 -35 85 -22 121 7 21 6 33 -4 47 -18 24 -18 69 -1 84 12 9 11 19 -3 61 -17 51 -30 73 -30 52 0 -7 -4 -12 -10 -12 -5 0 -10 17 -10 38 0 50 51 153 110 222 69 81 91 116 106 168 20 65 15 67 -104 46 -41 -8 -46 -19 -62 -122 -12 -78 -22 -103 -34 -84 -3 5 1 45 8 88 8 43 13 80 11 82 -2 2 -21 -6 -44 -17 -22 -12 -58 -25 -78 -29 -33 -7 -48 -20 -117 -112 -43 -58 -83 -106 -87 -108 -29 -12 15 64 98 166 24 30 43 62 43 73 0 10 7 19 15 19 9 0 43 29 76 65 34 36 65 65 70 65 21 0 6 -29 -36 -70 -25 -24 -45 -48 -45 -53 0 -4 27 6 60 25 37 20 60 39 60 49 0 27 11 49 21 43 5 -3 9 -15 9 -26 0 -19 4 -20 47 -14 52 7 88 34 108 81 21 48 8 85 -34 102 -20 8 -43 21 -51 28 -8 7 -43 21 -78 30 -34 10 -65 22 -68 26 -8 13 91 11 120 -3 22 -9 29 -8 47 8 l21 19 -22 17 c-27 22 -112 48 -157 48 -46 0 -110 27 -96 41 7 7 -7 36 -44 92 -68 102 -103 139 -125 134 -10 -3 -34 11 -59 35 -31 29 -48 38 -64 34 -14 -4 -37 6 -70 30 -70 49 -121 61 -237 54 -87 -4 -99 -8 -113 -27 -14 -20 -25 -23 -81 -23 -37 0 -74 -6 -87 -14 -12 -7 -55 -19 -95 -25 l-73 -11 -157 56 c-86 32 -188 66 -226 76 -73 19 -176 23 -212 8z m242 -85 c73 -35 183 -140 165 -158 -6 -6 -27 -10 -46 -8 l-35 3 17 -37 c18 -37 15 -44 -22 -58 -5 -3 0 -15 13 -29 36 -39 27 -68 -26 -81 -57 -14 -145 41 -183 114 -30 59 -65 220 -60 278 2 23 109 9 177 -24z m1098 -127 c63 -32 109 -117 75 -139 -33 -21 -66 -10 -93 31 -31 48 -65 71 -114 79 -43 7 -50 31 -12 43 31 9 116 1 144 -14z m101 -233 c65 -19 79 -29 72 -49 -9 -24 -52 -20 -116 10 -50 24 -63 26 -136 21 -46 -3 -107 -15 -142 -28 -64 -23 -86 -21 -64 5 14 16 81 41 152 56 57 12 170 5 234 -15z m445 -215 c0 -11 -4 -20 -9 -20 -14 0 -23 18 -16 30 10 17 25 11 25 -10z m-60 -25 c0 -8 -7 -15 -15 -15 -16 0 -20 12 -8 23 11 12 23 8 23 -8z m108 -12 c-5 -25 -28 -28 -28 -4 0 12 6 21 16 21 9 0 14 -7 12 -17z m-63 -33 c-5 -8 -11 -8 -17 -2 -6 6 -7 16 -3 22 5 8 11 8 17 2 6 -6 7 -16 3 -22z m-185 11 c0 -4 12 -6 26 -3 19 3 25 1 22 -8 -2 -7 -55 -27 -118 -45 -140 -40 -272 -92 -397 -157 -52 -26 -96 -48 -99 -48 -2 0 -4 6 -4 13 0 27 316 168 478 213 36 10 62 23 62 31 0 7 7 13 15 13 8 0 15 -4 15 -9z" id="13"/>
<path d="M1965 6241 c21 -106 33 -145 58 -182 27 -41 82 -79 113 -79 33 0 39 18 10 31 -36 17 -38 34 -8 64 l27 27 -21 16 c-12 10 -30 22 -40 29 -17 10 -17 13 -4 22 8 6 32 14 53 17 20 4 37 10 37 15 0 12 -77 68 -125 90 -22 10 -56 19 -76 19 l-37 0 13 -69z" id="14"/>
<path d="M3191 6120 c32 -40 49 -50 49 -29 0 14 -55 69 -70 69 -6 0 4 -18 21 -40z" id="15"/>
<path d="M4741 6270 c-29 -48 -34 -72 -26 -126 4 -32 10 -44 20 -41 7 3 31 11 54 18 23 7 41 15 41 19 0 4 -11 32 -23 61 -13 30 -28 65 -34 79 l-10 25 -22 -35z" id="16"/>
<path d="M7745 6239 c-124 -54 -417 -148 -535 -173 -143 -30 -254 -44 -438 -52 l-143 -7 23 -24 c21 -22 21 -24 5 -58 -22 -46 -21 -81 4 -195 19 -89 20 -113 14 -365 -6 -252 -5 -277 14 -373 12 -57 51 -188 88 -290 36 -103 71 -203 77 -222 6 -19 34 -78 62 -130 136 -250 206 -541 189 -775 -7 -97 -39 -271 -54 -289 -18 -22 -23 -227 -8 -301 23 -111 38 -231 45 -369 l7 -128 78 -28 c109 -40 184 -89 259 -169 77 -81 113 -149 135 -256 36 -178 -35 -334 -218 -479 -233 -184 -592 -287 -809 -232 -30 7 -79 16 -108 19 -29 4 -68 15 -86 27 -40 24 -54 25 -78 3 -17 -15 -21 -15 -56 2 -20 10 -69 20 -108 23 -62 4 -79 1 -127 -21 -67 -30 -83 -53 -102 -143 -21 -99 -20 -141 4 -149 31 -10 79 -71 87 -110 8 -46 -1 -78 -34 -117 -15 -18 -35 -50 -44 -70 -20 -43 -66 -70 -117 -70 -20 1 -77 1 -127 2 -110 0 -162 15 -233 63 -73 50 -96 48 -156 -13 -57 -58 -108 -78 -157 -61 -22 8 -42 8 -70 -1 -32 -9 -48 -8 -91 5 -124 40 -197 105 -197 176 l0 34 -77 -7 c-95 -9 -351 -73 -458 -116 -182 -72 -386 -190 -449 -261 -69 -75 -38 -123 120 -185 162 -64 223 -139 211 -262 -3 -31 -8 -65 -12 -75 -7 -16 60 -17 1314 -17 l1321 0 113 41 c122 45 287 125 394 190 152 93 377 285 441 376 l23 32 -23 5 c-13 2 -68 9 -123 15 -211 24 -345 71 -415 147 -92 100 -77 247 35 353 64 60 129 93 246 122 204 52 394 -17 472 -173 36 -71 60 -170 55 -229 l-3 -49 45 6 c137 18 289 65 438 134 l92 43 0 689 0 689 -32 11 c-74 26 -234 113 -306 168 -145 109 -285 276 -365 435 -39 77 -85 216 -104 312 -23 119 -23 340 0 450 34 158 106 334 186 452 36 54 33 62 -50 131 -82 68 -156 104 -291 141 -147 40 -187 58 -246 113 -142 133 -161 355 -50 570 33 63 65 104 143 182 238 241 563 386 1043 464 l72 12 0 182 0 183 -168 6 c-180 7 -363 28 -452 52 -30 8 -57 14 -60 14 -3 0 -36 -14 -75 -30z" id="17"/>
<path d="M4780 6092 c-62 -23 -70 -30 -70 -58 0 -21 2 -23 20 -12 10 7 22 9 26 5 13 -13 -20 -59 -82 -115 l-61 -56 59 -39 c32 -21 58 -43 58 -49 0 -6 16 20 34 58 19 38 57 94 85 125 l50 56 -24 51 c-13 29 -30 52 -37 51 -7 0 -33 -8 -58 -17z" id="18"/>
<path d="M4088 5969 c-41 -21 -49 -50 -24 -84 12 -17 16 -17 31 -5 17 15 38 51 49 88 9 28 -6 28 -56 1z" id="19"/>
<path d="M4847 5893 c-58 -81 -77 -129 -103 -266 -14 -73 -27 -141 -29 -152 -3 -11 -23 -44 -45 -72 -38 -50 -38 -53 -17 -53 13 0 28 -5 34 -11 8 -8 29 -8 78 0 81 14 139 40 194 88 27 22 47 33 58 29 14 -6 10 -13 -20 -44 -20 -20 -58 -48 -84 -62 -46 -24 -102 -75 -103 -94 0 -15 145 2 212 25 35 11 87 35 117 52 43 26 58 42 76 83 25 56 41 72 57 56 7 -7 4 -18 -7 -35 -9 -14 -25 -68 -35 -121 -11 -52 -26 -112 -35 -132 l-15 -37 82 5 c88 5 132 21 180 65 34 32 63 25 54 -13 -6 -22 -4 -24 11 -15 22 11 73 68 91 98 17 32 15 47 -12 88 -26 38 -51 128 -44 160 2 11 10 20 18 20 11 0 17 -16 21 -55 7 -67 12 -77 102 -197 l71 -95 16 59 c11 38 22 59 33 61 13 3 17 -4 17 -24 0 -41 43 -89 111 -123 71 -35 136 -42 124 -13 -14 31 -17 116 -6 145 11 28 41 38 41 14 0 -20 29 -41 81 -60 49 -18 87 -53 112 -102 l15 -29 16 39 c39 92 46 192 21 288 -19 72 -19 77 0 77 8 0 21 -13 29 -29 20 -37 65 -91 77 -91 5 0 6 12 3 28 -27 112 -99 225 -183 286 -61 45 -81 46 -81 7 0 -17 -5 -33 -11 -36 -6 -4 -39 21 -74 55 -58 58 -157 130 -178 130 -6 0 -32 -21 -59 -46 -55 -51 -76 -53 -98 -7 l-15 32 -52 -58 c-59 -66 -157 -136 -179 -127 -7 3 -14 17 -14 31 0 35 -20 31 -54 -11 -26 -33 -138 -114 -157 -114 -4 0 -5 32 -2 70 3 39 4 70 1 70 -3 0 -29 -13 -59 -29 -66 -37 -78 -30 -71 39 2 28 2 50 -1 50 -2 0 -29 -11 -58 -24 -50 -22 -235 -54 -246 -42 -3 2 9 34 27 69 32 65 39 136 14 144 -7 2 -27 -18 -47 -44z" id="20"/>
<path d="M3777 5832 c-16 -18 -16 -20 -2 -26 41 -16 55 -4 32 28 -12 16 -14 16 -30 -2z" id="21"/>
<path d="M4540 5804 c-54 -39 -108 -65 -189 -93 -41 -15 -76 -31 -78 -38 -2 -6 12 -27 31 -46 34 -35 35 -35 143 -39 88 -3 120 -9 173 -31 35 -14 65 -25 67 -24 1 2 5 22 9 45 l7 42 -37 0 c-20 0 -36 5 -36 10 0 6 9 10 21 10 35 0 58 19 69 58 12 46 13 65 1 57 -5 -3 -13 0 -17 6 -10 17 -96 69 -113 69 -9 -1 -32 -12 -51 -26z" id="22"/>
<path d="M8325 5776 c-475 -91 -837 -286 -1023 -553 -75 -107 -107 -218 -100 -350 5 -104 32 -172 94 -236 56 -57 107 -83 234 -117 155 -41 246 -87 329 -166 l68 -63 31 32 c18 18 32 40 32 49 0 9 -24 38 -52 64 -104 93 -223 156 -382 200 -101 28 -152 57 -189 106 -97 131 -52 337 111 505 194 200 496 347 872 423 58 11 115 23 128 26 19 4 22 11 22 54 0 48 -1 50 -27 49 -16 0 -82 -11 -148 -23z" id="23"/>
<path d="M2063 5653 c-19 -62 -20 -70 -5 -86 12 -14 13 -22 4 -42 -6 -14 -9 -38 -6 -55 4 -16 1 -44 -6 -61 -11 -26 -10 -36 8 -72 11 -23 32 -108 47 -189 14 -81 35 -173 45 -204 25 -72 25 -79 -1 -190 -30 -123 -28 -127 68 -121 43 2 90 8 106 12 32 9 37 -11 11 -50 l-16 -25 44 0 c81 0 210 49 277 105 40 34 40 49 -1 42 -18 -2 -44 0 -57 5 -23 8 -23 9 -6 28 17 19 17 20 -3 20 -43 0 -153 53 -203 97 -37 34 -53 57 -62 90 -8 29 -19 48 -32 53 -31 12 -48 37 -50 73 0 17 -7 45 -13 60 -10 23 -9 34 3 57 14 27 13 28 -10 34 -14 4 -25 12 -25 19 1 29 42 101 87 148 l48 52 -67 -6 c-37 -3 -70 -2 -73 3 -3 4 8 30 24 57 51 83 50 90 -11 97 -79 10 -90 21 -53 51 16 13 27 26 25 28 -3 1 -18 9 -35 17 -16 8 -32 16 -35 17 -3 2 -15 -27 -27 -64z" id="24"/>
<path d="M6470 5675 c-15 -18 2 -183 26 -266 22 -72 8 -83 -51 -41 -25 18 -48 32 -50 32 -3 0 -5 -27 -5 -61 0 -70 26 -131 91 -214 57 -73 161 -183 155 -163 -20 66 -27 198 -19 363 13 281 11 290 -58 341 -37 27 -71 31 -89 9z" id="25"/>
<path d="M8353 5645 c-285 -60 -479 -136 -669 -263 -120 -81 -196 -151 -255 -235 -108 -154 -116 -318 -22 -408 47 -46 59 -52 158 -79 164 -45 302 -120 401 -216 l51 -50 78 67 c92 79 218 156 327 201 l78 32 0 488 c0 458 -1 488 -17 487 -10 0 -68 -11 -130 -24z" id="26"/>
<path d="M0 5608 l0 -43 133 -3 c623 -12 987 -298 892 -700 -29 -121 -144 -328 -252 -450 l-38 -44 -60 37 c-92 55 -172 76 -311 82 -122 6 -209 -4 -311 -33 -53 -14 -53 -15 -53 -54 0 -22 2 -40 4 -40 3 0 34 7 70 15 215 50 417 31 550 -52 l38 -25 -23 -25 c-87 -94 -334 -272 -539 -388 l-100 -57 0 -70 0 -70 33 20 c17 10 64 36 102 57 175 96 399 254 530 376 42 38 82 69 88 66 17 -5 73 -101 98 -167 12 -31 23 -91 26 -136 l6 -81 -98 -33 c-121 -40 -237 -98 -290 -143 -77 -66 -117 -175 -95 -258 47 -176 241 -192 395 -34 63 64 139 206 164 307 l19 73 53 12 c139 32 433 36 574 8 28 -6 31 -4 47 41 9 27 16 50 14 51 -2 2 -52 10 -112 18 -139 19 -309 19 -448 0 -60 -8 -112 -12 -116 -10 -4 2 -10 35 -14 72 -10 114 -56 232 -122 319 l-35 45 69 92 c157 210 232 380 248 561 36 410 -388 705 -1013 706 l-123 0 0 -42z m855 -1930 c-17 -61 -88 -192 -126 -233 -48 -52 -104 -85 -144 -85 -38 0 -75 42 -75 85 0 91 90 168 270 231 82 28 83 29 75 2z" id="27"/>
<path d="M770 3646 c-168 -62 -269 -166 -226 -231 47 -72 181 25 252 183 33 71 34 70 -26 48z" id="28"/>
<path d="M0 5007 c0 -296 2 -537 4 -537 3 0 44 10 93 22 68 17 118 22 223 22 153 1 218 -13 339 -71 l75 -36 33 39 c48 56 136 189 171 259 88 177 100 331 36 464 -39 81 -150 186 -249 238 -157 81 -324 118 -577 130 l-148 6 0 -536z" id="29"/>
<path d="M2365 5438 c-46 -25 -135 -126 -135 -154 0 -7 13 -15 30 -19 43 -9 46 -22 11 -54 -38 -36 -39 -58 -5 -72 25 -9 26 -11 10 -28 -34 -37 -3 -78 49 -65 26 6 26 6 19 -43 -5 -44 -3 -52 22 -83 30 -35 109 -90 131 -90 9 0 7 10 -7 33 -34 56 -23 77 40 77 43 0 74 15 120 56 22 20 44 34 48 30 4 -4 12 -24 18 -44 11 -38 16 -34 29 21 7 35 23 31 50 -11 11 -17 23 -31 27 -32 4 0 23 16 42 35 38 38 70 123 64 172 l-3 28 -20 -33 c-23 -39 -44 -38 -65 3 -8 17 -16 32 -18 34 -1 3 -15 -10 -30 -29 -34 -41 -49 -34 -58 26 -3 25 -9 44 -13 42 -3 -2 -29 -15 -58 -30 -54 -29 -122 -45 -148 -34 -13 5 -10 14 20 57 47 69 48 116 3 155 -55 46 -138 71 -173 52z" id="30"/>
<path d="M4646 5261 c-21 -22 -65 -51 -97 -66 -33 -14 -59 -30 -59 -36 0 -14 36 -11 77 6 20 8 38 13 41 10 9 -8 -68 -84 -116 -115 -44 -29 -40 -40 12 -40 12 0 27 -5 34 -12 6 -6 61 -13 134 -16 99 -3 132 -1 168 13 78 29 80 29 80 8 0 -27 -43 -86 -84 -114 -20 -13 -36 -27 -36 -30 0 -12 34 -21 105 -26 125 -10 262 42 341 130 49 53 62 49 56 -17 -5 -57 11 -85 23 -38 8 32 63 92 84 92 10 0 26 -23 40 -56 13 -30 46 -78 73 -107 l50 -52 27 61 c29 62 81 114 115 114 23 0 126 -80 164 -127 l30 -38 7 38 c4 21 5 58 2 82 -4 24 -2 47 3 50 5 3 30 -8 56 -24 44 -29 141 -67 149 -60 4 5 -102 189 -122 211 -9 10 -32 23 -52 29 -39 13 -109 57 -131 84 -17 21 -30 3 -30 -42 0 -17 -4 -34 -9 -38 -11 -6 -44 26 -72 72 -29 46 -53 50 -96 16 -107 -85 -171 -115 -187 -90 -8 13 -15 13 -50 0 -54 -20 -240 -30 -251 -14 -4 7 5 30 20 52 17 24 28 53 29 76 1 35 -1 38 -24 36 -14 -1 -65 -16 -113 -33 -75 -26 -103 -31 -182 -31 -52 0 -103 2 -115 6 -26 8 -26 32 0 40 36 11 24 35 -18 35 -31 0 -45 -7 -76 -39z" id="31"/>
<path d="M6092 5238 c-17 -17 -15 -42 8 -71 26 -33 25 -45 -5 -53 -36 -9 -32 -37 20 -126 44 -75 84 -118 111 -118 8 0 14 -7 14 -16 0 -14 -8 -16 -59 -11 -32 4 -89 17 -126 31 -37 13 -74 22 -81 19 -26 -10 -14 -42 25 -68 109 -72 263 -94 410 -56 46 11 86 23 89 26 3 2 -11 22 -31 44 -36 40 -57 93 -57 144 0 15 -7 44 -15 63 -8 20 -12 40 -9 45 11 19 26 7 45 -35 17 -40 51 -67 66 -53 6 7 -27 67 -84 155 l-42 65 -11 -27 c-5 -15 -10 -31 -10 -35 0 -4 -14 -29 -30 -55 -26 -40 -33 -46 -45 -36 -8 7 -15 25 -15 40 0 15 -10 42 -23 60 -35 53 -120 93 -145 68z" id="32"/>
<path d="M6550 4957 c0 -36 -17 -43 -45 -17 -28 26 -45 19 -45 -17 0 -19 15 -41 50 -75 28 -26 50 -52 50 -57 0 -22 -249 -91 -326 -91 -53 0 -11 -69 86 -142 44 -33 35 -44 -45 -59 -82 -15 -200 -5 -287 26 -40 14 -81 28 -90 32 -33 10 -19 -25 22 -58 63 -51 55 -59 -58 -59 -134 0 -226 26 -334 92 -20 13 -40 20 -44 16 -11 -12 17 -67 47 -93 32 -26 37 -45 14 -45 -9 0 -49 16 -90 35 -81 39 -114 72 -175 179 -44 75 -64 81 -126 36 -110 -79 -242 -116 -377 -107 -132 9 -226 54 -152 73 25 6 56 34 37 34 -6 0 -48 -9 -94 -20 -46 -10 -123 -21 -172 -23 l-90 -4 -58 -88 c-65 -98 -111 -208 -140 -335 -11 -47 -30 -120 -43 -162 -20 -69 -21 -77 -6 -80 14 -3 16 -26 17 -183 1 -173 2 -185 36 -310 l35 -130 49 75 c54 83 78 133 94 198 20 77 30 60 101 -178 l23 -75 6 49 c5 37 0 68 -19 130 -22 71 -25 99 -24 231 0 83 4 163 9 178 7 21 10 -5 10 -95 0 -162 28 -293 93 -437 50 -109 94 -237 106 -306 13 -80 16 -83 34 -40 47 116 76 135 86 58 19 -146 59 -268 117 -358 l33 -50 6 76 c8 96 35 176 115 345 65 135 145 360 190 532 13 52 26 98 30 103 15 25 20 -1 20 -103 0 -91 6 -136 28 -228 36 -147 90 -295 93 -260 13 108 40 239 69 331 l35 110 -45 72 c-68 110 -110 202 -102 222 9 25 16 16 73 -96 28 -52 79 -137 114 -189 35 -51 81 -119 102 -149 46 -69 94 -189 103 -262 11 -86 19 -87 42 -7 56 187 77 378 62 561 -6 65 -12 122 -14 126 -8 12 11 34 23 27 6 -4 23 -30 37 -58 24 -48 94 -158 99 -158 2 0 1 35 -2 78 -6 93 7 184 26 190 8 3 46 -30 90 -74 87 -90 137 -179 175 -314 32 -113 40 -90 40 110 1 160 -15 249 -48 283 -8 8 -42 17 -75 21 -141 16 -304 94 -416 198 -43 40 -75 78 -75 89 0 30 16 23 62 -27 84 -91 227 -176 351 -208 31 -8 97 -18 145 -22 103 -8 154 -24 205 -65 20 -16 37 -27 37 -23 0 4 -7 42 -16 86 -9 43 -13 85 -10 93 15 39 116 -4 215 -90 35 -31 65 -54 67 -52 2 2 -16 46 -41 99 -41 86 -64 165 -95 320 -10 52 -16 60 -61 92 -27 20 -49 43 -49 51 0 21 17 19 53 -9 18 -13 55 -35 82 -49 104 -52 186 -148 230 -269 12 -34 25 -56 28 -51 10 15 -12 172 -28 208 -7 16 -21 55 -30 85 -63 199 -139 388 -180 445 -24 34 -50 67 -59 74 -14 12 -16 10 -16 -12z m-1367 -579 c7 -118 25 -206 58 -270 22 -44 24 -68 5 -68 -18 0 -53 76 -77 169 -21 79 -31 256 -16 279 17 26 24 0 30 -110z" id="33"/>
<path d="M4477 4914 c-57 -53 -174 -118 -236 -130 -40 -8 -34 -30 8 -26 27 2 31 -1 31 -24 0 -14 -5 -34 -10 -44 -9 -17 -5 -21 31 -31 56 -17 235 3 341 38 91 30 107 25 85 -28 -8 -19 -22 -41 -31 -49 -17 -13 -17 -14 1 -21 35 -14 208 -10 264 7 87 26 164 72 224 135 31 33 61 59 66 59 5 0 11 -12 14 -27 21 -97 92 -225 145 -263 38 -27 52 -26 41 3 -5 12 -11 48 -15 80 -8 64 5 75 40 35 44 -49 139 -109 203 -127 66 -20 201 -37 201 -26 0 4 -13 23 -30 43 -36 46 -73 129 -66 148 4 11 17 6 53 -22 59 -45 150 -88 221 -103 57 -12 205 -15 215 -4 4 3 -11 21 -33 40 -22 19 -56 61 -76 93 -28 46 -44 62 -73 71 -20 6 -60 24 -89 40 l-52 29 -10 -25 c-6 -15 -10 -31 -10 -36 0 -20 -30 -7 -44 19 -39 70 -133 152 -176 152 -41 0 -90 -69 -90 -128 0 -16 -6 -35 -14 -41 -25 -21 -135 81 -180 167 -9 17 -23 32 -31 32 -20 0 -48 -57 -42 -86 12 -64 -51 -44 -82 27 l-18 39 -19 -21 c-30 -33 -154 -87 -230 -100 -53 -8 -88 -9 -133 -1 -68 12 -151 46 -151 61 0 6 19 19 43 29 23 11 50 28 59 38 16 19 14 19 -105 19 -67 0 -135 3 -152 7 -27 6 -37 0 -88 -48z" id="34"/>
<path d="M8390 4619 c-81 -38 -210 -116 -210 -126 0 -3 15 -2 33 1 46 9 145 -20 187 -53 19 -15 50 -47 68 -70 l32 -43 0 166 c0 126 -3 166 -12 166 -7 0 -51 -19 -98 -41z" id="35"/>
<path d="M2110 4545 c-17 -84 -54 -186 -95 -263 -31 -61 -34 -72 -24 -95 10 -22 8 -31 -10 -60 -25 -41 -26 -60 -5 -78 24 -20 14 -80 -30 -173 -20 -44 -35 -80 -34 -82 2 -1 28 4 58 12 116 30 137 17 104 -64 -37 -90 -32 -101 24 -51 45 40 133 89 160 89 21 0 14 -64 -13 -114 -22 -41 -22 -46 -7 -46 37 0 126 52 183 106 32 32 61 55 64 53 2 -3 9 -36 15 -74 16 -101 24 -108 45 -41 23 71 70 139 93 134 9 -3 16 -10 14 -18 -11 -47 -13 -226 -3 -286 13 -88 49 -204 61 -204 6 0 10 7 10 15 0 19 69 97 80 90 4 -3 11 -33 15 -67 15 -136 62 -230 223 -453 51 -71 110 -158 130 -194 l36 -64 17 50 c20 60 60 123 163 258 93 121 127 187 135 263 4 40 10 57 20 57 20 0 52 -57 71 -129 l17 -60 22 59 c37 99 61 213 73 353 7 82 16 132 23 132 14 0 85 -75 119 -125 l26 -40 1 30 c2 69 -4 110 -22 153 -33 76 -39 118 -54 386 -8 142 -16 261 -19 263 -2 3 -36 -3 -75 -12 -42 -11 -91 -16 -120 -13 -60 6 -58 -2 16 -49 30 -19 53 -36 51 -39 -4 -3 -202 8 -345 20 l-51 4 26 -49 c15 -29 21 -53 16 -58 -27 -25 -245 56 -316 118 -20 17 -40 31 -44 31 -5 0 -29 -27 -52 -60 -24 -33 -48 -60 -53 -60 -7 0 -83 103 -114 155 -10 17 -13 17 -42 2 -66 -35 -182 -58 -281 -59 -110 0 -214 11 -207 21 2 4 29 13 58 20 47 10 99 43 86 55 -2 2 -29 11 -59 19 -65 19 -142 66 -138 85 2 8 19 20 39 26 49 17 99 54 99 73 0 9 -7 24 -16 34 -12 14 -13 22 -4 38 10 20 8 21 -38 21 -27 0 -63 3 -80 6 -30 6 -30 5 -42 -51z" id="36"/>
<path d="M2530 4570 c-8 -5 -50 -17 -92 -27 -43 -9 -78 -20 -78 -25 0 -17 -81 -96 -110 -108 -17 -7 -30 -17 -30 -22 0 -13 80 -48 113 -48 35 0 67 -16 67 -34 0 -7 -9 -25 -20 -39 -11 -14 -20 -28 -20 -31 0 -10 92 -6 173 9 43 7 107 27 142 44 l65 30 17 -27 c52 -86 84 -132 92 -132 6 0 29 27 52 60 37 53 44 59 58 47 9 -7 33 -27 54 -45 63 -54 227 -126 244 -108 6 6 -14 39 -46 75 -12 13 -19 26 -17 28 2 2 63 -1 137 -7 74 -5 151 -10 172 -10 l39 0 -46 51 c-25 28 -46 55 -46 59 0 5 25 0 55 -11 31 -11 81 -19 115 -19 65 0 147 17 156 31 7 12 -62 136 -92 166 -19 19 -34 23 -86 23 -80 0 -100 -11 -74 -39 19 -21 19 -21 -30 -21 -43 0 -81 5 -201 27 -27 5 -33 2 -33 -12 0 -10 8 -27 18 -38 17 -20 16 -20 -39 -14 -31 3 -85 18 -120 32 -37 16 -96 31 -139 36 -41 4 -88 11 -103 15 -20 5 -33 1 -47 -11 -25 -23 -47 -14 -115 45 -26 23 -59 46 -72 51 -32 12 -94 11 -113 -1z" id="37"/>
<path d="M8156 4454 c-38 -12 -65 -32 -125 -93 -183 -186 -304 -448 -327 -711 -11 -128 47 -317 126 -412 17 -20 58 -50 92 -67 111 -56 205 -38 280 54 77 92 102 193 102 405 1 182 -6 219 -55 294 -64 96 -154 123 -231 71 -91 -61 -145 -255 -118 -419 13 -82 32 -123 66 -138 33 -15 74 15 92 68 18 52 18 194 0 230 -15 33 -42 42 -65 23 -12 -11 -14 -26 -10 -71 5 -61 -6 -77 -23 -32 -30 79 19 159 83 135 37 -14 52 -64 52 -176 0 -84 -4 -107 -23 -142 -25 -48 -47 -63 -92 -63 -76 0 -115 99 -108 279 9 228 91 355 228 356 50 0 63 -4 97 -31 57 -46 97 -103 119 -170 15 -48 19 -86 18 -204 0 -80 -6 -174 -13 -209 -28 -141 -116 -272 -207 -307 -138 -53 -307 50 -384 233 l-20 48 6 -55 c21 -186 138 -435 275 -584 58 -63 97 -80 186 -79 112 1 210 68 287 197 l36 60 0 659 0 659 -32 60 c-36 68 -89 114 -155 134 -57 17 -94 17 -157 -2z" id="38"/>
<path d="M6627 4386 c-6 -16 17 -138 40 -206 8 -25 41 -96 74 -158 46 -87 56 -114 45 -118 -8 -3 -24 0 -36 6 -18 10 -25 9 -37 -3 -12 -12 -15 -42 -14 -143 1 -92 -4 -155 -18 -219 -32 -153 -48 -173 -86 -113 -51 79 -87 66 -171 -61 -78 -120 -97 -163 -89 -202 8 -36 -9 -38 -42 -7 -34 32 -49 17 -83 -81 -16 -46 -33 -88 -38 -93 -15 -15 -32 0 -32 28 0 44 -21 112 -41 130 -15 14 -21 14 -34 4 -38 -31 -58 -189 -34 -273 13 -47 4 -64 -22 -41 -27 25 -110 156 -157 250 -37 73 -66 113 -76 103 -13 -13 -80 -207 -96 -274 -10 -44 -32 -119 -49 -166 -46 -126 -159 -317 -180 -304 -5 2 -10 42 -13 87 -4 81 -35 178 -56 178 -5 0 -12 -28 -16 -62 -3 -34 -22 -107 -42 -162 -20 -56 -36 -117 -36 -138 1 -36 42 -140 58 -151 5 -3 9 45 9 106 0 98 2 112 18 115 15 3 17 -7 17 -100 0 -104 14 -215 30 -231 4 -5 22 34 40 87 17 53 36 99 42 102 25 15 25 -16 2 -81 -27 -73 -94 -310 -94 -330 0 -8 10 -10 25 -7 31 5 31 5 1 -77 -13 -36 -26 -83 -29 -103 l-5 -36 33 14 c69 28 87 8 36 -40 -44 -42 -71 -116 -82 -222 -10 -101 -7 -123 17 -103 24 20 28 2 14 -70 -8 -41 -10 -92 -6 -126 5 -47 3 -60 -15 -85 -32 -43 -22 -110 22 -157 39 -41 121 -83 162 -83 31 0 107 35 107 49 0 23 -15 42 -46 62 -19 11 -32 25 -28 30 10 17 42 9 74 -17 28 -24 31 -32 28 -73 l-2 -46 40 -3 c50 -4 81 19 90 65 6 28 2 37 -27 65 -19 19 -45 41 -59 50 -19 12 -22 19 -13 28 14 16 69 -16 108 -62 21 -25 28 -28 40 -18 8 7 15 29 15 49 0 44 -20 67 -100 109 -55 30 -80 55 -67 69 4 4 17 2 27 -5 11 -7 22 -12 24 -12 3 0 8 26 12 58 19 160 74 252 335 567 407 492 553 721 709 1115 34 85 66 160 71 165 7 7 14 3 22 -10 18 -32 36 109 43 343 7 206 15 238 40 162 l11 -33 6 48 c26 185 -22 469 -110 661 l-27 59 -7 -96 c-6 -92 -19 -139 -39 -139 -5 0 -12 12 -16 28 -38 171 -81 265 -149 330 -37 34 -60 40 -68 18z" id="39"/>
<path d="M165 4366 c-44 -7 -99 -19 -122 -25 l-43 -12 0 -235 0 -236 68 38 c184 102 401 253 507 353 l47 44 -29 18 c-91 57 -275 81 -428 55z" id="40"/>
<path d="M1898 4103 c-133 -186 -186 -286 -224 -419 -14 -48 -17 -111 -19 -334 l-1 -275 -37 -117 c-20 -65 -37 -123 -37 -129 0 -7 -12 -23 -27 -38 -26 -24 -27 -26 -8 -29 11 -2 24 -7 28 -12 5 -4 -26 -65 -68 -135 -77 -126 -101 -182 -127 -302 -14 -61 -14 -62 9 -72 22 -10 23 -16 23 -109 0 -113 17 -188 64 -287 45 -93 78 -133 161 -195 104 -78 175 -149 197 -199 19 -42 21 -43 34 -25 36 52 54 53 75 1 7 -18 13 -33 14 -35 1 -1 22 5 46 13 47 17 78 15 147 -12 29 -11 42 -22 42 -34 0 -26 12 -24 38 6 12 14 26 25 32 25 15 0 32 -40 27 -66 -10 -55 75 -4 119 71 30 52 53 57 82 18 l19 -26 19 28 c10 16 21 49 24 74 5 42 8 46 29 43 14 -1 40 -14 59 -29 l35 -26 -6 54 c-3 30 -7 63 -9 73 -5 34 17 27 66 -20 26 -25 50 -43 53 -41 9 10 -35 93 -100 188 -36 53 -81 130 -100 170 -72 152 -97 209 -97 217 0 5 -9 19 -20 32 -11 13 -30 54 -41 91 -16 53 -25 69 -41 71 -16 2 -24 15 -33 50 -17 67 -52 115 -142 194 -113 100 -165 156 -207 227 -42 71 -81 185 -91 270 -7 54 -16 69 -30 47 -27 -44 -57 48 -57 174 0 160 9 403 17 436 4 19 27 73 50 120 23 47 50 106 60 132 17 46 17 47 -4 74 -26 33 -26 37 0 91 12 24 19 46 17 49 -3 2 -30 -31 -60 -73z" id="41"/>
<path d="M6470 4078 c0 -7 11 -59 25 -116 36 -147 41 -204 21 -221 -18 -15 -15 -20 -40 69 -8 30 -29 71 -46 92 -31 38 -102 78 -137 78 -20 0 -21 -2 -7 -46 27 -91 35 -209 24 -337 -26 -285 -50 -322 -87 -137 -38 191 -97 324 -182 404 -27 25 -32 27 -47 15 -15 -12 -16 -28 -10 -119 3 -58 7 -114 8 -125 6 -41 -28 -23 -77 42 -28 37 -55 67 -60 67 -6 1 -11 -37 -12 -89 -1 -49 -7 -139 -13 -200 -18 -172 12 -299 107 -450 l38 -60 7 60 c14 107 66 225 99 225 19 0 63 -66 74 -112 14 -56 28 -31 55 100 13 60 29 66 60 21 l22 -30 32 63 c17 35 50 90 72 123 62 91 80 128 63 134 -7 2 -34 23 -59 47 -36 34 -43 45 -32 55 10 11 19 6 50 -23 20 -20 60 -46 87 -58 28 -12 65 -35 82 -52 18 -18 35 -29 38 -26 3 3 13 38 21 79 19 91 21 259 5 357 -14 80 -28 100 -110 153 -48 31 -71 36 -71 17z" id="42"/>
<path d="M1949 3765 c-80 -25 -83 -33 -87 -223 -7 -289 -7 -361 1 -368 4 -4 18 3 31 15 14 13 29 20 34 17 5 -3 12 -52 15 -108 9 -179 67 -308 192 -427 38 -36 102 -99 143 -138 40 -40 75 -73 77 -73 1 0 6 15 9 33 3 19 13 42 21 53 23 30 35 1 35 -86 0 -71 7 -111 31 -204 l10 -39 24 52 c13 28 26 51 29 51 2 0 2 -26 -1 -57 -10 -117 81 -347 212 -539 72 -104 117 -194 156 -309 32 -96 29 -161 -10 -254 -36 -86 -41 -119 -11 -81 14 19 22 22 30 14 9 -9 6 -22 -9 -53 l-21 -41 19 -37 c37 -70 42 -72 35 -18 -7 58 13 130 36 130 10 0 14 -7 11 -20 -13 -72 -11 -122 6 -155 18 -35 19 -35 103 -42 148 -13 238 19 224 80 -10 48 -13 52 -39 52 -29 0 -31 11 -9 45 16 24 16 82 0 180 -3 17 -10 77 -17 134 -10 79 -17 108 -32 122 -17 16 -19 26 -13 84 7 71 -13 179 -41 224 -15 23 -14 24 6 18 17 -4 21 0 22 21 4 57 -3 99 -21 136 -11 22 -18 41 -17 43 2 1 15 -4 29 -11 l26 -14 7 57 c13 111 -22 265 -80 352 -14 21 -25 42 -25 45 0 12 41 -29 71 -70 34 -46 35 -42 9 60 -24 96 -25 117 -5 90 14 -19 15 -17 15 21 0 71 -45 153 -194 358 -107 146 -147 217 -181 320 -15 44 -31 84 -36 89 -12 13 -31 -43 -26 -77 2 -15 -2 -32 -10 -38 -10 -9 -20 4 -48 64 -44 94 -72 211 -81 333 -4 52 -10 94 -14 94 -9 0 -30 -71 -30 -104 0 -34 -26 -45 -45 -20 -8 11 -23 46 -34 79 -10 32 -23 61 -29 63 -6 2 -31 -13 -56 -32 -51 -39 -129 -71 -199 -81 -40 -6 -47 -5 -47 10 0 9 16 35 35 58 35 41 46 77 23 77 -24 -1 -109 -71 -140 -116 -18 -24 -38 -44 -46 -44 -15 0 -14 47 4 178 7 48 1 51 -77 27z" id="43"/>
<path d="M3760 3473 c0 -118 -60 -350 -127 -490 -48 -103 -63 -98 -56 20 4 65 2 100 -7 116 -11 22 -13 20 -45 -45 -19 -38 -75 -123 -126 -189 -105 -138 -154 -234 -164 -320 -6 -51 -5 -57 7 -47 22 18 30 2 13 -25 -27 -40 -33 -108 -22 -236 5 -67 14 -124 18 -127 5 -3 2 -30 -5 -60 -8 -30 -17 -73 -21 -95 l-7 -40 36 34 c40 39 43 37 20 -17 -23 -55 -44 -124 -44 -149 0 -16 6 -23 20 -23 24 0 25 -11 5 -50 -9 -18 -13 -40 -9 -55 3 -14 2 -31 -3 -38 -9 -10 -33 -94 -33 -111 0 -3 12 -6 28 -6 l27 0 0 -88 c0 -93 32 -266 67 -362 11 -30 23 -73 25 -95 3 -22 12 -48 20 -57 29 -33 107 -65 176 -72 l67 -8 16 38 c14 33 14 41 0 85 -20 58 -20 59 -1 59 26 0 48 -58 43 -117 -4 -41 -2 -53 10 -53 25 0 67 30 89 65 32 49 37 78 19 113 -32 62 -11 87 24 29 l20 -32 0 55 c-1 77 -30 138 -69 146 -58 12 -118 162 -128 320 -14 216 45 462 202 854 91 227 134 443 135 670 0 108 -18 267 -38 335 l-9 30 -7 -40 c-11 -59 -14 -65 -31 -65 -8 0 -15 6 -15 13 0 21 -50 121 -72 145 -32 33 -48 28 -48 -15z" id="44"/>
<path d="M5455 3487 c-37 -57 -58 -177 -59 -335 -1 -104 -4 -152 -12 -152 -21 0 -115 229 -149 362 -9 35 -21 80 -26 101 -18 67 -37 44 -88 -103 -26 -74 -72 -188 -104 -254 -65 -134 -68 -162 -34 -247 22 -53 127 -232 133 -227 1 2 -8 47 -21 102 -49 200 -58 357 -22 364 15 3 17 -6 17 -80 0 -79 16 -171 70 -408 12 -52 25 -147 29 -210 l6 -115 47 95 c78 161 106 297 87 437 -5 43 -11 87 -12 98 -3 32 25 24 36 -10 5 -16 29 -76 53 -132 25 -57 51 -131 60 -165 9 -35 18 -64 19 -66 7 -8 82 139 112 218 38 101 73 270 73 349 -1 125 -55 282 -125 360 -42 46 -68 52 -90 18z" id="45"/>
<path d="M4290 3473 c-8 -10 -41 -59 -74 -107 l-58 -89 11 -161 c13 -183 33 -286 92 -466 45 -140 87 -223 264 -520 67 -113 136 -232 155 -265 45 -81 88 -135 116 -146 21 -7 24 -15 24 -56 0 -64 25 -176 50 -228 11 -22 20 -53 20 -67 0 -14 6 -41 14 -59 8 -19 18 -67 21 -106 7 -66 9 -72 29 -70 15 1 22 -4 24 -20 3 -17 -9 -28 -58 -54 -104 -55 -149 -132 -116 -196 22 -43 95 -87 80 -49 -8 20 31 105 51 112 27 11 29 -5 7 -45 -26 -46 -27 -69 -6 -99 10 -15 25 -22 47 -22 43 0 52 9 54 51 2 43 27 97 49 106 25 9 26 -3 5 -46 -27 -52 -26 -76 1 -95 40 -28 67 -20 123 37 81 82 90 105 87 217 -2 74 2 108 19 158 20 61 21 101 2 180 -4 16 -1 22 12 22 16 0 17 11 13 119 -2 71 0 117 5 114 16 -9 -3 99 -25 145 -22 47 -18 63 12 44 19 -12 20 -9 20 47 0 127 -22 229 -83 390 -24 64 -24 64 -39 40 -74 -118 -109 -169 -117 -169 -20 0 -20 20 1 66 32 73 38 238 10 316 -32 92 -184 338 -208 338 -23 0 -18 -144 7 -199 14 -33 17 -47 8 -55 -8 -8 -23 3 -56 38 -86 95 -136 199 -199 414 -13 45 -47 -40 -62 -153 -5 -43 -11 -60 -22 -60 -12 0 -16 21 -22 105 -3 58 -16 146 -27 195 -24 99 -70 223 -86 227 -6 2 -12 -29 -15 -72 -8 -117 -26 -102 -75 65 -42 143 -55 163 -85 128z" id="46"/>
<path d="M1172 3176 c-36 -33 -37 -37 -37 -103 0 -61 6 -80 53 -181 78 -167 96 -269 66 -373 -46 -158 -144 -236 -508 -404 -152 -69 -196 -112 -196 -186 0 -68 86 -148 202 -188 126 -43 470 -74 681 -62 l98 6 -26 35 c-32 42 -87 150 -105 203 -12 38 -14 39 -49 33 -20 -3 -108 -8 -196 -12 -176 -6 -270 2 -270 26 0 12 29 14 183 11 179 -3 183 -2 225 22 23 14 49 33 58 43 16 19 34 146 22 158 -3 3 -19 -4 -35 -16 -41 -28 -55 -12 -29 33 11 19 29 76 40 127 24 110 40 147 115 270 31 51 56 95 56 97 0 3 -13 2 -29 -1 -39 -8 -47 10 -17 39 36 36 48 90 35 166 -31 192 -114 291 -246 291 -47 0 -58 -4 -91 -34z" id="47"/>
<path d="M6980 2953 c0 -7 -9 -37 -21 -68 -23 -61 -46 -72 -51 -24 -2 27 -10 14 -48 -82 -128 -327 -297 -591 -664 -1034 -187 -227 -210 -255 -231 -289 l-19 -29 86 8 c68 5 99 3 144 -10 l57 -17 24 31 c31 39 70 41 103 6 33 -35 35 -25 5 30 -63 119 -4 247 146 318 30 14 97 37 148 52 171 48 265 111 292 197 11 32 20 44 37 46 18 3 22 8 16 20 -4 9 -14 41 -22 70 -14 47 -14 57 1 110 16 55 16 58 -4 85 -16 22 -18 32 -9 40 9 9 19 4 41 -22 16 -19 32 -32 35 -28 4 4 2 53 -4 109 -6 57 -14 149 -17 205 -6 117 -24 251 -36 273 -5 9 -9 10 -9 3z" id="48"/>
<path d="M8467 2835 c-66 -104 -169 -165 -290 -173 -74 -4 -77 -5 -61 -23 33 -37 167 -122 270 -171 58 -27 107 -48 110 -46 2 3 3 107 2 231 l-3 227 -28 -45z" id="49"/>
<path d="M4290 2444 c0 -38 -30 -136 -66 -212 -27 -60 -33 -81 -25 -97 5 -11 11 -49 13 -85 5 -82 35 -147 100 -214 43 -45 50 -49 59 -33 17 29 37 19 81 -40 39 -51 147 -143 169 -143 5 0 9 8 9 18 0 10 9 53 20 94 l20 77 -59 104 c-33 57 -78 135 -102 173 -23 38 -82 138 -131 223 -48 85 -88 146 -88 135z" id="50"/>
<path d="M7078 2323 c-2 -74 -7 -108 -15 -111 -13 -4 -17 3 -27 51 -9 38 -26 24 -26 -21 0 -54 17 -107 45 -141 35 -41 32 -51 -19 -51 -41 0 -45 -2 -55 -33 -28 -85 -132 -155 -302 -203 -210 -60 -299 -130 -299 -238 0 -93 48 -154 148 -187 288 -96 825 133 955 408 29 61 32 77 32 158 -1 69 -6 103 -24 147 -30 77 -89 154 -159 207 -56 44 -171 102 -224 115 l-27 6 -3 -107z" id="51"/>
<path d="M4683 1723 c-14 -48 -8 -168 10 -215 22 -57 54 -87 101 -95 45 -7 45 0 10 99 -29 79 -101 238 -109 238 -2 0 -8 -12 -12 -27z" id="52"/>
<path d="M0 1652 l0 -38 123 -38 c369 -115 758 -308 1076 -536 354 -253 681 -586 912 -930 l74 -109 62 -1 63 0 -46 72 c-62 97 -161 233 -252 348 -100 125 -420 445 -548 546 -312 250 -634 437 -989 577 -131 52 -430 147 -461 147 -10 0 -14 -12 -14 -38z" id="53"/>
<path d="M0 794 l0 -794 145 0 145 0 5 28 c15 65 60 182 92 236 276 457 959 459 1253 4 40 -61 90 -197 90 -244 l0 -24 211 0 c165 0 209 3 203 13 -33 56 -159 232 -230 322 -117 147 -400 428 -554 551 -377 300 -809 531 -1247 667 l-113 35 0 -794z" id="54"/>
<path d="M2707 1498 c-8 -56 -26 -98 -43 -98 -7 0 -18 16 -24 35 -6 19 -20 39 -29 45 -15 8 -20 3 -30 -31 -13 -44 -65 -109 -87 -109 -8 0 -20 14 -27 32 l-13 31 -18 -29 c-10 -16 -30 -41 -44 -56 -14 -15 -24 -29 -21 -31 2 -2 22 -17 44 -34 91 -69 197 -103 327 -103 68 0 79 3 92 22 25 35 19 54 -26 92 -37 30 -40 36 -25 42 12 4 29 -1 47 -15 16 -11 32 -21 35 -21 11 0 4 61 -15 124 -21 67 -33 85 -45 65 -5 -7 -24 8 -50 37 l-42 48 -6 -46z" id="55"/>
<path d="M7369 1247 c-184 -56 -279 -154 -279 -291 0 -163 146 -243 508 -278 67 -6 122 -16 122 -21 0 -32 -166 -208 -290 -307 -163 -130 -320 -221 -530 -306 l-105 -43 138 -1 139 0 71 42 c284 164 552 391 657 556 37 58 51 72 75 76 256 38 366 68 528 143 l97 46 0 61 0 62 -87 -42 c-148 -70 -349 -129 -471 -136 l-42 -3 -3 95 c-5 162 -72 277 -195 337 -80 39 -222 44 -333 10z m286 -111 c83 -49 135 -150 135 -261 0 -83 -6 -86 -146 -86 -181 1 -324 35 -390 93 -29 26 -34 36 -34 75 0 72 34 120 118 163 110 57 236 63 317 16z" id="56"/>
<path d="M7401 1120 c-55 -20 -68 -28 -113 -69 -32 -29 -52 -82 -44 -116 7 -29 69 -67 146 -89 73 -22 251 -39 319 -31 l53 7 -4 76 c-7 115 -54 190 -140 226 -51 22 -151 20 -217 -4z" id="57"/>
<path d="M4633 1009 c-285 -33 -619 -153 -854 -307 -242 -158 -224 -337 46 -437 39 -15 85 -36 103 -47 59 -36 77 -103 47 -175 -8 -19 -15 -37 -15 -39 0 -2 17 -4 39 -4 33 0 40 4 49 27 19 50 22 94 10 140 -16 67 -67 112 -169 153 -119 47 -157 70 -180 107 -42 67 5 137 151 227 241 149 523 252 790 288 84 11 93 14 106 39 8 16 14 30 14 34 0 6 -46 5 -137 -6z" id="58"/>
<path d="M8430 801 c-120 -62 -362 -133 -500 -147 l-69 -6 -37 -62 c-50 -81 -263 -293 -390 -385 -55 -41 -147 -103 -204 -138 l-104 -63 687 0 687 0 0 415 c0 228 -3 415 -7 415 -5 -1 -33 -14 -63 -29z" id="59"/>
<path d="M880 573 c-45 -7 -152 -44 -200 -68 -103 -52 -219 -164 -280 -270 -29 -51 -80 -190 -80 -219 0 -14 53 -16 518 -16 l518 0 41 35 c140 120 97 301 -96 404 -190 101 -520 72 -654 -57 -121 -116 -73 -214 130 -267 77 -20 234 -19 304 1 75 23 186 80 199 103 27 51 -6 113 -84 154 -35 19 -57 22 -153 22 -103 0 -114 -2 -135 -22 -21 -21 -21 -24 -6 -39 9 -9 39 -19 66 -22 42 -4 53 -1 68 16 20 24 34 20 34 -8 0 -13 -9 -22 -27 -26 -16 -3 -35 -8 -45 -10 -31 -9 -109 18 -125 43 -15 22 -15 26 4 51 30 40 84 55 183 49 91 -5 164 -29 209 -70 26 -24 51 -76 51 -106 0 -54 -118 -130 -255 -166 -197 -51 -482 34 -512 153 -16 63 52 165 144 214 96 52 187 73 318 72 192 0 320 -47 415 -151 101 -111 102 -234 2 -341 l-30 -32 154 0 154 0 -6 27 c-35 159 -75 234 -184 344 -73 73 -100 94 -180 132 -52 25 -127 52 -167 61 -66 15 -229 20 -293 9z" id="60"/>
</g>
</svg>