<?xml version="1.0" ?><!DOCTYPE svg  PUBLIC '-//W3C//DTD SVG 20010904//EN'  'http://www.w3.org/TR/2001/REC-SVG-20010904/DTD/svg10.dtd'><svg height="850.000000pt" preserveAspectRatio="xMidYMid meet" version="1.0" viewBox="0 0 850.000000 850.000000" width="850.000000pt" xmlns="http://www.w3.org/2000/svg">
<metadata>
Created by potrace 1.14, written by Peter Selinger 2001-2017
</metadata>
<g fill="#ffffff" stroke="none" transform="translate(0.000000,850.000000) scale(0.100000,-0.100000)">
<path d="M0 7145 c0 -965 3 -1355 11 -1355 11 0 285 -113 333 -137 18 -9 25 -18 19 -24 -6 -6 -48 7 -114 35 -57 24 -137 58 -176 75 l-73 30 0 -1654 0 -1653 110 51 c60 28 113 47 117 43 12 -11 -18 -30 -127 -78 l-100 -43 0 -1217 0 -1218 163 0 162 0 225 265 c243 288 245 291 254 276 4 -5 -95 -129 -219 -275 l-225 -266 1763 0 1763 0 25 350 c15 193 29 354 33 357 21 21 20 -46 -3 -357 l-26 -345 802 -3 c441 -1 1166 -1 1612 0 l811 3 -110 165 c-74 112 -106 168 -99 175 7 7 12 6 17 -1 4 -6 57 -86 117 -178 l110 -166 663 0 662 0 0 798 c0 772 -1 798 -19 809 -10 7 -186 148 -391 314 -245 198 -368 305 -362 311 7 7 139 -95 389 -297 l378 -307 3 1117 c1 615 0 1120 -3 1123 -2 3 -107 23 -232 44 -214 38 -256 49 -240 64 3 4 111 -12 239 -34 128 -23 234 -40 235 -38 2 1 2 534 1 1183 l-3 1179 -219 -119 c-142 -77 -222 -115 -228 -109 -11 11 -2 17 254 156 98 53 182 96 188 96 7 0 10 292 10 884 l0 885 -259 -180 c-143 -98 -264 -179 -270 -179 -32 0 12 35 259 206 l270 187 0 203 0 204 -1990 0 -1990 0 0 -211 c0 -164 -3 -210 -12 -207 -10 4 -14 57 -16 211 l-2 207 -1080 0 c-594 0 -1080 -2 -1080 -5 0 -3 25 -55 55 -115 52 -105 64 -140 47 -140 -4 0 -37 59 -72 130 l-64 130 -814 0 -814 0 68 -82 c38 -46 104 -125 146 -176 43 -51 78 -98 78 -103 0 -30 -41 12 -175 176 l-150 184 -317 1 -318 0 0 -1355z m1014 716 c192 -192 284 -291 276 -296 -8 -5 -108 88 -292 271 -153 154 -284 287 -289 297 -31 56 46 -13 305 -272z m6796 281 c0 -11 -276 -222 -290 -222 -27 0 1 27 128 124 127 98 162 119 162 98z m-2105 -134 c-4 -68 -8 -127 -9 -132 0 -5 44 -45 98 -90 55 -45 99 -85 98 -91 0 -5 -55 -24 -123 -42 -67 -17 -125 -35 -129 -40 -4 -4 -24 -55 -45 -113 -21 -58 -44 -111 -50 -118 -10 -11 -26 8 -84 101 l-71 114 -130 5 c-71 3 -133 8 -136 11 -6 5 38 62 152 197 11 13 8 37 -21 140 -19 69 -31 128 -27 132 4 4 58 -12 120 -37 61 -25 119 -45 127 -45 9 0 59 29 113 65 53 36 103 65 110 65 11 0 12 -23 7 -122z m1305 -227 l0 -69 45 -37 c25 -20 44 -42 42 -48 -2 -6 -30 -18 -62 -26 l-59 -16 -20 -57 c-12 -32 -26 -58 -33 -58 -6 0 -25 22 -41 49 -31 50 -53 61 -128 61 -19 0 -34 5 -34 11 0 7 17 32 37 57 l37 45 -17 61 c-9 33 -13 64 -9 68 4 3 33 -4 65 -17 l59 -24 51 34 c29 19 55 35 59 35 5 0 8 -31 8 -69z m-4969 -14 c-1 -37 1 -67 5 -67 5 0 29 -18 54 -39 l45 -39 -25 -11 c-14 -6 -44 -15 -67 -21 -37 -9 -43 -15 -59 -58 -29 -80 -37 -82 -79 -18 l-38 56 -58 0 c-32 0 -61 5 -64 10 -4 6 10 31 31 57 l37 45 -13 65 c-7 35 -10 67 -6 70 3 3 29 -4 57 -16 65 -27 65 -27 119 9 25 16 50 28 55 27 6 -2 9 -32 6 -70z m1250 -287 c43 -80 79 -148 79 -152 0 -5 -6 -8 -12 -8 -13 0 -168 277 -168 299 0 33 29 -7 101 -139z m961 -1 c-2 -41 -5 -86 -8 -101 -5 -23 4 -33 75 -90 44 -34 80 -68 80 -74 1 -7 -41 -22 -91 -34 -51 -12 -98 -28 -104 -34 -6 -6 -26 -50 -44 -98 -18 -49 -37 -88 -41 -88 -8 0 -103 140 -112 163 -1 5 -49 11 -105 14 -56 3 -105 10 -108 15 -3 5 18 37 47 71 29 34 59 69 66 78 10 13 8 31 -12 105 -29 103 -30 114 -12 114 7 0 52 -16 100 -35 l87 -35 83 55 c45 30 86 54 92 52 6 -2 9 -35 7 -78z m2226 32 c-5 -15 -376 -331 -388 -331 -26 0 3 30 178 179 166 143 221 183 210 152z m-5170 -247 c397 -67 872 -298 1275 -618 59 -47 107 -84 107 -82 0 2 -11 24 -25 48 -52 93 -53 214 -3 312 33 64 112 141 176 169 246 111 581 15 839 -240 221 -218 429 -585 505 -890 13 -51 27 -91 32 -90 4 1 19 44 32 95 67 258 231 571 416 790 231 275 524 412 794 372 202 -30 331 -158 342 -341 5 -84 -6 -133 -44 -191 -13 -21 -22 -38 -20 -38 3 0 55 40 116 89 359 288 800 512 1172 595 314 70 605 51 825 -55 192 -92 283 -239 254 -412 -26 -154 -99 -277 -304 -509 -161 -182 -234 -287 -321 -463 -87 -175 -148 -346 -212 -599 -51 -201 -88 -291 -157 -382 -92 -122 -258 -258 -399 -330 -49 -24 -68 -40 -68 -54 0 -10 23 -47 50 -82 158 -198 181 -241 202 -363 13 -76 1 -125 -48 -188 -41 -53 -53 -98 -54 -203 -1 -155 -39 -219 -177 -289 -117 -60 -127 -74 -153 -218 -25 -142 -49 -184 -164 -290 -151 -140 -188 -240 -166 -460 30 -308 89 -427 365 -743 152 -174 198 -233 241 -310 87 -155 117 -340 75 -458 -39 -111 -104 -146 -170 -90 -17 14 -65 76 -107 137 -151 218 -217 301 -453 565 -547 613 -927 1236 -1085 1779 -50 175 -82 325 -137 653 -28 162 -64 349 -80 415 -32 129 -74 228 -100 233 -11 2 -33 -20 -62 -60 -24 -35 -55 -72 -67 -83 -23 -20 -60 -95 -60 -120 0 -8 18 -35 40 -60 22 -25 41 -52 42 -58 2 -22 9 -201 9 -262 0 -145 -1 -174 -11 -180 -5 -3 -10 -22 -10 -40 0 -19 -13 -60 -29 -92 -16 -32 -36 -85 -45 -118 -49 -178 -104 -246 -220 -274 -59 -15 -138 -1 -188 32 -51 35 -95 110 -130 221 -17 55 -44 125 -60 155 -17 33 -26 62 -22 74 3 10 -2 34 -12 52 -15 28 -16 38 -6 60 9 20 9 31 1 47 -8 15 -9 45 -4 97 5 42 7 111 6 153 -2 75 -2 77 33 116 20 21 39 50 44 63 12 32 -17 100 -68 155 -21 23 -50 60 -64 83 -15 22 -33 41 -40 41 -57 0 -110 -183 -190 -665 -53 -316 -65 -375 -111 -553 -107 -408 -316 -827 -633 -1271 -176 -246 -301 -399 -590 -722 -98 -109 -242 -296 -357 -462 -93 -136 -152 -167 -208 -111 -70 70 -91 232 -47 375 45 150 103 242 272 436 228 262 301 367 351 508 40 115 52 198 52 365 0 149 -1 157 -28 215 -22 46 -53 84 -137 165 -59 58 -116 120 -125 139 -9 19 -25 79 -35 135 -10 56 -23 113 -28 127 -15 38 -74 85 -133 104 -68 23 -131 85 -152 151 -9 27 -19 99 -23 159 -7 116 -11 130 -55 185 -91 114 -48 299 111 489 88 105 106 137 89 158 -7 8 -43 30 -80 48 -95 49 -213 140 -312 245 -118 124 -161 212 -226 465 -66 256 -110 383 -192 555 -103 214 -179 321 -415 586 -88 100 -126 155 -169 247 -125 264 -62 459 189 583 197 97 462 125 734 78z m6769 -1779 c-6 -60 -4 -67 16 -84 78 -66 82 -71 69 -79 -8 -5 -37 -14 -66 -21 -52 -11 -53 -12 -73 -68 -11 -31 -25 -59 -31 -61 -6 -2 -25 18 -42 45 -35 56 -46 61 -117 62 -29 1 -53 5 -53 10 0 5 18 31 40 57 22 27 38 55 35 64 -15 53 -27 112 -22 116 2 3 32 -6 65 -19 l60 -25 49 33 c71 50 77 47 70 -30z m-7221 -41 c90 -41 88 -39 80 -53 -7 -11 -179 62 -184 78 -6 19 24 12 104 -25z m7344 -573 c0 -15 -29 -21 -105 -21 -76 0 -105 6 -105 21 0 5 47 9 105 9 58 0 105 -4 105 -9z m-7263 -260 l-7 -128 97 -74 c54 -41 97 -78 97 -84 -1 -5 -52 -25 -115 -42 -62 -18 -116 -36 -121 -41 -4 -4 -24 -56 -45 -116 -21 -59 -42 -109 -48 -110 -5 0 -41 45 -78 102 l-68 102 -120 0 c-95 0 -121 3 -125 14 -3 9 23 51 65 103 39 48 71 97 71 108 0 11 -14 63 -30 115 -33 105 -36 120 -17 120 6 0 59 -18 117 -40 58 -22 107 -40 111 -40 3 0 50 31 105 70 54 38 103 70 108 70 5 0 6 -54 3 -129z m6768 -139 l-7 -117 86 -68 c47 -38 86 -74 86 -81 0 -7 -40 -22 -97 -35 -54 -13 -104 -27 -112 -31 -8 -4 -31 -52 -51 -106 -20 -55 -43 -100 -51 -101 -8 -2 -38 37 -72 92 l-58 95 -62 0 c-87 0 -167 11 -167 23 0 5 32 47 70 93 l71 84 -31 111 c-17 61 -28 114 -25 117 2 3 54 -14 114 -37 l109 -43 88 60 c49 34 95 61 103 61 11 1 12 -21 6 -117z m-6655 -971 c0 -6 -3 -12 -8 -15 -11 -7 -519 -126 -537 -126 -9 0 -15 5 -13 12 3 7 121 40 264 74 276 66 294 69 294 55z m7086 -208 c-4 -76 -9 -147 -12 -158 -4 -16 20 -40 116 -115 66 -52 120 -100 120 -106 0 -7 -67 -28 -150 -49 l-149 -37 -25 -67 c-14 -36 -38 -100 -54 -141 -16 -43 -34 -75 -42 -75 -7 0 -49 57 -92 126 l-79 127 -154 7 c-85 4 -157 11 -160 15 -2 4 35 54 83 111 48 58 93 112 100 121 10 13 6 40 -28 162 -22 80 -40 148 -40 151 0 13 40 1 165 -49 l135 -54 128 84 c70 46 131 84 136 84 5 0 6 -59 2 -137z m-1082 -214 c126 -76 155 -99 124 -99 -19 0 -271 153 -276 168 -7 23 16 12 152 -69z m-5746 -104 l-6 -65 49 -38 c55 -43 60 -57 22 -66 -104 -25 -99 -22 -122 -87 -13 -33 -27 -59 -32 -57 -5 2 -24 26 -42 53 -32 50 -32 50 -92 53 -33 2 -64 7 -69 12 -5 5 10 30 34 58 l42 50 -18 61 c-9 34 -14 64 -11 68 4 3 33 -4 67 -17 l60 -22 47 31 c71 46 77 43 71 -34z m3514 -41 c30 -77 34 -98 16 -92 -12 4 -66 130 -67 156 -2 34 27 -1 51 -64z m-3037 -53 c6 -11 -94 -91 -113 -91 -25 0 -10 21 45 59 63 46 60 44 68 32z m1955 -41 c0 -6 -25 -60 -56 -121 -37 -75 -59 -108 -65 -102 -7 7 8 48 45 122 50 98 76 133 76 101z m3250 -259 l0 -80 55 -43 c30 -23 55 -46 55 -50 0 -7 -35 -19 -106 -38 -40 -10 -43 -14 -66 -76 -13 -36 -28 -66 -34 -67 -5 0 -27 26 -50 59 l-40 59 -75 5 c-86 6 -88 9 -27 82 l42 49 -17 67 c-9 37 -17 71 -17 76 0 11 33 4 96 -22 l51 -21 59 40 c32 21 62 39 67 39 4 0 7 -36 7 -79z m-2747 22 c3 -5 -1 -154 -9 -333 -7 -179 -13 -337 -14 -352 0 -19 -5 -28 -16 -28 -14 0 -15 12 -10 98 3 53 8 171 11 262 10 318 18 387 38 353z m497 -105 c0 -49 3 -55 35 -81 19 -15 35 -32 35 -37 0 -5 -20 -15 -45 -21 -51 -13 -58 -20 -74 -71 -7 -21 -16 -38 -21 -38 -5 0 -19 15 -31 33 -33 48 -48 57 -96 57 -24 0 -43 3 -43 8 0 4 14 24 31 45 30 37 31 39 19 88 -7 27 -10 52 -8 55 3 2 26 -4 52 -13 46 -17 48 -17 84 4 56 33 62 30 62 -29z m-1016 -371 l-6 -103 82 -68 c45 -37 79 -70 76 -73 -3 -3 -50 -18 -103 -32 l-98 -26 -32 -80 c-17 -44 -34 -88 -37 -99 -7 -27 -21 -13 -81 80 l-55 84 -87 1 c-136 1 -136 1 -58 97 l68 83 -27 100 c-15 56 -25 103 -22 106 3 3 46 -11 96 -31 49 -20 96 -36 103 -36 6 0 46 23 87 50 41 27 81 50 88 50 11 0 12 -21 6 -103z m-2975 41 c0 -17 -305 -269 -332 -276 -14 -4 -18 -2 -13 7 11 17 328 281 338 281 4 0 8 -6 7 -12z m6264 -427 c53 -77 97 -143 97 -146 0 -4 -7 -5 -15 -3 -16 3 -195 256 -195 275 0 29 20 6 113 -126z m-1798 -186 c15 -82 32 -155 39 -162 6 -6 73 -39 149 -73 76 -35 136 -68 134 -74 -2 -6 -66 -45 -143 -86 l-139 -75 -17 -140 c-9 -77 -17 -150 -17 -162 -1 -29 -22 -29 -47 -2 -10 12 -62 61 -115 110 l-97 89 -155 -32 c-86 -18 -159 -29 -163 -25 -4 4 23 70 59 147 37 78 67 146 67 152 0 6 -34 71 -75 145 -41 73 -75 137 -75 143 0 13 1 13 173 -11 81 -11 151 -19 155 -17 5 2 57 56 117 121 59 65 112 114 116 110 4 -4 20 -75 34 -158z m-4169 3 l-6 -113 80 -63 c44 -34 80 -66 80 -71 0 -5 -30 -16 -67 -25 -138 -34 -142 -36 -149 -59 -21 -68 -67 -177 -74 -177 -5 0 -32 39 -61 86 -29 47 -58 88 -64 89 -5 2 -54 7 -107 10 -57 4 -98 11 -98 17 0 6 29 46 64 89 l64 78 -28 98 c-15 54 -24 102 -20 106 4 5 47 -8 96 -27 48 -20 94 -36 101 -36 8 0 50 25 96 55 45 30 86 55 91 55 5 0 6 -50 2 -112z m3184 50 c-1 -57 -20 -249 -26 -259 -15 -25 -20 19 -13 106 4 50 8 109 8 133 1 30 5 42 16 42 9 0 15 -9 15 -22z m-1075 -167 c-66 -133 -95 -175 -95 -141 0 12 138 289 154 309 9 12 11 12 14 -1 2 -9 -31 -84 -73 -167z m4581 -40 c24 -18 44 -39 44 -45 0 -7 -28 -19 -61 -27 l-61 -14 -20 -55 c-11 -30 -24 -59 -28 -64 -5 -4 -25 17 -46 48 -35 53 -39 56 -78 56 -51 0 -86 9 -86 22 0 5 17 30 37 55 l37 45 -17 61 c-9 34 -14 64 -11 66 3 3 33 -4 66 -17 l61 -22 56 35 56 35 3 -72 3 -73 45 -34z m-1811 -361 c159 -331 194 -416 151 -369 -10 11 -334 678 -353 727 -3 6 1 12 9 12 9 0 83 -142 193 -370z m-2623 -111 l-4 -84 66 -53 c37 -29 64 -57 61 -61 -2 -5 -37 -17 -77 -26 -40 -10 -77 -22 -83 -27 -5 -4 -21 -40 -35 -79 -15 -39 -30 -71 -35 -72 -5 -1 -31 31 -57 71 l-48 72 -80 0 c-43 0 -82 5 -85 10 -4 6 17 38 46 71 l53 61 -13 56 c-20 87 -24 122 -13 122 5 0 42 -13 81 -30 l72 -29 67 44 c37 24 72 43 77 41 6 -2 9 -36 7 -87z m-1006 -134 c-16 -43 -263 -435 -273 -435 -7 0 -13 3 -13 6 0 19 267 444 279 444 8 0 11 -6 7 -15z m2799 -237 c18 -83 40 -249 34 -259 -5 -9 -11 -6 -18 12 -11 27 -41 203 -41 243 0 32 18 35 25 4z" id="1"/>
<path d="M5578 8026 l-98 -64 -107 43 c-60 24 -110 42 -111 40 -3 -3 21 -93 54 -207 3 -10 -23 -49 -71 -107 -41 -50 -75 -93 -75 -96 0 -3 45 -5 99 -5 55 0 110 -4 123 -9 14 -5 45 -46 78 -100 30 -50 58 -91 62 -91 3 0 20 37 37 83 51 136 44 129 157 158 56 15 107 28 113 30 7 3 -29 38 -80 78 l-92 74 6 118 c4 66 6 119 4 119 -1 0 -46 -29 -99 -64z" id="2"/>
<path d="M6929 7774 l-36 -25 -48 21 -47 20 6 -22 c21 -73 20 -88 -13 -122 l-32 -33 23 -7 c13 -3 35 -6 50 -6 25 0 45 -18 74 -66 10 -17 14 -14 35 31 21 43 29 51 64 59 22 5 42 10 44 13 3 2 -12 17 -32 34 -34 28 -37 35 -37 80 0 27 -3 49 -7 48 -5 0 -24 -11 -44 -25z" id="3"/>
<path d="M1970 7770 c-30 -24 -47 -25 -93 -5 -20 8 -38 15 -41 15 -2 0 2 -22 9 -49 12 -48 12 -50 -16 -83 -15 -18 -28 -36 -29 -40 0 -5 17 -8 38 -8 43 0 59 -10 92 -59 l23 -34 16 39 c23 58 26 60 76 73 l46 12 -33 27 c-47 38 -49 42 -46 90 3 47 -5 51 -42 22z" id="4"/>
<path d="M4138 7463 l-67 -45 -76 32 c-43 17 -79 29 -82 26 -5 -5 19 -110 34 -152 2 -6 -21 -42 -53 -80 l-56 -69 48 -7 c27 -3 68 -7 90 -7 41 -1 43 -3 84 -71 23 -39 46 -72 50 -75 4 -3 21 32 37 78 l30 82 83 22 c45 12 84 23 86 25 2 2 -27 29 -65 60 l-68 55 5 87 c2 47 1 86 -4 85 -5 0 -39 -21 -76 -46z" id="5"/>
<path d="M860 7225 c-169 -27 -317 -90 -396 -167 -18 -16 -45 -53 -60 -81 -26 -46 -29 -62 -29 -137 0 -159 67 -289 255 -500 206 -231 292 -359 407 -605 59 -129 117 -303 164 -493 66 -270 103 -346 233 -481 128 -132 275 -230 397 -265 170 -48 470 -46 709 6 213 45 618 183 930 314 210 90 230 100 230 125 0 11 -3 19 -7 17 -103 -45 -523 -206 -653 -249 -643 -214 -1031 -233 -1355 -66 -104 54 -238 184 -281 272 -26 53 -29 71 -29 155 0 86 3 101 32 163 23 48 28 67 18 67 -28 0 -65 -20 -106 -57 -38 -35 -42 -36 -54 -20 -7 10 -16 35 -20 55 -13 71 -87 327 -117 402 -37 95 -105 222 -174 327 -35 53 -52 87 -48 98 4 9 31 28 61 42 54 26 93 63 93 90 0 10 -7 11 -27 6 -58 -16 -146 -8 -198 19 -125 65 -225 212 -225 333 0 172 175 325 273 238 22 -20 21 -31 -3 -84 -24 -54 -27 -163 -5 -215 55 -132 200 -200 340 -160 76 23 154 98 179 173 22 66 76 123 117 123 48 0 65 -15 105 -90 22 -42 57 -88 86 -114 53 -49 165 -100 241 -111 26 -4 47 -10 47 -12 0 -3 -15 -35 -32 -72 -76 -152 -22 -322 127 -398 79 -41 152 -42 260 -4 108 37 132 38 193 6 66 -34 87 -53 126 -110 l33 -50 159 0 159 0 68 -33 c47 -24 82 -50 119 -92 l52 -60 111 1 c181 2 294 -52 372 -175 24 -38 25 -40 9 -73 -9 -18 -22 -36 -30 -39 -7 -3 -40 6 -73 20 -87 36 -175 49 -251 37 -72 -12 -157 -48 -210 -90 -63 -49 -75 -48 -152 3 -203 136 -398 180 -630 142 -128 -22 -160 -16 -219 38 -54 51 -74 62 -132 75 -97 22 -202 -30 -245 -122 -72 -155 32 -320 201 -321 98 0 153 40 230 165 54 88 166 134 325 133 173 -1 353 -67 497 -184 l62 -50 58 50 c32 28 85 64 117 80 52 26 70 30 146 30 98 0 171 -20 251 -70 27 -16 53 -30 57 -30 4 0 22 29 39 64 18 35 46 81 64 101 32 36 32 38 14 51 -24 16 -18 11 -135 105 -120 96 -209 183 -340 334 -352 405 -730 753 -1040 960 -351 233 -689 383 -1009 446 -137 27 -364 34 -481 14z m360 -75 c52 -10 126 -29 165 -42 58 -19 72 -28 80 -51 13 -38 0 -56 -66 -89 -134 -68 -149 -71 -320 -64 -177 8 -267 -3 -338 -38 -62 -32 -114 -86 -144 -151 -38 -79 -77 -82 -113 -8 -45 94 -22 234 52 322 44 51 87 73 179 95 39 9 97 25 130 36 51 17 76 19 170 14 61 -3 153 -14 205 -24z m560 -187 c92 -23 239 -84 355 -149 262 -147 605 -388 756 -533 85 -80 95 -105 36 -83 -19 7 -58 12 -88 12 -52 0 -77 -9 -169 -61 -71 -39 -145 -10 -171 69 -25 77 -80 142 -154 180 -48 24 -58 26 -225 28 -141 1 -188 6 -243 21 -131 39 -206 118 -240 254 l-13 51 -50 2 c-62 4 -109 28 -129 66 -22 42 -19 74 10 109 52 61 167 73 325 34z m-552 -122 c44 -23 83 -63 107 -110 13 -25 16 -52 13 -107 -4 -92 -37 -144 -117 -186 -167 -87 -360 58 -322 242 30 147 189 228 319 161z m1063 -483 c51 -15 114 -70 141 -122 30 -57 30 -155 0 -212 -45 -88 -131 -138 -228 -132 -242 15 -310 344 -93 452 58 29 117 33 180 14z m861 -340 c212 -224 341 -367 355 -392 21 -41 3 -50 -109 -57 -56 -3 -116 -2 -133 2 -17 5 -52 31 -78 58 -25 28 -61 57 -78 66 -41 22 -152 45 -216 45 -46 0 -53 3 -53 20 0 11 12 26 29 35 42 21 88 81 107 139 16 47 15 111 -2 204 -13 66 28 39 178 -120z m-293 95 c14 -11 37 -35 49 -54 20 -29 23 -44 20 -96 -3 -55 -8 -67 -38 -98 -66 -68 -151 -71 -221 -8 -68 62 -75 153 -15 221 17 19 44 41 61 49 39 17 110 11 144 -14z m-817 -693 c94 -27 150 -122 127 -216 -13 -51 -49 -91 -107 -116 -104 -46 -220 28 -230 146 -7 86 43 161 125 186 38 11 43 11 85 0z" id="6"/>
<path d="M845 7126 c-16 -7 -70 -23 -120 -35 -49 -12 -104 -32 -121 -43 -71 -49 -122 -166 -110 -254 6 -47 31 -104 45 -104 5 0 21 25 35 55 34 68 109 137 184 167 54 22 70 23 277 23 l220 0 90 45 c49 25 91 50 93 57 12 41 -268 103 -463 102 -59 0 -112 -5 -130 -13z m45 -34 c0 -11 -37 -32 -44 -25 -8 9 14 33 30 33 8 0 14 -3 14 -8z m56 -6 c10 -8 15 -18 11 -22 -4 -4 -17 2 -29 14 -25 25 -13 30 18 8z m164 -4 c0 -10 -22 -32 -32 -32 -13 0 -9 28 5 33 19 8 27 8 27 -1z m60 -12 c8 -5 11 -12 8 -15 -4 -4 -17 0 -30 9 -24 17 -5 23 22 6z m-490 -29 c0 -13 -28 -33 -41 -29 -8 3 -6 9 5 21 19 18 36 22 36 8z m172 -16 c3 -13 1 -22 -3 -19 -9 5 -13 44 -5 44 2 0 6 -11 8 -25z m118 -1 c0 -17 -6 -28 -20 -31 -11 -3 -20 -9 -20 -14 0 -12 -37 -12 -44 0 -7 11 22 23 35 15 5 -3 14 8 20 25 13 38 29 40 29 5z m-230 6 c8 -5 11 -12 7 -16 -4 -4 -15 0 -24 9 -18 18 -8 23 17 7z m339 -33 c1 -5 -3 -5 -9 -2 -5 3 -10 16 -9 28 0 21 1 21 9 2 5 -11 9 -24 9 -28z m115 8 c-9 -21 -62 -55 -78 -49 -26 10 -18 24 12 24 22 0 30 7 40 33 9 24 15 29 21 18 5 -8 7 -20 5 -26z m-545 -48 c1 -5 -3 -5 -9 -2 -5 3 -10 16 -9 28 0 21 1 21 9 2 5 -11 9 -24 9 -28z m85 -22 c-15 -12 -36 -20 -46 -17 -28 7 -21 22 10 22 22 0 31 7 41 33 13 31 14 31 18 8 4 -17 -3 -30 -23 -46z" id="7"/>
<path d="M1514 6932 c-44 -21 -58 -49 -44 -86 14 -38 40 -51 113 -56 l71 -5 11 -55 c15 -74 36 -119 75 -164 69 -79 168 -106 386 -106 163 0 203 -8 271 -55 l38 -25 3 22 c8 70 23 86 91 97 35 6 34 7 -105 97 -268 176 -428 262 -587 316 -121 41 -260 49 -323 20z m557 -149 c31 -18 59 -67 59 -102 0 -58 -61 -131 -110 -131 -30 0 -84 37 -102 71 -33 61 -18 116 41 156 40 27 73 29 112 6z m225 -129 c67 -32 83 -106 35 -155 -42 -42 -97 -35 -153 19 -47 44 -30 116 32 141 35 14 48 13 86 -5z" id="8"/>
<path d="M1959 6741 c-49 -49 -33 -124 31 -151 38 -16 67 -5 91 33 60 99 -42 197 -122 118z" id="9"/>
<path d="M2211 6627 c-13 -6 -28 -23 -32 -35 -8 -20 -3 -30 25 -58 23 -23 43 -34 63 -34 71 0 87 92 22 125 -34 18 -47 18 -78 2z" id="10"/>
<path d="M2488 6459 c-25 -14 -24 -75 1 -89 30 -16 76 -12 101 8 58 47 -36 120 -102 81z" id="11"/>
<path d="M2636 6422 c4 -22 0 -36 -19 -58 -23 -26 -31 -29 -86 -29 -53 1 -59 -1 -47 -15 7 -8 20 -28 29 -45 l15 -30 12 27 c14 30 59 53 88 44 16 -6 19 -3 14 19 -5 28 21 65 46 65 9 0 2 11 -18 25 -19 14 -35 25 -37 25 -1 0 0 -13 3 -28z" id="12"/>
<path d="M2674 6355 c-8 -21 4 -35 32 -35 17 0 24 6 24 19 0 29 -46 43 -56 16z" id="13"/>
<path d="M2760 6333 c0 -27 -20 -43 -52 -43 -25 0 -27 -3 -22 -29 3 -16 1 -38 -5 -50 -15 -27 -12 -26 40 4 24 13 67 27 97 31 l53 6 -28 30 c-15 16 -40 39 -55 50 -27 19 -28 19 -28 1z" id="14"/>
<path d="M2576 6274 c-22 -22 -20 -50 6 -68 28 -20 43 -20 62 0 22 21 20 61 -3 74 -27 14 -47 13 -65 -6z" id="15"/>
<path d="M1042 6819 c-189 -94 -121 -380 91 -380 63 0 103 14 140 49 104 98 83 263 -42 329 -57 30 -130 31 -189 2z m128 -79 c11 -7 7 -10 -17 -10 -17 0 -35 5 -38 10 -8 13 35 13 55 0z m-70 -8 c0 -5 -11 -19 -25 -32 -28 -27 -36 -8 -8 22 17 19 33 24 33 10z m136 -59 c-4 -4 -14 1 -22 11 -22 31 -17 43 8 19 12 -13 18 -26 14 -30z m14 -48 c0 -24 -62 -85 -87 -85 -34 0 -28 17 12 31 19 7 35 16 35 20 0 4 4 20 10 34 10 26 30 26 30 0z m-134 -60 c19 -14 19 -14 -2 -15 -12 0 -27 7 -34 15 -17 20 9 21 36 0z" id="16"/>
<path d="M2157 6337 c-90 -29 -147 -108 -147 -202 0 -133 86 -219 216 -219 76 0 141 35 182 96 24 36 27 51 27 119 0 70 -3 81 -30 121 -55 77 -161 114 -248 85z m98 -128 c3 -4 -7 -6 -22 -4 -16 2 -32 4 -38 4 -5 1 -4 5 4 10 14 9 48 4 56 -10z m-75 -6 c0 -10 -32 -43 -42 -43 -12 0 -10 24 4 38 13 13 38 16 38 5z m130 -34 c15 -28 4 -38 -15 -13 -17 22 -19 34 -5 34 5 0 14 -9 20 -21z m-176 -64 c5 -22 4 -26 -4 -15 -5 8 -10 24 -10 34 0 26 6 18 14 -19z m196 1 c0 -26 -12 -46 -27 -46 -10 0 -13 6 -9 16 3 9 6 22 6 30 0 8 7 14 15 14 8 0 15 -6 15 -14z m-139 -66 c18 -15 20 -19 8 -20 -9 0 -24 9 -34 20 -23 26 -4 26 26 0z m99 0 c0 -15 -40 -32 -58 -25 -15 6 -15 8 2 21 23 16 56 19 56 4z" id="17"/>
<path d="M3015 6012 l0 -99 27 20 c69 51 158 0 158 -90 0 -35 -60 -93 -96 -93 -28 -1 -28 -1 11 -22 22 -11 60 -39 84 -62 29 -27 41 -34 36 -21 -16 43 -15 52 5 78 26 33 71 36 100 7 27 -27 25 -66 -6 -96 -24 -25 -34 -26 -79 -8 -18 7 -18 6 -6 -9 11 -14 30 -17 100 -16 151 2 151 -8 -10 169 -133 145 -317 340 -322 340 -1 0 -2 -44 -2 -98z" id="18"/>
<path d="M3052 5910 c-29 -27 -30 -90 -3 -114 26 -24 88 -23 112 1 32 32 33 66 4 101 -32 38 -79 43 -113 12z" id="19"/>
<path d="M2975 5855 c-10 -20 -29 -45 -42 -55 -13 -10 -23 -20 -23 -23 0 -2 26 -7 58 -10 32 -4 67 -10 78 -14 13 -5 9 3 -13 25 -23 24 -33 43 -35 73 l-3 40 -20 -36z" id="20"/>
<path d="M3266 5714 c-19 -18 -20 -28 -6 -55 13 -23 53 -25 74 -3 21 20 20 37 -2 57 -23 21 -46 22 -66 1z" id="21"/>
<path d="M2704 6091 c-34 -21 -64 -75 -64 -116 0 -41 30 -95 64 -116 38 -23 106 -25 147 -4 88 46 92 183 6 235 -41 26 -112 26 -153 1z" id="22"/>
<path d="M1932 5380 c-53 -32 -74 -75 -69 -142 4 -63 25 -96 81 -125 38 -20 118 -12 154 14 62 45 80 142 39 204 -44 66 -139 89 -205 49z" id="23"/>
<path d="M7250 7235 c-8 -2 -55 -9 -105 -15 -368 -50 -857 -281 -1260 -595 -247 -192 -581 -514 -827 -795 -161 -184 -257 -279 -393 -385 -55 -43 -104 -82 -109 -86 -5 -4 6 -26 24 -49 18 -22 47 -69 64 -104 l32 -63 64 39 c91 55 153 71 258 66 102 -4 152 -24 241 -99 33 -27 64 -49 70 -49 6 0 39 22 73 50 76 61 197 122 303 152 112 31 276 31 357 -1 81 -31 119 -60 155 -116 77 -121 129 -158 224 -159 106 -2 206 80 224 184 24 139 -83 264 -224 263 -68 -1 -108 -19 -172 -79 -60 -55 -90 -60 -225 -39 -244 39 -459 -14 -653 -159 -19 -14 -42 -26 -51 -26 -9 0 -45 20 -80 45 -95 67 -157 88 -265 88 -78 0 -101 -4 -174 -33 l-85 -33 -23 29 c-31 39 -29 52 15 115 72 104 191 153 361 150 l104 -1 54 60 c37 41 75 69 121 92 l67 33 157 0 158 0 34 50 c51 76 138 135 199 135 14 0 67 -14 118 -31 109 -36 186 -36 257 0 109 56 165 146 165 267 0 63 -4 82 -33 139 -18 36 -31 67 -29 68 2 2 31 9 64 16 143 30 255 110 306 219 32 68 57 92 95 92 48 0 91 -42 129 -125 18 -39 49 -88 70 -108 43 -41 127 -77 184 -77 101 0 206 64 254 155 29 54 31 193 4 244 -24 43 -16 75 23 91 70 29 164 -26 215 -125 41 -79 42 -173 4 -255 -33 -71 -123 -168 -190 -204 -55 -31 -140 -40 -206 -23 -21 6 -33 5 -33 -1 0 -24 57 -75 107 -97 47 -21 53 -27 53 -53 0 -16 -7 -35 -15 -42 -34 -29 -157 -251 -209 -380 -24 -59 -105 -339 -121 -417 -9 -45 -22 -50 -53 -20 -37 34 -93 67 -115 67 -10 0 -17 -3 -15 -7 31 -61 50 -111 59 -155 48 -250 -188 -499 -556 -584 -108 -25 -356 -25 -510 0 -268 44 -642 159 -1046 321 -116 47 -214 84 -216 82 -2 -2 0 -12 3 -22 21 -53 760 -336 1084 -415 187 -45 263 -54 455 -54 192 0 290 11 381 45 136 51 366 242 452 378 54 82 76 143 123 335 74 297 165 533 287 741 56 95 159 229 297 385 119 135 155 186 200 283 82 180 68 318 -45 426 -90 87 -243 147 -433 171 -74 9 -240 12 -277 5z m365 -83 c39 -12 102 -30 140 -41 87 -25 132 -61 174 -141 56 -105 52 -230 -10 -292 -37 -38 -57 -28 -93 46 -34 69 -97 127 -172 157 -55 22 -73 23 -279 24 l-220 0 -87 42 c-150 73 -153 122 -11 166 206 65 423 80 558 39z m-690 -186 c75 -32 94 -110 40 -166 -31 -32 -89 -53 -133 -48 -23 3 -27 -2 -37 -42 -54 -210 -227 -305 -520 -286 -130 9 -183 -6 -256 -72 -37 -33 -61 -67 -84 -117 -40 -86 -55 -100 -114 -100 -36 0 -59 8 -100 35 -44 27 -67 35 -117 38 -34 2 -79 -1 -99 -8 -20 -7 -39 -9 -43 -6 -10 10 115 130 223 215 280 219 631 434 842 516 160 61 312 77 398 41z m475 -126 c154 -80 164 -302 16 -394 -170 -106 -383 48 -336 243 34 145 190 218 320 151z m-1095 -489 c83 -39 145 -133 145 -221 0 -57 -27 -121 -68 -164 -97 -102 -247 -102 -345 -1 -145 149 -36 405 173 405 33 0 71 -8 95 -19z m-850 -210 c-3 -14 -8 -60 -12 -101 -4 -64 -2 -84 17 -128 21 -47 69 -101 115 -128 12 -6 16 -16 12 -27 -5 -14 -21 -17 -86 -17 -115 0 -177 -25 -258 -106 -36 -35 -74 -65 -86 -65 -65 -5 -224 5 -234 13 -7 6 -13 17 -13 24 0 19 172 211 422 471 69 73 102 101 114 96 11 -4 14 -13 9 -32z m275 -16 c116 -59 119 -228 5 -292 -160 -90 -326 119 -202 253 54 58 129 73 197 39z m778 -722 c78 -37 112 -146 72 -228 -65 -134 -245 -134 -310 0 -18 36 -21 56 -16 92 18 130 135 192 254 136z" id="24"/>
<path d="M7273 7129 c-33 -5 -105 -20 -158 -34 -157 -40 -161 -55 -32 -116 l92 -44 181 3 c99 2 206 -1 236 -7 118 -21 205 -83 257 -180 18 -34 36 -61 40 -61 20 0 45 77 45 135 -1 78 -33 153 -89 204 -35 32 -56 42 -121 57 -44 9 -103 25 -133 35 -59 21 -204 24 -318 8z m83 -44 c-22 -16 -46 -20 -46 -7 0 15 13 22 39 22 25 -1 25 -1 7 -15z m224 6 c0 -11 -39 -25 -47 -18 -3 3 -2 10 2 16 8 13 45 15 45 2z m-160 -37 c0 -19 -16 -10 -31 17 -10 19 -9 20 10 9 12 -6 21 -18 21 -26z m208 14 c14 -14 16 -28 2 -28 -5 0 -14 9 -20 20 -12 22 -1 27 18 8z m-319 -35 c0 -25 -1 -25 -8 -8 -5 11 -7 23 -4 28 8 14 13 7 12 -20z m221 20 c0 -5 -5 -15 -10 -23 -8 -12 -10 -11 -10 8 0 12 5 22 10 22 6 0 10 -3 10 -7z m-113 -56 c-8 -12 -18 -22 -23 -23 -5 0 -17 -4 -27 -9 -13 -5 -24 -2 -35 9 -16 16 -15 17 13 14 22 -2 35 3 48 20 23 28 44 19 24 -11z m213 -12 c-7 -8 -16 -15 -21 -15 -15 0 -10 22 9 43 15 17 17 17 20 3 2 -9 -2 -23 -8 -31z m155 25 c7 -11 -35 -31 -49 -22 -5 3 -1 11 9 19 22 16 32 16 40 3z m54 -36 c3 -16 1 -17 -13 -5 -19 16 -21 34 -3 29 6 -3 14 -13 16 -24z m-251 -2 c3 -9 -3 -13 -19 -10 -12 1 -24 9 -27 16 -3 9 3 13 19 10 12 -1 24 -9 27 -16z m139 -29 c-3 -10 -5 -4 -5 12 0 17 2 24 5 18 2 -7 2 -21 0 -30z m123 -17 c0 -35 -77 -59 -101 -30 -13 16 -12 17 19 11 26 -5 35 -3 44 13 15 23 38 27 38 6z" id="25"/>
<path d="M6655 6930 c-184 -48 -421 -173 -714 -374 -65 -44 -71 -51 -50 -54 71 -9 107 -47 96 -102 l-7 -31 33 25 c70 53 100 60 302 67 212 7 267 19 337 72 52 40 104 136 114 207 l7 50 59 0 c96 0 141 37 124 104 -14 55 -163 73 -301 36z m-184 -153 c38 -25 64 -84 55 -121 -9 -38 -63 -94 -96 -101 -39 -8 -79 12 -107 54 -73 109 42 240 148 168z m-218 -147 c32 -36 34 -68 7 -102 -22 -28 -77 -58 -108 -58 -11 0 -34 12 -51 26 -54 45 -37 129 33 160 43 19 86 10 119 -26z" id="26"/>
<path d="M6355 6745 c-37 -36 -35 -97 4 -136 38 -38 65 -37 107 5 44 44 46 86 5 127 -38 37 -82 39 -116 4z" id="27"/>
<path d="M6150 6633 c-32 -12 -50 -37 -50 -69 0 -38 22 -64 53 -64 27 0 86 35 93 55 20 50 -40 98 -96 78z" id="28"/>
<path d="M5842 6454 c-47 -33 -15 -94 51 -94 41 0 67 21 67 55 0 50 -69 74 -118 39z" id="29"/>
<path d="M5756 6426 c-28 -23 -28 -24 -7 -31 27 -8 44 -40 36 -65 -5 -17 -3 -19 22 -14 31 6 83 -26 83 -52 0 -25 16 -15 35 24 11 20 21 40 23 43 1 3 -19 4 -46 1 -41 -4 -52 0 -81 24 -27 23 -32 33 -29 61 5 39 2 40 -36 9z" id="30"/>
<path d="M5706 6354 c-21 -21 -8 -37 25 -32 16 2 24 10 24 23 0 26 -28 31 -49 9z" id="31"/>
<path d="M5597 6296 l-48 -43 58 -7 c32 -4 76 -17 98 -29 l40 -23 0 48 c0 45 -1 48 -27 48 -16 0 -34 9 -46 25 -11 14 -21 25 -23 25 -2 -1 -26 -20 -52 -44z" id="32"/>
<path d="M5788 6279 c-25 -14 -23 -65 2 -79 47 -25 94 22 65 66 -16 25 -39 30 -67 13z" id="33"/>
<path d="M7210 6824 c-130 -56 -163 -228 -64 -328 87 -86 245 -75 311 23 43 64 51 144 20 206 -17 35 -71 86 -106 101 -43 18 -117 17 -161 -2z m120 -94 c11 -7 7 -10 -17 -10 -18 0 -33 5 -33 10 0 13 30 13 50 0z m-70 -12 c0 -14 -30 -48 -42 -48 -13 0 -9 22 9 42 18 21 33 23 33 6z m136 -55 c-4 -4 -14 1 -22 11 -22 31 -17 43 8 19 12 -13 18 -26 14 -30z m14 -54 c0 -10 -9 -24 -20 -31 -11 -7 -20 -18 -20 -25 0 -14 -42 -28 -62 -20 -7 2 4 12 25 23 24 12 40 27 44 44 3 14 8 28 10 33 7 13 23 -3 23 -24z m-127 -59 c20 -18 -13 -18 -34 1 l-24 20 25 -7 c14 -3 29 -10 33 -14z" id="34"/>
<path d="M6137 6337 c-90 -29 -151 -113 -151 -207 0 -124 92 -213 220 -214 75 0 141 35 182 96 24 36 27 51 27 119 0 70 -3 81 -30 121 -55 77 -161 114 -248 85z m113 -117 c11 -7 7 -10 -17 -10 -18 0 -33 5 -33 10 0 13 30 13 50 0z m-70 -8 c0 -16 -44 -56 -48 -43 -2 7 4 21 14 32 18 20 34 25 34 11z m136 -59 c-4 -4 -14 1 -22 11 -22 31 -17 43 8 19 12 -13 18 -26 14 -30z m-177 -58 c0 -5 -4 -3 -9 5 -5 8 -9 22 -9 30 0 16 17 -16 18 -35z m191 17 c0 -25 -25 -58 -34 -44 -8 13 10 62 24 62 5 0 10 -8 10 -18z m-135 -65 c11 -9 14 -16 8 -20 -6 -4 -22 2 -34 13 -18 14 -20 19 -8 20 8 0 23 -6 34 -13z m95 -1 c0 -15 -21 -26 -51 -26 -28 0 -23 17 9 28 37 14 42 14 42 -2z" id="35"/>
<path d="M5300 5998 c-58 -61 -160 -172 -228 -247 -141 -154 -141 -149 1 -150 l89 -1 61 59 c34 32 75 65 91 73 l29 15 -29 7 c-89 22 -111 141 -33 181 41 22 74 18 109 -12 l31 -26 -8 39 c-4 21 -7 69 -6 107 1 37 1 67 0 67 -1 0 -49 -50 -107 -112z m-122 -264 c32 -22 30 -76 -4 -103 -15 -12 -32 -21 -39 -21 -7 0 -24 9 -39 21 -69 55 9 154 82 103z" id="36"/>
<path d="M5096 5711 c-33 -37 -3 -80 47 -67 21 5 27 12 27 34 0 51 -42 69 -74 33z" id="37"/>
<path d="M5278 5910 c-33 -25 -39 -49 -22 -88 33 -79 158 -36 139 48 -4 19 -17 36 -35 45 -38 20 -52 19 -82 -5z" id="38"/>
<path d="M5425 5872 c5 -24 1 -42 -15 -69 l-21 -36 47 7 c26 3 54 6 62 6 12 0 9 7 -10 28 -14 15 -36 43 -48 62 l-21 35 6 -33z" id="39"/>
<path d="M5580 6102 c-48 -25 -85 -98 -75 -149 9 -48 71 -112 111 -115 107 -5 174 47 174 137 0 111 -111 178 -210 127z" id="40"/>
<path d="M6339 5377 c-19 -12 -45 -44 -58 -70 -21 -44 -22 -51 -11 -92 14 -49 63 -100 106 -111 38 -10 104 2 133 23 61 45 78 151 34 211 -45 62 -142 80 -204 39z" id="41"/>
<path d="M2912 7074 c-72 -19 -101 -35 -149 -84 -60 -60 -87 -121 -91 -208 -5 -92 15 -149 75 -213 106 -113 288 -123 397 -21 124 117 60 358 -101 378 -70 9 -173 -67 -173 -127 0 -17 4 -16 36 6 42 29 61 31 108 11 94 -39 102 -162 13 -216 -94 -58 -202 28 -201 160 1 155 154 249 337 206 357 -84 734 -557 877 -1104 8 -32 14 -41 23 -34 7 6 35 18 63 27 l52 16 -10 42 c-17 76 -70 220 -119 326 -211 449 -508 755 -807 832 -90 23 -251 25 -330 3z m88 -54 c0 -20 -5 -30 -15 -30 -10 0 -15 10 -15 30 0 20 5 30 15 30 10 0 15 -10 15 -30z m380 -63 c0 -7 -6 -22 -14 -33 -14 -18 -15 -18 -21 -1 -7 17 10 47 26 47 5 0 9 -6 9 -13z m300 -214 c0 -10 -32 -43 -42 -43 -12 0 -10 24 4 38 13 13 38 16 38 5z m177 -239 c2 -6 -6 -14 -19 -17 -27 -7 -32 -3 -24 18 6 18 37 17 43 -1z m117 -249 c-22 -16 -44 -19 -44 -6 0 6 10 17 22 25 29 21 51 3 22 -19z" id="42"/>
<path d="M5170 7067 c-161 -50 -297 -141 -442 -296 -182 -194 -349 -481 -436 -751 -47 -147 -47 -148 -15 -156 16 -4 44 -15 64 -25 l36 -18 27 95 c89 318 238 577 456 794 131 131 220 193 345 240 85 32 214 34 271 3 45 -24 100 -82 115 -120 16 -43 10 -124 -12 -171 -44 -91 -141 -109 -206 -38 -105 114 54 271 170 168 19 -17 20 -16 13 12 -15 63 -94 126 -157 126 -43 0 -112 -43 -144 -88 -24 -35 -30 -55 -33 -112 -5 -85 8 -127 56 -175 53 -54 110 -77 194 -77 275 0 389 335 178 525 -71 64 -119 79 -275 83 -114 4 -139 1 -205 -19z m295 -27 c8 -13 -4 -50 -16 -50 -5 0 -9 14 -9 30 0 30 13 40 25 20z m-377 -103 c4 -34 -11 -35 -26 -2 -16 34 -15 37 6 33 10 -2 18 -14 20 -31z m-288 -206 c13 -25 13 -31 -2 -31 -7 0 -21 12 -31 25 -17 24 -17 25 2 25 11 0 25 -9 31 -19z m-180 -226 c7 -9 10 -18 7 -21 -10 -10 -47 7 -47 22 0 19 24 18 40 -1z m-139 -225 c18 -10 27 -40 12 -40 -14 1 -43 27 -43 39 0 14 6 14 31 1z" id="43"/>
<path d="M3157 6906 c18 -15 44 -52 59 -82 32 -66 36 -155 9 -222 -22 -54 -101 -125 -162 -146 -57 -20 -164 -20 -218 -1 -22 8 -41 15 -43 15 -1 0 98 -100 221 -222 123 -123 289 -299 369 -393 80 -93 181 -204 224 -246 79 -75 216 -189 228 -189 17 0 2 56 -29 113 -41 74 -44 111 -12 158 30 44 116 89 173 89 41 0 44 2 44 26 0 52 -85 281 -157 424 -154 306 -367 541 -588 649 -44 22 -96 43 -115 46 l-35 8 32 -27z" id="44"/>
<path d="M5233 6916 c-232 -73 -518 -371 -683 -711 -65 -135 -140 -345 -140 -393 0 -31 1 -32 43 -32 104 -1 208 -94 193 -174 -4 -18 -20 -54 -36 -80 -26 -41 -41 -106 -24 -106 9 0 151 118 223 185 35 33 129 137 209 230 80 94 250 275 378 403 128 127 231 232 229 232 -1 0 -22 -7 -45 -15 -106 -37 -244 -8 -317 67 -62 65 -78 102 -77 183 1 81 19 129 70 185 40 44 39 45 -23 26z" id="45"/>
<path d="M740 6796 c-90 -61 -121 -205 -69 -316 36 -76 109 -153 175 -186 52 -25 60 -27 149 -20 103 7 110 3 100 -44 -8 -39 -58 -88 -112 -112 -45 -20 -53 -37 -28 -58 20 -17 103 -155 153 -255 52 -105 83 -193 133 -378 23 -84 43 -154 45 -156 2 -2 21 8 41 22 51 35 92 49 120 42 30 -7 30 -34 -2 -99 -92 -190 -23 -382 190 -525 244 -163 569 -187 1030 -76 171 41 292 78 499 152 124 44 154 58 138 64 -12 5 -24 20 -28 33 -6 24 -8 25 -27 11 -12 -8 -38 -15 -59 -15 -50 0 -78 30 -78 83 0 50 52 107 98 107 40 0 82 -49 82 -95 0 -33 1 -34 30 -24 l29 11 -19 26 c-31 44 -34 91 -8 142 50 98 136 101 228 9 40 -39 50 -46 50 -30 0 11 11 28 25 39 l25 20 -53 23 c-42 19 -70 23 -147 23 -113 1 -152 -14 -250 -99 -35 -30 -72 -55 -81 -55 -10 0 -34 14 -52 30 -42 36 -49 38 -37 6 13 -34 -6 -93 -40 -128 -23 -22 -38 -28 -72 -28 -56 0 -82 19 -103 75 -23 59 -14 106 27 140 27 23 38 26 70 21 21 -3 38 -4 38 -1 0 13 -151 76 -229 96 -66 17 -106 20 -191 17 -99 -3 -113 -6 -176 -38 -63 -32 -73 -42 -112 -108 -86 -144 -215 -189 -349 -122 -97 48 -143 124 -143 232 0 74 22 129 70 176 55 56 106 76 185 76 81 0 132 -22 197 -84 50 -48 72 -52 178 -33 60 11 126 14 225 10 123 -4 134 -3 92 8 -54 14 -84 37 -103 81 -43 102 115 217 216 157 54 -32 89 -123 67 -175 -18 -43 -37 -57 -94 -72 l-48 -12 46 -12 c68 -17 165 -63 243 -116 70 -47 90 -53 116 -36 12 8 9 10 -11 10 -28 0 -59 27 -59 53 0 24 29 47 60 47 34 0 43 -12 42 -52 0 -16 2 -28 6 -26 139 72 164 81 250 86 79 4 96 2 181 -28 63 -21 97 -28 103 -22 17 17 0 59 -42 103 -41 43 -61 48 -40 10 9 -18 7 -25 -14 -46 -21 -21 -28 -23 -54 -14 -41 14 -58 54 -37 85 8 13 25 24 37 24 34 0 10 16 -51 34 -75 22 -87 20 -55 -7 53 -46 18 -127 -56 -127 -93 0 -123 95 -45 139 16 9 10 10 -31 5 -63 -8 -74 -2 -160 84 -50 50 -83 73 -119 86 -72 24 -163 31 -250 17 -41 -7 -84 -9 -96 -6 -11 4 -36 31 -55 61 -38 60 -98 109 -150 123 -36 10 -67 4 -158 -28 -166 -59 -341 10 -416 164 -21 42 -25 64 -25 140 1 84 7 111 43 177 1 3 -23 14 -55 23 -78 23 -183 79 -221 118 -17 18 -48 63 -69 101 -21 38 -46 74 -56 80 -32 20 -68 -12 -113 -102 -48 -96 -76 -129 -147 -167 -38 -21 -69 -29 -123 -33 -97 -6 -158 15 -228 79 -95 87 -127 208 -87 327 12 35 19 67 16 73 -12 18 -80 9 -115 -15z m915 -733 c141 -74 195 -240 124 -381 -50 -102 -136 -155 -250 -156 -159 -1 -283 125 -282 284 1 113 62 206 167 257 43 20 62 23 126 20 50 -2 88 -11 115 -24z m849 -254 c34 -40 33 -74 -3 -110 -36 -35 -70 -37 -108 -5 -34 29 -39 92 -9 125 30 33 88 29 120 -10z m553 -174 c86 -36 143 -102 143 -166 0 -31 -8 -44 -50 -83 -107 -100 -184 -87 -223 37 -32 101 -14 181 46 211 40 19 40 19 84 1z m-434 -795 c74 -58 18 -180 -83 -180 -66 0 -110 81 -79 143 30 58 112 76 162 37z" id="46"/>
<path d="M1412 6034 c-87 -43 -136 -124 -136 -224 0 -118 71 -214 182 -246 70 -21 136 -11 204 29 74 45 111 108 116 197 5 86 -10 132 -62 188 -54 60 -104 82 -187 82 -50 0 -77 -6 -117 -26z m223 -62 c55 -38 85 -94 85 -159 0 -63 -13 -99 -48 -136 -89 -95 -222 -88 -306 16 -41 51 -49 143 -17 205 54 106 190 141 286 74z" id="47"/>
<path d="M1439 5957 c-78 -53 -104 -155 -58 -236 70 -123 252 -116 310 13 55 122 -27 246 -163 246 -41 0 -64 -6 -89 -23z" id="48"/>
<path d="M2410 5800 c-24 -24 -25 -48 -4 -78 18 -27 55 -29 77 -4 24 27 21 58 -9 81 -33 26 -39 26 -64 1z" id="49"/>
<path d="M2984 5610 c-47 -19 -57 -135 -18 -211 20 -41 31 -49 64 -48 31 0 58 15 104 57 28 25 36 40 36 67 0 41 -44 97 -101 126 -42 21 -53 22 -85 9z" id="50"/>
<path d="M2524 4826 c-47 -21 -61 -87 -26 -119 64 -58 171 36 115 101 -25 28 -52 33 -89 18z" id="51"/>
<path d="M7566 6811 c-3 -5 4 -30 15 -57 64 -144 -7 -325 -156 -395 -162 -77 -361 5 -422 173 -29 82 -81 126 -119 100 -6 -4 -26 -36 -44 -71 -61 -115 -152 -185 -294 -226 -47 -14 -56 -20 -50 -33 34 -80 46 -131 41 -188 -13 -169 -138 -292 -304 -302 -61 -3 -87 1 -172 28 l-99 32 -54 -24 c-31 -15 -67 -42 -88 -67 -95 -114 -94 -114 -152 -104 -29 4 -93 8 -143 7 -130 -1 -185 -24 -281 -121 l-74 -76 -54 7 -54 6 29 -29 c35 -36 37 -64 4 -96 -18 -19 -35 -25 -65 -25 -44 0 -90 34 -90 65 0 21 19 57 39 72 24 18 1 16 -75 -9 -53 -17 -63 -23 -44 -26 36 -6 50 -20 50 -52 0 -41 -32 -65 -83 -61 -25 2 -42 43 -28 70 7 11 8 21 3 21 -16 0 -81 -78 -88 -105 -11 -43 8 -50 68 -27 155 61 275 56 413 -17 28 -14 53 -27 56 -29 4 -1 4 9 1 23 -7 37 24 68 60 61 16 -3 28 -4 28 -3 0 2 -21 19 -46 38 -90 66 -91 134 -3 213 86 77 152 82 201 15 44 -59 26 -193 -33 -252 -26 -26 -35 -29 -73 -25 l-43 5 10 -28 c9 -23 8 -32 -8 -48 -10 -12 -27 -21 -37 -21 -11 0 -16 -4 -13 -10 11 -17 40 -11 76 16 61 45 160 97 241 125 l79 27 -41 7 c-24 4 -56 19 -74 35 -26 24 -31 35 -31 72 1 56 30 115 69 139 89 55 226 -22 226 -126 0 -49 -51 -100 -113 -113 -29 -6 2 -7 98 -4 99 3 165 0 227 -11 47 -9 97 -13 110 -10 12 4 47 28 75 54 116 104 268 103 370 -3 149 -155 53 -413 -162 -435 -102 -11 -200 43 -255 141 -63 112 -132 148 -293 154 -134 5 -220 -13 -344 -74 -80 -39 -84 -42 -46 -37 108 14 159 -114 81 -203 -26 -29 -37 -34 -73 -34 -32 0 -52 7 -74 26 -39 32 -59 94 -43 130 18 38 15 38 -32 0 -23 -20 -50 -36 -59 -36 -9 0 -42 23 -74 51 -32 28 -80 62 -108 76 -85 44 -205 42 -313 -3 l-35 -14 27 -21 c14 -11 26 -29 26 -39 0 -15 12 -7 49 30 63 63 118 82 164 56 46 -25 70 -62 75 -117 3 -36 0 -57 -16 -82 l-20 -35 24 -11 c33 -15 37 -14 30 4 -7 20 10 64 36 93 32 33 73 29 114 -12 63 -63 35 -156 -47 -156 -22 0 -51 7 -64 16 -24 16 -25 16 -25 -8 0 -16 -8 -28 -22 -35 -19 -8 -4 -16 105 -56 683 -250 1140 -295 1462 -142 140 67 266 188 306 295 32 84 24 203 -19 287 -17 35 -29 69 -26 77 14 37 84 25 146 -24 27 -22 39 -27 42 -18 3 7 23 83 46 168 65 242 124 379 247 569 30 46 53 85 51 87 -2 1 -28 16 -58 31 -61 32 -102 84 -98 123 l3 25 96 -4 c120 -4 167 14 244 95 77 79 105 141 105 226 0 102 -39 176 -112 214 -30 16 -94 19 -102 5z m-541 -748 c141 -74 195 -240 124 -381 -50 -102 -136 -155 -250 -156 -159 -1 -282 123 -282 284 0 113 61 206 167 257 43 20 62 23 126 20 50 -2 88 -11 115 -24z m-985 -243 c29 -29 27 -94 -5 -125 -33 -33 -70 -32 -106 4 -37 38 -38 79 -3 115 33 32 85 35 114 6z m-101 -986 c38 -32 49 -80 27 -122 -29 -55 -85 -68 -144 -32 -57 35 -68 99 -26 149 35 41 97 44 143 5z" id="52"/>
<path d="M6782 6034 c-87 -43 -136 -124 -136 -224 0 -118 71 -214 182 -246 70 -21 136 -11 204 29 74 45 111 108 116 197 5 86 -10 132 -62 188 -54 60 -104 82 -187 82 -50 0 -77 -6 -117 -26z m205 -49 c189 -94 124 -374 -86 -375 -126 0 -217 116 -189 243 18 85 103 156 189 157 19 0 58 -11 86 -25z" id="53"/>
<path d="M6830 5973 c-71 -27 -114 -100 -108 -180 12 -146 181 -210 293 -112 88 77 67 233 -38 283 -34 15 -116 21 -147 9z" id="54"/>
<path d="M5963 5810 c-25 -10 -38 -48 -28 -79 7 -24 51 -38 74 -24 24 15 27 84 5 100 -20 15 -21 15 -51 3z" id="55"/>
<path d="M5840 4829 c-31 -12 -40 -26 -40 -62 0 -65 99 -105 134 -55 22 31 20 63 -6 92 -28 30 -55 38 -88 25z" id="56"/>
<path d="M2931 6787 c-14 -6 -34 -27 -44 -45 -17 -28 -17 -37 -7 -63 25 -59 93 -78 143 -39 53 42 39 127 -24 149 -39 14 -38 14 -68 -2z" id="57"/>
<path d="M5423 6786 c-58 -26 -70 -85 -27 -135 20 -24 34 -31 62 -31 77 0 120 88 70 144 -29 32 -64 39 -105 22z" id="58"/>
<path d="M4139 5831 c-44 -14 -73 -32 -95 -58 -14 -16 -35 -26 -62 -30 l-41 -6 25 -19 c23 -18 26 -19 42 -4 25 22 85 45 148 57 70 13 162 -3 231 -40 50 -27 52 -28 78 -11 l26 17 -50 7 c-35 5 -51 12 -56 24 -10 33 -82 65 -154 68 -36 2 -78 0 -92 -5z" id="59"/>
<path d="M4112 5735 c-29 -8 -65 -21 -81 -30 -28 -14 -29 -16 -18 -47 6 -18 12 -34 13 -36 1 -2 25 4 53 14 42 13 59 14 95 5 32 -8 52 -8 76 0 30 11 90 8 136 -6 17 -5 23 -2 28 20 9 35 4 41 -59 64 -75 28 -176 35 -243 16z" id="60"/>
<path d="M3907 5695 c61 -26 85 -126 41 -172 -12 -13 -16 -23 -10 -23 20 0 52 42 58 77 12 63 -39 133 -95 133 -25 -1 -25 -1 6 -15z" id="61"/>
<path d="M4480 5697 c-30 -23 -50 -62 -50 -97 0 -42 33 -100 57 -100 16 0 16 1 0 13 -57 43 -31 163 43 190 9 3 5 6 -10 6 -14 0 -32 -5 -40 -12z" id="62"/>
<path d="M3843 5665 c-17 -12 -21 -24 -20 -57 2 -39 4 -43 34 -49 28 -6 32 -4 35 18 3 27 21 32 26 8 2 -9 -6 -26 -18 -37 -26 -24 -20 -34 10 -18 28 15 39 48 29 84 -15 53 -60 76 -96 51z m33 -29 c18 -14 17 -15 -11 -12 -38 5 -37 4 -30 16 8 14 18 13 41 -4z" id="63"/>
<path d="M4515 5658 c-30 -27 -43 -85 -23 -110 18 -25 64 -29 60 -5 -2 12 4 17 21 17 43 0 53 78 15 104 -30 21 -42 20 -73 -6z m80 -18 c4 -6 -5 -10 -19 -10 -14 0 -26 5 -26 10 0 6 9 10 19 10 11 0 23 -4 26 -10z m-64 -47 c-10 -17 -10 -16 -11 3 0 23 13 41 18 25 2 -6 -1 -18 -7 -28z" id="64"/>
<path d="M2673 5610 c-91 -55 -72 -151 35 -180 102 -27 165 23 141 112 -22 82 -102 113 -176 68z" id="65"/>
<path d="M5615 5606 c-13 -13 -29 -43 -36 -66 -11 -36 -11 -46 2 -69 21 -38 60 -54 114 -45 69 10 109 41 113 88 4 46 -15 78 -61 100 -51 24 -103 21 -132 -8z" id="66"/>
<path d="M4087 5610 c-38 -12 -56 -28 -71 -64 -20 -47 -61 -79 -101 -80 -34 -1 -35 -2 -35 -38 0 -49 14 -49 111 -3 140 66 277 68 430 7 41 -16 87 -32 102 -36 27 -6 28 -5 24 30 -3 33 -7 37 -34 39 -54 4 -86 35 -113 108 -13 36 -52 50 -115 42 -69 -9 -84 -9 -130 -2 -22 3 -53 2 -68 -3z" id="67"/>
<path d="M5365 5604 c-75 -38 -128 -121 -106 -163 6 -10 33 -35 60 -55 86 -63 137 -42 162 68 15 69 5 119 -28 146 -31 24 -48 25 -88 4z" id="68"/>
<path d="M3358 5459 c-21 -12 -24 -49 -6 -67 17 -17 74 -15 92 4 20 19 20 24 0 52 -16 24 -56 29 -86 11z" id="69"/>
<path d="M4986 5454 c-35 -35 -12 -74 44 -74 20 0 41 5 48 12 30 30 0 78 -48 78 -16 0 -36 -7 -44 -16z" id="70"/>
<path d="M4105 5435 c-33 -7 -89 -27 -124 -43 -71 -35 -123 -93 -172 -197 -41 -84 -36 -103 6 -25 107 197 324 293 524 231 112 -35 200 -106 265 -215 20 -33 36 -54 36 -48 0 20 -60 134 -91 173 -16 20 -29 41 -29 45 -1 13 -155 72 -219 84 -69 13 -121 12 -196 -5z" id="71"/>
<path d="M3546 5411 c-9 -13 3 -39 21 -45 24 -10 45 12 32 35 -10 20 -44 26 -53 10z" id="72"/>
<path d="M4832 5408 c-27 -27 -4 -54 31 -36 23 12 23 48 -1 48 -10 0 -23 -5 -30 -12z" id="73"/>
<path d="M4088 5371 c-75 -24 -115 -50 -175 -114 -98 -103 -144 -239 -146 -422 -1 -161 44 -303 137 -435 18 -25 37 -57 43 -71 16 -36 102 -76 198 -91 141 -22 310 28 341 100 7 18 27 51 44 72 40 50 95 170 116 250 23 85 23 252 0 344 -70 288 -310 446 -558 367z m263 -67 c124 -56 227 -209 251 -372 31 -211 -53 -439 -197 -537 -67 -45 -117 -58 -206 -54 -97 5 -171 42 -244 121 -99 107 -142 248 -130 426 9 137 48 237 125 325 106 120 258 155 401 91z" id="74"/>
<path d="M4155 5294 c-55 -14 -105 -37 -105 -50 0 -8 15 -35 33 -59 l32 -44 107 -1 106 0 26 44 c14 25 26 50 26 56 0 30 -163 69 -225 54z" id="75"/>
<path d="M3966 5181 c-26 -29 -61 -81 -78 -118 l-31 -66 66 -64 c37 -35 71 -63 76 -63 4 0 28 55 53 123 51 135 51 130 -11 205 l-27 34 -48 -51z" id="76"/>
<path d="M4377 5170 l-28 -51 41 -124 c23 -69 45 -125 49 -125 3 0 33 27 65 59 l59 60 -35 74 c-32 66 -99 157 -117 157 -3 0 -19 -23 -34 -50z" id="77"/>
<path d="M4157 5103 c-17 -3 -33 -15 -42 -32 -23 -45 -85 -214 -85 -233 0 -27 81 -248 97 -264 10 -10 38 -14 98 -14 101 0 96 -6 150 159 l38 115 -39 118 c-21 65 -46 126 -55 134 -18 16 -111 26 -162 17z" id="78"/>
<path d="M3843 4944 c-17 -46 -4 -254 16 -254 11 0 121 134 121 146 0 5 -29 35 -65 67 -54 48 -66 55 -72 41z" id="79"/>
<path d="M4513 4898 c-29 -30 -53 -59 -53 -65 0 -6 24 -40 52 -74 l53 -63 6 30 c8 38 8 161 0 197 l-6 28 -52 -53z" id="80"/>
<path d="M3931 4725 l-63 -75 28 -57 c28 -55 113 -153 132 -153 6 0 24 23 41 50 l31 51 -46 129 c-26 72 -50 130 -53 130 -4 0 -35 -34 -70 -75z" id="81"/>
<path d="M4390 4674 l-43 -131 34 -46 c19 -26 41 -46 49 -44 40 6 138 184 120 217 -5 8 -33 42 -63 75 l-54 60 -43 -131z" id="82"/>
<path d="M4093 4478 c-17 -29 -29 -56 -26 -61 10 -17 82 -39 143 -44 52 -4 77 -1 123 17 36 13 57 27 57 37 0 9 -16 36 -36 59 l-35 44 -97 0 -97 0 -32 -52z" id="83"/>
<path d="M3111 5300 c-17 -10 -7 -40 13 -40 7 0 16 6 19 14 8 19 -15 37 -32 26z" id="84"/>
<path d="M5287 5304 c-12 -12 -8 -42 6 -47 21 -8 39 8 35 29 -3 19 -29 30 -41 18z" id="85"/>
<path d="M3371 5153 c-38 -38 -48 -90 -26 -132 19 -37 69 -71 105 -71 40 1 109 37 121 64 24 51 -59 150 -134 163 -31 5 -40 1 -66 -24z" id="86"/>
<path d="M4955 5164 c-59 -30 -105 -89 -105 -133 0 -41 101 -91 155 -77 15 4 40 20 56 36 46 45 39 129 -15 172 -26 22 -52 22 -91 2z" id="87"/>
<path d="M2856 5134 c-24 -23 -30 -61 -17 -104 14 -47 34 -64 76 -64 41 0 70 24 86 71 14 44 -1 76 -46 98 -42 19 -79 19 -99 -1z" id="88"/>
<path d="M5473 5135 c-40 -17 -57 -48 -49 -89 11 -58 72 -96 120 -75 31 15 61 86 51 121 -18 56 -58 71 -122 43z" id="89"/>
<path d="M3634 5116 c-11 -29 0 -51 26 -51 21 0 25 5 25 30 0 24 -5 31 -23 33 -13 2 -24 -3 -28 -12z" id="90"/>
<path d="M4744 5116 c-11 -29 0 -51 26 -51 21 0 25 5 25 30 0 24 -5 31 -23 33 -13 2 -24 -3 -28 -12z" id="91"/>
<path d="M3720 5097 c0 -31 -31 -67 -58 -67 -10 0 -28 8 -42 17 -19 13 -22 14 -18 2 25 -64 -115 -150 -195 -120 -26 10 -28 9 -22 -9 4 -12 1 -27 -5 -35 -21 -25 2 -18 148 41 190 78 183 74 198 130 8 30 9 53 3 59 -5 5 -9 -1 -9 -18z" id="92"/>
<path d="M4697 5113 c-9 -14 10 -92 27 -109 9 -9 306 -134 318 -134 3 0 4 16 4 35 -1 25 -5 34 -14 30 -87 -33 -212 27 -212 101 0 23 -1 24 -16 10 -36 -36 -89 -9 -96 49 -2 19 -6 26 -11 18z" id="93"/>
<path d="M3160 5015 c-25 -27 -31 -78 -12 -97 17 -17 69 -13 92 7 40 37 16 115 -37 115 -11 0 -30 -11 -43 -25z" id="94"/>
<path d="M5174 5009 c-22 -44 -11 -77 32 -95 32 -13 38 -13 60 1 49 32 14 125 -46 125 -23 0 -33 -7 -46 -31z" id="95"/>
<path d="M3312 4918 c-18 -18 -14 -38 7 -38 22 0 45 25 36 40 -8 13 -28 13 -43 -2z" id="96"/>
<path d="M5074 4915 c-8 -20 4 -35 26 -35 26 0 33 16 14 34 -19 20 -33 20 -40 1z" id="97"/>
<path d="M4730 4833 c0 -61 -22 -178 -41 -226 -7 -15 -9 -30 -6 -34 14 -14 38 23 57 88 13 43 26 69 35 69 19 0 85 -89 123 -165 42 -86 74 -178 141 -413 101 -354 152 -467 325 -726 56 -83 96 -153 96 -167 0 -13 -14 -44 -30 -68 -81 -119 -55 -253 64 -331 35 -22 37 -28 32 -60 -3 -19 -1 -51 3 -70 l9 -35 1 46 c1 55 17 72 86 88 58 14 134 62 161 102 24 36 32 36 45 2 7 -20 4 -63 -12 -167 -17 -110 -20 -165 -16 -248 9 -147 -8 -158 -104 -71 -61 56 -46 22 19 -39 57 -54 148 -115 158 -105 3 3 -1 18 -9 34 -23 44 -47 174 -47 252 0 39 10 119 22 178 25 127 29 268 9 337 -19 64 -80 127 -146 151 -159 57 -214 93 -293 191 -136 171 -318 544 -288 593 4 6 47 10 97 9 103 -1 132 12 67 31 -92 27 -171 98 -222 200 -10 18 -37 89 -62 158 -73 207 -132 319 -208 401 -17 19 -39 38 -48 43 -16 9 -18 4 -18 -48z m937 -1650 c41 -19 82 -76 90 -127 12 -78 -45 -163 -127 -187 -87 -26 -192 44 -206 136 -7 51 13 121 44 148 53 48 135 61 199 30z" id="98"/>
<path d="M5514 3161 c-76 -46 -99 -117 -62 -189 56 -108 205 -110 261 -2 22 43 18 111 -10 149 -43 58 -131 77 -189 42z" id="99"/>
<path d="M3639 4848 c-77 -83 -144 -209 -209 -393 -54 -153 -91 -225 -143 -282 -39 -43 -142 -103 -176 -103 -11 0 -12 -3 -4 -11 7 -7 48 -11 102 -10 l91 0 0 -35 c0 -122 -213 -510 -348 -636 -43 -40 -82 -64 -139 -87 -142 -58 -153 -64 -188 -102 -63 -70 -80 -197 -50 -364 43 -229 42 -326 -4 -461 -11 -32 -19 -60 -17 -61 7 -8 98 51 147 95 72 66 78 87 8 32 -55 -43 -57 -44 -77 -31 -11 6 -12 30 -7 107 5 77 2 131 -15 244 -21 144 -20 210 3 210 7 0 20 -14 29 -30 23 -40 98 -86 165 -101 70 -16 88 -40 79 -106 -5 -39 -4 -43 5 -23 5 14 9 49 8 78 -3 53 -3 53 47 90 71 54 96 108 92 198 -3 64 -7 78 -41 126 -20 30 -37 60 -37 67 0 7 48 84 106 172 176 264 227 382 339 779 52 181 102 321 142 390 36 63 92 130 108 130 8 0 21 -28 32 -72 14 -51 26 -76 43 -87 23 -15 23 -15 16 9 -33 116 -46 182 -46 237 0 75 -14 82 -61 31z m-720 -1668 c96 -49 116 -187 37 -266 -66 -66 -157 -67 -231 -3 -83 73 -68 211 29 270 41 25 115 25 165 -1z" id="100"/>
<path d="M2780 3162 c-73 -36 -101 -128 -62 -201 27 -50 75 -73 140 -68 45 3 59 9 89 40 31 30 37 44 41 89 3 44 0 59 -20 88 -27 40 -79 70 -123 70 -16 0 -46 -8 -65 -18z" id="101"/>
<path d="M3543 4817 c-12 -5 -41 -37 -64 -71 -24 -33 -65 -89 -92 -123 -48 -63 -48 -63 -20 -57 20 4 33 1 42 -10 12 -14 18 -6 50 66 21 46 54 109 75 142 20 32 36 59 34 61 -2 1 -13 -2 -25 -8z" id="102"/>
<path d="M4880 4788 c30 -46 120 -230 120 -248 1 -8 7 -3 16 13 8 16 23 27 35 27 18 0 14 7 -24 58 -24 31 -58 78 -75 104 -40 59 -59 78 -79 78 -12 0 -11 -6 7 -32z" id="103"/>
<path d="M3408 4759 c-15 -6 -58 -49 -97 -98 -89 -112 -169 -168 -311 -217 -148 -51 -169 -67 -259 -199 -97 -141 -196 -209 -306 -209 -51 0 -77 7 -180 54 -140 63 -212 74 -311 46 -69 -20 -177 -90 -217 -141 -41 -52 -73 -71 -93 -54 -38 31 25 198 111 297 53 60 150 132 221 164 l49 22 -65 8 c-36 4 -74 9 -85 12 -17 4 -25 -4 -43 -42 -12 -26 -47 -76 -78 -112 -116 -134 -164 -233 -164 -337 0 -58 8 -81 47 -127 38 -46 45 -71 53 -201 4 -66 14 -136 22 -155 21 -50 74 -97 129 -115 114 -38 156 -99 182 -261 8 -50 23 -106 32 -125 9 -19 64 -79 120 -134 83 -80 110 -113 134 -165 54 -116 60 -222 25 -447 -34 -225 -112 -360 -383 -668 -73 -82 -155 -184 -182 -225 -96 -146 -144 -322 -119 -440 22 -103 67 -149 119 -120 11 5 66 76 122 156 128 184 219 299 395 494 435 485 718 885 924 1305 178 363 242 581 340 1152 57 340 99 514 141 602 29 59 30 64 15 80 -20 20 -23 16 -66 -86 -43 -104 -74 -226 -115 -461 -111 -639 -171 -846 -346 -1192 -140 -279 -326 -542 -495 -700 -113 -105 -331 -237 -354 -214 -7 7 3 52 30 132 91 277 93 493 7 670 -24 50 -53 84 -137 162 -114 107 -150 161 -171 261 -22 102 5 229 71 333 17 27 29 51 26 54 -24 24 -166 -74 -166 -114 0 -35 -124 0 -178 50 -46 41 -56 74 -54 177 1 61 -3 113 -13 145 -20 66 -19 107 5 154 40 79 159 140 286 148 93 5 138 -7 268 -70 44 -21 87 -38 95 -38 40 -1 44 -16 16 -58 -106 -160 -50 -358 125 -441 44 -21 70 -26 130 -26 65 0 82 4 129 30 106 59 158 157 149 284 -6 80 -32 134 -88 185 -43 39 -132 86 -162 86 -28 0 -29 16 -1 41 14 13 54 67 88 119 89 135 120 161 245 205 163 58 248 124 368 282 76 100 76 102 20 82z m-706 -821 c64 -19 125 -80 144 -145 25 -86 8 -156 -53 -217 -60 -61 -155 -82 -231 -51 -88 37 -152 141 -138 227 14 84 58 142 136 177 52 24 87 26 142 9z m83 -1780 c-28 -91 -215 -331 -501 -643 -202 -220 -319 -367 -463 -582 -34 -51 -68 -93 -76 -93 -52 0 -67 155 -26 261 34 89 87 164 333 470 l230 287 84 27 c107 35 234 118 334 219 78 80 96 91 85 54z" id="104"/>
<path d="M2565 3906 c-68 -30 -122 -124 -112 -196 16 -119 121 -195 237 -169 176 40 208 278 48 360 -44 22 -128 25 -173 5z m115 -76 c11 -7 7 -10 -17 -10 -18 0 -33 5 -33 10 0 13 30 13 50 0z m-81 -36 c-12 -13 -26 -24 -31 -24 -14 0 -9 19 12 40 29 29 47 14 19 -16z m135 0 c9 -8 16 -23 16 -32 0 -13 -5 -11 -20 8 -29 37 -26 55 4 24z m-167 -81 c-3 -10 -5 -4 -5 12 0 17 2 24 5 18 2 -7 2 -21 0 -30z m189 -29 c-3 -8 -10 -14 -16 -14 -14 0 -13 27 2 53 l13 22 3 -23 c2 -13 1 -30 -2 -38z m-130 -28 c10 -8 16 -17 12 -21 -7 -7 -48 16 -48 27 0 12 14 9 36 -6z m98 5 c7 -11 -13 -28 -38 -33 -28 -5 -30 17 -4 30 29 14 36 14 42 3z" id="105"/>
<path d="M2595 1969 c-56 -44 -188 -112 -252 -128 -35 -10 -52 -25 -117 -106 -42 -52 -76 -96 -76 -99 0 -3 7 -3 15 0 19 8 20 -10 1 -25 -11 -10 -15 -8 -18 6 -2 13 -46 -35 -144 -157 -234 -292 -264 -344 -272 -478 -2 -46 0 -88 5 -93 6 -6 35 29 79 93 80 119 83 124 56 109 -27 -14 -25 -15 -56 13 -28 24 -32 56 -8 64 8 2 12 -7 12 -27 0 -29 3 -31 35 -31 55 0 56 1 41 48 -4 13 -3 22 3 22 5 0 11 -12 13 -27 3 -27 4 -27 41 22 l39 50 -29 5 c-15 3 -27 10 -26 15 3 14 43 19 55 7 7 -7 26 9 57 46 65 79 66 81 35 79 -15 -1 -29 4 -32 11 -3 10 6 13 37 11 40 -3 42 -2 147 111 193 209 438 501 417 499 -4 0 -30 -18 -58 -40z m-220 -170 c4 -6 5 -13 2 -16 -8 -7 -47 7 -47 18 0 13 37 11 45 -2z m-77 -29 c-13 -20 -28 -27 -28 -12 0 10 22 32 32 32 5 0 3 -9 -4 -20z m102 -19 c0 -29 -15 -33 -18 -5 -1 13 3 24 8 24 6 0 10 -9 10 -19z m-90 -58 c0 -7 -4 -13 -8 -13 -15 0 -32 24 -32 44 0 18 1 19 20 1 11 -10 20 -24 20 -32z m60 -2 c0 -11 -39 -25 -47 -18 -3 3 -2 10 2 16 8 13 45 15 45 2z m-120 -46 c17 -20 -9 -21 -36 0 -19 14 -19 14 2 15 12 0 27 -7 34 -15z m17 -62 c-3 -10 -5 -4 -5 12 0 17 2 24 5 18 2 -7 2 -21 0 -30z m-94 -16 c12 -19 22 -23 49 -19 31 4 32 3 16 -13 -10 -11 -23 -15 -35 -11 -10 4 -19 6 -19 4 -4 -8 -44 37 -44 49 0 20 16 15 33 -10z m-58 -66 c3 -5 2 -12 -3 -15 -13 -8 -53 5 -46 15 7 12 41 12 49 0z m31 -35 c3 -8 1 -23 -5 -33 -9 -16 -10 -16 -11 -1 0 9 -3 23 -6 32 -3 9 -1 16 5 16 7 0 14 -6 17 -14z m-102 -58 c-3 -4 -10 -6 -15 -3 -11 7 -12 49 -2 59 9 9 24 -44 17 -56z m-56 -66 c2 -7 -6 -11 -22 -10 -28 2 -34 13 -13 21 17 7 30 3 35 -11z m32 -39 c0 -22 -2 -25 -10 -13 -13 20 -13 40 0 40 6 0 10 -12 10 -27z m-90 -19 c0 -15 -6 -24 -15 -24 -15 0 -21 40 -9 53 12 11 24 -3 24 -29z m-52 -85 c-2 -6 -7 -10 -11 -10 -4 1 -14 1 -23 1 -8 0 -12 5 -9 10 8 13 48 13 43 -1z" id="106"/>
<path d="M4980 4763 c0 -4 32 -49 71 -100 115 -151 193 -209 370 -273 110 -39 148 -72 226 -193 35 -54 75 -109 89 -122 25 -23 25 -45 1 -45 -29 0 -121 -53 -166 -95 -68 -63 -85 -111 -79 -217 5 -94 26 -144 80 -194 60 -57 114 -79 198 -79 88 0 145 22 210 81 63 57 93 124 94 209 1 61 -4 80 -34 140 -19 39 -36 73 -38 77 -2 4 9 10 25 14 15 4 77 29 138 57 94 43 120 51 186 55 144 8 289 -57 338 -152 24 -46 24 -51 11 -104 -7 -32 -16 -111 -19 -177 -5 -95 -10 -127 -26 -155 -27 -45 -97 -88 -156 -96 -46 -6 -47 -6 -64 30 -19 40 -79 81 -133 92 l-33 7 36 -54 c64 -98 94 -225 76 -325 -19 -104 -62 -175 -154 -256 -98 -86 -132 -126 -163 -193 -39 -85 -54 -161 -54 -280 0 -129 22 -245 73 -396 20 -56 33 -107 31 -111 -9 -15 -32 -8 -101 28 -280 148 -551 469 -768 909 -162 331 -218 519 -309 1037 -73 414 -99 516 -163 641 -28 57 -29 58 -47 38 -18 -19 -18 -21 1 -45 44 -56 95 -253 148 -571 104 -621 177 -869 364 -1244 208 -414 489 -809 913 -1282 182 -203 272 -315 394 -492 53 -75 105 -144 117 -152 35 -25 65 -19 87 18 85 137 38 380 -112 582 -25 33 -100 123 -168 199 -269 306 -340 439 -375 703 -19 145 -19 217 1 303 21 93 71 168 177 264 101 92 120 126 142 256 28 162 53 198 185 258 112 50 138 98 147 261 6 125 15 162 54 205 52 60 62 120 33 217 -25 84 -56 136 -138 234 -42 50 -84 109 -93 132 -14 34 -22 41 -38 37 -11 -3 -49 -8 -85 -12 l-65 -8 66 -32 c176 -88 319 -270 319 -407 0 -72 -19 -69 -109 19 -55 53 -99 86 -147 108 -63 30 -78 33 -164 33 -94 0 -96 -1 -210 -54 -135 -64 -199 -72 -283 -34 -59 28 -148 110 -200 188 -81 121 -132 160 -271 204 -136 43 -212 99 -307 220 -39 51 -72 84 -92 90 -35 13 -37 13 -37 4z m909 -842 c132 -68 153 -260 39 -356 -71 -60 -149 -71 -234 -31 -178 83 -157 346 32 406 42 13 116 4 163 -19z m-159 -1821 c120 -118 227 -184 377 -232 38 -12 63 -39 274 -303 258 -322 292 -371 327 -465 41 -113 28 -260 -23 -260 -16 0 -22 8 -152 196 -114 165 -202 273 -400 491 -198 218 -268 300 -370 437 -87 117 -142 216 -118 216 3 0 41 -36 85 -80z" id="107"/>
<path d="M5690 3902 c-47 -26 -97 -92 -105 -140 -13 -79 35 -171 108 -209 40 -20 134 -20 172 0 70 36 108 99 108 178 0 66 -20 108 -76 153 -33 26 -48 31 -105 34 -52 2 -75 -1 -102 -16z m125 -92 c4 -6 -7 -10 -24 -10 -17 0 -31 5 -31 10 0 6 11 10 24 10 14 0 28 -4 31 -10z m-71 -9 c3 -4 -5 -18 -18 -30 -28 -26 -42 -14 -20 17 16 23 29 28 38 13z m124 -23 c14 -14 16 -38 4 -38 -5 0 -14 11 -20 25 -12 26 -4 33 16 13z m24 -89 c-4 -27 -18 -46 -28 -37 -3 4 -3 21 1 38 8 36 32 35 27 -1z m-123 -55 c1 -1 1 -8 -1 -14 -2 -8 -13 -4 -28 10 l-25 21 25 -7 c14 -3 27 -8 29 -10z m86 7 c6 -11 -26 -31 -49 -31 -23 0 -19 15 7 28 28 14 35 14 42 3z" id="108"/>
<path d="M5780 1996 c0 -3 28 -40 62 -83 164 -207 457 -526 472 -514 15 12 57 9 54 -4 -2 -5 -15 -10 -30 -10 -16 0 -28 -1 -28 -4 0 -2 22 -29 48 -60 58 -67 198 -255 272 -365 45 -67 54 -76 63 -61 16 29 2 154 -23 214 -13 30 -26 48 -28 40 -14 -43 -80 -77 -97 -49 -5 9 16 14 53 13 7 -1 12 12 12 29 0 23 4 29 15 24 8 -3 15 -1 15 4 0 9 -149 209 -204 275 l-25 30 -1 -32 c0 -24 -5 -33 -16 -33 -13 0 -15 6 -9 27 3 15 11 30 16 34 6 3 -18 40 -53 83 -47 58 -64 73 -68 61 -5 -14 -8 -15 -16 -3 -25 31 -28 42 -11 35 10 -3 17 -4 17 -1 0 2 -32 45 -72 94 -66 83 -75 91 -127 106 -65 18 -187 82 -242 124 -35 28 -49 36 -49 26z m306 -201 c-22 -17 -36 -19 -36 -7 0 14 12 22 34 22 21 -1 21 -1 2 -15z m68 -37 c-3 -5 -12 -1 -20 9 -20 27 -17 39 6 18 11 -10 17 -22 14 -27z m-104 5 c0 -5 -5 -15 -10 -23 -8 -12 -10 -11 -10 8 0 12 5 22 10 22 6 0 10 -3 10 -7z m110 -32 c0 -22 -13 -41 -29 -41 -9 0 -22 -5 -29 -12 -8 -8 -15 -8 -27 2 -23 19 -18 27 14 22 22 -3 32 1 40 17 12 21 31 29 31 12z m54 -88 c-21 -15 -44 -17 -44 -3 0 14 32 29 48 22 12 -4 12 -8 -4 -19z m-44 -45 c0 -18 -2 -20 -9 -8 -6 8 -7 18 -5 22 9 14 14 9 14 -14z m120 -16 c0 -15 -24 -38 -52 -49 -20 -9 -30 -9 -44 2 -25 18 -13 28 18 16 22 -8 27 -6 38 15 13 23 40 34 40 16z m80 -82 c11 -7 5 -10 -22 -10 -21 0 -38 5 -38 10 0 13 40 13 60 0z m-70 -40 c-6 -11 -13 -20 -15 -20 -3 0 -5 9 -5 20 0 11 7 20 15 20 13 0 14 -4 5 -20z m174 -106 c25 -10 19 -20 -11 -18 -35 2 -35 2 -28 14 7 12 17 12 39 4z m-48 -40 c-3 -9 -6 -21 -7 -27 0 -7 -4 -3 -8 8 -9 22 -5 35 11 35 5 0 7 -7 4 -16z m99 -24 c0 -13 -6 -25 -12 -27 -9 -3 -13 6 -13 27 0 21 4 30 13 28 6 -3 12 -15 12 -28z m-30 -45 c0 -17 -41 -17 -55 0 -12 15 -10 16 21 13 19 -2 34 -7 34 -13z m100 -45 c4 -6 -6 -10 -23 -10 -24 0 -31 -6 -40 -32 -9 -29 -10 -30 -11 -9 -2 43 55 82 74 51z" id="109"/>
<path d="M3217 4681 c-66 -26 -67 -28 -43 -39 16 -7 26 -20 26 -33 0 -18 2 -19 15 -9 34 28 96 110 83 109 -7 0 -44 -12 -81 -28z" id="110"/>
<path d="M5136 4688 c38 -46 119 -128 126 -128 4 0 3 11 -2 25 -10 27 8 55 38 55 17 1 -154 70 -172 70 -5 0 -1 -10 10 -22z" id="111"/>
<path d="M3618 4650 c-66 -88 -110 -205 -213 -558 -89 -310 -144 -428 -310 -677 -52 -78 -95 -148 -95 -156 0 -8 14 -34 30 -58 59 -87 64 -180 13 -273 -15 -28 -46 -64 -67 -80 -37 -27 -39 -31 -41 -88 -2 -48 -12 -79 -47 -153 -81 -165 -171 -263 -305 -329 -87 -43 -94 -33 -53 74 28 71 33 99 38 198 3 83 0 137 -12 195 -40 200 -38 322 8 412 38 74 88 111 215 154 75 26 143 72 190 127 51 61 137 196 195 303 44 82 106 235 106 262 0 8 -24 12 -83 12 -63 0 -89 4 -111 18 -42 28 -30 49 44 74 82 28 135 66 176 126 31 45 84 168 100 232 7 27 6 29 -9 17 -9 -8 -25 -11 -37 -7 -20 6 -24 20 -20 60 1 16 -6 12 -39 -20 -23 -21 -41 -41 -41 -43 0 -2 13 -1 28 3 33 7 82 -25 82 -55 0 -31 -50 -63 -88 -57 -29 5 -31 4 -22 -13 29 -54 -1 -147 -60 -187 -32 -23 -84 -30 -106 -15 -21 14 -54 91 -54 128 0 68 90 127 171 110 27 -5 30 -4 24 15 -4 12 0 30 9 44 21 32 17 32 -46 -9 -29 -18 -93 -48 -143 -66 -137 -50 -156 -65 -241 -196 -41 -64 -74 -118 -72 -119 2 -1 27 -15 57 -30 75 -38 145 -112 167 -177 40 -119 10 -258 -73 -341 -72 -73 -120 -92 -228 -92 -80 0 -97 3 -148 29 -70 36 -130 99 -164 173 -22 48 -25 65 -21 137 3 61 11 93 30 131 l26 51 -104 47 c-58 26 -128 52 -156 58 -98 21 -230 -12 -306 -76 -52 -45 -67 -87 -51 -146 6 -24 14 -101 18 -171 6 -123 7 -128 36 -159 32 -33 81 -59 115 -59 11 0 37 19 58 42 53 59 114 83 200 79 30 -1 28 -17 -9 -59 -45 -51 -87 -147 -97 -220 -19 -135 21 -249 115 -334 162 -148 198 -199 234 -335 40 -152 24 -355 -46 -567 -14 -43 -23 -81 -21 -84 8 -7 112 54 188 110 83 61 243 228 323 336 86 117 187 280 254 412 157 307 234 546 306 950 96 542 115 617 187 772 35 75 40 92 32 120 l-10 32 -26 -34z m-635 -412 c72 -38 67 -137 -8 -172 -45 -22 -77 -20 -109 5 -39 31 -49 63 -32 103 27 64 95 93 149 64z" id="112"/>
<path d="M2876 4189 c-31 -37 -32 -49 -5 -83 23 -30 56 -33 99 -11 33 17 44 42 34 79 -13 55 -88 63 -128 15z" id="113"/>
<path d="M4772 4650 c-8 -29 -6 -42 14 -76 71 -125 112 -279 179 -664 59 -342 95 -501 155 -681 166 -498 495 -993 800 -1199 61 -41 140 -83 146 -78 2 2 -10 46 -27 97 -49 154 -62 226 -62 361 -1 91 4 143 17 190 34 124 62 167 187 290 149 146 163 173 164 320 0 96 -3 111 -30 170 -16 36 -45 84 -62 108 -39 50 -41 62 -10 63 84 4 150 -23 202 -83 32 -38 37 -40 72 -35 42 7 77 30 107 71 18 24 21 43 22 139 1 62 6 125 13 140 6 16 11 49 11 75 0 61 -36 107 -115 146 -130 63 -228 59 -398 -20 -56 -26 -103 -48 -105 -49 -1 -1 10 -26 24 -56 60 -119 39 -260 -54 -357 -65 -69 -138 -104 -228 -110 -137 -9 -246 53 -306 175 -29 59 -33 77 -33 148 0 68 4 89 28 137 32 65 96 126 165 159 26 12 48 23 50 24 1 1 -17 30 -40 64 -43 62 -43 62 -49 33 -8 -41 -17 -52 -54 -68 -43 -18 -96 -3 -129 37 -36 42 -34 83 4 121 28 28 36 30 80 26 28 -3 50 -2 50 2 0 17 -86 65 -180 100 -120 46 -158 68 -227 134 l-53 49 0 -31 c0 -35 -27 -50 -60 -32 -25 13 -25 18 4 -66 70 -202 136 -280 273 -320 59 -17 75 -40 43 -66 -24 -20 -115 -33 -165 -24 -30 6 -35 4 -35 -12 0 -81 175 -412 291 -552 63 -76 91 -94 215 -145 130 -53 165 -80 200 -152 39 -79 44 -203 16 -358 -11 -60 -23 -133 -27 -161 -9 -69 11 -206 41 -280 13 -33 24 -71 24 -83 0 -19 -4 -21 -22 -16 -64 20 -149 76 -213 141 -110 111 -183 252 -193 369 -4 53 -8 63 -32 77 -60 35 -109 127 -110 209 0 57 15 101 52 156 15 23 28 47 28 53 0 6 -49 85 -109 175 -166 250 -218 368 -315 710 -83 292 -138 435 -200 510 l-24 30 -10 -35z m408 -195 c22 -23 22 -25 6 -50 -20 -31 -67 -34 -96 -5 -24 24 -24 29 -4 58 21 30 64 29 94 -3z m143 -81 c18 -9 40 -23 49 -32 38 -33 32 -119 -13 -176 -52 -66 -175 3 -195 110 -6 35 15 87 43 103 27 16 80 13 116 -5z" id="114"/>
<path d="M5105 4440 c-10 -16 4 -30 29 -30 29 0 39 10 25 27 -13 15 -45 17 -54 3z" id="115"/>
<path d="M5204 4335 c-23 -36 -11 -90 31 -132 57 -57 111 -41 130 40 11 42 -2 76 -38 97 -47 29 -102 26 -123 -5z" id="116"/>
<path d="M3015 4608 c-60 -22 -164 -57 -230 -79 -69 -22 -108 -38 -92 -38 62 -2 98 -54 78 -112 -6 -18 -11 -34 -11 -36 0 -3 23 15 50 40 28 25 77 56 109 68 l58 23 -25 21 c-46 40 -9 96 53 81 28 -7 40 -38 25 -66 -15 -29 1 -26 71 11 56 30 58 33 37 43 -32 16 -35 50 -6 70 35 25 4 18 -117 -26z" id="117"/>
<path d="M5338 4605 c6 -34 -15 -58 -45 -50 -13 3 -23 3 -23 1 0 -9 78 -50 129 -67 65 -23 67 -23 51 -5 -19 24 -8 60 24 75 l30 14 -75 28 c-93 35 -97 35 -91 4z" id="118"/>
<path d="M3145 4609 c-4 -6 -5 -13 -2 -16 7 -7 27 6 27 18 0 12 -17 12 -25 -2z" id="119"/>
<path d="M5290 4595 c0 -9 5 -15 11 -13 6 2 11 8 11 13 0 5 -5 11 -11 13 -6 2 -11 -4 -11 -13z" id="120"/>
<path d="M5543 4531 c10 -27 8 -33 -11 -54 l-23 -24 43 -23 c24 -12 58 -36 76 -53 l32 -31 0 32 c0 74 88 108 148 57 80 -67 30 -191 -69 -171 l-30 6 33 -46 c18 -26 51 -62 73 -82 103 -90 190 -94 351 -19 120 56 188 70 276 56 96 -16 182 -63 262 -144 l69 -69 -6 38 c-24 146 -166 302 -344 376 -69 29 -94 34 -213 41 -186 12 -309 33 -490 86 -85 25 -163 48 -172 50 -15 5 -16 2 -5 -26z" id="121"/>
<path d="M2960 4529 c0 -15 5 -20 22 -17 34 5 37 38 4 38 -20 0 -26 -5 -26 -21z" id="122"/>
<path d="M5040 4543 c0 -5 4 -15 10 -23 11 -18 25 -7 17 15 -6 15 -27 21 -27 8z" id="123"/>
<path d="M3357 4526 c-3 -8 -3 -17 0 -20 7 -7 33 13 33 25 0 15 -27 10 -33 -5z" id="124"/>
<path d="M5474 4525 c-7 -18 3 -35 22 -35 20 0 30 30 13 41 -20 12 -29 11 -35 -6z" id="125"/>
<path d="M2585 4474 c-84 -24 -224 -44 -345 -50 -133 -7 -197 -22 -294 -71 -135 -68 -268 -229 -283 -343 l-6 -41 69 69 c80 80 167 126 262 141 87 14 152 1 273 -55 202 -93 297 -67 435 116 35 47 64 89 64 93 0 4 -13 -2 -29 -14 -23 -17 -37 -20 -65 -15 -71 14 -86 109 -25 160 35 30 24 32 -56 10z" id="126"/>
<path d="M2651 4434 c-37 -47 -19 -104 34 -104 27 0 65 42 65 72 0 60 -61 80 -99 32z" id="127"/>
<path d="M3265 4436 c-26 -19 -13 -48 21 -44 34 4 56 34 34 48 -21 13 -33 12 -55 -4z" id="128"/>
<path d="M5718 4426 c-54 -27 -21 -136 42 -136 57 0 80 62 40 112 -24 31 -51 39 -82 24z" id="129"/>
<path d="M3100 4338 c-42 -29 -50 -72 -24 -130 15 -33 22 -38 49 -38 43 0 80 31 100 84 15 38 15 48 3 73 -18 39 -79 44 -128 11z" id="130"/>
<path d="M3960 4247 c0 -9 -13 -31 -29 -49 -59 -69 -62 -101 -12 -137 90 -64 365 -88 506 -44 39 12 80 29 93 38 34 24 30 76 -10 130 -18 23 -37 50 -43 59 -9 14 -17 13 -80 -11 -95 -36 -239 -38 -330 -4 -91 35 -95 35 -95 18z" id="131"/>
<path d="M5447 4222 c-35 -38 -16 -94 38 -112 51 -17 89 3 93 50 4 49 -26 80 -77 80 -24 0 -44 -7 -54 -18z" id="132"/>
<path d="M3895 4007 c-4 -18 -7 -55 -8 -82 -2 -50 -2 -50 43 -72 75 -37 159 -55 281 -60 96 -4 129 -2 199 16 86 21 127 42 136 66 3 8 1 45 -6 83 l-11 69 -59 -23 c-77 -32 -197 -48 -294 -39 -91 8 -219 38 -252 60 -22 14 -23 14 -29 -18z m68 -59 c-13 -12 -25 -19 -28 -16 -8 7 23 38 38 38 6 0 2 -10 -10 -22z m62 -25 c-7 -17 -8 -17 -15 2 -5 11 -9 27 -9 35 -1 12 2 11 15 -2 11 -11 14 -23 9 -35z m435 32 c0 -12 -40 -48 -46 -42 -4 4 1 16 11 27 17 19 35 26 35 15z m46 -20 c8 -21 -6 -41 -17 -24 -12 19 -11 39 1 39 6 0 13 -7 16 -15z m-394 -37 c-18 -19 -22 -20 -22 -6 0 9 8 21 17 27 27 15 29 3 5 -21z m170 0 c-18 -19 -22 -20 -22 -6 0 9 8 21 17 27 27 15 29 3 5 -21z m-104 -9 c4 -24 3 -24 -12 -4 -19 24 -20 38 -3 33 6 -3 13 -15 15 -29z m170 0 c4 -24 3 -24 -12 -4 -19 24 -20 38 -3 33 6 -3 13 -15 15 -29z m-349 5 c3 -2 0 -9 -6 -15 -13 -13 -53 5 -53 22 0 10 48 4 59 -7z m475 -15 c12 -11 -19 -23 -39 -15 -8 3 -15 13 -15 21 0 12 6 15 23 10 12 -4 26 -11 31 -16z m-326 -37 c4 -14 -27 -16 -47 -3 -7 5 -11 14 -7 19 8 13 48 1 54 -16z m170 0 c4 -14 -27 -16 -47 -3 -7 5 -11 14 -7 19 8 13 48 1 54 -16z" id="133"/>
<path d="M3965 3796 c69 -34 172 -48 303 -43 114 4 244 29 229 43 -3 3 -31 -3 -63 -13 -81 -25 -303 -25 -389 -1 -33 10 -71 20 -85 23 -22 4 -21 3 5 -9z" id="134"/>
<path d="M3894 3765 c-4 -15 -2 -31 5 -38 6 -6 11 -27 11 -46 0 -30 6 -40 34 -59 67 -46 150 -65 281 -66 136 -1 213 17 265 61 25 20 31 32 27 52 -3 14 2 38 10 52 9 15 13 34 10 43 -5 14 -11 13 -49 -4 -112 -49 -354 -53 -483 -8 -38 14 -78 28 -87 32 -13 6 -19 2 -24 -19z m125 -76 c-11 -11 -23 -18 -26 -15 -9 8 17 36 33 36 10 0 7 -7 -7 -21z m59 -10 c2 -23 2 -23 -13 -5 -18 24 -20 39 -2 34 6 -3 13 -15 15 -29z m321 0 c-11 -11 -23 -18 -26 -15 -9 8 17 36 33 36 10 0 7 -7 -7 -21z m61 -17 l-1 -27 -13 25 c-15 25 -12 45 5 35 5 -4 9 -18 9 -33z m-249 -13 c-11 -12 -24 -19 -28 -15 -5 4 3 16 16 27 31 25 39 17 12 -12z m63 5 c8 -22 -4 -40 -15 -23 -11 18 -11 39 0 39 5 0 12 -7 15 -16z m-225 -20 c3 -2 0 -9 -6 -15 -13 -13 -53 5 -53 22 0 10 48 4 59 -7z m380 -10 c3 -2 0 -9 -6 -15 -13 -13 -53 5 -53 22 0 10 48 4 59 -7z m-187 -36 c-15 -15 -46 -5 -50 14 -3 15 0 16 28 6 20 -7 28 -14 22 -20z" id="135"/>
<path d="M3970 3528 c0 -19 42 -152 57 -183 40 -79 102 -118 188 -118 89 0 140 32 183 118 19 38 63 175 57 175 -2 0 -32 -7 -67 -16 -86 -22 -279 -15 -360 14 -36 13 -58 17 -58 10z" id="136"/>
<path d="M4313 3523 c9 -2 23 -2 30 0 6 3 -1 5 -18 5 -16 0 -22 -2 -12 -5z" id="137"/>
<path d="M2621 2878 c0 -13 3 -41 7 -63 7 -37 8 -38 15 -15 l7 25 20 -25 c22 -29 10 -51 -16 -29 -16 13 -17 10 -10 -36 3 -27 9 -80 13 -117 5 -58 8 -65 20 -52 24 23 35 16 16 -10 -10 -13 -21 -22 -25 -20 -4 3 -10 -12 -13 -33 -3 -21 -8 -46 -10 -55 -4 -24 10 -23 47 3 l29 21 -22 12 c-12 6 -24 17 -27 25 -4 11 2 12 24 7 16 -4 32 -12 35 -18 12 -20 19 10 9 37 -5 14 -10 31 -10 36 0 16 21 -1 29 -25 8 -19 11 -17 40 29 36 57 64 142 59 181 -3 23 -12 30 -70 49 -52 16 -68 18 -68 8 0 -7 -4 -13 -8 -13 -14 0 -32 23 -32 40 0 9 -13 26 -30 38 l-30 23 1 -23z m180 -137 c31 -31 36 -59 17 -94 -41 -78 -159 -52 -158 35 1 80 85 115 141 59z" id="138"/>
<path d="M2720 2737 c-36 -18 -41 -78 -8 -101 29 -21 51 -20 78 2 58 47 -3 133 -70 99z" id="139"/>
<path d="M5767 2872 c-15 -16 -25 -31 -22 -34 3 -2 -4 -13 -15 -23 -18 -17 -20 -17 -20 -1 0 13 -4 15 -19 6 -11 -5 -43 -15 -72 -21 l-52 -11 6 -57 c5 -62 40 -142 89 -203 26 -34 31 -36 44 -23 19 18 57 20 52 3 -3 -7 -17 -15 -32 -18 l-28 -5 24 -20 c63 -56 62 -56 54 9 -6 45 -14 64 -34 82 -19 17 -22 23 -11 24 8 0 20 -5 27 -12 9 -9 12 0 12 42 -1 47 -2 52 -12 35 -18 -31 -40 -44 -76 -45 -60 0 -99 64 -76 125 8 19 55 45 84 45 31 0 80 -53 81 -87 1 -20 4 -15 10 17 8 50 10 102 2 83 -5 -14 -43 -18 -43 -5 1 13 27 42 38 42 6 0 13 -6 15 -12 3 -7 6 -3 6 8 1 12 4 36 7 53 8 38 -4 39 -39 3z m-67 -306 c0 -7 -7 -19 -15 -26 -12 -10 -15 -9 -15 7 0 11 3 23 7 26 11 12 23 8 23 -7z" id="140"/>
<path d="M5653 2740 c-49 -20 -53 -77 -7 -106 48 -32 105 11 91 69 -5 18 -47 51 -60 46 -1 0 -12 -4 -24 -9z" id="141"/>
<path d="M7996 5476 l-38 -24 -44 19 c-49 20 -50 18 -33 -44 9 -35 8 -40 -21 -75 l-30 -37 22 -7 c13 -3 35 -6 50 -7 21 -1 34 -11 55 -43 l27 -43 19 45 c23 52 28 57 79 65 21 4 38 11 38 16 0 5 -3 9 -7 9 -5 0 -23 14 -40 30 -30 28 -32 34 -26 75 3 25 2 45 -3 45 -5 0 -26 -11 -48 -24z" id="142"/>
<path d="M815 4630 c-44 -33 -84 -59 -90 -59 -5 -1 -52 15 -104 35 -51 19 -96 33 -98 30 -3 -3 8 -50 25 -106 l30 -101 -69 -87 -68 -87 112 -5 112 -5 61 -93 c34 -52 64 -90 66 -85 3 4 20 52 37 105 l33 98 66 19 c37 11 87 25 111 31 24 6 40 15 35 19 -5 4 -46 36 -92 70 l-82 62 6 110 c4 63 3 109 -2 108 -5 0 -45 -27 -89 -59z" id="143"/>
<path d="M7592 4493 l-82 -56 -92 36 c-50 20 -93 35 -95 33 -2 -2 7 -43 21 -92 14 -48 26 -92 26 -96 0 -4 -27 -39 -60 -77 -33 -39 -60 -75 -60 -80 0 -7 35 -11 95 -11 l95 0 56 -86 c31 -48 59 -82 63 -78 4 5 18 38 31 74 36 103 38 105 139 130 50 12 91 25 91 29 -1 3 -35 33 -77 65 l-75 59 7 104 c4 57 5 103 3 102 -1 0 -40 -26 -86 -56z" id="144"/>
<path d="M7985 3304 l-111 -74 -127 51 c-70 28 -130 49 -133 46 -3 -2 12 -64 32 -136 l36 -131 -90 -107 c-50 -60 -87 -109 -83 -111 5 -2 69 -6 142 -10 l134 -7 72 -115 c39 -63 75 -115 79 -115 4 0 28 55 53 122 25 67 51 126 56 131 6 5 62 22 125 37 63 15 121 31 128 35 9 4 -19 32 -85 85 -111 88 -125 103 -119 124 9 34 17 251 9 250 -4 0 -58 -34 -118 -75z" id="145"/>
<path d="M1235 2973 c-39 -26 -39 -26 -84 -10 -25 9 -47 15 -49 13 -1 -2 2 -24 9 -50 11 -45 11 -47 -22 -83 l-33 -38 35 -3 c63 -5 75 -11 99 -53 l23 -42 22 50 c21 46 26 51 71 62 l48 12 -39 33 c-37 31 -39 36 -36 84 1 29 1 52 -1 52 -2 0 -21 -12 -43 -27z" id="146"/>
<path d="M6901 2580 l-43 -29 -50 20 c-28 11 -52 18 -54 16 -2 -2 2 -28 8 -59 l12 -56 -38 -43 -37 -44 59 -5 c33 -3 62 -7 65 -10 2 -3 18 -27 34 -54 l30 -48 18 48 c25 67 29 71 85 84 28 7 50 16 50 20 0 5 -18 23 -40 40 -39 31 -40 34 -40 91 0 32 -3 59 -7 58 -5 0 -28 -13 -52 -29z" id="147"/>
<path d="M4685 2496 c-24 -18 -58 -20 -87 -5 -19 10 -20 9 -13 -28 5 -31 2 -44 -14 -65 -23 -29 -19 -38 20 -38 20 0 34 -9 50 -31 l22 -32 15 37 c8 20 18 36 22 36 5 0 21 5 36 11 l28 10 -27 22 c-18 16 -27 33 -29 60 -3 36 -4 37 -23 23z" id="148"/>
<path d="M3628 2145 c-37 -25 -75 -45 -85 -44 -10 0 -49 13 -88 29 -38 15 -71 27 -73 25 -2 -1 7 -41 20 -87 l22 -85 -59 -69 -58 -69 93 -5 c51 -3 95 -9 97 -15 2 -5 23 -41 47 -79 l44 -68 32 86 c36 95 23 85 153 117 26 6 47 15 45 19 -2 4 -32 31 -67 60 l-64 53 7 88 c4 49 5 89 4 89 -2 0 -33 -20 -70 -45z" id="149"/>
<path d="M5064 1561 c-49 -55 -98 -103 -109 -106 -11 -3 -81 3 -155 14 -74 10 -136 18 -137 17 -1 -1 29 -57 68 -125 38 -68 69 -130 69 -138 0 -8 -27 -72 -60 -141 -33 -69 -59 -126 -57 -128 1 -1 67 11 145 27 l143 30 105 -98 c57 -54 108 -99 113 -101 4 -1 14 59 21 134 9 94 18 141 29 154 9 10 69 46 134 81 65 34 115 65 110 69 -4 4 -65 33 -136 65 -96 44 -128 63 -132 79 -7 35 -45 250 -45 258 0 21 -23 0 -106 -91z" id="150"/>
<path d="M940 1574 c-36 -24 -72 -44 -81 -44 -9 0 -49 14 -89 30 -40 17 -75 29 -76 27 -3 -3 20 -90 40 -155 5 -16 -8 -37 -54 -91 -69 -81 -71 -79 55 -83 l70 -3 40 -62 c22 -34 45 -69 50 -79 9 -14 17 0 45 72 l35 88 82 21 c45 11 84 22 87 25 3 4 -26 31 -65 60 l-71 55 7 93 c3 50 3 92 -2 91 -4 0 -37 -20 -73 -45z" id="151"/>
<path d="M7617 1504 c-39 -26 -39 -26 -84 -9 -24 9 -46 16 -48 14 -2 -2 1 -25 7 -51 11 -44 10 -48 -21 -85 l-32 -38 51 -3 c46 -3 53 -6 77 -43 14 -21 29 -39 32 -39 4 0 13 19 21 42 13 37 20 44 59 55 24 7 46 15 49 17 2 3 -12 19 -31 36 -31 27 -36 38 -39 81 l-3 49 -38 -26z" id="152"/>
<path d="M3204 934 l-50 -34 -63 25 c-35 15 -65 25 -67 23 -2 -2 3 -26 11 -53 22 -71 19 -85 -26 -140 l-42 -50 39 -3 c93 -6 103 -10 141 -67 19 -30 39 -52 44 -50 4 3 15 27 24 54 20 61 25 65 98 84 33 9 61 17 63 19 2 2 -22 24 -53 47 l-55 44 4 69 c4 46 2 68 -6 67 -6 0 -34 -16 -62 -35z" id="153"/>
</g>
</svg>