<?xml version="1.0" ?><!DOCTYPE svg  PUBLIC '-//W3C//DTD SVG 20010904//EN'  'http://www.w3.org/TR/2001/REC-SVG-20010904/DTD/svg10.dtd'><svg height="850.000000pt" preserveAspectRatio="xMidYMid meet" version="1.0" viewBox="0 0 850.000000 850.000000" width="850.000000pt" xmlns="http://www.w3.org/2000/svg">
<metadata>
Created by potrace 1.14, written by Peter Selinger 2001-2017
</metadata>
<g fill="#ffffff" stroke="none" transform="translate(0.000000,850.000000) scale(0.100000,-0.100000)">
<path d="M0 8243 l0 -258 21 35 c12 19 37 54 56 78 75 92 153 284 153 376 l0 26 -115 0 -115 0 0 -257z" id="1"/>
<path d="M260 8446 c0 -49 -9 -80 -68 -216 -7 -17 -12 -21 114 75 44 34 118 83 165 109 165 96 169 86 -33 86 l-178 0 0 -54z" id="2"/>
<path d="M579 8442 c-222 -122 -389 -252 -482 -374 -30 -40 -64 -82 -76 -92 -16 -15 -21 -31 -21 -73 0 -29 3 -53 6 -53 13 0 754 635 754 646 0 2 -17 4 -37 4 -27 0 -68 -17 -144 -58z" id="3"/>
<path d="M695 8399 c-147 -134 -380 -329 -553 -464 -106 -83 -141 -116 -142 -132 0 -13 2 -23 4 -23 2 0 28 11 57 24 30 13 92 35 139 50 163 53 355 191 505 364 69 80 156 213 170 260 6 20 3 22 -32 22 -34 -1 -50 -12 -148 -101z" id="4"/>
<path d="M892 8446 c-67 -155 -256 -366 -436 -489 -55 -37 -96 -67 -90 -67 5 0 60 5 121 11 79 7 147 7 227 0 366 -35 590 -203 707 -533 16 -47 29 -68 40 -68 36 0 978 194 1451 300 1344 297 2396 567 2638 675 52 23 106 47 120 53 49 21 -44 13 -203 -18 -135 -26 -473 -76 -598 -87 -38 -4 -55 0 -90 22 -87 55 -141 75 -207 75 -125 0 -192 -65 -248 -244 -10 -32 -24 -60 -30 -63 -7 -2 -27 3 -45 12 -21 11 -72 20 -148 25 -135 8 -162 19 -223 90 -50 58 -84 75 -132 66 -39 -7 -88 -57 -111 -111 -10 -24 -20 -35 -35 -35 -20 0 -96 64 -167 142 -49 53 -109 73 -215 72 -122 -1 -171 -21 -202 -82 -29 -57 -48 -75 -106 -101 -70 -32 -91 -28 -144 29 -29 31 -46 58 -46 74 0 74 -50 104 -190 113 -138 9 -273 -21 -352 -79 -15 -11 -24 -6 -68 39 -92 94 -215 134 -347 113 -112 -18 -194 -66 -230 -134 -24 -44 -21 -171 6 -256 25 -78 25 -80 7 -80 -27 0 -83 80 -160 232 -94 183 -133 244 -199 309 l-50 49 -111 0 -111 0 -23 -54z" id="5"/>
<path d="M1223 8451 c60 -64 100 -128 180 -286 36 -71 76 -143 87 -160 l22 -30 -7 35 c-26 145 -15 228 41 290 132 146 424 141 571 -9 l47 -48 35 24 c64 43 134 58 281 58 188 0 260 -30 260 -107 0 -19 14 -43 42 -74 39 -42 45 -46 81 -41 51 7 102 48 131 105 34 67 73 84 206 89 148 7 188 -10 299 -122 47 -47 90 -85 96 -85 7 0 20 18 30 41 32 69 114 119 172 104 14 -3 56 -35 92 -70 37 -35 80 -69 96 -75 17 -6 79 -15 140 -19 60 -4 120 -13 132 -19 30 -16 31 -16 38 21 10 45 51 135 82 180 15 21 47 50 72 65 40 23 57 27 126 26 84 0 128 -16 226 -81 l37 -24 88 15 c49 8 150 23 224 31 74 9 204 30 289 46 142 28 277 39 301 24 22 -13 8 -32 -32 -44 -24 -7 -86 -32 -138 -56 -52 -24 -156 -61 -230 -84 -702 -210 -2322 -591 -3510 -825 -184 -37 -345 -69 -356 -71 l-21 -5 18 -77 c10 -43 19 -100 19 -128 l0 -50 -32 40 c-58 71 -136 150 -165 166 -21 12 -38 14 -70 7 l-41 -9 50 -82 c66 -106 123 -230 148 -320 21 -76 52 -306 44 -319 -8 -13 -31 -9 -45 8 -20 25 -229 162 -349 231 -109 62 -278 155 -295 162 -5 2 19 -27 53 -66 34 -38 62 -75 62 -81 0 -22 -40 -32 -127 -32 -106 0 -185 18 -275 64 -38 19 -68 33 -68 31 0 -1 18 -40 40 -87 22 -47 56 -134 76 -194 45 -133 88 -354 72 -369 -7 -7 -12 -6 -15 3 -3 6 -35 30 -71 51 -37 22 -96 60 -131 86 -70 51 -250 231 -309 308 l-37 48 -3 -342 c-1 -188 -1 -344 1 -346 2 -2 35 15 73 37 100 59 191 85 294 85 92 0 99 -3 254 -98 77 -48 113 -48 185 -2 110 70 227 70 257 0 8 -19 14 -44 14 -55 0 -24 -26 -24 276 0 342 26 369 27 369 10 0 -28 -144 -70 -610 -175 -417 -95 -1093 -269 -1111 -287 -2 -3 -3 -120 -2 -261 l3 -256 339 135 c698 277 965 347 1096 287 25 -11 108 -68 185 -126 117 -87 460 -307 480 -307 3 0 53 20 111 45 57 25 126 49 153 52 45 5 58 1 157 -50 110 -55 172 -80 245 -96 l39 -9 0 33 c0 23 -11 44 -39 76 -42 48 -40 56 14 81 22 10 25 17 25 65 0 39 -4 53 -14 53 -18 0 -68 59 -63 74 2 6 19 18 38 27 28 14 35 24 39 54 l5 38 446 213 446 213 483 -105 c265 -58 483 -103 484 -102 43 106 110 189 209 259 92 64 165 91 247 91 133 1 216 -72 227 -202 l5 -57 61 25 c41 16 81 24 126 25 112 1 171 -43 171 -128 l0 -36 38 37 c70 69 202 116 286 100 46 -9 92 -48 99 -86 l6 -30 203 -2 202 -3 -91 -23 c-50 -12 -131 -31 -179 -41 -49 -10 -233 -53 -409 -94 -176 -42 -378 -87 -450 -101 -110 -21 -375 -66 -390 -66 -3 0 -5 -16 -5 -35 0 -30 4 -35 28 -41 66 -14 64 -11 25 -70 -20 -30 -41 -54 -48 -54 -9 0 -15 -27 -20 -81 l-7 -81 39 -39 c36 -37 45 -40 133 -54 52 -8 109 -17 127 -20 29 -5 38 -16 98 -129 74 -141 50 -126 230 -146 161 -18 163 -19 174 -50 l10 -29 98 35 c207 74 265 87 423 89 138 1 147 2 192 29 134 78 329 136 484 143 140 7 181 -5 370 -102 164 -84 210 -96 251 -67 41 29 142 78 189 92 38 11 44 10 95 -18 30 -17 70 -38 90 -46 l36 -15 59 50 c69 59 198 141 312 198 l82 41 0 431 0 431 -22 -5 c-95 -23 -761 -147 -790 -147 -25 0 -23 17 5 26 31 10 235 109 274 133 30 19 32 22 22 51 -24 66 36 130 121 130 40 0 103 -11 151 -26 13 -3 18 4 23 30 17 90 109 137 199 101 15 -6 17 1 17 85 l0 92 -27 -7 c-65 -16 -226 -45 -230 -41 -3 3 9 22 25 43 29 36 36 56 62 185 18 90 87 168 150 168 20 0 20 3 20 475 0 306 -4 475 -10 475 -5 0 -42 -9 -82 -20 -127 -34 -492 -116 -803 -180 -514 -105 -809 -170 -848 -185 -46 -18 -47 -18 -47 -1 0 8 10 18 23 22 32 9 54 32 100 99 53 80 94 123 139 146 46 24 82 24 134 0 102 -46 135 -40 171 35 40 84 90 102 177 63 31 -13 57 -18 76 -14 47 10 53 25 35 93 -57 221 55 442 282 554 71 35 95 42 162 46 95 5 139 -8 193 -56 73 -66 119 -195 122 -338 l1 -80 44 33 c24 19 63 39 87 45 l44 12 0 353 0 353 -3661 0 -3662 0 46 -49z m4505 -607 c373 -77 632 -410 609 -784 -3 -52 -13 -119 -21 -147 -8 -29 -13 -53 -11 -53 2 0 38 19 80 41 44 24 90 42 106 41 30 -1 149 -66 149 -82 0 -5 -54 -10 -119 -12 l-120 -3 -35 -34 c-27 -26 -41 -33 -64 -29 -26 4 -32 0 -47 -31 -25 -53 -97 -150 -147 -198 -340 -325 -887 -268 -1156 120 -112 161 -156 381 -116 575 85 413 484 680 892 596z m1174 -1241 c60 -21 108 -41 108 -45 0 -11 -56 -18 -186 -22 -115 -4 -164 -15 -164 -36 0 -6 7 -10 15 -10 26 0 16 -19 -22 -44 -58 -37 -83 -42 -90 -18 -3 13 -16 22 -36 25 -18 2 -47 11 -64 18 -27 11 -43 11 -90 0 -93 -20 -143 -25 -143 -13 0 14 121 86 178 106 40 14 47 14 95 -4 70 -27 83 -26 152 16 63 39 113 63 130 64 6 0 58 -17 117 -37z m81 -292 c121 -79 118 -94 -12 -60 -81 21 -94 22 -141 10 -28 -7 -54 -10 -57 -7 -12 12 33 61 77 84 24 12 47 22 51 22 3 0 40 -22 82 -49z" id="6"/>
<path d="M5458 7820 c-277 -50 -494 -246 -579 -520 -34 -108 -34 -292 0 -400 77 -250 251 -423 501 -501 107 -34 292 -34 400 0 147 45 269 126 362 237 56 69 103 153 92 164 -8 8 -152 30 -191 30 -29 0 4 34 54 56 65 29 98 30 141 4 l32 -20 10 26 c20 52 32 171 26 255 -21 303 -225 557 -521 649 -79 24 -249 35 -327 20z m173 -837 c49 -27 89 -51 89 -55 0 -17 -76 -6 -130 18 l-57 26 -54 -33 c-30 -18 -65 -41 -78 -51 -29 -22 -41 -23 -41 -4 0 19 145 146 166 146 9 0 56 -21 105 -47z" id="7"/>
<path d="M5487 6989 c-47 -38 -41 -49 8 -19 l37 23 59 -28 c32 -16 61 -26 64 -23 5 4 -117 78 -128 78 -1 0 -19 -14 -40 -31z" id="8"/>
<path d="M6434 6905 c-27 -13 -67 -35 -89 -48 l-40 -26 -51 30 c-59 34 -78 35 -136 12 -35 -14 -38 -18 -22 -24 10 -4 36 -8 56 -8 21 -1 67 -11 103 -23 l66 -21 35 34 c34 33 37 34 135 37 91 4 99 5 80 18 -11 8 -36 21 -54 29 -31 13 -38 12 -83 -10z" id="9"/>
<path d="M6680 6571 c-47 -28 -92 -51 -100 -51 -8 0 -42 10 -75 22 l-60 21 -63 -28 c-34 -15 -67 -34 -74 -43 -12 -13 -8 -14 27 -6 55 12 124 10 160 -4 17 -6 42 -14 58 -17 15 -3 27 -12 27 -20 0 -13 5 -12 35 2 36 17 46 33 20 33 -25 0 -17 17 22 47 34 26 43 28 162 33 l126 5 -60 23 c-101 40 -110 39 -205 -17z" id="10"/>
<path d="M6853 6320 c-18 -11 -33 -23 -33 -26 0 -3 15 -4 33 -1 17 2 56 -2 86 -10 30 -7 56 -12 58 -10 5 5 -90 67 -103 67 -5 0 -24 -9 -41 -20z" id="11"/>
<path d="M7982 8149 c-138 -18 -301 -141 -364 -275 -41 -87 -49 -194 -23 -290 16 -59 16 -66 1 -89 -9 -13 -34 -30 -56 -36 -37 -11 -46 -10 -86 9 -82 40 -117 26 -162 -64 -14 -27 -32 -46 -53 -54 -29 -12 -40 -11 -113 13 -45 15 -90 27 -101 27 -47 -1 -124 -73 -182 -169 -22 -38 -23 -42 -7 -37 39 12 381 87 684 151 353 74 700 151 865 193 l110 28 3 103 3 103 -23 -7 c-53 -17 -85 -34 -112 -64 -35 -37 -64 -40 -70 -8 -3 12 -7 67 -10 122 -5 116 -23 184 -69 251 -53 79 -124 107 -235 93z" id="12"/>
<path d="M380 7866 c-123 -20 -209 -42 -300 -77 l-80 -30 0 -50 c0 -27 1 -49 3 -49 1 0 63 9 137 21 83 13 211 23 330 26 288 8 422 -14 597 -98 156 -75 266 -188 344 -353 24 -49 28 -54 23 -26 -11 61 -71 217 -110 287 -22 41 -70 101 -118 149 -94 94 -194 149 -336 184 -109 27 -365 35 -490 16z" id="13"/>
<path d="M345 7679 c-122 -7 -272 -23 -322 -36 -22 -5 -23 -10 -23 -93 0 -74 3 -89 18 -95 9 -4 163 -11 342 -16 607 -15 830 -68 1008 -238 69 -65 71 -59 19 44 -80 160 -188 271 -332 340 -115 55 -229 83 -391 95 -141 10 -132 10 -319 -1z" id="14"/>
<path d="M0 7351 l0 -69 66 -58 c68 -59 168 -179 246 -294 77 -113 231 -183 405 -184 50 -1 94 2 98 6 9 8 -480 499 -549 552 -66 50 -171 102 -223 110 l-43 6 0 -69z" id="15"/>
<path d="M208 7373 c90 -55 161 -113 297 -243 134 -128 226 -193 425 -300 74 -40 199 -115 278 -166 78 -51 142 -91 142 -88 0 13 -78 147 -146 249 -145 221 -314 400 -481 512 l-89 60 -124 6 c-68 4 -177 7 -243 7 l-121 0 62 -37z" id="16"/>
<path d="M700 7387 c3 -3 43 -33 90 -67 207 -152 404 -397 556 -690 21 -41 40 -67 42 -59 5 29 -27 216 -48 279 -46 135 -149 318 -228 402 -62 67 -115 96 -203 112 -85 16 -216 30 -209 23z" id="17"/>
<path d="M1125 7281 c34 -33 45 -38 73 -34 17 3 32 9 32 13 0 9 -112 60 -131 60 -8 0 4 -18 26 -39z" id="18"/>
<path d="M0 7161 l0 -84 62 -101 c34 -56 136 -220 228 -366 91 -146 184 -294 205 -329 21 -36 40 -60 43 -53 6 19 -27 167 -64 278 -34 107 -127 315 -172 389 -39 64 -164 214 -236 285 l-66 64 0 -83z" id="19"/>
<path d="M0 6881 l0 -163 47 -61 c105 -138 407 -416 429 -395 3 3 -51 95 -119 204 -68 110 -173 280 -232 379 -60 99 -112 184 -117 190 -4 5 -8 -64 -8 -154z" id="20"/>
<path d="M8415 6519 c-48 -43 -61 -69 -78 -171 -9 -54 -24 -99 -37 -118 l-21 -30 23 0 c20 0 50 6 176 35 22 5 22 8 22 160 l0 155 -25 0 c-13 0 -40 -14 -60 -31z" id="21"/>
<path d="M254 6050 c-74 -19 -149 -53 -216 -98 l-38 -25 0 -204 c0 -191 1 -205 18 -198 91 35 700 190 1117 285 309 70 469 110 462 116 -2 2 -77 -3 -168 -11 -90 -8 -211 -16 -269 -17 l-105 -3 -5 42 c-4 23 -12 48 -19 56 -32 40 -119 28 -211 -29 -91 -56 -123 -51 -285 50 -97 60 -160 68 -281 36z" id="22"/>
<path d="M8358 6024 c-33 -18 -58 -62 -58 -104 0 -35 -4 -35 -80 -15 -30 8 -79 15 -108 15 -46 0 -58 -4 -83 -29 -31 -31 -36 -59 -18 -93 15 -28 5 -36 -136 -108 -107 -54 -115 -60 -75 -55 58 9 659 124 683 131 15 5 17 20 17 128 0 122 0 123 -25 134 -35 16 -84 14 -117 -4z" id="23"/>
<path d="M5008 5917 c-76 -32 -177 -106 -225 -164 -43 -52 -83 -115 -83 -130 0 -5 69 -24 153 -42 201 -43 187 -38 187 -71 0 -26 4 -29 45 -36 25 -3 48 -10 51 -15 3 -5 -7 -29 -22 -55 -24 -40 -30 -45 -55 -42 -26 4 -29 2 -29 -25 0 -23 4 -28 16 -23 9 4 93 20 187 37 222 39 484 96 827 181 47 11 130 29 185 39 l100 17 -111 1 -111 1 -7 40 c-19 123 -240 95 -363 -45 -66 -75 -77 -73 -68 13 6 64 5 71 -18 98 -24 28 -28 29 -115 29 -81 0 -95 -3 -152 -33 -35 -18 -65 -30 -67 -28 -2 2 -5 37 -6 77 -4 86 -21 126 -74 166 -31 24 -47 28 -112 31 -62 2 -87 -2 -133 -21z" id="24"/>
<path d="M3270 5587 c-283 -136 -426 -209 -428 -220 -2 -9 -1 -17 3 -17 7 0 847 389 853 395 2 2 2 13 0 24 -3 19 -43 2 -428 -182z" id="25"/>
<path d="M3730 5772 c0 -11 8 -23 18 -26 16 -5 1251 -256 1258 -256 2 0 4 6 4 13 0 9 -183 53 -617 147 -340 73 -628 135 -640 138 -18 3 -23 0 -23 -16z" id="26"/>
<path d="M3730 5684 c0 -22 5 -34 18 -38 9 -3 253 -50 542 -106 289 -55 581 -112 650 -126 l125 -25 18 22 c9 12 15 24 13 27 -3 2 -311 66 -685 142 l-681 138 0 -34z" id="27"/>
<path d="M3620 5674 c-41 -20 -246 -114 -455 -211 -209 -96 -384 -179 -390 -184 -6 -6 -3 -15 7 -25 15 -15 25 -12 135 39 65 30 264 119 443 198 179 78 329 145 333 149 5 4 7 21 5 38 l-3 31 -75 -35z" id="28"/>
<path d="M3730 5554 c0 -51 3 -64 18 -68 29 -9 1227 -256 1240 -256 10 0 12 19 10 72 l-3 72 -605 116 c-333 64 -617 119 -632 122 l-28 5 0 -63z" id="29"/>
<path d="M3268 5418 l-428 -190 0 -55 c0 -40 3 -54 13 -50 6 2 200 85 430 183 l417 178 0 63 c0 35 -1 63 -2 62 -2 0 -195 -86 -430 -191z" id="30"/>
<path d="M6358 5593 c12 -2 30 -2 40 0 9 3 -1 5 -23 4 -22 0 -30 -2 -17 -4z" id="31"/>
<path d="M3730 5414 c0 -37 3 -44 23 -49 16 -4 1065 -207 1248 -242 21 -4 31 1 48 26 l22 30 -23 6 c-13 3 -306 64 -653 135 -346 71 -638 132 -647 134 -15 3 -18 -3 -18 -40z" id="32"/>
<path d="M3330 5294 c-195 -84 -395 -169 -445 -189 -125 -49 -126 -50 -92 -80 l28 -24 52 20 c28 11 142 58 252 104 110 45 263 108 340 140 258 105 235 91 235 141 0 24 -3 44 -7 43 -5 0 -168 -70 -363 -155z" id="33"/>
<path d="M1115 5345 c-156 -40 -327 -99 -570 -194 -407 -159 -538 -211 -542 -214 -2 -2 -2 -171 -1 -375 l3 -372 60 36 c58 36 62 36 135 31 41 -4 100 -14 130 -24 81 -25 177 -20 415 20 204 35 284 52 449 96 165 44 401 15 629 -76 89 -36 90 -36 106 -16 11 15 33 22 76 27 32 4 62 10 65 15 131 191 172 241 207 250 21 6 43 11 48 11 6 0 46 46 88 103 l78 102 140 54 139 54 -86 28 c-47 16 -130 52 -184 80 -98 51 -99 52 -146 40 -27 -7 -95 -33 -152 -57 l-103 -45 -87 54 c-48 29 -127 78 -175 108 -49 30 -148 98 -220 152 -73 55 -153 110 -179 123 -69 35 -159 32 -323 -11z" id="34"/>
<path d="M3732 5237 l3 -102 270 -42 c149 -23 282 -42 298 -42 26 -1 27 1 27 47 0 49 18 80 54 100 23 11 43 7 -354 82 -146 28 -273 52 -283 54 -16 4 -17 -4 -15 -97z" id="35"/>
<path d="M3595 5287 l-100 -42 -3 -53 -3 -52 105 0 106 0 0 95 c0 52 -1 95 -2 94 -2 0 -48 -19 -103 -42z" id="36"/>
<path d="M3413 5210 c-40 -18 -43 -22 -43 -60 0 -44 5 -47 55 -26 33 14 35 18 35 60 0 26 -1 46 -2 46 -2 0 -22 -9 -45 -20z" id="37"/>
<path d="M4510 5154 c11 -20 22 -60 26 -90 3 -30 10 -54 14 -54 5 0 95 -13 200 -30 105 -16 200 -30 210 -30 15 0 19 11 25 71 4 38 6 72 4 74 -4 3 -479 95 -492 95 -2 0 3 -16 13 -36z" id="38"/>
<path d="M3322 5171 c-9 -5 -12 -23 -10 -49 2 -31 6 -39 16 -33 9 5 12 23 10 49 -2 31 -6 39 -16 33z" id="39"/>
<path d="M4372 5157 c-16 -17 -22 -36 -22 -69 0 -51 -7 -47 113 -64 47 -6 47 -6 47 22 -1 49 -18 108 -36 121 -29 21 -78 16 -102 -10z" id="40"/>
<path d="M3228 5134 c-23 -12 -28 -21 -28 -54 0 -22 2 -40 4 -40 2 0 20 7 40 15 33 14 36 19 36 55 0 44 -9 48 -52 24z" id="41"/>
<path d="M3153 5103 c-19 -7 -17 -83 2 -83 11 0 15 12 15 45 0 25 -1 45 -2 44 -2 0 -9 -3 -15 -6z" id="42"/>
<path d="M3475 4984 c4 -71 8 -129 9 -130 7 -5 293 -40 299 -37 13 8 8 271 -5 280 -7 4 -80 9 -162 11 l-149 4 8 -128z m244 32 c6 -4 11 -37 11 -82 0 -48 -4 -73 -10 -69 -5 3 -10 33 -10 65 0 32 -5 62 -11 66 -6 3 -49 9 -95 12 -46 2 -84 9 -84 15 0 11 180 5 199 -7z" id="43"/>
<path d="M3155 4988 c-154 -59 -289 -112 -300 -117 -11 -5 -92 -35 -179 -67 l-159 -59 -63 -80 c-35 -43 -62 -81 -60 -82 1 -2 216 65 477 148 427 136 479 150 527 146 l52 -6 -1 47 c-1 26 -4 77 -8 113 l-6 65 -280 -108z" id="44"/>
<path d="M3830 5086 c0 -3 399 -539 886 -1191 848 -1133 888 -1185 918 -1185 29 0 46 -8 109 -53 24 -17 27 -17 51 -2 14 10 26 21 26 26 0 5 -169 219 -376 476 -1164 1450 -1519 1896 -1518 1909 1 9 -8 14 -25 14 -14 0 -36 3 -48 6 -13 4 -23 4 -23 0z" id="45"/>
<path d="M3063 5068 c-18 -9 -23 -20 -23 -50 0 -21 2 -38 4 -38 1 0 17 5 35 11 28 10 31 15 31 50 0 41 -8 46 -47 27z" id="46"/>
<path d="M3969 5044 l23 -29 436 -66 c240 -37 439 -65 440 -63 2 1 -4 13 -14 27 -17 22 -43 27 -429 86 -225 34 -425 65 -444 68 l-35 6 23 -29z" id="47"/>
<path d="M3810 4933 c0 -91 3 -122 13 -126 8 -3 43 -8 80 -12 l67 -7 2 -156 3 -156 42 -9 42 -8 3 -157 3 -157 45 -8 c101 -19 90 3 90 -173 0 -174 -6 -162 83 -173 l52 -6 3 -176 2 -176 38 -7 c20 -3 53 -6 72 -6 19 0 41 -4 47 -8 9 -6 13 -61 15 -197 l3 -190 57 -3 57 -3 3 -117 c3 -111 4 -117 23 -114 11 2 48 4 83 5 67 1 97 -13 136 -66 17 -23 19 -33 10 -66 l-11 -39 33 5 c47 8 97 -4 139 -32 28 -20 40 -23 55 -15 45 24 122 31 183 15 107 -27 141 -17 240 70 l45 41 -874 1168 c-480 643 -876 1171 -879 1174 -3 3 -5 -49 -5 -115z" id="48"/>
<path d="M2918 5007 c-78 -32 -78 -32 -78 -69 l0 -38 68 26 c37 14 75 28 85 31 12 4 17 16 17 44 0 22 -3 39 -7 39 -5 -1 -43 -15 -85 -33z" id="49"/>
<path d="M4044 4949 l29 -34 441 -67 c242 -36 442 -65 443 -64 2 1 -10 16 -25 33 l-27 31 -415 62 c-228 34 -428 64 -445 68 l-30 5 29 -34z" id="50"/>
<path d="M4897 4908 c11 -13 287 -338 613 -723 326 -385 596 -703 599 -706 3 -4 18 -9 34 -13 l27 -6 -20 37 c-11 21 -20 50 -20 64 0 34 16 15 -569 678 -278 314 -510 584 -517 599 -20 47 -64 79 -118 86 l-50 6 21 -22z" id="51"/>
<path d="M4110 4874 c1 -5 12 -22 25 -39 l24 -29 443 -67 c244 -37 445 -65 447 -63 3 3 -11 20 -29 38 l-35 34 -415 62 c-228 34 -425 64 -437 67 -13 3 -23 1 -23 -3z" id="52"/>
<path d="M2890 4714 c-228 -74 -463 -149 -523 -167 l-107 -32 -70 -99 c-38 -55 -68 -101 -66 -104 3 -2 249 60 547 138 427 112 552 141 586 137 50 -5 48 -8 58 108 3 39 8 89 12 113 4 32 2 42 -8 41 -8 0 -201 -61 -429 -135z" id="53"/>
<path d="M3360 4842 c0 -4 -7 -68 -15 -142 -8 -74 -13 -135 -12 -137 3 -3 580 -83 600 -83 15 0 17 15 17 145 0 80 -4 145 -9 145 -4 0 -116 15 -247 34 -318 45 -334 47 -334 38z m215 -89 c12 -4 15 -25 15 -91 0 -104 -18 -101 -22 3 l-3 70 -72 10 c-39 6 -75 14 -80 19 -8 9 136 0 162 -11z m240 -32 c47 -8 50 -16 40 -108 -9 -82 -26 -71 -23 15 l3 66 -35 7 c-19 4 -56 11 -83 14 -26 3 -45 10 -42 15 6 9 45 6 140 -9z" id="54"/>
<path d="M8395 4799 c-124 -69 -178 -104 -264 -173 -73 -58 -74 -58 -113 -47 -21 7 -65 27 -97 46 -48 28 -63 33 -87 26 -34 -10 -123 -54 -176 -87 -21 -13 -49 -24 -63 -24 -36 0 -138 41 -230 91 -152 85 -178 93 -305 97 -134 4 -232 -17 -412 -87 -140 -55 -148 -65 -61 -81 37 -6 322 -70 633 -141 719 -166 1262 -289 1272 -289 4 0 8 162 8 360 0 198 -3 360 -7 360 -5 -1 -48 -23 -98 -51z" id="55"/>
<path d="M5116 4791 c26 -28 40 -33 102 -39 39 -5 73 -10 75 -13 11 -11 34 -110 27 -114 -5 -3 -16 18 -25 46 -19 57 -26 62 -84 57 l-41 -3 67 -73 c68 -73 68 -73 131 -79 l64 -6 -42 84 c-69 137 -65 133 -172 148 -51 7 -102 15 -113 18 -16 4 -14 -1 11 -26z" id="56"/>
<path d="M4220 4730 c17 -22 37 -43 43 -47 14 -9 890 -143 896 -138 7 8 -82 103 -92 99 -7 -2 -205 25 -442 61 -236 36 -431 65 -433 65 -2 0 11 -18 28 -40z" id="57"/>
<path d="M4306 4628 c31 -52 79 -98 103 -98 14 0 215 -29 446 -65 231 -35 421 -62 423 -60 8 8 -91 113 -102 109 -6 -2 -204 25 -441 61 -236 36 -431 65 -433 65 -2 0 0 -6 4 -12z" id="58"/>
<path d="M2655 4425 c-280 -74 -530 -141 -555 -149 -25 -7 -66 -17 -92 -20 l-46 -7 -67 -110 c-37 -61 -65 -112 -62 -115 3 -3 290 58 638 136 348 78 646 140 661 138 33 -5 34 -3 43 107 3 39 8 89 12 113 4 32 2 42 -8 41 -8 0 -243 -61 -524 -134z" id="59"/>
<path d="M6180 4545 c-59 -12 -98 -23 -287 -81 -35 -10 -63 -24 -63 -29 0 -6 14 -54 30 -107 29 -93 32 -97 63 -103 17 -3 92 -14 166 -25 74 -10 137 -22 141 -27 4 -4 31 -73 60 -153 29 -80 56 -149 60 -153 6 -6 234 -45 272 -47 3 0 41 -65 83 -145 42 -80 77 -145 78 -145 1 0 72 -9 157 -20 85 -11 156 -20 158 -20 2 0 36 -69 76 -154 l74 -154 98 -6 c55 -3 125 -8 156 -11 52 -4 57 -3 64 18 17 58 48 117 60 117 14 0 21 -76 15 -174 -2 -36 0 -38 21 -31 71 22 124 26 163 13 23 -7 40 -20 40 -28 0 -8 -22 -27 -49 -42 l-50 -26 35 -15 c38 -16 96 -73 85 -84 -6 -6 -65 6 -108 22 -16 6 -15 0 6 -46 13 -30 26 -62 29 -71 5 -13 18 -18 49 -19 24 0 63 -4 87 -7 44 -7 46 -9 161 -167 114 -156 118 -160 151 -158 107 7 178 7 207 0 l32 -9 0 816 c0 767 -1 815 -17 820 -10 3 -187 43 -393 90 -206 47 -618 141 -915 211 -297 69 -591 135 -653 145 -130 23 -247 24 -342 5z" id="60"/>
<path d="M3220 4548 c0 -2 -7 -61 -14 -133 -8 -71 -13 -132 -11 -134 4 -3 811 -131 833 -131 9 0 12 36 12 145 0 142 0 145 -22 149 -41 9 -754 106 -776 106 -12 0 -22 -1 -22 -2z m210 -81 l75 -12 0 -77 c0 -43 -4 -78 -10 -78 -5 0 -9 30 -10 68 l0 67 -92 15 c-50 8 -95 18 -99 23 -10 10 49 8 136 -6z m345 -47 c145 -20 135 -15 135 -68 0 -64 -11 -122 -22 -122 -5 0 -6 31 -2 74 8 86 17 78 -118 96 -49 7 -88 16 -88 21 0 11 8 11 95 -1z" id="61"/>
<path d="M5370 4499 c36 -42 47 -49 78 -49 21 0 54 -3 74 -6 l36 -6 7 -84 c4 -47 12 -87 18 -91 7 -4 30 -8 52 -10 22 -2 80 -8 129 -13 50 -5 91 -8 92 -7 2 3 -76 250 -81 255 -3 3 -89 15 -192 28 -104 12 -203 25 -221 28 l-33 5 41 -50z m380 -86 c14 -13 24 -133 12 -133 -5 0 -13 27 -17 59 -6 56 -8 59 -37 65 -17 3 -41 6 -54 6 -12 0 -26 5 -30 12 -8 13 113 5 126 -9z" id="62"/>
<path d="M4417 4488 c63 -82 79 -98 99 -98 12 0 215 -29 450 -65 235 -36 429 -63 431 -61 8 7 -89 111 -101 109 -7 -2 -205 26 -441 62 -236 36 -434 65 -439 65 -4 0 -4 -6 1 -12z" id="63"/>
<path d="M5440 4425 c0 -8 89 -108 101 -113 5 -2 0 98 -5 105 -5 6 -96 14 -96 8z" id="64"/>
<path d="M4560 4308 c23 -29 47 -56 53 -60 16 -9 878 -111 884 -104 11 10 -71 96 -87 91 -9 -3 -209 24 -445 60 -236 36 -433 65 -438 65 -5 0 10 -24 33 -52z" id="65"/>
<path d="M1270 4333 c-14 -2 -83 -19 -155 -38 -146 -39 -508 -103 -631 -112 -61 -4 -93 -2 -129 10 -26 9 -84 22 -129 28 l-81 11 -72 -42 -73 -43 0 -748 0 -747 41 -36 c48 -41 143 -81 215 -91 l51 -7 8 38 c3 21 22 56 40 78 18 23 76 103 128 178 l95 138 -19 82 c-10 46 -24 114 -31 152 l-11 69 -23 -52 c-13 -29 -28 -50 -34 -46 -17 11 -40 107 -40 172 l0 64 -58 -45 c-61 -48 -82 -56 -82 -31 0 24 35 88 64 114 14 13 23 28 20 32 -3 5 -33 9 -67 9 l-62 1 35 29 c19 17 55 38 80 47 25 9 47 18 49 19 2 2 -13 23 -33 47 -33 40 -45 67 -31 67 13 0 92 -44 111 -61 20 -19 21 -19 53 31 47 72 121 125 121 86 0 -8 -8 -40 -18 -73 l-18 -58 70 -1 c69 0 136 -22 136 -44 0 -8 -43 -23 -95 -32 -16 -3 -11 -9 25 -28 49 -28 90 -80 90 -116 0 -32 -21 -31 -98 6 -35 17 -66 30 -68 30 -6 0 36 -104 47 -115 36 -36 -28 -33 -79 5 -23 17 -42 26 -42 20 0 -14 45 -225 59 -277 l12 -43 62 7 c34 3 67 10 74 15 6 5 59 83 118 173 l106 163 69 13 c38 6 73 15 78 18 6 3 62 83 126 176 l117 170 67 5 67 5 79 128 79 127 51 0 51 0 55 96 c30 52 55 97 55 100 0 8 -140 61 -220 84 -135 38 -317 57 -405 43z" id="66"/>
<path d="M2475 4139 c-313 -70 -617 -137 -674 -147 l-105 -18 -63 -103 c-35 -57 -63 -105 -61 -106 2 -2 294 37 648 87 355 49 671 91 702 91 l57 2 21 75 c11 41 31 114 44 163 17 59 21 87 13 86 -7 0 -268 -59 -582 -130z" id="67"/>
<path d="M3091 4236 c-25 -78 -83 -298 -79 -301 1 -2 263 -32 582 -67 402 -45 579 -61 582 -53 3 6 3 74 2 150 l-3 139 -490 77 c-636 99 -582 94 -594 55z m234 -76 c138 -18 125 -6 125 -120 0 -127 -18 -133 -22 -8 l-3 92 -110 18 c-60 9 -116 17 -123 17 -7 1 -10 6 -7 12 4 5 19 8 33 5 15 -3 63 -10 107 -16z m545 -84 l75 -11 3 -74 c4 -104 -11 -126 -18 -26 l-5 80 -75 12 c-41 6 -96 14 -122 18 -27 3 -48 11 -48 16 0 11 42 7 190 -15z" id="68"/>
<path d="M4640 4215 c0 -4 19 -31 42 -60 33 -43 49 -55 77 -59 97 -15 843 -87 848 -83 3 3 -12 26 -33 51 -26 31 -48 48 -69 51 -16 3 -201 25 -410 50 -209 25 -397 48 -417 51 -21 3 -38 3 -38 -1z" id="69"/>
<path d="M5659 4173 l40 -48 108 -10 108 -10 3 -77 c2 -47 -1 -78 -7 -78 -6 0 -11 30 -13 68 l-3 67 -75 7 c-41 5 -79 7 -84 5 -5 -2 31 -48 79 -102 48 -55 89 -101 90 -103 3 -4 337 -31 381 -32 l32 0 -54 142 c-29 78 -58 144 -64 148 -20 13 -473 70 -550 70 l-32 0 41 -47z m507 -81 c14 -9 28 -162 15 -162 -9 0 -17 39 -23 115 l-3 30 -97 3 c-54 1 -98 7 -98 12 0 12 189 13 206 2z" id="70"/>
<path d="M4750 4070 c0 -3 22 -28 48 -57 l47 -51 420 -41 c231 -23 430 -44 443 -47 31 -6 27 4 -23 60 l-44 49 -445 46 c-245 26 -446 44 -446 41z" id="71"/>
<path d="M4866 3928 c4 -7 28 -38 53 -68 25 -30 46 -56 47 -58 2 -6 865 -64 870 -59 4 3 -14 29 -39 58 -41 46 -49 51 -93 55 -27 2 -224 22 -439 44 -214 22 -393 40 -398 40 -4 0 -5 -6 -1 -12z" id="72"/>
<path d="M2220 3830 c-344 -48 -667 -94 -719 -101 l-94 -14 -107 -155 c-102 -149 -106 -155 -81 -157 14 -2 388 41 831 95 l805 97 12 110 c6 61 14 134 17 163 6 49 5 52 -16 51 -13 -1 -304 -41 -648 -89z" id="73"/>
<path d="M2919 3906 c0 -6 -8 -81 -18 -166 -10 -85 -16 -158 -12 -162 3 -3 290 -34 636 -68 347 -33 664 -65 705 -69 41 -5 78 -6 83 -4 4 2 7 76 7 164 0 119 -3 161 -12 164 -11 4 -1200 135 -1345 149 -28 2 -43 -1 -44 -8z m351 -101 c69 -8 131 -15 138 -15 9 0 12 -29 12 -110 0 -67 -4 -110 -10 -110 -6 0 -10 40 -10 99 l0 99 -97 11 c-54 7 -119 15 -145 18 -27 3 -48 9 -48 14 0 12 14 11 160 -6z m604 -71 c88 -9 163 -20 166 -24 9 -14 -4 -185 -14 -185 -5 0 -8 39 -7 88 2 66 -1 87 -11 87 -7 0 -76 7 -153 15 -77 8 -143 15 -147 15 -9 0 -11 20 -2 20 4 0 79 -7 168 -16z" id="74"/>
<path d="M5972 3818 l26 -33 115 -3 c75 -2 118 -7 125 -15 11 -13 32 -106 32 -139 0 -39 -17 -5 -30 60 -7 35 -18 66 -25 68 -6 3 -52 4 -101 2 l-89 -3 49 -53 c34 -36 52 -49 57 -40 11 18 55 -8 87 -53 38 -52 82 -59 131 -20 57 45 104 71 129 71 26 0 27 -2 6 -57 -9 -24 -15 -45 -13 -47 6 -5 263 -25 267 -21 8 7 -122 246 -137 254 -33 17 -485 61 -620 61 l-34 0 25 -32z m530 -73 c40 -4 68 -12 71 -19 3 -7 8 -39 12 -72 9 -73 -10 -64 -22 11 -8 48 -10 50 -48 57 -22 4 -65 7 -95 8 -64 0 -100 8 -100 22 0 5 25 7 58 4 31 -3 87 -8 124 -11z" id="75"/>
<path d="M4996 3767 c28 -46 112 -138 129 -142 11 -2 178 -13 370 -25 193 -11 383 -23 424 -27 l75 -6 -59 71 c-51 63 -63 72 -99 77 -23 3 -203 16 -401 30 -198 14 -379 27 -403 30 -32 4 -41 2 -36 -8z" id="76"/>
<path d="M541 3675 c-28 -31 -54 -68 -57 -81 -6 -23 -24 -34 -24 -14 0 11 -78 65 -85 58 -2 -2 9 -21 26 -42 17 -20 30 -38 28 -40 -2 -2 -26 -11 -54 -20 -27 -9 -61 -25 -75 -36 l-25 -20 74 0 75 0 -47 -44 c-43 -42 -84 -103 -74 -112 2 -2 33 23 69 56 36 32 68 57 70 54 3 -2 2 -24 -3 -47 -8 -43 4 -167 20 -194 6 -12 10 -9 19 14 16 38 32 127 32 174 0 47 11 49 40 9 18 -26 99 -90 113 -90 6 0 -28 92 -49 133 -18 34 -11 47 13 25 20 -17 106 -62 141 -72 56 -18 -2 70 -69 104 -21 11 -47 20 -59 20 -11 0 -20 6 -20 14 0 9 18 16 50 20 28 4 60 11 73 15 39 15 -57 34 -130 27 -58 -6 -80 2 -53 19 11 7 44 114 37 121 -2 3 -27 -21 -56 -51z" id="77"/>
<path d="M6150 3599 c0 -48 27 -116 53 -138 30 -24 18 -29 -62 -24 -47 4 -99 1 -130 -7 -95 -23 -57 -40 103 -46 60 -2 111 -6 113 -8 3 -3 -14 -21 -36 -41 -61 -55 -135 -225 -99 -225 15 0 63 48 123 123 21 26 44 46 50 43 7 -2 17 0 23 6 16 16 33 -1 77 -82 45 -82 56 -77 46 23 -4 37 -5 67 -3 67 9 0 49 -24 67 -41 25 -23 95 -52 95 -40 0 17 -95 115 -139 142 -50 33 -57 26 84 78 55 21 72 30 55 32 -43 3 -103 -2 -144 -12 -21 -6 -40 -9 -42 -7 -2 2 17 44 41 93 25 49 45 93 45 98 0 4 -19 -2 -42 -15 -47 -25 -138 -115 -138 -135 0 -29 -21 -10 -50 46 -17 32 -45 71 -61 87 l-29 28 0 -45z" id="78"/>
<path d="M5176 3540 c26 -33 53 -65 59 -70 15 -13 633 -44 690 -35 22 3 67 12 100 19 l59 12 -39 42 -40 41 -420 26 c-231 14 -428 25 -438 25 -15 0 -9 -12 29 -60z" id="79"/>
<path d="M1945 3465 c-418 -51 -795 -100 -839 -109 -43 -9 -80 -16 -82 -16 -7 0 -204 -303 -200 -307 4 -4 478 38 485 43 1 1 -8 18 -22 36 -52 70 -82 148 -55 148 18 0 100 -56 133 -90 30 -31 45 -38 45 -19 0 24 63 138 91 165 42 41 51 22 45 -93 -4 -91 0 -107 23 -79 32 38 241 108 241 80 0 -5 -21 -30 -47 -56 -26 -26 -45 -49 -42 -51 2 -2 182 14 399 35 217 21 432 40 477 41 l82 2 41 165 c22 91 43 173 46 183 4 14 -1 17 -28 16 -18 -1 -375 -43 -793 -94z" id="80"/>
<path d="M2791 3521 c-40 -151 -83 -332 -79 -336 2 -2 83 -11 179 -20 95 -8 199 -17 229 -21 45 -5 53 -3 43 7 -22 22 -15 39 16 39 16 0 66 -11 112 -24 46 -14 85 -24 85 -23 1 1 3 56 5 122 l4 119 -185 19 c-102 11 -187 21 -189 23 -16 15 30 15 181 0 246 -24 221 -12 216 -109 -4 -62 -2 -77 6 -63 51 85 119 147 140 126 9 -9 -5 -146 -19 -182 -6 -15 -1 -15 44 3 89 33 192 19 175 -25 -3 -7 -32 -26 -64 -41 -33 -16 -58 -30 -57 -32 4 -4 790 -73 829 -73 l28 0 0 180 c0 136 -3 182 -12 185 -10 3 -1416 140 -1635 159 -42 3 -43 3 -52 -33z m1154 -164 l140 -12 6 -30 c10 -46 10 -185 0 -185 -4 0 -11 43 -14 96 -3 53 -7 97 -9 99 -2 1 -73 8 -158 14 -85 6 -170 14 -188 17 -52 8 -27 23 31 17 28 -2 115 -10 192 -16z" id="81"/>
<path d="M6436 3504 c-3 -9 -6 -17 -6 -18 0 -1 40 -2 89 -2 95 1 125 -10 103 -37 -6 -7 -8 -18 -3 -23 12 -13 43 -145 36 -152 -10 -10 -22 17 -35 79 -15 72 -27 77 -112 49 l-63 -21 75 -78 75 -78 305 -21 c167 -11 306 -19 308 -17 3 2 -25 65 -61 139 -52 107 -70 136 -89 140 -70 16 -495 56 -584 56 -20 0 -34 -6 -38 -16z m562 -109 c12 -12 32 -127 25 -139 -9 -14 -20 15 -28 71 -5 36 -12 54 -23 57 -10 2 -69 7 -132 11 -122 7 -159 13 -142 24 15 9 289 -12 300 -24z" id="82"/>
<path d="M5271 3423 c7 -10 31 -40 53 -68 22 -27 42 -52 44 -55 2 -3 168 -12 369 -20 l365 -15 34 42 c19 23 34 43 34 46 0 2 -42 6 -93 9 -63 3 -107 12 -139 26 -40 17 -81 22 -295 31 -136 6 -279 13 -317 16 -65 5 -68 4 -55 -12z" id="83"/>
<path d="M528 3357 c-5 -29 14 -158 42 -281 18 -82 24 -96 35 -85 12 12 8 40 -20 169 -19 85 -35 167 -35 182 0 34 -16 45 -22 15z" id="84"/>
<path d="M3502 3335 c-36 -30 -90 -132 -98 -187 -4 -21 -8 -38 -10 -38 -2 0 -36 11 -76 24 -40 13 -89 27 -108 31 l-35 7 20 -22 c11 -12 38 -32 60 -45 36 -21 64 -30 148 -49 37 -9 34 -22 -11 -45 -43 -22 -142 -108 -142 -123 0 -19 62 1 119 40 31 21 76 44 101 51 40 12 46 11 55 -4 33 -57 110 -152 113 -140 5 21 -15 79 -50 149 -16 32 -27 61 -24 64 3 2 21 -9 41 -27 58 -51 185 -107 185 -81 0 19 -73 91 -112 111 -21 11 -65 23 -96 28 l-57 8 40 17 c126 55 166 76 159 87 -11 18 -110 3 -167 -25 -56 -27 -73 -26 -56 6 12 22 42 179 35 185 -2 2 -17 -8 -34 -22z" id="85"/>
<path d="M1498 3288 c-23 -35 -68 -126 -68 -137 0 -5 -5 -22 -10 -36 l-10 -27 -49 54 c-55 60 -111 98 -111 76 0 -21 54 -102 84 -125 36 -29 33 -40 -16 -48 -52 -8 -168 -47 -168 -57 0 -14 93 -20 147 -9 80 16 80 16 31 -37 -45 -48 -73 -107 -66 -139 3 -14 21 -1 76 54 57 56 74 68 78 55 11 -37 57 -121 75 -138 19 -17 19 -15 19 58 0 41 3 78 7 81 3 4 19 -14 34 -41 16 -26 37 -58 48 -72 l21 -25 0 32 c0 39 -32 128 -56 154 -31 34 -7 31 41 -6 26 -20 63 -42 82 -50 47 -20 103 -29 103 -17 0 15 -91 96 -143 126 -44 26 -60 46 -36 46 5 0 46 34 90 76 73 70 78 76 50 71 -50 -10 -132 -49 -178 -84 -51 -39 -68 -42 -59 -10 4 12 10 61 13 110 6 91 -1 107 -29 65z" id="86"/>
<path d="M5400 3264 c0 -3 27 -39 61 -80 l60 -74 267 0 267 0 17 63 c9 34 14 64 11 67 -4 5 -493 28 -615 29 -38 1 -68 -2 -68 -5z" id="87"/>
<path d="M7597 3215 c-24 -69 -32 -147 -17 -174 16 -31 4 -39 -23 -13 -24 22 -118 72 -136 72 -36 0 34 -67 91 -86 42 -14 45 -26 8 -43 -46 -20 -127 -151 -94 -151 3 0 40 32 82 70 76 70 101 85 87 53 -40 -94 -56 -178 -32 -171 13 5 36 46 68 123 l21 50 26 -35 c48 -63 105 -116 110 -102 6 20 -26 98 -55 133 -14 16 -23 32 -21 35 3 3 29 -5 58 -16 75 -30 98 -19 30 13 -30 15 -61 27 -68 27 -29 0 -4 23 48 43 66 27 73 43 23 52 -50 8 -119 -8 -147 -34 -12 -12 -26 -21 -31 -21 -4 0 -6 28 -3 63 3 34 3 85 -1 112 l-6 50 -18 -50z" id="88"/>
<path d="M6277 3023 c-10 -328 -9 -473 3 -473 6 0 13 6 15 13 3 6 6 164 7 350 2 238 0 337 -8 337 -7 0 -13 -74 -17 -227z" id="89"/>
<path d="M6438 3177 c0 -34 -1 -67 -1 -73 0 -13 393 -477 399 -471 2 2 11 30 19 62 15 55 14 59 -3 79 -10 12 -88 100 -172 196 -85 96 -173 196 -197 222 l-43 47 -2 -62z" id="90"/>
<path d="M6194 3173 l-47 -58 43 -3 c64 -5 70 0 70 63 0 30 -4 55 -9 55 -6 0 -31 -26 -57 -57z" id="91"/>
<path d="M6568 3143 l40 -48 136 3 136 3 0 25 c0 13 5 24 10 24 14 0 130 -158 130 -178 1 -13 5 -11 21 8 12 14 37 42 55 63 l34 37 131 -10 c73 -6 134 -8 137 -5 3 3 0 11 -6 17 -7 7 -12 18 -12 25 0 22 54 15 114 -15 l56 -29 0 33 c0 40 -4 41 -195 48 -71 3 -267 15 -434 27 -248 17 -305 19 -311 8 -7 -10 -14 -10 -35 -1 -46 21 -48 13 -7 -35z" id="92"/>
<path d="M2082 3119 c-301 -30 -410 -44 -428 -55 l-24 -16 43 -28 c81 -51 147 -121 147 -156 0 -20 -133 15 -201 53 -3 2 2 -26 11 -63 l17 -66 49 -2 c57 -3 104 -25 132 -61 l21 -26 45 35 c44 33 90 53 131 57 59 5 79 -2 118 -41 l40 -41 36 17 c42 20 124 29 176 20 19 -4 51 -21 70 -38 32 -27 41 -26 36 4 -1 7 52 355 64 421 4 26 3 27 -38 26 -23 -1 -223 -19 -445 -40z" id="93"/>
<path d="M2595 3138 c-2 -13 -14 -86 -25 -163 -11 -77 -22 -150 -25 -163 l-6 -24 33 25 c57 43 95 57 151 57 97 0 158 -67 161 -175 l1 -55 43 0 c36 0 49 -6 72 -31 l29 -30 10 39 c12 43 42 75 84 91 41 16 123 13 158 -5 28 -14 32 -14 50 2 16 14 19 31 19 100 l0 82 -50 -19 c-57 -22 -90 -24 -90 -7 0 6 18 33 40 60 49 58 68 51 -205 73 -109 9 -201 18 -204 20 -15 15 28 15 206 1 109 -9 214 -19 233 -21 25 -4 45 1 70 16 l35 22 -65 21 c-36 11 -79 31 -95 42 -26 19 -62 24 -280 43 -324 28 -343 28 -350 -1z" id="94"/>
<path d="M6906 3070 c10 -73 25 -123 47 -162 11 -21 19 -40 16 -42 -2 -3 -35 11 -73 30 -72 36 -119 45 -110 20 10 -25 77 -65 134 -79 l54 -14 -30 -29 c-42 -39 -71 -91 -79 -139 l-7 -40 39 41 c21 22 55 61 76 87 30 37 42 45 55 38 9 -4 22 -7 27 -5 6 2 21 -21 34 -51 13 -31 26 -54 28 -51 2 2 -1 32 -8 65 -6 34 -9 65 -5 69 4 4 24 -13 44 -38 78 -93 74 -91 69 -42 -6 50 -46 114 -82 130 -14 7 -25 16 -25 22 0 13 143 13 188 1 38 -11 41 -3 10 27 -50 46 -129 55 -193 22 -21 -11 -41 -18 -43 -15 -2 2 10 29 27 61 18 31 30 58 27 61 -9 10 -57 -48 -78 -93 -22 -51 -29 -49 -46 11 -9 33 -66 123 -97 153 -3 4 -3 -14 1 -38z" id="95"/>
<path d="M5586 3030 c26 -33 53 -65 59 -70 8 -7 130 -13 309 -17 l296 -6 0 76 0 77 -65 0 c-35 0 -76 -6 -91 -12 -22 -10 -28 -10 -32 0 -3 9 -66 12 -263 12 l-260 0 47 -60z" id="96"/>
<path d="M6325 3057 c-4 -18 -5 -51 -3 -72 l3 -40 98 -3 c53 -1 97 0 97 4 0 3 -27 37 -61 75 -53 59 -66 69 -95 69 -30 0 -34 -3 -39 -33z" id="97"/>
<path d="M6630 3075 c0 -2 25 -32 56 -67 52 -58 58 -62 94 -59 23 1 58 -6 86 -18 26 -12 49 -20 51 -18 2 2 -3 30 -12 63 -8 32 -15 66 -15 75 0 9 -7 20 -16 23 -18 7 -244 8 -244 1z" id="98"/>
<path d="M3766 3013 l57 -58 151 -5 151 -5 -4 -104 c-2 -57 0 -102 5 -99 5 2 28 13 51 24 24 10 46 28 49 39 9 30 55 76 91 91 67 29 208 9 267 -37 l27 -21 -3 78 -3 79 -420 37 c-231 20 -432 37 -448 37 -27 1 -26 -1 29 -56z" id="99"/>
<path d="M7143 3012 c-13 -22 -23 -42 -23 -45 0 -3 26 -3 58 0 46 4 65 0 101 -19 50 -26 87 -69 78 -91 -5 -13 -11 -13 -44 -1 -21 7 -63 13 -93 14 -54 0 -54 0 -35 -19 16 -16 38 -20 113 -23 l93 -3 20 45 c11 25 36 62 56 82 20 21 35 39 32 41 -47 37 -80 46 -204 52 l-130 8 -22 -41z" id="100"/>
<path d="M875 3005 l-230 -23 -31 -39 c-17 -21 -75 -102 -127 -181 -85 -127 -93 -141 -69 -135 35 10 101 10 130 0 19 -7 22 -5 22 15 0 13 11 46 24 73 59 125 213 202 321 161 53 -21 82 -54 96 -113 l11 -43 27 19 c39 28 97 43 146 39 l43 -3 6 46 c3 25 20 67 36 92 l30 47 -40 -6 c-42 -7 -157 12 -166 28 -3 4 14 17 38 28 l43 20 -40 -2 c-22 0 -143 -11 -270 -23z" id="101"/>
<path d="M3450 2898 c0 -35 -3 -80 -6 -100 -6 -33 -4 -38 12 -38 17 0 19 9 19 100 0 75 -3 100 -12 100 -9 0 -13 -18 -13 -62z" id="102"/>
<path d="M3500 2859 l0 -104 30 -17 c25 -14 63 -61 73 -92 1 -4 18 1 37 13 44 26 100 27 132 2 l24 -19 28 35 c52 64 142 81 223 42 24 -12 46 -20 48 -18 1 2 5 54 7 114 l3 110 -139 3 c-103 2 -141 -1 -147 -10 -6 -10 -20 -10 -66 1 -119 27 -115 27 -106 -5 12 -44 10 -117 -4 -121 -7 -3 -40 33 -74 79 -33 46 -63 85 -65 87 -2 2 -4 -43 -4 -100z" id="103"/>
<path d="M3392 2917 c-19 -20 -22 -35 -22 -101 0 -76 1 -77 23 -70 12 3 22 7 23 8 6 7 12 186 6 186 -5 0 -18 -10 -30 -23z" id="104"/>
<path d="M5680 2923 c0 -6 23 -39 51 -74 l51 -64 131 -6 c73 -4 178 -7 235 -8 l102 -1 0 75 0 75 -239 0 c-131 0 -259 3 -285 6 -28 4 -46 3 -46 -3z" id="105"/>
<path d="M6327 2913 c-9 -9 -9 -115 1 -129 6 -11 342 -26 342 -16 0 2 -28 37 -61 78 l-62 74 -107 0 c-59 0 -110 -3 -113 -7z" id="106"/>
<path d="M7510 2865 l-44 -45 35 0 c33 0 36 3 46 42 6 24 10 44 9 45 -1 2 -22 -18 -46 -42z" id="107"/>
<path d="M7664 2860 c8 -53 8 -52 40 -48 l26 3 -36 45 -37 45 7 -45z" id="108"/>
<path d="M1360 2850 c-19 -20 -51 -48 -70 -62 l-34 -27 19 -21 c15 -16 20 -37 20 -76 0 -44 3 -53 15 -48 8 3 31 8 51 11 33 5 37 9 43 42 8 51 7 194 -2 206 -4 6 -21 -4 -42 -25z" id="109"/>
<path d="M4344 2870 c-44 -14 -84 -57 -84 -91 0 -23 -5 -29 -21 -29 -30 0 -59 -17 -107 -63 -31 -31 -46 -39 -56 -32 -59 44 -72 49 -116 49 -55 0 -94 -22 -118 -66 -37 -67 -38 -67 -72 -25 -38 45 -69 48 -122 12 -20 -14 -42 -25 -47 -25 -6 0 -19 17 -30 38 -32 62 -66 87 -116 86 -41 -1 -67 -13 -140 -68 -8 -6 -22 -2 -40 12 -21 17 -41 22 -84 22 -74 0 -113 -24 -129 -78 -7 -23 -22 -47 -33 -53 -18 -9 -25 -6 -48 22 -25 29 -31 32 -67 26 -81 -13 -79 -13 -75 8 12 70 11 115 -3 148 -62 149 -314 53 -304 -116 3 -43 1 -47 -19 -47 -14 0 -24 8 -28 23 -9 29 -43 65 -77 83 -63 33 -218 0 -234 -49 -6 -18 -10 -14 -29 30 -26 58 -47 73 -102 73 -53 -1 -114 -31 -162 -80 l-40 -41 -15 29 c-8 16 -29 41 -46 56 -42 35 -123 36 -195 2 -52 -24 -105 -76 -105 -103 0 -12 28 -105 36 -121 1 -2 21 6 45 18 34 18 55 21 106 18 72 -5 107 -25 138 -81 17 -31 23 -35 45 -29 14 4 47 7 73 7 40 0 53 -5 72 -27 13 -15 24 -31 26 -37 3 -7 23 -5 58 5 100 30 191 10 283 -61 l42 -32 48 30 c100 62 214 47 308 -40 32 -29 65 -53 74 -53 9 0 35 9 58 21 48 25 127 22 156 -5 24 -21 42 -21 42 1 0 9 13 44 30 78 28 58 33 62 83 78 122 38 243 12 295 -64 20 -29 23 -43 19 -91 l-5 -57 57 6 c68 7 93 -4 111 -47 14 -34 12 -34 79 -19 49 10 50 11 100 99 109 189 246 249 417 185 85 -32 105 -32 132 4 27 37 98 71 147 71 31 0 45 -7 76 -40 21 -22 41 -40 44 -40 4 0 21 11 40 25 40 31 94 42 125 25 12 -6 31 -32 41 -56 19 -43 21 -44 64 -44 44 0 45 1 45 33 1 51 17 108 40 139 21 28 21 30 3 44 -38 29 -90 38 -145 25 -30 -6 -55 -8 -60 -3 -5 5 0 27 12 50 26 50 20 76 -23 103 -38 23 -120 25 -157 4 -34 -19 -50 -19 -50 3 0 34 -40 83 -84 102 -52 23 -140 33 -182 20z" id="110"/>
<path d="M1530 2802 c0 -34 2 -62 3 -62 2 0 18 7 36 16 32 16 32 16 13 38 -10 11 -26 32 -35 46 -17 24 -17 23 -17 -38z" id="111"/>
<path d="M7624 2834 c-10 -38 -11 -510 -2 -520 4 -4 15 -1 24 7 14 12 15 40 9 269 -7 244 -15 307 -31 244z" id="112"/>
<path d="M779 2836 c-88 -31 -152 -105 -171 -199 -14 -66 -26 -77 -60 -53 -30 21 -94 20 -145 -3 -44 -20 -63 -44 -60 -76 2 -18 -4 -20 -58 -17 -76 3 -166 33 -233 77 l-52 34 0 -260 c0 -300 -12 -275 119 -234 76 24 130 58 233 146 61 52 113 45 236 -32 l32 -21 63 65 c47 49 72 67 99 72 52 10 94 -2 134 -37 l35 -31 37 36 c54 53 155 97 220 97 45 0 58 -4 82 -28 27 -27 60 -113 60 -155 0 -10 3 -17 8 -15 60 31 95 41 147 41 73 1 105 -14 105 -49 0 -24 2 -25 58 -23 96 2 152 -33 152 -97 l0 -35 688 4 c538 3 719 8 837 20 209 23 315 38 315 46 0 4 -7 17 -16 29 -17 25 -40 27 -113 10 -65 -15 -77 -5 -56 45 23 56 19 92 -15 130 -34 40 -85 57 -166 57 -94 0 -149 -53 -179 -173 -4 -15 -11 -29 -16 -32 -4 -3 -28 9 -53 27 -54 38 -93 40 -154 9 -61 -31 -86 -27 -122 18 -17 21 -54 51 -82 66 -43 24 -58 27 -118 23 -58 -3 -77 -9 -115 -36 -25 -18 -48 -32 -51 -32 -3 0 -24 16 -47 35 -90 77 -193 98 -296 61 -58 -21 -59 -21 -75 18 -18 42 -51 51 -122 33 -56 -15 -74 -12 -74 9 0 31 -33 76 -65 90 -66 27 -145 14 -208 -36 -15 -12 -31 -19 -35 -15 -4 3 -9 32 -12 62 -4 46 -10 60 -32 76 -34 25 -101 17 -154 -19 -45 -31 -63 -20 -40 24 24 46 21 114 -5 138 -41 37 -151 12 -203 -45 -11 -12 -27 -21 -38 -21 -15 0 -18 8 -18 46 0 118 -84 172 -201 130z" id="113"/>
<path d="M1425 2723 c0 -102 12 -128 33 -70 17 47 15 104 -5 138 -10 16 -20 29 -23 29 -3 0 -5 -44 -5 -97z" id="114"/>
<path d="M7234 2755 l10 -44 80 -3 80 -3 23 -75 c39 -126 26 -139 -17 -17 l-25 72 -72 3 c-60 2 -73 0 -73 -13 0 -30 -30 -14 -71 38 l-42 52 8 -52 c6 -44 4 -54 -9 -59 -10 -4 -23 3 -36 17 l-19 24 -1 -60 c0 -67 11 -85 49 -85 34 0 107 -37 130 -66 l19 -25 37 25 c49 33 96 41 151 26 53 -15 89 -41 115 -84 l19 -31 0 143 0 142 -31 0 c-17 0 -28 4 -24 10 3 6 19 10 36 10 27 0 29 2 29 42 l0 41 -23 -21 c-31 -29 -47 -28 -47 3 0 23 -4 25 -45 25 -25 0 -54 -5 -64 -12 -15 -9 -22 -8 -36 5 -12 13 -34 17 -89 17 l-72 0 10 -45z" id="115"/>
<path d="M7672 2739 l3 -44 112 -3 112 -3 15 -52 c26 -91 29 -107 18 -107 -6 0 -18 26 -27 58 -9 31 -18 63 -20 70 -3 8 -35 12 -111 12 l-107 0 6 -82 c4 -46 7 -118 7 -162 0 -71 2 -77 18 -71 77 34 104 38 159 25 31 -6 89 -29 130 -50 l73 -38 15 28 c15 28 101 110 116 110 20 0 4 27 -102 173 -123 169 -119 166 -244 166 -33 0 -86 3 -118 7 l-58 7 3 -44z" id="116"/>
<path d="M5810 2753 c0 -5 11 -20 25 -33 21 -20 34 -23 75 -21 55 3 132 -27 153 -59 8 -14 19 -17 44 -13 21 4 41 0 58 -11 15 -10 38 -16 53 -14 26 3 27 5 30 76 l3 72 -108 0 c-59 0 -159 3 -220 7 -72 4 -113 2 -113 -4z" id="117"/>
<path d="M7020 2651 c0 -93 2 -111 15 -111 13 0 15 16 13 107 -2 74 -7 108 -15 111 -10 3 -13 -23 -13 -107z" id="118"/>
<path d="M6326 2720 c-3 -18 -6 -52 -6 -76 l0 -44 245 0 c280 0 264 -8 178 88 l-48 53 -181 6 -181 5 -7 -32z" id="119"/>
<path d="M5575 2668 c-11 -6 -42 -31 -69 -55 -29 -26 -67 -49 -93 -56 -34 -9 -42 -15 -36 -27 4 -8 8 -47 8 -85 l0 -70 55 0 c96 -1 190 -39 190 -79 0 -7 -9 -22 -20 -34 -27 -29 -26 -32 19 -32 53 0 98 -18 104 -41 11 -43 143 12 190 79 18 25 48 62 68 84 32 33 42 38 83 38 63 0 112 -22 167 -77 l47 -45 56 21 c62 23 166 28 213 10 15 -5 44 -21 63 -34 31 -21 41 -23 70 -15 19 5 43 7 52 4 16 -5 18 2 18 51 0 74 -11 92 -73 121 -63 29 -106 30 -140 4 -34 -27 -41 -25 -56 15 -31 87 -172 115 -251 49 -36 -31 -45 -26 -54 25 -8 53 -55 89 -92 72 -22 -10 -29 -7 -62 28 -60 63 -151 68 -216 11 -41 -37 -56 -37 -87 -4 -47 50 -109 67 -154 42z" id="120"/>
<path d="M6901 2629 c-36 -43 -37 -41 17 -101 24 -26 26 -26 53 -12 24 12 29 21 29 51 0 34 -40 104 -58 102 -4 0 -22 -18 -41 -40z" id="121"/>
<path d="M6568 2583 c-154 -2 -248 -7 -248 -13 0 -6 18 -10 40 -10 51 0 111 -30 143 -71 21 -27 27 -30 45 -20 52 28 176 -7 219 -63 12 -14 25 -26 31 -26 13 0 112 89 112 102 0 12 -81 109 -89 106 -3 -2 -117 -4 -253 -5z" id="122"/>
<path d="M5148 2570 c-87 -26 -128 -85 -128 -185 0 -29 -3 -56 -8 -59 -4 -2 -36 -6 -72 -7 l-64 -3 -10 37 c-25 84 -68 97 -140 42 -26 -19 -50 -35 -55 -35 -5 0 -25 20 -45 45 -32 38 -43 45 -73 45 -45 0 -97 -25 -126 -60 -36 -42 -58 -44 -134 -13 -127 52 -242 35 -331 -50 -34 -32 -128 -174 -120 -182 2 -2 55 9 118 25 236 59 279 65 515 64 141 0 308 -8 465 -22 262 -23 730 -45 755 -36 41 16 -1 34 -82 34 -28 0 -55 5 -58 11 -4 6 7 24 24 41 29 28 30 32 16 48 -25 28 -98 43 -176 38 -68 -5 -70 -5 -65 16 28 95 9 165 -54 198 -36 19 -104 23 -152 8z" id="123"/>
<path d="M7012 2501 c-34 -12 -71 -35 -100 -64 -26 -25 -62 -54 -81 -65 -33 -20 -34 -24 -38 -86 l-3 -65 49 24 c65 33 143 48 179 34 38 -15 70 -47 77 -79 5 -22 10 -26 31 -22 36 7 109 -24 122 -52 12 -27 50 -36 153 -36 77 0 136 16 250 69 113 52 186 68 239 52 27 -8 45 -21 52 -37 6 -13 15 -24 19 -24 5 0 42 11 83 25 90 30 129 31 178 5 37 -19 37 -19 94 0 62 22 134 26 165 10 18 -10 19 -6 19 110 l0 120 -27 12 c-40 17 -160 13 -212 -6 -61 -22 -124 -73 -157 -123 -15 -24 -33 -43 -40 -43 -7 0 -45 18 -86 39 -136 74 -197 74 -305 1 -32 -21 -61 -36 -64 -32 -3 4 -14 30 -24 57 -36 98 -80 144 -152 159 -44 10 -108 -10 -131 -39 -11 -14 -24 -25 -29 -25 -5 0 -25 16 -44 36 -65 68 -119 79 -217 45z" id="124"/>
<path d="M1155 2366 c-70 -22 -122 -54 -163 -101 -22 -25 -44 -45 -49 -45 -5 0 -15 11 -21 25 -6 14 -26 34 -44 45 -64 39 -124 19 -192 -64 -53 -64 -66 -65 -139 -17 -72 47 -115 58 -148 41 -12 -7 -51 -37 -86 -66 -34 -29 -75 -60 -90 -67 -43 -22 -162 -57 -194 -57 -16 0 -29 -4 -29 -8 0 -12 1337 -25 1589 -16 183 6 201 9 206 25 19 57 -35 89 -150 89 -41 0 -75 3 -75 6 0 3 5 14 10 25 26 47 -116 51 -196 4 l-44 -26 -9 23 c-4 13 -11 43 -15 68 -8 57 -38 108 -72 120 -31 12 -39 12 -89 -4z" id="125"/>
<path d="M6018 2350 c-14 -11 -41 -43 -59 -71 -18 -29 -52 -64 -77 -80 l-44 -28 34 -5 c18 -2 141 -9 273 -16 132 -6 355 -17 495 -24 513 -29 591 -30 584 -13 -8 22 -69 40 -109 33 -33 -6 -34 -5 -41 28 -17 93 -101 113 -219 51 -53 -27 -71 -32 -86 -24 -10 5 -19 15 -19 21 0 7 -18 8 -53 4 -49 -6 -59 -4 -105 25 -73 45 -123 48 -228 14 l-84 -27 -53 54 c-73 75 -158 99 -209 58z" id="126"/>
<path d="M4295 2204 c-90 -9 -181 -27 -395 -79 -437 -104 -589 -113 -1985 -117 -610 -2 -1291 1 -1513 6 l-402 8 0 -521 0 -522 33 5 c152 25 185 26 254 5 110 -34 159 -64 206 -124 31 -41 52 -58 79 -65 45 -13 51 -21 39 -54 -19 -49 -102 -69 -336 -81 -60 -3 -147 -8 -192 -11 l-83 -6 0 -324 0 -324 2480 0 c1364 0 2480 2 2480 5 0 2 -14 12 -31 21 -42 21 -117 92 -135 125 -18 36 -18 92 0 127 51 96 237 215 541 347 155 67 237 109 259 134 17 18 18 24 6 45 -27 52 -153 122 -321 181 -215 75 -448 131 -959 230 -547 106 -694 156 -676 228 18 73 415 200 866 276 516 87 974 123 1617 125 232 0 416 4 410 7 -22 12 -271 39 -592 64 -422 33 -466 38 -448 56 14 14 604 39 1088 46 410 5 786 -3 1215 -27 267 -16 631 -40 668 -44 30 -4 32 -3 32 24 0 26 -4 29 -42 34 -79 11 -729 45 -1148 61 -283 11 -591 25 -950 45 -195 11 -542 27 -770 35 -228 9 -518 25 -645 36 -222 19 -567 31 -650 23z m-3302 -535 l49 -59 61 -1 c84 -1 96 -7 121 -65 38 -92 78 -144 132 -174 70 -40 78 -52 112 -160 l30 -95 54 -6 c64 -7 115 -32 129 -62 10 -21 14 -22 129 -19 l120 4 27 -29 c16 -16 50 -60 78 -98 69 -97 104 -135 124 -135 9 0 47 41 86 91 l70 91 60 -7 c74 -8 97 -22 131 -80 16 -29 41 -53 65 -66 85 -43 32 -68 -162 -76 -127 -5 -135 -7 -135 -26 1 -14 -8 -23 -29 -29 -16 -6 -163 -12 -325 -15 -335 -6 -383 0 -478 63 -72 48 -67 62 32 88 l79 21 33 60 c18 32 32 61 30 62 -2 2 -23 -8 -47 -21 -60 -34 -203 -90 -264 -105 -46 -11 -56 -10 -116 13 -36 14 -115 32 -175 41 -278 40 -542 88 -574 103 -49 24 -51 53 -6 87 31 24 36 33 36 70 0 60 26 196 56 289 42 131 97 226 151 261 30 20 146 43 218 44 49 0 51 -1 98 -60z" id="127"/>
<path d="M820 1703 c-66 -7 -66 -14 -1 -38 35 -13 68 -29 72 -37 5 -7 9 -38 9 -69 0 -42 5 -60 19 -73 10 -9 70 -27 136 -41 172 -36 244 -86 350 -240 33 -48 61 -81 63 -73 1 8 -10 50 -26 94 -26 72 -33 82 -78 111 -73 47 -100 78 -142 163 -41 85 -49 90 -149 90 -40 0 -45 4 -90 59 -52 64 -56 66 -163 54z" id="128"/>
<path d="M662 1640 c-67 -70 -119 -197 -153 -373 -10 -54 -19 -124 -19 -157 0 -71 -22 -63 231 -86 211 -19 551 -16 681 6 62 11 75 16 70 29 -7 21 -138 209 -165 238 -11 13 -48 41 -82 63 -50 33 -81 44 -161 59 -164 32 -185 47 -189 134 -1 29 -4 58 -8 64 -4 6 -38 21 -75 34 -37 12 -72 24 -78 26 -7 2 -30 -14 -52 -37z" id="129"/>
<path d="M1511 1061 c6 -18 9 -34 7 -37 -3 -2 -61 -12 -129 -21 -181 -24 -504 -21 -732 6 -98 11 -180 21 -182 21 -3 0 -5 7 -5 15 0 19 -9 19 -34 0 -23 -18 -15 -42 19 -55 27 -10 299 -56 539 -91 76 -11 161 -29 190 -39 67 -26 97 -25 186 5 154 52 290 132 290 170 0 20 -52 45 -111 52 l-49 6 11 -32z" id="130"/>
<path d="M1670 968 c-23 -24 -52 -63 -65 -88 -14 -25 -34 -60 -46 -77 l-21 -33 59 0 c32 0 113 -7 178 -15 66 -8 137 -15 157 -15 l37 0 -35 78 c-71 161 -101 192 -180 192 -38 0 -49 -5 -84 -42z" id="131"/>
<path d="M1874 977 c17 -19 44 -65 59 -103 15 -38 36 -84 47 -101 17 -29 25 -33 62 -32 24 0 52 4 62 8 18 7 18 8 3 14 -9 3 -17 11 -17 18 0 17 -148 216 -166 223 -9 3 -30 6 -48 6 l-33 0 31 -33z" id="132"/>
<path d="M2312 917 c-10 -12 -2 -16 50 -27 52 -10 68 -18 98 -51 20 -22 39 -37 43 -33 10 10 -31 82 -56 98 -35 22 -121 30 -135 13z" id="133"/>
<path d="M2256 846 c-14 -19 -26 -37 -26 -39 0 -8 176 -16 203 -9 l28 7 -20 26 c-12 16 -38 31 -65 38 -73 18 -91 14 -120 -23z" id="134"/>
<path d="M1467 782 c-54 -14 -57 -15 -42 -32 9 -10 43 -30 75 -44 81 -36 185 -44 470 -35 303 9 340 18 244 59 -53 23 -71 25 -76 8 -7 -20 -224 -22 -374 -4 -72 9 -160 16 -197 16 -70 0 -79 4 -50 26 28 20 13 22 -50 6z" id="135"/>
<path d="M2485 783 c-36 -10 -83 -12 -170 -8 -116 6 -119 6 -102 -12 16 -16 36 -18 180 -18 97 1 170 5 181 12 18 10 18 12 -10 25 -25 12 -36 12 -79 1z" id="136"/>
<path d="M7700 2154 c-47 -19 -97 -40 -112 -46 -16 -5 -28 -13 -28 -17 0 -5 78 -11 173 -15 207 -8 653 -33 720 -41 l47 -6 0 55 c0 45 -4 58 -22 70 -31 22 -82 20 -155 -5 l-61 -20 -41 20 c-52 27 -76 26 -167 -4 -97 -33 -122 -32 -130 0 -14 57 -100 61 -224 9z" id="137"/>
<path d="M6345 1990 c-384 -9 -756 -22 -752 -26 1 -2 140 -12 307 -24 362 -24 465 -34 625 -60 139 -23 195 -37 195 -50 0 -14 -31 -18 -200 -25 -446 -17 -1008 -69 -1350 -125 -424 -70 -834 -187 -890 -254 -13 -16 -12 -20 8 -36 52 -43 254 -93 757 -190 670 -128 1050 -249 1159 -370 79 -88 46 -122 -235 -246 -228 -100 -288 -131 -396 -203 -129 -87 -171 -141 -158 -208 7 -38 71 -105 140 -144 l50 -29 1448 0 1447 0 0 960 0 960 -25 0 c-14 0 -159 9 -323 20 -163 10 -391 24 -507 30 -200 10 -933 31 -985 28 -14 -1 -155 -5 -315 -8z" id="138"/>
<path d="M5745 1813 c-488 -15 -1114 -89 -1517 -179 -255 -56 -512 -145 -548 -188 -13 -16 -12 -20 8 -36 52 -43 254 -93 757 -190 670 -128 1050 -249 1159 -370 79 -88 46 -122 -235 -246 -228 -100 -288 -131 -396 -203 -130 -87 -171 -141 -158 -208 8 -43 81 -113 165 -157 l68 -36 243 0 c230 0 242 1 219 16 -41 28 -101 87 -116 116 -18 35 -18 91 0 126 51 96 237 215 541 347 155 67 237 109 259 134 17 18 18 24 6 45 -27 52 -153 122 -321 181 -215 75 -448 131 -959 230 -547 106 -694 156 -676 228 5 21 23 35 89 66 304 145 979 270 1737 320 l125 8 -180 0 c-99 -1 -220 -2 -270 -4z" id="139"/>
<path d="M175 980 c-11 -5 -38 -9 -60 -9 -22 -1 -57 -4 -78 -7 l-37 -7 0 -88 c0 -87 0 -87 27 -93 16 -3 102 -7 193 -8 134 -2 176 1 223 15 31 10 57 23 57 29 0 7 -24 35 -53 63 -41 40 -70 57 -127 78 -94 32 -120 37 -145 27z" id="140"/>
<path d="M470 767 c-50 -20 -73 -22 -262 -21 l-208 0 0 -36 0 -37 102 4 c178 6 393 23 430 33 41 12 76 46 62 60 -19 19 -70 18 -124 -3z" id="141"/>
</g>
</svg>