<?xml version="1.0" ?><!DOCTYPE svg  PUBLIC '-//W3C//DTD SVG 20010904//EN'  'http://www.w3.org/TR/2001/REC-SVG-20010904/DTD/svg10.dtd'><svg height="850.000000pt" preserveAspectRatio="xMidYMid meet" version="1.0" viewBox="0 0 850.000000 850.000000" width="850.000000pt" xmlns="http://www.w3.org/2000/svg">
<metadata>
Created by potrace 1.14, written by Peter Selinger 2001-2017
</metadata>
<g fill="#ffffff" stroke="none" transform="translate(0.000000,850.000000) scale(0.100000,-0.100000)">
<path d="M0 6999 c0 -1424 1 -1500 18 -1495 9 2 31 7 48 11 31 6 31 7 37 78 7 77 37 190 60 221 12 17 15 13 36 -43 39 -106 121 -192 215 -224 l45 -15 39 71 c48 86 140 218 190 270 52 54 72 50 107 -23 16 -33 30 -60 32 -60 1 0 26 18 55 40 101 76 253 133 272 102 4 -6 -1 -37 -10 -69 -38 -130 7 -261 134 -395 100 -104 105 -107 146 -70 18 16 59 40 91 53 55 23 59 27 119 129 74 125 205 366 272 502 l48 98 -22 16 c-63 44 -112 123 -131 212 -15 70 -14 112 4 197 38 182 173 348 359 443 l60 30 -45 12 c-67 18 -130 54 -173 99 l-40 41 46 20 c26 11 60 23 77 26 17 4 31 8 31 10 0 1 -10 19 -21 39 -20 33 -21 38 -6 53 9 8 36 18 59 21 l43 6 5 54 c9 85 67 107 145 54 29 -20 40 -23 43 -13 7 19 49 60 61 60 6 0 18 -11 27 -25 l16 -25 35 31 c65 56 106 19 107 -98 1 -35 3 -63 6 -63 3 1 21 21 40 46 50 64 207 213 319 303 365 290 848 503 1329 586 120 20 546 55 683 55 532 0 1009 -199 1256 -524 80 -106 143 -262 143 -354 l0 -39 113 -5 c91 -4 128 -10 200 -35 242 -85 469 -298 602 -568 96 -193 134 -389 106 -549 l-12 -67 47 -72 c169 -256 255 -592 241 -942 -8 -206 -34 -311 -148 -608 -79 -207 -94 -271 -84 -380 21 -245 152 -419 371 -493 187 -63 439 -10 499 105 22 43 19 59 -16 93 l-30 31 -97 -9 c-159 -14 -221 -10 -283 18 -104 48 -145 109 -180 270 -11 51 -29 110 -40 132 l-20 38 25 -6 c14 -3 115 -20 224 -36 266 -40 330 -64 411 -156 55 -63 82 -139 88 -250 11 -180 -42 -331 -158 -458 -116 -126 -243 -187 -391 -187 -43 0 -78 -2 -78 -4 0 -1 28 -18 63 -35 159 -83 245 -165 307 -294 64 -133 81 -221 87 -446 6 -216 -5 -344 -58 -675 -80 -501 -128 -689 -229 -903 -63 -132 -113 -206 -244 -364 -183 -221 -274 -353 -360 -525 l-36 -73 585 0 585 0 0 4250 0 4250 -4250 0 -4250 0 0 -1501z" id="1"/>
<path d="M5095 8321 c264 -48 470 -127 660 -254 96 -64 234 -210 278 -294 44 -84 77 -204 77 -278 0 -50 1 -52 47 -82 l46 -30 51 23 c28 12 68 26 89 30 21 3 41 13 44 20 8 21 -23 137 -57 211 -174 383 -642 639 -1220 667 l-115 5 100 -18z" id="2"/>
<path d="M4575 8313 c-382 -31 -737 -132 -1095 -314 -380 -192 -652 -418 -897 -744 -33 -44 -63 -85 -66 -91 -5 -8 15 -11 71 -10 42 0 113 -2 157 -6 l80 -8 60 82 c92 127 273 303 390 380 123 81 431 239 580 297 239 93 446 139 666 148 299 12 555 -57 774 -208 92 -63 229 -205 281 -290 43 -72 104 -206 104 -231 0 -33 21 -29 63 15 73 74 218 127 313 112 52 -7 52 -8 29 111 -75 390 -546 698 -1155 753 -107 10 -262 12 -355 4z" id="3"/>
<path d="M4320 8010 c-130 -22 -242 -51 -357 -91 -105 -37 -325 -130 -320 -135 2 -2 39 5 83 15 132 33 249 44 404 38 256 -9 456 -71 665 -208 103 -66 259 -223 313 -314 59 -99 108 -218 125 -300 l14 -70 64 -3 c35 -1 70 2 77 6 7 5 17 34 22 65 12 77 40 137 85 182 39 38 125 85 159 85 26 0 17 39 -33 145 -122 261 -332 446 -612 539 -57 19 -144 42 -193 51 -121 21 -360 19 -496 -5z" id="4"/>
<path d="M3925 7804 c-376 -53 -595 -157 -835 -394 -91 -91 -230 -258 -230 -277 0 -5 26 -17 58 -27 88 -28 175 -72 257 -131 l76 -55 47 34 c154 110 338 166 543 166 207 0 362 -55 544 -191 l49 -38 24 42 c33 60 89 115 147 145 42 22 63 26 131 27 71 0 85 -3 122 -28 55 -36 53 -49 -2 -29 -38 14 -54 15 -102 4 -109 -22 -181 -97 -205 -211 l-11 -56 36 -31 c46 -40 144 -88 221 -109 33 -9 111 -19 174 -22 109 -6 114 -5 106 13 -22 54 -35 112 -35 157 0 32 -8 67 -22 96 -18 37 -23 63 -23 136 0 98 10 165 25 165 6 0 10 -19 10 -43 0 -77 81 -173 163 -192 25 -7 27 -5 27 22 0 74 -65 223 -152 350 -59 85 -197 221 -287 282 -98 67 -240 130 -369 163 -104 27 -136 30 -287 33 -93 2 -183 1 -200 -1z" id="5"/>
<path d="M2535 7519 c-66 -59 -91 -132 -69 -206 8 -25 14 -67 14 -92 l1 -46 24 30 c14 17 43 57 65 89 38 57 40 63 40 138 0 77 -11 118 -30 118 -5 0 -25 -14 -45 -31z" id="6"/>
<path d="M2421 7514 c-26 -32 -26 -52 -3 -82 l19 -24 16 44 c21 53 21 62 3 77 -11 9 -18 6 -35 -15z" id="7"/>
<path d="M2229 7498 c-7 -13 -10 -49 -7 -93 6 -91 41 -169 103 -230 43 -42 50 -45 84 -39 20 4 40 9 45 12 15 9 -1 155 -24 216 -31 82 -105 156 -154 156 -26 0 -38 -6 -47 -22z" id="8"/>
<path d="M5937 7419 c-90 -21 -179 -88 -220 -164 -18 -32 -22 -57 -22 -130 0 -79 3 -97 28 -145 44 -85 69 -94 60 -22 -6 52 10 123 31 141 11 10 21 6 49 -18 35 -31 47 -31 47 -1 0 9 14 44 31 78 34 68 122 156 189 188 22 10 38 24 37 29 -10 34 -156 62 -230 44z" id="9"/>
<path d="M6330 7399 c-174 -45 -323 -148 -379 -261 -35 -69 -38 -94 -15 -126 19 -28 30 -28 38 1 6 25 73 97 89 97 6 0 26 18 46 39 47 50 105 67 281 81 96 7 145 16 173 29 l39 19 -6 -21 c-4 -12 -9 -40 -12 -63 l-6 -41 98 -6 c222 -14 394 -87 542 -231 34 -33 62 -56 62 -52 0 24 -137 210 -205 279 -231 232 -493 322 -745 256z" id="10"/>
<path d="M2123 7373 c-36 -14 10 -76 67 -91 31 -8 40 -7 36 1 -3 7 -10 31 -17 55 -10 38 -14 42 -43 41 -17 0 -37 -3 -43 -6z" id="11"/>
<path d="M5636 7254 c-126 -33 -202 -141 -200 -284 2 -113 49 -197 136 -241 36 -19 41 -19 101 -4 96 24 96 24 52 48 -42 24 -108 102 -102 121 2 6 27 15 55 19 l52 9 -20 25 c-25 32 -50 114 -50 163 0 20 7 62 15 94 9 33 14 60 13 60 -2 1 -25 -4 -52 -10z" id="12"/>
<path d="M2047 7246 c-51 -19 -53 -22 -31 -47 30 -34 101 -71 172 -90 60 -17 68 -17 113 -3 27 9 49 17 49 18 0 0 -27 30 -61 66 l-60 65 -72 2 c-44 2 -87 -2 -110 -11z" id="13"/>
<path d="M6296 7199 c-127 -14 -193 -52 -180 -103 8 -32 17 -33 37 -3 23 35 104 74 192 92 44 9 81 18 84 21 6 6 -50 3 -133 -7z" id="14"/>
<path d="M6470 7198 c-14 -6 -65 -19 -114 -29 -96 -21 -160 -52 -197 -97 -20 -23 -24 -37 -21 -79 4 -50 4 -52 29 -42 13 5 43 9 66 9 41 0 43 2 70 54 36 69 85 119 145 151 26 13 54 29 62 34 13 10 13 11 0 10 -8 0 -26 -5 -40 -11z" id="15"/>
<path d="M6525 7190 c-4 -6 -26 -20 -50 -30 -58 -25 -109 -72 -145 -135 -34 -60 -37 -75 -14 -75 26 0 10 -54 -31 -110 l-35 -48 35 -31 c20 -17 40 -31 45 -31 11 0 52 53 76 100 22 43 135 363 130 368 -2 2 -7 -2 -11 -8z" id="16"/>
<path d="M6531 7103 c-47 -132 -115 -297 -136 -327 l-25 -36 28 7 c15 4 51 7 79 7 52 1 53 2 70 41 14 33 17 66 16 178 -3 154 -11 189 -32 130z" id="17"/>
<path d="M2406 7110 c-51 -11 -126 -37 -174 -60 -218 -104 -348 -246 -401 -440 -37 -131 -25 -215 47 -323 48 -72 71 -84 33 -17 -45 80 -38 234 14 326 52 90 176 170 325 211 91 25 328 25 420 0 92 -26 197 -80 258 -133 30 -26 57 -43 61 -38 4 5 28 36 53 69 25 33 78 92 117 131 l71 70 -105 63 c-240 145 -478 192 -719 141z" id="18"/>
<path d="M6587 7009 c5 -118 -2 -173 -33 -245 -2 -6 15 -16 38 -23 24 -7 52 -19 63 -26 12 -7 70 -29 130 -49 216 -72 383 -173 526 -317 l86 -87 6 57 c12 113 -26 338 -72 428 -52 102 -178 223 -300 287 -99 52 -228 87 -348 93 l-101 6 5 -124z" id="19"/>
<path d="M3732 7089 c-234 -30 -465 -155 -607 -326 -126 -152 -215 -315 -405 -738 -195 -434 -296 -613 -456 -812 -72 -89 -231 -248 -280 -279 -30 -20 -31 -34 -3 -34 36 0 5 -25 -94 -77 -106 -56 -180 -121 -288 -253 -88 -108 -118 -141 -173 -188 -21 -18 -37 -35 -35 -37 2 -1 82 -8 178 -15 164 -11 364 -7 390 9 7 5 8 17 1 42 -21 71 -9 273 19 317 7 11 16 9 47 -11 73 -48 159 -71 269 -71 152 0 281 47 405 149 54 44 55 46 60 105 4 51 3 59 -10 54 -50 -21 -148 -54 -162 -54 -10 0 -18 6 -18 14 0 14 30 113 44 147 6 14 -6 21 -61 38 -37 12 -77 28 -88 36 -19 15 -19 16 10 40 17 13 50 34 75 46 l45 22 -29 58 c-39 79 -32 94 40 85 54 -6 55 -6 48 16 -38 119 -43 208 -19 301 48 185 185 321 358 357 32 6 61 9 64 7 3 -3 -23 -20 -58 -37 -171 -87 -289 -300 -258 -468 23 -120 98 -230 191 -276 78 -39 91 -36 116 28 25 65 79 248 121 409 125 475 375 747 686 747 51 0 86 -7 130 -25 72 -30 65 -29 65 -7 0 9 14 48 30 85 l29 68 -31 44 c-64 90 -46 180 53 269 55 50 89 63 47 19 -53 -55 -58 -115 -17 -194 40 -80 145 -130 238 -114 l38 6 -14 62 c-14 58 -13 139 3 201 5 20 -4 29 -63 69 -218 144 -411 195 -631 166z" id="20"/>
<path d="M6050 7078 c-20 -14 -45 -45 -60 -75 -14 -29 -28 -52 -31 -52 -3 -1 -12 11 -19 25 -16 29 -108 109 -116 101 -23 -23 -24 -127 -2 -171 10 -18 7 -19 -51 -13 -63 7 -121 0 -121 -13 0 -18 55 -72 94 -92 39 -20 46 -21 157 -9 84 9 131 10 173 2 63 -12 140 -43 168 -68 13 -12 24 -14 39 -7 20 9 18 12 -26 48 l-47 39 40 41 c52 54 69 86 51 97 -22 14 -107 10 -146 -6 -19 -8 -36 -15 -37 -15 -1 0 0 16 2 35 5 46 -6 118 -21 139 -12 16 -15 15 -47 -6z" id="21"/>
<path d="M4657 7076 c-94 -34 -173 -117 -202 -210 -8 -27 -15 -84 -15 -126 0 -126 48 -238 137 -321 128 -120 296 -160 434 -104 64 26 229 131 229 146 0 15 -20 10 -50 -11 -16 -12 -55 -33 -87 -48 -53 -24 -69 -27 -174 -27 -113 0 -116 1 -191 38 -91 44 -157 113 -190 197 -18 43 -22 76 -23 155 0 90 3 106 28 157 35 70 92 121 166 147 l56 19 -40 1 c-22 0 -57 -6 -78 -13z" id="22"/>
<path d="M5013 7017 c9 -102 29 -142 110 -219 95 -92 147 -112 287 -113 58 0 119 4 135 8 l30 9 -37 19 c-51 26 -96 84 -115 149 l-17 56 -87 -4 c-137 -7 -233 37 -279 129 -11 21 -23 39 -27 39 -3 0 -3 -33 0 -73z" id="23"/>
<path d="M4091 6808 c-39 -63 -31 -139 21 -202 61 -74 157 -114 294 -125 46 -4 84 -5 84 -4 0 1 -10 22 -21 46 l-22 44 -63 -5 c-153 -12 -257 70 -273 216 -6 49 -7 51 -20 30z" id="24"/>
<path d="M2385 6804 c-106 -15 -73 33 -312 -452 -205 -416 -335 -664 -423 -807 l-40 -65 54 0 c29 0 73 -6 99 -14 l45 -14 90 132 c128 188 234 366 460 772 110 198 209 375 221 396 12 20 18 38 14 41 -12 7 -173 16 -208 11z" id="25"/>
<path d="M5064 6796 c-8 -22 24 -135 51 -181 51 -86 136 -146 238 -167 79 -17 174 -1 377 62 173 54 314 75 356 52 16 -9 29 0 87 58 l69 69 -39 19 c-137 69 -269 69 -503 2 -280 -80 -461 -61 -579 60 -42 44 -49 47 -57 26z" id="26"/>
<path d="M2180 6756 c-127 -53 -203 -114 -248 -201 -24 -44 -27 -61 -27 -151 0 -93 2 -103 28 -142 15 -23 31 -42 35 -42 4 0 68 123 141 273 74 149 137 275 139 280 6 11 -9 8 -68 -17z" id="27"/>
<path d="M2592 6713 c-65 -112 -122 -215 -257 -463 -178 -326 -304 -535 -450 -743 l-48 -68 24 -17 c43 -30 71 -66 102 -132 27 -56 31 -75 30 -145 0 -57 -6 -96 -21 -134 -12 -30 -20 -56 -18 -58 8 -8 186 159 254 238 155 179 279 398 480 850 123 274 171 373 236 483 l45 75 -51 46 c-55 49 -189 119 -250 130 -36 7 -36 7 -76 -62z" id="28"/>
<path d="M4545 6703 c20 -116 123 -242 233 -283 74 -28 195 -30 273 -5 53 17 149 62 149 69 0 2 -21 25 -47 52 l-48 48 -110 2 c-164 2 -351 61 -416 130 -32 34 -41 30 -34 -13z" id="29"/>
<path d="M6345 6709 c-150 -48 -257 -191 -302 -403 -44 -207 54 -366 224 -366 174 0 298 167 264 356 -14 74 -68 185 -122 247 -65 75 -70 76 -124 12 l-47 -54 37 -37 c21 -21 48 -61 62 -90 49 -107 40 -208 -22 -263 -70 -61 -126 -53 -165 24 -93 184 92 504 334 580 l41 13 -60 0 c-33 1 -87 -8 -120 -19z" id="30"/>
<path d="M6478 6691 c-31 -10 -70 -28 -87 -40 l-32 -23 53 -57 c84 -90 148 -231 148 -326 0 -31 2 -32 83 -55 297 -86 453 -279 490 -607 14 -128 0 -314 -42 -553 -75 -426 -91 -522 -101 -619 -20 -206 -9 -348 37 -436 40 -78 110 -180 166 -241 65 -71 261 -218 415 -312 97 -59 133 -75 184 -83 210 -34 422 80 553 297 47 78 45 102 -3 28 -142 -219 -446 -298 -690 -178 -77 38 -178 141 -224 230 -54 103 -71 186 -65 314 7 134 37 251 129 490 161 422 182 515 182 785 0 212 -16 322 -74 496 -70 211 -161 368 -295 508 -191 200 -398 308 -755 396 -8 2 -40 -4 -72 -14z" id="31"/>
<path d="M4101 6501 c-48 -112 -71 -257 -71 -443 0 -101 7 -195 36 -464 l5 -51 42 21 c50 25 187 29 251 7 49 -17 166 -134 195 -196 62 -132 72 -307 32 -526 -24 -125 -24 -127 -5 -165 17 -34 27 -42 83 -61 87 -30 95 -39 98 -120 2 -67 2 -68 -7 -19 -12 68 -36 96 -100 118 -30 10 -66 30 -79 45 -22 25 -23 32 -17 113 3 47 10 110 15 140 5 30 10 112 10 183 1 104 -2 127 -13 127 -8 0 -52 -18 -97 -40 -46 -22 -90 -40 -98 -40 -48 -1 -67 -46 -76 -183 -14 -195 38 -309 265 -572 121 -141 205 -260 321 -455 83 -140 140 -204 214 -240 45 -22 63 -25 165 -25 106 1 121 3 191 32 91 37 179 90 319 191 304 220 460 379 544 557 48 99 70 186 101 394 47 313 85 391 190 391 109 0 197 211 196 474 0 118 -27 225 -64 251 -31 22 -114 45 -199 54 -68 8 -75 7 -102 -16 -36 -30 -100 -63 -122 -63 -12 0 -14 -5 -9 -17 62 -147 57 -287 -16 -441 -40 -83 -149 -199 -227 -240 -67 -36 -165 -62 -234 -62 -68 0 -59 17 10 22 153 11 299 157 361 362 19 63 21 97 3 70 -4 -6 -18 -17 -31 -24 -28 -15 -35 -7 -53 58 -9 32 -16 41 -28 36 -8 -4 -36 -9 -62 -11 -45 -5 -48 -4 -48 19 0 13 8 40 19 61 l18 36 -53 16 c-30 9 -54 21 -54 27 0 6 19 30 43 53 l42 42 -32 30 c-18 17 -33 35 -33 42 0 15 43 31 85 31 l34 0 -20 44 c-11 25 -23 77 -27 117 l-7 72 -104 18 c-103 17 -106 17 -144 -2 -78 -40 -96 -146 -36 -213 23 -27 34 -31 76 -31 33 0 64 9 102 28 29 16 55 26 57 24 2 -2 -9 -22 -26 -45 -104 -143 -341 -92 -358 77 -6 65 21 143 63 186 l34 33 -30 12 c-16 7 -49 27 -72 43 -39 29 -47 31 -117 28 l-74 -3 -97 -78 c-119 -96 -197 -140 -314 -179 -245 -81 -427 -61 -545 58 -60 60 -80 107 -80 182 l1 44 19 -36 c28 -54 100 -114 166 -139 64 -24 187 -30 274 -13 l45 10 -60 12 c-83 18 -188 75 -234 128 l-39 43 -93 4 c-105 4 -202 31 -260 70 l-37 25 -21 -48z m1403 -518 c11 -6 -15 -8 -73 -5 -166 8 -250 -34 -386 -192 -107 -123 -179 -164 -204 -117 -9 16 1 30 68 94 136 130 253 201 376 227 48 11 196 6 219 -7z m1046 -66 c-68 -18 -90 -58 -90 -162 0 -95 10 -114 85 -162 25 -15 47 -34 50 -41 2 -6 -13 -23 -34 -37 -22 -13 -46 -34 -55 -47 -39 -55 -3 -138 60 -138 21 0 33 -4 29 -10 -3 -5 -21 -10 -39 -10 -37 0 -70 29 -87 77 -16 47 17 115 67 141 l37 19 -46 31 c-76 53 -87 73 -87 164 0 44 6 93 14 112 19 46 61 76 105 75 l36 -1 -45 -11z m159 -129 c13 -56 13 -151 1 -188 -5 -17 -8 4 -9 65 -1 83 -6 118 -25 185 -7 24 -6 24 8 6 8 -10 20 -40 25 -68z m-1079 -23 c0 -9 -7 -31 -14 -50 -14 -33 -14 -35 3 -35 10 0 25 -8 32 -17 11 -13 11 -15 1 -9 -24 14 -59 -3 -72 -34 -12 -28 -11 -33 11 -57 l24 -26 -31 16 c-30 15 -33 15 -50 -4 -58 -64 -188 -109 -314 -109 -49 0 -101 -5 -116 -10 -21 -8 -31 -8 -42 3 -34 35 79 172 187 227 45 22 91 35 169 46 107 16 192 44 192 63 0 6 5 11 10 11 6 0 10 -7 10 -15z m-138 -3 c10 -4 -26 -7 -80 -7 -186 0 -244 -34 -375 -215 -17 -24 -17 -24 -1 10 49 103 135 178 234 204 57 15 192 20 222 8z m-638 -591 c-4 -39 -10 -71 -14 -71 -6 0 -6 15 6 108 9 71 15 41 8 -37z m142 -350 c38 -23 61 -80 45 -108 -9 -15 -10 -13 -11 12 0 37 -22 71 -64 96 -17 10 -24 19 -16 19 8 0 29 -9 46 -19z m-40 -133 c8 -13 -22 -38 -45 -37 -10 0 -7 4 7 9 36 15 25 23 -25 17 -43 -5 -46 -4 -28 9 23 17 81 19 91 2z m-56 -159 c11 -21 16 -39 10 -39 -8 0 -50 74 -50 87 0 13 23 -15 40 -48z m272 -114 c52 -17 102 -25 148 -25 62 0 68 2 63 19 -7 29 10 32 42 7 32 -26 27 -46 -13 -47 -24 0 -32 -10 -65 -80 -67 -139 -171 -221 -314 -249 -124 -24 -211 15 -235 106 -9 31 -17 44 -30 44 -9 0 -22 10 -29 21 -15 29 -7 121 14 153 15 23 24 26 70 26 43 0 61 6 93 29 61 45 102 45 256 -4z" id="32"/>
<path d="M5513 5663 c-41 -4 -42 -4 -31 -34 6 -17 8 -44 4 -61 -5 -28 -4 -29 11 -17 18 15 73 98 73 111 0 4 -3 7 -7 6 -5 -1 -27 -3 -50 -5z" id="33"/>
<path d="M5403 5621 c9 -23 7 -34 -6 -55 -33 -50 -117 -24 -117 36 0 18 -16 23 -44 12 -35 -13 -1 -94 49 -118 85 -41 185 12 185 98 0 43 -10 56 -45 56 -33 0 -33 -1 -22 -29z" id="34"/>
<path d="M5151 5562 c-44 -41 -52 -75 -23 -91 20 -10 178 -22 186 -13 3 3 -12 13 -33 23 -38 17 -71 60 -71 93 0 30 -20 26 -59 -12z" id="35"/>
<path d="M4932 4410 c-32 -23 -55 -31 -97 -33 -31 -2 -61 -9 -68 -16 -7 -7 -12 -40 -12 -79 0 -61 2 -67 22 -70 25 -4 67 33 60 52 -4 9 9 12 43 12 37 -1 54 4 72 22 22 20 36 23 139 26 65 2 148 11 194 22 l80 19 -66 6 c-36 4 -109 21 -163 38 -122 39 -152 39 -204 1z" id="36"/>
<path d="M5280 4329 c-35 -10 -116 -42 -180 -71 -110 -51 -119 -53 -200 -53 l-85 0 -3 -30 c-4 -42 31 -93 76 -112 48 -20 147 -13 225 17 75 28 173 118 215 199 18 32 32 62 32 65 0 8 -3 7 -80 -15z" id="37"/>
<path d="M5060 4303 c-59 -3 -79 -8 -97 -25 -13 -12 -41 -22 -68 -26 -59 -6 -54 -26 8 -30 35 -2 70 6 139 34 81 31 133 58 103 52 -6 -1 -44 -4 -85 -5z" id="38"/>
<path d="M5915 6540 c-62 -11 -345 -101 -345 -110 0 -11 94 -59 157 -81 46 -15 253 -59 283 -59 3 0 11 26 18 58 7 31 25 85 41 119 22 45 26 63 17 66 -29 11 -124 15 -171 7z" id="39"/>
<path d="M6190 6408 c-15 -35 -31 -79 -34 -99 l-6 -36 67 -6 c122 -12 123 -12 116 26 -14 70 -77 177 -104 177 -6 0 -23 -28 -39 -62z" id="40"/>
<path d="M5189 6393 c-169 -114 -333 -167 -514 -167 -132 0 -204 23 -266 85 -43 43 -49 37 -20 -19 24 -47 74 -94 128 -121 132 -66 413 -29 598 79 67 40 224 159 225 171 0 3 -15 10 -34 16 -33 10 -39 8 -117 -44z" id="41"/>
<path d="M3780 6423 c-149 -25 -294 -125 -397 -275 -98 -142 -146 -257 -218 -526 -37 -141 -93 -317 -120 -384 -6 -16 -1 -18 46 -18 30 0 76 6 104 13 l50 13 1 90 c2 186 92 314 256 366 75 23 208 25 208 4 0 -8 -5 -18 -10 -21 -6 -4 -22 -30 -37 -58 -38 -74 -44 -186 -14 -246 23 -44 85 -91 149 -112 52 -17 196 -6 265 20 l57 23 -20 25 c-27 34 -57 133 -64 213 -3 36 -13 146 -22 245 -18 193 -15 369 9 503 13 71 13 74 -7 87 -54 34 -159 51 -236 38z" id="42"/>
<path d="M5653 6298 c-102 -108 -87 -255 31 -309 23 -10 57 -19 77 -19 40 0 140 47 147 68 3 10 -4 9 -28 -3 -18 -9 -52 -17 -76 -17 -140 -3 -185 192 -62 270 l31 20 -39 11 c-51 14 -46 16 -81 -21z" id="43"/>
<path d="M6154 6209 c15 -92 69 -139 120 -106 32 22 54 54 62 94 l6 30 -69 7 c-37 4 -81 9 -97 13 l-29 5 7 -43z" id="44"/>
<path d="M6556 6187 c-2 -7 -9 -32 -16 -57 -7 -25 -21 -57 -31 -72 -11 -14 -19 -29 -19 -32 0 -3 21 -6 48 -6 127 -1 260 -50 327 -121 90 -97 130 -223 129 -414 -1 -144 -6 -178 -69 -445 -65 -273 -78 -366 -73 -539 4 -139 6 -150 40 -236 20 -49 45 -109 55 -132 l20 -42 0 137 c0 169 11 264 73 607 64 353 80 480 80 628 -1 391 -148 609 -478 710 -59 18 -84 22 -86 14z" id="45"/>
<path d="M6001 6011 c-37 -10 -36 -26 4 -56 l35 -28 -39 -28 c-68 -50 -63 -73 17 -85 44 -7 60 -18 42 -29 -15 -9 -53 -86 -46 -93 4 -3 29 0 57 6 68 16 66 17 72 -29 7 -55 20 -66 50 -46 40 26 51 68 39 143 -15 91 -45 148 -98 184 -24 17 -47 37 -51 44 -10 18 -51 27 -82 17z" id="46"/>
<path d="M2860 5961 c-58 -36 -142 -128 -170 -186 -32 -67 -50 -142 -50 -215 0 -215 153 -425 342 -470 44 -11 55 -9 131 18 46 17 104 33 130 37 26 4 47 9 47 11 0 2 -8 19 -17 39 -11 23 -22 34 -31 30 -95 -36 -211 -31 -305 13 -83 38 -141 96 -180 180 -30 63 -32 74 -32 178 0 110 0 111 42 196 32 64 58 100 103 142 66 61 62 72 -10 27z" id="47"/>
<path d="M6795 5915 c28 -71 37 -130 37 -240 1 -201 -43 -357 -123 -437 l-48 -48 34 -167 c19 -93 51 -238 72 -323 30 -124 38 -147 41 -115 7 108 38 276 87 473 67 270 80 358 72 481 -11 165 -52 274 -133 351 -28 27 -44 37 -39 25z" id="48"/>
<path d="M6200 5916 c0 -4 10 -26 23 -49 19 -37 22 -56 22 -167 -1 -112 -4 -132 -28 -194 -37 -93 -87 -173 -147 -234 -28 -29 -47 -52 -42 -52 21 0 131 80 170 125 23 27 58 80 77 119 67 138 82 260 45 380 -20 64 -22 66 -55 66 -18 0 -40 3 -49 6 -9 3 -16 3 -16 0z" id="49"/>
<path d="M1035 5882 c-61 -24 -195 -105 -195 -117 0 -2 16 -34 36 -70 l36 -66 25 23 c47 44 150 173 172 216 26 50 21 51 -74 14z" id="50"/>
<path d="M655 5790 c-84 -101 -177 -252 -161 -262 6 -4 28 -8 49 -8 37 0 39 2 60 53 12 28 43 97 70 152 86 176 83 186 -18 65z" id="51"/>
<path d="M750 5840 c0 -6 -31 -76 -69 -158 -84 -180 -121 -293 -128 -393 -6 -74 10 -179 27 -179 4 0 10 18 14 41 16 98 116 266 228 385 l67 71 -62 121 c-56 110 -77 140 -77 112z" id="52"/>
<path d="M1066 5759 c-22 -24 -90 -98 -152 -164 -179 -190 -229 -262 -279 -400 -53 -148 -15 -294 94 -359 32 -18 52 -21 176 -22 156 -1 214 -14 282 -63 63 -45 88 -108 86 -207 -1 -45 -9 -101 -17 -125 -9 -24 -16 -47 -16 -51 0 -5 27 -8 59 -8 l59 0 37 78 c46 96 109 282 129 384 23 110 21 231 -5 314 -20 66 -27 74 -149 196 -200 197 -249 274 -259 402 l-6 69 -39 -44z" id="53"/>
<path d="M145 5690 c-33 -144 -7 -334 62 -459 75 -134 175 -205 306 -218 66 -6 67 -6 67 18 0 14 -6 33 -13 44 -25 36 -47 117 -47 169 0 47 28 190 44 227 6 14 -2 17 -51 21 -83 7 -164 42 -224 96 -56 50 -109 125 -109 153 0 10 -4 20 -8 23 -5 3 -17 -30 -27 -74z" id="54"/>
<path d="M3500 5683 c-107 -37 -177 -112 -212 -226 -24 -81 -22 -185 7 -254 l17 -43 102 0 c122 0 197 -11 336 -50 160 -45 234 -53 341 -40 99 12 153 30 182 61 18 19 18 20 -3 47 -19 24 -29 27 -79 27 -40 0 -65 6 -86 20 l-30 20 53 3 c28 2 52 5 52 8 0 3 -10 14 -22 23 -21 17 -24 17 -82 -7 -82 -33 -209 -41 -290 -18 -82 24 -159 100 -175 174 -13 64 -1 139 34 198 39 67 35 74 -37 74 -35 -1 -83 -8 -108 -17z" id="55"/>
<path d="M4083 5513 c-33 -13 1 -116 56 -171 38 -38 42 -38 67 -11 44 49 92 64 207 64 59 0 107 2 107 5 -2 24 -92 96 -108 86 -5 -3 -50 4 -102 14 -87 19 -199 25 -227 13z" id="56"/>
<path d="M32 5479 l-32 -10 0 -250 c0 -276 4 -296 63 -357 36 -38 92 -56 145 -46 20 3 89 31 152 62 100 48 123 55 178 56 51 1 62 4 62 18 0 23 -7 26 -96 39 -100 14 -171 48 -239 117 -77 78 -144 226 -157 347 -3 34 -22 40 -76 24z" id="57"/>
<path d="M1569 5447 c-51 -14 -128 -57 -149 -82 -11 -14 -10 -19 7 -37 l21 -21 24 23 c42 39 100 63 171 68 114 8 199 -38 243 -133 47 -100 25 -226 -56 -318 l-32 -37 51 0 c49 0 51 1 76 43 14 24 33 74 42 112 38 153 -28 301 -162 364 -60 29 -169 37 -236 18z" id="58"/>
<path d="M4345 5383 c-53 -12 -88 -27 -115 -50 -36 -30 -37 -37 -9 -49 17 -8 42 -2 108 25 67 27 101 35 152 35 82 1 82 19 2 35 -57 11 -101 13 -138 4z" id="59"/>
<path d="M1567 5365 c-21 -7 -45 -21 -53 -32 -34 -43 -35 -51 -11 -90 12 -21 29 -51 36 -68 l13 -30 51 55 c74 81 137 162 131 172 -8 13 -125 8 -167 -7z" id="60"/>
<path d="M1708 5277 c-32 -40 -78 -93 -102 -118 l-44 -46 8 -66 c4 -37 7 -75 5 -85 -2 -9 -6 -40 -9 -68 l-5 -50 47 23 c26 13 75 28 109 34 53 9 68 17 94 47 53 61 79 127 79 208 0 60 -4 76 -29 116 -29 45 -66 79 -86 77 -5 0 -36 -32 -67 -72z" id="61"/>
<path d="M2567 5334 c-9 -9 20 -74 43 -99 19 -20 19 -21 -33 -48 -29 -15 -63 -36 -76 -46 l-24 -19 29 -14 c16 -8 52 -21 79 -28 28 -7 53 -16 58 -20 4 -3 -1 -24 -12 -46 -24 -50 -41 -113 -32 -118 9 -6 106 29 148 54 l35 20 -4 -65 c-1 -36 -2 -65 0 -65 2 0 15 15 30 33 58 70 149 160 177 174 l30 16 -53 13 c-29 8 -67 21 -84 30 -46 24 -132 108 -169 165 -23 37 -40 51 -67 59 -42 11 -66 13 -75 4z" id="62"/>
<path d="M4537 5293 c5 -32 -12 -58 -43 -67 -26 -8 -74 28 -74 55 0 22 2 22 -39 8 -37 -13 -39 -32 -7 -64 36 -35 69 -40 134 -19 76 24 77 26 63 74 -14 46 -40 56 -34 13z" id="63"/>
<path d="M4288 5244 c-33 -17 -33 -17 -12 -49 20 -31 62 -45 113 -38 40 5 58 23 24 23 -9 0 -33 18 -54 40 -21 22 -40 40 -41 40 -2 -1 -15 -8 -30 -16z" id="64"/>
<path d="M6571 5189 c-55 -22 -72 -76 -112 -349 -45 -312 -81 -420 -190 -565 -90 -120 -331 -340 -486 -443 -29 -19 -53 -36 -53 -37 0 -2 20 -40 44 -86 48 -91 125 -275 146 -351 7 -27 15 -48 17 -48 14 0 178 88 238 128 157 104 325 262 415 390 24 34 46 60 48 58 6 -7 -61 -104 -120 -173 -111 -131 -387 -344 -524 -405 -25 -11 -44 -22 -41 -24 7 -7 148 24 223 50 96 33 172 68 235 108 76 48 79 50 79 44 0 -3 -28 -25 -62 -49 -135 -96 -276 -149 -483 -183 -118 -19 -463 -24 -1040 -14 -257 5 -274 4 -360 -18 -245 -62 -395 -202 -555 -517 -68 -135 -97 -208 -217 -545 -227 -636 -263 -746 -462 -1426 -72 -246 -169 -546 -214 -667 l-26 -67 590 2 591 3 78 220 c43 121 106 294 140 385 34 91 99 269 145 395 90 251 224 584 279 694 20 39 50 86 68 107 28 32 33 34 44 20 23 -31 -1 -95 -98 -265 -110 -192 -170 -335 -404 -959 -119 -317 -219 -583 -221 -589 -4 -10 205 -13 1025 -13 l1030 0 59 123 c80 165 173 316 367 597 259 374 383 585 447 761 58 159 140 511 181 779 19 129 22 45 4 -117 -42 -359 -135 -657 -299 -948 -33 -60 -138 -224 -232 -363 -278 -412 -369 -555 -439 -691 -36 -71 -66 -132 -66 -135 0 -3 209 -6 464 -6 l463 0 34 78 c68 156 156 287 352 527 191 233 263 358 337 583 67 206 112 439 171 882 27 201 33 280 33 440 1 233 -12 306 -81 450 -63 131 -137 203 -294 286 -156 83 -379 223 -502 315 -251 189 -413 455 -535 879 -49 168 -99 375 -138 567 -19 97 -38 181 -40 185 -7 10 -23 9 -53 -3z m904 -2040 c32 -132 34 -271 5 -382 -10 -42 -26 -89 -35 -104 -9 -15 -14 -19 -10 -9 59 191 66 336 22 503 -28 107 -33 140 -17 112 5 -9 21 -63 35 -120z" id="65"/>
<path d="M3242 5125 c-152 -27 -257 -86 -353 -196 -154 -178 -245 -251 -364 -296 -54 -20 -57 -22 -27 -22 115 -2 303 64 572 201 162 82 214 104 310 128 236 58 506 63 852 15 40 -6 39 -8 53 96 l6 46 -56 -19 c-134 -45 -272 -42 -480 10 -210 53 -363 64 -513 37z" id="66"/>
<path d="M3575 4963 c-180 -22 -312 -66 -510 -169 -294 -153 -412 -188 -660 -198 -142 -6 -169 -5 -238 13 -43 11 -98 29 -122 40 -25 11 -45 17 -45 14 0 -25 88 -161 139 -216 142 -150 378 -215 625 -172 121 21 194 53 326 145 260 179 372 233 600 289 175 42 317 61 462 61 l125 0 -5 83 c-2 45 -5 83 -6 83 0 1 -67 9 -149 18 -132 14 -457 20 -542 9z" id="67"/>
<path d="M360 4851 c-99 -49 -134 -61 -172 -61 -60 0 -113 21 -155 62 l-33 32 0 -61 0 -60 61 -7 c33 -4 100 -17 149 -29 l88 -23 31 38 c47 56 141 98 239 106 l81 7 -19 24 c-15 21 -28 26 -82 29 -60 3 -69 1 -188 -57z" id="68"/>
<path d="M1764 4889 c-84 -8 -172 -38 -197 -67 -7 -10 -26 -64 -40 -121 -15 -58 -43 -141 -63 -185 -19 -45 -38 -88 -41 -96 -11 -27 57 43 143 146 118 143 219 234 303 275 117 56 92 68 -105 48z" id="69"/>
<path d="M493 4806 c-89 -29 -167 -98 -204 -181 -20 -43 -24 -75 -30 -240 -7 -179 -18 -254 -41 -282 -7 -9 -7 -13 1 -13 17 0 86 76 116 127 15 25 49 104 77 176 87 233 150 320 268 376 42 20 57 32 48 37 -23 15 -190 15 -235 0z" id="70"/>
<path d="M758 4775 c-138 -38 -210 -120 -303 -345 -88 -212 -141 -297 -210 -340 -20 -12 -35 -24 -33 -25 5 -6 222 45 267 62 68 26 143 104 236 242 46 70 103 147 125 170 109 112 273 121 326 18 15 -28 16 -118 3 -167 -2 -9 4 -16 17 -18 33 -5 67 83 67 173 1 120 -51 188 -174 226 -72 23 -246 25 -321 4z" id="71"/>
<path d="M3985 4748 c-191 -21 -439 -84 -578 -147 -34 -16 -146 -85 -250 -154 -245 -164 -332 -196 -530 -197 -208 0 -369 60 -491 183 -41 42 -86 99 -105 135 -18 35 -34 62 -36 60 -2 -2 3 -37 11 -78 45 -238 217 -383 497 -420 103 -14 247 -1 330 29 153 55 348 147 412 193 39 28 61 41 50 28 -34 -39 -158 -115 -261 -160 -136 -59 -250 -117 -304 -153 -25 -17 -109 -93 -187 -169 -161 -156 -218 -196 -329 -234 -66 -22 -92 -25 -165 -22 -99 3 -102 -5 -17 -48 177 -90 386 -59 618 91 95 61 169 132 272 264 51 64 124 147 163 185 270 264 612 434 1053 521 68 14 135 25 148 25 28 0 28 -2 9 44 l-15 36 -108 -1 c-59 -1 -143 -6 -187 -11z" id="72"/>
<path d="M0 4713 c0 -30 1 -31 60 -37 33 -4 92 -15 131 -25 l71 -18 9 25 c7 18 6 28 -3 33 -19 12 -140 38 -208 46 l-60 6 0 -30z" id="73"/>
<path d="M4240 4663 c-444 -76 -780 -220 -1055 -453 -102 -86 -157 -145 -277 -295 -53 -66 -120 -141 -150 -166 -182 -157 -414 -244 -578 -218 -82 13 -184 59 -233 107 -20 20 -37 32 -37 27 0 -17 73 -141 120 -205 58 -78 170 -185 251 -239 73 -49 157 -66 319 -65 106 0 123 3 224 37 147 50 213 92 331 211 104 105 232 281 254 349 11 31 87 157 96 157 1 0 -16 -37 -39 -83 -173 -344 -37 -700 309 -814 64 -21 100 -26 180 -26 140 0 166 10 253 93 52 50 95 81 157 110 83 41 84 42 106 98 34 87 38 228 9 307 -29 78 -97 146 -170 170 -68 22 -173 22 -242 0 -68 -22 -173 -77 -218 -114 l-34 -29 45 5 c118 13 232 -62 265 -173 57 -197 -62 -376 -261 -392 -236 -18 -439 202 -439 478 0 59 7 107 22 157 28 92 45 105 21 15 -12 -42 -19 -100 -19 -157 0 -145 39 -248 130 -348 100 -110 235 -149 354 -103 l49 19 -72 33 c-172 80 -291 281 -291 493 0 94 43 227 108 331 25 42 89 118 142 171 153 155 332 260 527 309 l43 11 -17 27 c-9 15 -27 39 -39 54 -12 15 -33 48 -45 73 -23 47 -31 50 -99 38z" id="74"/>
<path d="M0 4424 l1 -239 77 -65 c42 -36 79 -66 83 -68 13 -6 47 104 63 203 8 55 17 159 19 232 l3 132 -66 15 c-36 8 -91 18 -122 21 l-58 7 0 -238z" id="75"/>
<path d="M965 4594 c-52 -27 -94 -64 -135 -118 -22 -29 -40 -55 -40 -58 0 -3 33 -8 73 -11 39 -4 119 -11 176 -17 120 -11 117 -13 127 68 8 65 -8 107 -50 133 -38 23 -110 25 -151 3z" id="76"/>
<path d="M1971 4505 c-2 -133 52 -258 154 -361 82 -83 166 -128 268 -144 116 -18 248 15 329 83 l27 22 -152 1 c-137 0 -160 3 -232 27 -198 66 -324 190 -376 372 l-18 60 0 -60z" id="77"/>
<path d="M4340 4431 c-322 -106 -597 -359 -680 -626 -41 -131 -26 -292 38 -425 68 -138 247 -264 321 -225 32 16 73 74 91 129 34 105 -29 251 -127 292 -39 17 -138 18 -182 3 -18 -6 -35 -9 -38 -6 -3 3 20 33 52 66 60 64 152 118 245 145 53 16 200 23 220 11 5 -3 12 7 15 22 43 208 143 378 275 464 l25 17 -32 33 c-58 61 -103 114 -103 122 0 13 -33 7 -120 -22z" id="78"/>
<path d="M776 4391 c-4 -5 17 -43 46 -84 48 -68 58 -76 108 -92 118 -38 347 -143 620 -285 157 -82 346 -176 420 -211 135 -62 135 -62 187 -51 116 24 248 114 393 267 39 42 42 47 20 41 -208 -58 -458 63 -560 269 l-34 70 -251 0 c-228 0 -275 4 -535 37 -371 47 -407 51 -414 39z" id="79"/>
<path d="M7729 4362 c5 -10 17 -55 25 -101 20 -103 43 -156 91 -209 67 -75 146 -88 388 -67 96 8 118 0 139 -55 7 -20 11 -22 18 -10 25 40 -5 172 -55 246 -71 103 -156 142 -381 174 -78 12 -157 25 -176 30 -50 15 -60 13 -49 -8z" id="80"/>
<path d="M740 4338 c-10 -22 -5 -34 45 -107 74 -107 160 -282 225 -456 28 -77 74 -201 102 -275 86 -231 175 -399 262 -494 20 -21 36 -40 36 -42 0 -11 -164 -2 -215 11 -158 41 -220 108 -349 370 -86 174 -163 295 -188 295 -5 0 4 -17 20 -37 40 -52 73 -119 117 -243 72 -204 166 -344 264 -395 102 -52 266 -79 359 -57 41 10 48 8 125 -33 133 -71 216 -90 387 -90 164 0 235 14 360 72 85 38 170 91 170 104 0 20 -62 7 -104 -21 -100 -68 -271 -111 -436 -111 -113 0 -166 9 -257 42 -226 85 -359 269 -533 739 -138 374 -199 507 -302 657 -65 94 -74 102 -88 71z" id="81"/>
<path d="M7419 4188 c-33 -143 -32 -276 3 -374 81 -228 287 -370 509 -350 158 14 302 96 379 216 32 49 75 150 64 150 -3 0 -17 -13 -30 -30 -14 -16 -58 -45 -97 -65 -160 -77 -373 -62 -532 40 -145 92 -252 284 -256 457 -1 32 -5 58 -9 58 -4 0 -18 -46 -31 -102z" id="82"/>
<path d="M4565 4252 c-114 -82 -196 -221 -240 -405 -12 -53 -12 -58 5 -67 13 -7 36 -5 77 5 66 17 129 12 184 -16 35 -18 92 -74 101 -101 4 -10 23 -4 78 22 40 19 93 47 116 62 l44 27 -42 78 c-46 88 -211 341 -254 391 l-29 34 -40 -30z" id="83"/>
<path d="M650 4219 c-80 -95 -172 -138 -367 -174 -51 -9 -93 -20 -93 -24 0 -3 38 -45 85 -91 l85 -85 108 0 c99 0 112 -3 174 -32 106 -50 191 -151 268 -317 38 -81 48 -115 75 -254 22 -112 54 -175 106 -205 62 -36 142 -57 215 -57 l63 0 -49 65 c-97 128 -152 246 -275 585 -94 261 -155 401 -230 526 -31 52 -57 94 -58 94 -1 0 -16 4 -34 9 -30 9 -34 6 -73 -40z" id="84"/>
<path d="M935 4127 c58 -107 119 -255 207 -497 129 -357 196 -485 320 -608 70 -71 178 -130 288 -159 100 -26 269 -22 392 10 98 26 246 94 231 107 -4 4 -28 12 -53 19 -222 64 -412 283 -442 511 -6 47 -8 111 -4 142 l7 58 32 -17 c36 -19 137 -45 136 -35 -2 14 -918 463 -1032 507 -65 25 -120 45 -122 45 -3 0 15 -37 40 -83z" id="85"/>
<path d="M0 3895 l0 -265 57 -93 c275 -445 626 -925 855 -1171 l65 -70 59 13 c32 8 97 28 144 46 117 45 375 175 364 184 -5 4 -36 29 -69 56 -33 28 -121 109 -195 182 -159 155 -192 173 -264 149 -55 -19 -68 -19 -119 -5 -53 14 -107 67 -157 149 -22 39 -74 106 -115 149 -40 43 -81 93 -90 110 -9 18 -21 74 -26 124 -6 51 -20 113 -31 140 -26 60 -110 138 -174 161 -94 33 -91 31 -38 50 27 9 57 21 67 25 16 5 -8 33 -138 159 -86 84 -165 157 -176 162 -19 10 -19 4 -19 -255z" id="86"/>
<path d="M400 3824 c-14 -3 -43 -10 -65 -17 l-40 -11 62 -6 c46 -5 90 -21 177 -64 64 -31 129 -68 145 -82 46 -39 112 -145 182 -294 58 -124 116 -226 124 -218 2 2 -1 21 -6 43 -5 22 -20 91 -34 154 -17 77 -38 140 -66 195 -112 219 -206 295 -372 301 -45 2 -93 1 -107 -1z" id="87"/>
<path d="M348 3757 c58 -31 116 -89 143 -143 12 -25 28 -91 36 -147 9 -56 23 -118 33 -138 10 -19 51 -71 91 -115 40 -43 91 -108 114 -144 76 -118 142 -155 235 -130 23 6 40 13 39 15 -2 2 -21 17 -41 33 -93 74 -155 177 -228 382 -50 140 -88 205 -160 274 -69 66 -128 101 -205 120 -87 23 -109 20 -57 -7z" id="88"/>
<path d="M4465 3774 c-5 -1 -28 -5 -49 -9 l-39 -6 36 -30 c20 -17 50 -59 69 -96 27 -55 33 -79 36 -155 4 -88 -17 -210 -39 -224 -27 -16 -1 -20 54 -7 74 18 107 49 138 133 25 65 30 185 10 245 -19 56 -56 102 -99 124 -36 18 -97 31 -117 25z" id="89"/>
<path d="M5640 3738 c-67 -45 -198 -104 -261 -118 -32 -7 -93 -11 -140 -8 -102 6 -178 38 -248 105 l-46 45 -120 -63 -120 -62 4 -91 c4 -111 -11 -182 -50 -235 -16 -23 -29 -42 -29 -44 0 -2 33 1 73 5 43 5 191 4 365 -3 415 -17 832 -2 832 30 0 53 -186 473 -208 470 -4 0 -27 -14 -52 -31z" id="90"/>
<path d="M3320 3583 c-69 -109 -212 -256 -311 -320 -116 -75 -244 -115 -390 -121 -68 -2 -138 0 -169 7 -29 6 -55 10 -57 7 -6 -6 145 -64 217 -83 92 -24 275 -24 355 1 120 36 284 169 368 298 36 54 37 60 37 145 0 48 4 103 9 121 5 17 7 32 3 31 -4 0 -32 -39 -62 -86z" id="91"/>
<path d="M1896 3570 c9 -95 23 -151 54 -216 111 -231 330 -363 610 -367 102 -2 266 18 275 33 3 4 -44 10 -103 12 -294 14 -615 219 -784 501 -60 99 -58 98 -52 37z" id="92"/>
<path d="M0 3503 c0 -86 4 -101 64 -274 167 -481 255 -690 388 -929 116 -207 354 -539 386 -540 15 0 109 62 171 114 67 57 121 84 199 104 l71 17 -91 78 c-62 53 -99 77 -117 77 -60 0 -219 60 -276 103 -18 14 -16 15 40 22 79 8 115 15 115 22 0 3 -34 41 -76 86 -202 215 -515 644 -789 1082 -38 61 -72 114 -77 120 -4 5 -8 -32 -8 -82z" id="93"/>
<path d="M3344 3328 c-82 -162 -123 -328 -105 -425 21 -107 87 -195 179 -240 46 -21 75 -28 150 -31 64 -3 92 -1 92 7 0 6 -17 11 -37 12 -47 0 -108 24 -166 66 -33 22 -54 49 -77 96 -57 116 -52 241 16 376 l34 69 -20 47 c-11 26 -20 53 -20 61 0 29 -21 12 -46 -38z" id="94"/>
<path d="M1 1663 l-1 -1663 1520 0 1519 0 21 73 c12 39 69 223 127 407 131 416 120 375 99 367 -10 -4 -72 -14 -139 -23 -167 -22 -527 -14 -712 15 -110 18 -384 80 -430 97 -10 4 -18 -12 -31 -55 -9 -34 -20 -61 -24 -61 -15 0 -71 72 -99 128 -26 51 -35 59 -85 79 -31 13 -61 23 -67 23 -19 0 -138 -91 -177 -135 -93 -106 -136 -265 -144 -532 -2 -46 -6 -83 -10 -83 -3 0 -31 51 -62 113 -52 107 -91 239 -98 337 l-3 35 -23 -42 c-34 -65 -52 -149 -52 -243 1 -73 20 -207 31 -213 2 -1 18 -9 34 -17 42 -22 58 -58 44 -99 -19 -54 -75 -68 -123 -30 -27 22 -36 75 -16 95 8 8 5 33 -10 85 -33 117 -26 294 15 400 4 10 -18 3 -73 -23 -80 -39 -250 -88 -304 -88 -26 0 -29 3 -23 23 17 57 71 157 142 264 43 64 81 122 85 128 5 7 -15 9 -64 7 -219 -13 -535 89 -680 218 -53 48 -123 138 -113 148 2 2 18 -7 35 -22 125 -104 357 -186 531 -186 128 0 218 73 304 244 54 105 56 119 18 109 -87 -22 -280 10 -368 61 -46 27 -73 62 -58 76 4 4 49 12 98 17 50 6 107 17 128 26 l38 16 -68 84 c-63 79 -120 157 -215 300 -115 171 -286 545 -413 902 -38 105 -76 215 -86 245 -17 53 -17 -7 -18 -1607z" id="95"/>
<path d="M3260 3241 c0 -5 -40 -42 -89 -81 -97 -77 -110 -98 -151 -240 -30 -103 -39 -333 -16 -440 20 -96 72 -201 131 -265 52 -57 53 -55 7 34 -53 102 -74 196 -75 341 -1 243 48 398 196 631 11 16 14 29 8 29 -6 0 -11 -4 -11 -9z" id="96"/>
<path d="M3425 3216 c-37 -56 -65 -159 -65 -242 0 -70 4 -89 31 -142 35 -70 71 -104 149 -141 48 -23 68 -26 157 -26 56 0 99 -3 95 -6 -16 -14 -109 -39 -166 -45 -175 -18 -331 69 -387 215 -25 63 -30 197 -11 265 19 68 4 53 -37 -35 -82 -179 -106 -298 -98 -500 6 -156 15 -195 70 -305 59 -116 48 -111 158 -74 172 57 341 147 475 253 39 32 58 56 75 97 39 95 125 261 183 354 31 48 56 90 56 91 0 2 -15 -1 -32 -6 -50 -14 -185 -11 -258 7 -134 31 -276 123 -351 227 l-28 38 -16 -25z" id="97"/>
<path d="M2959 2993 c-97 -101 -160 -192 -220 -317 -41 -86 -42 -88 -26 -116 26 -43 22 -87 -11 -119 -15 -15 -33 -30 -40 -32 -16 -5 -32 -108 -32 -205 0 -54 4 -75 16 -85 34 -28 332 -21 485 12 l47 10 -49 50 c-63 65 -122 187 -145 298 -33 166 -7 427 53 551 11 22 17 40 13 40 -4 0 -45 -39 -91 -87z" id="98"/>
<path d="M2902 3011 c-33 -13 -56 -34 -98 -92 -53 -70 -164 -279 -164 -307 0 -7 -14 -18 -30 -24 -31 -10 -60 -52 -60 -86 0 -11 8 -30 19 -43 16 -21 17 -32 9 -94 -6 -38 -8 -111 -5 -162 4 -80 2 -93 -14 -107 -36 -30 -19 -95 29 -110 11 -4 24 -32 40 -88 13 -46 34 -107 48 -137 22 -49 23 -56 9 -71 -33 -36 -5 -90 47 -90 19 0 33 -11 53 -42 16 -24 49 -70 74 -102 35 -47 45 -67 42 -92 -2 -24 3 -35 18 -43 31 -17 49 -13 67 14 15 23 15 27 0 50 -11 17 -26 25 -45 25 -24 0 -38 14 -101 101 -54 74 -70 103 -61 112 27 27 -2 87 -41 87 -18 0 -58 93 -87 202 -18 71 -18 73 1 98 24 33 16 72 -18 95 -21 14 -24 23 -24 77 0 34 5 102 11 151 10 77 15 90 34 97 51 19 69 79 38 130 -16 28 -15 30 35 132 61 124 117 210 184 283 54 60 54 61 -10 36z" id="99"/>
<path d="M2770 2974 c-30 -7 -103 -13 -162 -13 l-107 -1 -63 -44 c-273 -190 -639 -212 -910 -56 l-68 38 -64 -11 c-45 -7 -87 -8 -135 -1 -39 5 -71 7 -71 3 0 -11 218 -217 320 -302 186 -155 404 -284 603 -358 94 -35 317 -94 394 -104 l53 -7 -6 79 c-3 43 -2 112 4 153 8 65 7 78 -9 105 -11 16 -19 42 -19 57 0 29 44 88 65 88 7 0 43 60 79 134 35 74 86 159 111 191 26 31 45 58 43 59 -2 1 -28 -4 -58 -10z" id="100"/>
<path d="M1520 2487 c-72 -47 -277 -143 -370 -172 -47 -14 -132 -34 -190 -44 -58 -10 -104 -22 -104 -27 2 -13 67 -42 137 -61 82 -22 250 -22 337 0 94 25 235 97 313 162 37 31 67 60 67 64 0 7 -99 82 -134 102 -6 4 -31 -7 -56 -24z" id="101"/>
<path d="M3740 2374 c-96 -73 -285 -171 -405 -209 -171 -56 -457 -94 -594 -81 -63 7 -63 7 -57 -17 3 -14 -2 -37 -13 -58 -18 -33 -18 -36 0 -99 29 -105 61 -180 76 -180 8 0 25 -12 40 -26 22 -22 24 -31 19 -65 -6 -36 -2 -47 41 -109 47 -69 49 -70 93 -70 131 1 377 53 523 113 l80 32 82 235 c45 129 110 315 144 414 34 98 61 180 59 181 -2 2 -41 -26 -88 -61z" id="102"/>
<path d="M1676 2349 c-107 -108 -262 -179 -441 -201 l-98 -12 34 -29 c105 -90 226 -183 314 -242 119 -80 380 -210 522 -260 227 -80 485 -132 697 -142 l129 -6 -44 61 c-30 44 -49 62 -65 62 -50 0 -86 63 -61 110 11 22 8 34 -20 105 -18 44 -38 101 -45 128 -6 26 -17 47 -23 47 -6 0 -22 11 -35 25 -19 21 -22 31 -17 70 6 44 6 45 -21 45 -41 0 -226 44 -332 80 -104 35 -289 120 -380 175 -32 19 -59 35 -61 34 -2 0 -26 -23 -53 -50z" id="103"/>
<path d="M1240 1969 c-79 -13 -144 -47 -240 -124 -47 -37 -116 -83 -155 -102 l-70 -34 60 5 c33 3 134 8 225 11 91 4 204 13 252 21 95 15 218 52 218 65 0 5 -10 14 -22 20 -13 7 -65 43 -116 81 -50 37 -93 67 -95 67 -1 -1 -27 -5 -57 -10z" id="104"/>
<path d="M1501 1770 c-67 -31 -149 -49 -262 -59 -102 -8 -104 -9 -135 -45 -17 -20 -67 -105 -110 -188 -65 -126 -90 -165 -145 -220 -37 -38 -61 -68 -55 -68 31 0 194 33 252 51 158 49 304 143 405 261 68 80 124 158 149 207 l22 45 -22 18 c-28 23 -44 22 -99 -2z" id="105"/>
<path d="M1609 1698 c-37 -79 -101 -161 -210 -267 -83 -81 -113 -103 -192 -141 l-94 -45 -76 -106 c-121 -168 -304 -455 -310 -484 l-5 -27 59 6 c166 19 372 132 497 272 39 44 51 66 57 102 10 70 81 278 116 339 51 89 142 204 213 271 37 34 71 62 76 62 25 0 5 18 -45 43 -31 15 -57 27 -59 27 -1 0 -13 -23 -27 -52z" id="106"/>
<path d="M692 1685 c-73 -7 -136 -16 -140 -20 -13 -13 51 -54 122 -77 53 -17 94 -23 161 -23 129 0 180 10 193 39 6 13 25 40 42 60 l32 36 -138 -1 c-77 -1 -199 -7 -272 -14z" id="107"/>
<path d="M1688 1620 c-154 -140 -271 -335 -315 -523 -39 -171 -45 -229 -39 -407 3 -96 9 -191 14 -210 7 -30 10 -20 20 74 24 203 86 340 194 427 31 24 95 72 144 106 49 34 109 82 133 107 l45 45 -28 88 c-35 110 -45 233 -23 284 l15 36 -34 17 c-19 9 -41 16 -48 16 -7 0 -42 -27 -78 -60z" id="108"/>
<path d="M1853 1613 c-5 -16 -7 -62 -7 -103 1 -62 11 -104 57 -245 31 -93 62 -196 70 -229 l13 -58 42 113 c23 63 47 134 54 159 14 54 16 255 2 288 -8 18 -35 33 -114 63 -57 21 -105 39 -107 39 -1 0 -6 -12 -10 -27z" id="109"/>
<path d="M3443 1544 c-134 -55 -352 -102 -483 -105 l-45 -1 35 -8 c18 -5 40 -16 47 -26 19 -26 16 -68 -7 -89 -44 -40 -113 -7 -108 51 5 61 -15 70 -165 77 -72 3 -186 15 -251 27 -131 22 -320 67 -350 82 -17 9 -18 8 -11 -13 4 -13 10 -63 12 -112 6 -108 -11 -191 -72 -342 l-44 -110 72 -23 c103 -32 343 -79 471 -91 209 -21 735 -5 763 23 6 6 30 74 53 151 23 77 71 229 107 338 35 109 63 200 61 201 -1 2 -40 -12 -85 -30z" id="110"/>
<path d="M205 1264 c73 -68 240 -153 365 -185 69 -18 114 -23 234 -23 146 -1 149 -1 165 23 9 14 37 53 63 88 26 35 45 63 42 63 -3 0 -40 -9 -82 -19 -178 -45 -394 -52 -541 -16 -79 19 -181 59 -244 97 -26 15 -51 28 -55 28 -4 -1 20 -26 53 -56z" id="111"/>
<path d="M1822 1152 c-39 -37 -62 -69 -60 -79 2 -9 20 -26 41 -37 28 -15 47 -37 73 -86 68 -128 80 -129 78 -7 -2 76 -43 253 -62 267 -4 3 -35 -23 -70 -58z" id="112"/>
<path d="M1266 863 c-42 -53 -45 -60 -40 -102 11 -94 37 -199 71 -286 36 -91 61 -134 50 -85 -21 96 -31 208 -32 357 0 95 -1 173 -2 173 -2 0 -23 -26 -47 -57z" id="113"/>
<path d="M1153 768 c-12 -13 -32 -57 -45 -98 -31 -100 -31 -264 -1 -356 18 -55 19 -64 6 -89 -37 -70 60 -125 104 -59 23 35 9 72 -32 90 -39 16 -48 40 -67 167 -15 101 1 218 42 304 30 66 28 79 -7 41z" id="114"/>
</g>
</svg>