<?xml version="1.0" ?><!DOCTYPE svg  PUBLIC '-//W3C//DTD SVG 20010904//EN'  'http://www.w3.org/TR/2001/REC-SVG-20010904/DTD/svg10.dtd'><svg height="850.000000pt" preserveAspectRatio="xMidYMid meet" version="1.0" viewBox="0 0 850.000000 850.000000" width="850.000000pt" xmlns="http://www.w3.org/2000/svg">
<metadata>
Created by potrace 1.14, written by Peter Selinger 2001-2017
</metadata>
<g fill="#ffffff" stroke="none" transform="translate(0.000000,850.000000) scale(0.100000,-0.100000)">
<path d="M0 4250 l0 -4250 4250 0 4250 0 0 4250 0 4250 -4250 0 -4250 0 0 -4250z m2700 3718 c0 -40 45 -122 88 -160 67 -61 141 -91 350 -142 185 -46 266 -103 281 -195 5 -31 20 -68 38 -94 52 -72 74 -180 53 -257 -9 -34 -29 -60 -91 -121 -103 -100 -123 -142 -122 -264 0 -112 7 -133 41 -141 114 -25 182 -65 214 -127 19 -37 22 -56 20 -150 -2 -118 7 -151 52 -181 l25 -16 22 49 c29 68 46 81 141 105 70 18 83 24 86 43 4 29 -19 73 -85 162 -30 40 -67 99 -82 130 -23 50 -26 68 -26 166 0 103 2 114 32 176 52 106 120 158 298 229 147 59 197 89 265 164 154 168 214 221 295 263 44 23 97 46 118 51 35 10 38 9 32 -6 -55 -131 -70 -219 -61 -377 3 -72 16 -164 31 -230 47 -199 56 -259 59 -377 l4 -117 55 -51 c75 -68 100 -132 100 -250 0 -75 -11 -127 -38 -192 -11 -26 113 27 155 68 56 53 102 64 273 64 133 0 153 -2 183 -21 44 -27 84 -110 91 -188 l6 -59 44 19 c56 24 94 24 141 0 20 -10 61 -24 90 -30 93 -20 152 -69 166 -140 8 -45 27 -73 67 -102 l31 -22 -4 149 c-4 144 -12 182 -52 276 -7 15 -4 16 31 6 102 -28 240 -121 324 -219 149 -173 184 -199 388 -279 104 -41 190 -98 224 -147 51 -75 61 -110 62 -228 0 -141 -16 -191 -105 -315 -79 -111 -94 -152 -87 -229 8 -93 87 -308 87 -238 0 23 53 64 133 101 106 50 112 62 112 206 0 93 4 122 19 153 26 54 75 87 164 113 88 25 89 26 91 150 2 118 -18 163 -114 263 -46 48 -89 99 -94 115 -26 68 -2 198 50 271 18 25 33 62 38 94 15 97 84 141 312 201 181 47 282 92 337 149 38 39 72 112 72 153 0 41 19 3 59 -115 36 -110 41 -134 40 -213 -1 -49 4 -102 10 -117 15 -39 13 -115 -5 -162 -9 -22 -24 -87 -35 -144 -11 -57 -27 -117 -36 -135 -48 -93 -122 -148 -293 -220 -150 -63 -184 -86 -220 -148 -16 -29 -30 -55 -30 -58 0 -3 53 -5 117 -5 110 -1 126 -3 225 -38 59 -20 118 -37 131 -37 60 0 123 -30 187 -90 36 -33 77 -63 93 -66 15 -4 27 -11 27 -15 0 -21 -69 -82 -125 -112 -50 -27 -64 -40 -85 -83 -14 -28 -33 -63 -43 -77 -16 -25 -16 -30 -2 -57 22 -42 19 -87 -10 -148 -14 -30 -25 -56 -25 -58 0 -2 11 -4 25 -4 38 0 85 -27 95 -56 6 -14 10 -48 10 -77 0 -28 5 -76 12 -108 14 -68 2 -93 -61 -135 -22 -14 -45 -39 -52 -55 -23 -58 -105 -100 -164 -85 -14 4 -44 23 -67 44 l-41 37 7 -52 c7 -53 -12 -123 -33 -123 -5 0 -37 -27 -70 -60 -47 -46 -61 -67 -61 -89 0 -43 -16 -78 -60 -133 -22 -28 -55 -90 -75 -143 -29 -74 -47 -105 -86 -144 -90 -92 -243 -148 -339 -123 -22 5 -40 8 -40 6 0 -16 65 -128 137 -237 208 -315 253 -471 203 -707 -12 -58 -25 -172 -30 -254 -8 -134 -12 -154 -39 -210 -18 -37 -58 -90 -102 -136 -94 -98 -124 -140 -145 -203 -31 -96 -90 -197 -114 -197 -4 0 -15 20 -24 45 -22 58 -102 179 -150 228 -21 20 -64 51 -97 67 -81 41 -128 87 -194 186 -58 88 -59 89 -152 98 -67 6 -158 53 -215 110 -51 52 -99 144 -118 226 -7 30 -17 72 -22 92 -6 28 -22 47 -66 80 -64 49 -130 140 -161 222 -32 86 -54 212 -48 278 10 114 90 224 199 274 59 27 72 29 184 29 l121 0 84 -42 c46 -23 85 -40 86 -39 2 2 -20 35 -47 74 -90 129 -317 350 -450 439 l-45 30 -44 -28 c-24 -15 -66 -33 -94 -39 -73 -15 -91 -30 -115 -98 -16 -43 -36 -72 -72 -106 l-49 -46 -93 0 c-74 0 -102 -5 -138 -22 -32 -15 -76 -23 -150 -28 -81 -6 -121 -14 -175 -36 -58 -24 -84 -29 -155 -29 -76 0 -93 3 -152 33 -110 54 -176 156 -198 302 -12 75 -44 160 -61 160 -5 0 -9 -19 -9 -43 0 -71 -27 -133 -87 -197 -67 -73 -139 -121 -222 -148 -35 -12 -83 -37 -106 -57 -55 -44 -84 -55 -148 -55 -69 1 -124 27 -176 86 -25 27 -40 40 -36 29 16 -38 17 -124 2 -170 -33 -96 -177 -270 -266 -323 l-44 -26 41 -14 c49 -16 130 -85 138 -118 3 -13 9 -24 13 -24 3 0 22 25 41 56 58 93 126 132 320 184 131 35 259 92 313 140 l37 32 0 -48 c0 -29 13 -84 31 -134 17 -47 37 -106 46 -133 16 -52 16 -52 61 -36 l30 10 -19 33 c-34 58 -40 120 -17 205 15 60 18 92 13 152 -12 130 24 199 102 199 46 0 97 -50 113 -110 31 -116 50 -132 175 -145 89 -9 139 -29 169 -68 l24 -30 7 32 c13 61 81 79 156 41 22 -12 74 -29 115 -40 86 -21 112 -36 149 -84 15 -19 51 -49 80 -65 29 -17 60 -40 69 -53 20 -28 20 -85 1 -118 -8 -14 -14 -41 -15 -61 0 -25 -8 -43 -25 -59 -14 -13 -25 -26 -25 -29 0 -3 25 -4 55 -3 121 8 203 -49 225 -154 10 -46 21 -67 60 -108 83 -89 100 -147 55 -191 -33 -33 -102 -33 -197 0 -60 21 -90 25 -184 25 -62 0 -125 5 -140 10 -35 14 -39 8 -19 -30 9 -18 18 -59 19 -91 2 -38 11 -74 27 -103 23 -43 23 -46 7 -80 -13 -26 -27 -37 -53 -45 -43 -12 -58 -7 -106 31 -36 29 -37 29 -95 17 -90 -18 -126 -7 -185 56 -48 50 -55 54 -113 60 -49 6 -67 13 -92 37 -45 43 -61 104 -44 173 16 68 9 91 -22 73 -13 -7 -67 -15 -120 -18 -53 -3 -100 -9 -104 -13 -4 -4 9 -24 28 -45 20 -20 48 -62 61 -94 14 -31 44 -79 66 -108 34 -43 41 -59 41 -95 0 -54 -25 -75 -87 -75 -57 0 -87 -16 -120 -63 -36 -52 -130 -113 -199 -128 -30 -7 -54 -13 -54 -14 0 -2 7 -19 15 -38 8 -20 15 -55 15 -77 0 -126 -103 -150 -238 -56 -75 52 -132 66 -260 66 -78 0 -125 15 -178 55 l-32 24 -27 -56 c-68 -137 -224 -217 -325 -164 -48 25 -73 26 -130 6 -54 -19 -84 -19 -125 0 -39 19 -55 51 -55 113 0 40 -6 56 -40 101 -40 52 -40 54 -40 140 0 60 -4 93 -14 107 -14 19 -15 19 -21 -1 -23 -65 -67 -135 -124 -195 -37 -37 -82 -86 -102 -107 -41 -46 -83 -58 -143 -42 -62 17 -96 46 -125 108 -24 52 -26 66 -26 186 1 118 4 137 29 205 21 55 30 101 35 175 5 84 11 108 34 149 15 27 27 49 27 50 0 0 -44 1 -98 1 -88 0 -103 3 -157 30 -68 34 -178 138 -218 206 -15 25 -42 87 -61 139 -35 93 -64 133 -121 166 -18 10 -19 12 -3 37 20 29 52 41 166 61 65 11 100 24 155 57 78 47 163 63 206 39 13 -6 25 -9 28 -6 3 2 -18 56 -47 118 -68 145 -75 208 -34 283 15 28 32 68 39 90 15 54 74 84 177 92 63 5 82 2 138 -20 36 -15 95 -36 132 -47 79 -24 139 -67 188 -133 l35 -48 15 23 c43 65 81 96 133 109 29 6 86 27 128 45 165 72 242 68 332 -19 47 -45 127 -103 127 -92 0 2 -15 39 -34 83 -56 133 -57 134 -233 212 -82 36 -106 68 -111 144 -4 56 0 70 27 122 49 93 45 108 -67 272 l-77 114 -6 141 c-3 78 -11 156 -18 174 -22 56 15 150 113 287 47 66 96 166 96 197 0 5 -12 14 -27 20 -102 41 -178 62 -243 69 -41 5 -106 15 -145 24 -167 37 -343 0 -426 -91 -32 -34 -65 -90 -58 -98 3 -2 28 4 55 14 191 74 298 88 396 51 76 -28 122 -71 160 -147 28 -56 33 -79 36 -158 5 -111 -13 -184 -94 -384 -116 -285 -178 -358 -361 -422 -121 -43 -158 -63 -220 -121 -81 -78 -120 -155 -132 -268 l-6 -55 -67 63 c-36 35 -86 90 -109 123 -45 62 -59 71 -59 41 0 -47 -45 -54 -92 -14 -18 16 -50 39 -72 52 -52 31 -76 88 -77 179 -1 38 2 80 6 92 5 16 -12 3 -51 -38 -69 -72 -113 -89 -212 -79 -65 6 -123 28 -180 70 -22 17 -46 25 -72 24 -42 0 -104 31 -120 62 -6 10 -10 29 -10 42 0 13 -12 59 -26 103 -21 64 -24 91 -19 135 6 50 11 59 61 105 37 35 58 63 65 90 15 52 82 119 136 135 37 11 52 10 115 -8 40 -11 97 -22 126 -25 46 -4 51 -2 40 12 -22 28 -52 50 -108 83 -30 17 -74 47 -98 66 -30 24 -49 32 -65 28 -12 -3 -53 -1 -91 5 -88 12 -171 56 -296 155 -52 41 -124 89 -160 107 -65 32 -65 32 -225 32 -88 0 -187 4 -221 9 -55 8 -66 6 -133 -23 -40 -18 -77 -31 -83 -29 -5 2 15 35 45 73 65 84 78 108 107 205 43 146 136 295 230 369 37 29 79 49 148 71 68 21 122 47 181 85 116 76 166 90 326 90 153 0 197 -14 326 -100 43 -29 79 -52 79 -50 0 1 -14 32 -31 69 -24 51 -33 87 -39 160 -7 81 -12 101 -38 138 -35 51 -52 105 -52 169 0 94 -59 220 -121 256 -16 10 -29 20 -29 23 0 15 164 101 220 116 83 21 139 15 276 -29 76 -24 144 -38 225 -46 63 -6 138 -18 166 -26 95 -28 170 -101 222 -217 21 -48 48 -83 105 -138 176 -170 205 -347 104 -623 -81 -222 -48 -340 101 -362 25 -4 71 -17 101 -30 30 -12 82 -25 115 -29 33 -4 143 -34 244 -68 164 -55 184 -60 193 -45 5 9 28 28 52 42 59 34 233 94 276 95 34 1 33 1 -34 37 -82 44 -115 76 -147 140 -22 43 -24 61 -24 183 1 161 16 212 97 312 47 58 78 113 78 137 0 17 -82 34 -132 28 -65 -8 -123 -36 -185 -90 -64 -55 -144 -87 -219 -87 -93 0 -135 29 -208 145 -25 40 -42 54 -82 70 -81 32 -104 53 -131 113 -32 73 -46 88 -114 123 -51 25 -109 78 -109 99 0 5 9 12 21 15 12 4 52 35 90 70 74 68 96 78 204 94 39 6 99 23 135 38 60 25 76 28 192 28 145 0 147 2 102 71 -35 54 -96 93 -232 150 -128 53 -213 110 -256 173 -29 41 -65 171 -66 234 0 15 -9 46 -21 69 -18 36 -20 52 -14 117 3 42 9 126 13 186 6 91 14 129 47 222 39 110 55 136 55 91z" id="1"/>
<path d="M2655 7852 c-23 -61 -31 -102 -38 -197 -4 -66 -10 -153 -13 -193 -5 -60 -2 -79 15 -112 11 -21 20 -47 20 -57 1 -51 34 -181 56 -218 42 -73 104 -115 283 -195 60 -26 128 -60 151 -76 42 -28 83 -86 95 -135 3 -15 17 -34 31 -43 27 -18 32 -8 14 25 -5 11 -17 54 -24 97 -14 71 -18 80 -60 118 -35 33 -59 45 -114 59 -38 9 -78 24 -88 32 -17 14 -17 14 2 8 11 -3 46 -12 78 -20 62 -14 94 -31 141 -74 l28 -26 -7 65 c-10 84 -29 138 -63 173 -35 38 -55 45 -176 62 -126 18 -168 30 -198 56 l-23 20 35 -17 c32 -16 300 -67 309 -58 2 2 -12 16 -30 31 -19 15 -47 43 -64 62 -94 109 -118 128 -192 150 -70 21 -133 66 -133 94 0 7 12 -3 26 -20 19 -25 42 -38 97 -54 40 -12 78 -26 85 -32 7 -5 14 -8 16 -6 5 4 -72 161 -106 218 -20 34 -20 35 -2 19 11 -10 54 -82 95 -160 41 -77 94 -163 117 -190 46 -50 71 -63 51 -26 -9 17 -9 48 1 135 10 84 10 124 2 156 -22 86 -22 91 0 47 25 -49 27 -96 13 -240 -9 -98 1 -127 74 -215 23 -28 47 -62 54 -77 6 -16 14 -28 17 -28 8 0 80 193 81 215 0 11 5 29 10 40 7 14 8 4 5 -35 -3 -32 -19 -88 -39 -135 -20 -44 -38 -101 -42 -127 -7 -49 12 -248 24 -248 3 0 7 25 8 56 3 79 29 128 122 227 45 48 86 99 91 113 24 63 4 170 -49 252 -17 26 -36 72 -42 102 -20 94 -80 131 -294 185 -71 18 -161 45 -198 60 -80 32 -167 107 -200 171 l-22 43 -30 -77z" id="2"/>
<path d="M4625 7602 c-92 -49 -186 -131 -287 -253 -61 -73 -132 -120 -285 -186 -250 -107 -318 -180 -330 -356 -9 -120 13 -184 111 -331 l82 -121 29 65 c26 56 30 76 29 150 0 60 -7 104 -22 149 -24 71 -26 79 -13 66 18 -19 61 -177 61 -222 l0 -45 64 63 c79 79 88 106 91 295 1 78 6 148 11 157 12 21 5 -303 -7 -325 -21 -39 12 -16 50 35 46 62 65 98 120 234 41 99 42 104 32 159 -6 32 -11 69 -10 83 0 23 1 24 8 6 5 -11 12 -44 16 -73 4 -30 11 -50 15 -45 5 4 18 50 29 101 25 115 56 172 132 248 73 72 77 64 6 -14 -75 -82 -94 -117 -118 -223 -12 -52 -26 -102 -31 -111 -13 -27 -3 -23 89 38 47 30 87 53 89 51 6 -6 -91 -78 -148 -111 -57 -32 -74 -54 -95 -126 -8 -30 -26 -76 -39 -102 -13 -26 -24 -50 -24 -52 0 -3 15 3 33 13 40 24 132 51 166 50 15 0 -10 -12 -59 -28 -113 -36 -135 -49 -200 -115 -55 -56 -55 -56 -23 -50 24 5 39 1 59 -15 33 -26 61 -26 166 -1 118 28 200 27 254 -5 24 -14 48 -34 54 -45 22 -42 29 -17 24 92 -4 110 -24 223 -63 364 -42 154 -36 437 13 537 13 26 20 47 17 47 -3 0 -46 -22 -96 -48z" id="3"/>
<path d="M1491 6659 c-31 -4 -89 -25 -138 -49 l-84 -42 41 -44 c58 -63 86 -132 98 -242 8 -80 15 -101 47 -153 33 -54 38 -70 45 -155 6 -73 15 -109 40 -161 39 -85 52 -98 122 -134 176 -89 313 -261 280 -350 l-10 -24 85 4 c106 4 190 -12 268 -51 50 -26 73 -31 140 -33 47 -2 95 -9 117 -19 25 -11 64 -16 120 -15 90 0 85 8 -17 29 -81 17 -128 62 -144 141 -14 65 -4 115 48 260 42 119 56 217 42 307 -18 113 -49 172 -142 264 -62 62 -89 98 -117 157 -23 47 -56 95 -87 127 -68 68 -134 92 -290 105 -88 8 -146 19 -220 44 -113 37 -166 44 -244 34z m310 -267 c6 -14 17 -79 25 -144 18 -149 41 -212 96 -264 69 -64 142 -120 135 -102 -3 9 -16 72 -28 140 -12 68 -32 155 -44 193 -13 39 -22 72 -20 74 14 13 68 -181 99 -357 12 -66 22 -93 52 -135 21 -28 77 -128 124 -221 47 -93 90 -171 97 -173 7 -3 5 11 -5 39 -13 35 -17 86 -17 268 -1 188 -4 232 -18 269 -21 54 -14 69 8 17 29 -69 35 -137 29 -301 -9 -221 11 -300 100 -394 41 -44 36 -46 -19 -6 -16 12 -41 25 -55 30 -37 11 -202 109 -190 113 5 2 46 -17 90 -42 43 -25 82 -46 85 -46 4 0 -4 13 -17 29 -13 15 -43 64 -66 108 -47 91 -71 108 -227 162 -99 35 -248 102 -241 109 3 2 41 -13 86 -33 45 -20 125 -50 178 -67 53 -16 107 -36 120 -44 12 -8 22 -12 22 -8 0 22 -89 170 -128 213 l-47 52 -110 19 c-129 23 -244 49 -265 61 -25 14 20 11 76 -6 27 -8 81 -19 119 -24 39 -6 86 -14 105 -17 l35 -6 -48 42 c-60 53 -120 138 -183 259 -27 52 -71 119 -99 149 -27 31 -40 50 -29 44 40 -21 102 -102 149 -193 26 -50 48 -89 49 -87 6 7 -25 225 -38 270 -14 49 -3 56 15 10z" id="4"/>
<path d="M4166 6626 c-24 -25 -38 -56 -55 -120 -20 -75 -30 -94 -73 -141 -58 -63 -128 -101 -218 -116 -36 -6 -73 -19 -84 -28 -24 -21 -58 -90 -86 -176 -30 -93 -44 -119 -101 -190 -68 -84 -93 -162 -94 -290 0 -172 33 -231 173 -303 95 -50 231 -90 242 -72 10 16 -4 66 -46 159 -19 42 -26 66 -17 53 10 -12 36 -63 58 -112 21 -48 43 -86 48 -83 25 16 -34 214 -94 316 -48 81 -46 101 2 26 33 -52 98 -210 99 -241 1 -48 39 -23 60 39 11 30 7 42 -38 137 -28 58 -63 124 -79 148 -42 61 -49 77 -19 45 31 -34 96 -143 130 -220 29 -66 46 -73 46 -18 0 47 -27 137 -80 269 -22 53 -33 89 -26 79 19 -24 93 -212 109 -278 16 -62 33 -68 60 -22 17 30 18 41 8 120 -6 49 -10 99 -10 113 2 44 28 -93 29 -147 0 -56 12 -67 31 -31 11 21 8 204 -6 368 -4 50 -3 49 11 -20 8 -41 18 -128 22 -193 4 -66 11 -118 17 -118 6 -1 19 11 30 26 15 20 21 49 26 123 l6 97 0 -100 c0 -54 4 -100 10 -102 10 -4 51 64 63 105 8 25 8 25 9 4 1 -13 -6 -36 -14 -52 -9 -17 -12 -30 -7 -30 26 0 79 99 112 208 12 40 24 71 26 69 9 -8 -17 -100 -46 -169 -29 -67 -31 -96 -8 -82 6 4 37 61 70 128 32 67 56 110 52 96 -10 -37 -54 -142 -70 -165 -27 -37 -17 -47 25 -25 43 22 75 58 122 141 16 30 27 43 24 29 -4 -14 -20 -49 -36 -77 -16 -29 -25 -53 -21 -53 5 0 27 13 49 29 35 26 46 44 81 133 22 57 44 117 50 133 6 17 11 22 11 13 1 -22 -45 -149 -75 -210 -14 -27 -22 -48 -20 -48 2 0 24 9 49 19 30 13 46 27 50 43 4 12 31 61 62 107 73 110 100 197 92 295 -10 112 -23 141 -114 238 -46 49 -83 93 -83 98 0 5 -25 21 -55 36 -43 20 -65 25 -96 21 -22 -3 -43 -8 -46 -10 -3 -3 0 -29 6 -57 14 -67 12 -202 -4 -265 l-13 -50 6 55 c12 99 6 242 -12 284 -22 53 -27 42 -10 -24 8 -30 13 -88 12 -130 l-1 -75 -7 90 c-8 96 -18 133 -44 154 -26 22 -33 5 -24 -56 4 -32 5 -94 1 -138 l-8 -80 -5 125 c-4 69 -9 130 -12 136 -4 6 -23 8 -43 6 -32 -4 -36 -7 -30 -26 3 -11 8 -70 10 -131 4 -108 4 -108 -5 -29 -13 120 -25 158 -65 193 -45 39 -60 39 -99 -3z" id="5"/>
<path d="M3005 6640 c-33 -5 -87 -20 -120 -35 -33 -14 -95 -31 -138 -36 -102 -13 -113 -17 -188 -84 -35 -31 -74 -62 -86 -67 -13 -6 -23 -15 -23 -19 0 -13 68 -62 124 -89 44 -22 55 -34 84 -90 42 -82 55 -96 111 -117 70 -26 87 -40 130 -107 22 -35 54 -75 71 -89 28 -24 40 -27 101 -27 85 0 123 15 214 84 76 58 114 79 159 90 l29 7 -34 22 c-41 26 -131 27 -198 3 -49 -18 -70 -21 -56 -7 14 13 114 41 148 41 l30 0 -39 43 c-22 24 -47 53 -56 65 -23 28 -62 28 -159 1 -119 -32 -117 -32 -89 -15 32 20 115 45 158 48 118 8 -51 48 -210 49 -110 0 -119 2 -85 12 l38 12 -76 34 c-42 18 -74 36 -71 38 2 3 47 -11 99 -31 52 -20 121 -39 152 -42 l56 -7 -40 63 c-38 58 -48 80 -37 80 3 0 20 -26 40 -58 19 -32 43 -65 53 -74 15 -14 133 -52 133 -43 0 1 -7 19 -15 38 -8 20 -15 51 -14 69 1 32 1 31 13 -12 20 -69 60 -141 111 -197 43 -49 111 -100 120 -91 3 2 -5 23 -17 47 -15 30 -22 67 -24 120 l-4 76 14 -80 c23 -139 62 -192 156 -215 28 -7 53 -10 55 -8 3 2 7 18 11 34 5 25 1 32 -24 46 -48 29 -62 72 -62 192 0 87 -4 114 -20 146 -26 51 -49 66 -150 97 -47 14 -105 36 -131 48 -67 35 -153 46 -244 35z" id="6"/>
<path d="M4075 6570 c-32 -33 -17 -42 15 -10 17 17 27 40 17 40 -2 0 -16 -13 -32 -30z" id="7"/>
<path d="M4045 6511 c-17 -10 -43 -32 -57 -49 -26 -31 -63 -123 -56 -142 6 -20 102 65 124 110 25 51 38 100 27 100 -5 0 -22 -8 -38 -19z" id="8"/>
<path d="M8131 6317 c-7 -19 -28 -53 -47 -76 -62 -72 -160 -118 -354 -166 -227 -56 -286 -96 -304 -205 -4 -20 -22 -60 -41 -89 -33 -52 -55 -124 -55 -179 0 -64 21 -103 104 -191 89 -94 101 -117 114 -226 l8 -70 13 74 c8 44 11 111 8 165 -4 77 -10 103 -41 171 -27 60 -36 93 -35 130 l1 50 12 -60 c7 -33 27 -92 44 -132 18 -39 32 -76 32 -82 0 -23 16 -10 28 22 6 17 30 54 53 82 73 88 83 117 73 210 -13 126 -10 196 9 239 23 52 31 41 11 -15 -13 -35 -14 -61 -8 -129 10 -111 10 -180 0 -205 -4 -11 16 5 46 36 36 38 75 97 121 185 37 71 79 143 93 159 22 26 21 23 -6 -25 -35 -61 -100 -195 -100 -206 0 -3 6 -2 13 3 6 6 44 20 82 33 42 13 84 35 104 54 19 17 30 24 26 16 -21 -39 -54 -61 -129 -86 -67 -22 -89 -35 -124 -73 -24 -25 -71 -75 -105 -109 l-62 -64 35 6 c19 3 79 13 133 21 54 8 114 22 134 30 52 22 52 11 0 -14 -24 -11 -90 -28 -148 -36 -151 -22 -157 -24 -194 -56 -41 -37 -64 -93 -72 -178 l-6 -65 42 36 c40 34 53 39 220 84 9 2 -6 -7 -34 -21 -27 -13 -59 -25 -70 -25 -36 -1 -99 -36 -132 -73 -22 -26 -33 -50 -38 -84 -3 -26 -14 -72 -24 -100 -10 -29 -15 -53 -11 -53 17 0 47 37 60 75 24 73 56 103 169 157 58 27 139 66 180 85 138 66 192 143 225 321 8 42 22 97 31 122 12 32 15 62 11 105 -3 33 -10 112 -15 175 -6 79 -17 140 -35 195 -15 44 -29 81 -31 83 -1 2 -8 -12 -14 -31z" id="9"/>
<path d="M5152 6156 c-23 -8 -58 -26 -77 -41 -20 -14 -61 -38 -93 -52 -82 -37 -146 -87 -181 -140 -38 -56 -40 -77 -8 -68 52 15 151 67 195 102 l47 37 -45 -47 c-37 -40 -41 -47 -24 -47 24 0 89 44 153 104 45 41 45 41 19 6 -14 -19 -49 -51 -77 -70 l-52 -35 30 -9 c38 -11 93 12 164 67 27 21 51 37 53 34 5 -5 -110 -93 -130 -100 -6 -2 -8 -7 -5 -11 11 -11 70 18 117 58 24 20 47 36 50 36 11 -1 -82 -80 -100 -86 -10 -3 -18 -10 -18 -15 0 -15 39 -10 80 11 48 25 52 20 8 -8 l-32 -21 26 -6 c32 -8 106 23 160 65 20 17 40 30 44 30 15 0 -23 -33 -79 -68 l-61 -37 70 -11 c38 -5 75 -14 82 -18 48 -29 106 51 105 144 0 64 -32 146 -70 182 -23 22 -33 23 -166 25 -98 2 -155 -2 -185 -11z m263 -155 c-3 -5 -24 -24 -48 -41 l-42 -32 45 41 c46 41 56 48 45 32z" id="10"/>
<path d="M6128 6008 c23 -56 26 -80 30 -218 2 -111 8 -165 19 -189 11 -25 13 -47 8 -85 -4 -28 -7 -92 -6 -142 3 -108 -14 -153 -84 -229 -24 -26 -41 -53 -39 -60 3 -6 20 -19 38 -28 56 -26 102 -74 126 -129 19 -43 23 -73 25 -153 1 -132 18 -169 95 -207 39 -20 88 -33 165 -43 271 -38 326 -60 458 -184 l37 -35 0 35 c0 19 -6 43 -14 54 -21 31 -56 132 -72 208 -8 39 -20 77 -27 85 -25 31 -98 54 -172 55 -40 1 -71 5 -68 10 7 12 136 7 176 -7 21 -8 48 -22 59 -33 21 -18 21 -18 14 27 -10 69 -55 150 -101 182 -60 40 -122 52 -249 45 -81 -4 -104 -3 -86 5 14 5 70 12 125 15 79 4 108 2 139 -11 21 -9 40 -16 43 -16 2 0 -42 52 -99 116 -112 126 -142 147 -268 184 -81 24 -117 44 -60 34 34 -6 144 -42 184 -59 17 -7 18 -6 11 11 -5 10 -23 61 -41 112 -38 108 -46 119 -117 157 -59 32 -141 95 -133 103 3 2 21 -7 39 -21 19 -14 58 -40 87 -57 51 -30 52 -30 46 -8 -4 13 -14 57 -23 98 -20 97 -48 151 -118 228 -31 34 -52 62 -47 62 15 0 109 -107 137 -155 13 -22 33 -84 45 -137 12 -54 25 -100 30 -103 4 -3 11 21 15 53 3 32 11 65 16 73 7 9 8 -6 2 -46 -13 -105 -9 -135 39 -248 51 -120 101 -207 137 -240 23 -21 24 -21 16 -2 -12 28 -17 356 -6 330 5 -11 10 -79 10 -151 1 -179 14 -219 94 -296 l62 -58 6 67 c4 38 16 91 27 118 25 61 27 48 6 -36 -23 -89 -15 -188 21 -262 l27 -59 23 39 c12 21 47 76 79 122 67 100 89 169 89 272 -1 165 -66 257 -242 340 -316 151 -297 137 -445 313 -58 69 -144 135 -238 182 -37 19 -69 34 -72 34 -2 0 8 -28 22 -62z" id="11"/>
<path d="M5667 5930 c-37 -11 -53 -25 -99 -88 l-39 -53 23 -29 c27 -34 37 -37 39 -12 1 9 5 -1 9 -23 6 -39 7 -40 18 -15 10 22 11 20 5 -17 -3 -23 -2 -50 1 -60 6 -14 14 -6 37 37 46 84 66 95 23 13 -31 -60 -35 -75 -24 -88 19 -23 26 -19 50 29 12 25 39 64 62 88 42 45 38 37 -24 -53 -41 -58 -50 -103 -21 -97 10 2 34 28 54 58 20 30 47 64 59 75 13 11 6 -4 -17 -35 -57 -77 -74 -113 -62 -131 8 -11 14 -9 32 15 52 69 76 88 35 29 -23 -35 -38 -66 -35 -70 4 -4 31 17 60 45 29 29 56 52 60 52 4 0 -8 -14 -28 -31 -38 -33 -65 -77 -65 -104 0 -13 4 -14 21 -4 21 11 21 10 5 -12 -14 -21 -22 -59 -12 -59 2 0 24 11 47 25 61 34 73 31 17 -4 -40 -25 -47 -36 -56 -78 -6 -26 -9 -49 -7 -51 2 -2 14 3 27 12 39 27 43 18 5 -11 -37 -29 -57 -77 -39 -95 6 -6 21 -2 43 11 46 28 60 27 19 -1 -37 -25 -58 -53 -48 -64 4 -3 20 3 36 15 42 30 54 26 15 -5 -53 -41 -44 -54 37 -54 97 0 118 13 175 111 l48 81 2 148 c2 95 -1 156 -9 171 -6 12 -31 37 -56 54 -37 26 -49 42 -67 94 -12 34 -29 71 -38 82 -24 25 -96 59 -127 59 -14 0 -50 11 -80 25 -57 27 -67 28 -111 15z" id="12"/>
<path d="M4930 5878 c-53 -8 -242 -79 -330 -123 -78 -39 -83 -50 -90 -188 -3 -67 -12 -132 -18 -145 -8 -13 -12 -49 -11 -85 3 -84 -6 -131 -36 -184 -14 -25 -25 -46 -25 -47 0 0 25 1 55 2 40 3 63 -1 82 -13 20 -13 31 -15 49 -6 55 25 111 144 130 276 3 28 9 44 11 38 8 -21 -16 -149 -37 -207 -12 -30 -38 -74 -59 -98 -38 -42 -39 -44 -23 -70 9 -16 21 -28 27 -28 32 0 84 90 114 197 23 80 28 54 6 -30 -18 -71 -49 -133 -83 -170 -25 -26 -26 -29 -11 -55 8 -15 24 -28 35 -30 26 -4 88 59 122 123 26 49 26 54 23 195 -7 253 -6 274 8 323 22 77 87 140 195 191 50 24 115 52 144 62 28 10 52 21 52 24 0 3 -30 13 -67 23 -61 15 -91 20 -183 31 -14 2 -50 -1 -80 -6z" id="13"/>
<path d="M982 5865 c-65 -18 -81 -26 -158 -81 -34 -24 -97 -55 -140 -70 -44 -14 -97 -35 -119 -46 -130 -66 -225 -201 -299 -423 -17 -53 -42 -102 -75 -145 -27 -36 -48 -66 -47 -68 2 -1 29 10 61 24 50 23 64 25 109 18 28 -4 128 -8 221 -9 219 -1 225 -4 434 -168 102 -80 176 -116 271 -129 44 -7 82 -9 86 -6 3 4 -5 22 -19 40 -62 83 -93 181 -78 249 14 61 48 103 123 149 37 23 68 46 68 51 0 11 -41 -9 -102 -50 -41 -27 -242 -101 -222 -82 5 6 45 24 89 40 44 17 105 46 135 65 31 19 68 38 83 41 15 4 27 11 27 15 0 4 -17 23 -37 41 -76 66 -235 118 -305 99 -19 -6 -55 -32 -87 -64 -42 -44 -69 -61 -133 -86 -44 -17 -82 -29 -84 -27 -3 2 32 20 76 40 46 21 96 52 118 74 l37 38 -186 -1 c-102 -1 -192 -4 -200 -8 -8 -4 -5 0 6 9 17 13 41 16 140 13 102 -3 127 0 163 16 23 10 42 22 42 26 0 11 -198 80 -230 80 -16 0 -30 5 -30 11 0 20 90 -1 175 -39 l80 -37 140 3 c77 1 155 -2 173 -7 17 -5 32 -6 32 -2 0 17 -63 102 -102 136 -22 21 -68 50 -102 66 -34 15 -54 28 -46 28 20 1 113 -43 152 -71 17 -12 52 -54 78 -94 25 -40 77 -101 114 -135 l67 -62 27 25 c34 32 65 48 91 48 35 0 32 17 -15 87 -60 90 -61 92 -33 66 13 -12 40 -48 59 -80 39 -66 46 -73 77 -73 28 0 77 -42 93 -80 11 -26 18 -30 51 -30 84 0 110 31 90 108 -23 85 -139 197 -281 271 -41 22 -117 67 -169 100 -136 88 -182 103 -321 107 -81 3 -131 -1 -168 -11z" id="14"/>
<path d="M5170 5775 c-150 -65 -175 -79 -217 -118 -44 -41 -42 -53 5 -23 46 31 169 72 242 81 78 10 59 -1 -35 -20 -98 -21 -209 -71 -252 -114 -44 -44 -45 -73 -2 -36 120 100 386 155 538 110 55 -17 80 -38 201 -175 96 -108 103 -123 23 -50 -39 36 -85 84 -102 107 -38 52 -91 88 -154 104 -75 18 -236 7 -333 -25 -123 -40 -228 -124 -211 -170 5 -13 17 -7 69 32 78 58 191 111 255 118 67 8 122 -9 195 -61 35 -25 92 -65 128 -89 133 -90 148 -123 141 -311 -1 -11 2 -39 5 -63 6 -43 6 -43 28 -25 l21 18 -21 -25 c-12 -14 -25 -35 -29 -47 -3 -13 -11 -23 -16 -23 -5 0 -9 -4 -9 -10 0 -21 24 -8 61 32 22 24 39 39 39 33 0 -5 -17 -26 -37 -47 -40 -41 -38 -58 4 -39 28 13 28 13 9 -8 -26 -28 -13 -38 21 -16 l28 17 -22 -22 c-20 -22 -21 -24 -5 -57 10 -20 21 -31 29 -28 40 16 44 15 16 -4 -35 -22 -46 -48 -15 -36 9 4 33 8 52 11 19 2 26 1 15 -2 -11 -3 -32 -10 -47 -16 -34 -13 -38 -38 -5 -31 19 4 20 3 5 -7 -28 -18 -21 -26 20 -23 l37 3 -35 -13 c-23 -9 -36 -21 -38 -36 -4 -28 15 -52 36 -44 10 4 6 -3 -8 -15 l-25 -21 55 -2 55 -1 -52 -12 c-28 -6 -62 -21 -75 -32 -13 -12 -33 -25 -45 -28 -29 -9 -88 -83 -71 -89 7 -2 0 -8 -17 -12 -36 -10 -75 -34 -75 -46 0 -5 26 -9 58 -10 31 0 66 -4 77 -9 11 -4 -14 -6 -60 -3 -59 4 -90 1 -117 -10 -21 -9 -38 -20 -38 -24 0 -4 18 -23 40 -41 38 -31 43 -33 78 -22 139 41 142 43 235 133 51 48 114 102 140 120 61 40 87 88 87 161 0 52 -3 59 -47 108 -25 29 -54 58 -63 63 -24 15 -94 69 -101 78 -3 4 -2 31 2 60 7 51 1 100 -21 187 -9 34 -9 64 0 122 9 55 9 86 2 105 -6 16 -13 42 -17 58 -9 41 -59 91 -122 119 -45 21 -55 31 -79 81 -31 67 -75 120 -116 141 -21 11 -193 49 -193 43 0 0 -56 -25 -125 -54z m745 -1155 c25 -11 -1 -11 -35 0 -20 6 -21 8 -5 8 11 0 29 -3 40 -8z" id="15"/>
<path d="M4389 5661 c-122 -47 -220 -113 -306 -205 -67 -71 -134 -184 -149 -248 l-6 -28 36 15 c102 43 252 -12 270 -98 3 -15 8 -38 11 -52 5 -22 8 -23 33 -14 46 18 132 90 158 134 38 65 28 72 -22 16 -26 -29 -49 -49 -52 -47 -3 3 13 25 36 50 41 45 72 95 72 118 0 7 -9 0 -19 -17 -10 -16 -38 -48 -62 -70 -44 -41 -37 -24 12 30 28 30 64 103 56 112 -3 2 -19 -14 -37 -37 -17 -22 -42 -45 -53 -51 -15 -8 -11 1 14 27 60 65 90 111 105 160 8 26 12 49 10 51 -2 2 -15 -15 -29 -39 -14 -24 -42 -59 -62 -78 -34 -32 -32 -28 14 33 30 40 57 89 65 120 18 63 24 150 11 153 -6 1 -53 -14 -106 -35z" id="16"/>
<path d="M5160 5569 c-64 -13 -160 -62 -211 -109 l-44 -39 35 -1 c76 -2 162 -52 196 -115 10 -19 22 -35 26 -35 9 0 28 68 28 103 0 16 4 26 10 22 5 -3 7 -11 5 -18 -2 -7 -6 -36 -10 -65 -6 -51 -5 -53 14 -42 11 6 32 31 47 55 14 25 27 45 29 45 7 0 -17 -60 -26 -66 -14 -8 -10 -24 6 -24 9 0 36 19 62 43 45 41 51 35 10 -10 -17 -19 -18 -23 -4 -23 29 0 63 18 95 50 18 17 32 27 32 21 0 -5 -17 -23 -37 -40 l-38 -31 28 0 c15 0 47 9 70 20 l42 21 -27 -23 c-33 -28 -35 -38 -7 -38 30 0 58 -17 106 -63 53 -50 68 -42 58 30 -11 83 -40 121 -143 189 -52 34 -106 73 -120 87 -58 54 -144 75 -232 56z" id="17"/>
<path d="M1050 5445 c-35 -9 -69 -20 -75 -26 -7 -8 -4 -10 10 -6 172 49 275 31 411 -74 50 -38 74 -48 74 -30 0 21 -119 117 -161 130 -66 20 -185 22 -259 6z" id="18"/>
<path d="M4877 5393 c-2 -5 -2 -70 1 -145 5 -156 7 -160 77 -113 20 15 39 24 42 22 7 -8 -61 -56 -95 -68 -20 -7 -34 -21 -41 -41 -17 -48 -15 -51 32 -45 42 5 42 5 12 -9 -16 -7 -39 -13 -51 -14 -23 0 -100 -65 -96 -80 1 -6 -10 -10 -25 -10 -42 0 -14 -20 49 -35 51 -13 52 -13 16 -14 -21 -1 -38 -6 -38 -11 0 -15 61 -50 90 -51 14 0 34 -5 45 -10 15 -7 9 -8 -22 -5 -29 3 -43 0 -43 -8 0 -17 58 -70 98 -91 19 -9 32 -19 29 -21 -3 -3 -19 2 -37 11 -18 9 -34 14 -37 11 -9 -8 8 -45 35 -79 l26 -32 -25 23 c-14 12 -28 22 -32 22 -14 0 -7 -117 7 -129 22 -18 79 10 103 50 24 40 35 149 23 225 -12 72 20 186 65 234 69 75 90 228 42 314 -33 61 -114 106 -188 106 -32 0 -60 -3 -62 -7z m30 -494 c-11 -6 -47 -13 -80 -15 l-62 -3 70 13 c91 17 93 17 72 5z" id="19"/>
<path d="M1562 5369 c-26 -13 -60 -44 -89 -81 -28 -37 -71 -76 -113 -103 -87 -56 -113 -97 -114 -179 -1 -48 5 -74 27 -118 38 -77 116 -161 191 -204 33 -20 85 -59 114 -87 28 -28 52 -48 52 -45 0 4 -16 37 -35 75 -19 37 -35 75 -34 83 0 8 11 -5 23 -30 51 -104 78 -152 82 -148 2 3 -9 34 -25 69 -47 104 -91 272 -96 368 -4 83 -4 84 5 21 15 -112 39 -211 76 -318 20 -56 38 -101 40 -99 2 2 -5 39 -16 82 -11 43 -19 106 -19 139 1 56 2 52 15 -44 7 -58 20 -123 29 -145 12 -31 14 -33 10 -10 -4 17 -8 84 -10 150 l-3 120 7 -112 c4 -62 10 -115 14 -119 4 -4 7 4 7 17 1 91 55 239 131 355 50 77 52 123 9 183 -17 23 -45 70 -63 104 -50 95 -123 121 -215 76z m-25 -281 c-2 -13 -4 -3 -4 22 0 25 2 35 4 23 2 -13 2 -33 0 -45z" id="20"/>
<path d="M1865 5279 c-27 -6 -51 -12 -53 -14 -8 -8 25 -45 40 -45 10 0 53 10 95 21 54 15 94 20 133 16 74 -6 208 -60 272 -108 54 -40 88 -50 88 -25 0 26 -77 81 -167 121 -87 39 -90 39 -223 41 -74 2 -157 -2 -185 -7z" id="21"/>
<path d="M5237 5256 c-51 -18 -67 -34 -67 -63 0 -20 4 -24 18 -18 73 31 106 38 192 39 52 0 103 -4 112 -9 11 -7 -20 -10 -100 -10 -102 0 -123 -3 -164 -23 -41 -21 -69 -54 -55 -68 2 -3 21 5 41 17 23 13 61 23 100 26 119 10 229 -42 276 -130 38 -72 60 -60 60 34 0 27 -6 64 -13 82 -21 48 -88 104 -148 121 -64 19 -200 20 -252 2z" id="22"/>
<path d="M2005 5234 c-11 -3 -44 -12 -74 -20 l-54 -15 6 -51 c4 -28 8 -53 11 -55 2 -2 21 0 42 6 47 12 99 2 149 -29 33 -20 37 -21 53 -6 26 23 87 46 123 46 17 0 47 -9 65 -21 34 -21 54 -19 54 6 0 18 -98 81 -173 112 -60 25 -159 38 -202 27z" id="23"/>
<path d="M2430 5170 c39 -38 43 -39 68 -26 15 7 41 17 57 21 30 8 29 8 -25 26 -30 10 -74 18 -98 18 l-44 1 42 -40z" id="24"/>
<path d="M3640 5181 c-68 -15 -241 -84 -280 -112 -47 -34 -53 -45 -75 -129 -20 -79 -43 -124 -102 -203 -57 -77 -103 -172 -103 -213 0 -17 7 -49 16 -70 13 -31 15 -57 9 -125 -8 -114 2 -150 75 -248 80 -108 100 -150 100 -209 0 -36 -7 -59 -25 -87 -34 -49 -40 -85 -25 -140 16 -56 59 -96 135 -124 77 -29 110 -47 136 -74 22 -23 65 -109 115 -232 51 -125 152 -199 249 -181 19 4 65 28 103 53 37 26 95 55 129 65 74 22 167 88 217 154 59 77 85 205 46 225 -8 4 -46 22 -85 39 -38 17 -80 41 -92 52 -13 12 -25 20 -27 17 -2 -2 0 -27 5 -54 10 -52 4 -164 -12 -199 -7 -16 -8 -13 -3 12 19 104 -10 278 -55 334 -19 23 -20 23 -14 -72 3 -52 1 -111 -4 -130 -8 -28 -10 -12 -11 81 -1 88 -5 126 -18 155 -15 34 -18 36 -21 17 -7 -35 -23 -27 -23 11 0 32 -34 96 -55 103 -6 2 -10 -27 -10 -74 0 -47 -7 -101 -18 -137 -24 -77 -33 -66 -12 15 31 119 16 223 -39 268 -14 12 -16 5 -16 -72 0 -92 -23 -183 -67 -270 -35 -71 -37 -52 -3 30 56 134 73 242 51 336 -10 41 -50 93 -62 80 -4 -5 -14 -35 -24 -68 -25 -89 -79 -196 -122 -241 -21 -22 -30 -31 -21 -20 68 85 148 276 148 354 0 35 -3 32 -51 -58 -27 -52 -59 -104 -71 -115 l-21 -20 20 30 c35 52 92 172 102 213 16 73 -5 70 -43 -8 -38 -77 -90 -152 -126 -185 -13 -11 3 16 35 60 76 105 115 191 115 252 0 52 -16 119 -29 127 -5 3 -25 -21 -45 -54 -46 -74 -128 -164 -190 -208 -33 -24 -18 -5 56 70 104 104 168 201 168 254 0 32 -10 30 -46 -7 -16 -17 -38 -35 -49 -41 -12 -6 -6 5 16 28 20 22 45 53 56 69 22 33 46 96 39 103 -3 2 -46 -39 -97 -92 -93 -98 -219 -200 -290 -237 -21 -10 -39 -18 -39 -15 0 2 45 34 100 71 152 101 333 292 318 336 -2 6 -28 -9 -58 -32 l-55 -42 57 59 c78 81 146 230 75 167 -53 -48 -242 -161 -253 -151 -2 2 33 23 76 48 139 76 227 154 293 257 31 50 57 96 57 102 0 7 -19 -1 -42 -17 -45 -31 -182 -102 -195 -102 -5 0 25 18 65 40 118 65 202 126 202 149 0 21 -199 45 -260 32z m-105 -607 c-33 -28 -150 -91 -141 -76 3 6 29 22 58 37 29 15 64 36 78 46 37 27 40 22 5 -7z m455 -1007 c-20 -79 -116 -294 -126 -284 -3 3 10 36 29 73 46 91 96 252 105 333 l7 66 3 -53 c2 -31 -6 -87 -18 -135z" id="25"/>
<path d="M3991 5179 c-53 -16 -76 -35 -90 -76 -8 -21 -33 -66 -58 -100 -24 -35 -66 -109 -93 -167 -58 -120 -66 -185 -30 -243 21 -35 17 -45 -6 -15 -12 15 -13 15 -14 1 0 -23 92 -111 173 -165 37 -25 67 -48 67 -50 0 -14 -107 56 -165 108 -69 61 -88 67 -93 31 -6 -40 104 -142 228 -212 119 -68 144 -93 39 -40 -88 44 -145 83 -208 143 -52 50 -53 50 -47 21 20 -86 110 -177 251 -255 42 -23 74 -44 71 -47 -12 -12 -176 86 -230 139 -33 32 -62 56 -64 53 -13 -13 28 -73 87 -126 85 -79 231 -151 374 -185 86 -20 93 -23 43 -18 -93 9 -205 42 -272 79 -76 43 -180 120 -188 140 -12 31 -23 14 -16 -25 10 -57 47 -99 144 -164 95 -64 170 -96 295 -125 84 -20 123 -36 60 -25 -147 26 -286 77 -356 130 -36 27 -52 32 -33 9 25 -30 142 -107 213 -140 40 -19 65 -34 57 -35 -8 0 -39 11 -68 25 -65 30 -76 31 -60 5 27 -43 155 -84 328 -105 65 -8 88 -13 60 -14 -61 -1 -225 24 -279 43 -59 21 -60 21 -23 -15 17 -17 58 -42 89 -56 37 -15 47 -23 28 -19 -16 2 -38 8 -47 11 -13 5 -18 2 -18 -9 0 -22 85 -63 182 -86 55 -13 122 -20 198 -21 107 -1 111 -2 65 -12 -59 -12 -225 3 -292 27 -24 8 -43 11 -43 6 0 -12 99 -48 200 -72 122 -29 316 -29 424 0 100 28 129 27 192 -2 60 -28 134 -43 134 -27 0 5 -19 23 -42 39 -82 56 -144 81 -244 97 -54 9 -112 24 -129 33 -16 10 -44 42 -61 72 -38 67 -64 93 -128 134 l-50 31 3 60 c5 132 -40 284 -96 323 -82 57 -78 47 -78 189 0 153 -12 184 -99 251 -31 24 -56 51 -57 60 -1 9 0 74 1 144 2 116 0 131 -21 168 -13 23 -37 49 -54 60 -38 23 -110 32 -154 19z" id="26"/>
<path d="M2584 5155 c-119 -26 -228 -92 -254 -155 -11 -25 -10 -32 8 -55 l21 -26 15 28 c24 46 87 100 151 129 85 40 251 46 382 15 50 -11 109 -21 131 -21 23 0 85 -16 139 -35 73 -26 99 -32 105 -22 4 6 8 14 8 17 0 9 -310 109 -386 125 -85 18 -238 18 -320 0z" id="27"/>
<path d="M5250 5121 c-33 -12 -67 -33 -87 -55 -30 -32 -44 -64 -25 -54 60 31 97 41 162 44 l75 3 -67 -9 c-87 -13 -170 -44 -208 -80 -49 -45 -35 -51 36 -14 36 19 73 34 82 34 9 -1 -10 -14 -43 -29 -65 -31 -132 -91 -142 -128 -3 -13 -3 -26 -1 -28 2 -3 28 18 57 45 162 152 341 160 456 20 11 -14 0 -7 -24 14 -92 80 -184 91 -304 34 -103 -50 -199 -151 -183 -194 8 -22 35 -5 55 35 11 20 30 46 43 58 25 24 136 78 144 70 2 -2 -17 -13 -44 -24 -60 -25 -122 -78 -122 -105 0 -12 5 -18 13 -15 158 70 268 92 340 68 101 -34 159 -118 137 -200 -21 -79 -100 -134 -253 -176 -45 -12 -81 -26 -79 -31 3 -10 50 -11 107 -2 27 5 17 -1 -28 -15 -54 -18 -65 -25 -55 -35 13 -13 169 -16 200 -4 23 9 92 67 147 124 25 25 61 53 79 62 40 21 56 57 43 100 -5 17 -12 56 -16 86 -16 137 -22 150 -91 204 -28 23 -61 60 -72 83 -52 104 -208 158 -332 114z" id="28"/>
<path d="M4425 5091 c-53 -13 -164 -84 -171 -109 -4 -13 -4 -25 -1 -29 3 -3 34 4 68 16 104 35 206 22 274 -34 l30 -25 -60 28 c-76 34 -196 38 -262 8 -59 -26 -75 -68 -17 -45 16 7 67 12 114 12 133 1 193 -33 237 -133 14 -30 44 -75 68 -100 39 -41 112 -187 80 -160 -7 6 -20 32 -30 58 -10 26 -36 66 -58 89 -22 23 -56 72 -76 109 -45 82 -90 111 -192 120 -82 8 -174 -15 -184 -47 -9 -29 -2 -32 42 -20 137 38 250 -41 284 -199 10 -46 16 -54 65 -87 92 -61 127 -167 88 -268 -27 -68 -24 -77 26 -92 33 -10 63 -32 115 -83 39 -38 90 -78 116 -89 51 -23 159 -39 159 -24 0 5 -18 27 -41 48 -53 52 -74 94 -105 213 -31 116 -44 144 -97 201 l-39 43 6 97 7 96 -60 70 c-33 39 -72 84 -86 100 -14 17 -49 68 -78 115 -30 49 -65 91 -82 102 -37 21 -99 30 -140 19z" id="29"/>
<path d="M1910 5077 c-39 -20 -123 -163 -160 -274 -27 -80 -33 -115 -34 -190 -1 -76 2 -95 17 -110 16 -16 17 -15 17 22 0 65 27 172 61 246 18 38 34 67 36 65 3 -2 -5 -22 -16 -44 -39 -77 -66 -199 -61 -282 1 -31 4 -27 26 40 13 41 33 86 44 100 16 20 15 14 -7 -35 -14 -32 -27 -73 -28 -90 0 -16 -6 -40 -13 -52 -12 -22 -16 -65 -7 -75 3 -3 29 3 58 13 39 13 95 18 229 21 209 5 212 7 263 107 25 52 47 78 85 106 69 51 78 97 29 160 -32 40 -75 55 -145 50 -42 -3 -52 -2 -34 4 14 5 40 9 58 10 17 1 32 5 32 10 0 4 -19 30 -42 56 -44 50 -89 75 -135 75 -28 0 -124 -43 -173 -77 l-25 -17 24 27 c14 15 50 39 80 54 l56 26 -70 34 c-73 35 -123 41 -165 20z m65 -369 c-43 -32 -93 -86 -126 -138 -16 -25 -29 -40 -29 -35 0 12 44 80 74 114 22 25 95 81 105 81 3 0 -7 -10 -24 -22z" id="30"/>
<path d="M2214 5081 c-37 -9 -77 -35 -67 -44 3 -4 20 -7 37 -7 17 0 51 -9 75 -20 24 -11 45 -20 47 -20 9 0 34 61 29 70 -5 8 -73 31 -85 29 -3 -1 -19 -4 -36 -8z" id="31"/>
<path d="M5865 5070 c-1 -3 -4 -39 -6 -80 -4 -71 -3 -75 19 -78 12 -2 22 -10 22 -17 0 -28 31 -45 83 -46 29 -1 40 -4 25 -6 -47 -7 -25 -43 27 -44 28 0 29 -1 7 -10 -27 -10 -21 -29 10 -29 17 0 18 -3 8 -15 -12 -15 -14 -14 55 -28 12 -3 7 -5 -12 -6 -27 -1 -33 -5 -33 -22 0 -19 4 -21 38 -16 l37 6 -32 -11 c-18 -6 -33 -15 -33 -21 0 -5 14 -7 33 -4 30 5 29 4 -11 -14 -58 -27 -44 -43 18 -20 28 11 48 16 45 12 -2 -5 -26 -16 -52 -26 -72 -27 -106 -64 -70 -78 6 -3 -1 -6 -16 -6 -32 -1 -70 -18 -63 -29 3 -4 22 -9 42 -10 61 -4 53 -12 -12 -12 -51 0 -65 -4 -94 -28 -34 -29 -35 -52 0 -52 10 0 21 -4 25 -9 3 -6 -18 -9 -52 -8 -79 3 -79 -19 0 -46 72 -24 69 -34 -4 -13 -64 19 -80 20 -103 3 -17 -12 -13 -16 38 -47 68 -41 66 -51 -3 -16 -50 26 -85 32 -115 20 -27 -10 -18 -22 32 -48 26 -13 56 -34 67 -47 l20 -23 -30 19 c-56 36 -140 75 -162 75 -43 0 -23 -28 36 -50 33 -12 68 -31 78 -42 21 -24 23 -25 -80 26 -42 22 -80 37 -82 34 -3 -3 2 -24 10 -48 8 -23 15 -60 15 -81 0 -33 4 -40 25 -45 14 -3 66 2 116 11 62 12 115 16 170 12 84 -5 103 2 67 27 -20 14 -21 18 -9 58 9 31 29 59 72 98 44 41 62 67 73 103 9 30 32 67 63 101 56 61 79 123 69 183 -4 21 -11 85 -15 143 -10 154 -55 233 -156 276 -38 16 -193 35 -200 24z m225 -210 c-8 -5 -24 -9 -35 -9 l-20 0 20 9 c11 5 27 9 35 9 13 1 13 0 0 -9z" id="32"/>
<path d="M7645 5051 c-16 -4 -48 -17 -70 -28 -22 -12 -74 -31 -115 -43 -157 -46 -184 -82 -185 -250 0 -63 -4 -124 -10 -135 -7 -16 -3 -15 24 8 30 25 46 32 96 39 16 3 21 13 25 50 3 26 10 51 14 55 5 4 6 -20 2 -54 l-7 -62 33 -6 c56 -11 83 7 118 78 17 36 34 83 37 106 3 22 10 41 14 41 14 0 10 -30 -10 -87 -10 -29 -15 -53 -12 -53 27 1 117 32 133 47 11 10 34 42 50 71 17 28 34 52 40 52 9 0 -14 -43 -54 -102 l-19 -28 24 0 c49 0 130 20 197 50 37 16 77 30 87 30 10 0 -19 -17 -64 -38 -85 -38 -100 -51 -60 -53 12 0 31 -4 42 -8 11 -5 -30 -6 -91 -3 -83 3 -130 0 -187 -12 -76 -17 -110 -36 -65 -36 13 0 48 -7 78 -16 64 -18 137 -26 234 -25 69 1 106 -14 106 -44 0 -6 11 -22 25 -35 32 -30 45 -19 91 72 30 60 40 71 87 94 66 33 117 71 117 88 0 7 -10 17 -23 23 -13 6 -47 33 -77 60 -72 65 -85 72 -175 83 -42 5 -110 24 -153 41 -64 26 -93 32 -172 35 -52 2 -108 0 -125 -5z" id="33"/>
<path d="M2625 4953 c-11 -3 -30 -9 -43 -14 l-24 -9 34 -37 c18 -21 56 -61 84 -90 28 -29 49 -53 46 -53 -18 0 -77 49 -103 86 -40 59 -68 84 -93 84 -31 0 -89 -18 -111 -34 -19 -14 -18 -16 22 -50 45 -39 69 -92 59 -131 -3 -13 -22 -36 -41 -51 l-35 -26 28 -37 c16 -20 44 -61 63 -91 18 -30 47 -69 63 -87 15 -18 24 -33 19 -33 -16 0 -58 51 -116 143 -31 48 -63 87 -71 87 -7 0 -30 -31 -50 -69 -38 -73 -85 -121 -117 -121 -22 0 -25 -15 -4 -23 22 -9 64 -78 89 -148 13 -35 31 -82 40 -104 14 -33 14 -37 1 -21 -8 11 -15 23 -15 28 0 4 -4 8 -10 8 -5 0 -10 -22 -10 -48 0 -59 -52 -236 -77 -264 -21 -23 -75 -52 -117 -62 -51 -12 -114 -47 -130 -71 -15 -23 -14 -27 19 -83 18 -32 63 -90 98 -128 l64 -69 11 63 c29 165 141 289 325 358 219 83 268 136 381 420 71 177 96 276 96 374 0 139 -50 225 -159 274 -61 27 -171 42 -216 29z" id="34"/>
<path d="M4273 4810 c-13 -5 -23 -13 -23 -17 0 -5 27 -32 59 -60 78 -69 91 -107 91 -265 l0 -117 28 -15 c74 -39 129 -133 139 -241 6 -64 6 -65 32 -57 69 19 116 0 282 -113 165 -113 309 -157 515 -157 111 0 126 2 174 26 28 14 58 26 65 26 7 0 37 20 65 44 35 30 83 57 144 81 89 34 144 64 119 65 -19 0 -163 -59 -201 -82 -18 -11 -35 -18 -38 -15 -9 8 94 64 164 89 34 13 62 27 62 32 0 23 -101 -7 -228 -68 -75 -36 -143 -66 -150 -66 -7 0 50 33 127 72 77 40 138 74 136 76 -8 8 -148 -33 -249 -72 -117 -46 -252 -81 -283 -74 -11 3 -2 8 22 12 57 10 197 54 215 67 12 8 10 9 -10 4 -14 -3 -41 -10 -60 -15 -47 -13 -254 -12 -365 0 -114 13 -172 42 -259 127 -41 40 -78 68 -98 73 -18 4 -40 11 -49 14 -11 5 -20 -4 -34 -34 -15 -34 -45 -72 -45 -58 0 3 20 42 45 88 62 116 70 146 57 214 -16 77 -61 142 -62 89 -1 -12 -6 -8 -17 12 -19 36 -43 65 -55 65 -4 0 -8 -8 -9 -17 0 -10 -8 16 -16 57 -14 71 -48 150 -65 150 -4 0 -5 -15 -3 -32 4 -26 3 -29 -4 -13 -5 11 -10 29 -10 41 -1 26 -38 60 -75 70 l-29 7 27 -39 c33 -49 34 -69 1 -24 -41 55 -81 70 -132 50z m234 -167 c-3 -10 -5 -4 -5 12 0 17 2 24 5 18 2 -7 2 -21 0 -30z m53 -205 c0 -16 -40 -82 -46 -76 -4 4 37 88 44 88 1 0 2 -6 2 -12z m60 -118 c-6 -12 -14 -20 -17 -17 -2 3 1 14 8 26 7 11 15 18 17 16 2 -2 -2 -13 -8 -25z" id="35"/>
<path d="M5320 4800 c-77 -13 -215 -74 -257 -113 -13 -11 -23 -31 -23 -44 0 -22 1 -22 54 12 72 46 163 75 228 74 l53 -2 -67 -8 c-116 -15 -239 -74 -268 -130 -7 -12 -8 -19 -3 -17 4 2 43 21 85 42 42 21 96 40 120 42 l43 4 -35 -11 c-96 -30 -154 -54 -190 -80 -44 -32 -51 -49 -20 -49 10 0 30 -5 44 -11 22 -11 32 -8 79 25 53 37 132 67 171 65 18 0 18 -2 -4 -9 -14 -4 -43 -13 -65 -19 -51 -13 -135 -68 -135 -87 0 -23 66 -8 184 41 13 6 17 5 12 -3 -3 -6 -32 -20 -64 -32 -92 -34 -90 -32 -62 -40 100 -31 283 26 354 110 32 38 42 91 26 130 -14 33 -70 87 -104 99 -37 14 -109 19 -156 11z" id="36"/>
<path d="M7555 4650 c-4 -6 6 -10 22 -10 30 0 90 -31 110 -58 12 -14 16 -13 43 13 16 16 30 32 30 35 0 21 -193 40 -205 20z" id="37"/>
<path d="M7803 4622 c-13 -2 -37 -17 -54 -34 -27 -27 -30 -36 -24 -67 3 -20 8 -73 11 -117 5 -64 2 -88 -10 -113 -22 -42 -4 -84 36 -89 23 -3 34 6 70 54 24 31 53 68 66 83 20 22 22 23 12 4 -11 -24 -107 -144 -124 -155 -6 -4 -7 -10 -3 -15 12 -12 112 46 172 100 29 26 57 47 61 47 19 0 -67 -75 -135 -118 -70 -44 -72 -47 -44 -50 45 -5 141 36 188 79 58 53 107 147 108 206 0 40 -4 50 -29 69 -41 33 -66 58 -87 89 -18 25 -22 26 -80 20 -34 -4 -73 -3 -87 2 -14 5 -35 7 -47 5z" id="38"/>
<path d="M7354 4599 c-5 -8 -15 -25 -22 -39 l-12 -25 4 28 c8 66 -44 30 -64 -43 -10 -36 -6 -79 16 -200 4 -22 2 -22 -10 5 -8 17 -17 55 -21 85 -7 49 -8 52 -17 30 -5 -14 -7 -50 -4 -80 3 -36 2 -50 -4 -40 -5 8 -10 28 -10 43 0 16 -4 26 -10 22 -16 -10 -22 -70 -10 -114 10 -38 17 -45 63 -66 29 -13 67 -35 86 -49 47 -35 99 -52 114 -36 9 9 8 15 -7 24 -80 49 -137 109 -135 141 0 6 6 1 12 -9 30 -48 70 -84 121 -110 78 -39 88 -23 19 30 -32 25 -62 53 -67 62 -5 10 3 7 20 -9 52 -45 102 -79 119 -79 9 0 31 10 47 22 l31 21 -7 86 c-3 47 -8 97 -11 111 -5 24 -5 24 4 2 6 -12 13 -53 17 -90 8 -93 12 -103 29 -72 18 32 18 89 1 163 -8 33 -10 55 -6 50 16 -17 31 -84 32 -142 1 -70 17 -80 42 -27 19 40 21 123 4 179 -6 21 -31 60 -54 86 -44 49 -52 51 -169 41 -16 -2 -53 1 -81 5 -39 6 -53 4 -60 -6z" id="39"/>
<path d="M1284 4561 c-50 -23 -78 -57 -99 -122 -13 -38 -27 -56 -60 -79 -25 -17 -47 -42 -54 -61 -17 -49 -13 -129 9 -178 11 -24 20 -60 20 -80 0 -61 65 -111 143 -111 23 0 47 -10 72 -30 68 -54 180 -74 269 -48 57 17 129 93 155 163 31 81 26 94 -14 41 -20 -25 -41 -46 -46 -46 -6 0 3 16 20 35 42 49 78 121 86 177 11 72 -3 75 -42 11 -37 -62 -73 -106 -81 -98 -3 2 9 20 27 40 36 41 81 126 81 152 0 12 -19 -2 -57 -43 -32 -33 -46 -47 -32 -30 14 17 41 52 58 79 28 41 30 48 16 54 -28 10 -145 -16 -235 -52 -47 -19 -76 -27 -65 -18 47 36 189 82 260 85 19 1 35 5 35 9 0 8 -15 11 -120 28 -50 8 -52 9 -15 9 22 1 60 -3 85 -8 48 -9 64 -3 51 18 -11 19 -160 47 -243 47 -60 -1 -77 -6 -160 -48 -61 -31 -83 -39 -63 -23 76 63 200 102 280 91 26 -4 35 -3 25 3 -8 5 -41 13 -73 17 -32 3 -74 13 -92 21 -46 19 -92 17 -141 -5z" id="40"/>
<path d="M6265 4570 c-3 -5 15 -28 40 -51 62 -57 74 -100 52 -183 -12 -45 -15 -85 -11 -142 5 -66 2 -85 -14 -114 -28 -51 -87 -88 -159 -102 -61 -11 -62 -12 -55 -37 4 -14 7 -74 6 -132 0 -132 -22 -183 -98 -236 -29 -19 -43 -35 -34 -37 7 -3 65 -12 128 -21 103 -15 158 -25 213 -41 14 -5 12 4 -12 41 -57 90 -66 229 -22 332 29 67 51 86 163 142 82 41 99 54 153 120 102 125 191 169 327 159 32 -2 58 -1 58 2 0 13 -115 116 -160 145 -69 44 -140 64 -296 86 -143 20 -208 36 -251 64 -13 9 -24 11 -28 5z" id="41"/>
<path d="M7234 4559 c-10 -12 -49 -36 -85 -54 -36 -19 -80 -46 -97 -60 -29 -24 -32 -32 -32 -81 0 -30 4 -54 8 -54 4 0 24 22 44 49 25 33 54 58 91 76 50 24 56 31 75 83 12 31 20 57 18 59 -1 2 -11 -6 -22 -18z" id="42"/>
<path d="M6230 4488 c-13 -18 -40 -48 -61 -65 -32 -29 -58 -78 -46 -89 2 -2 21 3 41 11 64 27 61 11 -3 -20 -34 -16 -61 -33 -61 -37 0 -5 9 -4 19 2 11 5 28 10 38 10 10 0 -11 -14 -47 -31 -63 -29 -120 -73 -120 -92 0 -8 18 -6 67 8 10 4 -8 -8 -39 -25 -59 -31 -76 -60 -35 -60 12 0 65 18 117 40 113 47 133 47 25 -1 -50 -22 -74 -37 -71 -46 4 -9 -3 -13 -19 -13 -37 0 -30 -20 8 -21 17 -1 46 -5 62 -10 21 -6 9 -7 -43 -5 -78 4 -98 -8 -71 -40 11 -13 28 -15 94 -11 107 7 147 21 196 67 l42 39 -6 78 c-3 52 0 100 11 144 9 39 12 80 8 101 -6 35 -54 98 -73 98 -5 0 -20 -15 -33 -32z m-102 -395 c-10 -2 -26 -2 -35 0 -10 3 -2 5 17 5 19 0 27 -2 18 -5z" id="43"/>
<path d="M4991 4486 c-19 -14 -38 -27 -44 -29 -5 -1 2 -25 16 -52 13 -28 39 -99 56 -160 35 -119 52 -153 103 -202 49 -47 95 -63 188 -63 90 0 101 15 17 22 -88 7 -198 75 -236 147 -6 11 13 -4 42 -33 66 -66 99 -83 193 -102 41 -7 84 -18 94 -24 28 -15 60 -12 108 10 29 13 42 25 42 39 0 25 -13 28 -135 35 -49 3 -103 10 -120 15 -22 7 -7 8 60 5 60 -2 82 -1 65 5 -14 5 -37 9 -51 10 -15 1 -56 10 -91 21 -72 22 -132 68 -179 136 -29 43 -83 154 -74 154 2 0 21 -33 42 -72 43 -83 102 -147 164 -178 23 -12 88 -30 144 -40 56 -11 118 -27 138 -36 20 -10 40 -14 44 -10 10 9 -23 102 -52 147 -33 51 -83 79 -173 94 -42 8 -78 14 -78 15 -1 0 -13 18 -28 41 -18 26 -44 48 -74 63 -26 12 -58 29 -72 38 -45 30 -72 31 -109 4z" id="44"/>
<path d="M1975 4410 c-121 -6 -179 -23 -191 -55 -3 -8 27 -53 70 -105 73 -87 116 -155 116 -182 0 -7 -15 13 -33 44 -17 32 -54 85 -82 118 l-50 60 -6 -63 c-4 -35 -17 -112 -30 -173 -30 -148 -30 -255 0 -312 25 -48 36 -51 22 -6 -15 48 -21 94 -12 94 5 0 11 -21 15 -47 6 -49 38 -113 55 -113 6 0 0 21 -11 48 -15 33 -22 71 -24 132 l-3 85 9 -75 c10 -87 31 -149 66 -203 32 -49 40 -43 14 9 -27 54 -50 165 -50 241 0 92 15 84 18 -10 1 -45 9 -109 17 -141 15 -57 49 -126 63 -126 7 0 39 74 74 170 16 44 19 73 16 143 -2 48 0 83 4 79 11 -11 13 -153 3 -212 l-7 -45 21 19 c12 11 31 51 43 89 18 60 20 86 16 181 -4 77 -3 102 4 81 5 -16 10 -75 10 -130 1 -80 -3 -111 -20 -154 -24 -61 -22 -73 7 -47 30 27 59 105 69 186 l9 75 1 -60 c1 -40 -6 -83 -22 -127 -28 -78 -19 -87 38 -38 27 24 41 51 65 123 41 122 48 195 27 277 -9 36 -28 82 -43 102 -29 42 -95 79 -139 76 -16 -1 -83 -4 -149 -8z" id="45"/>
<path d="M7119 4381 c-47 -41 -88 -105 -76 -117 4 -4 35 -10 69 -12 52 -4 60 -2 55 11 -16 43 -18 86 -3 120 8 21 11 37 7 37 -5 0 -28 -18 -52 -39z" id="46"/>
<path d="M8082 4258 c-17 -13 -49 -37 -72 -55 -46 -35 -137 -73 -175 -73 -43 0 -28 -20 38 -50 34 -16 53 -29 42 -29 -11 0 -40 9 -65 20 -42 19 -45 19 -57 3 -7 -10 -13 -21 -13 -25 0 -16 39 -51 90 -79 30 -17 44 -28 30 -24 -43 11 -98 43 -109 61 -5 10 -12 16 -14 13 -11 -10 46 -111 74 -132 16 -13 50 -40 75 -60 31 -27 55 -38 77 -38 38 0 91 30 108 61 11 21 10 22 -32 17 -24 -3 -55 -2 -69 2 -21 7 -18 8 17 9 57 1 145 36 184 72 28 26 31 33 25 71 -3 24 -9 77 -12 118 -8 86 -22 114 -66 129 -41 14 -40 15 -76 -11z" id="47"/>
<path d="M6837 4240 c-26 -5 -67 -20 -92 -34 -46 -27 -185 -186 -150 -172 57 23 185 49 185 37 0 -5 -19 -11 -42 -15 -59 -9 -241 -72 -308 -106 -64 -33 -93 -61 -115 -112 -24 -58 -18 -65 23 -26 47 46 110 88 131 88 9 0 -7 -13 -35 -30 -66 -37 -132 -112 -140 -159 -8 -43 9 -134 32 -169 l17 -26 21 66 c22 68 69 148 86 148 6 0 -3 -18 -19 -40 -31 -43 -65 -151 -59 -191 2 -20 9 -25 40 -27 74 -6 157 33 270 127 47 39 46 36 -13 -22 -42 -40 -92 -77 -135 -98 l-68 -34 54 -8 c75 -11 119 -4 194 31 70 33 137 89 198 165 21 27 38 44 38 39 0 -33 -145 -179 -212 -213 -21 -11 -38 -22 -38 -24 0 -10 56 8 113 37 63 31 71 21 9 -12 -45 -23 -24 -25 48 -4 95 28 169 89 252 207 23 31 43 55 46 53 9 -10 -91 -147 -141 -192 l-52 -47 40 6 c57 9 150 58 223 118 35 28 65 49 68 46 14 -13 -230 -187 -262 -187 -7 0 -16 -5 -19 -11 -5 -7 24 -9 89 -8 53 1 99 -1 102 -4 10 -9 -127 -20 -189 -14 -42 4 -69 1 -88 -9 -15 -7 -58 -22 -96 -32 l-68 -19 35 -22 c46 -28 166 -66 260 -81 140 -23 162 -30 73 -25 -93 6 -258 45 -315 75 -21 11 -56 29 -77 41 -33 17 -49 19 -100 13 -33 -3 -58 -11 -55 -16 3 -4 45 -28 92 -53 48 -24 81 -44 74 -44 -21 -1 -139 55 -184 88 -24 17 -59 33 -78 36 l-35 6 54 -50 c30 -28 50 -51 43 -51 -6 0 -39 26 -73 57 -58 54 -62 56 -75 38 -22 -30 -17 -49 25 -103 50 -62 76 -71 211 -69 157 2 290 -46 390 -139 39 -37 58 -46 104 -54 64 -10 148 0 201 26 43 20 45 32 6 26 -54 -8 -169 19 -251 59 -44 21 -80 40 -80 43 0 2 38 -11 84 -30 103 -42 183 -58 257 -51 67 6 110 26 139 67 30 42 102 213 87 206 -60 -25 -152 -47 -188 -44 -49 4 -41 7 64 27 90 16 161 53 191 98 25 37 47 133 31 133 -4 0 -24 -13 -44 -29 -46 -36 -95 -61 -118 -60 -11 0 -5 7 17 16 19 8 54 29 77 46 51 36 42 48 -32 40 -69 -7 -105 21 -112 90 -3 26 -8 47 -11 47 -2 0 -22 -5 -43 -12 -37 -11 -42 -9 -83 20 -24 18 -53 32 -64 32 -34 0 -60 33 -86 110 -39 115 -19 159 103 228 l53 30 -21 21 -21 21 -41 -20 c-22 -12 -57 -36 -78 -55 -21 -19 -42 -35 -47 -35 -16 0 62 72 101 93 l40 20 -26 11 c-14 6 -32 16 -40 23 -8 6 -61 16 -119 22 -164 17 -202 19 -253 11z" id="48"/>
<path d="M7613 4194 c-69 -51 -82 -74 -59 -107 43 -62 51 -68 95 -69 37 0 47 4 68 31 13 17 33 31 44 31 24 0 24 21 1 63 -18 33 -72 97 -82 97 -3 0 -33 -21 -67 -46z m19 -89 c0 -5 -5 -11 -11 -13 -6 -2 -11 4 -11 13 0 9 5 15 11 13 6 -2 11 -8 11 -13z" id="49"/>
<path d="M7445 4094 c-28 -14 -77 -47 -110 -72 -41 -31 -52 -37 -35 -18 14 16 47 44 75 62 l50 34 -43 0 c-47 0 -87 -17 -144 -62 -46 -36 -54 -71 -33 -145 29 -98 31 -101 70 -109 20 -3 50 -18 66 -32 25 -20 37 -24 72 -19 59 8 83 39 92 119 6 59 17 86 60 151 15 24 15 27 1 27 -20 0 -82 -54 -118 -104 -15 -21 -28 -36 -28 -32 0 21 36 69 84 114 46 41 53 52 41 62 -26 21 -76 -22 -139 -122 -20 -31 -41 -60 -47 -64 -15 -9 5 29 47 89 38 53 41 62 18 53 -25 -10 -6 11 41 45 42 30 56 49 37 49 -4 0 -30 -12 -57 -26z" id="50"/>
<path d="M7720 4016 c-6 -19 -15 -63 -19 -98 l-8 -63 -2 68 c0 37 -5 67 -11 67 -15 0 -30 -35 -30 -70 0 -20 -4 -29 -11 -24 -10 6 -6 54 8 90 3 8 1 14 -5 14 -19 0 -46 -103 -46 -182 -1 -42 -4 -74 -8 -71 -14 8 -9 148 7 198 16 54 13 65 -13 49 -33 -21 -54 -74 -63 -157 -5 -45 -14 -101 -20 -123 -9 -34 -8 -47 5 -73 9 -17 22 -31 29 -32 6 -1 52 -2 101 -4 84 -3 89 -1 110 23 11 14 28 32 37 40 70 61 69 60 69 110 0 40 -10 69 -50 147 -27 54 -50 104 -50 111 0 27 -19 14 -30 -20z" id="51"/>
<path d="M4605 4013 c-27 -7 -32 -13 -39 -55 -6 -36 -5 -38 32 -57 62 -32 96 -65 138 -137 45 -77 65 -89 176 -104 116 -16 124 -19 208 -76 44 -30 85 -52 90 -49 30 18 -1 52 -132 144 -49 34 -88 64 -88 67 0 7 9 1 97 -58 40 -27 88 -62 107 -78 40 -36 51 -23 29 32 -11 28 -27 43 -68 64 -30 16 -52 30 -50 32 2 2 22 -6 45 -18 56 -29 67 -22 33 23 -21 28 -41 41 -83 53 -88 26 -171 67 -266 131 -137 93 -162 102 -229 86z" id="52"/>
<path d="M5560 4000 c-13 -9 -13 -10 0 -10 8 0 22 5 30 10 13 9 13 10 0 10 -8 0 -22 -5 -30 -10z" id="53"/>
<path d="M5869 3937 c-48 -18 -87 -36 -88 -41 -1 -5 21 -17 48 -27 47 -16 111 -54 111 -65 0 -3 -19 6 -42 19 -69 39 -143 60 -167 47 -12 -6 -21 -13 -21 -15 0 -3 30 -19 67 -37 36 -18 87 -52 112 -76 l46 -44 -45 35 c-90 70 -198 115 -214 89 -3 -5 29 -33 70 -62 42 -30 80 -63 86 -75 8 -14 -1 -9 -27 14 -65 56 -142 101 -175 101 -41 0 -31 -13 39 -50 32 -17 74 -48 92 -67 l34 -37 -45 36 c-57 45 -142 88 -175 88 -37 0 -31 -11 26 -45 28 -16 58 -39 67 -50 17 -19 17 -19 -8 -2 -101 69 -170 97 -207 82 -15 -6 -13 -9 12 -20 41 -18 14 -18 -62 1 -95 24 -103 15 -31 -33 85 -55 146 -111 188 -169 28 -40 18 -33 -55 41 -88 88 -174 148 -263 182 -82 31 -66 -7 26 -64 79 -49 168 -126 213 -186 23 -30 10 -20 -47 35 -90 87 -194 162 -206 150 -16 -16 5 -43 78 -98 66 -50 174 -161 174 -179 0 -4 -37 30 -82 76 -76 77 -131 119 -142 108 -3 -3 -11 -26 -18 -53 -13 -48 -13 -48 17 -69 16 -12 41 -32 55 -45 32 -29 1 -15 -49 22 -23 17 -48 26 -72 26 -21 0 -49 4 -63 10 -14 5 -26 8 -26 5 0 -2 21 -25 48 -51 60 -60 25 -36 -50 33 -37 35 -65 53 -82 53 -23 0 -22 -3 26 -47 43 -41 113 -129 143 -182 21 -36 -19 6 -54 57 -74 107 -177 186 -217 164 -11 -6 -5 -15 28 -40 61 -45 178 -185 166 -197 -3 -3 -16 12 -30 32 -68 102 -176 193 -227 193 -55 0 -52 -14 23 -93 40 -42 87 -98 105 -124 29 -43 26 -41 -25 17 -95 107 -174 180 -195 180 -10 0 -19 -2 -19 -4 0 -2 36 -39 80 -82 44 -42 78 -80 75 -82 -3 -3 -42 31 -88 76 -85 82 -101 91 -172 94 -92 3 -91 3 -45 -49 70 -80 67 -93 -4 -16 -62 67 -109 95 -135 79 -5 -3 2 -34 14 -68 13 -35 33 -100 45 -146 36 -134 98 -203 213 -237 76 -23 136 -18 244 17 73 24 119 32 183 34 63 2 98 8 135 25 40 18 68 23 142 23 l92 1 42 40 c24 23 55 70 74 111 35 76 38 78 147 109 58 16 128 65 128 90 0 14 46 56 120 109 31 22 49 44 59 71 19 56 18 201 -2 248 -16 37 -16 37 -74 36 -39 0 -86 -11 -144 -32z" id="54"/>
<path d="M5960 3511 c22 -13 179 -47 300 -66 58 -9 160 -27 226 -41 147 -29 236 -30 337 -4 70 17 195 68 137 54 -240 -54 -362 -54 -625 0 -286 59 -412 78 -375 57z" id="55"/>
<path d="M5930 3479 c-7 -11 -10 -22 -8 -23 2 -2 37 -26 79 -54 94 -65 357 -331 424 -429 26 -40 50 -71 53 -68 10 10 -125 217 -191 292 -72 82 -225 219 -304 274 -42 29 -42 29 -53 8z" id="56"/>
<path d="M6020 3466 c0 -2 26 -23 58 -47 75 -56 192 -169 254 -246 l51 -62 18 23 c10 13 37 31 60 40 l41 17 -46 40 c-72 63 -85 99 -60 163 5 13 -1 16 -32 16 -22 0 -106 14 -189 30 -168 33 -155 31 -155 26z" id="57"/>
<path d="M2310 3379 c-77 -15 -98 -28 -111 -68 -6 -20 -23 -54 -38 -76 -22 -34 -26 -51 -26 -111 0 -65 4 -78 53 -175 41 -81 57 -126 72 -206 10 -56 26 -115 34 -131 51 -99 289 -218 393 -197 13 3 34 7 48 10 35 8 23 22 -24 30 -47 8 -83 41 -61 55 22 14 26 13 63 -19 18 -16 45 -33 60 -36 22 -6 27 -4 27 12 0 11 -13 32 -30 48 -32 31 -39 59 -16 72 12 7 8 22 -24 88 -21 44 -53 105 -70 135 -17 30 -22 44 -11 30 38 -46 105 -164 132 -233 l26 -68 7 47 c3 26 6 62 6 81 0 64 -105 273 -206 411 -35 47 -5 19 39 -37 54 -69 122 -190 154 -276 l22 -60 0 61 c1 57 -5 73 -70 205 -83 168 -77 175 9 11 33 -63 62 -110 65 -105 3 4 8 43 12 85 13 134 -41 257 -138 317 -18 11 -66 31 -107 44 -41 14 -101 34 -132 46 -61 22 -87 24 -158 10z" id="58"/>
<path d="M3248 3359 c-20 -5 -79 -27 -131 -49 -52 -22 -105 -40 -117 -40 -33 0 -84 -35 -114 -79 -21 -30 -27 -48 -25 -85 2 -25 5 -46 7 -46 2 0 13 10 24 23 11 13 9 6 -6 -18 -20 -31 -26 -52 -26 -98 l0 -59 43 58 c24 33 61 72 83 88 35 26 33 22 -17 -30 -90 -95 -119 -142 -124 -204 -5 -54 -4 -55 13 -30 64 92 113 148 164 191 63 52 146 104 154 96 3 -2 -19 -18 -48 -34 -93 -53 -214 -177 -261 -269 -24 -46 -49 -192 -37 -214 6 -10 10 -29 10 -41 0 -21 1 -21 19 -5 10 9 21 30 25 47 11 55 66 174 101 218 45 56 45 48 0 -20 -35 -53 -90 -199 -76 -199 5 0 21 24 36 54 36 71 121 182 165 215 24 18 15 4 -31 -46 -59 -65 -138 -188 -127 -199 3 -2 25 4 49 15 66 29 129 35 205 20 65 -13 67 -13 120 15 31 16 83 59 125 103 138 145 184 249 160 357 -17 74 -47 116 -108 149 -29 15 -66 45 -82 66 -22 28 -43 42 -75 50 -50 12 -47 12 -98 0z m-193 -147 c-33 -28 -117 -82 -105 -67 8 10 35 31 59 47 43 27 65 37 46 20z" id="59"/>
<path d="M6533 3180 c-77 -16 -123 -49 -123 -89 0 -14 19 -60 43 -101 23 -41 55 -103 72 -138 24 -52 33 -62 50 -58 122 29 319 -1 391 -60 22 -18 28 -19 -74 17 -29 11 -86 24 -125 28 -71 9 -180 2 -193 -12 -8 -8 31 -111 74 -197 l27 -54 90 -22 c107 -26 150 -44 224 -91 60 -38 167 -136 184 -168 5 -11 -21 9 -58 44 -38 35 -99 83 -136 107 -77 50 -206 96 -255 92 l-34 -3 94 -139 93 -139 76 -27 c78 -29 147 -71 182 -111 12 -14 -4 -6 -44 21 -57 38 -179 96 -186 88 -1 -2 21 -46 51 -98 50 -89 97 -190 89 -190 -2 0 -23 35 -46 78 -97 176 -279 450 -244 367 20 -49 27 -149 17 -231 -18 -135 -28 -125 -24 24 4 153 -9 236 -53 321 -26 52 -45 72 -45 48 0 -8 -14 -47 -31 -88 -17 -41 -39 -122 -49 -181 -17 -98 -33 -148 -46 -148 -3 0 -3 4 1 9 3 5 12 62 20 125 13 93 23 130 53 193 50 106 49 142 -8 257 l-44 89 -16 -61 c-11 -40 -30 -77 -56 -108 -57 -68 -81 -102 -116 -166 -16 -31 -39 -65 -50 -75 -37 -33 72 154 132 227 21 25 45 60 54 79 20 38 33 136 19 144 -5 3 -35 -5 -68 -18 -75 -31 -83 -25 -14 11 52 26 53 27 29 36 -40 16 -159 2 -235 -26 -81 -30 -60 -7 24 26 43 17 77 22 149 23 l93 0 -30 27 c-66 59 -144 59 -299 1 -52 -19 -96 -33 -98 -30 -9 9 137 68 192 79 91 17 93 19 37 38 -77 27 -130 33 -201 21 -221 -36 -331 -194 -293 -417 12 -65 65 -219 79 -228 4 -2 5 30 4 73 -4 81 8 144 33 176 14 19 14 18 4 -10 -32 -88 -27 -220 11 -295 18 -35 72 -90 89 -90 5 0 11 27 15 60 8 72 30 148 50 175 11 15 9 2 -5 -50 -17 -57 -20 -90 -16 -180 7 -164 59 -306 145 -397 29 -32 48 -37 37 -10 -31 75 -60 296 -45 337 5 13 10 -12 14 -70 9 -117 30 -227 53 -273 27 -54 59 -72 143 -81 41 -5 76 -8 76 -7 1 0 -5 33 -13 71 -14 67 -11 169 5 179 4 2 7 -35 8 -82 1 -97 26 -178 83 -268 33 -53 38 -51 17 11 -20 59 -29 135 -17 135 6 0 11 -11 11 -24 0 -14 11 -61 25 -105 21 -66 35 -90 76 -133 54 -57 55 -56 15 57 -27 80 -45 215 -27 215 6 0 11 -17 11 -37 0 -52 24 -159 48 -214 18 -42 87 -127 96 -118 3 2 -2 31 -10 64 -15 66 -31 254 -20 244 4 -3 11 -46 16 -95 19 -169 36 -226 92 -301 27 -37 66 -98 87 -135 20 -37 39 -68 43 -68 10 0 61 103 78 155 24 76 51 116 139 209 49 51 98 111 110 133 25 51 41 144 41 248 0 48 11 131 26 205 28 133 29 230 3 336 -19 81 -94 230 -168 333 -37 53 -90 139 -117 191 -32 64 -65 112 -101 147 -117 115 -337 177 -510 143z" id="60"/>
<path d="M4427 3077 c-31 -22 -45 -83 -39 -177 3 -66 0 -99 -13 -139 -35 -108 1 -230 73 -247 15 -4 47 -22 72 -41 24 -18 67 -40 96 -49 53 -15 81 -35 122 -88 21 -27 24 -28 39 -14 14 15 14 19 -5 50 -12 18 -55 67 -97 108 -42 41 -86 89 -98 105 -12 18 0 9 29 -20 92 -93 216 -205 225 -205 30 0 -15 75 -130 215 -74 90 -161 238 -148 251 3 3 22 -27 42 -68 44 -87 68 -120 156 -214 37 -39 77 -91 90 -115 23 -42 24 -43 27 -17 3 26 -23 88 -60 141 -11 16 -18 30 -15 33 6 6 37 -37 72 -98 14 -24 25 -37 25 -31 0 27 -40 115 -73 161 -49 69 -66 107 -28 62 48 -56 101 -150 118 -212 12 -43 21 -58 34 -58 23 0 33 37 25 88 -5 27 -4 33 3 22 6 -8 11 -37 11 -65 1 -42 5 -53 27 -69 25 -18 27 -18 39 -1 21 28 36 122 29 175 -11 78 -43 131 -95 158 -25 12 -56 35 -70 52 -32 38 -79 57 -160 65 -135 13 -161 34 -195 157 -22 82 -80 121 -128 85z" id="61"/>
<path d="M4992 2814 c-35 -24 -28 -55 22 -96 72 -61 97 -186 61 -304 -18 -59 -18 -54 -2 -54 28 0 104 62 147 119 24 33 46 58 48 56 8 -8 -29 -57 -97 -129 -77 -82 -67 -100 17 -30 31 26 66 55 77 63 l20 16 -20 -24 c-11 -14 -31 -35 -45 -47 -38 -34 -16 -41 26 -8 78 61 89 67 49 26 -38 -40 -38 -42 -15 -42 27 0 81 29 118 63 12 11 22 15 22 9 0 -6 -25 -30 -56 -53 -61 -47 -59 -59 15 -59 57 0 111 49 111 102 0 19 7 43 15 54 19 25 19 74 -1 102 -8 12 -33 32 -56 43 -22 11 -69 47 -103 79 -35 33 -76 62 -92 65 -90 19 -120 28 -154 45 -46 24 -77 25 -107 4z" id="62"/>
<path d="M2050 2802 c-19 -10 -60 -33 -91 -49 -32 -17 -81 -34 -110 -37 -92 -12 -147 -27 -164 -46 -16 -18 -15 -19 14 -34 46 -24 77 -72 116 -180 19 -54 48 -117 64 -139 45 -66 136 -146 198 -175 50 -23 71 -27 148 -27 102 0 112 4 255 100 55 37 93 71 108 96 13 22 20 39 17 39 -3 0 -38 -13 -76 -30 -38 -16 -67 -26 -65 -21 3 5 42 23 85 41 44 17 85 38 92 46 15 19 17 19 -135 -17 -115 -27 -145 -30 -241 -27 -95 3 -117 8 -160 30 -58 30 -130 90 -147 121 -6 12 10 1 36 -25 108 -109 235 -138 430 -99 61 12 113 24 118 27 14 9 9 26 -7 20 -34 -13 -349 26 -360 45 -3 4 9 3 27 -2 35 -11 268 -25 268 -17 0 3 -26 21 -57 41 -110 68 -155 129 -166 227 -9 74 -37 102 -109 107 -39 3 -62 -1 -88 -15z" id="63"/>
<path d="M4165 2791 c-29 -33 -155 -88 -287 -125 -204 -57 -283 -108 -338 -220 -40 -80 -47 -152 -31 -300 10 -83 10 -122 2 -153 -13 -47 -1 -93 24 -93 24 0 86 68 160 176 38 54 73 104 78 109 18 19 -16 -41 -60 -104 -24 -35 -42 -65 -40 -68 6 -5 75 79 112 135 15 23 30 40 32 38 7 -7 -61 -110 -103 -156 -20 -22 -34 -43 -31 -46 16 -16 114 62 184 148 77 94 95 115 87 98 -14 -28 -67 -95 -118 -147 -27 -29 -47 -55 -43 -59 8 -8 66 28 137 85 78 62 88 69 65 42 -11 -13 -50 -46 -88 -74 -37 -27 -66 -51 -65 -52 6 -5 197 27 246 41 124 35 224 213 209 373 -2 31 -23 106 -46 166 -23 61 -45 129 -48 153 -7 51 -15 58 -38 33z" id="64"/>
<path d="M3064 2600 c-76 -15 -224 -102 -224 -130 0 -4 30 0 68 8 192 43 401 -66 495 -258 37 -75 67 -174 67 -217 0 -13 4 -23 9 -23 12 0 25 82 17 107 -3 10 -10 59 -15 110 -12 111 -32 160 -97 233 -43 47 -45 51 -16 31 19 -13 50 -45 70 -72 21 -26 40 -48 45 -48 4 -1 7 20 7 45 0 95 -60 165 -157 183 -32 6 -91 18 -131 26 -80 16 -79 16 -138 5z" id="65"/>
<path d="M4353 2488 c-33 -11 -33 -11 -33 -78 0 -113 -41 -221 -110 -290 l-39 -39 53 -11 c30 -6 80 -27 112 -46 55 -33 63 -35 114 -30 30 4 82 9 115 12 79 7 112 21 119 49 3 13 18 38 33 56 l28 32 -85 -5 c-84 -6 -85 -6 -35 7 28 7 74 14 103 14 28 1 52 5 52 11 0 17 -52 25 -167 25 -69 0 -104 3 -90 8 12 5 73 7 135 5 111 -3 112 -3 112 20 0 33 -64 58 -180 71 l-95 10 124 -4 123 -3 -28 30 c-16 17 -63 47 -104 66 -41 19 -91 48 -111 64 -41 33 -96 43 -146 26z" id="66"/>
<path d="M2883 2457 c-51 -19 -48 -24 29 -41 40 -10 89 -26 108 -37 19 -11 26 -17 15 -13 -153 52 -248 61 -320 30 -54 -23 -113 -83 -125 -126 -8 -31 -5 -50 20 -121 16 -46 30 -93 30 -105 0 -43 34 -117 67 -149 74 -72 212 -94 380 -61 43 8 102 17 132 19 46 4 56 8 63 27 13 36 -57 101 -167 156 -49 25 -76 42 -60 39 49 -10 153 -64 209 -110 40 -32 57 -40 69 -33 10 5 17 13 17 18 0 20 -65 81 -121 116 -75 45 -70 58 6 14 59 -34 110 -79 137 -120 15 -25 16 -25 37 -6 27 25 26 49 -4 114 -32 69 -78 135 -140 201 -27 30 -40 49 -28 43 36 -19 109 -110 157 -196 35 -62 46 -75 46 -55 0 36 -35 133 -67 188 -36 61 -96 125 -146 154 -99 58 -263 84 -344 54z" id="67"/>
<path d="M4860 2360 c-81 -42 -83 -44 -75 -104 11 -73 20 -93 55 -111 16 -8 41 -33 55 -55 28 -44 49 -50 65 -20 7 13 21 20 41 20 20 0 39 9 57 29 15 16 37 34 50 40 23 12 31 54 12 66 -5 3 -10 26 -10 50 0 47 -17 65 -59 65 -11 0 -33 11 -49 25 -38 32 -72 31 -142 -5z m71 -70 c21 -12 25 -35 8 -45 -11 -8 -38 22 -39 43 0 15 6 15 31 2z m-71 -39 c0 -4 12 -21 27 -37 19 -21 34 -28 55 -25 15 1 28 -2 28 -9 0 -15 -27 -24 -47 -15 -10 4 -27 9 -37 10 -10 1 -25 10 -32 20 -16 22 -19 65 -4 65 6 0 10 -4 10 -9z m164 -20 c3 -5 -1 -14 -8 -20 -16 -13 -32 2 -21 19 8 12 22 13 29 1z" id="68"/>
<path d="M5183 2320 c-24 -10 -43 -21 -43 -24 0 -2 -3 -12 -6 -21 -6 -15 0 -16 57 -11 35 4 84 3 109 -2 42 -9 40 -10 -38 -11 -95 -1 -123 -11 -115 -41 5 -17 14 -20 77 -22 l71 -2 -65 -3 c-81 -5 -97 -18 -39 -32 147 -37 296 -87 286 -97 -1 -2 -50 12 -107 30 -193 61 -300 67 -300 16 0 -26 104 -108 190 -149 71 -34 81 -36 210 -41 115 -5 147 -10 216 -35 69 -25 87 -28 120 -20 78 20 76 84 -4 169 -58 61 -67 78 -77 134 -8 51 -43 96 -98 123 -36 19 -50 20 -152 14 -107 -7 -113 -6 -163 19 -61 31 -74 32 -129 6z" id="69"/>
<path d="M2495 2166 c-57 -80 -116 -206 -149 -316 -14 -47 -25 -75 -25 -63 -1 31 46 178 77 238 13 28 40 74 58 103 19 29 34 55 34 57 0 8 -113 -56 -137 -78 -13 -11 -34 -43 -48 -71 -21 -42 -25 -64 -25 -137 0 -69 -5 -97 -24 -140 -52 -118 -62 -332 -19 -414 62 -119 182 -147 250 -59 16 20 58 66 94 103 77 78 105 131 123 237 18 97 27 121 60 161 26 31 26 32 6 38 -29 9 -78 53 -111 99 l-29 39 -24 -54 c-30 -65 -34 -50 -6 21 20 51 28 132 11 115 -5 -6 -25 -59 -45 -120 -25 -73 -35 -95 -31 -66 5 36 24 91 72 211 17 40 -37 -26 -61 -76 -15 -31 -30 -53 -33 -50 -3 3 15 43 41 90 44 81 55 116 39 116 -5 0 -37 -52 -72 -115 -35 -63 -65 -115 -67 -115 -6 0 53 117 93 182 19 32 33 68 31 79 -2 17 -14 5 -51 -54 -26 -42 -66 -113 -88 -159 -21 -46 -37 -72 -33 -58 9 40 60 146 92 192 16 24 39 62 51 86 34 67 0 54 -54 -22z" id="70"/>
<path d="M4733 2105 c-36 -36 -36 -36 -30 -103 4 -37 2 -84 -4 -105 -8 -30 -7 -45 9 -79 27 -61 51 -78 123 -88 59 -8 67 -13 104 -55 48 -55 100 -77 154 -63 89 22 94 21 135 -11 21 -17 49 -31 62 -31 29 0 64 33 64 60 0 11 -9 37 -20 57 -13 24 -20 57 -20 91 0 89 -20 119 -142 207 -54 39 -58 38 -24 -8 28 -38 51 -82 60 -117 4 -14 -9 5 -30 42 -38 70 -131 168 -159 168 -12 0 -8 -11 18 -42 34 -43 59 -85 77 -133 16 -42 0 -28 -19 18 -23 52 -65 103 -101 122 -39 20 -43 9 -15 -44 34 -62 32 -75 -3 -20 -46 71 -84 93 -62 35 5 -15 10 -35 9 -44 -1 -24 -18 22 -23 61 -6 52 -27 85 -61 102 -48 22 -63 19 -102 -20z" id="71"/>
<path d="M4064 2041 c-34 -10 -115 -26 -180 -35 -149 -21 -244 -49 -284 -82 l-31 -27 26 -17 c24 -16 29 -16 78 1 53 17 133 24 222 19 30 -2 2 -6 -70 -10 -132 -8 -202 -28 -191 -56 3 -8 6 -19 6 -23 0 -5 23 -6 50 -3 60 5 179 -12 268 -40 88 -27 72 -34 -19 -8 -77 22 -248 37 -292 26 -35 -8 -87 -54 -87 -76 0 -26 55 -66 121 -89 80 -27 131 -55 192 -105 82 -66 125 -93 202 -122 123 -46 213 -17 326 105 l66 71 56 0 c102 0 114 54 34 158 -25 31 -51 75 -58 97 -8 21 -40 67 -73 102 -106 115 -231 154 -362 114z" id="72"/>
<path d="M3417 1940 c-14 -11 -39 -20 -55 -20 -32 0 -77 -43 -66 -62 4 -6 12 -34 18 -62 9 -41 16 -52 34 -54 12 -2 30 -14 38 -28 13 -19 20 -22 34 -14 10 6 34 10 52 10 38 1 61 12 113 58 29 26 36 38 31 57 -6 24 -51 55 -80 55 -9 0 -23 12 -33 28 -17 28 -42 52 -54 52 -3 0 -18 -9 -32 -20z m23 -44 c0 -15 -24 -28 -34 -19 -7 7 13 33 25 33 5 0 9 -6 9 -14z m11 -59 c-8 -8 -11 -7 -11 4 0 20 13 34 18 19 3 -7 -1 -17 -7 -23z m-101 3 c0 -5 -4 -10 -9 -10 -6 0 -13 5 -16 10 -3 6 1 10 9 10 9 0 16 -4 16 -10z m30 -46 c0 -16 -16 -19 -25 -4 -8 13 4 32 16 25 5 -4 9 -13 9 -21z m166 -2 c-8 -9 -19 -13 -22 -9 -10 9 16 38 28 31 6 -4 4 -13 -6 -22z m-104 -57 c0 -5 -5 -11 -11 -13 -6 -2 -11 4 -11 13 0 9 5 15 11 13 6 -2 11 -8 11 -13z" id="73"/>
<path d="M3230 1833 c-241 -37 -293 -42 -355 -33 -37 6 -51 3 -79 -16 -65 -44 -84 -130 -45 -207 17 -33 22 -61 23 -128 1 -85 2 -87 39 -128 32 -36 37 -47 37 -90 0 -112 32 -133 157 -102 l83 21 50 -26 c40 -21 58 -25 87 -19 91 17 186 93 223 179 33 77 34 326 1 359 -6 6 -21 -9 -40 -39 -17 -27 -31 -44 -31 -38 0 5 13 31 30 57 59 94 -19 37 -104 -76 -16 -21 -31 -35 -34 -32 -3 2 23 38 57 80 34 41 58 75 53 75 -22 0 -91 -62 -136 -123 -28 -37 -52 -64 -54 -62 -8 8 51 87 111 148 32 33 56 62 53 64 -11 11 -59 -27 -165 -131 -63 -61 -103 -95 -90 -76 29 43 149 161 195 192 61 41 36 40 -45 -2 -43 -23 -105 -65 -137 -93 -94 -83 -106 -86 -22 -5 42 41 106 91 142 112 62 36 81 56 55 56 -18 0 -195 -86 -242 -117 -66 -45 -75 -47 -32 -9 39 35 227 136 253 136 6 0 12 3 12 8 0 13 -233 -6 -315 -27 -92 -22 -113 -20 -33 4 85 25 214 45 294 45 41 0 74 4 74 9 0 12 -29 42 -38 40 -4 -1 -18 -3 -32 -6z" id="74"/>
<path d="M3488 1693 c-22 -6 -23 -25 -2 -65 13 -26 15 -50 10 -137 -8 -130 5 -162 79 -201 41 -21 67 -25 169 -30 130 -5 118 -1 251 -84 25 -16 66 -31 90 -34 37 -4 47 -1 69 21 53 53 24 173 -47 201 -17 7 -52 20 -77 29 -25 9 -78 42 -117 72 -40 30 -73 53 -73 50 0 -8 45 -69 99 -134 25 -30 39 -52 31 -49 -15 5 -52 48 -143 167 -37 48 -61 69 -103 88 -83 38 -87 23 -13 -48 37 -35 75 -77 84 -94 10 -16 -35 24 -100 90 -66 66 -116 113 -113 105 28 -77 49 -152 46 -162 -3 -7 -22 39 -44 102 -40 119 -47 127 -96 113z" id="75"/>
</g>
</svg>