<?xml version="1.0" ?><!DOCTYPE svg  PUBLIC '-//W3C//DTD SVG 20010904//EN'  'http://www.w3.org/TR/2001/REC-SVG-20010904/DTD/svg10.dtd'><svg height="850.000000pt" preserveAspectRatio="xMidYMid meet" version="1.0" viewBox="0 0 850.000000 850.000000" width="850.000000pt" xmlns="http://www.w3.org/2000/svg">
<metadata>
Created by potrace 1.14, written by Peter Selinger 2001-2017
</metadata>
<g fill="#ffffff" stroke="none" transform="translate(0.000000,850.000000) scale(0.100000,-0.100000)">
<path d="M0 4250 l0 -4250 4250 0 4250 0 0 4250 0 4250 -4250 0 -4250 0 0 -4250z m4320 4100 c32 -101 58 -154 115 -235 66 -92 127 -145 285 -245 190 -120 273 -184 365 -282 78 -83 128 -159 160 -240 l18 -48 66 63 c157 148 372 247 546 250 77 2 80 1 83 -22 3 -15 -6 -34 -27 -55 -40 -42 -53 -79 -53 -156 0 -74 21 -135 84 -244 22 -39 43 -73 45 -75 2 -3 25 16 51 41 88 85 195 145 317 179 101 27 119 22 134 -38 7 -27 34 -89 61 -139 55 -104 80 -178 80 -239 l0 -42 124 -12 c572 -55 941 -363 963 -801 9 -176 -38 -312 -143 -417 -140 -141 -361 -174 -511 -77 -51 33 -67 64 -48 90 12 17 18 17 56 7 97 -26 176 58 149 159 -47 176 -264 199 -423 45 -90 -88 -122 -159 -174 -386 -75 -327 -171 -522 -344 -694 -50 -49 -76 -82 -73 -92 5 -13 8 -13 21 0 29 30 73 11 73 -30 0 -18 5 -21 29 -17 54 8 68 -71 15 -84 -34 -9 -57 13 -50 46 5 26 4 26 -28 16 l-32 -10 4 -80 c7 -149 -46 -300 -142 -399 -39 -41 -79 -68 -169 -112 -77 -39 -130 -72 -152 -96 -35 -39 -60 -105 -49 -132 3 -9 1 -25 -6 -36 -9 -18 -20 -21 -83 -21 -168 0 -313 79 -357 195 -10 25 -13 27 -53 21 -23 -3 -100 -11 -170 -16 -143 -11 -199 -29 -255 -83 -41 -39 -81 -114 -90 -169 -4 -24 -15 -46 -27 -54 -18 -12 -25 -11 -57 11 -47 32 -113 132 -134 203 -29 99 -20 98 -111 24 -46 -36 -83 -73 -83 -82 0 -9 25 -57 57 -106 103 -162 143 -238 168 -317 29 -92 33 -197 10 -275 -19 -62 -96 -151 -167 -191 l-48 -28 26 -24 c74 -68 71 -204 -6 -259 l-28 -20 20 -49 c25 -58 19 -93 -23 -132 -16 -15 -29 -30 -29 -34 0 -10 67 -102 113 -155 59 -67 88 -136 88 -212 1 -103 -19 -156 -90 -241 -51 -61 -95 -137 -116 -204 -14 -43 -21 -53 -40 -53 -19 0 -26 10 -40 53 -21 67 -65 143 -116 204 -71 85 -91 138 -90 241 0 76 29 145 88 212 46 53 113 145 113 155 0 4 -13 19 -29 34 -42 39 -48 74 -23 132 l20 49 -28 20 c-77 55 -80 191 -6 259 l26 24 -48 28 c-71 40 -148 129 -167 191 -23 78 -19 183 10 275 25 79 65 155 168 317 32 49 57 97 57 106 0 9 -37 46 -82 82 -92 74 -83 75 -112 -24 -21 -71 -87 -171 -134 -203 -32 -22 -39 -23 -57 -11 -12 8 -23 30 -27 54 -9 55 -49 130 -90 169 -56 54 -112 72 -255 83 -70 5 -147 13 -170 16 -40 6 -43 4 -53 -21 -44 -115 -189 -195 -356 -195 -79 0 -101 13 -90 53 3 13 1 40 -5 61 -18 63 -67 107 -196 171 -90 44 -130 71 -169 112 -96 99 -149 250 -142 399 l4 80 -32 10 c-32 10 -33 10 -28 -16 7 -33 -16 -55 -50 -46 -53 13 -39 92 15 84 24 -4 29 -1 29 17 0 41 44 60 73 30 13 -13 16 -13 21 0 3 10 -23 43 -73 92 -173 172 -269 367 -344 694 -52 225 -85 299 -171 383 -131 126 -308 142 -389 34 -54 -71 -55 -158 -4 -206 36 -33 68 -42 116 -29 38 10 44 10 56 -7 19 -26 3 -57 -48 -90 -192 -124 -484 -30 -596 192 -48 95 -64 179 -58 302 8 165 52 283 156 419 159 211 448 347 807 382 l124 12 0 42 c0 61 25 135 80 239 27 50 54 112 61 139 15 60 33 65 134 38 122 -34 229 -94 317 -179 26 -25 49 -44 51 -41 2 2 23 36 45 75 63 109 84 170 84 244 0 77 -13 114 -53 156 -21 21 -30 40 -27 55 3 23 6 24 83 22 174 -3 389 -102 546 -250 l66 -63 18 48 c32 81 82 157 161 241 91 97 181 166 375 289 197 125 292 222 364 377 18 39 38 90 45 115 15 58 27 72 58 68 22 -3 28 -13 52 -88z m-3153 -2911 c8 -8 17 -8 33 1 35 19 72 -2 68 -37 -4 -37 -49 -54 -75 -31 -15 13 -21 14 -35 4 -15 -11 -14 -14 6 -33 18 -17 23 -18 34 -7 17 19 47 18 66 -2 21 -20 20 -30 -4 -54 -25 -25 -42 -25 -65 0 -15 17 -19 17 -32 5 -18 -18 -45 -19 -61 -3 -18 18 -14 56 7 68 19 10 19 11 -5 35 -20 20 -23 28 -14 45 12 22 58 28 77 9z m6145 0 c14 -8 23 -8 31 0 19 19 65 13 77 -9 9 -16 6 -24 -13 -44 l-23 -23 24 -22 c22 -20 23 -23 9 -44 -17 -27 -49 -33 -69 -14 -12 13 -17 12 -37 -4 -29 -24 -36 -24 -61 1 -24 24 -25 34 -4 54 19 20 49 21 66 2 11 -11 16 -10 34 7 20 19 21 22 6 33 -14 10 -20 9 -35 -4 -13 -12 -24 -13 -45 -6 -33 12 -42 52 -16 71 22 16 29 16 56 2z m-6144 -201 c19 -19 14 -46 -12 -63 -44 -29 -89 13 -60 54 17 23 53 28 72 9z m6246 -10 c17 -24 8 -51 -20 -62 -22 -8 -64 19 -64 42 0 43 58 57 84 20z m-6136 0 c36 -36 -11 -93 -57 -69 -39 21 -21 81 24 81 12 0 26 -5 33 -12z m6020 0 c36 -36 -11 -93 -57 -69 -39 21 -21 81 24 81 12 0 26 -5 33 -12z m-6130 -100 c33 -33 -16 -91 -57 -68 -24 12 -29 65 -8 73 22 10 53 7 65 -5z m6236 6 c24 -9 21 -61 -5 -74 -16 -9 -26 -8 -45 5 -53 34 -11 93 50 69z m-6097 -31 c13 -19 12 -24 -6 -42 -25 -25 -44 -27 -65 -5 -20 20 -20 38 0 59 21 21 53 16 71 -12z m5967 11 c9 -8 16 -22 16 -29 0 -18 -28 -45 -46 -45 -21 0 -56 39 -48 53 24 41 51 49 78 21z m-6100 -106 c17 -28 -4 -53 -45 -53 -30 0 -34 3 -37 29 -2 16 2 33 10 38 20 13 60 5 72 -14z m6234 13 c8 -5 12 -21 10 -37 -2 -23 -8 -30 -31 -32 -32 -4 -57 13 -57 37 0 35 45 53 78 32z m-6064 -23 c17 -28 -4 -53 -45 -53 -28 0 -35 4 -37 23 -2 13 2 30 9 38 16 19 59 14 73 -8z m5896 8 c6 -8 10 -25 8 -38 -6 -43 -88 -33 -88 11 0 38 55 56 80 27z m-6066 -108 c17 -28 -4 -53 -45 -53 -28 0 -35 4 -37 23 -2 13 -1 30 2 38 8 21 66 14 80 -8z m206 8 c19 -24 8 -60 -22 -70 -33 -12 -58 6 -58 40 0 38 55 59 80 30z m5811 4 c23 -13 25 -53 3 -70 -22 -19 -68 -1 -72 28 -6 43 28 64 69 42z m224 -30 c0 -31 -3 -35 -28 -38 -32 -4 -57 13 -57 37 0 27 22 42 55 39 27 -3 30 -6 30 -38z m-5979 -85 c12 -18 11 -24 -2 -43 -19 -27 -60 -29 -74 -3 -14 27 -13 37 6 56 21 21 53 16 70 -10z m5708 9 c19 -19 20 -35 3 -58 -17 -23 -55 -18 -73 9 -12 18 -11 24 2 43 18 26 46 28 68 6z m-5970 -16 c17 -28 -4 -53 -45 -53 -28 0 -35 4 -37 23 -2 13 -1 30 2 38 8 21 66 14 80 -8z m6241 -18 c0 -31 -3 -35 -28 -38 -32 -4 -57 13 -57 37 0 27 22 42 55 39 27 -3 30 -6 30 -38z m-5921 -56 c9 -8 16 -22 16 -29 0 -19 -28 -45 -49 -45 -39 0 -57 60 -23 79 24 15 38 13 56 -5z m5577 6 c35 -19 18 -80 -22 -80 -21 0 -49 26 -49 45 0 16 27 45 41 45 6 0 19 -5 30 -10z m-5901 -35 c27 -32 -7 -73 -52 -62 -28 7 -40 35 -26 61 11 20 61 21 78 1z m6248 -22 c3 -28 0 -33 -24 -39 -31 -8 -57 5 -62 30 -6 27 18 47 52 44 27 -3 31 -7 34 -35z m-5843 -62 c0 -44 -33 -59 -67 -32 -20 17 -21 22 -10 45 10 23 18 27 45 24 29 -3 32 -6 32 -37z m5437 13 c11 -23 10 -29 -10 -45 -28 -22 -66 -12 -70 20 -6 36 5 51 38 51 23 0 33 -6 42 -26z m-5847 -34 c37 -41 -24 -97 -63 -58 -18 18 -15 55 6 67 25 15 37 13 57 -9z m6236 10 c21 -12 25 -50 7 -68 -39 -39 -100 17 -63 58 21 23 29 24 56 10z m-5736 -55 c0 -17 -8 -33 -20 -41 -18 -12 -24 -11 -43 2 -27 19 -28 38 -2 64 28 28 65 13 65 -25z m5257 9 c11 -23 10 -29 -11 -45 -21 -17 -26 -18 -45 -6 -42 28 -33 77 14 77 23 0 33 -6 42 -26z m-4834 -16 c27 -27 7 -78 -30 -78 -27 0 -52 44 -38 69 12 23 49 28 68 9z m4402 -9 c9 -16 8 -26 -5 -45 -26 -39 -75 -26 -75 21 0 45 60 63 80 24z m-4722 -36 c3 -27 -1 -35 -23 -45 -22 -10 -29 -9 -47 10 -19 18 -20 25 -10 47 10 22 18 26 45 23 28 -3 32 -7 35 -35z m5054 12 c10 -22 9 -29 -10 -47 -18 -19 -25 -20 -47 -10 -18 8 -25 19 -25 40 0 36 6 42 42 42 21 0 32 -7 40 -25z m-4835 -14 c16 -34 0 -61 -36 -61 -42 0 -59 58 -23 79 25 15 45 9 59 -18z m4594 19 c37 -20 21 -80 -22 -80 -43 0 -56 40 -26 78 12 15 22 15 48 2z m-4713 -12 c27 -27 7 -78 -29 -78 -28 0 -51 29 -43 54 11 36 48 48 72 24z m4828 4 c21 -13 25 -49 9 -66 -31 -30 -75 -13 -75 29 0 37 36 57 66 37z m-5532 -18 c20 -20 20 -38 0 -59 -21 -21 -53 -16 -70 10 -12 18 -11 24 2 43 18 26 46 28 68 6z m6250 -6 c13 -19 14 -25 2 -43 -17 -26 -49 -31 -70 -10 -20 21 -20 39 0 59 22 22 50 20 68 -6z m-6250 -104 c20 -20 20 -38 0 -59 -21 -21 -53 -16 -70 10 -12 18 -11 24 2 43 18 26 46 28 68 6z m6250 -6 c13 -19 14 -25 2 -43 -17 -26 -49 -31 -70 -10 -20 21 -20 39 0 59 22 22 50 20 68 -6z m-6249 -101 c13 -10 16 -21 11 -40 -12 -51 -86 -44 -86 7 0 42 39 59 75 33z m6243 1 c17 -17 15 -53 -3 -68 -23 -19 -64 -4 -71 27 -11 41 44 71 74 41z m-6240 -110 c18 -18 15 -43 -8 -63 -17 -15 -24 -16 -45 -7 -43 20 -28 82 20 82 12 0 26 -5 33 -12z m6240 0 c39 -39 -17 -100 -58 -63 -34 31 -20 75 25 75 12 0 26 -5 33 -12z m-6234 -110 c27 -44 -48 -79 -78 -37 -22 32 -4 61 36 57 17 -2 36 -11 42 -20z m6245 4 c22 -40 -44 -83 -77 -50 -29 29 -6 68 40 68 16 0 31 -7 37 -18z m-6224 -159 c56 -71 105 -167 105 -205 0 -66 -60 -142 -121 -155 l-29 -5 19 -24 c23 -29 17 -60 -15 -81 -22 -14 -26 -14 -49 1 -29 19 -33 60 -8 88 15 17 15 18 -2 18 -29 0 -82 38 -105 76 -29 47 -28 109 3 170 39 76 116 174 138 174 11 0 37 -24 64 -57z m6250 -5 c97 -129 119 -212 75 -282 -23 -38 -76 -76 -105 -76 -17 0 -17 -1 -2 -18 25 -28 21 -69 -8 -88 -23 -15 -27 -15 -49 -1 -32 21 -38 52 -15 81 l19 24 -29 5 c-61 13 -121 89 -121 155 0 63 129 262 169 262 12 0 37 -24 66 -62z m-4501 -214 c20 -19 20 -38 1 -58 -13 -13 -13 -15 6 -18 50 -7 49 -69 0 -76 -43 -7 -65 32 -35 62 14 15 14 16 -3 16 -24 0 -43 19 -43 41 0 21 26 49 45 49 7 0 21 -7 29 -16z m2680 0 c30 -29 13 -74 -27 -74 -17 0 -17 -1 -3 -16 30 -30 8 -69 -35 -62 -49 7 -50 69 0 76 19 3 19 5 6 18 -8 9 -15 22 -15 29 0 18 27 45 45 45 7 0 21 -7 29 -16z m-2776 -16 c36 -36 -11 -93 -57 -69 -39 21 -21 81 24 81 12 0 26 -5 33 -12z m2880 0 c36 -36 -11 -93 -57 -69 -39 21 -21 81 24 81 12 0 26 -5 33 -12z m-2874 -110 c23 -37 -35 -76 -70 -48 -15 13 -19 52 -7 64 13 13 66 1 77 -16z m976 8 c6 -8 10 -25 8 -38 -2 -18 -10 -24 -35 -26 -29 -3 -31 -5 -20 -23 28 -44 -41 -76 -70 -32 -13 19 -12 24 6 42 12 12 27 18 36 15 13 -5 14 -2 6 18 -5 15 -5 31 0 41 12 21 52 22 69 3z m919 -3 c5 -10 5 -26 0 -41 -8 -20 -7 -23 6 -18 9 3 24 -3 36 -15 18 -18 19 -23 6 -42 -29 -44 -98 -12 -70 32 11 18 9 20 -20 23 -25 2 -33 8 -35 26 -2 13 2 30 8 38 17 19 57 18 69 -3z m989 -11 c6 -43 -45 -71 -76 -40 -30 30 -4 71 43 66 23 -2 31 -9 33 -26z m-2710 -70 c7 -49 -60 -75 -77 -29 -14 35 5 59 42 55 25 -2 33 -8 35 -26z m2530 11 c15 -27 -3 -63 -31 -63 -13 0 -28 5 -35 12 -13 13 -16 50 -5 61 13 14 62 7 71 -10z m-2700 -51 c4 -29 -14 -52 -42 -52 -28 0 -46 18 -46 45 0 30 9 36 50 33 28 -2 36 -8 38 -26z m2880 0 c4 -29 -14 -52 -42 -52 -28 0 -46 18 -46 45 0 30 9 36 50 33 28 -2 36 -8 38 -26z m-2653 -42 c11 -18 -6 -50 -31 -56 -49 -12 -74 41 -32 70 21 15 49 9 63 -14z m625 10 c38 -38 -14 -94 -56 -60 -19 17 -18 57 4 69 24 15 29 14 52 -9z m1141 10 c23 -13 25 -52 4 -70 -8 -7 -25 -10 -39 -6 -32 8 -40 42 -15 67 22 22 24 22 50 9z m657 -37 c7 -46 -69 -56 -84 -11 -5 16 -1 27 16 40 20 16 25 17 44 5 12 -8 22 -23 24 -34z m-2650 -51 c4 -29 -14 -52 -42 -52 -28 0 -46 18 -46 45 0 30 9 36 50 33 28 -2 36 -8 38 -26z m773 7 c18 -18 19 -23 6 -42 -27 -41 -77 -29 -77 17 0 46 37 59 71 25z m1307 9 c16 -16 15 -53 -3 -68 -19 -16 -45 -9 -62 17 -13 19 -12 24 6 42 24 24 42 26 59 9z m800 -16 c4 -29 -14 -52 -42 -52 -28 0 -46 18 -46 45 0 30 9 36 50 33 28 -2 36 -8 38 -26z m-2594 2 c20 -19 20 -24 0 -52 -26 -38 -74 -22 -74 25 0 38 47 55 74 27z m2277 6 c35 -19 18 -80 -22 -80 -16 0 -49 35 -49 52 0 10 30 38 41 38 6 0 19 -5 30 -10z m-1887 -43 c26 -19 18 -71 -12 -75 -13 -2 -30 2 -38 8 -19 17 -18 57 4 69 22 13 25 13 46 -2z m1487 3 c22 -13 25 -52 5 -70 -8 -6 -25 -10 -38 -8 -30 4 -38 56 -12 75 21 16 20 16 45 3z m-1783 -27 c15 -28 -3 -63 -31 -63 -33 0 -51 24 -43 55 5 20 13 25 36 25 18 0 33 -7 38 -17z m2106 -5 c15 -25 -3 -52 -38 -56 -20 -3 -28 2 -35 20 -13 33 4 60 36 56 14 -2 31 -11 37 -20z m-1910 -1 c38 -27 -2 -95 -41 -71 -25 16 -29 55 -7 71 10 7 21 13 24 13 3 0 14 -6 24 -13z m1690 0 c38 -27 -2 -95 -41 -71 -25 16 -29 55 -7 71 10 7 21 13 24 13 3 0 14 -6 24 -13z m-1784 -18 c9 -16 8 -26 -5 -45 -19 -29 -36 -30 -60 -4 -15 17 -16 24 -7 45 15 32 56 34 72 4z m1902 -4 c9 -21 8 -28 -7 -45 -24 -26 -41 -25 -60 4 -13 19 -14 29 -5 45 16 30 57 28 72 -4z m-2401 5 c37 -20 18 -80 -26 -80 -43 0 -63 58 -27 79 22 13 29 13 53 1z m2880 0 c37 -20 18 -80 -26 -80 -43 0 -63 58 -27 79 22 13 29 13 53 1z m-2873 -112 c36 -36 -11 -93 -57 -69 -39 21 -21 81 24 81 12 0 26 -5 33 -12z m2880 0 c36 -36 -11 -93 -57 -69 -39 21 -21 81 24 81 12 0 26 -5 33 -12z m-2880 -110 c36 -36 -11 -93 -57 -69 -39 21 -21 81 24 81 12 0 26 -5 33 -12z m2880 0 c36 -36 -11 -93 -57 -69 -39 21 -21 81 24 81 12 0 26 -5 33 -12z m-2878 -113 c17 -20 5 -62 -20 -70 -44 -14 -80 41 -48 73 17 17 53 15 68 -3z m2878 3 c32 -32 -4 -87 -48 -73 -25 8 -37 50 -20 70 15 18 51 20 68 3z m-2878 -113 c15 -19 6 -61 -16 -69 -27 -10 -53 3 -60 30 -8 30 11 54 41 54 12 0 28 -7 35 -15z m2880 0 c15 -19 6 -61 -16 -69 -27 -10 -53 3 -60 30 -8 30 11 54 41 54 12 0 28 -7 35 -15z m-2880 -110 c7 -8 10 -25 6 -40 -5 -21 -12 -25 -41 -25 -29 0 -36 4 -41 25 -8 31 10 55 41 55 12 0 28 -7 35 -15z m2880 0 c7 -8 10 -25 6 -40 -5 -21 -12 -25 -41 -25 -29 0 -36 4 -41 25 -8 31 10 55 41 55 12 0 28 -7 35 -15z m-2876 -117 c14 -23 -3 -52 -33 -56 -42 -6 -67 38 -39 66 17 17 58 11 72 -10z m2880 0 c14 -23 -3 -52 -33 -56 -42 -6 -67 38 -39 66 17 17 58 11 72 -10z m-2878 -113 c8 -31 -10 -55 -40 -55 -28 0 -46 18 -46 45 0 29 8 35 46 35 28 0 35 -5 40 -25z m2882 -3 c4 -30 -14 -52 -43 -52 -31 0 -49 24 -41 55 6 23 11 26 44 23 30 -2 38 -7 40 -26z m-2894 -88 c30 -30 13 -74 -29 -74 -60 0 -59 88 2 90 6 0 19 -7 27 -16z m2877 6 c37 -20 18 -80 -26 -80 -42 0 -59 44 -29 74 18 19 28 20 55 6z m-2873 -102 c36 -36 -11 -93 -57 -69 -39 21 -21 81 24 81 12 0 26 -5 33 -12z m2880 0 c36 -36 -11 -93 -57 -69 -39 21 -21 81 24 81 12 0 26 -5 33 -12z m-2854 -145 c59 -74 106 -167 106 -210 0 -69 -51 -137 -117 -157 -21 -7 -21 -8 -5 -35 15 -26 15 -30 -1 -55 -11 -16 -27 -26 -42 -26 -48 0 -72 55 -39 91 14 16 13 18 -19 28 -39 13 -81 54 -96 94 -18 47 -13 91 19 153 35 70 116 174 135 174 7 0 34 -26 59 -57z m2880 0 c59 -74 106 -167 106 -209 0 -69 -45 -134 -107 -155 -32 -10 -33 -12 -19 -28 33 -36 9 -91 -39 -91 -15 0 -31 10 -42 26 -16 25 -16 29 -1 55 16 27 16 28 -5 35 -38 11 -89 55 -103 90 -21 51 -17 95 16 160 35 70 116 174 135 174 7 0 34 -26 59 -57z m-1456 -731 c4 -29 -14 -52 -42 -52 -28 0 -46 18 -46 45 0 30 9 36 50 33 28 -2 36 -8 38 -26z m-8 -77 c15 -19 6 -61 -16 -69 -27 -10 -53 3 -60 30 -8 30 11 54 41 54 12 0 28 -7 35 -15z m4 -117 c14 -23 -3 -52 -33 -56 -42 -6 -67 38 -39 66 17 17 58 11 72 -10z m-13 -88 c37 -20 18 -80 -26 -80 -43 0 -63 58 -27 79 22 13 29 13 53 1z m9 -115 c15 -19 6 -61 -16 -69 -42 -16 -82 35 -54 69 16 19 54 19 70 0z m4 -117 c14 -23 -3 -52 -33 -56 -42 -6 -67 38 -39 66 17 17 58 11 72 -10z m-20 -88 c45 -17 29 -80 -19 -80 -43 0 -63 58 -27 79 21 13 16 13 46 1z m14 -102 c16 -16 15 -43 -3 -58 -13 -11 -8 -20 37 -69 65 -72 91 -129 91 -204 0 -98 -56 -152 -158 -152 -102 0 -158 54 -158 152 0 75 26 132 91 204 45 49 50 58 37 69 -30 25 -11 70 30 70 12 0 26 -5 33 -12z m4 -525 c34 -31 11 -93 -35 -93 -27 0 -57 28 -57 53 0 48 56 73 92 40z" id="1"/>
<path d="M4230 8103 c-12 -38 -52 -131 -88 -207 -72 -152 -86 -219 -62 -291 24 -71 112 -145 175 -145 63 0 151 74 175 145 24 72 10 139 -62 291 -36 76 -76 169 -88 207 -12 37 -23 67 -25 67 -2 0 -13 -30 -25 -67z m65 -283 c29 -32 10 -74 -33 -78 -18 -2 -40 2 -48 9 -17 14 -18 61 -2 77 19 19 63 14 83 -8z m-10 -120 c34 -13 50 -55 34 -92 -20 -48 -93 -52 -118 -6 -19 34 -6 77 29 95 30 15 24 15 55 3z" id="2"/>
<path d="M4350 8079 c0 -12 32 -84 75 -169 74 -148 88 -221 60 -317 -17 -59 -88 -143 -135 -163 -16 -7 -30 -18 -30 -25 0 -38 95 -198 157 -265 61 -66 200 -176 210 -166 3 2 -7 26 -21 53 -102 202 -65 462 76 534 144 73 316 -83 268 -244 -25 -83 -79 -127 -155 -127 -77 0 -124 38 -125 102 0 66 63 117 119 96 31 -11 23 -42 -13 -48 -16 -3 -35 -15 -43 -27 -14 -20 -13 -24 11 -48 34 -34 69 -32 112 8 64 58 58 155 -13 217 -27 24 -43 30 -79 30 -61 0 -100 -29 -132 -99 -57 -122 -23 -319 76 -448 31 -42 38 -41 40 2 2 52 33 115 76 153 20 17 41 32 47 32 16 0 67 -89 90 -158 l22 -66 37 80 c20 44 53 106 73 137 43 66 45 86 16 161 -62 167 -207 309 -509 497 -129 80 -222 158 -283 239 -15 19 -27 32 -27 29z" id="3"/>
<path d="M4080 7988 c-61 -66 -91 -88 -329 -241 -195 -125 -331 -261 -393 -395 -47 -98 -47 -127 -3 -197 21 -32 55 -95 75 -139 l37 -80 22 66 c23 69 74 158 90 158 6 0 27 -15 47 -32 43 -38 74 -101 76 -153 2 -43 9 -44 40 -2 99 129 132 325 76 448 -32 70 -70 99 -132 99 -83 0 -144 -76 -133 -167 4 -38 12 -54 41 -80 43 -40 78 -42 112 -8 24 24 25 28 11 48 -8 12 -27 24 -43 27 -36 6 -44 37 -13 48 56 21 119 -30 119 -96 -1 -64 -48 -102 -125 -102 -76 0 -130 44 -155 127 -36 118 53 251 173 261 204 17 301 -294 171 -551 -14 -27 -24 -51 -21 -53 10 -10 149 100 210 166 62 67 157 227 157 265 0 7 -14 18 -30 25 -47 20 -118 104 -135 163 -29 97 -15 167 65 326 44 88 66 142 58 140 -2 0 -32 -32 -68 -71z" id="4"/>
<path d="M2695 7513 c33 -80 30 -189 -8 -282 -13 -33 -49 -104 -80 -158 -30 -54 -61 -116 -68 -138 -13 -41 -19 -228 -7 -240 3 -4 19 0 35 8 115 59 249 2 298 -126 l17 -46 43 6 c80 10 158 -29 206 -105 l29 -46 0 100 c0 275 -93 537 -212 600 -66 35 -146 2 -186 -76 -50 -97 7 -220 102 -220 59 0 110 82 87 142 -15 40 -50 46 -78 14 -25 -30 -56 -31 -61 -3 -5 24 24 56 66 74 50 21 97 -3 123 -62 23 -52 20 -87 -13 -146 -60 -109 -220 -94 -278 26 -87 179 85 384 256 306 143 -65 236 -302 253 -641 l7 -135 18 40 c26 57 117 195 161 244 l38 41 -21 90 c-88 377 -356 660 -706 744 -25 6 -28 5 -21 -11z" id="5"/>
<path d="M5715 7499 c-317 -107 -545 -369 -627 -719 l-21 -90 38 -41 c44 -49 135 -187 161 -244 l18 -40 7 140 c16 332 111 572 253 636 171 78 343 -127 256 -306 -58 -120 -218 -135 -278 -26 -33 59 -36 94 -13 146 26 59 73 83 124 62 41 -18 70 -50 65 -74 -5 -27 -33 -27 -62 1 -29 30 -35 31 -62 12 -14 -11 -19 -26 -19 -61 0 -40 5 -51 33 -76 101 -90 228 60 160 191 -40 78 -120 111 -186 76 -119 -63 -212 -325 -212 -600 l0 -100 29 46 c48 76 126 115 206 105 l43 -6 17 46 c49 128 183 185 298 126 16 -8 32 -12 35 -8 12 12 6 199 -7 240 -7 22 -38 84 -68 138 -31 54 -67 125 -80 158 -37 93 -41 203 -8 282 9 22 6 22 -100 -14z" id="6"/>
<path d="M4175 7182 c-11 -20 -61 -79 -112 -129 -77 -77 -88 -93 -69 -93 55 0 165 121 196 216 16 48 8 51 -15 6z" id="7"/>
<path d="M4310 7209 c1 -22 35 -94 70 -145 38 -54 103 -104 137 -104 20 0 11 12 -61 83 -46 45 -98 104 -115 131 -17 28 -31 43 -31 35z" id="8"/>
<path d="M2017 7072 c-71 -144 -79 -170 -49 -156 9 5 45 9 79 9 59 0 65 -2 99 -36 l36 -36 36 19 c61 31 145 17 198 -33 l20 -19 12 77 12 77 -52 54 c-29 29 -77 69 -107 89 -50 33 -182 92 -206 92 -5 0 -40 -61 -78 -137z" id="9"/>
<path d="M6334 7181 c-88 -35 -164 -85 -232 -153 l-52 -54 12 -77 12 -77 20 19 c53 50 137 64 198 33 l36 -19 36 36 c34 34 40 36 99 36 34 0 70 -4 80 -9 12 -6 17 -4 17 5 0 22 -134 288 -145 288 -5 0 -42 -12 -81 -28z" id="10"/>
<path d="M3561 7031 c-39 -91 -67 -261 -43 -261 4 0 30 23 59 50 77 74 91 148 43 228 -11 17 -24 32 -29 32 -5 0 -18 -22 -30 -49z" id="11"/>
<path d="M4890 7048 c-48 -80 -34 -154 43 -228 29 -27 55 -50 60 -50 12 0 8 81 -8 148 -18 74 -54 162 -66 162 -5 0 -18 -15 -29 -32z" id="12"/>
<path d="M4167 7020 c-21 -28 -55 -62 -77 -76 -22 -14 -48 -41 -59 -60 -14 -24 -28 -34 -44 -34 -33 0 -61 33 -55 65 3 14 4 25 2 25 -3 0 -77 -48 -166 -107 -252 -168 -366 -288 -454 -479 -109 -236 -115 -515 -14 -721 59 -120 157 -229 280 -313 65 -44 180 -103 187 -96 3 2 -6 10 -19 17 -42 22 -148 132 -178 183 -40 71 -57 140 -75 296 -12 102 -21 147 -40 182 -21 42 -22 49 -9 62 13 13 20 13 60 -4 25 -11 77 -40 115 -65 38 -25 71 -45 73 -45 2 0 -17 38 -41 85 -116 224 -140 419 -73 598 47 125 146 205 264 214 74 5 133 -21 180 -79 60 -76 44 -202 -36 -273 -39 -36 -43 -37 -99 -33 -115 8 -189 110 -148 202 22 47 121 74 149 41 21 -25 4 -45 -38 -45 -44 0 -62 -14 -62 -50 0 -35 26 -69 66 -86 47 -20 59 -18 98 17 37 32 53 77 48 134 -9 103 -138 148 -247 86 -159 -91 -199 -347 -95 -606 33 -84 128 -253 154 -274 14 -12 16 -10 16 15 0 49 39 175 77 246 19 38 68 111 108 165 108 142 173 276 221 451 2 7 14 12 26 10 18 -2 25 -15 39 -68 40 -154 101 -274 211 -415 90 -117 168 -297 168 -389 0 -25 2 -27 16 -15 26 21 121 190 154 274 104 259 64 515 -95 606 -109 62 -238 17 -247 -86 -5 -57 11 -102 48 -134 39 -35 51 -37 98 -17 40 17 66 51 66 86 0 36 -18 50 -62 50 -42 0 -59 20 -38 45 28 33 127 6 149 -41 17 -39 13 -88 -11 -124 -37 -54 -71 -73 -137 -78 -56 -4 -60 -3 -99 33 -80 71 -96 197 -36 273 47 58 106 84 180 79 118 -9 217 -89 264 -214 67 -179 43 -374 -73 -598 -24 -47 -43 -85 -41 -85 2 0 35 20 73 45 38 25 90 54 115 65 40 17 47 17 60 4 13 -13 12 -20 -9 -62 -19 -35 -28 -80 -40 -182 -18 -156 -35 -225 -75 -296 -30 -51 -136 -161 -178 -183 -13 -7 -22 -15 -19 -17 15 -16 208 103 294 180 295 266 328 721 78 1096 -68 102 -190 211 -373 333 -89 59 -163 107 -165 107 -2 0 -2 -14 1 -30 5 -38 -12 -60 -50 -60 -22 0 -33 8 -49 35 -11 19 -36 44 -56 56 -19 12 -53 45 -75 73 -30 37 -39 44 -34 26 4 -14 10 -63 12 -110 5 -75 3 -90 -18 -130 -66 -128 -150 45 -108 225 5 22 8 41 6 42 -1 1 -19 -20 -39 -47z" id="13"/>
<path d="M4247 6962 c-7 -57 1 -122 14 -122 15 0 14 132 0 159 -5 8 -10 -7 -14 -37z" id="14"/>
<path d="M1992 6860 c-19 -11 -32 -26 -29 -33 2 -7 34 -15 78 -20 104 -10 109 -8 74 31 -39 42 -80 49 -123 22z" id="15"/>
<path d="M6434 6870 c-30 -12 -70 -64 -52 -68 31 -6 162 14 165 25 5 14 -54 53 -77 52 -8 0 -25 -4 -36 -9z" id="16"/>
<path d="M2224 6807 l-26 -23 93 -26 c52 -14 102 -29 112 -33 44 -18 -6 65 -53 90 -43 22 -94 19 -126 -8z" id="17"/>
<path d="M6155 6811 c-49 -29 -89 -103 -47 -86 9 4 59 19 111 33 l93 26 -26 23 c-33 28 -89 30 -131 4z" id="18"/>
<path d="M1733 6730 c-431 -45 -741 -245 -845 -546 -85 -247 -17 -489 167 -595 63 -36 69 -36 50 1 -8 16 -15 45 -15 64 0 26 -5 36 -20 41 -26 8 -68 64 -81 106 -15 54 5 122 51 162 20 19 42 36 48 38 9 3 9 13 1 39 -15 50 3 111 42 144 17 14 37 26 45 26 19 0 18 7 -7 41 -49 70 -45 162 11 212 85 76 213 -19 162 -123 -33 -68 -123 -63 -130 8 -3 29 0 32 22 32 16 0 26 -6 26 -15 0 -25 29 -17 36 10 8 33 -11 55 -47 55 -32 0 -59 -31 -59 -68 0 -39 31 -92 62 -108 34 -18 58 -15 215 22 57 14 136 26 178 27 41 1 75 2 75 3 0 0 -21 22 -46 48 -98 102 -111 209 -36 290 102 109 275 48 259 -91 -5 -50 -20 -71 -63 -89 -93 -39 -181 78 -99 132 34 23 77 11 73 -19 -2 -14 -11 -23 -26 -25 -26 -4 -25 -20 1 -36 42 -27 75 50 42 100 -13 20 -24 24 -61 24 -39 0 -51 -5 -80 -34 -28 -28 -34 -41 -34 -78 0 -88 95 -185 238 -243 128 -52 267 -124 321 -165 29 -23 55 -39 57 -37 2 2 -3 21 -12 43 -9 21 -19 78 -22 125 -4 77 -2 92 20 141 33 71 81 103 155 103 44 0 56 -5 83 -30 74 -71 55 -207 -35 -250 -61 -28 -125 10 -125 75 0 43 24 70 63 70 34 0 37 -31 5 -53 -21 -14 -22 -16 -7 -32 22 -22 50 -13 72 24 36 61 6 141 -53 141 -80 0 -123 -62 -121 -172 3 -128 60 -246 192 -398 50 -57 116 -135 146 -172 31 -38 58 -67 60 -64 3 3 -7 34 -21 70 -63 156 -72 287 -26 381 60 125 199 169 316 100 110 -64 134 -207 49 -292 -30 -30 -39 -33 -90 -33 -51 0 -60 3 -91 34 -38 38 -45 85 -19 123 30 43 110 36 103 -10 -2 -17 -9 -22 -31 -20 -25 2 -28 -1 -25 -25 4 -34 44 -58 82 -48 32 8 66 59 66 101 0 103 -134 179 -229 130 -39 -20 -78 -69 -91 -113 -15 -55 -12 -151 6 -213 18 -61 82 -216 125 -301 28 -55 30 -57 76 -64 68 -10 124 -38 177 -90 43 -43 96 -135 96 -168 0 -13 13 -16 68 -16 44 0 81 -7 109 -20 53 -24 123 -94 147 -148 l19 -41 31 23 c104 78 217 82 310 11 l44 -33 52 49 c42 39 48 49 32 49 -12 0 -68 15 -125 34 -294 96 -504 262 -617 485 -58 117 -82 221 -84 373 l-2 126 -39 49 c-66 82 -220 227 -317 297 -187 134 -443 242 -668 280 -114 19 -287 26 -387 16z" id="19"/>
<path d="M6503 6729 c-358 -34 -705 -197 -967 -453 -51 -50 -110 -113 -131 -139 l-39 -49 -2 -126 c-2 -152 -26 -256 -84 -373 -113 -223 -323 -389 -617 -485 -57 -19 -113 -34 -125 -34 -16 0 -10 -10 32 -49 l52 -49 44 33 c93 71 206 67 310 -11 l31 -23 19 41 c24 54 94 124 147 148 28 13 65 20 110 20 54 0 67 3 67 16 0 33 53 125 96 168 53 52 109 80 177 90 46 7 48 9 76 64 43 85 107 240 125 301 18 62 21 158 6 213 -13 44 -52 93 -91 113 -95 49 -229 -27 -229 -130 0 -42 34 -93 66 -101 38 -10 78 14 82 48 3 24 0 27 -25 25 -22 -2 -29 3 -31 20 -7 46 73 53 103 10 26 -38 19 -85 -19 -123 -31 -31 -40 -34 -91 -34 -51 0 -60 3 -90 33 -85 85 -61 228 49 292 86 50 186 42 256 -21 105 -95 117 -254 34 -460 -14 -36 -24 -67 -21 -70 2 -3 29 26 60 64 30 37 96 115 146 172 132 152 189 270 192 398 2 110 -41 172 -121 172 -59 0 -89 -80 -53 -141 22 -37 50 -46 72 -24 15 16 14 18 -6 32 -34 23 -30 53 5 53 38 0 62 -28 62 -72 0 -63 -65 -101 -125 -73 -90 43 -109 179 -35 250 27 25 39 30 83 30 74 0 122 -32 155 -103 22 -49 24 -64 20 -141 -3 -47 -13 -104 -22 -125 -9 -22 -14 -41 -12 -43 2 -2 28 14 57 37 54 41 193 113 321 165 143 58 238 155 238 243 0 37 -6 50 -34 78 -29 29 -41 34 -80 34 -37 0 -48 -4 -61 -24 -33 -50 0 -127 42 -100 26 16 27 32 1 36 -15 2 -24 11 -26 25 -4 30 39 42 73 19 82 -54 -6 -171 -99 -132 -43 18 -58 39 -63 89 -16 139 157 200 259 91 75 -81 62 -188 -36 -290 -25 -26 -46 -48 -46 -48 0 -1 35 -2 78 -4 42 -1 122 -13 177 -26 155 -37 179 -40 213 -22 77 40 79 176 2 176 -35 0 -54 -22 -46 -55 7 -27 36 -35 36 -10 0 9 10 15 26 15 22 0 25 -3 22 -32 -7 -71 -97 -76 -130 -8 -51 104 77 199 162 123 56 -50 60 -142 11 -212 -25 -34 -26 -41 -7 -41 8 0 28 -12 45 -26 39 -33 57 -94 42 -144 -8 -26 -8 -36 1 -39 6 -2 28 -19 48 -38 46 -40 66 -108 51 -162 -13 -42 -55 -98 -81 -106 -15 -5 -20 -15 -20 -41 0 -19 -7 -48 -15 -64 -19 -37 -13 -37 50 -1 184 106 252 348 167 595 -105 305 -416 503 -857 546 -113 11 -145 11 -262 -1z" id="20"/>
<path d="M2607 6661 c-15 -5 5 -21 90 -71 135 -81 127 -78 119 -44 -10 39 -51 91 -86 109 -30 16 -92 19 -123 6z" id="21"/>
<path d="M5774 6651 c-37 -22 -70 -66 -80 -105 -8 -34 -15 -37 119 44 85 50 105 66 90 71 -35 14 -98 9 -129 -10z" id="22"/>
<path d="M4236 6471 c-25 -71 -106 -209 -185 -314 -120 -161 -163 -271 -165 -422 0 -57 6 -114 17 -155 25 -94 118 -274 182 -355 56 -71 86 -95 70 -59 -52 122 -84 255 -100 424 -4 36 -13 72 -21 81 -19 21 -18 43 4 62 24 22 55 21 75 -1 20 -22 21 -36 5 -62 -26 -41 24 -333 76 -444 l24 -51 1 40 c5 186 0 689 -7 694 -19 13 -22 44 -7 67 33 51 129 14 108 -42 -3 -10 -11 -22 -15 -25 -7 -5 -12 -508 -7 -694 l1 -40 24 51 c52 111 102 403 76 444 -17 27 -15 44 6 63 24 22 55 21 75 -1 21 -23 21 -40 3 -61 -8 -9 -17 -45 -21 -81 -16 -169 -48 -302 -100 -424 -16 -36 14 -12 70 59 64 81 157 261 182 355 11 41 17 98 17 155 -2 150 -44 258 -166 424 -79 107 -127 191 -164 282 -14 35 -29 67 -33 72 -4 4 -15 -15 -25 -42z" id="23"/>
<path d="M2904 6473 c-7 -5 34 -51 109 -123 l120 -115 -7 45 c-9 63 -52 146 -88 171 -32 23 -114 36 -134 22z" id="24"/>
<path d="M5491 6463 c-39 -20 -77 -73 -97 -139 -28 -95 -20 -93 104 27 72 70 114 117 108 121 -19 13 -80 8 -115 -9z" id="25"/>
<path d="M1543 6235 c-233 -51 -411 -266 -377 -457 l7 -43 12 47 c39 148 144 224 299 216 180 -9 352 -161 419 -373 9 -27 30 -113 48 -190 62 -278 151 -462 299 -619 114 -121 236 -188 475 -261 276 -84 455 -112 604 -95 224 25 487 141 662 291 62 54 176 185 168 194 -2 2 -35 -12 -74 -30 -173 -84 -370 -103 -594 -56 -129 27 -195 25 -258 -8 -74 -37 -98 -108 -65 -184 33 -74 110 -100 157 -52 30 29 33 83 7 115 -24 30 -42 18 -42 -26 0 -29 -3 -34 -24 -34 -40 0 -51 75 -16 110 45 45 130 12 151 -60 33 -111 -59 -210 -170 -180 -81 21 -132 93 -133 184 -1 104 65 180 176 204 l35 7 -107 72 c-59 39 -145 106 -192 149 -236 213 -379 244 -515 111 -83 -81 -106 -189 -65 -301 35 -92 123 -156 215 -156 47 0 116 40 137 80 27 50 21 145 -12 193 -54 79 -142 92 -176 26 -19 -38 -9 -76 27 -95 50 -25 30 -64 -26 -50 -34 9 -65 62 -65 111 0 75 61 135 137 135 80 0 164 -83 185 -183 33 -155 -61 -272 -217 -270 -134 2 -233 87 -271 232 -39 154 36 314 181 382 69 33 142 38 218 15 26 -8 47 -12 47 -10 0 2 -74 95 -164 206 -170 211 -234 271 -343 325 -64 31 -140 41 -183 23 -65 -27 -120 -116 -120 -195 1 -44 33 -109 68 -133 81 -59 198 11 194 115 -2 54 -48 103 -97 103 -41 0 -59 -66 -29 -108 19 -28 12 -52 -16 -52 -44 0 -76 100 -49 153 30 58 113 76 176 37 69 -42 93 -149 50 -224 -106 -186 -352 -106 -351 114 1 80 26 140 80 193 65 63 154 82 239 51 36 -13 -21 40 -101 96 -203 140 -429 197 -621 155z" id="26"/>
<path d="M6718 6240 c-125 -21 -247 -74 -374 -161 -79 -55 -134 -108 -99 -95 159 58 318 -64 319 -244 1 -221 -245 -300 -351 -114 -29 49 -29 112 -3 165 49 96 184 109 229 22 27 -53 -5 -153 -49 -153 -28 0 -35 24 -16 52 20 29 20 72 0 92 -42 43 -123 -13 -126 -87 -4 -104 113 -174 194 -115 35 24 67 89 68 133 0 79 -55 168 -120 195 -43 18 -119 8 -183 -23 -109 -54 -173 -114 -343 -325 -90 -111 -164 -204 -164 -206 0 -2 21 2 47 10 76 23 149 18 218 -15 145 -68 220 -228 181 -382 -38 -145 -137 -230 -271 -232 -156 -2 -250 115 -217 270 21 100 105 183 185 183 76 0 137 -60 137 -135 0 -49 -31 -102 -65 -111 -56 -14 -76 25 -26 50 36 19 46 57 27 95 -34 66 -122 53 -176 -26 -33 -48 -39 -143 -12 -193 21 -40 90 -80 137 -80 92 0 180 64 215 156 41 112 18 220 -65 301 -136 133 -279 102 -515 -111 -47 -43 -133 -110 -192 -149 l-107 -72 34 -7 c112 -24 178 -100 177 -204 -1 -91 -52 -163 -133 -184 -111 -30 -203 69 -170 180 21 72 106 105 151 60 35 -35 24 -110 -16 -110 -21 0 -24 5 -24 34 0 44 -18 56 -42 26 -26 -32 -23 -86 7 -115 47 -48 124 -22 157 52 33 76 9 147 -65 184 -63 33 -129 35 -258 8 -224 -47 -421 -28 -594 56 -39 18 -72 32 -74 30 -8 -9 106 -140 168 -194 175 -150 438 -266 662 -291 149 -17 328 11 604 95 239 73 361 140 475 261 148 157 237 341 299 619 56 245 87 318 182 420 175 186 442 195 546 18 14 -24 31 -65 38 -91 l12 -47 7 43 c26 147 -84 330 -248 411 -110 54 -248 73 -378 51z" id="27"/>
<path d="M1193 6155 c-35 -15 -53 -41 -53 -79 0 -54 11 -58 42 -14 17 24 44 58 61 76 l31 32 -25 0 c-13 -1 -38 -7 -56 -15z" id="28"/>
<path d="M7267 6138 c17 -18 44 -52 61 -76 23 -32 31 -38 36 -26 9 24 7 63 -5 86 -12 22 -66 48 -101 48 -21 0 -21 -1 9 -32z" id="29"/>
<path d="M1082 5925 c-55 -46 -50 -144 9 -175 21 -12 21 -11 15 37 -4 26 -2 72 4 102 5 30 8 56 6 58 -2 2 -17 -8 -34 -22z" id="30"/>
<path d="M7397 5913 c4 -21 7 -68 7 -105 -2 -63 -1 -67 17 -57 10 5 26 24 35 41 27 53 5 121 -49 150 -17 9 -17 6 -10 -29z" id="31"/>
<path d="M3534 5858 c3 -13 11 -70 17 -128 19 -195 47 -267 138 -363 49 -52 199 -157 224 -157 5 0 -13 24 -39 54 -27 29 -58 71 -68 92 -11 21 -31 51 -44 65 -32 36 -27 80 10 93 37 13 72 -17 64 -54 -3 -14 4 -43 16 -69 21 -44 132 -171 150 -171 5 0 -3 19 -17 43 -50 80 -117 230 -136 306 -18 72 -22 80 -88 142 -67 65 -205 169 -224 169 -5 0 -7 -10 -3 -22z" id="32"/>
<path d="M4890 5829 c-40 -28 -104 -81 -141 -118 -66 -62 -70 -70 -88 -142 -19 -76 -86 -226 -136 -306 -14 -24 -22 -43 -17 -43 18 0 129 127 150 171 12 26 19 55 16 69 -8 37 27 67 64 54 37 -13 42 -57 10 -93 -13 -14 -33 -44 -44 -65 -10 -21 -41 -63 -68 -92 -26 -30 -44 -54 -39 -54 25 0 175 105 224 157 91 96 119 168 138 363 6 58 14 115 17 128 9 32 -5 28 -86 -29z" id="33"/>
<path d="M1150 5640 c0 -41 43 -81 100 -95 l25 -6 -25 18 c-14 9 -42 34 -62 56 -21 21 -38 33 -38 27z" id="34"/>
<path d="M7320 5611 c-19 -20 -46 -44 -60 -54 l-25 -17 30 7 c44 9 71 30 85 64 7 16 11 31 9 33 -2 2 -20 -13 -39 -33z" id="35"/>
<path d="M2891 5379 c15 -28 210 -231 217 -225 2 3 -3 27 -13 55 -27 84 -107 160 -193 186 -22 6 -23 5 -11 -16z" id="36"/>
<path d="M5580 5387 c-54 -17 -143 -112 -164 -175 -10 -29 -16 -55 -14 -58 6 -6 202 196 217 224 13 24 11 25 -39 9z" id="37"/>
<path d="M3183 5123 c-13 -2 -23 -7 -23 -11 1 -24 271 -184 286 -170 9 10 -33 84 -68 118 -56 57 -121 77 -195 63z" id="38"/>
<path d="M5205 5112 c-22 -10 -55 -34 -73 -52 -34 -33 -77 -108 -68 -117 8 -8 114 44 185 92 122 83 122 83 45 91 -36 3 -60 0 -89 -14z" id="39"/>
<path d="M4074 5030 c-18 -4 -48 -17 -68 -29 -41 -26 -85 -81 -64 -81 20 1 121 44 174 75 42 25 46 29 29 36 -24 9 -31 9 -71 -1z" id="40"/>
<path d="M4365 5031 c-17 -7 -13 -11 29 -36 53 -31 154 -74 174 -75 9 0 7 9 -8 30 -40 56 -146 100 -195 81z" id="41"/>
<path d="M3612 4974 c-60 -30 -83 -60 -55 -72 24 -9 289 -9 299 1 11 11 -34 54 -81 77 -55 27 -101 25 -163 -6z" id="42"/>
<path d="M4734 4980 c-47 -24 -91 -66 -80 -77 10 -10 275 -10 299 -1 28 12 5 42 -55 72 -63 31 -109 33 -164 6z" id="43"/>
<path d="M4207 4866 c-26 -36 -90 -105 -142 -154 -59 -55 -95 -98 -95 -110 0 -59 45 -271 81 -376 54 -164 169 -375 204 -375 35 0 150 211 204 375 36 105 81 317 81 376 0 13 -34 53 -91 106 -49 46 -111 112 -136 146 -25 34 -49 64 -53 69 -3 4 -27 -22 -53 -57z m90 -102 c15 -24 15 -29 2 -53 -11 -19 -23 -26 -44 -26 -21 0 -33 7 -44 26 -13 24 -13 29 2 53 11 16 27 26 42 26 15 0 31 -10 42 -26z m-3 -170 c32 -32 8 -84 -39 -84 -28 0 -55 24 -55 50 0 26 27 50 55 50 13 0 31 -7 39 -16z m4 -187 c17 -13 15 -62 -3 -77 -20 -16 -61 -16 -80 0 -24 20 -15 72 14 86 24 12 45 9 69 -9z m-10 -183 c24 -17 30 -62 10 -82 -7 -7 -26 -12 -43 -12 -38 0 -55 16 -55 51 0 27 30 59 55 59 6 0 21 -7 33 -16z" id="44"/>
<path d="M2350 4584 c-20 -52 -23 -166 -6 -231 40 -159 102 -230 272 -314 95 -47 134 -72 164 -107 l40 -45 0 37 c0 93 -17 125 -126 232 -56 55 -111 119 -123 142 -27 53 -51 145 -51 197 0 41 0 41 -75 78 -42 20 -78 37 -80 37 -3 0 -10 -12 -15 -26z" id="45"/>
<path d="M6063 4572 c-73 -36 -73 -37 -73 -77 0 -52 -24 -144 -51 -197 -12 -23 -67 -87 -123 -142 -109 -107 -126 -139 -126 -232 l0 -37 40 45 c30 35 69 60 164 107 170 84 232 155 272 314 23 86 7 259 -23 256 -5 0 -41 -17 -80 -37z" id="46"/>
<path d="M3794 4526 c-117 -59 -115 -52 -59 -173 46 -99 85 -153 182 -254 75 -78 212 -196 201 -173 -2 5 -25 52 -50 104 -42 88 -96 240 -113 318 l-7 34 -26 -25 c-39 -36 -68 -48 -97 -41 -56 14 -83 93 -49 142 33 48 130 11 103 -40 -12 -22 -37 -24 -46 -2 -4 12 -8 13 -14 3 -9 -16 7 -49 25 -49 7 0 23 11 35 24 20 22 23 35 23 101 0 42 -2 78 -4 79 -2 1 -49 -21 -104 -48z" id="47"/>
<path d="M4609 4541 c-3 -90 2 -126 23 -148 12 -13 27 -23 34 -23 18 0 34 33 25 49 -6 10 -10 9 -14 -3 -9 -22 -34 -20 -46 2 -27 51 70 88 103 40 34 -49 7 -128 -49 -142 -29 -7 -58 5 -97 41 l-26 25 -7 -34 c-17 -78 -71 -230 -113 -318 -25 -52 -48 -99 -50 -104 -11 -23 126 95 201 173 97 101 136 155 182 254 56 121 59 114 -61 173 l-104 51 -1 -36z" id="48"/>
<path d="M2582 4458 c8 -92 47 -159 152 -260 126 -120 140 -152 141 -311 l0 -119 45 7 c90 13 173 64 206 127 8 15 14 29 14 32 0 3 -24 18 -52 32 -135 67 -229 158 -288 273 -30 61 -55 161 -47 192 3 10 0 22 -6 26 -14 9 -148 53 -161 53 -5 0 -7 -24 -4 -52z" id="49"/>
<path d="M5840 4486 c-82 -27 -89 -32 -83 -55 8 -31 -17 -131 -47 -192 -59 -115 -153 -206 -287 -273 -29 -14 -53 -29 -53 -32 0 -3 6 -17 14 -32 33 -63 116 -114 206 -127 l45 -7 0 119 c1 159 15 191 141 311 105 101 144 168 152 260 5 60 7 60 -88 28z" id="50"/>
<path d="M2835 4431 c-5 -8 15 -113 25 -131 5 -9 8 0 7 24 -1 32 5 44 31 65 l31 27 -45 10 c-25 6 -47 8 -49 5z" id="51"/>
<path d="M3517 4414 c-96 -29 -227 -47 -307 -42 -37 2 -60 -1 -60 -8 0 -5 13 -30 29 -55 42 -68 106 -103 260 -144 74 -19 157 -48 185 -63 103 -54 194 -169 237 -297 7 -22 17 -44 21 -49 11 -14 38 58 50 131 l11 62 -78 83 c-89 94 -139 159 -184 240 l-32 57 -36 -39 c-57 -64 -142 -74 -183 -22 -40 50 -14 112 46 112 33 0 74 -28 74 -50 0 -21 -34 -28 -58 -12 -23 15 -24 15 -21 -4 7 -35 55 -30 94 9 29 29 35 43 35 76 0 23 -1 40 -2 40 -2 -1 -38 -12 -81 -25z" id="52"/>
<path d="M4913 4392 c4 -36 12 -53 37 -75 37 -33 82 -34 89 -3 3 19 2 19 -21 4 -24 -16 -58 -9 -58 12 0 23 41 50 75 50 90 0 80 -129 -12 -146 -45 -8 -87 10 -127 58 l-34 39 -32 -58 c-46 -82 -96 -146 -185 -241 l-77 -82 7 -53 c7 -58 36 -142 49 -142 4 0 16 23 26 52 33 95 64 147 125 208 78 79 134 107 296 150 154 41 218 76 260 144 16 25 29 50 29 55 0 7 -23 10 -60 8 -80 -5 -211 13 -311 42 l-81 24 5 -46z" id="53"/>
<path d="M5623 4425 l-42 -10 31 -26 c27 -21 32 -32 31 -64 -1 -25 2 -34 7 -25 12 23 29 124 22 131 -4 3 -26 0 -49 -6z" id="54"/>
<path d="M2994 4379 c20 -29 20 -43 1 -63 -19 -19 -45 -10 -45 15 0 21 -15 25 -26 7 -4 -6 5 -22 21 -36 22 -18 35 -22 58 -18 36 7 66 32 79 65 11 31 4 37 -56 46 l-48 7 16 -23z" id="55"/>
<path d="M5460 4391 c-30 -5 -35 -10 -32 -31 3 -33 40 -68 78 -76 24 -4 37 0 59 18 16 14 25 30 21 36 -11 18 -26 14 -26 -7 0 -25 -26 -34 -45 -15 -19 19 -19 34 1 62 17 25 14 26 -56 13z" id="56"/>
<path d="M3099 4274 c-38 -46 -131 -58 -186 -24 -41 24 -41 20 -3 -35 66 -96 204 -186 335 -219 33 -9 119 -20 191 -25 175 -14 235 -34 318 -110 46 -42 43 -24 -10 55 -68 103 -145 149 -322 196 -145 38 -204 67 -263 129 -41 43 -48 47 -60 33z" id="57"/>
<path d="M5358 4247 c-48 -58 -130 -99 -270 -135 -177 -47 -253 -93 -322 -196 -53 -79 -56 -97 -10 -55 83 76 143 96 318 110 72 5 158 16 191 25 131 33 269 123 335 219 38 55 38 59 -2 35 -56 -34 -132 -25 -183 21 -21 18 -22 18 -57 -24z" id="58"/>
<path d="M4217 3610 c-44 -73 -57 -118 -57 -190 1 -106 49 -307 85 -356 13 -18 15 -16 35 28 52 118 83 325 61 411 -9 37 -76 167 -86 167 -1 0 -19 -27 -38 -60z m73 -80 c11 -11 20 -27 20 -35 0 -8 -9 -24 -20 -35 -11 -11 -27 -20 -35 -20 -8 0 -24 9 -35 20 -11 11 -20 27 -20 35 0 8 9 24 20 35 11 11 27 20 35 20 8 0 24 -9 35 -20z m-2 -142 c29 -29 4 -98 -35 -98 -26 0 -53 31 -53 60 0 33 17 50 50 50 14 0 31 -5 38 -12z" id="59"/>
<path d="M4072 3366 c-41 -90 -55 -155 -50 -227 9 -119 75 -197 212 -248 27 -11 102 20 162 65 107 82 122 231 42 410 l-22 49 -7 -30 c-4 -16 -12 -64 -18 -105 -19 -143 -94 -315 -136 -315 -42 0 -117 172 -136 315 -6 41 -14 89 -18 105 l-7 30 -22 -49z" id="60"/>
<path d="M4195 2769 c-66 -58 -66 -150 1 -194 85 -55 191 25 164 124 -12 46 -70 101 -105 101 -13 0 -40 -14 -60 -31z m97 -36 c36 -32 15 -93 -32 -93 -47 0 -79 67 -48 98 17 17 58 15 80 -5z" id="61"/>
<path d="M4230 2480 c-32 -32 -36 -68 -9 -96 28 -30 40 -30 67 -1 26 27 27 38 7 76 -19 38 -41 45 -65 21z" id="62"/>
<path d="M4213 2196 c-31 -42 -42 -68 -47 -108 -9 -72 7 -158 40 -218 39 -72 48 -77 73 -41 47 65 64 122 65 211 0 90 -7 110 -67 183 l-23 28 -41 -55z" id="63"/>
<path d="M4079 2019 c-18 -45 -16 -144 4 -192 9 -22 39 -67 65 -100 27 -34 62 -85 79 -114 l29 -51 24 45 c13 25 50 79 82 120 65 85 82 126 82 203 1 65 -23 135 -35 104 -4 -10 -8 -34 -8 -51 -1 -18 -9 -55 -19 -81 -26 -67 -108 -192 -127 -192 -19 0 -101 125 -127 192 -10 26 -18 63 -19 81 0 17 -4 41 -8 51 -6 16 -9 14 -22 -15z" id="64"/>
<path d="M1081 3796 c-23 -35 -46 -77 -50 -94 -13 -43 14 -92 61 -115 32 -16 43 -17 74 -7 71 24 91 101 45 173 l-21 32 0 -30 c0 -38 -16 -55 -51 -55 -32 0 -59 23 -59 50 0 41 68 68 98 38 7 -7 12 -9 12 -4 0 11 -51 76 -60 76 -4 0 -26 -29 -49 -64z" id="65"/>
<path d="M7346 3826 c-27 -35 -36 -60 -14 -38 17 17 64 15 82 -4 34 -33 8 -84 -43 -84 -35 0 -51 17 -51 55 l0 30 -21 -32 c-46 -72 -26 -149 45 -173 31 -10 42 -9 74 7 47 23 74 72 61 115 -9 34 -87 158 -99 158 -4 0 -19 -15 -34 -34z" id="66"/>
<path d="M2766 2024 c-25 -38 -48 -84 -52 -101 -18 -89 72 -151 155 -108 55 28 64 97 22 166 l-20 32 1 -33 c2 -52 -51 -79 -86 -44 -40 39 -6 102 50 91 30 -5 30 0 0 37 l-24 29 -46 -69z" id="67"/>
<path d="M5672 2060 c-27 -37 -27 -38 2 -33 56 11 90 -52 50 -91 -35 -35 -84 -11 -84 42 l0 37 -20 -33 c-43 -70 -34 -139 21 -167 83 -43 173 19 155 108 -5 26 -89 167 -99 167 -2 0 -13 -13 -25 -30z" id="68"/>
<path d="M4218 498 c-77 -101 -84 -199 -17 -233 83 -44 169 17 152 108 -11 59 -72 157 -98 157 -7 0 -24 -15 -37 -32z m72 -28 c24 -24 26 -53 4 -74 -32 -33 -94 -10 -94 35 0 23 34 59 55 59 8 0 24 -9 35 -20z" id="69"/>
</g>
</svg>