<?xml version="1.0" ?><!DOCTYPE svg  PUBLIC '-//W3C//DTD SVG 20010904//EN'  'http://www.w3.org/TR/2001/REC-SVG-20010904/DTD/svg10.dtd'><svg height="850.000000pt" preserveAspectRatio="xMidYMid meet" version="1.0" viewBox="0 0 850.000000 850.000000" width="850.000000pt" xmlns="http://www.w3.org/2000/svg">
<metadata>
Created by potrace 1.14, written by Peter Selinger 2001-2017
</metadata>
<g fill="#ffffff" stroke="none" transform="translate(0.000000,850.000000) scale(0.100000,-0.100000)">
<path d="M0 4250 l0 -4250 4250 0 4250 0 0 4250 0 4250 -4250 0 -4250 0 0 -4250z m4428 4061 c98 -66 288 -153 492 -225 102 -37 237 -84 300 -107 132 -47 329 -140 410 -194 40 -27 85 -44 174 -67 163 -41 254 -77 580 -232 154 -73 318 -147 363 -165 127 -48 269 -81 374 -88 l96 -6 6 -96 c7 -105 40 -247 88 -374 18 -45 91 -208 164 -362 158 -333 193 -421 233 -580 23 -90 40 -135 67 -175 54 -81 147 -278 194 -410 23 -63 70 -198 107 -300 105 -297 198 -475 319 -615 l52 -60 -44 -50 c-121 -135 -222 -329 -327 -625 -37 -102 -84 -237 -107 -300 -47 -132 -140 -329 -194 -410 -27 -40 -44 -85 -67 -175 -40 -159 -75 -247 -233 -580 -73 -154 -146 -317 -164 -362 -48 -127 -81 -269 -88 -374 l-6 -96 -96 -6 c-105 -7 -247 -40 -374 -88 -45 -18 -209 -92 -363 -165 -326 -155 -417 -191 -580 -232 -89 -23 -134 -40 -174 -67 -81 -54 -278 -147 -410 -194 -63 -23 -198 -70 -300 -107 -297 -105 -475 -198 -615 -319 l-60 -52 -50 44 c-135 121 -329 222 -625 327 -102 37 -237 84 -300 107 -132 47 -329 140 -410 194 -40 27 -85 44 -174 67 -163 41 -254 77 -580 232 -154 73 -318 147 -363 165 -127 48 -269 81 -374 88 l-96 6 -6 96 c-7 105 -40 247 -88 374 -18 45 -91 208 -164 362 -158 333 -193 421 -233 580 -23 90 -40 135 -67 175 -54 81 -147 278 -194 410 -23 63 -70 198 -107 300 -105 296 -206 490 -327 625 l-44 50 52 60 c121 140 214 318 319 615 37 102 84 237 107 300 47 132 140 329 194 410 27 40 44 85 67 175 40 159 75 247 233 580 73 154 146 317 164 362 48 127 81 269 88 374 l6 96 96 6 c105 7 247 40 374 88 45 18 209 92 363 165 326 155 417 191 580 232 89 23 134 40 174 67 81 54 278 147 410 194 63 23 198 70 300 107 296 105 490 206 625 327 l50 44 60 -52 c33 -28 89 -71 123 -94z" id="1"/>
<path d="M4215 8393 c-62 -52 -213 -147 -300 -188 -115 -55 -243 -106 -479 -190 -289 -102 -452 -175 -574 -258 -27 -18 -84 -39 -155 -57 -175 -44 -289 -90 -627 -250 -327 -154 -501 -215 -690 -240 -47 -7 -86 -12 -87 -13 -1 -1 -6 -40 -13 -87 -25 -189 -86 -363 -240 -690 -160 -338 -206 -452 -250 -627 -18 -71 -39 -128 -57 -155 -85 -125 -154 -280 -273 -614 -136 -380 -214 -542 -336 -702 l-51 -68 24 -29 c54 -66 148 -216 193 -310 53 -112 113 -264 195 -497 90 -256 168 -428 248 -546 18 -27 39 -84 57 -155 44 -175 90 -289 250 -627 154 -327 215 -501 240 -690 7 -47 12 -86 13 -87 1 -1 40 -6 87 -13 189 -25 363 -86 690 -240 338 -160 452 -206 627 -250 71 -18 128 -39 155 -57 125 -85 280 -154 614 -273 380 -136 542 -214 702 -336 l68 -51 29 24 c66 54 216 148 310 193 112 53 264 113 497 195 256 90 428 168 546 248 27 18 84 39 155 57 175 44 289 90 627 250 327 154 501 215 690 240 47 7 86 12 87 13 1 1 6 40 13 87 25 189 86 363 240 690 160 338 206 452 250 627 18 71 39 128 57 155 80 118 158 290 248 546 82 233 142 385 195 497 46 95 139 245 193 310 l25 30 -32 40 c-131 159 -221 346 -371 769 -102 289 -175 452 -258 574 -18 27 -39 84 -57 155 -44 175 -90 289 -250 627 -154 327 -215 501 -240 690 -7 47 -12 86 -13 87 -1 1 -40 6 -87 13 -189 25 -363 86 -690 240 -338 160 -452 206 -627 250 -71 18 -128 39 -155 57 -118 80 -290 158 -546 248 -439 155 -636 249 -797 381 l-40 32 -30 -25z m103 -107 c127 -110 342 -226 680 -367 349 -145 418 -181 557 -284 67 -50 75 -53 175 -69 146 -23 237 -52 520 -168 395 -162 607 -225 811 -243 l77 -7 7 -77 c18 -204 81 -416 243 -811 116 -283 145 -374 168 -520 16 -101 19 -108 70 -175 71 -95 140 -220 196 -351 25 -60 76 -181 113 -269 119 -283 238 -498 341 -617 21 -23 44 -50 51 -58 10 -13 4 -25 -39 -75 -119 -139 -229 -336 -353 -630 -37 -88 -88 -209 -113 -269 -56 -131 -125 -256 -196 -351 -51 -67 -54 -74 -70 -175 -23 -146 -52 -237 -168 -520 -162 -395 -225 -607 -243 -811 l-7 -77 -77 -7 c-204 -18 -416 -81 -811 -243 -283 -116 -374 -145 -520 -168 -100 -16 -108 -19 -175 -69 -139 -103 -208 -139 -557 -284 -338 -141 -553 -257 -680 -367 -23 -21 -50 -44 -58 -51 -13 -10 -25 -4 -75 39 -148 127 -343 233 -693 379 -349 145 -418 181 -557 284 -67 50 -75 53 -175 69 -146 23 -237 52 -520 168 -395 162 -607 225 -811 243 l-77 7 -7 77 c-18 204 -81 416 -243 811 -116 283 -145 374 -168 520 -16 101 -19 108 -70 175 -71 95 -140 220 -196 351 -25 60 -76 181 -113 269 -119 283 -238 498 -341 617 -21 23 -44 50 -51 58 -10 13 -4 25 39 75 119 139 229 336 353 630 37 88 88 209 113 269 56 131 125 256 196 351 51 67 54 74 70 175 23 146 52 237 168 520 162 395 225 607 243 811 l7 77 77 7 c204 18 416 81 811 243 283 116 374 145 520 168 100 16 108 19 175 69 139 103 208 139 557 284 350 146 545 252 693 379 50 43 62 49 75 39 8 -7 35 -30 58 -51z" id="2"/>
<path d="M4220 8245 c-34 -40 -241 -170 -403 -252 -39 -19 -148 -67 -242 -105 -195 -79 -218 -97 -273 -207 -36 -74 -37 -77 -37 -195 0 -114 2 -125 31 -186 17 -36 45 -80 63 -97 67 -68 160 -66 220 3 35 39 47 37 67 -12 20 -48 17 -118 -7 -165 -16 -33 -32 -46 -80 -68 l-60 -27 95 -62 c129 -84 229 -166 318 -260 66 -71 76 -78 93 -67 11 6 46 27 78 45 l57 34 0 56 c0 140 -80 285 -198 361 l-43 27 22 21 c27 25 75 35 135 28 52 -5 52 -7 -2 111 -42 93 -109 187 -171 242 l-48 42 -5 -55 c-8 -91 -61 -141 -147 -139 -90 1 -148 70 -147 172 2 183 218 294 400 205 98 -48 179 -151 229 -290 7 -17 9 -15 17 15 16 57 -6 127 -74 236 -50 80 -61 104 -60 137 3 76 72 208 160 308 l38 42 38 -44 c90 -105 155 -231 158 -306 1 -33 -10 -57 -60 -137 -68 -109 -90 -179 -74 -236 8 -30 10 -32 17 -15 50 139 131 242 229 290 182 89 398 -22 400 -205 1 -102 -58 -172 -147 -172 -90 -1 -144 50 -149 141 l-3 53 -48 -42 c-62 -55 -129 -149 -171 -242 -54 -118 -54 -116 -2 -111 60 7 108 -3 135 -28 l22 -21 -43 -27 c-118 -76 -198 -221 -198 -361 l0 -56 58 -34 c31 -18 66 -39 77 -45 17 -11 27 -4 93 67 89 94 189 176 318 260 l95 62 -60 27 c-48 22 -64 35 -80 68 -24 47 -27 117 -7 165 20 49 32 51 67 12 60 -69 153 -71 220 -3 18 17 46 61 63 97 29 61 31 72 31 186 0 118 -1 121 -37 195 -55 110 -78 128 -273 207 -94 38 -203 86 -242 105 -162 82 -369 212 -403 252 -7 8 -18 15 -25 15 -7 0 -18 -7 -25 -15z" id="3"/>
<path d="M4213 8055 c-18 -21 -49 -72 -70 -113 -54 -107 -53 -147 10 -241 26 -40 53 -84 58 -99 32 -84 28 -191 -9 -242 -10 -14 -22 -43 -25 -64 -7 -43 -24 -68 -30 -45 -3 8 -14 50 -26 93 -43 156 -109 249 -212 301 -126 64 -254 33 -309 -76 -40 -77 -14 -180 47 -193 40 -9 102 13 125 45 16 20 17 30 8 53 -5 15 -19 30 -30 33 -47 12 43 68 92 58 68 -15 157 -126 239 -299 52 -111 103 -240 91 -234 -91 46 -160 65 -186 51 -12 -7 -6 -15 31 -43 98 -73 161 -188 171 -312 l5 -68 27 16 c25 15 29 15 52 0 l25 -17 5 68 c10 125 73 240 171 313 37 28 43 36 31 43 -26 14 -95 -5 -186 -51 -12 -6 39 123 91 234 82 173 171 284 239 299 32 7 78 -11 100 -38 10 -12 9 -16 -8 -20 -11 -3 -25 -18 -30 -33 -9 -23 -8 -33 8 -53 23 -32 85 -54 125 -45 61 13 87 116 47 193 -55 109 -183 140 -309 76 -103 -52 -169 -145 -212 -301 -12 -43 -23 -85 -26 -93 -6 -23 -23 2 -30 45 -3 21 -14 50 -24 64 -27 38 -40 111 -30 167 14 69 24 93 78 174 63 95 64 133 9 242 -21 42 -53 93 -70 113 l-32 37 -31 -38z" id="4"/>
<path d="M3219 7739 c-105 -51 -232 -135 -284 -188 -38 -40 -41 -41 -105 -41 -84 0 -221 -29 -335 -71 l-90 -33 65 -16 c98 -23 178 -67 243 -131 103 -103 151 -253 113 -354 -21 -55 -89 -117 -146 -134 -41 -12 -42 -13 -23 -33 42 -47 113 -61 176 -34 50 21 67 47 107 168 21 62 52 152 69 200 l32 86 57 -25 c31 -13 121 -56 200 -95 126 -62 147 -69 180 -63 81 15 132 72 132 149 l0 36 -38 -20 c-77 -41 -167 -36 -236 13 -80 56 -146 228 -132 346 9 75 40 168 77 226 16 26 28 49 26 51 -2 2 -41 -15 -88 -37z" id="5"/>
<path d="M5180 7775 c0 -2 13 -25 30 -51 36 -57 67 -150 76 -225 14 -118 -52 -290 -132 -346 -69 -49 -159 -54 -236 -13 l-38 20 0 -36 c0 -77 51 -134 132 -149 33 -6 54 1 180 63 79 39 168 82 200 95 l56 25 50 -136 c27 -76 58 -164 68 -197 20 -69 45 -102 91 -121 63 -27 133 -13 176 34 19 20 18 21 -23 33 -57 17 -125 79 -146 134 -13 34 -15 60 -10 107 18 179 172 336 372 381 l59 13 -90 33 c-114 42 -251 71 -335 71 -64 0 -67 1 -105 41 -47 47 -173 133 -263 178 -72 36 -112 53 -112 46z" id="6"/>
<path d="M2235 7333 c-269 -119 -517 -199 -713 -229 l-109 -18 -12 -85 c-26 -180 -100 -424 -205 -670 -73 -170 -78 -200 -47 -300 26 -84 60 -137 125 -199 93 -89 230 -139 309 -113 18 6 49 27 68 47 31 32 34 40 34 95 0 57 1 59 26 59 33 0 104 -51 129 -93 26 -42 26 -111 0 -162 -11 -21 -18 -40 -16 -42 2 -2 30 3 62 11 124 32 261 49 412 49 l152 1 10 35 c41 150 42 147 -53 218 -97 71 -252 103 -356 73 -19 -5 -37 -8 -39 -5 -2 2 -1 20 2 40 8 38 69 115 92 115 62 0 -102 72 -219 96 -72 15 -208 20 -227 9 -6 -4 -1 -15 15 -27 80 -63 70 -183 -21 -235 -135 -78 -294 78 -255 251 24 107 105 189 220 223 77 22 176 13 276 -26 43 -17 81 -29 83 -27 8 9 -64 79 -100 97 -21 11 -83 30 -138 43 -55 13 -111 31 -124 39 -30 20 -70 101 -91 182 -14 57 -34 212 -28 218 6 7 161 -14 218 -29 86 -22 161 -58 180 -88 10 -14 28 -71 41 -126 13 -55 32 -117 43 -138 18 -36 88 -108 97 -100 2 2 -10 40 -27 83 -56 144 -49 271 21 377 60 91 182 142 285 119 89 -20 164 -105 165 -186 0 -71 -75 -145 -147 -145 -43 0 -98 27 -114 57 -7 14 -16 20 -22 14 -13 -13 -9 -150 7 -228 24 -117 96 -281 96 -219 0 23 77 84 115 92 20 3 38 4 40 2 3 -2 0 -20 -5 -39 -26 -91 -2 -239 53 -326 66 -105 98 -125 163 -103 16 5 47 14 69 19 l41 11 1 152 c0 151 17 288 49 412 8 32 13 60 11 62 -2 2 -21 -5 -42 -16 -46 -23 -115 -26 -153 -6 -53 28 -102 94 -102 138 0 21 4 23 59 23 55 0 63 3 95 34 20 19 41 50 47 68 28 86 -32 235 -132 327 -67 62 -107 86 -188 110 -83 24 -135 20 -226 -21z" id="7"/>
<path d="M6020 7351 c-81 -26 -112 -44 -179 -107 -100 -92 -160 -241 -132 -327 6 -18 27 -49 47 -68 32 -31 40 -34 95 -34 57 0 59 -1 59 -26 0 -33 -51 -104 -93 -129 -42 -26 -111 -26 -162 0 -21 11 -40 18 -42 16 -2 -2 3 -30 11 -62 32 -124 49 -261 49 -412 l1 -152 41 -11 c22 -5 53 -14 69 -19 65 -22 97 -2 163 103 55 87 79 235 53 326 -5 19 -8 37 -5 39 2 2 20 1 40 -2 38 -8 115 -69 115 -92 0 -60 71 101 96 215 14 67 19 222 8 234 -4 3 -15 -5 -26 -19 -63 -79 -184 -68 -235 22 -27 47 -29 86 -4 140 41 89 146 137 251 115 204 -44 292 -261 201 -496 -17 -43 -29 -81 -27 -83 9 -8 79 64 97 100 11 21 30 83 43 138 13 55 31 112 41 126 19 30 94 66 180 88 57 15 212 36 218 29 6 -6 -14 -161 -28 -218 -21 -81 -61 -162 -91 -182 -13 -8 -69 -26 -124 -39 -55 -13 -117 -32 -138 -43 -36 -18 -108 -88 -100 -97 2 -2 40 10 83 27 144 56 271 49 377 -21 128 -85 165 -267 76 -374 -35 -43 -97 -76 -143 -76 -71 0 -145 75 -145 147 0 43 27 98 57 114 14 7 20 16 14 22 -13 13 -150 9 -228 -7 -117 -24 -281 -96 -219 -96 23 0 84 -77 92 -115 3 -20 4 -38 2 -40 -2 -3 -20 0 -39 5 -91 26 -239 2 -326 -53 -105 -66 -125 -98 -103 -163 5 -16 14 -47 19 -69 l11 -41 152 -1 c151 0 288 -17 412 -49 32 -8 60 -13 62 -11 2 2 -5 21 -16 42 -23 46 -26 115 -6 153 28 53 94 102 138 102 21 0 23 -4 23 -59 0 -55 3 -63 34 -95 19 -20 50 -41 68 -47 79 -26 216 24 309 113 65 62 99 115 125 199 31 100 26 130 -47 300 -105 246 -179 490 -205 671 l-12 85 -85 12 c-181 26 -425 100 -671 205 -169 73 -204 78 -301 47z" id="8"/>
<path d="M3051 7057 c-66 -153 -151 -462 -176 -637 -19 -133 -20 -339 -2 -345 7 -3 44 5 82 18 l70 24 6 149 c7 151 18 248 45 384 16 75 63 252 69 259 6 5 131 -66 235 -135 122 -80 236 -173 329 -267 l74 -76 81 41 80 40 -115 112 c-164 161 -375 298 -662 430 l-98 46 -18 -43z" id="9"/>
<path d="M5235 7011 c-247 -122 -427 -244 -574 -386 l-115 -113 80 -40 81 -41 74 76 c93 94 207 187 329 267 111 73 229 140 236 134 10 -11 74 -282 89 -381 9 -60 20 -177 23 -260 l7 -150 70 -24 c38 -13 75 -21 82 -18 10 3 13 36 13 122 0 135 -19 282 -55 433 -29 118 -130 430 -148 454 -11 14 -34 5 -192 -73z" id="10"/>
<path d="M2255 7061 c-81 -20 -131 -69 -166 -161 -40 -106 -18 -238 66 -384 25 -44 45 -81 45 -83 0 -10 -30 0 -62 22 -20 14 -44 25 -53 25 -28 0 -91 38 -123 75 -46 52 -68 101 -86 189 -19 90 -36 128 -68 151 -31 21 -163 62 -228 71 l-53 7 7 -53 c9 -65 50 -197 71 -228 23 -32 61 -49 151 -68 88 -18 137 -40 189 -86 37 -32 75 -95 75 -123 0 -9 11 -33 25 -53 23 -34 32 -62 19 -62 -3 0 -35 18 -71 40 -181 109 -348 119 -472 30 -67 -49 -100 -138 -80 -214 16 -59 85 -126 131 -126 62 0 121 90 96 146 -13 29 -52 41 -73 24 -13 -11 -15 -7 -15 24 0 50 15 75 55 92 90 37 281 -5 552 -123 45 -19 55 -33 26 -33 -43 -1 -153 -67 -153 -92 0 -5 30 -6 68 -3 121 12 237 -25 333 -105 l47 -39 6 30 c4 23 12 31 35 35 l29 6 -45 56 c-77 95 -110 204 -98 324 3 38 2 68 -3 68 -25 0 -91 -110 -92 -152 0 -30 -14 -20 -33 25 -118 271 -160 462 -123 552 17 40 42 55 92 55 31 0 35 -2 24 -15 -33 -40 22 -92 81 -75 87 25 114 101 58 165 -51 58 -119 82 -184 66z" id="11"/>
<path d="M6135 7055 c-57 -20 -115 -85 -115 -128 0 -61 90 -120 146 -95 29 13 41 52 24 73 -11 13 -7 15 24 15 50 0 75 -15 92 -55 37 -90 -5 -281 -123 -552 -19 -45 -33 -55 -33 -25 -1 42 -67 152 -92 152 -5 0 -6 -30 -3 -68 12 -121 -25 -237 -105 -333 l-39 -47 30 -6 c23 -4 31 -12 35 -35 l6 -30 47 39 c96 80 212 117 333 105 38 -3 68 -2 68 3 0 25 -110 91 -152 92 -30 0 -20 14 25 33 271 118 462 160 552 123 40 -17 55 -42 55 -92 0 -31 -2 -35 -15 -24 -21 17 -60 5 -73 -24 -25 -56 34 -146 96 -146 46 0 115 67 131 126 41 152 -104 284 -298 272 -87 -6 -159 -31 -254 -88 -36 -22 -68 -40 -71 -40 -13 0 -4 28 19 62 14 20 25 44 25 53 0 28 38 91 75 123 52 46 101 68 189 86 90 19 128 36 151 68 21 31 62 163 71 228 l7 53 -53 -7 c-65 -9 -197 -50 -228 -71 -32 -23 -49 -61 -68 -151 -18 -88 -40 -137 -86 -189 -32 -37 -95 -75 -123 -75 -9 0 -33 -11 -53 -25 -34 -23 -62 -32 -62 -19 0 3 18 35 40 71 109 181 119 348 30 472 -51 70 -149 104 -225 76z" id="12"/>
<path d="M3167 6833 c-7 -13 -45 -181 -62 -278 -18 -99 -33 -415 -20 -415 5 0 70 20 146 45 76 25 145 45 153 45 9 0 16 9 16 20 0 21 15 27 25 10 4 -7 271 121 304 146 15 12 -166 181 -298 277 -79 58 -237 157 -250 157 -6 0 -12 -3 -14 -7z" id="13"/>
<path d="M5200 6779 c-123 -79 -190 -129 -301 -225 -82 -72 -147 -141 -138 -148 33 -25 300 -153 304 -146 10 17 25 11 25 -10 0 -11 7 -20 16 -20 8 0 77 -20 153 -45 76 -25 141 -45 146 -45 13 0 -2 316 -20 418 -30 166 -59 277 -75 279 -8 1 -58 -25 -110 -58z" id="14"/>
<path d="M4200 6595 c-19 -14 -65 -44 -102 -66 -37 -23 -68 -45 -68 -50 0 -5 16 -34 36 -65 50 -78 101 -192 129 -288 21 -76 25 -81 50 -81 25 0 29 5 50 81 28 96 79 210 129 288 20 31 36 61 36 66 0 5 -10 15 -22 21 -13 7 -60 36 -105 66 -44 29 -85 53 -90 53 -5 0 -24 -11 -43 -25z" id="15"/>
<path d="M3902 6418 c-71 -39 -72 -41 -58 -62 69 -94 124 -184 159 -259 36 -74 45 -86 62 -82 11 4 37 9 58 12 21 3 41 11 43 17 13 34 -111 318 -169 389 l-22 26 -73 -41z" id="16"/>
<path d="M4476 6408 c-74 -116 -164 -332 -152 -364 2 -6 22 -14 43 -17 21 -3 47 -9 59 -12 17 -5 23 0 38 38 20 54 111 209 160 273 20 26 33 51 29 54 -5 4 -38 24 -75 44 l-68 37 -34 -53z" id="17"/>
<path d="M3633 6286 c-73 -36 -133 -69 -133 -73 0 -5 23 -31 51 -58 53 -51 211 -231 241 -273 l16 -24 56 46 c31 25 75 55 96 66 22 11 40 23 40 26 0 3 -18 42 -41 87 -48 97 -160 261 -180 264 -8 2 -74 -26 -146 -61z" id="18"/>
<path d="M4667 6303 c-68 -95 -96 -141 -136 -220 -23 -45 -41 -84 -41 -87 0 -3 18 -15 40 -26 21 -11 65 -41 96 -66 l56 -46 16 24 c30 42 188 222 241 273 28 27 51 53 51 58 0 9 -260 137 -278 137 -6 0 -26 -21 -45 -47z" id="19"/>
<path d="M3235 6121 c-118 -40 -141 -51 -143 -69 -8 -53 73 -371 98 -387 5 -3 36 1 69 10 32 8 82 15 111 15 l52 0 -6 38 c-10 59 -26 280 -26 365 0 42 -3 77 -7 76 -5 0 -71 -22 -148 -48z" id="20"/>
<path d="M5100 6093 c0 -85 -16 -306 -26 -365 l-6 -38 52 0 c29 0 79 -7 111 -15 33 -9 64 -13 69 -10 30 19 116 384 95 404 -8 7 -279 101 -292 101 -2 0 -3 -35 -3 -77z" id="21"/>
<path d="M3450 6064 c0 -414 116 -855 321 -1213 86 -152 69 -140 188 -142 76 -1 106 2 115 12 7 8 38 42 70 76 l58 61 -31 115 c-87 324 -257 665 -460 917 -71 88 -240 270 -252 270 -5 0 -9 -43 -9 -96z" id="22"/>
<path d="M4926 6058 c-126 -136 -183 -209 -279 -353 -141 -213 -260 -478 -328 -732 l-31 -115 58 -61 c32 -34 63 -68 70 -76 9 -10 39 -13 115 -12 119 2 102 -10 188 142 205 358 321 799 321 1213 0 53 -4 96 -9 96 -5 0 -52 -46 -105 -102z" id="23"/>
<path d="M1061 6005 c-40 -109 -69 -243 -72 -333 -3 -65 -4 -69 -50 -118 -26 -28 -68 -83 -93 -122 -47 -73 -129 -233 -122 -239 2 -2 25 10 51 26 58 37 151 68 226 77 118 14 290 -52 346 -132 49 -69 54 -159 13 -236 l-20 -38 36 0 c75 0 134 52 149 132 6 33 -1 54 -63 180 -39 79 -82 169 -95 200 l-25 57 86 32 c48 17 138 48 200 69 121 40 147 57 168 107 27 63 13 134 -34 176 -20 19 -21 18 -33 -23 -17 -57 -79 -125 -134 -146 -34 -13 -60 -15 -107 -10 -179 18 -336 172 -381 372 l-13 59 -33 -90z" id="24"/>
<path d="M7382 6034 c-39 -193 -202 -352 -380 -370 -47 -5 -73 -3 -107 10 -55 21 -117 89 -134 146 -12 41 -13 42 -33 23 -47 -42 -61 -113 -34 -176 21 -50 47 -67 168 -107 62 -21 152 -52 200 -69 l86 -32 -25 -57 c-13 -31 -56 -121 -95 -200 -62 -126 -69 -147 -63 -180 15 -80 74 -132 149 -132 l36 0 -20 38 c-41 77 -36 167 13 236 56 80 228 146 346 132 75 -9 168 -40 226 -77 26 -16 49 -28 51 -26 8 7 -79 174 -131 252 -29 44 -72 98 -94 120 -40 38 -41 41 -41 105 0 83 -29 221 -70 333 -18 48 -33 87 -35 87 -1 0 -7 -25 -13 -56z" id="25"/>
<path d="M2946 6027 l-68 -21 7 -51 c9 -68 57 -209 99 -292 53 -103 46 -98 104 -62 29 18 52 36 52 42 0 5 -11 39 -24 76 -22 62 -57 208 -71 294 -7 42 -6 42 -99 14z" id="26"/>
<path d="M5445 6013 c-14 -87 -49 -232 -71 -294 -13 -37 -24 -71 -24 -76 0 -6 23 -24 52 -42 58 -36 51 -41 104 62 42 83 90 224 99 293 l7 50 -63 18 c-35 10 -72 21 -81 23 -13 4 -18 -4 -23 -34z" id="27"/>
<path d="M2780 5978 c-19 -6 -73 -18 -120 -28 -47 -9 -87 -23 -91 -31 -4 -8 -17 -61 -29 -118 -12 -57 -24 -109 -26 -116 -3 -7 33 -21 103 -38 73 -18 146 -46 228 -86 112 -56 121 -58 137 -43 15 16 13 25 -43 137 -40 82 -68 155 -86 228 -15 59 -29 107 -32 106 -3 0 -22 -5 -41 -11z" id="28"/>
<path d="M5637 5883 c-18 -73 -46 -146 -86 -228 -56 -112 -58 -121 -43 -137 16 -15 25 -13 137 43 79 39 156 68 225 85 58 15 106 27 107 28 1 1 -2 20 -9 42 -6 21 -18 77 -28 124 -9 47 -23 87 -31 91 -8 4 -61 17 -118 29 -57 12 -109 24 -116 26 -7 3 -21 -33 -38 -103z" id="29"/>
<path d="M4096 5929 c-63 -15 -178 -75 -210 -107 l-28 -30 65 -104 c125 -199 233 -446 292 -663 15 -55 28 -101 30 -103 1 -1 12 37 25 85 55 214 172 481 298 682 l65 105 -42 37 c-23 21 -77 52 -119 70 -72 30 -86 33 -207 35 -71 2 -148 -1 -169 -7z" id="30"/>
<path d="M2070 5624 c-52 -7 -151 -28 -220 -45 -125 -31 -426 -131 -441 -146 -14 -14 165 -361 261 -507 67 -100 124 -172 205 -255 l113 -115 40 80 41 81 -76 74 c-94 93 -187 207 -267 329 -69 104 -140 229 -135 235 7 6 184 53 259 69 136 27 233 38 384 45 l149 6 24 70 c13 38 21 75 18 82 -6 18 -228 15 -355 -3z" id="31"/>
<path d="M6065 5627 c-3 -7 5 -44 18 -82 l24 -70 149 -6 c151 -7 248 -18 384 -45 75 -16 252 -63 259 -69 5 -6 -66 -131 -135 -235 -80 -122 -173 -236 -267 -329 l-76 -74 41 -81 40 -80 113 115 c81 83 138 155 205 255 96 145 275 493 261 507 -15 15 -296 109 -426 142 -72 18 -181 41 -243 49 -140 20 -340 22 -347 3z" id="32"/>
<path d="M2472 5545 c-13 -43 -21 -79 -19 -81 2 -2 41 -10 88 -19 87 -15 248 -58 280 -75 32 -18 46 -11 78 42 36 58 41 51 -62 104 -82 42 -224 90 -292 99 l-50 7 -23 -77z" id="33"/>
<path d="M3323 5606 c-154 -38 -317 -172 -386 -316 -38 -79 -67 -205 -51 -218 5 -5 56 -19 114 -31 144 -31 302 -83 445 -146 111 -50 273 -134 303 -158 16 -13 28 -1 15 15 -24 30 -108 192 -158 303 -61 139 -116 306 -149 455 -23 103 -24 105 -52 107 -16 1 -53 -4 -81 -11z" id="34"/>
<path d="M5056 5609 c-2 -8 -14 -59 -26 -114 -31 -141 -84 -300 -145 -440 -50 -111 -134 -273 -158 -303 -13 -16 -1 -28 15 -15 30 24 192 108 303 158 143 63 301 115 445 146 58 12 109 26 114 31 16 13 -13 139 -50 216 -42 87 -145 201 -226 250 -99 59 -262 102 -272 71z" id="35"/>
<path d="M5875 5600 c-83 -22 -154 -49 -232 -89 -91 -47 -88 -41 -52 -99 32 -53 46 -60 78 -42 32 17 193 60 280 75 47 9 86 17 88 19 2 2 -6 38 -19 80 -26 88 -25 88 -143 56z" id="36"/>
<path d="M2040 5409 c-144 -17 -380 -71 -380 -87 0 -14 88 -157 146 -239 102 -140 275 -328 288 -312 25 33 153 300 146 304 -17 10 -11 25 10 25 11 0 20 7 20 16 0 8 20 77 45 153 25 76 45 141 45 144 0 10 -228 6 -320 -4z" id="37"/>
<path d="M6130 5415 c0 -5 20 -70 45 -146 25 -76 45 -145 45 -153 0 -9 9 -16 20 -16 21 0 27 -15 10 -25 -7 -4 121 -271 146 -304 7 -9 76 56 149 139 95 109 188 237 246 338 34 60 40 75 28 83 -18 11 -155 43 -274 64 -99 18 -415 33 -415 20z" id="38"/>
<path d="M2425 5398 c-9 -24 -95 -281 -95 -285 0 -1 35 -3 78 -3 84 0 305 -16 365 -26 l37 -6 0 52 c0 29 7 79 15 111 9 33 13 64 10 69 -9 14 -178 66 -274 84 -100 19 -130 20 -136 4z" id="39"/>
<path d="M5908 5390 c-100 -21 -245 -67 -253 -80 -3 -5 1 -36 10 -69 8 -32 15 -82 15 -111 l0 -52 38 6 c60 10 280 26 365 26 77 0 78 0 71 23 -4 12 -26 78 -49 147 l-41 125 -35 2 c-19 1 -73 -6 -121 -17z" id="40"/>
<path d="M896 5229 c-55 -13 -148 -65 -184 -102 -21 -22 -54 -88 -102 -207 -97 -238 -212 -455 -313 -588 -23 -30 -46 -61 -52 -68 -7 -9 -2 -21 16 -41 101 -111 237 -357 351 -638 79 -195 97 -218 207 -273 74 -36 77 -37 195 -37 114 0 125 2 186 31 36 17 80 45 97 63 68 67 66 160 -3 220 -39 35 -37 47 12 67 48 20 118 17 165 -7 33 -16 46 -32 68 -80 l27 -60 62 95 c84 129 166 229 260 318 71 66 78 76 67 93 -6 11 -27 46 -45 78 l-34 57 -56 0 c-140 0 -285 -80 -361 -198 l-27 -43 -21 22 c-25 27 -35 75 -28 135 5 52 7 52 -111 -2 -93 -42 -187 -109 -242 -171 l-42 -48 55 -5 c91 -8 141 -61 139 -147 -1 -90 -70 -148 -172 -147 -183 2 -294 218 -205 400 48 98 151 179 290 229 17 7 15 9 -15 17 -56 16 -126 -6 -236 -74 -109 -67 -130 -71 -217 -42 -53 18 -207 116 -245 157 l-23 24 38 33 c60 53 179 127 231 144 86 29 107 25 216 -42 110 -68 180 -90 236 -74 30 8 32 10 15 17 -139 50 -242 131 -290 229 -89 182 22 398 205 400 102 1 171 -57 172 -147 2 -86 -48 -139 -139 -147 l-55 -5 42 -48 c55 -62 149 -129 242 -171 118 -54 116 -54 111 -2 -7 60 3 108 28 135 l21 22 27 -43 c76 -118 221 -198 361 -198 l56 0 34 58 c18 31 39 66 45 77 11 17 4 27 -67 93 -94 89 -176 189 -260 318 l-62 95 -27 -60 c-22 -48 -35 -64 -68 -80 -47 -24 -117 -27 -165 -7 -49 20 -51 32 -12 67 69 60 71 153 3 220 -17 18 -61 46 -97 63 -57 27 -77 31 -165 33 -55 1 -117 -2 -139 -8z" id="41"/>
<path d="M7345 5227 c-150 -50 -225 -140 -196 -236 6 -22 27 -53 47 -70 39 -35 37 -47 -12 -67 -48 -20 -118 -17 -165 7 -33 16 -46 32 -68 80 l-27 60 -62 -95 c-84 -129 -166 -229 -260 -318 -71 -66 -78 -76 -67 -93 6 -11 27 -46 45 -77 l34 -58 56 0 c140 0 285 80 361 198 l27 43 21 -22 c25 -27 35 -75 28 -135 -5 -52 -7 -52 111 2 93 42 187 109 242 171 l42 48 -55 5 c-91 8 -141 61 -139 147 1 90 70 148 172 147 183 -2 294 -218 205 -400 -48 -98 -151 -179 -290 -229 -17 -7 -15 -9 15 -17 56 -16 126 6 236 74 109 67 130 71 216 42 52 -17 171 -91 231 -144 l38 -33 -23 -24 c-38 -41 -192 -139 -245 -157 -87 -29 -108 -25 -217 42 -110 68 -180 90 -236 74 -30 -8 -32 -10 -15 -17 139 -50 242 -131 290 -229 89 -182 -22 -398 -205 -400 -102 -1 -171 57 -172 147 -2 86 48 139 139 147 l55 5 -42 48 c-55 62 -149 129 -242 171 -118 54 -116 54 -111 2 7 -60 -3 -108 -28 -135 l-21 -22 -27 43 c-76 118 -221 198 -361 198 l-56 0 -34 -57 c-18 -32 -39 -67 -45 -78 -11 -17 -4 -27 67 -93 94 -89 176 -189 260 -318 l62 -95 27 60 c22 48 35 64 68 80 47 24 117 27 165 7 49 -20 51 -32 12 -67 -69 -60 -71 -153 -3 -220 17 -18 61 -46 97 -63 61 -29 72 -31 186 -31 118 0 121 1 195 37 110 55 128 78 207 273 114 281 250 527 351 638 18 20 23 32 16 41 -6 7 -29 38 -52 68 -101 133 -216 350 -313 588 -81 200 -98 223 -208 277 -68 34 -80 37 -180 40 -70 2 -121 -2 -147 -10z" id="42"/>
<path d="M2340 5041 c0 -12 182 -181 270 -252 254 -204 592 -373 917 -460 l115 -31 61 58 c34 32 68 63 76 70 10 9 13 39 12 115 -2 119 10 102 -142 188 -358 205 -799 321 -1213 321 -53 0 -96 -4 -96 -9z" id="43"/>
<path d="M5815 5038 c-234 -21 -539 -102 -764 -202 -94 -42 -290 -148 -333 -180 -23 -17 -28 -211 -7 -230 8 -7 42 -38 76 -70 l61 -58 115 31 c325 87 663 256 917 460 88 71 270 240 270 252 0 11 -198 10 -335 -3z" id="44"/>
<path d="M2213 4864 c-35 -74 -63 -141 -60 -148 11 -28 316 -216 351 -216 3 0 15 18 26 40 11 21 41 65 66 96 l46 56 -24 16 c-42 30 -222 188 -273 241 -27 28 -53 51 -58 51 -4 0 -38 -61 -74 -136z" id="45"/>
<path d="M6145 4949 c-51 -53 -231 -211 -273 -241 l-24 -16 46 -56 c25 -31 55 -75 66 -96 11 -22 23 -40 26 -40 35 0 340 188 351 216 6 15 -122 284 -134 284 -5 0 -31 -23 -58 -51z" id="46"/>
<path d="M935 4903 c-113 -59 -145 -184 -80 -312 52 -103 145 -169 301 -212 43 -12 85 -23 93 -26 23 -6 -2 -23 -45 -30 -21 -3 -50 -15 -64 -25 -51 -37 -158 -41 -242 -9 -15 5 -59 32 -99 58 -95 63 -133 64 -242 9 -42 -21 -93 -53 -113 -70 l-37 -32 38 -31 c21 -18 72 -49 113 -70 107 -54 147 -53 241 10 40 26 84 53 99 58 84 32 191 28 242 -9 14 -10 43 -22 64 -25 43 -7 68 -24 45 -30 -8 -3 -50 -14 -93 -26 -156 -43 -249 -109 -301 -212 -64 -126 -33 -254 76 -309 77 -40 180 -14 193 47 9 40 -13 102 -45 125 -20 16 -30 17 -53 8 -15 -5 -30 -19 -33 -30 -12 -47 -68 43 -58 92 15 68 126 157 299 239 111 52 240 103 234 91 -46 -90 -70 -183 -51 -195 5 -3 25 15 43 41 73 97 189 160 312 170 l68 5 -16 27 c-15 25 -15 29 0 52 l17 25 -68 5 c-124 10 -240 73 -313 170 -18 26 -38 44 -43 41 -19 -12 5 -105 51 -195 6 -12 -123 39 -234 91 -173 82 -284 171 -299 239 -7 32 11 78 38 100 12 10 16 9 20 -8 3 -11 18 -25 33 -30 23 -9 33 -8 53 8 32 23 54 85 45 125 -13 59 -119 87 -189 50z" id="47"/>
<path d="M7403 4901 c-38 -24 -49 -63 -31 -116 18 -53 55 -79 92 -65 15 5 30 19 33 30 12 47 68 -43 58 -92 -15 -68 -126 -157 -299 -239 -111 -52 -240 -103 -234 -91 46 90 70 183 51 195 -5 3 -25 -15 -43 -41 -73 -97 -189 -160 -313 -170 l-68 -5 17 -25 c15 -23 15 -27 0 -52 l-16 -27 68 -5 c123 -10 239 -73 312 -170 18 -26 38 -44 43 -41 19 12 -5 105 -51 195 -6 12 123 -39 234 -91 173 -82 284 -171 299 -239 7 -32 -11 -78 -38 -100 -12 -10 -16 -9 -20 8 -3 11 -18 25 -33 30 -23 9 -33 8 -53 -8 -32 -23 -54 -85 -45 -125 13 -61 116 -87 193 -47 109 55 140 183 76 309 -52 103 -145 169 -301 212 -43 12 -85 23 -93 26 -23 6 2 23 45 30 21 3 50 15 64 25 51 37 158 41 242 9 15 -5 59 -32 99 -58 95 -63 133 -64 242 -9 42 21 93 53 113 70 l37 32 -38 31 c-21 18 -72 49 -113 70 -107 54 -147 53 -241 -10 -40 -26 -84 -53 -99 -58 -84 -32 -191 -28 -242 9 -14 10 -43 22 -64 25 -43 7 -68 24 -45 30 8 3 50 14 93 26 44 12 104 34 133 48 179 88 258 302 156 424 -55 65 -156 88 -220 50z" id="48"/>
<path d="M4159 4749 l-80 -84 -122 0 -122 0 0 -122 0 -122 -84 -80 c-97 -93 -98 -79 13 -183 l71 -67 0 -123 0 -123 122 0 122 0 80 -84 c93 -97 79 -98 183 13 l67 71 123 0 123 0 0 122 0 122 84 80 c97 93 98 79 -13 183 l-71 67 0 123 0 123 -123 0 -123 0 -67 71 c-104 111 -90 110 -183 13z m141 -214 c42 -42 46 -44 109 -47 l66 -3 3 -66 c3 -63 5 -67 47 -109 25 -24 45 -49 45 -55 0 -6 -20 -31 -45 -55 -42 -42 -44 -46 -47 -109 l-3 -66 -66 -3 c-63 -3 -67 -5 -109 -47 -24 -25 -49 -45 -55 -45 -6 0 -31 20 -55 45 -42 42 -46 44 -109 47 l-66 3 -3 66 c-3 63 -5 67 -47 109 -25 24 -45 49 -45 55 0 6 20 31 45 55 42 42 44 46 47 109 l3 66 66 3 c63 3 67 5 109 47 24 25 49 45 55 45 6 0 31 -20 55 -45z" id="49"/>
<path d="M4200 4485 c-31 -32 -39 -35 -92 -35 l-58 0 0 -58 c0 -53 -3 -61 -35 -92 -19 -19 -35 -39 -35 -45 0 -6 16 -26 35 -45 32 -31 35 -39 35 -92 l0 -58 58 0 c53 0 61 -3 92 -35 19 -19 39 -35 45 -35 6 0 26 16 45 35 31 32 39 35 92 35 l58 0 0 58 c0 53 3 61 35 92 19 19 35 39 35 45 0 6 -16 26 -35 45 -32 31 -35 39 -35 92 l0 58 -58 0 c-53 0 -61 3 -92 35 -19 19 -39 35 -45 35 -6 0 -26 -16 -45 -35z" id="50"/>
<path d="M2082 4598 l-41 -73 26 -22 c70 -58 365 -185 391 -169 5 3 12 22 15 43 3 21 8 47 12 58 4 17 -8 26 -82 62 -75 35 -165 90 -259 159 -21 14 -23 13 -62 -58z" id="51"/>
<path d="M6316 4634 c-64 -49 -219 -140 -273 -160 -38 -15 -43 -21 -38 -38 3 -12 9 -38 12 -59 3 -21 10 -40 15 -43 24 -15 251 79 366 152 l53 34 -37 68 c-20 37 -40 70 -44 75 -3 4 -28 -9 -54 -29z" id="52"/>
<path d="M2670 4603 c-38 -42 -76 -121 -96 -196 -18 -68 -18 -237 1 -307 20 -75 68 -170 104 -204 l29 -28 104 65 c199 125 446 233 663 292 55 15 101 28 103 30 1 1 -37 12 -85 25 -213 55 -481 172 -680 296 -55 35 -103 64 -106 64 -3 0 -20 -17 -37 -37z" id="53"/>
<path d="M5680 4579 c-192 -122 -470 -244 -683 -299 -48 -13 -86 -24 -85 -25 2 -2 48 -15 103 -30 218 -59 464 -167 664 -293 l105 -65 37 42 c21 23 52 77 70 119 28 68 33 91 37 191 5 128 -6 194 -48 286 -25 56 -83 136 -99 135 -3 -1 -49 -28 -101 -61z" id="54"/>
<path d="M1959 4384 c-30 -47 -60 -96 -68 -108 -13 -21 -11 -29 41 -107 30 -46 60 -94 67 -106 6 -13 16 -23 21 -23 5 0 35 16 66 36 78 50 192 101 288 129 76 21 81 25 81 50 0 25 -5 29 -81 50 -96 28 -210 79 -288 129 -31 20 -60 36 -65 36 -4 0 -33 -39 -62 -86z" id="55"/>
<path d="M6420 4444 c-58 -42 -211 -111 -301 -137 -79 -23 -84 -26 -84 -52 0 -25 5 -29 81 -50 96 -28 210 -79 288 -129 31 -20 60 -36 65 -36 7 0 41 50 130 194 13 21 11 29 -41 107 -30 46 -60 94 -67 107 -15 28 -27 27 -71 -4z" id="56"/>
<path d="M3521 4180 c-325 -89 -660 -258 -911 -459 -88 -71 -270 -240 -270 -252 0 -5 43 -9 96 -9 414 0 855 116 1213 321 152 86 140 70 142 188 l1 102 -73 69 c-41 38 -78 69 -84 69 -5 0 -57 -13 -114 -29z" id="57"/>
<path d="M4771 4140 l-73 -69 1 -102 c2 -118 -10 -102 142 -188 358 -205 799 -321 1213 -321 53 0 96 4 96 9 0 12 -182 181 -270 252 -240 192 -562 359 -859 444 -185 53 -165 55 -250 -25z" id="58"/>
<path d="M2355 4151 c-91 -31 -246 -109 -287 -143 l-27 -23 41 -73 c39 -71 41 -72 62 -58 94 69 184 124 259 159 81 39 87 44 81 67 -4 14 -10 41 -13 60 -4 20 -13 36 -21 37 -8 1 -51 -10 -95 -26z" id="59"/>
<path d="M6026 4168 c-24 -91 -27 -113 -14 -117 56 -18 229 -120 338 -199 16 -12 22 -6 58 60 l41 73 -26 22 c-43 35 -211 119 -297 147 -90 30 -95 31 -100 14z" id="60"/>
<path d="M2415 3969 c-91 -47 -255 -156 -262 -175 -6 -15 122 -284 134 -284 5 0 31 23 58 51 51 53 231 211 273 241 l24 16 -46 56 c-25 31 -55 75 -66 96 -11 22 -24 40 -28 40 -4 0 -43 -19 -87 -41z" id="61"/>
<path d="M5960 3970 c-11 -21 -41 -65 -66 -96 l-46 -56 24 -16 c42 -30 222 -188 273 -241 27 -28 53 -51 58 -51 12 0 140 269 134 284 -11 28 -317 216 -352 216 -2 0 -14 -18 -25 -40z" id="62"/>
<path d="M1872 3836 c-78 -80 -137 -155 -202 -252 -96 -145 -275 -493 -261 -507 15 -15 296 -109 426 -142 72 -18 181 -41 243 -49 140 -20 340 -22 347 -3 3 7 -5 44 -18 82 l-24 70 -149 6 c-151 7 -248 18 -384 45 -75 16 -252 63 -259 69 -5 6 66 131 135 235 80 122 173 236 267 329 l76 74 -40 79 c-21 43 -41 78 -43 78 -2 0 -53 -51 -114 -114z" id="63"/>
<path d="M6462 3874 l-41 -81 76 -74 c94 -93 187 -207 267 -329 69 -104 140 -229 135 -235 -7 -6 -184 -53 -259 -69 -136 -27 -233 -38 -384 -45 l-149 -6 -24 -70 c-13 -38 -21 -75 -18 -82 7 -19 207 -17 347 3 62 8 171 31 243 49 130 33 411 127 426 142 14 14 -165 362 -261 507 -67 100 -124 172 -205 255 l-113 115 -40 -80z" id="64"/>
<path d="M3945 3803 l-91 -4 -41 -67 c-197 -324 -320 -695 -352 -1069 -13 -150 -14 -313 -2 -313 12 0 181 182 252 270 199 248 369 583 455 901 l36 130 -58 62 c-68 74 -94 98 -103 95 -3 -1 -47 -4 -96 -5z" id="65"/>
<path d="M4420 3790 c-10 -8 -43 -43 -74 -77 l-58 -61 31 -115 c87 -324 257 -665 460 -917 71 -88 240 -270 252 -270 12 0 11 163 -2 313 -32 374 -155 745 -352 1069 l-41 67 -100 3 c-78 2 -104 0 -116 -12z" id="66"/>
<path d="M3745 3771 c-21 -20 -186 -105 -300 -156 -143 -63 -301 -115 -445 -146 -58 -12 -109 -26 -114 -31 -16 -13 13 -139 51 -218 50 -105 168 -223 273 -273 79 -38 205 -67 218 -51 5 5 19 56 31 114 31 144 83 302 146 445 51 114 136 279 156 300 5 5 9 13 9 17 0 11 -14 10 -25 -1z" id="67"/>
<path d="M4720 3772 c0 -4 4 -12 9 -17 20 -21 105 -186 156 -300 63 -143 115 -301 146 -445 12 -58 26 -109 31 -114 13 -16 139 13 218 51 105 50 223 168 273 273 38 79 67 205 51 218 -5 5 -56 19 -114 31 -144 31 -302 83 -445 146 -114 51 -279 136 -299 156 -12 11 -26 12 -26 1z" id="68"/>
<path d="M2009 3668 c-121 -123 -240 -281 -319 -421 -27 -48 -30 -61 -19 -68 18 -11 156 -43 274 -64 99 -18 415 -33 415 -20 0 5 -20 70 -45 146 -25 76 -45 145 -45 153 0 9 -9 16 -20 16 -21 0 -27 15 -10 25 10 6 -139 304 -153 305 -4 0 -40 -32 -78 -72z" id="69"/>
<path d="M6318 3590 c-43 -83 -73 -152 -68 -155 17 -10 11 -25 -10 -25 -11 0 -20 -7 -20 -16 0 -8 -20 -77 -45 -153 -25 -76 -45 -141 -45 -146 0 -13 316 2 415 20 118 21 256 53 274 64 16 10 -15 71 -100 197 -88 131 -291 364 -316 364 -4 0 -43 -68 -85 -150z" id="70"/>
<path d="M1360 3582 c41 -77 36 -167 -13 -236 -56 -80 -228 -146 -346 -132 -75 9 -168 40 -226 77 -26 16 -49 28 -51 26 -7 -6 75 -166 122 -239 25 -39 67 -94 93 -122 46 -49 47 -53 50 -118 3 -90 32 -224 72 -333 l33 -90 13 59 c45 200 202 354 381 372 47 5 73 3 107 -10 55 -21 117 -89 134 -146 12 -41 13 -42 33 -23 47 42 61 113 34 176 -21 50 -47 67 -168 107 -62 21 -152 52 -200 69 l-86 32 25 57 c13 31 56 121 95 200 62 126 69 147 63 180 -15 80 -74 132 -149 132 l-36 0 20 -38z" id="71"/>
<path d="M7042 3602 c-41 -22 -69 -64 -77 -114 -6 -33 2 -55 63 -181 39 -78 82 -168 95 -199 l25 -57 -86 -32 c-48 -17 -138 -48 -200 -69 -121 -40 -147 -57 -168 -107 -27 -63 -13 -134 34 -176 20 -19 21 -18 33 23 17 57 79 125 134 146 101 38 251 -10 354 -113 64 -65 108 -145 131 -243 l16 -65 33 90 c42 114 71 251 71 335 0 64 1 67 41 105 22 22 65 76 94 120 52 78 139 245 131 252 -2 2 -25 -10 -51 -26 -58 -37 -151 -68 -226 -77 -118 -14 -290 52 -346 132 -49 69 -54 159 -13 236 l20 38 -38 0 c-20 -1 -52 -9 -70 -18z" id="72"/>
<path d="M4220 3503 c-55 -214 -172 -481 -298 -682 l-65 -105 42 -37 c23 -21 77 -52 119 -71 76 -33 79 -33 227 -33 148 0 151 0 227 33 42 19 96 50 119 71 l42 37 -65 105 c-126 200 -234 446 -293 664 -15 55 -28 101 -30 103 -1 1 -12 -37 -25 -85z" id="73"/>
<path d="M2720 3420 c-30 -4 -130 -11 -222 -15 -93 -4 -168 -9 -168 -10 0 -12 95 -283 101 -290 20 -21 385 65 404 95 3 5 -1 36 -10 69 -8 32 -15 82 -15 110 0 57 7 54 -90 41z" id="74"/>
<path d="M5680 3380 c0 -29 -7 -79 -15 -111 -9 -33 -13 -64 -10 -69 19 -30 384 -116 404 -95 7 8 101 279 101 292 0 2 -35 3 -77 3 -85 0 -306 16 -365 26 l-38 6 0 -52z" id="75"/>
<path d="M2819 3140 c-27 -16 -190 -60 -278 -75 -47 -9 -86 -17 -88 -19 -2 -2 6 -38 19 -81 l23 -77 50 7 c68 9 210 57 292 99 103 53 98 46 62 104 -32 51 -49 60 -80 42z" id="76"/>
<path d="M5591 3098 c-36 -58 -41 -51 62 -104 82 -42 224 -90 292 -99 l50 -7 23 77 c13 43 21 79 19 81 -2 2 -41 10 -88 19 -87 15 -248 58 -280 75 -32 18 -46 11 -78 -42z" id="77"/>
<path d="M2840 2948 c-78 -39 -149 -67 -220 -84 -58 -15 -106 -27 -107 -28 -1 -1 2 -20 9 -42 6 -21 18 -77 28 -124 9 -47 23 -87 31 -91 8 -4 61 -17 118 -29 57 -12 109 -24 116 -26 7 -3 21 33 38 103 18 72 46 146 86 228 54 110 58 121 44 138 -9 9 -19 16 -22 15 -3 -1 -58 -28 -121 -60z" id="78"/>
<path d="M5508 2993 c-15 -17 -12 -27 43 -138 40 -82 68 -156 86 -228 17 -70 31 -106 38 -103 7 2 59 14 116 26 57 12 110 25 118 29 8 4 22 44 31 91 10 47 22 103 28 124 7 22 10 41 9 42 -1 1 -49 13 -106 27 -84 21 -238 86 -342 144 -3 2 -13 -4 -21 -14z" id="79"/>
<path d="M2991 2862 c-47 -91 -97 -235 -106 -307 l-7 -50 77 -23 c43 -13 79 -21 81 -19 2 2 10 41 19 88 15 87 58 248 75 280 18 32 11 46 -41 78 -28 17 -52 31 -54 31 -1 0 -21 -35 -44 -78z" id="80"/>
<path d="M5400 2909 c-25 -16 -46 -34 -48 -39 -2 -5 8 -40 21 -77 23 -64 58 -209 72 -296 5 -30 10 -38 23 -34 9 2 46 13 81 23 l63 18 -6 48 c-10 73 -61 220 -107 309 -23 43 -44 79 -48 78 -3 0 -26 -14 -51 -30z" id="81"/>
<path d="M1820 2888 c0 -2 9 -21 20 -43 26 -51 26 -120 0 -162 -25 -42 -96 -93 -129 -93 -25 0 -26 2 -26 59 0 55 -3 63 -34 95 -19 20 -50 41 -68 47 -79 26 -216 -24 -309 -113 -65 -62 -99 -115 -125 -199 -31 -100 -26 -130 47 -300 105 -246 179 -490 205 -671 l12 -85 85 -12 c181 -26 425 -100 671 -205 167 -72 199 -77 292 -50 81 24 121 48 188 110 100 92 160 241 132 327 -6 18 -27 49 -47 68 -32 31 -40 34 -95 34 -57 0 -59 1 -59 26 0 33 51 104 93 129 42 26 111 26 162 0 21 -11 40 -18 42 -16 2 2 -3 30 -11 62 -32 124 -49 261 -49 412 l-1 152 -35 10 c-19 5 -58 15 -88 21 -51 12 -55 11 -79 -12 -42 -40 -96 -129 -116 -191 -20 -65 -24 -173 -8 -227 5 -19 8 -37 5 -39 -2 -2 -20 -1 -40 2 -38 8 -115 69 -115 92 0 62 -72 -102 -96 -219 -16 -78 -20 -215 -7 -228 6 -6 15 0 22 14 16 30 71 57 114 57 72 0 147 -74 147 -145 -1 -81 -76 -166 -165 -186 -103 -23 -225 28 -285 119 -70 106 -77 233 -21 377 17 43 29 81 27 83 -9 8 -79 -64 -97 -100 -11 -21 -30 -83 -43 -138 -13 -55 -31 -112 -41 -126 -19 -30 -94 -66 -180 -88 -57 -15 -212 -36 -218 -29 -6 6 14 161 28 218 21 81 61 162 91 182 13 8 69 26 124 39 55 13 117 32 138 43 36 18 108 88 100 97 -2 2 -40 -10 -83 -27 -144 -56 -271 -49 -377 21 -128 85 -165 267 -76 374 35 43 97 76 143 76 71 0 145 -75 145 -147 0 -43 -27 -98 -57 -114 -14 -7 -20 -16 -14 -22 13 -13 150 -9 228 7 117 24 281 96 219 96 -23 0 -84 77 -92 115 -3 20 -4 38 -2 40 2 3 20 0 39 -5 104 -30 259 2 356 73 95 71 94 67 52 219 l-9 36 -113 -2 c-154 -4 -347 20 -494 60 -13 4 -23 5 -23 2z" id="82"/>
<path d="M6615 2879 c-93 -29 -269 -51 -418 -52 l-157 -1 -10 -35 c-5 -19 -15 -58 -21 -88 -12 -51 -11 -55 12 -79 40 -42 129 -96 191 -116 65 -20 173 -24 227 -8 19 5 37 8 39 5 2 -2 1 -20 -2 -40 -8 -38 -69 -115 -92 -115 -62 0 102 -72 219 -96 78 -16 215 -20 228 -7 6 6 0 15 -14 22 -30 16 -57 71 -57 114 0 72 74 147 145 147 46 0 108 -33 143 -76 89 -107 52 -289 -76 -374 -106 -70 -233 -77 -377 -21 -43 17 -81 29 -83 27 -8 -9 64 -79 100 -97 21 -11 83 -30 138 -43 55 -13 111 -31 124 -39 30 -20 70 -101 91 -182 14 -57 34 -212 28 -218 -6 -7 -161 14 -218 29 -86 22 -161 58 -180 88 -10 14 -28 71 -41 126 -13 55 -32 117 -43 138 -18 36 -88 108 -97 100 -2 -2 10 -40 27 -83 91 -235 3 -452 -201 -496 -105 -22 -210 26 -251 115 -25 54 -23 93 4 140 51 90 172 101 235 22 11 -14 22 -22 26 -19 11 12 6 167 -8 234 -25 114 -96 275 -96 215 0 -23 -77 -84 -115 -92 -20 -3 -38 -4 -40 -2 -3 2 0 20 5 39 16 54 12 162 -8 227 -20 62 -74 151 -116 191 -24 23 -28 24 -79 12 -30 -6 -69 -16 -88 -21 l-35 -10 -1 -152 c0 -151 -17 -288 -49 -412 -8 -32 -13 -60 -11 -62 2 -2 21 5 42 16 51 26 120 26 162 0 42 -25 93 -96 93 -129 0 -25 -2 -26 -59 -26 -55 0 -63 -3 -95 -34 -20 -19 -41 -50 -47 -68 -28 -86 32 -235 132 -327 67 -62 107 -86 188 -110 93 -27 125 -22 292 50 246 105 490 179 671 205 l85 12 12 85 c26 181 100 425 205 671 73 170 78 200 47 300 -26 84 -60 137 -125 199 -93 89 -230 139 -309 113 -18 -6 -49 -27 -68 -47 -31 -32 -34 -40 -34 -95 0 -55 -2 -59 -23 -59 -45 0 -112 51 -141 107 -17 34 -13 105 9 148 11 22 20 41 20 42 0 5 -24 2 -55 -8z" id="83"/>
<path d="M3175 2816 c-46 -109 -98 -358 -79 -375 7 -7 278 -101 291 -101 2 0 3 35 3 78 0 84 16 305 26 365 l6 37 -54 0 c-29 0 -78 7 -108 15 -72 19 -69 20 -85 -19z" id="84"/>
<path d="M5225 2834 c-27 -7 -74 -14 -103 -14 l-54 0 6 -37 c10 -61 26 -281 26 -366 0 -77 0 -78 23 -71 12 4 78 26 147 49 147 49 142 40 111 192 -27 129 -71 257 -91 260 -8 1 -37 -5 -65 -13z" id="85"/>
<path d="M3750 2578 c-30 -39 -99 -117 -152 -174 -54 -56 -98 -105 -98 -109 0 -11 270 -137 284 -132 28 11 216 317 216 352 0 2 -18 14 -40 25 -21 11 -64 40 -94 65 -31 25 -57 45 -58 44 -2 0 -28 -32 -58 -71z" id="86"/>
<path d="M4635 2614 c-22 -20 -64 -50 -92 -66 -29 -16 -53 -32 -53 -35 0 -34 188 -339 216 -350 14 -5 284 121 284 132 0 4 -44 53 -97 109 -54 57 -123 135 -153 174 -30 39 -57 71 -60 71 -3 0 -23 -16 -45 -35z" id="87"/>
<path d="M2461 2550 c-91 -79 -213 -117 -333 -105 -38 3 -68 2 -68 -3 0 -25 110 -91 153 -92 29 0 19 -14 -26 -33 -271 -118 -462 -160 -552 -123 -40 17 -55 42 -55 92 0 31 2 35 15 24 21 -17 60 -5 73 24 25 56 -34 146 -96 146 -46 0 -115 -67 -131 -126 -41 -152 104 -284 298 -272 87 6 159 31 254 88 36 22 68 40 71 40 13 0 4 -28 -19 -62 -14 -20 -25 -44 -25 -53 0 -28 -38 -91 -75 -123 -52 -46 -101 -68 -189 -86 -90 -19 -128 -36 -151 -68 -21 -31 -62 -163 -71 -228 l-7 -53 53 7 c65 9 197 50 228 71 32 23 49 61 68 151 18 88 40 137 86 189 32 37 95 75 123 75 9 0 33 11 53 25 34 23 62 32 62 19 0 -3 -18 -35 -40 -71 -109 -181 -119 -348 -30 -472 49 -67 138 -100 214 -80 59 16 126 85 126 131 0 62 -90 121 -146 96 -29 -13 -41 -52 -24 -73 11 -13 7 -15 -24 -15 -50 0 -75 15 -92 55 -37 90 5 281 123 552 19 45 33 55 33 26 1 -43 67 -153 92 -153 5 0 6 30 3 68 -12 121 25 237 105 333 l39 47 -29 6 c-22 4 -31 13 -37 35 l-8 29 -44 -38z" id="88"/>
<path d="M5976 2559 c-4 -23 -12 -31 -35 -35 l-30 -6 39 -47 c80 -96 117 -212 105 -333 -3 -38 -2 -68 3 -68 25 0 91 110 92 153 0 29 14 19 33 -26 118 -271 160 -462 123 -552 -17 -40 -42 -55 -92 -55 -31 0 -35 2 -24 15 17 21 5 60 -24 73 -56 25 -146 -34 -146 -96 0 -46 67 -115 126 -131 152 -41 284 104 272 298 -6 87 -31 159 -88 254 -22 36 -40 68 -40 71 0 13 28 4 62 -19 20 -14 44 -25 53 -25 28 0 91 -38 123 -75 46 -52 68 -101 86 -189 19 -90 36 -128 68 -151 31 -21 163 -62 228 -71 l53 -7 -7 53 c-9 65 -50 197 -71 228 -23 32 -61 49 -151 68 -88 18 -137 40 -189 86 -37 32 -75 95 -75 123 0 9 -11 33 -25 53 -23 34 -32 62 -19 62 3 0 35 -18 71 -40 181 -109 348 -119 472 -30 67 49 100 138 80 214 -16 59 -85 126 -131 126 -62 0 -121 -90 -96 -146 13 -29 52 -41 73 -24 13 11 15 7 15 -24 0 -50 -15 -75 -55 -92 -90 -37 -281 5 -552 123 -45 19 -55 33 -25 33 42 1 152 67 152 92 0 5 -30 6 -68 3 -121 -12 -237 25 -333 105 l-47 39 -6 -30z" id="89"/>
<path d="M4003 2413 c-35 -75 -90 -165 -159 -259 -14 -21 -13 -23 58 -62 l73 -41 22 26 c58 70 185 365 169 391 -3 5 -22 12 -43 15 -21 3 -47 8 -58 12 -17 4 -26 -8 -62 -82z" id="90"/>
<path d="M4405 2490 c-11 -5 -33 -9 -48 -9 -15 -1 -30 -7 -33 -14 -13 -35 109 -318 169 -390 l22 -26 73 41 c71 39 72 41 58 62 -68 94 -124 184 -159 258 -43 89 -47 93 -82 78z" id="91"/>
<path d="M4216 2458 c-2 -7 -14 -46 -26 -86 -26 -89 -76 -201 -124 -276 -20 -31 -36 -60 -36 -65 0 -7 50 -41 194 -130 21 -13 29 -11 107 41 46 30 94 60 107 67 12 6 22 16 22 21 0 5 -16 35 -36 66 -50 78 -101 192 -128 288 -21 73 -26 81 -50 84 -15 2 -28 -2 -30 -10z" id="92"/>
<path d="M2867 2433 c-13 -12 -7 -236 8 -343 8 -58 27 -152 40 -210 29 -118 130 -430 148 -454 11 -14 34 -5 192 73 247 122 427 244 574 386 l115 113 -80 40 -81 41 -74 -76 c-93 -94 -207 -187 -329 -267 -104 -69 -229 -140 -235 -135 -6 7 -53 184 -69 259 -27 136 -38 233 -45 384 l-6 149 -69 24 c-77 25 -80 26 -89 16z" id="93"/>
<path d="M5530 2416 l-65 -23 -6 -149 c-7 -151 -18 -248 -45 -384 -16 -75 -63 -252 -69 -259 -6 -5 -131 66 -235 135 -122 80 -236 173 -329 267 l-74 76 -81 -41 -80 -40 115 -113 c147 -142 327 -264 574 -386 160 -79 181 -87 192 -73 7 9 39 98 72 198 96 294 135 506 129 706 -4 122 -1 120 -98 86z" id="94"/>
<path d="M3083 2203 c4 -93 13 -204 21 -248 29 -155 60 -277 72 -282 13 -5 153 79 255 154 132 96 313 265 298 277 -2 1 -67 35 -143 75 -101 52 -146 71 -163 66 -18 -4 -23 -1 -23 15 0 11 -7 20 -16 20 -8 0 -77 20 -153 45 -76 25 -141 45 -146 45 -4 0 -5 -75 -2 -167z" id="95"/>
<path d="M5255 2324 c-71 -24 -138 -44 -147 -44 -11 0 -18 -8 -18 -20 0 -21 -15 -27 -25 -10 -4 7 -271 -121 -304 -146 -15 -12 166 -181 298 -277 102 -75 242 -159 255 -154 12 5 43 127 72 282 8 44 17 155 21 248 5 140 4 167 -8 166 -8 0 -72 -21 -144 -45z" id="96"/>
<path d="M3925 1912 c-83 -91 -192 -182 -318 -265 l-108 -71 60 -27 c48 -22 64 -35 80 -68 24 -47 27 -117 7 -165 -20 -49 -32 -51 -67 -12 -60 69 -153 71 -220 3 -18 -17 -46 -61 -63 -97 -29 -61 -31 -72 -31 -186 0 -118 1 -121 37 -195 55 -110 78 -128 273 -207 281 -114 527 -250 638 -351 20 -18 32 -23 41 -16 7 6 38 29 68 52 133 101 350 216 588 313 200 81 223 98 278 209 36 74 37 77 37 195 0 114 -2 125 -31 186 -17 36 -45 80 -63 97 -67 68 -160 66 -220 -3 -35 -39 -47 -37 -67 12 -20 48 -17 118 7 165 16 33 32 46 80 68 l60 27 -95 62 c-129 84 -229 166 -318 260 -66 71 -76 78 -93 67 -11 -6 -46 -27 -77 -45 l-58 -34 0 -56 c0 -140 80 -285 198 -361 l43 -27 -22 -21 c-27 -25 -75 -35 -135 -28 -52 5 -52 7 2 -111 42 -93 109 -187 171 -242 l48 -42 3 53 c5 91 59 142 149 141 154 -1 202 -214 76 -334 -81 -78 -221 -96 -329 -43 -98 48 -179 151 -229 290 -7 17 -9 15 -17 -15 -16 -57 6 -127 74 -236 50 -80 61 -104 60 -137 -3 -76 -72 -208 -160 -308 l-38 -42 -38 44 c-90 105 -155 231 -158 306 -1 33 10 57 60 137 68 109 90 179 74 236 -8 30 -10 32 -17 15 -50 -139 -131 -242 -229 -290 -182 -89 -398 22 -400 205 -1 102 57 171 147 172 86 2 139 -48 147 -139 l5 -55 48 42 c62 55 129 149 171 242 54 118 54 116 2 111 -60 -7 -108 3 -135 28 l-22 21 43 27 c118 76 198 221 198 360 0 62 5 56 -101 116 l-55 32 -59 -65z" id="97"/>
<path d="M4188 1783 c-10 -125 -73 -240 -171 -313 -37 -28 -43 -36 -31 -43 26 -14 95 5 186 51 12 6 -39 -123 -91 -234 -82 -173 -171 -284 -239 -299 -32 -7 -78 11 -100 38 -10 12 -9 16 8 20 11 3 25 18 30 33 9 23 8 33 -8 53 -23 32 -85 54 -125 45 -61 -13 -87 -116 -47 -193 55 -109 183 -140 309 -76 103 52 169 145 212 301 12 43 23 85 26 93 6 23 23 -2 30 -45 3 -21 15 -50 25 -64 37 -51 41 -158 9 -242 -5 -15 -32 -59 -58 -99 -63 -94 -64 -134 -10 -241 21 -41 52 -92 70 -113 l31 -38 32 37 c17 20 49 71 70 113 55 109 54 147 -9 242 -54 81 -64 105 -78 174 -10 56 3 129 30 167 10 14 21 43 24 64 7 43 24 68 30 45 3 -8 14 -50 26 -93 43 -156 109 -249 212 -301 126 -64 254 -33 309 76 40 77 14 180 -47 193 -40 9 -102 -13 -125 -45 -16 -20 -17 -30 -8 -53 5 -15 19 -30 30 -33 47 -12 -43 -68 -92 -58 -68 15 -157 126 -239 299 -52 111 -103 240 -91 234 91 -46 160 -65 186 -51 12 7 6 15 -31 43 -98 73 -161 188 -171 312 l-5 68 -27 -16 c-25 -15 -29 -15 -52 0 l-25 17 -5 -68z" id="98"/>
<path d="M2695 1802 c-16 -11 -36 -26 -43 -35 -12 -14 -8 -17 28 -28 57 -17 125 -80 146 -134 38 -101 -10 -251 -113 -354 -65 -64 -145 -108 -243 -131 l-65 -16 90 -33 c114 -42 251 -71 335 -71 64 0 67 -1 105 -41 22 -22 76 -65 120 -94 78 -52 245 -139 252 -131 2 2 -10 25 -26 51 -37 58 -68 151 -77 226 -14 118 52 290 132 346 69 49 159 54 236 13 l38 -20 0 36 c0 77 -51 134 -132 149 -33 6 -54 -1 -180 -63 -79 -39 -169 -82 -200 -95 l-57 -25 -32 86 c-17 48 -48 138 -69 200 -20 62 -46 122 -56 134 -43 48 -135 62 -189 30z" id="99"/>
<path d="M5655 1806 c-48 -21 -66 -49 -105 -168 -21 -62 -52 -152 -69 -200 l-32 -86 -57 25 c-31 13 -121 56 -200 95 -126 62 -147 69 -180 63 -81 -15 -132 -72 -132 -149 l0 -36 38 20 c77 41 167 36 236 -13 80 -56 146 -228 132 -346 -9 -75 -40 -168 -77 -226 -16 -26 -28 -49 -26 -51 7 -8 174 79 252 131 44 29 98 72 120 94 38 40 41 41 105 41 84 0 221 29 335 71 l90 33 -59 13 c-200 45 -354 202 -372 381 -5 47 -3 73 10 107 21 55 89 117 146 134 41 12 42 13 23 33 -42 47 -116 61 -178 34z" id="100"/>
</g>
</svg>