<?xml version="1.0" ?><!DOCTYPE svg  PUBLIC '-//W3C//DTD SVG 20010904//EN'  'http://www.w3.org/TR/2001/REC-SVG-20010904/DTD/svg10.dtd'><svg height="850.000000pt" preserveAspectRatio="xMidYMid meet" version="1.0" viewBox="0 0 850.000000 850.000000" width="850.000000pt" xmlns="http://www.w3.org/2000/svg">
<metadata>
Created by potrace 1.14, written by Peter Selinger 2001-2017
</metadata>
<g fill="#ffffff" stroke="none" transform="translate(0.000000,850.000000) scale(0.100000,-0.100000)">
<path d="M0 4250 l0 -4250 4250 0 4250 0 0 4250 0 4250 -4250 0 -4250 0 0 -4250z m3819 3831 c81 -83 85 -86 230 -117 45 -10 85 -23 88 -30 3 -7 -12 -27 -32 -45 -57 -51 -68 -80 -73 -206 -4 -90 -7 -113 -19 -113 -8 0 -54 38 -103 85 l-88 85 -61 0 c-34 0 -61 4 -61 9 0 6 10 27 22 47 27 46 28 124 4 258 -24 134 -14 137 93 27z m-727 -4 c178 -80 401 -294 648 -622 l91 -120 252 -1 c260 -1 374 -11 583 -54 233 -48 496 -140 705 -246 58 -30 108 -54 110 -54 3 0 -4 39 -14 88 -30 133 -29 437 1 546 47 172 139 304 247 357 42 20 65 24 140 24 75 0 98 -4 135 -24 124 -65 205 -169 288 -373 l11 -27 38 35 c50 47 180 108 270 128 88 20 230 20 300 2 108 -29 163 -85 163 -166 0 -45 -28 -122 -49 -134 -23 -15 -10 -27 22 -21 135 27 363 129 585 262 203 121 204 104 6 -95 -266 -266 -561 -517 -772 -655 -56 -38 -102 -72 -102 -76 0 -5 31 -25 69 -45 38 -20 103 -61 146 -91 66 -48 82 -55 123 -55 72 0 177 -26 235 -57 72 -39 74 -64 9 -124 -26 -24 -56 -49 -67 -54 -15 -9 -16 -15 -6 -32 6 -12 11 -30 11 -41 0 -17 5 -16 58 10 78 39 153 46 237 23 81 -22 136 -60 171 -122 60 -102 27 -203 -90 -273 l-58 -34 23 -15 c47 -30 98 -94 115 -144 44 -133 -33 -283 -188 -364 -46 -24 -65 -28 -139 -28 l-87 0 -41 -82 c-60 -121 -143 -252 -246 -387 -49 -65 -95 -126 -102 -135 -8 -12 -9 -54 -2 -156 12 -200 -3 -416 -47 -690 l-7 -40 69 66 c149 142 272 211 386 217 56 4 73 1 102 -17 83 -52 110 -195 62 -334 -12 -37 -22 -67 -21 -67 1 0 21 9 44 21 63 30 177 52 235 44 132 -17 195 -97 183 -234 -7 -86 -41 -174 -86 -224 l-36 -40 33 6 c73 15 317 154 372 212 50 54 54 10 8 -79 -62 -118 -185 -219 -466 -385 -215 -127 -560 -282 -704 -316 -81 -19 -208 -19 -253 0 -60 25 -73 106 -30 191 14 27 25 53 25 58 0 5 -22 6 -50 2 -60 -8 -250 -63 -268 -78 -6 -6 -37 -46 -67 -89 -125 -178 -309 -378 -492 -531 -254 -216 -638 -424 -955 -520 -43 -12 -78 -28 -78 -34 0 -15 229 -358 309 -463 333 -437 573 -612 712 -518 31 21 79 89 79 112 0 6 -19 18 -41 29 -22 10 -62 40 -87 65 l-48 48 -62 -5 c-82 -6 -96 5 -89 71 3 32 21 83 52 144 43 85 49 104 56 187 14 167 63 326 156 509 62 122 136 210 207 248 l45 24 28 -21 c112 -82 192 -412 181 -743 -5 -141 -5 -147 18 -177 29 -38 60 -106 72 -160 18 -82 -27 -126 -113 -110 -28 6 -41 1 -79 -28 -25 -18 -65 -42 -90 -51 -40 -15 -46 -22 -52 -54 -22 -135 -88 -274 -150 -318 -113 -80 -272 -47 -459 94 -95 72 -311 291 -417 423 -104 130 -272 367 -370 523 -80 127 -81 129 -112 123 -151 -31 -256 -40 -506 -40 -224 0 -287 4 -406 22 l-141 22 -124 -67 c-68 -37 -209 -107 -314 -156 -104 -49 -347 -166 -540 -259 -839 -408 -1104 -531 -1365 -636 -151 -60 -319 -124 -373 -141 -145 -46 -150 -35 -41 105 149 193 137 220 -85 184 -69 -11 -160 -29 -202 -40 -42 -10 -87 -16 -99 -13 -19 5 -15 9 27 27 110 47 289 171 367 255 29 31 29 31 18 95 -19 100 -15 261 8 350 47 185 178 326 302 326 75 -1 145 -45 224 -143 l30 -37 115 112 c63 62 140 128 171 147 167 97 331 122 460 68 73 -30 131 -117 144 -211 4 -25 8 -46 10 -46 2 0 23 15 47 33 101 77 302 103 361 48 30 -29 34 -76 11 -121 -16 -32 -15 -33 25 -31 116 8 704 160 686 178 -3 4 -57 22 -119 41 -175 53 -290 98 -447 176 -180 89 -300 163 -459 284 l-125 94 -156 -11 c-86 -7 -219 -11 -295 -10 l-139 1 3 -53 c3 -71 -41 -162 -104 -213 -83 -68 -202 -109 -269 -92 -92 23 -150 162 -112 268 l14 38 -27 -8 c-48 -13 -164 -7 -198 11 -47 25 -102 85 -112 123 -13 47 3 99 39 126 l30 22 -64 63 c-125 123 -176 241 -184 423 -7 194 38 367 155 590 96 183 294 462 393 553 38 36 40 41 40 95 0 31 -3 87 -6 123 l-7 67 -31 -18 c-54 -32 -276 -121 -321 -129 -75 -14 -75 0 -2 84 37 42 67 84 67 94 0 9 -16 33 -36 52 -46 43 -114 139 -148 206 -83 165 -71 370 30 506 66 91 177 137 245 103 18 -9 33 -16 33 -16 1 0 1 35 1 78 0 70 3 84 30 127 17 27 50 63 74 80 37 26 52 30 106 30 59 0 66 -3 99 -34 20 -19 38 -43 42 -53 3 -10 8 -18 12 -18 4 0 25 44 47 97 22 53 67 145 99 203 32 58 64 114 70 125 6 11 39 62 74 112 200 296 471 564 775 767 116 76 119 79 113 110 -20 113 -31 281 -30 471 1 235 15 338 63 466 25 65 87 141 140 170 52 28 174 22 253 -14z m-1832 -148 c36 -5 84 -19 108 -29 38 -17 52 -18 133 -9 82 9 191 3 287 -16 53 -10 162 -69 200 -108 61 -63 86 -126 85 -217 0 -41 -6 -88 -12 -105 -12 -29 -11 -31 61 -95 40 -36 91 -82 113 -104 38 -36 37 -36 -20 8 -33 25 -85 65 -115 89 l-54 44 -42 -71 c-23 -39 -73 -106 -110 -150 -38 -43 -73 -84 -78 -91 -11 -15 17 -124 41 -163 29 -48 4 -31 -31 20 -20 29 -44 63 -54 76 l-18 23 -45 -34 c-104 -80 -258 -163 -401 -217 -59 -23 -88 -39 -88 -49 0 -13 -2 -13 -9 -3 -7 11 -19 11 -70 1 -33 -7 -61 -16 -61 -20 0 -3 16 -57 35 -120 19 -62 33 -114 31 -117 -2 -2 -22 50 -43 115 l-40 118 -59 -5 c-98 -8 -266 -3 -313 9 -23 7 -44 11 -46 9 -2 -2 10 -106 26 -233 16 -126 28 -241 28 -255 -2 -43 -19 73 -65 450 -5 42 -8 46 -50 64 -65 27 -147 106 -175 168 -18 41 -23 70 -22 128 1 123 54 238 175 380 42 50 60 82 76 135 55 181 218 329 405 370 77 17 133 18 217 4z m6544 -1149 c74 -102 112 -127 206 -137 33 -3 63 -9 65 -13 3 -4 -13 -25 -34 -47 -51 -52 -61 -91 -50 -195 5 -46 11 -93 14 -106 4 -14 0 -24 -9 -28 -14 -5 -36 10 -177 123 -22 18 -59 38 -82 44 -60 18 -64 23 -39 68 21 38 22 46 16 210 -9 208 -5 211 90 81z m-7097 -627 c-3 -10 -5 -2 -5 17 0 19 2 27 5 18 2 -10 2 -26 0 -35z m5998 -3532 c61 -93 92 -111 191 -111 39 0 73 -3 77 -6 3 -4 -18 -30 -48 -58 -69 -66 -75 -94 -48 -239 11 -63 15 -110 10 -114 -5 -3 -30 19 -55 48 -69 81 -131 139 -158 150 -14 5 -47 9 -73 9 -26 0 -50 3 -54 6 -3 3 10 36 30 73 39 73 37 51 18 316 l-6 80 33 -39 c18 -22 56 -73 83 -115z m-6309 -381 c49 -61 97 -113 107 -116 10 -3 61 -7 113 -9 53 -2 98 -6 101 -9 4 -3 -15 -28 -40 -55 -25 -27 -49 -61 -53 -76 -7 -30 7 -117 38 -223 12 -40 18 -75 15 -79 -4 -3 -54 38 -111 91 -110 101 -137 116 -216 116 -67 0 -73 11 -42 78 37 82 39 148 8 262 -28 101 -31 130 -17 130 5 0 49 -50 97 -110z m6840 -601 c118 -22 202 -80 242 -168 9 -20 17 -37 18 -39 1 -2 25 8 53 22 102 52 230 21 295 -72 27 -37 30 -50 29 -110 -1 -48 -10 -91 -32 -151 -17 -47 -31 -86 -31 -87 0 -7 77 24 179 73 62 30 116 52 119 48 10 -10 -107 -122 -228 -219 -183 -146 -299 -230 -432 -312 -138 -85 -396 -219 -405 -210 -4 3 5 27 19 53 33 61 42 106 28 132 -6 12 -34 36 -63 54 -73 48 -152 135 -182 203 -60 135 -90 352 -66 477 43 230 221 349 457 306z m-3594 -557 c54 -79 188 -240 206 -248 9 -4 46 -12 81 -18 36 -6 66 -16 68 -23 2 -6 -16 -25 -41 -43 -27 -18 -49 -42 -52 -57 -9 -34 3 -207 17 -257 19 -68 -3 -65 -76 13 -84 89 -115 107 -192 116 -72 8 -76 15 -38 75 14 23 28 54 32 70 3 18 -10 104 -32 214 -47 228 -42 258 27 158z" id="1"/>
<path d="M3740 8120 c0 -3 7 -43 15 -90 19 -108 19 -171 0 -217 -8 -19 -15 -37 -15 -39 0 -2 17 -4 38 -4 46 0 68 -14 153 -97 l66 -64 6 89 c6 98 24 153 64 194 15 15 24 30 21 33 -3 3 -41 13 -84 21 -99 20 -148 48 -213 121 -28 32 -51 56 -51 53z" id="2"/>
<path d="M2855 8072 c-79 -37 -140 -142 -172 -292 -15 -69 -18 -132 -18 -330 0 -235 18 -480 35 -480 4 0 47 21 94 46 l86 46 0 168 c0 279 42 438 131 497 126 83 336 -34 582 -327 40 -46 78 -91 86 -100 29 -34 174 -238 217 -307 48 -78 51 -111 5 -56 -28 34 -94 63 -141 63 -65 0 -98 -75 -65 -144 20 -42 51 -66 97 -75 17 -4 33 -11 35 -17 5 -15 -80 -50 -141 -59 -32 -5 -44 -10 -35 -16 43 -27 253 8 353 58 135 68 279 181 313 246 22 43 9 44 -39 5 -58 -47 -145 -91 -154 -77 -3 6 3 17 15 25 71 50 81 219 13 236 -54 15 -139 -58 -129 -109 2 -13 1 -23 -3 -23 -9 0 -116 149 -214 296 -145 219 -436 526 -609 643 -133 90 -261 121 -342 83z" id="3"/>
<path d="M5780 7967 c-99 -28 -178 -103 -235 -222 -80 -169 -99 -408 -56 -690 16 -98 66 -221 124 -305 l24 -35 -46 -60 c-70 -91 -295 -318 -396 -399 -102 -82 -296 -220 -368 -261 -26 -15 -46 -29 -44 -31 7 -7 468 152 645 222 414 164 940 430 935 474 0 8 -8 49 -17 90 -21 93 -32 225 -20 232 18 10 151 -24 262 -68 63 -24 118 -44 122 -44 34 0 283 178 475 339 132 111 505 461 505 474 0 5 -17 -1 -37 -14 -278 -168 -489 -259 -655 -283 -58 -9 -60 -2 -13 59 39 51 60 115 50 153 -11 43 -66 89 -131 108 -84 26 -227 23 -327 -5 -128 -35 -242 -103 -272 -161 -21 -41 -38 -34 -47 21 -11 68 -92 219 -154 288 -92 101 -219 147 -324 118z" id="4"/>
<path d="M3057 7725 c-21 -7 -47 -21 -58 -31 -32 -29 -68 -117 -84 -209 -16 -94 -21 -371 -6 -393 7 -11 25 -7 91 22 155 68 438 153 603 181 20 3 37 10 37 14 0 14 -141 170 -221 246 -153 145 -274 202 -362 170z" id="5"/>
<path d="M3902 7303 l-43 -4 24 -32 c13 -18 44 -62 69 -99 l46 -66 23 36 c30 47 88 76 130 67 47 -11 71 -56 66 -130 -2 -33 -7 -68 -11 -77 -14 -31 10 -20 81 37 74 60 83 64 83 38 0 -37 -49 -122 -101 -174 -196 -200 -537 -307 -663 -208 -31 24 -27 38 9 31 30 -5 143 17 151 29 3 5 -5 13 -18 18 -81 31 -116 157 -61 221 24 29 30 31 77 27 28 -2 61 -8 74 -12 22 -7 22 -5 -10 49 -18 31 -60 93 -92 137 l-59 82 -56 -7 c-84 -9 -248 -50 -411 -104 l-145 -47 156 -6 c236 -10 311 -32 339 -100 28 -66 -24 -143 -218 -326 -154 -145 -223 -238 -230 -311 -4 -45 -1 -53 31 -88 20 -23 83 -66 152 -104 189 -104 259 -181 259 -285 0 -96 -65 -181 -287 -377 -265 -235 -281 -286 -176 -558 28 -72 32 -98 33 -175 1 -79 -2 -96 -26 -141 -67 -128 -241 -224 -406 -224 -74 0 -150 24 -273 86 -140 70 -247 89 -343 60 -70 -21 -119 -60 -152 -119 -26 -46 -29 -62 -29 -137 0 -109 29 -178 100 -236 79 -64 94 -135 54 -253 -20 -59 -61 -122 -201 -302 -31 -41 -79 -111 -107 -156 -42 -68 -51 -91 -51 -129 0 -93 37 -166 100 -199 14 -7 88 -36 165 -65 241 -91 273 -111 404 -255 41 -45 119 -81 210 -97 62 -11 77 -9 211 21 413 94 942 273 1309 442 l83 39 -23 28 c-13 16 -37 52 -54 80 -16 28 -33 52 -37 52 -4 0 -15 -12 -25 -26 -9 -15 -35 -40 -57 -55 -48 -36 -123 -40 -172 -10 -35 21 -102 142 -128 231 -36 122 -72 469 -64 627 5 114 25 165 69 183 24 10 33 10 55 -5 43 -28 65 -99 109 -345 27 -147 51 -240 63 -240 30 1 34 21 36 196 3 198 15 271 71 441 57 171 130 298 230 397 106 107 199 153 285 143 55 -7 116 -35 145 -67 11 -12 32 -31 46 -41 l26 -19 37 59 c40 65 78 101 137 131 49 26 76 25 121 -3 60 -36 105 -104 164 -246 l10 -24 31 39 c29 37 30 44 36 164 10 199 60 360 112 360 30 0 57 -39 136 -193 28 -54 53 -97 55 -94 2 2 -1 39 -7 83 -19 137 6 323 57 426 40 79 82 86 151 25 56 -49 107 -169 188 -442 3 -10 95 -80 95 -72 0 3 -16 28 -35 57 -19 29 -45 84 -56 123 -19 62 -21 85 -16 211 6 149 25 243 71 358 14 34 24 63 23 64 -1 0 -45 -5 -97 -12 -143 -19 -277 -18 -348 5 -84 26 -126 61 -164 139 -29 59 -33 76 -33 152 0 47 4 102 9 122 l8 38 -68 -26 c-233 -88 -670 -221 -683 -209 -2 2 18 17 44 32 146 86 470 316 505 358 9 11 5 17 -19 29 -43 23 -112 20 -248 -10 -146 -32 -267 -37 -306 -12 -91 60 -45 148 183 347 147 128 215 201 249 266 24 47 46 147 38 169 -7 19 -270 105 -427 140 -63 14 -167 32 -230 41 -113 15 -483 27 -568 18z m852 -137 c42 -17 66 -51 66 -91 0 -72 -97 -201 -207 -276 -42 -29 -36 -20 48 67 88 92 139 170 139 210 0 50 -51 82 -149 94 l-66 7 68 2 c38 0 82 -5 101 -13z m-116 -106 c25 -15 32 -26 32 -51 0 -44 -30 -81 -109 -133 -101 -68 -116 -67 -30 1 121 97 143 137 94 169 -14 9 -48 20 -77 24 l-53 8 55 1 c39 1 65 -5 88 -19z m-150 -56 c3 -24 -89 -114 -117 -114 -10 1 3 18 37 48 28 26 52 52 52 58 0 6 -14 9 -32 7 l-33 -3 30 15 c39 19 59 15 63 -11z m-855 -386 c-35 -38 -63 -79 -63 -92 0 -15 130 2 215 28 87 27 79 10 -11 -24 -124 -46 -224 -47 -224 -2 0 32 77 121 104 122 6 0 -4 -15 -21 -32z m-173 -36 c-16 -26 -35 -69 -42 -95 -11 -41 -10 -52 3 -75 39 -70 136 -95 266 -68 43 9 89 18 103 21 47 10 -39 -25 -103 -42 -125 -31 -245 -2 -280 70 -25 50 -16 101 34 177 46 71 62 81 19 12z m757 -874 c46 -43 19 -141 -46 -168 -28 -11 -34 -10 -51 5 -25 23 -25 56 -1 86 25 31 36 20 17 -16 -30 -57 14 -76 58 -24 31 37 33 72 5 100 -29 29 -74 19 -119 -26 -33 -33 -35 -40 -35 -98 0 -34 4 -92 8 -128 l8 -66 77 5 c61 3 100 -2 192 -24 199 -49 388 -36 469 32 47 39 42 70 -16 96 -37 16 -60 19 -110 15 -75 -6 -82 2 -64 63 25 84 106 143 198 144 68 1 100 -27 109 -95 l6 -47 55 25 c105 48 186 2 195 -113 3 -43 9 -41 -85 -27 -21 3 -58 2 -82 -2 l-45 -6 0 -47 c-1 -26 -7 -65 -15 -87 -8 -21 -12 -41 -10 -43 9 -9 251 135 298 178 117 104 140 202 57 245 -39 20 -60 19 -60 -4 0 -25 17 -35 54 -33 25 2 27 0 16 -13 -30 -36 -93 -1 -88 48 2 27 8 33 31 35 37 4 91 -31 111 -72 41 -88 -63 -216 -275 -336 -186 -105 -396 -187 -934 -365 -670 -221 -954 -376 -1238 -675 -121 -127 -169 -234 -128 -284 44 -53 231 41 302 153 33 51 40 118 13 128 -52 20 -174 -68 -174 -126 0 -39 18 -47 60 -26 37 19 59 60 42 77 -17 17 -42 1 -42 -27 0 -15 -4 -24 -10 -20 -14 9 -13 48 2 63 7 7 21 12 33 12 51 0 60 -56 16 -100 -33 -33 -77 -48 -100 -33 -24 15 -25 73 -2 110 23 37 114 93 152 93 99 0 78 -137 -37 -239 -58 -51 -141 -92 -198 -98 -60 -7 -86 18 -86 83 0 76 48 152 175 279 211 212 421 349 718 470 94 38 117 51 112 64 -31 81 -24 182 20 278 32 70 132 174 202 210 l55 28 -5 80 c-6 94 -29 164 -64 199 -33 33 -63 33 -102 0 -38 -32 -42 -83 -10 -115 26 -26 63 -22 67 9 3 17 -2 22 -17 22 -25 0 -28 18 -5 27 9 3 25 -3 37 -16 20 -20 21 -23 7 -49 -22 -38 -71 -42 -104 -8 -50 50 -42 118 19 156 48 30 91 26 126 -11 16 -17 29 -35 29 -40 0 -5 5 -9 10 -9 6 0 10 8 10 18 0 9 8 27 18 40 47 61 126 80 169 40z m-667 -358 c30 -16 44 -74 31 -127 -25 -96 -85 -188 -157 -240 -57 -40 -107 -45 -125 -11 -18 34 -6 165 20 217 39 75 149 170 199 171 7 0 22 -4 32 -10z m-125 -1273 c37 -37 55 -89 55 -163 0 -116 -64 -232 -221 -398 -55 -58 -85 -96 -75 -96 34 0 98 43 181 120 91 86 124 99 147 58 19 -36 14 -127 -10 -173 -24 -47 -54 -76 -141 -136 -34 -24 -58 -45 -52 -47 6 -2 51 6 100 17 156 37 231 23 231 -42 0 -60 -111 -174 -228 -233 -71 -36 -163 -44 -227 -19 -82 31 -159 156 -190 309 -13 66 -14 100 -5 215 15 207 49 328 124 445 79 124 146 175 230 176 41 0 53 -5 81 -33z m-531 -162 c35 -35 41 -93 41 -390 0 -179 -5 -323 -13 -377 -15 -104 -45 -225 -67 -272 -34 -70 -117 -72 -190 -5 -24 23 -48 38 -53 35 -5 -3 -12 -19 -16 -36 -9 -47 -48 -80 -94 -80 -117 0 -309 171 -402 358 -65 132 -97 293 -79 401 22 140 45 160 118 107 69 -51 123 -125 238 -324 5 -8 8 71 8 175 1 172 3 193 24 246 13 32 33 65 47 74 24 15 27 15 52 -4 15 -11 35 -35 44 -54 15 -31 58 -169 89 -289 l12 -45 28 107 c55 210 140 388 184 388 8 0 21 -7 29 -15z" id="6"/>
<path d="M4740 5664 c-42 -18 -77 -49 -96 -86 -24 -47 -19 -56 29 -51 55 7 118 -11 157 -44 27 -22 31 -31 26 -57 -8 -37 -31 -63 -76 -86 -108 -54 -260 -57 -464 -9 -132 31 -143 32 -210 20 -97 -16 -150 -44 -222 -115 -81 -81 -116 -155 -122 -260 -3 -57 -2 -77 7 -72 6 4 11 13 11 20 0 19 80 92 145 131 87 52 164 72 395 105 288 40 369 62 463 122 46 29 147 155 147 182 0 8 36 11 110 11 60 0 110 4 110 8 0 22 -31 77 -48 86 -49 26 -133 3 -189 -51 -37 -36 -48 -33 -33 6 20 53 8 127 -24 148 -18 13 -79 8 -116 -8z" id="7"/>
<path d="M4895 5360 c-97 -132 -208 -175 -580 -225 -207 -27 -298 -51 -382 -100 -92 -54 -171 -143 -157 -178 4 -12 18 -10 77 13 40 15 159 56 266 90 197 63 640 221 725 259 38 16 50 29 65 63 19 43 37 128 28 128 -3 0 -22 -22 -42 -50z" id="8"/>
<path d="M3454 5302 c-88 -64 -141 -150 -151 -246 -5 -47 -3 -55 17 -69 30 -21 68 -7 126 49 52 51 114 172 114 222 0 76 -40 92 -106 44z" id="9"/>
<path d="M3263 4055 c-43 -26 -119 -119 -155 -189 -53 -103 -98 -313 -98 -453 0 -143 45 -281 120 -366 71 -81 164 -88 289 -22 114 60 222 189 180 216 -19 12 -96 11 -139 -1 -19 -6 -67 -17 -107 -25 -111 -23 -132 -4 -63 59 22 19 65 52 95 73 81 53 125 139 106 209 -4 15 -13 30 -19 32 -7 2 -47 -30 -90 -70 -89 -86 -123 -111 -173 -127 -39 -13 -64 -7 -73 15 -3 9 35 59 100 132 160 178 214 273 214 374 0 145 -80 207 -187 143z m101 -41 c9 -9 16 -32 16 -54 0 -31 -7 -46 -34 -73 -61 -62 -116 -57 -116 10 0 42 21 85 56 112 32 25 57 27 78 5z" id="10"/>
<path d="M3297 3990 c-14 -11 -31 -36 -37 -56 -23 -70 11 -85 66 -30 35 35 44 72 22 94 -16 16 -21 15 -51 -8z" id="11"/>
<path d="M2831 3857 c-53 -86 -138 -355 -149 -476 -11 -111 -29 -87 -77 104 -65 258 -88 315 -124 315 -22 0 -47 -53 -61 -129 -15 -80 -11 -275 6 -366 9 -44 18 -92 21 -107 11 -56 -22 -28 -64 55 -82 159 -149 261 -214 330 -37 39 -73 67 -80 65 -24 -8 -41 -79 -40 -168 0 -105 34 -228 94 -345 77 -150 268 -315 364 -315 37 0 54 20 74 87 17 61 36 62 86 8 67 -72 129 -82 158 -26 21 41 53 175 66 281 18 132 18 621 1 678 -15 51 -33 53 -61 9z m-412 -827 c81 -41 118 -120 65 -140 -68 -26 -164 46 -164 124 0 40 40 47 99 16z" id="12"/>
<path d="M2344 3016 c-8 -21 25 -85 52 -102 26 -18 94 -9 94 11 0 22 -47 71 -84 89 -42 20 -55 20 -62 2z" id="13"/>
<path d="M3025 7093 c-58 -14 -319 -154 -450 -241 -156 -103 -210 -153 -311 -287 -133 -177 -151 -258 -88 -398 33 -71 36 -87 32 -141 -10 -125 -76 -203 -308 -366 -319 -225 -512 -494 -556 -777 -17 -115 -30 -447 -20 -517 l8 -49 54 164 c64 190 171 415 243 510 78 102 280 291 467 435 204 158 321 263 433 386 99 110 131 170 131 249 0 60 -6 72 -81 156 -65 72 -93 138 -94 219 0 61 5 80 37 146 61 121 126 175 357 293 203 102 261 145 261 189 0 23 -4 26 -34 26 -19 0 -40 2 -48 4 -7 2 -22 1 -33 -1z" id="14"/>
<path d="M5138 7038 c-7 -119 -46 -169 -365 -468 -106 -99 -140 -150 -129 -193 13 -55 99 -60 306 -17 171 35 212 37 265 10 22 -11 44 -20 50 -20 11 0 155 142 155 153 0 2 -27 15 -60 27 -68 26 -116 72 -125 122 -7 38 15 113 69 233 35 78 47 145 25 145 -6 0 -47 16 -90 35 -44 19 -84 35 -88 35 -5 0 -10 -28 -13 -62z" id="15"/>
<path d="M3160 7057 c0 -53 -52 -92 -259 -197 -99 -50 -203 -109 -231 -131 -98 -77 -161 -194 -161 -297 0 -69 32 -136 105 -219 88 -100 95 -162 34 -285 -25 -49 -64 -95 -177 -208 -80 -80 -195 -183 -256 -229 -305 -234 -481 -393 -575 -521 -95 -129 -173 -299 -260 -566 l-50 -155 20 -133 c11 -73 31 -175 45 -227 27 -109 78 -276 86 -284 3 -3 13 51 23 120 37 268 139 623 235 820 100 204 188 292 576 573 154 112 324 235 378 274 60 44 156 131 251 229 163 167 196 215 218 320 19 92 -1 131 -143 269 -98 96 -119 122 -129 160 -24 90 10 168 125 285 90 91 187 161 320 228 108 54 137 82 139 134 1 37 0 38 -45 49 -25 6 -96 15 -157 19 l-112 7 0 -35z" id="16"/>
<path d="M3507 7023 c-3 -4 -8 -22 -11 -39 -9 -42 -33 -61 -151 -124 -144 -76 -234 -141 -320 -232 -86 -89 -114 -141 -115 -209 0 -62 37 -115 142 -204 135 -115 166 -207 117 -342 -31 -82 -67 -128 -246 -305 -141 -140 -186 -176 -428 -349 -397 -283 -484 -350 -562 -432 -90 -95 -125 -146 -183 -270 -92 -197 -171 -469 -229 -796 l-30 -163 30 -76 c17 -41 53 -123 81 -181 l51 -106 8 50 c4 28 12 62 18 78 16 41 119 190 205 297 124 153 175 278 147 362 -6 19 -31 50 -57 73 -92 76 -132 218 -99 343 16 56 27 75 70 118 114 115 277 118 494 10 154 -77 228 -93 332 -71 103 21 174 59 245 129 67 68 89 121 87 211 -2 51 -8 75 -63 230 -23 65 -32 109 -32 157 -1 104 29 155 165 280 316 291 366 354 355 453 -11 91 -72 151 -252 247 -270 145 -260 239 60 551 162 158 204 213 204 264 0 30 -23 62 -33 46z" id="17"/>
<path d="M5356 6966 c-4 -19 -22 -68 -40 -108 -19 -40 -42 -99 -51 -131 -16 -54 -16 -59 2 -95 13 -27 32 -44 69 -62 111 -54 99 -54 150 0 25 27 62 69 81 94 l35 45 -47 98 c-26 54 -50 105 -54 113 -8 16 -84 63 -118 74 -17 6 -22 1 -27 -28z" id="18"/>
<path d="M6345 6913 c14 -105 38 -223 45 -228 5 -3 18 10 29 29 31 49 106 115 158 138 l46 20 -59 25 c-61 25 -189 63 -212 63 -10 0 -12 -11 -7 -47z" id="19"/>
<path d="M6620 6841 c-49 -15 -86 -40 -134 -89 -80 -81 -89 -109 -60 -182 18 -45 34 -52 34 -15 0 38 44 118 82 150 45 38 131 77 184 83 24 2 44 8 44 12 0 9 -94 50 -112 49 -7 0 -24 -4 -38 -8z" id="20"/>
<path d="M6692 6755 c-67 -19 -84 -28 -134 -73 -49 -44 -77 -98 -85 -161 -5 -41 0 -57 32 -121 61 -122 232 -370 254 -370 4 0 6 35 6 78 0 71 4 86 38 155 44 88 92 135 185 179 55 27 71 30 132 26 43 -2 70 0 70 6 0 21 -168 174 -251 229 -99 65 -156 77 -247 52z m163 -111 c67 -44 57 -173 -18 -228 -33 -24 -125 -28 -152 -6 -24 20 -55 85 -55 117 0 30 32 89 59 110 43 34 121 37 166 7z" id="21"/>
<path d="M6780 6635 c0 -2 12 -21 26 -42 20 -30 25 -47 22 -83 -3 -25 -8 -53 -13 -64 -7 -16 -6 -17 12 -7 29 15 56 87 48 128 -6 35 -46 73 -76 73 -11 0 -19 -2 -19 -5z" id="22"/>
<path d="M6701 6613 c-28 -19 -51 -65 -51 -101 0 -44 48 -92 92 -92 31 0 37 5 53 39 39 87 -30 199 -94 154z" id="23"/>
<path d="M7080 6630 c0 -3 25 -30 56 -60 30 -30 64 -72 75 -92 11 -21 24 -38 30 -38 6 0 35 24 65 52 l56 53 -28 21 c-15 12 -52 30 -81 39 -59 19 -173 35 -173 25z" id="24"/>
<path d="M6345 6604 c-11 -8 -64 -40 -117 -70 l-97 -55 94 -108 c83 -97 193 -236 220 -279 6 -9 27 -44 49 -77 102 -158 250 -483 307 -675 l22 -75 29 65 c25 54 88 231 88 246 0 2 -11 4 -25 4 -62 0 -103 49 -90 108 6 28 4 30 -34 36 -53 8 -91 53 -91 107 0 47 11 72 53 116 44 47 26 52 -35 9 -100 -68 -123 -44 -134 150 -7 110 -9 122 -39 169 -39 60 -113 208 -144 288 -13 31 -26 57 -30 57 -3 0 -15 -8 -26 -16z" id="25"/>
<path d="M2132 6491 c-116 -116 -221 -243 -316 -378 l-58 -83 74 0 c88 0 128 10 180 47 64 44 92 103 99 208 7 100 21 136 96 244 24 35 42 65 39 68 -2 2 -53 -45 -114 -106z" id="26"/>
<path d="M6018 6425 c-36 -19 -69 -43 -72 -52 -23 -83 -17 -135 18 -159 17 -10 60 -15 157 -18 94 -2 147 -8 178 -20 24 -9 46 -14 49 -12 9 10 -234 296 -252 296 -6 -1 -41 -16 -78 -35z" id="27"/>
<path d="M7013 6429 c-67 -26 -156 -107 -191 -173 -24 -45 -27 -62 -27 -148 0 -99 8 -124 38 -112 13 4 15 15 10 53 -7 62 26 129 96 194 71 66 130 90 206 84 33 -3 70 -8 81 -12 20 -6 21 -4 14 34 -9 49 -25 70 -67 88 -45 18 -99 16 -160 -8z" id="28"/>
<path d="M5793 6317 l-112 -52 -1 -123 c0 -89 4 -131 15 -152 46 -90 233 -109 495 -50 72 16 120 20 198 18 56 -2 102 -2 102 -1 0 14 -95 146 -113 157 -62 41 -139 59 -256 58 -76 -1 -125 4 -147 13 -54 22 -79 95 -54 159 13 35 6 34 -127 -27z" id="29"/>
<path d="M7367 6356 c-42 -15 -63 -30 -92 -63 l-20 -24 -40 21 c-92 49 -246 -13 -316 -126 l-21 -35 31 -58 c38 -72 38 -81 2 -81 -132 0 -238 -135 -168 -215 24 -28 52 -34 101 -20 27 7 29 7 21 -16 -37 -115 4 -161 94 -105 47 30 112 105 139 160 10 23 29 61 41 86 l22 45 -8 -45 c-4 -25 -8 -85 -8 -135 1 -79 4 -98 32 -157 75 -160 199 -206 352 -132 196 97 246 307 102 437 -22 20 -51 39 -63 41 -89 18 -88 16 -17 40 132 43 196 114 187 207 -8 77 -80 155 -167 179 -50 14 -159 12 -204 -4z" id="30"/>
<path d="M5548 6208 l-96 -40 -13 -83 c-10 -73 -10 -93 5 -152 26 -110 87 -179 180 -204 55 -16 197 -15 331 1 l110 13 60 63 c86 89 143 102 207 46 10 -8 20 -30 24 -48 6 -30 10 -34 39 -34 48 0 82 -33 100 -95 13 -42 15 -93 13 -232 l-3 -179 28 -37 c17 -22 53 -50 90 -68 34 -17 70 -38 80 -47 17 -15 20 -15 37 8 10 14 29 46 40 71 l22 46 -27 89 c-15 49 -43 130 -62 179 -51 134 -191 412 -211 420 -9 4 -55 9 -102 12 -70 5 -108 0 -215 -23 -103 -23 -155 -29 -250 -29 -125 0 -174 10 -220 46 -50 40 -59 73 -57 202 2 64 -1 117 -5 116 -4 0 -51 -19 -105 -41z" id="31"/>
<path d="M2107 6151 c-25 -57 -95 -117 -158 -135 -29 -9 -87 -16 -130 -16 l-78 0 -34 -57 c-127 -211 -290 -620 -313 -786 -6 -41 -5 -41 36 33 108 193 245 338 476 502 209 148 262 211 279 330 6 38 2 57 -20 107 -15 34 -31 61 -34 61 -4 0 -15 -18 -24 -39z" id="32"/>
<path d="M6605 6138 c2 -18 7 -64 9 -102 8 -105 21 -111 104 -49 l32 24 -66 77 c-37 42 -71 78 -75 80 -4 2 -6 -12 -4 -30z" id="33"/>
<path d="M6860 6061 c0 -29 22 -61 41 -61 13 0 11 15 -8 55 -20 43 -33 45 -33 6z" id="34"/>
<path d="M6214 5841 c-77 -35 -149 -154 -200 -329 -24 -87 -26 -103 -22 -245 5 -178 20 -229 97 -330 83 -111 196 -158 284 -119 57 25 197 158 228 217 31 57 20 79 -40 83 -56 4 -111 -15 -215 -77 -48 -28 -91 -51 -96 -51 -6 0 -10 8 -10 19 0 18 14 40 118 182 52 73 92 171 92 229 0 63 -35 42 -122 -72 -82 -108 -134 -158 -166 -158 -23 0 -24 3 -20 38 3 20 37 102 76 182 80 165 100 225 109 327 5 67 4 73 -20 97 -31 31 -39 31 -93 7z m90 -82 c0 -52 -40 -129 -80 -156 -32 -21 -78 -8 -82 24 -4 29 51 136 85 162 15 13 38 21 52 19 24 -3 26 -7 25 -49z" id="35"/>
<path d="M6247 5779 c-24 -14 -90 -146 -76 -154 37 -23 105 53 111 124 3 37 -7 46 -35 30z" id="36"/>
<path d="M7081 5724 c-14 -19 -44 -52 -67 -73 -30 -26 -45 -50 -54 -81 -31 -123 -121 -348 -155 -390 -7 -8 -25 -40 -41 -70 -16 -30 -34 -59 -40 -65 -6 -5 -33 -41 -59 -80 -148 -213 -491 -574 -750 -789 -714 -593 -1633 -1098 -2539 -1395 -452 -148 -814 -226 -1186 -256 -263 -21 -540 -18 -540 6 0 5 18 20 40 34 50 31 70 70 70 134 0 61 -13 97 -48 135 -79 84 -215 69 -262 -30 -12 -24 -26 -44 -31 -44 -5 0 -15 13 -23 29 -21 39 -69 78 -114 92 -30 9 -45 8 -74 -4 -87 -37 -115 -239 -42 -308 24 -22 32 -49 15 -49 -5 0 -25 7 -44 15 -42 18 -121 20 -165 4 -76 -26 -82 -120 -10 -185 64 -59 149 -72 256 -40 34 11 65 16 69 12 4 -3 -6 -20 -22 -36 -24 -25 -30 -41 -33 -90 -12 -168 94 -236 251 -162 82 38 139 90 171 155 27 52 36 140 16 152 -27 17 7 20 213 21 490 2 1027 106 1653 318 1628 552 3195 1666 3700 2630 l52 100 -49 43 c-64 59 -109 150 -116 237 -3 37 -8 66 -12 66 -3 0 -17 -16 -30 -36z" id="37"/>
<path d="M6365 5741 c-2 -3 -6 -24 -10 -46 -15 -86 -48 -176 -115 -314 -38 -80 -67 -147 -65 -150 8 -8 54 40 115 119 94 122 142 157 173 125 14 -13 16 -12 22 16 13 59 -12 196 -42 230 -14 17 -71 31 -78 20z" id="38"/>
<path d="M1264 5631 c-44 -27 -99 -95 -112 -140 -18 -58 -14 -100 13 -158 28 -62 18 -67 -36 -18 -48 43 -78 51 -137 34 -62 -17 -125 -81 -165 -167 -84 -179 -22 -440 142 -599 76 -74 76 -84 0 -167 -39 -43 -47 -56 -33 -56 25 0 257 94 310 125 l41 24 7 133 c14 267 63 530 143 775 l37 112 -20 36 c-43 82 -120 109 -190 66z" id="39"/>
<path d="M5687 5412 c-26 -28 -55 -102 -66 -167 -27 -161 -23 -275 15 -452 10 -45 15 -85 11 -89 -13 -13 -35 17 -52 69 -34 106 -186 374 -204 362 -19 -11 -52 -121 -67 -219 -26 -173 -2 -382 68 -594 34 -102 97 -233 115 -239 23 -8 36 42 41 152 4 104 3 117 -22 178 -14 36 -29 88 -32 114 -5 47 -4 47 29 -34 37 -88 91 -185 119 -210 14 -12 21 -13 31 -4 22 17 55 145 72 269 8 62 19 122 25 133 18 32 43 18 71 -38 15 -28 37 -68 49 -88 25 -40 97 -98 111 -89 25 15 -1 283 -42 443 -72 279 -146 456 -209 499 -40 27 -43 27 -63 4z m87 -51 c21 -23 52 -111 61 -174 8 -52 -6 -102 -33 -112 -22 -8 -33 7 -77 105 -41 90 -50 154 -26 183 18 22 54 21 75 -2z" id="40"/>
<path d="M5716 5344 c-3 -9 -6 -29 -6 -46 0 -39 78 -201 92 -192 6 4 9 32 6 73 -8 110 -70 222 -92 165z" id="41"/>
<path d="M6438 5263 c-15 -32 -52 -91 -83 -130 -30 -40 -55 -75 -55 -77 0 -3 27 10 60 30 68 39 131 64 166 64 31 0 30 3 -7 49 -17 21 -36 57 -43 80 l-12 41 -26 -57z" id="42"/>
<path d="M6650 5081 c0 -68 -149 -234 -258 -288 -43 -21 -62 -25 -102 -20 -63 8 -124 39 -177 90 -49 47 -54 44 -18 -9 61 -90 77 -272 36 -404 -11 -35 -19 -66 -17 -67 7 -7 307 309 388 408 102 124 198 257 198 274 0 12 -31 45 -43 45 -4 0 -7 -13 -7 -29z" id="43"/>
<path d="M5994 4910 c31 -136 40 -210 40 -327 1 -89 -3 -136 -11 -144 -35 -35 -145 55 -193 158 -17 36 -33 63 -35 61 -3 -2 -11 -53 -20 -114 -17 -122 -49 -247 -71 -281 -23 -36 -57 -29 -101 21 l-39 44 4 -94 c6 -120 -15 -187 -55 -182 -60 7 -159 256 -220 553 l-9 39 -28 -37 -29 -38 21 -92 c57 -250 67 -481 25 -562 -33 -62 -62 -84 -131 -96 -76 -14 -99 -6 -187 56 -82 59 -164 149 -197 217 -58 119 -76 336 -41 493 l16 75 -47 42 c-107 96 -178 111 -284 57 -81 -40 -193 -153 -256 -258 -78 -130 -142 -317 -165 -486 -12 -87 -15 -325 -3 -325 4 1 25 24 47 51 43 54 104 93 130 83 25 -10 47 -62 52 -123 6 -65 -35 -207 -94 -328 l-35 -72 32 -59 c17 -33 44 -72 60 -87 l28 -26 212 106 c550 275 1015 572 1455 929 164 133 207 186 241 301 26 88 24 242 -4 315 -24 62 -118 175 -108 130z m-1444 -365 c71 -37 78 -147 20 -314 -27 -77 -32 -103 -27 -148 13 -127 125 -280 245 -335 81 -37 102 -58 102 -105 0 -30 -8 -44 -43 -77 -53 -51 -100 -66 -212 -66 -79 0 -93 3 -146 31 -110 59 -184 158 -229 308 -20 65 -22 88 -17 180 16 255 70 437 152 509 29 26 44 32 81 32 25 0 58 -7 74 -15z" id="44"/>
<path d="M4407 4500 c-44 -38 -72 -104 -103 -239 -51 -220 -43 -374 26 -517 44 -91 106 -156 185 -193 61 -29 191 -29 253 -1 79 36 114 98 75 132 -10 8 -44 27 -75 41 -139 62 -258 238 -258 381 0 32 12 86 31 141 19 54 34 118 37 160 4 66 3 72 -23 98 -40 39 -102 38 -148 -3z m101 -52 c32 -32 0 -145 -54 -187 -33 -26 -50 -27 -64 -2 -43 82 60 247 118 189z" id="45"/>
<path d="M4452 4424 c-35 -24 -51 -65 -45 -112 3 -23 9 -42 14 -42 15 0 59 55 70 88 11 33 5 82 -9 82 -4 0 -18 -7 -30 -16z" id="46"/>
<path d="M4935 4856 c-40 -18 -127 -114 -155 -172 -67 -137 -66 -433 1 -565 29 -59 108 -157 156 -195 67 -54 113 -74 171 -74 69 0 106 20 134 73 21 38 23 55 22 177 -2 294 -94 619 -206 727 -39 38 -81 48 -123 29z m71 -142 c76 -50 138 -252 139 -450 0 -106 -2 -125 -19 -143 -24 -27 -80 -28 -123 -2 -37 23 -114 171 -138 266 -31 121 -12 254 44 314 33 35 60 39 97 15z m84 -706 c75 -39 79 -72 12 -111 -29 -17 -33 -17 -66 -2 -39 19 -106 87 -106 108 0 22 11 27 65 27 33 0 66 -8 95 -22z" id="47"/>
<path d="M4926 4669 c-14 -17 -26 -34 -26 -39 0 -5 -3 -15 -6 -23 -11 -31 143 -77 169 -51 16 17 -71 144 -99 144 -7 0 -24 -14 -38 -31z" id="48"/>
<path d="M4882 4483 c10 -145 88 -321 152 -343 47 -16 66 -12 77 18 13 31 7 181 -12 290 l-12 72 -66 0 c-48 0 -77 6 -105 21 l-39 21 5 -79z" id="49"/>
<path d="M4960 4000 c0 -17 62 -80 85 -86 25 -6 85 20 85 37 0 15 -101 59 -137 59 -18 0 -33 -4 -33 -10z" id="50"/>
<path d="M6789 4657 c-47 -51 -92 -103 -99 -117 -21 -39 -17 -154 9 -240 13 -41 45 -123 72 -183 27 -59 53 -124 57 -145 7 -30 10 -33 15 -17 16 50 38 225 49 385 11 166 5 411 -10 410 -4 -1 -46 -42 -93 -93z" id="51"/>
<path d="M6539 4406 c-104 -102 -320 -285 -490 -417 -62 -49 -92 -79 -110 -115 -122 -239 -197 -363 -254 -419 -75 -75 -124 -101 -328 -176 -231 -85 -296 -135 -343 -268 -37 -104 -75 -170 -124 -214 -111 -100 -241 -101 -423 -4 -56 29 -147 118 -147 144 0 25 -20 21 -111 -18 -368 -161 -866 -333 -1209 -419 -166 -41 -162 -40 -151 -54 21 -25 127 -65 270 -101 247 -62 254 -68 261 -249 5 -115 9 -138 34 -193 15 -33 41 -73 56 -88 l28 -27 126 45 c70 24 129 41 131 36 6 -8 -35 -41 -98 -79 -21 -12 -37 -24 -35 -26 2 -2 60 -11 129 -20 l125 -16 79 31 c99 40 194 94 398 227 88 57 175 106 193 110 27 5 55 -1 117 -26 65 -26 92 -31 133 -28 66 6 178 59 316 149 59 39 122 74 140 78 33 7 46 5 148 -24 68 -19 111 -19 225 0 118 19 168 37 229 84 79 60 216 189 312 292 82 89 244 295 244 311 0 21 -340 -141 -523 -249 -161 -96 -357 -188 -377 -176 -8 5 -24 28 -35 51 -11 23 -24 41 -28 42 -5 0 -84 -24 -175 -54 -364 -119 -478 -152 -648 -186 -118 -24 -114 -23 -114 -6 0 8 11 17 25 20 55 14 466 181 560 228 349 175 796 464 960 619 l69 66 -19 44 c-31 69 -27 230 7 327 57 158 167 291 272 331 113 42 204 25 282 -54 42 -42 57 -65 71 -114 10 -33 20 -61 23 -61 3 0 16 19 29 43 22 40 23 48 13 119 -7 53 -23 106 -55 175 -73 162 -92 226 -92 325 0 49 -2 88 -5 88 -3 -1 -53 -47 -111 -104z m-2966 -2266 c65 -76 72 -181 15 -208 -62 -30 -125 50 -116 148 9 87 55 115 101 60z" id="52"/>
<path d="M3502 2115 c-18 -40 -14 -74 13 -122 27 -45 53 -55 75 -28 29 35 -18 175 -59 175 -10 0 -23 -11 -29 -25z" id="53"/>
<path d="M1238 4139 c-188 -242 -317 -485 -375 -708 -21 -85 -24 -111 -20 -226 3 -100 9 -144 26 -190 29 -83 103 -188 170 -242 49 -40 56 -43 62 -27 45 126 78 164 144 164 41 0 129 -44 150 -76 l16 -25 37 41 c50 56 117 75 195 55 139 -36 197 -235 97 -335 -12 -12 -20 -24 -17 -26 9 -9 227 -16 301 -9 l78 7 -55 56 c-145 150 -315 391 -427 605 -150 288 -240 560 -293 881 l-23 140 -66 -85z" id="54"/>
<path d="M3676 4191 c-10 -11 -22 -37 -27 -58 -12 -52 -11 -214 1 -348 30 -312 73 -464 158 -557 37 -40 105 -39 155 1 113 90 207 297 207 459 0 126 -30 132 -128 23 -71 -78 -117 -109 -147 -97 -26 10 -42 62 -79 261 -38 204 -66 303 -93 323 -22 16 -27 15 -47 -7z m213 -808 c26 -22 41 -71 30 -101 -10 -25 -50 -47 -72 -39 -19 7 -63 65 -71 94 -16 50 67 83 113 46z" id="55"/>
<path d="M3811 3371 c-25 -16 -2 -83 30 -95 39 -13 59 -2 59 34 0 51 -50 85 -89 61z" id="56"/>
<path d="M7226 4149 c-155 -63 -381 -275 -467 -440 l-23 -44 -7 65 c-12 111 -70 205 -146 236 -44 19 -129 17 -189 -3 -63 -21 -157 -114 -206 -203 -74 -133 -107 -309 -74 -392 10 -24 24 -50 32 -59 12 -14 8 -22 -38 -71 -207 -218 -774 -563 -1258 -765 -96 -40 -168 -73 -160 -73 25 0 182 45 420 120 303 96 351 110 361 104 5 -3 13 -23 19 -45 6 -22 17 -42 25 -45 21 -9 183 69 365 174 91 53 211 117 267 144 329 155 649 247 670 192 3 -8 -6 -37 -21 -63 -28 -53 -35 -126 -13 -153 36 -48 198 -42 355 13 209 74 464 199 696 341 152 93 224 147 287 215 41 43 87 113 76 113 -3 0 -35 -21 -73 -46 -163 -109 -374 -188 -374 -140 0 8 24 39 54 69 44 44 58 66 75 122 45 143 22 237 -69 283 -105 53 -327 2 -387 -89 -14 -22 -32 -39 -39 -39 -20 0 -17 17 6 50 48 68 83 162 88 237 6 92 -10 144 -55 184 -29 25 -41 29 -91 28 -32 0 -78 -9 -106 -20z" id="57"/>
<path d="M5849 3843 c-337 -246 -843 -544 -1297 -765 l-223 -109 31 -44 c47 -69 127 -120 248 -160 160 -52 304 37 367 226 59 176 114 222 379 318 72 26 158 61 191 77 87 42 170 130 227 239 26 50 70 128 97 174 28 46 50 86 48 87 -2 2 -32 -17 -68 -43z" id="58"/>
<path d="M877 3614 c-102 -203 -147 -364 -147 -524 0 -188 49 -309 176 -437 l81 -83 71 0 71 0 -15 35 c-7 19 -14 47 -14 63 0 23 -9 36 -41 58 -163 113 -261 331 -245 546 8 108 43 245 90 358 20 46 34 86 31 88 -2 2 -28 -45 -58 -104z" id="59"/>
<path d="M1770 3005 c0 -27 198 -283 304 -393 l70 -73 56 6 c133 15 296 37 310 41 9 4 -11 15 -47 29 -60 21 -153 86 -153 106 0 21 -99 103 -164 136 -37 19 -129 58 -205 87 -75 29 -144 56 -153 61 -10 4 -18 4 -18 0z" id="60"/>
<path d="M2740 2439 c-19 -4 -116 -22 -214 -39 -99 -17 -182 -33 -185 -35 -5 -6 0 -11 134 -109 238 -175 508 -312 802 -406 69 -22 131 -40 137 -40 7 0 -2 29 -23 71 -34 69 -36 78 -41 203 -3 72 -9 137 -13 144 -16 24 -88 53 -209 83 -166 41 -220 62 -279 103 -52 38 -55 39 -109 25z" id="61"/>
<path d="M5235 2231 c-22 -10 -77 -43 -123 -75 -150 -102 -276 -153 -356 -144 -23 3 -72 18 -109 33 -47 18 -78 25 -99 21 -16 -3 -100 -52 -186 -108 -153 -100 -368 -218 -397 -218 -8 0 -15 -4 -15 -10 0 -13 287 -13 421 0 338 34 618 110 931 253 123 56 418 232 406 242 -2 1 -41 -4 -88 -12 -102 -17 -194 -12 -274 16 -71 25 -62 25 -111 2z" id="62"/>
<path d="M6113 2171 c-21 -15 -58 -50 -81 -77 -51 -58 -165 -284 -160 -315 2 -16 23 -33 68 -58 62 -34 71 -36 175 -39 105 -4 112 -3 165 25 l55 29 -3 45 c-4 62 -47 235 -71 289 -26 60 -78 130 -95 130 -7 0 -31 -13 -53 -29z m15 -122 c5 -40 -44 -220 -66 -241 -12 -12 -39 -21 -76 -25 l-57 -6 6 29 c11 50 82 187 121 232 40 47 67 51 72 11z" id="63"/>
<path d="M6053 1993 c-41 -58 -107 -182 -101 -188 2 -2 24 1 50 6 52 11 51 11 83 139 9 36 18 73 21 83 10 34 -14 16 -53 -40z" id="64"/>
<path d="M1880 1905 c-136 -38 -277 -134 -396 -273 -38 -44 -72 -81 -75 -81 -4 -1 -18 16 -31 37 -64 94 -157 161 -227 162 -115 1 -248 -155 -286 -335 -18 -88 -19 -230 -1 -315 12 -55 12 -69 0 -92 -16 -32 -158 -147 -247 -200 -34 -21 -57 -38 -52 -38 6 0 62 9 125 20 150 26 204 26 230 0 38 -38 21 -85 -79 -214 -34 -43 -59 -81 -57 -84 8 -8 166 48 421 150 310 124 414 172 1345 623 167 81 406 194 530 252 309 143 575 283 553 290 -6 2 -64 -17 -129 -42 -282 -110 -795 -234 -818 -197 -3 5 4 31 15 57 27 60 19 92 -26 111 -94 39 -286 -19 -358 -108 -16 -21 -34 -35 -38 -32 -5 3 -9 35 -9 72 -1 106 -43 182 -125 225 -52 27 -187 33 -265 12z" id="65"/>
<path d="M4753 1763 c-35 -8 -63 -18 -63 -22 0 -4 54 -88 121 -186 221 -329 449 -617 528 -667 120 -77 267 -129 357 -127 l49 1 -34 14 c-139 61 -337 255 -544 535 -90 121 -307 447 -307 461 0 11 -34 8 -107 -9z" id="66"/>
<path d="M5850 1727 c0 -82 219 -152 351 -113 53 15 146 72 136 82 -3 3 -25 -5 -49 -18 -38 -20 -57 -23 -158 -23 -124 0 -173 14 -247 71 l-33 25 0 -24z" id="67"/>
<path d="M5820 1641 c-37 -138 -46 -341 -21 -489 16 -98 36 -123 138 -174 57 -28 70 -30 131 -26 73 5 160 39 199 77 12 11 27 38 32 59 24 90 51 325 51 444 l0 128 -45 -29 c-67 -42 -122 -54 -224 -49 -95 6 -183 37 -218 77 -25 29 -31 27 -43 -18z m365 -144 c68 -68 72 -191 8 -275 -51 -68 -123 -89 -198 -58 -82 35 -101 202 -32 299 31 46 75 67 136 67 47 0 57 -4 86 -33z" id="68"/>
<path d="M6020 1488 c-45 -31 -54 -56 -12 -34 76 39 154 2 189 -89 l11 -30 1 43 c1 24 -6 56 -14 72 -31 60 -116 78 -175 38z" id="69"/>
<path d="M5989 1417 c-40 -27 -55 -73 -45 -141 8 -54 34 -82 88 -96 48 -13 81 -5 118 30 26 24 30 35 30 79 0 57 -28 124 -59 141 -34 18 -96 12 -132 -13z" id="70"/>
<path d="M5732 1270 c-12 -19 -32 -65 -43 -103 -25 -79 -17 -97 40 -97 56 0 64 9 51 61 -6 24 -14 73 -18 109 l-8 65 -22 -35z" id="71"/>
<path d="M6346 1190 c-19 -119 -14 -140 39 -140 46 0 69 24 62 67 -7 38 -66 173 -77 173 -4 0 -14 -45 -24 -100z" id="72"/>
<path d="M5999 893 c-18 -49 -58 -99 -97 -121 -60 -34 -160 -47 -251 -32 -78 12 -188 49 -229 76 -48 31 -31 5 35 -55 198 -182 380 -245 496 -172 68 44 126 157 151 294 l7 37 -51 0 c-46 0 -51 -2 -61 -27z" id="73"/>
<path d="M1120 7914 c-211 -32 -351 -129 -439 -304 -54 -107 -53 -123 4 -71 65 60 230 165 337 215 84 39 238 95 310 112 16 3 26 10 23 14 -9 15 -186 41 -235 34z" id="74"/>
<path d="M1415 7854 c-80 -14 -261 -67 -280 -81 -6 -5 -22 -27 -37 -49 -36 -57 -102 -89 -163 -80 -27 5 -53 3 -67 -5 -37 -19 -158 -111 -219 -167 -55 -50 -56 -53 -52 -95 9 -76 -38 -144 -103 -149 -18 -2 -33 -13 -44 -31 -25 -41 -44 -140 -37 -197 6 -50 52 -150 69 -150 4 0 8 27 8 61 0 79 15 137 60 234 107 230 359 438 648 535 268 89 556 77 725 -30 57 -36 61 -37 47 -9 -7 11 -10 44 -8 72 l3 52 -55 33 c-72 43 -96 48 -130 28 -66 -39 -179 -27 -225 24 -21 23 -32 23 -140 4z" id="75"/>
<path d="M1588 7851 c12 -11 40 -22 61 -26 40 -7 121 9 121 24 0 12 -63 21 -140 21 -65 -1 -65 -1 -42 -19z" id="76"/>
<path d="M985 7707 c-65 -33 -75 -42 -56 -45 57 -9 127 23 151 69 16 29 -4 24 -95 -24z" id="77"/>
<path d="M1980 7701 c0 -44 40 -131 60 -131 26 0 -3 103 -44 155 -15 19 -15 18 -16 -24z" id="78"/>
<path d="M1365 7705 c-281 -51 -563 -222 -722 -439 -93 -126 -133 -237 -133 -368 l0 -78 47 -30 c26 -17 51 -30 56 -30 6 0 7 37 3 95 -6 83 -4 100 13 133 51 101 193 177 279 151 37 -11 39 -14 69 -103 28 -80 31 -86 32 -53 1 42 20 84 61 137 l27 35 -29 110 c-47 176 -47 166 5 222 51 55 108 87 185 104 68 16 109 4 142 -42 156 -221 149 -213 195 -226 26 -8 54 -26 70 -45 24 -28 27 -38 22 -79 -5 -43 -3 -52 30 -94 31 -41 37 -45 50 -33 12 13 9 30 -22 134 -21 65 -39 131 -42 147 -12 65 105 167 192 167 35 0 47 -6 85 -45 24 -25 47 -42 51 -37 4 4 10 22 14 39 6 30 2 37 -47 86 -64 64 -174 121 -273 142 -85 18 -264 18 -360 0z" id="79"/>
<path d="M1239 7567 c-98 -28 -179 -94 -179 -146 0 -51 20 -64 86 -59 72 6 145 39 196 90 82 82 21 149 -103 115z" id="80"/>
<path d="M1386 7472 c-34 -66 -158 -132 -248 -132 -46 0 -58 -3 -58 -15 0 -16 31 -147 36 -153 1 -2 22 12 46 30 79 60 253 128 330 128 15 0 28 2 28 5 0 5 -96 143 -110 159 -5 4 -15 -5 -24 -22z" id="81"/>
<path d="M1835 7481 c-22 -10 -55 -33 -73 -52 -27 -27 -32 -40 -30 -69 3 -35 4 -35 48 -35 57 1 130 48 154 100 17 35 17 38 0 56 -21 24 -48 24 -99 0z" id="82"/>
<path d="M1960 7424 c-25 -64 -110 -124 -177 -124 -24 0 -43 -3 -43 -7 1 -16 50 -176 56 -182 13 -12 153 152 189 221 l37 70 -25 26 -26 26 -11 -30z" id="83"/>
<path d="M544 7356 c-39 -47 -70 -103 -62 -111 12 -12 68 26 83 56 9 17 15 45 13 62 l-3 32 -31 -39z" id="84"/>
<path d="M1402 7290 c-85 -22 -218 -89 -255 -128 l-26 -27 27 -110 c15 -60 31 -115 34 -121 8 -12 83 -4 147 17 108 35 242 122 291 191 29 39 29 41 13 72 -9 17 -34 52 -55 79 -46 55 -61 57 -176 27z" id="85"/>
<path d="M1586 7288 c42 -65 68 -98 76 -90 12 12 0 57 -20 75 -10 8 -28 18 -41 22 -18 5 -21 4 -15 -7z" id="86"/>
<path d="M830 7116 c-57 -15 -104 -43 -152 -93 -50 -52 -63 -88 -43 -119 32 -49 142 -23 225 53 47 41 81 104 73 133 -8 28 -51 39 -103 26z" id="87"/>
<path d="M1595 7056 c-84 -86 -198 -147 -320 -173 -44 -9 -82 -18 -84 -20 -7 -5 20 -83 29 -83 21 0 162 56 245 97 91 46 242 141 263 166 9 10 4 22 -19 50 -17 20 -34 36 -37 36 -4 -1 -39 -34 -77 -73z" id="88"/>
<path d="M1068 7082 c-65 -92 -44 -159 57 -182 19 -4 35 -5 35 -1 1 15 -55 221 -60 221 -3 0 -17 -18 -32 -38z" id="89"/>
<path d="M1774 7047 c-5 -15 33 -83 42 -74 5 5 -16 69 -27 81 -5 6 -11 3 -15 -7z" id="90"/>
<path d="M938 7014 c-51 -96 -224 -188 -288 -154 -22 12 -23 12 -18 -45 3 -33 11 -60 19 -65 31 -20 158 -32 266 -27 62 3 116 8 122 11 5 4 -6 54 -26 119 -20 61 -41 130 -47 152 l-12 40 -16 -31z" id="91"/>
<path d="M1010 6936 c0 -13 52 -180 59 -188 6 -7 117 14 126 24 2 2 -2 24 -9 48 -12 42 -16 45 -62 55 -59 14 -90 29 -103 53 -6 9 -11 13 -11 8z" id="92"/>
<path d="M7735 6768 c3 -29 7 -96 8 -148 2 -85 0 -98 -21 -127 -16 -22 -19 -33 -10 -33 29 0 117 -51 178 -104 36 -31 68 -56 71 -56 3 0 5 53 5 118 -1 113 0 118 27 153 15 20 27 39 27 42 0 4 -15 7 -33 7 -18 0 -56 12 -85 26 -41 20 -64 42 -105 99 -28 41 -56 74 -60 74 -5 1 -6 -23 -2 -51z" id="93"/>
<path d="M6628 2608 c16 -102 7 -171 -30 -237 -10 -18 -17 -35 -15 -37 2 -2 24 -8 49 -12 63 -12 107 -42 169 -113 28 -33 53 -58 56 -56 2 3 -2 42 -8 88 -15 106 -7 150 37 198 19 21 34 41 34 44 0 2 -29 7 -65 9 -82 5 -105 21 -172 124 -29 43 -56 80 -61 82 -5 1 -2 -39 6 -90z" id="94"/>
<path d="M330 2272 c0 -7 10 -55 22 -107 l21 -94 -21 -63 c-11 -35 -24 -71 -27 -80 -6 -14 -2 -18 18 -18 15 0 49 -5 78 -11 45 -10 63 -22 137 -93 47 -45 82 -72 79 -61 -20 66 -37 157 -37 202 0 46 4 58 35 92 19 21 35 41 35 45 0 3 -26 6 -57 7 -113 1 -132 8 -187 74 -28 33 -61 74 -73 90 -12 17 -23 24 -23 17z" id="95"/>
<path d="M7065 1620 c-95 -20 -187 -85 -226 -162 -76 -148 -60 -419 36 -608 33 -64 95 -131 164 -176 82 -53 98 -94 66 -171 -8 -19 -15 -39 -15 -43 0 -17 291 147 450 253 170 114 488 362 477 373 -2 3 -40 -11 -83 -30 -153 -67 -161 -62 -115 69 58 164 38 255 -71 309 -71 36 -127 34 -197 -4 -30 -17 -56 -30 -57 -30 -2 0 -15 24 -30 53 -49 97 -104 137 -223 163 -73 15 -115 16 -176 4z" id="96"/>
<path d="M3620 1040 c0 -38 31 -214 40 -225 5 -6 12 -33 15 -60 5 -42 2 -58 -19 -100 -14 -27 -26 -53 -26 -57 0 -5 18 -8 39 -8 59 0 82 -12 157 -82 54 -51 66 -58 61 -38 -4 14 -10 68 -14 120 -6 104 6 148 47 170 27 14 25 30 -2 30 -72 0 -95 18 -198 146 -67 84 -100 118 -100 104z" id="97"/>
</g>
</svg>