<?xml version="1.0" ?><!DOCTYPE svg  PUBLIC '-//W3C//DTD SVG 20010904//EN'  'http://www.w3.org/TR/2001/REC-SVG-20010904/DTD/svg10.dtd'><svg height="850.000000pt" preserveAspectRatio="xMidYMid meet" version="1.0" viewBox="0 0 850.000000 850.000000" width="850.000000pt" xmlns="http://www.w3.org/2000/svg">
<metadata>
Created by potrace 1.14, written by Peter Selinger 2001-2017
</metadata>
<g fill="#ffffff" stroke="none" transform="translate(0.000000,850.000000) scale(0.100000,-0.100000)">
<path d="M0 4250 l0 -4250 4250 0 4250 0 0 4250 0 4250 -4250 0 -4250 0 0 -4250z m2981 4104 c142 -42 276 -140 395 -291 85 -107 154 -183 166 -183 4 0 8 6 8 13 0 27 50 62 89 62 45 0 69 -17 88 -63 13 -32 15 -33 61 -29 26 3 94 19 152 37 99 31 113 33 256 32 l150 0 10 32 c6 22 20 37 47 50 36 17 41 17 80 2 27 -10 43 -13 45 -6 5 15 57 40 82 40 35 0 79 -29 86 -56 5 -19 11 -23 23 -18 9 4 32 9 51 11 43 6 86 -24 94 -65 l7 -27 282 -1 c194 -1 312 -6 379 -16 53 -8 103 -11 110 -7 7 5 30 9 51 9 30 0 44 6 63 29 31 37 73 47 113 27 16 -9 34 -23 38 -31 7 -13 18 -14 58 -6 70 14 341 93 460 135 122 44 172 46 214 10 26 -22 31 -33 31 -71 0 -68 -65 -207 -208 -443 -144 -237 -225 -398 -246 -490 -9 -37 -16 -112 -16 -176 l0 -112 50 -95 c87 -166 203 -507 230 -680 16 -100 8 -239 -21 -337 -18 -64 -20 -87 -14 -165 16 -186 4 -240 -59 -272 -17 -9 -34 -21 -38 -27 -15 -21 -8 -113 17 -231 15 -69 28 -175 32 -248 l6 -129 61 7 c34 4 103 18 155 31 52 13 96 22 98 20 6 -6 -148 -45 -238 -61 -45 -8 -83 -16 -83 -17 -1 -2 -12 -39 -25 -83 -12 -44 -65 -168 -116 -275 -52 -107 -99 -216 -105 -241 -17 -68 1 -149 42 -199 18 -21 33 -38 34 -37 1 1 11 38 23 82 55 201 154 345 370 534 154 135 199 183 268 286 128 191 168 343 161 612 -4 167 -8 181 -59 240 -90 104 -31 290 123 393 l67 44 -42 21 c-78 40 -137 148 -137 252 0 24 10 81 22 126 19 68 23 108 23 237 0 146 -3 164 -38 305 -20 83 -52 193 -69 245 -33 97 -43 209 -26 271 7 22 3 28 -27 42 -42 20 -109 103 -144 177 -34 73 -35 182 -4 252 26 56 100 130 162 160 39 20 62 23 152 23 101 0 108 -1 181 -38 94 -46 198 -152 246 -250 92 -185 97 -416 16 -656 -54 -158 -162 -363 -279 -526 -30 -42 -55 -78 -55 -80 0 -2 15 1 32 6 85 24 197 -4 267 -67 149 -134 123 -371 -49 -457 l-49 -25 47 -12 c155 -39 304 -191 347 -355 21 -80 19 -168 -6 -288 -27 -137 -68 -237 -138 -343 -144 -216 -273 -320 -811 -651 -153 -95 -295 -199 -347 -254 l-22 -24 72 -1 c86 -1 130 -18 190 -73 83 -77 114 -192 79 -296 -11 -33 -20 -61 -19 -62 1 0 29 6 62 14 48 12 69 13 110 4 74 -17 151 -65 188 -118 l32 -45 3 34 c20 254 115 592 214 766 142 247 364 392 603 394 140 1 244 -42 337 -139 77 -79 108 -218 73 -324 -25 -75 -109 -158 -190 -188 -71 -27 -192 -39 -223 -22 -19 10 -23 7 -38 -25 -27 -56 -103 -124 -200 -178 -107 -60 -285 -179 -373 -250 -68 -55 -167 -178 -208 -260 -14 -28 -41 -72 -60 -98 l-35 -48 54 0 c125 0 236 -68 275 -168 25 -65 23 -173 -4 -232 -40 -90 -139 -158 -244 -167 l-57 -6 76 -61 c204 -163 414 -408 496 -579 171 -352 87 -726 -192 -864 -70 -35 -83 -38 -162 -38 -76 0 -92 3 -152 33 -78 38 -120 84 -149 162 -40 106 -10 269 65 356 l33 38 -26 56 c-26 55 -26 58 -32 375 -8 362 -14 403 -90 563 -45 95 -45 95 -68 -3 -30 -127 -122 -258 -208 -297 -56 -25 -182 -26 -241 -2 -76 30 -162 158 -162 239 0 31 -23 33 -44 3 -28 -40 -20 -99 26 -187 33 -64 43 -94 46 -145 4 -55 1 -67 -17 -85 -29 -29 -69 -27 -158 9 -81 32 -112 37 -131 18 -17 -17 -15 -43 13 -131 32 -100 32 -141 0 -172 -51 -52 -133 -24 -254 89 -98 91 -92 92 -89 -11 3 -82 1 -93 -24 -130 -35 -53 -98 -83 -177 -83 -33 0 -82 -5 -109 -11 -37 -9 -58 -9 -82 0 -18 6 -34 10 -36 9 -1 -2 -14 -106 -28 -233 -31 -269 -39 -314 -72 -416 -50 -153 -122 -222 -209 -198 -37 11 -132 96 -182 164 l-22 30 6 -56 c3 -31 0 -102 -6 -158 -36 -307 -162 -546 -331 -629 -48 -24 -67 -27 -150 -27 -81 0 -103 4 -150 26 -147 69 -277 257 -365 524 -55 167 -54 166 -81 99 -73 -180 -179 -203 -306 -66 -110 118 -257 404 -363 707 -37 105 -70 194 -75 198 -4 4 -15 -4 -24 -18 -35 -54 -140 -72 -206 -36 -67 35 -82 88 -67 229 7 63 6 73 -9 79 -13 5 -33 -11 -78 -60 -54 -59 -67 -68 -113 -78 -142 -29 -293 71 -279 185 9 77 63 123 162 138 96 14 134 29 157 60 28 38 12 73 -40 87 -43 12 -84 4 -165 -34 -102 -48 -178 -25 -193 58 -14 74 30 145 121 197 65 38 81 61 56 83 -18 16 -149 40 -165 30 -14 -8 -72 -141 -96 -217 -29 -95 -41 -240 -41 -496 1 -233 -6 -287 -45 -346 -16 -24 -15 -26 9 -45 14 -11 40 -50 58 -87 25 -54 33 -83 36 -148 6 -112 -15 -172 -82 -240 -72 -71 -143 -97 -251 -91 -106 5 -176 37 -260 118 -110 105 -165 248 -165 430 0 261 128 498 424 787 63 62 110 114 103 116 -7 2 -32 9 -55 16 -116 31 -232 235 -232 403 0 65 27 165 64 237 l33 66 -44 29 c-49 33 -97 94 -136 171 -47 94 -144 211 -230 278 -93 71 -245 173 -357 237 -87 49 -171 125 -195 175 -14 30 -18 33 -37 23 -28 -15 -146 -5 -209 17 -99 36 -184 122 -210 212 -16 56 -6 157 22 221 25 59 114 147 180 179 205 99 470 37 665 -153 175 -171 292 -448 348 -825 9 -58 17 -120 18 -138 l3 -32 35 47 c52 69 145 118 227 118 35 0 62 2 60 5 -2 3 -16 32 -32 65 -53 110 -35 230 49 323 55 61 115 85 208 85 69 0 76 1 68 16 -18 34 -158 158 -265 235 -462 334 -591 438 -694 562 -165 199 -238 372 -256 614 -9 108 5 185 49 275 36 73 118 166 184 210 46 30 145 65 186 65 30 0 29 1 -22 30 -56 33 -104 90 -123 147 -17 52 -7 160 19 214 27 55 80 111 131 136 40 20 194 26 241 9 24 -8 24 -8 8 10 -25 30 -142 243 -186 341 -96 215 -135 372 -135 543 1 218 57 365 193 501 111 112 221 157 359 147 84 -6 147 -34 210 -93 138 -129 128 -329 -24 -479 -32 -31 -67 -59 -79 -62 -19 -5 -21 -12 -22 -97 0 -76 -5 -104 -28 -162 -59 -149 -107 -291 -138 -403 -29 -107 -32 -129 -30 -252 0 -74 6 -151 12 -170 17 -57 12 -163 -10 -222 -24 -64 -89 -132 -144 -151 l-39 -13 45 -27 c119 -70 199 -232 169 -343 -6 -22 -31 -63 -55 -92 -61 -72 -71 -120 -71 -357 1 -182 2 -194 29 -275 62 -185 137 -302 310 -480 73 -75 151 -160 174 -189 123 -155 202 -363 202 -533 1 -66 2 -71 15 -54 8 11 15 30 15 42 0 74 23 127 80 189 32 35 69 86 81 114 13 31 40 68 67 92 l46 40 -28 26 c-61 56 -126 250 -126 375 0 37 -2 68 -5 68 -12 0 -133 -59 -175 -84 -25 -16 -38 -21 -30 -13 8 9 58 38 110 66 l95 50 21 88 c12 48 20 90 19 92 -2 2 -77 7 -167 12 -231 13 -236 18 -12 12 l191 -6 19 54 c18 54 24 185 9 209 -5 8 -25 10 -59 6 l-51 -5 50 11 c28 6 51 12 53 13 1 1 -12 41 -30 89 -23 62 -37 86 -50 86 -9 0 -70 -7 -134 -15 -64 -9 -118 -14 -121 -12 -5 5 196 37 231 37 32 0 32 2 2 92 -35 106 -50 224 -42 342 11 170 20 202 225 795 105 301 148 452 167 576 17 112 14 166 -32 640 -29 291 -28 358 8 436 64 140 202 199 359 153z m-2067 -2040 c24 -9 21 -61 -4 -69 -41 -13 -69 43 -32 64 21 13 17 12 36 5z m42 -132 c42 -28 33 -107 -13 -118 -41 -11 -76 7 -87 43 -13 46 13 83 57 83 17 0 37 -4 43 -8z m689 -37 c0 -25 -4 -30 -24 -30 -28 0 -47 25 -38 49 5 12 16 16 34 14 24 -3 28 -8 28 -33z m6004 -85 c42 -22 31 -80 -15 -80 -36 0 -54 43 -29 70 21 23 21 23 44 10z m-6125 -25 c7 -20 -18 -49 -38 -42 -25 10 -32 38 -12 53 20 14 42 9 50 -11z m114 -14 c5 -32 -23 -54 -49 -40 -11 5 -19 18 -19 27 0 45 62 56 68 13z m335 -1158 c-13 -2 -33 -2 -45 0 -13 2 -3 4 22 4 25 0 35 -2 23 -4z m4797 -18 c14 -17 5 -51 -15 -59 -35 -13 -63 21 -45 55 13 23 43 25 60 4z m-132 -69 c2 -10 -1 -23 -7 -29 -15 -15 -46 16 -37 38 8 21 40 15 44 -9z m-5329 -454 c7 -13 6 -23 -1 -30 -28 -28 -63 3 -38 33 16 20 27 19 39 -3z m251 -122 c11 -11 20 -27 20 -35 0 -8 -9 -24 -20 -35 -11 -11 -27 -20 -35 -20 -8 0 -24 9 -35 20 -11 11 -20 27 -20 35 0 8 9 24 20 35 11 11 27 20 35 20 8 0 24 -9 35 -20z m-112 -132 c30 -30 -11 -85 -44 -57 -14 12 -19 51 -7 62 10 11 38 8 51 -5z m126 -71 c30 -44 -4 -87 -59 -73 -49 12 -32 96 20 96 14 0 31 -9 39 -23z m-736 -625 c3 -16 -2 -22 -17 -22 -24 0 -35 15 -27 36 9 23 40 13 44 -14z m290 -161 c19 -11 11 -45 -11 -49 -19 -4 -32 20 -23 43 6 17 15 19 34 6z m6765 -903 c8 -12 7 -21 -2 -32 -19 -22 -48 -20 -61 5 -23 41 38 68 63 27z m-1449 -181 c36 -27 14 -97 -31 -97 -18 0 -53 37 -53 55 0 18 35 55 53 55 7 0 21 -6 31 -13z m335 -73 c38 -49 23 -112 -32 -133 -52 -20 -106 18 -107 75 0 49 34 84 80 84 30 0 43 -6 59 -26z m-598 -64 c35 -19 16 -100 -24 -100 -23 0 -57 31 -57 52 0 25 27 58 47 58 8 0 23 -5 34 -10z m285 -55 c-3 -9 -14 -15 -23 -13 -22 4 -30 38 -11 49 18 11 43 -15 34 -36z m-144 -22 c22 -20 23 -51 1 -75 -31 -34 -83 -12 -83 37 0 48 47 70 82 38z m-168 -129 c22 -8 20 -51 -2 -63 -37 -20 -70 27 -40 57 14 14 20 14 42 6z m-163 -280 c9 -11 10 -20 2 -32 -15 -24 -44 -27 -59 -7 -28 38 27 75 57 39z m420 -4 c22 -12 27 -68 7 -88 -27 -27 -88 0 -88 40 0 20 33 58 51 58 6 0 19 -5 30 -10z" id="1"/>
<path d="M2832 8301 c-55 -14 -106 -55 -135 -110 -34 -62 -37 -127 -13 -351 8 -80 23 -246 31 -369 21 -287 12 -364 -75 -633 -15 -49 -25 -88 -21 -88 5 0 40 23 80 51 121 85 197 211 208 347 5 58 5 62 -16 62 -13 0 -26 10 -33 25 -9 21 -8 28 7 45 20 23 45 26 63 8 15 -15 16 -54 2 -63 -5 -3 -10 -27 -10 -53 0 -141 -84 -287 -215 -378 -55 -37 -70 -62 -18 -29 63 41 311 246 329 272 30 46 25 195 -10 299 -36 105 -85 188 -114 192 -19 3 -22 -1 -22 -28 l0 -32 -45 53 c-54 64 -75 120 -82 225 -8 117 13 181 81 249 62 63 120 94 186 102 66 8 143 -29 224 -107 138 -132 186 -310 137 -502 -38 -148 -106 -251 -276 -418 -87 -85 -113 -118 -141 -176 -41 -87 -131 -175 -285 -282 -58 -40 -115 -83 -127 -95 -12 -13 -46 -89 -77 -170 l-54 -148 19 -52 c31 -82 157 -226 174 -199 3 5 0 52 -6 105 -13 108 -2 228 25 287 9 19 21 57 27 85 6 27 20 64 31 82 26 42 119 126 177 160 65 38 192 73 267 73 67 0 180 -30 231 -61 17 -10 33 -19 36 -19 2 0 4 31 4 68 0 41 7 87 18 115 22 58 83 113 140 129 l45 12 -20 27 c-10 15 -27 56 -36 92 -14 54 -15 71 -4 106 33 113 141 48 141 -85 0 -35 7 -56 26 -81 26 -34 26 -63 1 -63 -7 0 -18 5 -25 12 -9 9 -12 9 -12 0 0 -6 16 -18 36 -27 19 -8 48 -24 64 -35 24 -17 29 -18 34 -5 3 8 12 15 21 15 22 0 31 -31 13 -44 -14 -10 -13 -15 7 -40 l22 -28 -4 49 c-8 79 14 162 52 200 39 39 58 41 90 9 45 -45 82 -243 64 -341 -13 -71 -37 -99 -86 -103 l-40 -3 8 -42 c4 -23 8 -83 9 -134 l0 -92 46 16 c37 13 53 13 85 4 48 -14 91 -51 112 -92 l15 -32 21 34 c12 19 59 108 105 199 l84 165 -22 28 c-15 20 -21 42 -20 73 1 40 -1 44 -24 44 -37 0 -92 60 -92 102 0 33 -1 34 -34 30 -89 -10 -156 98 -103 166 8 10 3 20 -20 38 -42 33 -51 74 -24 120 17 28 18 36 7 40 -22 8 -46 67 -39 93 5 21 4 22 -15 12 -49 -26 -114 0 -131 52 -7 19 -9 40 -6 48 4 10 -4 14 -31 15 -51 1 -98 52 -91 98 5 30 4 31 -35 32 -48 0 -88 38 -88 83 0 24 -5 30 -32 35 -20 4 -51 26 -86 62 -30 30 -56 53 -59 51 -7 -8 107 -192 160 -256 42 -52 106 -107 183 -158 11 -8 2 -6 -21 2 -118 46 -231 179 -346 406 -52 103 -230 288 -332 344 -124 68 -222 93 -295 76z m1016 -1305 c-2 -13 -10 -21 -23 -21 -23 0 -33 34 -14 45 20 13 40 -1 37 -24z" id="2"/>
<path d="M1530 8105 c-80 -23 -154 -71 -224 -146 -113 -123 -166 -270 -166 -466 0 -167 31 -300 117 -502 45 -106 191 -376 199 -368 2 2 -7 51 -21 108 -13 57 -31 142 -40 189 -8 47 -26 139 -40 205 -45 219 -30 362 53 491 74 114 180 184 277 184 114 -1 169 -112 110 -224 -13 -25 -21 -46 -16 -46 5 0 32 23 61 52 142 139 151 330 23 448 -24 23 -66 51 -91 63 -61 26 -169 32 -242 12z" id="3"/>
<path d="M2969 8066 c-79 -28 -148 -87 -185 -158 -38 -73 -25 -245 24 -328 l26 -45 8 53 c10 69 31 108 71 132 40 25 70 25 123 1 50 -23 91 -73 111 -138 28 -92 15 -286 -28 -412 -11 -30 -17 -56 -15 -58 7 -8 132 137 165 191 144 238 130 483 -37 658 -58 61 -156 118 -201 118 -14 -1 -42 -7 -62 -14z" id="4"/>
<path d="M4575 8018 c-62 -35 -38 -118 35 -118 38 0 70 27 70 58 0 33 -8 45 -37 61 -27 14 -42 14 -68 -1z" id="5"/>
<path d="M4390 7980 c-41 -41 -16 -100 43 -100 66 0 102 63 61 104 -22 23 -80 20 -104 -4z" id="6"/>
<path d="M6529 7990 c-64 -11 -241 -81 -428 -168 -168 -79 -190 -92 -265 -162 -97 -90 -171 -144 -329 -239 -113 -69 -269 -151 -284 -151 -4 0 37 26 92 58 114 66 372 234 427 279 21 17 66 56 99 88 l62 57 -57 -7 c-44 -6 -63 -14 -87 -37 -24 -25 -36 -29 -68 -26 -36 3 -38 2 -38 -26 0 -37 -52 -86 -91 -86 -25 0 -30 -5 -38 -37 -12 -51 -68 -83 -114 -66 -27 10 -30 9 -30 -9 0 -11 -14 -33 -30 -50 -26 -25 -37 -29 -70 -26 -34 3 -40 1 -40 -15 0 -10 -14 -32 -30 -49 -27 -27 -36 -30 -75 -26 -41 5 -44 3 -56 -24 -6 -16 -21 -35 -33 -43 -23 -17 -92 -20 -101 -5 -11 17 -23 11 -37 -17 -7 -16 -27 -35 -44 -43 -30 -15 -30 -16 -16 -50 30 -74 -29 -155 -109 -148 -33 3 -36 1 -36 -24 0 -61 -49 -108 -112 -108 -29 0 -30 0 -15 -27 25 -49 14 -89 -34 -130 -25 -21 -25 -23 -14 -73 13 -55 119 -339 132 -353 4 -5 27 12 51 39 109 118 235 111 286 -16 17 -41 22 -48 23 -29 0 43 38 140 89 229 l49 85 -23 25 c-13 14 -34 48 -47 75 -20 44 -23 65 -23 180 0 112 3 136 22 177 22 48 48 64 90 56 33 -6 62 -85 69 -186 6 -75 9 -90 20 -81 17 14 44 5 44 -14 0 -8 -6 -20 -14 -26 -11 -9 -18 -8 -30 4 -15 15 -16 13 -16 -28 0 -25 -3 -53 -7 -63 -4 -10 16 1 48 26 30 24 88 59 129 79 68 32 83 36 162 36 101 0 130 -15 163 -83 14 -29 24 -40 35 -35 22 9 89 30 128 40 l32 8 -54 42 c-100 77 -177 227 -198 387 -26 192 71 395 221 464 99 45 248 39 310 -14 98 -82 34 -304 -87 -304 -53 0 -101 -40 -133 -112 -21 -46 -24 -68 -23 -173 0 -100 3 -129 22 -177 14 -33 34 -63 49 -73 25 -17 26 -17 18 1 -22 53 -36 143 -30 192 4 33 3 52 -4 52 -6 0 -15 9 -21 20 -16 30 4 60 40 60 40 0 58 -32 35 -66 -8 -13 -20 -24 -25 -24 -18 0 -11 -144 10 -211 16 -52 27 -68 55 -86 19 -13 37 -23 39 -23 3 0 -5 26 -16 58 -16 42 -21 80 -21 147 -1 169 54 305 243 615 117 191 216 382 226 436 7 36 -8 44 -67 34z m-1016 -868 c37 -41 33 -195 -7 -254 -32 -48 -57 -47 -84 0 -37 66 -24 195 24 247 27 30 45 32 67 7z m112 -257 c0 -23 -34 -33 -45 -14 -13 20 1 40 24 37 13 -2 21 -10 21 -23z m-225 -26 c13 -23 -1 -49 -26 -49 -24 0 -36 37 -18 54 21 21 31 20 44 -5z m348 -2 c4 -20 -25 -34 -40 -19 -15 15 -1 44 19 40 10 -2 19 -11 21 -21z" id="7"/>
<path d="M5450 7088 c-26 -43 -34 -87 -27 -159 8 -93 45 -119 73 -53 34 82 26 244 -12 244 -8 0 -23 -15 -34 -32z" id="8"/>
<path d="M6936 7985 c-22 -8 -63 -33 -92 -55 -141 -106 -143 -305 -6 -460 44 -49 63 -50 38 -1 -23 43 -20 119 4 159 30 49 81 68 149 54 135 -28 248 -161 291 -341 17 -72 8 -193 -24 -311 -14 -52 -43 -160 -64 -240 -21 -80 -49 -176 -61 -213 -13 -38 -21 -71 -17 -74 10 -10 167 241 232 372 104 209 144 356 144 528 0 246 -119 461 -307 554 -66 33 -85 37 -161 40 -59 2 -100 -2 -126 -12z" id="9"/>
<path d="M4726 7949 c-53 -42 -21 -119 49 -119 29 0 39 6 55 33 26 42 25 53 -5 82 -30 30 -64 32 -99 4z" id="10"/>
<path d="M3610 7927 c-38 -19 -52 -54 -34 -89 28 -55 72 -62 115 -18 23 23 29 35 24 52 -15 50 -64 76 -105 55z" id="11"/>
<path d="M5786 7909 c-33 -26 -34 -67 -1 -103 29 -31 53 -33 89 -5 19 15 26 30 26 54 0 36 -36 75 -70 75 -10 0 -29 -9 -44 -21z" id="12"/>
<path d="M4242 7887 c-12 -13 -22 -33 -22 -46 0 -30 43 -71 75 -71 49 0 92 69 67 106 -25 38 -90 44 -120 11z" id="13"/>
<path d="M4120 7863 c-36 -1 -119 -10 -186 -20 l-121 -17 20 -33 c12 -22 17 -44 14 -61 -5 -26 -4 -27 35 -28 51 0 88 -38 88 -89 0 -25 4 -33 13 -29 8 3 26 0 41 -6 25 -9 31 -7 56 20 15 16 33 30 39 30 8 0 9 6 1 19 -21 40 -12 87 21 115 17 14 40 26 51 26 16 0 19 5 14 23 -3 12 -6 30 -6 40 0 9 -3 16 -7 15 -5 -1 -37 -3 -73 -5z" id="14"/>
<path d="M4452 7834 c-88 -44 -146 -130 -183 -272 -23 -92 -25 -237 -4 -318 17 -67 68 -156 108 -190 22 -18 40 -24 79 -24 70 0 128 32 193 105 102 117 148 257 139 429 -6 114 -22 173 -59 222 -59 77 -175 97 -273 48z" id="15"/>
<path d="M4856 7851 c-3 -5 10 -12 29 -15 39 -8 75 -47 75 -82 0 -28 -20 -74 -32 -74 -5 0 4 -14 21 -31 41 -41 42 -89 3 -129 l-28 -28 23 -26 c13 -15 23 -38 23 -52 0 -19 5 -24 24 -24 13 0 31 -3 40 -6 11 -4 16 -1 16 10 0 9 13 30 28 47 23 26 35 31 68 31 37 -1 42 2 52 32 16 45 66 69 113 56 23 -7 27 -4 38 26 13 35 53 64 90 64 15 0 23 9 29 32 10 41 53 72 97 71 28 -1 35 3 35 17 0 10 2 24 5 32 4 10 -18 13 -107 13 -67 0 -170 9 -253 23 -143 22 -379 31 -389 13z" id="16"/>
<path d="M5988 7853 c-38 -2 -68 -8 -68 -13 0 -4 -3 -15 -6 -24 -9 -23 17 -20 116 13 53 18 74 29 55 28 -16 0 -60 -2 -97 -4z" id="17"/>
<path d="M5642 7820 c-12 -12 -22 -32 -22 -46 0 -32 42 -74 75 -74 26 0 75 39 75 61 0 6 -9 27 -21 45 -16 27 -27 34 -53 34 -19 0 -41 -9 -54 -20z" id="18"/>
<path d="M3720 7807 c-80 -40 -22 -161 61 -127 60 25 58 108 -3 129 -17 6 -31 11 -32 11 -1 0 -12 -6 -26 -13z" id="19"/>
<path d="M4815 7795 c-28 -27 -31 -45 -14 -78 16 -30 28 -37 66 -37 38 0 73 32 73 67 0 32 -43 73 -75 73 -14 0 -37 -11 -50 -25z" id="20"/>
<path d="M1603 7764 c-91 -33 -195 -159 -233 -282 -21 -68 -26 -192 -11 -267 l9 -40 1 45 c5 159 67 288 168 347 66 38 123 36 167 -6 31 -30 33 -31 48 -14 50 57 61 127 28 181 -32 53 -93 65 -177 36z" id="21"/>
<path d="M4152 7747 c-63 -67 27 -156 99 -99 15 13 22 30 22 52 0 63 -78 93 -121 47z" id="22"/>
<path d="M5507 7712 c-26 -29 -22 -77 9 -101 15 -12 34 -21 44 -21 10 0 29 9 44 21 32 25 36 77 8 102 -25 23 -85 22 -105 -1z" id="23"/>
<path d="M2924 7702 c-29 -19 -64 -82 -64 -118 0 -20 24 -44 44 -44 34 0 112 -142 142 -260 11 -42 15 -86 11 -127 -2 -35 -3 -63 0 -63 2 0 14 24 27 53 37 85 58 187 58 293 1 82 -4 109 -23 158 -41 101 -128 149 -195 108z" id="24"/>
<path d="M3843 7678 c-12 -6 -27 -24 -34 -40 -10 -25 -9 -33 8 -56 28 -38 94 -43 117 -10 23 32 20 65 -9 93 -26 27 -47 30 -82 13z" id="25"/>
<path d="M6952 7658 c-66 -18 -92 -110 -52 -188 25 -49 33 -54 54 -31 46 50 116 51 184 1 82 -59 125 -152 138 -298 6 -65 9 -72 16 -47 19 69 21 189 4 254 -52 201 -212 346 -344 309z" id="26"/>
<path d="M4837 7632 c-25 -28 -22 -87 5 -106 32 -23 65 -20 93 9 30 29 32 68 5 95 -26 26 -81 26 -103 2z" id="27"/>
<path d="M5970 7637 c-190 -54 -299 -280 -249 -519 17 -81 84 -217 132 -267 69 -71 359 -246 344 -207 -4 10 -7 19 -7 22 0 2 -33 25 -72 51 -151 98 -254 234 -293 388 -19 74 -19 108 0 172 31 105 109 136 232 93 96 -33 135 -23 167 44 19 40 21 124 4 161 -26 57 -162 89 -258 62z" id="28"/>
<path d="M5403 7615 c-21 -9 -35 -23 -39 -40 -21 -83 94 -127 136 -52 33 59 -31 120 -97 92z" id="29"/>
<path d="M4122 7604 c-38 -15 -49 -51 -30 -91 16 -34 61 -45 100 -26 81 40 14 153 -70 117z" id="30"/>
<path d="M1537 7540 c-148 -94 -181 -324 -102 -714 24 -118 80 -301 94 -310 3 -2 5 26 3 63 -7 127 42 335 138 581 51 130 69 194 70 245 0 47 -19 102 -46 135 -36 42 -92 42 -157 0z" id="31"/>
<path d="M3948 7543 c-24 -28 -29 -53 -16 -76 27 -51 71 -60 114 -24 23 20 26 28 20 60 -4 21 -15 41 -26 47 -29 16 -75 12 -92 -7z" id="32"/>
<path d="M5230 7518 c-11 -12 -20 -32 -20 -45 0 -32 43 -73 75 -73 30 0 75 41 75 68 0 11 -9 31 -21 46 -27 34 -79 36 -109 4z" id="33"/>
<path d="M4821 7454 c-27 -35 -26 -59 4 -89 31 -32 63 -32 98 0 33 31 35 64 4 93 -33 31 -80 29 -106 -4z" id="34"/>
<path d="M6998 7445 c-83 -46 -96 -186 -35 -370 94 -286 130 -520 101 -663 -9 -46 14 -11 50 73 42 102 100 305 121 429 22 129 20 292 -5 362 -44 128 -158 210 -232 169z" id="35"/>
<path d="M4100 7430 c-42 -42 -10 -120 50 -120 62 0 97 90 48 124 -31 22 -74 20 -98 -4z" id="36"/>
<path d="M5092 7427 c-12 -13 -22 -33 -22 -46 0 -30 43 -71 75 -71 32 0 75 41 75 73 0 59 -87 88 -128 44z" id="37"/>
<path d="M4942 7347 c-61 -65 22 -153 96 -101 16 11 22 25 22 54 0 29 -6 43 -22 54 -32 23 -71 20 -96 -7z" id="38"/>
<path d="M5914 7360 c-43 -17 -69 -69 -73 -149 -4 -80 7 -128 46 -206 30 -62 84 -147 89 -142 2 2 -3 24 -12 48 -20 57 -21 198 -1 262 19 60 59 119 92 137 14 7 25 17 25 21 0 10 -96 39 -124 38 -12 0 -31 -4 -42 -9z" id="39"/>
<path d="M4771 7284 c-26 -34 -27 -68 -1 -94 44 -44 123 -12 123 50 0 66 -82 95 -122 44z" id="40"/>
<path d="M4120 7270 c-26 -26 -26 -81 -2 -103 25 -23 78 -21 102 3 27 27 25 66 -5 95 -29 30 -68 32 -95 5z" id="41"/>
<path d="M3569 7233 c-22 -26 -17 -120 10 -185 21 -52 26 -58 52 -58 31 0 40 25 17 48 -9 9 -9 15 0 24 15 15 16 95 1 137 -17 48 -55 64 -80 34z" id="42"/>
<path d="M4703 7148 c-11 -5 -29 -25 -39 -43 -15 -28 -16 -37 -4 -64 13 -32 54 -61 85 -61 31 0 73 30 83 60 27 76 -51 144 -125 108z" id="43"/>
<path d="M4200 7133 c-49 -18 -74 -76 -54 -128 8 -21 56 -45 89 -45 36 0 85 50 85 87 -1 57 -67 105 -120 86z" id="44"/>
<path d="M3933 7068 c-37 -41 -46 -71 -50 -163 -4 -79 -2 -96 20 -145 13 -30 27 -67 31 -82 5 -24 12 -28 41 -28 42 0 61 24 75 98 17 91 -16 278 -57 324 -21 24 -35 23 -60 -4z m7 -213 c0 -18 -5 -25 -19 -25 -11 0 -23 5 -26 10 -11 18 3 40 25 40 15 0 20 -7 20 -25z m49 -138 c8 -10 7 -19 -4 -33 -13 -18 -15 -18 -31 -2 -14 14 -15 20 -4 32 15 19 24 20 39 3z" id="45"/>
<path d="M5114 7025 c-23 -35 -33 -94 -34 -197 0 -95 25 -192 61 -238 l19 -25 36 40 35 40 -3 160 c-3 134 -7 166 -23 200 -25 51 -65 60 -91 20z" id="46"/>
<path d="M4548 7015 c-56 -31 -64 -91 -19 -136 33 -32 67 -37 110 -14 32 16 41 33 41 79 0 61 -76 102 -132 71z" id="47"/>
<path d="M4343 6995 c-60 -26 -71 -89 -24 -136 74 -73 189 11 140 103 -6 11 -26 26 -44 34 -40 16 -32 17 -72 -1z" id="48"/>
<path d="M3554 6954 c-51 -18 -109 -75 -126 -123 -7 -20 -12 -68 -12 -108 1 -57 7 -83 28 -127 37 -76 96 -122 96 -75 0 12 15 36 34 55 59 59 129 44 205 -42 45 -51 121 -194 121 -227 0 -15 6 -11 26 19 26 37 26 42 20 136 -13 205 -58 330 -152 418 -89 84 -154 104 -240 74z" id="49"/>
<path d="M2865 6859 c-38 -32 -120 -95 -182 -139 -90 -65 -114 -87 -123 -116 -7 -19 -10 -37 -8 -39 7 -8 213 140 274 198 58 53 123 142 113 151 -2 2 -35 -23 -74 -55z" id="50"/>
<path d="M4455 6830 c-36 -14 -50 -41 -46 -92 3 -52 86 -76 132 -39 34 27 32 86 -5 117 -28 25 -47 28 -81 14z" id="51"/>
<path d="M5472 6780 c-159 -57 -272 -170 -375 -375 -46 -92 -77 -206 -77 -286 0 -41 0 -42 20 -24 11 10 20 26 20 36 0 30 36 102 83 166 77 104 192 182 268 183 57 0 72 -37 44 -104 -6 -13 -5 -17 3 -12 6 4 45 7 85 7 l74 0 46 47 c25 26 55 67 68 92 47 92 20 238 -51 275 -40 21 -143 19 -208 -5z m155 -6 c3 -8 -1 -22 -9 -30 -13 -14 -17 -14 -32 1 -13 13 -14 20 -5 31 15 19 38 18 46 -2z" id="52"/>
<path d="M2620 6740 c-13 -8 -13 -10 2 -10 9 0 20 5 23 10 8 13 -5 13 -25 0z" id="53"/>
<path d="M3002 6704 c-93 -25 -163 -65 -237 -136 -93 -87 -109 -121 -102 -204 8 -81 26 -122 77 -178 53 -57 110 -76 229 -76 107 1 156 11 253 57 l78 36 -39 34 c-78 66 -90 163 -28 229 40 42 135 70 206 59 l46 -7 -27 29 c-15 15 -34 44 -42 65 -13 31 -24 39 -83 61 -38 14 -86 30 -108 36 -55 15 -159 13 -223 -5z" id="54"/>
<path d="M5840 6703 c-62 -21 -69 -29 -63 -67 3 -18 -2 -59 -11 -90 -13 -44 -29 -69 -75 -116 l-58 -59 54 -27 c75 -36 95 -71 91 -151 -3 -51 -10 -71 -36 -108 l-31 -44 37 -9 c20 -5 71 -17 113 -26 42 -9 92 -28 112 -41 41 -28 47 -29 118 -14 92 20 170 118 198 247 20 97 14 141 -38 284 l-49 133 -109 52 c-120 59 -169 66 -253 36z" id="55"/>
<path d="M4424 6619 c-21 -48 -24 -162 -5 -198 17 -32 50 -23 72 19 25 46 27 181 3 204 -27 27 -50 19 -70 -25z" id="56"/>
<path d="M1214 6574 c-50 -18 -106 -70 -136 -127 -18 -33 -23 -59 -23 -123 0 -72 3 -85 30 -130 57 -91 210 -153 313 -125 92 25 152 111 160 227 8 130 -42 234 -133 275 -49 23 -152 24 -211 3z" id="57"/>
<path d="M3575 6565 c-37 -36 -33 -66 12 -90 20 -11 58 -36 83 -56 25 -19 65 -43 90 -53 24 -10 63 -31 85 -47 55 -41 58 -19 10 69 -49 89 -103 159 -141 183 -45 28 -109 25 -139 -6z" id="58"/>
<path d="M4357 6483 c-16 -32 -49 -94 -74 -137 -45 -78 -45 -80 -29 -108 10 -15 14 -33 11 -38 -4 -6 23 -10 73 -10 l79 0 7 61 c10 95 7 131 -9 150 -9 9 -19 45 -23 79 l-7 62 -28 -59z" id="59"/>
<path d="M4521 6474 c-7 -29 -24 -58 -42 -75 -28 -26 -31 -34 -36 -119 l-6 -90 77 0 c59 0 76 3 76 14 0 8 10 23 23 33 l22 18 -51 133 -51 133 -12 -47z" id="60"/>
<path d="M3315 6496 c-71 -20 -105 -61 -105 -127 0 -55 24 -107 63 -134 29 -20 36 -19 30 4 -8 32 16 88 53 120 63 56 161 71 284 45 l25 -6 -25 21 c-85 71 -226 105 -325 77z" id="61"/>
<path d="M5339 6443 c-67 -33 -203 -168 -242 -241 -16 -29 -27 -57 -25 -62 2 -5 30 14 63 42 88 73 182 134 246 159 56 21 79 46 79 87 0 48 -43 53 -121 15z" id="62"/>
<path d="M7203 6451 c-87 -22 -143 -86 -169 -193 -21 -83 -13 -155 24 -223 23 -42 37 -55 92 -82 65 -31 65 -31 140 -19 80 13 119 30 169 72 133 111 80 369 -87 428 -55 20 -129 27 -169 17z" id="63"/>
<path d="M3438 6390 c-51 -15 -89 -45 -108 -85 -21 -44 -25 -71 -12 -79 5 -3 37 6 73 18 92 34 162 40 246 22 84 -17 119 -34 167 -79 45 -43 45 -31 0 52 -55 101 -85 127 -165 146 -72 16 -157 18 -201 5z" id="64"/>
<path d="M3994 6361 c-27 -12 -46 -30 -57 -54 -24 -49 -22 -57 14 -57 24 0 42 -11 74 -43 50 -50 82 -138 92 -255 l6 -75 18 36 c23 44 69 201 69 233 0 14 -6 27 -14 30 -21 8 -26 40 -10 63 13 18 13 24 0 48 -18 36 -54 69 -89 82 -39 15 -55 14 -103 -8z" id="65"/>
<path d="M5491 6348 c-75 -8 -184 -57 -266 -119 -30 -23 -54 -43 -52 -45 2 -2 30 5 63 17 86 30 216 36 290 13 103 -32 176 -128 132 -172 -8 -8 -8 -12 -1 -12 15 0 82 76 93 106 6 14 10 47 10 73 0 106 -101 158 -269 139z" id="66"/>
<path d="M2619 6296 c-15 -67 -1 -278 26 -381 56 -220 260 -448 510 -573 206 -103 576 -153 692 -93 44 22 86 69 98 111 4 14 11 30 15 35 5 6 -12 42 -38 83 -36 58 -48 69 -53 55 -4 -10 -16 -26 -28 -37 -37 -33 -87 -24 -253 47 -84 36 -188 79 -230 97 -42 17 -94 45 -115 61 -111 89 -169 243 -128 342 7 17 2 18 -76 12 -215 -17 -347 61 -390 232 l-17 68 -13 -59z" id="67"/>
<path d="M4777 6319 c-53 -35 -86 -76 -93 -116 -3 -15 -11 -35 -19 -43 -22 -24 -38 -145 -31 -224 6 -70 37 -154 73 -200 18 -22 18 -21 18 58 0 94 21 143 89 214 55 58 108 85 159 80 l39 -4 -5 61 c-10 91 -26 136 -62 172 -45 45 -102 46 -168 2z" id="68"/>
<path d="M3792 6288 c18 -29 45 -88 61 -133 58 -163 87 -256 87 -275 0 -11 5 -20 10 -20 19 0 10 106 -15 181 -14 41 -29 103 -32 139 -3 38 -12 73 -22 84 -17 21 -100 76 -113 76 -4 0 7 -23 24 -52z" id="69"/>
<path d="M6326 6239 c-2 -8 -7 -35 -10 -60 -16 -136 -95 -244 -203 -275 l-61 -19 19 -37 c79 -154 -26 -431 -218 -574 -85 -64 -179 -112 -336 -170 -276 -101 -491 -126 -611 -69 -51 24 -105 91 -113 137 -3 21 -9 41 -13 43 -11 7 -90 -81 -105 -119 -9 -21 -12 -52 -8 -88 l6 -56 -52 -53 c-49 -50 -56 -54 -102 -55 -43 -2 -56 -8 -97 -43 -26 -23 -55 -48 -66 -57 -21 -19 -17 -70 8 -109 17 -26 154 -94 266 -133 129 -44 295 -34 415 25 49 25 125 89 125 106 0 5 7 16 17 25 15 15 14 17 -8 23 -23 7 -23 7 -2 8 19 1 22 7 21 44 0 47 -20 87 -44 87 -8 0 -13 4 -10 9 4 5 -6 14 -21 19 -16 6 -21 11 -13 11 8 1 28 -6 44 -14 47 -25 237 -14 447 25 118 22 262 85 524 230 77 42 162 86 189 96 79 31 83 43 62 194 -19 134 -18 165 14 283 41 148 34 269 -26 481 -29 100 -31 105 -38 85z m8 -246 c4 -9 0 -23 -9 -32 -13 -14 -17 -14 -30 0 -19 19 -10 49 15 49 10 0 21 -8 24 -17z m-40 -69 c9 -8 16 -19 16 -24 0 -14 -30 -40 -45 -40 -12 0 -35 29 -35 44 0 8 31 36 40 36 5 0 16 -7 24 -16z m-409 -753 c-21 -20 -246 -132 -344 -171 -126 -50 -263 -88 -345 -94 -55 -5 -54 -4 20 9 155 27 354 102 579 218 95 48 105 53 90 38z m-966 -250 c12 -21 5 -31 -21 -31 -11 0 -18 7 -18 18 0 35 23 43 39 13z m104 -18 c-7 -2 -21 -2 -30 0 -10 3 -4 5 12 5 17 0 24 -2 18 -5z m85 -10 c-10 -2 -26 -2 -35 0 -10 3 -2 5 17 5 19 0 27 -2 18 -5z m-57 -67 c-16 -19 -41 -10 -41 14 0 24 21 31 39 14 11 -10 12 -16 2 -28z m-168 -50 c3 -8 -1 -20 -9 -27 -12 -10 -18 -9 -31 3 -8 9 -12 21 -9 27 10 16 43 14 49 -3z m145 -49 c4 -22 -24 -33 -43 -17 -12 10 -13 16 -4 27 16 18 43 13 47 -10z m50 -64 c-10 -2 -28 -2 -40 0 -13 2 -5 4 17 4 22 1 32 -1 23 -4z m75 -10 c-7 -2 -21 -2 -30 0 -10 3 -4 5 12 5 17 0 24 -2 18 -5z m-108 -43 c0 -18 -6 -26 -23 -28 -13 -2 -25 3 -28 12 -10 26 4 48 28 44 17 -2 23 -10 23 -28z m-190 -15 c0 -23 -34 -33 -45 -14 -13 20 1 40 24 37 13 -2 21 -10 21 -23z" id="70"/>
<path d="M3973 6163 c31 -65 32 -73 32 -193 0 -109 -3 -131 -22 -171 -23 -46 -31 -123 -14 -134 12 -7 78 71 109 128 26 49 28 113 8 228 -16 89 -43 146 -86 183 -55 45 -62 33 -27 -41z" id="71"/>
<path d="M3920 6189 c0 -20 14 -80 30 -134 34 -111 36 -139 14 -194 -8 -22 -14 -52 -12 -68 l4 -28 16 35 c23 51 32 175 18 250 -6 35 -24 89 -40 119 l-29 56 -1 -36z" id="72"/>
<path d="M3433 6193 c-39 -13 -44 -19 -57 -66 -8 -29 -18 -82 -22 -119 -6 -60 -4 -71 22 -118 85 -156 296 -185 439 -58 39 34 65 76 65 106 0 11 -7 37 -16 58 l-16 39 -19 -50 c-22 -59 -77 -117 -136 -145 -57 -27 -72 -25 -120 10 -100 74 -122 242 -43 329 l29 31 -42 -1 c-23 0 -61 -7 -84 -16z" id="73"/>
<path d="M5244 6182 c-86 -30 -171 -81 -218 -131 -39 -41 -27 -39 28 3 57 43 154 76 226 76 67 0 131 -18 252 -70 88 -39 89 -39 109 -19 26 26 24 43 -13 84 -52 60 -99 78 -208 82 -84 3 -104 1 -176 -25z" id="74"/>
<path d="M4238 6174 c-5 -4 -8 -16 -8 -28 0 -19 1 -19 14 -1 15 20 43 15 52 -10 6 -15 -11 -45 -27 -45 -4 0 -15 7 -23 16 -13 12 -17 13 -20 2 -57 -200 -110 -310 -188 -393 l-57 -62 25 -24 c36 -33 71 -95 85 -151 l11 -48 30 45 c17 25 45 57 62 70 39 29 135 75 159 75 17 0 18 14 15 211 l-3 211 28 23 c21 19 27 33 27 65 l0 40 -52 0 c-29 0 -69 3 -88 6 -19 3 -38 2 -42 -2z" id="75"/>
<path d="M2383 6119 c-52 -137 -77 -250 -88 -394 -6 -77 -5 -83 29 -152 41 -86 102 -177 142 -214 25 -23 41 -27 119 -33 109 -9 211 -28 327 -61 103 -30 261 -86 255 -91 -2 -2 -47 12 -100 31 -179 64 -401 110 -496 103 l-44 -3 70 -47 c39 -26 108 -67 154 -92 72 -38 99 -47 191 -60 112 -16 292 -55 285 -62 -2 -2 -51 7 -108 20 -58 13 -134 27 -169 30 l-65 7 135 -72 c74 -39 165 -91 203 -115 53 -35 78 -44 115 -46 37 -1 40 -2 14 -5 -38 -5 -33 -23 6 -24 24 0 25 -1 7 -9 -18 -7 -18 -9 -3 -15 9 -3 40 -29 70 -56 29 -27 56 -49 59 -49 13 0 18 114 6 122 -8 5 -6 8 7 8 11 0 16 5 13 14 -3 8 2 17 11 21 15 6 15 8 -3 15 -19 8 -19 9 3 9 12 1 22 4 22 9 0 4 10 18 21 32 19 23 19 23 9 2 -6 -12 -8 -26 -6 -31 3 -5 0 -11 -7 -14 -17 -6 -37 -73 -37 -121 l0 -38 38 22 c34 19 29 15 -22 -23 -18 -13 -18 -15 2 -60 24 -54 83 -101 155 -122 63 -19 211 -19 297 -1 99 21 223 72 254 105 39 41 50 94 24 118 -11 10 -26 30 -34 45 -8 16 -18 27 -22 27 -34 -6 -102 39 -102 66 0 8 -11 25 -23 38 -22 21 -24 34 -29 154 -5 114 -9 139 -32 189 -37 80 -76 121 -76 79 0 -57 -83 -147 -152 -166 -121 -33 -436 13 -619 90 -222 93 -454 318 -535 520 -16 39 -35 71 -42 71 -7 0 -17 11 -22 25 -5 14 -17 28 -25 31 -22 9 -108 121 -137 178 l-25 50 -20 -55z m117 -165 c11 -12 10 -18 -3 -32 -16 -15 -18 -15 -34 0 -13 14 -14 20 -3 32 7 9 16 16 20 16 4 0 13 -7 20 -16z m30 -60 c11 -12 10 -18 -3 -32 -16 -15 -18 -15 -34 0 -13 14 -14 20 -3 32 7 9 16 16 20 16 4 0 13 -7 20 -16z m-65 -60 c12 -12 13 -19 4 -30 -6 -8 -17 -14 -24 -14 -18 0 -27 30 -14 46 14 17 14 17 34 -2z m805 -704 c44 -22 80 -42 80 -45 0 -5 -159 72 -169 81 -13 12 19 -1 89 -36z m238 -96 c15 -27 3 -54 -24 -54 -28 0 -48 37 -32 58 15 17 45 15 56 -4z m208 -56 c1 -20 -3 -25 -15 -20 -24 8 -31 25 -19 39 16 20 33 10 34 -19z m-248 -51 c4 -20 -25 -34 -40 -19 -15 15 -1 44 19 40 10 -2 19 -11 21 -21z m362 -47 c0 -13 -7 -20 -20 -20 -13 0 -20 7 -20 20 0 13 7 20 20 20 13 0 20 -7 20 -20z m-397 -7 c-7 -2 -21 -2 -30 0 -10 3 -4 5 12 5 17 0 24 -2 18 -5z m257 -22 c0 -21 -26 -36 -35 -21 -4 6 -18 11 -33 11 -21 1 -22 2 -7 6 11 3 24 9 30 14 17 16 45 10 45 -10z m-257 -8 c-7 -2 -21 -2 -30 0 -10 3 -4 5 12 5 17 0 24 -2 18 -5z m27 -23 c-14 -4 -34 -8 -45 -8 -16 0 -15 2 5 8 14 4 34 8 45 8 16 0 15 -2 -5 -8z m265 -88 c9 -23 -21 -49 -42 -36 -24 15 -26 29 -8 47 18 18 40 13 50 -11z m50 -127 c0 -30 -39 -27 -43 3 -3 20 0 23 20 20 15 -2 23 -10 23 -23z" id="76"/>
<path d="M4435 6130 c-5 -32 -3 -45 14 -66 29 -37 28 -128 -4 -250 -14 -53 -25 -117 -25 -143 l0 -47 52 -14 c42 -10 64 -25 109 -69 31 -31 62 -73 70 -94 15 -43 22 -46 37 -13 6 14 27 43 46 64 20 22 42 54 50 73 14 33 14 34 -31 83 -124 138 -158 246 -134 417 10 67 10 83 -1 90 -7 5 -50 9 -95 9 l-81 0 -7 -40z" id="77"/>
<path d="M3333 6153 c-14 -5 -16 -88 -3 -138 7 -26 8 -24 9 20 1 28 5 67 10 88 9 37 7 40 -16 30z" id="78"/>
<path d="M3247 6108 c-15 -12 -13 -21 17 -102 19 -48 40 -93 46 -100 10 -8 11 -7 6 9 -18 51 -36 133 -36 167 0 40 -6 45 -33 26z" id="79"/>
<path d="M3205 6089 c-8 -22 20 -142 50 -206 46 -101 144 -180 253 -203 76 -17 293 21 341 59 54 42 73 73 66 104 l-7 26 -49 -50 c-95 -98 -235 -133 -353 -89 -66 25 -182 119 -223 181 -15 22 -36 75 -49 117 -14 49 -25 71 -29 61z" id="80"/>
<path d="M3144 6066 c-16 -12 -19 -26 -19 -83 1 -120 78 -242 188 -297 70 -34 383 -165 428 -179 19 -5 47 -7 62 -3 38 9 68 61 65 110 -4 58 -33 65 -160 36 -126 -29 -195 -24 -283 19 -120 59 -191 164 -222 325 -10 47 -22 86 -28 86 -6 0 -20 -6 -31 -14z" id="81"/>
<path d="M4914 6056 c-111 -48 -186 -188 -164 -305 10 -55 38 -127 45 -119 3 3 15 49 26 104 25 118 51 173 124 258 29 35 51 67 48 70 -10 10 -46 6 -79 -8z" id="82"/>
<path d="M4388 6038 c-15 -28 -15 -99 -3 -283 l9 -140 12 80 c6 44 19 109 29 145 17 65 24 187 11 209 -12 19 -45 12 -58 -11z" id="83"/>
<path d="M5396 6003 c39 -130 -9 -242 -130 -299 -54 -25 -61 -24 -125 24 -58 43 -92 154 -71 232 6 23 9 44 7 46 -3 3 -30 -19 -62 -48 l-57 -52 4 -81 c6 -98 27 -145 97 -207 56 -51 92 -61 167 -47 119 22 232 106 254 191 15 55 16 162 1 216 -10 34 -18 45 -48 57 -51 21 -53 20 -37 -32z" id="84"/>
<path d="M1115 6026 c-118 -37 -225 -134 -289 -262 -36 -73 -48 -172 -35 -292 20 -184 61 -299 165 -454 115 -173 242 -286 659 -584 99 -71 213 -157 253 -192 39 -34 72 -60 72 -56 0 4 -25 38 -56 76 -60 72 -231 222 -564 492 -63 51 -144 124 -179 162 -82 87 -185 245 -225 343 -28 69 -31 86 -31 187 0 107 1 112 38 186 43 88 112 157 175 176 77 23 177 8 224 -35 50 -45 64 -136 34 -220 -17 -49 -18 -48 48 -28 114 35 171 100 170 195 -2 110 -68 212 -183 280 -64 38 -71 40 -152 39 -46 0 -102 -6 -124 -13z" id="85"/>
<path d="M3702 6024 c-50 -35 -10 -59 48 -29 33 17 38 30 14 39 -24 9 -38 7 -62 -10z" id="86"/>
<path d="M5672 6027 c-12 -6 -22 -14 -22 -18 0 -18 203 -69 275 -69 l40 0 -30 20 c-47 30 -237 78 -263 67z" id="87"/>
<path d="M5524 5973 c4 -9 9 -43 13 -75 3 -32 8 -57 9 -55 2 2 9 30 15 62 10 53 9 60 -7 72 -24 18 -37 16 -30 -4z" id="88"/>
<path d="M4919 5938 c-35 -48 -74 -127 -65 -135 2 -3 12 12 20 32 9 21 32 60 52 87 19 28 33 52 30 55 -2 3 -19 -15 -37 -39z" id="89"/>
<path d="M5580 5918 c0 -44 1 -45 40 -57 72 -21 106 -107 75 -187 -36 -94 -75 -120 -301 -197 -71 -25 -168 -61 -215 -80 -158 -66 -231 -68 -269 -5 l-18 30 -20 -46 c-11 -25 -35 -66 -52 -91 -31 -45 -32 -48 -20 -93 35 -140 174 -189 421 -147 107 18 310 83 437 141 206 94 345 239 396 413 22 76 20 185 -4 239 l-19 42 -80 0 c-104 0 -225 26 -353 75 -16 6 -18 1 -18 -37z m285 -543 c0 -23 -5 -31 -21 -33 -27 -4 -47 21 -39 48 5 16 14 20 33 18 23 -2 27 -8 27 -33z" id="90"/>
<path d="M5275 5880 c-30 -33 -6 -47 42 -24 46 23 49 38 7 42 -20 2 -36 -4 -49 -18z" id="91"/>
<path d="M7173 5871 c-120 -58 -203 -172 -203 -279 0 -61 15 -94 62 -139 38 -37 164 -92 154 -68 -31 82 -30 157 4 212 26 43 56 61 122 74 147 30 274 -76 324 -272 57 -223 -131 -535 -463 -766 -138 -97 -408 -291 -488 -352 -64 -49 -198 -181 -191 -188 2 -3 31 17 64 44 33 26 136 95 229 152 382 237 540 348 642 449 158 158 240 296 287 479 61 242 33 392 -101 541 -82 90 -176 135 -293 140 -80 3 -92 1 -149 -27z" id="92"/>
<path d="M5574 5843 c-39 -115 -118 -221 -201 -265 -88 -48 -155 -61 -273 -55 -58 4 -124 9 -146 13 -41 6 -42 6 -46 -29 -5 -46 6 -84 33 -113 33 -35 90 -32 197 12 48 19 152 58 232 86 208 72 261 102 296 170 33 63 5 167 -52 188 -33 13 -34 13 -40 -7z" id="93"/>
<path d="M4899 5810 c-9 -14 -23 -39 -33 -57 -15 -30 -15 -34 2 -62 10 -17 39 -53 65 -81 40 -43 51 -50 84 -50 l37 0 -41 43 c-51 53 -84 117 -92 181 l-6 50 -16 -24z" id="94"/>
<path d="M1096 5786 c-96 -36 -185 -179 -194 -310 -2 -41 1 -98 8 -127 28 -126 156 -333 277 -451 32 -31 99 -90 150 -130 85 -68 229 -187 416 -347 116 -98 199 -201 262 -322 69 -135 100 -230 116 -354 13 -108 27 -108 28 0 1 131 -57 302 -151 446 -33 51 -115 147 -210 245 -107 111 -171 186 -206 244 -126 205 -171 393 -152 633 6 66 15 138 21 160 6 21 8 41 5 44 -2 3 -39 -6 -80 -20 -42 -13 -78 -22 -80 -20 -2 3 7 28 20 56 46 100 26 205 -47 243 -45 23 -135 28 -183 10z" id="95"/>
<path d="M3886 5744 c-21 -25 -37 -46 -35 -47 2 -2 22 -15 45 -29 l40 -26 -4 62 c-2 33 -4 66 -5 73 -1 6 -19 -9 -41 -33z" id="96"/>
<path d="M4830 5665 c-6 -16 -14 -49 -17 -73 -6 -42 -5 -45 13 -37 10 4 41 10 67 13 43 4 46 6 28 18 -10 8 -33 35 -50 60 l-30 47 -11 -28z" id="97"/>
<path d="M7260 5632 c-70 -35 -93 -135 -55 -236 10 -25 16 -49 13 -51 -2 -3 -38 8 -79 24 -41 16 -75 28 -76 27 -1 -1 2 -46 8 -101 19 -204 -15 -406 -96 -570 -71 -143 -161 -252 -334 -405 -207 -183 -285 -287 -352 -472 -31 -84 -48 -201 -34 -235 5 -12 13 10 25 73 21 105 61 204 127 315 90 151 178 239 391 390 64 45 167 119 227 164 61 44 142 102 181 128 80 52 217 190 287 288 103 145 148 288 126 405 -21 112 -87 217 -160 254 -50 26 -150 27 -199 2z" id="98"/>
<path d="M3890 5615 c0 -38 22 -84 82 -171 29 -43 61 -92 71 -109 l18 -30 -4 77 c-4 72 -8 83 -52 157 -36 59 -56 83 -78 91 -39 13 -37 14 -37 -15z" id="99"/>
<path d="M4284 5579 c-63 -24 -127 -77 -158 -132 -20 -35 -26 -66 -36 -187 -8 -102 -8 -153 -1 -172 6 -16 12 -28 15 -28 2 0 30 12 62 27 81 38 184 37 304 -2 47 -15 89 -31 95 -36 14 -13 65 -11 67 4 0 6 2 64 3 127 1 71 8 133 17 162 l16 46 -38 59 c-86 137 -210 184 -346 132z" id="100"/>
<path d="M4828 5542 c-24 -10 -123 -178 -147 -248 -11 -33 -23 -88 -26 -124 l-7 -65 31 40 c17 22 54 67 82 100 75 89 128 206 129 283 0 23 -25 29 -62 14z" id="101"/>
<path d="M2310 5517 c0 -15 12 -64 26 -107 l27 -80 49 0 50 0 -44 49 c-24 26 -58 75 -76 107 -27 51 -32 55 -32 31z" id="102"/>
<path d="M2394 5313 c-21 -4 -21 -5 10 -91 l31 -87 165 -3 165 -2 -80 45 c-44 25 -109 68 -145 95 -64 49 -86 55 -146 43z" id="103"/>
<path d="M6239 5138 c-46 -28 -147 -84 -224 -124 -77 -41 -133 -74 -124 -74 9 0 72 18 140 40 68 21 125 37 127 35 5 -4 -291 -101 -338 -110 -40 -8 -222 -101 -325 -166 l-70 -44 60 -6 c98 -11 344 -10 461 2 102 10 111 13 142 42 53 51 121 146 162 227 38 75 87 217 78 226 -3 2 -43 -19 -89 -48z" id="104"/>
<path d="M2475 5084 c16 -21 70 -86 119 -143 l91 -103 205 6 c113 4 243 9 289 13 l84 6 -54 33 c-30 19 -135 75 -234 126 l-180 91 -175 5 -175 5 30 -39z" id="105"/>
<path d="M4220 5091 c-14 -3 -49 -15 -77 -26 -49 -18 -53 -22 -53 -51 0 -36 12 -49 55 -60 57 -13 80 -32 115 -93 40 -72 65 -84 117 -56 18 10 33 22 33 26 0 4 23 26 51 48 43 34 59 41 96 41 59 0 81 13 89 54 8 44 -1 59 -24 45 -14 -9 -32 -5 -82 16 -126 53 -249 75 -320 56z" id="106"/>
<path d="M2470 4985 c0 -31 -7 -72 -15 -92 -20 -49 -12 -53 103 -53 l93 0 -87 100 c-48 55 -89 100 -91 100 -1 0 -3 -25 -3 -55z" id="107"/>
<path d="M6311 5019 c-2 -50 -87 -206 -144 -266 -35 -38 -34 -38 52 -18 35 9 66 14 68 11 2 -2 -34 -13 -80 -24 -77 -18 -92 -26 -170 -88 -47 -38 -84 -70 -83 -72 5 -5 379 -3 384 3 11 11 12 224 2 323 -10 93 -28 173 -29 131z" id="108"/>
<path d="M5515 4845 c-44 -7 -135 -16 -201 -20 l-121 -8 13 -26 c8 -14 14 -34 14 -43 0 -10 8 -18 18 -18 16 -1 16 -1 0 -11 -25 -14 -22 -39 5 -40 21 -1 21 -1 -3 -8 -14 -4 -25 -12 -25 -18 0 -7 -17 -35 -38 -63 -20 -27 -35 -50 -32 -50 8 0 87 50 108 69 18 15 18 16 -5 23 -18 6 -17 7 8 3 22 -3 43 4 73 24 48 32 46 36 -22 45 -27 4 -47 10 -44 12 3 3 32 0 66 -6 59 -11 62 -10 104 18 23 16 82 52 132 81 99 57 96 59 -50 36z" id="109"/>
<path d="M2941 4836 l-245 -11 33 -27 c18 -16 40 -28 50 -28 9 0 125 13 257 30 131 16 246 30 254 30 13 0 13 1 0 10 -17 11 -8 11 -349 -4z" id="110"/>
<path d="M2418 4803 c-6 -16 -16 -52 -24 -81 -11 -48 -11 -53 3 -48 34 14 191 55 248 66 94 19 92 17 55 55 l-34 35 -118 0 -118 0 -12 -27z" id="111"/>
<path d="M3185 4809 c-33 -5 -135 -18 -227 -30 -182 -24 -181 -24 -108 -74 l40 -28 137 41 c76 23 177 51 225 63 133 33 90 50 -67 28z" id="112"/>
<path d="M3230 4766 c-47 -13 -139 -40 -205 -60 -139 -44 -140 -37 23 -118 l103 -51 154 77 c85 42 155 80 154 84 -2 17 -102 92 -122 91 -12 0 -60 -11 -107 -23z" id="113"/>
<path d="M2677 4735 c-38 -8 -120 -28 -183 -46 l-113 -31 -7 -36 c-12 -65 22 -247 62 -333 20 -43 46 -87 58 -98 19 -17 26 -18 63 -8 37 10 54 8 136 -16 112 -32 142 -35 132 -9 -23 59 -13 133 25 167 32 29 109 44 166 34 118 -22 194 -82 322 -256 l77 -104 12 28 c26 65 92 88 153 55 52 -29 114 -127 149 -234 47 -149 140 -519 166 -662 21 -115 72 -275 95 -299 4 -5 11 9 15 30 4 21 18 65 31 98 31 75 64 203 64 247 0 18 9 74 19 123 80 378 283 715 431 715 50 0 70 -24 77 -94 l6 -56 46 43 c91 85 240 169 324 182 23 4 53 18 67 30 30 29 71 45 111 45 19 0 47 13 76 35 25 19 41 35 35 35 -6 0 -62 -11 -126 -25 -226 -49 -354 -66 -488 -64 -71 1 -161 2 -200 1 -273 -6 -271 -6 -333 17 -33 12 -109 28 -168 36 -191 26 -625 143 -793 216 l-45 19 -117 -40 c-64 -21 -137 -42 -162 -45 -32 -4 -20 2 40 19 47 13 114 35 149 48 l65 24 -118 62 c-65 34 -123 62 -129 62 -7 -1 -52 -16 -102 -35 -49 -19 -91 -32 -93 -31 -2 3 51 26 172 74 16 7 10 14 -37 50 -31 23 -57 42 -59 41 -2 0 -34 -7 -71 -14z m1311 -1341 c47 -33 9 -107 -46 -88 -33 11 -43 62 -17 88 20 20 35 20 63 0z" id="114"/>
<path d="M3442 4674 c-12 -8 -78 -43 -148 -78 l-127 -64 79 -30 c107 -41 315 -104 449 -136 61 -14 135 -33 165 -41 30 -7 78 -17 105 -20 28 -4 59 -9 70 -12 14 -4 9 5 -19 32 -21 21 -51 67 -67 102 l-28 63 -68 0 c-135 1 -216 34 -319 132 -67 64 -72 67 -92 52z" id="115"/>
<path d="M5367 4655 l-48 -33 36 -6 c21 -4 126 -32 236 -62 l199 -54 43 27 42 27 -35 7 c-19 4 -120 22 -224 40 -104 18 -184 35 -179 36 6 2 89 -10 184 -26 294 -50 263 -52 348 14 40 32 71 58 69 60 -2 1 -32 -1 -68 -6 -120 -16 -437 -12 -535 6 -11 2 -41 -11 -68 -30z" id="116"/>
<path d="M5254 4578 c-33 -21 -80 -50 -106 -63 -92 -48 -323 -100 -396 -90 -42 6 -44 5 -112 -59 -38 -36 -84 -73 -102 -83 l-33 -17 45 -7 c125 -20 304 -4 570 52 80 16 186 37 235 45 50 8 124 22 165 29 82 16 249 90 234 104 -9 10 -139 48 -330 99 l-112 30 -58 -40z" id="117"/>
<path d="M392 4590 c-69 -25 -108 -50 -159 -102 -80 -82 -112 -207 -78 -309 24 -72 100 -148 176 -177 63 -23 206 -41 196 -25 -4 6 -19 14 -34 18 -69 17 -131 104 -118 166 17 77 121 139 234 139 68 0 176 -30 241 -68 61 -35 132 -103 174 -166 39 -59 245 -457 287 -556 24 -55 29 -60 29 -35 1 105 -75 440 -130 581 -117 293 -299 479 -526 538 -86 22 -225 20 -292 -4z" id="118"/>
<path d="M7828 4574 c-32 -7 -83 -27 -115 -43 -232 -117 -382 -337 -476 -696 -28 -106 -67 -330 -67 -380 0 -25 5 -20 29 35 43 100 248 497 287 556 120 180 359 277 528 214 61 -23 110 -72 121 -119 13 -62 -48 -149 -118 -166 -15 -4 -30 -12 -34 -18 -10 -17 130 1 194 25 78 29 154 104 178 177 56 170 -59 357 -254 415 -66 19 -194 20 -273 0z" id="119"/>
<path d="M5882 4523 c-23 -14 -42 -28 -42 -32 0 -4 55 -22 123 -39 67 -17 103 -29 80 -26 -23 3 -84 16 -135 29 l-93 23 -80 -38 c-44 -21 -116 -52 -160 -69 -114 -44 -116 -46 -69 -66 25 -11 69 -18 126 -19 100 -1 123 -13 174 -90 46 -70 70 -92 167 -158 48 -33 98 -74 112 -90 l25 -30 0 38 c0 72 43 195 131 375 49 101 89 190 89 198 0 14 -26 16 -203 17 -199 1 -204 1 -245 -23z" id="120"/>
<path d="M4070 4520 c-36 -10 -77 -19 -92 -19 -38 -1 -42 -14 -18 -60 51 -100 147 -162 281 -181 142 -20 276 23 394 128 51 46 52 48 14 56 -18 3 -77 25 -133 47 -99 40 -104 41 -241 45 -115 3 -151 0 -205 -16z" id="121"/>
<path d="M2899 4335 c-19 -9 -43 -28 -52 -44 -17 -30 -21 -91 -8 -124 6 -16 10 -13 31 20 32 48 67 53 156 22 87 -31 144 -77 236 -191 48 -59 93 -104 114 -114 41 -19 133 -117 170 -180 32 -55 43 -51 15 5 -77 151 -284 444 -366 520 -88 81 -219 119 -296 86z" id="122"/>
<path d="M5325 4285 c-50 -27 -71 -53 -111 -138 -35 -73 -39 -91 -39 -157 0 -57 6 -87 23 -125 13 -27 32 -69 43 -92 10 -24 23 -43 29 -43 14 0 13 13 -11 82 -11 35 -21 86 -21 114 -1 96 82 205 205 269 30 16 60 37 66 47 10 16 7 21 -26 35 -56 24 -122 27 -158 8z" id="123"/>
<path d="M530 4271 c-14 -5 -39 -15 -57 -24 -119 -62 -86 -212 55 -242 31 -6 32 -6 32 28 0 110 158 157 302 90 41 -19 88 -53 126 -91 34 -33 62 -57 62 -53 0 21 -83 132 -129 173 -109 98 -284 151 -391 119z" id="124"/>
<path d="M5512 4208 c-175 -91 -253 -179 -251 -285 1 -46 16 -115 18 -82 2 25 84 136 121 165 55 42 133 73 253 100 135 31 144 38 117 81 -25 42 -57 62 -111 68 -39 5 -56 0 -147 -47z" id="125"/>
<path d="M7803 4246 c-123 -31 -235 -112 -305 -220 -21 -33 -38 -62 -38 -67 0 -4 27 19 59 51 34 33 87 72 125 90 144 71 306 24 306 -87 0 -34 1 -34 33 -28 79 18 127 68 127 136 0 101 -154 164 -307 125z" id="126"/>
<path d="M5107 4189 c-15 -11 -36 -41 -48 -67 -18 -42 -20 -55 -11 -125 13 -105 49 -176 112 -222 28 -20 54 -35 59 -33 5 1 -8 39 -28 83 -32 72 -36 89 -36 165 0 72 4 94 28 144 15 32 27 62 27 67 0 18 -77 9 -103 -12z" id="127"/>
<path d="M2894 4158 c-9 -18 -22 -36 -27 -40 -6 -4 2 -12 19 -20 63 -27 192 -117 228 -159 49 -56 64 -91 76 -181 16 -114 20 -128 39 -128 29 0 70 -24 76 -45 5 -19 7 -18 31 10 56 66 68 138 34 212 -24 53 -197 271 -244 307 -53 40 -136 76 -178 76 -32 0 -40 -5 -54 -32z" id="128"/>
<path d="M4970 4151 c-46 -14 -154 -73 -216 -116 -138 -98 -397 -412 -528 -638 -15 -27 -26 -50 -24 -52 2 -3 24 24 48 58 62 86 352 374 428 424 84 56 167 86 215 79 37 -6 37 -6 37 29 0 24 9 45 30 69 23 26 70 128 70 153 0 5 -33 2 -60 -6z" id="129"/>
<path d="M2516 4130 c-52 -26 -83 -56 -107 -102 -10 -21 -19 -39 -19 -41 0 -2 48 -2 108 1 100 4 114 2 202 -28 52 -17 113 -42 136 -55 79 -46 182 -135 214 -185 24 -38 37 -49 49 -44 9 4 29 9 45 12 l28 5 -4 68 c-6 83 -36 138 -109 202 -56 49 -215 137 -247 137 -12 0 -56 11 -99 25 -93 30 -145 31 -197 5z" id="130"/>
<path d="M644 4120 c-12 -4 -31 -21 -44 -37 -18 -23 -21 -36 -16 -73 12 -85 81 -161 215 -236 108 -60 286 -179 373 -251 37 -30 91 -86 120 -124 29 -38 54 -65 56 -61 5 17 -57 171 -121 298 -172 343 -325 495 -497 493 -36 0 -75 -4 -86 -9z" id="131"/>
<path d="M5780 4118 c-13 -5 -70 -20 -126 -33 -222 -53 -318 -128 -343 -268 -15 -87 -14 -96 11 -106 18 -7 28 -2 53 28 61 72 119 124 161 142 81 36 220 42 317 13 12 -3 77 -33 144 -67 68 -33 125 -58 128 -55 3 3 -4 31 -16 63 -24 66 -68 114 -160 175 -35 24 -82 60 -104 80 -34 33 -43 37 -65 28z" id="132"/>
<path d="M7653 4081 c-120 -57 -239 -207 -370 -467 -67 -131 -130 -290 -120 -301 3 -2 20 17 38 43 75 109 260 255 492 387 109 62 186 126 212 177 22 42 29 104 15 129 -36 68 -160 82 -267 32z" id="133"/>
<path d="M4490 4063 c-71 -37 -143 -132 -220 -288 -58 -118 -112 -272 -124 -350 -5 -30 0 -22 23 36 72 190 168 320 246 335 27 5 40 3 46 -7 7 -11 26 4 78 61 l70 75 1 61 c0 99 -35 121 -120 77z" id="134"/>
<path d="M3473 4065 c-12 -8 -27 -30 -33 -49 -10 -32 -8 -39 41 -118 l52 -85 47 5 c43 4 51 1 88 -32 22 -20 52 -61 68 -91 16 -29 30 -52 32 -50 8 8 -62 227 -93 291 -59 121 -140 173 -202 129z" id="135"/>
<path d="M1793 4040 c-89 -45 -143 -136 -142 -240 1 -76 12 -112 55 -172 90 -127 304 -110 304 24 0 31 33 83 66 104 23 16 26 22 22 63 -5 42 -55 185 -78 221 -7 11 -32 16 -97 18 -74 3 -95 0 -130 -18z" id="136"/>
<path d="M4991 3986 c-12 -13 -25 -42 -28 -64 -5 -35 -1 -44 32 -80 35 -40 112 -92 135 -92 6 0 -8 23 -30 51 -40 51 -70 128 -70 181 0 34 -10 35 -39 4z" id="137"/>
<path d="M2395 3951 c-41 -19 -135 -110 -136 -133 0 -7 -4 -34 -8 -60 -4 -27 -5 -48 -2 -48 3 0 25 11 47 24 135 77 343 101 489 57 51 -15 149 -63 171 -83 14 -13 24 -16 29 -9 3 6 15 11 26 11 19 0 19 1 3 25 -19 29 -159 137 -213 164 -125 63 -326 89 -406 52z" id="138"/>
<path d="M6363 3873 c-56 -119 -66 -176 -34 -193 31 -16 61 -69 61 -108 0 -77 56 -122 151 -122 122 0 223 120 223 264 -1 71 -32 141 -86 193 -49 48 -96 63 -188 63 l-81 0 -46 -97z" id="139"/>
<path d="M4798 3875 c-160 -59 -489 -386 -632 -628 -47 -79 -136 -275 -136 -298 0 -8 32 42 71 111 111 194 183 293 276 378 165 150 246 200 368 227 39 9 106 27 151 41 44 14 97 27 117 31 l37 6 -45 34 c-25 18 -52 48 -61 66 -9 18 -22 35 -28 39 -17 12 -77 8 -118 -7z" id="140"/>
<path d="M5576 3874 c-63 -23 -104 -53 -151 -111 -44 -54 -56 -83 -34 -83 6 0 25 -12 42 -26 l31 -26 13 26 c18 34 35 37 178 32 97 -3 134 -9 193 -29 135 -48 202 -99 345 -260 38 -43 73 -74 79 -71 16 10 -7 131 -30 157 -11 12 -19 48 -23 99 -10 109 -39 153 -120 178 -31 9 -89 35 -130 58 -41 22 -98 47 -128 56 -67 20 -211 20 -265 0z" id="141"/>
<path d="M3396 3848 c13 -41 44 -102 70 -138 20 -27 25 -43 21 -72 -3 -25 2 -50 15 -77 22 -45 18 -85 -12 -124 -19 -24 -19 -24 3 -34 12 -6 42 -16 67 -23 53 -14 134 -65 195 -122 25 -22 47 -39 50 -36 14 13 -287 525 -350 596 -50 56 -71 66 -59 30z" id="142"/>
<path d="M3561 3801 c-11 -7 -2 -33 46 -127 33 -66 66 -137 73 -159 7 -22 34 -78 60 -125 26 -47 68 -127 94 -179 26 -51 49 -91 52 -89 2 3 -7 63 -21 134 -51 266 -151 496 -235 539 -33 17 -49 18 -69 6z" id="143"/>
<path d="M2460 3774 c-30 -8 -91 -31 -134 -52 -62 -29 -88 -48 -118 -86 -57 -72 -88 -138 -88 -189 0 -32 -9 -56 -34 -96 -33 -51 -56 -123 -56 -176 0 -43 19 -76 52 -90 l33 -13 11 41 c18 71 44 109 128 193 67 68 280 224 304 224 4 0 15 14 24 30 11 19 28 33 45 36 18 4 33 17 44 37 22 44 63 64 103 48 27 -10 33 -9 43 6 7 10 19 26 28 35 16 15 15 17 -3 27 -73 39 -279 53 -382 25z" id="144"/>
<path d="M4368 3755 c-44 -30 -81 -82 -133 -184 -37 -75 -105 -268 -105 -299 0 -9 20 20 45 66 55 103 139 232 216 333 33 43 59 85 59 93 0 24 -40 19 -82 -9z" id="145"/>
<path d="M2079 3731 c-53 -42 -60 -101 -18 -154 49 -63 76 -17 57 97 l-13 78 -26 -21z" id="146"/>
<path d="M2841 3683 c-29 -35 -33 -37 -62 -26 -42 16 -77 2 -85 -34 -11 -52 -13 -55 -37 -49 -29 7 -47 -5 -66 -46 -9 -18 -25 -34 -36 -36 -37 -7 -46 -22 -39 -68 5 -36 3 -43 -14 -48 -41 -13 -34 -66 9 -66 21 0 30 12 34 47 1 14 15 35 30 47 15 12 28 33 29 47 1 18 8 25 26 27 31 5 60 30 60 52 0 24 10 31 30 20 29 -15 80 10 87 42 6 32 23 35 58 12 22 -14 27 -14 60 2 34 16 39 16 63 2 16 -9 40 -14 58 -11 18 3 44 -2 62 -11 18 -9 42 -13 59 -10 20 4 35 0 52 -15 13 -12 27 -21 30 -21 18 1 32 20 29 41 -3 21 -8 24 -41 22 -34 -2 -39 1 -48 27 -6 16 -19 32 -29 35 -21 7 -60 -10 -60 -25 0 -6 -7 -10 -15 -10 -8 0 -15 6 -15 13 0 17 -32 47 -50 47 -8 0 -24 -10 -37 -22 -13 -12 -23 -16 -23 -9 0 19 -47 61 -69 61 -11 0 -33 -17 -50 -37z" id="147"/>
<path d="M3410 3702 c0 -38 -31 -94 -77 -139 l-43 -41 72 -40 c55 -31 76 -38 90 -31 27 15 32 55 14 120 -9 32 -16 69 -16 81 0 13 -9 34 -20 48 l-20 25 0 -23z" id="148"/>
<path d="M4965 3691 c-234 -64 -487 -260 -690 -536 -87 -119 -256 -314 -354 -410 -28 -27 -93 -81 -143 -120 -117 -89 -142 -133 -143 -244 0 -60 5 -85 23 -119 22 -42 42 -48 42 -14 0 29 28 60 92 104 93 63 213 182 243 241 14 28 25 42 25 32 0 -62 -106 -193 -236 -290 -84 -63 -94 -78 -94 -132 0 -40 38 -113 74 -142 16 -14 17 -12 11 22 -5 25 -4 37 4 37 6 0 11 -13 11 -29 0 -48 10 -62 64 -87 77 -36 81 -34 81 39 0 79 24 121 110 199 73 67 126 143 149 213 l16 50 -5 -45 c-9 -73 -52 -148 -136 -235 -43 -45 -83 -94 -89 -109 -18 -49 -12 -129 13 -167 22 -32 100 -99 117 -99 4 0 2 17 -6 38 -7 20 -13 57 -12 82 0 40 2 37 13 -27 13 -83 26 -103 66 -103 22 0 98 23 116 35 2 1 -6 25 -17 53 -38 99 -31 119 85 242 29 30 64 75 79 100 14 25 26 41 26 35 0 -21 -61 -113 -119 -180 -34 -38 -64 -80 -67 -91 -9 -33 14 -101 46 -137 28 -32 105 -75 115 -65 3 2 0 29 -5 59 -6 33 -6 66 -1 84 8 25 9 19 10 -37 1 -37 5 -78 11 -92 9 -24 14 -26 70 -26 120 0 194 58 316 248 152 234 170 256 354 412 168 142 191 176 226 340 12 58 23 95 23 83 1 -12 -4 -45 -10 -72 -6 -28 -9 -60 -7 -71 3 -20 6 -19 46 15 23 20 42 43 42 51 0 8 5 13 11 11 13 -3 85 114 100 162 18 60 23 223 9 282 -40 168 -156 299 -339 387 -69 33 -82 36 -185 39 -85 2 -127 -1 -181 -16z m525 -246 c0 -18 -5 -25 -19 -25 -11 0 -23 5 -26 10 -11 18 3 40 25 40 15 0 20 -7 20 -25z m90 -86 c9 -15 8 -24 -1 -35 -28 -33 -80 -3 -59 35 6 12 19 21 30 21 11 0 24 -9 30 -21z" id="149"/>
<path d="M5506 3654 c-9 -8 -16 -21 -16 -28 0 -17 44 -58 60 -54 11 3 17 -4 38 -49 5 -10 20 -23 33 -30 13 -7 25 -20 25 -30 1 -10 2 -24 3 -30 1 -7 10 -22 21 -33 12 -12 22 -38 25 -67 3 -26 8 -49 13 -52 14 -10 21 -38 12 -47 -5 -5 -5 -28 1 -53 7 -30 6 -48 -1 -55 -13 -13 -13 -59 1 -73 7 -7 3 -19 -16 -39 -19 -21 -24 -34 -20 -54 5 -22 1 -31 -20 -44 -15 -10 -31 -31 -37 -47 -5 -16 -19 -34 -29 -40 -23 -12 -25 -54 -4 -63 28 -10 45 5 45 40 0 32 2 34 20 24 39 -21 87 32 60 65 -15 18 -5 35 21 35 11 0 24 11 31 25 9 20 7 29 -7 52 -13 19 -14 28 -6 31 42 14 53 62 19 86 l-22 16 22 23 c29 31 28 51 -5 77 -27 21 -27 21 -9 51 21 36 13 67 -20 75 -21 5 -24 11 -19 28 10 29 9 66 -2 76 -4 5 -17 10 -28 12 -27 4 -36 18 -24 40 6 12 6 25 -1 38 -11 21 -17 23 -60 24 -20 1 -26 7 -28 31 -5 49 -46 70 -76 39z" id="150"/>
<path d="M5606 3661 c-12 -18 4 -51 24 -51 31 0 62 -33 65 -70 2 -23 9 -36 23 -41 28 -10 45 -45 39 -77 -4 -19 1 -33 18 -48 20 -18 24 -31 23 -73 -1 -29 4 -57 10 -63 15 -15 15 -61 1 -75 -8 -8 -8 -20 2 -42 13 -30 16 -31 55 -25 65 9 151 -19 319 -106 181 -94 207 -100 174 -38 -10 19 -15 38 -20 83 -1 11 1 37 5 57 5 21 6 49 2 62 -9 37 -86 146 -146 207 -30 31 -82 85 -116 120 -70 74 -143 120 -241 154 -79 27 -227 44 -237 26z" id="151"/>
<path d="M6286 3607 c-8 -35 -18 -70 -20 -78 -3 -8 4 -25 15 -38 l20 -24 23 23 c32 29 50 74 42 103 -6 26 -43 77 -56 77 -4 0 -15 -29 -24 -63z" id="152"/>
<path d="M4670 3627 c-134 -55 -332 -226 -429 -371 -66 -98 -175 -286 -169 -292 7 -6 78 79 181 218 136 182 304 343 452 432 69 41 50 48 -35 13z" id="153"/>
<path d="M1585 3581 c-89 -22 -182 -98 -205 -166 -34 -104 45 -276 154 -334 25 -14 28 -12 123 85 105 108 135 134 200 176 41 27 41 28 30 63 -32 107 -196 202 -302 176z" id="154"/>
<path d="M2003 3572 c-16 -26 -74 -52 -117 -52 -20 0 -36 -3 -36 -6 0 -3 11 -20 24 -37 14 -18 28 -44 31 -59 4 -16 10 -28 15 -28 13 0 125 77 148 102 l23 25 -37 37 c-20 20 -37 36 -38 36 0 0 -6 -8 -13 -18z" id="155"/>
<path d="M6831 3559 c-92 -17 -188 -100 -211 -185 -19 -65 -7 -135 35 -207 62 -110 79 -122 189 -133 59 -6 68 -4 124 26 95 50 158 145 169 255 5 45 1 60 -23 105 -55 101 -173 159 -283 139z" id="156"/>
<path d="M2900 3553 c-65 -11 -139 -37 -183 -65 -66 -42 -150 -153 -102 -134 25 9 56 -29 46 -56 -11 -32 -50 -36 -72 -7 -16 22 -17 21 -29 -48 -15 -85 -5 -172 45 -369 70 -279 194 -518 390 -749 81 -95 106 -138 155 -260 67 -169 109 -228 192 -269 61 -31 164 -37 174 -11 4 8 12 15 18 15 16 0 47 35 75 84 18 32 21 49 16 83 -9 58 -39 145 -71 202 -14 25 -18 39 -10 31 37 -37 106 -211 106 -267 0 -16 8 -27 27 -34 42 -16 126 -13 163 6 30 16 32 19 26 57 -4 22 -20 67 -37 100 -17 33 -25 57 -19 53 16 -10 48 -77 61 -129 10 -40 14 -45 27 -34 36 30 51 110 36 187 -6 26 -17 36 -80 66 -81 39 -128 87 -146 150 -7 22 -24 55 -39 72 -31 37 -59 118 -59 173 0 49 23 124 50 163 12 18 69 68 127 112 58 44 127 105 154 136 l48 56 -27 25 c-15 14 -54 42 -87 63 -78 48 -133 101 -208 200 -108 143 -148 185 -225 237 -189 127 -388 187 -542 161z m-162 -290 c5 -18 -28 -29 -38 -12 -5 7 -6 17 -3 22 7 12 35 5 41 -10z m-103 -43 c0 -18 -6 -26 -23 -28 -13 -2 -25 3 -28 12 -10 26 4 48 28 44 17 -2 23 -10 23 -28z m140 -60 c37 -40 -7 -100 -59 -80 -24 9 -31 25 -26 60 6 42 54 54 85 20z m-139 -55 c-3 -9 -14 -15 -23 -13 -22 4 -30 38 -11 49 18 11 43 -15 34 -36z m884 -1372 c11 -30 19 -70 19 -91 l-1 -37 -8 45 c-4 25 -19 74 -34 110 -14 36 -19 56 -11 46 8 -11 24 -44 35 -73z" id="157"/>
<path d="M6336 3473 l-37 -34 43 -42 c44 -42 278 -230 278 -223 0 2 -7 23 -15 46 -19 54 -19 131 0 177 8 20 14 38 12 39 -2 2 -20 -1 -41 -7 -55 -15 -126 4 -168 45 l-34 33 -38 -34z" id="158"/>
<path d="M2410 3410 c-185 -127 -287 -271 -261 -367 9 -33 7 -41 -19 -82 -24 -35 -30 -55 -30 -97 0 -29 5 -56 11 -60 17 -10 133 110 198 206 32 47 82 127 111 178 47 85 51 95 41 124 -15 43 -14 46 14 72 19 18 23 28 17 50 l-7 27 -75 -51z" id="159"/>
<path d="M1975 3398 c-331 -224 -475 -400 -499 -614 -17 -144 74 -357 174 -409 16 -8 49 -19 75 -25 46 -10 48 -10 96 27 27 20 49 37 49 38 0 0 -19 1 -43 3 -93 4 -199 63 -242 136 -76 130 -41 304 76 384 25 17 37 35 46 69 32 125 116 236 293 386 67 57 56 59 -25 5z" id="160"/>
<path d="M2071 3433 c0 -6 -43 -46 -93 -88 -51 -43 -104 -92 -118 -109 -13 -17 -33 -40 -43 -51 -22 -24 -84 -149 -93 -188 -6 -27 -5 -28 22 -20 85 24 237 -5 291 -54 30 -28 33 -28 33 -1 0 11 11 36 25 54 34 45 32 57 -17 74 -59 21 -81 56 -81 127 1 78 19 139 55 189 17 24 28 50 25 60 -3 11 -5 14 -6 7z" id="161"/>
<path d="M3583 3318 c24 -29 72 -95 106 -145 75 -111 119 -157 200 -212 34 -23 61 -40 61 -38 0 1 -16 40 -35 86 -44 107 -97 177 -192 252 -65 52 -159 109 -178 109 -4 0 13 -24 38 -52z" id="162"/>
<path d="M6311 3322 c-11 -20 -8 -28 20 -63 45 -56 63 -123 49 -175 -11 -36 -9 -51 16 -124 26 -75 27 -84 13 -108 -10 -18 -28 -29 -59 -37 -52 -13 -59 -29 -34 -77 23 -46 53 -77 94 -98 91 -47 164 -31 199 43 46 96 35 219 -30 355 -34 70 -59 103 -148 195 -104 107 -109 110 -120 89z" id="163"/>
<path d="M6455 3238 c111 -116 162 -201 191 -318 30 -120 0 -264 -63 -305 -49 -33 -102 -30 -195 10 -16 6 -17 3 -12 -23 5 -24 1 -36 -19 -56 -15 -15 -37 -26 -53 -26 -26 0 -27 -1 -21 -45 12 -86 73 -175 142 -206 55 -25 175 -25 230 0 57 26 121 100 163 189 35 72 37 83 37 172 0 191 -52 310 -206 474 -56 60 -255 226 -282 235 -7 2 33 -43 88 -101z" id="164"/>
<path d="M2456 3213 c-71 -144 -162 -272 -274 -383 -179 -178 -184 -237 -22 -261 43 -6 61 -15 82 -38 l27 -30 58 57 c68 67 124 171 149 277 10 43 17 128 19 221 3 108 8 162 19 189 20 46 20 45 -2 45 -12 0 -30 -24 -56 -77z" id="165"/>
<path d="M2520 3020 c-3 -203 -84 -405 -198 -498 -26 -20 -62 -53 -82 -72 -19 -19 -56 -47 -82 -62 -27 -15 -57 -42 -68 -60 -27 -44 -26 -102 1 -129 26 -26 56 -21 148 21 77 37 149 40 199 10 17 -11 32 -24 32 -30 0 -27 20 -4 43 50 32 72 73 264 82 381 7 87 -15 270 -37 312 -5 10 -16 46 -23 80 l-13 62 -2 -65z" id="166"/>
<path d="M5855 3073 c-16 -3 -39 -15 -50 -27 -17 -18 -18 -27 -10 -50 7 -21 5 -35 -8 -58 -10 -17 -16 -32 -15 -33 2 -1 60 -31 129 -67 137 -71 303 -178 375 -241 70 -61 85 -29 34 73 -16 32 -36 77 -44 99 l-14 41 33 20 c18 11 39 20 48 20 26 0 47 11 47 26 0 8 -10 14 -25 14 -14 0 -98 38 -188 84 -109 57 -181 88 -221 95 -33 6 -60 10 -60 10 -1 -1 -14 -4 -31 -6z" id="167"/>
<path d="M7100 3057 c-3 -3 -27 -7 -55 -9 -82 -7 -139 -47 -170 -120 -19 -46 -19 -84 -1 -168 17 -81 36 -119 83 -166 85 -85 202 -86 319 -2 63 45 97 118 97 206 0 111 -49 193 -140 234 -42 18 -124 34 -133 25z" id="168"/>
<path d="M6769 2992 c12 -17 32 -50 46 -74 14 -24 25 -36 25 -27 0 10 45 114 50 114 0 0 -17 0 -37 0 -21 0 -53 4 -72 9 l-34 8 22 -30z" id="169"/>
<path d="M1765 2961 c-81 -20 -152 -78 -182 -148 -7 -18 -13 -65 -13 -106 0 -87 31 -160 85 -202 124 -94 264 -87 348 17 27 33 29 41 19 63 -23 50 -9 118 36 175 18 23 18 29 6 72 -18 59 -56 92 -141 118 -67 21 -106 23 -158 11z" id="170"/>
<path d="M5750 2878 c1 -7 24 -39 53 -70 29 -31 119 -132 202 -224 144 -161 150 -166 156 -138 13 65 52 104 104 104 l30 1 -40 35 c-103 92 -506 325 -505 292z" id="171"/>
<path d="M5732 2827 c-7 -8 -24 -18 -39 -22 -23 -5 -25 -9 -20 -46 3 -21 14 -56 25 -77 10 -20 29 -68 42 -107 13 -38 56 -150 97 -249 41 -98 79 -190 84 -205 9 -23 12 -24 22 -10 34 45 90 46 184 3 143 -66 170 -4 76 180 -37 75 -72 120 -211 274 -92 102 -185 205 -207 230 -35 39 -42 43 -53 29z" id="172"/>
<path d="M5494 2756 c-29 -22 -47 -48 -64 -88 -13 -32 -27 -58 -32 -58 -4 0 -8 -24 -8 -53 0 -96 -61 -238 -155 -362 -77 -101 -115 -177 -122 -247 -11 -105 49 -213 142 -258 41 -20 49 -21 77 -9 18 7 59 13 92 14 l59 0 13 39 c8 21 21 77 30 125 15 77 15 107 4 276 -16 226 -16 437 0 559 6 49 10 89 8 91 -2 1 -21 -12 -44 -29z" id="173"/>
<path d="M5553 2733 c-10 -39 -10 -466 1 -658 9 -163 5 -194 -40 -353 l-7 -24 39 20 c63 33 77 66 69 171 -7 85 -6 90 15 101 18 10 27 8 58 -13 20 -14 58 -46 84 -71 122 -118 208 -135 208 -41 0 43 -50 185 -150 425 -45 107 -96 237 -115 290 -51 146 -64 171 -91 164 -12 -3 -31 -1 -43 5 -18 10 -21 8 -28 -16z" id="174"/>
<path d="M2597 2495 c-22 -141 -47 -226 -98 -326 -47 -95 -81 -125 -151 -133 -122 -15 -132 -18 -165 -51 -88 -88 9 -210 171 -216 65 -3 51 -12 163 114 27 29 79 37 101 15 7 -7 12 -36 12 -66 0 -47 2 -53 15 -42 8 7 27 37 42 69 28 55 28 58 26 227 -1 94 -9 219 -18 280 -17 113 -53 235 -70 241 -6 2 -18 -46 -28 -112z" id="175"/>
<path d="M5275 2486 c-49 -44 -123 -114 -163 -154 -90 -91 -92 -110 -17 -159 27 -18 55 -33 61 -33 18 0 121 146 158 224 38 80 60 152 54 183 -2 17 -18 7 -93 -61z" id="176"/>
<path d="M6974 2535 c2 -11 16 -51 30 -90 37 -106 48 -213 50 -510 1 -262 2 -271 25 -315 31 -60 57 -87 96 -100 59 -19 119 24 163 119 22 48 24 62 20 150 -4 74 -13 115 -36 179 -41 110 -138 293 -217 412 -73 108 -139 186 -131 155z" id="177"/>
<path d="M2700 2495 c0 -6 5 -26 11 -45 13 -43 24 -231 24 -410 0 -153 -13 -194 -79 -267 -75 -83 -29 -183 85 -183 71 0 97 22 123 103 3 11 -1 46 -10 80 -18 71 -13 104 21 119 19 9 30 7 59 -12 20 -12 48 -37 62 -56 30 -38 62 -53 75 -33 14 22 10 110 -6 165 -10 35 -39 79 -100 153 -101 122 -151 194 -217 311 -26 47 -48 80 -48 75z" id="178"/>
<path d="M7098 2428 c22 -29 62 -91 89 -138 28 -47 86 -146 131 -221 95 -161 127 -232 143 -323 22 -130 -19 -288 -98 -376 -56 -63 -107 -90 -169 -90 -40 0 -51 5 -80 35 -37 40 -49 85 -40 152 8 61 -11 46 -50 -40 -25 -54 -29 -74 -29 -152 0 -81 3 -95 30 -144 34 -62 83 -101 161 -131 207 -77 441 88 510 360 22 89 15 267 -16 365 -64 205 -241 443 -487 654 -65 56 -121 101 -126 101 -4 0 10 -24 31 -52z" id="179"/>
<path d="M1910 2390 c-76 -96 -201 -306 -252 -420 -94 -215 -103 -359 -30 -469 58 -86 118 -102 178 -48 75 65 78 82 85 442 7 340 14 393 68 518 11 26 17 47 13 47 -4 0 -32 -31 -62 -70z" id="180"/>
<path d="M1790 2324 c-121 -103 -271 -258 -344 -354 -92 -122 -137 -204 -178 -321 -30 -88 -32 -103 -33 -229 0 -147 10 -193 67 -302 39 -73 131 -161 205 -195 155 -71 330 -22 411 116 24 41 27 56 27 141 0 84 -3 102 -29 157 -43 94 -54 97 -49 16 4 -59 2 -72 -19 -103 -50 -75 -127 -85 -211 -29 -81 53 -135 154 -156 287 -20 131 8 237 107 407 33 55 92 156 132 225 40 69 87 145 104 170 64 90 58 92 -34 14z" id="181"/>
<path d="M4963 2140 c-157 -255 -230 -325 -365 -354 -32 -7 -38 -26 -9 -26 11 0 33 -12 50 -26 38 -32 49 -80 27 -122 l-15 -30 33 -6 c18 -4 42 -16 52 -28 45 -50 129 -61 204 -27 58 26 96 63 126 122 34 67 40 122 19 202 -19 79 -15 123 19 208 l24 58 -29 14 c-16 9 -44 29 -63 46 l-35 30 -38 -61z" id="182"/>
<path d="M7364 1909 c19 -89 24 -155 16 -200 -18 -96 -56 -158 -118 -196 -45 -28 -67 -29 -115 -4 l-37 19 -10 -37 c-15 -55 -12 -103 10 -138 25 -42 54 -56 106 -50 84 9 167 97 205 218 30 95 23 248 -15 342 -32 76 -53 100 -42 46z" id="183"/>
<path d="M1552 1803 c-45 -100 -55 -151 -50 -256 8 -145 58 -248 146 -307 65 -43 130 -43 166 1 32 38 40 67 33 125 -6 59 -16 68 -53 49 -80 -42 -169 14 -215 136 -23 61 -25 172 -4 253 9 33 14 61 12 63 -2 2 -18 -27 -35 -64z" id="184"/>
<path d="M2884 1819 c4 -24 11 -73 15 -109 9 -78 52 -181 206 -495 162 -327 249 -435 355 -435 42 0 52 4 74 31 56 66 77 146 51 195 -21 40 -19 93 6 133 11 18 19 34 17 35 -2 0 -18 9 -37 19 -31 16 -35 16 -43 3 -13 -24 -59 -44 -115 -52 -97 -12 -183 48 -284 199 -76 114 -139 244 -189 394 -41 122 -69 164 -56 82z" id="185"/>
<path d="M3116 1807 c-15 -78 -72 -85 -138 -16 -20 21 -39 39 -42 39 -9 0 34 -113 74 -196 87 -180 203 -315 297 -349 26 -9 82 -19 123 -22 l75 -6 -3 45 c-5 57 18 103 64 130 l34 20 -20 25 c-11 14 -20 36 -20 50 0 21 -3 23 -27 16 -47 -13 -136 -8 -182 10 -90 37 -150 103 -201 225 l-27 64 -7 -35z" id="186"/>
<path d="M4258 1832 c-14 -6 -7 -15 37 -49 70 -54 128 -129 156 -200 19 -49 23 -77 24 -178 0 -111 -2 -124 -27 -176 -16 -31 -28 -60 -28 -66 0 -22 -86 -105 -134 -130 -141 -71 -305 -17 -405 134 -76 114 -96 294 -48 431 20 58 22 72 10 68 -8 -3 -21 -6 -28 -6 -23 0 -39 -106 -39 -245 0 -119 3 -137 30 -215 69 -197 191 -309 346 -318 81 -5 151 23 221 87 119 110 175 341 132 546 -21 101 -84 222 -144 278 -49 46 -68 53 -103 39z" id="187"/>
<path d="M4400 1815 c0 -18 26 -55 47 -64 33 -15 54 -14 81 5 31 21 28 34 -8 34 -17 0 -47 7 -67 15 -36 15 -53 19 -53 10z" id="188"/>
<path d="M4050 1801 c-115 -35 -201 -153 -219 -300 -45 -360 292 -621 513 -398 80 80 115 171 116 297 0 74 -20 161 -51 222 -29 58 -113 143 -163 168 -44 21 -144 26 -196 11z" id="189"/>
<path d="M4524 1716 c-54 -46 -30 -127 43 -142 27 -5 37 -1 63 24 39 39 39 74 1 113 -36 35 -70 37 -107 5z" id="190"/>
<path d="M5130 1703 c0 -40 -23 -121 -48 -169 -26 -51 -89 -108 -136 -124 -37 -12 -106 -10 -138 4 -13 6 -19 2 -24 -18 -3 -15 -24 -41 -46 -60 -30 -26 -35 -35 -23 -39 8 -4 24 -21 35 -39 34 -56 23 -127 -25 -172 l-24 -23 49 -56 c95 -105 152 -122 219 -62 21 19 48 58 60 86 47 108 56 163 114 672 2 15 0 27 -5 27 -4 0 -8 -12 -8 -27z" id="191"/>
<path d="M5142 1488 c-38 -340 -70 -461 -147 -546 -42 -46 -44 -47 -103 -47 -58 0 -60 -1 -44 -19 44 -47 107 -58 159 -27 45 28 99 143 123 261 31 157 73 560 59 576 -6 8 -14 14 -18 14 -3 0 -17 -96 -29 -212z" id="192"/>
<path d="M5081 1623 c-32 -77 -142 -144 -237 -145 -61 -1 -70 -14 -25 -41 56 -33 147 -11 203 49 30 33 82 138 76 156 -2 6 -10 -2 -17 -19z" id="193"/>
<path d="M3606 1589 c-31 -37 -33 -67 -5 -103 27 -35 86 -36 117 -3 32 34 30 89 -4 116 -39 31 -77 27 -108 -10z" id="194"/>
<path d="M4615 1550 c-11 -4 -31 -20 -45 -35 -35 -37 -35 -112 -1 -149 52 -55 132 -51 179 9 26 33 29 100 6 133 -30 43 -92 62 -139 42z" id="195"/>
<path d="M3578 1414 c-34 -18 -58 -62 -58 -108 0 -26 9 -44 34 -70 28 -31 40 -36 77 -36 51 0 83 18 104 60 53 103 -56 210 -157 154z" id="196"/>
<path d="M3130 1384 c0 -5 24 -40 53 -79 89 -118 160 -156 250 -135 36 8 87 44 87 60 0 4 -26 8 -58 8 -122 2 -201 31 -277 103 -30 29 -55 48 -55 43z" id="197"/>
<path d="M4560 1272 c-77 -77 -27 -202 80 -202 42 0 75 21 95 60 28 53 11 120 -37 154 -12 9 -42 16 -66 16 -35 0 -49 -6 -72 -28z" id="198"/>
<path d="M3040 1280 c0 -25 174 -373 221 -441 84 -123 161 -188 226 -189 62 0 143 130 142 227 l0 58 -20 -45 c-43 -97 -107 -148 -167 -134 -110 27 -199 132 -324 383 -43 86 -78 149 -78 141z" id="199"/>
<path d="M3664 1176 c-77 -33 -99 -127 -45 -188 26 -29 35 -33 80 -33 43 0 55 5 82 31 53 54 48 133 -11 175 -36 25 -71 30 -106 15z" id="200"/>
<path d="M4483 1045 c-79 -34 -84 -164 -8 -205 62 -33 135 -7 162 58 21 50 2 107 -46 139 -39 26 -63 28 -108 8z" id="201"/>
<path d="M3803 960 c-68 -27 -82 -141 -24 -192 55 -50 149 -30 177 37 18 44 18 59 -2 101 -26 55 -91 78 -151 54z" id="202"/>
<path d="M4682 889 c-5 -64 -55 -227 -95 -312 -103 -216 -236 -327 -392 -326 -108 0 -184 42 -271 149 -67 83 -124 181 -165 281 -34 86 -55 107 -33 34 74 -247 217 -461 352 -527 60 -30 75 -33 152 -33 104 1 172 28 240 97 124 129 226 405 217 592 -1 39 -4 59 -5 45z" id="203"/>
<path d="M4283 870 c-40 -24 -53 -48 -53 -100 0 -57 50 -110 104 -110 53 0 95 25 113 67 21 51 10 95 -33 132 -41 37 -84 40 -131 11z" id="204"/>
<path d="M4627 845 c-20 -28 -81 -48 -123 -39 -28 5 -29 4 -30 -39 -2 -79 -54 -127 -138 -127 -36 0 -52 6 -80 31 l-35 30 -16 -31 c-11 -20 -32 -39 -61 -51 -37 -17 -50 -18 -85 -9 -52 14 -84 46 -100 98 -12 41 -12 41 -40 27 -36 -19 -92 -19 -129 0 -24 13 -30 13 -30 2 0 -30 114 -237 169 -308 94 -120 180 -166 292 -156 192 17 351 226 433 570 8 33 -3 34 -27 2z" id="205"/>
<path d="M4032 840 c-66 -41 -75 -125 -20 -181 59 -58 162 -33 188 46 33 101 -79 191 -168 135z" id="206"/>
</g>
</svg>