<?xml version="1.0" ?><!DOCTYPE svg  PUBLIC '-//W3C//DTD SVG 20010904//EN'  'http://www.w3.org/TR/2001/REC-SVG-20010904/DTD/svg10.dtd'><svg height="850.000000pt" preserveAspectRatio="xMidYMid meet" version="1.0" viewBox="0 0 850.000000 850.000000" width="850.000000pt" xmlns="http://www.w3.org/2000/svg">
<metadata>
Created by potrace 1.14, written by Peter Selinger 2001-2017
</metadata>
<g fill="#ffffff" stroke="none" transform="translate(0.000000,850.000000) scale(0.100000,-0.100000)">
<path d="M0 4250 l0 -4250 4250 0 4250 0 0 4250 0 4250 -4250 0 -4250 0 0 -4250z m7590 3344 c172 -51 287 -225 252 -382 -10 -41 -9 -43 18 -57 139 -72 334 -415 370 -650 17 -112 0 -243 -42 -328 -17 -34 -18 -45 -7 -120 15 -104 14 -420 0 -557 -15 -137 -43 -236 -91 -329 -55 -104 -106 -160 -208 -228 -128 -86 -157 -96 -957 -339 -104 -31 -300 -97 -435 -146 -378 -138 -542 -178 -720 -178 -214 1 -412 94 -494 234 -75 129 -125 545 -112 936 5 133 2 232 -9 350 -14 152 -17 166 -39 185 -116 97 -68 371 96 550 102 111 187 171 447 317 539 303 983 475 1405 546 l107 18 37 49 c20 26 54 62 74 78 77 62 201 83 308 51z m-3803 -770 c92 -69 95 -212 12 -506 -22 -77 -37 -144 -34 -149 12 -18 25 -8 46 34 31 60 151 238 226 335 67 86 110 118 145 106 31 -10 102 -78 157 -153 49 -66 188 -301 222 -376 25 -55 24 -106 -3 -135 -27 -28 -118 -70 -220 -100 -43 -13 -78 -25 -78 -27 0 -3 18 -25 40 -50 78 -89 112 -200 90 -292 -10 -44 -9 -63 14 -164 14 -63 28 -138 32 -168 l6 -55 64 -33 c89 -46 157 -110 191 -179 45 -91 39 -161 -30 -347 -81 -224 -140 -332 -274 -506 -262 -343 -640 -636 -987 -764 -114 -42 -302 -95 -449 -126 -56 -12 -106 -25 -110 -29 -4 -4 -5 -19 -1 -34 6 -24 10 -26 60 -26 98 0 288 -31 378 -61 153 -51 283 -154 307 -243 16 -58 -2 -105 -58 -161 -95 -93 -239 -143 -497 -172 -217 -25 -856 -25 -1040 0 -259 35 -412 80 -518 153 -198 135 -166 313 73 402 78 29 280 70 418 85 112 12 115 13 124 41 6 17 6 31 0 37 -5 5 -58 18 -118 29 -380 70 -714 216 -975 427 -41 34 -125 112 -186 174 -179 185 -310 372 -434 621 -37 75 -82 154 -99 175 -17 21 -40 62 -51 91 -56 149 8 272 203 390 80 50 87 56 87 86 0 18 11 95 25 172 14 76 22 153 19 171 -19 101 135 302 317 416 131 81 291 139 476 170 l92 16 90 77 c219 188 420 284 656 313 175 21 358 7 510 -39 110 -34 262 -113 356 -185 l86 -65 119 17 119 18 18 80 c10 44 38 167 63 274 46 208 54 225 117 248 51 20 170 12 204 -13z m2821 -2924 c230 -25 380 -66 632 -172 91 -39 251 -103 356 -143 105 -40 229 -92 274 -116 100 -52 229 -170 296 -271 149 -224 174 -511 73 -848 -30 -102 -31 -111 -30 -280 1 -96 -3 -199 -9 -229 -22 -115 -84 -207 -169 -251 -26 -13 -43 -30 -50 -51 -17 -50 -93 -149 -168 -220 -176 -165 -449 -292 -763 -354 -531 -104 -1146 -112 -1727 -24 -437 66 -766 209 -980 426 -62 63 -153 188 -204 280 -9 16 -41 44 -72 61 -105 60 -138 149 -101 280 14 49 19 98 18 182 0 110 -2 121 -47 250 -95 280 -86 486 32 725 144 289 389 465 771 554 256 60 1058 186 1300 204 109 8 480 6 568 -3z" id="1"/>
<path d="M7396 7465 c-122 -43 -187 -207 -128 -322 29 -56 64 -78 123 -77 156 2 304 235 221 351 -40 56 -134 78 -216 48z m102 -41 c28 -20 28 -55 0 -82 -53 -48 -112 -33 -110 29 2 59 61 88 110 53z m-128 -124 c0 -21 -15 -27 -25 -10 -7 12 2 30 16 30 5 0 9 -9 9 -20z" id="2"/>
<path d="M7427 7393 c-14 -14 -7 -43 11 -43 21 0 42 18 42 37 0 13 -41 18 -53 6z" id="3"/>
<path d="M7670 7319 c0 -102 -104 -237 -212 -277 l-51 -19 36 -7 c161 -30 308 139 256 295 -19 54 -29 57 -29 8z" id="4"/>
<path d="M7001 7294 c-223 -49 -570 -173 -796 -284 -158 -78 -254 -134 -650 -378 -223 -138 -335 -246 -379 -362 -41 -110 -36 -183 14 -210 31 -16 55 3 85 67 51 109 115 152 174 117 34 -20 54 -55 76 -137 19 -69 46 -101 78 -91 36 11 55 33 72 84 26 79 83 116 162 104 53 -8 99 -38 131 -84 22 -32 24 -42 18 -125 -3 -49 -13 -117 -22 -150 -10 -33 -18 -96 -18 -140 -1 -68 3 -88 26 -131 30 -57 85 -110 124 -120 39 -10 99 12 128 47 35 41 34 91 -5 226 -37 128 -42 216 -16 256 26 40 76 67 124 67 54 0 78 -29 88 -106 10 -84 58 -120 99 -75 15 17 17 32 11 119 -6 84 -5 103 10 125 20 31 90 67 128 67 70 0 159 -67 202 -151 32 -61 51 -140 70 -285 20 -160 38 -216 76 -248 49 -42 102 -28 134 34 32 62 20 99 -88 285 -52 88 -60 129 -42 202 8 36 63 91 96 98 44 10 81 -10 129 -66 23 -27 52 -57 65 -65 21 -14 27 -14 53 0 38 20 43 33 52 143 11 131 39 165 124 149 48 -9 77 -43 108 -128 17 -45 40 -86 59 -104 l31 -29 24 28 c33 38 35 98 8 191 -36 125 6 216 99 216 46 0 78 -28 122 -105 36 -65 58 -85 93 -85 35 0 45 26 44 108 -2 147 -73 362 -164 498 -51 76 -134 158 -193 190 l-33 18 -51 -47 c-118 -106 -301 -108 -409 -4 -55 53 -85 121 -90 210 l-5 77 -56 -1 c-31 -1 -85 -7 -120 -15z m863 -630 c47 -18 -10 -62 -213 -164 -228 -114 -453 -184 -691 -215 -130 -17 -160 -14 -160 15 0 15 10 20 58 25 209 23 334 49 499 106 133 46 308 127 413 192 87 54 75 48 94 41z m-2311 -280 c17 -10 57 -25 87 -34 44 -13 56 -21 58 -39 4 -22 1 -24 -35 -18 -98 13 -233 93 -233 137 0 30 23 29 58 -1 18 -16 47 -36 65 -45z m493 -114 c25 -10 32 -34 14 -45 -15 -9 -84 4 -106 19 -11 8 -15 19 -11 31 6 14 14 16 43 10 20 -3 47 -10 60 -15z" id="5"/>
<path d="M7830 6365 c-13 -15 -11 -44 10 -155 22 -111 -18 -231 -82 -254 -38 -13 -101 17 -131 63 -13 20 -35 65 -47 99 -17 47 -28 64 -46 68 -44 11 -54 -1 -54 -63 0 -108 -33 -173 -106 -208 -51 -24 -77 -14 -160 67 -47 45 -79 69 -91 66 -10 -1 -26 -20 -37 -41 -23 -49 -15 -80 50 -191 l46 -78 46 7 c50 7 65 15 44 22 -24 9 -72 55 -72 69 0 26 29 26 61 0 17 -14 35 -26 41 -26 6 0 8 -12 5 -26 l-5 -27 118 7 c143 8 198 23 311 87 117 66 190 98 272 118 37 9 68 20 68 24 -1 4 -1 16 -1 27 0 18 -7 20 -64 20 -67 0 -80 7 -70 34 5 12 21 16 71 16 l66 0 -7 31 c-3 17 -6 39 -6 49 0 11 -11 22 -27 28 -36 12 -78 54 -94 95 -31 79 -78 110 -109 72z m-253 -451 c4 -27 -49 -98 -75 -102 -30 -5 -28 18 5 71 41 62 65 73 70 31z" id="6"/>
<path d="M5388 6176 c-9 -8 -34 -49 -57 -90 -22 -40 -52 -83 -67 -93 l-26 -19 7 -220 7 -219 50 -49 c28 -26 75 -60 107 -75 51 -24 67 -26 181 -26 101 0 149 5 250 29 69 15 127 30 129 31 1 2 -9 19 -23 37 -37 49 -63 115 -71 179 -5 43 -1 80 21 170 15 62 28 142 28 176 1 55 -2 65 -28 92 -36 38 -87 49 -119 28 -14 -9 -33 -41 -46 -76 -26 -72 -58 -101 -112 -101 -81 0 -128 41 -160 138 -12 37 -29 75 -39 85 -15 17 -19 17 -32 3z m450 -231 c1 -22 -1 -60 -6 -85 -6 -37 -12 -46 -31 -48 l-23 -4 7 84 c8 94 10 100 33 96 12 -2 18 -15 20 -43z m-412 -84 c80 -61 87 -68 81 -85 -10 -25 -34 -19 -88 24 -28 22 -55 40 -60 40 -10 0 -12 33 -2 43 12 13 30 7 69 -22z m309 -195 c28 -66 28 -96 0 -96 -10 0 -27 25 -45 66 -36 80 -37 94 -6 94 20 0 28 -11 51 -64z m-184 -92 c11 -13 6 -21 -32 -55 -45 -40 -80 -56 -98 -44 -18 11 -12 34 12 46 12 7 37 25 55 40 38 33 45 35 63 13z" id="7"/>
<path d="M6596 6095 c-14 -14 -16 -26 -9 -59 12 -63 8 -158 -10 -191 -28 -55 -51 -68 -108 -63 -64 7 -82 25 -112 112 -28 84 -47 100 -79 68 -31 -31 -29 -80 11 -217 17 -61 31 -130 31 -153 l0 -42 91 0 c78 0 101 4 167 31 50 20 105 33 157 38 44 4 94 14 110 22 29 14 30 16 27 79 -4 87 -27 168 -73 267 -44 93 -65 111 -136 119 -39 5 -53 3 -67 -11z m191 -161 c7 -18 -34 -111 -53 -118 -7 -3 -18 2 -25 10 -10 13 -8 25 14 70 27 54 52 69 64 38z m-187 -218 c64 -10 75 -15 75 -31 0 -18 -7 -20 -55 -19 -85 0 -130 12 -130 33 0 35 1 35 110 17z" id="8"/>
<path d="M8000 5915 c-25 -8 -112 -48 -195 -89 -179 -90 -234 -106 -384 -111 -63 -2 -137 -9 -164 -16 -43 -10 -48 -14 -43 -33 4 -11 9 -39 12 -62 l6 -41 167 33 c167 32 199 42 345 107 43 19 137 50 210 68 72 17 132 33 134 34 2 2 0 30 -4 64 -7 68 -9 69 -84 46z" id="9"/>
<path d="M7971 5724 c-52 -14 -147 -47 -211 -74 -121 -50 -178 -67 -320 -95 -184 -35 -213 -45 -243 -81 -16 -19 -42 -41 -57 -49 -33 -17 -112 -20 -139 -5 -12 6 -38 6 -72 0 -30 -5 -89 -14 -132 -20 -43 -5 -131 -28 -195 -51 -73 -25 -173 -49 -265 -65 -82 -14 -178 -36 -215 -50 -170 -66 -172 -66 -342 -75 -94 -4 -189 -15 -220 -24 -30 -8 -90 -18 -132 -22 -73 -6 -80 -4 -118 21 l-41 27 3 -118 3 -118 60 -17 c48 -13 88 -15 200 -11 138 6 141 7 215 45 84 42 82 42 305 32 182 -8 229 2 390 81 152 75 209 88 385 90 168 2 208 13 411 115 143 72 187 85 364 105 127 14 147 19 220 55 44 22 119 51 166 65 l86 25 7 52 c11 92 7 188 -6 187 -7 0 -55 -12 -107 -25z m54 -74 c9 -15 -84 -120 -101 -113 -23 9 -16 37 22 81 34 40 66 53 79 32z m-311 -156 c19 -7 21 -40 4 -46 -7 -3 -52 -3 -100 0 -85 4 -88 5 -88 28 0 23 2 24 84 24 46 0 91 -3 100 -6z m-484 -145 c0 -15 -16 -27 -65 -50 -35 -16 -71 -29 -80 -29 -14 0 -17 4 -19 31 -1 13 110 67 142 68 16 1 22 -5 22 -20z m-504 -53 c7 -18 -49 -101 -77 -116 -10 -6 -24 -8 -29 -5 -14 9 -12 43 3 52 6 4 25 25 40 46 29 38 54 47 63 23z m-288 -80 c5 -23 -104 -146 -129 -146 -30 0 -22 26 27 88 68 85 94 100 102 58z m-480 -128 c-3 -22 -8 -23 -90 -26 -80 -3 -88 -1 -88 16 0 29 8 32 97 32 82 0 84 -1 81 -22z m-402 -83 c51 -30 70 -58 50 -74 -17 -14 -125 46 -126 70 0 36 19 37 76 4z" id="10"/>
<path d="M6859 5590 c-9 -5 -55 -14 -102 -19 -51 -6 -110 -21 -148 -37 -52 -22 -87 -28 -181 -34 l-118 -7 -53 -50 c-63 -60 -96 -69 -180 -53 -58 11 -72 10 -217 -24 -188 -43 -293 -53 -375 -36 -67 14 -137 46 -183 84 -16 15 -33 26 -36 26 -4 0 -5 -46 -4 -102 l3 -103 64 -34 c73 -38 109 -41 216 -15 49 12 116 17 225 18 l155 1 120 57 c128 61 163 71 319 88 100 12 124 18 256 65 51 19 110 30 185 37 60 5 114 13 118 17 4 4 1 21 -8 37 -8 16 -18 44 -21 62 -7 34 -10 37 -35 22z" id="11"/>
<path d="M7991 5430 c-36 -10 -101 -36 -145 -59 -74 -37 -92 -42 -221 -56 -178 -20 -218 -31 -393 -116 -198 -95 -218 -100 -417 -109 -193 -9 -238 -20 -371 -96 -130 -74 -148 -78 -324 -74 -85 1 -182 3 -215 4 -50 1 -73 -5 -139 -37 -73 -34 -85 -37 -165 -37 -47 1 -102 -4 -121 -9 -53 -16 -110 -13 -159 9 l-44 20 7 -52 c14 -107 22 -124 69 -143 68 -27 133 -29 222 -7 46 12 110 20 150 20 60 -1 82 4 150 35 56 25 128 45 240 67 243 47 298 64 405 129 146 89 180 97 333 81 134 -15 185 -3 394 89 129 57 179 74 271 90 147 27 184 37 261 73 58 27 89 35 216 56 41 7 43 11 69 115 7 31 10 31 -73 7z" id="12"/>
<path d="M7943 5249 c-28 -5 -96 -26 -150 -48 -54 -21 -129 -46 -168 -55 -38 -9 -110 -25 -160 -36 -51 -12 -147 -47 -224 -81 -181 -81 -232 -94 -346 -83 -143 13 -193 8 -255 -25 -223 -118 -206 -111 -529 -185 -62 -14 -156 -44 -207 -66 -84 -36 -103 -40 -176 -40 -46 -1 -112 -7 -148 -15 -78 -17 -142 -19 -193 -4 -22 6 -41 8 -44 5 -9 -9 38 -75 79 -111 63 -53 136 -77 255 -83 191 -9 393 29 852 159 670 190 1041 308 1179 376 l77 38 13 65 c12 62 26 84 47 76 6 -2 9 -24 8 -50 l-3 -47 29 22 c34 25 78 85 110 146 23 46 25 54 14 52 -5 -1 -31 -5 -60 -10z m-358 -217 c27 -15 51 -34 53 -43 6 -31 -29 -30 -84 2 -58 33 -69 43 -59 59 10 16 37 11 90 -18z m-222 -65 c3 -8 1 -20 -4 -28 -5 -8 -9 -24 -9 -35 0 -31 -26 -50 -45 -34 -15 12 -13 35 6 88 9 24 44 30 52 9z m-192 -43 c11 -14 7 -22 -35 -61 -44 -42 -49 -44 -64 -29 -15 15 -13 19 28 61 49 50 52 51 71 29z m-371 -114 c59 -30 76 -55 44 -67 -8 -3 -39 6 -67 20 -29 14 -61 27 -72 29 -12 2 -21 12 -23 26 -3 19 1 22 28 22 17 0 57 -14 90 -30z m-322 -120 c3 -19 -85 -83 -104 -76 -21 8 -17 30 9 53 48 44 89 53 95 23z m-298 -20 c20 -12 1 -45 -71 -124 -53 -57 -59 -60 -74 -45 -16 15 -12 22 51 98 37 44 70 81 73 81 3 0 13 -4 21 -10z m-335 -155 c0 -17 -11 -22 -74 -32 -77 -13 -101 -7 -101 23 0 18 67 33 140 30 28 -1 35 -5 35 -21z" id="13"/>
<path d="M3643 6743 c-13 -2 -30 -14 -38 -26 -20 -28 -4 -45 55 -58 83 -19 146 28 88 65 -27 17 -74 25 -105 19z" id="14"/>
<path d="M3562 6554 c-6 -31 -9 -61 -6 -65 8 -13 104 -9 144 5 33 12 46 33 49 78 1 13 -5 16 -31 12 -30 -5 -91 5 -128 20 -13 5 -18 -5 -28 -50z" id="15"/>
<path d="M4095 6449 c-66 -71 -213 -276 -231 -323 -10 -25 24 -19 37 7 16 31 50 67 63 67 6 -1 36 -23 66 -50 l55 -49 -38 -39 c-49 -50 -32 -66 22 -23 21 17 43 31 47 31 5 0 29 -18 53 -39 49 -42 48 -54 -3 -77 -23 -10 -26 -13 -11 -13 61 -1 325 83 325 104 0 20 -118 252 -161 316 -48 70 -130 169 -140 169 -4 0 -41 -37 -84 -81z m142 -83 c40 -54 50 -73 42 -87 -5 -10 -43 -48 -85 -84 l-77 -67 -60 61 -61 60 37 54 c65 95 108 138 131 135 12 -2 42 -31 73 -72z m139 -200 c19 -41 34 -81 34 -89 0 -12 -122 -77 -145 -77 -13 0 -105 92 -104 105 0 13 150 134 167 134 7 1 29 -32 48 -73z" id="16"/>
<path d="M4096 6328 l-55 -73 39 -39 39 -39 60 52 c34 29 61 58 61 63 0 14 -72 108 -82 108 -4 0 -32 -33 -62 -72z" id="17"/>
<path d="M4263 6148 c-29 -22 -53 -44 -53 -47 0 -4 13 -20 29 -35 l29 -28 51 23 c29 12 50 27 48 33 -31 77 -40 96 -46 96 -3 0 -30 -19 -58 -42z" id="18"/>
<path d="M3614 6433 l-82 -4 -6 -37 c-10 -62 -10 -62 47 -62 82 0 124 15 131 48 4 15 9 35 12 45 3 10 0 16 -8 15 -7 -1 -50 -4 -94 -5z" id="19"/>
<path d="M2180 6393 c-150 -23 -329 -90 -437 -164 -51 -35 -163 -137 -163 -149 0 -4 51 -10 113 -13 132 -8 295 -43 398 -86 123 -52 271 -178 345 -295 16 -25 32 -45 35 -46 3 0 15 19 25 42 28 63 122 185 191 249 76 70 181 140 268 180 l67 30 -23 25 c-35 38 -146 109 -222 143 -79 36 -186 66 -284 80 -68 10 -258 13 -313 4z m257 -65 c29 -27 29 -50 0 -84 -44 -51 -117 -22 -117 46 0 58 71 81 117 38z m-183 -14 c43 -42 -3 -104 -61 -83 -37 12 -48 44 -27 76 17 27 65 31 88 7z m-134 -73 c0 -14 -18 -23 -30 -16 -6 4 -8 11 -5 16 8 12 35 12 35 0z" id="20"/>
<path d="M2361 6306 c-14 -17 1 -56 22 -56 33 0 50 53 21 64 -23 9 -30 8 -43 -8z" id="21"/>
<path d="M2194 6289 c-9 -16 12 -33 31 -25 14 5 15 9 5 21 -15 18 -26 19 -36 4z" id="22"/>
<path d="M3583 6283 l-83 -4 -8 -32 c-8 -30 -7 -32 22 -39 17 -4 57 -10 88 -13 l57 -7 10 39 c13 45 14 64 4 61 -5 -1 -45 -4 -90 -5z" id="23"/>
<path d="M3940 6130 c-25 -36 -23 -50 14 -70 25 -13 29 -12 53 13 15 14 25 28 22 29 -2 2 -18 16 -35 31 l-32 28 -22 -31z" id="24"/>
<path d="M3220 6125 c-308 -62 -569 -262 -691 -530 -29 -65 -38 -115 -19 -115 6 0 33 35 60 78 105 164 128 184 211 184 100 0 138 -58 148 -225 6 -103 8 -110 34 -133 35 -30 42 -30 72 1 22 21 25 33 25 90 0 72 13 105 57 147 56 54 137 72 192 44 43 -23 89 -81 97 -123 4 -20 1 -85 -6 -144 -12 -100 -11 -110 6 -146 16 -31 25 -39 52 -41 85 -8 94 70 31 254 -32 92 -40 128 -36 162 8 70 70 122 146 122 53 0 110 -49 141 -123 13 -28 24 -47 26 -42 2 6 10 44 18 85 12 58 22 80 43 99 54 47 144 7 210 -95 78 -120 120 -148 156 -103 28 35 18 114 -27 204 -28 56 -48 81 -98 121 -162 130 -315 204 -482 233 -80 15 -286 12 -366 -4z" id="25"/>
<path d="M4087 6009 c-26 -20 -26 -22 -10 -34 12 -9 25 -10 45 -3 32 11 35 20 12 42 -19 19 -13 20 -47 -5z" id="26"/>
<path d="M1367 5994 c-160 -29 -289 -84 -442 -188 -149 -102 -255 -212 -255 -265 0 -46 65 -22 151 57 68 62 108 82 173 89 40 3 60 0 95 -19 62 -32 83 -75 79 -158 -3 -58 -10 -75 -55 -150 -60 -97 -82 -168 -65 -206 7 -13 18 -24 27 -24 22 0 40 35 75 150 18 58 41 121 51 141 21 43 74 79 114 79 44 0 97 -63 119 -141 27 -97 34 -111 54 -107 32 6 52 66 52 161 0 59 5 98 15 117 33 64 124 78 213 34 73 -36 114 -89 140 -178 40 -135 76 -121 79 32 2 76 7 102 25 135 28 50 80 87 123 87 33 0 50 -10 171 -98 39 -29 78 -52 88 -52 9 0 21 11 27 24 10 21 6 35 -27 96 -140 260 -433 401 -829 399 -66 0 -155 -7 -198 -15z m108 -69 c32 -32 31 -50 -4 -86 -35 -35 -81 -39 -111 -9 -24 24 -25 48 -4 78 32 46 84 53 119 17z m-190 -25 c36 -40 9 -110 -43 -110 -36 0 -62 27 -62 66 0 57 68 85 105 44z m65 -125 c0 -8 -6 -15 -14 -15 -17 0 -28 14 -19 24 12 12 33 6 33 -9z" id="27"/>
<path d="M1392 5898 c-23 -23 -14 -48 17 -48 32 0 56 22 47 45 -6 18 -47 20 -64 3z" id="28"/>
<path d="M1214 5865 c-4 -9 -2 -21 4 -27 16 -16 47 -5 47 17 0 26 -42 34 -51 10z" id="29"/>
<path d="M3841 5737 c-16 -20 -51 -200 -40 -211 18 -20 37 16 41 79 4 72 28 116 69 125 21 5 22 7 6 13 -29 11 -64 8 -76 -6z" id="30"/>
<path d="M2720 5689 c-39 -24 -45 -32 -113 -141 -26 -42 -61 -88 -79 -101 -20 -17 -29 -30 -25 -41 16 -40 64 4 126 114 59 103 95 130 184 130 31 0 57 4 57 9 0 19 -53 51 -84 51 -17 0 -47 -10 -66 -21z" id="31"/>
<path d="M3521 5684 c-26 -21 -31 -33 -31 -69 0 -23 12 -74 26 -111 53 -138 67 -235 40 -286 -13 -25 -13 -28 0 -28 26 0 72 55 80 94 6 32 0 51 -40 130 -38 76 -46 102 -46 147 0 68 27 117 70 126 47 9 35 23 -19 23 -39 0 -56 -6 -80 -26z" id="32"/>
<path d="M4244 5668 c7 -58 -4 -105 -31 -132 l-25 -25 36 -7 c52 -9 69 8 64 66 -3 25 -15 65 -26 90 l-22 45 4 -37z" id="33"/>
<path d="M935 5638 c-11 -6 -48 -37 -82 -70 -64 -60 -113 -88 -158 -88 -31 0 -32 -14 -3 -34 49 -35 109 -10 174 70 22 27 58 68 80 91 41 42 35 57 -11 31z" id="34"/>
<path d="M3910 5579 c0 -65 -2 -73 -29 -100 -22 -22 -39 -29 -68 -29 -52 0 -78 21 -97 77 -26 77 -72 108 -95 65 -14 -26 0 -75 45 -161 34 -65 39 -82 39 -142 0 -53 -5 -74 -21 -96 -76 -103 -260 -99 -332 7 -24 34 -24 38 -17 190 6 149 6 156 -15 182 -29 37 -82 47 -127 22 -48 -25 -63 -60 -63 -148 0 -87 -13 -122 -51 -142 -39 -20 -78 -17 -129 9 -60 30 -90 87 -90 173 0 65 -11 87 -49 99 -35 11 -71 -13 -109 -75 -86 -140 -98 -155 -135 -173 -28 -14 -36 -24 -32 -36 33 -106 45 -311 24 -442 -10 -64 -9 -76 12 -131 12 -33 40 -87 61 -120 l39 -61 227 7 c643 19 1134 70 1305 135 35 13 69 86 99 210 36 147 26 390 -21 513 -8 23 -16 27 -48 27 -65 -1 -112 28 -202 122 -46 49 -93 89 -103 89 -16 0 -18 -9 -18 -71z" id="35"/>
<path d="M2076 5579 c-29 -23 -35 -45 -10 -35 27 10 91 -13 136 -49 122 -99 167 -114 208 -70 l23 25 -29 0 c-31 0 -59 17 -169 100 -75 56 -115 64 -159 29z" id="36"/>
<path d="M1017 5576 c-14 -6 -40 -31 -58 -56 -83 -118 -140 -154 -235 -148 -73 5 -66 18 -84 -155 -19 -177 14 -377 80 -490 19 -32 32 -40 99 -61 232 -73 499 -98 1213 -112 387 -8 357 -15 402 86 74 164 86 457 29 663 -14 52 -18 58 -37 52 -41 -14 -105 -17 -138 -6 -19 6 -64 38 -102 71 -105 93 -137 81 -134 -53 1 -58 -3 -83 -19 -108 -26 -46 -78 -79 -122 -79 -71 0 -102 43 -146 200 -31 109 -38 126 -65 140 -49 26 -90 -41 -90 -147 -1 -115 -54 -193 -133 -193 -41 0 -92 54 -100 105 -19 111 -66 65 -87 -85 -6 -39 -17 -84 -25 -100 -40 -77 -154 -113 -223 -70 -43 27 -62 74 -62 155 0 74 14 113 70 201 77 118 58 229 -33 190z" id="37"/>
<path d="M1810 5485 c0 -6 11 -48 23 -95 33 -119 54 -155 82 -143 9 3 8 14 -6 41 -10 20 -26 62 -34 92 -13 48 -65 131 -65 105z" id="38"/>
<path d="M1268 5450 c-29 -17 -55 -72 -83 -169 -30 -108 -56 -163 -86 -184 l-21 -15 22 -12 c54 -29 106 41 125 169 18 123 38 162 93 181 33 12 39 19 30 28 -14 14 -56 15 -80 2z" id="39"/>
<path d="M511 4990 c-128 -70 -201 -158 -201 -242 0 -43 5 -54 42 -94 100 -108 298 -184 643 -244 327 -57 567 -83 940 -100 392 -18 1111 -8 1458 20 481 39 1004 166 1147 280 88 70 105 158 49 244 -32 47 -105 109 -166 140 l-32 16 -6 -44 c-6 -37 -3 -50 20 -85 106 -159 -87 -272 -575 -335 -386 -51 -902 -71 -1595 -62 -917 11 -1164 31 -1435 118 -240 77 -318 164 -245 272 25 36 29 65 16 118 l-6 27 -54 -29z" id="40"/>
<path d="M4495 4498 c-159 -89 -624 -190 -1075 -233 -228 -22 -958 -35 -1400 -24 -544 12 -843 46 -1192 134 -125 32 -313 92 -361 116 -20 11 -37 16 -37 13 0 -16 118 -227 178 -318 117 -179 210 -287 361 -422 290 -261 662 -426 1111 -495 210 -33 610 -32 820 0 651 100 1118 395 1470 927 61 93 186 322 178 328 -1 1 -25 -10 -53 -26z m-3528 -297 c43 -6 108 -13 145 -16 66 -6 84 -18 68 -45 -6 -10 -31 -11 -132 -1 -131 12 -193 25 -203 42 -9 14 15 41 31 35 6 -2 47 -9 91 -15z m136 -168 c59 -4 80 -10 87 -23 5 -10 6 -20 3 -24 -9 -9 -120 -7 -171 3 -51 10 -67 23 -58 46 5 13 13 16 34 11 15 -3 62 -9 105 -13z" id="41"/>
<path d="M2228 3085 c-3 -71 -10 -102 -31 -150 -34 -73 -53 -95 -84 -95 -35 0 -39 25 -11 68 14 20 28 47 32 58 6 20 4 21 -71 17 -193 -10 -427 -59 -501 -105 -67 -42 -82 -124 -32 -181 62 -71 198 -123 400 -152 148 -22 649 -37 835 -25 370 23 585 81 666 179 87 106 -31 209 -291 255 -94 17 -311 36 -320 29 -2 -2 9 -29 25 -60 21 -41 26 -59 19 -71 -16 -25 -30 -25 -54 0 -51 53 -96 195 -88 282 l3 41 -246 0 -247 0 -4 -90z m-530 -275 c4 -30 38 -69 72 -82 14 -5 59 -15 100 -21 58 -9 76 -16 78 -30 5 -26 -24 -32 -100 -19 -87 15 -163 53 -183 92 -16 31 -20 72 -8 84 14 14 38 0 41 -24z m599 -162 c6 -5 9 -16 6 -24 -8 -21 -176 -20 -193 1 -9 11 -9 19 -2 28 12 14 170 11 189 -5z" id="42"/>
<path d="M6080 3763 c-80 -7 -216 -26 -390 -53 -102 -16 -252 -36 -335 -45 -346 -37 -543 -74 -730 -138 -294 -101 -473 -234 -562 -418 -87 -178 -95 -281 -38 -505 61 -241 67 -287 59 -491 -4 -100 -4 -193 0 -207 8 -34 31 -33 116 4 81 36 129 38 206 9 82 -31 132 -86 199 -218 40 -82 60 -111 74 -111 32 0 72 40 133 134 94 143 125 168 208 168 60 0 103 -22 140 -73 41 -57 59 -120 70 -239 9 -114 27 -153 73 -158 59 -7 72 74 36 247 -25 126 -17 187 36 248 60 70 176 107 249 79 55 -21 79 -47 111 -121 35 -80 69 -115 111 -115 29 0 40 9 89 70 71 89 110 110 207 110 116 0 177 -37 277 -167 49 -64 73 -54 87 36 19 117 116 166 251 126 62 -18 147 -91 163 -139 6 -19 9 -93 8 -177 -2 -153 8 -198 49 -213 43 -17 59 55 48 213 -16 218 -13 253 17 297 42 59 90 87 158 92 74 5 119 -10 176 -59 25 -21 49 -39 53 -39 12 0 36 31 65 85 37 69 94 108 165 113 49 3 62 0 103 -27 58 -37 91 -98 108 -201 7 -41 17 -86 22 -100 14 -37 49 -70 74 -70 32 0 99 80 120 143 15 46 16 63 4 181 -22 209 -18 266 25 375 75 193 97 385 60 526 -56 215 -246 396 -527 505 -29 11 -138 45 -243 75 -104 29 -269 79 -365 111 -227 74 -411 120 -535 134 -88 9 -328 11 -425 3z m288 -238 c5 -105 9 -101 -120 -108 -71 -3 -118 -1 -125 5 -17 14 -17 140 -1 156 9 9 47 12 128 10 l115 -3 3 -60z m236 -27 c22 -31 20 -64 -4 -88 -24 -24 -67 -26 -92 -3 -22 20 -24 76 -2 97 24 24 80 20 98 -6z m-1128 -114 c24 -59 44 -116 44 -127 0 -18 -87 -67 -122 -67 -22 0 -63 70 -95 161 -34 99 -31 109 42 135 33 12 66 18 74 14 8 -4 33 -56 57 -116z m-556 -44 c6 -11 10 -48 8 -83 l-3 -62 -135 -17 c-94 -11 -139 -13 -147 -6 -17 14 -18 144 -1 154 13 8 174 31 230 33 28 1 40 -4 48 -19z m1086 -32 c27 -18 50 -41 52 -52 5 -21 -123 -156 -148 -156 -25 0 -120 71 -120 90 0 20 132 150 153 150 8 0 37 -15 63 -32z m-743 -29 c41 -50 5 -129 -59 -129 -67 0 -98 87 -48 137 20 20 31 24 57 19 18 -3 40 -16 50 -27z m1830 -44 c6 -44 5 -80 -1 -96 l-11 -27 -148 -4 c-81 -2 -154 -2 -162 0 -10 4 -12 19 -7 66 11 102 17 125 35 129 9 3 77 4 151 3 l135 -1 8 -70z m481 56 c10 -16 -5 -41 -24 -41 -23 0 -34 16 -26 35 6 16 42 20 50 6z m-1352 -28 c18 -16 24 -68 10 -89 -9 -13 -46 -34 -62 -34 -20 0 -60 49 -60 75 0 54 71 85 112 48z m1433 -103 c0 -18 -6 -26 -21 -28 -26 -4 -40 24 -23 45 18 21 44 11 44 -17z m-3092 -12 c70 -37 57 -128 -18 -128 -67 0 -97 69 -50 115 27 28 37 30 68 13z m-224 -12 c15 -18 3 -46 -20 -46 -25 0 -35 26 -19 45 15 19 24 19 39 1z m2879 -183 c3 -28 -4 -37 -60 -82 -125 -101 -278 -163 -490 -196 -140 -23 -585 -32 -744 -16 -251 26 -488 88 -686 180 -82 37 -88 42 -88 70 0 16 5 33 10 36 6 4 59 -14 118 -39 l108 -45 64 15 c36 8 120 33 187 55 161 51 232 57 393 31 77 -13 194 -23 305 -26 112 -3 275 -16 433 -36 l253 -31 62 44 c35 25 69 53 77 62 22 27 55 15 58 -22z m-2991 -9 c3 -8 -2 -23 -11 -32 -14 -15 -18 -15 -31 -1 -9 9 -13 23 -9 32 8 21 43 22 51 1z m614 -16 c30 -25 89 -105 89 -122 0 -18 -56 -56 -209 -142 -100 -56 -102 -57 -122 -38 -21 19 -79 112 -79 126 0 4 19 20 43 35 96 61 250 153 256 153 4 0 14 -6 22 -12z m-413 -26 c4 -26 -22 -40 -43 -22 -11 9 -12 17 -4 32 13 25 43 19 47 -10z m3047 -145 c22 -31 18 -65 -10 -92 -31 -32 -69 -32 -101 1 -20 19 -24 31 -19 52 17 68 94 91 130 39z m-222 -62 c57 -81 106 -166 101 -178 -6 -17 -98 -67 -123 -67 -16 0 -38 25 -87 101 -36 56 -63 107 -60 115 5 12 110 72 129 74 4 0 22 -20 40 -45z m-225 -249 c17 -26 32 -57 32 -67 0 -20 -78 -74 -197 -136 l-72 -38 -25 24 c-28 26 -66 97 -66 123 0 13 176 121 230 141 38 15 65 2 98 -47z m-460 -105 c4 -43 -21 -71 -64 -71 -55 0 -86 68 -46 102 26 23 44 26 77 13 24 -9 31 -18 33 -44z m-2288 -47 c68 -68 179 -133 304 -176 88 -30 112 -42 114 -58 6 -34 -25 -34 -129 0 -197 64 -419 227 -372 273 16 16 42 4 83 -39z m3704 -30 c3 -8 2 -23 -3 -32 -21 -38 -127 -122 -154 -122 -8 0 -21 7 -28 16 -12 14 -10 19 10 33 13 9 49 40 80 68 58 54 84 65 95 37z m-3771 -112 c10 -10 40 -29 67 -42 34 -16 50 -29 50 -42 0 -45 -79 -27 -142 33 -34 32 -39 41 -28 54 17 20 33 19 53 -3z" id="43"/>
<path d="M6170 3500 c0 -33 2 -34 88 -24 46 6 52 9 52 30 0 23 -3 24 -70 24 l-70 0 0 -30z" id="44"/>
<path d="M6532 3458 c2 -15 10 -23 23 -23 30 0 27 39 -3 43 -20 3 -23 0 -20 -20z" id="45"/>
<path d="M5368 3433 c-25 -6 -22 -34 11 -108 28 -62 51 -80 66 -54 7 11 -41 156 -54 162 -3 2 -14 2 -23 0z" id="46"/>
<path d="M4765 3289 c-80 -12 -84 -14 -78 -39 5 -20 10 -21 82 -14 42 4 82 7 89 7 7 0 12 13 12 29 0 31 -2 32 -105 17z" id="47"/>
<path d="M5905 3236 c-34 -29 -38 -36 -26 -50 20 -24 33 -20 74 22 29 30 34 41 25 50 -18 18 -29 15 -73 -22z" id="48"/>
<path d="M5180 3250 c-6 -12 -8 -30 -5 -41 10 -29 59 -22 63 9 7 46 -38 70 -58 32z" id="49"/>
<path d="M6835 3238 c-2 -7 -6 -26 -7 -43 -3 -27 0 -30 25 -29 15 0 63 1 107 2 l80 2 0 40 0 40 -100 0 c-72 0 -102 -4 -105 -12z" id="50"/>
<path d="M6154 3225 c-8 -20 13 -45 32 -38 8 3 14 16 14 29 0 17 -6 24 -20 24 -11 0 -23 -7 -26 -15z" id="51"/>
<path d="M4520 3105 c-16 -20 -5 -45 19 -45 24 0 33 13 25 33 -8 22 -31 28 -44 12z" id="52"/>
<path d="M5785 2854 c-101 -20 -125 -26 -125 -33 0 -8 68 -22 245 -48 177 -26 603 -25 734 1 56 11 88 22 80 27 -31 17 -181 29 -357 29 -103 0 -245 7 -317 15 -125 14 -217 17 -260 9z" id="53"/>
<path d="M4711 2810 c-119 -74 -118 -73 -98 -104 l17 -25 60 34 c34 19 85 49 115 67 l54 32 -20 28 c-11 15 -23 28 -27 27 -4 0 -49 -27 -101 -59z" id="54"/>
<path d="M7390 2725 c-11 -13 -11 -19 4 -33 20 -20 51 -6 51 24 0 24 -37 30 -55 9z" id="55"/>
<path d="M7177 2658 c-18 -13 -17 -17 18 -76 44 -73 47 -75 70 -58 18 13 17 15 -7 58 -46 78 -60 91 -81 76z" id="56"/>
<path d="M6940 2433 c-20 -7 -170 -94 -170 -98 0 -15 25 -55 34 -55 9 0 172 93 185 106 6 5 -21 54 -28 53 -3 0 -13 -3 -21 -6z" id="57"/>
<path d="M6490 2350 c-18 -11 -4 -42 17 -38 10 2 19 10 21 19 4 19 -19 31 -38 19z" id="58"/>
<path d="M7605 2051 c-44 -26 -83 -75 -96 -121 -7 -22 -21 -49 -32 -61 -20 -21 -20 -22 -2 -36 11 -7 24 -12 30 -10 5 2 26 34 47 73 41 77 74 104 131 104 62 0 88 -38 107 -157 14 -86 35 -130 71 -149 34 -17 35 -15 10 28 -10 18 -31 86 -46 150 -28 127 -48 162 -101 184 -45 19 -83 17 -119 -5z" id="59"/>
<path d="M7116 1940 c-49 -44 -71 -105 -62 -178 23 -191 25 -219 16 -280 -5 -39 -18 -77 -30 -94 -17 -24 -18 -29 -6 -34 21 -8 74 26 96 61 32 54 32 84 0 195 -48 169 -40 291 24 342 11 10 16 18 9 18 -7 0 -28 -14 -47 -30z" id="60"/>
<path d="M5522 1916 c-19 -6 -45 -23 -59 -36 -38 -36 -29 -100 31 -229 60 -127 67 -173 36 -236 -31 -65 -79 -95 -151 -95 -64 0 -112 17 -158 56 -48 40 -61 74 -72 190 -5 58 -17 128 -27 157 -14 44 -21 52 -42 52 -21 0 -37 -18 -96 -108 -77 -116 -115 -162 -154 -181 -67 -34 -145 -26 -201 21 -19 17 -53 72 -90 148 -61 125 -95 169 -139 180 -21 5 -40 -5 -102 -52 l-75 -59 45 -89 c54 -109 141 -200 281 -294 223 -148 462 -235 816 -295 235 -39 419 -49 790 -43 347 6 478 17 735 63 446 81 702 206 907 446 64 75 75 98 47 98 -27 0 -73 40 -94 79 -10 21 -26 78 -34 126 -9 49 -20 93 -26 99 -17 17 -41 -5 -77 -70 -38 -70 -71 -96 -118 -96 -50 0 -94 30 -138 93 -44 63 -76 83 -118 74 -69 -15 -82 -114 -35 -266 42 -138 32 -235 -32 -302 -80 -85 -205 -77 -273 16 -43 59 -52 107 -46 233 6 123 -5 203 -30 222 -9 6 -31 12 -48 12 -39 0 -69 -30 -90 -89 -23 -67 -52 -107 -89 -125 -76 -36 -152 -7 -222 84 -26 33 -62 70 -80 80 -57 36 -142 20 -195 -36 l-22 -24 50 0 c38 0 52 -4 57 -16 12 -31 -13 -44 -86 -44 -64 0 -74 -3 -104 -30 -100 -87 -238 -22 -299 140 -36 97 -58 134 -90 148 -31 14 -40 14 -83 -2z m1852 -319 c-9 -25 -54 -22 -54 3 0 26 31 43 48 26 7 -7 10 -20 6 -29z m150 24 c10 -16 -5 -41 -24 -41 -23 0 -34 16 -26 35 6 16 42 20 50 6z m-59 -131 c0 -29 -32 -41 -41 -16 -9 24 4 48 23 44 12 -2 18 -12 18 -28z m-721 -177 c12 -29 -16 -42 -94 -45 -74 -3 -75 -3 -75 22 0 22 5 26 45 31 88 12 117 10 124 -8z m60 -116 c7 -11 7 -20 1 -26 -20 -20 -132 -41 -218 -41 -86 0 -88 1 -85 22 3 21 11 24 113 34 61 7 121 17 135 22 30 13 40 11 54 -11z" id="61"/>
<path d="M6642 1909 c-59 -12 -81 -44 -102 -148 -6 -30 -15 -61 -22 -68 -8 -10 -4 -13 21 -13 34 0 52 25 77 111 10 33 26 58 55 82 32 28 36 35 22 39 -10 2 -33 1 -51 -3z" id="62"/>
<path d="M6085 1900 c-18 -6 -61 -43 -110 -96 -68 -73 -86 -87 -120 -93 l-40 -7 28 -18 c52 -35 72 -26 166 71 83 86 121 111 196 129 l30 7 -25 7 c-34 11 -88 10 -125 0z" id="63"/>
<path d="M4275 1893 c-11 -2 -55 -18 -97 -35 -67 -27 -76 -34 -68 -49 25 -45 63 -32 165 56 39 34 39 37 0 28z" id="64"/>
<path d="M4939 1827 c-19 -13 -59 -64 -95 -122 -34 -55 -79 -114 -100 -131 -36 -31 -36 -32 -15 -39 53 -16 98 27 191 180 23 39 56 85 73 103 l31 32 -26 0 c-14 0 -40 -10 -59 -23z" id="65"/>
<path d="M5386 1675 c3 -16 9 -65 13 -108 6 -74 3 -96 -24 -159 -6 -15 -3 -16 27 -8 81 23 87 88 19 222 -23 46 -38 70 -35 53z" id="66"/>
</g>
</svg>