<?xml version="1.0" ?><!DOCTYPE svg  PUBLIC '-//W3C//DTD SVG 20010904//EN'  'http://www.w3.org/TR/2001/REC-SVG-20010904/DTD/svg10.dtd'><svg height="850.000000pt" preserveAspectRatio="xMidYMid meet" version="1.0" viewBox="0 0 850.000000 850.000000" width="850.000000pt" xmlns="http://www.w3.org/2000/svg">
<metadata>
Created by potrace 1.14, written by Peter Selinger 2001-2017
</metadata>
<g fill="#ffffff" stroke="none" transform="translate(0.000000,850.000000) scale(0.100000,-0.100000)">
<path d="M0 7956 l0 -544 63 -11 c71 -12 134 -1 229 42 102 47 167 53 346 32 175 -20 241 -14 304 28 39 27 57 69 39 90 -6 9 -59 34 -116 57 -57 23 -109 48 -115 55 -46 55 92 105 233 84 40 -5 153 -18 253 -28 195 -20 214 -26 288 -91 62 -53 107 -64 236 -57 116 6 377 61 456 96 27 12 88 26 143 31 53 6 144 20 204 31 83 15 161 20 350 23 222 3 247 6 302 26 71 28 180 127 190 175 10 49 33 94 72 140 42 51 59 59 183 91 148 38 226 81 333 184 l92 89 -2042 1 -2043 0 0 -544z" id="1"/>
<path d="M4030 8415 c-47 -47 -106 -100 -133 -117 -67 -43 -180 -87 -265 -104 -83 -16 -96 -23 -144 -81 -35 -41 -51 -74 -63 -127 -9 -41 -105 -138 -169 -170 -72 -37 -142 -45 -380 -45 -145 0 -221 -4 -274 -15 -40 -9 -132 -23 -203 -31 -72 -9 -143 -22 -159 -30 -35 -18 -235 -69 -355 -90 -172 -31 -313 -15 -365 41 -59 62 -97 75 -298 97 -103 11 -230 21 -282 21 -97 1 -174 -16 -167 -37 2 -6 50 -30 108 -54 103 -42 139 -69 139 -103 0 -29 -43 -82 -85 -104 -43 -22 -89 -24 -415 -15 l-135 4 -102 -44 c-101 -43 -105 -43 -193 -39 l-90 4 0 -112 c0 -126 -1 -124 78 -124 26 0 83 -12 127 -26 85 -28 103 -28 371 -8 105 8 183 -13 233 -63 47 -47 62 -51 201 -59 115 -7 122 -6 144 15 19 18 30 21 63 15 37 -6 42 -3 82 39 24 25 60 53 82 62 38 18 39 17 91 -9 96 -49 103 -57 103 -123 0 -53 2 -58 26 -67 19 -6 41 -4 75 6 27 9 66 19 86 22 27 5 59 27 120 82 116 106 111 105 205 54 109 -60 103 -50 85 -130 -12 -56 -13 -75 -3 -97 l12 -26 43 46 c41 45 67 56 92 39 6 -4 30 -37 53 -74 24 -38 44 -68 46 -68 2 0 3 21 2 48 -2 44 0 47 24 50 21 2 32 -4 50 -30 12 -18 42 -54 66 -80 34 -37 43 -55 43 -83 0 -51 -13 -70 -60 -89 -37 -15 -40 -19 -39 -53 1 -21 4 -49 8 -63 7 -23 9 -20 25 28 10 30 24 52 32 52 7 0 28 -28 45 -62 l31 -61 49 53 c33 36 53 51 65 46 64 -24 74 -19 52 30 -11 24 -10 29 20 55 35 31 91 40 109 17 5 -7 21 -42 34 -78 19 -51 24 -85 24 -155 0 -78 2 -90 18 -93 16 -3 17 2 11 60 l-6 63 56 82 c31 45 56 93 56 106 0 14 -10 46 -21 73 -19 41 -21 59 -15 128 8 110 40 238 76 305 17 31 56 86 87 121 76 88 108 140 190 310 185 386 477 602 892 661 102 14 330 7 451 -15 367 -68 667 -318 872 -730 35 -72 67 -118 108 -161 33 -33 66 -77 75 -98 12 -30 20 -37 34 -32 26 8 47 -17 55 -65 3 -22 27 -79 52 -126 l46 -85 53 6 c66 9 87 -2 126 -64 33 -55 45 -60 117 -53 51 4 51 4 68 -31 15 -32 20 -35 48 -30 17 3 38 13 47 22 20 19 66 158 75 224 8 53 18 65 40 46 28 -23 47 -72 54 -141 7 -58 13 -74 41 -106 24 -26 41 -61 58 -119 17 -59 29 -84 42 -88 11 -4 45 -30 77 -59 31 -29 72 -61 90 -70 75 -39 50 -41 -537 -44 l-562 -2 3 -32 c2 -23 11 -37 30 -48 26 -14 33 -13 93 8 35 13 73 21 83 18 11 -4 35 -24 54 -44 35 -38 37 -39 146 -50 84 -10 144 -10 250 -1 l140 11 78 -41 c94 -49 116 -67 135 -106 8 -18 23 -31 36 -33 27 -4 73 38 73 66 0 11 6 25 14 31 17 14 166 51 206 51 16 0 32 5 35 10 11 17 82 50 135 61 39 8 56 18 77 45 47 62 94 81 218 87 131 7 187 23 320 89 128 65 186 85 271 93 42 4 92 18 129 35 33 15 70 31 83 34 20 7 22 13 22 82 0 60 -3 74 -16 74 -8 0 -47 14 -87 31 -71 31 -73 31 -177 22 -58 -4 -168 -8 -245 -8 -138 0 -141 1 -200 32 -57 30 -63 31 -113 21 -69 -14 -138 9 -149 50 -9 37 -29 51 -188 134 -97 51 -153 87 -185 120 l-45 46 -241 -5 c-363 -9 -466 9 -589 103 -25 20 -67 63 -91 97 -37 49 -44 67 -42 96 l3 36 100 -1 c55 -1 151 -5 212 -9 l113 -8 15 36 c24 57 62 95 119 116 81 30 334 72 496 81 186 11 253 25 291 61 16 15 29 32 29 38 0 12 -24 36 -64 64 -33 23 -35 66 -3 94 12 12 69 43 127 70 137 64 171 95 206 185 17 42 45 90 72 119 l44 49 -1889 0 -1888 0 -85 -85z" id="2"/>
<path d="M7876 8448 c-38 -39 -58 -70 -75 -118 -29 -81 -83 -136 -178 -179 -157 -73 -178 -86 -181 -113 -2 -19 4 -31 23 -45 75 -51 79 -67 32 -119 -42 -46 -105 -62 -303 -74 -194 -12 -449 -57 -514 -90 -43 -22 -64 -44 -83 -92 -10 -24 -24 -39 -39 -42 -70 -14 -114 -14 -185 -1 -43 8 -111 15 -150 15 -70 0 -73 -1 -73 -24 0 -34 78 -136 138 -179 116 -86 226 -103 584 -94 l237 7 36 -45 c29 -35 64 -58 169 -111 144 -73 216 -125 216 -155 0 -33 57 -50 138 -43 64 6 73 4 118 -22 48 -28 52 -29 194 -29 80 0 192 4 250 9 100 8 108 7 165 -17 33 -13 70 -28 83 -31 l22 -7 0 825 0 826 -286 0 -285 0 -53 -52z" id="3"/>
<path d="M4335 8189 c-169 -22 -355 -91 -486 -179 -69 -48 -176 -146 -167 -155 3 -3 41 15 84 40 182 108 276 130 549 130 l200 0 160 -49 c88 -26 183 -59 212 -73 118 -55 223 -155 279 -265 14 -27 57 -96 96 -154 l71 -105 130 -67 c71 -37 162 -90 203 -119 41 -29 74 -48 74 -42 0 53 -40 182 -85 277 -250 522 -630 777 -1150 771 -55 -1 -131 -6 -170 -10z" id="4"/>
<path d="M4219 7986 c12 -13 84 -50 159 -81 240 -101 264 -118 336 -248 30 -53 43 -67 67 -72 17 -4 33 -4 36 -1 10 9 -79 154 -126 207 -40 44 -63 57 -184 108 -77 32 -147 65 -157 74 -33 28 -58 37 -106 37 l-47 0 22 -24z" id="5"/>
<path d="M4350 8001 c0 -11 44 -32 185 -91 124 -52 158 -72 213 -124 53 -50 80 -100 89 -163 6 -53 18 -73 41 -73 37 0 -25 171 -88 244 -18 20 -61 51 -94 68 -34 17 -107 57 -163 89 -78 45 -111 59 -142 59 -23 0 -41 -4 -41 -9z" id="6"/>
<path d="M4104 7972 c-12 -18 -33 -65 -48 -105 -16 -39 -34 -83 -41 -97 -14 -27 -14 -27 -215 -86 -120 -35 -127 -39 -182 -92 -32 -31 -58 -60 -58 -63 0 -4 41 10 91 32 121 52 209 76 338 90 162 18 434 5 579 -26 34 -8 26 6 -23 44 -62 46 -177 71 -310 67 -96 -3 -131 3 -147 28 -15 22 -8 78 18 137 14 34 24 71 22 83 -3 19 -6 18 -24 -12z" id="7"/>
<path d="M4150 7993 c0 -5 9 -22 20 -40 25 -42 81 -77 155 -98 67 -18 146 -46 217 -77 39 -16 55 -32 82 -77 33 -54 86 -113 86 -96 0 20 -86 148 -116 173 -18 15 -107 58 -197 95 -110 46 -174 78 -193 98 -26 27 -54 38 -54 22z" id="8"/>
<path d="M3980 7924 c-41 -35 -104 -84 -140 -109 -61 -41 -122 -95 -107 -95 17 0 268 175 256 179 -7 2 8 22 37 47 27 24 45 43 39 43 -5 0 -44 -29 -85 -65z" id="9"/>
<path d="M4555 7965 c49 -32 195 -107 195 -100 0 2 -17 21 -37 41 -44 41 -101 70 -158 79 l-40 6 40 -26z" id="10"/>
<path d="M3949 7960 c-72 -21 -220 -120 -180 -120 7 0 1 -14 -13 -33 -46 -60 -28 -50 47 25 39 41 54 55 32 31 -21 -24 -35 -43 -30 -43 11 0 145 102 170 130 19 21 15 23 -26 10z" id="11"/>
<path d="M4029 7930 c-19 -16 -29 -29 -24 -29 14 0 70 47 64 53 -3 3 -21 -8 -40 -24z" id="12"/>
<path d="M4745 7889 c45 -46 141 -107 151 -96 3 2 -14 16 -37 31 -22 15 -38 30 -36 33 3 3 21 -6 39 -20 46 -35 117 -67 152 -67 43 0 17 25 -47 46 -61 20 -128 52 -194 94 -72 46 -84 37 -28 -21z" id="13"/>
<path d="M4140 7916 c0 -21 55 -73 101 -97 60 -30 212 -90 216 -85 3 3 -9 12 -26 21 -31 16 -39 25 -22 25 13 0 135 -84 194 -133 26 -22 50 -38 53 -35 3 3 -17 34 -43 69 -46 62 -51 65 -153 105 -58 23 -121 45 -140 48 l-35 7 28 -16 c15 -9 27 -18 27 -20 0 -17 -128 64 -164 104 -22 24 -36 27 -36 7z" id="14"/>
<path d="M4810 7905 c0 -9 121 -66 132 -63 6 2 -19 18 -54 36 -65 32 -78 36 -78 27z" id="15"/>
<path d="M3955 7839 c-38 -28 -69 -55 -67 -61 1 -5 -8 -18 -20 -28 -13 -11 -18 -19 -12 -20 7 0 34 19 60 43 27 23 61 50 76 60 27 17 56 58 41 56 -4 0 -39 -23 -78 -50z" id="16"/>
<path d="M4140 7840 c26 -50 72 -80 125 -80 l40 1 -59 31 c-32 18 -72 45 -88 60 -17 15 -32 28 -34 28 -3 0 5 -18 16 -40z" id="17"/>
<path d="M3661 7771 c-61 -80 -81 -116 -81 -152 0 -33 20 -21 40 24 10 23 19 36 19 28 1 -22 47 24 62 62 7 18 21 45 32 60 10 16 17 31 14 34 -3 3 -21 -16 -39 -42 -52 -74 -57 -81 -58 -69 0 7 20 39 45 73 66 89 38 75 -34 -18z" id="18"/>
<path d="M4100 7814 c0 -33 25 -64 53 -64 25 0 21 12 -18 56 l-34 39 -1 -31z" id="19"/>
<path d="M3958 7781 c-18 -16 -31 -32 -28 -35 9 -9 52 18 68 42 21 32 -1 28 -40 -7z" id="20"/>
<path d="M3597 7758 c-45 -57 -57 -80 -57 -117 0 -17 -4 -31 -9 -31 -5 0 -7 9 -4 20 8 29 -6 24 -18 -6 -7 -19 -6 -38 2 -62 l11 -34 21 20 c16 17 20 32 18 70 -2 44 3 57 43 116 51 74 46 89 -7 24z" id="21"/>
<path d="M4810 7795 c0 -3 9 -18 20 -33 11 -15 31 -54 45 -87 l25 -60 0 40 c0 49 -31 119 -58 134 -23 12 -32 14 -32 6z" id="22"/>
<path d="M3812 7743 c-51 -35 -62 -51 -25 -39 22 8 102 76 88 75 -5 0 -34 -16 -63 -36z" id="23"/>
<path d="M4740 7757 c0 -11 63 -107 67 -103 7 6 -34 81 -51 95 -9 8 -16 11 -16 8z" id="24"/>
<path d="M4906 7736 c3 -8 25 -24 47 -35 47 -23 177 -53 177 -41 0 15 -26 27 -82 38 -46 9 -94 26 -141 50 -4 2 -4 -3 -1 -12z" id="25"/>
<path d="M4969 7733 c40 -17 121 -33 121 -24 0 3 -6 13 -13 22 -9 11 -30 16 -77 16 l-65 0 34 -14z" id="26"/>
<path d="M4986 7651 c13 -13 129 -51 155 -51 45 0 -1 28 -73 44 -82 19 -96 20 -82 7z" id="27"/>
<path d="M4942 7628 c32 -49 115 -87 224 -104 57 -8 54 11 -4 22 -68 13 -147 44 -184 74 -44 36 -56 38 -36 8z" id="28"/>
<path d="M3970 7630 c-106 -14 -233 -52 -336 -102 -86 -42 -89 -45 -102 -88 -7 -25 -13 -85 -13 -135 -1 -84 -3 -93 -31 -133 -25 -35 -32 -60 -40 -126 -17 -143 13 -201 117 -231 61 -18 104 -15 143 11 23 15 23 16 5 36 -17 19 -17 20 2 34 12 9 45 14 92 14 65 0 77 -3 98 -24 40 -40 60 -126 60 -261 0 -66 -4 -141 -8 -167 -10 -61 -32 -65 -23 -5 21 150 21 153 1 137 -17 -14 -18 -13 -10 5 28 68 6 119 -68 156 -36 19 -51 21 -121 15 -85 -7 -91 -9 -82 -25 4 -6 16 -6 37 1 17 6 53 7 84 3 50 -6 59 -11 100 -58 25 -28 44 -56 42 -61 -7 -20 -65 -26 -204 -24 -90 1 -143 6 -143 13 0 5 -16 21 -36 34 l-35 24 -22 -22 c-20 -20 -22 -33 -25 -159 -4 -162 20 -310 68 -407 23 -47 26 -61 16 -67 -11 -6 -9 -24 11 -94 13 -47 37 -116 54 -152 27 -61 35 -70 85 -96 47 -25 68 -47 146 -152 l91 -124 81 -27 c111 -36 235 -37 321 -3 50 19 78 41 171 135 107 108 114 114 245 177 136 67 231 132 283 194 l28 35 -36 54 c-20 30 -47 62 -61 71 -32 21 -90 28 -143 16 -23 -6 -44 -7 -47 -3 -2 4 35 61 82 127 109 153 138 203 164 287 39 125 13 270 -52 297 -27 12 -34 10 -87 -23 -32 -20 -81 -44 -108 -54 -27 -10 -50 -24 -50 -31 -3 -25 -5 -27 -14 -12 -7 12 -21 11 -92 -10 -112 -33 -234 -34 -295 -2 -24 12 -43 26 -43 31 0 12 68 57 125 82 68 30 171 37 214 14 44 -22 62 -5 25 24 -54 42 -96 47 -199 22 -99 -24 -169 -61 -198 -104 -15 -23 -15 -29 -3 -59 8 -18 24 -42 35 -52 24 -22 28 -38 6 -30 -25 10 -21 -244 5 -328 19 -61 26 -150 14 -182 -8 -20 -205 -96 -251 -96 -29 0 -50 11 -105 56 -86 70 -102 93 -95 141 10 57 29 67 21 11 -6 -44 -5 -47 22 -61 16 -8 43 -31 61 -51 17 -20 36 -36 42 -36 18 0 96 76 116 114 17 32 18 41 6 113 -8 53 -9 98 -3 142 5 38 5 82 0 110 -5 25 -7 83 -3 128 12 157 54 265 117 295 60 29 205 53 228 39 12 -9 11 -14 -8 -40 -25 -34 -28 -57 -9 -64 14 -5 186 6 275 18 133 18 226 66 258 132 26 55 31 155 9 204 -10 21 -24 39 -31 39 -7 0 -43 -25 -79 -55 -80 -65 -124 -73 -166 -29 -22 23 -24 33 -23 112 1 48 3 119 5 158 4 68 3 72 -31 117 -19 26 -42 49 -51 52 -95 32 -477 53 -629 35z m711 -1054 c-23 -28 -120 -57 -179 -54 -80 4 -76 23 6 23 51 1 80 7 122 26 58 28 70 29 51 5z m-831 -24 c0 -17 -52 -32 -108 -31 l-57 1 75 18 c95 22 90 22 90 12z m549 -676 c10 -12 5 -19 -24 -39 -19 -13 -49 -45 -67 -72 -22 -34 -44 -53 -77 -67 -35 -15 -42 -21 -31 -28 8 -6 20 -10 27 -10 19 0 66 -20 61 -26 -3 -3 -35 3 -71 12 -54 15 -77 16 -127 8 -33 -6 -60 -7 -60 -3 0 4 6 9 13 12 6 2 -12 12 -40 21 -54 18 -89 50 -99 92 -7 27 -29 37 -54 24 -15 -8 -19 -5 -23 23 -6 42 -2 44 33 23 29 -17 31 -17 70 5 35 20 44 21 80 10 34 -10 45 -9 72 5 28 14 41 15 94 5 80 -14 132 -13 169 4 39 17 40 18 54 1z" id="29"/>
<path d="M4068 5841 c-41 -26 -23 -46 31 -31 26 7 69 8 110 4 57 -5 76 -3 116 15 58 26 54 35 -9 21 -32 -7 -67 -7 -109 0 -83 13 -107 12 -139 -9z" id="30"/>
<path d="M3940 5840 c-20 -12 -12 -17 42 -22 33 -4 48 -2 52 7 8 22 -65 34 -94 15z" id="31"/>
<path d="M3910 5806 c0 -2 7 -19 15 -39 18 -43 53 -57 144 -56 103 0 205 51 161 79 -20 13 -112 13 -146 0 -21 -8 -37 -7 -66 5 -34 13 -108 21 -108 11z" id="32"/>
<path d="M4275 5792 c-6 -4 -18 -20 -28 -35 -20 -32 -45 -43 -137 -62 l-65 -14 62 4 c93 7 165 43 194 98 10 18 -6 24 -26 9z" id="33"/>
<path d="M5005 7614 c20 -15 136 -54 162 -54 8 0 13 6 11 13 -3 6 -27 15 -54 18 -27 4 -66 14 -88 23 -47 20 -57 20 -31 0z" id="34"/>
<path d="M4920 7579 c0 -20 6 -42 14 -48 17 -14 347 -133 353 -127 3 3 -31 23 -76 45 -93 47 -108 63 -23 25 90 -41 86 -40 71 -16 -16 25 -42 36 -119 52 -30 6 -66 13 -80 16 -21 4 -19 2 10 -15 19 -11 28 -20 20 -20 -26 -1 -117 57 -144 91 l-26 33 0 -36z" id="35"/>
<path d="M4675 7544 c33 -48 40 -95 26 -169 -27 -150 -6 -225 64 -225 26 0 47 11 92 51 32 28 70 53 85 56 l27 5 -29 57 c-23 47 -42 67 -102 109 -57 39 -79 61 -93 94 -23 51 -31 58 -67 58 l-27 0 24 -36z" id="36"/>
<path d="M3447 7508 c-34 -79 -34 -83 2 -62 21 12 27 23 24 38 -4 17 -3 18 6 6 5 -8 13 -11 16 -8 9 8 -4 88 -14 88 -3 0 -19 -28 -34 -62z" id="37"/>
<path d="M4760 7542 c0 -18 48 -72 64 -72 13 0 -2 72 -16 82 -23 14 -48 9 -48 -10z" id="38"/>
<path d="M4853 7494 c8 -46 38 -78 144 -155 89 -65 183 -104 274 -114 52 -6 53 -6 29 10 l-25 16 25 -5 c14 -4 36 -9 50 -12 19 -5 22 -4 14 5 -15 16 -324 140 -324 130 0 -4 38 -27 85 -50 93 -46 109 -64 24 -28 -78 34 -189 122 -229 182 -20 28 -44 53 -54 55 -17 4 -18 -1 -13 -34z" id="39"/>
<path d="M4940 7485 c0 -34 61 -72 225 -137 93 -37 170 -66 172 -64 7 6 -23 70 -38 82 -8 6 -34 18 -59 27 -25 8 -102 35 -172 61 -94 33 -128 41 -128 31z" id="40"/>
<path d="M3435 7411 c-45 -27 -87 -81 -79 -100 3 -9 9 -41 13 -71 4 -31 18 -73 31 -95 l24 -39 9 28 c7 20 5 31 -7 45 -40 44 -32 129 19 196 48 62 45 70 -10 36z" id="41"/>
<path d="M3434 7315 c-16 -40 -18 -74 -4 -95 5 -8 10 -13 11 -10 14 63 23 140 16 140 -4 0 -15 -16 -23 -35z" id="42"/>
<path d="M3488 7335 c-6 -19 -9 -34 -23 -117 -3 -21 -2 -38 3 -38 18 0 33 58 30 116 -2 37 -6 51 -10 39z" id="43"/>
<path d="M5340 7347 c0 -15 80 -176 126 -252 63 -107 164 -354 229 -562 26 -81 77 -227 115 -323 37 -96 73 -192 79 -212 7 -21 16 -38 20 -38 9 0 0 64 -29 205 -16 79 -60 400 -117 858 -12 94 -64 141 -283 255 -77 41 -140 71 -140 69z" id="44"/>
<path d="M4965 7324 c22 -52 44 -156 44 -214 0 -91 -23 -214 -52 -269 l-23 -46 40 -21 c52 -26 75 -80 75 -179 1 -135 -31 -216 -158 -393 -44 -62 -83 -116 -85 -121 -3 -4 16 -6 43 -3 72 7 131 -23 173 -87 18 -28 36 -51 40 -51 16 0 18 43 4 85 -22 64 -20 98 13 206 39 130 65 191 106 252 19 28 35 64 35 80 0 15 -16 59 -35 97 -44 87 -45 125 -5 175 17 21 30 43 30 49 0 7 -18 30 -40 51 -23 22 -57 63 -77 92 -31 46 -35 56 -29 95 21 137 25 120 -45 174 -41 31 -60 41 -54 28z" id="45"/>
<path d="M5740 7291 c0 -6 11 -76 24 -154 14 -78 41 -268 61 -422 19 -154 38 -286 40 -292 3 -10 121 -13 541 -13 294 0 534 4 532 8 -5 13 -127 122 -136 122 -5 0 -14 -10 -20 -22 -10 -22 -11 -22 -11 -2 -1 11 -14 65 -31 120 -22 74 -37 105 -60 127 -16 15 -30 31 -30 35 0 26 -22 142 -31 165 -15 37 -25 34 -34 -10 -3 -21 -18 -72 -32 -113 -14 -41 -32 -111 -41 -154 -10 -44 -23 -81 -30 -84 -9 -3 -10 3 -2 23 14 37 13 85 -2 85 -45 -1 -58 -12 -58 -52 0 -23 -4 -37 -10 -33 -5 3 -10 19 -10 35 0 16 -7 48 -17 71 l-16 41 -47 -6 c-66 -9 -92 4 -129 64 -17 28 -38 53 -47 57 -26 10 -99 -11 -97 -27 14 -87 18 -142 12 -146 -4 -2 -11 17 -14 43 -12 85 -25 123 -72 207 -25 44 -51 104 -58 131 -10 43 -15 50 -36 50 -21 0 -24 -4 -21 -35 1 -19 4 -66 6 -105 4 -66 4 -67 -5 -20 -5 28 -12 82 -15 120 -4 46 -14 84 -29 110 -26 45 -75 95 -75 76z" id="46"/>
<path d="M3271 7220 c-75 -87 -106 -146 -131 -253 -28 -122 -35 -200 -20 -252 7 -25 16 -45 20 -45 4 0 5 47 2 104 -4 103 2 176 16 176 10 0 4 -277 -8 -335 -7 -32 -29 -77 -61 -124 l-50 -74 6 -62 c5 -46 3 -76 -11 -118 -17 -54 -17 -57 4 -119 26 -76 27 -97 7 -124 -19 -25 -19 -64 2 -126 15 -48 15 -56 -2 -146 -26 -137 -11 -229 65 -396 18 -39 22 -66 21 -129 -2 -80 -1 -81 36 -119 44 -45 56 -47 71 -13 18 39 15 56 -18 105 -16 25 -30 49 -30 55 0 5 -28 68 -62 140 l-63 130 1 128 c0 84 5 132 12 139 9 9 11 -3 7 -52 -3 -36 -8 -77 -10 -92 -8 -48 14 -130 56 -218 l40 -84 50 88 49 89 -45 48 c-72 77 -72 118 1 236 42 68 45 76 34 103 -6 15 -36 54 -65 85 -114 120 -114 212 0 351 l25 31 -25 73 c-14 40 -25 82 -25 93 0 16 -3 17 -15 7 -22 -19 -65 -111 -65 -142 0 -15 -4 -28 -10 -28 -20 0 -9 49 26 116 116 218 112 207 113 347 1 169 30 276 97 364 28 37 42 97 26 107 -6 3 -38 -25 -71 -64z" id="47"/>
<path d="M5097 7198 c-3 -24 -9 -57 -12 -74 -9 -42 4 -65 105 -177 47 -51 136 -164 199 -251 63 -86 116 -155 118 -153 13 14 -44 122 -93 175 -55 62 -63 89 -10 33 16 -16 34 -27 40 -25 11 4 65 -76 85 -126 9 -24 10 -23 10 10 1 54 -49 132 -117 182 -139 102 -161 121 -187 157 -37 55 -85 177 -89 229 -3 39 -17 61 -37 62 -4 0 -9 -19 -12 -42z" id="48"/>
<path d="M5170 7173 c10 -58 37 -131 59 -157 26 -30 114 -76 147 -76 16 0 38 6 49 13 16 12 12 15 -43 26 -53 10 -66 18 -97 54 -47 53 -65 88 -73 140 -6 32 -12 43 -28 45 -20 3 -21 0 -14 -45z" id="49"/>
<path d="M5233 7194 c-13 -34 58 -154 105 -178 15 -7 44 -16 65 -20 36 -7 38 -6 35 16 -2 16 -13 25 -36 32 -47 13 -90 60 -103 111 -9 34 -16 44 -36 48 -15 3 -27 -1 -30 -9z" id="50"/>
<path d="M5320 7165 c0 -30 54 -90 89 -100 23 -7 24 -5 18 25 -15 72 -107 137 -107 75z" id="51"/>
<path d="M3311 7132 c-57 -90 -83 -202 -62 -277 13 -48 111 -218 149 -258 l27 -28 12 58 c9 44 9 59 0 62 -28 9 -87 85 -108 138 -18 45 -23 78 -24 148 0 81 3 95 28 137 15 26 27 51 27 57 0 24 -19 9 -49 -37z" id="52"/>
<path d="M3350 7098 c-26 -43 -34 -88 -27 -151 10 -99 74 -227 113 -227 28 0 17 72 -21 129 -46 73 -57 168 -30 259 11 34 -12 27 -35 -10z" id="53"/>
<path d="M0 6795 l0 -315 63 0 c108 0 274 -30 310 -56 95 -70 134 -87 310 -135 60 -16 122 -36 137 -44 40 -21 95 -19 163 5 72 25 78 25 136 -5 44 -22 50 -23 62 -9 20 25 68 45 113 49 22 2 53 6 68 10 15 4 50 0 80 -9 73 -21 128 -81 128 -140 0 -15 8 -30 21 -36 24 -14 49 -6 49 14 0 8 16 23 35 35 19 11 35 26 35 34 0 7 13 28 28 45 26 29 34 32 85 32 46 0 68 -7 132 -41 69 -37 81 -41 113 -33 32 8 39 15 55 59 10 28 28 60 40 73 32 34 112 53 206 50 71 -2 83 0 101 18 20 19 20 27 12 103 l-8 83 45 20 c52 22 61 32 61 70 0 19 -15 45 -49 82 -27 30 -55 64 -61 76 -20 37 -35 18 -32 -38 3 -46 2 -52 -16 -52 -14 0 -32 21 -60 68 -64 108 -74 111 -136 37 -20 -25 -41 -45 -46 -45 -5 0 -17 14 -26 32 -16 31 -16 57 2 150 l6 37 -71 35 c-39 20 -78 36 -88 36 -10 0 -57 -36 -105 -78 -84 -76 -89 -79 -175 -100 -107 -26 -122 -27 -152 -6 -21 15 -23 22 -17 65 8 56 -3 69 -85 112 l-51 26 -37 -19 c-20 -10 -53 -38 -75 -61 -36 -39 -41 -41 -82 -36 -37 4 -47 1 -59 -16 -14 -20 -23 -21 -137 -19 -152 4 -190 13 -229 57 -51 55 -110 70 -248 59 -197 -14 -288 -11 -356 14 -39 15 -82 22 -127 22 l-68 0 0 -315z" id="54"/>
<path d="M3396 7065 c-15 -40 0 -151 23 -178 4 -4 5 34 3 85 -4 92 -13 125 -26 93z" id="55"/>
<path d="M5456 7028 c3 -18 19 -67 34 -108 16 -41 36 -111 45 -155 9 -44 33 -148 55 -230 21 -83 41 -179 45 -215 5 -48 22 -99 65 -195 32 -71 64 -158 71 -193 14 -73 7 -178 -16 -221 -8 -17 -15 -45 -15 -63 0 -43 39 -190 93 -348 40 -118 42 -131 42 -240 0 -109 -2 -121 -42 -236 -23 -67 -60 -164 -82 -217 -23 -53 -48 -129 -56 -169 -21 -96 -36 -248 -28 -276 5 -20 10 -12 33 45 14 37 52 122 82 188 67 143 84 204 97 350 31 331 9 669 -84 1271 -42 269 -101 485 -212 769 -66 170 -113 275 -124 275 -5 0 -6 -15 -3 -32z" id="56"/>
<path d="M5295 6920 c22 -23 71 -62 108 -87 37 -25 77 -58 89 -72 l21 -26 -6 46 c-4 25 -16 71 -27 102 -20 53 -22 56 -46 47 -41 -16 -97 -11 -132 10 -49 30 -50 24 -7 -20z" id="57"/>
<path d="M4951 6937 c-28 -35 -117 -70 -220 -88 -58 -10 -112 -19 -120 -19 -8 0 11 -15 42 -34 31 -19 69 -44 83 -55 15 -12 36 -21 48 -21 36 0 124 67 147 112 44 86 56 147 20 105z" id="58"/>
<path d="M4317 6921 c-138 -31 -177 -98 -185 -318 l-4 -133 35 -35 c19 -19 44 -35 56 -35 20 0 21 5 21 88 0 65 -5 98 -20 131 -26 57 -26 65 13 108 18 21 48 59 67 85 18 26 57 64 87 85 29 20 53 38 53 40 0 7 -48 1 -123 -16z" id="59"/>
<path d="M3745 6892 c-30 -8 -30 -8 32 -41 34 -18 70 -42 80 -53 64 -69 78 -79 81 -60 5 29 -37 131 -58 142 -26 14 -99 20 -135 12z" id="60"/>
<path d="M4350 6842 c-24 -23 -41 -45 -38 -47 4 -4 96 23 106 31 2 1 -3 15 -11 30 l-15 28 -42 -42z" id="61"/>
<path d="M5202 6827 c-27 -29 -28 -66 -3 -115 19 -37 78 -102 92 -102 4 0 -3 25 -14 56 -18 48 -19 62 -9 98 9 37 8 43 -10 64 -27 27 -29 27 -56 -1z" id="62"/>
<path d="M3730 6820 c-14 -11 -37 -22 -52 -25 -54 -12 -27 -22 35 -13 34 5 77 7 95 4 43 -6 41 6 -7 32 -46 26 -40 26 -71 2z" id="63"/>
<path d="M3470 6810 c0 -31 24 -82 49 -105 l22 -19 34 39 c39 46 42 55 17 55 -10 0 -41 11 -68 25 -27 14 -50 25 -51 25 -2 0 -3 -9 -3 -20z" id="64"/>
<path d="M3236 6743 c3 -27 13 -64 21 -83 22 -54 98 -172 132 -204 l31 -30 0 36 c0 20 3 43 6 51 3 9 -12 35 -38 64 -24 27 -65 86 -92 131 -26 45 -52 82 -58 82 -5 0 -7 -19 -2 -47z" id="65"/>
<path d="M5287 6756 c-9 -24 -1 -55 39 -157 19 -48 34 -101 34 -118 0 -68 -68 -160 -158 -215 -116 -70 -152 -139 -123 -229 18 -55 36 -64 36 -18 0 54 41 102 141 167 92 60 123 93 161 167 22 45 25 60 21 124 -6 83 -51 188 -111 257 -28 34 -34 37 -40 22z" id="66"/>
<path d="M3596 6719 c-37 -43 -32 -55 9 -23 36 27 42 39 26 48 -5 4 -21 -8 -35 -25z" id="67"/>
<path d="M4667 6735 c-7 -16 -3 -20 36 -29 33 -8 36 7 5 28 -28 20 -34 20 -41 1z" id="68"/>
<path d="M4361 6697 c-54 -28 -60 -40 -27 -55 33 -15 126 -27 126 -16 0 21 -34 94 -44 94 -6 0 -31 -11 -55 -23z" id="69"/>
<path d="M4480 6700 c-19 -12 1 -56 30 -65 35 -11 40 8 11 42 -19 23 -31 29 -41 23z" id="70"/>
<path d="M3636 6679 c-45 -36 -27 -59 48 -59 22 0 27 4 22 16 -3 9 -9 27 -12 40 -8 29 -23 30 -58 3z" id="71"/>
<path d="M4582 6680 c-16 -26 -15 -30 7 -30 17 0 31 18 31 41 0 16 -25 9 -38 -11z" id="72"/>
<path d="M4646 6693 c-14 -14 -5 -31 14 -26 11 3 20 9 20 13 0 10 -26 20 -34 13z" id="73"/>
<path d="M3720 6667 c0 -19 33 -47 53 -47 22 0 21 4 -7 34 -25 28 -46 34 -46 13z" id="74"/>
<path d="M3817 6663 c-12 -11 -8 -23 7 -23 8 0 16 7 20 15 5 15 -14 21 -27 8z" id="75"/>
<path d="M3214 6636 c-32 -50 -30 -121 7 -245 l33 -111 26 25 25 25 -25 68 c-18 49 -24 88 -25 147 0 44 -5 89 -11 99 -11 18 -12 18 -30 -8z" id="76"/>
<path d="M3866 6644 c-8 -21 -1 -28 18 -21 9 4 13 13 10 22 -8 20 -20 19 -28 -1z" id="77"/>
<path d="M5481 6655 c0 -18 28 -61 29 -44 0 8 -7 24 -15 35 -8 10 -14 15 -14 9z" id="78"/>
<path d="M8425 6627 c-52 -25 -90 -35 -145 -40 -91 -8 -154 -28 -285 -95 -133 -66 -189 -82 -320 -89 -123 -6 -160 -21 -210 -87 -21 -28 -38 -37 -96 -51 -39 -10 -83 -28 -99 -41 -15 -13 -41 -24 -57 -24 -30 0 -176 -34 -193 -45 -6 -4 -10 -17 -10 -31 0 -33 -31 -61 -76 -70 -33 -6 -40 -4 -53 16 -34 50 -93 100 -155 130 l-65 32 -108 -11 c-135 -14 -215 -13 -321 3 -75 11 -86 15 -109 44 -39 51 -53 54 -119 31 -35 -12 -72 -18 -91 -15 -22 3 -33 1 -33 -7 1 -36 149 -582 159 -585 6 -2 41 8 77 22 50 20 69 24 84 16 11 -6 20 -17 20 -25 0 -25 53 -77 99 -97 39 -17 142 -35 302 -55 58 -7 84 7 84 44 0 45 50 65 150 60 106 -5 173 -33 181 -77 7 -31 13 -34 84 -44 71 -9 126 -30 163 -63 43 -38 66 -41 172 -17 113 24 286 29 386 10 151 -28 236 -19 366 40 98 45 171 50 276 18 16 -5 17 8 17 185 l0 191 -49 -24 c-27 -14 -68 -48 -92 -75 -67 -76 -119 -95 -249 -91 -206 6 -200 7 -291 -33 -106 -46 -216 -75 -318 -83 -66 -6 -83 -4 -125 16 -27 12 -80 28 -120 36 -82 17 -111 34 -134 75 -17 30 -25 33 -140 59 -61 14 -69 22 -48 52 9 12 16 37 16 54 0 35 16 52 75 82 62 30 131 41 237 35 53 -3 107 -3 120 0 12 4 46 28 74 55 58 55 173 114 252 131 42 9 80 8 178 -4 211 -26 339 1 520 110 l94 57 0 154 c0 85 -1 154 -3 154 -1 0 -34 -15 -72 -33z" id="79"/>
<path d="M2853 6605 c-25 -18 -29 -45 -12 -77 16 -29 -5 -40 -61 -33 -45 6 -46 6 -88 -44 -24 -28 -48 -51 -53 -51 -6 0 -22 27 -37 60 -15 32 -30 59 -33 60 -3 0 -16 -28 -30 -62 -35 -90 -57 -103 -177 -103 -133 -1 -182 -23 -207 -91 -43 -118 -103 -123 -269 -27 -12 7 -40 13 -63 13 -34 0 -46 -5 -67 -31 -14 -17 -26 -37 -26 -45 0 -8 -16 -24 -36 -36 -26 -15 -32 -23 -22 -29 7 -5 19 -9 25 -9 17 0 114 -63 134 -86 9 -11 28 -54 43 -97 l28 -78 58 7 c52 6 59 4 83 -20 20 -20 36 -26 68 -26 49 0 224 -45 257 -66 48 -31 20 -81 -71 -124 -59 -27 -117 -81 -117 -107 0 -24 -27 -49 -99 -92 -73 -44 -106 -40 -144 17 -36 53 -54 50 -113 -15 -34 -38 -45 -45 -65 -40 -28 7 -144 -52 -144 -73 0 -7 23 -21 52 -31 67 -26 73 -44 28 -88 -32 -33 -41 -36 -108 -41 -71 -5 -72 -6 -77 -35 -4 -22 -15 -34 -41 -47 -20 -9 -51 -35 -68 -57 -26 -33 -45 -45 -98 -61 -36 -11 -78 -20 -93 -20 -50 0 -159 -40 -195 -71 -18 -17 -49 -34 -67 -40 -72 -20 -103 -9 -190 67 -55 49 -111 74 -163 74 -35 0 -52 6 -70 25 -23 22 -25 32 -25 110 0 95 -7 108 -77 143 -76 39 -146 54 -285 59 l-138 6 0 -435 0 -435 31 -7 c17 -3 53 -6 78 -6 50 0 75 18 115 82 28 44 72 58 184 58 l101 0 22 -31 c20 -29 25 -30 68 -25 110 15 121 18 143 43 65 72 66 73 111 73 53 0 84 -22 121 -84 35 -60 79 -86 148 -86 l54 0 17 52 c14 46 15 54 2 68 -23 25 -18 55 16 110 55 90 146 119 297 93 92 -15 171 -11 127 8 -11 4 -67 15 -125 24 -107 16 -153 35 -144 58 8 21 258 117 304 117 22 0 90 7 152 16 71 10 203 16 353 18 173 2 247 6 267 16 27 13 43 36 30 44 -4 2 -140 10 -302 16 -311 14 -412 28 -418 62 -8 41 139 94 303 108 64 6 122 14 129 18 6 4 151 10 321 13 292 6 393 15 458 41 39 15 34 26 -15 32 -143 16 -369 36 -467 41 -117 6 -166 19 -166 45 0 32 55 42 338 60 155 10 291 21 302 25 41 16 55 37 55 81 0 24 7 79 16 123 15 75 15 84 -1 135 -18 57 -17 99 6 153 11 27 10 37 -6 74 -21 45 -25 104 -12 155 7 27 5 32 -18 42 -24 11 -25 15 -26 109 0 122 -30 216 -70 221 -13 1 -34 -4 -46 -13z" id="80"/>
<path d="M5245 6603 c4 -10 8 -52 11 -93 3 -62 2 -69 -6 -42 -6 17 -14 32 -19 32 -15 0 -50 -46 -71 -95 -19 -42 -70 -183 -70 -191 0 -1 41 25 92 59 98 67 141 119 153 186 8 46 -4 78 -45 125 -34 38 -57 48 -45 19z" id="81"/>
<path d="M5511 6590 c0 -8 4 -24 9 -35 l9 -20 0 20 c0 11 -4 27 -9 35 -9 13 -10 13 -9 0z" id="82"/>
<path d="M5452 6533 c27 -97 7 -188 -58 -265 -72 -86 -53 -194 60 -343 25 -33 53 -80 61 -105 21 -61 28 -163 17 -240 -5 -36 -9 -66 -7 -68 1 -1 29 16 63 37 55 36 62 45 76 92 19 62 20 119 5 174 -12 43 -66 101 -157 167 -110 81 -118 163 -33 325 28 53 51 108 51 123 0 26 -66 140 -81 140 -4 0 -3 -17 3 -37z" id="83"/>
<path d="M3281 6493 c8 -70 20 -110 59 -198 l23 -50 8 35 c10 46 -20 175 -56 235 -14 25 -29 45 -34 45 -4 0 -4 -30 0 -67z" id="84"/>
<path d="M5551 6458 c3 -70 9 -91 34 -133 22 -38 30 -46 33 -31 8 40 -43 246 -61 246 -5 0 -7 -36 -6 -82z" id="85"/>
<path d="M13 6454 c-10 -4 -13 -65 -13 -253 l0 -247 72 -12 c84 -13 114 -32 149 -97 41 -78 104 -99 339 -114 80 -6 159 -15 175 -21 16 -6 49 -29 73 -52 l45 -41 116 7 c212 14 221 11 273 -84 32 -57 34 -59 65 -54 75 14 181 -44 196 -106 4 -14 22 -36 41 -49 l35 -23 32 26 c45 38 103 66 138 66 22 0 37 9 56 34 51 67 123 72 152 11 25 -52 44 -52 123 -6 53 32 70 47 75 70 8 38 68 92 143 130 68 34 81 55 49 75 -37 23 -192 66 -240 66 -31 0 -53 7 -73 23 -22 17 -42 22 -88 22 l-59 0 -31 80 c-40 102 -37 99 -102 140 -44 29 -64 35 -107 35 -68 0 -93 18 -100 71 -9 64 -69 117 -139 120 -52 3 -147 -10 -171 -22 -12 -6 -32 -21 -45 -33 l-23 -21 -55 29 -54 28 -53 -23 c-72 -31 -151 -30 -242 3 -38 14 -112 38 -164 53 -105 29 -172 60 -221 101 -24 21 -55 32 -124 45 -102 20 -225 31 -243 23z" id="86"/>
<path d="M3386 6378 c9 -29 25 -66 35 -83 l20 -30 -6 65 c-5 48 -12 70 -27 83 -33 28 -38 20 -22 -35z" id="87"/>
<path d="M4124 6394 c-4 -14 -4 -79 0 -143 l7 -117 -31 -39 c-16 -21 -29 -40 -27 -42 2 -2 18 4 36 13 31 15 55 16 146 2 17 -3 20 3 23 46 2 27 -4 79 -12 115 -9 36 -17 84 -18 105 -3 36 -6 41 -38 49 -19 5 -42 15 -51 23 -22 20 -28 18 -35 -12z" id="88"/>
<path d="M5487 6278 c-74 -145 -64 -219 40 -291 133 -91 165 -141 165 -258 0 -90 8 -93 44 -15 17 37 24 69 24 117 0 64 -1 68 -35 93 -57 44 -84 102 -95 202 -7 63 -19 106 -40 149 -52 108 -49 108 -103 3z" id="89"/>
<path d="M8455 6299 c-62 -42 -202 -107 -266 -123 -75 -18 -233 -21 -355 -6 -64 8 -91 7 -139 -5 -80 -21 -179 -76 -242 -136 l-52 -49 -149 0 c-148 0 -149 0 -213 -32 -57 -29 -65 -37 -70 -68 -4 -19 -10 -43 -13 -52 -8 -18 -6 -18 117 -49 36 -9 51 -18 63 -40 20 -40 49 -56 132 -74 40 -8 91 -24 114 -36 37 -19 52 -21 119 -15 103 8 206 36 309 82 82 38 88 39 175 35 244 -11 272 -5 355 83 35 36 82 73 110 86 l50 23 0 199 c0 109 -3 198 -7 198 -5 0 -21 -9 -38 -21z" id="90"/>
<path d="M3183 6267 c-78 -104 -71 -175 27 -285 48 -53 90 -139 90 -182 0 -11 3 -20 8 -19 11 1 72 87 72 103 0 7 -27 50 -59 95 -72 99 -96 163 -87 232 7 48 0 99 -13 99 -3 0 -20 -20 -38 -43z" id="91"/>
<path d="M3288 6281 c-62 -73 -48 -156 48 -284 46 -62 81 -144 91 -213 3 -24 9 -44 13 -44 4 0 15 26 24 59 18 65 14 89 -28 144 -13 18 -38 60 -55 93 -26 51 -31 74 -31 130 0 44 -7 83 -18 108 l-18 39 -26 -32z" id="92"/>
<path d="M3380 6206 c-15 -88 -7 -119 52 -211 71 -111 73 -121 53 -195 -34 -122 -33 -128 29 -237 31 -55 56 -111 56 -125 0 -14 -13 -58 -30 -98 -53 -129 -29 -115 41 24 49 98 51 144 10 219 -44 78 -54 127 -38 175 11 33 12 45 1 73 -7 19 -32 108 -54 198 -30 121 -49 175 -71 207 -16 24 -31 44 -33 44 -2 0 -9 -33 -16 -74z" id="93"/>
<path d="M5298 6195 l-26 -15 19 -37 c10 -20 19 -51 19 -68 0 -16 9 -86 21 -155 29 -174 24 -275 -18 -361 -18 -35 -49 -80 -69 -99 l-37 -35 40 55 c79 107 99 178 89 307 -9 113 -21 144 -29 77 -6 -56 -81 -277 -125 -375 -17 -36 -38 -93 -46 -126 -18 -68 -21 -169 -6 -178 6 -3 10 5 10 19 0 46 19 75 118 181 113 121 164 210 189 330 21 103 8 173 -45 252 -45 65 -76 158 -70 209 4 38 3 39 -34 19z" id="94"/>
<path d="M5643 6123 c5 -43 16 -91 24 -108 16 -32 72 -95 84 -95 5 0 1 23 -7 51 -19 62 -94 229 -104 229 -3 0 -2 -35 3 -77z" id="95"/>
<path d="M5794 6155 c50 -303 93 -630 105 -805 15 -205 21 -251 32 -245 5 4 9 21 9 39 0 18 12 95 26 172 22 114 25 158 21 244 -5 101 -8 115 -96 365 -51 143 -95 262 -98 265 -3 3 -3 -13 1 -35z" id="96"/>
<path d="M5195 6126 l-30 -25 38 -1 c33 0 40 -4 52 -32 l13 -33 7 37 c4 20 5 44 3 55 -5 28 -48 27 -83 -1z" id="97"/>
<path d="M5151 6061 c-27 -27 -27 -75 -1 -101 19 -19 22 -19 50 -5 32 16 44 45 38 91 -2 24 -8 29 -35 32 -22 2 -38 -3 -52 -17z" id="98"/>
<path d="M4087 6030 c-31 -16 -63 -30 -72 -30 -22 0 -18 -17 6 -30 17 -10 39 -5 120 26 54 20 99 41 99 45 0 9 -37 19 -71 19 -14 0 -51 -13 -82 -30z" id="99"/>
<path d="M5275 6021 c-3 -11 -18 -37 -32 -58 -29 -42 -98 -216 -137 -344 -24 -79 -35 -187 -20 -202 6 -5 37 51 144 259 20 39 42 96 49 125 18 76 27 239 13 239 -6 0 -13 -9 -17 -19z" id="100"/>
<path d="M5935 5920 c3 -30 15 -82 25 -115 59 -183 63 -278 23 -511 l-27 -161 37 -32 c23 -21 39 -45 43 -67 3 -19 19 -50 35 -70 l29 -36 -5 96 c-3 53 -7 138 -10 189 -7 143 -123 729 -149 754 -5 5 -5 -17 -1 -47z" id="101"/>
<path d="M5077 5918 c-26 -45 -113 -136 -163 -169 -16 -11 -89 -49 -162 -85 -129 -62 -136 -67 -245 -178 -96 -97 -121 -116 -172 -135 -90 -34 -183 -38 -284 -12 -47 11 -86 19 -88 18 -1 -2 29 -26 69 -53 59 -40 87 -52 157 -66 98 -20 261 -24 312 -7 19 6 117 59 218 118 188 108 295 192 341 266 11 18 36 82 54 142 51 163 51 158 17 182 l-29 21 -25 -42z" id="102"/>
<path d="M0 5621 l0 -311 133 0 c87 0 153 -5 192 -15 68 -18 172 -71 184 -94 5 -9 11 -56 14 -105 4 -58 11 -95 21 -104 8 -8 37 -15 69 -17 57 -2 95 -23 207 -112 40 -32 49 -35 94 -30 28 2 52 10 57 19 14 26 141 76 230 92 113 19 150 36 189 84 18 23 45 45 61 51 19 7 29 17 29 30 0 12 9 30 21 42 18 18 28 20 73 15 44 -6 57 -3 86 16 40 28 48 46 23 54 -109 37 -203 101 -203 140 0 17 -12 32 -42 51 -34 23 -53 28 -102 28 -34 0 -67 4 -74 8 -7 5 -23 30 -37 57 -37 73 -68 93 -135 86 -181 -18 -226 -18 -258 -2 -18 9 -39 27 -47 40 -25 37 -59 46 -239 61 -243 20 -309 43 -347 122 -25 53 -59 81 -108 88 -20 4 -48 9 -63 11 l-28 6 0 -311z" id="103"/>
<path d="M5468 5780 c-3 -60 -12 -116 -26 -153 -24 -68 -104 -192 -138 -214 -13 -8 -24 -19 -24 -23 0 -4 49 18 109 49 l109 56 12 57 c17 80 9 222 -17 278 l-20 45 -5 -95z" id="104"/>
<path d="M3368 5819 c-39 -53 -48 -74 -48 -120 0 -56 29 -114 85 -169 l46 -45 20 24 c25 30 24 44 -5 94 -14 23 -35 89 -49 146 l-23 105 -26 -35z" id="105"/>
<path d="M3234 5749 c-54 -89 -54 -133 1 -189 l40 -41 13 43 c9 30 11 70 6 128 -10 131 -14 134 -60 59z" id="106"/>
<path d="M3570 5715 c0 -49 17 -89 80 -186 50 -78 58 -127 31 -197 -30 -76 -27 -105 19 -174 35 -53 40 -67 40 -117 0 -75 -21 -147 -64 -226 -42 -76 -35 -86 11 -17 84 124 107 226 79 350 -9 39 -16 115 -16 170 0 115 -22 193 -77 275 -19 29 -48 78 -64 110 -16 31 -31 57 -34 57 -3 0 -5 -20 -5 -45z" id="107"/>
<path d="M6108 5692 c-36 -15 -69 -29 -72 -32 -2 -3 11 -84 29 -180 19 -96 35 -200 35 -231 0 -112 13 -269 22 -269 5 0 43 23 85 52 l77 51 45 -13 c69 -20 126 -23 152 -9 15 8 72 14 150 16 l126 3 92 -45 c51 -25 103 -45 115 -45 38 0 119 31 156 60 53 41 68 47 187 74 102 24 172 52 306 123 69 36 79 20 33 -54 -19 -32 -40 -81 -46 -109 -13 -59 -19 -68 -78 -113 -24 -19 -54 -55 -68 -83 -14 -27 -49 -73 -79 -101 -29 -29 -63 -74 -76 -101 -18 -40 -30 -52 -68 -68 -25 -10 -57 -30 -71 -44 -20 -18 -35 -23 -65 -21 -39 2 -39 1 -58 -50 -18 -49 -22 -53 -52 -53 -21 0 -39 -8 -55 -25 -21 -22 -32 -25 -92 -25 -65 0 -87 -11 -51 -25 25 -9 693 -4 693 6 0 4 -17 13 -37 20 -52 17 -80 36 -86 61 -8 29 30 63 79 72 77 14 209 49 237 63 15 8 32 25 37 38 17 44 50 55 187 66 200 16 300 46 382 114 31 26 40 58 21 70 -21 13 -9 55 24 89 30 29 105 72 159 90 15 5 17 24 17 220 l0 215 -54 12 c-77 17 -147 7 -261 -36 -125 -47 -204 -54 -339 -30 -113 20 -275 17 -391 -9 -109 -24 -141 -21 -178 16 -34 34 -127 68 -187 68 -45 0 -54 7 -73 52 -14 33 -22 39 -72 54 -66 18 -183 16 -208 -5 -12 -9 -14 -19 -7 -37 9 -23 6 -26 -27 -40 -22 -9 -53 -14 -77 -11 -213 24 -321 50 -371 89 -14 11 -35 37 -45 59 -11 21 -24 39 -28 38 -4 0 -37 -13 -74 -27z" id="108"/>
<path d="M3661 5648 c14 -26 201 -220 206 -214 7 7 -113 160 -156 199 -47 42 -68 49 -50 15z" id="109"/>
<path d="M5680 5605 c-29 -30 -32 -36 -19 -51 12 -14 68 -44 82 -44 5 0 -19 119 -25 125 -2 3 -19 -11 -38 -30z" id="110"/>
<path d="M3306 5532 c-9 -31 -37 -91 -62 -133 -52 -89 -57 -133 -20 -193 l24 -39 21 49 c23 52 112 194 144 231 l20 23 -48 52 c-27 29 -51 56 -55 60 -3 5 -14 -18 -24 -50z" id="111"/>
<path d="M5157 5504 c-45 -90 -65 -159 -73 -253 -7 -82 10 -145 41 -157 27 -11 97 28 156 87 113 113 118 236 7 182 -66 -31 -105 -69 -124 -118 -18 -47 -9 -75 23 -75 22 0 73 56 73 79 0 26 -25 28 -39 4 -6 -10 -11 -14 -11 -9 0 17 32 45 46 39 8 -3 14 -19 14 -38 0 -48 -47 -95 -93 -95 -50 0 -67 27 -67 110 0 74 16 138 61 236 39 89 29 94 -14 8z" id="112"/>
<path d="M5609 5540 l-24 -20 37 -33 c21 -19 56 -39 79 -46 22 -7 48 -15 57 -18 12 -5 14 -1 8 23 -10 39 -22 52 -56 59 -16 3 -40 17 -53 31 l-25 24 -23 -20z" id="113"/>
<path d="M4943 5470 c-57 -43 -176 -120 -265 -172 l-163 -93 -115 -4 c-65 -2 -145 2 -183 9 -38 7 -71 10 -74 7 -2 -3 19 -30 49 -60 44 -45 65 -58 123 -77 127 -41 321 -120 379 -155 32 -19 60 -35 61 -35 1 0 5 17 8 38 14 85 95 171 228 240 l74 39 7 84 c4 48 3 99 -2 119 -6 19 -10 59 -10 88 0 28 -3 52 -7 51 -5 0 -54 -36 -110 -79z" id="114"/>
<path d="M2975 5513 c-22 -12 -102 -21 -313 -34 -285 -18 -322 -23 -322 -39 0 -14 28 -18 170 -25 74 -3 171 -11 215 -16 44 -6 122 -14 173 -18 67 -6 98 -13 110 -25 16 -16 16 -18 -6 -37 -52 -42 -195 -59 -517 -59 -174 -1 -257 -5 -300 -15 -33 -8 -85 -15 -115 -15 -96 -1 -290 -54 -290 -80 0 -26 84 -35 560 -58 150 -7 155 -8 158 -29 5 -36 -39 -69 -100 -77 -29 -3 -147 -6 -263 -6 -133 0 -245 -6 -305 -15 -52 -8 -117 -15 -144 -15 -35 0 -83 -14 -165 -46 -64 -26 -120 -50 -125 -55 -10 -9 47 -25 124 -34 82 -9 160 -34 160 -49 0 -29 -58 -40 -144 -28 -187 27 -263 5 -315 -91 -20 -37 -22 -48 -12 -61 11 -13 17 -11 49 11 48 32 99 27 152 -16 22 -17 41 -31 43 -31 3 0 24 16 47 35 41 34 42 34 72 19 l31 -16 106 105 c58 58 115 109 126 114 29 13 182 9 236 -7 l45 -13 69 53 68 54 41 -47 41 -47 32 21 c28 18 37 19 68 9 32 -11 35 -15 35 -50 0 -55 14 -57 47 -5 15 25 32 45 36 45 5 0 31 -10 58 -21 49 -21 50 -21 90 -4 40 19 41 19 84 -5 43 -23 44 -23 95 -7 46 15 55 15 87 2 19 -8 36 -15 38 -15 1 0 14 29 30 65 15 36 30 65 34 65 12 0 76 -42 103 -68 15 -14 31 -23 35 -19 7 8 9 51 5 142 -2 57 -4 61 -42 89 -55 41 -70 76 -63 158 5 60 2 74 -30 150 -19 45 -40 101 -47 123 -17 54 -20 56 -55 38z" id="115"/>
<path d="M3500 5524 c0 -7 -20 -34 -45 -62 -96 -107 -111 -223 -42 -322 14 -20 15 -19 42 22 15 23 29 59 31 79 2 20 14 62 28 93 39 87 41 114 12 161 -14 22 -26 35 -26 29z" id="116"/>
<path d="M3745 5498 c41 -142 194 -357 303 -427 58 -37 62 -38 62 -8 0 46 -12 65 -53 83 -62 28 -142 114 -183 197 -57 113 -149 224 -129 155z" id="117"/>
<path d="M5533 5493 c-13 -8 -23 -19 -23 -23 0 -16 96 -68 165 -90 39 -13 82 -29 98 -37 29 -15 33 -8 16 31 -9 19 -29 31 -77 47 -37 12 -81 36 -102 55 -42 38 -46 39 -77 17z" id="118"/>
<path d="M3640 5462 c0 -42 -69 -175 -143 -274 -122 -164 -143 -263 -77 -371 19 -31 39 -57 45 -57 5 0 27 15 49 33 36 31 39 37 41 93 1 34 18 117 38 185 20 68 38 144 42 169 3 25 15 70 26 101 17 48 19 63 9 97 -13 51 -30 64 -30 24z" id="119"/>
<path d="M5469 5459 c-17 -10 13 -44 84 -96 44 -33 266 -137 274 -129 2 2 1 15 -3 30 -8 34 -42 60 -112 86 -31 11 -76 28 -100 36 -24 9 -63 31 -86 49 -29 22 -48 30 -57 24z" id="120"/>
<path d="M5408 5429 c-17 -9 -16 -13 7 -58 31 -63 67 -92 184 -151 160 -80 190 -127 200 -310 l6 -115 23 74 c44 140 49 246 15 313 -15 31 -37 44 -148 88 -83 33 -173 90 -219 139 -32 33 -41 36 -68 20z" id="121"/>
<path d="M5356 5401 c-3 -5 1 -11 9 -15 10 -3 15 -19 15 -43 0 -55 47 -145 129 -248 124 -154 181 -302 184 -472 1 -46 4 -83 7 -83 3 0 22 44 43 99 l39 98 -4 149 c-5 210 -22 239 -193 325 -107 54 -157 95 -185 154 -21 44 -33 54 -44 36z" id="122"/>
<path d="M3880 5390 c0 -46 111 -184 173 -216 37 -20 43 -13 28 36 -9 31 -25 49 -69 81 -31 23 -74 58 -94 77 -23 22 -38 30 -38 22z" id="123"/>
<path d="M3770 5293 c0 -38 7 -95 15 -128 20 -82 18 -152 -4 -224 -28 -89 -62 -142 -168 -255 -52 -55 -103 -117 -112 -136 -74 -145 -66 -328 18 -424 24 -27 86 -56 122 -56 l32 0 -40 43 c-50 54 -66 102 -61 180 5 82 25 120 175 339 69 101 135 203 146 228 30 66 27 143 -6 207 -15 29 -39 94 -53 145 -26 89 -49 148 -59 148 -3 0 -5 -30 -5 -67z" id="124"/>
<path d="M3318 5270 c-38 -63 -48 -95 -48 -146 0 -25 -9 -62 -20 -84 -37 -72 -22 -151 42 -232 l31 -40 15 28 c8 15 18 69 22 118 5 64 13 104 29 135 l23 44 -27 54 c-15 29 -31 79 -34 111 l-6 57 -27 -45z" id="125"/>
<path d="M5331 5216 c-22 -30 -41 -59 -41 -63 0 -4 29 -60 65 -123 174 -306 265 -512 265 -599 0 -46 12 -38 38 24 16 42 22 76 22 136 0 177 -61 341 -184 495 -35 45 -78 105 -94 133 l-29 52 -42 -55z" id="126"/>
<path d="M3855 5210 c11 -63 81 -193 140 -257 73 -81 127 -124 144 -114 21 14 4 45 -43 78 -33 24 -52 48 -76 100 -18 37 -54 91 -79 118 -26 28 -57 64 -69 80 l-23 30 6 -35z" id="127"/>
<path d="M7530 5184 c-76 -39 -136 -61 -219 -81 -86 -20 -126 -35 -165 -62 -61 -42 -134 -71 -178 -71 -17 0 -75 20 -127 44 l-96 45 -115 -3 c-63 -1 -125 -8 -137 -14 -30 -17 -87 -15 -148 4 l-51 17 -82 -54 c-87 -57 -101 -78 -85 -126 9 -25 16 -29 64 -34 30 -4 80 -12 111 -20 47 -11 66 -11 108 0 49 12 55 12 144 -20 l94 -33 36 32 c62 54 113 75 198 80 111 7 125 1 154 -61 13 -29 24 -59 24 -68 0 -33 -37 -51 -122 -60 -46 -5 -120 -18 -166 -29 -51 -12 -98 -18 -121 -14 -31 5 -52 -1 -120 -36 -55 -27 -87 -38 -94 -32 -25 21 -96 34 -141 28 -123 -19 22 -64 258 -82 l90 -6 56 -54 57 -54 67 0 c58 0 70 3 92 25 15 15 36 25 54 25 25 0 32 7 54 56 l26 57 39 -7 c31 -5 42 -2 57 16 10 11 42 31 70 44 45 20 54 29 69 67 10 27 38 65 69 94 29 28 66 75 83 105 20 34 51 69 82 92 43 32 51 43 61 89 6 28 24 76 41 104 16 29 26 53 22 52 -5 -1 -55 -25 -113 -55z" id="128"/>
<path d="M3607 5047 c-35 -126 -46 -197 -29 -197 11 1 89 122 101 159 22 69 6 171 -28 171 -4 0 -24 -60 -44 -133z" id="129"/>
<path d="M4130 5128 c0 -82 82 -381 131 -479 18 -36 12 -59 -16 -59 -17 0 -138 80 -132 86 9 10 44 -6 83 -37 21 -16 41 -26 46 -21 10 10 -48 160 -72 185 -16 18 -20 17 -86 -23 -182 -111 -254 -182 -254 -249 0 -44 -57 -158 -109 -221 -52 -62 -61 -82 -61 -135 0 -45 13 -84 33 -96 5 -4 6 -12 3 -18 -11 -17 -77 -13 -125 9 -23 11 -46 18 -51 15 -4 -2 -24 -29 -45 -59 -32 -46 -38 -63 -39 -111 -1 -51 2 -59 28 -81 36 -32 57 -28 78 16 15 30 17 32 18 12 0 -37 -27 -78 -60 -92 -27 -11 -38 -11 -77 6 -95 39 -129 123 -99 239 21 78 20 89 -7 120 l-22 26 -49 -107 -48 -107 7 -81 c8 -96 42 -187 88 -234 38 -41 123 -99 193 -135 64 -33 254 -99 272 -95 8 2 29 39 47 82 26 62 38 80 54 81 27 2 27 2 -7 -48 -26 -37 -52 -97 -52 -117 0 -13 28 -20 244 -56 152 -25 266 -37 406 -44 107 -5 204 -12 216 -15 16 -5 49 16 149 95 109 87 126 105 120 123 -18 64 -17 137 4 206 17 56 39 93 106 182 l85 112 -39 36 c-79 73 -78 162 4 343 26 57 54 121 61 143 21 58 20 135 -4 181 -32 64 -34 114 -12 222 11 53 23 105 26 114 4 13 -3 21 -23 29 -42 16 -62 38 -69 76 -7 39 -8 39 -99 -12 -119 -66 -167 -124 -195 -232 -6 -24 -15 -43 -21 -43 -6 0 -25 11 -42 24 -61 46 -216 112 -412 176 -53 18 -82 35 -122 73 l-53 50 0 -55z" id="130"/>
<path d="M5231 5115 c-19 -13 -37 -29 -40 -34 -4 -6 -3 -56 1 -112 11 -149 43 -209 212 -404 79 -91 124 -159 152 -227 10 -27 22 -48 26 -48 10 0 28 60 28 97 0 66 -33 179 -81 283 -60 126 -248 470 -258 470 -3 -1 -21 -12 -40 -25z" id="131"/>
<path d="M5946 5082 c-3 -10 3 -67 14 -127 11 -61 24 -153 28 -205 l7 -95 6 70 c4 39 10 124 14 190 l7 121 -27 32 c-31 37 -41 40 -49 14z" id="132"/>
<path d="M3705 5053 c-22 -104 -85 -199 -191 -285 -167 -135 -196 -241 -129 -479 40 -142 43 -207 15 -281 -25 -66 -25 -110 -2 -131 18 -16 19 -15 20 32 1 56 19 106 56 154 15 19 26 39 26 46 0 6 -14 35 -30 65 -75 132 -53 301 58 447 71 93 149 219 167 269 16 47 33 190 22 190 -4 0 -9 -12 -12 -27z" id="133"/>
<path d="M4030 5045 c0 -16 33 -64 64 -94 35 -34 36 -35 36 -10 0 48 -13 70 -51 89 -40 21 -49 24 -49 15z" id="134"/>
<path d="M5917 5028 c-3 -13 -7 -86 -8 -163 -1 -115 2 -154 20 -220 11 -44 21 -93 22 -110 3 -74 18 56 19 165 1 100 -28 332 -43 347 -3 2 -7 -6 -10 -19z" id="135"/>
<path d="M8425 5013 c-50 -25 -115 -79 -115 -96 0 -4 7 -15 15 -24 48 -48 -70 -145 -220 -183 -44 -10 -136 -24 -205 -29 -69 -5 -132 -12 -140 -15 -8 -4 -24 -23 -35 -44 -23 -42 -62 -59 -220 -93 -151 -33 -169 -65 -61 -109 34 -13 69 -38 95 -66 38 -42 42 -44 96 -44 71 0 116 -19 146 -61 13 -19 65 -78 116 -132 81 -86 99 -112 153 -223 66 -134 94 -164 156 -164 54 0 123 -27 179 -69 46 -35 93 -61 111 -61 2 0 4 324 4 720 0 570 -3 720 -12 720 -7 -1 -35 -12 -63 -27z" id="136"/>
<path d="M3947 4873 c-3 -49 -12 -107 -21 -130 -8 -24 -13 -43 -10 -43 3 0 19 10 36 21 69 50 77 176 15 227 -12 10 -15 -1 -20 -75z" id="137"/>
<path d="M5150 4895 c-7 -36 -9 -85 -6 -108 9 -60 66 -153 153 -249 92 -101 150 -188 212 -317 52 -109 61 -110 61 -13 0 96 -59 209 -188 359 -147 172 -201 266 -202 356 0 58 -17 43 -30 -28z" id="138"/>
<path d="M6037 4905 c-4 -33 -9 -96 -12 -140 -7 -99 -17 -152 -62 -330 -40 -162 -53 -234 -43 -240 12 -7 78 136 99 215 11 41 34 155 52 253 34 192 33 225 -10 278 l-19 23 -5 -59z" id="139"/>
<path d="M3919 4872 c-5 -15 -25 -59 -44 -97 -22 -42 -35 -83 -35 -107 0 -104 68 35 95 195 7 43 -2 49 -16 9z" id="140"/>
<path d="M4027 4827 c-3 -29 -3 -53 -2 -55 4 -4 75 41 75 48 0 3 -15 17 -34 32 l-34 27 -5 -52z" id="141"/>
<path d="M3051 4821 c-11 -27 -21 -52 -21 -56 0 -3 28 -39 62 -80 42 -50 65 -71 69 -62 4 7 15 44 23 81 15 65 15 70 -1 89 -21 23 -93 77 -103 77 -4 0 -17 -22 -29 -49z" id="142"/>
<path d="M6807 4856 c-36 -13 -84 -43 -137 -86 l-26 -21 -93 36 c-80 31 -98 35 -124 26 -42 -15 -95 -14 -153 4 -61 18 -124 20 -124 3 0 -7 21 -47 45 -88 25 -41 45 -80 45 -87 0 -10 15 -11 59 -7 44 5 72 2 108 -11 l49 -18 85 41 c69 34 90 40 114 33 20 -5 58 -1 112 11 45 10 118 22 163 27 100 11 114 22 98 74 -20 64 -39 77 -116 77 -37 -1 -84 -7 -105 -14z" id="143"/>
<path d="M2179 4809 c-46 -35 -77 -69 -100 -110 -44 -77 -58 -76 -19 1 16 33 30 62 30 64 0 3 -24 13 -54 22 -51 16 -56 16 -79 1 -14 -9 -38 -34 -54 -56 -39 -56 -48 -51 -18 9 27 54 26 56 -30 51 -20 -2 -178 -150 -217 -204 l-20 -27 38 -80 c30 -64 40 -78 53 -71 9 4 30 11 48 14 31 6 32 6 48 -50 9 -31 30 -83 46 -115 l29 -57 93 59 c51 33 103 60 115 60 12 0 29 8 38 19 66 77 61 75 137 54 13 -3 23 7 38 42 20 44 23 47 51 41 17 -3 48 -6 69 -6 46 0 65 -18 74 -70 4 -27 14 -44 28 -52 12 -6 25 -16 29 -22 14 -22 23 8 23 77 0 71 0 72 28 75 l28 3 -3 87 -3 87 -35 17 c-19 9 -51 20 -70 24 -49 9 -70 31 -70 71 0 69 -68 59 -133 -20 -18 -21 -49 -55 -71 -76 -39 -40 -55 -84 -56 -163 0 -21 -4 -38 -10 -38 -12 0 -12 26 0 110 8 55 14 69 43 95 18 17 42 43 53 59 10 16 23 34 28 41 6 8 0 24 -19 49 -15 20 -30 36 -34 36 -3 0 -36 -23 -72 -51z" id="144"/>
<path d="M3236 4829 c-3 -8 -19 -75 -36 -149 -18 -74 -56 -209 -86 -299 -29 -91 -52 -167 -50 -169 3 -2 23 10 45 28 22 18 45 30 51 28 7 -2 -5 -16 -27 -30 -22 -14 -68 -50 -104 -80 -35 -29 -125 -99 -199 -155 -74 -55 -156 -123 -182 -151 -61 -65 -131 -173 -157 -243 -28 -72 -27 -89 3 -89 13 0 33 -8 44 -17 21 -18 122 -195 122 -213 0 -27 -20 -2 -64 82 -27 50 -57 99 -68 110 -42 42 -157 2 -229 -80 -49 -56 -121 -201 -145 -292 -24 -92 -24 -258 0 -329 l18 -54 87 93 c96 104 171 199 171 218 0 20 -55 14 -85 -10 -15 -12 -34 -37 -42 -55 -16 -40 -37 -36 -22 5 27 75 108 114 170 82 18 -10 17 -14 -20 -68 -55 -80 -125 -159 -255 -287 -138 -136 -216 -246 -216 -304 l0 -40 68 51 c134 102 299 159 467 161 85 1 108 -2 153 -22 29 -13 66 -40 82 -60 34 -40 38 -26 11 35 -24 53 -92 110 -163 136 -58 21 -95 47 -47 33 57 -17 129 -55 166 -89 l40 -36 7 114 c5 77 3 128 -4 157 -16 57 -63 151 -111 218 -42 58 -47 82 -24 101 33 27 58 -7 76 -107 6 -29 22 -78 36 -110 22 -48 28 -54 35 -38 19 46 80 327 89 410 5 50 23 177 40 283 22 136 28 197 21 204 -19 19 -57 -1 -126 -67 -38 -36 -72 -63 -75 -60 -8 8 129 131 162 146 37 16 57 -2 57 -52 0 -21 -13 -122 -30 -224 -16 -102 -30 -193 -30 -203 1 -9 20 30 44 88 23 58 84 191 135 295 88 180 131 292 131 342 0 13 5 23 10 23 13 0 12 -15 -5 -80 -26 -99 -5 -74 59 69 l47 103 -44 47 c-57 61 -71 103 -65 200 6 91 33 159 95 239 23 30 43 61 43 67 0 22 -69 110 -74 94z" id="145"/>
<path d="M3341 4752 c-46 -131 -56 -192 -42 -257 7 -30 17 -55 22 -55 5 0 9 26 9 58 0 64 30 138 81 203 l31 39 -26 45 c-15 24 -30 46 -35 49 -5 3 -22 -34 -40 -82z" id="146"/>
<path d="M2540 4770 c-11 -15 -20 -33 -20 -38 0 -6 21 -18 48 -28 26 -9 59 -29 75 -43 22 -21 39 -26 95 -28 123 -7 112 12 112 -183 0 -155 6 -191 25 -160 19 31 145 -31 145 -72 0 -43 18 -2 75 170 46 139 55 178 47 195 -16 34 -114 146 -147 167 -36 24 -92 26 -122 5 -16 -11 -28 -13 -47 -5 -22 8 -31 5 -60 -20 -44 -39 -53 -38 -22 3 15 19 26 36 26 39 0 17 -37 16 -67 -2 l-35 -21 -54 25 -54 25 -20 -29z" id="147"/>
<path d="M6127 4634 c3 -91 1 -180 -6 -229 -12 -84 -30 -145 -43 -145 -4 0 0 19 8 43 20 54 30 203 24 332 l-5 100 -22 -135 c-12 -74 -24 -170 -28 -213 -3 -42 -15 -112 -25 -154 -11 -42 -18 -78 -16 -80 20 -21 106 102 153 217 38 95 65 210 58 250 -7 37 -53 116 -85 145 -19 17 -19 16 -13 -131z" id="148"/>
<path d="M3727 4566 c-117 -166 -141 -220 -134 -300 4 -58 23 -116 36 -116 4 0 7 18 8 40 2 47 12 67 68 136 71 87 104 165 113 272 4 50 5 92 2 92 -4 0 -45 -56 -93 -124z" id="149"/>
<path d="M5895 4540 c-4 -83 -5 -154 -2 -157 10 -10 47 77 47 111 0 34 -26 186 -34 193 -2 2 -7 -64 -11 -147z" id="150"/>
<path d="M3244 4594 c-35 -59 -41 -125 -19 -199 13 -48 28 -70 80 -122 35 -35 67 -63 73 -63 13 0 -39 168 -66 210 -30 47 -34 67 -30 149 1 39 0 71 -4 71 -4 0 -19 -21 -34 -46z" id="151"/>
<path d="M5188 4585 c-3 -32 -28 -102 -68 -190 -91 -202 -93 -271 -11 -349 l30 -29 20 47 20 46 -25 48 c-34 63 -29 123 16 195 88 137 99 190 51 247 l-28 34 -5 -49z" id="152"/>
<path d="M2658 4548 c3 -50 7 -68 18 -68 8 0 14 -1 14 -2 0 -33 35 -181 48 -207 20 -38 53 -51 78 -31 19 17 21 358 2 365 -7 2 -47 5 -88 8 l-75 4 3 -69z" id="153"/>
<path d="M1274 4581 c-23 -14 -38 -36 -53 -76 -12 -30 -21 -57 -21 -59 0 -1 17 -8 38 -14 38 -12 98 -62 128 -107 8 -13 36 -33 62 -45 26 -12 61 -35 79 -52 l31 -30 12 22 c7 12 41 55 75 95 l64 73 -47 88 c-31 58 -57 94 -75 104 -27 15 -29 14 -70 -30 -23 -25 -57 -63 -75 -85 l-33 -40 25 47 c14 26 26 50 26 55 -1 14 -77 63 -107 68 -18 4 -39 -1 -59 -14z" id="154"/>
<path d="M828 4582 c-9 -4 -33 -26 -53 -49 -37 -43 -51 -48 -183 -68 -38 -6 -45 -4 -71 24 -28 30 -31 31 -118 31 -48 0 -98 -3 -110 -6 -12 -3 -42 -32 -67 -65 l-46 -59 -90 0 -90 0 0 -185 c0 -170 1 -185 18 -185 9 0 67 13 128 29 62 16 155 35 207 42 91 12 96 11 125 -9 58 -42 213 -16 297 48 22 16 72 39 110 51 39 11 101 39 139 61 59 35 72 39 100 31 21 -6 32 -16 34 -31 5 -30 37 -45 84 -39 31 4 43 1 58 -15 27 -30 33 -36 61 -60 15 -13 34 -46 44 -78 25 -80 37 -91 106 -89 38 1 65 -3 76 -12 15 -12 16 -12 10 4 -4 10 -14 45 -23 79 -30 120 -90 211 -145 223 -28 6 -54 27 -119 99 -45 51 -84 66 -171 66 -83 0 -127 17 -167 66 -63 79 -78 94 -102 98 -14 3 -33 2 -42 -2z" id="155"/>
<path d="M5857 4535 c-5 -16 -35 -87 -67 -156 -56 -118 -110 -256 -110 -275 0 -9 87 154 156 292 28 58 35 81 32 120 -3 46 -4 47 -11 19z" id="156"/>
<path d="M6263 4502 c-1 -53 -15 -116 -42 -186 -23 -58 -20 -18 4 57 14 43 25 99 25 125 -1 45 -2 42 -38 -64 -21 -61 -57 -142 -80 -181 -23 -40 -42 -74 -42 -76 0 -11 73 12 91 29 31 28 139 239 139 272 0 28 -32 82 -49 82 -4 0 -8 -26 -8 -58z" id="157"/>
<path d="M6336 4508 c5 -23 25 -51 69 -93 35 -33 73 -75 85 -92 l21 -33 77 6 c94 7 127 18 152 54 l20 28 -58 62 -58 63 -137 13 c-76 7 -146 16 -157 19 -18 6 -19 3 -14 -27z" id="158"/>
<path d="M5310 4499 c0 -4 11 -32 25 -63 31 -70 18 -67 -15 3 -13 28 -27 51 -32 51 -16 0 6 -109 68 -340 28 -106 36 -156 37 -231 l2 -97 27 19 c53 38 70 243 29 348 -23 61 -20 85 4 28 36 -87 42 -187 19 -316 l-7 -33 26 17 c34 22 51 74 50 155 0 53 -7 81 -39 155 -44 100 -193 333 -194 304z" id="159"/>
<path d="M5251 4460 c0 -9 -17 -40 -37 -70 -53 -81 -64 -105 -64 -145 0 -39 24 -105 38 -105 13 0 43 68 32 75 -18 11 -10 84 16 149 14 36 24 75 21 88 -2 13 -5 16 -6 8z" id="160"/>
<path d="M2331 4445 c-14 -20 -40 -90 -46 -127 -8 -51 -22 -48 -17 3 5 47 -6 59 -55 59 -29 0 -35 -6 -69 -66 -20 -36 -38 -63 -41 -60 -3 2 0 14 7 25 9 18 8 21 -12 21 -13 0 -48 -16 -78 -35 -30 -19 -59 -35 -65 -35 -6 0 -20 -7 -31 -14 -20 -14 -20 -17 -7 -83 8 -37 16 -69 18 -71 2 -2 93 -30 202 -61 109 -32 208 -61 220 -65 18 -6 22 -2 28 24 4 17 18 38 32 48 52 36 63 51 63 91 0 49 16 97 48 139 20 28 23 38 13 58 -12 27 -31 32 -31 9 0 -8 -4 -15 -9 -15 -9 0 -21 56 -21 100 0 14 -4 32 -10 40 -11 18 -127 31 -139 15z" id="161"/>
<path d="M2599 4443 c0 -4 0 -26 0 -48 2 -55 -12 -99 -54 -166 -27 -43 -37 -73 -41 -121 -8 -78 -15 -92 -53 -108 -22 -9 -33 -22 -41 -49 -9 -33 -8 -37 20 -59 35 -27 65 -82 75 -135 4 -20 10 -37 14 -37 3 0 16 18 28 39 41 71 133 159 289 277 84 64 158 122 164 128 17 21 -17 74 -62 97 l-39 20 -40 -36 c-33 -30 -47 -36 -77 -33 -32 3 -40 9 -60 45 -13 24 -29 75 -35 115 l-13 73 -37 3 c-20 2 -37 0 -38 -5z" id="162"/>
<path d="M3191 4395 c-1 -66 25 -119 89 -180 83 -80 94 -114 65 -209 -8 -27 -15 -60 -15 -74 0 -59 60 -131 123 -146 40 -10 33 8 -17 40 -78 49 -92 97 -56 192 11 29 20 72 20 96 0 42 -4 48 -65 103 -79 70 -114 119 -131 181 l-13 47 0 -50z" id="163"/>
<path d="M5627 4343 c-19 -49 -38 -110 -41 -138 -3 -27 -8 -66 -12 -85 l-7 -35 31 36 c41 46 52 78 52 144 0 30 5 77 11 105 6 28 9 53 6 56 -2 2 -20 -35 -40 -83z" id="164"/>
<path d="M6277 4320 l-58 -109 88 5 c140 8 193 15 193 25 0 24 -52 108 -89 144 l-41 39 0 -44 c0 -58 -16 -114 -37 -131 -15 -13 -15 -12 0 16 8 17 18 47 22 67 7 38 -1 98 -14 98 -4 0 -33 -49 -64 -110z" id="165"/>
<path d="M5788 4277 c-84 -156 -110 -229 -97 -265 l9 -23 37 28 c21 15 39 28 41 28 10 6 97 363 90 370 -2 2 -38 -60 -80 -138z" id="166"/>
<path d="M1737 4391 c-24 -9 -148 -149 -172 -194 -18 -34 -18 -35 1 -68 36 -61 110 -77 183 -39 38 19 39 19 91 -1 29 -11 55 -18 57 -15 3 3 1 27 -3 53 -9 46 -11 48 -45 51 -21 2 -45 12 -55 23 -22 24 -10 38 17 20 12 -7 23 -10 26 -7 3 3 -9 35 -25 73 -17 37 -34 78 -37 91 -7 23 -10 25 -38 13z" id="167"/>
<path d="M5902 4346 c-30 -49 -89 -232 -79 -243 3 -2 21 10 41 27 29 26 36 39 36 69 0 21 9 73 20 116 11 43 19 80 17 81 -2 2 -18 -20 -35 -50z" id="168"/>
<path d="M6037 4393 c-2 -4 -10 -26 -17 -48 -24 -77 -82 -174 -132 -221 -43 -40 -46 -46 -24 -40 15 4 48 17 74 29 54 25 61 41 93 192 17 81 19 110 6 88z" id="169"/>
<path d="M5240 4334 c-13 -33 -13 -105 -1 -84 12 19 25 110 17 110 -4 0 -11 -12 -16 -26z" id="170"/>
<path d="M6752 4330 c-6 -11 -12 -22 -12 -25 0 -3 185 -5 412 -5 l411 0 -23 25 -23 25 -376 0 c-365 0 -377 -1 -389 -20z" id="171"/>
<path d="M6660 4283 c-116 -9 -140 -14 -140 -33 0 -25 7 -28 130 -73 l105 -37 18 21 c9 12 17 27 17 35 0 23 44 45 78 38 21 -4 34 -15 42 -35 16 -37 35 -37 48 1 22 61 102 61 125 0 14 -36 31 -38 52 -7 18 29 56 47 95 47 20 0 36 -10 57 -37 l30 -36 35 38 c29 32 42 38 85 42 47 5 54 3 77 -22 14 -15 26 -36 26 -46 0 -34 37 -22 57 18 13 27 29 42 55 52 50 18 88 3 117 -50 12 -21 29 -39 37 -39 18 0 -39 85 -71 106 -16 10 -129 14 -530 16 -280 2 -526 2 -545 1z" id="172"/>
<path d="M5278 4225 c-8 -61 -82 -322 -86 -305 -1 9 12 75 31 148 18 72 30 132 27 132 -7 0 -62 -125 -92 -210 -15 -41 -19 -71 -15 -115 4 -56 44 -166 64 -178 4 -3 23 7 42 22 l33 27 -16 54 c-16 54 -22 205 -8 213 4 3 7 -38 8 -91 0 -61 6 -108 15 -127 13 -27 14 -11 17 173 1 111 -1 224 -6 250 l-8 47 -6 -40z" id="173"/>
<path d="M1071 4236 c-24 -28 -95 -59 -197 -85 -23 -6 -58 -25 -79 -41 -86 -68 -275 -100 -325 -55 -19 17 -28 18 -118 7 -53 -6 -144 -23 -202 -37 -58 -14 -115 -27 -128 -30 -15 -4 -22 -13 -22 -29 0 -22 3 -23 77 -23 49 0 122 -11 196 -28 99 -22 123 -25 150 -15 18 6 120 17 228 25 179 12 202 15 260 41 53 24 74 28 124 25 135 -9 179 -5 222 17 56 29 81 28 93 -3 9 -24 34 -34 44 -17 2 4 -4 32 -14 62 -14 42 -25 58 -47 68 -16 8 -33 24 -39 35 -7 18 -18 22 -55 22 -44 0 -98 20 -100 37 -1 4 -2 14 -3 21 -2 18 -51 21 -65 3z" id="174"/>
<path d="M5314 4013 c1 -134 3 -243 4 -243 2 0 17 9 33 21 28 20 29 22 29 112 0 80 -29 236 -64 342 -1 6 -2 -99 -2 -232z" id="175"/>
<path d="M7648 4224 c-24 -13 -48 -42 -48 -58 0 -3 36 -6 80 -6 90 0 100 11 55 55 -28 28 -48 31 -87 9z" id="176"/>
<path d="M6997 4217 c-8 -7 -17 -20 -20 -29 -6 -16 0 -18 43 -18 52 0 59 6 38 32 -19 22 -44 28 -61 15z" id="177"/>
<path d="M7415 4223 c-26 -7 -55 -33 -55 -50 0 -10 20 -13 80 -13 86 0 94 6 64 48 -15 22 -42 26 -89 15z" id="178"/>
<path d="M7183 4208 c-12 -6 -24 -17 -27 -24 -4 -11 9 -14 60 -14 60 0 64 1 55 19 -17 31 -49 38 -88 19z" id="179"/>
<path d="M6283 4200 c-92 -13 -253 -66 -372 -122 -58 -27 -117 -54 -131 -60 -60 -25 7 -16 118 16 219 63 326 80 527 80 99 1 210 -3 248 -8 112 -14 88 8 -78 69 -79 30 -207 40 -312 25z" id="180"/>
<path d="M6817 4203 c-20 -20 -4 -33 38 -33 43 0 45 1 35 20 -10 20 -58 28 -73 13z" id="181"/>
<path d="M5616 4119 c-35 -42 -51 -79 -64 -149 -5 -30 -9 -55 -8 -56 0 -1 30 12 64 28 l64 29 -7 72 c-4 40 -11 80 -14 91 -7 16 -10 15 -35 -15z" id="182"/>
<path d="M6784 4141 c-2 -2 21 -17 51 -33 51 -26 64 -28 168 -28 127 0 163 -13 193 -71 16 -32 16 -33 -6 -51 -31 -25 -16 -41 32 -35 30 4 53 18 98 61 54 52 62 56 105 56 66 0 103 -25 131 -86 l23 -52 73 -17 c98 -24 155 -54 205 -109 46 -51 67 -62 133 -71 35 -4 61 -18 115 -62 83 -66 119 -83 203 -93 35 -5 88 -21 120 -37 31 -15 60 -29 64 -31 5 -2 8 19 8 46 0 46 -2 50 -27 55 -16 3 -62 31 -104 62 -69 50 -83 56 -149 64 -44 6 -84 17 -99 29 -27 19 -30 25 -103 177 -32 66 -60 108 -108 157 l-65 67 -528 3 c-291 2 -530 1 -533 -1z" id="183"/>
<path d="M6290 4094 c-14 -2 -59 -9 -100 -15 -167 -24 -517 -127 -639 -188 -77 -39 -425 -280 -416 -289 2 -2 89 36 192 86 304 146 493 217 733 276 192 48 294 59 462 54 150 -6 243 -26 376 -82 31 -13 59 -22 61 -20 8 8 -72 83 -128 122 -42 29 -66 38 -120 44 -80 10 -386 18 -421 12z" id="184"/>
<path d="M6800 4090 c0 -5 13 -16 29 -24 42 -22 140 -114 158 -150 9 -17 50 -67 92 -112 42 -45 92 -101 112 -125 34 -41 37 -43 91 -41 43 1 72 9 123 37 110 58 171 48 297 -46 89 -67 124 -79 226 -79 86 0 109 -10 192 -84 48 -43 72 -57 124 -70 69 -17 134 -20 210 -10 42 6 46 9 46 35 0 39 -81 83 -201 110 -108 23 -113 26 -203 95 -42 33 -83 56 -105 59 -20 4 -46 8 -59 11 -13 3 -54 33 -91 68 -69 65 -106 83 -220 107 -51 11 -54 13 -77 65 -26 58 -50 78 -107 88 -36 7 -41 4 -102 -55 -55 -53 -71 -62 -110 -67 -34 -3 -50 0 -65 13 -19 17 -19 18 2 45 16 22 18 32 9 49 -22 40 -62 51 -183 51 -95 0 -118 3 -146 20 -37 23 -42 24 -42 10z" id="185"/>
<path d="M1740 4063 c-24 -10 -53 -14 -92 -10 -32 3 -58 3 -58 0 0 -16 24 -83 30 -83 4 0 13 11 20 25 9 17 22 25 41 25 36 0 57 -22 70 -76 6 -24 13 -44 16 -44 2 0 18 7 35 16 31 16 32 16 59 -14 49 -54 61 -189 23 -263 -22 -44 -69 -76 -152 -103 -91 -31 -153 -67 -222 -132 -66 -62 -93 -127 -88 -214 7 -136 75 -188 284 -217 110 -15 125 -15 214 1 52 9 117 22 145 29 l49 13 13 60 c7 32 12 62 13 66 0 5 -82 7 -182 5 -183 -2 -183 -2 -241 26 -59 29 -87 64 -87 108 0 14 19 41 48 69 55 53 87 64 238 80 199 22 310 53 456 126 80 40 92 50 108 87 15 34 17 51 9 90 -27 144 -64 167 -429 267 -63 17 -147 42 -187 56 -82 28 -86 28 -133 7z" id="186"/>
<path d="M1277 3989 c-58 -31 -122 -39 -207 -26 -72 10 -78 9 -134 -16 -69 -32 -136 -43 -311 -52 -71 -4 -155 -13 -185 -20 -51 -13 -63 -12 -160 10 -122 29 -218 40 -254 31 l-26 -6 0 -240 c0 -185 3 -240 13 -240 6 0 28 4 47 10 19 5 121 16 225 25 206 16 298 36 396 86 60 30 61 30 182 23 l122 -6 84 41 c47 23 90 41 97 41 6 0 14 9 17 20 3 14 14 20 31 20 17 0 40 14 65 39 47 47 88 58 131 36 29 -15 32 -15 57 5 14 11 37 20 50 20 13 0 37 7 53 15 25 13 30 22 30 54 0 27 -7 44 -24 60 -20 19 -30 21 -73 15 -39 -5 -56 -2 -77 11 -16 11 -35 15 -51 11 -20 -5 -27 -1 -40 24 -9 16 -17 30 -18 30 -1 -1 -19 -10 -40 -21z" id="187"/>
<path d="M1654 3975 c-19 -30 -33 -87 -34 -137 0 -31 -5 -40 -30 -53 -16 -8 -43 -17 -60 -19 -17 -2 -39 -11 -50 -21 -14 -12 -27 -15 -47 -11 -86 22 -90 21 -139 -29 -33 -33 -52 -45 -66 -42 -14 4 -22 -2 -28 -19 -7 -17 -17 -24 -36 -24 -15 0 -59 -18 -99 -40 -62 -34 -81 -40 -132 -40 -33 0 -84 5 -114 10 -50 10 -57 8 -127 -26 -111 -53 -203 -73 -391 -84 -91 -6 -196 -15 -233 -21 l-68 -11 0 -379 c0 -209 4 -378 8 -375 16 10 244 38 367 46 98 6 132 12 185 35 91 38 157 42 261 16 64 -17 145 -26 344 -37 143 -7 323 -21 400 -31 85 -10 217 -17 337 -17 l198 -1 26 27 27 26 -17 49 c-10 26 -20 87 -23 136 -3 48 -8 87 -10 87 -2 0 -56 -12 -121 -26 -230 -50 -377 -42 -605 33 -212 70 -302 153 -283 258 9 46 48 91 105 119 25 13 172 65 327 115 291 95 310 104 344 170 20 39 16 165 -7 203 -20 34 -30 37 -89 23 -31 -7 -32 -6 -38 39 -11 73 -51 98 -82 51z" id="188"/>
<path d="M6265 3986 c-292 -48 -540 -133 -930 -319 -110 -52 -214 -98 -231 -101 -42 -9 -462 -348 -538 -434 -88 -100 -136 -178 -136 -221 l0 -36 47 55 c177 209 444 403 723 526 222 98 662 243 847 278 43 8 139 28 213 43 116 24 157 28 295 27 223 0 351 -33 483 -122 58 -40 144 -125 196 -195 16 -21 31 -36 33 -33 10 9 -62 160 -106 223 -27 37 -82 100 -123 139 -80 75 -155 113 -310 156 -95 25 -346 33 -463 14z" id="189"/>
<path d="M3144 3888 c-13 -25 -14 -36 -5 -50 14 -23 6 -38 -20 -38 -27 0 -47 -44 -29 -65 11 -13 17 -11 49 17 20 17 40 37 44 45 10 17 -2 123 -14 123 -5 0 -16 -14 -25 -32z" id="190"/>
<path d="M5115 3890 c-17 -27 -10 -142 11 -184 21 -43 31 -50 54 -36 12 7 10 18 -14 67 -15 32 -31 83 -34 113 -5 40 -10 51 -17 40z" id="191"/>
<path d="M5063 3808 c-28 -81 -24 -146 11 -193 15 -20 15 -20 37 2 23 22 23 23 5 60 -10 21 -23 66 -30 101 l-12 63 -11 -33z" id="192"/>
<path d="M5022 3778 c-28 -75 -40 -123 -48 -195 -8 -75 1 -79 59 -30 l37 32 -20 40 c-22 44 -26 114 -9 164 19 55 2 45 -19 -11z" id="193"/>
<path d="M4980 3759 c-32 -69 -48 -168 -34 -216 6 -23 9 -15 15 47 3 41 18 109 32 150 14 41 23 77 21 79 -2 2 -17 -25 -34 -60z" id="194"/>
<path d="M6409 3779 c-42 -4 -112 -17 -157 -28 -44 -12 -88 -21 -97 -21 -9 0 -31 -10 -48 -23 -18 -13 -66 -36 -107 -52 -132 -50 -469 -229 -456 -242 3 -3 45 11 95 30 96 39 235 78 451 127 203 47 287 60 378 60 80 0 88 -2 172 -46 119 -61 232 -168 362 -343 56 -75 128 -169 161 -210 77 -98 246 -354 337 -513 40 -71 75 -128 77 -128 21 0 -79 414 -138 577 -28 76 -72 202 -98 279 -42 126 -54 149 -102 205 -157 185 -257 260 -399 298 -140 38 -272 47 -431 30z" id="195"/>
<path d="M3147 3729 c-43 -35 -44 -45 -16 -100 l20 -41 24 22 c35 33 49 75 39 112 -5 17 -14 33 -19 35 -6 2 -27 -11 -48 -28z" id="196"/>
<path d="M3060 3717 c0 -22 35 -119 65 -177 15 -30 48 -74 74 -98 85 -80 239 -182 327 -218 47 -19 95 -39 105 -45 23 -12 202 -42 339 -58 52 -5 183 -13 290 -16 107 -3 204 -7 215 -10 25 -6 50 9 41 24 -5 7 -47 11 -114 11 -137 0 -593 53 -697 80 -150 40 -314 119 -423 202 -89 69 -181 202 -198 288 -6 30 -24 42 -24 17z" id="197"/>
<path d="M5950 3690 c-280 -76 -599 -186 -777 -270 -283 -133 -529 -319 -711 -539 -63 -75 -217 -389 -200 -406 3 -3 50 40 104 96 111 114 179 163 292 209 189 78 186 76 284 187 99 113 194 196 328 288 47 32 114 80 150 106 146 106 382 237 547 304 157 64 153 71 -17 25z" id="198"/>
<path d="M7410 3655 c-51 -27 -77 -34 -122 -35 -32 0 -58 -3 -58 -7 0 -5 9 -23 20 -40 l20 -33 97 0 c136 0 165 -10 232 -80 44 -46 83 -72 180 -122 l123 -63 217 0 c169 -1 231 -5 284 -18 100 -25 97 -26 97 46 l0 62 -127 0 c-152 0 -183 11 -280 98 -67 60 -77 64 -203 70 -85 4 -118 18 -202 83 -110 85 -173 94 -278 39z" id="199"/>
<path d="M3022 3638 c-36 -57 -91 -184 -131 -302 -43 -125 -126 -454 -117 -463 8 -8 2 -22 94 210 46 114 110 265 143 336 61 132 69 170 46 225 l-13 30 -22 -36z" id="200"/>
<path d="M3211 3614 c-30 -38 -26 -73 14 -118 39 -44 55 -43 78 7 24 50 21 69 -16 105 -40 39 -50 40 -76 6z" id="201"/>
<path d="M6347 3594 c-3 -3 -1 -19 5 -35 7 -22 3 -65 -18 -183 -23 -131 -26 -160 -16 -193 21 -66 24 -69 75 -49 36 14 46 22 51 48 10 48 7 246 -4 318 -16 98 -17 100 -54 100 -18 0 -35 -3 -39 -6z" id="202"/>
<path d="M6457 3529 c7 -41 12 -140 12 -222 l-1 -148 33 -22 32 -22 33 33 c35 35 73 42 99 16 9 -9 32 -47 51 -85 62 -124 96 -139 134 -59 l23 49 -47 103 c-75 162 -198 379 -229 402 -18 14 -47 21 -90 24 l-64 4 14 -73z" id="203"/>
<path d="M6265 3581 l-30 -6 0 -247 c0 -135 3 -249 6 -253 4 -3 23 2 43 12 25 12 36 22 32 33 -30 90 -31 97 -8 232 23 135 27 193 16 222 -6 17 -11 17 -59 7z" id="204"/>
<path d="M2355 3525 c-112 -54 -153 -67 -285 -95 -188 -39 -264 -77 -298 -146 -15 -32 -15 -36 5 -62 37 -51 76 -58 274 -54 l96 2 51 105 c59 121 113 184 189 221 53 26 69 42 61 63 -1 5 -43 -10 -93 -34z" id="205"/>
<path d="M6176 3561 c-7 -10 12 -287 24 -344 5 -29 8 22 9 156 1 165 -1 197 -13 197 -8 0 -17 -4 -20 -9z" id="206"/>
<path d="M3336 3527 c-9 -12 -21 -38 -27 -57 -12 -33 -11 -35 26 -67 22 -19 46 -32 55 -31 9 2 20 25 29 60 16 63 13 71 -38 101 -30 17 -30 17 -45 -6z" id="207"/>
<path d="M6110 3541 c0 -5 6 -22 13 -38 8 -19 14 -108 17 -269 l5 -242 32 27 32 26 -14 65 c-14 66 -29 197 -41 353 -5 77 -8 87 -25 87 -10 0 -19 -4 -19 -9z" id="208"/>
<path d="M3055 3463 c-56 -118 -156 -353 -209 -490 -26 -67 -54 -127 -62 -133 -19 -16 -19 -288 0 -413 13 -83 26 -123 26 -81 0 10 6 64 14 119 10 78 40 181 134 465 178 537 185 568 147 600 -11 9 -21 -5 -50 -67z" id="209"/>
<path d="M6045 3513 c-4 -10 -43 -121 -86 -247 -93 -267 -92 -265 -174 -376 -34 -47 -67 -95 -74 -107 -14 -27 -14 -88 0 -114 10 -19 11 -19 41 6 17 14 47 35 67 45 20 10 94 71 165 134 l130 115 4 237 c3 204 2 242 -13 280 -18 47 -47 59 -60 27z" id="210"/>
<path d="M6670 3521 c0 -5 32 -67 71 -137 95 -169 115 -215 267 -585 344 -839 503 -1291 587 -1679 29 -132 30 -101 5 115 -42 353 -100 599 -249 1053 -47 143 -230 607 -300 758 -28 61 -51 117 -51 124 0 23 -90 139 -183 236 -84 88 -147 138 -147 115z" id="211"/>
<path d="M5960 3504 c-120 -80 -244 -277 -290 -459 -18 -73 -19 -98 -13 -275 8 -194 8 -194 27 -166 15 23 16 33 7 53 -14 31 -14 108 0 136 7 12 40 60 74 107 34 47 70 101 80 120 20 38 175 474 175 490 0 15 -33 12 -60 -6z" id="212"/>
<path d="M7349 3293 c43 -126 99 -286 124 -358 48 -136 126 -461 131 -549 1 -28 13 -71 25 -95 44 -85 113 -267 167 -441 66 -213 66 -213 179 -208 68 3 92 9 160 41 47 23 99 57 127 84 l47 46 -24 19 c-13 10 -22 25 -19 33 8 19 83 53 164 72 l70 17 0 43 c0 43 0 43 -57 69 -32 14 -128 48 -213 76 -264 85 -368 146 -424 248 -52 95 -46 235 10 279 14 11 71 34 127 51 166 51 264 110 393 236 32 31 82 68 111 81 l54 25 -3 76 -3 76 -85 19 c-69 16 -125 20 -300 21 l-215 1 -130 67 c-105 55 -140 79 -181 124 -59 65 -85 73 -221 74 l-92 0 78 -227z" id="213"/>
<path d="M3455 3468 c-21 -58 -31 -108 -24 -121 12 -20 97 -53 108 -41 12 12 28 95 23 117 -2 10 -23 27 -49 38 -53 23 -52 22 -58 7z" id="214"/>
<path d="M1398 3426 c-169 -57 -237 -92 -266 -136 -28 -41 -26 -93 6 -137 33 -46 138 -101 277 -144 72 -22 136 -42 143 -44 6 -3 12 0 12 5 0 6 -7 10 -17 10 -9 0 -38 14 -64 31 -66 42 -94 100 -94 194 1 90 29 154 97 218 28 26 46 47 42 47 -5 0 -66 -20 -136 -44z" id="215"/>
<path d="M5803 3454 c-57 -20 -94 -81 -153 -248 -52 -145 -79 -203 -215 -451 -112 -204 -135 -268 -142 -395 -6 -99 12 -402 27 -480 20 -98 32 -357 21 -431 -7 -40 -9 -74 -7 -76 11 -11 36 73 45 150 6 45 15 190 21 321 6 136 23 350 40 495 34 284 48 339 135 531 29 63 67 160 85 215 38 117 98 237 153 309 22 28 44 57 50 64 13 16 -6 15 -60 -4z" id="216"/>
<path d="M3145 3438 c-3 -7 -28 -85 -56 -173 -27 -88 -91 -280 -140 -426 -82 -242 -92 -280 -109 -414 -20 -154 -19 -168 16 -310 17 -69 39 -125 50 -125 3 0 2 83 -2 184 -8 218 -13 196 135 584 109 286 125 332 140 412 15 80 24 206 18 232 -8 29 -45 55 -52 36z" id="217"/>
<path d="M3579 3356 c-6 -30 -9 -61 -6 -69 6 -17 102 -52 117 -42 13 8 40 103 34 120 -8 19 -66 45 -102 45 -29 0 -31 -3 -43 -54z" id="218"/>
<path d="M1780 3388 c-72 -20 -137 -89 -126 -132 6 -23 51 -57 97 -71 23 -8 23 -7 6 18 -31 48 -14 110 43 154 8 6 24 18 35 27 l20 15 -20 0 c-11 -1 -36 -5 -55 -11z" id="219"/>
<path d="M5531 3350 c-52 -22 -97 -43 -100 -47 -3 -5 -20 -29 -37 -54 -52 -73 -160 -288 -193 -381 -29 -82 -61 -217 -61 -255 0 -15 2 -15 13 -3 8 8 90 143 182 300 92 157 197 327 232 379 35 52 62 95 61 97 -2 1 -46 -15 -97 -36z" id="220"/>
<path d="M3226 3358 c-3 -13 -12 -74 -20 -136 -17 -123 -34 -177 -169 -532 -101 -264 -117 -322 -116 -410 l1 -65 13 40 c7 22 32 101 55 175 54 174 103 297 196 492 81 170 120 275 130 347 6 46 6 46 -40 79 -45 33 -45 33 -50 10z" id="221"/>
<path d="M3763 3363 c-19 -13 -43 -121 -29 -132 18 -15 137 -34 148 -23 13 13 22 85 14 115 -4 19 -15 26 -43 32 -21 3 -47 8 -58 11 -11 2 -25 1 -32 -3z" id="222"/>
<path d="M5603 3301 c-26 -33 -131 -201 -233 -373 -101 -172 -195 -328 -207 -347 -28 -41 -29 -93 -8 -231 8 -52 20 -207 27 -345 15 -319 6 -389 -102 -834 -77 -311 -105 -458 -83 -436 5 6 18 33 28 60 30 83 71 159 125 230 27 36 50 73 50 82 0 9 25 61 56 115 l56 98 5 197 c5 172 2 218 -17 353 -18 121 -23 203 -24 370 -1 211 0 216 27 295 15 44 61 139 101 210 41 72 97 177 126 235 86 171 157 380 130 380 -5 0 -31 -27 -57 -59z" id="223"/>
<path d="M3941 3331 c-14 -9 -29 -83 -23 -113 4 -22 27 -28 117 -31 l70 -2 3 57 c3 65 -3 71 -78 83 -25 3 -52 8 -60 11 -8 2 -21 0 -29 -5z" id="224"/>
<path d="M4138 3294 c-14 -14 -9 -101 6 -113 17 -14 131 -32 152 -24 15 6 21 118 6 127 -15 9 -157 18 -164 10z" id="225"/>
<path d="M3340 3276 c0 -45 -63 -215 -140 -375 -100 -210 -162 -376 -226 -600 -38 -134 -44 -168 -44 -249 0 -52 7 -121 16 -156 31 -123 35 -138 40 -134 9 9 26 122 49 328 21 178 35 255 85 450 l60 235 117 237 116 237 -24 20 c-28 24 -49 27 -49 7z" id="226"/>
<path d="M4340 3260 c-6 -11 -10 -40 -8 -63 l3 -42 75 0 75 0 0 60 0 60 -67 3 c-59 3 -68 0 -78 -18z" id="227"/>
<path d="M4520 3260 c-16 -31 -12 -107 6 -114 22 -8 22 -9 40 19 13 19 14 28 5 39 -15 18 1 30 28 21 11 -3 28 3 42 14 l24 19 -25 6 c-75 15 -110 14 -120 -4z" id="228"/>
<path d="M5275 3219 c-44 -28 -99 -66 -121 -85 -41 -33 -42 -34 -49 -116 -3 -46 -13 -139 -21 -208 -8 -73 -14 -228 -14 -370 -1 -353 -16 -727 -35 -859 -18 -127 -44 -260 -104 -521 -22 -96 -49 -229 -61 -295 -26 -149 -35 -178 -67 -216 -14 -16 -24 -31 -22 -33 2 -1 42 -12 88 -24 56 -15 88 -19 94 -13 6 6 11 88 12 193 l1 183 81 321 c109 430 121 525 105 828 -7 121 -19 271 -28 331 -42 306 9 535 186 836 37 62 53 99 42 99 -4 0 -43 -23 -87 -51z" id="229"/>
<path d="M3317 3007 c-59 -122 -114 -242 -122 -266 -22 -64 -43 -161 -36 -161 4 0 42 83 85 185 43 102 97 215 119 252 51 86 94 214 70 212 -5 0 -56 -100 -116 -222z" id="230"/>
<path d="M3459 3193 c-16 -42 -54 -207 -94 -408 -56 -281 -90 -409 -185 -700 -49 -148 -93 -301 -99 -340 -5 -38 -11 -177 -12 -309 -3 -279 -8 -266 103 -266 l68 0 0 48 c0 27 -7 62 -15 78 -26 53 10 651 51 847 21 104 47 186 123 396 38 102 79 231 93 286 60 238 81 334 75 349 -6 15 -22 24 -74 40 -19 6 -25 2 -34 -21z" id="231"/>
<path d="M3585 3112 c-9 -31 -32 -122 -50 -202 -18 -80 -59 -217 -90 -305 -137 -384 -155 -456 -180 -695 -18 -166 -34 -589 -24 -596 13 -8 20 30 29 157 11 145 30 242 99 531 27 112 70 313 96 448 68 363 92 448 171 600 21 41 39 79 39 84 0 5 -17 15 -37 22 l-37 13 -16 -57z" id="232"/>
<path d="M2616 3153 c-12 -13 -6 -39 20 -76 14 -21 28 -37 30 -34 6 6 -25 105 -35 111 -4 3 -11 3 -15 -1z" id="233"/>
<path d="M6574 3124 c-19 -19 -34 -42 -34 -50 0 -24 -14 -15 -30 19 -13 28 -19 32 -55 31 -51 -1 -191 -66 -270 -127 -33 -25 -118 -98 -190 -162 -71 -64 -151 -127 -176 -140 -55 -29 -104 -81 -154 -166 -31 -53 -39 -80 -50 -164 -8 -55 -26 -156 -40 -225 -14 -69 -30 -179 -35 -245 -5 -66 -14 -144 -20 -174 -28 -147 -2 -131 44 27 77 260 161 380 336 472 74 39 111 70 280 235 208 203 365 329 469 378 49 23 83 32 143 35 53 3 78 9 78 17 0 22 -41 65 -61 65 -37 0 -59 20 -90 83 -40 79 -76 127 -96 127 -9 0 -31 -16 -49 -36z" id="234"/>
<path d="M3686 3097 c-89 -150 -138 -308 -197 -632 -22 -121 -63 -314 -91 -430 -80 -337 -98 -433 -104 -555 -3 -63 -12 -136 -20 -162 -9 -26 -14 -68 -12 -95 l3 -48 69 -12 c38 -7 72 -11 74 -8 3 3 -3 55 -12 116 -13 81 -16 136 -11 198 36 467 141 974 342 1654 10 33 -16 17 -41 -26z" id="235"/>
<path d="M7069 3058 c86 -186 264 -649 345 -898 155 -473 196 -678 241 -1205 13 -161 65 -455 84 -477 13 -15 72 33 104 84 50 79 75 146 92 243 45 258 -10 571 -201 1145 -64 195 -129 333 -261 559 -137 234 -408 628 -435 630 -4 1 10 -36 31 -81z" id="236"/>
<path d="M3712 2995 c-111 -363 -259 -1039 -288 -1315 -18 -174 -21 -360 -6 -405 6 -20 11 -25 15 -15 3 8 22 150 42 314 40 324 66 465 115 621 35 114 215 818 225 883 5 32 3 42 -7 42 -7 0 -22 3 -34 6 -19 5 -24 -6 -62 -131z" id="237"/>
<path d="M3835 3068 c-8 -52 -199 -802 -214 -841 -20 -52 -70 -260 -85 -357 -25 -154 -79 -600 -73 -606 12 -12 47 18 47 39 0 13 6 32 14 43 10 12 13 33 9 59 -9 75 25 277 73 433 113 361 226 746 250 851 29 131 50 331 40 385 -6 29 -11 36 -31 36 -20 0 -24 -6 -30 -42z" id="238"/>
<path d="M3914 2982 c-2 -193 -50 -393 -240 -1001 -48 -151 -92 -309 -99 -350 -20 -114 -29 -241 -18 -241 13 0 83 51 111 82 21 23 22 28 10 72 -10 36 -10 56 0 91 7 25 12 76 12 114 0 58 16 123 111 437 150 500 159 541 166 747 l6 167 -29 0 -29 0 -1 -118z" id="239"/>
<path d="M3993 2958 c-3 -200 -21 -277 -228 -968 -37 -124 -55 -202 -55 -238 l0 -53 39 28 c34 24 41 35 47 78 3 27 13 67 20 89 8 21 18 66 24 100 5 34 34 115 65 183 69 156 88 219 125 428 35 193 51 369 42 435 -7 43 -9 45 -42 48 l-35 3 -2 -133z" id="240"/>
<path d="M4095 3018 c4 -48 1 -118 -10 -203 -16 -126 -67 -402 -81 -440 -5 -12 -4 -16 3 -12 21 13 123 204 123 230 0 14 9 63 20 109 26 108 42 281 32 338 -7 44 -8 45 -51 48 l-43 3 7 -73z" id="241"/>
<path d="M4220 3084 c-12 -4 -15 -27 -16 -122 -1 -88 -8 -146 -27 -231 -15 -63 -25 -117 -22 -119 7 -7 82 115 100 161 13 35 14 65 8 176 -8 131 -12 143 -43 135z" id="242"/>
<path d="M4281 3009 c0 -46 4 -106 7 -134 l7 -49 38 44 c36 43 37 45 37 127 0 64 -3 83 -14 83 -7 0 -28 3 -45 6 l-31 7 1 -84z" id="243"/>
<path d="M4391 3018 c1 -35 5 -74 9 -88 l8 -25 1 26 c1 15 17 51 36 80 39 58 36 69 -22 69 l-33 0 1 -62z" id="244"/>
<path d="M5060 3045 c-21 -23 -25 -38 -31 -148 -4 -67 -14 -171 -23 -232 -8 -60 -29 -256 -45 -435 -47 -495 -71 -630 -178 -1000 -119 -413 -162 -584 -150 -592 7 -4 36 -8 65 -8 43 0 58 -5 77 -24 25 -25 25 -25 36 -4 6 11 19 66 29 122 10 55 46 226 79 378 112 507 118 569 126 1153 6 384 12 502 41 763 3 28 4 52 1 52 -2 0 -14 -11 -27 -25z" id="245"/>
<path d="M6865 3001 c-17 -39 -17 -40 4 -67 11 -15 21 -37 21 -49 0 -18 7 -24 33 -28 17 -2 33 -3 35 -2 3 2 -66 176 -73 183 -1 1 -10 -16 -20 -37z" id="246"/>
<path d="M8437 3007 c-21 -13 -61 -46 -90 -73 -125 -121 -232 -184 -396 -235 -62 -18 -114 -41 -127 -54 -46 -47 -43 -166 7 -253 52 -92 134 -139 391 -223 97 -32 189 -64 205 -72 15 -8 38 -18 51 -21 l22 -7 0 480 c0 378 -3 481 -12 481 -7 0 -30 -10 -51 -23z" id="247"/>
<path d="M3333 2915 c-22 -50 -62 -141 -88 -203 -26 -62 -59 -129 -73 -150 -56 -83 -84 -198 -117 -484 -14 -113 -29 -237 -35 -274 -12 -73 -3 -604 10 -604 9 0 20 182 20 354 1 187 13 250 109 538 89 270 131 426 186 690 46 224 44 253 -12 133z" id="248"/>
<path d="M4986 2945 c-9 -19 -34 -111 -56 -205 -22 -93 -60 -231 -85 -305 -34 -101 -45 -149 -45 -195 0 -34 -13 -119 -29 -189 -17 -71 -37 -173 -46 -227 -25 -159 -42 -217 -132 -442 -91 -231 -144 -403 -162 -523 -15 -98 -9 -125 33 -139 18 -6 54 -24 81 -41 26 -17 51 -27 55 -22 4 4 22 67 40 138 18 72 61 227 97 345 35 118 73 253 84 300 38 162 88 456 99 585 33 387 42 472 61 602 22 159 38 353 28 353 -4 0 -14 -16 -23 -35z" id="249"/>
<path d="M5608 2890 c-38 -82 -98 -234 -107 -268 -9 -32 -45 -322 -66 -517 -3 -33 -12 -186 -20 -340 -10 -196 -19 -296 -30 -335 -10 -30 -50 -113 -90 -185 l-73 -130 -6 -100 c-7 -103 7 -324 22 -366 9 -22 10 -21 46 27 45 60 197 365 227 454 20 59 21 78 15 215 -4 83 -11 177 -17 210 -6 33 -12 80 -12 105 -1 81 24 292 59 481 18 102 36 212 40 245 3 32 15 83 25 112 20 57 24 175 10 342 l-7 85 -16 -35z" id="250"/>
<path d="M4333 2837 c-39 -48 -74 -103 -232 -367 -32 -52 -75 -122 -96 -155 -78 -121 -167 -336 -139 -335 5 0 45 49 89 108 44 59 127 163 184 232 84 100 105 130 103 152 -2 30 78 225 129 315 21 37 28 59 23 77 -3 14 -9 26 -13 26 -3 -1 -25 -24 -48 -53z" id="251"/>
<path d="M4879 2858 c-14 -18 -72 -94 -129 -168 -132 -172 -222 -280 -382 -457 -187 -206 -309 -317 -464 -424 -160 -109 -200 -144 -210 -183 -8 -33 6 -98 22 -103 24 -8 246 188 567 501 361 352 429 427 524 588 97 163 105 181 101 232 l-3 46 -26 -32z" id="252"/>
<path d="M6725 2841 c-110 -28 -267 -147 -522 -394 -172 -167 -215 -203 -290 -244 -171 -94 -249 -201 -321 -439 -22 -72 -44 -139 -49 -150 -11 -20 -5 -224 6 -224 4 0 15 35 25 78 23 99 76 236 127 328 51 94 145 214 167 214 11 0 2 -15 -29 -47 -116 -121 -220 -342 -264 -560 -27 -133 -19 -139 50 -32 151 235 346 427 603 594 156 100 332 163 482 172 87 5 97 4 123 -17 64 -51 19 -148 -117 -254 -44 -36 -94 -78 -110 -95 -28 -29 -29 -31 -12 -50 23 -26 53 -37 166 -61 115 -25 190 -49 190 -60 0 -27 -62 -62 -140 -80 -353 -81 -1089 -344 -1057 -377 3 -2 49 5 104 16 133 28 268 41 418 41 227 0 363 -25 403 -73 18 -21 -15 -32 -406 -143 -184 -52 -357 -106 -385 -121 -49 -24 -50 -26 -31 -40 16 -12 38 -14 129 -7 61 5 189 8 285 8 148 0 189 -3 264 -22 325 -81 595 -334 758 -706 l41 -96 79 0 79 0 -6 73 c-15 176 -27 275 -36 312 -19 73 -73 158 -154 244 -87 92 -162 146 -252 181 -114 44 -273 124 -273 137 0 22 51 35 110 28 87 -11 309 -70 405 -109 119 -48 166 -81 268 -184 113 -116 150 -190 151 -301 1 -69 -2 -81 -32 -131 -44 -75 -100 -189 -108 -222 l-6 -28 130 0 c119 0 130 2 126 18 -2 9 -38 163 -79 342 -42 179 -100 442 -131 585 -67 315 -118 516 -177 695 -56 170 -242 667 -340 910 -117 290 -110 276 -149 284 -56 11 -181 16 -213 7z" id="253"/>
<path d="M4689 2771 c-48 -21 -109 -50 -135 -66 -61 -34 -266 -241 -399 -400 -105 -126 -294 -374 -314 -412 -18 -36 -31 -115 -17 -110 6 3 56 35 111 73 175 119 535 499 771 814 52 68 94 128 94 132 0 14 -24 8 -111 -31z" id="254"/>
<path d="M610 2726 c-19 -7 -53 -21 -74 -30 -27 -12 -86 -20 -189 -27 -144 -8 -293 -24 -329 -35 -16 -5 -18 -24 -18 -222 l0 -217 258 0 257 0 63 -29 62 -29 163 6 c177 6 243 20 286 61 17 16 56 33 106 47 69 18 121 22 376 29 l297 7 35 27 c33 25 35 31 34 80 -1 50 2 58 67 147 l67 94 -198 7 c-109 3 -254 13 -323 22 -105 14 -232 21 -605 35 -21 1 -73 11 -114 21 -86 23 -170 25 -221 6z" id="255"/>
<path d="M4870 2679 c-22 -53 -115 -195 -178 -271 -77 -95 -616 -626 -769 -757 -65 -57 -139 -115 -164 -129 -25 -14 -55 -39 -66 -54 -10 -15 -48 -49 -83 -75 -72 -55 -90 -77 -74 -93 8 -8 69 4 215 40 237 60 320 90 426 156 108 66 280 240 365 369 98 148 229 390 245 454 8 31 34 117 57 191 48 149 60 200 47 200 -5 0 -14 -14 -21 -31z" id="256"/>
<path d="M2397 2553 c-34 -5 -26 -23 11 -23 38 -1 132 -41 175 -76 57 -45 44 -46 -30 -4 -204 118 -383 80 -585 -123 -103 -102 -335 -453 -433 -651 -83 -170 -146 -343 -175 -484 -10 -53 -18 -97 -16 -99 2 -2 19 21 39 50 19 30 60 80 90 113 46 50 54 64 50 89 -5 36 28 126 63 172 29 39 156 102 282 140 77 23 104 26 237 27 143 0 155 -1 245 -32 130 -43 199 -87 311 -199 98 -96 113 -102 98 -36 -10 48 -53 115 -116 183 -102 110 -245 196 -410 247 -80 24 -103 27 -257 27 -181 1 -184 2 -172 51 15 61 99 124 193 146 167 38 350 29 486 -22 157 -60 228 -166 356 -529 47 -134 74 -196 85 -198 23 -5 21 20 -18 176 -41 163 -75 259 -129 367 -97 194 -183 291 -297 335 -71 27 -95 70 -40 70 53 0 140 -46 140 -73 0 -6 -8 -3 -17 5 -23 20 -59 38 -94 48 -51 15 -31 -7 36 -38 35 -17 87 -52 115 -78 92 -86 208 -295 265 -476 15 -49 30 -88 33 -88 3 0 3 81 0 179 -5 169 -7 183 -30 223 -14 24 -40 89 -58 146 -20 64 -47 123 -71 157 -21 30 -34 55 -29 55 5 0 16 -10 24 -22 15 -22 16 -20 16 30 0 64 -36 140 -80 172 -61 43 -178 60 -293 43z" id="257"/>
<path d="M1575 2258 c-282 -7 -402 -25 -454 -68 -70 -57 -182 -80 -386 -80 -99 0 -115 3 -159 26 -41 22 -69 27 -185 36 -143 11 -358 7 -379 -6 -9 -5 -12 -120 -12 -500 l0 -492 114 0 115 1 153 -77 c187 -94 211 -101 303 -96 60 3 85 10 151 43 79 40 195 137 182 151 -4 4 -106 8 -225 8 -264 2 -293 11 -293 92 0 30 19 43 160 100 214 87 240 121 148 190 -128 95 -48 149 242 165 231 12 220 9 310 94 43 40 107 90 141 111 l63 39 -120 2 c-138 3 -164 8 -164 29 0 26 32 35 362 109 l117 26 42 50 c23 27 40 51 38 52 -2 1 -121 -1 -264 -5z" id="258"/>
<path d="M4726 2135 c-152 -280 -229 -388 -375 -526 -97 -93 -201 -163 -308 -207 -28 -12 -158 -49 -289 -83 -237 -60 -280 -75 -302 -102 -12 -14 -28 -77 -20 -77 2 0 114 -40 247 -90 134 -50 248 -90 252 -90 4 0 97 89 206 198 377 375 554 637 618 914 36 159 30 173 -29 63z" id="259"/>
<path d="M1749 2118 c-88 -100 -92 -103 -199 -159 -64 -33 -106 -65 -170 -129 -103 -103 -155 -200 -194 -357 -26 -107 -49 -161 -89 -209 -49 -60 -77 -125 -107 -244 -20 -83 -42 -145 -67 -189 l-38 -66 -6 -155 c-8 -183 -34 -446 -48 -481 -5 -14 -16 -49 -25 -77 l-15 -52 858 0 858 0 32 51 c44 67 109 108 268 168 188 71 349 153 337 172 -10 17 -48 9 -86 -17 -53 -37 -251 -90 -417 -112 -169 -22 -183 -19 -231 59 -18 30 -34 56 -36 58 -2 2 -37 -28 -78 -67 -66 -62 -116 -92 -158 -92 -5 0 -8 20 -8 45 0 25 -5 45 -10 45 -6 0 -42 -16 -80 -35 -81 -41 -139 -46 -185 -15 -37 25 -159 27 -250 5 -33 -8 -68 -14 -77 -15 -21 0 -96 96 -136 176 -17 33 -47 109 -68 170 -34 100 -38 118 -38 224 -1 97 5 144 37 295 78 371 188 617 429 964 43 62 77 115 75 118 -3 2 -37 -34 -78 -79z" id="260"/>
<path d="M1615 2113 c-138 -30 -307 -72 -313 -78 -15 -15 24 -20 159 -24 l149 -3 62 60 c35 33 61 62 58 64 -3 3 -54 -6 -115 -19z" id="261"/>
<path d="M6615 2105 c-148 -32 -313 -108 -431 -197 -175 -133 -349 -359 -467 -608 -28 -58 -68 -134 -90 -169 -52 -82 -48 -90 63 -131 30 -11 65 -29 78 -40 l23 -19 -71 -67 c-38 -37 -73 -77 -76 -89 -7 -28 12 -66 60 -122 48 -55 102 -66 167 -32 40 20 58 23 199 23 136 1 164 -2 230 -22 110 -35 187 -79 256 -148 102 -101 144 -212 144 -381 l0 -103 305 0 304 0 -35 82 c-73 171 -166 311 -288 434 -133 132 -277 217 -445 261 -84 23 -118 26 -266 27 -93 0 -219 -3 -280 -8 -92 -7 -116 -6 -147 7 -21 9 -38 22 -38 30 0 31 122 77 450 170 184 53 348 100 364 107 l29 11 -21 15 c-39 27 -143 38 -362 38 -212 -1 -253 -5 -490 -48 -81 -15 -98 -13 -78 11 61 74 574 266 1022 383 152 40 212 66 185 80 -8 4 -50 15 -94 25 -154 32 -212 53 -240 87 l-26 31 28 29 c15 17 68 62 116 101 133 108 179 193 125 231 -27 20 -118 20 -203 1z" id="262"/>
<path d="M2115 2070 c-135 -15 -211 -45 -264 -105 -57 -65 -49 -69 144 -70 165 0 173 -1 262 -32 173 -60 287 -129 390 -235 71 -73 128 -162 137 -216 14 -76 25 -92 66 -92 l37 0 -72 204 c-116 324 -179 428 -298 485 -107 53 -264 76 -402 61z" id="263"/>
<path d="M8431 1914 c-77 -21 -144 -52 -136 -64 3 -5 15 -10 25 -10 35 0 29 -16 -25 -73 -108 -113 -315 -184 -416 -143 -14 6 -11 -14 17 -114 56 -205 78 -354 77 -530 -1 -176 -19 -266 -76 -380 -31 -63 -107 -153 -136 -162 -12 -3 -5 -44 35 -219 l50 -214 247 -3 247 -2 -78 77 c-110 110 -124 148 -130 354 -6 243 27 421 110 582 50 97 108 162 193 217 l65 42 0 329 c0 181 -3 329 -7 328 -5 0 -32 -7 -62 -15z" id="264"/>
<path d="M2938 1673 c4 -154 19 -253 46 -313 15 -33 16 -28 10 120 -5 143 -32 308 -53 333 -4 4 -5 -59 -3 -140z" id="265"/>
<path d="M4682 1803 c-3 -20 -175 -271 -248 -363 -38 -47 -155 -171 -261 -276 -106 -106 -193 -196 -193 -201 0 -5 37 -25 83 -43 47 -20 99 -50 123 -72 36 -34 134 -86 190 -102 20 -6 22 -2 28 67 11 119 71 324 166 566 98 252 123 333 117 394 -2 23 -4 37 -5 30z" id="266"/>
<path d="M5879 1663 c-112 -114 -168 -184 -241 -298 -76 -119 -74 -111 -28 -135 l39 -20 49 102 c62 132 142 260 231 371 39 48 67 87 63 87 -5 0 -55 -48 -113 -107z" id="267"/>
<path d="M1215 1739 c-27 -4 -97 -8 -155 -8 -160 -2 -290 -36 -290 -76 0 -7 26 -33 57 -57 64 -48 73 -67 49 -104 -23 -34 -75 -64 -196 -114 -143 -58 -160 -67 -160 -90 0 -10 12 -28 26 -39 25 -20 39 -21 263 -21 l236 1 32 42 c44 59 68 115 93 223 11 50 39 127 60 170 22 43 39 78 37 79 -1 0 -24 -2 -52 -6z" id="268"/>
<path d="M1972 1659 c-78 -13 -228 -65 -297 -102 -67 -36 -92 -67 -120 -150 -28 -84 -14 -87 84 -17 97 70 181 112 267 134 161 42 435 45 567 8 113 -32 94 3 -33 62 -41 19 -102 42 -135 51 -72 19 -259 28 -333 14z" id="269"/>
<path d="M2051 1529 c-215 -26 -392 -116 -551 -280 -172 -176 -223 -346 -170 -567 26 -110 60 -174 133 -249 65 -68 66 -80 3 -33 -22 17 -42 28 -44 25 -6 -5 84 -141 98 -150 5 -3 37 2 72 10 35 8 82 15 104 15 23 0 55 3 72 6 l30 6 -30 45 c-38 55 -89 210 -59 178 5 -6 16 -34 26 -63 22 -68 89 -169 129 -193 43 -26 86 -24 159 10 105 48 104 46 127 211 11 79 20 186 20 237 l0 93 -29 0 c-22 0 -38 -10 -65 -42 -36 -44 -61 -47 -32 -4 31 48 58 66 98 66 33 0 40 -4 49 -27 12 -33 6 -126 -22 -330 -25 -186 -25 -243 -1 -243 25 0 57 24 130 94 34 33 62 69 62 79 0 9 -7 33 -15 53 -13 32 -16 34 -36 23 -12 -6 -26 -24 -32 -40 -12 -31 -27 -39 -27 -13 0 17 62 84 78 84 6 0 19 -19 30 -42 84 -180 95 -200 118 -210 29 -13 188 2 264 26 l45 13 -36 16 c-52 21 -84 69 -115 172 -25 82 -28 105 -28 255 -1 155 0 168 23 214 14 27 42 67 63 88 51 51 150 115 191 123 93 19 107 25 107 49 0 13 -9 31 -21 42 -50 45 -290 7 -434 -69 -58 -31 -175 -136 -207 -187 -9 -14 -19 -22 -23 -18 -13 12 33 74 107 143 70 67 71 68 37 62 -142 -25 -198 -29 -225 -16 -15 8 -29 19 -31 26 -6 17 150 90 241 113 97 25 141 25 231 1 94 -24 103 -19 59 35 -64 78 -108 105 -218 136 -84 24 -125 30 -241 33 -77 2 -173 0 -214 -6z" id="270"/>
<path d="M2444 1311 c-39 -10 -107 -34 -150 -55 -71 -34 -77 -39 -56 -47 20 -8 215 11 277 27 56 14 155 49 155 55 0 13 -81 39 -118 38 -20 0 -69 -8 -108 -18z" id="271"/>
<path d="M8430 1199 c-187 -125 -290 -417 -278 -781 7 -197 41 -267 178 -373 53 -41 63 -45 114 -45 l56 0 0 620 c0 341 -2 620 -4 620 -2 0 -32 -19 -66 -41z" id="272"/>
<path d="M5540 1163 c-24 -107 -134 -339 -242 -506 -53 -82 -67 -112 -59 -120 7 -7 43 -12 89 -11 62 0 96 7 177 37 55 20 123 39 152 43 29 3 53 8 53 11 0 3 -15 23 -34 46 -75 94 -73 124 15 213 34 34 58 67 55 73 -4 5 -34 20 -67 32 -115 42 -130 72 -79 149 36 55 37 64 5 78 -44 20 -51 15 -65 -45z" id="273"/>
<path d="M2890 1167 c-94 -34 -203 -127 -242 -206 -21 -42 -23 -59 -22 -201 0 -139 3 -164 28 -245 30 -99 45 -128 79 -149 32 -20 67 -29 67 -17 0 5 -9 13 -20 16 -11 3 -31 25 -44 48 -45 80 -43 344 3 468 41 108 162 227 271 266 28 10 50 21 50 25 0 13 -132 8 -170 -5z" id="274"/>
<path d="M65 1154 c-11 -3 -30 -7 -42 -10 l-23 -4 0 -570 0 -570 383 0 382 0 -25 21 c-43 35 -122 68 -205 85 -101 21 -109 27 -101 81 l6 42 -68 21 c-90 28 -112 44 -112 80 0 39 50 89 127 126 50 25 69 29 138 28 57 -1 95 -7 133 -22 66 -27 96 -28 133 -1 46 32 57 64 58 170 2 114 8 137 55 221 22 39 42 95 52 144 9 43 20 87 25 97 6 9 8 17 6 17 -2 0 -35 -20 -73 -45 -96 -63 -159 -85 -248 -85 -90 0 -124 11 -301 101 -127 64 -147 71 -210 74 -38 2 -79 2 -90 -1z" id="275"/>
<path d="M3038 1120 c-25 -17 -52 -37 -58 -45 -14 -17 -35 -21 -25 -5 12 19 -13 10 -61 -22 -27 -18 -62 -52 -79 -76 -28 -41 -30 -51 -33 -147 -3 -74 1 -119 12 -159 19 -64 68 -132 114 -159 33 -19 33 -19 55 1 82 75 218 -2 301 -170 52 -105 127 -185 254 -268 l105 -70 739 0 738 0 0 22 c0 37 -37 78 -227 248 -200 179 -257 222 -379 288 -122 65 -250 166 -289 228 -19 29 -45 60 -59 69 -38 25 -177 81 -218 88 -20 3 -146 46 -280 95 -274 101 -319 112 -463 112 -96 0 -104 -2 -147 -30z" id="276"/>
<path d="M5143 978 c-47 -72 -85 -145 -103 -203 -7 -22 -17 -46 -23 -53 -14 -18 -10 -98 7 -131 24 -46 42 -55 109 -52 90 3 92 7 78 138 -7 59 -16 165 -19 236 l-7 127 -42 -62z" id="277"/>
<path d="M6817 951 c-16 -6 -10 -11 30 -33 26 -14 91 -42 143 -63 124 -48 164 -69 232 -121 107 -83 238 -265 257 -357 6 -29 17 -123 25 -210 7 -87 16 -160 18 -163 3 -2 15 26 27 63 12 38 46 106 74 152 51 83 52 87 52 160 0 105 -31 169 -132 273 -89 92 -164 151 -227 177 -85 37 -231 81 -348 106 -129 27 -125 27 -151 16z" id="278"/>
<path d="M2742 812 c-27 -120 -10 -244 47 -334 49 -77 62 -82 170 -62 l92 17 -28 31 c-15 17 -29 32 -30 34 -1 2 -13 -4 -27 -13 -25 -17 -28 -17 -65 8 -84 56 -130 148 -140 281 l-7 91 -12 -53z" id="279"/>
<path d="M4240 771 c0 -18 151 -128 280 -205 l125 -75 45 11 c43 10 90 42 90 60 0 4 -8 16 -18 26 -14 14 -41 21 -103 26 -68 6 -88 11 -109 30 -34 32 -71 50 -160 76 -41 13 -92 31 -112 42 -21 10 -38 14 -38 9z" id="280"/>
<path d="M4990 593 c0 -55 19 -87 45 -77 19 8 19 13 -1 35 -9 10 -22 35 -30 56 l-13 38 -1 -52z" id="281"/>
<path d="M5985 631 c-27 -6 -22 -9 45 -24 132 -31 172 -48 222 -95 38 -35 46 -48 37 -58 -6 -8 -17 -14 -24 -14 -6 0 -104 34 -216 76 -194 71 -208 75 -289 76 -89 0 -189 -23 -337 -76 -70 -26 -72 -26 -150 -11 -43 8 -98 15 -123 15 -53 0 -141 -28 -170 -55 -19 -17 -22 -17 -104 4 -91 22 -162 27 -186 11 -12 -8 -8 -15 25 -42 118 -98 363 -326 382 -357 13 -20 23 -46 23 -58 0 -22 4 -23 71 -23 l70 0 -32 61 c-24 44 -56 81 -112 129 -90 79 -237 185 -299 217 -32 16 -39 23 -27 28 28 11 180 -34 279 -82 123 -59 238 -169 294 -281 44 -87 63 -92 84 -19 7 26 18 47 24 47 5 0 49 -23 96 -50 84 -50 86 -51 159 -48 l73 3 -60 86 c-33 48 -92 121 -131 163 l-71 76 32 0 c55 0 151 -29 247 -76 80 -38 108 -59 200 -149 60 -58 108 -105 108 -105 1 0 1 10 2 23 3 33 48 67 89 67 31 0 193 -55 236 -80 10 -5 65 -10 123 -10 l105 0 0 98 c0 224 -94 380 -282 471 -126 60 -304 87 -413 62z" id="282"/>
<path d="M5900 601 c0 -9 352 -143 359 -135 8 8 -43 55 -79 74 -30 15 -242 70 -270 70 -6 0 -10 -4 -10 -9z" id="283"/>
<path d="M3000 511 c0 -15 74 -69 122 -90 46 -19 49 -24 78 -116 7 -22 24 -56 39 -75 55 -74 174 -201 201 -215 17 -9 56 -15 92 -15 l63 0 -80 51 c-113 73 -213 176 -260 269 -49 99 -78 136 -133 171 -45 28 -122 41 -122 20z" id="284"/>
<path d="M810 450 c-41 -36 -86 -39 -158 -11 -82 33 -158 36 -223 12 -65 -25 -149 -93 -149 -122 0 -21 18 -31 112 -63 l63 -21 0 -50 0 -50 79 -16 c97 -21 153 -42 197 -75 l34 -25 14 33 c27 64 41 134 51 258 6 69 13 133 16 143 7 22 5 22 -36 -13z" id="285"/>
<path d="M4914 377 c57 -37 209 -156 257 -204 33 -32 68 -79 84 -114 28 -59 29 -59 72 -59 l43 0 -14 33 c-57 138 -196 265 -357 327 -80 31 -119 39 -85 17z" id="286"/>
<path d="M3091 320 c-24 -15 -46 -32 -50 -37 -3 -6 -13 -10 -21 -10 -16 0 -297 -106 -345 -131 -43 -21 -86 -59 -118 -103 l-29 -39 357 0 c196 0 355 3 353 8 -89 179 -91 183 -97 261 l-6 78 -44 -27z" id="287"/>
<path d="M3155 278 c9 -86 23 -130 71 -215 l35 -63 75 0 75 0 -98 110 c-100 112 -142 177 -143 218 0 12 -5 22 -11 22 -8 0 -9 -22 -4 -72z" id="288"/>
<path d="M5648 245 c33 -37 89 -107 122 -156 l61 -89 125 0 125 0 -20 29 c-80 112 -291 244 -441 276 l-34 7 62 -67z" id="289"/>
<path d="M5466 38 c-3 -17 -4 -33 -2 -35 2 -2 34 -3 71 -1 l67 3 -57 33 c-31 17 -60 32 -65 32 -4 0 -10 -14 -14 -32z" id="290"/>
<path d="M6166 48 c-32 -45 -25 -48 112 -47 l127 0 -43 19 c-121 54 -173 61 -196 28z" id="291"/>
</g>
</svg>