<?xml version="1.0" ?><!DOCTYPE svg  PUBLIC '-//W3C//DTD SVG 20010904//EN'  'http://www.w3.org/TR/2001/REC-SVG-20010904/DTD/svg10.dtd'><svg height="850.000000pt" preserveAspectRatio="xMidYMid meet" version="1.0" viewBox="0 0 850.000000 850.000000" width="850.000000pt" xmlns="http://www.w3.org/2000/svg">
<metadata>
Created by potrace 1.14, written by Peter Selinger 2001-2017
</metadata>
<g fill="#ffffff" stroke="none" transform="translate(0.000000,850.000000) scale(0.100000,-0.100000)">
<path d="M0 6770 c0 -1050 4 -1730 9 -1730 14 0 375 81 382 86 4 2 5 21 2 42 -6 44 15 94 50 116 64 42 161 23 198 -38 20 -34 25 -96 9 -126 -8 -14 -4 -25 19 -49 84 -90 16 -221 -114 -221 -38 0 -52 5 -76 29 -16 16 -29 36 -29 45 0 8 -5 18 -11 21 -5 4 -107 -15 -225 -41 l-214 -47 0 -2011 0 -2011 261 -105 c143 -58 265 -107 270 -108 5 -2 9 3 9 12 0 27 60 85 95 92 46 8 119 -25 145 -68 16 -25 20 -44 17 -83 -4 -42 -10 -54 -41 -81 -34 -29 -36 -34 -30 -75 9 -77 -50 -142 -129 -142 -98 0 -160 74 -133 159 6 20 -11 29 -229 116 l-235 95 0 -324 0 -323 3635 0 3636 0 132 111 c73 62 133 116 135 120 2 5 -6 21 -17 35 -14 18 -21 41 -21 72 0 38 5 50 38 83 21 21 50 41 65 44 72 18 152 -33 163 -105 5 -33 12 -41 39 -50 39 -13 71 -45 85 -87 23 -65 -26 -152 -98 -172 -40 -12 -97 3 -115 30 -14 19 -16 18 -71 -27 -31 -26 -56 -48 -56 -50 0 -2 214 -4 475 -4 l475 0 0 1145 0 1145 -146 73 -146 72 -21 -26 c-56 -67 -140 -65 -206 4 -50 54 -34 159 30 195 25 15 29 23 29 60 0 128 133 182 231 94 39 -35 50 -99 24 -138 -9 -14 -15 -27 -13 -29 6 -5 208 -105 213 -105 3 0 4 1137 3 2526 l-3 2526 -222 120 -223 119 -34 -35 c-28 -31 -40 -36 -77 -36 -106 0 -177 103 -134 195 11 22 31 43 52 53 30 14 33 20 33 61 1 81 49 131 128 131 106 0 172 -94 126 -181 -8 -17 -14 -32 -12 -33 3 -3 289 -156 346 -185 l22 -12 0 381 0 380 -2950 0 -2950 0 -207 -161 c-115 -89 -210 -164 -212 -166 -3 -2 3 -19 12 -38 23 -48 21 -76 -5 -115 -47 -68 -140 -89 -202 -44 -26 19 -60 90 -54 114 2 7 -10 16 -29 22 -39 10 -80 58 -89 103 -4 25 0 46 15 77 29 59 65 83 123 83 40 0 52 -5 82 -34 l35 -33 107 83 c59 46 115 89 123 96 13 10 -230 12 -1141 13 l-1158 0 0 -1730z m4080 1551 c35 -25 69 -79 83 -129 l11 -43 71 7 c38 3 99 17 133 31 129 50 253 55 412 18 129 -30 164 -31 321 -4 168 29 222 24 329 -30 100 -49 109 -49 278 4 141 44 221 59 286 52 71 -7 120 -34 183 -100 30 -31 76 -66 107 -80 114 -54 386 -157 531 -201 188 -57 230 -73 380 -146 235 -115 351 -229 411 -407 24 -69 28 -98 32 -244 7 -239 -16 -344 -124 -569 -106 -220 -190 -334 -416 -561 -108 -108 -183 -192 -218 -246 -64 -98 -85 -105 -125 -45 -42 64 -66 149 -77 282 -6 69 -14 129 -18 133 -4 4 -14 -27 -24 -70 -31 -143 -46 -297 -46 -469 0 -183 -9 -257 -41 -329 -18 -41 -19 -48 -6 -87 22 -65 30 -177 18 -244 -12 -63 -72 -198 -121 -271 l-30 -44 34 -102 c88 -266 170 -649 201 -949 4 -32 10 -58 15 -58 5 0 55 37 112 82 57 44 104 82 106 83 2 2 -6 18 -17 36 -56 92 10 199 123 199 62 0 113 -44 124 -109 6 -38 11 -45 42 -55 71 -23 103 -123 61 -192 -11 -17 -40 -41 -65 -54 -39 -19 -51 -20 -78 -11 -18 6 -42 21 -54 32 l-22 21 -160 -127 c-88 -69 -165 -132 -171 -139 -6 -7 -15 -57 -21 -112 -17 -147 -63 -369 -114 -544 -69 -238 -129 -396 -286 -755 -51 -115 -117 -273 -147 -350 -50 -126 -54 -143 -44 -175 13 -44 100 -150 174 -214 70 -60 157 -165 190 -231 63 -125 74 -257 28 -340 -64 -115 -79 -139 -100 -156 -36 -29 -70 -25 -77 10 -6 27 -9 29 -71 34 -36 4 -85 16 -109 27 l-43 21 -39 -39 c-22 -22 -56 -45 -76 -52 -23 -7 -42 -22 -51 -41 -8 -15 -24 -33 -36 -39 -18 -10 -26 -6 -62 34 -22 25 -46 46 -52 46 -25 0 -93 60 -112 99 l-21 41 -20 -34 c-21 -36 -95 -96 -118 -96 -7 0 -18 -17 -24 -39 -19 -70 -59 -78 -101 -19 -12 16 -42 39 -68 50 -56 24 -86 51 -114 103 -19 35 -22 56 -22 165 0 152 15 209 115 420 38 80 76 171 85 203 16 54 16 61 -4 140 -50 208 -71 353 -71 506 0 84 -2 93 -17 86 -10 -3 -79 -18 -153 -32 -74 -14 -141 -27 -148 -29 -7 -2 -23 -25 -35 -51 -18 -40 -22 -65 -22 -153 1 -123 15 -168 97 -301 119 -195 187 -365 173 -431 -11 -50 -54 -138 -70 -145 -9 -3 -23 1 -33 10 -29 26 -66 24 -101 -6 -18 -15 -36 -27 -39 -27 -4 0 -12 -10 -17 -22 -16 -37 -44 -34 -86 9 -22 21 -52 50 -67 64 l-27 26 -40 -42 c-22 -24 -48 -54 -58 -69 -10 -14 -22 -26 -27 -26 -5 0 -40 30 -78 67 -59 58 -71 76 -83 123 -20 82 -16 238 10 343 20 81 21 98 11 206 -17 197 -45 311 -110 441 -29 58 -46 79 -71 91 l-34 16 -1 -136 c-3 -229 -42 -406 -125 -559 -21 -41 -39 -84 -39 -96 0 -40 66 -157 156 -276 168 -222 199 -291 192 -420 -6 -101 -31 -153 -113 -236 -68 -67 -68 -67 -94 -51 -14 9 -48 27 -76 40 -27 13 -56 31 -64 40 -12 15 -18 12 -57 -32 -29 -33 -61 -56 -92 -67 -26 -10 -57 -30 -70 -46 -29 -34 -36 -35 -63 -3 -12 13 -36 27 -53 31 -48 10 -88 34 -123 72 l-32 35 -36 -32 c-20 -17 -50 -34 -66 -38 -18 -3 -35 -17 -48 -39 -30 -50 -62 -46 -102 13 -18 26 -47 60 -65 76 -56 49 -86 124 -92 231 -8 163 28 247 217 502 l23 31 -30 84 c-57 158 -83 224 -95 235 -11 10 -433 164 -449 164 -4 0 -14 -13 -23 -30 -43 -83 -171 -76 -225 13 -11 18 -20 48 -20 67 0 39 29 93 58 109 16 9 19 18 15 56 -10 88 41 149 126 149 105 0 157 -73 129 -183 -2 -9 35 -27 121 -58 68 -24 126 -42 128 -39 2 2 -18 48 -45 102 -63 126 -178 388 -253 574 -31 79 -61 146 -66 147 -15 5 -167 -141 -233 -224 -70 -87 -103 -148 -155 -291 -36 -99 -55 -132 -218 -370 -61 -89 -123 -212 -154 -302 -13 -39 -18 -84 -18 -155 0 -116 10 -144 104 -290 94 -144 102 -211 36 -283 -18 -21 -35 -48 -36 -62 -6 -36 -34 -36 -75 -1 -41 36 -64 39 -90 10 -10 -12 -39 -31 -64 -44 -34 -17 -49 -32 -58 -59 -19 -53 -53 -50 -94 9 -18 25 -37 45 -43 45 -6 0 -27 9 -48 19 -50 26 -109 10 -137 -37 -17 -27 -23 -31 -39 -23 -10 6 -24 23 -30 40 -7 16 -31 44 -53 61 -123 99 -129 327 -19 667 16 48 37 124 46 168 24 114 54 206 162 494 151 407 200 588 242 896 45 325 153 617 379 1028 45 82 82 153 82 158 0 5 -8 9 -19 9 -77 0 -186 103 -254 241 -100 202 -114 401 -37 523 41 64 61 61 101 -14 84 -158 264 -245 490 -237 l91 4 115 134 c63 74 133 153 155 176 l41 42 -22 50 c-37 87 -21 215 32 260 21 17 21 34 0 113 -16 55 -18 114 -18 483 0 354 3 442 19 558 10 76 16 140 13 143 -2 3 -17 -28 -31 -69 -24 -63 -28 -91 -29 -198 -2 -110 -5 -130 -27 -174 -19 -38 -35 -55 -70 -72 -77 -40 -110 -29 -110 36 0 49 -70 148 -171 241 -117 108 -243 283 -288 398 -16 42 -42 131 -57 197 -27 111 -29 135 -28 320 0 192 1 203 28 285 43 131 82 196 171 286 179 181 430 305 810 400 102 26 172 37 258 41 l117 6 56 64 c149 170 378 264 474 194z m-2659 -794 c43 -29 68 -94 53 -136 -10 -26 -8 -30 22 -55 48 -38 61 -92 35 -150 -23 -53 -56 -77 -114 -83 -55 -6 -100 16 -119 57 -7 17 -18 28 -24 26 -6 -2 -125 -46 -264 -96 -365 -132 -326 -111 -322 -170 4 -46 1 -53 -30 -84 -40 -40 -109 -56 -149 -36 -69 36 -102 99 -81 159 9 25 7 30 -14 41 -104 56 -60 224 64 245 61 10 122 -32 145 -99 2 -5 137 39 301 99 l297 108 -7 26 c-12 40 -7 87 11 114 37 57 136 74 196 34z m99 -1602 c64 -33 92 -119 55 -172 -15 -21 -12 -23 107 -86 298 -157 436 -227 444 -227 5 0 17 14 26 30 39 68 130 76 195 17 65 -60 54 -174 -20 -211 -28 -13 -31 -18 -29 -58 3 -55 -26 -104 -73 -124 -47 -19 -71 -18 -122 7 -65 32 -88 94 -59 160 6 13 -45 44 -273 163 -155 80 -285 146 -289 146 -5 0 -14 -11 -21 -24 -37 -69 -168 -55 -214 24 -35 58 -13 144 44 179 28 17 31 25 33 71 1 46 6 56 39 86 30 28 44 34 82 34 25 0 59 -7 75 -15z m6545 -175 c46 -22 65 -50 74 -107 5 -29 11 -39 29 -41 32 -5 80 -58 88 -97 15 -82 -53 -165 -137 -165 -35 0 -52 6 -73 25 -15 14 -29 25 -31 25 -10 0 -505 -372 -505 -379 0 -5 7 -22 16 -40 53 -105 -97 -216 -204 -151 -35 22 -65 78 -60 113 2 15 -4 22 -26 28 -93 26 -121 146 -50 221 57 59 133 60 183 3 l29 -34 253 190 c139 104 254 191 257 193 2 3 -5 17 -17 32 -47 59 -14 156 64 190 42 18 62 17 110 -6z m-7324 -2433 c74 -49 88 -135 31 -192 l-27 -27 230 -223 c225 -218 230 -223 250 -205 48 42 95 51 145 25 35 -18 68 -63 76 -103 13 -67 -46 -152 -105 -152 -25 0 -29 -4 -35 -39 -13 -85 -114 -129 -198 -85 -65 34 -89 124 -47 179 l22 27 -214 215 c-217 217 -246 243 -258 226 -11 -18 -49 -33 -83 -33 -69 0 -128 65 -128 142 0 59 41 111 98 125 25 6 38 15 40 28 16 101 120 148 203 92z m6832 -1521 c52 -21 87 -70 87 -120 0 -23 -6 -51 -14 -62 -13 -17 -12 -22 10 -45 50 -52 48 -129 -4 -181 -31 -32 -92 -51 -132 -41 -35 8 -78 50 -85 85 -5 21 -11 27 -23 24 -10 -3 -141 -26 -292 -51 -352 -58 -320 -49 -320 -88 0 -123 -159 -167 -243 -68 -31 37 -37 103 -13 136 13 18 11 23 -15 53 -24 27 -29 42 -29 82 0 41 5 55 31 85 34 39 89 58 138 49 37 -8 91 -65 91 -98 0 -12 2 -25 5 -28 4 -4 344 51 602 97 30 5 31 7 26 44 -9 63 28 117 90 131 47 12 55 11 90 -4z" id="1"/>
<path d="M3911 8244 c-72 -79 -89 -164 -45 -231 19 -31 35 -29 70 8 38 41 142 109 166 109 44 0 30 84 -23 138 -26 26 -39 32 -74 32 -39 0 -47 -5 -94 -56z" id="2"/>
<path d="M3824 8247 c-78 -42 -105 -64 -154 -123 -88 -106 -128 -220 -95 -270 19 -29 24 -29 150 -1 63 15 74 21 112 64 32 37 39 50 29 58 -26 20 -46 75 -46 125 0 59 16 102 54 148 35 40 27 40 -50 -1z" id="3"/>
<path d="M5825 8165 c-49 -13 -117 -33 -150 -44 l-60 -19 76 -35 c43 -19 100 -53 127 -75 59 -46 104 -57 164 -41 79 20 156 127 134 184 -10 26 -86 55 -146 54 -30 0 -95 -11 -145 -24z" id="4"/>
<path d="M4402 8145 c-67 -21 -174 -89 -214 -138 -63 -76 -116 -166 -139 -235 -12 -37 -24 -74 -27 -82 -3 -8 26 15 65 51 138 130 284 165 411 100 57 -29 119 -86 153 -139 l28 -44 10 39 c28 105 53 225 63 309 10 80 10 96 -2 109 -41 40 -256 59 -348 30z" id="5"/>
<path d="M5110 8149 c-97 -11 -120 -21 -120 -55 0 -14 24 -87 54 -162 29 -75 59 -155 66 -177 7 -22 16 -44 20 -49 5 -4 24 10 44 31 103 114 299 136 407 46 16 -14 32 -23 35 -20 7 7 -64 159 -118 254 -38 66 -45 74 -100 97 -51 22 -169 48 -203 45 -5 -1 -44 -5 -85 -10z" id="6"/>
<path d="M4895 8108 c-22 -5 -55 -7 -72 -4 -33 5 -33 5 -33 -37 1 -68 27 -194 50 -242 23 -48 59 -67 85 -45 17 14 42 88 50 150 4 30 1 60 -9 89 -9 24 -16 56 -16 72 0 16 -3 29 -7 28 -5 -1 -26 -5 -48 -11z" id="7"/>
<path d="M6141 8069 c-26 -78 -113 -149 -185 -149 -19 0 -37 -4 -40 -9 -9 -13 137 -149 170 -158 89 -24 155 -2 202 68 36 52 26 97 -35 162 -26 29 -60 68 -74 87 l-26 34 -12 -35z" id="8"/>
<path d="M4130 8059 c-82 -38 -162 -100 -207 -158 -32 -43 -177 -208 -294 -335 -165 -181 -325 -402 -410 -568 -146 -287 -200 -565 -215 -1098 -12 -448 17 -669 113 -880 l35 -75 38 114 c42 124 148 345 229 480 l51 85 -36 55 c-20 31 -57 82 -81 114 -24 33 -68 106 -96 163 l-53 104 -24 -162 c-39 -252 -29 -429 23 -462 22 -14 55 19 96 94 41 75 41 33 0 -49 -46 -93 -107 -108 -142 -36 -44 92 -44 206 0 475 19 119 23 169 17 215 -4 33 -8 107 -8 165 -1 97 1 110 31 175 17 39 36 103 43 143 16 98 83 234 141 287 82 76 189 149 374 257 60 35 151 153 177 228 10 27 23 94 28 147 23 208 78 347 191 482 33 39 56 71 52 71 -4 0 -37 -14 -73 -31z" id="9"/>
<path d="M5540 8019 c51 -87 97 -192 205 -469 54 -137 88 -201 171 -327 63 -93 89 -123 164 -182 49 -39 105 -90 125 -114 54 -62 97 -153 101 -212 13 -196 13 -196 66 -253 102 -108 146 -264 113 -402 -8 -36 -22 -139 -30 -230 -27 -302 -72 -548 -110 -606 -19 -29 -48 -31 -75 -4 -30 30 -40 64 -39 128 l0 57 18 -67 c20 -77 46 -114 68 -97 27 23 70 218 98 452 23 187 20 198 -30 113 -63 -108 -197 -234 -342 -322 -17 -11 -17 -14 5 -81 12 -39 58 -142 101 -230 72 -148 101 -229 116 -326 4 -22 10 -35 16 -31 26 16 132 173 168 249 62 130 72 181 81 445 9 241 13 273 50 420 28 109 40 469 20 613 -19 147 -130 468 -232 672 -82 162 -286 434 -458 606 -128 130 -162 154 -288 205 -48 20 -93 38 -101 41 -7 3 1 -18 19 -48z" id="10"/>
<path d="M3360 7984 c-245 -32 -409 -76 -569 -150 -260 -122 -432 -297 -523 -535 -32 -83 -33 -86 -32 -249 0 -177 20 -302 69 -443 22 -64 84 -178 120 -222 l17 -20 -8 20 c-4 11 -20 55 -35 97 -63 174 -81 405 -41 550 45 163 135 312 267 443 143 141 333 258 610 375 143 60 206 94 234 124 28 30 35 29 -109 10z" id="11"/>
<path d="M3515 7960 c-16 -17 -61 -50 -100 -75 -70 -43 -133 -113 -154 -168 -30 -77 -3 -80 112 -13 52 31 116 65 143 76 27 12 50 23 52 25 2 2 -4 15 -14 29 -13 21 -16 41 -11 91 2 36 4 65 3 65 -1 0 -15 -14 -31 -30z" id="12"/>
<path d="M6300 7981 c0 -31 147 -124 385 -244 241 -122 357 -198 467 -309 94 -95 202 -248 241 -343 52 -126 71 -229 72 -382 0 -78 3 -139 6 -135 17 19 60 148 80 242 17 78 23 136 23 225 0 199 -36 309 -142 432 -113 132 -250 202 -642 333 -129 43 -292 102 -362 132 -71 31 -128 52 -128 49z" id="13"/>
<path d="M6333 7870 c-3 -43 -28 -85 -70 -117 -32 -25 -45 -28 -110 -28 -40 0 -73 -2 -73 -5 0 -3 31 -39 69 -80 l68 -75 151 0 c145 0 151 1 176 24 57 53 40 120 -50 197 -63 53 -144 114 -153 114 -4 0 -7 -13 -8 -30z" id="14"/>
<path d="M4760 7811 c-37 -204 81 -383 210 -316 35 18 63 63 84 134 21 73 20 108 -6 178 -27 74 -35 83 -44 47 -37 -155 -160 -167 -210 -21 -9 26 -17 47 -19 47 -2 0 -9 -31 -15 -69z" id="15"/>
<path d="M4301 7835 c-106 -30 -198 -95 -256 -183 -18 -28 -32 -71 -44 -143 -11 -57 -22 -116 -26 -131 l-7 -27 78 34 c88 39 197 60 260 51 73 -10 135 -46 211 -122 81 -81 73 -84 88 31 4 28 18 99 32 160 l26 110 -28 53 c-47 89 -150 165 -240 176 -22 3 -64 -1 -94 -9z" id="16"/>
<path d="M3202 7803 c-177 -77 -288 -248 -239 -366 27 -64 40 -64 90 0 42 55 117 131 162 163 16 12 20 27 20 75 0 54 4 66 37 113 21 29 32 52 25 52 -6 0 -49 -17 -95 -37z" id="17"/>
<path d="M3695 7804 c-116 -40 -130 -47 -110 -55 11 -4 39 -8 61 -8 36 -1 45 4 69 35 15 19 25 37 24 38 -2 2 -22 -3 -44 -10z" id="18"/>
<path d="M5323 7800 c-68 -22 -173 -107 -173 -141 0 -10 7 -44 15 -76 22 -81 20 -200 -6 -300 -11 -47 -19 -87 -16 -89 2 -2 17 14 32 36 42 61 145 153 200 179 55 26 131 30 191 11 50 -16 158 -71 208 -105 21 -14 40 -24 43 -22 2 3 -16 45 -40 93 -24 49 -62 134 -83 189 -31 78 -49 110 -85 147 -88 89 -177 113 -286 78z" id="19"/>
<path d="M6570 7753 c1 -4 7 -19 15 -33 19 -33 19 -100 -1 -128 -29 -42 -72 -55 -193 -60 l-113 -5 113 -74 c139 -92 252 -150 320 -164 42 -9 58 -8 93 5 78 30 136 106 136 178 -1 77 -58 130 -229 217 -78 40 -141 68 -141 64z" id="20"/>
<path d="M3493 7719 c-9 -9 -13 -48 -12 -123 0 -106 1 -110 17 -87 9 13 47 61 84 107 37 45 68 84 68 87 0 2 -19 7 -42 10 -24 4 -56 9 -73 12 -18 4 -35 1 -42 -6z" id="21"/>
<path d="M2927 7667 c-146 -87 -190 -126 -210 -187 -43 -133 6 -275 114 -330 56 -29 76 -26 83 13 3 17 22 68 41 111 l34 79 -24 29 c-23 27 -45 85 -45 119 0 39 33 119 70 167 22 28 36 52 32 51 -4 0 -47 -24 -95 -52z" id="22"/>
<path d="M3400 7673 c-14 -9 -55 -37 -92 -61 -38 -24 -68 -48 -68 -53 0 -14 162 -90 185 -87 19 3 20 11 20 110 0 66 -4 108 -10 107 -5 0 -21 -7 -35 -16z" id="23"/>
<path d="M4690 7539 c-20 -79 -21 -96 -10 -132 51 -173 181 -262 287 -197 39 23 116 125 149 195 27 58 30 99 10 152 -8 21 -17 47 -19 58 l-4 20 -7 -20 c-20 -59 -66 -133 -96 -152 -58 -40 -162 -23 -211 33 -22 25 -59 99 -59 119 0 8 -4 15 -9 15 -5 0 -19 -41 -31 -91z" id="24"/>
<path d="M6963 7512 c20 -75 -18 -161 -96 -217 -32 -23 -54 -30 -102 -33 -57 -4 -78 1 -180 44 -16 6 -14 0 11 -31 17 -22 52 -72 76 -110 25 -39 79 -105 119 -146 116 -119 193 -136 310 -66 44 26 59 44 86 95 28 55 33 74 33 135 0 108 -13 142 -83 215 -54 56 -167 152 -180 152 -2 0 0 -17 6 -38z" id="25"/>
<path d="M3195 7519 c-26 -40 24 -359 55 -359 6 0 10 4 10 9 0 5 41 66 90 135 50 69 90 128 90 131 0 3 -11 5 -24 5 -13 0 -64 20 -114 45 -99 50 -98 49 -107 34z" id="26"/>
<path d="M2624 7427 c-39 -39 -86 -94 -105 -122 -30 -44 -34 -57 -32 -110 4 -186 177 -363 328 -335 29 5 30 9 52 105 29 132 29 131 -11 145 -87 28 -154 111 -176 218 -9 40 -8 63 3 109 9 32 14 59 13 60 -2 2 -34 -30 -72 -70z" id="27"/>
<path d="M3097 7425 c-48 -60 -121 -196 -133 -247 -6 -26 -3 -28 64 -48 46 -14 89 -20 128 -18 68 3 68 1 35 113 -12 39 -27 113 -34 165 l-12 95 -48 -60z" id="28"/>
<path d="M6310 7445 c0 -11 82 -127 87 -122 13 13 -12 79 -36 95 -39 28 -51 34 -51 27z" id="29"/>
<path d="M4195 7400 c-27 -5 -70 -17 -95 -26 -111 -42 -138 -62 -250 -191 -61 -70 -109 -134 -108 -142 2 -9 20 -19 41 -23 42 -9 118 5 257 48 112 34 207 36 273 6 138 -62 207 -184 207 -368 0 -88 -26 -192 -62 -251 -20 -34 -13 -42 21 -23 35 18 178 50 269 59 148 16 287 -7 526 -86 13 -4 2 16 -34 63 -78 102 -94 143 -94 244 -1 71 3 93 23 130 39 74 63 101 124 141 91 59 174 83 289 84 l98 0 152 -79 c207 -106 236 -100 168 34 -71 140 -187 248 -355 331 -182 90 -294 54 -448 -143 -91 -118 -93 -121 -126 -244 -41 -151 -66 -214 -111 -281 -70 -106 -132 -118 -207 -40 -22 23 -52 60 -66 82 -56 92 -97 253 -97 386 0 53 -5 70 -31 111 -88 137 -223 203 -364 178z" id="30"/>
<path d="M6428 7313 c8 -103 14 -109 141 -128 l43 -7 -33 47 c-31 43 -136 145 -150 145 -3 0 -4 -26 -1 -57z" id="31"/>
<path d="M4647 7328 c-19 -109 -19 -143 2 -199 29 -76 111 -191 157 -220 56 -34 87 -30 137 19 24 23 57 66 75 96 33 54 85 193 98 262 l7 39 -49 -65 c-59 -78 -110 -110 -178 -110 -94 0 -165 52 -213 158 -14 28 -26 52 -28 52 -1 0 -5 -15 -8 -32z" id="32"/>
<path d="M7248 7173 c-3 -74 -9 -97 -33 -143 -68 -124 -225 -182 -339 -123 -17 9 -60 46 -95 82 -49 51 -62 60 -57 41 4 -14 11 -79 16 -145 11 -142 36 -243 85 -341 62 -127 144 -177 254 -155 147 30 258 160 311 365 26 104 25 158 -5 253 -21 67 -99 221 -124 246 -5 5 -10 -31 -13 -80z" id="33"/>
<path d="M2440 7173 c-52 -113 -86 -286 -71 -356 34 -147 223 -311 362 -312 86 0 94 12 96 132 1 54 5 119 8 146 l7 47 -49 0 c-83 0 -141 26 -208 94 -67 67 -101 129 -116 215 -6 31 -12 57 -13 59 -2 1 -9 -10 -16 -25z" id="34"/>
<path d="M6480 7163 c0 -18 63 -163 71 -163 5 0 9 6 9 14 0 7 13 38 30 69 16 31 26 58 22 60 -4 3 -27 8 -52 12 -25 3 -53 9 -62 11 -10 3 -18 2 -18 -3z" id="35"/>
<path d="M2956 7094 c12 -55 62 -152 99 -193 l38 -41 53 107 c30 59 54 107 54 108 0 0 -25 1 -56 2 -47 2 -125 19 -179 39 -13 5 -15 1 -9 -22z" id="36"/>
<path d="M6622 7078 c-26 -43 -45 -107 -40 -138 2 -18 17 -33 53 -52 45 -24 51 -25 57 -10 13 33 -17 198 -42 225 -4 5 -17 -6 -28 -25z" id="37"/>
<path d="M4125 7053 c-11 -2 -65 -18 -120 -35 -89 -28 -115 -31 -240 -33 -132 -1 -143 -3 -195 -30 -59 -30 -155 -103 -207 -157 -37 -38 -78 -124 -89 -183 l-7 -40 24 22 c13 12 56 37 94 55 68 32 74 33 220 36 160 4 175 8 175 57 0 33 45 91 87 110 51 25 169 55 215 55 56 0 66 -17 60 -99 -4 -62 -2 -75 22 -115 38 -65 111 -104 211 -113 100 -8 105 -2 105 118 0 167 -56 276 -173 334 -49 24 -123 32 -182 18z" id="38"/>
<path d="M2926 7040 c-9 -28 -29 -137 -43 -237 -5 -37 -3 -43 13 -43 52 0 174 46 174 65 0 7 -9 20 -20 30 -28 25 -84 112 -102 160 -11 26 -18 35 -22 25z" id="39"/>
<path d="M4640 7019 c1 -96 60 -250 126 -327 65 -77 101 -73 160 15 32 49 94 196 94 225 0 7 -19 -7 -42 -29 -24 -23 -56 -47 -71 -53 -67 -24 -156 32 -229 144 l-38 59 0 -34z" id="40"/>
<path d="M5468 7015 c-127 -32 -210 -93 -258 -187 -33 -67 -38 -131 -16 -203 12 -40 12 -40 56 -37 167 12 300 116 287 225 -3 23 -8 54 -12 69 -6 21 -3 29 10 34 29 12 203 -26 265 -58 76 -38 154 -108 173 -156 14 -35 21 -40 79 -56 35 -9 103 -37 152 -62 l89 -45 -6 61 c-8 88 -47 162 -110 209 -74 55 -94 64 -151 65 -42 1 -78 15 -198 75 -141 71 -151 74 -225 77 -46 2 -102 -3 -135 -11z" id="41"/>
<path d="M3947 6848 c-75 -23 -122 -60 -133 -102 -3 -15 -5 -29 -2 -31 2 -2 33 4 68 15 36 11 100 25 142 31 75 11 78 12 78 38 0 14 3 36 6 49 6 21 3 22 -42 21 -27 0 -80 -10 -117 -21z" id="42"/>
<path d="M5610 6863 c0 -4 9 -16 19 -27 11 -12 37 -49 58 -84 l38 -63 80 -5 c44 -2 92 -7 108 -10 17 -3 27 -1 27 6 0 20 -89 106 -138 133 -66 36 -192 69 -192 50z" id="43"/>
<path d="M6600 6858 c1 -30 58 -192 63 -178 12 29 27 132 21 141 -3 5 -23 18 -45 29 -28 15 -39 17 -39 8z" id="44"/>
<path d="M5580 6801 c0 -23 -7 -55 -15 -70 l-14 -29 60 -6 c34 -4 64 -5 66 -2 7 7 -56 112 -79 133 -17 15 -18 13 -18 -26z" id="45"/>
<path d="M2985 6750 c-33 -10 -72 -21 -87 -24 -20 -5 -28 -13 -28 -28 0 -45 124 -200 134 -167 2 8 12 48 22 89 9 41 23 92 30 113 15 43 16 43 -71 17z" id="46"/>
<path d="M6716 6740 c-4 -19 -16 -63 -28 -98 -60 -189 66 -568 209 -629 46 -19 77 -16 132 11 87 45 154 116 210 226 48 92 111 262 111 298 0 8 -18 -9 -39 -39 -67 -94 -172 -151 -277 -152 -145 -1 -229 105 -301 383 l-10 35 -7 -35z" id="47"/>
<path d="M7412 6718 c-6 -29 -18 -95 -27 -145 -21 -125 -49 -211 -101 -317 -25 -49 -43 -90 -41 -93 7 -7 75 75 95 114 42 83 82 232 94 353 8 81 8 124 1 131 -6 6 -13 -8 -21 -43z" id="48"/>
<path d="M2376 6695 c17 -133 74 -293 144 -403 30 -48 50 -68 83 -82 79 -36 184 -21 236 33 20 23 20 24 4 139 -15 106 -18 116 -34 107 -29 -15 -126 -10 -179 10 -93 35 -162 99 -247 227 -11 16 -12 11 -7 -31z" id="49"/>
<path d="M3960 6720 c-47 -10 -103 -25 -125 -33 l-40 -14 40 -13 c22 -6 63 -25 92 -41 l52 -28 22 37 c13 20 36 54 52 75 34 44 33 44 -93 17z" id="50"/>
<path d="M4061 6664 c-38 -54 -48 -74 -36 -74 7 0 129 33 134 36 2 2 -6 16 -18 32 -12 17 -21 35 -21 40 0 30 -23 16 -59 -34z" id="51"/>
<path d="M5560 6656 c0 -7 3 -27 6 -44 l6 -30 37 37 c29 29 34 37 21 43 -27 12 -70 9 -70 -6z" id="52"/>
<path d="M5494 6639 c-30 -34 -112 -70 -170 -76 -30 -3 -54 -9 -54 -14 0 -14 195 -69 247 -69 28 0 37 38 23 110 -13 67 -21 76 -46 49z" id="53"/>
<path d="M3467 6639 c-50 -12 -127 -52 -152 -78 -46 -52 -26 -218 38 -313 32 -48 53 -63 43 -30 -17 57 -17 97 -1 164 26 106 62 173 120 224 50 44 50 44 20 43 -17 -1 -47 -5 -68 -10z" id="54"/>
<path d="M3585 6616 c-42 -24 -71 -49 -97 -86 -45 -63 -50 -88 -15 -66 62 39 237 110 308 124 94 18 88 27 -29 48 -101 18 -98 18 -167 -20z" id="55"/>
<path d="M5721 6640 c-39 -9 -77 -36 -99 -68 l-14 -22 73 0 c124 0 199 -24 352 -110 32 -17 61 -30 63 -27 18 18 -77 134 -155 191 -39 28 -57 34 -116 38 -38 3 -85 2 -104 -2z" id="56"/>
<path d="M6043 6561 c34 -36 68 -84 83 -118 14 -32 38 -83 55 -114 16 -31 29 -66 29 -77 0 -38 18 -33 35 10 20 51 36 179 26 216 -11 39 -140 109 -256 136 -28 7 -26 4 28 -53z" id="57"/>
<path d="M2870 6554 c0 -65 25 -252 34 -261 3 -4 6 -1 6 6 0 7 18 52 40 99 l40 85 -57 61 c-31 34 -58 63 -60 65 -2 2 -3 -22 -3 -55z" id="58"/>
<path d="M4075 6573 c-27 -8 -52 -16 -54 -18 -2 -2 6 -17 18 -34 12 -16 27 -44 35 -61 l13 -32 38 63 c21 35 45 72 53 82 14 16 13 17 -19 16 -19 0 -56 -7 -84 -16z" id="59"/>
<path d="M4196 6548 c-32 -43 -100 -168 -91 -168 4 0 19 8 33 19 46 32 124 67 212 96 47 15 89 31 93 35 4 4 -26 10 -68 13 -41 4 -91 14 -111 22 -20 8 -38 15 -40 15 -2 0 -14 -15 -28 -32z" id="60"/>
<path d="M3765 6556 c-33 -8 -73 -20 -90 -26 l-30 -13 35 -9 c19 -5 84 -13 144 -18 83 -7 121 -15 159 -34 28 -14 53 -23 55 -21 7 7 -35 68 -67 99 -26 25 -41 30 -88 33 -32 1 -85 -4 -118 -11z" id="61"/>
<path d="M5269 6492 c35 -50 268 -248 279 -238 1 2 -2 16 -9 32 -6 16 -12 58 -14 94 l-3 64 -74 17 c-67 14 -128 33 -182 55 -19 7 -18 5 3 -24z" id="62"/>
<path d="M5620 6512 c-31 -6 -36 -12 -47 -52 -12 -49 -16 -113 -7 -122 3 -4 30 11 59 31 67 47 118 67 220 84 l80 14 -69 22 c-75 23 -181 33 -236 23z" id="63"/>
<path d="M4315 6452 c-95 -36 -186 -87 -212 -120 -7 -9 -13 -25 -13 -36 0 -12 -7 -34 -15 -50 -8 -15 -15 -30 -15 -33 0 -9 215 110 258 142 41 32 112 112 112 128 0 11 -8 9 -115 -31z" id="64"/>
<path d="M3215 6405 c-12 -38 -16 -83 -14 -134 4 -67 8 -83 33 -115 33 -43 104 -92 156 -106 19 -5 71 -10 115 -9 l80 0 -42 19 c-62 28 -155 93 -191 134 -42 49 -67 99 -91 186 -11 40 -23 75 -25 77 -3 3 -12 -21 -21 -52z" id="65"/>
<path d="M3851 6423 c98 -104 113 -126 134 -198 l12 -40 27 52 c17 34 26 69 26 98 0 41 -3 47 -39 71 -45 29 -120 54 -165 54 l-30 0 35 -37z" id="66"/>
<path d="M6303 6375 c-9 -68 -22 -107 -64 -193 -28 -59 -59 -115 -67 -125 -61 -70 131 25 211 104 65 65 69 86 36 158 -19 44 -88 141 -99 141 -3 0 -11 -38 -17 -85z" id="67"/>
<path d="M3564 6438 c-45 -11 -94 -70 -94 -111 0 -43 15 -57 62 -57 103 0 170 80 123 147 -17 25 -49 32 -91 21z" id="68"/>
<path d="M4653 6435 c-104 -19 -221 -60 -278 -99 -28 -18 -111 -66 -185 -106 -222 -120 -320 -192 -442 -326 -162 -178 -288 -365 -404 -598 -117 -236 -171 -416 -150 -499 13 -54 131 -159 202 -181 22 -7 22 -5 21 131 -1 161 12 250 57 388 18 55 43 136 55 180 28 102 98 249 155 329 64 88 136 154 254 231 68 45 122 90 160 133 123 142 185 201 240 230 65 34 89 40 188 51 61 7 81 15 134 51 124 84 189 85 322 3 109 -67 120 -72 200 -83 148 -22 204 -62 233 -168 9 -31 20 -74 25 -94 14 -48 51 -78 179 -143 203 -101 257 -182 286 -419 4 -32 25 -102 47 -155 100 -245 122 -460 72 -710 l-7 -34 62 33 c100 54 140 122 141 241 0 91 -18 148 -115 349 -54 113 -97 218 -120 297 -104 359 -225 553 -464 745 -122 98 -330 188 -517 224 -92 17 -253 17 -351 -1z" id="69"/>
<path d="M4740 6368 c-25 -13 -68 -39 -96 -57 -41 -26 -66 -33 -135 -41 -144 -14 -213 -58 -344 -215 -84 -101 -106 -120 -223 -198 -141 -94 -195 -147 -269 -265 -47 -76 -127 -255 -121 -274 2 -5 18 12 35 39 45 69 161 200 224 253 106 90 190 143 389 247 73 39 114 69 175 130 114 114 265 195 386 208 167 19 490 -149 520 -270 11 -42 12 -44 126 -99 231 -113 350 -207 460 -365 21 -31 -9 133 -36 194 -30 66 -94 121 -221 185 -151 77 -184 110 -205 204 -21 90 -54 149 -99 170 -18 9 -69 21 -112 27 -85 11 -105 19 -232 93 -103 61 -155 69 -222 34z" id="70"/>
<path d="M3730 6361 c-26 -49 1 -93 45 -73 43 20 29 92 -17 92 -9 0 -22 -9 -28 -19z" id="71"/>
<path d="M5660 6356 c-19 -13 -46 -35 -59 -50 l-24 -26 23 -50 c13 -28 30 -56 38 -63 12 -10 14 -6 8 30 -9 52 7 113 40 153 30 36 22 38 -26 6z" id="72"/>
<path d="M5814 6351 c-72 -33 -94 -89 -51 -129 27 -26 57 -28 97 -7 72 37 82 130 15 149 -11 3 -39 -3 -61 -13z" id="73"/>
<path d="M6016 6304 c-9 -8 -16 -22 -16 -29 0 -19 28 -45 49 -45 40 0 57 61 22 80 -27 14 -37 13 -55 -6z" id="74"/>
<path d="M3916 6269 c3 -19 1 -61 -5 -93 -6 -33 -9 -61 -8 -63 2 -2 16 6 30 18 18 13 27 30 27 48 0 35 -18 92 -36 110 -11 12 -12 9 -8 -20z" id="75"/>
<path d="M6701 6235 c-3 -38 33 -402 45 -453 14 -62 51 -148 60 -139 3 2 33 45 67 95 34 50 97 132 141 182 43 50 76 93 73 96 -2 3 -23 -4 -45 -16 -63 -33 -104 -36 -156 -10 -70 33 -109 86 -174 230 -6 14 -11 21 -11 15z" id="76"/>
<path d="M2830 6205 c-59 -44 -155 -55 -227 -28 -9 4 14 -28 51 -71 77 -89 96 -126 96 -191 0 -29 4 -45 13 -45 26 0 79 42 92 73 19 46 27 140 18 220 l-8 68 -35 -26z" id="77"/>
<path d="M6397 6130 c-62 -62 -163 -115 -269 -141 -46 -11 -86 -24 -90 -28 -13 -12 134 -63 198 -68 43 -4 77 0 112 11 48 16 52 21 71 71 17 46 41 207 30 204 -2 -1 -26 -23 -52 -49z" id="78"/>
<path d="M4725 6118 c-104 -19 -316 -153 -340 -214 -13 -34 5 -44 82 -44 56 0 63 3 86 30 14 16 31 46 38 67 19 60 38 83 68 83 37 0 51 -17 51 -62 0 -49 -32 -113 -68 -135 -15 -9 -29 -18 -31 -20 -5 -3 82 -81 118 -105 44 -30 84 -23 137 23 26 23 58 46 70 51 l23 11 -25 30 c-37 44 -64 102 -64 137 0 35 30 70 61 70 44 0 99 -91 99 -163 0 -37 30 -50 93 -42 29 4 60 11 70 17 20 10 23 55 5 92 -19 43 -150 126 -249 157 -92 30 -138 33 -224 17z" id="79"/>
<path d="M3240 6086 c0 -17 93 -196 109 -210 16 -14 28 -15 92 -6 40 6 98 22 127 35 61 28 186 114 178 122 -3 3 -47 0 -98 -7 -51 -7 -133 -11 -183 -8 -91 4 -128 15 -192 58 -18 12 -33 19 -33 16z" id="80"/>
<path d="M3779 6014 c-36 -39 -139 -110 -199 -138 -30 -14 -87 -31 -128 -37 -40 -7 -71 -15 -70 -18 13 -26 104 -161 109 -161 3 0 39 44 80 97 41 54 112 137 158 185 46 49 82 91 79 93 -2 3 -15 -7 -29 -21z" id="81"/>
<path d="M5880 5928 c116 -99 153 -129 206 -160 33 -20 81 -43 108 -52 l49 -17 34 33 c33 32 93 117 93 132 0 5 -12 5 -27 1 -82 -20 -195 1 -308 57 -33 17 -74 27 -120 31 l-70 5 35 -30z" id="82"/>
<path d="M5860 5897 c0 -3 22 -51 49 -108 27 -57 62 -140 77 -184 15 -44 29 -82 30 -83 4 -7 112 67 153 104 44 39 51 54 25 54 -34 0 -173 83 -251 150 -46 39 -83 69 -83 67z" id="83"/>
<path d="M4144 5786 c-89 -51 -194 -116 -233 -145 -137 -102 -311 -310 -373 -447 -15 -34 -22 -68 -22 -109 1 -65 13 -99 44 -115 35 -19 73 30 164 208 96 189 157 285 236 376 100 113 240 221 331 253 46 17 46 17 32 45 -8 15 -15 28 -16 27 -1 0 -75 -42 -163 -93z" id="84"/>
<path d="M5262 5829 c-7 -12 -12 -22 -10 -23 2 -2 28 -16 58 -32 30 -16 85 -59 122 -95 81 -81 140 -196 218 -424 77 -223 132 -313 202 -330 23 -6 34 -1 62 27 62 62 65 171 7 286 -10 20 -24 55 -31 77 -34 110 -171 271 -306 363 -44 29 -299 172 -308 172 -1 0 -7 -9 -14 -21z" id="85"/>
<path d="M4328 5795 c-136 -37 -319 -194 -441 -378 -30 -45 -91 -156 -137 -245 -93 -185 -128 -232 -171 -232 -32 0 -64 27 -81 68 l-11 27 -9 -30 c-6 -16 -12 -94 -15 -172 l-5 -142 30 -31 c39 -38 82 -40 133 -5 50 35 82 84 177 267 103 200 188 335 280 442 82 96 207 200 287 240 53 26 175 58 268 71 l48 6 -43 40 c-24 22 -59 48 -78 58 -47 25 -171 33 -232 16z m33 -98 c-5 -5 -17 -7 -26 -3 -14 5 -15 9 -5 21 10 12 16 13 27 4 9 -8 10 -16 4 -22z m-128 -53 c9 -10 -4 -34 -19 -34 -8 0 -14 6 -14 13 0 22 19 35 33 21z m-117 -95 c8 -14 -11 -33 -25 -25 -11 7 -4 36 9 36 5 0 12 -5 16 -11z m-99 -115 c8 -20 -8 -36 -26 -25 -15 10 -8 41 9 41 6 0 13 -7 17 -16z m-99 -141 c-4 -22 -22 -20 -26 1 -2 10 3 16 13 16 10 0 15 -7 13 -17z m-68 -151 c0 -10 -3 -22 -7 -25 -10 -11 -32 13 -26 29 8 20 33 17 33 -4z m-87 -129 c8 -7 -11 -33 -24 -33 -5 0 -9 9 -9 20 0 19 20 27 33 13z m-105 -146 c2 -10 -3 -17 -12 -17 -18 0 -29 16 -21 31 9 14 29 6 33 -14z m-110 -44 c5 -17 -26 -29 -40 -15 -6 6 -7 15 -3 22 9 14 37 9 43 -7z" id="86"/>
<path d="M5110 5779 c-41 -5 -94 -13 -116 -20 -46 -12 -118 -65 -109 -80 4 -5 30 -9 58 -9 146 -1 286 -58 371 -151 76 -84 116 -166 190 -391 98 -298 166 -414 272 -467 26 -13 69 -26 96 -29 44 -4 50 -2 82 30 47 47 60 101 52 218 -3 52 -9 108 -14 124 l-8 29 -18 -46 c-43 -115 -148 -116 -225 -3 -40 58 -61 107 -123 286 -28 80 -65 177 -83 215 -59 129 -151 228 -262 284 -45 23 -49 23 -163 10z m21 -64 c-1 -15 -24 -12 -29 3 -3 9 2 13 12 10 10 -1 17 -7 17 -13z m147 -53 c2 -7 -3 -12 -12 -12 -9 0 -16 7 -16 16 0 17 22 14 28 -4z m122 -117 c0 -8 -7 -15 -15 -15 -8 0 -15 7 -15 15 0 8 7 15 15 15 8 0 15 -7 15 -15z m96 -136 c10 -17 -13 -36 -27 -22 -12 12 -4 33 11 33 5 0 12 -5 16 -11z m62 -182 c2 -10 -3 -17 -12 -17 -10 0 -16 9 -16 21 0 24 23 21 28 -4z m82 -191 c0 -18 -16 -29 -30 -21 -13 8 -1 35 16 35 8 0 14 -6 14 -14z m110 -180 c0 -8 -5 -18 -11 -22 -14 -8 -33 11 -25 25 10 16 36 13 36 -3z m150 -56 c0 -11 -7 -20 -15 -20 -15 0 -21 21 -8 33 12 13 23 7 23 -13z" id="87"/>
<path d="M4583 5644 c-176 -29 -279 -83 -416 -218 -131 -130 -239 -291 -368 -548 -34 -68 -78 -146 -99 -174 -69 -92 -149 -121 -210 -76 -16 13 -30 19 -30 15 0 -28 23 -146 37 -188 35 -110 81 -137 162 -95 111 56 215 193 334 440 152 316 280 465 517 605 145 85 223 153 233 200 11 58 -13 64 -160 39z m-73 -119 c0 -8 -7 -15 -15 -15 -16 0 -20 12 -8 23 11 12 23 8 23 -8z m-142 -97 c-6 -18 -28 -21 -28 -4 0 9 7 16 16 16 9 0 14 -5 12 -12z m-140 -115 c-5 -25 -28 -28 -28 -4 0 12 6 21 16 21 9 0 14 -7 12 -17z m-112 -124 c10 -17 -13 -36 -27 -22 -12 12 -4 33 11 33 5 0 12 -5 16 -11z m-108 -166 c-4 -22 -22 -20 -26 1 -2 10 3 16 13 16 10 0 15 -7 13 -17z m-88 -163 c0 -11 -7 -20 -15 -20 -8 0 -15 9 -15 20 0 11 7 20 15 20 8 0 15 -9 15 -20z m-82 -162 c-6 -18 -28 -21 -28 -4 0 9 7 16 16 16 9 0 14 -5 12 -12z m-103 -119 c10 -15 -1 -23 -20 -15 -9 3 -13 10 -10 16 8 13 22 13 30 -1z m-135 -89 c0 -11 -7 -20 -15 -20 -8 0 -15 9 -15 20 0 11 7 20 15 20 8 0 15 -9 15 -20z" id="88"/>
<path d="M4842 5652 c-14 -10 -1 -56 41 -138 35 -67 75 -108 192 -194 188 -139 223 -189 311 -457 72 -216 96 -264 169 -338 72 -73 120 -98 202 -103 114 -8 174 34 211 149 12 36 22 68 22 72 0 4 -21 -5 -47 -19 -55 -29 -86 -27 -170 11 -119 54 -193 177 -298 500 -130 396 -226 485 -560 519 -33 3 -66 2 -73 -2z m186 -126 c3 -13 -1 -17 -14 -14 -11 2 -20 11 -22 22 -3 13 1 17 14 14 11 -2 20 -11 22 -22z m142 -92 c0 -17 -22 -14 -28 4 -2 7 3 12 12 12 9 0 16 -7 16 -16z m118 -141 c-4 -22 -22 -20 -26 1 -2 10 3 16 13 16 10 0 15 -7 13 -17z m105 -140 c9 -9 -13 -34 -24 -27 -14 8 -11 34 4 34 8 0 17 -3 20 -7z m55 -171 c2 -7 -3 -12 -12 -12 -9 0 -16 7 -16 16 0 17 22 14 28 -4z m70 -185 c2 -10 -3 -17 -11 -17 -16 0 -30 24 -19 34 10 10 27 1 30 -17z m102 -162 c0 -8 -7 -15 -15 -15 -16 0 -20 12 -8 23 11 12 23 8 23 -8z m128 -87 c-6 -18 -28 -21 -28 -4 0 9 7 16 16 16 9 0 14 -5 12 -12z m122 -29 c0 -5 -7 -9 -15 -9 -15 0 -20 12 -9 23 8 8 24 -1 24 -14z" id="89"/>
<path d="M4807 5589 c-12 -45 -7 -110 12 -148 18 -35 69 -82 229 -212 119 -96 206 -248 301 -521 56 -162 84 -217 146 -280 64 -65 128 -98 205 -105 46 -5 65 -1 105 20 28 14 59 35 70 47 l20 22 -40 -9 c-122 -25 -225 8 -317 102 -75 77 -105 136 -171 336 -91 276 -120 319 -302 454 -134 100 -168 137 -215 239 -32 69 -38 76 -43 55z" id="90"/>
<path d="M4695 5502 c-28 -26 -104 -78 -168 -116 -240 -142 -338 -254 -498 -571 -56 -110 -121 -229 -145 -265 -55 -85 -159 -184 -224 -214 -56 -26 -50 -36 24 -36 61 0 157 51 228 122 32 32 58 64 58 72 0 7 7 20 17 27 9 8 65 113 124 234 59 121 131 255 159 297 68 102 186 212 285 267 44 24 95 55 113 68 36 27 85 114 80 143 -2 15 -12 10 -53 -28z" id="91"/>
<path d="M4673 5315 c-60 -17 -156 -64 -193 -96 -28 -23 -31 -24 70 13 82 30 253 35 345 10 39 -10 79 -22 90 -26 36 -13 -36 42 -98 75 -69 37 -141 45 -214 24z" id="92"/>
<path d="M4584 5202 c-71 -21 -183 -81 -198 -106 -9 -13 -7 -20 8 -32 23 -16 49 -11 88 17 35 25 43 24 82 -6 18 -14 46 -25 63 -25 16 0 44 11 63 25 41 30 62 31 99 4 15 -11 42 -21 59 -21 27 -1 44 7 98 47 10 7 20 6 32 -3 55 -40 117 -46 117 -11 0 21 -89 76 -163 100 -93 31 -263 36 -348 11z" id="93"/>
<path d="M4321 5045 c-37 -42 -37 -48 -10 -86 43 -61 109 -75 157 -34 36 30 42 31 92 5 57 -29 97 -26 160 15 l53 34 52 -29 c64 -36 96 -38 155 -6 l45 24 42 -24 c40 -23 44 -24 78 -10 19 8 38 22 41 30 6 17 -10 51 -39 83 -18 20 -22 21 -41 8 -29 -21 -75 -19 -114 5 l-33 20 -33 -25 c-44 -34 -101 -34 -151 1 -37 25 -38 25 -59 6 -48 -44 -92 -53 -136 -27 -68 39 -67 39 -96 16 -37 -29 -87 -28 -112 4 l-20 25 -31 -35z" id="94"/>
<path d="M3001 5014 c-16 -22 -26 -54 -29 -87 -3 -47 1 -62 46 -152 57 -113 149 -243 220 -311 42 -41 228 -179 308 -230 17 -10 64 -41 104 -68 165 -110 393 -199 609 -235 181 -31 171 -33 171 42 0 35 7 87 16 116 8 29 14 55 11 57 -2 2 -53 23 -113 45 -104 39 -112 41 -174 33 -36 -5 -123 -9 -195 -9 -113 0 -136 3 -179 23 -33 15 -68 22 -110 22 -137 1 -215 80 -248 252 -12 64 -13 66 -49 77 -54 16 -154 86 -192 134 -19 23 -42 62 -51 87 -10 25 -30 68 -46 95 -15 28 -35 71 -45 98 -10 26 -20 47 -24 47 -3 0 -17 -16 -30 -36z" id="95"/>
<path d="M6480 5019 c-24 -56 -91 -152 -154 -217 -33 -35 -77 -94 -96 -130 -39 -75 -111 -134 -187 -155 -39 -10 -47 -18 -87 -88 -100 -171 -271 -260 -471 -244 -181 15 -215 12 -294 -19 l-73 -30 6 -35 c3 -20 6 -43 6 -51 1 -8 7 0 15 18 25 58 95 35 95 -32 0 -17 -5 -37 -12 -44 -18 -18 -55 -14 -71 8 -13 19 -15 15 -21 -41 -3 -34 -6 -72 -6 -84 l0 -23 88 19 c136 30 298 77 406 120 186 74 299 146 542 350 182 152 264 259 329 432 20 54 25 86 25 156 0 122 -14 154 -40 90z m-1055 -902 c22 -32 18 -63 -11 -86 -40 -31 -84 -5 -84 51 0 60 62 82 95 35z" id="96"/>
<path d="M5364 4107 c-9 -25 0 -62 15 -62 22 0 38 32 25 52 -14 23 -33 28 -40 10z" id="97"/>
<path d="M4245 4927 c-14 -24 -25 -55 -25 -68 0 -38 55 -117 94 -135 42 -20 71 -14 121 26 47 37 61 37 131 0 90 -48 114 -49 200 -5 l75 38 49 -23 c69 -32 132 -25 203 24 l54 38 53 -16 53 -16 -5 38 c-3 20 -13 54 -21 75 l-16 37 -33 -20 c-42 -25 -88 -25 -121 0 l-25 20 -48 -25 c-60 -32 -90 -32 -157 4 l-54 28 -54 -33 c-62 -39 -92 -42 -158 -13 l-48 20 -38 -25 c-61 -42 -113 -30 -173 38 l-31 36 -26 -43z" id="98"/>
<path d="M4141 4719 c-36 -84 -38 -110 -11 -182 26 -68 78 -129 133 -156 53 -25 81 -26 127 -2 l34 19 -53 27 c-71 35 -144 105 -172 163 -17 36 -22 65 -22 125 0 42 -1 77 -2 77 -1 0 -16 -32 -34 -71z" id="99"/>
<path d="M5106 4760 c-70 -53 -168 -63 -236 -24 -27 16 -29 16 -86 -17 -79 -45 -135 -45 -221 -1 -73 37 -84 39 -107 13 -10 -11 -34 -27 -53 -36 -53 -25 -96 -13 -150 43 l-46 47 6 -67 c6 -79 22 -108 72 -132 67 -32 97 -31 173 4 77 35 65 36 157 -14 43 -23 85 -20 159 11 l65 26 56 -21 c76 -29 114 -28 196 8 54 24 73 28 88 20 11 -5 25 -10 31 -10 17 0 40 65 40 114 0 40 -2 44 -27 49 -16 3 -39 8 -53 12 -18 4 -36 -3 -64 -25z" id="100"/>
<path d="M5286 4669 c-14 -103 -71 -186 -158 -227 l-61 -30 31 -16 c62 -32 152 -10 227 56 39 34 46 46 41 67 -6 31 -62 190 -69 197 -2 3 -7 -19 -11 -47z" id="101"/>
<path d="M2925 4478 c-36 -111 -65 -207 -65 -213 0 -19 55 -65 91 -75 49 -14 84 -4 118 36 34 39 46 71 38 112 -2 15 -12 72 -21 126 -14 79 -25 112 -53 158 -20 32 -37 58 -39 58 -2 0 -33 -91 -69 -202z" id="102"/>
<path d="M2797 4498 c-65 -77 -127 -159 -137 -182 -10 -22 -51 -135 -91 -251 -39 -115 -121 -327 -181 -469 -60 -143 -107 -263 -106 -267 4 -11 131 87 271 206 99 84 106 93 112 135 44 302 114 569 230 881 18 49 30 89 26 89 -3 -1 -59 -64 -124 -142z" id="103"/>
<path d="M2004 4575 c12 -66 55 -186 87 -242 29 -50 128 -168 135 -160 2 1 -10 41 -26 87 -16 47 -30 104 -30 127 0 36 -5 46 -41 77 -23 19 -60 59 -81 88 -52 70 -52 69 -44 23z" id="104"/>
<path d="M5105 4574 c-86 -41 -137 -42 -231 -3 -28 11 -39 9 -98 -14 -85 -35 -120 -34 -191 4 l-58 31 -60 -28 c-68 -33 -125 -36 -174 -10 -18 9 -33 12 -33 6 0 -15 100 -91 149 -112 47 -22 55 -21 266 9 82 12 137 13 215 8 153 -12 186 -9 235 20 39 22 93 81 84 89 -7 6 -48 26 -51 25 -2 0 -25 -11 -53 -25z" id="105"/>
<path d="M4043 4524 c-18 -31 -33 -61 -33 -68 0 -23 51 -91 88 -117 63 -44 99 -52 149 -32 24 10 43 21 43 24 0 3 -18 14 -40 24 -55 25 -123 100 -145 160 -10 28 -21 53 -24 57 -3 4 -21 -18 -38 -48z" id="106"/>
<path d="M1967 4505 c-8 -55 6 -164 30 -237 17 -49 22 -55 73 -80 30 -14 73 -30 95 -34 l40 -7 -60 65 c-65 71 -124 179 -148 272 -9 32 -18 60 -20 62 -2 3 -7 -16 -10 -41z" id="107"/>
<path d="M3135 4455 c63 -277 139 -468 259 -655 38 -59 49 -69 64 -62 30 16 94 25 226 31 l129 6 -62 48 c-93 74 -201 238 -201 309 0 19 -8 33 -27 44 -109 66 -262 183 -351 268 l-43 41 6 -30z" id="108"/>
<path d="M6301 4399 c-77 -73 -83 -81 -77 -109 10 -52 57 -137 99 -180 54 -57 146 -97 169 -75 4 5 -98 435 -105 441 -1 1 -40 -34 -86 -77z" id="109"/>
<path d="M5352 4436 c-33 -34 -108 -76 -136 -76 -8 0 -17 -4 -20 -9 -7 -11 38 -41 62 -41 41 0 121 32 156 63 l38 33 -27 32 c-15 17 -30 32 -33 32 -4 0 -22 -16 -40 -34z" id="110"/>
<path d="M3943 4392 c-17 -21 -56 -53 -87 -72 -30 -19 -55 -38 -56 -42 0 -4 24 -12 54 -19 57 -12 262 -9 285 5 9 6 -3 17 -38 37 -33 19 -62 47 -84 79 -17 27 -34 49 -37 49 -3 0 -19 -17 -37 -37z" id="111"/>
<path d="M4705 4424 c-148 -23 -254 -49 -243 -60 16 -15 199 -37 313 -37 125 0 245 19 268 42 5 5 -17 19 -50 31 -58 22 -215 35 -288 24z" id="112"/>
<path d="M2202 4353 c10 -63 58 -186 73 -187 16 -1 55 87 61 140 l6 49 -70 28 c-38 15 -72 27 -74 27 -3 0 -1 -25 4 -57z" id="113"/>
<path d="M5444 4359 c-23 -25 -65 -48 -119 -64 l-40 -12 40 -20 c62 -32 140 -46 219 -41 70 5 186 35 186 48 0 4 -24 10 -54 13 -55 5 -118 32 -172 73 -38 29 -36 29 -60 3z" id="114"/>
<path d="M5075 4351 c-3 -6 -38 -21 -78 -33 -102 -32 -325 -32 -476 1 -99 21 -151 22 -151 2 0 -19 174 -81 299 -106 107 -22 284 -17 351 10 62 25 125 68 125 85 0 19 -61 54 -70 41z" id="115"/>
<path d="M2363 4285 c-15 -87 -62 -165 -133 -221 -30 -24 -61 -44 -67 -44 -21 0 -14 -24 12 -43 25 -18 26 -18 53 1 103 74 193 219 196 315 1 49 -1 52 -24 55 -24 3 -26 -1 -37 -63z" id="116"/>
<path d="M2514 4343 l-50 -4 -11 -65 c-17 -100 -56 -169 -144 -256 -78 -78 -81 -88 -24 -88 18 0 32 14 59 58 20 32 83 125 141 206 58 81 105 149 105 152 0 2 -6 3 -12 2 -7 -1 -36 -3 -64 -5z" id="117"/>
<path d="M4292 4282 l-33 -18 143 -53 c264 -98 287 -104 418 -97 129 6 195 21 310 72 43 19 93 37 109 40 17 4 31 9 31 13 0 4 -20 17 -44 30 l-44 24 -41 -35 c-114 -97 -324 -119 -551 -57 -84 23 -195 65 -225 85 -25 18 -33 17 -73 -4z" id="118"/>
<path d="M6104 4222 c-47 -42 -54 -55 -74 -127 -12 -44 -34 -101 -48 -127 -64 -121 -203 -249 -329 -305 -34 -15 -63 -30 -63 -33 0 -4 28 -12 62 -19 89 -18 175 -55 237 -102 29 -22 57 -37 61 -32 16 17 119 262 148 353 17 52 38 133 46 180 21 106 32 260 20 260 -5 -1 -32 -22 -60 -48z" id="119"/>
<path d="M2520 4141 c-108 -155 -203 -306 -273 -435 -52 -95 -58 -112 -91 -281 -37 -185 -96 -547 -91 -553 7 -7 373 305 474 403 l104 102 6 101 c3 56 4 102 1 102 -3 0 -50 -39 -105 -86 -129 -110 -278 -224 -293 -224 -27 0 -13 39 131 381 100 236 230 586 224 602 -1 5 -41 -45 -87 -112z" id="120"/>
<path d="M3105 4226 c-19 -28 -62 -56 -109 -71 -17 -5 -18 -13 -13 -88 11 -161 68 -281 154 -319 44 -19 47 -19 84 -2 39 17 79 67 79 97 0 9 -15 45 -34 79 -37 69 -126 288 -126 312 0 27 -15 24 -35 -8z" id="121"/>
<path d="M2846 4222 c-23 -37 -105 -421 -121 -568 -6 -54 -5 -62 12 -66 29 -7 61 5 93 36 67 63 95 158 112 375 11 147 11 155 -7 165 -10 6 -33 24 -51 39 -18 15 -35 24 -38 19z" id="122"/>
<path d="M6210 4158 c0 -84 -31 -235 -75 -365 -25 -73 -45 -139 -45 -148 0 -33 76 -9 142 45 44 37 79 107 107 217 28 111 27 126 -11 156 -18 13 -49 50 -68 80 -19 31 -38 56 -42 57 -5 0 -8 -19 -8 -42z" id="123"/>
<path d="M2060 4123 c40 -72 55 -86 82 -80 30 8 100 62 91 71 -3 3 -21 6 -40 6 -18 0 -56 9 -85 20 -29 11 -57 20 -61 20 -5 0 1 -17 13 -37z" id="124"/>
<path d="M3580 4127 c0 -7 16 -46 35 -86 49 -102 159 -211 272 -269 137 -71 261 -93 411 -75 49 5 56 9 79 47 14 23 39 55 55 72 l29 31 -78 7 c-115 11 -273 43 -377 78 -107 35 -288 119 -369 171 -33 22 -57 32 -57 24z" id="125"/>
<path d="M4482 4106 c-19 -43 -33 -140 -24 -171 7 -24 14 -31 40 -33 l32 -3 0 63 c1 35 5 82 9 106 8 40 7 44 -16 53 -31 12 -28 13 -41 -15z" id="126"/>
<path d="M5935 4094 c-129 -90 -282 -158 -486 -218 -151 -44 -265 -67 -341 -68 -32 0 -58 -4 -58 -7 0 -3 27 -34 59 -68 73 -78 129 -98 271 -97 186 1 314 57 456 198 65 66 99 109 122 156 32 67 51 140 36 139 -5 0 -31 -16 -59 -35z" id="127"/>
<path d="M5061 4111 c-12 -7 -15 -38 -15 -140 -1 -115 1 -131 15 -131 9 0 21 6 27 13 25 30 23 255 -3 264 -5 1 -16 -1 -24 -6z" id="128"/>
<path d="M4585 4091 c-2 -4 -5 -52 -6 -106 -3 -113 12 -157 59 -177 15 -7 86 -12 165 -12 l139 -1 30 34 30 34 -4 108 c-2 59 -6 110 -9 113 -3 4 -30 2 -59 -4 -75 -14 -226 -12 -288 4 -29 7 -54 10 -57 7z" id="129"/>
<path d="M5170 4045 c0 -28 25 -44 42 -27 15 15 -1 52 -23 52 -14 0 -19 -7 -19 -25z" id="130"/>
<path d="M6393 3829 c5 -199 18 -267 63 -326 26 -34 79 -55 114 -46 15 4 20 14 20 37 0 49 -27 228 -56 374 -24 119 -29 132 -48 132 -12 0 -38 3 -60 7 l-39 6 6 -184z" id="131"/>
<path d="M2953 3844 c-11 -82 -42 -164 -90 -236 -15 -24 -16 -34 -5 -84 43 -206 206 -338 300 -244 17 16 37 51 46 77 23 66 31 234 14 297 -12 46 -15 50 -48 54 -73 8 -143 76 -177 172 -10 28 -20 50 -23 50 -3 0 -11 -39 -17 -86z" id="132"/>
<path d="M4496 3825 c-53 -36 -72 -59 -109 -135 -30 -61 -32 -72 -32 -175 0 -98 3 -116 27 -167 25 -54 110 -158 130 -158 5 0 -7 24 -27 53 -41 60 -75 161 -75 221 0 52 24 144 51 197 11 23 40 61 65 85 24 25 44 48 44 52 0 4 -8 17 -18 30 l-18 23 -38 -26z" id="133"/>
<path d="M6337 3793 c-22 -61 -82 -134 -143 -169 -31 -18 -44 -32 -44 -47 1 -46 30 -159 51 -197 54 -96 171 -84 234 24 l27 46 -30 34 c-37 42 -61 131 -70 261 l-8 100 -17 -52z" id="134"/>
<path d="M3305 3783 c-9 -16 -28 -37 -42 -49 -23 -20 -24 -23 -13 -65 21 -79 120 -193 192 -224 41 -16 125 -20 147 -6 11 7 -8 37 -88 136 -56 70 -118 151 -138 181 -20 30 -37 54 -38 54 -2 0 -10 -12 -20 -27z" id="135"/>
<path d="M6963 3781 c-71 -20 -93 -90 -48 -151 14 -19 25 -39 25 -46 0 -7 -63 -62 -140 -123 l-140 -111 0 -45 c0 -29 4 -45 13 -45 6 0 81 54 165 120 85 66 160 120 167 120 8 0 16 -8 19 -18 6 -19 65 -52 91 -52 22 0 82 57 89 85 8 33 -16 90 -45 106 -13 7 -41 11 -62 11 -34 -2 -37 0 -27 17 37 71 -30 154 -107 132z" id="136"/>
<path d="M4562 3720 c-23 -23 -54 -67 -69 -98 -23 -49 -27 -70 -28 -147 0 -79 3 -97 28 -148 38 -76 113 -151 184 -185 47 -22 73 -27 133 -27 94 0 166 32 234 105 61 65 86 124 93 213 10 131 -37 250 -119 304 -33 23 -40 24 -74 13 -37 -12 -260 -9 -315 5 -21 5 -33 -1 -67 -35z m203 -52 c25 -20 27 -26 22 -72 -5 -55 -4 -57 70 -139 32 -36 36 -38 68 -27 90 30 167 -105 89 -157 -13 -8 -33 -13 -43 -10 -15 3 -22 -4 -34 -34 -13 -32 -20 -39 -42 -39 -75 0 -130 83 -91 136 14 17 10 24 -42 77 -60 60 -72 66 -92 42 -19 -23 -68 -18 -95 10 -43 42 -26 106 30 117 12 2 20 12 21 23 2 39 16 65 42 80 38 20 65 18 97 -7z" id="137"/>
<path d="M4670 3628 c-13 -21 -18 -42 -15 -59 5 -23 3 -25 -23 -21 -56 8 -73 -64 -20 -82 23 -8 32 -6 52 13 l25 24 48 -41 c26 -22 64 -56 83 -76 34 -36 34 -36 17 -65 -22 -37 -21 -54 1 -74 38 -35 82 -12 82 43 0 19 4 21 30 15 38 -8 60 8 60 45 0 45 -42 67 -85 44 -15 -8 -31 -14 -35 -14 -4 0 -38 36 -75 81 -66 78 -68 82 -57 112 16 41 -3 81 -40 85 -22 3 -32 -3 -48 -30z" id="138"/>
<path d="M3634 3740 c-108 -12 -154 -21 -154 -30 0 -18 124 -119 183 -149 169 -85 403 -77 596 21 48 24 67 40 74 61 5 16 7 30 5 33 -3 2 -31 -1 -64 -7 -89 -17 -192 -4 -313 38 -116 39 -198 48 -327 33z" id="139"/>
<path d="M5170 3633 c0 -6 4 -23 9 -39 5 -16 12 -50 16 -76 4 -31 11 -48 20 -48 7 0 92 -31 187 -70 197 -79 251 -92 374 -88 l87 3 34 60 33 60 -35 31 c-49 44 -145 89 -245 115 -67 18 -109 22 -198 21 -102 -2 -211 12 -264 33 -10 4 -18 3 -18 -2z" id="140"/>
<path d="M5987 3452 c-64 -130 -77 -165 -77 -205 0 -99 56 -167 138 -167 58 0 101 25 143 82 32 45 73 118 67 122 -2 1 -17 12 -34 24 -45 31 -84 125 -91 218 -5 62 -9 74 -24 74 -9 0 -23 2 -31 4 -8 3 -39 -49 -91 -152z" id="141"/>
<path d="M3641 3478 c43 -57 83 -103 87 -102 4 0 47 20 96 44 l90 44 -77 12 c-96 15 -155 35 -218 74 -27 16 -51 30 -54 30 -2 0 32 -46 76 -102z" id="142"/>
<path d="M2760 3561 l-45 -6 1 -260 0 -260 31 -65 c55 -119 106 -149 182 -109 38 20 52 36 79 90 58 113 54 262 -8 294 -70 36 -142 153 -163 266 -6 32 -16 58 -22 57 -5 0 -30 -4 -55 -7z" id="143"/>
<path d="M3260 3535 c0 -69 -20 -168 -45 -222 -25 -56 -58 -83 -111 -92 l-35 -6 51 -75 c29 -41 63 -87 78 -103 37 -39 101 -67 154 -67 62 0 105 31 142 103 25 48 30 72 34 154 2 54 0 113 -5 132 -8 30 -15 35 -55 46 -59 15 -120 56 -160 109 -17 23 -35 45 -40 51 -4 5 -8 -9 -8 -30z" id="144"/>
<path d="M4270 3551 c-35 -19 -159 -58 -255 -80 -62 -15 -254 -107 -261 -125 -3 -8 16 -46 41 -86 l47 -73 66 5 c85 7 178 38 265 90 87 51 162 121 153 143 -3 9 -6 46 -6 81 0 35 -3 64 -7 64 -5 -1 -24 -9 -43 -19z" id="145"/>
<path d="M2078 3374 c-31 -66 -77 -177 -103 -249 l-47 -130 16 -235 c9 -129 16 -281 16 -337 0 -56 3 -104 8 -106 11 -6 509 522 602 638 l79 100 1 76 c0 42 -3 104 -6 137 l-7 62 -91 -87 c-144 -138 -496 -427 -506 -417 -11 11 28 283 71 498 16 82 28 154 26 159 -1 5 -28 -44 -59 -109z" id="146"/>
<path d="M5182 3354 l-21 -87 53 -61 c29 -33 76 -93 105 -133 60 -83 121 -140 198 -184 63 -36 66 -35 119 53 l36 59 -17 42 c-27 69 -123 184 -212 255 -78 63 -205 142 -229 142 -6 0 -20 -39 -32 -86z" id="147"/>
<path d="M6465 3393 c-26 -48 -77 -90 -125 -103 -36 -10 -40 -14 -40 -43 0 -55 30 -160 55 -199 14 -21 44 -47 66 -59 49 -24 124 -29 144 -8 16 16 38 265 33 372 l-3 68 -56 4 c-54 3 -56 2 -74 -32z" id="148"/>
<path d="M3593 3410 c-29 -12 -29 -13 6 -63 44 -64 154 -158 168 -144 6 6 -137 217 -146 216 -3 0 -16 -4 -28 -9z" id="149"/>
<path d="M4325 3360 c-3 -6 -39 -36 -78 -67 -115 -91 -217 -184 -263 -241 l-43 -52 42 -90 c23 -49 48 -90 56 -90 7 0 45 17 85 37 98 52 229 183 279 279 l37 72 -31 38 c-18 22 -40 58 -51 82 -20 45 -23 48 -33 32z" id="150"/>
<path d="M5508 3285 c72 -66 172 -195 172 -221 0 -39 26 -12 89 93 l71 118 -113 6 c-106 6 -140 14 -272 64 -11 4 13 -23 53 -60z" id="151"/>
<path d="M3603 3280 c3 -8 37 -87 75 -175 224 -516 314 -900 316 -1348 l1 -207 18 41 c63 149 100 355 100 564 1 194 -18 308 -73 450 -21 55 -56 150 -78 210 -21 61 -62 156 -90 212 -48 95 -55 103 -111 137 -33 20 -83 58 -112 84 -29 26 -50 40 -46 32z" id="152"/>
<path d="M3557 3181 c-11 -104 -60 -191 -129 -227 -45 -23 -118 -18 -182 14 -31 16 -56 27 -56 26 0 -2 35 -66 79 -141 172 -301 217 -401 245 -536 23 -110 20 -222 -9 -362 -34 -160 -40 -236 -26 -323 31 -198 148 -408 255 -458 62 -29 96 -30 128 -4 42 32 61 94 59 188 -4 155 -39 252 -161 442 -192 300 -218 413 -181 811 24 255 26 357 10 495 -14 132 -24 154 -32 75z" id="153"/>
<path d="M5074 3170 l-61 -65 14 -60 c7 -33 24 -114 39 -180 50 -236 154 -493 228 -564 l35 -34 16 59 c28 100 77 246 101 301 l23 52 -34 84 c-18 47 -51 120 -73 163 -50 99 -185 289 -217 305 -6 3 -37 -25 -71 -61z" id="154"/>
<path d="M5857 3115 c-14 -224 -63 -377 -220 -691 -142 -283 -206 -455 -256 -685 -29 -138 -35 -215 -21 -284 14 -68 13 -69 55 65 57 180 130 303 290 490 135 158 188 242 215 345 16 63 11 227 -11 380 -11 77 -22 216 -26 308 -3 92 -9 170 -13 172 -4 2 -10 -43 -13 -100z" id="155"/>
<path d="M4022 3184 c-24 -7 -70 -16 -103 -20 -32 -4 -59 -8 -59 -10 0 -4 60 -114 66 -123 2 -2 15 12 30 30 15 19 52 58 82 87 56 54 55 59 -16 36z" id="156"/>
<path d="M3614 3155 c18 -111 17 -327 -3 -561 -34 -392 -13 -479 181 -781 87 -136 111 -185 138 -277 l18 -61 7 37 c13 66 -1 533 -19 648 -44 271 -125 550 -251 862 -36 89 -69 165 -72 168 -3 3 -3 -13 1 -35z" id="157"/>
<path d="M6228 3164 c-22 -40 -91 -102 -123 -110 -50 -12 -122 2 -161 31 l-37 28 7 -108 c4 -59 16 -176 27 -259 15 -109 20 -188 17 -283 l-4 -131 70 126 c121 222 177 379 211 598 19 122 17 154 -7 108z" id="158"/>
<path d="M4407 3063 c-109 -230 -176 -433 -195 -593 -16 -138 12 -403 45 -427 31 -24 50 -13 110 62 115 145 210 345 238 499 8 44 26 142 40 217 14 74 28 163 31 196 l7 61 -50 16 c-27 9 -74 32 -104 51 -30 19 -57 35 -60 35 -3 0 -31 -53 -62 -117z" id="159"/>
<path d="M5797 3113 c-186 -295 -326 -578 -391 -789 -64 -208 -76 -274 -83 -461 -7 -205 1 -231 32 -96 48 208 132 433 245 657 112 220 146 301 180 426 22 82 55 289 47 297 -3 3 -16 -12 -30 -34z" id="160"/>
<path d="M6277 3090 c-3 -14 -15 -74 -27 -134 -33 -171 -64 -252 -206 -531 -227 -448 -310 -714 -275 -890 9 -44 8 -44 40 60 47 149 108 245 303 477 49 56 103 132 122 168 81 155 115 354 96 569 -13 156 -44 317 -53 281z" id="161"/>
<path d="M4920 3074 c-21 -8 -70 -13 -120 -12 l-85 1 -12 -114 c-7 -63 -25 -175 -40 -249 -54 -270 -28 -502 79 -713 26 -52 33 -57 83 -57 53 0 59 5 93 75 77 155 97 283 97 610 0 198 -4 273 -19 363 -11 67 -23 112 -30 111 -6 -1 -27 -7 -46 -15z" id="162"/>
<path d="M3061 3003 c-46 -175 -209 -248 -292 -131 -12 16 -23 27 -26 25 -7 -8 35 -199 73 -329 35 -122 152 -433 160 -425 3 2 -1 28 -7 57 -21 100 -7 228 44 385 25 77 50 166 56 197 29 158 23 335 -8 221z" id="163"/>
<path d="M6344 2980 c16 -86 28 -241 24 -327 -2 -51 -1 -93 2 -93 3 0 18 23 34 51 15 28 50 80 77 115 62 82 66 90 74 144 3 25 7 49 8 54 1 5 -23 10 -54 11 -58 3 -107 22 -148 59 l-24 21 7 -35z" id="164"/>
<path d="M2650 2966 c0 -40 -48 -307 -90 -505 -22 -101 -40 -187 -40 -192 0 -4 37 30 83 74 45 45 103 93 128 106 l45 24 -27 97 c-33 119 -67 281 -76 360 -6 58 -23 85 -23 36z" id="165"/>
<path d="M3116 2915 c-10 -118 -30 -204 -77 -350 -41 -124 -43 -136 -43 -250 0 -105 4 -131 28 -205 16 -47 42 -112 58 -145 44 -87 280 -414 264 -365 -2 8 -18 56 -35 106 -61 184 -69 247 -101 784 -10 166 -39 347 -74 460 l-14 45 -6 -80z" id="166"/>
<path d="M4270 2929 c-63 -57 -182 -129 -214 -129 -20 0 -20 0 8 -80 14 -37 41 -125 61 -196 20 -71 40 -133 44 -137 5 -4 11 27 14 70 8 105 56 284 111 417 25 61 44 111 43 112 -1 1 -31 -25 -67 -57z" id="167"/>
<path d="M2565 2903 c-71 -90 -592 -637 -611 -641 -10 -3 -14 9 -14 45 0 80 -19 454 -26 523 -9 87 -16 63 -49 -165 -14 -99 -39 -235 -55 -303 -21 -85 -30 -149 -30 -205 0 -89 20 -389 27 -396 11 -13 289 288 569 615 l181 210 37 193 c21 106 36 194 34 196 -2 2 -30 -30 -63 -72z" id="168"/>
<path d="M3160 2969 c0 -2 11 -49 25 -104 34 -134 52 -288 65 -555 11 -240 27 -376 61 -504 22 -86 74 -226 109 -297 28 -55 111 -181 116 -176 2 2 -10 36 -27 75 -75 179 -87 320 -44 518 66 304 37 446 -167 811 -104 186 -138 244 -138 232z" id="169"/>
<path d="M5400 2927 c0 -2 13 -33 29 -68 16 -35 37 -82 46 -104 l16 -39 35 59 c20 33 32 61 28 62 -13 5 -105 60 -131 79 -13 9 -23 14 -23 11z" id="170"/>
<path d="M5053 2609 c-2 -273 -31 -446 -98 -588 -20 -41 -33 -76 -30 -80 8 -7 191 24 275 47 63 17 65 18 74 57 4 22 16 73 26 114 l17 73 -43 44 c-53 55 -131 210 -174 346 -18 57 -35 111 -39 122 -4 10 -8 -51 -8 -135z" id="171"/>
<path d="M6453 2628 c-33 -51 -66 -104 -73 -117 -27 -52 -61 -172 -96 -335 -20 -94 -49 -213 -66 -264 -16 -52 -28 -96 -25 -98 4 -4 82 177 147 341 72 181 188 550 177 561 -2 3 -31 -37 -64 -88z" id="172"/>
<path d="M2512 2501 c-12 -17 -69 -87 -126 -155 l-104 -125 -6 -73 c-21 -262 -28 -337 -33 -370 -3 -21 -3 -38 0 -38 13 0 77 130 112 227 20 57 55 133 77 169 34 56 46 92 75 222 18 86 32 160 31 164 -2 5 -14 -5 -26 -21z" id="173"/>
<path d="M4565 2383 c-47 -110 -95 -190 -167 -280 -38 -46 -68 -86 -68 -88 0 -18 271 -75 357 -75 l42 0 -34 74 c-46 98 -74 205 -88 332 l-12 105 -30 -68z" id="174"/>
<path d="M6230 2171 c-6 -12 -68 -90 -138 -174 -70 -83 -142 -175 -160 -204 -75 -116 -151 -349 -137 -416 16 -72 117 -209 143 -193 5 3 15 34 21 68 19 97 56 215 117 365 79 195 128 343 154 461 22 102 22 133 0 93z" id="175"/>
<path d="M2154 2078 c-132 -152 -345 -368 -360 -368 -18 0 -22 22 -29 170 -4 69 -10 152 -13 185 l-7 60 -24 -70 c-13 -38 -47 -134 -77 -212 l-53 -142 15 -58 c20 -77 95 -306 104 -316 7 -8 329 330 408 430 104 131 109 144 122 286 7 71 10 130 8 132 -2 3 -44 -41 -94 -97z" id="176"/>
<path d="M5853 2140 c-7 -10 -54 -67 -104 -126 -140 -162 -185 -227 -238 -337 -94 -194 -131 -350 -97 -402 22 -33 73 -33 141 -1 113 52 164 152 175 341 4 66 17 157 29 203 22 86 90 283 110 321 15 26 0 28 -16 1z" id="177"/>
<path d="M4147 2120 c-3 -14 -8 -63 -11 -110 -6 -112 -30 -223 -71 -340 -18 -52 -47 -133 -63 -180 -24 -68 -31 -105 -34 -184 -2 -70 1 -100 9 -103 15 -5 88 118 125 213 52 135 71 256 70 454 0 177 -13 301 -25 250z" id="178"/>
<path d="M4565 1767 c82 -86 150 -157 151 -157 2 0 144 251 144 255 0 1 -52 5 -114 9 -106 6 -227 23 -301 42 -25 6 -4 -20 120 -149z" id="179"/>
<path d="M4400 1889 c0 -4 11 -32 25 -62 45 -102 85 -300 85 -420 l0 -51 48 46 c26 26 60 52 75 57 24 9 29 8 36 -12 14 -34 130 -137 156 -137 3 0 5 17 5 39 0 43 18 65 45 54 15 -5 17 -3 10 13 -42 102 -58 165 -59 236 -1 43 -2 78 -3 78 -1 0 -20 -31 -42 -68 -61 -104 -58 -104 -137 -20 -143 151 -244 253 -244 247z" id="180"/>
<path d="M2197 1820 c-52 -87 -464 -540 -492 -540 -11 0 -125 328 -125 361 0 44 -71 -131 -124 -304 -33 -108 -33 -113 3 -88 48 34 113 61 151 61 32 0 37 -4 53 -43 10 -24 33 -58 51 -76 l34 -33 12 76 c20 119 24 120 100 21 36 -46 69 -83 74 -82 4 2 20 39 35 82 36 106 99 230 169 332 81 119 83 124 80 199 l-3 65 -18 -31z" id="181"/>
<path d="M2721 1837 c-53 -31 -64 -90 -26 -135 l25 -30 -35 -6 c-61 -12 -95 -89 -65 -147 14 -25 62 -49 98 -49 29 0 68 34 97 85 10 16 25 13 210 -53 110 -39 208 -74 218 -78 17 -6 16 -1 -6 43 -14 27 -32 55 -40 61 -8 7 -66 30 -128 52 -63 23 -138 50 -168 62 -53 21 -53 21 -46 57 4 20 9 48 12 62 11 60 -86 110 -146 76z" id="182"/>
<path d="M3111 1837 c-1 -11 84 -179 127 -249 51 -83 153 -303 187 -403 16 -44 31 -84 35 -88 4 -4 15 3 24 17 21 32 42 33 71 2 37 -40 125 -57 180 -36 l27 10 -52 41 c-123 97 -208 191 -378 420 -98 129 -187 249 -199 265 -12 16 -22 26 -22 21z" id="183"/>
<path d="M4598 1373 c-19 -21 -56 -67 -82 -103 -42 -59 -46 -69 -46 -123 l0 -59 60 55 c89 83 145 87 243 17 30 -22 61 -40 68 -40 6 0 31 18 55 40 48 44 87 58 109 40 22 -18 18 2 -8 41 -19 28 -87 78 -108 79 -4 0 -6 -17 -5 -37 1 -47 -18 -53 -79 -23 -53 25 -141 103 -150 130 -9 28 -16 25 -57 -17z" id="184"/>
<path d="M5706 1322 c-48 -76 -146 -131 -234 -132 -29 0 -61 4 -71 10 -16 8 -21 1 -40 -57 -12 -36 -46 -119 -76 -184 -30 -65 -55 -123 -55 -129 0 -6 23 12 51 40 27 27 68 59 89 70 78 40 161 18 211 -55 13 -19 27 -35 31 -35 4 0 14 12 22 28 31 60 103 102 174 102 57 0 153 -52 207 -112 25 -28 47 -49 49 -47 2 2 10 18 19 34 22 43 84 104 113 111 25 6 24 9 -49 83 -41 42 -86 94 -100 115 l-26 39 -20 -45 c-23 -54 -36 -61 -76 -40 -79 40 -135 102 -171 190 l-22 55 -26 -41z" id="185"/>
<path d="M1540 1239 c-102 -55 -129 -85 -150 -169 -11 -41 -20 -79 -20 -84 0 -5 22 12 49 37 82 77 144 72 241 -19 l51 -48 29 36 c16 20 38 38 49 41 31 8 77 -21 127 -79 45 -53 74 -71 58 -36 -4 9 -15 51 -23 92 -14 61 -23 82 -52 110 -19 19 -49 53 -67 75 l-33 40 3 -70 c3 -69 3 -70 -23 -73 -34 -4 -120 72 -149 133 -12 25 -25 45 -28 45 -4 0 -32 -14 -62 -31z" id="186"/>
<path d="M4577 1150 c-25 -16 -60 -48 -78 -72 -29 -40 -31 -47 -25 -106 8 -88 16 -100 45 -62 19 26 28 31 59 28 28 -2 41 -10 58 -36 l22 -33 16 23 c9 12 16 40 16 61 0 54 19 43 42 -22 27 -82 38 -90 60 -47 24 47 60 57 93 26 13 -12 26 -33 30 -47 12 -49 30 -5 35 85 5 87 5 87 23 61 9 -14 21 -53 26 -85 5 -33 9 -46 10 -29 2 58 48 94 79 63 21 -21 26 1 12 59 -10 45 -22 67 -63 110 -27 29 -56 53 -63 53 -7 0 -36 -20 -64 -45 -28 -25 -60 -45 -70 -45 -11 0 -47 20 -81 45 -76 56 -113 59 -182 15z" id="187"/>
<path d="M4005 1151 c-8 -27 -35 -34 -55 -16 -16 15 -19 14 -39 -14 -31 -43 -105 -88 -168 -102 -66 -15 -147 -2 -193 31 -34 25 -43 22 -60 -20 -7 -16 -20 -30 -29 -30 -16 0 -117 -137 -108 -146 2 -3 27 9 54 26 59 37 116 48 139 29 9 -7 30 -37 46 -67 l30 -53 58 55 c97 92 132 89 242 -24 l77 -79 30 53 c16 29 50 71 76 94 l47 41 -30 43 c-36 53 -77 134 -86 171 -7 31 -22 35 -31 8z" id="188"/>
<path d="M1435 999 c-81 -77 -98 -120 -99 -248 0 -82 4 -115 18 -146 l19 -40 9 39 c11 51 34 76 69 76 54 0 96 -77 85 -156 -6 -49 -7 -48 29 -32 25 11 25 12 25 130 0 65 4 118 9 118 14 0 31 -93 31 -168 0 -65 10 -92 35 -92 6 0 9 23 7 60 -4 55 -2 62 26 90 34 34 50 36 91 15 36 -18 63 -74 64 -131 0 -24 3 -44 7 -44 3 0 19 13 35 30 31 32 31 12 0 200 l-6 35 20 -35 c11 -19 28 -60 37 -90 15 -51 28 -69 46 -70 4 0 0 16 -8 36 -18 43 -15 93 7 107 42 26 109 -33 109 -95 0 -35 17 -36 26 -3 10 42 -3 81 -58 168 -65 103 -77 117 -99 117 -10 0 -39 25 -66 55 -85 99 -109 102 -159 23 l-26 -41 -56 55 c-113 109 -145 115 -227 37z" id="189"/>
<path d="M5724 931 c-34 -21 -74 -67 -74 -85 0 -7 -6 -21 -14 -32 -14 -18 -18 -16 -78 49 -57 60 -67 67 -102 67 -21 0 -54 -7 -73 -17 -41 -19 -158 -134 -180 -176 -20 -39 -29 -200 -14 -255 7 -23 26 -58 43 -78 l32 -36 12 42 c15 50 37 76 71 85 52 13 99 -25 112 -89 l6 -29 33 28 c44 37 60 72 67 142 9 86 14 103 30 103 15 0 20 -14 30 -95 9 -66 42 -141 73 -165 33 -27 38 -25 46 11 9 46 57 89 99 89 27 0 41 -7 61 -31 14 -17 26 -41 26 -54 0 -35 14 -38 43 -7 50 52 71 118 69 214 -1 48 3 90 8 93 5 3 17 -6 27 -21 19 -30 24 -131 9 -196 -8 -38 -8 -38 35 -58 24 -11 62 -20 84 -20 l41 0 -4 38 c-8 83 83 128 135 68 13 -16 27 -25 31 -21 15 15 14 154 -2 208 -23 80 -108 204 -153 222 -20 9 -44 13 -54 10 -27 -9 -96 -92 -109 -131 -15 -43 -33 -43 -59 0 -72 116 -223 179 -307 127z" id="190"/>
<path d="M5044 906 c-7 -28 12 -69 29 -63 17 5 21 68 5 78 -21 14 -27 11 -34 -15z" id="191"/>
<path d="M4545 877 c-13 -21 -13 -27 5 -62 27 -53 36 -61 48 -39 22 42 24 85 6 105 -23 25 -40 24 -59 -4z" id="192"/>
<path d="M3432 863 c-84 -45 -142 -101 -171 -162 -23 -50 -26 -68 -26 -171 0 -89 4 -122 17 -145 15 -27 17 -28 23 -10 14 44 32 70 58 85 24 13 30 13 54 0 42 -24 64 -62 70 -123 3 -31 10 -57 15 -57 5 0 27 17 49 38 37 35 39 39 29 72 -21 73 -4 217 26 227 8 3 13 -29 15 -104 4 -94 8 -116 32 -165 16 -32 41 -67 57 -78 35 -25 44 -25 30 -1 -27 52 1 152 52 180 24 14 30 14 61 -1 44 -21 67 -70 67 -142 l0 -57 28 15 c67 35 103 103 91 174 -9 52 -1 148 11 135 4 -4 17 -42 30 -83 28 -95 48 -138 70 -150 16 -9 18 -6 13 29 -11 78 62 148 127 121 26 -11 34 -24 55 -85 6 -18 8 -18 23 10 12 21 17 55 17 115 0 79 -3 92 -37 160 -43 86 -131 200 -155 200 -35 0 -106 -92 -143 -185 l-12 -30 -25 30 c-126 152 -163 182 -211 170 -13 -3 -53 -33 -87 -66 -34 -32 -64 -59 -68 -59 -3 0 -25 32 -47 70 -48 81 -59 85 -138 43z" id="193"/>
<path d="M4821 858 c-6 -16 -3 -34 10 -60 11 -21 22 -38 25 -38 3 0 11 15 19 32 11 28 11 37 -1 60 -18 34 -42 36 -53 6z" id="194"/>
<path d="M2010 628 c0 -39 48 -158 63 -158 14 0 0 87 -21 129 -17 36 -42 53 -42 29z" id="195"/>
<path d="M1431 595 c-10 -37 -8 -52 16 -127 13 -42 32 -64 34 -40 9 102 9 134 -5 166 -19 45 -32 46 -45 1z" id="196"/>
<path d="M1726 584 c-17 -45 1 -157 33 -201 22 -30 25 -29 40 13 15 42 7 133 -15 176 -16 31 -48 37 -58 12z" id="197"/>
<path d="M6296 484 c-20 -20 -20 -47 0 -102 19 -48 31 -49 57 -4 16 27 17 37 7 67 -15 44 -42 61 -64 39z" id="198"/>
<path d="M5339 429 c-25 -25 -21 -61 13 -114 38 -58 58 -43 58 44 0 45 -21 91 -41 91 -5 0 -18 -9 -30 -21z" id="199"/>
<path d="M4197 422 c-10 -10 -17 -34 -17 -53 0 -33 32 -99 48 -99 16 0 42 71 36 98 -3 15 -7 37 -10 50 -5 27 -34 29 -57 4z" id="200"/>
<path d="M5803 428 c-29 -37 -34 -58 -19 -85 19 -38 52 -67 66 -58 21 13 41 74 34 103 -9 38 -23 52 -49 52 -12 0 -27 -6 -32 -12z" id="201"/>
<path d="M3330 391 c-18 -35 -11 -85 20 -134 31 -50 41 -55 59 -34 11 14 -1 119 -19 165 -12 27 -46 29 -60 3z" id="202"/>
<path d="M3762 375 c-22 -47 -15 -98 19 -143 17 -24 36 -41 42 -39 18 6 20 143 2 177 -19 37 -48 39 -63 5z" id="203"/>
<path d="M1310 7509 c-59 -24 -74 -66 -49 -138 7 -21 8 -36 2 -42 -10 -10 -636 -239 -654 -239 -5 0 -18 20 -29 44 -24 57 -58 80 -104 72 -43 -8 -86 -57 -86 -96 0 -41 44 -90 81 -90 34 0 37 -10 9 -35 -32 -29 -27 -89 9 -126 34 -33 75 -38 121 -14 36 19 54 75 41 123 -9 31 -8 33 26 47 114 48 616 224 624 220 5 -4 9 -12 9 -19 0 -21 40 -67 67 -77 35 -13 100 16 119 54 30 57 -10 137 -68 137 -33 0 -34 4 -8 37 39 49 17 122 -42 142 -36 13 -35 13 -68 0z" id="204"/>
<path d="M1413 5900 c-50 -21 -72 -102 -39 -139 20 -22 20 -35 0 -27 -29 11 -84 -21 -100 -59 -23 -56 0 -105 64 -132 28 -12 36 -11 62 2 16 8 40 29 52 45 12 17 25 30 30 30 4 0 143 -70 308 -156 228 -119 300 -160 300 -174 0 -11 -4 -22 -10 -25 -5 -3 -10 -25 -10 -49 0 -31 6 -48 23 -64 52 -49 138 -36 163 24 19 45 18 67 -7 97 l-20 26 36 -1 c98 -4 125 131 35 177 -57 29 -87 16 -133 -57 -10 -16 -24 -28 -32 -28 -17 0 -584 295 -603 314 -12 11 -11 22 4 63 20 57 14 96 -19 118 -31 20 -77 27 -104 15z" id="205"/>
<path d="M7949 5707 c-46 -31 -52 -83 -15 -136 14 -20 26 -40 26 -44 0 -12 -546 -417 -563 -417 -8 0 -24 10 -34 23 -26 33 -64 57 -89 57 -32 0 -81 -45 -89 -81 -15 -66 43 -128 107 -114 29 7 29 6 17 -16 -43 -81 39 -171 123 -136 18 8 40 22 48 32 20 24 17 85 -6 124 -12 21 -15 34 -9 39 6 4 129 96 273 205 144 108 268 197 276 197 7 0 21 -11 29 -24 24 -37 78 -51 116 -31 67 34 79 109 26 162 -31 31 -39 34 -70 29 -33 -7 -48 5 -25 19 6 3 10 22 10 41 0 26 -8 44 -29 65 -36 36 -75 38 -122 6z" id="206"/>
<path d="M634 3300 c-53 -21 -73 -77 -49 -134 7 -16 6 -17 -15 -6 -12 7 -36 9 -54 6 -80 -15 -108 -107 -51 -166 26 -28 35 -31 71 -27 23 2 55 15 73 28 l32 23 244 -244 c135 -135 245 -248 245 -252 0 -4 -11 -18 -25 -32 -35 -35 -35 -94 1 -129 52 -52 120 -42 157 21 17 28 18 39 9 69 -9 31 -9 34 6 27 37 -17 84 -8 109 20 33 39 31 87 -8 131 -41 46 -74 46 -129 0 -24 -20 -46 -34 -50 -33 -14 5 -482 463 -491 479 -6 12 0 27 21 55 51 63 51 108 2 142 -35 24 -71 32 -98 22z" id="207"/>
<path d="M7473 1758 c-31 -15 -46 -58 -38 -111 4 -25 3 -47 -3 -50 -15 -10 -675 -118 -688 -113 -7 2 -15 24 -19 47 -4 24 -18 53 -32 67 -21 20 -31 24 -65 19 -58 -8 -93 -45 -93 -98 0 -33 6 -46 28 -65 16 -13 38 -24 50 -24 20 0 19 -3 -10 -26 -29 -22 -33 -31 -33 -74 0 -42 4 -52 31 -74 55 -46 128 -29 154 36 8 21 13 49 9 62 -3 13 -1 27 6 31 14 9 625 115 662 115 24 0 28 -4 28 -29 0 -18 11 -41 30 -61 27 -29 35 -32 71 -27 76 10 114 73 85 140 -10 25 -24 39 -49 47 l-34 13 29 26 c84 75 -16 199 -119 149z" id="208"/>
<path d="M2230 8380 c-85 -66 -159 -120 -164 -120 -5 0 -28 18 -52 40 -55 50 -84 52 -130 6 -43 -43 -46 -91 -10 -133 20 -23 32 -28 70 -27 40 1 44 -1 36 -17 -31 -57 14 -139 76 -139 43 0 90 23 105 51 13 24 4 83 -17 113 -8 11 -14 24 -14 28 0 5 123 104 379 305 13 10 3 12 -54 13 l-70 0 -155 -120z" id="209"/>
<path d="M7990 8113 c-58 -21 -82 -86 -51 -138 l20 -34 -29 6 c-25 4 -36 -1 -65 -30 -37 -37 -44 -70 -24 -110 18 -36 52 -57 92 -57 30 0 44 7 77 41 l40 41 172 -92 c95 -51 197 -106 226 -122 l53 -30 -3 52 -3 52 -202 110 c-218 118 -221 121 -188 178 31 54 13 99 -48 125 -39 16 -43 17 -67 8z" id="210"/>
<path d="M474 5258 c-33 -15 -45 -52 -38 -114 4 -29 5 -54 3 -54 -2 0 -101 -22 -219 -48 l-215 -48 -3 -47 c-2 -35 0 -46 10 -42 45 16 434 95 445 91 7 -3 13 -14 13 -26 0 -11 13 -34 29 -52 23 -26 36 -32 66 -31 80 2 127 79 88 144 -11 19 -32 38 -49 44 -40 13 -41 13 -15 31 33 23 44 60 30 101 -17 53 -89 79 -145 51z" id="211"/>
<path d="M8121 2756 c-50 -28 -64 -87 -31 -129 25 -32 26 -32 -10 -33 -128 -5 -118 -194 11 -194 33 0 43 6 75 44 l37 45 149 -75 148 -74 0 50 0 50 -130 65 c-71 36 -130 71 -130 77 0 7 7 31 16 55 21 54 12 88 -29 113 -37 23 -72 25 -106 6z" id="212"/>
<path d="M0 742 l0 -48 253 -101 c235 -94 252 -103 249 -125 -6 -49 -3 -98 7 -117 14 -25 73 -44 111 -36 65 14 92 104 49 159 l-20 26 26 0 c39 0 65 18 81 56 12 29 12 39 0 68 -15 37 -59 66 -99 66 -29 0 -63 -31 -82 -75 -10 -24 -20 -35 -35 -35 -12 0 -114 38 -228 84 -114 46 -231 94 -259 105 l-53 21 0 -48z" id="213"/>
<path d="M7568 402 c-40 -37 -42 -77 -5 -126 15 -19 27 -41 27 -49 0 -8 -56 -61 -124 -118 l-125 -104 65 -3 65 -3 90 76 c50 41 94 75 99 75 4 0 15 -11 23 -24 24 -37 78 -51 116 -31 34 17 61 61 61 97 0 55 -66 104 -119 88 -29 -8 -43 1 -21 15 6 3 10 23 10 44 0 83 -97 121 -162 63z" id="214"/>
</g>
</svg>