<?xml version="1.0" ?><!DOCTYPE svg  PUBLIC '-//W3C//DTD SVG 20010904//EN'  'http://www.w3.org/TR/2001/REC-SVG-20010904/DTD/svg10.dtd'><svg height="850.000000pt" preserveAspectRatio="xMidYMid meet" version="1.0" viewBox="0 0 850.000000 850.000000" width="850.000000pt" xmlns="http://www.w3.org/2000/svg">
<metadata>
Created by potrace 1.14, written by Peter Selinger 2001-2017
</metadata>
<g fill="#ffffff" stroke="none" transform="translate(0.000000,850.000000) scale(0.100000,-0.100000)">
<path d="M0 4250 l0 -4250 1676 0 c1595 0 1676 1 1663 18 -8 9 -35 42 -60 72 -70 83 -79 107 -88 235 -8 120 -19 150 -66 181 -36 24 -79 14 -171 -40 -95 -54 -154 -70 -238 -64 -94 8 -161 43 -261 137 -151 143 -216 157 -340 77 -72 -47 -113 -61 -176 -60 -75 1 -126 31 -207 122 l-62 71 32 24 c46 35 127 73 169 81 22 4 64 -1 115 -14 128 -34 243 -10 353 73 80 59 161 82 273 75 48 -4 106 -15 138 -27 30 -11 59 -21 64 -21 14 0 -4 138 -25 195 -29 79 -97 133 -189 150 -19 4 -92 22 -161 41 -69 19 -135 34 -145 34 -11 0 -27 -13 -37 -28 -51 -88 -132 -132 -294 -161 -170 -31 -195 -48 -270 -193 -25 -48 -51 -88 -59 -88 -7 0 -21 15 -31 33 -26 49 -26 389 1 465 10 29 16 56 12 59 -3 3 -21 2 -41 -1 -27 -5 -54 -24 -98 -69 -56 -57 -71 -66 -158 -95 -52 -18 -121 -48 -153 -67 -51 -31 -55 -32 -45 -12 21 40 110 170 162 237 140 180 204 234 322 269 43 13 85 34 107 54 l37 32 -14 95 c-19 120 -19 187 -1 238 l14 40 -61 11 c-72 14 -112 5 -163 -34 -51 -39 -74 -92 -74 -172 0 -37 -4 -73 -8 -80 -12 -20 -71 -40 -167 -58 -180 -33 -243 -82 -274 -210 -17 -71 -53 -118 -130 -169 -90 -62 -228 -123 -243 -108 -19 19 -11 67 20 115 25 39 31 61 37 138 7 98 8 100 87 294 65 159 109 239 183 330 31 39 84 124 117 190 33 66 71 135 85 153 29 38 25 51 -9 28 -32 -23 -57 -20 -131 15 -58 27 -70 29 -104 20 -21 -6 -68 -31 -103 -57 -86 -61 -156 -94 -203 -94 -21 0 -69 13 -105 29 -37 16 -94 32 -127 36 -33 4 -81 16 -107 27 -28 12 -59 18 -75 15 -38 -7 -53 1 -53 29 0 50 88 78 170 54 53 -15 103 3 142 51 76 94 102 120 152 144 90 44 286 105 421 131 72 14 140 27 153 30 35 7 19 19 -59 44 l-72 24 -61 -22 c-117 -42 -168 -27 -242 70 -26 35 -64 79 -85 98 -42 40 -69 115 -72 203 -3 90 32 108 121 63 51 -25 197 -41 239 -25 11 4 32 26 44 49 29 50 63 70 122 70 48 0 57 9 57 56 0 14 4 33 9 42 8 16 -2 17 -117 17 -116 0 -131 2 -176 25 -39 20 -55 36 -76 75 -17 34 -41 60 -74 82 -104 68 -156 143 -181 260 -18 84 -20 244 -3 261 7 7 33 12 59 12 57 0 94 -26 119 -86 31 -72 94 -84 125 -24 l16 30 -46 20 c-101 43 -216 145 -296 260 -32 47 -66 94 -76 105 -29 32 -143 116 -180 131 -18 8 -33 19 -33 24 0 20 56 9 150 -27 104 -41 128 -54 219 -125 34 -27 72 -48 85 -48 13 0 53 13 88 30 45 22 78 30 116 30 63 0 82 -9 132 -61 34 -36 41 -39 90 -39 38 0 51 3 47 13 -68 152 -86 223 -128 491 -35 228 -33 264 12 280 15 5 38 6 53 2 40 -10 131 -106 248 -262 131 -174 173 -239 200 -309 16 -41 24 -53 33 -45 25 21 25 80 -1 161 -54 172 -65 243 -72 474 -9 262 -13 276 -107 340 -78 54 -107 110 -134 263 -11 62 -28 127 -38 145 -18 31 -65 70 -135 112 -34 21 -48 65 -18 55 8 -2 49 -6 90 -7 99 -4 113 -8 150 -39 17 -15 35 -23 39 -18 4 5 20 59 36 119 44 175 87 283 168 425 48 83 80 152 87 186 20 94 80 159 150 159 120 0 154 -179 101 -536 l-23 -156 62 -124 c35 -68 91 -176 125 -239 137 -252 196 -432 198 -610 1 -105 1 -107 -41 -194 -46 -97 -49 -112 -27 -143 l15 -21 42 20 c24 11 50 23 58 27 8 4 31 40 50 80 52 107 66 115 219 119 116 3 130 2 170 -20 41 -21 48 -30 78 -107 41 -102 37 -129 -10 -83 -83 80 -177 80 -218 0 -12 -23 -29 -40 -43 -44 -26 -6 -28 -14 -42 -144 -9 -93 -24 -135 -80 -225 -83 -134 -95 -182 -49 -203 24 -11 65 -77 65 -105 0 -10 20 -16 76 -20 114 -8 158 -35 205 -122 58 -106 90 -119 160 -63 27 22 51 32 74 32 35 0 75 -27 75 -51 0 -25 28 -25 81 3 51 25 59 26 164 22 l110 -5 -4 76 c-4 86 -23 132 -75 184 -47 47 -102 72 -162 72 -45 0 -60 -6 -145 -62 -52 -34 -107 -67 -122 -72 -39 -15 -92 -13 -157 4 -30 8 -73 15 -95 15 -85 1 -79 12 68 123 53 40 94 47 153 25 27 -9 37 -8 65 8 18 11 42 38 53 61 30 58 55 83 84 83 15 0 66 -29 130 -76 57 -41 106 -73 109 -70 3 2 -2 27 -11 54 -13 37 -27 56 -54 75 -63 41 -149 125 -185 180 -53 80 -74 151 -102 339 -14 95 -39 218 -55 273 -34 111 -36 146 -21 377 9 155 21 194 67 218 35 19 76 15 96 -10 66 -81 195 -347 313 -644 105 -265 115 -313 115 -548 l0 -183 31 38 c22 27 38 37 59 37 25 0 30 5 37 38 4 20 8 156 8 302 0 278 -11 386 -56 564 -23 93 -58 186 -69 186 -5 0 -23 -12 -40 -26 -17 -15 -34 -24 -37 -21 -3 4 -1 29 4 57 12 58 24 42 -116 147 -80 59 -129 130 -177 253 -81 208 -86 216 -159 241 l-40 14 57 3 c31 2 82 -4 112 -12 68 -17 66 -22 32 126 -44 187 -106 498 -106 532 0 42 31 82 68 89 18 4 31 14 35 25 8 32 37 42 74 27 60 -25 146 -165 343 -550 115 -228 150 -320 166 -440 l6 -50 96 0 c108 0 134 -10 241 -89 38 -27 77 -46 114 -55 68 -15 112 -43 152 -98 16 -23 34 -42 39 -42 8 -1 3 257 -13 609 -12 272 -6 486 17 611 46 248 127 479 270 769 92 188 156 270 218 284 77 17 119 -37 110 -143 -3 -36 -9 -192 -15 -346 -9 -255 -22 -390 -50 -515 -5 -24 -8 -46 -7 -48 2 -1 17 9 34 23 17 14 46 32 64 40 19 7 40 21 48 29 20 25 43 20 36 -6 -3 -13 -6 -29 -6 -35 0 -7 -22 -37 -49 -67 -55 -60 -53 -56 -80 -183 -22 -102 -66 -219 -107 -285 -14 -24 -84 -102 -155 -174 -86 -87 -135 -145 -149 -176 -38 -87 -53 -231 -46 -462 6 -225 5 -220 68 -266 l36 -27 159 5 158 4 59 -46 c32 -25 62 -46 67 -46 5 0 43 -16 84 -35 74 -36 75 -36 120 -20 25 8 52 15 60 15 22 0 19 13 -19 69 -112 165 -124 441 -46 996 43 301 65 363 132 380 17 5 30 17 37 36 7 22 16 29 35 29 46 0 94 -94 156 -307 57 -195 89 -367 116 -633 l6 -64 19 35 c29 57 83 99 127 99 54 0 66 -16 42 -55 -11 -17 -27 -65 -35 -106 -9 -40 -30 -98 -47 -128 -29 -52 -68 -201 -68 -261 0 -24 2 -25 78 -27 42 0 91 -7 107 -13 l30 -13 -64 -13 c-106 -23 -178 -61 -213 -113 -18 -25 -76 -94 -129 -153 -79 -86 -99 -114 -104 -145 -6 -43 -15 -79 -43 -173 -10 -36 -22 -86 -26 -112 -7 -45 -6 -49 19 -60 20 -9 40 -9 88 1 34 7 67 17 73 22 18 14 142 39 199 39 77 0 116 -16 164 -64 26 -26 67 -54 98 -67 36 -14 62 -33 77 -56 13 -19 43 -47 67 -63 24 -17 63 -46 87 -65 49 -39 88 -53 111 -38 19 12 60 116 60 156 1 37 26 72 61 87 46 19 35 49 -30 89 -28 16 -51 21 -110 21 -108 0 -140 28 -155 135 -10 72 -40 129 -84 159 -62 43 -92 43 -220 -4 -154 -55 -161 -46 -55 77 l31 36 149 15 149 15 78 -32 c43 -17 80 -31 81 -31 12 0 -9 274 -27 360 -18 88 -22 137 -22 305 1 195 2 203 33 315 40 139 52 160 93 160 37 0 64 -13 108 -54 l34 -31 -6 50 c-24 196 -15 462 17 539 8 19 24 40 37 46 60 33 167 -7 211 -77 81 -131 222 -421 257 -530 73 -223 125 -491 120 -612 -4 -68 -8 -84 -39 -132 -88 -138 -113 -226 -70 -249 11 -6 20 -15 20 -20 0 -5 5 -21 11 -37 10 -26 11 -27 24 -10 7 11 16 36 20 57 9 52 64 113 133 147 54 26 65 28 197 29 104 1 154 6 193 19 57 19 125 17 177 -6 34 -14 41 -11 -62 -25 -24 -3 -63 -19 -90 -38 -26 -18 -61 -37 -78 -43 -29 -9 -27 -10 37 -22 37 -6 119 -32 182 -56 77 -30 146 -50 216 -60 57 -9 122 -24 144 -34 50 -22 101 -78 132 -145 23 -49 32 -101 17 -94 -5 2 -44 21 -88 43 l-79 40 -206 -2 c-158 -1 -213 -5 -241 -17 -24 -10 -64 -15 -116 -13 -68 1 -87 -3 -136 -26 -80 -40 -145 -103 -199 -194 -26 -43 -63 -93 -82 -111 -21 -18 -36 -42 -36 -55 0 -12 -9 -56 -20 -97 -19 -73 -19 -76 -1 -100 21 -28 37 -29 96 -6 22 8 66 15 98 16 79 0 117 19 160 78 47 63 76 82 127 82 23 0 64 10 92 22 43 18 55 20 81 10 25 -10 34 -9 47 3 9 8 27 15 41 15 27 -1 72 -35 82 -63 9 -25 -15 -69 -56 -100 l-35 -27 20 -37 c16 -31 19 -52 15 -110 l-4 -72 66 -6 c95 -9 124 -25 181 -102 53 -73 115 -181 107 -189 -2 -3 -28 4 -56 16 -69 27 -96 25 -187 -11 -70 -28 -86 -31 -149 -26 -38 3 -79 8 -90 11 -16 5 -26 -4 -48 -38 -15 -25 -49 -58 -75 -75 -26 -16 -54 -37 -62 -46 -8 -8 -25 -26 -37 -39 -22 -22 -22 -24 -5 -40 10 -9 24 -16 30 -16 17 0 71 -50 87 -80 30 -59 37 -120 24 -222 -11 -92 -11 -99 7 -119 21 -23 25 -102 7 -120 -6 -6 -8 -30 -5 -55 5 -48 -8 -74 -39 -74 -11 0 -19 -5 -19 -10 0 -6 18 -63 39 -128 70 -208 74 -345 17 -495 -48 -122 -96 -222 -107 -222 -6 0 -13 22 -16 50 -6 72 -30 114 -96 163 -87 66 -91 76 -92 209 0 90 -3 116 -15 123 -8 5 -53 9 -100 8 -138 -3 -216 45 -274 164 l-34 71 -21 -34 c-12 -19 -28 -57 -36 -85 -8 -29 -30 -75 -49 -103 -41 -60 -54 -52 126 -75 165 -21 188 -36 203 -126 9 -56 26 -76 88 -102 60 -26 117 -90 153 -172 25 -59 33 -67 108 -114 178 -112 358 -177 523 -188 110 -8 109 -19 -3 -50 -59 -16 -90 -16 -337 -7 -325 11 -337 15 -337 99 0 52 -34 86 -115 114 -88 31 -150 30 -205 -3 -149 -89 -168 -91 -301 -31 -100 45 -132 44 -200 -5 -30 -21 -64 -41 -76 -45 -20 -7 -11 -19 101 -129 107 -107 127 -132 162 -204 39 -82 39 -82 78 -83 22 0 78 -17 131 -39 50 -22 145 -52 211 -66 123 -28 214 -67 255 -111 26 -28 18 -30 -41 -9 -54 19 -131 19 -177 0 -20 -8 -68 -41 -107 -72 -39 -31 -74 -59 -78 -63 -4 -3 2 -35 14 -70 17 -54 22 -104 28 -290 5 -146 15 -272 29 -360 14 -88 21 -168 19 -230 -3 -95 -3 -95 -28 -92 -76 11 -116 70 -150 220 -25 115 -39 149 -79 195 -46 51 -100 73 -239 96 -67 12 -140 30 -161 40 -49 26 -94 77 -116 135 -28 74 -71 73 -224 -2 -154 -75 -247 -69 -352 24 -57 50 -110 68 -192 62 -68 -5 -93 -21 -160 -104 -47 -58 -127 -203 -127 -230 0 -9 8 -12 28 -8 55 11 110 -13 172 -77 53 -54 62 -59 102 -59 81 0 90 -30 15 -48 -24 -6 -64 -27 -90 -47 -63 -48 -93 -53 -137 -21 -61 45 -77 50 -105 38 -14 -7 -30 -24 -36 -38 -5 -16 -9 -118 -9 -240 l1 -214 1655 0 1654 0 0 4250 0 4250 -4250 0 -4250 0 0 -4250z" id="1"/>
<path d="M4794 8300 c-42 -27 -66 -63 -143 -213 -163 -319 -258 -607 -296 -891 -17 -131 -20 -346 -5 -346 13 0 19 45 24 200 2 74 8 149 13 165 6 20 8 -18 5 -112 -3 -79 -1 -143 4 -143 5 0 27 21 49 48 l40 47 -7 80 c-9 98 6 267 32 370 11 42 48 149 83 238 70 177 71 179 93 305 17 96 48 160 89 182 22 12 62 77 52 86 -1 2 -16 -6 -33 -16z" id="2"/>
<path d="M4848 8274 c-21 -45 -23 -64 -24 -229 -1 -152 -5 -193 -24 -265 -17 -65 -24 -130 -31 -275 -4 -104 -11 -210 -15 -234 l-7 -43 31 16 c17 9 36 25 42 36 6 11 22 86 36 167 20 117 28 208 36 433 15 424 15 407 -4 427 -17 16 -19 14 -40 -33z" id="3"/>
<path d="M4767 8182 c-21 -23 -42 -84 -51 -147 -4 -27 -20 -102 -36 -165 -29 -116 -44 -207 -55 -335 -3 -38 -21 -140 -40 -225 -51 -236 -49 -220 -31 -220 15 0 132 99 148 125 19 30 31 126 38 305 7 149 14 213 30 270 18 63 21 101 20 239 0 91 -2 166 -3 168 -2 2 -11 -5 -20 -15z" id="4"/>
<path d="M4566 7582 c-38 -113 -56 -221 -56 -335 0 -55 2 -98 4 -96 3 2 21 77 40 165 32 147 57 344 43 344 -3 0 -17 -35 -31 -78z" id="5"/>
<path d="M3140 7372 c0 -42 51 -188 96 -276 70 -137 80 -166 99 -279 15 -94 62 -245 110 -352 40 -90 89 -185 95 -182 3 1 29 16 57 32 53 30 53 30 53 80 0 116 -38 214 -210 544 -124 239 -197 361 -243 409 -29 30 -57 42 -57 24z" id="6"/>
<path d="M4960 7326 c-14 -7 -47 -29 -74 -50 -27 -21 -76 -51 -108 -67 -32 -16 -82 -51 -111 -77 -29 -27 -78 -63 -109 -80 -105 -60 -162 -147 -192 -295 -19 -89 -19 -156 -2 -212 17 -58 38 -57 105 8 31 30 85 75 121 100 175 123 246 245 305 520 14 65 23 84 56 119 43 46 45 54 9 34z" id="7"/>
<path d="M3050 7305 c-19 -23 -1 -90 66 -249 48 -113 58 -149 75 -261 10 -71 28 -163 39 -204 36 -129 180 -471 198 -471 4 0 20 24 35 53 28 52 28 52 12 110 -8 32 -29 93 -46 135 -17 42 -53 136 -79 207 -61 168 -90 235 -160 375 -68 136 -81 175 -89 255 -6 63 -25 82 -51 50z" id="8"/>
<path d="M3135 7213 c19 -80 32 -112 95 -233 82 -159 75 -95 -9 78 -39 81 -74 162 -77 180 -4 17 -10 32 -14 32 -5 0 -2 -26 5 -57z" id="9"/>
<path d="M1764 7154 c-38 -18 -73 -71 -81 -120 -7 -44 -33 -101 -108 -229 -68 -117 -95 -187 -150 -389 l-45 -167 19 -37 c31 -58 58 -95 64 -85 2 4 8 30 12 58 11 75 48 166 130 315 65 120 76 149 100 255 15 70 41 151 62 195 24 51 38 96 42 142 8 76 1 84 -45 62z" id="10"/>
<path d="M1840 7083 c0 -33 -10 -68 -31 -113 -35 -72 -63 -164 -80 -255 -6 -33 -26 -97 -44 -141 -19 -45 -41 -118 -49 -163 -9 -44 -23 -117 -31 -160 -9 -44 -23 -102 -32 -130 l-16 -50 36 -34 36 -34 20 21 c57 61 91 186 115 427 11 102 29 198 60 323 45 171 59 292 40 340 -12 31 -24 15 -24 -31z" id="11"/>
<path d="M3070 7060 c0 -21 63 -314 95 -440 14 -56 30 -126 36 -154 11 -61 50 -188 56 -183 5 6 -33 200 -62 317 -13 52 -29 138 -35 190 -7 52 -25 129 -40 171 -32 88 -49 122 -50 99z" id="12"/>
<path d="M5400 7023 c0 -21 18 -90 40 -153 66 -188 97 -355 106 -565 6 -161 25 -335 35 -335 5 0 23 13 41 29 l32 28 -13 149 c-25 302 -108 661 -189 823 -34 68 -52 77 -52 24z" id="13"/>
<path d="M5327 6999 c-54 -32 -71 -140 -55 -359 11 -164 11 -167 -17 -315 -49 -262 -45 -499 9 -628 26 -60 35 -34 14 40 -22 82 -33 254 -20 343 l9 65 2 -108 c1 -110 16 -231 33 -276 9 -25 9 -24 34 19 35 62 90 117 147 146 26 14 50 31 53 38 9 23 -15 169 -47 288 -27 100 -32 136 -39 313 -7 195 -8 203 -44 304 -20 58 -36 113 -36 123 0 20 -16 23 -43 7z" id="14"/>
<path d="M6569 6938 c-15 -29 -5 -279 15 -369 19 -83 20 -116 11 -264 -5 -88 -4 -132 6 -165 l13 -45 11 60 11 60 6 -115 c7 -131 30 -208 96 -328 39 -70 131 -189 157 -204 16 -10 83 70 101 121 32 90 11 237 -69 487 -31 94 -65 208 -77 255 -13 51 -34 103 -54 134 -49 73 -52 80 -75 193 -23 112 -31 134 -69 175 -31 33 -67 35 -83 5z m51 -276 c0 -9 11 -44 25 -77 25 -61 32 -160 16 -230 -6 -26 -8 -27 -14 -10 -3 11 -6 52 -5 90 0 47 -7 89 -21 130 -22 62 -28 131 -11 120 6 -3 10 -14 10 -23z" id="15"/>
<path d="M6710 6917 c0 -2 6 -20 14 -38 7 -19 21 -76 31 -127 14 -75 26 -105 61 -160 30 -47 50 -96 68 -162 13 -52 47 -167 76 -254 62 -193 87 -297 96 -393 4 -40 10 -73 14 -73 16 0 30 55 30 118 0 226 -89 558 -210 787 -129 244 -150 283 -165 295 -8 7 -15 10 -15 7z" id="16"/>
<path d="M1882 6867 c-1 -4 -18 -69 -37 -144 -22 -84 -41 -192 -51 -282 -26 -252 -45 -326 -110 -423 -25 -37 -34 -60 -32 -82 2 -17 7 -30 13 -30 16 2 83 134 110 216 13 43 31 117 40 165 32 191 76 526 72 556 -2 18 -5 29 -5 24z" id="17"/>
<path d="M6520 6654 c0 -53 20 -308 27 -344 l6 -35 7 30 c13 54 9 188 -8 277 -18 90 -32 122 -32 72z" id="18"/>
<path d="M5231 6637 c-29 -185 -52 -427 -50 -511 2 -40 2 -39 11 14 5 30 21 115 34 189 24 133 29 229 14 286 -4 17 -8 27 -9 22z" id="19"/>
<path d="M3050 6575 c0 -3 6 -16 14 -28 8 -12 28 -61 45 -109 40 -114 84 -200 128 -249 20 -22 38 -38 40 -36 2 2 -10 32 -26 66 -16 34 -46 122 -66 197 -40 143 -39 141 -107 158 -16 3 -28 4 -28 1z" id="20"/>
<path d="M5481 6493 c-1 -68 16 -162 31 -178 7 -7 8 0 5 20 -3 17 -9 64 -13 105 -9 103 -23 133 -23 53z" id="21"/>
<path d="M4441 6483 c-20 -14 -42 -21 -53 -17 -17 5 -18 -7 -20 -218 -1 -123 -2 -236 -2 -253 1 -31 41 -135 53 -135 3 0 5 80 3 179 -4 192 8 321 38 411 10 30 18 55 17 56 -1 0 -17 -10 -36 -23z" id="22"/>
<path d="M1560 6346 c-38 -86 -62 -178 -58 -225 7 -87 47 0 78 171 11 61 18 114 15 116 -2 3 -18 -25 -35 -62z" id="23"/>
<path d="M1847 6288 c-10 -62 -17 -119 -17 -127 0 -8 16 -37 35 -65 19 -28 61 -121 94 -206 32 -85 80 -204 105 -265 l47 -110 -4 61 c-4 47 -25 111 -91 275 -92 231 -136 388 -136 487 0 34 -3 62 -8 62 -4 0 -15 -51 -25 -112z" id="24"/>
<path d="M6352 6388 c-5 -7 -22 -56 -37 -108 -44 -153 -37 -231 56 -567 56 -206 94 -313 109 -313 4 0 10 42 14 93 20 296 20 276 -9 397 -24 101 -26 126 -20 210 6 83 4 104 -15 160 -22 66 -63 140 -79 140 -5 0 -13 -6 -19 -12z" id="25"/>
<path d="M3270 6369 c0 -22 31 -135 51 -185 11 -28 36 -66 56 -85 20 -19 34 -29 31 -24 -2 6 -25 53 -50 105 -25 52 -53 119 -62 148 -17 50 -26 65 -26 41z" id="26"/>
<path d="M1910 6320 c0 -92 52 -251 196 -595 20 -50 47 -138 58 -197 11 -60 23 -108 27 -108 13 0 32 58 36 115 13 152 -75 392 -271 740 -43 77 -45 78 -46 45z" id="27"/>
<path d="M3686 6320 c-27 -10 -66 -31 -87 -46 -50 -34 -126 -146 -138 -205 -6 -25 -14 -54 -17 -64 -4 -10 21 6 57 36 74 63 142 95 251 117 72 15 82 15 140 0 34 -10 64 -15 67 -13 9 9 -55 88 -110 136 -67 58 -97 66 -163 39z" id="28"/>
<path d="M6460 6338 c0 -2 9 -31 20 -65 10 -34 22 -97 26 -139 5 -59 16 -97 45 -159 49 -105 76 -203 97 -360 l17 -127 38 -3 c41 -2 44 5 26 52 -6 15 -15 64 -19 108 -13 129 -198 664 -239 689 -6 4 -11 6 -11 4z" id="29"/>
<path d="M1160 6324 c1 -5 19 -22 41 -37 53 -37 84 -105 104 -230 9 -54 23 -116 31 -138 21 -51 76 -99 114 -99 21 0 44 -13 80 -45 28 -25 57 -45 65 -45 56 0 42 222 -17 278 -13 11 -44 30 -70 42 -57 25 -92 64 -146 163 -23 42 -54 84 -68 94 -28 18 -134 31 -134 17z" id="30"/>
<path d="M3930 6293 c117 -85 210 -166 266 -231 235 -272 387 -643 455 -1104 12 -87 25 -158 28 -158 3 0 19 23 34 50 23 41 30 71 38 153 5 56 14 118 19 137 13 46 12 173 -1 229 -29 127 -114 240 -257 340 -78 55 -128 127 -178 258 -43 112 -83 177 -122 197 -15 7 -52 21 -83 30 -32 9 -83 35 -116 60 -33 24 -71 47 -84 50 l-24 7 25 -18z" id="31"/>
<path d="M3937 6233 c29 -29 65 -82 91 -133 24 -47 57 -105 73 -130 32 -50 58 -156 59 -235 1 -85 19 -187 44 -240 13 -27 47 -77 76 -110 81 -94 100 -133 109 -222 9 -92 21 -118 110 -238 96 -130 101 -139 117 -218 8 -40 19 -76 25 -81 17 -18 10 108 -16 290 -77 535 -234 897 -519 1191 -97 101 -184 173 -208 173 -5 0 12 -21 39 -47z" id="32"/>
<path d="M5777 6180 c-14 -11 -42 -55 -62 -98 -20 -42 -44 -85 -53 -96 -10 -10 -63 -40 -119 -67 -77 -37 -109 -59 -136 -91 -73 -90 -84 -132 -97 -364 -6 -98 -13 -201 -17 -229 l-6 -50 49 65 c27 35 78 88 114 118 211 175 206 168 249 386 21 108 37 158 60 199 17 29 37 86 46 126 8 40 19 80 25 90 18 35 -14 42 -53 11z" id="33"/>
<path d="M2941 6133 c-26 -23 -27 -32 -18 -178 13 -187 24 -247 66 -352 29 -73 44 -129 56 -217 9 -65 27 -155 42 -200 23 -74 113 -265 146 -310 13 -18 15 -16 22 35 3 29 16 89 27 133 19 73 20 86 8 180 -18 145 -48 255 -129 471 -39 105 -87 244 -107 310 -20 66 -41 126 -46 133 -15 17 -42 15 -67 -5z" id="34"/>
<path d="M3725 6113 c-33 -8 -63 -19 -67 -26 -17 -26 -7 -174 17 -282 49 -215 57 -281 62 -553 l6 -264 23 24 23 23 -16 90 c-17 99 -14 276 6 313 6 12 20 26 31 32 33 17 57 -4 75 -66 15 -51 20 -57 61 -74 62 -27 144 -108 204 -201 28 -44 52 -79 53 -79 1 0 17 4 35 9 30 9 57 5 106 -15 18 -7 19 -3 14 87 -3 52 -11 106 -18 119 -7 14 -42 61 -78 105 -36 44 -75 103 -88 130 -26 56 -44 152 -44 235 -1 109 -25 187 -88 280 -56 83 -59 86 -122 107 -75 25 -112 26 -195 6z" id="35"/>
<path d="M1800 6099 c0 -6 -13 -41 -29 -78 l-30 -66 19 -110 c42 -245 103 -368 224 -457 51 -37 83 -37 97 0 16 42 2 106 -58 252 -31 74 -78 194 -105 265 -27 72 -61 147 -75 168 -25 36 -43 47 -43 26z" id="36"/>
<path d="M3599 6053 c-5 -16 -12 -35 -15 -43 -4 -12 -8 -10 -18 8 -9 17 -14 20 -24 10 -20 -20 -14 -92 18 -213 56 -216 65 -309 65 -647 0 -305 0 -307 20 -294 11 7 29 29 40 47 19 32 20 52 20 294 0 279 -6 337 -57 565 -24 108 -29 151 -26 218 4 83 -4 104 -23 55z" id="37"/>
<path d="M6500 5974 c0 -9 10 -52 21 -97 19 -73 20 -96 13 -212 -11 -172 -11 -323 0 -360 8 -29 9 -28 26 32 9 34 29 78 43 97 31 40 32 53 12 195 -18 121 -47 233 -81 308 -23 54 -34 65 -34 37z" id="38"/>
<path d="M3110 5942 c0 -14 54 -168 107 -307 50 -129 86 -261 99 -363 11 -89 29 -46 29 71 l-1 102 -66 155 c-115 269 -168 377 -168 342z" id="39"/>
<path d="M6275 5828 c3 -46 15 -125 26 -177 11 -55 19 -134 19 -193 0 -98 1 -102 41 -179 40 -76 105 -149 133 -149 8 0 22 -3 32 -7 35 -13 10 80 -60 225 -54 112 -76 176 -123 349 -32 117 -62 213 -67 213 -5 0 -5 -36 -1 -82z" id="40"/>
<path d="M1682 5870 c-17 -23 -22 -43 -22 -92 0 -35 -7 -118 -15 -183 -17 -140 -19 -244 -5 -335 12 -76 49 -200 60 -200 10 0 61 59 118 134 23 31 59 67 78 78 l35 21 -50 51 c-61 62 -83 112 -110 247 -19 96 -51 284 -51 302 0 16 -17 6 -38 -23z" id="41"/>
<path d="M2890 5757 c0 -54 7 -100 26 -157 33 -107 54 -218 54 -293 0 -161 75 -322 202 -436 54 -48 47 -22 -13 46 -72 82 -115 148 -140 218 -18 51 -22 84 -23 220 l-1 160 -36 81 c-21 46 -42 112 -48 154 -7 41 -14 76 -16 79 -3 2 -5 -30 -5 -72z" id="42"/>
<path d="M1526 5713 c4 -10 11 -119 15 -243 7 -227 21 -320 65 -454 l16 -48 26 26 26 25 -27 81 c-48 142 -57 296 -31 543 6 55 6 57 -18 57 -13 0 -33 7 -44 15 -26 20 -38 19 -28 -2z" id="43"/>
<path d="M7070 5665 c-26 -27 -36 -32 -40 -21 -3 10 -21 -6 -55 -51 -28 -37 -56 -68 -64 -71 -16 -5 -128 110 -142 145 -5 13 -14 21 -19 18 -15 -9 -4 -119 15 -156 14 -27 19 -29 54 -23 49 8 74 -6 107 -57 33 -53 56 -49 66 11 8 54 32 114 56 138 30 30 64 82 60 93 -2 5 -19 -6 -38 -26z" id="44"/>
<path d="M4630 5684 c-12 -4 -3 -18 32 -54 26 -27 62 -74 79 -105 17 -30 44 -65 61 -76 16 -12 38 -41 49 -65 21 -50 28 -53 55 -23 10 12 40 36 65 53 25 17 69 52 97 77 59 54 59 54 -37 93 -35 14 -87 44 -116 66 l-52 40 -109 -1 c-60 -1 -116 -3 -124 -5z" id="45"/>
<path d="M5700 5606 c0 -12 6 -13 30 -5 17 6 30 13 30 15 0 2 -13 4 -30 4 -20 0 -30 -5 -30 -14z" id="46"/>
<path d="M5196 5535 c-33 -13 -80 -44 -105 -68 -25 -24 -72 -61 -104 -82 -84 -55 -149 -140 -181 -240 -8 -27 -20 -95 -25 -151 -8 -90 -14 -109 -53 -184 l-43 -83 1 -126 c0 -161 28 -306 61 -329 27 -17 29 -29 7 -53 -13 -14 -14 -24 -6 -51 6 -18 18 -71 27 -118 10 -49 32 -117 53 -160 36 -73 37 -79 38 -190 0 -105 3 -119 27 -165 15 -28 30 -74 34 -102 7 -62 23 -61 23 2 0 63 -43 305 -90 511 -23 99 -51 225 -63 282 -13 61 -27 102 -34 102 -36 0 -22 49 107 365 190 467 234 550 342 655 l68 67 0 71 c0 51 -4 72 -12 72 -7 0 -40 -11 -72 -25z" id="47"/>
<path d="M7618 5524 c-3 -3 -39 -10 -80 -15 -40 -6 -96 -21 -125 -34 -48 -22 -143 -98 -143 -115 0 -4 35 7 78 26 42 19 82 34 88 34 6 0 19 9 29 20 10 11 37 25 59 31 60 15 94 29 107 45 11 13 -1 21 -13 8z" id="48"/>
<path d="M7297 5504 c-70 -22 -144 -95 -153 -153 -4 -23 -17 -55 -30 -71 -22 -26 -31 -50 -19 -50 16 0 70 50 104 95 56 74 128 143 172 166 22 10 39 22 39 24 0 10 -66 3 -113 -11z" id="49"/>
<path d="M1830 5487 c0 -17 32 -83 57 -115 14 -19 51 -46 84 -62 33 -15 65 -32 72 -38 6 -5 32 -12 57 -14 l46 -5 32 58 c31 56 35 80 6 42 -16 -23 -24 -14 -31 36 -6 45 -17 46 -28 4 -8 -35 -43 -73 -66 -73 -31 0 -92 41 -161 109 -38 36 -68 62 -68 58z" id="50"/>
<path d="M6817 5473 c-26 -4 -28 -8 -22 -31 8 -33 23 -52 41 -52 24 0 64 23 64 37 0 15 -36 54 -47 52 -5 -1 -21 -4 -36 -6z" id="51"/>
<path d="M6651 5408 c-52 -55 -71 -223 -44 -378 22 -125 36 -240 30 -246 -4 -4 -9 1 -12 10 -3 9 -7 23 -10 32 -4 12 -11 10 -35 -15 -17 -17 -46 -33 -65 -37 -44 -8 -49 -15 -73 -99 -10 -38 -28 -91 -38 -117 l-18 -47 24 -26 c13 -14 43 -37 67 -50 33 -20 45 -34 53 -65 6 -22 21 -47 34 -55 30 -20 61 -78 76 -143 l12 -54 34 33 c18 18 49 62 68 98 68 131 80 221 50 380 -18 95 -15 129 22 246 53 168 19 394 -79 527 -26 34 -68 37 -96 6z" id="52"/>
<path d="M1057 5403 c-20 -19 -4 -63 41 -115 57 -65 66 -86 87 -198 8 -47 24 -101 33 -120 10 -19 37 -71 60 -115 24 -46 48 -112 57 -155 15 -70 52 -138 81 -147 18 -5 74 84 83 134 13 67 2 103 -60 197 -27 42 -72 129 -100 194 -58 135 -83 176 -153 250 -62 66 -111 94 -129 75z" id="53"/>
<path d="M7495 5399 c-75 -10 -232 -87 -330 -161 -66 -51 -70 -56 -79 -106 -10 -60 -1 -78 22 -42 33 52 160 168 222 202 81 45 181 76 272 85 39 3 64 9 57 13 -25 13 -103 17 -164 9z" id="54"/>
<path d="M3795 5356 c-9 -55 -1 -189 16 -264 l10 -50 92 -4 c51 -3 94 -3 97 -1 8 7 -39 88 -82 139 -62 74 -89 119 -108 177 l-18 52 -7 -49z" id="55"/>
<path d="M4806 5344 c8 -84 13 -94 28 -65 11 20 10 31 -3 67 -25 65 -32 64 -25 -2z" id="56"/>
<path d="M2483 5380 c-48 -11 -62 -26 -98 -105 -32 -71 -40 -78 -117 -109 -21 -8 -38 -19 -38 -24 0 -6 17 -45 37 -87 30 -65 37 -89 37 -146 1 -51 6 -72 20 -88 24 -26 23 -54 -3 -130 -14 -42 -18 -67 -12 -78 7 -13 12 -3 20 39 7 33 30 85 57 129 77 124 84 144 100 267 8 64 21 138 29 163 16 48 67 109 92 109 16 0 63 44 63 60 0 12 -137 12 -187 0z" id="57"/>
<path d="M3851 5367 c-1 -28 26 -75 92 -157 54 -68 85 -122 101 -174 5 -16 14 -18 56 -14 28 3 54 8 57 12 11 10 -36 90 -93 160 -34 41 -70 72 -110 93 -60 32 -87 55 -97 83 -4 12 -6 11 -6 -3z" id="58"/>
<path d="M2694 5349 c-10 -12 -38 -32 -61 -46 -44 -25 -83 -70 -83 -95 0 -7 11 1 25 19 32 41 85 73 119 73 15 0 43 -7 62 -15 l36 -15 -7 33 c-7 33 -37 67 -60 67 -6 0 -20 -9 -31 -21z" id="59"/>
<path d="M6880 5345 c-14 -8 -33 -14 -42 -15 -22 0 -22 3 -2 -51 8 -24 24 -96 35 -159 21 -120 20 -146 -7 -296 -14 -77 -14 -88 7 -185 12 -57 23 -137 24 -178 1 -69 3 -74 29 -88 26 -14 32 -12 99 23 40 20 74 38 76 40 2 1 -12 21 -30 42 l-33 40 -29 -40 c-43 -60 -44 -38 -1 26 41 63 74 167 74 237 0 26 -12 91 -26 146 -24 89 -26 109 -21 217 7 142 -4 207 -40 236 -30 23 -77 25 -113 5z" id="60"/>
<path d="M7553 5339 c-71 -12 -172 -51 -236 -92 -105 -68 -227 -214 -227 -273 0 -33 41 -184 50 -184 18 0 54 57 105 165 99 212 161 248 323 189 89 -33 104 -28 162 51 22 30 60 67 83 82 23 15 44 28 46 30 11 8 -14 17 -76 29 -76 15 -153 16 -230 3z" id="61"/>
<path d="M5198 5292 c-54 -61 -127 -188 -135 -236 -5 -35 -4 -37 40 -56 46 -20 78 -55 91 -97 12 -37 26 -26 26 18 0 22 12 120 26 216 33 225 28 239 -48 155z" id="62"/>
<path d="M6110 5315 c0 -3 26 -18 58 -34 31 -17 76 -43 100 -59 49 -33 231 -236 264 -294 12 -21 25 -38 30 -38 10 0 10 91 0 106 -4 6 -24 17 -44 23 -48 16 -128 103 -165 181 -22 47 -33 59 -51 59 -13 1 -57 15 -99 31 -73 29 -93 35 -93 25z" id="63"/>
<path d="M3375 5265 c-5 -27 -23 -98 -41 -158 -45 -145 -57 -225 -45 -290 9 -49 81 -263 97 -289 4 -6 15 21 25 63 24 98 27 516 4 621 -21 99 -31 113 -40 53z" id="64"/>
<path d="M5381 5254 c-81 -93 -131 -227 -131 -356 0 -41 3 -48 20 -49 11 -1 25 -2 32 -3 8 -1 17 30 25 82 7 46 24 117 38 158 14 41 25 87 25 102 0 15 9 45 20 67 11 21 18 40 16 42 -2 2 -22 -17 -45 -43z" id="65"/>
<path d="M5852 5287 c-27 -16 -58 -57 -42 -57 19 0 140 44 140 51 0 8 -37 19 -60 19 -8 -1 -25 -6 -38 -13z" id="66"/>
<path d="M6050 5275 c94 -55 122 -95 145 -207 22 -103 39 -118 131 -118 85 0 109 -8 158 -50 20 -18 36 -28 36 -23 0 18 -75 133 -123 188 -88 101 -264 214 -358 231 l-34 6 45 -27z" id="67"/>
<path d="M7880 5274 c-43 -13 -86 -47 -120 -95 l-19 -25 147 4 c170 5 268 -6 335 -38 26 -12 50 -20 52 -18 10 9 -67 114 -98 135 -56 39 -222 59 -297 37z" id="68"/>
<path d="M1054 5263 c3 -10 12 -70 21 -133 31 -217 67 -350 126 -460 30 -56 107 -153 95 -120 -2 8 -19 50 -36 92 -30 76 -72 250 -106 433 -9 50 -23 106 -30 125 -24 56 -84 110 -70 63z" id="69"/>
<path d="M1928 5230 c-39 -21 -156 -173 -149 -194 2 -6 6 -20 9 -31 5 -20 5 -20 -17 -1 -21 19 -22 19 -52 -10 -17 -16 -37 -40 -43 -54 -22 -43 -27 -117 -11 -162 17 -51 12 -61 -10 -18 l-16 31 -39 -31 c-22 -18 -40 -33 -40 -34 0 -2 -5 -27 -10 -56 -7 -37 -23 -69 -50 -105 -22 -29 -40 -62 -40 -74 0 -42 49 -118 120 -185 54 -51 64 -63 39 -50 -43 22 -128 109 -154 157 -11 20 -24 36 -30 34 -18 -5 -57 -96 -51 -120 6 -26 103 -94 189 -133 50 -22 66 -25 110 -19 29 4 77 8 107 9 46 2 56 5 59 22 2 10 19 60 38 109 35 87 36 96 42 265 l7 175 53 109 54 109 -8 116 c-5 98 -10 119 -28 139 -25 27 -31 27 -79 2z" id="70"/>
<path d="M3030 5215 c0 -36 54 -174 64 -164 2 2 -11 49 -30 104 -29 88 -34 95 -34 60z" id="71"/>
<path d="M2068 5203 c-21 -5 -23 -38 -9 -124 11 -63 2 -115 -45 -259 -26 -80 -27 -97 -28 -275 -1 -172 -4 -197 -25 -259 -13 -37 -24 -91 -25 -119 l-1 -51 45 -13 c31 -10 89 -13 190 -11 129 3 150 6 193 27 29 14 58 38 73 60 l24 37 -20 97 c-24 120 -48 197 -69 220 -15 18 -24 18 -66 2 -11 -5 -17 -4 -12 0 4 5 -3 19 -15 32 l-22 24 -14 -23 c-11 -19 -12 -19 -7 -3 4 11 10 41 15 67 5 26 16 63 25 84 20 48 19 60 -6 85 l-21 21 -24 -23 -25 -24 27 49 c41 74 37 115 -24 240 -65 135 -82 153 -134 139z" id="72"/>
<path d="M7384 5111 c-35 -25 -85 -91 -69 -91 3 0 23 14 44 31 21 16 64 41 95 53 40 16 52 25 41 30 -34 13 -73 5 -111 -23z" id="73"/>
<path d="M6478 5080 c36 -33 76 -41 70 -14 -2 10 -22 22 -48 30 -60 18 -60 18 -22 -16z" id="74"/>
<path d="M1380 5072 c0 -17 54 -125 81 -164 12 -17 35 -53 50 -82 45 -81 36 -21 -11 70 -43 84 -120 197 -120 176z" id="75"/>
<path d="M4180 5008 c-57 -21 -49 -21 -273 -2 -89 8 -122 -6 -166 -69 -16 -24 -46 -58 -66 -75 -30 -27 -43 -32 -89 -32 -33 0 -58 -5 -65 -14 -18 -21 -68 -176 -87 -268 -17 -86 -15 -270 4 -304 18 -32 30 12 34 126 3 100 7 122 30 166 34 66 94 118 198 173 47 25 115 73 159 113 94 86 139 110 282 148 61 17 123 37 138 45 l26 14 -35 0 c-19 -1 -60 -10 -90 -21z" id="76"/>
<path d="M4400 4950 c0 -131 53 -480 96 -628 14 -47 18 -52 37 -46 12 3 25 9 30 13 4 4 -6 59 -23 122 -30 118 -64 311 -76 436 -5 55 -13 81 -35 115 l-29 43 0 -55z" id="77"/>
<path d="M5014 4962 c-87 -205 -97 -236 -79 -247 10 -5 38 -25 62 -42 24 -18 45 -33 48 -33 3 0 5 14 5 31 0 25 6 32 35 45 19 7 43 14 54 14 12 0 23 11 30 31 29 84 -5 169 -86 211 l-53 28 -16 -38z" id="78"/>
<path d="M4273 4975 c-18 -8 -33 -16 -33 -19 0 -16 102 -86 125 -86 3 0 5 27 5 60 l0 60 -32 0 c-18 -1 -48 -7 -65 -15z" id="79"/>
<path d="M4165 4943 c-84 -19 -95 -24 -95 -44 0 -37 31 -89 99 -162 92 -99 105 -119 155 -245 66 -164 112 -242 142 -242 17 0 18 -4 -6 82 -23 87 -66 317 -75 410 -8 74 -17 86 -97 131 -25 15 -55 38 -66 52 -11 14 -24 24 -28 24 -5 -1 -18 -3 -29 -6z" id="80"/>
<path d="M3968 4871 c-25 -16 -48 -33 -51 -38 -4 -5 3 -27 13 -49 12 -23 24 -79 30 -134 14 -143 34 -187 128 -294 19 -21 50 -73 69 -115 19 -42 53 -100 75 -129 l40 -54 34 50 c18 28 51 63 71 78 21 15 42 31 47 35 5 4 -3 22 -18 40 -32 38 -70 110 -102 197 -43 113 -81 175 -163 265 -50 55 -85 103 -93 129 -8 23 -19 43 -24 45 -5 2 -30 -10 -56 -26z" id="81"/>
<path d="M5686 4882 c-3 -5 7 -18 23 -29 15 -12 44 -53 65 -92 27 -52 44 -73 62 -77 31 -8 125 1 177 16 38 11 38 12 21 31 -9 10 -36 25 -58 31 -26 8 -58 30 -86 60 -26 27 -61 53 -80 58 -43 12 -117 13 -124 2z" id="82"/>
<path d="M1236 4833 c24 -112 88 -279 121 -315 9 -10 22 -18 30 -18 22 0 15 25 -18 56 -41 39 -46 50 -64 133 -13 64 -57 171 -70 171 -3 0 -3 -12 1 -27z" id="83"/>
<path d="M4500 4816 c5 -32 17 -57 43 -85 l37 -41 0 28 c0 29 -57 133 -76 139 -7 3 -9 -10 -4 -41z" id="84"/>
<path d="M5535 4842 c-22 -8 -73 -16 -112 -16 -40 -1 -73 -2 -73 -4 0 -2 16 -10 35 -18 23 -9 72 -14 147 -14 62 0 131 -5 153 -10 22 -5 41 -7 44 -4 7 7 -41 54 -71 70 -34 17 -71 16 -123 -4z" id="85"/>
<path d="M452 4778 c24 -24 73 -85 108 -137 55 -80 80 -105 164 -168 54 -40 110 -76 123 -79 16 -4 41 1 66 14 23 11 54 23 70 26 l27 6 -51 66 c-61 76 -80 88 -176 102 -82 12 -117 30 -214 113 -56 49 -135 99 -155 99 -3 0 14 -19 38 -42z" id="86"/>
<path d="M5236 4792 c-3 -5 -12 -30 -21 -57 l-17 -48 29 -24 c58 -48 190 -141 243 -170 153 -85 364 -146 750 -218 261 -48 309 -59 353 -81 24 -13 27 -13 27 1 0 25 -19 56 -66 107 -24 26 -44 56 -44 67 0 12 -17 30 -50 50 -27 17 -57 42 -66 56 -9 14 -24 25 -33 25 -41 0 -111 34 -175 86 -89 71 -100 75 -166 58 -30 -8 -83 -14 -118 -14 l-63 0 36 -65 c20 -36 34 -65 31 -65 -4 0 -28 33 -54 73 -54 85 -116 144 -164 157 -18 6 -84 10 -146 10 -103 0 -121 3 -189 30 -81 32 -89 34 -97 22z" id="87"/>
<path d="M3855 4770 c-11 -12 -44 -36 -75 -55 l-57 -34 -22 -143 c-12 -79 -24 -151 -27 -160 -5 -16 1 -17 55 -12 68 8 94 -4 181 -77 27 -22 92 -64 146 -92 79 -42 106 -62 136 -102 21 -27 41 -66 45 -85 6 -33 7 -34 16 -12 9 20 3 33 -41 95 -29 40 -68 104 -87 142 -19 39 -58 97 -86 130 -74 85 -97 142 -109 264 -13 142 -36 184 -75 141z" id="88"/>
<path d="M6817 4761 c-4 -21 -1 -72 9 -130 10 -59 15 -128 12 -178 -4 -75 -3 -81 13 -73 19 11 31 63 24 106 -2 16 -13 79 -24 139 -11 61 -22 124 -23 140 l-3 30 -8 -34z" id="89"/>
<path d="M3044 4762 c-6 -4 -19 -23 -29 -42 -9 -19 -31 -50 -48 -67 -35 -38 -29 -39 58 -18 94 23 164 19 220 -10 82 -44 60 -20 -54 59 -122 85 -131 89 -147 78z" id="90"/>
<path d="M1959 4748 c-1 -2 -4 -82 -9 -178 -7 -166 -9 -179 -40 -255 -46 -114 -51 -141 -31 -160 24 -21 31 -19 31 9 0 13 12 64 27 112 24 82 26 104 27 281 1 167 0 203 -5 191z" id="91"/>
<path d="M788 4688 c-38 -17 -68 -34 -68 -38 0 -4 32 -10 71 -14 99 -9 130 -27 190 -107 28 -38 54 -69 58 -69 3 0 23 13 43 30 44 36 78 50 124 50 40 0 41 5 10 44 -21 25 -33 29 -101 36 -75 7 -78 9 -119 54 -40 43 -46 46 -92 46 -34 0 -70 -10 -116 -32z" id="92"/>
<path d="M4520 4680 c0 -49 61 -330 79 -359 5 -7 24 -11 49 -9 l40 3 -29 115 c-33 129 -55 178 -104 235 -33 38 -34 39 -35 15z" id="93"/>
<path d="M4885 4644 l-17 -45 64 -67 c35 -37 80 -94 100 -127 37 -63 88 -192 88 -226 0 -10 4 -19 9 -19 8 0 21 142 21 242 0 75 -19 110 -82 148 -29 18 -50 39 -54 54 -5 21 -86 86 -106 86 -3 0 -13 -21 -23 -46z" id="94"/>
<path d="M5113 4673 c-21 -8 -15 -24 32 -96 24 -38 54 -99 66 -135 56 -170 71 -177 303 -146 34 5 47 4 43 -3 -4 -6 -31 -14 -60 -18 -66 -9 -70 -12 -53 -38 8 -12 18 -40 22 -62 15 -80 100 -124 244 -126 88 -1 148 13 208 48 24 13 46 22 49 19 3 -3 -9 -13 -26 -23 -68 -38 -69 -36 30 -83 121 -57 174 -62 258 -25 50 23 68 26 103 20 60 -10 178 -6 211 7 15 6 27 16 27 24 0 23 -39 36 -165 54 -183 28 -242 46 -295 95 -16 15 -100 47 -230 89 -113 36 -238 81 -279 101 -88 42 -223 135 -341 234 -82 68 -109 80 -147 64z" id="95"/>
<path d="M7835 4665 c-23 -16 -63 -19 -84 -6 -10 6 -25 4 -45 -6 -17 -9 -58 -19 -90 -22 -59 -6 -61 -7 -113 -69 -50 -59 -53 -65 -54 -120 -1 -90 -17 -111 -18 -24 -1 48 -5 71 -11 67 -6 -4 -51 -10 -101 -15 -81 -8 -102 -14 -202 -64 -153 -75 -145 -65 -103 -120 19 -25 45 -73 57 -106 12 -33 27 -60 33 -60 6 0 40 8 76 19 197 56 382 169 512 313 45 51 108 116 138 145 49 47 53 54 39 68 -13 13 -17 13 -34 0z" id="96"/>
<path d="M3644 4641 c-18 -11 -35 -24 -38 -30 -8 -13 -65 -295 -61 -299 6 -7 73 19 84 31 13 16 53 251 49 289 l-3 28 -31 -19z" id="97"/>
<path d="M2704 4583 l-57 -47 84 -19 c100 -24 141 -17 222 38 l52 35 -50 0 c-28 0 -69 9 -94 20 -66 31 -92 26 -157 -27z" id="98"/>
<path d="M4829 4513 c-32 -72 -34 -119 -9 -244 30 -156 65 -208 157 -235 35 -10 62 -26 82 -49 36 -42 41 -33 41 74 0 123 -44 255 -124 371 -37 55 -105 130 -118 130 -5 0 -18 -21 -29 -47z" id="99"/>
<path d="M3526 4509 c-19 -46 -35 -207 -18 -179 12 20 45 195 40 211 -2 7 -12 -7 -22 -32z" id="100"/>
<path d="M7699 4413 c-68 -78 -110 -115 -224 -194 -148 -104 -206 -132 -295 -144 -71 -9 -90 -20 -90 -50 0 -36 -36 -43 -68 -12 -25 23 -32 25 -93 20 l-67 -6 42 -63 c47 -73 104 -108 196 -119 l54 -6 -18 20 c-28 30 -11 26 41 -11 43 -31 49 -33 125 -31 85 3 175 26 195 51 15 18 8 32 -17 32 -10 0 -32 11 -47 26 l-28 25 30 -14 c78 -37 142 -23 201 45 37 42 107 218 107 268 0 37 -1 38 -63 27 -21 -4 -13 1 20 12 74 24 116 47 124 66 17 46 -6 155 -33 155 -5 0 -46 -44 -92 -97z" id="101"/>
<path d="M1161 4479 c-13 -5 -41 -25 -62 -44 -21 -18 -57 -39 -81 -46 -71 -19 -90 -32 -108 -74 -23 -53 -50 -76 -98 -82 -59 -8 -99 17 -127 81 -21 48 -39 66 -66 66 -37 0 25 -124 92 -184 126 -114 321 -168 614 -169 113 -1 157 3 230 21 100 25 177 58 215 91 l25 22 -30 -6 c-86 -18 -140 -17 -195 4 -70 27 -190 109 -210 144 -14 26 -12 43 16 128 5 13 -11 20 -80 38 -95 23 -101 24 -135 10z" id="102"/>
<path d="M2460 4397 c0 -14 7 -59 16 -102 19 -91 12 -117 -47 -169 -55 -51 -119 -66 -271 -66 -70 0 -128 -4 -128 -8 0 -23 173 -101 296 -133 78 -21 112 -24 269 -24 152 0 194 4 267 22 118 30 201 65 262 111 49 37 114 117 104 127 -3 3 -26 -4 -52 -16 -55 -24 -92 -19 -135 17 -16 13 -32 36 -36 51 -17 68 -45 69 -110 3 -57 -56 -94 -75 -130 -66 -30 8 -65 60 -65 97 0 51 -31 119 -67 147 -29 21 -49 27 -104 30 -68 4 -69 4 -69 -21z" id="103"/>
<path d="M5655 4374 c17 -7 122 -43 234 -80 179 -58 207 -64 227 -53 13 7 24 16 24 19 0 4 -39 15 -87 24 -111 22 -304 70 -362 91 -53 19 -77 18 -36 -1z" id="104"/>
<path d="M6860 4338 c0 -7 17 -39 38 -70 20 -32 62 -98 92 -148 30 -49 59 -90 64 -90 18 0 0 117 -28 173 -34 70 -108 147 -142 147 -13 0 -24 -6 -24 -12z" id="105"/>
<path d="M3693 4329 c-50 -14 -47 -25 10 -38 149 -33 370 -200 441 -332 36 -68 33 -64 51 -49 30 25 12 128 -31 180 -14 16 -70 53 -123 80 -54 28 -115 65 -137 84 -99 84 -134 97 -211 75z" id="106"/>
<path d="M5180 4319 c-2 -161 -41 -342 -136 -627 -60 -182 -76 -252 -55 -252 14 0 41 47 62 107 10 30 36 74 57 98 33 38 44 63 75 177 45 164 65 259 73 347 6 67 6 68 -31 117 -20 27 -39 51 -41 53 -2 2 -4 -7 -4 -20z" id="107"/>
<path d="M6797 4288 c-9 -23 -15 -43 -13 -46 2 -2 17 4 33 14 15 10 29 19 30 19 5 3 -22 55 -28 55 -3 0 -13 -19 -22 -42z" id="108"/>
<path d="M590 4288 c0 -54 23 -155 45 -202 29 -62 71 -107 142 -152 39 -25 59 -47 76 -81 32 -68 67 -85 186 -91 86 -4 105 -1 191 26 52 17 112 34 133 38 21 3 52 18 68 31 28 24 59 71 59 91 0 5 -64 12 -142 15 -164 8 -246 22 -373 66 -177 61 -294 140 -351 237 -29 50 -34 53 -34 22z" id="109"/>
<path d="M7810 4271 c-42 -33 -17 -41 95 -30 55 5 107 12 115 15 28 10 -11 21 -100 29 -77 6 -89 4 -110 -14z" id="110"/>
<path d="M3515 4243 c-48 -36 -105 -99 -105 -117 0 -7 32 -37 71 -67 120 -92 118 -91 177 -85 71 6 95 -6 122 -65 25 -53 29 -55 99 -65 64 -8 104 -33 143 -89 18 -25 35 -45 39 -45 13 0 26 25 33 62 4 21 19 51 33 68 l26 31 -24 52 c-29 64 -148 185 -245 249 -94 63 -164 89 -254 95 -71 5 -77 4 -115 -24z" id="111"/>
<path d="M3122 4233 c-102 -53 -26 -73 81 -22 84 41 94 37 125 -55 25 -76 23 -94 -19 -137 -15 -16 -26 -35 -23 -43 3 -8 1 -23 -5 -34 -10 -19 -7 -20 77 -24 48 -2 88 -4 88 -4 1 1 -3 32 -8 70 -7 55 -14 73 -34 88 -28 22 -32 71 -9 102 41 54 5 78 -125 83 -87 3 -99 1 -148 -24z" id="112"/>
<path d="M4584 4239 c-82 -40 -115 -152 -88 -302 18 -106 19 -215 4 -327 -9 -64 -8 -108 2 -194 18 -157 14 -253 -16 -379 -14 -60 -26 -118 -26 -129 0 -21 0 -21 21 -2 26 23 53 9 57 -30 4 -35 -13 -56 -47 -56 -15 0 -32 -5 -39 -12 -13 -13 -18 -212 -4 -206 4 2 35 18 69 36 95 49 110 77 188 362 31 115 62 180 114 243 66 79 76 187 25 275 l-30 52 -23 -41 c-33 -58 -35 -43 -5 32 21 50 27 82 28 149 1 92 4 84 -92 265 -44 82 -57 157 -38 219 14 47 14 47 -10 57 -34 12 -42 11 -90 -12z" id="113"/>
<path d="M6807 4218 c-60 -33 -147 -123 -147 -154 0 -11 21 6 59 48 33 36 81 75 108 89 26 13 50 25 52 27 3 1 0 7 -5 12 -5 5 -31 -3 -67 -22z" id="114"/>
<path d="M2740 4217 c0 -23 36 -49 59 -42 26 8 28 25 3 25 -10 0 -28 7 -40 16 -18 12 -22 13 -22 1z" id="115"/>
<path d="M5283 4133 c-7 -54 -29 -167 -51 -251 -21 -83 -38 -152 -36 -152 1 0 25 16 54 35 48 33 57 35 129 35 66 -1 85 4 143 32 51 25 69 39 73 58 3 14 11 44 19 67 l13 41 -46 12 c-101 25 -140 63 -172 170 -14 45 -14 45 -64 48 l-51 3 -11 -98z" id="116"/>
<path d="M6145 4220 c-11 -19 27 -47 87 -65 67 -20 214 -39 236 -30 15 6 14 9 -10 30 -43 37 -135 67 -224 72 -60 4 -83 2 -89 -7z" id="117"/>
<path d="M7950 4214 c-8 -1 -45 -6 -83 -9 -74 -7 -79 -12 -113 -107 l-14 -39 35 -15 c55 -23 118 -17 201 17 62 26 85 31 130 27 30 -3 54 -1 54 3 0 4 -25 35 -56 68 -52 57 -59 61 -98 60 -22 -1 -48 -3 -56 -5z" id="118"/>
<path d="M6450 4205 c0 -2 24 -20 53 -38 28 -18 67 -50 85 -71 33 -38 36 -38 32 4 -3 34 -27 59 -75 80 -45 20 -95 33 -95 25z" id="119"/>
<path d="M4449 4172 c-69 -45 -114 -101 -139 -177 -22 -67 -23 -115 -4 -220 10 -55 -13 -3 -26 58 -6 31 -14 57 -16 57 -3 0 -28 -19 -55 -42 -32 -27 -53 -54 -60 -78 -10 -33 -8 -44 25 -114 37 -81 26 -87 -19 -10 -14 24 -29 44 -34 44 -10 0 -52 -47 -77 -85 -17 -27 -19 -50 -19 -265 0 -216 2 -241 23 -307 23 -75 60 -131 146 -223 29 -30 67 -77 85 -103 18 -27 35 -46 39 -43 14 14 62 150 62 176 0 15 14 97 31 182 30 145 31 161 25 316 -4 137 -2 182 15 279 16 92 19 152 17 306 -2 163 1 198 15 231 10 22 16 41 14 42 -2 2 -23 -9 -48 -24z" id="120"/>
<path d="M6809 4166 c-32 -22 -69 -65 -69 -82 0 -8 190 5 207 15 8 4 4 19 -14 49 -21 35 -30 42 -57 42 -17 0 -47 -11 -67 -24z" id="121"/>
<path d="M7280 4150 c-41 -16 -99 -34 -127 -41 -80 -18 -63 -27 23 -12 76 13 142 37 179 67 28 22 11 19 -75 -14z" id="122"/>
<path d="M3237 4105 c-45 -71 -124 -141 -207 -184 -260 -136 -628 -138 -934 -6 -44 19 -82 33 -84 31 -14 -15 85 -129 135 -155 38 -19 46 -14 40 27 -6 37 -6 37 6 7 6 -16 25 -57 42 -90 29 -58 33 -61 127 -109 105 -52 178 -66 274 -51 l47 7 -59 53 c-76 70 -60 70 25 1 75 -60 139 -96 172 -96 12 0 42 11 65 25 34 20 51 41 83 102 41 78 41 92 -1 93 -23 0 -72 19 -65 26 3 3 31 1 63 -5 48 -9 67 -8 106 5 50 16 98 62 98 93 0 15 -8 18 -52 15 l-53 -3 42 9 c76 16 123 49 123 86 0 13 14 39 30 57 29 34 36 59 24 91 -9 24 -17 20 -47 -29z" id="123"/>
<path d="M1778 4096 c-18 -18 -45 -47 -59 -65 -22 -26 -34 -31 -68 -31 -79 0 -93 -15 -179 -192 -2 -5 4 -8 14 -8 40 0 1 -11 -86 -26 -51 -8 -98 -18 -106 -22 -30 -17 -74 -86 -74 -117 0 -18 -9 -44 -20 -58 -17 -22 -30 -27 -77 -29 -54 -3 -58 -5 -88 -48 -48 -69 -81 -81 -195 -74 -61 4 -109 13 -136 25 -54 25 -57 24 -39 -11 29 -55 120 -137 177 -158 173 -64 340 -46 495 55 57 37 243 257 268 316 7 18 21 73 29 123 18 104 62 199 110 242 38 33 92 112 77 112 -5 0 -25 -15 -43 -34z" id="124"/>
<path d="M6510 4110 c0 -9 41 -30 58 -30 9 1 -41 39 -50 40 -5 0 -8 -5 -8 -10z" id="125"/>
<path d="M1940 4071 c0 -24 52 -78 104 -107 70 -39 210 -86 318 -108 88 -18 290 -21 386 -6 68 11 227 59 219 66 -2 2 -42 -5 -88 -17 -108 -27 -355 -37 -467 -19 -155 25 -309 85 -408 161 -52 40 -64 46 -64 30z" id="126"/>
<path d="M6922 4070 c-66 -16 -43 -28 27 -14 17 4 28 10 25 15 -6 10 -6 10 -52 -1z" id="127"/>
<path d="M1655 4056 l-40 -12 30 -6 c22 -5 35 -2 50 13 22 22 16 22 -40 5z" id="128"/>
<path d="M1848 3988 c-18 -101 -15 -340 6 -455 25 -140 100 -383 113 -369 3 2 -4 33 -16 68 -71 218 -95 397 -88 641 3 103 4 187 2 187 -2 0 -9 -33 -17 -72z" id="129"/>
<path d="M1921 3978 c11 -40 35 -109 53 -153 29 -72 35 -80 61 -83 17 -2 38 -11 48 -19 25 -23 21 -10 -11 39 -16 24 -58 98 -93 165 -35 68 -67 123 -71 123 -4 0 2 -33 13 -72z" id="130"/>
<path d="M4873 4034 c11 -36 77 -355 84 -399 3 -25 9 -45 12 -45 4 0 28 66 55 146 33 101 46 153 41 172 -12 47 -44 81 -88 93 -23 6 -57 20 -76 31 -32 20 -33 20 -28 2z" id="131"/>
<path d="M1480 4013 c-52 -10 -114 -13 -200 -9 -86 3 -116 2 -95 -5 17 -5 95 -12 175 -16 145 -6 145 -6 184 21 43 29 42 29 -64 9z" id="132"/>
<path d="M3470 4002 c0 -32 15 -153 26 -199 4 -22 37 -32 47 -15 3 4 -2 50 -10 102 -11 75 -20 100 -39 120 l-24 25 0 -33z" id="133"/>
<path d="M5730 4001 c-56 -23 -80 -60 -80 -123 0 -53 2 -54 53 -33 20 8 39 15 43 15 15 0 -19 -28 -53 -44 -77 -36 -120 -122 -102 -205 10 -47 12 -49 53 -60 23 -5 53 -22 66 -36 l24 -25 13 52 c37 147 188 263 490 378 106 40 132 60 79 60 -13 0 -49 -12 -81 -26 -82 -38 -151 -32 -271 24 -103 48 -159 53 -234 23z" id="134"/>
<path d="M6780 4014 c0 -4 20 -43 44 -88 24 -45 53 -114 64 -155 24 -82 26 -86 43 -76 19 12 4 137 -24 198 -29 65 -83 127 -108 127 -10 0 -19 -3 -19 -6z" id="135"/>
<path d="M6716 3998 c4 -7 19 -31 33 -53 14 -22 37 -62 51 -89 13 -27 26 -44 28 -38 4 12 -63 149 -86 175 -17 20 -37 23 -26 5z" id="136"/>
<path d="M6670 3992 c0 -6 4 -13 8 -16 8 -4 90 -207 107 -260 4 -13 9 -16 15 -10 13 13 -12 97 -56 190 -31 65 -74 121 -74 96z" id="137"/>
<path d="M6596 3957 c-48 -72 -58 -167 -26 -247 34 -86 24 -140 -26 -140 -39 0 -113 101 -148 204 -5 16 -16 6 -57 -52 -27 -39 -58 -94 -67 -121 -9 -27 -32 -67 -51 -89 -19 -22 -36 -48 -37 -58 -17 -122 -16 -129 4 -154 l20 -24 57 52 c32 29 60 50 63 47 3 -3 -4 -12 -15 -20 -12 -8 -37 -37 -57 -64 -30 -41 -36 -57 -36 -99 0 -46 5 -57 43 -101 23 -27 45 -50 49 -50 4 -1 17 17 28 38 32 63 43 58 15 -6 -14 -32 -30 -77 -36 -101 -8 -38 -6 -48 18 -90 25 -42 28 -55 26 -131 l-2 -84 64 6 c39 3 84 14 112 28 42 21 52 33 85 99 21 41 44 102 52 134 33 126 30 650 -5 876 -12 77 -39 170 -51 170 -4 0 -14 -10 -22 -23z" id="138"/>
<path d="M6655 3960 c34 -144 45 -213 51 -318 6 -111 14 -143 26 -109 10 25 -12 245 -31 319 -19 73 -61 172 -46 108z" id="139"/>
<path d="M6421 3961 c-11 -7 -9 -10 9 -16 15 -5 28 -2 38 9 15 15 14 16 -8 16 -14 0 -31 -4 -39 -9z" id="140"/>
<path d="M6547 3952 c-25 -27 -49 -91 -42 -113 9 -27 22 -15 30 28 4 21 13 50 22 66 17 34 13 44 -10 19z" id="141"/>
<path d="M1722 3938 c-21 -26 -41 -89 -61 -191 -12 -58 -35 -136 -51 -173 -17 -37 -29 -68 -27 -70 2 -2 26 24 54 59 49 61 50 64 56 147 4 47 16 119 26 160 20 79 21 89 3 68z" id="142"/>
<path d="M1790 3883 c-19 -105 -21 -323 -4 -443 14 -92 49 -208 61 -197 2 3 -7 58 -19 123 -20 103 -23 150 -23 352 0 127 0 232 -1 232 -1 0 -7 -30 -14 -67z" id="143"/>
<path d="M3638 3942 c-57 -3 -57 -3 -64 -37 -3 -19 -3 -50 0 -68 l6 -33 69 4 c96 6 183 -24 237 -79 56 -59 125 -86 137 -55 8 20 -45 97 -80 117 -15 9 -50 20 -78 24 -66 9 -92 27 -115 79 -20 48 -30 52 -112 48z" id="144"/>
<path d="M6259 3906 c-292 -109 -461 -234 -493 -368 -9 -39 -2 -35 28 17 34 57 108 131 177 177 30 19 132 70 227 113 158 72 191 90 180 100 -1 2 -55 -16 -119 -39z" id="145"/>
<path d="M1747 3869 c-9 -41 -19 -94 -22 -119 -3 -25 -8 -58 -10 -73 -4 -23 -1 -28 12 -25 15 3 20 24 30 138 7 74 11 139 10 144 -2 4 -10 -25 -20 -65z" id="146"/>
<path d="M6400 3892 c0 -70 95 -270 136 -286 22 -8 28 20 15 62 -21 68 -115 237 -133 240 -12 2 -18 -3 -18 -16z" id="147"/>
<path d="M1910 3885 c0 -33 62 -205 72 -198 13 7 6 34 -36 133 -19 47 -36 76 -36 65z" id="148"/>
<path d="M3224 3873 c-25 -78 -44 -99 -120 -133 -38 -16 -84 -67 -84 -92 0 -4 14 -14 30 -23 22 -12 35 -13 49 -5 33 17 66 11 114 -21 56 -37 77 -35 97 10 59 134 85 175 118 185 40 11 41 33 4 69 -26 25 -34 27 -115 27 -75 0 -88 -3 -93 -17z" id="149"/>
<path d="M6182 3814 c-90 -40 -182 -87 -205 -103 -94 -64 -196 -196 -197 -253 0 -23 38 -48 75 -48 16 0 50 -13 74 -29 25 -17 48 -28 52 -25 14 9 39 99 41 148 l1 51 6 -45 6 -44 54 3 c50 2 58 6 92 44 21 23 49 69 62 102 13 33 49 97 79 141 43 63 55 87 51 108 -3 14 -10 26 -17 25 -6 0 -84 -34 -174 -75z" id="150"/>
<path d="M6960 3840 c0 -16 146 -126 263 -199 135 -84 193 -142 228 -232 21 -54 35 -72 89 -116 36 -29 71 -53 78 -53 25 0 13 65 -18 97 -22 22 -26 32 -17 36 9 3 18 36 25 89 12 96 3 160 -31 209 -22 32 -82 60 -115 54 -53 -11 -112 -14 -107 -6 3 5 30 13 60 16 30 4 55 11 55 15 0 5 -20 16 -45 25 -34 13 -59 16 -108 11 -45 -5 -80 -3 -118 8 -30 8 -79 18 -109 22 -30 3 -72 12 -92 20 -21 7 -38 9 -38 4z" id="151"/>
<path d="M1880 3778 c1 -155 38 -379 91 -546 40 -122 92 -237 112 -245 24 -9 43 -82 27 -102 -19 -23 -39 -18 -51 13 -6 15 -26 59 -45 99 -59 124 -122 286 -141 358 -10 39 -19 61 -21 50 -6 -41 66 -295 97 -344 35 -53 39 -82 15 -105 -31 -31 -82 -10 -138 56 l-36 43 0 -41 c0 -62 28 -210 54 -285 23 -65 91 -161 123 -173 9 -4 23 5 36 21 12 15 59 64 105 109 64 65 90 100 119 161 34 71 38 87 44 198 4 66 14 148 22 182 11 46 12 73 5 107 -12 58 -28 60 -28 4 0 -68 -39 -290 -56 -315 -17 -27 -32 -29 -60 -9 -18 13 -19 26 -16 158 2 79 -1 154 -6 168 -9 24 -10 23 -30 -22 -23 -53 -52 -74 -81 -59 -22 12 -33 114 -25 230 6 70 4 81 -24 136 -30 61 -72 177 -72 202 0 7 -4 13 -10 13 -6 0 -10 -27 -10 -62z" id="152"/>
<path d="M5525 3800 c-44 -26 -59 -30 -131 -30 -91 0 -109 -9 -220 -104 -48 -42 -101 -122 -89 -134 2 -3 21 6 42 19 47 29 117 30 191 0 29 -11 71 -21 93 -21 43 0 127 18 134 29 2 4 -1 27 -6 51 -13 59 -3 110 31 162 26 38 30 59 12 57 -4 0 -29 -13 -57 -29z" id="153"/>
<path d="M6970 3776 c0 -26 106 -110 242 -192 73 -43 145 -90 160 -102 15 -13 28 -20 28 -15 0 20 -93 96 -200 163 -63 39 -135 88 -160 109 -60 50 -70 55 -70 37z" id="154"/>
<path d="M2120 3752 c0 -5 29 -40 64 -80 35 -39 67 -79 70 -89 3 -10 19 -24 35 -31 17 -7 58 -45 92 -83 52 -59 76 -77 153 -114 50 -24 119 -49 154 -56 70 -13 228 -7 244 9 8 8 6 21 -6 45 -20 43 -20 51 -1 86 18 36 64 57 164 78 99 20 113 27 86 48 -11 8 -29 12 -40 9 -55 -16 -75 -15 -114 7 l-41 23 -33 -31 c-69 -65 -129 -78 -207 -42 -39 18 -52 19 -112 9 -95 -14 -183 5 -301 67 -74 39 -96 56 -113 87 -21 38 -55 65 -81 66 -7 0 -13 -4 -13 -8z" id="155"/>
<path d="M3593 3747 c-17 -7 -35 -15 -38 -19 -4 -4 2 -32 14 -63 31 -84 25 -88 -16 -12 -48 90 -103 114 -138 61 -16 -24 -65 -150 -65 -166 0 -4 33 -26 73 -49 169 -99 287 -204 387 -346 93 -131 137 -180 208 -234 36 -27 67 -47 69 -45 2 2 -8 21 -22 41 -14 21 -35 68 -47 104 -21 61 -23 87 -24 326 l-2 259 -33 12 c-19 7 -37 13 -41 13 -5 1 -9 -54 -9 -121 l-2 -123 -9 110 c-11 141 -21 178 -59 209 -57 48 -175 69 -246 43z" id="156"/>
<path d="M6963 3689 c-10 -27 -9 -42 12 -103 13 -39 29 -102 36 -141 16 -91 32 -108 112 -116 34 -4 79 -10 99 -14 33 -7 39 -5 46 15 5 12 5 43 2 67 -8 49 4 46 17 -6 7 -26 16 -36 48 -48 82 -30 79 -30 61 5 -25 48 -19 50 15 4 17 -24 33 -41 35 -40 9 10 -59 129 -86 152 -18 14 -86 58 -151 97 -66 38 -144 90 -174 115 -30 24 -56 44 -58 44 -1 0 -8 -14 -14 -31z" id="157"/>
<path d="M2029 3705 c-3 -3 -5 -76 -3 -163 2 -86 3 -178 4 -204 0 -34 4 -48 14 -48 48 0 76 271 38 370 -16 40 -39 60 -53 45z" id="158"/>
<path d="M2105 3695 c4 -11 12 -36 17 -55 6 -19 26 -54 46 -78 35 -43 36 -43 48 -20 10 18 10 28 -1 48 -18 33 -120 131 -110 105z" id="159"/>
<path d="M4471 3643 c-13 -64 -16 -159 -12 -358 2 -113 -1 -149 -28 -277 -34 -160 -37 -188 -21 -172 18 18 81 314 83 389 1 39 -4 125 -12 192 -11 100 -11 137 -2 199 15 90 9 109 -8 27z" id="160"/>
<path d="M6817 3668 c-8 -18 -20 -51 -27 -73 -7 -21 -23 -63 -36 -92 -25 -56 -31 -103 -14 -103 16 0 56 46 74 84 21 45 46 143 46 183 0 43 -23 43 -43 1z" id="161"/>
<path d="M6890 3631 c0 -44 -51 -178 -83 -218 l-34 -42 -6 -163 c-6 -188 -25 -269 -87 -385 -43 -81 -37 -91 29 -51 101 60 135 140 129 307 -3 114 7 121 19 13 l8 -74 46 64 c67 91 80 122 84 196 6 115 -56 372 -91 372 -8 0 -14 -9 -14 -19z" id="162"/>
<path d="M1681 3565 c-82 -89 -142 -215 -126 -266 12 -38 37 -14 74 71 20 47 54 110 74 140 34 51 48 100 28 100 -5 0 -27 -20 -50 -45z" id="163"/>
<path d="M2130 3519 c0 -11 10 -34 21 -51 19 -26 23 -28 37 -15 13 13 11 19 -13 51 -31 41 -45 45 -45 15z" id="164"/>
<path d="M2245 3520 c-9 -14 18 -61 84 -142 69 -85 138 -154 146 -146 10 10 -32 106 -68 156 -40 53 -130 142 -146 142 -5 0 -13 -4 -16 -10z" id="165"/>
<path d="M1475 3442 c-33 -41 -77 -88 -97 -105 -46 -37 -42 -48 4 -17 56 39 119 103 139 143 34 65 17 57 -46 -21z" id="166"/>
<path d="M3270 3511 c-8 -5 -69 -21 -135 -36 -132 -30 -165 -45 -165 -76 0 -39 34 -72 115 -110 86 -41 88 -51 3 -19 -29 11 -54 20 -55 20 -5 0 42 -138 54 -156 18 -28 60 -48 170 -80 48 -14 92 -29 98 -35 13 -13 -1 -11 -59 6 -70 21 -78 20 -70 -12 22 -95 93 -181 235 -285 134 -97 196 -108 351 -59 51 16 107 31 123 35 l30 5 -30 -14 c-16 -8 -36 -14 -42 -15 -7 0 -13 -4 -13 -9 0 -5 22 -11 49 -15 27 -3 69 -17 95 -31 l46 -24 24 24 c14 14 32 25 40 25 25 0 73 -48 90 -90 11 -28 22 -40 36 -40 26 0 25 8 -8 61 -47 74 -86 112 -215 212 -156 121 -197 166 -301 325 -97 150 -172 230 -308 330 -93 70 -125 82 -158 63z" id="167"/>
<path d="M5155 3509 c-17 -10 -133 -116 -294 -271 -59 -56 -103 -153 -147 -323 -20 -77 -45 -157 -56 -178 -11 -22 -17 -41 -15 -43 3 -3 27 -2 55 2 49 6 51 8 99 77 307 453 500 593 851 623 45 3 82 9 82 13 0 3 -18 25 -39 47 -47 51 -81 60 -159 40 -33 -9 -71 -16 -85 -16 -14 0 -61 -18 -103 -40 -43 -22 -79 -38 -81 -36 -4 4 42 44 73 63 17 10 15 13 -21 29 -50 21 -133 28 -160 13z" id="168"/>
<path d="M1726 3484 c-3 -9 -6 -46 -6 -83 0 -68 0 -68 26 -63 20 4 24 9 20 26 -2 11 -8 47 -11 79 -7 57 -17 71 -29 41z" id="169"/>
<path d="M2199 3394 c-16 -35 -23 -81 -30 -185 -8 -140 -6 -173 14 -166 14 4 22 38 41 168 18 123 21 215 6 224 -6 4 -20 -15 -31 -41z" id="170"/>
<path d="M2130 3423 c0 -5 7 -18 15 -29 12 -16 14 -16 15 -3 0 9 -7 22 -15 29 -8 7 -15 8 -15 3z" id="171"/>
<path d="M640 3414 c-1 -38 34 -114 66 -144 19 -19 54 -60 76 -92 49 -70 84 -87 142 -69 22 7 64 17 91 23 28 5 65 16 83 24 44 19 52 17 23 -5 l-23 -18 88 -31 c95 -34 197 -52 255 -45 34 5 36 7 46 56 10 46 9 56 -9 85 -17 28 -20 44 -15 97 l6 64 -52 -40 c-116 -88 -207 -113 -372 -99 -182 16 -261 49 -352 148 -29 31 -53 52 -53 46z" id="172"/>
<path d="M1661 3362 c-32 -84 -55 -112 -91 -112 -39 0 -54 29 -47 94 l5 51 -15 -35 c-9 -19 -18 -55 -20 -80 -4 -37 -1 -49 16 -64 17 -15 23 -16 36 -6 9 8 15 8 15 2 0 -6 -4 -14 -10 -17 -5 -3 -17 -31 -26 -61 l-15 -54 32 -50 32 -50 23 48 c28 59 30 43 4 -33 -22 -63 -26 -129 -11 -168 6 -14 38 -45 73 -70 35 -25 78 -66 95 -91 24 -33 39 -46 57 -46 14 0 27 4 31 9 3 5 -15 63 -41 128 -50 130 -67 196 -84 323 -6 47 -18 109 -27 137 -12 39 -14 61 -7 85 5 18 7 53 4 78 l-5 45 -24 -63z" id="173"/>
<path d="M6062 3408 c-7 -7 -12 -18 -12 -25 0 -8 -7 -27 -15 -42 -14 -28 -13 -29 25 -60 22 -18 40 -38 40 -45 0 -29 -43 -66 -101 -87 -75 -27 -89 -48 -105 -151 -21 -130 -62 -177 -175 -197 -92 -16 -118 -35 -164 -123 -47 -90 -67 -114 -118 -139 l-38 -20 37 -44 c32 -39 41 -45 76 -45 44 0 66 -10 119 -51 l36 -29 129 133 c198 203 293 339 355 507 28 78 29 86 21 170 -7 66 -15 95 -31 116 -16 20 -21 41 -21 85 0 55 -2 59 -23 59 -13 0 -28 -5 -35 -12z" id="174"/>
<path d="M5625 3370 c-95 -10 -146 -25 -234 -67 -95 -45 -221 -165 -340 -323 l-86 -114 -6 -81 c-4 -57 -15 -102 -37 -154 -17 -41 -29 -78 -26 -83 3 -4 21 -8 41 -8 20 0 75 -7 122 -16 132 -25 198 -16 312 43 l93 48 37 74 c21 40 48 84 60 97 27 29 24 30 -91 39 -47 3 -89 10 -95 16 -7 7 38 8 135 4 122 -5 156 -4 214 12 87 23 100 40 120 156 8 49 22 100 31 114 l17 26 -33 -6 c-19 -3 -45 -9 -59 -11 -14 -3 29 12 94 34 66 22 128 48 139 58 18 19 17 20 -65 83 l-83 63 -95 2 c-52 1 -126 -2 -165 -6z" id="175"/>
<path d="M6734 3352 c-7 -4 -13 -73 -18 -182 -3 -96 -11 -195 -16 -219 -15 -63 -4 -63 15 1 33 109 48 419 19 400z" id="176"/>
<path d="M2476 3336 c9 -25 129 -66 189 -65 22 0 12 6 -40 23 -38 12 -84 30 -102 39 -39 21 -54 22 -47 3z" id="177"/>
<path d="M3638 3293 c27 -32 84 -111 125 -175 97 -149 133 -189 288 -309 132 -102 193 -165 231 -236 27 -51 42 -56 33 -10 -18 85 -103 182 -271 309 -106 81 -157 134 -244 258 -51 74 -186 220 -203 220 -5 0 14 -26 41 -57z" id="178"/>
<path d="M1726 3294 c-9 -8 -16 -21 -16 -28 0 -27 62 -134 115 -198 63 -77 101 -106 116 -91 14 14 -1 42 -52 104 -21 25 -49 76 -64 114 -27 73 -38 91 -66 106 -13 6 -22 4 -33 -7z" id="179"/>
<path d="M2332 3248 c-13 -72 -4 -89 57 -109 20 -6 60 -25 89 -41 62 -35 85 -34 194 8 l69 27 74 -17 c61 -14 84 -16 127 -7 86 18 86 19 60 100 -14 43 -29 71 -37 71 -8 0 -44 -7 -82 -16 -88 -21 -231 -21 -309 0 -34 9 -64 16 -66 16 -3 0 -4 -19 -4 -42 1 -38 -2 -43 -23 -46 -18 -3 -37 10 -81 57 l-57 61 -11 -62z" id="180"/>
<path d="M7294 3279 c-16 -18 -26 -20 -69 -14 -27 3 -77 8 -110 11 l-61 6 -12 -59 c-7 -33 -25 -80 -42 -106 -16 -26 -30 -60 -30 -75 1 -68 72 -167 146 -202 36 -18 61 -22 138 -21 91 1 95 0 116 -26 18 -24 21 -38 19 -127 -1 -56 1 -111 5 -123 4 -12 37 -43 73 -69 51 -37 70 -57 87 -97 l22 -50 36 84 c51 119 61 162 61 259 -1 92 -29 216 -81 350 -26 68 -34 78 -84 112 -52 35 -83 78 -76 108 2 8 -14 18 -41 27 -25 7 -49 17 -55 23 -14 14 -20 13 -42 -11z" id="181"/>
<path d="M7488 3248 c2 -18 10 -40 18 -48 18 -21 102 -65 110 -58 3 4 1 22 -5 40 -8 24 -26 42 -65 66 -30 17 -56 32 -58 32 -3 0 -3 -15 0 -32z" id="182"/>
<path d="M5174 3191 c-100 -84 -270 -283 -258 -302 14 -23 39 -1 118 104 46 61 117 145 157 185 40 39 68 72 63 72 -6 0 -41 -26 -80 -59z" id="183"/>
<path d="M1746 3062 c10 -97 25 -132 18 -42 -3 41 -10 82 -15 90 -7 10 -8 -6 -3 -48z" id="184"/>
<path d="M2323 3015 c-1 -47 0 -85 1 -85 2 0 34 20 70 45 37 25 72 45 77 45 5 0 9 4 9 9 0 11 -120 71 -142 71 -10 0 -14 -21 -15 -85z" id="185"/>
<path d="M3007 3075 c-67 -25 -127 -28 -194 -11 -61 16 -63 16 -130 -9 -37 -14 -88 -30 -112 -36 -159 -35 -312 -176 -351 -321 -18 -66 -106 -243 -141 -282 -18 -21 -74 -71 -124 -111 -216 -174 -223 -190 -190 -405 18 -118 18 -223 1 -273 -8 -21 -37 -75 -64 -120 -78 -127 -87 -164 -87 -352 0 -88 4 -173 8 -189 8 -28 9 -27 53 50 27 48 71 105 113 146 104 102 133 179 151 402 17 209 39 274 154 466 35 58 95 160 135 227 135 230 226 322 406 408 93 45 121 69 236 206 64 75 132 111 226 117 88 6 93 18 23 56 -27 15 -52 31 -55 36 -8 12 -11 12 -58 -5z" id="186"/>
<path d="M6206 3048 c-39 -123 -80 -205 -158 -320 -64 -93 -248 -301 -318 -360 l-43 -35 18 -47 c10 -25 23 -46 30 -46 22 0 291 272 354 358 119 163 200 362 170 419 -17 31 -48 49 -53 31z" id="187"/>
<path d="M1245 3003 c-107 -15 -322 -82 -426 -134 -103 -51 -161 -107 -207 -199 -25 -51 -47 -82 -69 -95 -18 -11 -32 -23 -33 -26 0 -10 70 -39 96 -39 37 0 83 22 173 83 73 51 131 77 170 77 8 0 45 -14 83 -32 l69 -31 38 21 c21 12 48 22 59 22 12 0 51 27 89 60 37 33 108 83 156 112 l89 52 -7 46 c-12 80 -16 83 -141 85 -60 1 -122 0 -139 -2z" id="188"/>
<path d="M2056 2959 c6 -8 14 -27 18 -43 5 -21 10 -26 16 -17 12 20 -4 66 -25 70 -15 3 -17 0 -9 -10z" id="189"/>
<path d="M3040 2951 c-69 -21 -94 -43 -227 -199 -46 -53 -69 -68 -170 -119 -104 -51 -128 -67 -203 -143 -87 -88 -99 -106 -290 -429 -128 -216 -157 -287 -170 -423 -26 -261 -43 -337 -91 -414 -11 -19 -17 -34 -12 -34 4 0 44 7 88 14 188 34 228 65 313 239 68 137 76 146 230 256 115 81 133 103 166 198 12 37 26 76 30 86 6 13 3 17 -12 17 -25 0 -68 37 -76 65 -3 11 2 35 12 52 15 29 66 132 110 222 10 19 32 42 49 51 50 27 61 38 96 104 64 122 191 224 337 271 30 10 59 21 64 26 5 4 -9 28 -32 55 -23 25 -47 62 -54 80 -12 34 -13 34 -73 33 -33 0 -71 -4 -85 -8z" id="190"/>
<path d="M4474 2869 l-29 -31 35 4 c24 2 36 9 38 22 7 34 -13 37 -44 5z" id="191"/>
<path d="M710 2876 c-106 -39 -157 -75 -204 -141 -68 -94 -106 -109 -236 -91 -43 6 -59 4 -75 -8 -19 -15 -19 -15 13 -16 18 0 54 -10 79 -21 40 -18 61 -21 135 -17 103 5 126 19 165 107 30 68 61 105 127 154 28 22 53 41 55 43 9 8 -25 2 -59 -10z" id="192"/>
<path d="M6257 2823 c-10 -27 -37 -82 -62 -123 -24 -41 -43 -76 -41 -77 2 -2 23 6 47 17 24 11 56 20 71 20 35 0 38 6 39 87 1 62 -14 123 -31 123 -3 0 -14 -21 -23 -47z" id="193"/>
<path d="M4874 2813 c-9 -21 -32 -100 -52 -176 -49 -192 -32 -198 56 -19 40 81 46 102 46 160 1 56 -2 67 -17 70 -12 3 -22 -7 -33 -35z" id="194"/>
<path d="M1424 2771 c-51 -34 -123 -94 -170 -143 -66 -69 -91 -104 -143 -207 -34 -67 -61 -124 -59 -126 9 -9 187 116 223 156 22 24 71 88 109 142 38 54 92 118 119 143 46 41 49 47 39 69 -7 14 -15 25 -20 25 -5 0 -49 -26 -98 -59z" id="195"/>
<path d="M4405 2796 c-37 -55 -65 -141 -65 -198 0 -87 16 -78 23 13 4 63 12 95 36 142 31 64 35 87 6 43z" id="196"/>
<path d="M3247 2720 c-125 -45 -142 -54 -221 -129 -54 -52 -136 -172 -136 -199 0 -7 14 -12 34 -12 48 0 96 -11 96 -22 0 -6 -35 -7 -87 -3 -98 7 -129 -3 -149 -45 -10 -21 -32 -69 -53 -114 -2 -5 5 -6 15 -2 11 4 75 11 144 16 76 5 142 15 165 24 26 11 83 61 160 139 128 131 200 180 313 218 l64 21 -51 28 c-28 16 -80 49 -115 74 -36 25 -66 46 -68 45 -2 0 -52 -18 -111 -39z" id="197"/>
<path d="M1534 2721 c-21 -17 -64 -64 -94 -107 -136 -190 -163 -218 -282 -296 -134 -88 -238 -194 -290 -295 -20 -37 -61 -129 -91 -203 -46 -115 -55 -148 -61 -225 -7 -87 -12 -105 -52 -172 -10 -17 -16 -35 -12 -38 12 -12 208 95 252 138 34 32 48 56 61 102 24 83 48 128 87 160 46 39 85 54 216 81 63 14 122 29 132 34 15 8 19 25 21 92 4 73 8 88 34 124 60 84 132 113 235 95 81 -15 103 -8 173 57 29 27 79 70 113 95 34 26 74 67 91 90 34 49 109 205 101 212 -5 6 -71 -58 -129 -124 -46 -53 -75 -54 -130 -3 -37 33 -47 37 -88 34 -51 -3 -61 3 -109 65 -27 35 -120 113 -134 113 -2 0 -22 -13 -44 -29z" id="198"/>
<path d="M4792 2730 c-10 -17 -10 -20 3 -20 8 0 15 9 15 20 0 11 -1 20 -3 20 -1 0 -8 -9 -15 -20z" id="199"/>
<path d="M4391 2670 c-18 -85 -12 -122 16 -99 15 13 19 149 4 149 -5 0 -14 -23 -20 -50z" id="200"/>
<path d="M6580 2684 c-67 -32 -88 -37 -200 -45 -189 -15 -219 -32 -442 -254 -164 -162 -203 -209 -125 -151 43 32 116 68 239 117 96 38 138 59 280 138 126 71 305 109 447 97 178 -16 311 -70 474 -194 60 -47 107 -76 107 -68 0 7 -15 36 -33 62 -25 37 -49 57 -98 81 -67 34 -99 64 -99 92 0 38 -23 92 -44 106 -25 17 -287 55 -375 55 -44 0 -73 -8 -131 -36z" id="201"/>
<path d="M4655 2665 c-76 -20 -164 -55 -171 -67 -5 -8 -1 -9 12 -3 64 26 149 47 211 52 43 4 78 11 84 19 9 12 3 14 -37 13 -27 0 -71 -6 -99 -14z" id="202"/>
<path d="M3827 2624 c-3 -4 -46 -10 -94 -15 -176 -18 -297 -66 -415 -164 -76 -62 -93 -94 -23 -40 77 58 165 102 270 134 151 45 210 55 332 55 61 0 110 3 107 7 -11 19 -161 38 -177 23z" id="203"/>
<path d="M4650 2584 c-41 -24 -66 -44 -57 -44 23 0 113 43 147 70 49 38 -11 22 -90 -26z" id="204"/>
<path d="M4587 2605 c-40 -15 -101 -54 -94 -61 5 -6 122 41 149 60 21 15 21 16 3 15 -11 0 -37 -7 -58 -14z" id="205"/>
<path d="M4106 2594 c-3 -9 -6 -24 -6 -34 0 -23 70 -158 113 -217 30 -42 93 -91 103 -80 7 6 -22 63 -36 72 -18 11 -49 80 -66 148 -21 85 -47 127 -78 127 -13 0 -27 -7 -30 -16z" id="206"/>
<path d="M4718 2570 c-27 -17 -48 -32 -48 -34 0 -6 84 6 91 13 11 11 21 51 12 51 -4 0 -29 -14 -55 -30z" id="207"/>
<path d="M3815 2574 c-139 -21 -301 -66 -380 -106 -59 -30 -146 -92 -175 -123 -45 -50 -141 -114 -193 -131 -29 -9 -107 -20 -174 -24 -71 -5 -133 -15 -150 -23 -44 -23 -75 -62 -71 -89 3 -20 8 -23 44 -21 22 1 83 18 134 37 106 41 134 40 42 -1 -34 -16 -61 -31 -62 -35 0 -13 55 -66 85 -81 109 -54 198 -17 295 123 38 55 90 110 90 96 0 -4 -18 -33 -40 -65 -22 -31 -40 -60 -40 -63 0 -3 10 -8 23 -12 13 -3 38 -24 56 -46 46 -58 82 -73 156 -68 114 10 233 87 255 167 20 74 2 221 -31 241 -8 6 -8 9 0 14 7 5 20 -11 34 -41 17 -37 22 -67 22 -134 l0 -86 65 5 c91 6 116 31 125 121 9 86 22 136 41 156 24 23 60 18 81 -11 l19 -26 28 37 28 36 -28 65 c-25 56 -33 66 -64 74 -42 12 -173 20 -215 14z" id="208"/>
<path d="M6615 2550 c-106 -17 -217 -57 -312 -115 -50 -30 -149 -78 -219 -106 -120 -47 -204 -86 -204 -93 0 -1 26 -3 58 -3 33 -1 80 -10 112 -22 30 -12 98 -28 151 -35 53 -8 115 -24 137 -35 61 -31 89 -27 166 24 89 58 125 59 239 9 106 -47 140 -48 208 -5 90 57 112 65 169 65 69 0 183 -38 223 -74 25 -23 32 -38 37 -81 l5 -54 45 -11 c54 -13 527 -27 490 -15 -14 5 -65 21 -115 36 -166 50 -310 132 -549 313 -78 59 -169 120 -203 135 -131 58 -311 86 -438 67z" id="209"/>
<path d="M4675 2503 c-73 -7 -73 -13 0 -51 39 -21 128 -77 198 -125 164 -111 231 -145 396 -197 73 -23 154 -51 179 -62 132 -58 288 -193 333 -288 13 -27 27 -50 32 -50 14 0 29 54 22 85 -6 30 -101 190 -139 234 -12 13 -41 37 -65 52 -52 34 -47 38 9 9 22 -11 41 -20 44 -20 7 0 -4 96 -16 143 -10 42 -67 111 -109 133 -32 16 -133 18 -194 4 -57 -13 -55 -5 4 15 28 9 51 20 51 23 -1 13 -45 59 -71 76 -22 14 -34 15 -70 7 -63 -15 -145 -13 -236 4 -43 8 -101 15 -130 15 -46 0 -54 -3 -73 -31 -27 -37 -59 -36 -78 4 -7 15 -20 26 -30 25 -9 -1 -35 -3 -57 -5z" id="210"/>
<path d="M4265 2476 c-11 -7 -15 -18 -10 -25 5 -9 11 -7 22 9 19 26 13 34 -12 16z" id="211"/>
<path d="M4450 2483 c0 -22 65 -83 139 -130 47 -31 106 -74 131 -97 37 -33 45 -38 48 -23 7 36 -67 116 -162 173 -26 16 -67 41 -90 56 -40 26 -66 34 -66 21z" id="212"/>
<path d="M4308 2463 c-33 -36 -31 -66 6 -122 33 -49 36 -51 41 -28 9 34 -7 160 -21 164 -6 2 -18 -4 -26 -14z" id="213"/>
<path d="M4550 2476 c0 -3 26 -19 58 -35 31 -16 84 -53 117 -81 149 -128 280 -200 445 -245 189 -52 260 -78 324 -120 91 -60 212 -163 243 -208 31 -45 44 -42 15 4 -37 59 -147 161 -226 210 -58 35 -123 62 -240 100 -196 63 -240 85 -426 209 -167 112 -310 188 -310 166z" id="214"/>
<path d="M4404 2400 c4 -19 10 -71 13 -114 6 -71 8 -77 20 -60 16 20 12 89 -9 154 -15 50 -32 64 -24 20z" id="215"/>
<path d="M4451 2405 c0 -11 6 -47 12 -80 11 -57 13 -60 42 -60 27 0 30 -4 33 -33 8 -78 -54 -187 -182 -323 -76 -81 -213 -290 -251 -386 -50 -122 -53 -236 -13 -383 19 -66 28 -82 82 -137 82 -85 101 -91 201 -54 l79 28 -1 99 c-1 71 -7 115 -21 154 -33 94 -33 97 -3 35 17 -33 30 -67 31 -75 2 -45 18 -43 86 15 84 71 99 93 118 175 14 60 14 66 -6 119 -45 123 -47 178 -7 188 8 3 7 0 -3 -7 -10 -6 -18 -21 -18 -33 0 -24 51 -157 61 -157 13 0 110 140 124 179 19 55 19 144 1 202 -45 139 -62 166 -180 298 -51 56 -82 100 -94 133 -19 55 -92 137 -91 103z" id="216"/>
<path d="M4096 2352 c-14 -21 -26 -49 -26 -62 0 -21 6 -16 34 27 19 29 37 57 41 63 3 5 0 10 -8 10 -8 0 -26 -17 -41 -38z" id="217"/>
<path d="M3980 2350 c-24 -45 -40 -344 -21 -409 14 -51 28 -32 35 46 4 43 14 109 22 148 21 95 23 197 5 218 -18 22 -28 21 -41 -3z" id="218"/>
<path d="M4376 2298 c-4 -43 -14 -103 -21 -135 -7 -32 -12 -59 -10 -61 1 -2 12 12 23 30 23 38 34 133 23 198 -7 45 -7 44 -15 -32z" id="219"/>
<path d="M4124 2309 c-56 -90 -89 -202 -102 -349 l-7 -85 -30 0 c-45 0 -65 47 -65 153 0 80 -1 82 -20 72 -11 -6 -20 -15 -20 -21 0 -6 -16 -30 -36 -52 -93 -109 -130 -270 -86 -369 20 -47 91 -146 105 -147 4 -1 8 16 8 37 1 20 5 2 9 -41 6 -60 17 -96 48 -162 23 -47 44 -85 48 -85 4 0 4 21 0 48 -4 31 -3 42 4 32 5 -8 12 -40 15 -70 10 -92 26 -164 41 -188 18 -27 60 -31 49 -5 -21 57 -46 167 -51 233 -11 132 35 298 130 472 20 35 36 78 36 94 0 27 13 51 83 153 19 28 57 142 57 171 0 13 -10 21 -32 26 -21 4 -53 28 -90 65 -32 33 -60 59 -63 59 -2 0 -16 -19 -31 -41z" id="220"/>
<path d="M4570 2311 c0 -16 53 -86 115 -152 34 -37 77 -89 96 -115 44 -64 64 -81 123 -99 48 -14 126 -21 126 -10 0 3 -12 28 -26 56 -14 28 -24 53 -22 54 2 2 30 -35 63 -83 74 -109 119 -158 150 -166 15 -4 48 2 82 15 32 12 82 27 111 33 l53 12 -41 47 c-23 26 -37 47 -32 47 16 0 145 -147 160 -181 10 -24 18 -29 47 -29 l36 0 -16 33 -15 32 22 -29 c13 -16 38 -47 57 -68 31 -35 33 -42 29 -89 -5 -46 -3 -50 15 -47 31 5 60 51 61 100 1 56 -38 112 -139 197 -158 132 -204 155 -465 226 -102 28 -233 86 -304 135 -52 35 -59 37 -51 11 18 -58 -34 -67 -97 -16 -116 94 -138 107 -138 86z" id="221"/>
<path d="M4408 2133 c-39 -54 -90 -120 -113 -148 -39 -46 -65 -86 -65 -99 0 -3 8 -6 18 -6 66 0 235 208 257 318 12 59 -22 36 -97 -65z" id="222"/>
<path d="M5855 2190 c-3 -5 16 -15 42 -23 238 -72 479 -250 655 -487 102 -136 332 -558 409 -749 l34 -84 3 131 c5 230 -29 329 -155 464 -94 99 -97 104 -113 183 -28 138 -116 262 -281 395 -121 97 -143 108 -264 125 -49 8 -116 23 -147 34 -60 22 -172 29 -183 11z" id="223"/>
<path d="M5733 2154 c-3 -8 11 -38 31 -67 19 -28 41 -68 47 -87 6 -19 27 -66 45 -104 49 -99 43 -157 -23 -227 l-24 -27 29 -94 c36 -116 52 -147 112 -223 68 -86 137 -140 234 -184 93 -43 105 -56 151 -164 46 -108 88 -131 310 -167 92 -15 141 -38 192 -89 47 -47 71 -103 98 -226 9 -44 26 -97 36 -117 17 -34 53 -68 71 -68 13 0 9 153 -7 246 -44 253 -142 488 -373 889 -98 171 -172 272 -274 376 -173 175 -380 294 -581 334 -58 11 -69 11 -74 -1z" id="224"/>
<path d="M3704 2001 c-58 -54 -120 -86 -197 -103 -29 -6 -54 -13 -56 -14 -2 -2 19 -45 46 -96 240 -448 413 -1005 483 -1554 11 -85 20 -173 20 -194 0 -23 5 -40 11 -40 8 0 9 20 4 65 -21 201 -1 628 41 845 8 41 14 78 14 82 0 4 -15 14 -34 22 -41 17 -49 30 -71 116 -9 36 -36 101 -60 145 -23 44 -50 104 -60 133 -9 30 -39 82 -65 116 -61 80 -76 109 -88 176 -16 90 8 199 63 290 12 19 25 41 29 48 18 30 -33 7 -80 -37z" id="225"/>
<path d="M2756 1979 c-20 -19 -39 -48 -42 -65 l-6 -31 64 -6 c138 -13 226 -69 318 -204 84 -123 118 -161 178 -200 68 -43 75 -51 102 -128 41 -114 142 -271 219 -339 30 -27 28 -8 -15 116 -89 256 -242 578 -380 800 l-24 37 -47 -27 c-40 -22 -60 -27 -118 -26 -79 0 -120 17 -176 71 l-37 35 -36 -33z" id="226"/>
<path d="M3195 2000 c-3 -5 22 -56 56 -112 145 -239 270 -512 370 -807 43 -128 66 -183 88 -205 30 -33 56 -76 45 -76 -4 0 -39 30 -78 68 -67 63 -235 192 -252 192 -4 0 32 -36 79 -80 125 -117 217 -278 217 -378 0 -21 14 -78 30 -127 20 -60 38 -149 55 -273 14 -101 25 -188 25 -193 0 -5 32 -9 71 -9 l72 0 -7 82 c-25 297 -111 710 -213 1017 -72 218 -128 352 -238 576 l-103 210 -46 13 c-33 8 -58 25 -93 62 -46 49 -66 59 -78 40z" id="227"/>
<path d="M4870 1875 c0 -29 15 -41 84 -65 104 -35 146 -81 146 -160 0 -41 33 -91 50 -74 9 10 60 141 60 154 0 5 -16 14 -36 20 -21 7 -61 37 -94 71 -50 52 -61 59 -96 59 -21 0 -56 4 -76 9 -35 8 -38 7 -38 -14z" id="228"/>
<path d="M2675 1814 c-11 -22 -21 -41 -22 -44 -2 -3 28 -11 67 -18 139 -24 238 -94 338 -239 71 -104 97 -129 177 -173 33 -18 75 -43 93 -57 38 -28 39 -21 9 62 -20 54 -28 64 -87 102 -74 48 -88 64 -170 184 -103 151 -180 204 -320 216 l-65 5 -20 -38z" id="229"/>
<path d="M4209 1818 c-30 -49 -119 -234 -119 -249 0 -7 38 49 85 125 47 76 85 142 85 147 0 21 -32 6 -51 -23z" id="230"/>
<path d="M4886 1793 c-3 -4 -6 -26 -6 -49 0 -52 -24 -126 -55 -172 l-23 -34 82 -81 c66 -66 91 -99 127 -171 l44 -89 8 39 c5 21 24 97 43 168 l34 130 -35 28 c-31 26 -35 35 -35 77 0 73 -35 109 -140 146 -21 7 -41 11 -44 8z" id="231"/>
<path d="M5312 1768 c-61 -24 -65 -31 -115 -173 -46 -132 -80 -262 -111 -415 -28 -142 -59 -385 -54 -427 l3 -28 18 33 c10 18 42 49 72 68 33 20 57 43 59 57 3 12 12 90 21 172 30 288 79 485 159 640 22 44 42 83 44 88 7 13 -43 6 -96 -15z" id="232"/>
<path d="M5403 1703 c-81 -153 -128 -326 -157 -573 -9 -74 -18 -150 -21 -168 -2 -19 0 -30 6 -27 17 11 38 62 74 181 48 159 81 227 151 309 41 49 54 70 43 73 -8 3 -31 21 -51 42 -47 47 -57 92 -31 151 l20 44 20 -47 c12 -25 30 -51 41 -57 26 -14 87 -14 113 -1 42 23 10 60 -51 60 -45 0 -67 15 -80 55 -6 19 -17 35 -24 35 -7 0 -31 -35 -53 -77z" id="233"/>
<path d="M1710 1720 c-14 -11 -54 -29 -90 -40 -80 -26 -135 -57 -180 -105 -19 -21 -30 -36 -25 -33 6 2 53 25 105 51 52 26 125 57 162 68 64 19 68 22 68 49 0 35 -6 37 -40 10z" id="234"/>
<path d="M2535 1678 c-43 -29 -99 -72 -125 -95 -44 -39 -110 -144 -110 -174 0 -16 264 -90 345 -97 54 -4 80 1 190 44 87 33 155 35 210 6 22 -11 123 -79 225 -151 102 -72 188 -131 193 -131 41 -1 -137 177 -218 218 -99 50 -138 84 -205 182 -100 147 -169 202 -295 235 -99 25 -123 21 -210 -37z" id="235"/>
<path d="M6760 1640 c0 -39 24 -89 46 -94 27 -7 183 3 201 13 7 4 -28 24 -78 45 -100 42 -169 57 -169 36z" id="236"/>
<path d="M1650 1616 c-124 -43 -221 -101 -319 -190 -51 -45 -125 -136 -117 -143 5 -5 139 43 184 66 23 12 54 39 68 60 29 45 83 71 143 71 37 0 40 3 80 68 39 66 49 93 34 91 -5 0 -37 -10 -73 -23z" id="237"/>
<path d="M5555 1571 c-56 -6 -59 -7 -36 -19 26 -16 77 -9 107 13 14 10 15 14 4 13 -8 -1 -42 -4 -75 -7z" id="238"/>
<path d="M5766 1545 c-17 -13 -48 -27 -70 -30 -116 -17 -135 -26 -202 -97 -35 -37 -74 -89 -88 -116 -20 -39 -76 -201 -76 -218 0 -3 37 32 83 78 99 102 186 156 324 201 56 18 105 36 108 39 4 4 -40 156 -48 165 -1 0 -15 -9 -31 -22z" id="239"/>
<path d="M6919 1517 l-97 -12 74 -79 c66 -69 76 -77 92 -65 9 8 42 35 74 60 31 26 77 55 103 64 38 15 44 20 30 28 -27 15 -170 17 -276 4z" id="240"/>
<path d="M4747 1467 c-18 -37 -39 -120 -39 -155 -1 -29 31 -63 103 -113 99 -67 110 -87 142 -249 9 -41 21 -88 28 -105 l12 -30 8 30 c4 17 15 84 23 150 18 133 12 175 -39 275 -48 95 -172 230 -210 230 -7 0 -20 -15 -28 -33z" id="241"/>
<path d="M5780 1343 c-118 -34 -228 -94 -309 -170 -95 -87 -189 -216 -111 -149 42 35 120 56 204 55 89 -1 123 -13 186 -67 104 -90 159 -93 313 -21 59 29 128 54 153 57 60 6 47 20 -70 76 -78 38 -103 57 -174 130 -45 47 -82 90 -82 95 0 19 -29 18 -110 -6z" id="242"/>
<path d="M2880 1339 c-24 -10 -21 -12 60 -55 220 -114 397 -316 550 -629 101 -205 152 -381 166 -569 l7 -86 68 0 c38 0 69 1 69 3 0 1 -11 85 -25 187 -17 121 -35 216 -55 275 -16 50 -34 120 -39 156 -16 116 -99 252 -214 349 -34 29 -102 94 -152 144 -52 52 -133 120 -193 160 -93 64 -107 70 -160 73 -31 1 -68 -2 -82 -8z" id="243"/>
<path d="M2764 1293 l-41 -14 37 -37 c56 -56 80 -133 90 -287 4 -72 14 -149 21 -173 18 -63 78 -124 182 -188 152 -93 157 -102 168 -262 9 -130 14 -140 111 -256 l63 -75 119 -1 119 0 -7 77 c-22 246 -110 499 -257 735 -129 209 -261 345 -420 432 -103 57 -136 66 -185 49z" id="244"/>
<path d="M4664 1239 c-10 -12 -45 -41 -77 -66 -69 -53 -94 -95 -78 -130 17 -37 13 -68 -11 -91 -35 -32 -186 -85 -225 -77 -17 3 -34 1 -38 -4 -16 -27 -54 -364 -46 -413 1 -4 21 12 45 35 73 71 207 131 350 156 65 12 220 13 306 3 89 -11 97 -8 103 45 3 33 0 54 -14 77 -28 48 -49 113 -65 205 -9 47 -22 97 -30 113 -8 15 -48 50 -89 78 -42 28 -81 60 -88 70 -15 25 -19 25 -43 -1z" id="245"/>
<path d="M4091 933 c-41 -213 -63 -609 -46 -837 l7 -96 57 0 57 0 -6 48 c-20 161 -8 529 26 744 l15 98 -42 50 c-23 27 -45 50 -49 50 -4 0 -12 -26 -19 -57z" id="246"/>
<path d="M2495 951 c-26 -6 -27 -8 -10 -13 11 -4 38 -9 61 -13 41 -6 102 -39 188 -100 26 -19 60 -35 73 -35 25 0 25 2 19 46 -3 26 -11 53 -17 60 -34 41 -231 76 -314 55z" id="247"/>
<path d="M5270 898 c-30 -27 -81 -67 -113 -89 -71 -49 -89 -78 -118 -183 -20 -76 -21 -95 -15 -291 3 -116 9 -238 12 -272 l7 -63 61 0 61 0 1 273 c1 339 15 409 119 591 25 44 44 80 42 82 -1 1 -27 -20 -57 -48z" id="248"/>
<path d="M2375 888 c-16 -6 -37 -16 -45 -24 -8 -7 -47 -28 -85 -47 -39 -19 -80 -46 -92 -59 -20 -22 -57 -98 -50 -104 2 -2 21 5 41 16 106 53 181 30 322 -99 102 -94 164 -128 249 -137 79 -8 130 6 242 71 l93 52 -59 37 c-60 37 -114 90 -133 132 -7 16 -22 25 -50 29 -23 4 -66 26 -101 51 -109 77 -134 87 -222 91 -44 1 -93 -2 -110 -9z" id="249"/>
<path d="M1884 824 c-7 -3 -1 -16 15 -33 14 -15 34 -38 44 -50 17 -21 25 -23 79 -19 52 4 65 9 86 34 l25 29 -60 7 c-33 3 -80 12 -104 18 -70 18 -73 18 -85 14z" id="250"/>
<path d="M1753 769 c-18 -12 -33 -24 -33 -29 0 -4 31 -37 69 -72 50 -48 80 -68 113 -76 73 -19 131 7 165 72 l15 29 -45 -6 c-62 -9 -99 7 -142 59 -31 38 -42 44 -73 44 -20 0 -52 -10 -69 -21z" id="251"/>
<path d="M5267 673 c-15 -3 -31 -12 -36 -21 -8 -15 0 -17 79 -17 85 0 102 7 57 24 -36 13 -70 18 -100 14z" id="252"/>
<path d="M4570 616 c-197 -42 -347 -139 -378 -245 -15 -47 -16 -178 -2 -186 6 -3 10 -2 10 3 0 20 138 157 194 194 93 60 168 79 341 88 124 6 157 11 192 28 48 25 66 51 61 89 -3 30 12 27 -213 37 -101 4 -158 2 -205 -8z" id="253"/>
<path d="M5238 599 c-16 -6 -29 -19 -29 -30 -1 -10 -2 -24 -3 -31 -1 -8 14 -12 44 -10 38 2 51 -3 89 -33 24 -19 47 -35 51 -35 13 0 103 65 107 77 2 6 -22 23 -54 38 -64 31 -158 42 -205 24z" id="254"/>
<path d="M4937 468 c-32 -17 -65 -22 -190 -28 -123 -6 -166 -12 -224 -33 -120 -41 -225 -128 -307 -253 -22 -35 -27 -51 -25 -98 l2 -56 178 0 177 0 12 67 c16 90 41 146 76 170 41 28 55 32 162 44 149 16 192 51 192 153 0 31 -3 56 -7 55 -5 0 -25 -10 -46 -21z" id="255"/>
<path d="M4944 283 c-28 -15 -71 -26 -140 -33 -150 -17 -183 -44 -209 -170 -8 -41 -15 -76 -15 -77 0 -2 97 -3 216 -3 l215 0 -7 98 c-3 53 -9 122 -13 152 l-6 56 -41 -23z" id="256"/>
</g>
</svg>