<?xml version="1.0" ?><!DOCTYPE svg  PUBLIC '-//W3C//DTD SVG 20010904//EN'  'http://www.w3.org/TR/2001/REC-SVG-20010904/DTD/svg10.dtd'><svg height="850.000000pt" preserveAspectRatio="xMidYMid meet" version="1.0" viewBox="0 0 850.000000 850.000000" width="850.000000pt" xmlns="http://www.w3.org/2000/svg">
<metadata>
Created by potrace 1.14, written by Peter Selinger 2001-2017
</metadata>
<g fill="#ffffff" stroke="none" transform="translate(0.000000,850.000000) scale(0.100000,-0.100000)">
<path d="M0 4250 l0 -4250 2071 0 2070 0 -199 213 c-212 225 -466 478 -519 515 -38 27 -38 26 -48 -94 l-7 -81 32 -26 c30 -25 51 -32 92 -28 21 3 33 -36 25 -85 -7 -44 -37 -86 -94 -129 -36 -28 -55 -35 -90 -35 -29 0 -64 -10 -104 -30 -34 -18 -68 -28 -78 -25 -18 5 -36 -5 -189 -102 -36 -24 -76 -43 -88 -43 -22 0 -198 90 -285 146 -163 104 -343 278 -433 417 l-58 87 -36 -29 c-131 -102 -153 -98 -269 59 -36 48 -63 73 -107 96 -32 17 -68 43 -79 57 -12 14 -35 32 -52 40 -16 8 -47 34 -68 57 -49 52 -79 64 -123 48 -45 -16 -77 0 -105 54 -30 59 -23 151 24 290 89 264 230 458 386 531 l63 30 -62 24 c-73 27 -85 34 -290 168 -85 55 -171 110 -190 122 l-35 21 -65 -37 c-85 -48 -107 -87 -90 -163 9 -46 9 -55 -8 -78 -11 -14 -27 -27 -37 -28 -15 -3 -17 1 -11 24 7 26 -1 36 -102 134 -63 60 -119 123 -131 147 -31 63 -51 158 -51 250 0 169 71 295 223 398 27 18 60 50 75 72 70 105 198 221 304 277 34 19 37 23 36 66 0 65 20 125 56 164 42 47 79 54 111 22 30 -30 31 -41 5 -108 -26 -68 -26 -68 13 -57 118 34 309 28 436 -16 41 -14 76 -24 77 -22 2 2 -3 25 -11 52 -19 60 -19 144 -1 310 17 152 35 210 79 255 61 63 135 77 185 35 l30 -25 159 24 c193 30 254 52 334 122 151 131 299 106 325 -54 7 -47 -2 -112 -16 -112 -6 0 -10 7 -10 16 0 32 -26 6 -58 -58 -19 -36 -32 -75 -30 -86 3 -20 6 -19 58 14 261 168 588 250 785 199 126 -33 227 -109 283 -212 17 -32 32 -52 32 -45 0 17 -168 352 -178 352 -4 0 -13 -9 -19 -20 -19 -29 -71 -53 -101 -45 -14 3 -60 30 -101 59 -99 70 -205 123 -262 131 -53 8 -116 -7 -152 -35 -38 -30 -45 -24 -11 11 101 107 262 179 402 179 45 0 82 2 82 5 0 2 -23 40 -50 84 -82 129 -138 154 -406 185 -129 15 -172 27 -323 91 -110 47 -109 47 -329 -194 -102 -111 -113 -131 -138 -242 -18 -80 -44 -141 -77 -176 -32 -35 -39 -27 -15 18 18 34 20 54 17 132 -2 51 -3 142 -3 202 -1 128 15 174 85 250 48 52 90 76 163 94 27 7 90 39 140 71 142 92 216 123 306 128 53 3 94 -1 132 -12 74 -21 73 -21 42 18 -27 34 -28 34 -58 19 -41 -22 -116 -12 -209 27 -209 87 -380 270 -690 740 -160 243 -309 417 -500 585 -51 45 -57 55 -57 89 0 31 7 46 40 78 28 28 40 49 40 69 0 93 184 81 369 -23 288 -161 716 -559 944 -876 210 -292 271 -494 182 -600 l-24 -29 46 -54 c73 -85 204 -254 250 -322 23 -34 60 -88 83 -120 l40 -58 26 18 c13 10 34 35 44 55 11 20 41 52 67 70 42 28 58 33 122 37 41 2 92 -2 113 -9 59 -17 123 -81 148 -146 11 -30 31 -77 45 -104 14 -28 23 -50 20 -50 -3 0 -28 22 -56 49 -81 79 -123 95 -255 96 -129 0 -154 -12 -154 -71 0 -22 -6 -37 -19 -43 -17 -10 -12 -20 59 -128 99 -149 231 -395 301 -558 l53 -126 53 128 c116 278 274 582 410 791 40 62 73 114 73 115 0 1 -31 1 -69 -1 -76 -4 -106 7 -167 60 -114 100 -171 401 -145 777 6 97 18 223 25 281 8 58 13 107 11 109 -3 2 -23 -4 -47 -14 -26 -10 -93 -20 -167 -26 -68 -4 -149 -16 -180 -25 -53 -15 -211 -93 -210 -104 0 -3 18 -18 40 -35 139 -104 153 -109 209 -80 44 23 46 1 4 -44 -112 -124 -396 -148 -507 -43 -44 41 -63 88 -81 197 -29 177 -94 277 -240 370 -94 59 -111 84 -111 160 0 130 111 274 316 412 l104 69 -57 55 c-53 50 -58 58 -58 97 0 24 6 55 14 71 27 52 142 114 280 150 70 19 77 23 162 108 95 96 140 123 201 123 58 0 98 31 157 123 61 94 100 131 156 148 49 15 114 3 305 -56 77 -24 178 -51 225 -60 204 -41 318 -94 427 -200 l73 -70 0 55 c0 151 -52 358 -114 455 -45 69 -56 75 -56 31 0 -19 -5 -38 -10 -41 -32 -20 -100 80 -100 147 0 52 28 73 100 73 44 0 66 -5 87 -21 32 -24 41 -56 20 -75 -12 -11 -7 -22 30 -72 23 -33 43 -64 43 -70 0 -6 2 -8 6 -5 6 6 -20 164 -42 253 -8 33 -35 126 -61 206 l-46 147 -27 -16 c-22 -13 -33 -14 -53 -5 -38 18 -44 63 -15 121 39 78 103 82 169 11 45 -49 63 -90 55 -124 -8 -32 -29 -32 -55 1 -12 15 -21 24 -21 20 0 -4 20 -62 44 -129 77 -213 141 -469 167 -662 6 -49 17 -169 23 -265 9 -144 14 -174 26 -172 8 2 36 6 62 9 l48 6 20 66 c67 223 152 616 166 772 6 73 5 77 -15 84 -11 3 -26 15 -31 26 -16 29 3 55 54 74 37 14 47 24 61 61 11 29 23 44 34 44 24 0 58 -39 67 -75 3 -16 20 -42 35 -57 35 -33 37 -61 5 -82 -30 -19 -56 -88 -89 -236 -39 -175 -39 -173 4 -182 52 -10 150 -55 176 -80 69 -65 -30 -117 -127 -68 -22 11 -41 20 -43 20 -3 0 -8 -17 -12 -37 -4 -21 -31 -111 -61 -200 -30 -89 -54 -166 -54 -171 0 -9 120 -43 131 -36 4 2 54 68 110 145 56 78 158 214 227 303 109 140 167 211 295 362 15 18 34 55 42 82 8 27 27 67 41 88 36 53 54 97 54 134 0 43 26 90 50 90 34 0 55 -55 55 -146 0 -72 -4 -87 -37 -155 -20 -40 -53 -91 -72 -113 -30 -32 -41 -38 -66 -34 -27 4 -33 -1 -76 -66 -26 -39 -112 -158 -191 -265 -79 -106 -143 -195 -140 -197 2 -2 34 25 73 59 78 72 180 149 248 189 40 24 46 32 46 60 0 38 27 97 52 112 23 14 85 -16 99 -48 10 -21 7 -33 -18 -78 -17 -29 -33 -71 -37 -93 -15 -85 -25 -105 -56 -105 -29 0 -70 39 -70 67 0 21 -27 3 -113 -77 -78 -73 -253 -268 -246 -274 2 -3 29 0 59 6 150 28 458 -39 695 -151 103 -49 138 -79 175 -151 26 -52 40 -145 30 -200 -16 -81 -12 -110 19 -146 29 -32 41 -73 56 -185 4 -36 14 -54 41 -78 19 -18 47 -58 63 -89 16 -31 47 -92 70 -135 44 -85 49 -112 26 -157 -16 -32 -87 -85 -136 -102 -17 -6 -28 -15 -25 -22 2 -6 21 -47 40 -91 59 -134 71 -192 71 -355 0 -132 -2 -149 -23 -193 -36 -72 -102 -133 -187 -174 -63 -29 -89 -36 -162 -40 -68 -4 -92 -10 -106 -24 -10 -11 -38 -24 -62 -30 -37 -9 -63 -29 -150 -116 l-105 -106 -40 7 c-117 19 -139 27 -188 74 -27 26 -61 55 -76 65 -35 24 -45 51 -61 172 -7 55 -16 118 -20 140 -6 33 -3 44 14 59 20 18 22 17 103 -17 75 -32 176 -57 235 -57 21 0 20 2 -12 50 -18 27 -40 71 -49 98 -21 63 -45 84 -131 118 -83 32 -169 85 -187 114 -7 11 -15 20 -19 20 -3 0 -20 -20 -38 -45 -73 -102 -294 -297 -506 -447 -88 -62 -157 -130 -198 -195 -28 -45 -25 -51 17 -32 48 22 99 -13 67 -46 -5 -6 -13 -30 -19 -55 -5 -25 -11 -51 -13 -58 -3 -8 35 -30 103 -61 295 -133 528 -360 643 -628 45 -103 63 -176 77 -303 9 -89 9 -124 -6 -222 -21 -147 -39 -197 -31 -86 18 251 -87 506 -264 643 -135 103 -229 134 -611 199 -167 29 -250 53 -370 106 -118 53 -143 56 -263 31 -56 -12 -128 -26 -159 -32 -31 -5 -73 -21 -92 -34 -42 -28 -43 -27 -15 26 11 23 18 43 15 46 -5 5 -37 -54 -83 -149 -12 -27 -21 -48 -19 -48 2 0 36 15 77 34 41 19 117 48 169 66 84 29 103 32 171 27 76 -5 141 -29 168 -61 11 -13 5 -12 -30 4 -24 11 -58 20 -75 20 -89 0 -206 -77 -325 -216 -93 -109 -179 -183 -268 -235 -33 -19 -61 -40 -61 -47 0 -7 -5 -20 -11 -30 -18 -28 12 -90 48 -98 80 -18 103 -26 128 -46 26 -20 27 -24 22 -92 -2 -39 -10 -113 -18 -164 -11 -79 -16 -92 -32 -92 -11 0 -17 -5 -14 -12 2 -7 10 -40 17 -73 14 -64 30 -94 30 -56 0 41 59 201 102 275 60 103 168 207 259 250 99 47 211 62 349 47 136 -15 216 -14 274 4 185 56 379 -52 479 -265 109 -236 116 -247 175 -300 52 -47 54 -51 27 -44 -64 14 -103 42 -200 142 -111 115 -161 146 -289 181 -43 12 -117 38 -164 57 -107 44 -164 55 -222 43 -42 -9 -51 -17 -130 -120 -87 -113 -157 -176 -300 -272 -41 -28 -114 -89 -161 -136 -69 -69 -90 -98 -108 -144 -11 -32 -21 -70 -21 -85 -1 -35 53 -322 60 -322 3 0 23 26 45 56 74 104 199 216 360 324 244 163 361 280 447 444 23 45 43 75 45 69 2 -6 -5 -30 -17 -53 -12 -23 -34 -92 -50 -153 -67 -262 -217 -525 -479 -839 -110 -132 -219 -238 -244 -238 -3 0 -16 -4 -29 -9 l-24 -9 21 -173 21 -174 44 -1 c88 -1 102 -4 129 -33 15 -16 40 -30 59 -33 l33 -5 63 132 c120 251 261 462 389 582 45 42 67 70 72 94 13 59 41 102 107 165 79 76 154 125 319 209 525 267 1460 504 1712 434 37 -10 74 -50 63 -67 -3 -5 3 -17 14 -27 23 -21 40 -74 40 -126 0 -156 -201 -359 -539 -543 -436 -236 -978 -399 -1331 -400 -166 -1 -226 17 -293 85 l-47 49 -38 -19 c-42 -21 -139 -120 -193 -196 -55 -77 -113 -175 -107 -181 3 -3 27 8 52 25 114 71 310 91 423 42 51 -22 81 -46 71 -56 -3 -3 -19 2 -36 11 -55 27 -91 6 -233 -132 -147 -144 -186 -167 -289 -166 -101 1 -119 -14 -168 -140 -44 -111 -132 -389 -132 -414 0 -9 30 10 77 50 171 144 422 256 708 318 93 19 139 23 295 23 161 0 197 -3 275 -23 99 -26 299 -117 330 -152 18 -20 17 -20 -30 4 -82 41 -134 49 -268 43 -139 -5 -235 -24 -392 -74 -116 -37 -154 -56 -275 -136 -120 -79 -361 -262 -351 -265 5 -2 46 4 91 12 171 33 369 12 473 -48 104 -61 141 -131 157 -295 6 -61 18 -135 28 -164 l17 -52 1188 -3 1187 -2 0 4250 0 4250 -4250 0 -4250 0 0 -4250z" id="1"/>
<path d="M5455 8160 c3 -14 21 -84 40 -155 93 -357 108 -785 44 -1215 -22 -144 -67 -369 -96 -470 -14 -53 -15 -63 -2 -71 31 -20 44 -3 81 114 45 142 92 369 109 524 15 147 7 532 -16 673 -23 152 -61 317 -107 465 -36 118 -70 202 -53 135z" id="2"/>
<path d="M6048 8042 c-34 -22 -38 -30 -38 -66 0 -57 -35 -265 -71 -426 -53 -233 -109 -428 -206 -723 -36 -109 -63 -200 -61 -202 2 -3 80 176 172 398 92 221 176 421 187 445 l19 43 -38 -3 c-35 -3 -37 -2 -40 30 -4 38 20 72 49 72 10 0 20 4 23 8 3 5 19 73 36 152 18 80 41 168 51 197 l20 51 -26 26 c-31 31 -30 31 -77 -2z" id="3"/>
<path d="M5370 7834 c0 -3 13 -22 30 -42 68 -86 121 -254 140 -447 6 -60 14 -112 17 -115 11 -10 -8 326 -21 377 -31 115 -105 233 -147 233 -10 0 -19 -3 -19 -6z" id="4"/>
<path d="M6704 7759 c-268 -319 -639 -834 -828 -1148 -78 -130 -94 -161 -82 -161 2 0 24 33 49 73 59 94 243 352 317 442 31 38 71 93 90 120 18 28 129 178 245 335 239 321 289 394 283 411 -2 6 -35 -26 -74 -72z" id="5"/>
<path d="M4537 7590 c59 -9 160 -53 229 -101 56 -38 184 -158 184 -171 0 -6 -29 16 -63 49 -150 140 -286 203 -417 193 -32 -2 -31 -3 15 -10 109 -17 237 -83 345 -178 33 -29 65 -63 71 -75 7 -12 -12 1 -42 28 -140 131 -325 213 -439 195 -28 -5 -22 -7 35 -12 75 -6 179 -46 225 -87 29 -26 25 -25 -60 17 -76 37 -156 54 -212 46 -31 -5 -44 -14 -62 -43 l-23 -36 68 -6 c90 -9 199 -62 279 -136 33 -30 59 -58 56 -60 -2 -2 -26 16 -52 42 -68 64 -199 128 -273 133 -34 2 -67 -1 -81 -8 -20 -11 -16 -14 57 -38 94 -32 171 -77 244 -143 l54 -49 -75 55 c-80 59 -170 106 -238 124 -23 7 -83 10 -136 7 -105 -4 -133 -16 -195 -80 l-35 -36 70 0 c81 0 194 -26 274 -64 61 -29 60 -29 -60 11 -72 23 -102 27 -197 28 -99 0 -115 -2 -132 -20 -20 -20 -20 -20 59 -21 77 -2 237 -30 226 -41 -3 -3 -36 0 -73 7 -93 18 -235 16 -310 -3 -85 -22 -223 -76 -223 -88 0 -5 13 -9 29 -9 48 0 156 -38 208 -74 84 -57 132 -77 252 -102 92 -20 145 -39 261 -93 221 -105 418 -171 513 -173 52 -1 107 10 107 22 0 19 -105 101 -182 140 -45 24 -77 45 -71 47 12 4 121 -48 166 -79 16 -11 30 -18 33 -15 6 6 -57 56 -125 98 -30 18 -49 35 -43 37 14 4 138 -75 204 -130 27 -22 56 -53 65 -69 12 -20 28 -31 53 -35 61 -10 100 -25 130 -51 17 -14 30 -21 30 -16 0 11 -89 154 -132 210 -17 24 -29 45 -26 48 7 7 91 -101 143 -187 25 -39 45 -66 45 -59 0 7 -23 62 -51 122 -28 61 -49 113 -46 116 6 6 86 -148 123 -237 40 -96 26 -28 -21 99 -25 68 -44 128 -42 134 4 13 67 -140 114 -278 32 -95 33 -97 28 -45 -16 149 -54 285 -101 365 -34 59 -24 71 12 13 36 -56 71 -152 94 -258 l19 -85 0 70 c1 39 -6 110 -14 160 -8 49 -13 91 -11 93 8 8 28 -72 41 -165 l14 -98 -2 149 c-2 124 0 144 10 120 7 -16 13 -65 14 -109 l1 -80 14 74 c14 76 29 235 39 402 l5 97 -36 43 c-79 95 -207 179 -328 213 -32 10 -60 15 -62 13 -2 -2 21 -21 52 -42 70 -48 115 -103 153 -186 45 -99 47 -125 2 -32 -54 112 -91 155 -190 220 -70 47 -176 91 -188 79 -2 -2 13 -16 34 -31 50 -37 113 -97 113 -108 0 -4 -26 14 -58 42 -65 57 -81 64 -55 25 12 -20 0 -14 -51 25 -38 29 -94 65 -126 81 -73 37 -200 70 -259 69 l-46 -1 52 -8z" id="6"/>
<path d="M6056 7471 c-18 -34 -200 -470 -356 -851 -62 -151 -124 -301 -138 -333 -14 -31 -22 -61 -18 -65 9 -9 89 -32 94 -27 5 5 135 352 239 635 110 301 213 614 213 645 0 33 -16 31 -34 -4z" id="7"/>
<path d="M6675 7449 c-107 -70 -301 -259 -459 -449 -128 -155 -338 -459 -473 -684 l-83 -139 21 -28 c11 -16 26 -29 32 -29 7 1 37 44 67 97 304 533 715 1071 940 1230 22 16 40 34 40 41 0 6 -2 12 -4 12 -2 0 -38 -23 -81 -51z" id="8"/>
<path d="M5707 7078 c-26 -9 -27 -13 -20 -46 17 -77 7 -184 -27 -305 -18 -65 -31 -120 -28 -122 4 -4 159 463 158 478 0 10 -49 7 -83 -5z" id="9"/>
<path d="M6400 7048 c-19 -5 -43 -17 -54 -26 -37 -34 -346 -474 -363 -519 -4 -11 8 -7 38 14 60 41 128 75 142 70 6 -2 -20 -20 -58 -41 -65 -37 -216 -169 -205 -180 3 -3 28 13 55 35 68 54 163 111 177 107 6 -2 -9 -16 -34 -31 -53 -31 -161 -117 -155 -124 3 -2 34 16 70 41 68 48 141 86 167 86 8 0 -12 -15 -45 -33 -33 -18 -81 -47 -107 -65 -59 -40 -170 -143 -164 -150 3 -3 11 0 18 6 45 36 418 191 418 172 0 -3 -44 -24 -97 -45 -54 -21 -143 -60 -198 -86 -110 -53 -231 -142 -202 -147 9 -2 29 5 44 16 91 64 582 271 616 259 6 -2 -25 -16 -69 -31 -90 -32 -387 -167 -381 -173 3 -2 44 8 92 22 87 25 151 33 141 16 -3 -4 -25 -11 -50 -14 -99 -14 -322 -110 -295 -128 23 -15 65 -10 172 18 56 15 125 27 152 27 76 -1 171 -29 269 -80 216 -112 382 -154 604 -154 76 0 164 -5 193 -11 30 -6 106 -14 169 -18 63 -5 124 -12 134 -16 17 -7 18 -5 12 21 -4 16 -22 54 -40 84 -19 30 -46 81 -60 112 -17 36 -39 64 -59 77 -41 25 -207 81 -240 81 -14 0 -29 5 -33 11 -8 14 59 5 129 -18 27 -8 51 -13 53 -10 12 12 -120 50 -231 67 -72 11 -103 18 -78 19 64 2 192 -19 252 -40 64 -22 75 -19 29 9 -50 31 -133 52 -231 59 -48 3 -90 10 -93 15 -6 10 136 1 206 -12 25 -5 68 -19 95 -31 70 -32 73 -33 47 -10 -53 46 -212 80 -397 82 l-110 2 70 8 c137 16 347 -17 434 -68 l44 -25 -8 38 c-4 21 -11 47 -17 57 -14 27 -103 65 -195 84 -91 19 -381 22 -452 5 -24 -6 -39 -7 -35 -2 16 15 152 30 276 30 135 0 223 -11 305 -39 61 -20 68 -13 21 22 -64 47 -184 77 -353 88 l-120 7 150 -3 c159 -3 256 -23 318 -67 22 -16 27 -17 27 -4 0 23 -99 65 -206 87 -71 15 -142 21 -248 22 -109 1 -138 4 -110 10 55 12 306 1 389 -18 39 -8 96 -28 128 -43 69 -34 76 -20 15 32 -72 62 -239 111 -431 126 l-112 9 135 -4 c194 -4 355 -52 430 -126 19 -20 30 -25 30 -16 0 19 -78 91 -127 115 -62 32 -171 63 -273 77 l-95 13 66 1 c115 2 280 -49 371 -114 60 -44 62 -31 4 23 -55 51 -103 75 -208 106 -91 27 -78 35 17 11 80 -21 131 -45 188 -88 37 -29 47 -33 47 -19 0 29 -58 119 -93 146 -76 58 -305 141 -485 176 -111 22 -281 26 -342 8z" id="10"/>
<path d="M5972 7023 c-11 -20 -62 -161 -62 -170 0 -3 31 24 70 60 38 37 81 74 96 83 l26 18 -43 13 c-59 17 -77 16 -87 -4z" id="11"/>
<path d="M5657 6945 c-17 -213 -17 -211 -7 -180 16 50 29 177 21 220 -6 36 -8 32 -14 -40z" id="12"/>
<path d="M3561 6964 c-12 -15 -21 -39 -21 -53 0 -35 39 -91 87 -124 l40 -27 65 30 c36 17 97 38 137 48 39 9 71 19 71 22 -1 12 -157 100 -177 100 -12 0 -27 -9 -33 -19 -13 -25 -13 -78 0 -86 6 -3 10 -11 10 -17 0 -6 -9 -3 -20 7 -22 20 -27 74 -9 107 13 24 5 35 -15 19 -26 -22 -29 -67 -7 -116 11 -25 15 -45 10 -45 -6 0 -20 21 -31 47 -18 40 -19 54 -10 88 13 49 7 58 -19 26 -26 -32 -24 -81 6 -125 28 -41 29 -46 15 -46 -5 0 -21 20 -35 43 -26 46 -32 95 -15 128 17 30 -24 25 -49 -7z" id="13"/>
<path d="M5999 6907 c-77 -72 -125 -146 -164 -251 -19 -55 -34 -104 -32 -109 1 -5 22 24 46 65 24 40 82 131 127 201 46 70 84 130 84 133 0 12 -19 0 -61 -39z" id="14"/>
<path d="M3885 6815 c-174 -38 -439 -199 -553 -338 -73 -87 -109 -187 -91 -251 10 -37 69 -98 76 -79 9 26 49 77 63 81 8 3 2 -9 -13 -27 -15 -18 -27 -45 -27 -59 0 -24 2 -23 21 15 12 24 38 56 59 73 58 46 59 36 1 -21 -28 -27 -52 -57 -52 -65 -1 -7 -2 -18 -3 -23 -1 -5 22 -27 51 -49 28 -23 59 -55 69 -71 l18 -30 34 39 c18 22 59 60 90 84 55 42 172 112 172 103 0 -2 -33 -26 -72 -52 -97 -64 -164 -122 -188 -161 -20 -31 -20 -33 -3 -65 10 -19 19 -36 21 -39 2 -3 8 3 14 13 21 39 69 84 122 116 31 19 59 31 62 28 3 -3 -9 -13 -28 -23 -79 -41 -158 -127 -158 -172 0 -12 1 -22 3 -22 1 0 34 30 72 68 68 66 163 122 230 137 17 4 -13 -15 -65 -41 -70 -34 -111 -64 -157 -110 -73 -72 -85 -105 -17 -45 48 42 132 93 174 105 14 4 -5 -10 -42 -32 -124 -74 -187 -135 -174 -169 5 -12 15 -7 50 25 24 22 81 58 127 80 126 60 148 60 31 0 -112 -58 -189 -117 -197 -151 -4 -13 -1 -35 4 -51 l11 -27 33 35 c33 34 91 65 217 112 36 14 82 36 103 50 77 51 157 72 321 84 101 7 139 14 174 32 l45 23 23 113 c13 63 35 139 49 169 14 31 25 57 25 59 0 9 -101 3 -179 -11 -47 -8 -87 -13 -89 -11 -8 9 103 36 187 47 93 12 112 18 119 39 4 11 -19 12 -124 7 -71 -4 -167 -13 -214 -22 -98 -17 -111 -18 -88 -5 25 15 231 48 350 56 l106 7 43 43 43 44 -51 0 c-122 0 -410 -51 -571 -100 -80 -25 -93 -19 -20 8 103 38 290 83 468 111 l55 9 -76 1 c-100 1 -260 -15 -379 -39 -52 -11 -96 -18 -98 -16 -2 2 19 11 45 20 73 25 231 47 398 54 l150 7 -105 14 c-119 16 -284 19 -380 9 -53 -6 -60 -5 -40 4 36 17 342 22 461 8 56 -6 103 -10 105 -7 2 2 -56 17 -128 33 -113 24 -156 28 -287 29 -147 0 -152 1 -100 13 51 12 189 11 309 -3 l45 -5 -55 20 c-65 25 -178 50 -222 50 -17 0 -28 3 -25 7 4 4 33 6 65 5 l57 -2 -60 31 c-72 38 -90 44 -220 69 -115 23 -137 23 -220 5z" id="15"/>
<path d="M2070 6662 c184 -63 569 -325 652 -446 14 -20 0 -11 -43 29 -141 132 -320 256 -494 341 -123 60 -195 80 -225 64 -30 -16 -24 -30 8 -19 94 33 321 -110 644 -407 206 -188 482 -488 596 -648 48 -67 34 -56 -29 21 -93 116 -282 323 -413 453 -122 121 -145 138 -109 83 10 -14 -25 17 -77 69 -88 88 -302 258 -325 258 -5 0 19 -26 55 -58 120 -106 135 -120 130 -126 -3 -3 -37 22 -75 56 -157 136 -269 210 -381 249 -45 15 -55 15 -71 4 -17 -13 -16 -14 8 -15 44 0 91 -21 174 -76 87 -57 228 -183 206 -184 -7 0 50 -62 126 -137 164 -162 283 -293 450 -498 114 -140 293 -373 293 -381 0 -11 -18 10 -144 171 -214 272 -374 454 -575 655 -268 268 -442 390 -555 390 -41 0 -46 -3 -46 -22 0 -14 18 -37 47 -62 76 -65 238 -231 318 -327 40 -48 143 -193 228 -321 234 -351 397 -541 538 -625 94 -56 96 -49 9 38 -76 74 -269 290 -309 344 -20 28 83 -78 216 -222 109 -117 212 -205 262 -225 14 -5 41 -8 60 -6 l36 3 -50 18 c-64 22 -168 100 -241 180 -107 118 -97 121 22 6 118 -113 182 -157 259 -174 28 -6 24 -1 -40 67 -88 91 -324 392 -282 359 10 -8 71 -80 136 -160 115 -142 196 -227 238 -249 17 -10 22 -8 26 8 18 68 -56 211 -195 378 -38 45 -64 82 -59 82 17 0 170 -189 217 -270 25 -41 50 -95 56 -119 9 -36 13 -41 19 -25 11 29 10 124 -2 169 -24 86 -113 237 -187 317 -14 15 -23 30 -20 34 9 8 114 -121 159 -197 61 -101 82 -171 82 -263 1 -67 2 -76 14 -60 20 27 16 126 -8 197 -61 183 -245 442 -504 706 -329 337 -657 568 -833 587 l-47 5 55 -19z" id="16"/>
<path d="M4975 6650 c16 -16 31 -28 33 -25 7 7 -39 55 -52 55 -5 0 3 -13 19 -30z" id="17"/>
<path d="M2130 6560 c20 -13 33 -13 25 0 -3 6 -14 10 -23 10 -15 0 -15 -2 -2 -10z" id="18"/>
<path d="M4949 6546 c-109 -31 -216 -115 -290 -229 -71 -109 -101 -218 -141 -517 -30 -223 -33 -659 -5 -787 27 -126 56 -192 107 -245 57 -59 70 -61 63 -9 -3 22 -2 57 3 78 7 36 8 34 14 -35 4 -40 11 -77 16 -82 7 -7 9 10 6 51 -3 33 0 65 5 70 6 6 9 -9 10 -39 1 -83 26 -108 92 -94 33 7 35 10 56 92 22 88 67 214 86 240 9 13 10 13 5 -2 -94 -295 -97 -311 -68 -327 25 -14 32 -14 32 -1 0 19 42 120 49 120 5 0 0 -25 -10 -57 -11 -31 -19 -70 -18 -87 0 -22 9 -4 28 59 15 50 38 115 50 145 46 113 104 241 108 237 2 -2 -23 -72 -56 -154 -66 -166 -108 -310 -98 -336 3 -9 19 -19 34 -22 15 -3 48 -12 73 -20 54 -17 65 -10 100 65 30 65 37 58 10 -11 -25 -68 -25 -70 5 -34 35 43 31 17 -5 -32 l-30 -40 23 -20 c12 -11 35 -29 51 -40 l30 -20 27 56 c26 55 79 133 79 117 0 -5 -16 -35 -36 -68 -44 -72 -53 -125 -29 -162 19 -29 35 -34 35 -11 0 31 32 77 127 183 52 59 104 124 114 144 33 65 79 107 275 253 105 79 232 182 282 230 278 265 337 499 184 732 -72 111 -169 172 -252 158 l-38 -6 39 -36 c42 -38 82 -100 93 -143 4 -14 -4 -5 -18 20 -28 52 -93 130 -108 130 -5 0 4 -17 22 -37 34 -38 69 -107 70 -133 0 -8 -11 8 -24 37 -14 29 -43 72 -67 97 -36 39 -47 46 -80 46 -22 0 -39 -3 -39 -7 0 -5 16 -33 35 -63 35 -54 44 -76 25 -65 -6 4 -8 -17 -5 -57 4 -57 4 -59 -4 -18 -5 25 -14 56 -19 70 l-11 25 -1 -25 c-1 -16 -7 -5 -16 30 -29 107 -88 163 -148 140 -21 -8 -26 -15 -21 -28 15 -35 35 -105 28 -99 -3 4 -14 24 -23 45 l-17 37 3 -90 c3 -88 3 -89 -6 -27 -14 96 -26 125 -80 180 -35 36 -63 54 -92 62 -24 6 -50 13 -59 16 -42 12 -177 -131 -266 -281 -59 -98 -69 -105 -24 -17 42 83 123 194 187 257 37 36 50 55 39 55 -39 0 -126 -67 -186 -142 -45 -57 -53 -51 -11 8 30 41 93 101 136 129 l26 17 -24 19 c-14 11 -39 44 -56 74 -31 54 -33 55 -75 55 -25 0 -67 -9 -95 -20 -28 -11 -54 -20 -58 -20 -14 1 33 24 93 47 l60 22 -45 0 c-40 1 -126 -15 -185 -34 -11 -3 -7 1 8 10 42 24 160 46 207 39 l41 -7 -22 37 c-28 47 -80 90 -128 105 -49 14 -143 13 -202 -3z" id="19"/>
<path d="M1890 6540 c-11 -7 -6 -10 20 -10 45 0 156 -54 238 -114 66 -49 86 -58 57 -26 -31 34 -166 122 -216 141 -55 21 -77 23 -99 9z" id="20"/>
<path d="M5770 6430 c-6 -12 -9 -24 -7 -27 3 -2 11 5 17 17 6 12 9 24 7 27 -3 2 -11 -5 -17 -17z" id="21"/>
<path d="M2240 6345 c13 -14 28 -25 33 -25 6 0 0 11 -13 25 -13 14 -28 25 -33 25 -6 0 0 -11 13 -25z" id="22"/>
<path d="M6341 5983 c6 -10 41 -38 77 -63 73 -49 292 -260 312 -300 7 -14 -27 16 -76 66 -80 82 -242 219 -249 212 -2 -2 7 -34 21 -73 32 -96 32 -183 -2 -283 -14 -42 -34 -91 -45 -109 l-20 -32 32 -36 c37 -42 67 -59 163 -91 38 -13 79 -30 92 -38 12 -9 37 -52 58 -101 23 -56 57 -113 95 -160 80 -99 98 -150 83 -223 -7 -31 -27 -79 -47 -109 -43 -64 -32 -69 23 -9 82 89 97 121 97 208 0 93 13 105 17 16 l3 -63 11 55 12 55 2 -50 c2 -60 8 -49 20 36 l9 64 -3 -70 c-2 -38 -6 -78 -11 -87 -6 -14 -2 -18 17 -18 57 0 107 105 115 241 7 102 -6 163 -53 269 -19 41 -27 66 -18 55 26 -33 62 -115 80 -185 20 -78 15 -215 -10 -274 -22 -53 -11 -58 29 -14 87 94 87 322 1 485 -19 35 -29 59 -22 54 25 -21 67 -112 86 -187 37 -144 20 -289 -41 -359 -34 -39 -22 -47 29 -21 74 39 112 112 114 219 0 60 2 67 10 42 5 -16 7 -57 4 -90 -5 -59 -4 -59 9 -25 18 48 19 7 0 -45 -8 -21 -12 -41 -10 -44 5 -5 44 79 45 96 0 6 5 15 10 18 14 9 4 -36 -21 -92 -10 -24 -14 -43 -9 -43 20 0 97 69 127 114 43 64 53 103 53 219 0 215 -79 430 -206 561 -21 21 -66 52 -101 68 -55 26 -84 32 -221 44 -86 7 -173 18 -192 24 -80 23 -68 6 37 -52 62 -35 125 -73 140 -86 21 -16 13 -14 -27 8 -106 60 -400 203 -405 198 -3 -3 45 -33 107 -67 144 -80 283 -177 361 -253 l62 -59 -94 74 c-113 89 -247 174 -399 253 -122 63 -160 69 -60 9 143 -85 358 -249 344 -262 -2 -3 -33 19 -68 49 -97 82 -390 268 -422 268 -13 0 -12 -1 99 -85 131 -100 279 -229 310 -273 28 -37 27 -36 -21 9 -112 104 -266 226 -401 317 -68 46 -78 50 -62 25z" id="23"/>
<path d="M7260 5860 c45 -21 84 -51 127 -97 70 -75 77 -76 158 -21 99 67 92 108 -18 108 -34 0 -105 7 -157 15 -196 30 -183 31 -110 -5z" id="24"/>
<path d="M3777 5699 c-26 -12 -46 -27 -44 -32 7 -23 59 -51 114 -63 l58 -12 -48 -1 c-26 -1 -62 6 -78 15 -32 16 -49 14 -27 -3 32 -24 103 -43 164 -43 41 0 63 -4 59 -10 -9 -15 -105 -12 -164 6 -30 8 -69 30 -92 51 -24 22 -39 30 -39 21 0 -41 108 -97 190 -98 48 -1 52 -3 30 -11 -60 -25 -182 17 -229 78 l-21 28 2 -35 c3 -31 9 -38 58 -63 53 -27 60 -28 170 -25 100 4 123 8 177 32 34 16 69 36 77 45 13 15 10 16 -38 16 -49 0 -59 4 -129 58 -89 69 -122 76 -190 46z" id="25"/>
<path d="M3337 5094 c-10 -11 82 -122 121 -144 19 -12 36 -19 39 -16 2 2 -24 39 -59 82 -60 74 -85 94 -101 78z" id="26"/>
<path d="M6415 5039 c-4 -5 -2 -38 4 -72 6 -34 15 -96 21 -139 12 -95 25 -123 62 -139 16 -7 43 -29 60 -50 16 -20 42 -42 57 -48 30 -12 142 -34 145 -29 1 1 18 29 39 60 20 32 37 59 37 62 0 2 -26 5 -58 8 -31 2 -78 14 -103 26 -46 23 -141 108 -161 146 -6 11 19 -7 55 -42 79 -75 157 -115 219 -110 l43 4 -40 8 c-79 17 -163 65 -235 136 -39 38 -70 75 -70 82 0 6 30 -18 68 -56 46 -46 89 -78 137 -101 72 -34 145 -53 145 -37 0 5 -18 12 -40 15 -73 10 -196 84 -234 141 -12 20 0 13 46 -24 74 -60 104 -67 36 -9 -27 22 -48 45 -48 52 0 6 10 1 23 -11 28 -27 39 -28 30 -4 -5 12 4 8 28 -12 45 -38 106 -66 147 -66 40 0 41 12 3 72 -24 37 -37 48 -63 52 -158 24 -219 39 -271 66 -63 33 -73 35 -82 19z" id="27"/>
<path d="M3077 4990 c-32 -10 -83 -34 -115 -53 -179 -108 -177 -107 -149 -107 35 0 180 -48 285 -95 67 -30 115 -42 240 -62 169 -26 278 -53 330 -84 48 -28 39 -9 -27 55 -36 34 -88 70 -133 91 -40 19 -65 35 -55 35 24 0 134 -56 180 -92 60 -48 43 -17 -30 54 -74 70 -108 92 -193 119 -30 10 -46 18 -34 18 34 1 135 -37 171 -65 53 -40 50 -22 -4 26 -32 29 -38 37 -18 25 17 -10 39 -26 51 -36 36 -33 39 -20 3 17 -54 57 -158 121 -241 148 -92 31 -177 33 -261 6z" id="28"/>
<path d="M2700 4801 c-96 -30 -158 -92 -192 -191 -19 -57 -20 -75 -13 -236 4 -96 9 -173 11 -171 2 2 13 47 24 100 26 128 46 164 144 261 81 80 135 146 119 146 -4 0 -31 -23 -60 -52 -72 -71 -67 -47 6 30 61 64 63 74 8 45 -60 -30 -89 -58 -133 -123 -50 -73 -58 -70 -15 5 36 64 98 120 165 151 29 13 42 24 31 24 -30 0 -126 -47 -157 -78 -16 -14 -28 -21 -28 -16 0 17 53 61 105 88 48 24 40 33 -15 17z" id="29"/>
<path d="M3962 4690 c-60 -35 -64 -48 -9 -25 66 27 163 15 232 -31 40 -26 24 -26 -30 1 -54 28 -152 34 -202 13 -27 -11 -25 -12 37 -19 132 -16 233 -48 304 -94 l29 -19 -7 24 c-34 118 -102 171 -224 177 -72 4 -81 2 -130 -27z" id="30"/>
<path d="M4841 4616 c-131 -194 -283 -473 -391 -721 -92 -210 -128 -285 -137 -285 -5 0 -26 42 -47 93 -41 98 -177 366 -243 480 l-40 69 -6 -48 c-5 -45 1 -59 98 -253 56 -113 129 -268 160 -343 l58 -137 44 -7 c24 -3 46 -4 49 -1 10 10 -17 77 -31 77 -8 0 -21 -12 -29 -27 -18 -33 -20 -16 -5 47 5 24 22 60 36 79 15 19 62 104 106 190 173 341 316 600 413 749 30 45 54 85 54 87 0 2 -9 9 -20 15 -17 9 -25 2 -69 -64z" id="31"/>
<path d="M5617 4634 c-15 -8 -32 -12 -38 -8 -11 7 -108 -82 -161 -148 -26 -34 -28 -38 -10 -38 18 0 37 12 114 70 l33 25 -21 -27 c-30 -38 -75 -74 -114 -91 -21 -9 -28 -16 -17 -16 24 -1 88 32 134 70 21 18 13 6 -19 -25 -64 -64 -55 -73 23 -20 l54 36 -34 -36 c-19 -20 -30 -36 -25 -36 13 0 88 79 104 108 6 13 15 44 19 70 5 26 12 55 16 65 9 22 -18 23 -58 1z" id="32"/>
<path d="M4892 4553 c-70 -110 -196 -333 -190 -338 2 -2 22 20 44 51 70 98 201 182 346 220 35 10 66 20 71 24 17 15 -51 61 -102 69 -29 5 -65 18 -81 30 -16 11 -31 21 -34 21 -2 0 -26 -35 -54 -77z" id="33"/>
<path d="M3896 4595 c-21 -7 -54 -28 -72 -46 -24 -23 -34 -28 -34 -17 0 8 -7 21 -15 28 -35 29 -10 -66 36 -138 24 -38 95 -89 107 -77 2 2 -17 31 -42 64 -53 69 -57 83 -18 75 25 -5 28 -2 42 37 11 33 25 49 55 66 l40 23 -30 -1 c-16 0 -47 -6 -69 -14z" id="34"/>
<path d="M5092 4464 c-83 -24 -188 -71 -179 -80 2 -3 28 4 56 16 28 11 59 20 69 19 9 0 1 -6 -19 -14 -80 -29 -197 -101 -185 -113 3 -3 12 0 19 6 41 34 346 126 363 110 2 -3 -38 -15 -88 -27 -91 -23 -223 -70 -215 -77 2 -2 39 6 83 17 60 16 111 22 215 23 l135 1 -25 29 c-66 73 -113 116 -129 115 -9 0 -54 -11 -100 -25z" id="35"/>
<path d="M5606 4419 c-45 -48 -106 -78 -161 -80 -39 -1 -38 -1 20 -15 112 -27 220 -66 330 -121 61 -30 115 -59 120 -64 6 -6 -46 17 -115 49 -194 92 -335 130 -520 139 -128 6 -261 -12 -352 -48 -58 -22 -182 -99 -174 -107 3 -2 63 23 133 56 91 44 144 63 183 67 l55 5 -65 -18 c-87 -24 -210 -86 -179 -90 12 -2 43 2 68 9 73 21 138 16 211 -15 185 -80 246 -97 511 -141 176 -29 310 -65 383 -102 154 -78 251 -174 330 -328 20 -39 36 -63 36 -54 0 26 -45 150 -84 229 -20 41 -30 66 -21 55 47 -58 110 -218 144 -365 10 -42 10 -40 5 24 -25 338 -243 657 -584 856 -67 39 -203 100 -224 100 -6 0 -28 -18 -50 -41z" id="36"/>
<path d="M3638 4360 c-32 -5 -93 -25 -135 -45 -73 -34 -77 -37 -59 -51 11 -8 26 -14 34 -14 27 0 178 -77 259 -133 44 -31 93 -59 107 -63 27 -6 68 13 94 45 14 18 8 66 -10 88 -16 20 -84 54 -138 69 -36 10 -39 12 -18 13 15 1 51 -8 80 -19 70 -26 75 -16 7 14 -57 26 -57 33 0 16 44 -12 51 -6 14 14 -15 8 -23 15 -18 15 6 1 29 -10 53 -24 23 -13 42 -20 42 -16 0 13 -64 70 -91 80 -40 15 -157 21 -221 11z m90 -87 c-10 -2 -26 -2 -35 0 -10 3 -2 5 17 5 19 0 27 -2 18 -5z" id="37"/>
<path d="M4864 4285 c-24 -18 -7 -19 26 0 16 9 19 14 9 15 -8 0 -24 -7 -35 -15z" id="38"/>
<path d="M2920 4143 c-48 -18 -62 -64 -37 -128 16 -41 81 -155 88 -155 3 0 14 18 24 39 22 49 59 86 76 75 17 -10 5 76 -16 117 -23 43 -89 69 -135 52z" id="39"/>
<path d="M2776 4060 c-59 -49 -137 -85 -207 -96 -48 -8 -53 -14 -74 -89 -13 -44 -16 -78 -12 -135 5 -51 3 -70 -3 -58 -20 33 -23 131 -6 196 9 35 16 66 16 68 0 9 -75 -8 -86 -20 -17 -17 -34 -98 -34 -164 0 -33 9 -111 20 -173 23 -133 24 -148 4 -94 -40 108 -54 291 -30 383 7 29 10 52 6 52 -4 0 -16 -29 -25 -65 -14 -51 -17 -89 -13 -178 5 -101 4 -108 -8 -72 -17 54 -17 201 0 259 l14 47 -31 -3 c-27 -3 -33 -8 -45 -48 -13 -43 -11 -142 3 -200 l6 -25 -15 25 c-8 14 -18 42 -21 62 l-7 38 -29 -58 c-27 -51 -30 -66 -29 -142 1 -101 17 -176 66 -308 53 -141 189 -409 170 -332 -4 14 -9 41 -12 60 -5 35 -4 35 16 -10 l21 -45 -6 40 c-11 86 -15 180 -6 155 5 -14 10 -38 11 -55 2 -16 6 14 11 67 9 114 37 221 85 326 31 68 33 77 19 92 -23 25 -18 61 14 112 57 90 181 186 228 176 30 -6 19 -90 -21 -173 -42 -85 -108 -154 -129 -136 -12 9 -19 0 -40 -57 -41 -111 -61 -257 -53 -391 3 -64 12 -143 19 -176 l13 -59 22 42 c19 36 22 59 22 151 0 224 90 441 260 623 66 72 74 85 74 118 -1 21 -8 51 -16 66 -9 16 -32 60 -52 97 -26 49 -36 81 -36 113 0 24 -3 44 -7 43 -5 0 -34 -22 -67 -49z" id="40"/>
<path d="M4835 4076 c-215 -73 -270 -107 -316 -198 -36 -70 -33 -85 5 -30 15 22 39 50 53 63 19 18 16 11 -11 -24 -59 -79 -42 -77 42 4 138 135 120 108 -42 -63 -87 -93 -163 -168 -167 -168 -12 0 -43 -49 -36 -56 9 -9 137 62 199 111 32 25 101 95 155 156 54 61 124 131 156 155 33 24 53 44 46 44 -20 0 -4 11 38 25 37 14 37 14 8 14 -16 1 -75 -15 -130 -33z" id="41"/>
<path d="M3515 3980 c-242 -48 -488 -178 -631 -332 -149 -162 -231 -353 -241 -567 l-6 -114 29 20 c23 16 33 36 47 89 9 38 17 86 17 107 0 47 23 93 50 100 13 3 31 -3 48 -18 26 -22 27 -28 27 -112 -1 -138 -43 -211 -117 -201 -26 4 -33 0 -55 -35 -25 -40 -25 -40 -9 -99 24 -87 69 -180 132 -275 54 -81 82 -106 51 -46 -28 53 -95 296 -77 277 4 -5 24 -57 44 -117 35 -105 103 -253 112 -245 2 3 -2 23 -10 46 -41 114 -45 339 -11 490 22 94 31 86 14 -10 -19 -100 -16 -315 5 -401 16 -67 55 -171 62 -164 2 2 -4 37 -13 78 -20 93 -22 297 -4 399 17 93 56 220 87 283 14 26 26 47 28 47 3 0 -9 -37 -25 -82 -62 -168 -73 -237 -72 -423 0 -112 6 -189 15 -225 l14 -55 6 105 c15 246 106 532 216 678 41 54 36 29 -8 -39 -78 -123 -149 -352 -173 -558 -7 -56 6 -42 26 29 35 121 169 362 238 425 l33 30 -22 -30 c-132 -178 -208 -342 -247 -526 -8 -39 -15 -89 -14 -112 l1 -42 13 48 c31 112 118 232 196 272 28 14 22 7 -28 -39 -72 -66 -126 -164 -144 -259 -14 -79 2 -146 26 -107 10 17 125 71 335 159 356 150 448 201 563 310 69 66 122 144 208 306 104 199 160 277 243 336 l38 29 -28 10 c-15 6 -82 14 -147 18 -140 9 -183 -1 -244 -53 -23 -19 -45 -35 -49 -35 -12 0 28 41 70 71 21 16 34 29 28 29 -23 0 -120 -41 -177 -75 -65 -40 -84 -40 -33 -2 49 38 156 86 221 99 31 7 57 16 57 20 0 4 -13 22 -29 40 -29 33 -31 33 -118 33 -86 0 -92 -1 -198 -53 -66 -31 -100 -43 -85 -31 49 43 185 100 249 106 43 4 61 10 61 20 0 23 -51 35 -142 31 -54 -2 -83 1 -78 6 12 12 164 14 202 3 24 -6 28 -4 34 18 5 20 0 33 -17 52 -23 24 -27 25 -113 20 -67 -3 -85 -2 -70 6 10 6 54 11 96 11 43 1 78 2 78 4 0 1 -9 20 -19 40 -24 47 -105 123 -159 151 -102 52 -248 63 -407 31z" id="42"/>
<path d="M2140 3954 c-51 -22 -77 -51 -99 -110 -36 -96 -55 -393 -31 -484 9 -36 28 -60 96 -126 46 -44 84 -77 84 -74 0 4 -6 26 -14 48 -18 49 -52 224 -61 305 l-7 58 -46 -3 c-47 -3 -47 -3 -43 27 6 56 52 200 77 243 14 24 36 48 49 54 32 14 70 3 82 -24 10 -22 11 -21 18 15 6 31 4 42 -11 57 -28 27 -55 31 -94 14z" id="43"/>
<path d="M4143 3674 l-1 -70 40 -23 40 -23 -7 24 c-4 12 -22 54 -39 93 l-32 70 -1 -71z" id="44"/>
<path d="M2135 3524 c37 -448 355 -999 746 -1294 97 -73 125 -88 139 -74 7 7 -18 30 -72 66 -77 52 -193 161 -250 233 -52 66 -167 227 -255 358 -169 253 -281 524 -291 705 -3 50 -9 92 -15 92 -6 0 -7 -32 -2 -86z" id="45"/>
<path d="M4370 3580 c-13 -8 -13 -10 2 -10 9 0 20 5 23 10 8 13 -5 13 -25 0z" id="46"/>
<path d="M2576 3528 c-23 -33 -73 -166 -93 -246 -10 -41 -16 -109 -16 -177 0 -97 4 -121 31 -203 18 -51 41 -109 52 -130 l21 -37 -4 40 c-3 22 -13 74 -23 115 -14 58 -18 115 -18 250 -1 183 10 253 56 359 21 50 18 64 -6 29z" id="47"/>
<path d="M5570 3472 l-55 -19 90 -4 c57 -3 101 -11 120 -22 l30 -16 -35 7 c-50 10 -180 9 -215 -3 -25 -8 -11 -10 76 -15 99 -5 111 -8 191 -47 67 -33 100 -58 152 -114 37 -39 66 -73 64 -75 -2 -2 -38 29 -79 69 -118 115 -225 156 -368 141 l-76 -7 47 -8 c55 -8 161 -43 198 -64 36 -20 17 -18 -79 10 -47 14 -96 25 -110 25 -38 -1 151 -73 257 -100 117 -28 177 -64 254 -152 92 -105 128 -141 134 -135 3 3 -6 21 -20 40 -15 19 -50 88 -80 154 -29 67 -67 140 -84 164 -102 149 -269 218 -412 171z" id="48"/>
<path d="M5035 3456 c-88 -21 -147 -57 -230 -141 -108 -107 -183 -252 -200 -382 -6 -46 -5 -45 19 23 21 61 62 144 71 144 1 0 -13 -37 -30 -82 -33 -82 -60 -185 -34 -128 61 135 77 159 143 226 39 39 82 77 96 84 14 7 -11 -23 -56 -66 -96 -94 -124 -139 -158 -258 -36 -124 -34 -161 4 -73 17 38 40 83 52 100 39 57 91 116 106 122 8 3 0 -12 -19 -32 -83 -95 -135 -206 -154 -328 l-6 -40 26 45 c41 70 138 163 284 273 157 117 198 156 277 263 71 96 134 165 196 214 l46 37 -111 6 c-159 10 -264 7 -322 -7z" id="49"/>
<path d="M4487 3359 c-59 -51 -120 -136 -187 -261 l-52 -98 60 0 c51 0 72 6 136 40 41 22 81 40 89 40 9 0 18 33 30 108 20 126 22 183 5 200 -19 19 -30 15 -81 -29z" id="50"/>
<path d="M1550 3344 c-46 -9 -90 -25 -90 -34 0 -12 105 -155 175 -240 86 -102 329 -340 348 -340 3 0 -14 29 -37 64 -24 35 -54 86 -66 114 -20 44 -28 51 -54 54 -29 3 -31 5 -30 43 2 51 26 141 41 156 10 10 21 6 52 -14 22 -15 44 -27 47 -27 4 0 22 -12 41 -26 26 -20 33 -32 31 -52 -2 -21 -8 -26 -25 -25 -28 3 -29 -7 -2 -60 31 -60 96 -141 183 -226 l75 -75 22 28 c26 33 58 47 81 35 33 -17 38 -43 23 -100 l-14 -54 33 -30 c73 -65 385 -275 410 -275 5 0 -24 30 -63 66 -167 155 -328 377 -448 620 -110 223 -191 303 -368 368 -70 25 -96 29 -210 32 -71 1 -141 0 -155 -2z" id="51"/>
<path d="M1426 3268 c-12 -62 119 -241 342 -466 207 -209 419 -369 601 -453 98 -46 122 -50 66 -12 -22 15 -64 46 -93 70 -41 32 -59 42 -77 37 -27 -7 -65 25 -65 55 0 20 -88 100 -230 211 -167 129 -395 375 -499 538 -18 28 -34 52 -36 52 -1 0 -5 -14 -9 -32z" id="52"/>
<path d="M1220 3211 c-91 -60 -253 -221 -238 -237 3 -2 24 3 48 11 55 20 162 19 231 -1 58 -17 149 -65 169 -89 18 -22 8 -19 -57 19 -92 54 -152 69 -249 64 -73 -4 -94 -10 -166 -46 -74 -36 -209 -145 -196 -157 2 -3 38 2 79 11 118 25 362 -1 492 -53 52 -21 41 -26 -19 -9 -69 21 -195 43 -284 51 -142 12 -319 -36 -320 -88 0 -4 21 3 48 16 80 41 143 50 285 44 71 -3 133 -9 138 -14 4 -4 -65 -8 -154 -8 -137 0 -170 -3 -216 -20 -72 -27 -118 -70 -126 -118 l-6 -39 39 32 c58 46 148 71 272 75 98 4 101 3 40 -5 -247 -37 -314 -65 -340 -145 -12 -35 10 -166 34 -213 13 -24 13 -24 37 24 32 63 74 86 150 82 78 -5 204 -71 449 -232 228 -150 308 -192 399 -212 140 -29 273 -13 531 64 74 23 165 47 203 53 37 7 64 16 60 20 -14 14 -207 -9 -286 -34 -42 -14 -77 -23 -77 -21 0 8 79 43 132 59 31 9 101 19 155 23 97 8 97 8 58 20 -69 21 -177 34 -224 28 -36 -5 -43 -4 -33 6 9 9 45 13 113 12 l100 -1 -105 48 c-228 104 -565 300 -708 411 l-37 29 -3 -33 c-3 -29 -7 -33 -32 -33 -94 0 -102 223 -9 281 15 10 29 19 31 20 2 1 -29 42 -68 90 -39 49 -89 117 -110 152 l-38 64 -16 -24 c-20 -29 -42 -18 -71 35 -11 20 -22 37 -25 37 -3 0 -39 -22 -80 -49z" id="53"/>
<path d="M4478 3034 c-16 -8 -28 -17 -28 -19 0 -2 18 -66 39 -142 45 -155 109 -431 142 -603 11 -63 23 -117 24 -118 2 -2 10 7 19 20 14 21 13 35 -10 158 -13 74 -28 144 -34 155 -31 68 -60 201 -60 285 0 38 -51 265 -62 275 -1 2 -15 -3 -30 -11z" id="54"/>
<path d="M1887 3012 c-22 -25 -22 -34 9 -95 49 -97 117 -189 207 -280 l91 -92 12 30 c7 17 13 37 14 46 0 8 -37 53 -81 100 -94 96 -170 201 -195 265 -18 48 -32 54 -57 26z" id="55"/>
<path d="M7485 2999 c-205 -20 -558 -102 -848 -196 -506 -164 -864 -349 -978 -505 -40 -56 -37 -71 5 -22 105 123 453 297 791 395 55 16 104 29 109 29 23 0 -8 -12 -105 -41 -119 -35 -287 -100 -426 -165 -107 -49 -121 -68 -23 -29 83 32 89 26 8 -9 -85 -37 -213 -111 -266 -154 -44 -36 -92 -106 -92 -134 0 -21 51 -38 110 -38 114 0 372 61 649 154 170 57 227 69 99 21 -240 -90 -484 -159 -653 -185 l-120 -18 98 -1 c153 -1 311 29 593 114 64 20 119 34 121 31 7 -7 -264 -91 -412 -127 -114 -29 -147 -33 -270 -33 -77 -1 -153 3 -168 8 -25 8 -29 6 -25 -10 17 -89 379 -49 813 90 60 19 111 34 112 32 12 -12 -349 -121 -522 -158 -74 -16 -136 -22 -242 -22 -148 -1 -158 -8 -45 -31 118 -25 273 -14 486 36 48 11 90 18 92 16 2 -2 -31 -13 -73 -25 -222 -60 -445 -73 -562 -33 -35 12 -66 20 -69 17 -12 -13 25 -37 85 -56 206 -64 788 36 1212 206 82 33 121 40 64 11 -143 -74 -544 -184 -863 -239 -112 -19 -364 -16 -419 5 -64 25 -64 12 0 -17 116 -53 263 -56 519 -10 529 96 1154 378 1415 638 112 112 161 219 141 302 l-7 27 -29 -39 c-62 -84 -249 -213 -455 -314 -126 -62 -272 -117 -282 -106 -2 2 45 23 104 46 136 54 234 103 347 174 95 60 220 156 213 163 -3 2 -27 -10 -55 -26 -115 -71 -648 -307 -674 -299 -6 2 72 39 173 82 294 126 495 231 575 300 60 52 37 49 -46 -5 -131 -86 -732 -380 -747 -365 -3 3 37 24 88 48 268 120 640 323 712 388 34 30 32 55 -6 69 -40 15 -156 20 -252 10z" id="56"/>
<path d="M4390 2989 c-14 -6 -54 -12 -89 -13 l-64 -3 -46 -79 c-56 -95 -182 -226 -270 -280 l-65 -39 95 -7 c112 -9 249 -46 333 -91 73 -39 172 -129 220 -201 45 -68 83 -164 100 -251 l13 -70 7 95 c6 85 3 112 -28 265 -59 290 -160 686 -175 684 -3 0 -17 -5 -31 -10z" id="57"/>
<path d="M2661 2954 c-56 -63 -74 -116 -69 -199 11 -170 165 -378 392 -529 47 -31 90 -56 95 -56 27 0 5 33 -56 83 -38 30 -129 115 -204 189 -112 110 -142 145 -170 202 -26 55 -34 82 -33 125 0 60 29 139 66 178 11 12 18 27 16 33 -2 7 -18 -4 -37 -26z" id="58"/>
<path d="M5491 2905 c-44 -65 -177 -180 -326 -284 -83 -57 -185 -133 -228 -169 -107 -89 -268 -298 -282 -367 l-6 -30 20 35 c10 19 38 55 61 80 43 46 44 39 3 -16 -38 -51 -26 -49 33 5 30 28 61 51 67 51 7 0 -14 -23 -46 -51 -65 -58 -107 -122 -107 -165 l1 -29 20 38 c29 55 138 166 350 358 102 92 193 178 202 191 9 12 16 18 16 11 1 -6 -79 -87 -176 -180 -316 -299 -383 -374 -383 -427 0 -19 1 -18 16 4 24 36 162 176 209 212 22 17 -6 -16 -62 -73 -94 -97 -153 -170 -153 -190 0 -22 28 -4 96 63 94 91 97 74 3 -22 -70 -72 -70 -73 -37 -66 18 3 45 15 60 26 32 24 45 26 28 5 -28 -34 9 -12 46 28 186 196 386 472 484 667 71 141 133 311 118 325 -2 2 -14 -12 -27 -30z" id="59"/>
<path d="M1676 2804 l-18 -26 38 -40 c56 -57 326 -229 339 -216 3 2 -28 31 -68 63 -39 33 -115 101 -168 152 -53 51 -98 93 -100 93 -2 0 -12 -12 -23 -26z" id="60"/>
<path d="M2639 2805 c-4 -63 4 -102 32 -155 33 -60 124 -168 134 -158 3 3 -15 38 -40 77 -41 64 -84 153 -113 236 l-10 30 -3 -30z" id="61"/>
<path d="M1636 2753 c-3 -3 -6 -17 -6 -29 0 -64 612 -418 952 -552 135 -52 293 -100 361 -107 l52 -6 -70 31 c-38 17 -108 44 -155 62 -253 92 -760 338 -942 457 -58 38 -124 87 -146 110 -21 22 -42 38 -46 34z" id="62"/>
<path d="M3786 2539 c-18 -11 -273 -124 -441 -196 -73 -31 -115 -61 -115 -84 0 -4 19 3 43 17 48 28 187 74 220 74 12 -1 -18 -16 -68 -34 -99 -36 -160 -65 -152 -72 3 -3 18 1 34 9 51 26 158 47 234 46 l74 -1 -97 -13 c-86 -12 -225 -52 -215 -62 2 -2 35 4 73 13 75 18 318 24 334 8 5 -5 -42 -10 -118 -11 -70 -1 -147 -6 -172 -11 -43 -9 -42 -10 35 -11 84 -1 163 -12 235 -31 64 -17 45 -19 -50 -4 -95 14 -204 17 -265 5 -36 -6 -30 -8 50 -15 118 -10 220 -30 330 -68 105 -35 254 -110 281 -140 14 -15 4 -12 -34 12 -79 48 -204 98 -332 132 -97 26 -135 31 -240 32 -177 1 -177 1 -94 -87 107 -113 164 -235 185 -398 11 -86 12 -89 38 -89 14 0 64 18 111 40 75 35 94 40 159 40 96 0 177 -22 281 -76 101 -52 189 -119 229 -175 39 -53 55 -22 37 71 l-7 35 17 -30 c10 -16 19 -25 21 -18 4 11 -13 89 -32 148 -3 11 4 2 16 -20 13 -22 28 -65 34 -95 l12 -55 19 30 c16 25 19 48 19 147 0 123 10 126 25 8 8 -62 9 -61 6 30 -3 106 -26 169 -102 286 -55 84 -60 94 -24 54 45 -51 106 -157 131 -225 27 -77 30 -193 6 -249 -10 -22 -16 -41 -13 -43 7 -8 66 90 83 141 27 78 24 311 -5 428 -66 265 -218 424 -469 489 -95 24 -299 36 -327 18z" id="63"/>
<path d="M2324 2498 c-16 -31 -16 -32 9 -54 95 -81 403 -246 625 -333 78 -31 67 -3 -15 38 -145 71 -363 207 -516 322 -43 33 -80 59 -82 59 -3 0 -12 -14 -21 -32z" id="64"/>
<path d="M804 2336 c-28 -28 -34 -41 -34 -78 0 -42 3 -47 86 -123 48 -43 95 -92 105 -109 l19 -31 -3 87 c-2 83 -1 88 27 116 15 17 48 41 72 54 24 12 44 26 44 30 0 13 -78 48 -107 48 -52 0 -103 -57 -103 -115 0 -14 -4 -25 -10 -25 -26 0 -3 89 32 128 29 30 7 28 -31 -4 -19 -16 -33 -39 -37 -62 -10 -58 -23 -74 -24 -29 0 46 20 88 56 116 24 19 25 21 6 21 -26 0 -72 -54 -72 -85 0 -13 -5 -27 -12 -31 -21 -13 -1 76 23 102 35 38 2 29 -37 -10z" id="65"/>
<path d="M3167 2255 c-59 -41 -68 -75 -22 -88 17 -5 23 2 42 50 12 32 21 58 19 60 -1 1 -19 -9 -39 -22z" id="66"/>
<path d="M5651 2232 c-6 -12 -11 -27 -11 -34 1 -7 8 0 16 15 9 16 13 31 11 34 -3 2 -10 -4 -16 -15z" id="67"/>
<path d="M5518 2083 c-136 -142 -227 -278 -350 -528 l-78 -160 25 -18 c14 -10 25 -25 25 -33 0 -19 -16 -18 -24 1 -15 39 -123 57 -181 30 l-30 -13 28 -1 c37 -1 67 -17 94 -50 19 -23 24 -24 42 -13 25 15 31 15 31 2 0 -6 -15 -20 -34 -31 -31 -18 -37 -31 -76 -152 -73 -227 -144 -547 -112 -512 51 58 72 100 101 205 32 117 116 364 151 444 10 24 27 50 38 57 14 10 20 29 24 70 3 41 18 84 55 160 107 217 255 405 359 454 50 24 54 28 54 61 0 47 -27 104 -49 104 -10 0 -51 -35 -93 -77z" id="68"/>
<path d="M3049 2144 c-10 -3 -16 -16 -16 -34 0 -42 -21 -77 -54 -91 -16 -6 -29 -19 -29 -28 0 -33 21 -88 50 -135 40 -62 15 -55 -27 8 -18 27 -33 41 -33 33 0 -22 49 -175 67 -210 8 -16 12 -34 10 -40 -6 -19 -66 116 -86 195 -17 65 -19 69 -25 42 -9 -39 10 -199 29 -255 9 -24 36 -83 60 -131 67 -130 54 -130 -16 0 -75 139 -104 257 -96 390 3 46 1 80 -3 75 -5 -4 -24 -38 -44 -74 -41 -74 -71 -182 -82 -288 -3 -39 -10 -71 -15 -71 -10 0 -2 95 16 196 13 71 54 170 95 232 12 17 18 32 13 32 -15 0 -58 -51 -93 -108 -18 -29 -34 -51 -37 -48 -8 7 46 104 78 141 45 51 17 43 -42 -12 -32 -29 -62 -72 -84 -117 -26 -53 -35 -65 -35 -45 0 29 41 113 73 146 11 13 18 26 14 29 -8 9 -54 -21 -83 -55 -32 -36 -30 -10 2 28 l26 31 -29 0 c-92 0 -271 -77 -377 -162 -127 -103 -214 -232 -258 -385 -30 -104 -32 -309 -4 -428 36 -157 102 -305 191 -430 100 -141 338 -340 514 -430 36 -19 80 -43 96 -54 40 -28 73 -26 120 6 l39 26 -25 16 c-49 32 -115 101 -137 143 l-23 43 28 -35 c66 -84 160 -159 181 -146 5 3 -24 38 -62 78 -59 62 -139 178 -122 178 2 0 29 -35 59 -78 91 -131 152 -171 204 -137 l27 18 -23 9 c-36 13 -136 122 -202 221 -64 96 -134 226 -125 234 2 3 16 -17 29 -44 75 -147 239 -357 302 -387 20 -10 38 -16 40 -14 2 2 -28 44 -67 93 -236 301 -343 558 -353 850 l-4 120 10 -95 c26 -264 105 -495 232 -685 64 -95 218 -285 230 -285 7 1 27 9 45 18 l32 18 -49 36 c-26 20 -64 56 -84 80 -46 57 -107 157 -107 177 0 9 15 -10 32 -42 37 -68 136 -179 190 -213 63 -40 153 -30 201 24 17 19 17 19 -17 25 -43 7 -116 56 -141 94 -17 26 -15 25 27 -9 26 -21 49 -38 52 -38 4 0 -5 17 -18 38 -14 20 -28 51 -31 67 l-6 30 17 -30 c29 -53 59 -95 67 -95 5 0 -1 15 -12 34 -16 25 -21 50 -21 97 0 135 30 375 66 524 72 303 85 375 85 490 1 140 -17 220 -78 338 -54 104 -142 201 -213 235 -45 21 -131 35 -161 26z" id="69"/>
<path d="M2655 2013 c-207 -26 -370 -99 -487 -216 -27 -27 -52 -46 -55 -43 -12 12 121 131 192 174 89 53 67 55 -33 2 -96 -50 -191 -121 -261 -195 -29 -31 -56 -54 -58 -51 -9 9 124 141 188 187 32 24 57 45 55 47 -2 2 -32 -11 -66 -28 -34 -17 -67 -29 -73 -27 -7 2 44 32 113 66 133 67 131 69 -25 26 -80 -22 -132 -29 -260 -34 -146 -7 -165 -10 -217 -34 -115 -56 -234 -202 -317 -391 -46 -106 -91 -267 -91 -328 0 -72 45 -137 84 -122 12 5 14 13 8 33 -18 64 7 223 41 256 7 7 8 4 3 -10 -20 -53 -36 -162 -31 -200 8 -53 14 -60 47 -69 24 -5 28 -3 34 21 13 63 37 124 54 145 18 22 18 20 -1 -32 -23 -59 -40 -150 -29 -150 3 0 12 22 19 49 14 56 74 185 90 195 5 4 -3 -22 -19 -58 -16 -35 -38 -96 -49 -134 -18 -67 -18 -70 -1 -97 10 -15 32 -36 48 -47 l30 -18 11 46 c7 26 23 67 36 93 25 50 122 191 131 191 6 0 0 -11 -36 -65 -85 -125 -126 -253 -98 -304 20 -37 38 -38 38 -3 0 58 81 275 96 259 3 -3 0 -15 -6 -27 -23 -43 -58 -159 -65 -213 l-7 -54 37 -22 c21 -12 38 -21 39 -19 21 51 72 140 86 153 13 12 6 -9 -20 -59 -26 -51 -40 -90 -39 -114 0 -36 1 -35 19 21 17 54 96 174 107 163 3 -2 -6 -20 -20 -38 -39 -52 -67 -114 -74 -163 -5 -39 -2 -49 23 -82 l28 -37 13 57 c16 73 35 109 85 163 l40 43 -19 78 c-22 97 -25 330 -4 413 36 144 110 269 225 377 141 135 279 196 491 218 33 4 62 8 64 11 5 5 -69 3 -114 -3z" id="70"/>
<path d="M2380 1980 c-13 -9 -13 -10 0 -10 8 0 22 5 30 10 13 9 13 10 0 10 -8 0 -22 -5 -30 -10z" id="71"/>
<path d="M4625 1802 c0 -135 -3 -165 -22 -214 -29 -77 -76 -140 -125 -168 -22 -12 -53 -42 -68 -66 -23 -37 -26 -50 -20 -79 4 -18 4 -53 -1 -77 -4 -24 -8 -46 -9 -49 0 -3 -16 -27 -35 -53 l-36 -46 64 -83 c140 -179 262 -382 348 -580 l49 -112 0 181 c0 185 -16 593 -28 719 l-7 70 -36 -48 c-20 -26 -45 -74 -55 -107 -10 -33 -21 -60 -24 -60 -4 0 -6 62 -6 138 1 125 3 140 24 174 13 21 37 49 55 62 l31 24 -17 154 c-32 289 -38 326 -61 353 l-21 24 0 -157z" id="72"/>
<path d="M4800 1870 c-13 -9 -13 -10 0 -10 8 0 22 5 30 10 13 9 13 10 0 10 -8 0 -22 -5 -30 -10z" id="73"/>
<path d="M4703 1830 c3 -23 14 -119 24 -212 17 -158 19 -169 38 -166 23 3 23 -3 -5 225 -16 128 -23 156 -41 174 l-22 22 6 -43z" id="74"/>
<path d="M5533 1659 c-114 -19 -235 -83 -273 -143 -21 -34 -52 -116 -45 -116 3 0 23 20 46 45 22 24 64 57 92 73 99 55 301 123 283 94 -3 -6 -21 -14 -39 -17 -17 -4 -57 -17 -87 -28 -42 -16 -50 -22 -35 -27 15 -5 8 -12 -39 -38 -61 -33 -214 -142 -215 -154 -1 -4 30 -5 68 -3 97 5 136 28 277 165 66 65 130 121 142 124 35 12 26 23 -24 30 -56 7 -82 6 -151 -5z" id="75"/>
<path d="M3746 1611 c-15 -6 -2 -20 77 -83 52 -42 136 -115 186 -162 97 -90 123 -101 174 -75 120 62 73 179 -106 268 -105 51 -268 77 -331 52z" id="76"/>
<path d="M3658 1574 c-16 -8 -28 -16 -28 -18 0 -2 31 -23 68 -48 38 -25 104 -75 147 -111 73 -61 106 -80 75 -42 -11 13 -10 18 4 28 14 11 11 17 -31 53 -68 58 -194 154 -202 154 -3 -1 -18 -8 -33 -16z" id="77"/>
<path d="M3526 1503 c-3 -21 -8 -63 -11 -93 -4 -30 -27 -140 -51 -244 -25 -104 -44 -189 -42 -191 2 -1 59 -14 128 -29 324 -72 580 -195 908 -438 52 -38 96 -68 98 -66 8 9 -219 351 -355 535 -17 23 -34 33 -65 37 -60 9 -141 60 -173 107 -20 31 -28 57 -31 105 l-4 64 -62 53 c-148 129 -252 197 -300 197 -32 0 -35 -3 -40 -37z" id="78"/>
<path d="M5374 1504 c-61 -37 -107 -74 -100 -82 3 -2 20 7 38 21 18 14 60 42 92 61 33 20 53 36 45 36 -8 0 -42 -16 -75 -36z" id="79"/>
<path d="M4793 1437 c-58 -22 -119 -73 -141 -119 -22 -44 -32 -168 -14 -168 4 0 19 20 33 44 31 51 141 142 223 185 l58 31 -42 0 c-57 0 -134 -43 -176 -99 -42 -54 -45 -40 -4 17 36 50 102 90 163 98 26 4 44 11 41 15 -7 13 -103 10 -141 -4z" id="80"/>
<path d="M4290 1409 c0 -2 7 -22 15 -44 18 -52 19 -146 1 -190 -15 -36 -61 -85 -79 -85 -5 0 2 11 17 25 28 26 56 82 56 111 0 11 -8 5 -22 -16 -13 -19 -30 -36 -38 -38 -10 -3 -8 3 6 19 41 46 55 99 38 144 -5 13 -10 10 -25 -15 -23 -36 -72 -60 -126 -60 -41 0 -68 14 -120 63 -25 24 -33 27 -33 14 0 -26 58 -85 90 -92 32 -7 51 -25 26 -25 -27 0 -71 21 -98 48 -33 30 -36 22 -8 -18 34 -47 99 -61 165 -35 19 7 19 7 3 -10 -10 -10 -36 -20 -65 -22 -45 -5 -51 -2 -95 37 -27 23 -48 39 -48 37 0 -25 26 -60 57 -76 28 -15 33 -20 18 -21 -11 0 -31 7 -43 16 -26 18 -28 6 -7 -37 22 -42 88 -86 151 -100 172 -39 302 138 220 299 -20 40 -56 86 -56 71z" id="81"/>
<path d="M4878 1324 c-26 -8 -49 -18 -52 -22 -2 -4 4 -106 15 -227 10 -121 19 -247 19 -280 l2 -60 33 130 c18 72 53 194 79 272 50 151 50 169 6 193 -24 13 -44 12 -102 -6z" id="82"/>
<path d="M4772 1267 c-7 -9 -8 -51 -1 -137 5 -69 12 -254 16 -413 l6 -287 30 67 c16 38 29 73 29 78 1 49 -41 649 -48 683 -5 25 -16 28 -32 9z" id="83"/>
<path d="M5885 1128 c-243 -27 -585 -157 -757 -287 -84 -64 -205 -193 -247 -265 -61 -103 -75 -157 -76 -293 -1 -67 2 -120 7 -117 4 3 8 29 8 57 0 126 74 291 179 397 l64 65 -45 -55 c-61 -75 -118 -165 -140 -223 -29 -77 -21 -76 31 3 106 162 343 353 575 465 169 81 180 76 16 -7 -304 -153 -520 -342 -611 -533 -36 -75 -38 -105 -2 -45 84 142 274 325 408 392 50 25 39 15 -50 -47 -88 -62 -235 -202 -292 -279 -50 -68 -57 -97 -10 -45 55 63 217 186 217 165 0 -2 -26 -23 -57 -47 -136 -102 -215 -197 -228 -274 l-7 -40 37 53 c20 30 73 90 118 135 152 149 602 495 777 595 115 66 327 126 530 151 65 9 57 9 -65 6 -116 -3 -131 -2 -85 6 30 6 112 9 182 7 70 -2 126 -2 124 -1 -1 2 -39 14 -83 27 -144 43 -330 56 -518 34z" id="84"/>
<path d="M4245 1026 c-16 -6 -31 -11 -33 -12 -1 -1 44 -66 100 -145 57 -79 157 -229 223 -334 122 -195 196 -296 203 -277 5 16 -70 189 -130 300 -80 148 -274 433 -319 468 -10 7 -23 7 -44 0z" id="85"/>
<path d="M3410 931 c0 -11 21 -31 59 -55 32 -20 62 -43 65 -52 5 -12 -3 -10 -26 8 -32 24 -92 58 -103 58 -3 0 -5 -13 -5 -28 0 -22 11 -36 48 -64 26 -20 63 -54 82 -74 38 -42 25 -33 -63 39 -32 26 -62 47 -68 47 -23 0 -3 -24 84 -98 97 -84 263 -252 536 -539 l163 -173 70 0 71 0 -19 22 -19 22 29 -22 c19 -14 43 -22 70 -22 l41 0 -92 94 c-51 52 -93 98 -93 104 0 5 45 -35 99 -89 97 -95 127 -114 169 -107 37 6 -496 493 -695 635 -35 25 -63 47 -63 49 0 16 219 -143 325 -236 33 -29 141 -128 240 -220 99 -92 197 -181 217 -199 l36 -32 129 3 128 3 -40 39 c-22 22 -67 59 -100 83 -32 24 -54 43 -49 43 20 0 108 -63 166 -117 32 -31 58 -53 58 -48 0 17 -64 125 -112 189 -114 152 -312 318 -568 477 -181 112 -423 208 -646 255 -136 29 -124 28 -124 5z" id="86"/>
<path d="M1976 857 c-57 -74 -88 -187 -62 -222 15 -20 15 -20 60 4 25 13 62 38 81 55 l36 31 -35 80 c-20 44 -40 81 -45 83 -5 2 -21 -12 -35 -31z" id="87"/>
<path d="M5438 541 c-48 -11 -103 -24 -122 -31 -41 -13 -129 -78 -121 -89 2 -5 -14 -21 -38 -36 -75 -50 -128 -99 -183 -169 -30 -37 -54 -73 -54 -78 0 -6 28 16 63 48 100 92 277 186 377 199 41 5 38 3 -31 -23 -120 -46 -232 -109 -305 -170 -86 -72 -95 -96 -16 -43 165 113 411 171 618 145 65 -8 60 -9 -91 -15 -182 -7 -268 -26 -400 -89 -74 -36 -172 -106 -161 -117 2 -2 33 4 68 15 117 37 256 55 413 56 139 1 156 -1 235 -28 47 -16 124 -48 172 -72 82 -41 93 -44 168 -44 l80 0 -20 51 c-29 77 -66 127 -117 160 -26 16 -40 29 -31 29 8 0 32 -11 52 -25 20 -13 36 -20 36 -16 0 18 -95 92 -157 123 -35 17 -61 33 -59 36 11 11 140 -61 186 -104 51 -47 64 -49 34 -4 -56 83 -146 146 -249 175 -82 22 -89 25 -84 30 10 9 132 -26 187 -54 32 -16 77 -47 100 -70 57 -56 53 -32 -5 30 -71 76 -164 116 -333 142 -22 4 -21 4 5 6 17 0 59 -4 95 -10 113 -18 207 -70 268 -149 33 -42 34 -43 28 -15 -21 89 -90 157 -198 195 -90 32 -288 37 -410 11z" id="88"/>
<path d="M3370 498 c0 -35 36 -87 66 -94 36 -9 59 7 59 42 0 25 -4 29 -37 35 -20 3 -48 13 -62 23 -25 16 -26 16 -26 -6z" id="89"/>
<path d="M5350 119 c-166 -15 -327 -53 -410 -99 -35 -19 -33 -19 445 -19 l480 0 -29 23 c-30 25 -177 78 -264 95 -59 12 -83 12 -222 0z" id="90"/>
</g>
</svg>