<?xml version="1.0" ?><!DOCTYPE svg  PUBLIC '-//W3C//DTD SVG 20010904//EN'  'http://www.w3.org/TR/2001/REC-SVG-20010904/DTD/svg10.dtd'><svg height="850.000000pt" preserveAspectRatio="xMidYMid meet" version="1.0" viewBox="0 0 850.000000 850.000000" width="850.000000pt" xmlns="http://www.w3.org/2000/svg">
<metadata>
Created by potrace 1.14, written by Peter Selinger 2001-2017
</metadata>
<g fill="#ffffff" stroke="none" transform="translate(0.000000,850.000000) scale(0.100000,-0.100000)">
<path d="M0 7216 c0 -1170 1 -1284 16 -1290 30 -12 91 14 165 69 145 108 227 133 367 113 92 -13 80 -17 188 51 104 65 185 50 294 -55 l66 -63 89 1 c102 2 123 -6 201 -73 74 -64 103 -69 233 -47 55 9 84 9 133 0 62 -12 66 -12 193 28 356 111 479 128 580 82 61 -28 214 -182 264 -265 115 -193 119 -356 12 -461 l-39 -38 -65 11 c-108 19 -304 24 -407 12 -132 -16 -199 -36 -315 -92 -135 -65 -258 -159 -390 -297 -60 -64 -178 -184 -262 -267 -83 -82 -161 -166 -172 -185 -46 -77 -10 -202 81 -286 67 -62 266 -169 282 -153 7 7 -32 183 -53 240 -23 60 -50 92 -94 108 -32 12 -27 31 8 31 13 0 83 20 157 45 280 96 458 73 614 -76 l64 -62 0 69 c0 38 5 114 12 169 10 89 9 107 -6 156 -10 31 -38 82 -62 115 -24 32 -44 62 -44 66 0 13 44 21 110 20 86 -2 127 -8 238 -39 51 -14 94 -24 95 -22 1 2 13 26 26 53 28 55 94 112 209 182 42 25 104 64 136 86 l60 40 30 -35 c17 -19 90 -74 163 -121 117 -77 243 -189 243 -215 0 -5 7 -25 15 -45 l15 -36 103 67 c230 149 263 172 285 202 13 17 27 29 31 26 5 -2 12 -49 16 -102 5 -79 37 -253 71 -390 6 -20 8 -20 57 18 29 22 77 47 107 56 112 33 280 12 443 -58 38 -16 80 -29 93 -29 13 0 24 -3 23 -7 0 -5 -27 -27 -59 -50 -55 -39 -64 -51 -110 -149 -28 -58 -49 -108 -46 -111 3 -3 57 0 119 7 141 16 264 9 336 -19 30 -11 57 -18 60 -15 9 9 7 564 -2 605 -6 32 -17 42 -91 87 -173 106 -278 216 -363 379 -62 120 -90 207 -103 327 -17 145 17 314 66 333 22 8 94 -70 191 -205 l66 -94 47 99 c26 54 71 139 102 188 30 50 67 116 82 148 30 64 47 65 61 4 l7 -32 16 38 c8 21 20 36 25 34 6 -2 28 -45 49 -97 21 -52 60 -126 88 -165 27 -38 78 -114 112 -169 l62 -99 30 39 c43 54 73 84 85 84 36 0 66 -161 51 -271 -34 -237 -154 -429 -322 -515 -59 -30 -66 -52 -75 -229 -7 -146 14 -752 27 -775 7 -12 11 -8 20 15 37 101 68 158 138 249 26 34 117 131 203 216 86 85 159 165 163 178 10 31 21 28 80 -24 28 -26 76 -64 107 -85 79 -54 179 -173 220 -262 13 -29 33 -35 46 -14 17 29 99 78 162 98 84 26 243 28 391 4 106 -17 233 -25 244 -14 3 3 1 32 -4 65 -6 32 -10 105 -10 161 0 182 28 315 96 460 19 39 34 74 34 77 0 3 -17 13 -37 21 -79 33 -240 150 -323 235 -113 115 -181 227 -264 439 -55 138 -76 180 -112 220 -54 60 -171 120 -292 151 -45 11 -129 39 -187 61 -122 47 -189 100 -229 181 -45 90 -29 215 39 304 22 28 29 54 39 131 12 93 13 96 54 134 24 23 51 39 65 39 13 0 62 -20 109 -45 60 -31 98 -45 126 -45 21 0 95 19 163 41 193 64 287 59 372 -20 16 -14 38 -44 49 -66 36 -72 37 -72 151 -70 95 2 107 5 172 38 39 19 88 40 110 46 53 14 133 13 170 -3 28 -12 32 -11 73 25 54 47 117 69 199 69 124 0 240 -58 314 -155 36 -48 46 -55 87 -61 26 -4 77 -2 115 4 137 24 214 7 285 -61 52 -50 71 -96 82 -204 11 -100 34 -165 70 -198 20 -18 20 -13 20 1123 l0 1142 -4250 0 -4250 0 0 -1284z m4735 810 c28 -12 35 -20 35 -44 0 -49 -102 -197 -259 -377 -77 -87 -196 -265 -249 -370 -39 -78 -89 -222 -80 -230 2 -3 45 55 94 127 224 332 280 396 391 456 108 57 372 111 477 97 52 -6 96 -27 96 -46 0 -22 -82 -127 -152 -195 -84 -82 -177 -146 -443 -304 -199 -118 -410 -254 -421 -271 -3 -6 -1 -16 5 -22 7 -7 16 -6 29 6 23 21 54 22 93 2 32 -17 69 -69 69 -98 0 -29 -32 -76 -56 -84 -13 -5 -33 -24 -46 -43 -13 -19 -37 -39 -53 -45 -17 -5 -42 -22 -57 -37 -41 -42 -96 -39 -143 7 l-35 36 -128 -173 c-71 -95 -159 -218 -198 -273 -161 -233 -281 -358 -407 -425 -45 -24 -47 -24 -64 -7 -26 26 -23 194 5 302 28 104 104 256 155 312 45 49 237 178 441 297 75 43 136 82 136 86 0 10 -59 -2 -165 -34 -152 -47 -409 -193 -592 -336 -174 -136 -197 -152 -245 -157 -34 -4 -47 -1 -58 13 -37 44 5 210 84 338 57 92 167 216 231 261 126 90 296 98 558 26 82 -23 151 -41 153 -41 2 0 -14 26 -35 58 -39 57 -91 157 -91 177 0 30 -415 500 -554 628 -98 90 -103 99 -121 200 -5 29 -3 37 9 37 24 0 116 -81 154 -135 78 -111 340 -399 489 -536 80 -74 101 -88 146 -98 32 -7 72 -26 103 -50 l52 -39 6 44 c3 28 -2 84 -14 148 -37 188 -41 243 -24 325 9 41 26 96 39 122 32 61 115 151 184 198 109 74 345 180 404 181 10 0 33 -7 52 -14z" id="1"/>
<path d="M4605 7990 c-3 -5 1 -10 9 -10 8 0 17 -4 20 -8 3 -5 -21 -6 -52 -4 -38 2 -63 -1 -76 -10 -17 -13 -15 -15 25 -28 53 -16 30 -25 -31 -11 -33 7 -50 6 -76 -7 -34 -16 -45 -32 -21 -32 18 -1 101 -40 95 -45 -3 -3 -31 4 -63 15 -73 25 -74 25 -109 -4 l-30 -23 59 -27 c71 -32 68 -45 -4 -16 -28 11 -60 20 -70 20 -17 0 -59 -36 -50 -43 2 -2 24 -15 49 -29 25 -14 54 -36 65 -48 13 -15 -3 -8 -54 21 -80 46 -90 45 -119 -5 -12 -21 -14 -30 -5 -33 25 -9 92 -63 103 -83 8 -14 -8 -6 -51 25 -65 48 -78 52 -97 33 -21 -21 -13 -53 24 -89 20 -18 41 -43 46 -54 10 -19 10 -19 -8 -6 -10 8 -35 30 -55 49 l-36 34 -7 -36 c-8 -44 2 -64 68 -135 58 -61 28 -53 -35 10 l-39 39 0 -37 c1 -63 17 -114 46 -144 30 -31 23 -40 -9 -11 -20 16 -20 16 -14 -8 4 -14 14 -78 24 -144 l17 -119 16 61 c20 73 111 259 176 362 56 88 105 153 231 311 99 124 163 222 163 250 0 9 -7 20 -16 23 -25 10 -102 7 -109 -4z" id="2"/>
<path d="M3170 7825 c0 -40 37 -91 166 -225 178 -185 331 -354 407 -450 33 -41 61 -77 63 -79 2 -3 15 6 29 19 l25 24 -27 23 c-16 12 -31 22 -35 23 -4 0 -28 20 -52 45 -25 25 -50 45 -56 45 -5 0 -9 4 -8 9 2 5 -23 34 -54 65 -32 31 -58 59 -58 61 0 2 -22 28 -50 57 -27 29 -50 56 -50 60 0 5 -7 8 -15 8 -8 0 -15 7 -15 15 0 9 -7 18 -15 21 -8 3 -17 14 -20 25 -4 10 -13 19 -21 19 -8 0 -14 6 -14 13 0 7 -13 24 -28 37 -15 14 -31 33 -35 42 -3 10 -12 15 -21 12 -11 -4 -13 0 -9 16 5 20 3 21 -18 15 -20 -6 -22 -5 -11 6 20 21 15 42 -8 36 -16 -4 -20 -2 -15 12 3 11 -5 25 -25 39 -24 18 -30 20 -30 7z" id="3"/>
<path d="M5010 7659 c-93 -13 -102 -19 -55 -35 67 -24 60 -33 -11 -13 -64 18 -70 18 -130 2 -66 -18 -73 -27 -27 -36 36 -7 106 -37 101 -42 -2 -3 -31 5 -64 16 -79 29 -121 29 -167 0 -20 -12 -37 -26 -37 -30 0 -5 25 -18 55 -29 57 -22 150 -80 142 -89 -3 -2 -27 9 -53 25 -27 16 -75 40 -108 53 l-59 24 -38 -44 c-22 -24 -39 -47 -39 -51 0 -4 17 -10 38 -14 38 -6 148 -53 141 -60 -2 -2 -46 10 -97 27 l-94 32 -24 -30 c-50 -60 -50 -59 32 -100 92 -45 93 -57 1 -15 -37 16 -73 30 -81 30 -8 0 -25 -17 -37 -37 -22 -35 -22 -37 -5 -47 10 -6 28 -19 40 -28 20 -17 20 -17 -16 -3 -50 20 -61 19 -77 -7 -12 -19 -11 -23 10 -40 l24 -18 -32 6 c-26 5 -34 2 -49 -21 -17 -27 -17 -27 7 -46 l24 -19 -28 10 c-37 13 -34 14 -53 -15 -13 -20 -14 -28 -5 -39 10 -12 9 -13 -7 -9 -23 6 -60 -43 -44 -59 7 -7 75 31 214 119 112 71 263 164 336 206 178 104 283 180 368 268 108 113 116 139 47 158 -43 12 -52 12 -143 0z" id="4"/>
<path d="M3844 7065 c-14 -22 -10 -52 17 -118 12 -29 98 -93 157 -116 29 -12 35 -12 52 4 24 22 28 60 5 51 -17 -6 -21 9 -5 19 6 3 10 11 10 17 0 6 -6 6 -15 -2 -9 -7 -19 -10 -23 -6 -4 4 1 13 11 20 17 13 23 36 9 36 -4 0 -13 -5 -20 -12 -20 -20 -26 1 -6 24 17 19 17 21 2 15 -10 -4 -26 -10 -35 -14 -14 -5 -12 0 6 20 30 33 22 45 -13 22 -28 -19 -36 -6 -11 15 26 22 1 34 -29 15 -26 -18 -36 -9 -14 13 17 17 1 27 -18 12 -10 -9 -18 -10 -22 -3 -12 17 -43 11 -58 -12z" id="5"/>
<path d="M4278 6833 c-38 -44 -28 -102 22 -128 38 -19 62 -13 80 20 19 35 4 73 -39 102 -41 28 -44 28 -63 6z" id="6"/>
<path d="M3492 6825 c37 -8 75 -19 85 -25 16 -10 15 -11 -7 -6 -14 3 -70 11 -124 17 -78 9 -103 9 -124 -1 -27 -13 -27 -13 22 -21 54 -9 163 -47 172 -60 2 -5 -17 -1 -43 7 -26 8 -82 22 -125 31 l-76 16 -47 -39 -47 -38 29 -20 c47 -34 113 -98 113 -109 0 -6 -12 1 -27 15 -16 14 -50 42 -77 62 l-49 37 -23 -22 -23 -21 50 -50 c27 -27 49 -54 49 -61 0 -6 -24 12 -53 41 l-53 52 -23 -24 -23 -24 25 -38 c13 -22 30 -50 37 -64 13 -25 13 -25 -7 -7 -11 10 -29 33 -39 52 -22 42 -27 43 -48 11 -14 -22 -14 -30 -1 -73 8 -26 15 -55 15 -63 -1 -20 -29 30 -30 52 0 31 -19 29 -35 -3 -14 -26 -15 -39 -5 -76 13 -54 7 -68 -9 -22 -16 47 -32 25 -38 -55 -5 -52 -3 -67 9 -71 23 -9 105 31 182 89 330 246 577 376 796 417 74 14 68 19 -60 43 -47 8 -127 27 -179 41 -66 18 -117 25 -175 24 l-81 -1 67 -13z m-153 -115 c35 -17 62 -33 59 -35 -5 -5 -146 50 -157 60 -15 16 43 0 98 -25z" id="7"/>
<path d="M4114 6820 c-38 -25 -62 -66 -47 -81 8 -8 26 0 62 27 75 56 62 103 -15 54z" id="8"/>
<path d="M4158 6754 c-25 -13 -55 -51 -46 -59 9 -8 83 -35 97 -35 10 0 25 6 34 13 16 11 16 15 1 55 -19 46 -38 53 -86 26z" id="9"/>
<path d="M3971 6668 l-44 -31 24 -14 c23 -13 22 -13 -16 -8 -27 4 -46 1 -60 -9 -19 -14 -19 -14 5 -35 l25 -21 -37 16 c-34 16 -39 16 -62 1 l-25 -17 25 -27 c33 -36 21 -43 -15 -9 -23 22 -33 26 -47 17 -49 -27 -49 -27 -21 -61 39 -45 33 -57 -6 -14 -33 36 -33 36 -65 20 l-31 -16 35 -61 c18 -33 34 -64 34 -67 -1 -11 -40 41 -61 81 -21 39 -26 40 -71 5 -16 -12 -16 -18 -4 -78 28 -132 28 -129 7 -85 -11 22 -23 61 -26 87 -4 27 -11 48 -15 48 -5 0 -22 -12 -39 -26 -40 -33 -41 -78 -6 -194 14 -46 23 -85 21 -87 -7 -8 -48 102 -59 158 -6 33 -14 59 -18 59 -4 0 -21 -21 -38 -47 -35 -52 -35 -76 -1 -220 10 -40 16 -73 13 -73 -8 0 -27 59 -44 135 l-17 80 -21 -45 c-24 -53 -26 -102 -7 -185 8 -33 13 -61 12 -63 -6 -5 -36 78 -36 98 0 49 -18 12 -34 -70 -17 -82 -18 -162 -2 -178 11 -10 88 34 142 80 87 75 166 170 304 364 74 104 175 243 226 310 106 139 145 199 137 208 -13 13 -39 4 -82 -26z" id="10"/>
<path d="M4265 6660 c-10 -11 -24 -20 -32 -20 -9 0 -13 -7 -11 -17 8 -40 78 -5 78 39 0 24 -13 23 -35 -2z" id="11"/>
<path d="M4074 6657 c-16 -43 -8 -71 25 -94 41 -28 52 -28 80 -5 20 15 21 20 10 51 -16 46 -102 82 -115 48z" id="12"/>
<path d="M5781 6865 c-28 -33 -31 -42 -31 -106 0 -49 6 -81 19 -107 48 -92 224 -213 375 -257 43 -13 75 -15 122 -10 95 10 122 -3 246 -121 135 -127 170 -146 269 -142 40 2 74 8 75 13 2 6 -25 29 -59 52 -92 62 -171 145 -243 255 -102 154 -165 201 -423 317 -73 33 -164 78 -201 100 -85 51 -109 52 -149 6z" id="13"/>
<path d="M6355 6889 c-66 -15 -257 -81 -251 -86 3 -3 42 -21 87 -39 115 -47 222 -110 278 -164 26 -25 79 -93 118 -151 71 -105 137 -174 223 -232 25 -16 57 -41 71 -54 23 -21 32 -23 82 -17 32 4 57 10 57 13 0 4 -27 33 -61 66 -139 137 -206 237 -276 409 -75 189 -103 227 -182 254 -39 14 -89 14 -146 1z" id="14"/>
<path d="M7415 6852 c-67 -32 -101 -78 -140 -187 -50 -137 -91 -300 -106 -422 -13 -100 -12 -103 16 -205 15 -57 31 -107 35 -111 4 -5 20 13 35 40 68 117 203 263 456 495 68 63 125 124 139 150 l23 44 -24 26 c-13 14 -42 47 -63 73 -57 69 -144 108 -251 112 -63 3 -88 0 -120 -15z" id="15"/>
<path d="M7061 6770 c-30 -11 -79 -35 -110 -53 -68 -40 -90 -86 -90 -193 -1 -113 19 -159 120 -275 49 -56 89 -105 89 -109 0 -4 15 -19 33 -32 l32 -25 1 91 c2 115 32 259 88 423 24 70 47 136 51 146 6 13 -1 20 -29 32 -48 20 -120 18 -185 -5z" id="16"/>
<path d="M6733 6693 c-18 -2 -33 -8 -33 -13 0 -39 103 -248 129 -265 5 -2 6 33 4 79 -4 62 -1 96 11 134 10 28 15 56 11 62 -6 10 -57 11 -122 3z" id="17"/>
<path d="M8065 6661 c-16 -5 -60 -9 -96 -10 l-66 -1 -18 -40 c-12 -27 -84 -104 -219 -234 -268 -258 -348 -369 -421 -588 -32 -96 -38 -127 -39 -204 -1 -84 1 -93 27 -127 15 -20 32 -37 38 -37 5 0 9 19 9 43 0 58 25 150 57 209 29 53 63 95 239 295 199 225 254 273 517 447 181 119 223 155 214 180 -3 8 -25 27 -48 43 -32 21 -55 28 -103 29 -33 2 -74 -1 -91 -5z" id="18"/>
<path d="M5703 6609 c-63 -92 -70 -190 -18 -271 44 -69 86 -93 164 -93 56 0 84 8 181 49 63 26 119 51 123 56 5 4 -20 17 -55 29 -127 42 -294 162 -349 250 l-16 25 -30 -45z" id="19"/>
<path d="M8304 6529 c-16 -17 -112 -86 -214 -154 -283 -187 -407 -307 -589 -567 -105 -150 -152 -254 -159 -350 -5 -66 -4 -68 19 -68 26 1 114 70 171 135 19 22 77 96 128 165 112 149 191 240 325 376 115 117 186 165 305 211 l85 32 -3 63 c-4 77 -19 169 -30 180 -5 5 -21 -6 -38 -23z" id="20"/>
<path d="M6235 6331 c-33 -10 -91 -33 -130 -53 -38 -19 -102 -48 -142 -63 -40 -15 -70 -31 -68 -35 4 -7 85 -31 185 -55 91 -22 220 -86 275 -136 53 -49 78 -93 139 -252 77 -199 138 -304 243 -418 55 -59 206 -179 226 -179 5 0 -10 21 -34 48 -51 58 -123 204 -145 297 -13 57 -15 102 -11 235 7 206 -6 276 -60 318 -91 71 -185 151 -253 217 -52 50 -88 76 -115 84 -47 13 -36 14 -110 -8z" id="21"/>
<path d="M8300 6247 c-198 -76 -358 -231 -579 -559 -50 -75 -123 -170 -161 -211 -39 -41 -70 -77 -70 -80 0 -3 44 6 98 20 96 26 97 26 167 98 126 129 219 171 515 234 107 23 203 44 213 47 15 5 17 23 17 185 l0 180 -36 31 c-19 17 -42 44 -50 59 -8 16 -18 29 -22 29 -4 -1 -45 -15 -92 -33z" id="22"/>
<path d="M800 6159 c-14 -6 -53 -28 -88 -51 l-63 -41 -72 9 c-170 20 -232 3 -383 -107 -75 -55 -93 -63 -140 -67 l-54 -4 0 -79 c0 -44 2 -79 5 -79 2 0 29 15 58 34 150 96 305 82 399 -35 76 -95 113 -130 164 -155 93 -46 189 -23 341 79 108 73 174 61 263 -47 66 -82 106 -106 174 -106 72 0 114 28 195 130 153 191 285 247 519 222 142 -16 221 -36 317 -82 103 -50 162 -103 260 -235 l80 -107 12 29 c20 48 26 109 14 163 -21 98 -59 159 -165 267 -91 91 -107 103 -160 118 -91 26 -180 11 -476 -82 -102 -32 -160 -45 -195 -44 -132 5 -176 4 -250 -4 -71 -7 -85 -5 -120 13 -22 11 -49 30 -60 42 -11 12 -40 34 -63 48 -39 22 -54 25 -128 23 -48 0 -95 4 -107 10 -12 7 -47 37 -77 68 -70 72 -136 95 -200 70z" id="23"/>
<path d="M6850 6083 c-41 -7 -85 -12 -97 -10 -28 5 -28 2 -3 -30 40 -51 50 -115 50 -318 0 -139 4 -207 15 -250 25 -95 89 -219 142 -276 53 -57 151 -129 198 -147 54 -20 169 -41 255 -47 148 -11 439 -70 603 -121 113 -36 177 -70 293 -157 55 -40 121 -86 147 -101 l47 -28 0 101 c0 56 -4 101 -8 101 -17 0 -77 97 -144 234 -105 212 -181 309 -264 336 -55 19 -160 6 -304 -35 -214 -62 -385 -59 -480 7 -148 103 -169 161 -134 376 9 53 14 125 11 158 -6 77 -47 156 -101 196 -45 32 -98 35 -226 11z" id="24"/>
<path d="M5067 5999 c-7 -25 11 -64 96 -204 71 -117 119 -217 142 -297 37 -131 36 -300 -5 -415 -22 -63 -20 -78 5 -40 30 46 55 126 62 199 5 59 8 67 16 47 14 -38 0 -145 -27 -205 -14 -30 -22 -54 -18 -54 14 0 81 95 103 145 49 112 -2 255 -199 560 -85 130 -127 204 -142 249 -13 41 -25 46 -33 15z" id="25"/>
<path d="M4984 5947 c-2 -7 -11 -69 -19 -138 l-14 -124 2 118 c1 64 0 117 -3 117 -17 -2 -130 -222 -163 -317 -65 -192 -72 -345 -21 -473 25 -62 26 -43 4 45 -11 43 -20 94 -19 114 1 31 4 25 19 -33 24 -89 47 -152 72 -194 26 -43 32 -36 14 17 -9 22 -18 76 -21 119 -6 89 -2 86 19 -13 21 -103 52 -177 92 -221 30 -34 34 -36 28 -14 -19 68 -23 102 -23 180 l1 85 13 -75 c7 -41 23 -112 35 -158 32 -119 45 -97 45 78 0 94 3 133 9 122 6 -9 10 -77 11 -149 0 -73 3 -133 6 -133 10 0 48 94 63 157 8 32 15 47 15 33 1 -30 -14 -127 -25 -155 -6 -18 -5 -18 9 -5 9 8 29 49 46 90 33 82 40 83 15 1 -8 -29 -13 -55 -11 -58 7 -7 56 79 78 136 10 28 24 89 30 138 10 78 9 98 -9 180 -12 51 -37 130 -58 178 -40 93 -62 121 -50 64 15 -74 20 -182 8 -175 -7 4 -12 18 -12 30 0 50 -32 202 -50 240 l-20 41 6 -45 c3 -25 10 -72 15 -105 20 -135 5 -120 -26 26 -18 86 -38 174 -45 195 -15 47 -34 71 -26 34 2 -14 7 -61 10 -105 7 -111 -10 -68 -25 63 -11 101 -15 114 -25 89z" id="26"/>
<path d="M4490 5784 c0 -21 4 -75 9 -119 5 -44 12 -105 15 -135 l6 -55 -15 45 c-9 25 -21 84 -27 132 -13 95 -28 107 -28 24 0 -139 51 -312 133 -450 39 -66 169 -216 187 -216 5 0 -4 26 -20 58 -34 68 -60 180 -60 256 0 30 7 90 16 133 9 43 18 89 21 103 4 21 -12 48 -79 133 -45 59 -84 104 -86 99 -1 -5 13 -50 33 -101 45 -120 44 -135 -5 -41 -21 41 -39 70 -40 64 0 -5 9 -59 20 -119 11 -60 18 -110 16 -112 -5 -6 -45 136 -65 235 -21 103 -31 125 -31 66z" id="27"/>
<path d="M1968 5800 c-152 -26 -281 -106 -378 -235 -75 -100 -100 -176 -140 -423 -12 -73 -28 -151 -35 -173 -8 -21 -10 -39 -6 -39 4 0 46 29 92 64 57 43 99 86 132 133 26 37 76 108 110 158 110 158 246 277 423 367 108 55 145 68 232 77 l67 7 -80 26 c-122 39 -308 56 -417 38z" id="28"/>
<path d="M144 5776 c-118 -55 -155 -123 -97 -178 36 -33 113 -72 188 -93 80 -23 155 -57 207 -93 l43 -30 2 131 2 130 -62 65 c-34 35 -76 71 -94 78 -50 22 -131 17 -189 -10z" id="29"/>
<path d="M8363 5739 c-143 -31 -280 -79 -383 -136 -73 -40 -190 -120 -190 -131 0 -13 204 6 265 24 81 24 305 26 388 2 l57 -16 0 144 c0 79 -1 143 -2 143 -2 -1 -62 -14 -135 -30z" id="30"/>
<path d="M2285 5681 c-123 -44 -269 -137 -357 -228 -36 -38 -109 -135 -163 -216 -143 -219 -250 -323 -415 -408 -79 -41 -264 -182 -306 -235 -96 -121 -57 -122 121 -3 64 42 165 128 278 234 97 92 214 198 259 235 133 111 392 260 602 346 149 61 197 92 236 148 45 67 45 79 5 115 -34 30 -39 31 -123 30 -56 0 -105 -7 -137 -18z" id="31"/>
<path d="M1032 5665 c-18 -8 -69 -40 -113 -71 -76 -53 -166 -94 -209 -94 -11 0 -20 -4 -20 -8 0 -14 83 -88 137 -121 29 -18 68 -50 87 -72 40 -44 46 -46 46 -21 1 61 90 180 189 252 33 24 61 47 61 50 0 4 -11 22 -25 40 -44 60 -89 73 -153 45z" id="32"/>
<path d="M5459 5598 c-50 -61 -52 -65 -34 -92 9 -14 29 -57 45 -97 17 -45 30 -67 35 -59 20 33 17 290 -3 290 -4 0 -24 -19 -43 -42z" id="33"/>
<path d="M2581 5578 c-8 -18 -36 -54 -63 -80 l-48 -47 58 -6 c55 -6 131 -19 180 -32 l24 -6 -30 59 c-33 65 -88 144 -100 144 -4 0 -14 -15 -21 -32z" id="34"/>
<path d="M0 5486 c0 -58 4 -106 9 -106 4 0 39 -23 77 -52 117 -88 263 -243 379 -403 132 -182 194 -255 247 -290 22 -15 41 -25 43 -23 4 5 -70 299 -99 387 -42 129 -136 309 -188 357 -61 58 -98 77 -223 119 -99 33 -154 59 -222 103 l-23 14 0 -106z" id="35"/>
<path d="M510 5498 c0 -97 9 -128 90 -298 38 -80 94 -219 125 -309 62 -181 109 -282 156 -336 29 -33 32 -34 45 -18 7 10 23 46 35 81 20 59 21 78 17 280 -4 189 -8 226 -27 285 -27 82 -72 133 -172 190 -36 21 -95 63 -130 92 -98 83 -126 105 -133 105 -3 0 -6 -33 -6 -72z" id="36"/>
<path d="M1170 5516 c-66 -49 -148 -139 -170 -188 -25 -55 -25 -103 1 -230 13 -67 22 -161 26 -270 3 -93 7 -168 9 -168 1 0 48 34 103 75 175 131 227 219 296 502 24 98 49 191 55 207 9 25 8 27 -7 21 -74 -30 -171 -8 -222 51 -17 19 -34 34 -38 34 -4 0 -28 -15 -53 -34z" id="37"/>
<path d="M8100 5479 c-72 -14 -81 -24 -33 -39 21 -7 48 -18 59 -26 12 -7 48 -24 81 -37 33 -13 107 -53 164 -89 57 -36 110 -68 117 -72 9 -6 12 20 12 113 l0 120 -52 17 c-65 20 -270 27 -348 13z" id="38"/>
<path d="M2348 5396 c-37 -13 -95 -38 -130 -55 -53 -26 -58 -30 -28 -25 19 3 141 7 270 10 268 5 280 7 280 34 0 14 -10 22 -37 29 -150 40 -256 42 -355 7z" id="39"/>
<path d="M0 5162 l0 -198 76 -12 c41 -7 108 -26 148 -42 80 -34 248 -139 339 -214 32 -26 61 -46 63 -43 3 2 -12 24 -32 48 -20 24 -71 95 -114 159 -44 63 -109 152 -145 198 -66 82 -211 218 -292 274 l-43 29 0 -199z" id="40"/>
<path d="M8220 5336 c0 -3 20 -32 45 -64 25 -32 81 -130 124 -217 115 -233 110 -231 110 -40 l0 160 -122 77 c-122 77 -157 96 -157 84z" id="41"/>
<path d="M2851 5069 c-63 -38 -132 -84 -153 -100 -36 -29 -68 -75 -68 -98 0 -5 30 -33 68 -62 37 -28 73 -57 80 -62 11 -8 12 -4 7 19 -5 22 -2 19 14 -14 23 -49 101 -160 101 -145 0 6 -7 29 -14 52 -8 22 -17 69 -20 103 l-6 63 15 -64 c8 -35 24 -94 36 -130 22 -69 106 -248 121 -257 16 -10 8 116 -17 246 -14 73 -25 153 -24 179 1 76 59 -249 67 -379 l7 -115 33 64 c37 73 39 106 17 231 -8 47 -14 96 -14 110 2 35 26 -66 40 -169 l12 -84 22 25 c30 35 37 93 25 195 -6 47 -9 88 -6 90 11 11 26 -78 26 -152 l1 -80 36 39 36 39 -6 91 c-3 53 -2 81 3 66 4 -14 8 -51 9 -82 1 -32 5 -58 9 -58 27 0 72 89 72 140 0 70 -59 131 -246 254 -72 47 -137 92 -144 101 -7 8 -15 15 -19 14 -3 0 -57 -32 -120 -70z" id="42"/>
<path d="M7082 4923 c-66 -142 -83 -220 -89 -431 -3 -111 -2 -187 4 -193 6 -6 24 3 49 25 l39 33 -3 109 c-4 137 12 289 44 407 13 51 27 102 30 115 5 17 2 22 -13 22 -15 0 -30 -21 -61 -87z" id="43"/>
<path d="M3825 4950 c-11 -13 -111 -83 -223 -156 -228 -150 -286 -202 -371 -334 -98 -151 -144 -340 -85 -348 19 -3 22 5 32 64 10 62 76 223 87 212 3 -3 -6 -29 -19 -59 -31 -67 -58 -171 -54 -206 6 -52 25 -34 43 39 31 126 126 284 262 437 45 50 67 50 52 -2 -11 -38 -12 -107 -1 -107 4 0 15 17 24 38 10 20 36 57 58 82 l41 45 -39 -60 c-78 -119 -83 -139 -56 -203 l15 -37 17 51 c16 44 126 224 138 224 5 0 -10 -30 -70 -135 -62 -107 -72 -145 -50 -190 9 -19 19 -35 23 -35 3 0 12 24 19 53 13 55 89 223 97 215 3 -3 -13 -47 -34 -99 -52 -124 -65 -182 -51 -225 7 -19 15 -34 18 -34 8 1 49 87 98 205 19 44 34 73 34 64 0 -27 -35 -120 -78 -205 -22 -44 -44 -97 -47 -118 l-8 -38 31 16 c42 22 80 74 108 149 15 41 23 54 23 37 1 -36 -40 -116 -93 -184 -49 -62 -55 -88 -35 -146 l12 -32 54 83 c30 46 56 86 59 89 16 16 -22 -60 -56 -113 -36 -54 -41 -67 -35 -101 9 -62 17 -63 35 -5 9 30 40 104 68 164 63 137 75 181 74 275 -1 89 -12 167 -53 350 -16 74 -32 173 -37 219 l-7 83 -20 -22z" id="44"/>
<path d="M7400 4937 c-99 -27 -204 -134 -251 -255 -17 -44 -23 -85 -27 -180 l-4 -123 43 7 c30 5 60 21 97 51 174 141 312 132 578 -42 47 -30 91 -55 100 -55 8 0 49 17 92 39 146 73 217 94 322 95 52 1 107 -2 123 -7 26 -7 27 -6 27 35 0 41 -2 44 -47 68 -26 14 -95 61 -153 104 -145 109 -249 157 -451 205 -259 63 -376 78 -449 58z" id="45"/>
<path d="M0 3912 l0 -1020 43 5 c62 8 84 25 92 75 23 140 133 250 275 273 l64 11 35 59 c44 76 128 157 198 191 48 24 58 26 92 15 21 -6 58 -28 82 -49 24 -22 54 -44 66 -50 35 -19 81 -15 101 10 66 81 65 81 128 82 l59 1 23 45 c12 24 22 58 22 75 0 56 30 149 61 188 17 21 28 45 25 53 -3 8 -25 26 -48 42 -83 53 -119 86 -192 176 -109 136 -165 219 -196 294 -27 62 -31 67 -73 79 -52 15 -170 93 -345 226 -194 149 -321 213 -459 232 l-53 7 0 -1020z" id="46"/>
<path d="M2170 4855 c0 -3 16 -29 35 -58 19 -28 42 -81 51 -117 14 -56 15 -78 4 -170 -19 -168 5 -281 84 -389 29 -40 113 -111 130 -111 3 0 -12 27 -34 61 -51 80 -78 154 -91 250 -14 103 -6 125 11 29 23 -139 74 -251 149 -328 33 -33 48 -42 76 -42 l35 0 -50 73 c-27 39 -62 106 -78 147 -30 74 -117 408 -109 416 8 8 46 -109 77 -236 50 -203 156 -397 210 -383 30 8 33 20 12 51 -33 46 -71 149 -122 334 -53 189 -89 273 -147 341 -19 23 -11 16 20 -15 63 -65 92 -130 151 -340 53 -188 116 -338 141 -338 5 0 19 7 29 15 19 14 18 16 -12 82 -37 83 -47 119 -66 248 -17 110 -35 169 -68 224 -14 22 -16 31 -7 24 37 -30 69 -112 88 -225 24 -140 36 -186 66 -252 36 -77 39 -80 65 -66 18 10 21 17 16 43 -4 18 -11 78 -17 134 -5 56 -18 130 -29 165 -24 77 -19 88 8 16 24 -65 39 -140 48 -239 8 -93 12 -102 49 -93 l28 7 -6 101 c-4 56 -9 115 -13 131 -4 22 -3 26 4 16 17 -24 35 -139 30 -192 l-5 -50 46 3 46 3 -3 60 c-6 151 -98 333 -228 454 -104 97 -307 187 -477 210 -84 12 -147 14 -147 6z" id="47"/>
<path d="M5044 4798 c4 -13 11 -168 15 -344 7 -293 10 -325 28 -360 11 -22 24 -39 29 -39 12 0 17 529 5 635 -8 75 -12 87 -38 107 -36 29 -47 29 -39 1z" id="48"/>
<path d="M4205 4596 c-103 -29 -180 -74 -212 -123 -15 -22 -20 -79 -9 -91 2 -2 23 17 46 42 40 44 128 96 159 96 9 -1 -9 -13 -39 -27 -30 -15 -78 -50 -106 -78 -47 -47 -51 -55 -58 -114 -8 -67 -1 -88 16 -56 30 54 144 156 217 193 110 57 140 61 46 7 -149 -87 -236 -171 -284 -276 -27 -60 -134 -389 -128 -395 7 -7 53 103 88 211 17 55 44 125 59 156 31 60 119 174 128 165 3 -4 -6 -19 -21 -34 -50 -53 -96 -145 -148 -299 -32 -93 -67 -178 -87 -208 -25 -36 -35 -65 -39 -105 -6 -53 -5 -55 13 -38 38 34 85 127 143 287 33 90 80 198 103 239 43 76 151 195 218 242 19 13 -10 -23 -65 -81 -116 -121 -165 -206 -235 -404 -53 -150 -86 -216 -144 -287 -64 -79 -61 -119 5 -74 77 53 128 142 184 321 36 118 80 210 111 236 9 7 0 -16 -19 -52 -20 -35 -52 -120 -73 -189 -54 -184 -102 -270 -187 -331 -45 -33 -30 -38 35 -13 47 19 109 72 137 119 12 18 21 59 24 105 7 98 46 219 97 300 55 88 73 129 74 168 0 17 2 32 6 32 3 0 35 -7 71 -17 36 -9 73 -14 83 -10 9 4 33 42 52 84 56 124 57 125 103 170 25 24 43 44 40 46 -11 9 -111 47 -171 65 -92 29 -172 35 -233 18z" id="49"/>
<path d="M3427 4468 c-149 -195 -185 -312 -151 -490 3 -16 9 -28 14 -28 20 0 299 141 328 165 43 36 41 63 -12 154 -65 111 -85 160 -93 235 l-8 66 -78 -102z" id="50"/>
<path d="M5561 4351 c-232 -236 -283 -312 -342 -501 -29 -97 -32 -119 -37 -278 -2 -96 0 -177 4 -182 5 -4 22 -10 38 -14 25 -6 28 -5 21 11 -29 70 -2 236 65 406 24 59 44 106 46 105 1 -2 -17 -62 -41 -133 -59 -173 -73 -264 -51 -338 16 -56 44 -87 77 -87 15 0 16 6 8 42 -12 50 3 230 27 320 15 60 83 222 90 215 2 -2 -10 -38 -26 -80 -54 -138 -73 -238 -67 -358 2 -59 11 -119 18 -135 13 -27 63 -64 72 -54 3 3 1 32 -4 65 -8 64 2 176 26 287 17 77 65 232 70 226 2 -2 -13 -66 -32 -143 -30 -119 -36 -158 -37 -255 0 -120 12 -187 42 -216 16 -17 17 -12 23 97 6 122 21 188 70 314 17 44 41 121 55 170 21 79 23 83 19 36 -4 -29 -30 -126 -60 -215 -29 -88 -56 -179 -60 -201 -10 -65 21 -244 46 -272 12 -12 26 -20 30 -17 5 3 9 31 9 62 0 89 17 175 65 327 53 172 65 227 74 363 l8 107 2 -112 c1 -132 -6 -171 -65 -358 -37 -115 -44 -150 -42 -203 l3 -63 59 82 c103 143 147 292 149 511 1 70 5 121 9 115 18 -28 8 -242 -16 -357 -13 -63 -27 -123 -31 -132 -13 -33 13 -18 59 33 59 66 85 148 96 301 l7 113 1 -105 c1 -63 -4 -130 -13 -169 -9 -35 -13 -66 -10 -69 3 -3 20 8 37 25 30 31 31 35 36 135 6 137 -18 234 -94 386 -47 94 -71 129 -144 206 -49 52 -96 108 -104 125 -9 17 -18 30 -19 30 -1 -1 -76 -77 -166 -168z" id="51"/>
<path d="M5760 4509 c0 -5 43 -55 95 -110 178 -188 272 -408 263 -617 -2 -45 0 -82 3 -82 3 0 14 9 25 21 17 19 19 37 18 153 -1 108 -5 142 -23 196 -35 101 -117 229 -195 303 -47 45 -186 147 -186 136z" id="52"/>
<path d="M7437 4499 c-96 -23 -204 -104 -240 -181 -27 -57 -55 -187 -59 -277 l-3 -54 50 -14 c30 -8 71 -11 104 -8 52 5 53 5 47 -17 -15 -55 -17 -108 -6 -161 6 -31 15 -57 20 -57 11 0 156 162 261 291 83 102 171 188 250 241 27 18 49 36 49 39 0 7 -116 85 -190 129 -99 59 -212 86 -283 69z" id="53"/>
<path d="M958 4453 c-25 -6 -23 -16 17 -92 80 -151 250 -330 387 -409 66 -37 80 -42 115 -36 22 3 46 10 53 14 20 12 -3 36 -48 51 -20 6 -81 34 -136 62 -164 85 -294 225 -334 359 -9 32 -21 57 -27 57 -5 -1 -18 -3 -27 -6z" id="54"/>
<path d="M1718 4450 c-40 -7 -258 -74 -280 -86 -3 -3 8 -26 26 -53 26 -38 42 -85 73 -213 22 -90 54 -194 72 -230 56 -119 174 -228 323 -297 142 -67 263 -119 267 -115 2 2 -2 16 -8 32 -9 22 -38 43 -119 87 -267 145 -367 250 -461 485 -35 88 -30 82 50 -65 106 -192 178 -263 388 -384 68 -39 126 -71 128 -71 9 0 -8 74 -20 88 -6 8 -64 49 -128 93 -159 108 -256 211 -327 347 -29 56 -51 102 -48 102 2 0 28 -41 57 -92 73 -124 181 -236 321 -333 62 -43 118 -80 125 -82 15 -6 6 94 -10 115 -5 6 -66 50 -136 97 -141 94 -213 162 -265 249 -51 86 -44 91 13 10 64 -91 133 -155 263 -242 58 -39 109 -76 113 -82 21 -34 35 22 15 61 -6 10 -61 52 -123 93 -62 41 -137 99 -167 130 -66 68 -60 73 11 10 54 -48 278 -198 285 -191 11 11 -21 116 -45 148 -32 44 -97 100 -158 136 -24 14 -42 27 -39 30 5 5 78 -31 116 -57 25 -17 111 -42 119 -35 2 2 -30 39 -70 81 -70 73 -72 76 -27 46 44 -31 118 -107 118 -124 0 -9 109 -42 117 -34 9 8 -116 175 -175 232 -101 100 -239 140 -394 114z" id="55"/>
<path d="M8263 4435 c-180 -49 -370 -161 -513 -305 -79 -78 -268 -325 -258 -336 3 -2 29 7 59 20 88 38 179 64 352 97 279 53 375 80 530 151 l67 31 0 162 0 163 -40 16 c-49 19 -127 20 -197 1z" id="56"/>
<path d="M7075 4310 c-36 -28 -79 -57 -95 -65 -43 -22 -44 -30 -6 -79 19 -25 39 -68 46 -98 14 -57 23 -68 57 -68 17 0 23 7 27 33 21 138 40 228 57 266 10 24 19 47 19 52 0 22 -45 5 -105 -41z" id="57"/>
<path d="M6480 4267 c0 -3 24 -19 53 -35 62 -35 131 -109 147 -156 l11 -33 112 -7 c61 -3 132 -9 156 -13 l43 -6 -7 34 c-16 75 -74 151 -129 168 -67 21 -386 61 -386 48z" id="58"/>
<path d="M6335 4246 c-61 -19 -117 -51 -149 -84 l-28 -30 16 -64 c9 -35 20 -113 23 -175 l6 -112 30 25 c17 14 55 56 85 92 59 72 92 95 92 62 0 -17 4 -16 57 10 31 16 87 36 125 45 37 10 68 21 68 26 0 25 -43 89 -85 128 -51 47 -136 91 -175 90 -14 0 -43 -6 -65 -13z" id="59"/>
<path d="M4280 4191 c0 -11 -29 -76 -64 -143 -74 -141 -92 -199 -105 -320 -21 -213 38 -434 164 -613 70 -99 178 -194 404 -354 72 -52 74 -52 67 -24 -4 17 -30 48 -64 77 -107 92 -257 251 -291 309 -44 75 -82 172 -88 222 -3 32 2 25 25 -40 60 -171 146 -290 292 -407 46 -37 85 -66 87 -64 13 13 -34 126 -67 161 -40 45 -115 156 -148 222 -34 66 -69 201 -82 312 -7 56 -10 104 -8 106 2 3 10 -35 16 -83 27 -203 79 -338 178 -460 l59 -72 3 35 c2 22 -4 47 -15 64 -64 102 -82 138 -116 241 -21 63 -40 138 -43 165 -4 46 -2 44 19 -30 36 -128 109 -293 137 -310 13 -8 23 99 15 163 -4 31 -23 119 -42 195 -19 77 -32 141 -29 144 5 5 44 -118 71 -227 21 -84 38 -102 33 -35 -3 47 -2 50 19 47 20 -3 22 -1 14 21 -5 13 -28 96 -51 183 -56 214 -53 204 -36 174 7 -14 28 -77 45 -140 51 -188 80 -260 108 -271 49 -19 63 -12 63 29 0 63 -38 256 -61 309 -32 74 -39 93 -33 93 11 0 72 -147 94 -224 12 -43 24 -111 27 -151 l6 -73 36 -5 c20 -2 40 -2 45 1 5 3 6 41 3 86 -8 119 -58 252 -155 416 -12 20 -10 19 11 -5 32 -37 98 -162 122 -230 9 -27 21 -58 26 -67 14 -28 30 -149 24 -179 -6 -24 -3 -29 19 -35 52 -13 56 -4 56 120 0 97 -4 126 -24 178 -22 58 -59 128 -108 203 -14 22 -10 19 16 -10 50 -56 113 -180 132 -261 9 -38 17 -109 18 -157 1 -82 2 -88 21 -85 19 3 20 13 26 173 3 94 12 191 19 217 14 55 7 86 -48 191 -62 120 -154 192 -282 218 -52 11 -118 10 -347 -7 -84 -6 -140 0 -197 22 -12 4 -16 0 -16 -15z" id="60"/>
<path d="M2130 4096 c0 -3 13 -27 30 -52 16 -26 33 -64 36 -83 13 -73 61 -111 141 -111 40 0 143 42 143 59 0 16 -102 102 -152 127 -26 13 -73 31 -105 39 -32 8 -65 18 -75 21 -10 3 -18 3 -18 0z" id="61"/>
<path d="M2910 4066 c-70 -20 -190 -88 -190 -107 0 -19 39 -8 54 15 18 29 66 42 95 26 27 -14 27 -38 0 -66 l-20 -22 31 -22 c30 -21 35 -22 73 -9 84 28 147 12 147 -37 0 -24 -26 -57 -51 -66 -11 -4 -11 -8 -2 -18 9 -10 24 0 70 47 32 33 71 69 87 80 35 24 27 43 -17 43 -42 0 -77 25 -77 54 0 31 17 44 65 48 l40 3 -35 19 c-45 25 -204 32 -270 12z m138 -42 c26 -18 29 -56 6 -75 -9 -7 -33 -14 -54 -14 -68 0 -92 46 -44 84 32 25 61 27 92 5z" id="62"/>
<path d="M2978 3999 c-24 -13 -23 -26 2 -34 43 -13 84 23 44 39 -21 8 -26 7 -46 -5z" id="63"/>
<path d="M3605 4040 c-171 -45 -359 -144 -456 -241 -36 -36 -99 -133 -99 -154 0 -5 19 9 43 32 59 57 123 98 224 143 106 48 82 27 -42 -38 -64 -33 -111 -67 -161 -117 -75 -73 -94 -112 -93 -185 l0 -35 28 55 c41 79 128 157 245 220 55 30 129 76 165 103 l66 48 -56 -53 c-30 -29 -89 -71 -130 -92 -198 -103 -301 -222 -298 -345 l0 -36 13 41 c17 54 67 124 119 165 70 57 353 242 327 214 -13 -14 -85 -67 -158 -117 -152 -104 -220 -165 -252 -228 -24 -47 -30 -124 -12 -142 9 -9 12 -2 12 28 0 81 63 146 284 294 60 40 130 93 155 118 35 35 41 39 27 17 -33 -53 -58 -74 -196 -168 -162 -110 -234 -178 -249 -235 -11 -39 -7 -72 9 -72 5 0 25 22 44 49 51 69 127 136 248 218 94 65 176 140 221 203 14 20 14 17 -2 -16 -29 -60 -90 -118 -225 -214 -105 -75 -256 -217 -256 -241 0 -21 44 -6 93 30 29 22 103 65 165 96 132 67 183 113 241 216 45 79 47 58 3 -25 -47 -87 -94 -130 -205 -187 -118 -60 -207 -115 -207 -127 0 -13 101 5 165 29 67 25 155 89 214 155 37 41 41 43 25 15 -10 -18 -48 -60 -83 -92 -35 -33 -60 -59 -55 -59 24 0 116 64 157 110 79 88 92 125 92 270 0 116 -3 132 -33 215 -17 49 -32 104 -32 122 0 38 5 37 -85 13z" id="64"/>
<path d="M8436 4028 c-118 -59 -251 -96 -592 -163 -220 -43 -371 -106 -453 -189 l-42 -42 -3 -115 c-2 -63 -7 -134 -11 -159 l-7 -45 32 38 c35 41 132 113 195 145 133 66 298 98 580 112 176 9 341 33 361 52 2 3 3 93 2 200 l-3 196 -59 -30z" id="65"/>
<path d="M6630 3995 c-78 -16 -141 -40 -192 -73 -34 -22 -38 -29 -38 -66 0 -52 11 -116 19 -116 3 1 18 19 34 41 15 22 48 53 74 69 66 42 79 37 15 -5 -76 -52 -112 -105 -112 -168 l0 -50 56 61 c41 46 75 71 136 102 44 22 92 40 107 39 24 0 23 -1 -10 -14 -101 -37 -206 -107 -244 -163 -17 -24 -25 -50 -25 -77 0 -74 21 -111 35 -64 13 40 137 153 210 190 72 38 173 74 181 66 2 -2 -17 -12 -43 -22 -95 -35 -189 -91 -251 -149 -80 -75 -116 -134 -107 -176 l7 -31 46 35 c26 19 103 70 170 113 141 89 232 167 287 247 46 67 58 67 19 -1 -40 -69 -147 -171 -239 -228 -177 -108 -275 -175 -275 -188 0 -30 216 30 312 86 59 34 122 96 159 157 34 55 45 64 27 23 -49 -114 -150 -200 -283 -243 -33 -11 -36 -14 -20 -20 11 -4 46 -10 77 -14 47 -6 63 -4 99 14 61 31 129 105 171 185 42 78 51 69 14 -12 -29 -62 -92 -132 -152 -170 -24 -16 -44 -30 -44 -33 0 -7 75 -30 97 -30 29 0 121 67 153 111 16 22 34 56 40 75 7 20 14 34 16 31 2 -2 -3 -24 -12 -50 -20 -60 -79 -126 -139 -156 l-48 -24 44 -23 c80 -42 138 -25 184 55 15 26 23 35 19 21 -12 -48 -45 -89 -80 -102 -19 -6 -33 -17 -31 -22 2 -6 29 -24 60 -41 l57 -30 20 25 c80 102 98 245 76 611 l-9 145 -46 1 c-25 1 -86 11 -136 23 -207 49 -360 60 -485 35z" id="66"/>
<path d="M3142 3983 c2 -13 14 -19 41 -21 33 -3 38 -1 35 15 -2 13 -14 19 -41 21 -33 3 -38 1 -35 -15z" id="67"/>
<path d="M2799 3960 l-24 -19 23 -1 c30 0 64 18 57 31 -10 15 -31 11 -56 -11z" id="68"/>
<path d="M2550 3896 c-36 -13 -94 -36 -129 -51 -53 -22 -74 -26 -114 -21 -27 3 -60 12 -73 21 l-24 15 0 -77 c0 -125 50 -314 106 -399 59 -91 176 -176 283 -208 113 -33 122 -13 19 40 -105 54 -201 154 -256 264 -57 116 -53 137 5 25 36 -68 65 -108 123 -165 69 -69 160 -132 160 -112 0 4 -26 39 -58 78 -107 128 -148 196 -171 278 -16 59 -7 54 17 -9 28 -73 72 -138 177 -265 96 -116 111 -130 137 -130 14 0 18 8 18 35 0 55 -20 91 -113 208 -100 124 -134 180 -143 228 -5 29 -1 26 26 -26 17 -33 62 -98 101 -145 114 -139 141 -184 147 -240 4 -46 7 -50 26 -44 11 3 27 13 34 23 39 48 -39 239 -153 376 l-67 80 75 -76 c95 -97 168 -234 169 -317 0 -58 12 -66 45 -29 39 42 52 84 67 208 27 239 -20 354 -179 430 -78 37 -161 39 -255 5z" id="69"/>
<path d="M6312 3840 c-80 -112 -187 -336 -218 -455 -20 -79 -25 -117 -21 -180 4 -90 19 -130 104 -283 70 -128 87 -180 86 -275 l0 -78 22 21 c32 30 103 182 121 257 23 100 -5 221 -81 346 -19 31 -31 57 -26 57 19 0 85 -113 111 -191 28 -84 30 -84 45 -14 13 68 -50 206 -145 317 l-45 53 44 -34 c57 -45 105 -112 133 -186 l23 -60 3 45 c8 111 -36 249 -110 348 -28 37 -55 74 -61 82 -6 8 10 -5 37 -30 26 -25 56 -60 68 -78 11 -18 22 -31 24 -29 2 2 -8 61 -22 133 -14 71 -28 170 -32 219 l-7 90 -53 -75z" id="70"/>
<path d="M1460 3879 c-90 -41 -133 -103 -151 -220 -12 -80 -44 -168 -119 -329 -76 -165 -83 -191 -88 -327 -5 -144 7 -213 72 -419 50 -159 66 -252 66 -393 0 -128 16 -332 36 -451 25 -147 167 -560 192 -560 6 0 24 44 41 98 90 282 113 696 61 1149 -11 98 -21 207 -22 242 l-3 64 -70 29 c-106 43 -174 58 -264 58 -98 0 -102 9 -27 65 30 22 105 87 167 143 99 90 228 188 271 205 18 8 -21 38 -102 79 -59 30 -73 33 -152 33 -76 0 -88 2 -88 17 0 9 5 20 10 23 6 4 31 46 55 95 70 140 150 200 273 208 34 3 62 6 62 9 0 3 -16 23 -35 45 -19 22 -47 66 -63 97 -33 66 -53 72 -122 40z" id="71"/>
<path d="M2961 3851 c-10 -7 -8 -12 10 -25 13 -9 33 -16 44 -16 28 0 60 24 51 38 -8 14 -85 16 -105 3z" id="72"/>
<path d="M6037 3592 c-108 -96 -206 -193 -231 -227 -75 -104 -100 -219 -72 -338 15 -65 66 -180 85 -191 5 -3 17 13 26 37 14 32 20 85 25 222 6 168 8 184 34 240 27 61 76 138 82 132 2 -2 -10 -28 -26 -59 -57 -105 -63 -131 -70 -323 -5 -131 -12 -193 -24 -229 -15 -42 -16 -50 -3 -63 12 -12 17 -7 37 39 13 29 32 100 44 158 12 58 22 95 24 82 5 -36 -17 -160 -42 -234 -12 -38 -20 -71 -16 -73 4 -2 19 8 33 23 29 31 53 105 66 207 l8 70 2 -75 c1 -91 -18 -169 -54 -216 -25 -33 -26 -37 -11 -52 14 -15 18 -14 40 7 30 28 61 93 81 164 11 44 14 47 14 21 1 -52 -38 -162 -70 -199 -29 -33 -29 -34 -10 -44 30 -16 75 26 91 86 18 66 29 74 19 14 -8 -52 -21 -84 -46 -113 -13 -15 -12 -18 7 -28 29 -16 43 -1 75 76 14 32 25 52 25 44 0 -26 -28 -121 -40 -136 -10 -11 -5 -22 24 -54 l36 -40 12 27 c18 43 15 170 -5 229 -10 28 -39 89 -66 136 -76 132 -104 218 -104 313 0 138 61 319 157 469 20 32 36 60 34 61 -2 2 -88 -72 -191 -163z" id="73"/>
<path d="M1569 3646 c-49 -13 -121 -61 -146 -96 -8 -12 -33 -55 -54 -96 l-39 -74 60 0 c75 0 119 -17 247 -97 157 -98 385 -205 489 -231 106 -26 230 -29 323 -7 103 25 108 36 11 30 -176 -13 -354 54 -595 225 -206 146 -199 147 29 2 223 -141 367 -204 466 -201 35 1 34 1 -13 14 -70 19 -177 73 -302 150 -60 38 -155 95 -210 127 -55 32 -96 58 -92 58 16 0 191 -93 290 -154 123 -76 264 -149 280 -143 6 2 -5 13 -24 25 -19 11 -95 66 -169 122 -74 55 -163 115 -197 132 -34 18 -60 34 -58 36 9 9 139 -65 235 -134 189 -137 277 -191 329 -204 76 -18 81 -8 15 29 -34 20 -98 74 -154 130 -112 113 -169 153 -308 214 -56 25 -136 66 -176 91 -45 28 -94 50 -126 56 -61 12 -53 12 -111 -4z" id="74"/>
<path d="M8489 3626 c-16 -16 -196 -39 -363 -47 -219 -10 -335 -26 -451 -64 -127 -42 -197 -83 -283 -167 -51 -50 -128 -155 -120 -163 2 -3 25 2 50 10 67 20 209 35 416 43 l182 8 31 37 c72 87 185 118 289 78 30 -12 62 -21 70 -21 8 0 54 19 102 42 l88 41 0 104 c0 98 -1 108 -11 99z" id="75"/>
<path d="M4049 3534 c-22 -42 -120 -111 -232 -164 l-102 -49 52 0 c77 -1 145 16 207 54 42 25 53 29 46 15 -30 -56 -112 -85 -270 -95 -139 -9 -175 -28 -107 -56 19 -8 70 -14 127 -14 114 0 178 20 240 72 47 40 41 17 -7 -29 -43 -41 -99 -60 -203 -67 l-95 -7 37 -17 c50 -23 187 -23 231 -1 18 9 50 33 71 53 l39 36 -19 -34 c-44 -78 -140 -113 -255 -92 -34 6 -64 9 -67 7 -10 -11 23 -49 53 -62 95 -40 264 20 340 120 l27 35 -30 88 c-16 48 -35 121 -42 161 -6 39 -15 72 -19 72 -4 0 -14 -12 -22 -26z" id="76"/>
<path d="M695 3474 c-67 -45 -125 -106 -166 -177 l-40 -67 30 -38 c55 -67 103 -225 186 -606 80 -371 148 -564 313 -892 150 -296 270 -484 359 -558 53 -45 54 -21 3 56 -60 90 -167 356 -260 644 -72 223 -106 359 -141 569 -27 159 -29 392 -5 625 24 242 7 323 -85 401 -93 79 -128 87 -194 43z" id="77"/>
<path d="M1119 3478 c-8 -7 -27 -30 -43 -50 -21 -29 -36 -39 -66 -44 -22 -4 -40 -8 -40 -9 0 -2 7 -32 16 -67 17 -66 17 -67 -5 -483 -12 -242 11 -436 89 -740 21 -82 61 -217 89 -299 58 -172 182 -488 188 -482 3 2 -7 42 -21 88 -60 198 -93 424 -106 728 -11 249 -20 307 -60 427 -57 170 -80 275 -86 388 -8 148 8 218 91 395 36 78 63 145 60 151 -9 13 -89 11 -106 -3z" id="78"/>
<path d="M4712 3368 c-29 -141 -33 -192 -22 -283 24 -216 144 -538 226 -606 22 -18 17 -1 -15 44 -43 63 -68 117 -85 184 -22 82 -19 100 5 34 30 -84 81 -191 92 -191 11 0 9 8 -28 105 -25 66 -60 214 -52 222 2 2 9 -16 16 -39 44 -154 63 -208 71 -208 6 0 10 6 10 13 0 6 11 36 25 65 l24 52 -39 56 c-36 51 -86 161 -77 170 2 2 22 -34 46 -79 23 -45 51 -93 62 -106 19 -23 20 -23 40 -6 19 19 19 19 -25 64 -37 37 -87 121 -73 121 2 0 18 -21 35 -47 39 -61 87 -107 101 -98 7 4 -4 24 -31 54 -57 64 -130 189 -162 280 -36 101 -27 112 13 15 37 -91 97 -196 154 -271 42 -56 44 -58 66 -44 12 8 7 22 -30 78 -25 37 -54 82 -64 98 l-19 30 21 -18 c12 -10 42 -50 68 -88 25 -38 52 -69 58 -69 7 0 22 8 35 18 l22 17 -81 88 c-45 48 -79 90 -77 93 3 3 44 -36 91 -86 84 -89 86 -91 112 -78 l26 14 -58 55 c-32 30 -83 76 -113 103 -44 38 -48 45 -21 30 19 -11 74 -56 122 -102 76 -72 91 -82 114 -76 14 3 24 11 22 18 -2 6 -51 47 -109 91 -162 123 -168 128 -138 114 44 -21 163 -105 223 -157 35 -31 63 -49 72 -46 8 4 15 10 15 14 0 13 -126 123 -199 175 -36 25 -61 45 -56 45 23 0 158 -96 215 -154 61 -63 67 -66 112 -66 26 0 48 4 48 9 0 17 -97 90 -191 146 -121 70 -131 77 -97 65 91 -31 247 -130 307 -194 16 -17 35 -26 55 -26 l30 0 -39 41 c-53 54 -183 140 -286 188 -102 48 -90 54 18 8 127 -54 259 -145 304 -212 21 -30 66 -62 75 -52 2 2 -1 19 -6 39 -10 35 -93 122 -170 180 -111 83 -271 137 -505 173 -132 20 -234 39 -255 49 -12 5 -18 -7 -28 -56z" id="79"/>
<path d="M8425 3339 c-33 -16 -66 -29 -72 -29 -19 0 -16 -8 14 -44 59 -70 80 -175 49 -249 -14 -35 -90 -107 -112 -107 -7 0 -16 -4 -19 -10 -4 -6 33 -10 104 -10 l111 0 0 240 c0 132 -3 240 -7 239 -5 0 -35 -14 -68 -30z" id="80"/>
<path d="M8078 3341 c-101 -33 -182 -171 -159 -273 20 -89 66 -132 156 -149 125 -23 238 7 293 79 23 30 27 45 27 102 0 57 -5 74 -30 116 -19 29 -53 64 -86 87 -46 32 -67 39 -115 43 -32 2 -71 0 -86 -5z m91 -63 c23 -63 24 -62 -39 -107 -33 -24 -71 -59 -85 -77 -14 -19 -34 -34 -43 -34 -71 2 -68 112 4 184 57 57 147 76 163 34z" id="81"/>
<path d="M8062 3259 c-53 -27 -83 -68 -90 -125 -7 -67 16 -68 78 -6 28 28 63 59 80 69 16 9 30 25 30 34 0 54 -29 62 -98 28z" id="82"/>
<path d="M6530 3331 c-28 -5 -34 -10 -32 -26 5 -26 1 -25 52 -14 47 11 91 6 180 -18 62 -16 213 -74 207 -79 -1 -2 -50 13 -107 32 -118 40 -214 52 -277 35 -40 -11 -43 -14 -43 -48 0 -32 2 -35 23 -29 82 24 137 27 213 13 44 -8 95 -22 114 -31 24 -11 27 -15 10 -11 -155 34 -170 35 -235 19 -78 -20 -125 -47 -125 -74 0 -24 1 -24 70 0 56 20 155 25 215 11 20 -5 -5 -9 -75 -12 -93 -4 -111 -8 -153 -32 -51 -30 -52 -31 -62 -90 l-6 -37 63 34 c61 33 187 80 195 72 2 -2 -32 -18 -75 -35 -123 -50 -211 -139 -212 -214 0 -4 24 12 53 36 29 24 105 69 168 101 117 59 116 45 -1 -19 -102 -56 -213 -155 -244 -216 -14 -29 -24 -54 -22 -57 9 -8 258 173 341 248 l50 45 -34 -40 c-19 -22 -93 -89 -165 -150 -182 -153 -232 -206 -303 -322 -35 -55 -63 -104 -63 -108 0 -4 34 25 76 64 42 40 120 104 173 143 53 39 136 110 185 157 59 56 78 71 57 44 -51 -66 -108 -122 -219 -211 -171 -139 -376 -344 -237 -238 24 19 94 64 155 101 187 113 251 169 606 534 109 112 184 196 176 198 -7 3 -64 36 -128 75 -142 86 -211 115 -332 139 -94 19 -165 22 -232 10z" id="83"/>
<path d="M335 3200 c-22 -11 -57 -33 -77 -50 -39 -32 -98 -138 -98 -176 0 -13 -5 -34 -12 -48 -10 -23 -7 -30 33 -73 57 -61 109 -163 199 -388 148 -371 339 -718 515 -932 111 -135 284 -308 383 -381 46 -34 88 -62 94 -62 6 0 -18 30 -53 68 -35 37 -101 126 -145 197 -79 126 -254 464 -309 595 -73 173 -138 400 -210 736 -54 254 -104 415 -147 480 -31 47 -35 49 -83 52 -34 2 -62 -4 -90 -18z" id="84"/>
<path d="M1625 3196 c-51 -23 -164 -111 -292 -228 l-123 -113 67 -6 c38 -3 104 -16 149 -27 44 -12 155 -38 245 -59 144 -32 180 -36 294 -36 145 0 229 17 305 60 42 25 184 152 177 160 -2 1 -40 -21 -85 -51 -123 -81 -197 -101 -362 -100 -100 0 -147 5 -180 17 -25 9 -34 14 -20 11 14 -3 79 -7 145 -10 136 -7 229 8 322 51 57 26 188 114 180 121 -2 2 -37 -11 -78 -30 -86 -40 -204 -67 -286 -65 l-58 2 65 8 c106 13 202 38 255 64 l50 25 -40 -5 c-159 -21 -205 -24 -293 -15 -134 14 -130 24 6 15 64 -4 112 -3 112 2 0 5 -39 17 -87 27 -97 19 -254 69 -190 59 20 -3 37 -3 37 1 0 8 -257 136 -272 136 -7 -1 -26 -7 -43 -14z" id="85"/>
<path d="M3338 3204 c-25 -7 -23 -16 13 -50 68 -64 78 -133 30 -205 -17 -24 -44 -55 -61 -67 -29 -22 -28 -19 14 38 54 74 64 114 41 164 -22 47 -79 96 -110 96 -31 0 -31 -1 2 -51 37 -57 36 -115 -4 -199 -17 -36 -44 -81 -61 -100 -28 -32 -27 -28 15 57 54 109 64 170 35 223 -25 44 -57 67 -108 75 l-41 6 34 -68 c31 -61 34 -75 31 -134 -3 -52 -12 -83 -42 -143 -21 -43 -39 -76 -41 -74 -2 2 12 48 30 103 19 55 35 116 35 136 0 22 -14 65 -36 108 -29 58 -40 71 -59 71 -43 0 -49 -29 -55 -265 -4 -177 -7 -210 -15 -170 -11 62 -12 316 -1 370 l8 40 -32 -30 c-17 -16 -43 -54 -58 -85 -23 -48 -27 -66 -26 -140 1 -53 10 -110 22 -152 11 -38 18 -68 16 -68 -3 0 -17 26 -32 58 -24 50 -27 69 -27 157 0 100 2 109 53 208 2 4 -1 7 -7 7 -16 0 -98 -108 -132 -172 -20 -40 -29 -72 -29 -105 0 -46 3 -50 68 -112 l67 -64 -54 29 c-77 41 -106 83 -106 153 1 42 7 68 28 105 15 27 25 51 23 53 -7 7 -77 -59 -118 -110 -48 -61 -49 -93 -5 -144 l32 -37 -32 19 c-18 11 -40 34 -48 52 -14 29 -14 36 -1 68 8 19 11 35 7 35 -5 0 -29 -22 -55 -50 -48 -51 -58 -89 -35 -131 14 -26 34 -33 199 -69 142 -31 260 -67 298 -91 20 -12 25 -9 77 49 65 72 200 164 299 204 224 92 342 206 322 313 -5 26 -16 41 -39 55 -35 22 -125 43 -159 38 -22 -3 -21 -4 9 -22 44 -27 68 -74 59 -117 -7 -38 -51 -97 -97 -129 -25 -19 -22 -12 21 45 76 100 69 150 -27 199 -35 17 -107 28 -135 20z" id="86"/>
<path d="M7659 3190 c-280 -30 -359 -46 -359 -76 0 -9 -18 -36 -39 -60 -39 -42 -109 -164 -94 -164 5 0 33 9 63 21 75 29 208 56 310 64 76 6 159 1 344 -21 l57 -7 -27 52 c-28 54 -36 119 -21 179 l9 32 -39 -1 c-21 -1 -113 -10 -204 -19z" id="87"/>
<path d="M4160 3122 c-53 -55 -163 -108 -296 -142 -120 -31 -129 -35 -274 -130 -47 -31 -100 -62 -118 -69 -36 -15 -39 -23 -17 -41 12 -10 22 -8 53 13 194 128 481 203 676 176 45 -6 120 -23 169 -39 48 -15 87 -26 87 -23 0 15 -31 54 -89 112 -36 37 -84 93 -105 124 -22 31 -42 57 -45 56 -3 0 -22 -17 -41 -37z" id="88"/>
<path d="M5382 2969 c-76 -13 -193 -64 -261 -114 -117 -86 -177 -199 -168 -317 6 -98 30 -136 108 -176 86 -44 148 -50 230 -24 35 11 98 28 139 37 96 22 153 47 185 81 23 24 36 71 18 62 -5 -2 -36 -18 -70 -35 -100 -52 -202 -77 -323 -77 -91 -1 -112 2 -152 22 -27 13 -48 28 -48 34 0 6 7 7 18 3 41 -18 120 -35 162 -35 189 0 361 78 547 248 33 30 35 36 31 77 -6 51 -64 143 -113 180 -57 43 -171 56 -303 34z m72 -61 c20 -32 -29 -78 -100 -92 -42 -9 -80 20 -69 53 17 54 141 82 169 39z m182 -13 c13 -32 -5 -63 -46 -79 -51 -20 -63 -20 -90 2 -46 37 5 91 88 92 29 0 44 -5 48 -15z m-384 -72 c24 -21 23 -44 -3 -77 -54 -69 -160 -76 -159 -11 2 74 111 134 162 88z m472 -29 c25 -24 19 -49 -18 -82 -81 -71 -193 -42 -145 37 32 54 128 80 163 45z m-260 -25 c24 -35 -1 -77 -66 -110 -66 -34 -128 -22 -128 26 0 74 154 141 194 84z m-291 -130 c16 -26 -1 -68 -36 -89 -56 -34 -127 -21 -127 23 0 23 41 69 70 80 27 11 83 2 93 -14z m378 11 c12 -7 19 -21 19 -40 0 -36 -45 -73 -108 -90 -37 -9 -48 -9 -68 5 -79 51 71 171 157 125z m-246 -90 c13 -42 -37 -90 -96 -90 -42 0 -64 20 -54 50 16 51 136 83 150 40z" id="89"/>
<path d="M5342 2890 c-19 -11 -32 -26 -29 -33 6 -17 62 -12 92 7 61 40 0 64 -63 26z" id="90"/>
<path d="M5543 2875 c-59 -25 -32 -56 31 -35 19 6 37 17 39 25 11 28 -19 33 -70 10z" id="91"/>
<path d="M5180 2808 c-44 -16 -77 -76 -51 -92 23 -15 111 42 111 70 0 21 -32 33 -60 22z" id="92"/>
<path d="M5609 2765 c-30 -16 -44 -44 -30 -58 25 -25 145 33 127 61 -10 16 -65 14 -97 -3z" id="93"/>
<path d="M5355 2750 c-29 -12 -67 -50 -62 -63 5 -17 54 -21 87 -7 36 15 74 55 65 69 -7 13 -61 13 -90 1z" id="94"/>
<path d="M5091 2626 c-19 -6 -40 -21 -48 -33 -14 -21 -13 -23 10 -34 19 -9 31 -8 55 5 69 36 55 87 -17 62z" id="95"/>
<path d="M5445 2612 c-43 -27 -61 -50 -47 -64 26 -26 142 25 142 62 0 16 -7 20 -32 20 -18 0 -46 -8 -63 -18z" id="96"/>
<path d="M5218 2543 c-39 -16 -49 -37 -23 -47 28 -10 85 23 85 51 0 17 -16 16 -62 -4z" id="97"/>
<path d="M6919 2741 c-248 -253 -288 -286 -481 -403 -131 -79 -222 -161 -295 -264 l-41 -59 45 -3 c32 -2 76 7 152 33 121 42 201 84 286 150 101 78 306 286 350 355 47 73 228 420 223 426 -2 2 -110 -104 -239 -235z" id="98"/>
<path d="M7540 2914 c-171 -21 -356 -63 -398 -90 -13 -9 -37 -43 -53 -77 -26 -56 -27 -62 -12 -65 127 -18 207 -54 300 -131 69 -58 119 -82 220 -105 93 -21 288 -21 363 -1 159 44 343 27 523 -50 16 -7 17 6 17 188 l0 196 -37 6 c-142 21 -316 60 -404 90 -102 35 -107 36 -294 39 -104 3 -206 2 -225 0z" id="99"/>
<path d="M4000 2899 c-253 -30 -521 -170 -699 -365 -77 -84 -134 -161 -127 -173 4 -5 21 -13 39 -16 94 -21 163 -89 264 -262 103 -179 188 -250 358 -303 79 -24 375 -42 375 -23 0 6 -52 20 -115 32 -145 27 -207 50 -299 112 -72 48 -137 107 -73 66 132 -85 195 -113 307 -138 112 -25 151 -25 90 0 -156 63 -272 128 -348 193 -49 42 -29 34 68 -27 48 -30 91 -55 96 -55 5 0 -16 24 -46 53 -30 29 -86 88 -124 131 -38 43 -93 94 -122 112 -67 43 -76 67 -36 102 34 31 128 162 115 162 -4 0 -22 -8 -39 -19 -70 -43 -73 -29 -4 19 84 59 193 150 186 157 -2 2 -31 -10 -65 -26 -74 -38 -162 -73 -168 -68 -2 2 56 35 129 72 301 152 342 201 58 70 -76 -35 -156 -71 -177 -80 -72 -29 -6 12 137 84 194 98 331 141 455 141 54 0 148 -25 210 -55 27 -13 51 -22 54 -19 12 12 -42 47 -110 70 -154 52 -266 68 -389 53z" id="100"/>
<path d="M23 2873 c-23 -4 -23 -7 -23 -156 l0 -152 53 -56 c100 -107 223 -298 335 -519 50 -99 59 -112 302 -391 180 -207 293 -316 452 -436 66 -50 184 -111 194 -101 2 2 -44 40 -102 83 -170 128 -319 296 -479 540 -157 238 -258 435 -385 750 -91 227 -143 334 -192 396 -37 47 -41 49 -86 48 -26 -1 -57 -4 -69 -6z" id="101"/>
<path d="M4165 2813 c-129 -28 -292 -169 -442 -379 -40 -55 -81 -108 -92 -118 -21 -19 -20 -19 27 -41 26 -12 90 -57 142 -99 179 -145 272 -176 540 -181 157 -3 199 -8 280 -29 52 -14 103 -28 113 -31 10 -4 17 -3 17 4 0 22 -77 87 -143 120 -64 33 -72 34 -224 42 -87 4 -179 14 -204 22 -51 16 -122 61 -154 98 -19 21 -17 21 15 -3 95 -70 161 -88 355 -98 141 -7 191 -17 278 -55 28 -12 21 20 -15 61 -45 51 -77 62 -255 85 -193 24 -276 41 -342 70 -67 28 -61 33 11 9 74 -24 275 -57 403 -65 54 -4 115 -13 133 -21 41 -17 42 -17 42 -5 0 19 -53 72 -90 91 -54 27 -105 37 -265 50 -143 12 -204 23 -264 47 -51 22 -33 23 45 3 39 -10 140 -23 225 -30 185 -14 236 -23 290 -50 22 -12 43 -20 45 -18 2 2 -4 20 -14 39 -13 25 -34 43 -84 68 -63 31 -74 34 -225 43 -246 14 -292 28 -78 23 193 -4 277 -16 339 -46 47 -22 55 -19 32 16 -38 57 -159 92 -331 96 -62 1 -66 2 -35 10 49 13 197 1 282 -22 39 -11 73 -17 77 -14 12 12 -26 61 -70 91 -68 45 -151 69 -239 68 -94 -1 -141 -19 -252 -94 -48 -33 -90 -60 -93 -60 -9 0 70 66 119 100 80 54 140 73 231 73 88 -1 171 -25 238 -69 22 -14 41 -24 43 -22 10 11 -25 86 -54 115 -77 77 -252 129 -357 106z" id="102"/>
<path d="M2380 2733 c-71 -43 -138 -68 -244 -90 l-86 -17 -15 -46 c-8 -25 -33 -135 -55 -245 -41 -202 -98 -383 -304 -965 -36 -101 -64 -186 -62 -187 2 -2 21 20 42 49 125 174 329 448 400 538 158 202 284 412 354 590 23 58 57 140 77 183 l37 78 -27 22 c-28 23 -62 92 -52 107 13 21 -14 14 -65 -17z" id="103"/>
<path d="M4570 2738 c0 -3 11 -30 24 -59 13 -30 37 -121 55 -204 21 -106 44 -180 74 -250 101 -230 145 -293 237 -334 74 -34 76 -24 9 47 -67 71 -117 153 -149 248 -11 32 -20 60 -20 63 0 3 25 -45 55 -107 80 -161 196 -282 271 -282 25 0 21 6 -50 80 -99 103 -179 231 -222 352 -21 60 -9 45 35 -44 58 -121 136 -232 219 -315 80 -81 130 -103 68 -30 -20 23 -52 68 -72 101 -40 63 -90 208 -71 200 7 -2 20 15 30 39 18 42 18 42 -5 57 -12 8 -42 29 -65 47 -23 18 -64 43 -91 57 -68 35 -155 117 -218 206 -47 68 -114 143 -114 128z" id="104"/>
<path d="M1574 2719 c-6 -11 1 -128 17 -249 5 -41 14 -129 19 -195 5 -66 14 -162 19 -214 15 -142 -20 -614 -59 -811 -11 -52 -18 -96 -16 -97 11 -11 98 216 247 647 86 248 116 348 140 470 29 152 67 323 76 346 3 8 -15 15 -54 19 -53 7 -222 47 -335 80 -31 9 -50 10 -54 4z" id="105"/>
<path d="M3229 2633 c-51 -26 -95 -60 -141 -107 -67 -68 -67 -69 -92 -52 -14 9 -32 16 -39 16 -32 0 -177 -170 -282 -331 -149 -226 -215 -309 -395 -493 -107 -109 -211 -202 -335 -300 -178 -139 -340 -284 -330 -294 3 -3 36 24 73 60 73 71 198 156 383 261 244 138 438 276 534 378 64 68 141 165 238 300 74 104 186 220 245 254 16 10 37 32 47 49 28 49 91 124 179 214 l81 82 -47 0 c-33 0 -66 -10 -119 -37z" id="106"/>
<path d="M5843 2652 c-8 -5 2 -12 30 -19 52 -14 119 -70 152 -127 14 -24 35 -81 46 -126 25 -97 22 -204 -5 -283 -10 -27 -15 -51 -12 -54 8 -9 75 91 98 147 32 80 32 217 0 280 -33 62 -106 135 -161 159 -54 23 -131 35 -148 23z" id="107"/>
<path d="M7023 2592 c-13 -32 -23 -62 -23 -64 0 -3 26 -8 59 -11 79 -9 140 -30 214 -77 70 -45 70 -52 -1 -16 -64 32 -136 53 -216 61 l-67 7 -39 -41 c-47 -50 -51 -64 -12 -54 48 14 224 7 292 -11 91 -24 162 -47 157 -52 -2 -3 -51 7 -108 21 -173 42 -368 28 -429 -30 -17 -16 -30 -32 -30 -36 0 -3 91 -7 203 -7 111 0 250 -6 310 -12 130 -14 197 -32 82 -22 -121 11 -512 6 -578 -6 -39 -8 -65 -19 -77 -34 -11 -13 -19 -25 -20 -28 0 -3 168 -4 372 -4 340 1 356 1 178 -7 -254 -11 -496 -28 -540 -37 -41 -9 -52 -36 -18 -46 13 -4 111 -9 218 -13 190 -5 263 1 390 34 14 3 22 3 19 -1 -3 -3 -51 -18 -105 -32 -78 -21 -134 -27 -264 -33 l-165 -6 51 -27 c99 -52 270 -59 433 -17 41 10 76 17 78 15 2 -2 -41 -18 -96 -36 -87 -28 -116 -32 -211 -34 -60 0 -110 -3 -110 -7 0 -3 15 -21 33 -41 53 -58 149 -63 269 -14 77 31 65 17 -17 -23 -54 -25 -78 -31 -135 -31 l-69 0 27 -60 c26 -59 28 -61 60 -56 48 7 139 51 199 96 32 25 79 79 123 140 78 110 110 136 242 196 47 21 85 41 82 43 -2 2 -27 12 -54 22 -80 28 -168 98 -269 213 -51 59 -111 121 -134 138 -68 50 -162 89 -225 95 l-57 5 -22 -60z" id="108"/>
<path d="M2527 2563 c-14 -26 -50 -111 -81 -188 -32 -77 -73 -169 -93 -205 -62 -111 -196 -310 -280 -416 -116 -145 -210 -273 -287 -392 -36 -57 -96 -140 -131 -184 -36 -44 -64 -82 -62 -84 1 -2 37 30 79 71 43 40 157 138 255 216 187 150 402 357 516 499 38 47 126 170 195 274 77 115 158 223 206 273 43 46 76 86 73 89 -2 3 -78 23 -168 45 -90 22 -172 42 -181 45 -13 4 -23 -7 -41 -43z" id="109"/>
<path d="M5711 2581 c-46 -43 -41 -98 6 -62 35 29 93 35 139 16 49 -20 70 -39 106 -94 36 -58 36 -76 -1 -25 -39 54 -85 91 -130 105 -33 10 -45 8 -85 -10 -39 -17 -47 -25 -44 -43 3 -20 11 -24 60 -30 75 -9 131 -39 163 -85 36 -55 31 -72 -7 -22 -40 51 -93 80 -156 86 l-47 4 35 -28 c137 -109 176 -217 122 -337 -26 -58 -37 -58 -17 -1 21 60 19 141 -6 192 -25 51 -117 139 -132 124 -6 -6 1 -30 18 -65 25 -51 27 -64 23 -134 -3 -52 -11 -90 -26 -117 -25 -48 -26 -46 -7 25 20 76 19 156 -5 208 -18 41 -33 50 -56 34 -6 -4 -14 -52 -17 -107 -4 -55 -14 -125 -22 -155 l-14 -55 4 70 c3 39 8 109 12 158 6 85 5 87 -16 87 -38 0 -75 -81 -91 -200 l-7 -55 -2 66 c-1 69 18 140 45 170 19 21 4 32 -28 20 -87 -34 -138 -198 -105 -341 9 -36 14 -66 12 -68 -1 -2 -11 18 -21 45 -14 34 -19 74 -19 138 0 83 2 94 33 148 18 31 29 57 26 57 -4 0 -21 -9 -38 -19 -63 -39 -105 -124 -107 -215 l-1 -51 -10 40 c-13 54 5 132 43 184 35 50 20 54 -40 10 -28 -19 -51 -48 -67 -82 -16 -36 -24 -45 -24 -29 0 39 25 86 66 121 l38 34 -29 -7 c-17 -4 -54 -21 -84 -38 -60 -35 -82 -73 -85 -148 -2 -85 80 -196 199 -267 94 -56 168 -106 194 -131 l24 -22 31 21 c17 11 65 36 106 56 41 19 102 48 135 64 119 56 205 176 241 337 14 61 14 84 4 156 -26 187 -120 295 -256 296 -44 0 -57 -5 -83 -29z" id="110"/>
<path d="M0 2408 l0 -137 128 -129 c120 -123 216 -201 229 -188 10 9 -41 120 -108 236 -58 102 -150 236 -216 316 l-32 39 -1 -137z" id="111"/>
<path d="M7480 2442 c0 -19 160 -162 209 -187 28 -14 76 -32 108 -40 94 -25 92 -32 -17 -79 -97 -42 -130 -65 -130 -89 0 -37 41 -106 86 -146 71 -63 126 -84 214 -84 134 1 189 33 392 230 75 73 142 133 148 133 6 0 10 29 10 75 0 87 -2 90 -122 133 -83 30 -156 32 -513 18 -181 -7 -207 -6 -275 12 -41 11 -83 23 -92 27 -10 4 -18 3 -18 -3z" id="112"/>
<path d="M3099 2299 c-82 -58 -151 -133 -282 -309 -171 -228 -266 -322 -449 -443 -78 -52 -181 -116 -228 -142 -195 -110 -354 -213 -430 -278 -45 -38 -79 -71 -77 -74 3 -2 29 9 58 26 62 35 155 74 322 137 155 58 264 113 357 180 41 29 185 155 320 280 135 124 274 248 310 275 91 69 210 126 305 146 44 9 82 18 84 19 8 7 -63 105 -99 138 -89 80 -128 89 -191 45z" id="113"/>
<path d="M0 2094 l0 -139 150 -150 c104 -105 161 -155 187 -164 64 -23 143 -75 263 -176 63 -54 153 -123 199 -156 87 -61 326 -187 336 -177 3 3 -36 38 -87 79 -122 97 -218 194 -363 364 -175 206 -279 309 -375 372 -55 36 -124 95 -197 170 l-113 116 0 -139z" id="114"/>
<path d="M3882 2071 c2 -4 21 -24 44 -44 51 -45 340 -169 446 -191 110 -23 301 -46 376 -46 82 0 172 10 172 20 0 3 -55 24 -122 45 -68 21 -169 55 -225 76 -100 38 -102 38 -245 38 -175 -1 -265 16 -371 70 -43 22 -77 36 -75 32z" id="115"/>
<path d="M8363 1960 c-95 -82 -151 -122 -218 -156 -83 -41 -101 -46 -239 -64 -228 -30 -292 -66 -427 -246 -38 -51 -88 -108 -110 -127 l-41 -34 43 -25 c113 -67 189 -53 253 44 20 31 50 102 71 170 20 64 42 119 49 121 21 8 169 -47 293 -108 206 -102 344 -218 426 -356 l37 -64 0 478 c0 262 -2 477 -5 477 -2 0 -62 -50 -132 -110z" id="116"/>
<path d="M3258 2034 c-137 -33 -297 -145 -574 -401 -318 -294 -378 -334 -684 -448 -173 -64 -346 -142 -337 -151 3 -3 171 49 372 116 351 117 368 124 384 154 30 58 114 132 177 155 66 25 164 25 222 0 32 -13 36 -12 155 48 67 34 174 95 237 134 103 65 293 169 329 181 11 3 4 20 -25 69 -21 35 -50 86 -64 112 l-25 47 -55 -1 c-30 0 -81 -7 -112 -15z" id="117"/>
<path d="M7569 1998 c-23 -24 -59 -78 -81 -122 -47 -94 -117 -171 -213 -236 -73 -49 -141 -130 -110 -130 28 0 77 31 177 110 172 135 252 171 410 185 l68 7 -60 40 c-65 43 -90 73 -121 143 -11 25 -22 45 -24 45 -3 0 -23 -19 -46 -42z" id="118"/>
<path d="M6446 2022 c-3 -5 17 -14 45 -20 123 -29 279 -132 374 -248 47 -58 105 -163 131 -238 23 -65 9 -51 -29 28 -86 182 -229 330 -379 395 -64 27 -168 51 -223 51 l-49 0 109 -55 c61 -30 135 -73 166 -97 119 -91 249 -260 307 -400 53 -127 46 -137 -12 -20 -122 247 -250 384 -447 479 -102 50 -174 71 -214 64 -29 -6 -27 -8 70 -75 239 -167 410 -328 523 -494 57 -83 137 -230 130 -238 -2 -1 -24 31 -48 74 -102 173 -254 352 -410 482 -80 66 -326 230 -346 230 -22 0 -17 -20 22 -84 87 -144 200 -268 448 -490 93 -83 187 -168 210 -188 22 -20 37 -37 33 -38 -17 0 -318 259 -450 390 -146 142 -242 259 -285 347 -44 90 -68 58 -38 -52 27 -102 39 -119 89 -132 55 -15 120 -70 148 -126 11 -21 26 -67 34 -102 11 -54 19 -68 61 -107 92 -85 146 -129 185 -148 21 -11 39 -24 39 -28 0 -11 46 -59 105 -111 l50 -44 -60 42 -60 41 -8 -32 c-12 -46 -51 -95 -82 -100 -28 -6 -93 22 -120 52 -9 10 -22 34 -28 52 -8 21 -40 58 -87 99 l-75 65 -38 -25 -39 -25 64 -61 c35 -34 79 -73 98 -89 l35 -28 -44 24 c-24 12 -74 50 -110 84 -63 58 -68 60 -110 56 l-43 -4 53 -56 c48 -50 50 -52 14 -25 -22 17 -49 41 -60 53 -11 12 -38 31 -60 42 -99 50 -141 106 -152 201 -3 29 -15 84 -26 122 -16 51 -22 96 -22 169 l0 99 -27 -59 c-37 -79 -43 -115 -30 -198 18 -116 77 -221 186 -331 50 -51 107 -104 126 -119 l35 -28 -33 19 c-19 10 -62 41 -97 70 -195 160 -287 394 -225 573 10 30 17 56 16 58 -2 1 -15 -2 -30 -7 -24 -10 -26 -15 -26 -71 0 -34 -7 -93 -16 -133 -61 -266 150 -576 446 -654 98 -26 278 -22 476 11 207 33 321 34 422 2 23 -8 23 -7 17 66 -5 49 1 138 15 268 34 298 14 431 -84 577 -52 78 -87 101 -214 147 -120 43 -331 72 -346 48z" id="119"/>
<path d="M0 1862 l0 -69 53 -36 c77 -50 156 -89 177 -85 13 2 -13 35 -106 131 l-124 129 0 -70z" id="120"/>
<path d="M6011 1896 c-9 -11 -10 -28 -2 -71 24 -129 35 -148 69 -126 12 7 11 13 -1 38 -9 16 -21 58 -28 93 -15 75 -21 86 -38 66z" id="121"/>
<path d="M5958 1865 c-16 -25 -19 -89 -8 -154 6 -39 15 -71 19 -71 5 0 15 8 24 18 15 16 15 22 1 62 -8 24 -18 69 -22 99 -4 31 -10 51 -14 46z" id="122"/>
<path d="M5885 1795 c-24 -54 -32 -206 -12 -260 l14 -39 27 59 c25 55 26 64 16 100 -7 22 -16 72 -19 110 l-8 70 -18 -40z" id="123"/>
<path d="M4996 1754 c-124 -45 -252 -202 -311 -382 -9 -29 -19 -51 -22 -48 -3 3 6 43 20 88 29 92 84 193 146 266 23 27 41 51 41 54 0 8 -72 -7 -99 -22 -14 -7 -46 -33 -73 -58 -52 -48 -78 -110 -78 -184 0 -27 -4 -37 -11 -32 -16 9 -3 106 21 161 10 23 30 58 44 76 14 19 26 37 26 40 0 11 -104 -6 -127 -20 -34 -22 -64 -96 -73 -176 l-7 -72 -2 80 c-1 62 4 90 18 118 10 20 16 37 13 37 -16 0 -78 -59 -103 -98 -24 -38 -29 -57 -29 -109 0 -125 52 -193 267 -352 55 -41 108 -86 118 -101 l19 -28 45 50 c25 28 88 83 140 123 53 40 116 94 141 120 25 26 79 74 120 108 113 91 189 168 200 203 12 34 2 71 -24 93 -13 11 -19 9 -40 -16 -14 -15 -26 -31 -26 -34 0 -4 -72 -71 -161 -150 -88 -78 -192 -176 -230 -218 -38 -42 -69 -73 -69 -69 0 22 138 173 252 276 135 122 161 150 192 211 15 28 15 35 4 42 -20 13 -21 12 -63 -32 -22 -22 -88 -76 -147 -120 -147 -108 -219 -178 -279 -268 -61 -91 -63 -94 -49 -56 37 97 113 186 265 308 106 85 205 176 205 189 0 21 -72 3 -154 -38 -167 -84 -237 -154 -328 -328 -50 -93 -54 -87 -12 17 27 68 98 171 148 215 20 17 71 55 114 83 42 28 81 56 87 60 15 15 -86 9 -129 -7z" id="124"/>
<path d="M0 1656 c0 -58 4 -106 9 -106 4 0 50 -34 102 -76 52 -41 132 -98 179 -125 203 -120 563 -275 705 -304 102 -21 238 -29 290 -18 l40 9 -95 33 c-134 48 -305 130 -402 193 -46 30 -141 103 -213 162 -200 165 -286 215 -370 216 -34 0 -116 36 -178 78 -23 16 -48 32 -54 36 -10 6 -13 -17 -13 -98z" id="125"/>
<path d="M3542 1740 c-88 -23 -207 -78 -356 -164 -102 -60 -177 -97 -279 -140 l-39 -16 20 -27 c11 -16 26 -48 35 -73 l15 -45 109 -1 c96 -1 113 1 156 23 71 36 135 41 189 15 24 -12 51 -35 61 -52 10 -16 26 -30 35 -30 9 0 46 -9 82 -20 97 -30 185 -39 306 -30 156 12 246 43 377 131 l107 72 0 76 c0 57 5 87 20 116 11 21 17 41 14 44 -3 3 -45 4 -92 2 -48 -3 -154 -5 -237 -5 -198 -1 -255 16 -425 126 -23 15 -30 15 -98 -2z" id="126"/>
<path d="M5618 1698 c-8 -7 -20 -28 -27 -46 -16 -51 -95 -155 -153 -204 -29 -25 -89 -66 -133 -93 -91 -54 -358 -245 -352 -251 10 -11 216 39 293 70 159 65 328 218 379 342 32 81 46 194 23 194 -8 0 -21 -6 -30 -12z" id="127"/>
<path d="M6090 1671 c-60 -12 -129 -67 -156 -125 -52 -112 -17 -254 75 -303 77 -40 183 -28 242 28 60 58 74 89 73 169 0 113 -39 176 -134 219 -49 22 -48 22 -100 12z m100 -53 c26 -42 25 -45 -7 -52 -38 -10 -106 -59 -146 -107 l-35 -40 -32 16 c-17 9 -33 22 -36 30 -10 25 17 85 53 122 44 44 85 62 141 63 37 0 45 -4 62 -32z" id="128"/>
<path d="M6052 1609 c-42 -21 -83 -70 -96 -115 -4 -14 0 -27 13 -38 19 -17 21 -16 78 41 32 33 73 66 91 74 23 10 32 20 30 34 -4 29 -62 31 -116 4z" id="129"/>
<path d="M7755 1598 c-3 -7 -25 -84 -50 -171 -79 -280 -110 -336 -341 -627 -191 -241 -265 -347 -315 -455 -40 -87 -101 -255 -114 -313 l-7 -32 46 0 45 0 41 79 c76 146 241 323 444 475 156 117 334 229 646 405 80 45 166 97 192 116 53 39 82 86 73 116 -4 10 -39 52 -78 93 -108 111 -279 215 -479 292 -99 39 -97 38 -103 22z" id="130"/>
<path d="M0 1363 l0 -171 33 -11 c244 -77 624 -178 686 -183 14 -1 45 8 68 20 23 12 50 22 60 22 30 0 2 15 -122 65 -142 57 -338 153 -460 225 -75 45 -158 107 -242 183 l-23 20 0 -170z" id="131"/>
<path d="M2601 1428 c-96 -37 -161 -122 -161 -211 0 -16 11 -52 25 -82 54 -114 138 -146 269 -103 91 30 138 73 160 148 24 82 2 162 -61 222 -56 53 -138 62 -232 26z m64 -55 c30 -45 32 -69 6 -78 -23 -7 -69 -72 -80 -111 -11 -41 -25 -40 -72 4 -47 43 -48 61 -7 122 23 34 101 100 118 100 5 0 21 -17 35 -37z" id="132"/>
<path d="M2584 1358 c-38 -30 -60 -57 -75 -91 -11 -26 -9 -31 19 -59 l30 -31 21 41 c12 23 35 58 53 77 28 33 30 38 18 60 -16 31 -29 31 -66 3z" id="133"/>
<path d="M7136 1388 c-8 -41 -36 -322 -36 -363 0 -22 6 -65 14 -95 18 -68 10 -81 -42 -69 -66 16 -186 29 -212 24 -24 -5 -27 -14 -59 -180 -25 -128 -34 -200 -34 -268 2 -103 24 -269 51 -367 15 -57 20 -65 43 -68 23 -3 26 1 37 58 15 70 82 231 140 337 58 105 131 207 289 404 190 239 241 315 297 453 21 50 20 53 -6 29 -70 -63 -136 -68 -234 -17 -38 20 -85 44 -105 54 -20 11 -57 35 -83 55 -25 19 -48 35 -51 35 -2 0 -7 -10 -9 -22z" id="134"/>
<path d="M5570 1300 c-35 -52 -74 -123 -87 -157 -33 -91 -78 -177 -115 -219 -26 -29 -30 -38 -18 -42 29 -8 176 -168 231 -252 59 -89 240 -419 302 -552 l36 -78 136 0 c74 0 135 2 135 5 0 3 -11 42 -24 87 -13 46 -34 157 -45 248 -22 164 -59 340 -88 413 -11 27 -32 49 -72 76 -69 47 -159 141 -193 201 -26 45 -109 264 -125 330 l-9 35 -64 -95z" id="135"/>
<path d="M6326 1314 l-30 -57 65 -58 64 -57 28 33 c15 19 36 37 47 40 11 4 20 10 20 14 0 8 -144 134 -158 138 -4 2 -20 -22 -36 -53z" id="136"/>
<path d="M4330 1302 c-49 -67 -71 -140 -77 -258 -7 -119 6 -189 73 -386 24 -73 44 -147 44 -164 0 -46 12 -48 51 -8 47 49 106 80 324 174 258 110 393 190 509 299 84 80 166 204 166 250 0 18 -6 16 -62 -18 -35 -20 -77 -43 -95 -50 -23 -9 -39 -27 -55 -59 -23 -48 -150 -188 -203 -224 -21 -15 -14 -5 22 33 63 66 158 202 143 207 -5 2 -52 -6 -104 -18 -92 -21 -95 -22 -101 -53 -16 -75 -142 -273 -162 -254 -3 4 9 23 27 44 41 46 103 174 98 203 -3 20 -4 20 -46 -7 -26 -17 -47 -40 -54 -60 -15 -41 -24 -41 -46 -3 -9 16 -20 30 -23 30 -4 0 -12 -21 -18 -46 -13 -49 -49 -129 -56 -122 -3 2 4 26 14 54 10 27 21 73 25 102 7 51 6 53 -31 87 -21 19 -41 35 -45 35 -5 0 -8 -19 -8 -42 0 -87 -53 -349 -67 -334 -3 2 3 38 12 78 9 40 19 128 22 195 l6 121 -28 26 c-15 14 -31 26 -35 26 -13 0 -30 -75 -41 -175 -24 -227 -28 -236 -24 -60 1 94 9 192 15 218 12 47 12 50 -14 75 l-27 27 -20 -24 c-10 -13 -29 -55 -41 -95 -24 -76 -30 -209 -16 -331 l7 -60 -15 50 c-8 28 -18 102 -21 165 -6 128 9 213 51 284 l24 40 -26 38 c-13 21 -27 38 -31 38 -3 -1 -22 -22 -41 -48z" id="137"/>
<path d="M3253 1287 c-17 -6 -35 -16 -40 -21 -5 -5 0 -6 12 -2 47 18 82 18 98 1 23 -23 21 -32 -10 -49 -16 -8 -43 -30 -61 -50 -27 -30 -36 -35 -52 -26 -27 15 -33 45 -15 80 9 17 11 30 5 30 -13 0 -30 -43 -30 -78 0 -15 9 -41 19 -59 18 -29 24 -32 96 -38 89 -9 116 4 148 68 24 47 13 101 -25 130 -32 24 -102 31 -145 14z" id="138"/>
<path d="M3219 1230 c-26 -26 -28 -32 -18 -52 l12 -22 26 31 c14 17 36 36 49 42 31 16 27 31 -9 31 -21 0 -40 -10 -60 -30z" id="139"/>
<path d="M2969 1243 c-22 -3 -28 -12 -38 -57 -6 -29 -23 -69 -37 -90 -14 -21 -24 -39 -22 -40 3 -3 281 26 286 29 1 1 -5 16 -14 34 -12 24 -15 46 -10 82 l7 49 -73 -1 c-40 -1 -85 -4 -99 -6z" id="140"/>
<path d="M2075 1136 c-385 -132 -418 -144 -383 -145 56 -2 300 50 493 105 110 31 207 60 216 64 21 12 14 80 -10 79 -9 -1 -151 -47 -316 -103z" id="141"/>
<path d="M4185 1199 c-104 -48 -186 -64 -330 -64 -117 1 -141 4 -240 33 -61 18 -118 32 -127 32 -10 0 -17 -12 -21 -35 -3 -19 -16 -49 -27 -66 -12 -16 -21 -31 -19 -33 2 -1 53 -11 113 -20 139 -22 286 -60 354 -91 30 -14 83 -48 119 -76 101 -81 183 -98 204 -42 5 13 9 75 9 136 0 62 7 143 15 181 8 38 14 70 12 71 -1 1 -29 -10 -62 -26z" id="142"/>
<path d="M6492 1175 c-27 -23 -32 -34 -32 -70 0 -37 5 -47 29 -64 69 -49 107 -47 136 9 34 66 3 135 -66 146 -28 5 -41 1 -67 -21z m82 -1 c25 -10 19 -31 -19 -59 -37 -29 -62 -30 -79 -2 -9 15 -6 23 17 43 28 24 52 29 81 18z" id="143"/>
<path d="M6508 1149 c-22 -12 -24 -39 -4 -39 8 0 28 11 43 25 l28 24 -25 0 c-14 0 -33 -4 -42 -10z" id="144"/>
<path d="M0 1002 l0 -159 68 20 c58 17 104 20 348 24 l281 5 11 36 c6 20 10 38 8 39 -2 2 -70 19 -152 37 -142 32 -272 67 -449 122 -44 14 -88 27 -97 30 -17 5 -18 -7 -18 -154z" id="145"/>
<path d="M8413 1111 c-28 -45 -92 -89 -298 -206 -398 -226 -721 -474 -884 -679 -60 -75 -151 -207 -151 -218 0 -4 36 -8 81 -8 l81 0 73 78 c93 99 220 189 360 257 145 70 252 103 538 165 132 28 250 55 263 61 l25 9 -3 232 c-3 220 -4 236 -27 286 -13 28 -27 52 -31 52 -5 0 -16 -13 -27 -29z" id="146"/>
<path d="M2370 1110 c-14 -5 -108 -34 -209 -66 -205 -63 -357 -93 -475 -94 -91 0 -92 -11 -1 -34 114 -30 292 -17 615 45 85 16 170 35 188 40 l32 11 -40 45 c-22 25 -40 50 -40 54 0 11 -37 10 -70 -1z" id="147"/>
<path d="M1431 1083 c-11 -10 -22 -29 -23 -42 -2 -20 6 -30 40 -49 39 -22 48 -23 83 -13 66 20 76 76 19 106 -39 20 -93 19 -119 -2z" id="148"/>
<path d="M2875 1020 c-44 -4 -100 -15 -124 -24 -28 -10 -74 -16 -130 -16 -58 0 -141 -11 -256 -34 -229 -47 -363 -66 -514 -73 -165 -8 -208 -1 -265 43 -56 42 -60 32 -8 -18 43 -43 126 -83 203 -99 30 -6 155 -13 278 -15 241 -4 316 -16 437 -69 239 -106 404 -329 404 -546 0 -55 1 -57 31 -68 98 -34 179 11 233 129 18 40 30 93 41 190 28 235 53 300 144 390 68 66 155 114 252 139 85 22 83 23 -91 50 -137 21 -497 33 -635 21z" id="149"/>
<path d="M820 1003 c-25 -10 -64 -43 -77 -66 -29 -52 -9 -135 43 -176 59 -46 179 -11 221 64 41 73 20 141 -53 171 -33 14 -106 18 -134 7z m82 -20 c24 -21 23 -50 -2 -58 -11 -3 -35 -24 -53 -46 -38 -44 -43 -46 -74 -20 -31 26 -29 62 5 93 54 50 92 60 124 31z" id="150"/>
<path d="M823 960 c-44 -27 -60 -58 -39 -78 14 -14 17 -13 38 9 13 13 34 32 47 41 15 11 21 23 18 32 -8 21 -25 20 -64 -4z" id="151"/>
<path d="M1010 1001 c0 -4 11 -18 25 -31 23 -22 29 -23 147 -18 80 3 136 11 161 21 54 23 47 37 -15 29 -29 -4 -89 -7 -133 -7 -44 0 -104 3 -132 7 -29 4 -53 4 -53 -1z" id="152"/>
<path d="M1320 944 c-26 -8 -90 -15 -152 -15 -89 -1 -108 -4 -108 -17 0 -13 14 -14 95 -8 98 7 202 30 220 47 12 12 1 11 -55 -7z" id="153"/>
<path d="M1488 894 c5 -60 -19 -121 -80 -201 l-49 -65 38 7 c21 4 103 10 183 14 141 6 147 8 220 43 41 21 87 40 103 44 45 10 31 24 -25 24 -124 0 -264 55 -341 132 -26 26 -49 48 -50 48 -1 0 -1 -21 1 -46z" id="154"/>
<path d="M1445 909 c-9 -28 -63 -87 -94 -104 -26 -13 -60 -20 -241 -50 -286 -47 -534 -130 -599 -199 l-24 -26 24 0 c60 0 204 -95 286 -189 54 -62 96 -83 145 -72 63 14 106 49 191 155 45 55 119 139 164 186 125 131 155 178 168 262 7 48 -8 76 -20 37z" id="155"/>
<path d="M1355 899 c-27 -13 -64 -19 -115 -19 -41 0 -99 -3 -128 -7 -46 -5 -55 -10 -63 -32 -5 -14 -14 -34 -20 -44 -6 -11 -8 -21 -5 -24 9 -9 204 33 267 56 48 18 120 74 108 84 -2 2 -22 -4 -44 -14z" id="156"/>
<path d="M3578 881 c-70 -23 -147 -71 -188 -118 -17 -19 -30 -37 -28 -38 2 -2 35 12 73 31 134 66 276 79 461 43 58 -11 109 -18 112 -15 8 9 -158 84 -223 101 -77 20 -136 18 -207 -4z" id="157"/>
<path d="M6740 873 c-62 -11 -366 -86 -373 -92 -4 -4 0 -27 8 -52 9 -24 47 -174 85 -334 37 -160 77 -312 88 -340 l20 -50 100 -3 100 -3 -13 52 c-46 175 -43 356 10 614 19 93 35 179 35 192 0 24 -6 25 -60 16z" id="158"/>
<path d="M240 860 c-58 -4 -135 -16 -172 -25 l-68 -17 0 -279 0 -279 50 0 c144 0 294 97 395 256 50 78 125 127 268 173 37 13 67 24 67 25 0 2 -13 20 -30 41 -16 20 -35 52 -42 71 l-12 34 -162 0 c-89 0 -168 2 -176 3 -7 2 -60 1 -118 -3z" id="159"/>
<path d="M5200 774 c-118 -83 -290 -148 -427 -162 -81 -8 -105 -16 -197 -60 -87 -43 -113 -62 -157 -112 -30 -33 -57 -56 -62 -51 -5 5 -10 35 -12 68 -4 57 -67 278 -85 297 -5 5 -26 2 -50 -8 -58 -23 -109 -20 -282 15 -131 27 -167 30 -248 26 -118 -7 -210 -35 -288 -88 -90 -59 -110 -97 -137 -264 -29 -176 -99 -316 -178 -354 -95 -46 -186 -17 -324 106 -152 135 -229 159 -552 173 -225 9 -219 7 -399 89 -143 65 -222 84 -316 76 -98 -9 -171 -46 -281 -145 -96 -85 -187 -138 -253 -147 -53 -7 -106 19 -192 93 -75 65 -114 84 -170 84 -58 0 -124 -28 -227 -98 -50 -34 -111 -71 -137 -82 -45 -21 -201 -45 -217 -34 -5 3 -9 -40 -9 -95 l0 -101 2488 0 2487 0 -3 46 c-3 36 3 59 28 111 27 53 62 96 180 214 190 190 215 239 171 334 -20 45 -73 95 -99 95 -9 -1 -33 -12 -52 -26z" id="160"/>
<path d="M6060 774 c0 -2 16 -56 35 -118 19 -63 48 -181 65 -263 34 -163 48 -212 92 -320 l30 -73 115 0 c104 0 114 2 109 18 -19 61 -70 292 -96 433 -17 92 -40 202 -53 245 -19 67 -26 79 -42 77 -90 -11 -177 -13 -212 -5 -24 5 -43 8 -43 6z" id="161"/>
<path d="M5452 693 c1 -69 -16 -111 -70 -178 -22 -27 -67 -84 -101 -125 -33 -41 -57 -78 -53 -81 4 -3 27 -13 52 -22 62 -23 152 -100 235 -201 l69 -86 123 0 123 0 -21 53 c-12 28 -45 116 -74 193 -66 176 -140 323 -217 425 -32 44 -60 79 -62 79 -3 0 -5 -26 -4 -57z" id="162"/>
<path d="M2066 710 c-48 -9 -276 -100 -276 -110 0 -8 254 -96 370 -129 59 -16 142 -34 185 -41 178 -25 211 -34 294 -76 95 -47 158 -96 204 -158 l30 -41 -6 55 c-13 131 -91 265 -195 333 -100 66 -225 126 -308 147 -89 23 -230 32 -298 20z" id="163"/>
<path d="M8320 493 c-367 -82 -430 -100 -555 -162 -133 -67 -310 -194 -374 -268 -23 -27 -41 -51 -41 -55 0 -5 259 -8 575 -8 l575 0 0 265 c0 206 -3 265 -12 264 -7 -1 -83 -17 -168 -36z" id="164"/>
<path d="M5147 230 c-53 -71 -85 -137 -90 -187 l-5 -43 244 0 c286 0 272 -12 144 123 -91 96 -162 147 -217 154 -36 4 -40 2 -76 -47z" id="165"/>
</g>
</svg>