<?xml version="1.0" ?><!DOCTYPE svg  PUBLIC '-//W3C//DTD SVG 20010904//EN'  'http://www.w3.org/TR/2001/REC-SVG-20010904/DTD/svg10.dtd'><svg height="850.000000pt" preserveAspectRatio="xMidYMid meet" version="1.0" viewBox="0 0 850.000000 850.000000" width="850.000000pt" xmlns="http://www.w3.org/2000/svg">
<metadata>
Created by potrace 1.14, written by Peter Selinger 2001-2017
</metadata>
<g fill="#ffffff" stroke="none" transform="translate(0.000000,850.000000) scale(0.100000,-0.100000)">
<path d="M0 4250 l0 -4250 4250 0 4250 0 0 4250 0 4250 -4250 0 -4250 0 0 -4250z m2106 3623 c18 -61 23 -162 9 -164 -18 -2 -47 95 -52 176 -4 75 -3 79 12 60 9 -11 23 -43 31 -72z m2600 -42 c120 -43 220 -83 222 -89 3 -10 -92 -85 -282 -219 -72 -51 -92 -61 -101 -51 -7 7 -27 100 -44 207 -40 239 -39 231 -22 231 5 0 107 -35 227 -79z m-3067 -149 c99 -99 127 -186 31 -97 -49 46 -110 127 -110 147 0 20 26 4 79 -50z m2222 -66 c63 -14 156 -52 147 -62 -3 -2 -36 3 -74 11 -181 38 -375 -2 -526 -110 -26 -19 -48 -30 -48 -25 0 25 101 109 170 143 111 54 214 68 331 43z m1866 -72 c76 -37 170 -133 210 -214 56 -115 68 -177 67 -350 0 -134 -4 -170 -27 -263 -44 -176 -105 -309 -199 -435 -22 -30 -38 -55 -36 -57 2 -2 62 -27 133 -56 284 -113 599 -271 765 -382 84 -57 190 -153 190 -173 0 -7 -12 -26 -26 -41 l-26 -28 24 -15 c49 -32 108 -93 128 -134 15 -31 20 -62 20 -117 0 -89 -26 -154 -90 -223 -42 -45 -146 -106 -182 -106 -11 0 -34 -17 -53 -37 l-34 -37 48 -27 c86 -50 149 -151 155 -251 l4 -53 84 -46 c156 -83 259 -160 384 -284 155 -154 229 -267 283 -432 44 -138 51 -313 17 -456 -10 -44 -11 -68 -3 -95 16 -56 13 -266 -6 -348 -22 -99 -69 -213 -122 -295 l-45 -70 85 -95 c47 -52 85 -102 85 -111 -1 -38 -58 -335 -66 -342 -69 -61 -1197 -931 -1208 -931 -8 0 -123 127 -257 283 -133 155 -249 282 -258 282 -9 0 -57 -4 -108 -9 l-92 -9 72 -86 c100 -119 98 -116 108 -158 25 -110 -75 -215 -188 -198 -89 13 -142 92 -143 210 0 117 -12 237 -24 240 -6 1 -50 8 -98 14 -114 15 -255 51 -353 90 -71 29 -80 30 -94 16 -9 -9 -194 -215 -411 -458 -375 -420 -397 -442 -432 -445 -29 -2 -43 2 -62 22 -29 28 -43 73 -30 92 5 6 185 209 401 449 l391 438 -71 47 c-87 58 -98 54 -137 -42 -38 -93 -72 -133 -146 -169 -57 -28 -70 -31 -141 -27 -98 4 -148 28 -230 106 -92 89 -176 100 -245 32 -23 -23 -28 -37 -28 -75 0 -63 18 -98 99 -189 80 -89 101 -143 81 -214 -33 -123 -160 -169 -278 -101 -68 39 -103 94 -146 230 -41 130 -66 179 -106 212 -39 34 -100 50 -133 38 -62 -24 -72 -93 -31 -212 67 -194 -2 -362 -155 -377 -85 -8 -151 44 -158 125 -7 66 15 113 71 154 58 44 75 79 52 114 -56 86 -198 -57 -225 -226 -6 -35 -15 -105 -20 -156 -10 -97 -26 -140 -70 -186 -47 -52 -98 -72 -182 -72 -65 0 -81 4 -116 27 -49 32 -75 85 -81 160 -6 84 25 139 154 278 140 151 178 231 138 288 l-16 23 -75 -71 c-46 -42 -101 -82 -141 -102 -60 -29 -76 -32 -157 -33 -82 0 -95 3 -144 30 -34 18 -71 50 -95 82 l-41 53 -18 -63 c-38 -131 -42 -142 -57 -142 -11 0 -20 30 -36 113 -12 62 -24 115 -26 117 -2 2 -35 -34 -73 -81 -121 -145 -125 -107 -16 164 l21 53 -106 -2 c-120 -2 -147 9 -95 38 105 58 155 89 158 98 2 6 -31 33 -73 62 l-77 52 -31 -24 c-68 -52 -157 -69 -223 -44 -69 26 -123 109 -123 189 0 111 55 158 235 200 111 26 159 51 192 101 31 46 42 128 24 180 l-11 34 -152 0 c-148 0 -156 1 -236 32 -220 85 -347 247 -370 473 -7 74 -7 74 -39 81 -43 9 -76 31 -110 76 -25 33 -28 44 -27 112 0 61 6 87 27 131 64 131 10 164 -202 124 -70 -13 -95 -14 -138 -4 -109 24 -184 103 -191 201 -10 141 81 237 233 247 59 3 84 -1 163 -27 116 -39 143 -39 184 -2 29 26 32 32 23 57 -7 19 -21 32 -40 38 -57 17 -79 31 -135 86 -77 75 -105 135 -105 225 0 87 28 149 100 221 98 98 238 141 362 110 36 -9 67 -15 68 -14 1 2 15 25 30 51 15 27 49 72 75 100 l47 52 6 135 c6 147 23 222 67 310 78 155 244 286 425 334 93 25 246 31 335 12 104 -21 238 -91 336 -175 76 -65 82 -68 105 -55 13 7 53 21 88 30 56 16 72 26 140 93 42 42 110 99 151 127 73 50 211 125 258 139 17 5 21 11 16 23 -14 33 -17 245 -4 316 67 385 310 655 679 754 85 22 116 25 271 26 195 1 261 -12 405 -78 199 -92 385 -272 464 -449 l30 -66 55 24 c312 138 486 273 564 437 43 88 62 161 62 233 0 49 -4 52 -46 30 -16 -8 -46 -15 -67 -15 -89 0 -154 64 -164 164 -20 191 194 314 384 220z m983 -138 c43 -28 80 -96 80 -146 0 -115 -126 -206 -234 -170 -152 50 -167 256 -24 329 54 28 124 23 178 -13z m-4398 -99 l-4 -108 89 47 c48 26 98 53 110 60 29 18 53 18 53 0 0 -8 -17 -36 -38 -63 -21 -26 -51 -65 -66 -85 l-28 -38 74 6 c105 9 170 -11 241 -76 110 -100 147 -215 147 -455 0 -239 -32 -340 -125 -392 -82 -46 -158 -41 -397 28 -224 63 -340 135 -403 251 -27 48 -30 62 -30 143 0 83 2 94 33 148 l33 58 -33 -5 c-175 -30 -188 -31 -188 -8 0 10 37 41 98 81 l97 65 -109 35 c-167 54 -158 67 54 77 162 8 153 -3 94 118 -57 117 -47 122 68 36 45 -33 85 -60 89 -60 4 0 17 26 29 58 44 119 83 193 99 190 14 -3 16 -19 13 -111z m2737 -90 c78 -93 148 -181 156 -197 19 -37 19 -103 1 -138 -37 -71 -119 -111 -189 -91 -48 13 -103 61 -116 102 -12 37 -36 471 -27 493 4 10 11 12 20 7 7 -4 77 -84 155 -176z m-998 113 c93 -11 202 -40 234 -64 17 -12 9 -12 -50 2 -110 25 -375 22 -487 -6 -149 -37 -271 -91 -400 -176 -52 -34 -28 0 35 52 122 98 294 171 452 191 99 12 119 12 216 1z m-2638 -96 c132 -34 156 -74 33 -54 -70 11 -172 45 -181 61 -10 15 81 11 148 -7z m165 -874 c168 -200 184 -231 163 -302 -29 -97 -130 -150 -216 -113 -99 41 -106 62 -119 343 -6 127 -9 237 -8 242 9 26 40 -3 180 -170z m5231 6 c79 -96 151 -186 159 -201 22 -43 12 -126 -21 -168 -73 -95 -225 -81 -276 26 -16 35 -21 78 -30 257 -6 118 -11 225 -11 238 0 49 39 16 179 -152z m197 124 c104 -59 174 -173 182 -296 5 -79 -10 -104 -23 -37 -19 101 -104 246 -185 316 -65 55 -53 63 26 17z m-5736 -483 c7 -43 10 -80 7 -83 -11 -11 -55 92 -66 152 -12 63 -3 144 20 199 12 28 13 21 20 -80 3 -60 12 -145 19 -188z m993 -100 c49 -24 91 -55 126 -92 29 -30 54 -55 57 -55 3 0 26 18 52 39 44 37 102 70 157 91 40 15 29 -3 -22 -34 -25 -17 -76 -60 -113 -98 -60 -60 -100 -84 -100 -60 0 16 -112 133 -158 164 -25 17 -75 44 -111 60 l-66 29 53 -4 c33 -3 78 -17 125 -40z m5740 -253 c4 -43 6 -112 3 -151 -4 -54 -3 -73 7 -73 11 0 57 19 160 64 63 28 57 -2 -17 -91 -36 -43 -65 -82 -63 -87 1 -4 52 -30 112 -57 115 -51 142 -70 130 -89 -5 -8 -37 -9 -112 -4 -61 4 -104 3 -102 -2 2 -5 28 -56 57 -113 49 -94 58 -131 34 -131 -5 0 -45 32 -90 70 -44 39 -82 70 -84 70 -2 0 -4 -42 -3 -92 0 -109 -19 -160 -88 -228 -106 -106 -269 -144 -527 -121 -154 13 -214 30 -267 76 -94 80 -96 185 -10 448 31 92 71 194 89 225 42 75 114 144 184 178 96 47 217 36 305 -27 15 -10 29 -19 31 -19 2 0 -1 46 -8 103 -6 56 -9 105 -7 110 12 21 34 -2 88 -89 32 -52 61 -97 65 -99 3 -2 19 35 34 83 16 48 33 97 37 110 17 44 34 18 42 -64z m-6949 -178 c-48 -119 -74 -225 -81 -338 -8 -135 -26 -129 -39 12 -7 81 14 189 55 277 31 65 77 133 91 133 5 0 -7 -38 -26 -84z m7188 -896 c45 -163 77 -315 68 -324 -13 -13 -391 85 -398 103 -7 17 276 291 298 288 9 -1 22 -27 32 -67z m-437 -632 c48 -97 69 -200 62 -312 -2 -50 -11 -104 -18 -121 -12 -28 -14 -20 -20 95 -9 177 -34 267 -114 418 -25 46 -45 87 -45 91 2 19 106 -114 135 -171z m295 5 c25 -64 32 -194 13 -228 -10 -17 -12 -15 -17 20 -16 101 -48 212 -80 279 -20 41 -36 78 -36 83 2 24 101 -104 120 -154z m-148 -875 c84 -59 75 -199 -16 -242 -79 -37 -163 -8 -197 69 -25 57 -18 104 23 151 50 56 130 66 190 22z m-7072 -607 c165 -87 48 -329 -124 -257 -107 45 -109 203 -3 255 52 26 82 26 127 2z m6640 -1051 c42 -125 61 -193 54 -200 -6 -6 -76 6 -204 36 -237 55 -230 53 -230 67 0 17 282 286 300 286 11 1 34 -54 80 -189z m-2461 -459 c83 -99 156 -192 161 -206 42 -109 -38 -225 -155 -225 -67 0 -112 29 -142 90 -19 39 -23 73 -33 273 -10 218 -9 247 10 247 4 0 76 -81 159 -179z m-1573 14 c45 -29 66 -74 61 -133 -12 -164 -232 -180 -278 -19 -18 62 25 139 91 166 33 14 94 7 126 -14z m2529 -40 c157 -70 345 -72 498 -6 57 25 61 14 8 -23 -91 -63 -237 -91 -353 -67 -69 15 -165 61 -198 96 -29 31 -26 31 45 0z" id="1"/>
<path d="M4516 7827 c3 -17 17 -93 29 -167 16 -100 26 -134 36 -132 16 4 278 195 279 203 0 3 -21 12 -47 21 -27 9 -106 36 -176 62 l-129 46 8 -33z" id="2"/>
<path d="M5519 7527 c-115 -43 -168 -149 -125 -251 30 -72 122 -101 180 -55 31 25 32 38 5 90 -11 23 -18 48 -14 56 9 26 41 -11 65 -75 65 -173 11 -384 -141 -546 -89 -95 -212 -178 -397 -268 -114 -55 -142 -72 -138 -86 31 -108 34 -297 6 -432 -10 -52 -18 -95 -17 -95 78 -44 115 -67 175 -112 41 -30 75 -53 78 -51 7 8 63 313 79 438 21 155 25 167 67 175 38 7 157 -16 272 -52 l80 -25 28 33 c51 61 128 192 159 274 107 275 117 556 29 752 -35 76 -120 169 -191 207 -60 33 -146 43 -200 23z m351 -801 c0 -26 -14 -41 -29 -32 -13 8 0 56 15 56 8 0 14 -10 14 -24z m-40 -102 c0 -45 -120 -224 -151 -224 -19 0 -8 23 32 68 23 26 55 75 71 110 29 60 48 79 48 46z" id="3"/>
<path d="M3864 6985 c-151 -27 -290 -84 -394 -160 -109 -80 -220 -225 -269 -352 l-21 -53 21 0 c25 0 60 -18 76 -39 7 -9 22 -46 33 -82 39 -128 113 -193 222 -193 47 -1 64 4 100 29 37 26 53 51 115 175 75 152 106 190 187 232 45 23 94 19 157 -12 21 -11 45 -20 53 -20 21 0 54 47 66 94 19 75 38 106 75 122 68 28 171 10 247 -43 22 -15 67 -62 99 -104 66 -87 110 -119 162 -119 34 0 67 20 67 42 0 25 -81 139 -150 212 -132 138 -312 238 -488 272 -90 17 -262 17 -358 -1z" id="4"/>
<path d="M4293 6700 c-27 -11 -40 -35 -54 -100 -11 -53 -47 -105 -79 -115 -10 -3 -47 6 -81 20 -81 32 -106 32 -162 -6 -60 -40 -78 -65 -157 -223 -58 -116 -70 -135 -112 -162 -82 -55 -182 -51 -264 11 -41 32 -89 111 -104 176 -13 55 -42 89 -74 89 -34 0 -42 -15 -61 -109 -22 -108 -16 -288 12 -376 l19 -60 127 0 c78 0 127 -4 127 -10 1 -13 -66 -23 -157 -24 -40 -1 -73 -5 -73 -11 0 -5 5 -21 12 -35 10 -23 17 -25 70 -25 45 0 58 -3 58 -15 0 -11 -12 -15 -45 -15 -25 0 -45 -4 -45 -9 0 -16 93 -132 123 -154 23 -18 45 -21 174 -25 148 -4 148 -4 205 -38 31 -19 68 -34 83 -34 15 0 60 14 102 30 96 38 155 39 225 4 47 -24 60 -26 132 -22 107 7 181 36 250 99 49 44 58 49 101 49 44 0 52 4 96 49 27 27 57 52 68 56 21 6 58 89 92 208 22 75 38 300 25 351 l-6 26 -53 -30 c-51 -29 -106 -51 -159 -64 -21 -5 -28 -3 -28 8 0 8 27 22 68 35 37 12 89 36 116 52 47 30 48 31 42 69 -3 22 -11 51 -17 64 -11 24 -13 24 -40 11 -74 -39 -145 -4 -240 116 -53 68 -77 90 -128 117 -65 33 -138 42 -188 22z m607 -511 c0 -30 -317 -149 -398 -149 -57 0 -27 17 78 44 96 24 265 90 276 107 7 13 44 11 44 -2z m-510 -168 c0 -12 -26 -21 -61 -21 -28 0 -37 9 -22 23 10 10 83 8 83 -2z m385 -22 c-10 -16 -59 -37 -94 -41 -57 -5 -44 16 22 37 62 21 82 22 72 4z m-1295 -264 c-1 -13 -47 -25 -66 -18 -23 8 -16 21 14 26 38 6 53 4 52 -8z m1071 -40 c1 -10 -79 -35 -153 -49 -29 -5 -38 -4 -38 7 0 8 30 21 83 34 87 22 108 24 108 8z" id="5"/>
<path d="M5376 6239 c52 -54 260 -187 409 -261 28 -14 71 -28 97 -31 55 -8 83 -22 96 -52 17 -38 351 -161 609 -226 158 -39 174 -36 105 18 -237 188 -921 501 -1240 568 -106 22 -111 21 -76 -16z" id="6"/>
<path d="M5336 6199 c-3 -19 -11 -65 -16 -104 -6 -38 -13 -82 -16 -97 -6 -28 -5 -28 48 -28 30 0 62 -6 72 -13 20 -14 35 -73 36 -134 0 -66 35 -93 97 -77 21 6 22 10 17 63 -6 55 -5 58 25 84 18 14 51 32 74 38 23 6 53 14 66 18 21 6 9 15 -87 69 -128 72 -233 141 -279 184 l-32 31 -5 -34z" id="7"/>
<path d="M5268 5798 l-26 -142 57 -67 c71 -85 117 -161 147 -245 29 -78 54 -215 54 -291 l0 -55 33 20 c17 11 53 26 79 32 37 10 52 20 68 47 11 19 20 42 20 51 0 9 -25 142 -57 295 l-57 278 -42 -7 c-76 -11 -104 21 -115 128 -8 86 -18 98 -83 98 l-52 0 -26 -142z" id="8"/>
<path d="M5689 5885 c-26 -8 -52 -22 -59 -30 -24 -29 4 -40 98 -40 73 1 96 5 146 28 47 22 57 30 47 40 -18 18 -176 20 -232 2z" id="9"/>
<path d="M2999 5847 c-115 -59 -198 -116 -278 -193 l-66 -63 80 -1 c154 -1 310 -52 438 -144 88 -63 157 -146 205 -248 32 -67 40 -77 68 -82 49 -10 89 -67 144 -206 l20 -51 -21 -42 c-12 -23 -35 -61 -50 -84 -16 -23 -29 -51 -29 -63 0 -19 8 -15 56 30 32 28 86 66 120 83 l64 32 -45 68 c-25 37 -49 67 -54 67 -19 0 -69 51 -76 77 -3 16 -25 58 -47 94 -30 49 -51 71 -79 83 -40 18 -72 55 -110 126 -18 35 -24 62 -24 121 -1 76 -2 77 -48 135 -49 61 -125 201 -147 267 -6 20 -17 37 -24 37 -7 0 -51 -20 -97 -43z" id="10"/>
<path d="M5982 5798 l3 -43 80 0 c53 -1 93 -7 119 -18 l39 -17 -7 -71 -6 -71 28 7 c38 8 82 -9 112 -45 l25 -30 80 27 c62 20 103 26 178 28 75 1 102 5 114 18 15 15 14 16 -8 21 -13 3 -64 15 -114 26 -148 34 -319 87 -480 151 -83 32 -155 59 -159 59 -4 0 -6 -19 -4 -42z" id="11"/>
<path d="M5862 5807 l-53 -20 27 -28 c27 -29 92 -65 100 -56 7 7 -7 127 -15 126 -3 -1 -30 -10 -59 -22z" id="12"/>
<path d="M4902 5769 c-19 -45 -20 -54 -8 -77 8 -16 16 -81 20 -152 7 -119 6 -127 -14 -153 -12 -15 -28 -27 -35 -27 -20 0 -25 -13 -40 -102 l-13 -82 27 -20 c255 -194 226 -561 -76 -924 -39 -48 -157 -169 -262 -270 -108 -104 -218 -220 -254 -268 -151 -201 -232 -444 -244 -731 l-6 -131 36 -44 c71 -86 94 -176 63 -237 -14 -25 -13 -32 10 -80 62 -135 89 -166 223 -256 183 -123 175 -116 176 -171 l1 -48 85 -59 c46 -33 98 -66 115 -74 35 -17 26 -25 199 169 l77 88 -54 58 c-103 111 -171 236 -209 377 -28 108 -28 279 -1 385 l20 75 -30 43 c-75 108 -103 215 -102 377 2 142 23 234 84 358 54 111 112 185 280 360 l142 147 -3 53 c-5 75 6 86 46 47 l33 -32 65 84 c117 150 163 253 193 429 36 220 -7 444 -117 606 -44 64 -130 154 -204 213 -66 52 -174 120 -191 120 -6 0 -21 -23 -32 -51z m365 -381 c28 -31 52 -81 55 -115 5 -47 -15 -37 -33 17 -9 28 -29 64 -43 79 -14 15 -23 30 -19 34 11 11 18 8 40 -15z m93 -273 c0 -26 -14 -33 -25 -15 -9 14 1 40 15 40 5 0 10 -11 10 -25z m-1210 -2124 c0 -138 19 -248 62 -368 29 -82 31 -118 3 -79 -21 29 -65 167 -80 254 -8 42 -14 130 -15 195 0 97 2 117 15 117 12 0 15 -20 15 -119z m168 -566 c15 -32 -2 -42 -22 -13 -20 27 -20 38 -3 38 8 0 19 -11 25 -25z" id="13"/>
<path d="M5635 5740 c8 -55 45 -97 125 -139 47 -25 154 -61 182 -61 9 0 11 65 2 107 -4 22 -15 34 -43 46 -20 9 -54 33 -76 53 -39 35 -43 36 -118 38 l-79 1 7 -45z" id="14"/>
<path d="M1715 5714 c-40 -7 -110 -33 -162 -59 -219 -108 -331 -298 -333 -562 0 -80 5 -85 50 -53 49 35 135 68 221 86 158 32 330 6 482 -73 37 -20 69 -34 70 -32 2 2 12 32 22 66 38 131 140 274 256 359 27 19 49 39 49 44 0 19 -150 132 -225 170 -132 67 -275 85 -430 54z m-23 -131 c37 -33 10 -124 -53 -177 -40 -34 -122 -76 -148 -76 -10 0 -29 8 -41 18 -19 16 -22 24 -16 56 13 68 154 196 215 196 13 0 33 -7 43 -17z" id="15"/>
<path d="M1590 5542 c-81 -52 -145 -139 -125 -171 11 -19 48 -12 103 19 65 38 114 102 110 145 -4 41 -31 43 -88 7z" id="16"/>
<path d="M6013 5703 c-32 -6 -51 -32 -32 -44 25 -18 179 9 179 31 0 15 -93 23 -147 13z" id="17"/>
<path d="M4761 5638 c-46 -49 -52 -52 -99 -53 -45 -1 -56 -6 -95 -42 -114 -105 -298 -144 -412 -88 -68 33 -122 32 -215 -5 -98 -38 -124 -38 -190 5 -54 34 -57 35 -165 35 -60 1 -130 5 -154 9 -61 12 -71 6 -71 -43 1 -51 20 -105 54 -155 34 -48 61 -60 118 -54 41 5 48 3 63 -21 11 -16 20 -57 24 -111 7 -93 17 -111 68 -121 24 -5 36 -1 52 15 25 25 26 53 6 112 -19 53 -11 94 21 115 33 22 59 13 134 -47 112 -89 145 -89 244 1 36 33 78 63 92 66 43 11 89 -18 121 -78 29 -55 59 -72 81 -45 7 8 16 52 21 98 12 127 51 183 127 183 52 0 84 -36 84 -95 0 -54 16 -72 37 -43 12 15 14 38 9 100 -5 70 -3 86 17 125 12 24 30 45 39 47 25 5 40 -41 32 -94 -5 -37 -4 -43 16 -49 44 -14 51 9 44 139 -7 113 -17 146 -45 146 -5 0 -31 -23 -58 -52z" id="18"/>
<path d="M5652 5639 c4 -9 10 -38 14 -65 8 -56 41 -91 121 -130 56 -26 149 -48 164 -38 8 5 2 102 -6 112 -2 2 -31 10 -64 18 -67 15 -147 52 -200 93 -24 18 -33 21 -29 10z" id="19"/>
<path d="M6125 5639 c-16 -5 -57 -11 -90 -12 -33 -2 -59 -7 -57 -10 1 -4 2 -16 2 -28 0 -24 64 -56 134 -65 l46 -7 0 51 c0 28 3 57 6 66 7 18 2 18 -41 5z" id="20"/>
<path d="M6229 5553 c-11 -3 -19 -20 -23 -55 -4 -28 -5 -53 -2 -56 4 -4 120 42 134 53 9 7 -15 38 -39 50 -28 15 -40 16 -70 8z" id="21"/>
<path d="M5980 5490 c0 -83 27 -105 121 -98 l44 3 3 52 3 51 -43 7 c-24 4 -62 15 -85 25 l-43 19 0 -59z" id="22"/>
<path d="M2579 5529 c-68 -16 -193 -71 -239 -104 -195 -143 -299 -378 -270 -610 21 -170 122 -385 180 -385 10 0 50 16 89 37 68 35 96 39 72 10 -6 -8 -43 -29 -82 -47 l-72 -33 39 -33 c22 -18 69 -49 105 -69 l67 -35 178 89 c363 182 609 350 715 488 41 52 42 55 37 116 -13 152 -109 338 -222 429 -129 103 -290 159 -460 157 -56 -1 -117 -5 -137 -10z m278 -175 c12 -18 11 -24 -8 -48 -48 -61 -166 -105 -197 -74 -30 30 4 76 93 122 58 30 92 30 112 0z m-317 1 c0 -50 -66 -109 -96 -84 -21 18 -17 37 15 70 32 31 81 40 81 14z m-164 -80 c25 -39 5 -94 -60 -161 -56 -58 -79 -66 -97 -33 -25 48 28 159 95 200 40 24 42 24 62 -6z m904 -155 c0 -33 -94 -170 -116 -170 -20 0 -18 7 14 49 16 20 41 57 56 84 26 44 46 60 46 37z m-110 -43 c0 -33 -114 -177 -140 -177 -20 0 -9 21 31 62 22 23 52 61 66 85 25 43 43 55 43 30z m-892 -249 c20 -20 15 -105 -8 -128 -27 -27 -48 -16 -60 32 -21 74 25 139 68 96z m286 -262 c-8 -21 -53 -48 -66 -40 -7 5 -1 15 18 31 33 26 56 30 48 9z" id="23"/>
<path d="M2743 5320 c-51 -29 -81 -64 -65 -74 12 -7 112 41 139 66 12 12 20 25 17 29 -10 16 -38 9 -91 -21z" id="24"/>
<path d="M2482 5334 c-22 -15 -30 -44 -13 -44 15 0 41 30 41 46 0 17 -1 17 -28 -2z" id="25"/>
<path d="M2305 5238 c-45 -35 -84 -138 -52 -138 17 0 71 57 91 97 31 62 13 82 -39 41z" id="26"/>
<path d="M2234 4786 c-7 -29 4 -69 17 -61 12 8 12 85 -1 85 -5 0 -12 -11 -16 -24z" id="27"/>
<path d="M6650 5502 c80 -21 124 -52 150 -102 24 -46 25 -89 6 -164 -18 -68 -28 -88 -74 -138 -46 -51 -79 -67 -148 -73 -32 -3 -59 -7 -62 -9 -6 -7 69 -26 100 -26 46 0 134 39 181 80 118 104 132 277 30 371 -47 44 -108 69 -181 74 l-67 5 65 -18z" id="28"/>
<path d="M4751 5478 c-7 -21 -9 -59 -5 -100 10 -101 -25 -165 -75 -139 -24 13 -31 32 -31 82 0 30 -5 42 -25 55 -21 14 -30 14 -55 4 -44 -18 -62 -54 -72 -149 -10 -97 -30 -134 -72 -139 -35 -4 -61 19 -85 74 -37 82 -81 82 -171 -1 -104 -96 -167 -95 -284 6 -61 52 -90 59 -109 27 -8 -12 -6 -33 7 -76 22 -72 16 -104 -25 -143 l-30 -28 63 -95 c58 -86 65 -93 76 -75 15 23 32 25 32 4 0 -9 -9 -19 -21 -23 -19 -7 -16 -14 42 -102 34 -52 63 -96 64 -98 2 -2 12 2 24 9 28 18 41 1 15 -20 l-22 -17 131 -202 c102 -159 132 -199 141 -188 9 11 16 11 39 1 26 -11 27 -13 13 -27 -9 -9 -21 -18 -28 -20 -7 -3 8 -36 43 -91 30 -48 56 -87 59 -86 3 0 37 29 75 64 63 59 68 66 51 76 -15 9 -16 13 -5 20 8 4 23 6 35 3 12 -3 26 1 35 12 8 10 27 101 44 215 l31 199 -28 0 c-33 0 -33 2 -12 35 20 31 34 32 34 3 0 -53 13 4 40 178 17 104 33 201 36 216 4 21 1 28 -15 33 -28 9 -27 35 1 32 21 -2 23 6 51 178 23 141 27 186 18 210 -5 17 -7 49 -4 73 7 51 -10 57 -26 10z m-63 -300 c-4 -27 -28 -36 -28 -10 0 20 8 32 22 32 5 0 8 -10 6 -22z m-604 -121 c-7 -20 -34 -23 -34 -4 0 19 22 39 32 29 5 -5 6 -16 2 -25z m567 20 c0 -4 -3 -23 -7 -43 -6 -34 -8 -36 -37 -30 -37 7 -41 11 -32 26 4 6 14 9 22 6 9 -4 18 4 25 25 9 26 30 38 29 16z m-125 -8 c13 -22 -12 -30 -31 -9 -18 19 -18 20 3 20 11 0 24 -5 28 -11z m-166 -11 c0 -22 -17 -41 -29 -34 -8 5 -8 13 -1 27 12 21 30 26 30 7z m-30 -70 c0 -7 -6 -25 -14 -40 -8 -15 -12 -36 -9 -48 6 -24 -9 -26 -42 -4 -30 20 -32 34 -6 34 13 0 24 11 32 35 12 33 39 49 39 23z m-290 -11 c0 -19 -27 -53 -36 -45 -9 10 12 58 26 58 5 0 10 -6 10 -13z m149 0 c6 -8 8 -17 5 -20 -9 -8 -44 11 -44 23 0 15 26 12 39 -3z m-351 -29 c16 -16 15 -28 -2 -28 -17 0 -38 24 -29 33 9 10 17 9 31 -5z m752 -37 c-12 -30 -24 -39 -33 -23 -2 4 2 22 10 41 10 24 17 31 25 23 8 -8 7 -19 -2 -41z m-671 -30 c9 -6 21 -5 32 2 26 16 33 3 14 -27 -21 -31 -29 -32 -55 -6 -31 31 -25 52 9 31z m341 -24 c0 -17 -29 -57 -41 -57 -14 0 -11 18 7 45 18 27 34 33 34 12z m178 -26 c2 -6 -5 -11 -15 -11 -24 0 -65 29 -58 40 7 11 68 -14 73 -29z m125 -54 c-3 -5 -14 -6 -25 -4 -11 3 -21 0 -25 -9 -9 -23 -23 -16 -23 12 0 15 8 32 17 39 15 11 21 9 39 -8 12 -12 20 -25 17 -30z m-528 17 c22 -14 35 -44 19 -44 -15 0 -64 42 -59 51 8 12 12 12 40 -7z m633 -31 c2 -8 -5 -13 -17 -13 -21 0 -35 13 -24 24 10 10 36 3 41 -11z m-488 -27 c-7 -9 -10 -22 -7 -31 9 -23 -11 -28 -38 -11 -27 18 -33 36 -12 36 8 0 22 9 32 20 22 24 46 10 25 -14z m290 -42 c0 -3 -9 -19 -21 -35 -34 -48 -55 -33 -23 16 14 22 44 35 44 19z m-360 -36 c0 -14 -30 -48 -42 -48 -13 0 -9 22 9 42 18 21 33 23 33 6z m155 0 c21 -10 36 -38 20 -38 -17 0 -65 32 -60 40 8 12 9 12 40 -2z m130 -60 c28 -13 33 -28 10 -28 -9 0 -27 -12 -40 -27 -25 -30 -47 -24 -27 7 7 11 12 29 12 40 0 23 9 25 45 8z m140 -51 c11 -9 14 -16 8 -20 -13 -8 -73 12 -73 24 0 14 44 11 65 -4z m-245 -85 c0 -16 -32 -52 -46 -52 -18 0 -18 5 2 35 15 23 44 34 44 17z m310 -5 c0 -17 -29 -57 -41 -57 -14 0 -11 18 7 45 18 27 34 33 34 12z m-410 -27 c0 -6 -6 -10 -14 -10 -16 0 -38 24 -30 33 9 8 44 -11 44 -23z m115 -52 c27 -12 33 -28 11 -28 -24 0 -66 19 -66 30 0 13 23 13 55 -2z m-115 -23 c0 -8 -2 -15 -4 -15 -2 0 -11 -3 -20 -6 -10 -4 -16 -1 -16 9 0 14 13 24 33 26 4 1 7 -6 7 -14z m330 -18 c0 -8 -10 -23 -22 -35 -20 -18 -25 -19 -42 -6 -11 8 -28 14 -38 14 -10 0 -18 7 -18 16 0 12 8 14 44 9 28 -5 46 -3 50 4 10 15 26 14 26 -2z m80 -36 c0 -15 -16 -22 -34 -15 -25 9 -19 24 9 24 14 0 25 -4 25 -9z m-170 -69 c0 -16 -49 -54 -60 -47 -8 5 -5 15 11 31 22 23 49 32 49 16z m-16 -132 c28 -10 35 -30 12 -30 -27 0 -67 20 -61 30 8 13 17 13 49 0z" id="29"/>
<path d="M6543 5503 c9 -2 23 -2 30 0 6 3 -1 5 -18 5 -16 0 -22 -2 -12 -5z" id="30"/>
<path d="M5691 5462 c0 -9 8 -50 17 -91 20 -88 44 -111 120 -119 40 -3 56 0 90 22 38 24 42 30 42 66 0 37 -2 39 -37 45 -69 12 -143 38 -188 66 -38 24 -45 26 -44 11z" id="31"/>
<path d="M6340 5439 c-52 -23 -123 -51 -157 -64 -81 -30 -239 -115 -331 -178 -72 -50 -107 -86 -152 -161 -62 -103 -34 -243 59 -290 14 -8 61 -23 104 -35 96 -26 153 -54 278 -137 113 -74 193 -114 232 -114 37 0 35 16 -15 90 -49 75 -122 125 -235 165 -43 15 -97 34 -119 42 -120 43 -173 152 -125 258 24 54 67 95 175 168 50 33 138 100 195 148 58 49 130 102 160 118 79 43 43 38 -69 -10z" id="32"/>
<path d="M6520 5465 c-75 -21 -143 -64 -269 -169 -58 -49 -142 -113 -186 -141 -132 -86 -175 -140 -175 -222 0 -78 61 -132 195 -174 168 -52 268 -125 321 -236 24 -50 35 -63 59 -68 17 -4 47 -16 69 -27 44 -22 51 -18 62 40 13 67 -2 156 -36 220 -40 76 -55 90 -160 147 -132 73 -171 115 -150 166 12 28 83 80 127 93 35 11 89 79 108 137 38 116 65 150 131 168 65 17 113 -3 141 -58 30 -59 33 -60 33 -14 0 110 -130 176 -270 138z" id="33"/>
<path d="M5990 5355 c0 -19 2 -35 5 -35 3 0 25 10 48 21 l42 22 -45 13 c-25 8 -46 14 -47 14 -2 0 -3 -16 -3 -35z" id="34"/>
<path d="M6601 5362 c-37 -18 -60 -55 -92 -145 -11 -31 -32 -71 -46 -87 -20 -25 -23 -33 -13 -45 16 -19 79 -38 110 -33 23 3 25 7 27 74 3 136 39 204 108 204 43 0 45 14 5 35 -38 19 -57 19 -99 -3z" id="35"/>
<path d="M6657 5248 c-18 -41 -29 -146 -16 -154 23 -14 109 94 109 136 0 33 -17 50 -51 50 -20 0 -30 -8 -42 -32z" id="36"/>
<path d="M5743 5210 l10 -50 39 32 40 31 -49 19 c-26 10 -48 18 -49 18 -1 0 3 -22 9 -50z" id="37"/>
<path d="M3544 5193 c8 -16 21 -37 30 -48 15 -20 15 -20 16 2 0 39 -18 73 -40 73 -19 0 -20 -2 -6 -27z" id="38"/>
<path d="M4800 5109 c0 -6 -12 -85 -26 -176 l-26 -165 30 -31 c46 -48 83 -131 89 -198 3 -32 9 -59 13 -59 20 0 77 169 95 282 8 53 -12 162 -41 220 -42 83 -134 170 -134 127z" id="39"/>
<path d="M1462 5090 c-70 -18 -150 -54 -194 -84 -11 -8 -54 -52 -94 -97 -122 -137 -176 -276 -177 -454 -1 -118 15 -187 72 -314 36 -81 59 -117 106 -166 l60 -62 80 9 c44 5 84 14 90 19 5 6 5 30 -3 67 -19 93 -16 127 14 151 15 12 34 21 44 21 22 0 46 -27 54 -63 10 -40 42 -69 74 -65 44 5 41 43 -7 92 -51 52 -71 101 -71 172 0 106 70 190 176 214 56 13 103 5 168 -27 73 -37 99 -18 51 39 -31 36 -31 52 -4 79 18 18 30 21 81 17 70 -5 90 -21 133 -110 16 -34 35 -64 42 -66 6 -2 -4 25 -23 60 -59 109 -86 208 -93 343 l-6 120 -55 33 c-139 83 -364 114 -518 72z m16 -184 c5 -22 -74 -106 -99 -106 -25 0 -32 29 -13 59 39 63 104 90 112 47z m-197 -36 c33 -18 19 -82 -37 -172 -33 -52 -67 -68 -94 -43 -54 49 23 207 108 224 2 1 12 -4 23 -9z m-137 -446 c31 -30 10 -174 -25 -174 -25 0 -49 49 -49 100 0 30 6 47 25 65 29 29 29 30 49 9z" id="40"/>
<path d="M1405 4873 c-25 -28 -31 -43 -17 -43 10 0 62 53 62 63 0 15 -20 6 -45 -20z" id="41"/>
<path d="M1226 4829 c-49 -38 -84 -137 -56 -154 18 -11 42 17 76 89 42 87 35 108 -20 65z" id="42"/>
<path d="M1107 4393 c-10 -10 -8 -91 2 -97 10 -7 33 83 25 96 -6 10 -18 10 -27 1z" id="43"/>
<path d="M3438 5045 c22 -18 32 -36 32 -54 0 -50 -58 -147 -134 -223 -148 -149 -323 -264 -666 -436 -258 -130 -421 -200 -637 -274 -378 -129 -898 -212 -962 -154 -25 23 -26 41 -6 80 17 33 18 36 6 36 -14 0 -41 -65 -41 -97 0 -29 47 -120 74 -142 29 -24 203 -36 327 -22 419 48 755 139 1110 300 297 135 621 347 812 531 85 81 181 210 194 258 6 25 -34 130 -71 185 -12 18 -32 34 -46 35 -22 4 -22 2 8 -23z" id="44"/>
<path d="M6333 5040 c-95 -55 -80 -88 83 -180 103 -59 140 -94 181 -179 33 -67 43 -184 20 -248 -13 -39 -13 -43 5 -60 18 -16 20 -16 43 12 34 42 71 122 79 171 13 92 -47 203 -139 255 -82 46 -96 82 -44 112 40 22 34 37 -22 53 -25 8 -66 32 -91 54 -26 22 -50 40 -55 40 -4 0 -31 -14 -60 -30z" id="45"/>
<path d="M3420 5003 c0 -10 5 -25 10 -33 7 -11 10 -7 10 18 0 17 -4 32 -10 32 -5 0 -10 -8 -10 -17z" id="46"/>
<path d="M5601 4997 c-19 -6 -52 -28 -72 -49 -30 -31 -39 -50 -48 -101 -6 -34 -22 -102 -35 -151 l-25 -90 30 -72 c43 -104 111 -194 231 -310 135 -130 207 -180 359 -253 179 -85 238 -104 339 -105 72 -1 91 2 121 22 48 29 66 71 49 111 -10 24 -21 32 -60 40 -106 23 -218 87 -425 245 -131 100 -274 237 -347 332 -98 128 -123 208 -95 298 34 107 36 101 -22 83z" id="47"/>
<path d="M5641 4825 c-1 -32 45 -121 96 -188 164 -215 577 -529 744 -566 37 -8 58 -7 97 4 98 29 118 100 60 213 -47 90 -128 141 -229 142 -77 0 -143 27 -268 110 -154 102 -179 114 -297 146 -106 30 -151 59 -184 123 -14 26 -19 31 -19 16z" id="48"/>
<path d="M3721 4759 c-48 -19 -151 -101 -186 -146 -23 -31 -35 -57 -35 -78 0 -105 -59 -345 -109 -442 -11 -23 -21 -44 -21 -47 0 -2 12 -7 28 -11 15 -3 41 -13 59 -22 32 -15 33 -15 66 21 40 42 73 56 132 56 59 0 92 -14 132 -57 l34 -36 42 19 c81 37 172 17 219 -48 19 -28 23 -45 23 -109 0 -68 -3 -81 -33 -128 -30 -49 -31 -52 -10 -44 22 7 75 8 108 1 9 -2 48 36 98 95 l83 99 -70 111 c-270 428 -499 772 -517 774 -10 1 -30 -2 -43 -8z" id="49"/>
<path d="M780 4745 c-206 -58 -315 -257 -225 -410 34 -59 129 -142 170 -149 39 -8 85 -56 85 -89 0 -57 -70 -117 -135 -117 -13 0 -67 14 -118 30 -120 38 -184 39 -255 4 -74 -37 -106 -92 -100 -175 5 -66 24 -100 78 -137 56 -38 106 -46 185 -32 39 7 105 15 147 18 l78 4 35 -35 c44 -44 45 -70 5 -162 -34 -80 -38 -140 -13 -192 19 -40 66 -73 103 -73 24 0 27 5 42 86 9 48 24 94 32 103 15 14 17 14 33 -1 12 -13 16 -32 14 -78 -1 -33 2 -60 7 -60 4 0 27 29 49 64 44 69 71 92 119 102 42 8 88 -32 108 -94 17 -52 42 -92 56 -92 4 0 13 23 19 52 17 75 67 162 132 227 l58 57 -97 51 c-79 42 -110 52 -167 58 -144 13 -165 26 -217 132 -38 77 -35 125 12 190 l31 45 -20 31 c-33 56 -70 174 -81 262 -12 99 -1 221 30 309 l19 57 -26 10 c-47 18 -136 20 -193 4z m-470 -896 c3 -13 18 -30 33 -37 32 -15 35 -32 7 -32 -29 0 -70 44 -70 75 0 33 22 29 30 -6z" id="50"/>
<path d="M4735 4688 c-10 -48 -75 -476 -75 -494 1 -28 102 87 141 159 27 51 31 69 31 130 0 77 -19 141 -55 194 -26 39 -35 41 -42 11z" id="51"/>
<path d="M3394 4589 c-75 -77 -199 -176 -339 -271 -458 -312 -984 -511 -1520 -574 -77 -9 -145 -19 -152 -23 -7 -3 24 -25 71 -50 l83 -45 66 29 c37 15 71 33 76 39 7 8 44 9 123 4 127 -8 146 -2 169 52 12 26 18 30 39 25 14 -4 55 -9 93 -12 60 -5 71 -3 102 18 19 13 42 39 52 57 16 30 21 33 48 26 17 -5 53 -8 82 -9 59 0 94 20 131 77 22 34 25 34 61 25 73 -20 139 9 185 81 21 34 25 35 82 36 88 1 139 42 147 115 l4 34 71 1 c63 1 75 4 98 27 18 19 28 41 32 74 l5 47 39 -5 c86 -12 137 25 148 107 4 35 9 41 31 44 25 3 27 8 33 64 4 33 6 62 4 64 -2 2 -31 -24 -64 -57z" id="52"/>
<path d="M1913 4594 c-3 -9 5 -26 22 -44 33 -34 30 -68 -7 -89 -25 -15 -31 -14 -85 14 -150 77 -303 -3 -303 -158 0 -72 9 -94 64 -156 53 -59 60 -100 24 -125 -51 -36 -105 -10 -137 64 -12 28 -27 50 -34 50 -22 0 -37 -23 -37 -55 0 -27 19 -145 25 -153 4 -5 298 59 385 83 100 28 325 105 392 134 53 23 67 42 75 110 5 48 5 49 -48 100 -29 28 -60 51 -70 51 -9 0 -28 9 -42 20 l-26 21 -34 -53 c-41 -64 -81 -103 -96 -93 -7 4 4 24 30 53 22 26 50 65 61 86 17 34 19 45 9 77 -16 54 -52 79 -113 79 -35 0 -50 -4 -55 -16z m172 -315 c-20 -38 -121 -139 -140 -139 -25 0 -17 17 19 45 19 15 53 51 76 81 43 57 72 65 45 13z" id="53"/>
<path d="M5371 4478 c-19 -46 -49 -111 -68 -146 -30 -54 -33 -65 -22 -80 8 -9 46 -56 86 -104 84 -102 102 -148 84 -208 -6 -22 -25 -56 -42 -74 -23 -27 -28 -40 -23 -60 4 -19 2 -26 -9 -26 -8 0 -17 10 -20 21 -5 18 -11 21 -38 15 -64 -13 -144 26 -174 85 -9 16 -18 56 -22 89 -6 59 -6 60 -25 43 -11 -10 -40 -44 -64 -76 -32 -43 -44 -68 -44 -94 0 -30 -3 -33 -20 -28 -16 5 -26 -7 -60 -75 -40 -80 -41 -83 -30 -135 11 -55 66 -174 98 -214 l19 -23 45 34 c42 32 44 36 30 56 -17 26 -7 49 14 31 8 -6 14 -18 14 -26 0 -8 3 -13 8 -11 216 111 299 133 497 133 141 0 155 -2 237 -31 l87 -30 156 149 c85 82 155 152 155 156 0 4 -24 15 -52 26 -194 68 -359 170 -511 315 -129 123 -181 188 -233 293 l-40 78 -33 -83z m312 -342 c5 -15 6 -30 2 -34 -9 -10 -35 28 -35 51 0 27 22 16 33 -17z m42 -118 c13 -32 12 -48 -5 -48 -11 0 -31 60 -24 71 9 15 14 10 29 -23z m53 -123 c15 -32 15 -45 2 -45 -12 0 -41 55 -33 64 12 11 20 6 31 -19z m60 -120 c15 -32 15 -45 2 -45 -12 0 -41 55 -33 64 12 11 20 6 31 -19z m-828 -17 c0 -7 3 -23 6 -35 5 -17 2 -23 -9 -23 -8 0 -17 10 -21 23 -9 35 -7 47 9 47 8 0 15 -6 15 -12z m418 -67 c10 -28 7 -41 -8 -41 -8 0 -30 45 -30 60 0 22 29 8 38 -19z m486 -37 c26 -37 5 -54 -23 -18 -11 15 -21 31 -21 35 0 18 26 8 44 -17z m-864 -40 c13 -34 13 -44 -4 -44 -13 0 -26 28 -26 58 0 22 20 13 30 -14z" id="54"/>
<path d="M5268 4425 c-66 -82 -66 -83 -47 -101 17 -16 22 -16 30 -4 16 22 90 182 87 185 -2 2 -33 -34 -70 -80z" id="55"/>
<path d="M6770 4466 c-6 -19 -29 -59 -51 -89 -35 -50 -38 -58 -27 -81 6 -14 30 -37 53 -51 124 -72 224 -191 266 -315 30 -89 37 -243 15 -330 -62 -249 -255 -433 -494 -474 -46 -8 -86 -17 -89 -20 -3 -3 6 -32 20 -64 68 -150 84 -366 41 -539 l-6 -21 85 18 c271 59 500 181 678 359 110 110 183 221 229 348 175 484 -51 941 -622 1256 -36 20 -71 37 -76 37 -6 0 -15 -15 -22 -34z m650 -952 c0 -24 -5 -34 -15 -34 -10 0 -15 10 -15 33 0 19 3 37 6 40 13 13 24 -5 24 -39z m-10 -139 c0 -37 -43 -147 -79 -204 -37 -57 -113 -131 -136 -131 -24 0 -18 10 32 54 62 54 115 138 137 217 10 35 20 70 22 77 6 22 24 13 24 -13z" id="56"/>
<path d="M3418 4460 c-3 -16 -2 -45 1 -62 4 -32 5 -32 12 -8 10 36 10 100 0 100 -5 0 -11 -13 -13 -30z" id="57"/>
<path d="M3354 4358 c-18 -10 -48 -19 -68 -20 -40 -1 -43 -8 -25 -73 6 -22 17 -87 23 -145 l12 -105 48 96 c46 95 47 98 44 181 l-3 84 -31 -18z" id="58"/>
<path d="M5155 4155 c4 -104 12 -201 17 -215 14 -37 46 -68 84 -80 90 -30 190 73 156 160 -8 20 -206 265 -254 315 -6 7 -7 -56 -3 -180z" id="59"/>
<path d="M2323 4250 c-6 -28 -7 -50 -3 -50 4 0 29 9 55 21 50 22 50 24 -6 57 l-36 22 -10 -50z" id="60"/>
<path d="M3201 4249 c-27 -36 -76 -59 -127 -59 -31 0 -35 -3 -29 -17 32 -77 58 -169 68 -238 l11 -83 38 -4 c36 -3 37 -3 43 37 4 22 18 57 31 77 18 29 24 51 24 95 -1 54 -24 210 -33 219 -2 2 -14 -10 -26 -27z" id="61"/>
<path d="M4984 4128 c-161 -169 -211 -233 -264 -343 -59 -122 -78 -191 -87 -315 -9 -144 25 -289 90 -386 l25 -35 47 88 47 87 -16 51 c-80 254 -7 490 242 784 52 62 54 66 48 109 -3 25 -6 51 -6 58 0 28 -20 12 -126 -98z" id="62"/>
<path d="M6720 4179 c0 -22 -5 -49 -11 -60 -9 -17 -2 -28 49 -78 106 -107 158 -249 149 -411 -9 -167 -72 -289 -197 -387 -33 -25 -58 -48 -56 -51 12 -11 119 61 182 123 115 115 174 258 174 425 0 182 -68 322 -209 431 -35 27 -68 49 -72 49 -5 0 -9 -18 -9 -41z" id="63"/>
<path d="M2995 4118 c-30 -47 -64 -68 -122 -75 l-52 -6 49 -91 c41 -77 85 -177 114 -260 10 -28 32 -4 40 43 3 23 18 52 36 71 24 26 30 41 30 79 0 69 -52 272 -69 271 -4 -1 -15 -15 -26 -32z" id="64"/>
<path d="M6632 4042 c-30 -14 -33 -20 -28 -46 10 -51 -11 -104 -55 -136 -22 -16 -46 -31 -52 -33 -8 -2 -2 -18 16 -45 85 -129 68 -322 -40 -442 -25 -28 -63 -60 -84 -71 -22 -11 -39 -22 -39 -25 0 -19 64 -94 80 -94 105 0 328 159 389 278 70 137 68 321 -5 470 -27 54 -120 163 -140 161 -5 0 -24 -8 -42 -17z" id="65"/>
<path d="M3584 4021 c-18 -11 -40 -38 -50 -60 -20 -45 -46 -54 -64 -22 -5 11 -30 27 -54 36 -106 41 -179 -41 -152 -169 8 -37 8 -39 -15 -33 -13 3 -38 11 -55 18 -91 37 -165 -91 -99 -170 25 -29 27 -29 60 -15 45 19 71 17 123 -6 l42 -19 0 48 c0 131 133 231 255 191 21 -7 56 -31 78 -53 29 -29 42 -37 45 -26 3 8 21 30 41 50 67 67 164 60 238 -16 l42 -44 20 43 c45 93 18 185 -60 206 -48 13 -85 3 -135 -35 -18 -14 -35 -25 -37 -25 -3 0 -17 20 -31 45 -15 25 -40 52 -56 60 -40 21 -99 19 -136 -4z" id="66"/>
<path d="M2760 3985 c-42 -43 -108 -70 -155 -62 l-36 6 33 -62 c39 -73 128 -199 181 -256 l38 -41 70 36 c38 20 69 43 69 50 0 25 -47 138 -104 252 -31 61 -57 112 -59 112 -2 0 -18 -16 -37 -35z" id="67"/>
<path d="M1090 3981 c-24 -45 3 -71 72 -71 l31 0 -39 44 c-45 51 -50 53 -64 27z" id="68"/>
<path d="M2515 3880 c-38 -40 -104 -64 -155 -57 -22 3 -40 2 -40 -3 0 -12 83 -122 111 -146 16 -14 45 -24 84 -29 52 -6 176 -38 240 -61 17 -6 16 -3 -6 22 -45 50 -107 138 -157 222 l-49 82 -28 -30z" id="69"/>
<path d="M2268 3800 c-24 -40 -79 -65 -153 -70 l-70 -5 64 -67 c35 -38 70 -68 76 -68 7 0 37 11 66 24 30 14 75 28 102 31 45 7 58 17 37 30 -6 4 -33 38 -60 77 -47 67 -49 69 -62 48z" id="70"/>
<path d="M6260 3795 c-14 -15 -18 -25 -11 -30 6 -3 23 -30 38 -58 47 -94 30 -202 -48 -286 l-31 -34 60 -60 59 -59 33 17 c58 30 116 93 146 158 24 52 28 75 29 147 0 73 -4 93 -28 141 -15 32 -33 61 -40 67 -6 5 -51 12 -98 15 -82 6 -88 5 -109 -18z" id="71"/>
<path d="M3794 3800 c-34 -13 -74 -69 -80 -111 -8 -50 -21 -58 -34 -22 -21 57 -36 77 -79 105 -81 51 -180 26 -229 -57 -20 -34 -22 -50 -19 -112 2 -42 0 -73 -5 -73 -6 0 -23 9 -39 20 -72 52 -145 51 -176 -3 -27 -46 -33 -73 -22 -112 11 -38 82 -105 112 -105 10 0 32 -9 49 -21 16 -12 30 -20 32 -18 1 2 8 19 16 37 17 44 61 66 115 59 40 -6 42 -5 58 29 12 25 30 41 61 54 53 24 95 15 142 -31 31 -30 33 -31 55 -15 38 27 77 20 116 -19 35 -35 36 -36 31 -109 l-5 -74 51 15 c51 15 66 26 66 51 0 28 54 170 97 256 35 70 42 91 31 97 -17 11 -21 11 -55 -1 -15 -6 -38 -22 -50 -37 -14 -17 -27 -24 -38 -19 -14 5 -15 16 -11 65 4 50 2 64 -17 93 -38 56 -114 82 -173 58z" id="72"/>
<path d="M6088 3627 c-136 -129 -136 -110 7 -180 l80 -39 38 43 c50 56 72 132 57 191 -14 51 -40 98 -55 97 -5 0 -63 -50 -127 -112z" id="73"/>
<path d="M1969 3700 l-26 -30 49 -31 c26 -17 66 -52 88 -78 l40 -46 21 22 22 22 -78 83 c-43 46 -80 84 -84 85 -3 1 -18 -11 -32 -27z" id="74"/>
<path d="M1670 3637 c-169 -57 -284 -168 -325 -311 -41 -141 21 -287 147 -350 75 -38 98 -34 152 21 25 25 46 51 46 57 0 6 -17 20 -38 31 -50 27 -76 80 -61 124 18 50 63 65 118 37 56 -29 67 -110 26 -193 -72 -144 -273 -234 -457 -205 -142 22 -264 105 -318 218 -27 55 -50 138 -50 182 0 58 -18 34 -26 -35 -28 -263 134 -488 402 -557 78 -20 222 -21 297 -1 164 43 370 195 479 355 l38 55 -26 63 c-39 97 -42 180 -10 275 l26 78 -20 29 c-93 130 -247 179 -400 127z m350 -575 c0 -31 -152 -212 -177 -212 -21 0 -16 9 42 71 30 33 66 80 81 104 23 40 54 60 54 37z m-350 -322 c0 -9 -31 -30 -44 -30 -12 0 -6 28 7 33 20 9 37 8 37 -3z" id="75"/>
<path d="M2990 3609 c-14 -12 -46 -32 -72 -45 -27 -13 -48 -26 -48 -28 0 -5 174 -106 182 -106 3 0 5 20 5 44 1 24 6 54 13 65 9 19 7 27 -17 56 -15 18 -30 34 -33 34 -3 0 -16 -9 -30 -20z" id="76"/>
<path d="M2315 3586 c-64 -20 -99 -42 -139 -87 -133 -146 -108 -340 70 -552 114 -137 766 -652 852 -674 13 -3 28 -1 34 5 21 21 21 96 -2 167 -49 160 -36 266 55 425 86 153 93 217 33 335 -17 33 -34 67 -38 75 -10 21 -299 192 -399 235 -172 75 -362 104 -466 71z m-75 -110 c0 -7 -7 -19 -15 -26 -8 -7 -15 -19 -15 -26 0 -8 -7 -14 -15 -14 -21 0 -19 23 6 54 22 28 39 34 39 12z m-60 -169 c0 -53 27 -131 65 -186 39 -57 41 -61 21 -61 -21 0 -83 98 -100 159 -21 71 -21 121 -1 121 10 0 15 -10 15 -33z" id="77"/>
<path d="M5585 3546 c-187 -43 -326 -127 -437 -265 -107 -133 -177 -310 -178 -449 0 -143 71 -330 173 -453 94 -113 238 -196 379 -219 204 -33 378 18 509 149 195 196 207 477 28 666 -154 163 -416 180 -571 36 -168 -154 -122 -428 81 -488 70 -20 147 -12 217 22 70 34 97 73 102 146 4 54 2 60 -26 89 -17 16 -38 30 -46 30 -15 0 -15 -3 0 -32 13 -26 14 -38 5 -69 -14 -45 -67 -94 -118 -108 -47 -13 -59 -13 -105 -1 -107 30 -162 148 -127 275 17 62 99 137 175 158 78 22 108 21 185 -3 151 -47 259 -199 259 -365 0 -175 -134 -349 -309 -402 -87 -27 -218 -23 -308 9 -194 69 -354 239 -393 419 -19 86 -9 229 23 317 39 111 83 178 182 278 141 143 280 207 479 222 l101 8 -53 17 c-77 24 -158 28 -227 13z" id="78"/>
<path d="M4835 3509 c-7 -48 17 -215 33 -231 6 -6 25 6 50 34 l41 43 -23 30 c-13 16 -39 62 -59 100 l-35 70 -7 -46z" id="79"/>
<path d="M5374 3530 c-276 -72 -500 -278 -588 -541 -129 -385 64 -792 469 -990 134 -65 248 -92 395 -93 391 -1 702 231 801 599 32 116 32 310 1 418 -63 222 -200 390 -394 487 -119 59 -196 75 -314 67 -171 -12 -329 -91 -457 -226 -136 -145 -192 -289 -185 -473 4 -99 7 -113 41 -181 81 -165 246 -288 425 -319 190 -32 375 61 455 229 43 91 49 200 17 286 -29 76 -112 167 -181 196 -139 60 -290 17 -350 -100 -21 -42 -25 -121 -8 -166 38 -100 173 -133 254 -62 59 52 56 129 -5 129 -36 0 -49 19 -25 37 25 18 89 17 126 -2 98 -51 89 -213 -16 -285 -58 -40 -154 -64 -219 -56 -207 27 -321 240 -231 433 115 248 461 298 676 96 177 -166 204 -427 65 -636 -88 -133 -241 -228 -398 -249 -213 -28 -420 41 -568 191 -139 140 -215 321 -214 511 0 165 58 316 179 467 77 96 159 161 270 214 89 43 84 47 -21 19z" id="80"/>
<path d="M3564 3446 c-28 -13 -64 -66 -64 -96 0 -8 -8 -10 -22 -5 -13 4 -39 9 -60 12 -45 6 -78 -22 -78 -67 0 -26 10 -37 91 -91 85 -57 94 -61 133 -55 62 10 259 57 278 67 26 14 41 102 24 144 -26 61 -68 70 -120 24 l-35 -30 -14 33 c-27 63 -78 88 -133 64z" id="81"/>
<path d="M1081 3385 c-16 -14 -40 -43 -52 -63 -12 -20 -35 -51 -52 -69 l-29 -31 17 -59 c22 -78 54 -130 110 -182 99 -91 259 -123 409 -80 l39 11 -49 28 c-87 49 -173 162 -174 228 0 12 -12 32 -26 45 -50 42 -64 61 -84 116 -32 85 -58 98 -109 56z" id="82"/>
<path d="M3220 3265 c0 -2 13 -30 29 -62 57 -115 47 -207 -39 -347 -84 -137 -98 -237 -55 -391 30 -109 31 -139 5 -190 -11 -22 -20 -42 -20 -46 0 -11 122 -86 221 -135 51 -26 108 -47 136 -50 48 -6 48 -5 88 42 94 114 329 491 386 619 l21 47 -33 34 c-19 19 -119 89 -224 156 -104 67 -259 168 -344 225 -141 94 -171 112 -171 98z" id="83"/>
<path d="M1630 3201 c-15 -28 5 -65 45 -84 40 -19 45 -15 45 33 0 60 -65 97 -90 51z" id="84"/>
<path d="M3880 3190 c-52 -15 -143 -38 -202 -51 -60 -12 -108 -25 -107 -28 0 -10 149 -101 164 -101 8 0 64 11 124 26 l109 25 6 51 c4 28 10 64 13 79 6 34 13 34 -107 -1z" id="85"/>
<path d="M7498 3122 c-47 -102 -128 -214 -219 -304 l-88 -86 86 -91 86 -92 35 53 c47 69 95 184 116 276 20 88 30 237 19 275 -8 27 -9 27 -35 -31z" id="86"/>
<path d="M3855 3006 l-90 -22 85 -55 c47 -30 91 -58 98 -63 9 -5 12 13 12 78 0 47 -3 85 -7 85 -5 -1 -48 -11 -98 -23z" id="87"/>
<path d="M2110 3012 c0 -5 -27 -42 -61 -81 -33 -40 -59 -74 -57 -76 5 -5 203 -25 250 -25 l39 0 -60 70 c-33 38 -68 81 -77 95 -16 25 -34 33 -34 17z" id="88"/>
<path d="M1895 2778 c-60 -48 -71 -71 -80 -164 -10 -101 8 -204 51 -291 19 -40 39 -73 43 -73 4 0 20 13 35 29 15 16 55 41 88 56 55 25 58 28 44 44 -8 9 -25 39 -38 66 -30 68 -31 204 0 290 11 33 18 63 14 66 -4 4 -29 9 -57 12 -47 4 -53 2 -100 -35z" id="89"/>
<path d="M2077 2762 c-54 -135 -43 -297 25 -369 17 -19 32 -23 77 -23 80 0 178 -23 279 -66 125 -52 133 -53 196 -11 44 29 116 114 116 137 0 3 -23 24 -52 45 -29 22 -114 91 -190 153 -76 61 -143 112 -148 112 -5 0 -25 -13 -43 -30 -59 -52 -69 -154 -22 -226 18 -28 87 -63 123 -64 60 0 116 66 92 110 -16 29 -54 42 -85 28 -30 -13 -45 -3 -24 16 48 47 139 2 139 -69 0 -49 -24 -81 -74 -100 -36 -14 -50 -15 -87 -5 -92 25 -139 87 -139 185 0 70 17 112 63 152 26 23 33 34 24 41 -7 5 -67 12 -134 15 l-121 6 -15 -37z" id="90"/>
<path d="M3981 2663 c-74 -152 -262 -452 -362 -579 l-49 -61 56 -7 c76 -9 97 4 167 102 58 81 59 83 41 103 -17 19 -17 21 8 72 14 29 40 72 58 95 25 35 36 43 54 38 19 -5 27 5 64 79 23 47 42 98 42 113 0 24 -34 112 -42 112 -2 0 -19 -30 -37 -67z" id="91"/>
<path d="M7109 2680 c-20 -15 -25 -26 -21 -50 4 -30 5 -30 68 -30 40 0 64 4 64 11 0 17 -60 89 -73 89 -7 0 -24 -9 -38 -20z" id="92"/>
<path d="M1705 2659 c-33 -16 -64 -30 -68 -32 -4 -1 -1 -19 8 -39 32 -78 14 -174 -47 -242 -43 -49 -83 -68 -206 -97 -143 -33 -192 -74 -192 -159 0 -86 54 -148 136 -158 79 -8 184 47 155 82 -18 21 -3 39 25 32 16 -4 34 1 54 15 18 14 49 24 83 27 l53 4 -4 83 c-7 128 15 120 93 -35 l38 -75 23 69 23 69 -31 44 c-61 89 -95 236 -84 365 4 43 5 78 4 77 -2 0 -30 -14 -63 -30z m-392 -615 c18 -23 26 -26 64 -21 31 3 43 1 43 -8 0 -16 -22 -25 -59 -25 -35 0 -81 35 -81 61 0 26 8 24 33 -7z" id="93"/>
<path d="M7028 2629 c-56 -29 -59 -43 -7 -34 52 9 51 8 47 33 -3 20 -3 20 -40 1z" id="94"/>
<path d="M6964 2573 c-17 -3 -20 -10 -17 -31 11 -74 9 -72 66 -72 73 0 81 8 73 64 l-7 46 -47 -1 c-26 -1 -56 -4 -68 -6z" id="95"/>
<path d="M7100 2568 c0 -7 3 -30 6 -50 l7 -38 63 0 c34 0 65 3 67 8 2 4 0 26 -5 50 l-9 42 -65 0 c-45 0 -64 -4 -64 -12z" id="96"/>
<path d="M7255 2543 c4 -21 8 -44 10 -50 5 -15 75 -18 75 -3 0 13 -70 90 -82 90 -5 0 -6 -17 -3 -37z" id="97"/>
<path d="M6853 2544 c-44 -19 -53 -28 -53 -49 0 -24 2 -25 70 -25 l71 0 -6 38 c-12 73 -8 71 -82 36z" id="98"/>
<path d="M6703 2491 c-76 -24 -75 -31 4 -31 38 0 72 3 75 6 9 9 -3 44 -16 43 -6 -1 -34 -9 -63 -18z" id="99"/>
<path d="M4039 2439 c-11 -28 -11 -33 7 -46 27 -20 74 -45 74 -38 0 7 -61 115 -65 115 -1 0 -8 -14 -16 -31z" id="100"/>
<path d="M7297 2463 c-26 -4 -27 -7 -21 -41 17 -88 16 -87 70 -84 27 2 50 4 51 5 1 1 -4 29 -10 62 -13 65 -20 69 -90 58z" id="101"/>
<path d="M6997 2453 c-42 -5 -40 4 -21 -93 6 -30 6 -30 76 -30 l70 0 -6 28 c-3 15 -8 44 -12 65 -7 40 -6 40 -107 30z" id="102"/>
<path d="M7124 2423 c18 -101 10 -93 83 -93 l65 0 -6 48 c-12 84 -10 82 -83 82 l-65 0 6 -37z" id="103"/>
<path d="M6698 2443 c-48 -4 -48 -4 -48 -41 0 -80 4 -83 84 -80 l71 3 -3 39 c-5 57 -19 86 -39 84 -10 -1 -39 -3 -65 -5z" id="104"/>
<path d="M6815 2393 c4 -32 11 -62 15 -67 5 -4 36 -5 69 -1 l62 7 -6 37 c-14 87 -9 81 -81 81 l-65 0 6 -57z" id="105"/>
<path d="M6502 2383 l3 -58 69 -3 69 -3 -7 32 c-3 17 -6 44 -6 60 0 29 0 29 -65 29 l-66 0 3 -57z" id="106"/>
<path d="M7409 2383 c6 -34 10 -38 40 -41 l33 -3 -33 40 c-19 22 -37 41 -40 41 -3 0 -3 -17 0 -37z" id="107"/>
<path d="M2766 2365 c-23 -39 -76 -87 -132 -121 -15 -9 -12 -14 30 -38 26 -15 63 -41 82 -58 32 -29 37 -30 61 -17 30 16 109 102 129 141 14 27 14 27 -59 83 -41 30 -76 55 -79 55 -4 0 -18 -20 -32 -45z" id="108"/>
<path d="M3906 2348 c-37 -59 -56 -94 -56 -103 0 -3 12 -10 28 -16 15 -5 73 -37 130 -71 92 -54 104 -59 115 -44 11 14 17 13 66 -17 61 -36 80 -64 37 -53 -14 3 -26 5 -26 2 0 -2 31 -23 70 -46 83 -50 132 -57 161 -21 27 32 34 68 18 87 -20 25 -181 133 -324 219 -71 43 -139 87 -151 97 -11 10 -23 18 -27 18 -4 0 -22 -24 -41 -52z" id="109"/>
<path d="M6457 2366 c-20 -46 -21 -56 -4 -56 27 0 35 15 28 55 l-7 40 -17 -39z" id="110"/>
<path d="M2107 2310 c-87 -22 -163 -83 -193 -156 -22 -52 -38 -162 -35 -241 5 -190 106 -390 227 -449 47 -23 63 -26 122 -22 127 9 218 71 365 251 115 140 154 202 168 263 11 47 10 56 -11 99 -13 27 -40 60 -64 77 -54 41 -243 131 -331 158 -80 25 -193 34 -248 20z m117 -30 c14 -5 26 -17 26 -26 0 -11 -5 -14 -17 -9 -10 4 -26 10 -35 12 -19 6 -23 15 -11 26 8 9 7 9 37 -3z m-146 -57 c2 -9 -7 -13 -27 -13 -30 0 -46 11 -34 24 11 11 56 2 61 -11z m296 -34 c15 -14 -1 -22 -29 -15 -14 4 -25 13 -25 22 0 11 6 14 23 9 12 -4 26 -11 31 -16z m127 -29 c20 -11 26 -30 10 -30 -23 0 -62 21 -56 30 8 13 21 13 46 0z m-283 -27 c2 -9 -7 -13 -27 -13 -30 0 -46 11 -34 24 11 11 56 2 61 -11z m467 -52 c3 -5 1 -12 -5 -16 -8 -5 -30 6 -69 31 -1 2 0 7 4 13 6 11 58 -10 70 -28z m-336 -4 c13 -16 5 -27 -15 -21 -8 2 -21 6 -30 9 -8 3 -12 9 -9 15 9 14 41 12 54 -3z m-324 -8 c9 -13 6 -15 -32 -24 -26 -5 -33 -3 -33 8 0 24 53 37 65 16z m455 -28 c0 -15 -16 -22 -34 -15 -25 9 -19 24 9 24 14 0 25 -4 25 -9z m148 -33 c-6 -16 -36 -34 -44 -25 -9 9 15 37 33 37 8 0 13 -5 11 -12z m-435 -33 c1 -5 -13 -11 -30 -13 -31 -3 -42 6 -26 22 10 10 53 3 56 -9z m155 -27 c-5 -15 -33 -22 -54 -14 -24 9 -6 26 27 26 20 0 29 -4 27 -12z m142 -6 c0 -12 -23 -32 -37 -32 -17 0 -17 27 0 33 19 8 37 8 37 -1z m213 2 c4 -4 -3 -20 -14 -35 -34 -48 -55 -33 -23 16 17 25 26 30 37 19z m-663 -73 c0 -12 -8 -16 -42 -25 -21 -5 -28 -3 -28 8 0 8 6 17 13 19 21 9 57 7 57 -2z m520 -36 c0 -12 -28 -35 -44 -35 -13 0 -5 24 12 36 22 18 32 17 32 -1z m-342 -7 c-5 -13 -53 -29 -62 -20 -3 3 -1 11 5 19 14 16 62 18 57 1z m172 -6 c0 -15 -24 -32 -47 -32 -29 0 -30 18 0 30 28 11 47 12 47 2z m190 -95 c0 -20 -37 -50 -50 -42 -8 5 -4 15 11 31 25 27 39 31 39 11z m-500 -36 c0 -8 -44 -31 -60 -31 -21 0 -8 27 18 36 28 11 42 9 42 -5z m355 10 c5 -9 -31 -41 -47 -41 -14 0 -8 23 10 36 21 16 29 17 37 5z m-175 -11 c0 -11 -42 -30 -66 -30 -22 0 -17 20 9 30 30 12 57 12 57 0z m90 -131 c-12 -22 -37 -35 -47 -25 -9 8 27 46 44 46 11 0 11 -4 3 -21z m-160 1 c0 -10 -52 -40 -70 -40 -21 0 -9 27 18 37 36 14 52 15 52 3z" id="111"/>
<path d="M7304 2306 c-3 -8 -2 -34 3 -58 10 -51 30 -59 73 -28 26 19 31 28 28 59 -3 35 -4 36 -51 39 -34 2 -49 -1 -53 -12z" id="112"/>
<path d="M7426 2293 c4 -16 8 -29 9 -30 0 -2 17 11 36 27 l34 29 -43 1 c-41 0 -42 -1 -36 -27z" id="113"/>
<path d="M6842 2301 c-10 -6 -11 -22 -6 -59 l7 -52 69 0 69 0 -6 48 c-4 26 -8 53 -10 60 -5 14 -102 17 -123 3z" id="114"/>
<path d="M6989 2303 c-2 -12 1 -45 7 -82 l5 -34 66 6 c36 4 68 8 70 11 2 2 0 25 -4 52 l-8 49 -68 3 c-37 2 -68 -1 -68 -5z" id="115"/>
<path d="M7152 2258 c5 -29 11 -54 13 -56 1 -2 31 -2 66 0 l64 3 -8 53 -9 52 -67 0 -68 0 9 -52z" id="116"/>
<path d="M6419 2283 c-28 -33 -59 -90 -52 -96 3 -4 33 -7 65 -7 68 0 74 7 61 72 -7 36 -13 43 -34 46 -15 2 -31 -4 -40 -15z" id="117"/>
<path d="M6513 2248 c4 -28 10 -54 14 -58 5 -3 34 -4 66 -2 l57 4 0 38 c0 66 -5 70 -77 70 l-66 0 6 -52z" id="118"/>
<path d="M6664 2278 c3 -13 6 -38 6 -55 l0 -33 75 0 c83 0 84 1 69 79 l-6 31 -75 0 c-73 0 -75 -1 -69 -22z" id="119"/>
<path d="M2972 2236 l-21 -35 195 -166 c181 -156 194 -169 194 -201 0 -40 -29 -74 -64 -74 -28 0 -61 26 -263 212 l-149 136 -31 -19 c-30 -19 -31 -22 -21 -57 22 -78 -30 -192 -155 -341 l-45 -53 25 -37 c21 -30 24 -44 20 -83 -9 -70 -36 -115 -144 -232 -131 -143 -156 -183 -160 -254 -7 -97 42 -159 131 -169 100 -12 198 46 224 133 6 22 16 89 22 149 15 172 45 248 129 335 43 45 52 50 92 50 55 0 84 -19 99 -65 16 -49 6 -72 -66 -141 -59 -56 -64 -64 -64 -103 0 -53 12 -77 50 -96 86 -45 184 16 210 129 12 56 8 93 -27 200 -42 130 -22 206 64 242 64 28 165 -17 214 -94 17 -26 44 -92 61 -147 40 -129 69 -186 114 -223 124 -103 285 -13 244 137 -7 26 -33 65 -75 110 -35 39 -73 88 -85 110 -60 119 17 251 147 251 67 0 102 -17 175 -87 72 -68 125 -92 202 -93 131 0 187 39 255 182 38 80 45 101 34 110 -10 8 -19 6 -36 -10 -32 -30 -74 -43 -113 -36 -19 3 -129 64 -246 135 l-213 129 -17 -23 c-10 -12 -39 -51 -65 -87 -79 -107 -122 -116 -318 -69 -118 28 -385 170 -401 214 -5 11 -86 65 -99 65 -2 0 -12 -15 -23 -34z m1428 -422 c0 -53 -83 -125 -112 -96 -8 8 0 15 26 26 28 11 42 26 54 56 20 46 32 51 32 14z m-597 -419 c17 -36 22 -90 11 -119 -12 -32 -24 -15 -24 37 -1 28 -7 63 -15 77 -18 31 -18 40 -2 40 7 0 21 -16 30 -35z m-683 -184 c0 -29 -48 -63 -84 -59 -44 4 -46 28 -2 28 27 0 40 6 52 25 19 30 34 32 34 6z m-460 -225 c0 -22 -37 -62 -68 -75 -36 -15 -104 -11 -110 7 -2 8 9 12 38 12 47 0 95 21 110 50 12 23 30 27 30 6z" id="120"/>
<path d="M6902 1829 l-592 -441 0 -64 c0 -57 2 -64 19 -64 11 0 26 8 33 18 16 24 58 46 66 36 4 -4 1 -9 -7 -12 -8 -2 -27 -18 -44 -33 -16 -16 -36 -29 -44 -29 -15 0 -40 -47 -30 -57 4 -3 24 7 45 23 20 17 281 220 579 452 500 390 543 425 549 458 8 43 0 53 -24 31 -10 -10 -23 -17 -29 -17 -5 0 -18 -9 -28 -20 -10 -11 -23 -20 -29 -20 -6 0 -17 -9 -24 -20 -7 -11 -18 -20 -25 -20 -7 0 -31 -18 -52 -40 -36 -37 -75 -53 -75 -30 0 6 8 10 19 10 10 0 31 16 45 35 15 19 33 35 40 35 7 0 23 11 36 25 13 14 27 25 32 25 4 0 17 9 28 20 11 11 27 20 35 20 8 0 15 5 15 10 0 6 11 15 24 20 18 6 27 20 32 45 3 20 5 38 2 40 -2 2 -270 -194 -596 -436z m403 151 c-10 -17 -93 -70 -108 -70 -8 0 -22 -11 -30 -24 -19 -29 -85 -71 -95 -61 -4 4 0 10 8 13 8 3 35 25 59 49 24 23 50 43 58 43 7 0 32 14 55 30 41 30 65 39 53 20z m-175 -68 c0 -11 -179 -146 -222 -168 -50 -26 -209 -133 -240 -162 -15 -14 -31 -23 -34 -19 -12 11 54 64 167 134 60 37 157 103 215 146 108 79 114 83 114 69z m-120 -150 c0 -4 -9 -13 -20 -20 -22 -13 -27 -3 -8 16 14 14 28 16 28 4z m-330 -222 c0 -5 -25 -24 -55 -41 -30 -17 -55 -35 -55 -40 0 -4 -14 -12 -32 -17 -20 -5 -38 -19 -48 -37 -18 -33 -61 -59 -88 -52 -18 4 -15 6 31 21 9 3 27 21 38 41 13 21 32 38 48 41 14 4 36 16 49 27 23 21 91 64 105 66 4 1 7 -3 7 -9z" id="121"/>
<path d="M7014 2174 c-7 -3 -8 -20 -3 -52 4 -26 8 -53 8 -59 1 -9 22 -13 72 -13 l72 0 -6 55 c-3 30 -8 59 -12 65 -6 10 -109 13 -131 4z" id="122"/>
<path d="M7174 2133 c3 -25 8 -49 11 -51 6 -7 115 77 115 88 0 6 -30 10 -66 10 l-67 0 7 -47z" id="123"/>
<path d="M2907 2152 c-15 -16 -4 -28 169 -185 185 -168 219 -189 219 -137 0 19 -39 58 -183 182 -101 87 -185 158 -186 158 -2 0 -10 -8 -19 -18z" id="124"/>
<path d="M6428 2162 l-58 -3 0 -44 c0 -71 4 -75 76 -75 l64 0 0 48 c0 67 -12 78 -82 74z" id="125"/>
<path d="M6525 2158 c-3 -7 -1 -35 3 -63 l7 -50 59 -3 c32 -2 63 1 68 6 6 6 7 34 3 66 l-7 56 -64 0 c-43 0 -66 -4 -69 -12z" id="126"/>
<path d="M6680 2148 c0 -13 3 -40 6 -60 l7 -38 73 0 c83 0 81 -1 68 83 l-7 37 -73 0 c-70 0 -74 -1 -74 -22z" id="127"/>
<path d="M6850 2156 c0 -7 3 -34 6 -60 l7 -46 69 0 70 0 -7 53 c-4 28 -9 55 -12 60 -2 4 -33 7 -69 7 -47 0 -64 -4 -64 -14z" id="128"/>
<path d="M6275 2100 l-59 -60 73 0 74 0 -7 31 c-3 17 -6 44 -6 60 0 16 -4 29 -8 29 -4 0 -34 -27 -67 -60z" id="129"/>
<path d="M1744 2123 c11 -40 18 -183 9 -183 -6 0 -28 6 -49 13 -22 8 -55 17 -74 20 -39 7 -44 12 59 -62 34 -24 61 -50 61 -57 0 -7 -28 -30 -62 -51 l-62 -38 67 -5 c36 -3 71 -10 76 -15 8 -8 0 -36 -24 -94 -19 -45 -35 -87 -35 -93 0 -5 20 14 46 44 49 58 77 68 82 28 10 -91 25 -162 32 -149 5 8 15 47 23 86 15 70 14 75 -9 148 -22 68 -29 111 -37 216 -2 19 -25 74 -51 122 -45 83 -63 107 -52 70z" id="130"/>
<path d="M4487 1490 c-466 -522 -526 -593 -517 -610 6 -11 19 -20 30 -20 12 0 190 192 512 553 271 303 508 569 527 590 33 36 33 38 16 57 -10 11 -23 20 -30 20 -6 0 -249 -266 -538 -590z" id="131"/>
<path d="M1606 2037 c-15 -11 -10 -15 48 -29 63 -15 66 -14 66 3 0 35 -77 53 -114 26z" id="132"/>
<path d="M6578 2023 c-38 -4 -38 -4 -38 -51 0 -70 7 -76 81 -69 34 4 64 8 65 10 1 1 -1 27 -4 57 -7 53 -8 55 -37 56 -16 1 -47 -1 -67 -3z" id="133"/>
<path d="M6699 2026 c-3 -3 -2 -29 1 -58 l5 -53 79 -3 79 -3 -7 47 c-3 26 -6 53 -6 60 0 11 -18 14 -73 14 -41 0 -76 -2 -78 -4z" id="134"/>
<path d="M6870 2008 c0 -13 3 -40 6 -60 6 -36 8 -38 46 -38 23 0 51 8 67 19 23 17 26 25 23 60 l-4 41 -69 0 c-65 0 -69 -1 -69 -22z" id="135"/>
<path d="M7030 2000 c0 -37 5 -37 54 0 l40 30 -47 0 c-46 0 -47 -1 -47 -30z" id="136"/>
<path d="M6873 1582 c-489 -382 -598 -472 -568 -472 5 0 1029 798 1108 863 43 35 59 58 40 56 -5 0 -265 -202 -580 -447z" id="137"/>
<path d="M6133 1987 c-43 -26 -53 -37 -53 -59 0 -28 1 -28 65 -28 l66 0 -3 57 c-2 31 -7 58 -13 59 -5 2 -34 -11 -62 -29z" id="138"/>
<path d="M6229 2016 c-2 -2 -2 -29 -1 -60 l4 -56 70 0 71 0 -7 38 c-3 20 -6 47 -6 60 0 20 -4 22 -63 22 -35 0 -66 -2 -68 -4z" id="139"/>
<path d="M6380 1991 c0 -16 3 -43 6 -60 6 -31 7 -31 70 -31 34 0 65 3 67 8 2 4 2 31 -1 60 l-4 52 -69 0 -69 0 0 -29z" id="140"/>
<path d="M5009 1894 c-57 -64 -105 -120 -107 -124 -11 -30 352 -130 469 -130 l41 0 -7 50 c-6 42 -4 51 11 57 11 4 23 -1 36 -18 75 -93 84 -99 141 -99 75 0 147 11 147 22 0 5 -38 53 -85 107 l-85 99 -58 7 c-82 10 -204 50 -305 101 -48 24 -89 44 -91 44 -2 0 -50 -52 -107 -116z" id="141"/>
<path d="M6005 1921 l-40 -19 48 -1 c41 -1 47 2 47 19 0 24 -4 24 -55 1z" id="142"/>
<path d="M6453 1882 c-70 -3 -70 -4 -57 -84 l7 -38 70 0 70 0 -7 57 c-4 32 -10 60 -14 63 -4 3 -35 4 -69 2z" id="143"/>
<path d="M6554 1875 c-4 -8 -2 -36 3 -63 l8 -47 65 0 c73 0 77 4 65 81 l-6 44 -65 0 c-48 0 -66 -4 -70 -15z" id="144"/>
<path d="M6715 1833 c4 -32 11 -62 16 -67 21 -23 139 62 139 100 0 23 -2 24 -81 24 l-80 0 6 -57z" id="145"/>
<path d="M6890 1875 c0 -13 4 -14 20 -5 11 6 20 13 20 15 0 3 -9 5 -20 5 -11 0 -20 -7 -20 -15z" id="146"/>
<path d="M5853 1874 c-8 -4 -4 -17 13 -41 13 -20 24 -40 24 -45 0 -5 11 -13 24 -17 15 -6 25 -20 29 -40 4 -20 18 -38 41 -53 38 -24 53 -48 38 -57 -14 -9 4 -48 27 -60 11 -6 25 -26 31 -45 7 -24 18 -36 33 -38 15 -2 25 -13 31 -35 11 -36 35 -51 48 -31 6 10 13 7 28 -11 11 -13 20 -31 20 -41 0 -15 18 -30 36 -30 2 0 4 14 4 31 0 26 -35 73 -201 273 -111 132 -204 242 -208 243 -3 1 -11 -1 -18 -3z" id="147"/>
<path d="M5920 1874 c0 -4 21 -31 46 -60 36 -43 52 -54 75 -54 28 0 29 2 29 44 0 73 -3 76 -81 76 -38 0 -69 -3 -69 -6z" id="148"/>
<path d="M6084 1849 c3 -17 6 -44 6 -60 0 -29 0 -29 65 -29 l66 0 -3 58 -3 57 -69 3 -69 3 7 -32z" id="149"/>
<path d="M6234 1858 c3 -13 6 -40 6 -60 l0 -38 70 0 c78 0 77 -1 64 83 l-7 37 -69 0 c-68 0 -70 -1 -64 -22z" id="150"/>
<path d="M5717 1853 c-5 -9 536 -646 553 -651 6 -2 10 17 10 48 0 46 -3 53 -30 68 -19 11 -30 25 -30 39 0 12 -4 25 -10 28 -5 3 -10 -1 -10 -10 0 -13 -7 -11 -35 11 -19 14 -35 35 -35 45 0 12 -10 23 -25 29 -15 6 -32 25 -40 45 -8 19 -24 39 -35 45 -11 6 -20 17 -20 24 0 8 -7 19 -15 26 -8 7 -15 17 -15 22 0 6 7 8 15 4 27 -10 16 11 -21 39 -20 15 -40 40 -46 56 -5 15 -18 31 -28 34 -11 3 -22 15 -25 26 -4 10 -18 33 -32 49 -21 26 -32 30 -73 30 -27 0 -51 -3 -53 -7z" id="151"/>
<path d="M5656 1838 c26 -43 608 -710 612 -700 4 13 -593 712 -609 712 -6 0 -7 -6 -3 -12z" id="152"/>
<path d="M6575 1743 c-6 -5 -9 -31 -7 -61 3 -41 7 -52 18 -48 30 12 124 90 121 100 -4 13 -117 20 -132 9z" id="153"/>
<path d="M6047 1715 c20 -27 38 -33 29 -9 -3 9 -6 20 -6 25 0 5 -9 9 -20 9 -20 0 -20 -1 -3 -25z" id="154"/>
<path d="M6094 1699 c11 -71 20 -79 82 -79 l55 0 -3 58 -3 57 -69 3 -69 3 7 -42z" id="155"/>
<path d="M6244 1718 c3 -13 6 -40 6 -60 l0 -38 70 0 70 0 0 29 c0 16 -3 43 -6 60 l-6 31 -70 0 c-68 0 -70 -1 -64 -22z" id="156"/>
<path d="M6400 1727 c0 -8 3 -35 6 -61 l7 -46 69 0 69 0 -3 58 -3 57 -72 3 c-57 2 -73 0 -73 -11z" id="157"/>
<path d="M5455 1475 c7 -204 16 -240 62 -270 69 -45 153 -21 185 53 17 38 18 51 9 81 -9 31 -177 243 -242 306 l-21 20 7 -190z" id="158"/>
<path d="M6156 1588 c16 -26 69 -88 77 -88 8 0 10 62 1 84 -4 11 -19 16 -46 16 -29 0 -37 -3 -32 -12z" id="159"/>
<path d="M6254 1569 c3 -17 6 -42 6 -55 0 -23 3 -24 70 -24 l70 0 0 33 c0 73 -5 77 -82 77 l-70 0 6 -31z" id="160"/>
<path d="M6411 1583 c1 -10 4 -31 8 -46 l6 -28 54 40 c29 22 56 43 59 46 3 3 -25 5 -61 5 -58 0 -67 -2 -66 -17z" id="161"/>
<path d="M6260 1462 c0 -5 9 -17 19 -26 21 -19 45 -12 71 18 11 14 6 16 -39 16 -28 0 -51 -4 -51 -8z" id="162"/>
<path d="M6550 7383 c-101 -52 -105 -184 -8 -243 120 -73 261 77 184 195 -38 58 -116 79 -176 48z" id="163"/>
<path d="M2237 7215 c-41 -118 -36 -115 -104 -69 -32 21 -61 40 -64 42 -4 2 4 -27 17 -63 13 -37 22 -71 19 -76 -4 -5 -52 -9 -107 -9 -56 0 -98 -3 -94 -7 3 -4 36 -16 73 -28 37 -11 68 -25 70 -31 2 -6 -31 -33 -74 -60 -86 -54 -81 -65 21 -44 42 8 72 25 133 73 43 34 108 77 143 96 36 19 79 48 95 66 41 45 98 125 88 125 -5 0 -44 -21 -87 -46 -43 -25 -82 -42 -87 -37 -4 4 -9 40 -11 78 l-3 70 -28 -80z" id="164"/>
<path d="M2396 7054 c-49 -13 -114 -38 -143 -56 -63 -39 -156 -113 -162 -130 -2 -6 -20 -32 -39 -57 -78 -103 -94 -203 -47 -298 55 -110 153 -170 393 -240 264 -76 348 -66 407 52 28 57 30 65 33 221 7 259 -25 374 -125 465 -84 75 -160 85 -317 43z m262 -46 c15 -15 16 -48 2 -48 -9 0 -30 40 -30 56 0 8 16 4 28 -8z m-164 -30 c14 -20 13 -38 -2 -38 -4 0 -16 14 -25 30 -15 25 -16 30 -3 30 8 0 22 -10 30 -22z m-180 -80 c20 -28 20 -38 1 -38 -14 0 -35 29 -35 49 0 18 18 12 34 -11z m456 -28 c11 -21 5 -60 -10 -60 -9 0 -20 61 -13 73 7 11 11 9 23 -13z m-132 -44 c3 -20 0 -27 -10 -24 -7 3 -14 17 -16 32 -3 20 0 27 10 24 7 -3 14 -17 16 -32z m-476 -33 c18 -16 25 -43 11 -43 -12 0 -43 33 -43 47 0 17 10 17 32 -4z m316 5 c12 -12 17 -48 6 -48 -8 0 -43 43 -44 53 0 11 25 8 38 -5z m-124 -87 c24 -27 11 -48 -15 -25 -19 17 -26 44 -11 44 5 0 17 -9 26 -19z m396 5 c0 -8 3 -21 6 -30 4 -10 1 -16 -9 -16 -17 0 -32 34 -22 50 9 15 25 12 25 -4z m-112 -50 c5 -37 -19 -31 -29 8 -6 22 -5 27 9 24 10 -2 18 -15 20 -32z m-554 -32 c18 -16 25 -29 19 -35 -12 -12 -63 26 -63 47 0 20 11 17 44 -12z m436 1 c18 -34 3 -46 -21 -16 -22 27 -24 41 -6 41 8 0 20 -11 27 -25z m-260 -47 c0 -16 -27 -7 -49 16 -34 36 -16 54 20 20 16 -15 29 -31 29 -36z m510 -33 c0 -19 -4 -35 -10 -35 -5 0 -10 16 -10 35 0 19 5 35 10 35 6 0 10 -16 10 -35z m-365 -5 c21 -23 12 -39 -13 -24 -19 12 -29 44 -14 44 5 0 17 -9 27 -20z m253 -9 c3 -16 -1 -22 -10 -19 -7 3 -15 15 -16 27 -3 16 1 22 10 19 7 -3 15 -15 16 -27z m-93 -44 c12 -10 14 -16 7 -21 -13 -8 -52 10 -52 24 0 14 23 12 45 -3z m-401 -23 c9 -3 16 -10 16 -16 0 -14 -53 -5 -58 10 -4 13 16 16 42 6z m149 -18 c17 -13 23 -36 9 -36 -16 0 -52 32 -47 41 8 12 16 11 38 -5z m468 -89 c-13 -35 -33 -26 -25 11 11 53 15 59 26 37 6 -14 5 -30 -1 -48z m-269 1 c-8 -8 -19 -6 -37 6 -35 23 -22 40 17 20 21 -11 27 -19 20 -26z m168 27 c7 -9 10 -18 7 -21 -10 -11 -37 5 -37 21 0 19 14 19 30 0z m-274 -69 c10 -8 16 -17 12 -21 -9 -10 -61 9 -66 23 -5 17 30 15 54 -2z m228 -26 c28 -10 35 -30 12 -30 -27 0 -67 20 -61 30 8 13 17 13 49 0z" id="165"/>
<path d="M4914 7239 c3 -41 8 -130 12 -199 3 -73 12 -136 20 -151 19 -38 62 -62 110 -62 79 0 130 59 121 139 -4 38 -20 62 -127 189 -67 80 -127 148 -132 151 -6 4 -8 -20 -4 -67z" id="166"/>
<path d="M1445 6275 c8 -223 19 -260 80 -289 99 -47 207 40 177 142 -9 28 -186 255 -259 332 -3 3 -2 -80 2 -185z" id="167"/>
<path d="M6674 6398 c3 -35 8 -125 12 -201 7 -160 21 -192 90 -216 52 -18 88 -9 131 34 27 27 33 41 33 75 0 23 -5 51 -12 63 -12 24 -248 307 -255 307 -2 0 -2 -28 1 -62z" id="168"/>
<path d="M7794 5539 c5 -73 24 -114 87 -194 21 -27 56 -84 76 -125 20 -41 42 -78 49 -83 7 -4 39 -29 71 -57 31 -27 59 -47 61 -45 3 2 -14 38 -37 79 -22 41 -41 80 -41 85 0 6 34 11 78 13 l77 3 -88 34 c-48 19 -90 38 -93 43 -3 5 13 34 36 64 23 31 40 57 38 60 -3 2 -31 -5 -64 -16 -32 -11 -64 -18 -71 -16 -10 4 -12 29 -6 107 7 115 -3 125 -32 29 -24 -80 -39 -92 -62 -51 -10 17 -33 55 -51 84 l-33 52 5 -66z" id="169"/>
<path d="M7470 5515 c-96 -32 -181 -123 -231 -246 -55 -138 -102 -306 -106 -384 -4 -72 -2 -84 19 -115 14 -21 45 -46 78 -63 49 -24 75 -29 203 -39 244 -18 387 14 479 107 75 76 91 156 60 300 -31 147 -90 246 -203 342 -116 99 -206 129 -299 98z m114 -53 c3 -5 -10 -24 -29 -42 -29 -28 -35 -31 -35 -15 0 19 36 65 51 65 4 0 10 -4 13 -8z m-179 -94 c-15 -48 -43 -51 -31 -3 4 14 13 25 22 25 11 0 14 -6 9 -22z m325 -6 c0 -5 -11 -19 -24 -31 -29 -27 -47 -10 -20 20 17 19 44 26 44 11z m-167 -59 c9 -9 -33 -53 -50 -53 -19 0 -16 10 9 37 23 24 30 27 41 16z m-179 -72 c8 -12 -30 -58 -40 -48 -8 8 15 57 27 57 4 0 10 -4 13 -9z m446 -26 c0 -17 -46 -42 -57 -31 -7 7 34 45 50 46 4 0 7 -7 7 -15z m-201 -51 c-16 -17 -26 -21 -33 -13 -8 7 -4 16 13 30 32 26 48 13 20 -17z m-382 -25 c-7 -17 -17 -29 -22 -27 -12 4 -8 37 6 55 19 22 29 4 16 -28z m233 1 c0 -12 -32 -50 -42 -50 -14 0 -9 28 8 44 17 18 34 21 34 6z m-167 -76 c9 -10 -15 -54 -30 -54 -16 0 -17 14 -1 40 13 21 21 24 31 14z m407 -18 c0 -15 -21 -26 -48 -26 -14 1 -12 5 7 20 27 23 41 25 41 6z m193 -3 c11 -10 -24 -43 -45 -43 -25 0 -23 14 5 33 25 18 31 20 40 10z m-343 -22 c0 -11 -39 -41 -52 -41 -15 0 -8 29 10 39 22 13 42 14 42 2z m-150 -39 c0 -15 -28 -47 -35 -40 -11 11 5 48 21 48 8 0 14 -4 14 -8z m-207 -48 c8 -8 -13 -64 -24 -64 -10 0 -12 31 -3 54 6 17 16 20 27 10z m397 -38 c0 -14 -21 -26 -46 -26 -8 0 -14 6 -14 14 0 13 9 17 53 25 4 0 7 -5 7 -13z m150 -10 c0 -16 -48 -28 -57 -14 -3 6 1 14 8 19 21 13 49 11 49 -5z m-290 -11 c0 -9 -9 -15 -25 -15 -26 0 -34 15 -12 23 23 10 37 7 37 -8z m-164 -30 c-6 -16 -36 -21 -36 -6 0 5 8 17 17 27 18 18 30 6 19 -21z m614 11 c0 -19 -39 -31 -53 -17 -7 7 -3 13 14 20 34 14 39 13 39 -3z m-292 -83 c2 -9 -7 -13 -27 -13 -31 0 -42 14 -18 23 19 8 40 3 45 -10z m-314 -9 c31 -12 15 -25 -26 -22 -49 4 -66 28 -20 28 17 0 37 -3 46 -6z m176 -9 c0 -16 -55 -22 -64 -6 -8 13 5 21 36 21 18 0 28 -5 28 -15z m300 -5 c0 -13 -45 -24 -66 -16 -8 3 -12 10 -9 16 8 13 75 13 75 0z" id="170"/>
<path d="M8077 4482 l-108 -109 146 -37 c80 -21 148 -36 150 -34 3 2 -7 51 -21 109 -37 155 -44 179 -52 179 -4 0 -56 -49 -115 -108z" id="171"/>
<path d="M7822 3055 c-39 -17 -66 -73 -57 -116 17 -76 120 -105 176 -50 81 81 -14 213 -119 166z" id="172"/>
<path d="M768 2435 c-65 -36 -73 -122 -17 -169 97 -82 226 50 142 144 -34 37 -85 47 -125 25z" id="173"/>
<path d="M7310 1445 c-57 -57 -102 -106 -99 -108 6 -6 312 -78 315 -74 7 7 -91 287 -101 287 -6 0 -57 -47 -115 -105z" id="174"/>
<path d="M4927 953 c3 -54 8 -147 12 -207 8 -109 8 -110 44 -143 42 -38 96 -44 147 -18 56 29 79 123 43 175 -26 38 -235 285 -243 288 -4 1 -5 -41 -3 -95z" id="175"/>
<path d="M3354 941 c-44 -27 -60 -77 -41 -124 27 -63 86 -84 147 -52 37 19 50 43 50 92 -1 83 -84 128 -156 84z" id="176"/>
</g>
</svg>