<?xml version="1.0" ?><!DOCTYPE svg  PUBLIC '-//W3C//DTD SVG 20010904//EN'  'http://www.w3.org/TR/2001/REC-SVG-20010904/DTD/svg10.dtd'><svg height="850.000000pt" preserveAspectRatio="xMidYMid meet" version="1.0" viewBox="0 0 850.000000 850.000000" width="850.000000pt" xmlns="http://www.w3.org/2000/svg">
<metadata>
Created by potrace 1.14, written by Peter Selinger 2001-2017
</metadata>
<g fill="#ffffff" stroke="none" transform="translate(0.000000,850.000000) scale(0.100000,-0.100000)">
<path d="M0 5685 c0 -1548 4 -2815 8 -2815 10 0 405 151 1107 423 319 123 667 258 773 298 174 66 193 75 187 94 -3 11 -22 83 -42 160 l-36 140 11 135 c9 120 8 150 -9 270 -13 83 -22 214 -26 340 -4 181 -3 217 15 304 22 102 67 211 123 293 69 101 230 248 365 335 147 94 449 214 721 287 l42 12 32 102 c111 363 385 926 575 1183 99 135 236 264 280 264 7 0 52 25 101 55 246 155 405 205 648 205 277 0 503 -68 730 -219 50 -33 117 -84 149 -113 68 -61 69 -54 6 77 -27 56 -63 107 -118 168 -101 112 -147 199 -147 278 0 47 4 62 24 83 49 52 103 28 175 -80 l42 -63 12 45 c9 32 19 47 37 54 53 20 101 -19 150 -125 51 -108 60 -167 60 -382 0 -124 4 -192 10 -190 15 5 52 164 65 279 17 149 38 268 61 343 22 73 42 83 84 41 46 -46 45 -81 -5 -315 -17 -79 -29 -145 -27 -147 1 -2 23 10 48 27 26 16 73 39 105 50 71 25 201 37 232 20 25 -13 24 -19 -37 -141 l-40 -80 27 -5 c150 -32 211 -57 272 -111 27 -25 50 -52 50 -60 0 -33 -122 -46 -170 -19 -14 8 -36 14 -49 15 -32 0 -181 -40 -181 -49 0 -4 23 -13 52 -20 75 -17 186 -73 240 -121 89 -78 167 -213 184 -318 6 -37 4 -42 -13 -42 -11 0 -32 14 -49 31 -32 35 -103 89 -115 89 -5 0 7 -28 26 -62 36 -67 85 -189 85 -213 0 -9 -9 -15 -22 -15 -21 0 -68 44 -185 173 -50 56 -135 107 -177 107 -14 0 -5 -13 34 -52 29 -29 63 -75 76 -103 27 -58 54 -178 54 -238 0 -40 -21 -87 -40 -87 -4 0 -17 31 -29 69 -12 38 -38 94 -58 125 -37 53 -118 124 -130 113 -3 -4 1 -24 10 -45 61 -153 62 -452 2 -596 -8 -20 -15 -37 -15 -39 0 -2 26 -9 58 -16 31 -7 111 -31 177 -53 425 -141 802 -432 885 -683 11 -33 29 -122 39 -198 17 -113 28 -156 62 -235 55 -127 63 -214 27 -282 -20 -36 -37 -52 -89 -78 -84 -44 -115 -75 -135 -134 -18 -57 -45 -289 -34 -301 3 -4 107 -27 229 -51 l222 -43 95 141 c53 78 107 151 120 163 31 29 64 29 98 2 43 -34 35 -64 -55 -200 -44 -67 -83 -128 -85 -134 -3 -7 30 -18 93 -30 54 -10 171 -35 260 -55 l163 -37 0 2408 0 2409 -3920 0 -3920 0 52 -82 c156 -248 152 -238 118 -280 -25 -32 -49 -39 -87 -23 -23 10 -56 54 -142 189 -61 96 -111 180 -111 186 0 6 -84 10 -245 10 l-245 0 0 -2815z m5492 2651 c28 -21 38 -58 23 -92 -10 -24 -46 -47 -202 -132 -204 -109 -243 -121 -278 -82 -24 26 -23 76 1 100 32 31 387 219 414 219 14 0 33 -5 42 -13z m-1438 -27 c34 -27 34 -48 -6 -287 -36 -219 -46 -242 -105 -242 -49 0 -73 24 -73 73 0 49 57 393 71 428 19 48 71 61 113 28z m3946 -29 c37 -37 26 -71 -81 -253 -134 -228 -164 -256 -225 -204 -46 40 -37 67 86 272 61 101 119 189 128 194 28 17 71 12 92 -9z m-5620 -72 c11 -12 20 -34 20 -48 0 -27 -193 -365 -231 -404 -12 -13 -32 -20 -55 -20 -47 0 -78 34 -71 79 5 31 192 350 230 393 27 29 79 30 107 0z m4436 -332 c69 -93 130 -180 135 -193 23 -60 -40 -112 -106 -86 -27 10 -285 361 -285 386 0 29 26 66 54 77 43 16 73 -12 202 -184z m-3723 -93 c196 -105 227 -128 227 -168 0 -34 -42 -75 -76 -75 -30 0 -391 192 -416 222 -24 27 -23 59 3 92 34 43 64 35 262 -71z m-1723 47 c24 -13 39 -59 29 -87 -4 -12 -18 -29 -31 -37 -24 -16 -409 -126 -440 -126 -27 0 -68 45 -68 74 0 55 32 72 240 130 201 57 238 63 270 46z m502 -632 c102 -54 191 -104 196 -111 6 -7 13 -24 17 -39 6 -22 1 -33 -24 -59 -25 -25 -37 -30 -60 -26 -31 6 -375 189 -403 215 -37 32 -18 107 32 125 25 9 47 -1 242 -105z m6102 62 c143 -13 216 -24 232 -35 29 -19 40 -58 25 -91 -21 -47 -42 -49 -281 -27 -240 22 -251 25 -265 85 -6 22 -1 33 23 58 17 16 36 30 44 30 7 0 107 -9 222 -20z m-4434 -65 c36 -19 48 -59 29 -94 -19 -35 -372 -271 -405 -271 -30 0 -74 41 -74 70 0 12 5 30 10 41 12 22 377 269 398 269 7 0 26 -7 42 -15z m-3044 -8 c12 -7 94 -74 183 -150 105 -89 163 -146 167 -163 14 -53 -36 -104 -90 -90 -24 6 -282 217 -338 277 -45 48 -34 111 22 132 23 8 33 7 56 -6z m7654 -617 c28 -28 25 -72 -7 -112 -48 -58 -257 -293 -273 -305 -27 -22 -77 -16 -99 13 -40 51 -36 60 108 224 150 170 182 200 218 200 20 0 41 -8 53 -20z m-947 -82 c23 -23 184 -435 194 -495 4 -25 0 -37 -20 -57 -41 -41 -94 -31 -121 22 -28 54 -176 455 -176 477 0 64 79 97 123 53z m-4224 -98 c10 -5 24 -22 30 -39 10 -24 10 -34 -3 -59 -8 -16 -23 -33 -33 -37 -10 -4 -112 -13 -228 -20 -236 -14 -269 -9 -281 41 -9 37 6 77 36 91 43 20 448 40 479 23z m-921 -96 c27 -30 27 -14 -3 -269 -23 -199 -26 -211 -50 -232 -14 -13 -37 -23 -51 -23 -31 0 -74 42 -74 72 0 71 50 441 61 455 32 38 80 37 117 -3z m-833 -49 c32 -31 33 -74 2 -103 -23 -22 -396 -132 -448 -132 -64 0 -92 93 -39 131 26 19 396 127 438 128 13 1 34 -10 47 -24z m6663 -558 c22 -18 255 -340 265 -368 22 -56 -47 -113 -102 -85 -41 22 -281 353 -281 389 0 71 65 107 118 64z m-7275 -174 c185 -80 201 -89 213 -120 23 -53 -10 -103 -66 -103 -32 0 -414 169 -432 191 -38 45 -4 119 54 119 17 0 121 -39 231 -87z m911 -106 c24 -24 156 -400 156 -445 0 -31 -43 -72 -75 -72 -48 0 -69 37 -139 246 -36 109 -66 209 -66 222 0 31 43 72 75 72 14 0 36 -10 49 -23z m-534 -914 c15 -19 20 -36 16 -55 -7 -36 -222 -374 -249 -393 -30 -21 -67 -18 -94 7 -27 25 -29 57 -8 98 30 58 217 345 233 358 29 22 78 15 102 -15z m430 -615 c268 -75 299 -87 315 -119 13 -25 14 -34 3 -56 -7 -15 -25 -34 -40 -42 -25 -15 -39 -12 -235 44 -166 47 -214 65 -235 86 -16 15 -28 36 -28 46 0 25 28 63 53 72 24 9 26 9 167 -31z m-1043 -237 c75 -61 281 -273 291 -301 19 -52 -32 -109 -85 -95 -33 8 -330 297 -344 334 -18 46 20 98 73 100 9 1 38 -17 65 -38z" id="1"/>
<path d="M5250 8224 c-96 -53 -183 -103 -193 -112 -24 -21 -18 -53 14 -71 25 -14 34 -10 219 89 123 67 196 112 202 126 15 32 -6 64 -40 64 -15 -1 -106 -44 -202 -96z" id="2"/>
<path d="M3971 8282 c-5 -10 -26 -112 -46 -226 -33 -192 -34 -211 -20 -232 18 -28 46 -31 68 -6 18 20 90 422 80 449 -13 36 -65 46 -82 15z" id="3"/>
<path d="M7908 8253 c-8 -10 -61 -95 -118 -190 -81 -136 -101 -178 -96 -197 7 -27 35 -41 64 -32 9 3 68 91 131 196 103 173 113 193 103 215 -14 30 -61 34 -84 8z" id="4"/>
<path d="M2309 8203 c-21 -5 -239 -367 -239 -396 0 -45 52 -64 82 -29 9 9 61 93 117 185 105 175 119 216 82 237 -11 5 -21 9 -23 9 -2 -1 -10 -3 -19 -6z" id="5"/>
<path d="M6606 8024 c-9 -8 -16 -25 -16 -37 1 -26 239 -350 270 -367 17 -9 26 -8 46 5 13 8 24 24 24 34 0 19 -226 333 -262 364 -25 21 -42 22 -62 1z" id="6"/>
<path d="M2868 7852 c-21 -4 -35 -49 -21 -70 14 -23 365 -211 394 -212 53 0 67 56 22 88 -36 25 -324 179 -354 190 -13 5 -32 7 -41 4z" id="7"/>
<path d="M1104 7757 c-100 -29 -189 -58 -198 -66 -32 -27 -14 -81 28 -81 21 0 362 93 408 111 32 13 43 40 28 69 -16 31 -62 25 -266 -33z" id="8"/>
<path d="M1614 7259 c-34 -38 -6 -63 191 -170 99 -54 190 -98 202 -98 46 -2 69 52 36 81 -27 23 -377 208 -395 208 -8 0 -23 -9 -34 -21z" id="9"/>
<path d="M7726 7234 c-21 -20 -20 -47 2 -66 23 -21 435 -58 460 -41 23 14 27 57 7 73 -10 8 -87 20 -203 31 -231 23 -247 23 -266 3z" id="10"/>
<path d="M3325 7074 c-88 -59 -170 -116 -182 -127 -39 -35 -25 -87 23 -87 12 0 102 52 198 116 180 120 204 143 179 183 -23 36 -55 23 -218 -85z" id="11"/>
<path d="M425 7146 c-13 -19 -14 -29 -6 -45 15 -27 305 -274 337 -286 32 -12 58 3 62 37 2 20 -11 38 -70 90 -161 142 -269 228 -288 228 -11 0 -27 -11 -35 -24z" id="12"/>
<path d="M8073 6557 c-41 -22 -293 -317 -293 -343 0 -28 35 -55 61 -46 10 4 82 79 159 166 110 125 140 164 140 187 0 18 -7 32 -19 39 -24 12 -21 12 -48 -3z" id="13"/>
<path d="M7116 6464 c-3 -9 -6 -24 -6 -34 0 -24 155 -436 176 -467 26 -41 84 -24 84 23 0 25 -154 437 -176 472 -17 26 -69 31 -78 6z" id="14"/>
<path d="M2650 6359 c-117 -8 -137 -11 -152 -29 -19 -23 -13 -56 12 -70 17 -9 346 3 427 16 41 6 60 36 44 70 -10 23 -15 24 -103 23 -51 -1 -154 -6 -228 -10z" id="15"/>
<path d="M1966 6278 c-9 -15 -23 -103 -37 -235 -19 -176 -21 -214 -10 -227 19 -23 58 -20 74 7 12 19 57 356 57 424 0 49 -58 70 -84 31z" id="16"/>
<path d="M955 6185 c-138 -39 -194 -59 -207 -75 -24 -30 -10 -64 29 -68 27 -3 366 84 421 108 25 11 31 57 10 78 -19 19 -51 14 -253 -43z" id="17"/>
<path d="M7805 5656 c-9 -14 -13 -31 -8 -42 12 -32 243 -343 263 -354 10 -5 23 -10 29 -10 16 0 41 30 41 50 0 18 -197 297 -248 353 -32 33 -57 34 -77 3z" id="18"/>
<path d="M352 5558 c-19 -19 -14 -56 11 -72 47 -29 376 -166 400 -166 34 0 53 33 39 65 -8 16 -60 43 -200 103 -191 82 -228 92 -250 70z" id="19"/>
<path d="M1442 5388 c-7 -7 -12 -24 -12 -39 0 -30 124 -395 141 -416 26 -30 79 -9 79 32 0 27 -126 403 -141 421 -14 17 -51 18 -67 2z" id="20"/>
<path d="M907 4488 c-9 -7 -66 -91 -127 -187 -89 -140 -110 -180 -108 -205 2 -26 8 -32 31 -34 16 -2 35 2 42 8 27 22 235 357 235 378 0 11 -10 28 -22 36 -27 19 -30 19 -51 4z" id="21"/>
<path d="M1246 3874 c-30 -29 -18 -66 27 -83 55 -21 376 -111 396 -111 22 0 51 25 51 44 0 33 -34 49 -230 106 -113 33 -210 60 -217 60 -6 0 -19 -7 -27 -16z" id="22"/>
<path d="M270 3631 c-5 -11 -10 -26 -10 -33 0 -7 71 -84 158 -171 125 -125 163 -157 184 -157 30 0 53 30 44 58 -4 10 -75 86 -159 170 -120 119 -159 152 -180 152 -16 0 -30 -8 -37 -19z" id="23"/>
<path d="M519 8483 c69 -119 213 -331 234 -343 23 -13 28 -13 46 4 12 11 21 26 21 35 0 9 -40 81 -90 159 -49 79 -90 147 -90 152 0 6 -29 10 -65 10 -60 0 -65 -2 -56 -17z" id="24"/>
<path d="M5542 8018 c-7 -7 -12 -31 -12 -54 0 -63 57 -165 146 -264 79 -88 124 -166 165 -285 l24 -70 3 44 c9 129 -101 414 -225 582 -44 60 -74 74 -101 47z" id="25"/>
<path d="M5792 7958 c-29 -29 -8 -135 63 -316 27 -71 38 -118 46 -200 11 -109 17 -133 36 -139 17 -6 23 50 23 201 -1 216 -37 365 -107 439 -29 30 -43 33 -61 15z" id="26"/>
<path d="M6162 7903 c-20 -69 -40 -187 -52 -299 -6 -60 -19 -147 -29 -192 -18 -81 -15 -94 16 -74 14 9 104 424 111 509 4 48 -9 93 -27 93 -4 0 -13 -17 -19 -37z" id="27"/>
<path d="M4740 7729 c-83 -10 -101 -15 -99 -26 4 -24 -8 -35 -77 -70 -65 -31 -88 -38 -150 -40 -67 -2 -81 -6 -144 -44 -39 -23 -70 -44 -70 -47 0 -3 7 -14 16 -23 11 -12 19 -47 24 -96 7 -69 11 -80 38 -105 39 -34 85 -46 223 -58 119 -11 169 -20 238 -45 37 -13 51 -13 80 -3 72 24 248 8 268 -25 9 -15 -31 -43 -90 -63 -28 -9 -54 -18 -56 -20 -2 -2 15 -31 38 -64 43 -66 64 -125 59 -168 -3 -26 -1 -26 42 -23 25 1 48 5 53 8 11 7 47 -7 47 -18 0 -5 -20 -30 -45 -54 l-44 -45 19 -42 c11 -24 20 -61 20 -84 0 -51 16 -100 46 -140 l23 -31 71 20 c86 26 104 17 72 -35 -12 -19 -30 -43 -42 -53 -27 -25 -25 -39 11 -69 29 -25 262 -166 273 -166 3 0 22 11 42 25 20 14 46 25 56 25 18 0 19 -5 13 -63 l-7 -63 77 -73 77 -73 67 5 c36 2 99 12 140 21 88 20 164 9 210 -30 33 -28 35 -26 76 55 57 115 74 327 36 451 -30 95 -74 153 -247 323 -208 203 -333 371 -414 557 -52 120 -107 225 -133 256 -14 17 -48 42 -75 57 -43 23 -54 26 -79 16 -15 -6 -63 -11 -105 -11 -123 0 -205 49 -176 105 5 10 8 20 6 22 -2 2 -33 9 -68 14 -99 16 -256 21 -340 10z m244 -207 c27 -9 51 -23 54 -30 7 -22 -101 -63 -181 -69 -83 -6 -122 6 -139 42 -12 28 0 51 37 65 36 15 177 10 229 -8z m474 -150 c25 -9 47 -22 49 -29 6 -18 -35 -40 -107 -59 -73 -19 -147 -15 -184 10 -29 19 -34 57 -10 76 38 33 167 33 252 2z m-848 5 c19 -7 35 -18 35 -26 0 -22 -110 -72 -184 -84 -86 -13 -124 2 -129 50 -3 33 10 46 67 64 40 12 172 9 211 -4z m983 -286 c10 -10 5 -19 -23 -42 -102 -86 -256 -117 -279 -56 -17 43 19 74 121 102 61 17 162 15 181 -4z m198 -254 c14 -11 117 -148 161 -216 10 -14 18 -43 18 -64 0 -42 -43 -135 -86 -187 -35 -41 -116 -80 -167 -80 -21 0 -69 -14 -107 -30 -78 -34 -110 -29 -130 19 -13 34 -3 66 38 112 38 45 52 72 52 104 0 35 -13 58 -82 141 -32 39 -58 78 -58 86 0 21 54 66 109 91 76 34 221 48 252 24z m267 -402 c-5 -82 -51 -195 -87 -215 -27 -14 -58 -5 -72 21 -14 27 13 118 53 181 35 55 85 101 100 92 6 -4 9 -35 6 -79z m245 -91 c11 -50 -7 -163 -33 -215 -22 -42 -61 -60 -89 -42 -25 16 -18 120 12 185 28 61 75 120 90 115 6 -2 15 -21 20 -43z" id="28"/>
<path d="M4805 7514 c-11 -3 -30 -7 -42 -10 -29 -6 -30 -30 -1 -45 28 -15 152 -7 198 13 l35 16 -27 10 c-31 13 -134 23 -163 16z" id="29"/>
<path d="M5252 7363 c-13 -3 -26 -12 -29 -20 -10 -25 26 -43 82 -43 56 0 155 25 155 40 0 20 -141 36 -208 23z" id="30"/>
<path d="M4439 7360 c-80 -14 -109 -38 -70 -60 30 -15 82 -12 155 10 65 21 89 37 64 44 -32 10 -107 13 -149 6z" id="31"/>
<path d="M5394 7059 c-68 -21 -94 -43 -76 -61 24 -24 126 -2 198 43 19 11 34 25 34 30 0 16 -92 9 -156 -12z" id="32"/>
<path d="M5688 6776 c-48 -46 -85 -69 -165 -102 -21 -9 -21 -10 22 -67 72 -94 70 -145 -7 -234 -44 -52 -50 -88 -14 -104 19 -9 32 -6 72 14 27 13 76 28 108 32 33 4 70 11 82 16 46 17 101 79 133 149 37 80 35 103 -17 168 -15 19 -47 64 -72 100 -62 90 -74 93 -142 28z m182 -136 c0 -59 -117 -211 -173 -225 -36 -9 -67 10 -67 42 0 48 83 137 164 178 61 30 76 31 76 5z" id="33"/>
<path d="M5766 6589 c-49 -33 -119 -115 -113 -133 15 -46 111 23 161 114 33 60 21 65 -48 19z" id="34"/>
<path d="M5588 6801 c-75 -24 -128 -58 -128 -82 0 -43 112 -12 183 51 61 54 45 63 -55 31z" id="35"/>
<path d="M6003 6448 c-33 -36 -73 -123 -76 -165 -2 -32 1 -38 18 -38 38 0 94 136 83 204 l-3 23 -22 -24z" id="36"/>
<path d="M6245 6316 c-28 -42 -55 -125 -55 -166 0 -34 3 -40 21 -40 28 0 59 73 66 160 6 76 -4 90 -32 46z" id="37"/>
<path d="M4475 7655 l-70 -35 47 5 c42 4 148 47 148 60 0 15 -64 0 -125 -30z" id="38"/>
<path d="M5178 7679 c-26 -14 -22 -27 13 -48 38 -23 116 -34 177 -25 42 6 44 8 26 21 -19 14 -166 63 -187 63 -7 0 -20 -5 -29 -11z" id="39"/>
<path d="M6386 7559 c-53 -13 -168 -74 -198 -107 -14 -15 -28 -42 -32 -61 -6 -33 -6 -33 27 -27 17 4 79 9 137 12 58 4 113 11 123 16 16 8 65 94 87 154 9 24 9 24 -48 23 -31 -1 -74 -5 -96 -10z" id="40"/>
<path d="M5643 7468 c157 -363 254 -509 508 -756 81 -79 160 -162 175 -183 15 -22 29 -37 32 -34 12 12 -84 182 -168 295 -99 134 -131 190 -150 260 -29 108 -92 197 -178 253 -37 24 -100 74 -140 110 -72 67 -89 79 -79 55z" id="41"/>
<path d="M4057 7422 c-82 -67 -167 -170 -167 -202 0 -62 57 -92 245 -130 61 -12 134 -31 163 -42 76 -28 183 -131 221 -212 65 -138 104 -465 72 -606 -18 -77 -91 -222 -152 -303 -28 -37 -115 -134 -193 -215 -232 -242 -263 -317 -182 -436 34 -50 33 -81 -3 -117 l-29 -29 211 0 c328 0 756 24 932 51 112 18 362 76 465 110 95 30 297 123 335 153 19 16 19 16 -10 9 -16 -4 -66 -8 -110 -7 -61 0 -89 5 -120 21 -83 44 -108 90 -129 245 -32 229 -91 331 -297 510 -124 107 -219 263 -219 360 0 42 -16 74 -57 112 l-38 35 3 77 c2 67 -1 86 -23 130 -14 28 -49 74 -78 102 -95 89 -189 124 -387 142 -121 11 -207 31 -247 57 -34 23 -52 63 -60 135 -8 83 -16 98 -56 98 -24 0 -48 -13 -90 -48z" id="42"/>
<path d="M6171 7320 c-78 -21 -181 -64 -181 -76 0 -4 13 -28 30 -55 16 -26 38 -75 49 -109 11 -33 23 -65 26 -70 4 -6 27 8 53 31 85 74 240 146 412 190 42 10 44 12 25 26 -11 8 -49 29 -84 46 -85 40 -218 47 -330 17z" id="43"/>
<path d="M6570 7312 c13 -9 44 -34 68 -54 60 -52 77 -60 118 -52 34 6 34 7 18 26 -35 38 -112 73 -199 92 l-30 6 25 -18z" id="44"/>
<path d="M3799 7112 c-182 -283 -397 -748 -492 -1062 -68 -225 -84 -470 -37 -592 49 -132 132 -219 245 -259 166 -58 453 -77 512 -33 38 28 40 58 7 107 -35 54 -43 129 -20 188 27 68 68 120 214 271 159 166 217 238 271 340 76 142 91 240 66 442 -29 244 -70 355 -160 433 -73 64 -117 82 -266 114 -172 36 -241 65 -264 108 -8 17 -17 31 -18 31 -1 0 -27 -39 -58 -88z" id="45"/>
<path d="M4853 7154 c-31 -7 -28 -15 14 -42 29 -18 44 -22 72 -17 59 11 106 34 94 46 -11 11 -144 21 -180 13z" id="46"/>
<path d="M6305 7101 c-52 -24 -161 -105 -174 -129 -7 -14 -5 -27 9 -50 22 -35 26 -37 67 -21 150 57 416 0 596 -128 27 -19 51 -32 54 -29 9 8 -26 85 -64 143 -80 122 -221 200 -408 227 -28 4 -52 1 -80 -13z" id="47"/>
<path d="M6257 6876 c-60 -16 -73 -28 -52 -46 11 -9 51 -14 123 -15 182 -3 271 -46 388 -187 37 -45 69 -77 72 -70 6 18 -63 154 -107 209 -45 57 -97 83 -213 107 -91 19 -146 19 -211 2z" id="48"/>
<path d="M5072 6780 c-43 -10 -46 -14 -32 -39 14 -27 22 -26 59 5 49 41 42 50 -27 34z" id="49"/>
<path d="M6260 6770 c0 -27 68 -98 147 -155 86 -61 118 -96 162 -180 l22 -40 -7 45 c-19 134 -66 214 -177 301 -42 33 -56 39 -98 39 -27 0 -49 -5 -49 -10z" id="50"/>
<path d="M5270 6398 c-47 -13 -52 -20 -34 -47 l16 -22 25 23 c27 25 48 59 36 57 -4 0 -24 -5 -43 -11z" id="51"/>
<path d="M5470 6115 c0 -3 15 -26 34 -52 74 -105 109 -199 131 -356 15 -113 28 -148 67 -184 74 -69 223 -70 365 -2 66 31 176 144 198 203 17 44 17 49 1 82 -19 40 -80 73 -137 74 -19 0 -69 -9 -110 -20 -83 -22 -144 -25 -186 -9 -15 5 -62 43 -103 83 -41 40 -95 87 -120 103 -66 43 -140 85 -140 78z" id="52"/>
<path d="M5640 6101 c-25 -21 -25 -21 -5 -36 17 -14 20 -14 28 0 4 9 7 25 5 37 l-3 20 -25 -21z" id="53"/>
<path d="M3025 5856 c-285 -96 -461 -180 -610 -291 -147 -110 -212 -197 -236 -316 -21 -105 18 -205 130 -329 l41 -45 18 23 c40 51 135 36 377 -60 312 -125 595 -202 804 -219 173 -15 597 -6 701 15 41 8 139 37 218 65 180 64 239 71 385 42 59 -12 122 -21 140 -21 18 0 97 18 177 41 272 76 368 55 388 -88 l8 -48 18 45 c29 73 32 139 7 194 l-21 48 -32 -20 c-46 -28 -125 -50 -227 -62 -47 -6 -143 -22 -214 -36 -167 -32 -213 -31 -333 7 -85 26 -114 31 -201 30 -56 0 -157 -7 -225 -16 -160 -20 -348 -19 -446 1 -178 37 -337 123 -484 262 -117 111 -148 159 -148 227 0 32 -10 75 -25 113 -40 99 -51 193 -37 327 7 63 17 126 22 140 8 22 7 25 -13 25 -12 0 -94 -24 -182 -54z" id="54"/>
<path d="M6328 5845 c-26 -35 -23 -43 25 -55 173 -44 495 -190 652 -295 85 -57 175 -143 217 -208 62 -97 86 -249 53 -342 -13 -37 -13 -43 7 -85 l22 -44 12 29 c46 109 44 292 -4 422 -53 143 -120 220 -297 338 -155 104 -329 182 -536 240 -108 31 -129 31 -151 0z" id="55"/>
<path d="M6314 5753 c-23 -72 -47 -106 -136 -194 -83 -82 -95 -99 -83 -109 9 -7 15 -29 15 -52 0 -66 -59 -164 -168 -280 -69 -73 -125 -112 -179 -123 -18 -4 -33 -12 -33 -19 0 -6 23 -29 50 -49 49 -37 61 -62 39 -84 -6 -6 -17 -44 -24 -85 -14 -81 -43 -160 -118 -318 -100 -214 -65 -315 123 -350 76 -14 136 -4 196 35 76 50 125 72 247 116 234 83 501 233 694 390 108 89 282 257 299 291 25 49 34 121 23 190 -31 193 -154 313 -499 486 -107 54 -238 112 -290 129 -139 45 -149 47 -156 26z" id="56"/>
<path d="M6025 5434 c-11 -8 -27 -19 -35 -24 -12 -7 -10 -12 12 -29 19 -15 28 -33 30 -59 l3 -37 23 42 c26 50 29 108 6 117 -19 7 -15 8 -39 -10z" id="57"/>
<path d="M5910 5360 c-35 -23 -232 -101 -315 -125 -135 -39 -378 -92 -485 -105 -164 -20 -250 -61 -250 -119 0 -87 183 -150 396 -137 170 10 252 35 304 91 33 37 96 64 145 65 73 0 110 18 183 85 69 64 104 118 117 182 11 53 -49 93 -95 63z m-171 -154 c29 -35 -107 -130 -249 -175 -145 -45 -316 -50 -359 -10 -26 24 -26 34 -2 58 13 13 46 22 107 30 159 22 253 41 362 76 124 39 126 40 141 21z" id="58"/>
<path d="M5610 5161 c-108 -36 -206 -58 -343 -75 -113 -14 -141 -26 -118 -48 18 -19 211 -15 291 6 104 27 270 111 270 137 0 13 -5 12 -100 -20z" id="59"/>
<path d="M7313 5345 c3 -11 18 -54 33 -95 51 -144 43 -313 -21 -446 -15 -30 -25 -69 -25 -95 0 -55 -28 -311 -35 -318 -3 -2 -21 3 -40 12 -64 31 -81 24 -231 -85 -105 -77 -268 -156 -444 -217 -80 -27 -176 -61 -215 -76 -66 -26 -79 -28 -255 -29 l-185 -1 -80 -35 c-74 -32 -87 -35 -185 -35 -99 0 -108 2 -162 31 l-57 31 -118 -14 c-166 -20 -819 -29 -1053 -14 -364 23 -571 55 -842 132 -313 88 -550 204 -689 336 l-56 53 -5 -67 c-4 -49 -21 -108 -61 -213 -76 -200 -91 -276 -83 -409 3 -63 2 -121 -4 -143 -22 -77 -95 -130 -200 -145 l-55 -8 40 -19 c50 -24 132 -32 177 -17 19 6 54 28 77 47 l41 36 0 111 c0 130 14 171 79 236 81 81 177 111 354 111 152 0 311 -31 531 -104 202 -67 374 -145 658 -298 272 -146 364 -206 446 -291 89 -94 113 -152 123 -297 9 -140 27 -194 86 -260 51 -57 113 -92 191 -109 123 -26 210 -4 287 73 89 89 115 203 78 340 -50 187 5 406 136 536 152 152 310 148 470 -12 169 -169 209 -294 217 -683 6 -280 19 -369 71 -474 49 -101 143 -195 245 -246 65 -31 86 -37 145 -37 49 -1 81 5 113 20 l45 20 -45 1 c-112 3 -230 101 -305 255 -54 110 -62 156 -75 441 -5 118 -18 269 -30 345 -49 306 -2 521 137 626 23 17 81 46 130 63 49 18 129 59 181 93 138 89 227 115 299 87 73 -28 112 -99 113 -207 0 -40 4 -71 9 -68 16 10 40 121 51 236 21 222 52 280 182 345 110 55 126 141 54 304 -42 96 -52 135 -72 289 -8 63 -24 138 -35 168 -22 59 -85 159 -120 189 -22 20 -22 20 -16 0z m121 -741 c27 -10 20 -35 -8 -28 -22 5 -24 2 -31 -42 -8 -58 -14 -74 -27 -74 -7 0 -8 21 -3 58 11 86 24 103 69 86z m-2809 -1140 c53 -36 68 -54 43 -54 -19 0 -107 64 -108 78 0 18 4 16 65 -24z m220 -175 c54 -60 67 -100 76 -231 8 -124 21 -162 64 -196 30 -24 32 -32 7 -32 -20 0 -52 31 -73 70 -7 14 -16 77 -20 141 -8 128 -22 171 -74 235 -19 23 -35 45 -35 48 0 16 21 2 55 -35z m1505 -597 c0 -60 20 -135 54 -214 6 -13 4 -18 -7 -18 -16 0 -50 77 -67 150 -11 51 -13 143 -4 153 16 15 24 -9 24 -71z m160 -352 c32 -27 33 -29 13 -30 -23 0 -63 32 -63 50 0 16 13 11 50 -20z" id="60"/>
<path d="M2123 5256 c-40 -66 -79 -181 -94 -277 -16 -100 -6 -353 21 -554 19 -140 20 -173 11 -265 -16 -157 -14 -182 29 -345 48 -177 73 -232 119 -262 82 -55 230 -1 262 95 7 22 9 69 5 136 -8 122 6 206 59 351 20 55 48 129 61 165 41 113 29 238 -33 331 -13 20 -61 70 -106 110 -124 112 -243 244 -272 304 -33 66 -43 133 -33 204 5 29 7 55 5 57 -1 2 -17 -21 -34 -50z" id="61"/>
<path d="M3290 5294 c0 -51 94 -146 198 -198 132 -66 191 -78 442 -85 151 -4 232 -11 248 -19 31 -18 28 -52 -8 -97 -17 -21 -27 -42 -23 -46 5 -4 85 1 178 12 248 27 316 26 438 -12 92 -29 109 -31 196 -26 53 3 106 9 119 14 20 7 14 11 -39 22 -119 24 -209 89 -209 151 0 19 12 43 32 66 l33 37 -60 -6 c-122 -14 -705 -29 -855 -22 -85 3 -213 15 -283 26 -200 32 -287 68 -365 153 -24 27 -42 39 -42 30z" id="62"/>
<path d="M3530 5020 c79 -58 222 -126 314 -150 43 -11 119 -22 170 -25 l91 -6 33 52 c17 28 32 57 32 64 0 23 -59 29 -226 27 -174 -3 -260 9 -384 54 -37 13 -71 24 -76 24 -5 0 16 -18 46 -40z" id="63"/>
<path d="M5654 4983 c-12 -2 -32 -15 -45 -29 l-23 -24 24 -42 c18 -32 24 -57 23 -103 -1 -125 -62 -226 -259 -421 -118 -118 -149 -155 -190 -229 -40 -72 -58 -94 -97 -118 -26 -17 -46 -32 -44 -34 4 -3 198 12 295 23 l52 6 0 52 c0 75 33 134 156 279 60 71 121 149 136 175 32 55 88 219 88 257 0 14 7 42 15 62 l16 37 -45 38 c-25 21 -48 47 -51 58 -6 20 -11 21 -51 13z" id="64"/>
<path d="M2397 4893 c-21 -21 -3 -56 60 -115 106 -100 122 -119 161 -193 65 -123 180 -219 377 -315 256 -123 594 -218 910 -254 329 -38 860 -57 985 -36 88 15 168 43 204 71 22 17 66 86 66 103 0 2 -26 -9 -57 -24 -98 -49 -164 -62 -338 -67 -171 -6 -539 16 -725 43 -253 36 -479 110 -563 184 -30 26 -37 39 -37 69 0 93 104 162 325 215 6 2 -44 6 -110 10 -66 4 -156 11 -200 17 -164 21 -444 103 -700 204 -88 35 -187 71 -220 80 -62 16 -127 20 -138 8z" id="65"/>
<path d="M7134 4774 c-254 -246 -547 -436 -829 -539 -172 -62 -203 -76 -278 -124 -67 -43 -77 -46 -148 -50 -202 -9 -319 98 -280 255 7 26 10 48 8 51 -7 7 -145 -165 -166 -206 -66 -129 -6 -201 174 -209 85 -3 96 -1 190 34 l100 38 185 1 185 1 85 36 c47 19 137 52 200 73 195 64 309 123 464 237 87 64 139 84 181 68 14 -5 30 -10 34 -10 11 0 31 198 31 308 0 87 -10 132 -29 132 -4 0 -52 -43 -107 -96z" id="66"/>
<path d="M5330 4773 c-14 -2 -83 -21 -155 -41 -146 -41 -212 -44 -333 -18 -137 30 -207 20 -405 -54 -115 -43 -206 -61 -442 -85 -313 -33 -475 -88 -521 -177 -34 -66 16 -111 193 -175 186 -66 336 -93 673 -119 296 -23 503 -23 605 0 147 33 193 62 363 230 126 124 159 162 187 220 82 163 17 249 -165 219z" id="67"/>
<path d="M8033 4108 c-44 -50 -233 -343 -233 -363 0 -47 52 -61 87 -22 48 53 233 339 233 360 0 49 -52 63 -87 25z" id="68"/>
<path d="M6990 4051 c-25 -9 -81 -41 -124 -70 -74 -50 -114 -69 -240 -116 -28 -10 -70 -36 -94 -59 -119 -109 -151 -301 -102 -606 13 -80 25 -222 30 -350 11 -259 18 -302 69 -405 90 -181 228 -270 344 -221 55 23 113 96 136 171 31 101 27 172 -20 359 -66 262 -64 425 8 603 14 36 67 127 118 203 103 155 120 200 119 320 -1 88 -27 151 -74 175 -38 20 -114 18 -170 -4z" id="69"/>
<path d="M2865 3941 c-36 -8 -38 24 14 -351 46 -329 72 -489 135 -824 47 -251 50 -256 116 -256 l37 0 -28 160 c-36 205 -71 497 -109 920 -17 184 -32 341 -35 348 -5 13 -77 15 -130 3z" id="70"/>
<path d="M3034 3929 c3 -13 17 -152 31 -309 43 -485 88 -850 128 -1041 12 -56 20 -72 60 -112 26 -25 56 -51 67 -57 25 -14 25 -13 0 160 -28 195 -57 488 -75 775 -32 516 -36 570 -48 582 -7 7 -47 15 -90 19 l-78 7 5 -24z" id="71"/>
<path d="M2736 3889 c-68 -45 -70 -55 -51 -195 32 -239 161 -931 191 -1026 10 -34 35 -48 81 -48 l46 0 -6 33 c-3 17 -26 142 -51 277 -25 135 -69 409 -97 610 -28 201 -54 368 -58 373 -4 4 -29 -7 -55 -24z" id="72"/>
<path d="M3250 3898 c0 -42 39 -671 50 -803 25 -308 73 -670 92 -692 11 -14 64 -18 72 -5 2 4 -4 95 -14 202 -24 249 -47 575 -60 855 -6 121 -13 270 -16 331 l-6 111 -50 11 c-66 16 -68 16 -68 -10z" id="73"/>
<path d="M7335 3863 c-3 -16 -20 -58 -35 -94 -16 -36 -72 -238 -124 -450 -53 -211 -105 -421 -118 -466 l-22 -83 22 -88 c48 -192 11 -359 -105 -483 -40 -43 -147 -109 -177 -109 -7 0 -20 -14 -30 -30 -29 -51 -156 -169 -241 -225 -87 -57 -155 -94 -237 -126 -29 -11 -94 -40 -144 -65 -50 -24 -165 -69 -255 -98 -435 -144 -907 -226 -1481 -257 -554 -30 -1450 51 -1929 175 -525 136 -996 345 -1197 531 -110 102 -153 183 -153 288 0 88 35 153 134 252 203 203 567 370 1065 486 78 19 142 39 142 45 0 6 -22 82 -49 168 l-48 158 -70 34 c-78 37 -129 87 -168 163 l-25 50 -62 -24 c-155 -58 -629 -241 -1163 -448 -319 -123 -644 -248 -722 -277 l-143 -53 0 -582 0 -582 72 -33 c390 -176 671 -300 1183 -520 726 -312 845 -365 1325 -587 206 -95 379 -173 384 -173 5 0 63 56 130 125 130 134 145 143 190 103 52 -47 40 -80 -70 -197 -53 -56 -94 -104 -92 -107 3 -2 135 -63 294 -135 159 -72 293 -135 298 -140 12 -11 1833 -12 1838 -1 2 4 86 68 188 142 102 73 187 135 189 136 2 2 8 54 13 116 10 120 23 153 64 168 57 22 107 -35 97 -112 -3 -21 -3 -38 1 -38 4 0 222 159 484 352 262 194 612 451 777 570 165 120 312 228 327 241 l27 22 -66 114 c-40 68 -66 125 -66 142 0 40 29 69 70 69 44 0 66 -23 128 -134 28 -49 55 -91 62 -93 6 -3 117 69 246 160 129 90 274 188 321 218 l85 54 1 760 0 761 -167 37 c-93 21 -215 47 -273 58 l-105 20 -15 -23 c-28 -44 -69 -78 -92 -78 -54 0 -93 64 -68 110 6 12 10 24 7 26 -5 6 -405 84 -428 84 -10 0 -20 -11 -24 -27z m647 -1006 c167 -81 196 -98 207 -124 21 -51 -13 -103 -68 -103 -29 0 -403 178 -423 202 -24 27 -23 73 2 98 36 36 76 26 282 -73z m-7108 -788 c36 -28 36 -76 -1 -111 -16 -14 -102 -79 -193 -143 -145 -103 -168 -116 -195 -111 -60 12 -83 71 -45 119 31 39 360 267 385 267 12 0 34 -9 49 -21z m6076 -469 c172 -34 198 -42 218 -65 25 -29 27 -43 11 -79 -23 -50 -46 -50 -284 -2 -181 37 -223 49 -237 67 -19 22 -23 55 -12 84 9 21 62 45 89 39 11 -2 108 -22 215 -44z m-814 -353 c29 -17 294 -317 305 -345 20 -52 -45 -117 -94 -95 -29 14 -308 323 -320 355 -10 27 -1 53 26 78 24 23 52 25 83 7z m-3713 -88 c30 -23 33 -32 82 -259 41 -193 42 -216 13 -247 -42 -45 -110 -21 -127 45 -22 83 -82 376 -83 405 -1 21 7 37 26 54 33 28 56 29 89 2z m3022 -55 c8 -4 23 -20 31 -36 17 -34 18 -32 -67 -301 -53 -167 -71 -197 -121 -197 -47 0 -74 38 -68 95 2 22 91 313 116 382 21 57 58 76 109 57z m-1516 -71 c28 -24 181 -393 181 -437 0 -25 -7 -40 -26 -55 -67 -52 -94 -22 -192 211 -44 106 -82 200 -83 208 -4 33 2 50 23 70 27 25 69 26 97 3z m837 -667 c121 -40 209 -75 220 -87 27 -30 22 -78 -10 -106 -15 -12 -33 -23 -41 -23 -17 0 -392 128 -427 146 -53 27 -50 106 5 129 18 8 37 13 42 11 6 -2 101 -33 211 -70z" id="74"/>
<path d="M7728 2919 c-21 -12 -24 -62 -5 -77 28 -22 379 -182 401 -182 32 0 50 24 42 56 -6 22 -35 39 -192 115 -203 98 -221 104 -246 88z" id="75"/>
<path d="M635 1940 c-173 -122 -201 -152 -179 -188 24 -38 55 -25 229 98 169 121 195 143 195 166 0 20 -29 44 -53 44 -12 0 -98 -54 -192 -120z" id="76"/>
<path d="M6688 1609 c-21 -12 -24 -62 -5 -77 6 -5 106 -29 221 -52 164 -33 214 -39 233 -31 28 13 31 51 6 74 -11 9 -103 32 -223 56 -232 46 -210 44 -232 30z" id="77"/>
<path d="M6060 1211 c-5 -11 -10 -26 -10 -33 0 -13 268 -323 294 -340 30 -20 76 5 76 42 0 16 -231 289 -282 333 -27 23 -65 22 -78 -2z" id="78"/>
<path d="M2346 1134 c-9 -8 -16 -19 -16 -24 0 -28 93 -426 102 -437 6 -8 25 -13 42 -11 28 3 31 7 34 40 2 20 -15 121 -37 223 -23 102 -41 187 -41 189 0 12 -34 36 -50 36 -10 0 -26 -7 -34 -16z" id="79"/>
<path d="M5371 1063 c-5 -10 -37 -108 -71 -217 -68 -221 -69 -246 -10 -246 39 0 43 10 115 243 48 158 56 192 47 213 -14 30 -66 34 -81 7z" id="80"/>
<path d="M3839 997 c-9 -20 2 -53 71 -218 83 -198 101 -229 130 -229 19 0 50 30 50 49 0 15 -159 392 -172 409 -18 21 -67 15 -79 -11z" id="81"/>
<path d="M4518 399 c-26 -15 -23 -65 3 -80 54 -28 406 -140 426 -134 32 8 41 51 17 75 -18 16 -391 150 -417 150 -7 0 -20 -5 -29 -11z" id="82"/>
<path d="M3414 3723 c17 -398 47 -855 76 -1163 18 -179 11 -165 85 -185 35 -9 85 -30 111 -47 l46 -29 -6 43 c-3 24 -11 174 -16 333 -19 521 -49 1118 -57 1126 -10 9 -215 79 -233 79 -10 0 -11 -33 -6 -157z" id="83"/>
<path d="M3700 3768 c0 -7 9 -204 20 -438 10 -234 24 -553 30 -709 11 -297 16 -340 34 -347 6 -2 34 2 61 9 l50 12 -3 95 c-2 52 -12 352 -22 665 -11 314 -20 591 -20 617 l0 47 -54 24 c-78 36 -96 41 -96 25z" id="84"/>
<path d="M2631 3641 l-1 -114 -46 -46 -47 -46 33 -140 c41 -179 126 -478 146 -517 17 -32 97 -75 102 -54 1 7 -24 147 -57 311 -33 165 -71 377 -86 470 -39 258 -42 270 -44 136z" id="85"/>
<path d="M3890 3623 c0 -43 9 -328 20 -633 11 -305 20 -585 20 -622 l0 -68 58 0 c31 -1 81 -9 110 -19 29 -10 54 -15 56 -12 3 5 -26 978 -36 1241 l-3 75 -112 58 -113 58 0 -78z" id="86"/>
<path d="M5738 3638 c-14 -11 -28 -122 -87 -710 -39 -383 -71 -703 -71 -711 0 -13 8 -13 58 5 44 16 72 19 124 15 66 -6 67 -5 72 21 11 50 176 1209 176 1232 0 28 -67 92 -130 124 -59 31 -120 41 -142 24z" id="87"/>
<path d="M5634 3592 c-81 -59 -139 -151 -169 -267 -20 -80 -19 -163 5 -263 26 -108 25 -158 -4 -245 -20 -61 -26 -113 -41 -344 -9 -150 -18 -280 -19 -290 -1 -15 8 -19 49 -21 30 -2 57 2 67 10 14 11 28 129 88 721 39 389 70 712 68 718 -2 6 -22 -3 -44 -19z" id="88"/>
<path d="M7141 3518 c-110 -164 -151 -284 -151 -441 0 -111 18 -228 32 -203 13 23 179 696 176 712 -2 7 -27 -23 -57 -68z" id="89"/>
<path d="M4160 3503 c0 -32 7 -330 17 -662 14 -478 20 -607 31 -617 17 -18 73 -18 96 -1 17 12 17 40 1 637 -9 344 -20 628 -23 631 -4 3 -33 21 -64 38 l-58 32 0 -58z" id="90"/>
<path d="M6036 3448 c-7 -28 -176 -1205 -176 -1220 0 -17 90 -2 111 18 14 15 27 71 54 244 20 124 56 346 81 494 38 231 43 274 33 305 -15 47 -57 130 -80 159 l-18 24 -5 -24z" id="91"/>
<path d="M4330 3353 c1 -80 28 -1082 30 -1089 0 -1 24 -1 53 -1 38 1 66 -7 105 -27 30 -15 56 -25 59 -22 3 2 1 250 -3 550 -9 526 -10 546 -29 565 -23 23 -194 131 -207 131 -4 0 -8 -48 -8 -107z" id="92"/>
<path d="M2440 3405 c-36 -10 -44 -16 -42 -31 7 -36 134 -428 150 -463 12 -25 28 -40 55 -50 20 -7 39 -12 42 -10 2 3 -12 58 -31 124 -19 66 -51 185 -70 265 -42 174 -43 180 -52 179 -4 -1 -27 -7 -52 -14z" id="93"/>
<path d="M4608 2973 c2 -164 7 -410 10 -548 l7 -250 51 -3 52 -3 7 153 c11 262 -1 584 -31 795 -5 31 -79 153 -93 153 -5 0 -6 -134 -3 -297z" id="94"/>
<path d="M6101 2717 c-34 -210 -64 -391 -66 -402 -4 -19 1 -20 95 -20 l98 0 11 55 c10 49 8 64 -14 133 -33 103 -45 216 -45 429 0 97 -4 179 -9 182 -4 3 -36 -166 -70 -377z" id="95"/>
<path d="M2270 2974 c-497 -126 -839 -287 -1020 -480 -147 -158 -142 -297 19 -454 201 -197 651 -398 1206 -540 512 -131 1409 -207 1990 -170 440 29 877 99 1216 196 120 34 169 54 99 40 -331 -65 -803 -92 -1150 -66 -372 28 -749 118 -1051 250 -136 60 -411 204 -505 265 -107 70 -215 172 -277 264 -84 124 -201 383 -301 664 -16 42 -33 77 -40 76 -6 0 -90 -20 -186 -45z" id="96"/>
<path d="M2585 2813 c24 -99 242 -555 245 -513 0 3 -16 43 -35 88 -32 77 -63 169 -115 350 -19 66 -25 75 -55 88 -46 19 -48 18 -40 -13z" id="97"/>
<path d="M4776 2581 c-3 -90 -6 -215 -6 -278 l0 -113 48 0 c27 0 71 -7 97 -15 27 -8 50 -13 51 -12 2 1 6 99 10 218 l7 215 -57 29 c-31 16 -76 49 -100 75 l-43 46 -7 -165z" id="98"/>
<path d="M2730 2707 c0 -23 61 -210 96 -296 59 -141 171 -318 190 -298 3 3 -11 37 -31 77 -46 91 -100 252 -128 382 l-22 102 -53 23 c-37 16 -52 19 -52 10z" id="99"/>
<path d="M5365 2663 c-48 -42 -102 -71 -152 -81 l-38 -8 -6 -64 c-4 -36 -10 -125 -14 -198 l-7 -132 27 10 c35 13 95 13 150 -2 24 -7 46 -10 49 -7 6 6 38 473 34 497 -3 18 -7 17 -43 -15z" id="100"/>
<path d="M2890 2594 c0 -18 45 -176 71 -251 59 -166 128 -280 198 -324 25 -16 51 -29 56 -29 6 0 -17 55 -50 123 -67 134 -107 247 -135 376 -10 46 -22 87 -27 91 -10 9 -113 21 -113 14z" id="101"/>
<path d="M5005 2447 c-4 -78 -5 -178 -3 -222 l3 -80 35 -3 c65 -5 68 1 81 226 7 111 10 204 8 206 -2 2 -29 6 -61 9 l-56 5 -7 -141z" id="102"/>
<path d="M3070 2475 c0 -37 76 -243 131 -353 61 -122 121 -202 152 -202 14 0 10 12 -17 63 -41 73 -104 254 -136 387 -12 52 -25 98 -29 101 -3 4 -27 9 -53 13 -38 4 -48 3 -48 -9z" id="103"/>
<path d="M3220 2449 c0 -22 56 -221 86 -302 56 -159 118 -258 176 -288 22 -11 42 -18 44 -16 3 2 -4 20 -15 38 -40 69 -83 187 -121 334 -35 138 -40 151 -67 164 -15 7 -45 30 -65 49 -25 24 -38 31 -38 21z" id="104"/>
<path d="M3400 2346 c0 -42 57 -249 95 -342 35 -88 100 -194 123 -202 6 -2 -4 29 -22 70 -52 112 -94 257 -106 360 -16 141 -15 138 -55 138 -30 0 -35 -3 -35 -24z" id="105"/>
<path d="M3514 2329 c3 -19 10 -69 16 -113 17 -129 71 -291 133 -393 27 -46 39 -56 94 -78 70 -28 97 -32 89 -12 -45 110 -106 380 -106 472 0 21 -9 45 -25 64 -29 34 -110 75 -168 86 l-38 7 5 -33z" id="106"/>
<path d="M6267 2345 c-14 -36 -8 -55 18 -55 29 0 32 16 6 49 -16 21 -19 21 -24 6z" id="107"/>
<path d="M3943 2154 c7 -130 25 -242 57 -363 30 -110 49 -137 100 -146 23 -4 44 -5 47 -2 14 15 24 248 16 406 l-8 175 -34 20 c-22 12 -59 21 -109 24 l-75 5 6 -119z" id="108"/>
<path d="M6050 2258 c-22 -12 -27 -28 -56 -185 -18 -95 -44 -218 -59 -275 -44 -165 -47 -149 21 -133 33 7 70 18 84 23 30 11 67 81 99 184 26 85 84 379 76 387 -13 12 -140 12 -165 -1z" id="109"/>
<path d="M6288 2263 c-43 -5 -39 3 -68 -153 -29 -159 -65 -290 -95 -350 -23 -45 -24 -50 -8 -50 81 0 162 157 218 423 25 117 25 139 2 135 -7 -1 -29 -3 -49 -5z" id="110"/>
<path d="M3815 2251 l-40 -6 3 -45 c10 -147 63 -368 110 -455 22 -40 35 -53 66 -63 45 -14 52 -11 37 16 -34 63 -91 382 -91 508 0 60 3 58 -85 45z" id="111"/>
<path d="M4378 2233 c-16 -4 -18 -22 -18 -206 0 -209 9 -309 36 -388 16 -51 32 -59 119 -59 l43 0 11 63 c15 81 24 384 14 467 l-8 65 -64 33 c-60 30 -92 36 -133 25z" id="112"/>
<path d="M5692 2208 c-24 -4 -60 -15 -80 -25 l-37 -18 -22 -160 c-22 -152 -35 -396 -22 -409 3 -3 46 0 95 7 87 12 89 13 105 47 9 19 24 67 32 105 20 91 62 433 54 441 -13 13 -83 20 -125 12z" id="113"/>
<path d="M6380 2162 c-32 -158 -82 -318 -116 -370 -9 -13 -13 -26 -10 -29 3 -3 33 8 68 24 51 24 71 40 101 84 66 96 128 259 98 259 -5 0 -36 20 -69 45 l-61 44 -11 -57z" id="114"/>
<path d="M5945 2200 c-11 -5 -37 -9 -57 -9 -22 -1 -38 -6 -38 -12 0 -47 -55 -408 -70 -467 -24 -88 -25 -82 3 -82 66 1 77 19 126 215 15 62 71 345 71 362 0 5 -13 2 -35 -7z" id="115"/>
<path d="M4290 2188 c-14 -5 -40 -7 -57 -3 l-33 6 -2 -246 c-1 -135 -2 -262 -2 -282 l-1 -38 65 -12 c36 -7 75 -12 87 -13 22 0 22 1 8 41 -20 56 -37 248 -30 339 3 41 2 107 -2 146 -8 71 -8 71 -33 62z" id="116"/>
<path d="M4798 2162 l-28 -3 0 -187 c0 -181 13 -342 31 -389 8 -20 15 -23 68 -23 l60 0 10 53 c14 68 31 297 31 419 l0 96 -47 15 c-58 19 -89 23 -125 19z" id="117"/>
<path d="M5164 2156 c-18 -14 -19 -28 -19 -223 0 -208 13 -322 39 -359 10 -13 22 -15 59 -10 l46 7 20 87 c21 90 46 268 57 408 l7 81 -46 11 c-63 16 -139 15 -163 -2z" id="118"/>
<path d="M4617 1893 c-3 -137 -9 -264 -12 -285 l-7 -36 76 -7 c43 -4 79 -5 83 -2 3 3 0 34 -6 69 -7 35 -15 163 -18 286 l-6 222 -52 0 -53 0 -5 -247z" id="119"/>
<path d="M5458 2133 l-56 -4 -7 -62 c-3 -34 -13 -118 -21 -187 -14 -108 -22 -157 -51 -288 l-6 -24 79 7 c44 4 82 9 87 12 4 2 7 55 7 117 0 62 9 180 20 261 22 165 23 176 13 173 -5 -1 -33 -3 -65 -5z" id="120"/>
<path d="M4996 1950 c-7 -155 -18 -282 -32 -357 l-6 -33 92 0 92 0 -6 28 c-24 105 -29 169 -30 338 l-1 191 -51 -1 -52 0 -6 -166z" id="121"/>
<path d="M6545 2058 c-10 -29 -35 -86 -56 -125 -21 -40 -35 -73 -30 -73 19 0 112 71 185 140 l79 75 -59 11 c-33 6 -69 14 -81 18 -19 6 -23 1 -38 -46z" id="122"/>
<path d="M8195 1889 c-159 -111 -298 -209 -309 -219 -18 -17 -17 -20 18 -82 42 -76 45 -100 11 -133 -49 -50 -108 -22 -153 72 -9 18 -20 33 -26 33 -12 0 -502 -357 -1187 -862 l-456 -338 -8 -102 c-11 -157 -20 -199 -45 -220 -30 -24 -75 -23 -101 3 -19 19 -21 30 -17 105 2 46 2 84 -2 84 -3 0 -77 -52 -164 -115 l-159 -115 1452 0 1451 0 0 193 0 193 -167 89 c-92 50 -175 98 -185 108 -28 27 -24 81 8 106 15 12 36 21 47 21 18 0 138 -60 255 -127 l42 -25 0 766 c0 421 -3 766 -7 766 -5 0 -138 -91 -298 -201z m-865 -1154 c32 -17 45 -45 36 -81 -7 -27 -276 -331 -310 -351 -30 -18 -50 -16 -80 8 -36 28 -35 75 2 121 67 84 269 301 287 309 28 11 33 11 65 -6z" id="123"/>
<path d="M7273 713 c-15 -6 -263 -278 -287 -315 -17 -26 -17 -30 -2 -53 18 -27 43 -32 69 -12 9 6 77 80 151 162 103 114 135 157 136 177 0 35 -33 56 -67 41z" id="124"/>
<path d="M7630 1890 c-11 -11 -20 -26 -20 -32 0 -7 49 -98 109 -203 95 -167 111 -190 135 -193 32 -4 56 13 56 40 0 27 -198 375 -223 393 -28 19 -33 19 -57 -5z" id="125"/>
<path d="M0 810 l0 -810 1813 1 c1402 0 1806 3 1787 12 -14 7 -135 62 -270 123 l-245 112 -47 -44 c-63 -59 -114 -60 -143 -3 -16 30 -8 68 22 101 15 16 11 20 -48 47 -35 15 -188 86 -339 156 -398 185 -669 305 -1260 558 -569 244 -773 333 -1035 452 -93 42 -185 84 -202 91 l-33 14 0 -810z m609 96 c22 -12 46 -54 119 -213 51 -109 92 -210 92 -224 0 -67 -78 -97 -124 -48 -28 28 -196 390 -196 420 0 22 50 79 70 79 6 0 23 -6 39 -14z m985 -337 c31 -24 35 -72 9 -109 -33 -47 -236 -295 -260 -318 -30 -28 -62 -28 -97 -1 -19 15 -26 30 -26 54 0 28 22 61 138 204 163 201 180 214 236 170z" id="126"/>
<path d="M546 874 c-9 -8 -16 -25 -16 -37 1 -26 159 -369 183 -397 23 -27 53 -25 73 5 16 24 14 30 -77 225 -101 218 -122 245 -163 204z" id="127"/>
<path d="M1381 385 c-78 -96 -141 -182 -141 -189 0 -22 29 -46 55 -46 19 0 52 34 153 158 161 197 167 206 136 236 -37 38 -56 23 -203 -159z" id="128"/>
<path d="M8166 659 c-27 -39 -7 -58 155 -147 85 -46 160 -86 167 -89 9 -4 12 11 12 56 0 34 -4 61 -9 61 -5 0 -67 31 -138 70 -70 38 -138 70 -150 70 -12 0 -29 -10 -37 -21z" id="129"/>
<path d="M3126 483 c-161 -170 -216 -232 -216 -243 0 -28 22 -50 49 -50 24 0 52 24 168 146 170 179 180 195 147 228 -30 31 -54 18 -148 -81z" id="130"/>
<path d="M5997 532 c-12 -13 -21 -68 -35 -227 -11 -116 -16 -220 -11 -231 10 -29 44 -36 70 -16 18 15 22 41 39 227 11 116 20 213 20 218 0 12 -39 47 -53 47 -8 0 -21 -8 -30 -18z" id="131"/>
</g>
</svg>