<?xml version="1.0" ?><!DOCTYPE svg  PUBLIC '-//W3C//DTD SVG 20010904//EN'  'http://www.w3.org/TR/2001/REC-SVG-20010904/DTD/svg10.dtd'><svg height="850.000000pt" preserveAspectRatio="xMidYMid meet" version="1.0" viewBox="0 0 850.000000 850.000000" width="850.000000pt" xmlns="http://www.w3.org/2000/svg">
<metadata>
Created by potrace 1.14, written by Peter Selinger 2001-2017
</metadata>
<g fill="#ffffff" stroke="none" transform="translate(0.000000,850.000000) scale(0.100000,-0.100000)">
<path d="M0 4250 l0 -4250 4250 0 4250 0 0 4250 0 4250 -4250 0 -4250 0 0 -4250z m952 3878 c54 -41 73 -89 73 -180 -1 -72 -4 -84 -48 -170 -51 -100 -138 -225 -163 -235 -41 -15 -304 100 -375 164 -104 94 -114 220 -25 309 53 53 110 71 181 56 49 -10 51 -9 85 23 59 55 87 66 166 63 59 -3 77 -8 106 -30z m6572 22 c14 -5 45 -27 69 -49 42 -39 43 -39 90 -28 120 27 247 -72 247 -193 0 -96 -70 -179 -210 -249 -128 -64 -235 -99 -258 -85 -28 18 -150 205 -178 274 -14 36 -28 92 -31 125 -4 52 -1 67 24 115 37 71 85 100 165 100 31 0 68 -4 82 -10z m-2509 -444 c124 -23 188 -42 272 -82 118 -56 161 -139 111 -214 -29 -43 -126 -94 -223 -116 -95 -22 -437 -30 -559 -14 -266 35 -443 108 -477 198 -20 53 -11 84 40 133 56 54 125 81 266 104 117 19 442 14 570 -9z m-2129 -161 c287 -50 582 -210 789 -426 104 -109 219 -258 257 -334 39 -78 55 -95 88 -95 40 0 75 32 137 126 117 178 242 247 504 275 231 25 370 -14 543 -154 118 -95 216 -242 251 -377 14 -54 16 -92 11 -224 -4 -124 -2 -175 10 -235 24 -115 16 -177 -40 -304 -58 -133 -71 -198 -56 -272 18 -88 80 -135 178 -135 86 0 173 -48 209 -114 10 -18 13 -17 73 13 85 42 112 41 162 -9 51 -49 77 -51 121 -6 42 42 62 108 53 180 -12 109 -149 586 -168 586 -3 0 -10 -9 -13 -20 -9 -30 -19 -25 -67 30 -75 87 -117 168 -164 320 -85 269 -117 340 -156 340 -31 0 -124 99 -137 147 -29 102 2 198 88 275 95 86 235 122 441 115 248 -8 395 -63 688 -259 143 -96 238 -140 442 -204 339 -107 340 -108 266 -183 -26 -27 -67 -57 -90 -67 -22 -10 -43 -19 -45 -20 -2 -2 48 -54 111 -116 62 -62 168 -169 233 -238 132 -138 180 -170 305 -205 60 -17 76 -25 78 -42 3 -17 -17 -31 -128 -87 -96 -48 -143 -66 -171 -66 l-39 0 24 -47 c13 -27 42 -100 66 -163 67 -184 128 -327 183 -435 41 -79 70 -118 139 -190 49 -49 88 -93 88 -96 0 -4 -7 -12 -15 -19 -19 -16 -134 -7 -196 14 -40 14 -41 14 -34 -7 14 -43 45 -174 64 -272 25 -131 52 -202 108 -275 44 -59 50 -90 19 -90 -8 0 -60 22 -115 48 -56 27 -101 44 -101 38 0 -5 18 -87 41 -180 62 -255 53 -330 -54 -449 l-43 -49 -52 20 -52 20 7 -26 c15 -65 46 -141 88 -220 25 -47 43 -92 41 -99 -13 -32 -124 1 -223 67 l-33 22 0 -56 c0 -90 -29 -329 -49 -408 -54 -209 -161 -385 -300 -494 -31 -24 -61 -44 -66 -44 -9 0 -32 69 -51 153 -19 82 -63 -97 -74 -301 -10 -166 -23 -242 -41 -242 -21 0 -180 82 -186 96 -8 20 -23 17 -23 -5 0 -36 -88 -139 -188 -219 -125 -102 -284 -276 -308 -337 -9 -25 -20 -45 -25 -45 -4 0 -16 14 -26 30 -9 17 -22 30 -27 30 -5 0 -45 -21 -90 -47 -291 -168 -654 -313 -995 -398 -262 -65 -346 -80 -1023 -175 -309 -43 -651 -114 -828 -172 -73 -23 -430 -154 -615 -225 -66 -25 -196 -82 -290 -126 -271 -127 -384 -161 -525 -155 l-85 3 45 43 c25 24 108 92 185 152 153 119 196 167 275 310 76 136 103 173 207 281 l94 97 -21 53 c-34 87 -94 193 -211 370 -146 223 -186 301 -275 536 -41 109 -95 241 -120 293 -42 87 -163 282 -184 295 -5 3 -54 -13 -109 -36 -65 -27 -109 -39 -123 -35 -26 6 -121 129 -152 196 -18 38 -21 65 -21 175 0 159 -5 171 -166 416 -127 194 -241 411 -260 493 -7 31 -14 56 -16 56 -2 0 -18 -7 -34 -16 -53 -27 -62 -8 -100 191 -30 162 -54 243 -121 399 -69 165 -110 302 -133 452 -23 144 -16 269 24 441 17 73 44 224 60 335 41 283 91 446 193 626 76 133 168 259 264 361 63 67 92 107 118 164 48 106 72 134 198 232 125 97 253 175 396 242 140 66 427 158 562 182 147 25 399 28 526 6z m-2002 -6418 c88 -123 138 -233 143 -315 4 -59 1 -74 -24 -122 -36 -71 -84 -100 -166 -100 -68 0 -121 23 -161 71 -26 31 -27 31 -73 20 -103 -26 -216 39 -244 141 -27 101 34 206 163 282 59 34 246 105 278 106 20 0 37 -17 84 -83z m6703 52 c125 -44 200 -86 265 -149 72 -71 92 -135 68 -219 -25 -89 -148 -156 -240 -131 -41 11 -44 10 -79 -23 -52 -50 -92 -67 -158 -67 -85 0 -133 32 -173 115 -40 82 -16 192 72 337 65 107 115 168 138 168 10 0 58 -14 107 -31z" id="1"/>
<path d="M765 8106 c-34 -15 -85 -70 -85 -92 0 -18 -18 -17 -50 1 -32 18 -113 19 -148 1 -15 -8 -38 -26 -52 -41 -22 -23 -25 -36 -25 -94 0 -59 4 -72 29 -105 15 -21 54 -54 85 -74 61 -39 233 -111 267 -112 27 0 108 114 161 226 61 129 48 237 -35 287 -35 20 -104 22 -147 3z" id="2"/>
<path d="M7370 8101 c-20 -10 -44 -36 -58 -62 -44 -82 -15 -185 103 -363 36 -55 63 -86 74 -86 27 0 124 35 205 74 81 40 149 94 172 139 22 41 21 117 -1 155 -40 67 -154 94 -222 53 l-31 -20 -12 29 c-35 86 -148 126 -230 81z" id="3"/>
<path d="M4509 7680 c-101 -12 -201 -36 -247 -59 -189 -97 -67 -225 273 -287 122 -22 412 -30 528 -14 439 59 408 261 -52 341 -132 23 -386 32 -502 19z m424 -65 c137 -18 278 -57 330 -91 81 -53 25 -107 -148 -140 -121 -24 -409 -24 -549 0 -166 28 -308 85 -319 128 -11 39 64 76 193 98 41 6 82 13 90 15 47 9 306 3 403 -10z" id="4"/>
<path d="M4510 7580 c-98 -13 -213 -47 -207 -63 5 -18 110 -57 212 -79 129 -29 445 -36 573 -14 120 21 169 40 152 60 -16 21 -149 63 -255 81 -110 19 -373 27 -475 15z" id="5"/>
<path d="M2500 7499 c-208 -25 -407 -85 -532 -160 -147 -88 -299 -239 -410 -409 -68 -103 -181 -331 -170 -342 5 -5 63 6 138 27 82 22 180 41 269 50 281 30 348 70 463 277 48 86 53 102 59 177 6 83 16 90 28 18 l7 -38 40 37 c39 35 110 73 136 74 7 0 -17 -23 -54 -51 -37 -28 -77 -63 -88 -77 -36 -44 -86 -126 -86 -138 0 -7 37 -19 90 -28 115 -22 175 -12 290 47 47 24 135 69 195 100 61 31 128 59 150 62 l40 5 -41 -19 c-23 -11 -93 -48 -155 -84 -63 -35 -138 -76 -166 -91 -29 -14 -53 -31 -53 -36 0 -23 89 -32 265 -27 150 4 205 10 329 36 82 17 151 30 153 28 2 -3 -19 -14 -47 -26 -62 -27 -200 -58 -295 -66 -101 -9 -103 -11 -70 -45 35 -36 109 -65 235 -92 75 -16 149 -21 345 -25 251 -6 272 -11 134 -33 -58 -9 -114 -10 -240 -1 -90 6 -184 14 -208 18 l-43 6 7 -34 c13 -61 59 -131 136 -208 91 -91 200 -159 335 -208 81 -30 113 -36 180 -37 53 -1 86 3 97 12 14 12 13 17 -9 49 -36 53 -33 109 9 164 46 59 56 81 78 158 11 36 19 67 19 68 0 2 -14 3 -30 3 -57 0 -87 25 -145 124 -104 178 -277 368 -441 485 -149 106 -360 198 -542 236 -93 19 -304 27 -402 14z" id="6"/>
<path d="M1735 7257 c-137 -71 -241 -141 -349 -233 -64 -54 -81 -76 -120 -154 -39 -77 -44 -94 -35 -118 9 -28 115 -140 122 -131 3 2 32 59 65 126 119 239 242 399 417 541 22 17 35 32 30 32 -6 0 -64 -29 -130 -63z" id="7"/>
<path d="M5870 7190 c-224 -22 -360 -119 -360 -257 0 -36 35 -123 49 -123 5 0 6 22 3 49 -2 28 -1 63 3 78 7 26 9 23 29 -37 12 -36 51 -113 86 -173 l63 -107 28 47 c29 51 75 100 85 91 3 -3 -10 -28 -29 -55 -44 -61 -61 -115 -54 -167 17 -121 136 -412 173 -423 15 -4 182 347 203 427 77 290 30 541 -119 633 -35 21 -74 25 -160 17z" id="8"/>
<path d="M6112 7141 c96 -107 128 -280 93 -499 -21 -126 -45 -193 -123 -345 -36 -70 -63 -130 -59 -133 3 -3 63 32 134 78 182 120 283 237 283 326 0 40 -34 145 -62 190 -11 18 -18 35 -15 38 7 7 57 -55 75 -93 25 -52 35 -40 28 35 -12 118 -61 276 -115 372 -10 18 -157 66 -232 76 l-54 7 47 -52z" id="9"/>
<path d="M6400 7078 c0 -6 66 -77 148 -157 386 -381 614 -763 868 -1451 29 -80 53 -142 54 -138 0 4 9 53 19 110 11 57 22 122 26 144 13 88 -36 386 -80 478 -17 35 -76 95 -125 127 -38 25 -20 30 28 9 23 -11 42 -17 42 -15 0 12 -95 164 -137 218 -180 237 -427 449 -737 634 -95 56 -106 60 -106 41z" id="10"/>
<path d="M4754 7027 c41 -26 156 -133 162 -149 3 -10 10 -16 15 -13 17 11 9 71 -14 116 -26 48 -44 56 -132 57 -42 1 -47 -1 -31 -11z" id="11"/>
<path d="M4471 6995 c-87 -28 -166 -79 -216 -140 -19 -24 -35 -45 -35 -47 0 -2 44 18 98 44 108 53 299 106 392 110 34 2 59 7 57 13 -6 18 -101 44 -162 44 -36 0 -90 -9 -134 -24z" id="12"/>
<path d="M4943 7008 c3 -7 11 -30 18 -51 7 -21 15 -36 18 -35 3 2 23 10 44 18 44 17 46 23 10 40 -78 36 -95 41 -90 28z" id="13"/>
<path d="M6465 6923 c58 -230 43 -369 -57 -509 l-29 -40 22 -70 c20 -68 124 -290 140 -299 4 -3 13 12 20 32 18 56 40 106 44 102 2 -2 -3 -49 -10 -104 l-14 -100 61 -90 c80 -117 144 -198 207 -260 l51 -49 0 75 c0 42 3 79 8 83 4 4 16 -39 27 -96 l20 -103 60 -32 c33 -18 112 -53 175 -79 63 -25 148 -63 188 -84 l74 -38 -7 25 c-24 96 -220 584 -305 758 -104 213 -263 460 -411 636 -81 97 -249 269 -262 269 -5 0 -6 -12 -2 -27z" id="14"/>
<path d="M4685 6929 c-74 -10 -209 -47 -296 -80 -74 -29 -206 -105 -197 -114 3 -3 40 10 84 29 129 56 248 87 360 93 117 7 158 -3 209 -51 19 -18 37 -31 40 -28 11 11 4 79 -11 100 -29 42 -104 62 -189 51z" id="15"/>
<path d="M5055 6919 c-16 -5 -41 -18 -55 -29 l-25 -20 58 0 c99 0 185 -61 287 -205 30 -41 56 -73 58 -70 7 7 -48 108 -94 172 -50 70 -155 164 -182 162 -9 0 -30 -5 -47 -10z" id="16"/>
<path d="M2244 6853 c-39 -67 -110 -135 -169 -161 -27 -12 -57 -26 -65 -31 -22 -12 -40 -94 -47 -215 -6 -105 -5 -109 13 -102 62 26 71 15 23 -30 -29 -27 -31 -32 -25 -84 5 -54 50 -208 65 -223 4 -4 34 72 66 169 65 196 195 473 288 611 l55 81 -70 16 c-100 23 -103 22 -134 -31z" id="17"/>
<path d="M2535 6877 c-48 -11 -53 -16 -107 -97 -85 -124 -219 -402 -281 -580 -71 -201 -75 -220 -48 -220 41 0 178 51 229 85 61 42 61 41 98 200 25 103 27 126 18 155 -14 40 -11 48 11 30 19 -16 19 -17 45 50 31 81 83 172 146 256 55 75 60 94 23 94 -10 0 -28 9 -39 20 -22 22 -25 23 -95 7z" id="18"/>
<path d="M2708 6786 c-22 -28 -54 -70 -70 -94 l-30 -44 35 3 c52 5 54 -6 4 -25 -24 -9 -54 -27 -65 -39 -33 -35 -145 -347 -131 -361 3 -3 24 0 48 5 69 15 68 -5 -1 -33 l-63 -26 0 -99 c0 -95 2 -105 45 -211 24 -62 47 -112 50 -112 3 0 11 20 18 45 70 261 252 631 422 857 l59 77 -35 21 c-18 12 -44 34 -56 50 -21 26 -30 28 -107 32 l-83 5 -40 -51z" id="19"/>
<path d="M4963 6830 c-21 -9 -59 -67 -50 -76 2 -3 25 0 49 5 82 19 139 -9 242 -120 127 -137 151 -214 163 -519 8 -210 18 -183 31 87 13 256 4 295 -104 439 -65 86 -143 160 -189 180 -38 16 -108 18 -142 4z" id="20"/>
<path d="M4536 6814 c-204 -40 -405 -145 -452 -235 -8 -16 -14 -30 -14 -33 0 -3 29 15 64 40 76 53 199 112 311 149 68 23 92 27 166 23 70 -3 94 -9 131 -31 26 -15 56 -39 68 -54 24 -31 38 -23 46 28 4 26 0 41 -17 63 -50 63 -152 80 -303 50z" id="21"/>
<path d="M6930 6786 c0 -11 186 -184 213 -198 61 -33 147 -17 196 35 l23 26 -133 41 c-74 23 -171 55 -216 71 -46 16 -83 27 -83 25z" id="22"/>
<path d="M1120 6663 c-152 -161 -272 -355 -295 -478 -32 -164 -15 -398 41 -577 54 -172 122 -280 339 -533 49 -58 99 -128 118 -167 18 -37 37 -66 42 -64 19 5 83 147 95 213 17 89 7 234 -24 351 -13 52 -26 95 -28 97 -2 1 -41 19 -87 39 -76 34 -146 76 -125 76 5 0 48 -14 97 -31 48 -18 90 -30 92 -27 3 2 -12 49 -34 104 -52 136 -87 243 -111 347 -18 73 -27 93 -53 117 -18 15 -41 43 -51 61 l-19 33 31 -23 c17 -12 34 -26 37 -31 17 -27 21 0 17 108 -5 134 12 225 55 303 l26 48 -29 33 c-16 19 -36 44 -44 57 l-16 23 -74 -79z" id="23"/>
<path d="M4470 6711 c-88 -30 -194 -76 -262 -116 -68 -40 -148 -102 -148 -114 0 -10 86 5 140 24 22 8 60 28 85 45 79 55 195 108 272 126 76 18 111 15 208 -20 13 -5 9 2 -13 22 -61 54 -177 68 -282 33z" id="24"/>
<path d="M4950 6723 c-30 -12 -68 -43 -72 -61 -5 -17 2 -19 81 -18 102 0 150 -14 202 -61 50 -45 74 -85 121 -202 l39 -96 -6 56 c-9 96 -33 153 -104 241 -83 102 -147 148 -205 147 -22 0 -48 -3 -56 -6z" id="25"/>
<path d="M3000 6638 c-132 -177 -252 -395 -338 -614 -60 -154 -107 -302 -98 -311 9 -10 174 14 228 33 63 21 138 91 138 128 0 41 37 177 71 262 43 109 70 159 149 277 38 58 70 110 70 117 0 6 -7 25 -16 41 -8 17 -18 49 -22 72 -7 39 -10 41 -57 54 -28 7 -55 13 -61 13 -6 0 -35 -32 -64 -72z" id="26"/>
<path d="M4600 6653 c-76 -12 -200 -66 -298 -131 -30 -20 -83 -46 -117 -57 l-64 -20 18 -24 c17 -22 19 -22 55 -7 21 9 70 36 109 60 149 92 292 111 405 53 30 -15 60 -27 67 -27 29 0 35 78 8 103 -36 31 -131 58 -183 50z" id="27"/>
<path d="M1835 6638 c-107 -10 -222 -31 -298 -53 l-55 -16 -26 -80 c-26 -79 -45 -222 -33 -253 5 -14 10 -14 51 0 69 24 77 12 18 -27 -61 -39 -62 -47 -28 -145 24 -71 103 -253 115 -267 4 -4 29 52 55 125 74 204 241 561 290 617 7 9 16 30 20 46 4 17 9 38 12 48 4 12 0 17 -13 16 -10 -1 -58 -6 -108 -11z" id="28"/>
<path d="M4874 6595 c-17 -13 -14 -14 36 -15 73 0 137 -32 162 -80 23 -46 40 -208 27 -252 -6 -18 -14 -79 -18 -134 -7 -93 -11 -110 -54 -199 -26 -53 -50 -116 -53 -138 l-6 -42 37 60 c84 134 105 175 129 246 31 92 47 217 36 289 -17 117 -28 142 -93 203 -34 32 -72 63 -85 68 -35 14 -96 11 -118 -6z" id="29"/>
<path d="M1277 6548 c-14 -29 -31 -81 -38 -116 -15 -80 -6 -249 19 -352 l18 -75 7 45 c10 60 53 200 84 274 19 46 73 215 73 229 0 1 -17 1 -39 -1 -32 -3 -42 1 -58 22 -12 14 -26 26 -31 26 -6 0 -22 -24 -35 -52z" id="30"/>
<path d="M5106 6553 c34 -32 56 -64 68 -98 10 -27 30 -72 43 -99 36 -68 53 -140 53 -221 0 -180 -79 -347 -214 -452 -153 -119 -197 -201 -145 -267 36 -46 55 -51 225 -56 157 -5 162 -6 209 -35 97 -60 135 -157 101 -255 -8 -24 -13 -46 -11 -48 2 -2 16 15 32 39 25 38 28 51 27 123 0 100 -22 147 -90 196 -54 39 -55 39 -326 29 -101 -4 -107 -3 -132 20 -58 54 -25 120 118 235 107 86 197 182 226 241 54 111 45 239 -31 440 -66 172 -106 229 -179 249 -20 6 -15 -2 26 -41z" id="31"/>
<path d="M4832 6525 c-18 -40 -15 -45 29 -45 64 0 119 -21 161 -61 l38 -36 0 36 c0 81 -63 131 -163 131 -48 0 -55 -3 -65 -25z" id="32"/>
<path d="M4458 6511 c-32 -10 -102 -44 -155 -74 -54 -31 -111 -59 -126 -63 -18 -4 -26 -11 -23 -20 3 -8 -1 -14 -10 -14 -13 0 -19 11 -39 69 -9 24 -35 -8 -35 -43 0 -37 7 -49 37 -65 57 -29 164 2 231 69 57 57 91 75 160 88 53 9 112 3 167 -18 38 -14 77 -5 73 18 -2 9 -23 28 -47 41 -60 33 -156 38 -233 12z" id="33"/>
<path d="M3175 6393 l-65 -98 57 -2 c32 -2 74 -6 93 -10 29 -5 18 -9 -64 -19 -54 -6 -104 -18 -111 -25 -30 -31 -121 -291 -109 -311 4 -6 21 -7 39 -4 53 10 51 -12 -2 -27 -57 -17 -61 -26 -62 -151 -1 -89 15 -216 28 -216 3 0 17 24 31 53 13 28 60 106 104 172 62 94 112 152 228 268 l149 149 -27 65 c-22 56 -40 80 -122 159 -53 52 -98 94 -99 94 -2 0 -32 -44 -68 -97z" id="34"/>
<path d="M1838 6310 c-48 -96 -101 -211 -118 -255 -37 -91 -100 -274 -100 -288 0 -17 101 1 244 43 143 42 191 62 241 104 38 30 28 42 -25 28 l-41 -10 -24 48 c-50 98 -77 215 -84 365 l-7 140 -86 -175z" id="35"/>
<path d="M4780 6428 c-24 -22 -25 -32 -6 -47 10 -8 24 -7 56 4 39 14 46 14 79 -2 24 -12 40 -29 49 -54 20 -54 -4 -101 -72 -140 l-51 -29 55 0 c104 0 170 34 170 88 0 75 -50 158 -107 180 -16 6 -56 12 -91 14 -50 4 -66 1 -82 -14z" id="36"/>
<path d="M4000 6404 c-17 -20 -30 -37 -28 -39 2 -1 18 0 36 2 25 4 32 10 32 27 0 12 5 27 12 34 9 9 8 12 -4 12 -9 0 -30 -16 -48 -36z" id="37"/>
<path d="M4517 6419 c-60 -14 -98 -38 -153 -95 -66 -68 -110 -95 -138 -85 -11 5 -42 11 -68 15 l-46 7 -27 -55 -27 -56 4 -232 c6 -260 13 -298 73 -383 20 -27 53 -77 75 -110 65 -99 69 -103 118 -132 36 -21 60 -28 103 -28 49 0 73 8 176 59 97 48 130 71 184 126 75 76 119 166 140 285 6 39 18 87 25 107 l13 37 -29 -5 c-15 -4 -68 2 -117 11 -126 24 -168 15 -209 -47 -24 -36 -34 -65 -43 -130 -18 -123 -19 -131 -27 -153 -6 -16 -5 -18 7 -7 17 16 29 15 29 -2 0 -24 -26 -37 -80 -39 -43 -2 -54 2 -68 21 -11 14 -24 21 -34 17 -18 -7 -53 34 -40 47 12 12 80 -11 91 -30 7 -13 15 -15 37 -7 32 11 36 25 53 153 24 194 98 247 290 208 49 -10 96 -14 122 -10 38 6 43 11 65 59 30 65 41 139 24 159 -17 21 -163 11 -207 -15 -32 -18 -33 -18 -43 1 -21 40 -12 88 25 129 19 21 35 48 35 59 0 24 -27 42 -64 42 -15 0 -33 11 -46 27 -15 19 -40 32 -88 44 -76 20 -82 20 -135 8z m-279 -329 c121 -42 217 -97 228 -132 10 -33 -3 -32 -41 1 -46 40 -112 73 -200 100 -74 23 -115 45 -115 61 0 14 -3 15 128 -30z m-33 -108 c37 -56 75 -75 143 -70 45 2 57 0 60 -12 2 -13 -10 -16 -71 -15 -86 0 -111 13 -156 80 -36 53 -36 55 -16 55 8 0 26 -17 40 -38z m100 19 c37 -16 77 -51 60 -51 -11 0 -135 60 -135 66 0 10 37 2 75 -15z m558 -150 c10 -11 1 -12 -48 -6 -86 10 -106 27 -27 22 34 -2 68 -9 75 -16z m-141 -36 c38 -32 96 -33 149 -3 27 15 42 19 49 12 8 -8 -2 -20 -30 -39 -59 -41 -127 -41 -168 -2 -16 16 -38 28 -48 27 -32 -4 -37 -1 -24 15 18 21 38 19 72 -10z m-395 -286 c21 -23 52 -48 70 -55 46 -20 147 -18 168 2 14 15 18 15 40 0 45 -30 29 -63 -21 -44 -27 10 -33 8 -61 -21 -26 -26 -39 -31 -78 -31 -80 0 -137 44 -139 108 -2 35 -3 37 -39 40 -34 3 -47 18 -30 35 17 18 54 4 90 -34z" id="38"/>
<path d="M4332 5464 c8 -43 130 -77 160 -45 11 12 10 13 -3 8 -25 -8 -100 11 -132 34 -26 19 -29 19 -25 3z" id="39"/>
<path d="M7301 6388 c-1 -4 20 -39 45 -79 65 -100 119 -221 151 -334 34 -119 56 -141 150 -151 52 -6 68 -3 119 20 54 25 73 40 74 58 0 4 -30 22 -67 40 -73 36 -131 89 -350 323 -67 72 -122 127 -122 123z" id="40"/>
<path d="M4872 6343 c27 -31 26 -47 -9 -87 -18 -22 -33 -43 -33 -48 0 -15 79 31 95 56 23 35 -7 96 -48 96 -18 0 -19 -2 -5 -17z" id="41"/>
<path d="M3992 6324 c-32 -22 -25 -54 14 -70 26 -11 35 -11 50 1 16 12 17 17 6 32 -7 10 -15 26 -18 36 -8 21 -23 22 -52 1z" id="42"/>
<path d="M6329 6324 c-7 -8 -57 -45 -110 -80 -100 -66 -159 -122 -159 -150 0 -8 27 -98 60 -200 102 -313 112 -363 117 -626 6 -239 -1 -325 -38 -473 -34 -133 -79 -215 -270 -486 -89 -125 -141 -228 -168 -331 -21 -83 -36 -168 -29 -168 3 0 22 26 43 58 21 31 117 136 214 232 97 96 197 200 223 230 105 126 253 392 250 449 -11 179 -12 716 -2 966 l12 310 -40 85 c-22 47 -48 111 -58 143 -19 61 -24 66 -45 41z" id="43"/>
<path d="M3490 6262 c0 -25 78 -165 132 -237 73 -97 259 -279 311 -304 23 -11 56 -23 72 -27 l30 -6 -8 144 c-8 146 -5 305 8 346 10 29 -5 28 -52 -4 -35 -24 -44 -26 -123 -21 -94 5 -178 29 -295 86 -53 26 -75 33 -75 23z" id="44"/>
<path d="M5207 6251 c-4 -19 -7 -48 -7 -65 0 -80 -54 -229 -120 -331 -53 -80 -83 -135 -95 -174 -6 -21 -1 -19 49 20 80 62 147 167 187 294 15 47 17 229 2 264 -10 24 -10 24 -16 -8z" id="45"/>
<path d="M1371 6245 c-30 -73 -61 -221 -61 -295 0 -70 6 -92 61 -241 94 -254 120 -353 126 -494 6 -134 -4 -200 -43 -285 -35 -78 -86 -150 -105 -150 -12 0 -18 -13 -22 -52 -4 -29 -14 -80 -22 -113 l-16 -59 51 -105 c28 -58 74 -136 101 -173 47 -62 157 -173 165 -165 2 2 -6 27 -17 57 -108 285 -115 723 -19 1202 24 119 68 278 96 345 4 8 -10 13 -43 15 l-48 3 -57 115 c-67 138 -118 283 -128 365 -6 59 -7 60 -19 30z" id="46"/>
<path d="M3420 6058 c-88 -76 -213 -220 -286 -329 -56 -85 -138 -238 -131 -246 12 -11 93 -22 164 -23 88 0 163 15 224 46 37 19 50 32 66 72 33 78 116 201 177 261 l54 54 -63 78 c-35 43 -74 97 -87 119 -13 22 -26 40 -29 40 -3 0 -43 -32 -89 -72z" id="47"/>
<path d="M750 6029 c-31 -102 -47 -189 -59 -306 -10 -95 -9 -107 14 -186 45 -156 110 -295 193 -412 75 -106 114 -140 221 -186 53 -23 117 -52 144 -65 33 -16 47 -19 47 -10 0 24 -77 132 -165 232 -172 195 -238 300 -303 486 -45 126 -65 244 -66 390 -1 71 -2 128 -3 128 -1 0 -12 -32 -23 -71z" id="48"/>
<path d="M5420 6045 c0 -27 -6 -75 -14 -106 -12 -55 -20 -71 -106 -216 -50 -86 -63 -134 -49 -187 12 -43 49 -86 75 -86 12 0 15 6 10 23 -29 104 -13 202 57 352 33 73 42 104 45 162 2 40 -1 79 -7 90 -8 15 -10 9 -11 -32z" id="49"/>
<path d="M2338 6034 c-26 -18 -69 -40 -95 -50 -31 -11 -63 -34 -90 -64 -40 -45 -131 -101 -185 -114 -21 -5 -31 -17 -47 -61 -30 -79 -29 -89 9 -70 68 35 54 7 -24 -48 -16 -11 -31 -36 -41 -70 -23 -81 -45 -243 -45 -340 l0 -88 35 27 c19 14 35 24 35 20 0 -3 -14 -32 -32 -63 -31 -55 -31 -56 -19 -117 7 -33 28 -92 46 -131 36 -74 172 -242 185 -228 4 4 15 86 24 180 41 423 113 713 254 1022 56 124 59 133 51 177 -5 26 -10 48 -12 49 -1 1 -23 -13 -49 -31z" id="50"/>
<path d="M6496 5798 c-3 -106 -9 -251 -12 -323 l-6 -130 28 26 c39 36 83 63 91 56 3 -4 -9 -18 -26 -33 -17 -14 -46 -47 -63 -72 l-31 -45 6 -221 c5 -194 13 -270 33 -325 3 -10 17 -3 47 27 24 23 46 42 50 42 4 0 -9 -23 -28 -51 -50 -72 -52 -89 -19 -151 38 -72 185 -298 193 -298 9 0 46 200 66 355 27 205 39 505 28 703 l-10 182 -62 69 c-64 73 -204 263 -247 338 -14 23 -27 43 -29 43 -1 0 -6 -87 -9 -192z" id="51"/>
<path d="M2363 5793 c-135 -309 -193 -551 -238 -988 -8 -82 -17 -160 -20 -172 -7 -32 17 -30 114 7 60 23 177 88 208 114 2 1 -4 34 -12 72 -34 162 -1 410 96 709 21 67 39 124 39 127 0 3 -8 8 -17 11 -12 3 -34 45 -63 121 -25 64 -47 116 -50 116 -3 0 -29 -53 -57 -117z" id="52"/>
<path d="M5315 5879 c-10 -32 -158 -182 -247 -251 -88 -68 -123 -116 -114 -153 8 -33 66 -50 140 -41 55 7 55 8 49 36 -10 53 6 96 81 211 70 109 115 203 103 215 -3 3 -8 -4 -12 -17z" id="53"/>
<path d="M3650 5812 c-50 -53 -130 -167 -130 -186 0 -3 12 -6 28 -6 37 0 72 -10 72 -21 0 -5 -18 -9 -40 -9 -46 0 -100 -24 -100 -44 0 -7 -7 -27 -15 -44 -19 -38 -47 -182 -43 -219 3 -25 7 -22 61 45 75 91 236 246 333 318 59 45 72 60 62 69 -7 6 -48 44 -91 85 l-78 74 -59 -62z" id="54"/>
<path d="M7541 5763 c13 -101 10 -175 -12 -289 l-21 -111 25 -79 c41 -131 51 -220 50 -471 -1 -127 -4 -246 -8 -262 -8 -38 7 -40 66 -11 56 29 117 86 142 134 18 35 22 62 25 178 l4 137 -35 43 c-46 58 -91 127 -85 133 2 3 23 -13 46 -36 23 -22 42 -35 42 -28 0 6 -14 67 -32 135 l-32 125 -57 54 c-59 56 -59 70 -1 35 18 -11 34 -20 37 -20 17 0 -109 359 -133 378 -26 20 -28 15 -21 -45z" id="55"/>
<path d="M1790 5756 c-72 -20 -76 -23 -97 -67 -49 -102 -111 -378 -138 -614 -20 -166 -22 -484 -6 -605 23 -164 84 -358 123 -392 11 -10 46 -23 77 -29 l58 -12 26 -60 c15 -33 29 -59 31 -56 2 2 -4 39 -14 82 -25 106 -38 227 -45 447 -6 159 -9 188 -25 205 -23 26 -62 104 -58 116 2 6 19 -10 38 -35 18 -25 37 -46 40 -46 6 0 23 181 22 225 0 6 -8 44 -17 85 -13 59 -16 110 -12 240 5 207 33 348 102 523 9 22 -8 21 -105 -7z" id="56"/>
<path d="M2875 5754 c-36 -29 -130 -60 -214 -70 -33 -3 -65 -12 -70 -18 -12 -15 -72 -208 -66 -214 2 -2 18 1 36 7 18 6 37 11 42 11 16 0 -23 -38 -62 -62 -20 -12 -37 -22 -38 -23 -8 -5 -54 -214 -64 -290 -11 -83 -8 -239 4 -252 3 -3 31 16 62 41 31 25 61 46 66 46 6 0 -17 -32 -51 -72 -33 -39 -60 -75 -60 -80 0 -4 11 -38 25 -75 33 -87 85 -181 144 -261 l46 -63 18 143 c35 291 117 659 199 905 36 105 42 135 36 168 -4 22 -7 73 -7 113 -1 39 -4 72 -8 72 -5 -1 -21 -12 -38 -26z" id="57"/>
<path d="M3839 5622 c-119 -89 -215 -179 -305 -285 -46 -54 -84 -102 -84 -106 0 -5 10 -11 23 -15 44 -12 66 -6 84 21 21 32 102 85 233 152 112 58 164 65 239 31 24 -11 45 -20 47 -20 2 0 4 35 4 77 0 63 -16 141 -35 171 -2 3 -114 32 -123 32 -4 0 -41 -26 -83 -58z" id="58"/>
<path d="M5187 5550 c-30 -43 -15 -100 27 -100 29 0 39 10 26 25 -6 7 -16 32 -23 56 l-13 43 -17 -24z" id="59"/>
<path d="M638 5410 c-25 -104 -26 -113 -12 -177 21 -103 50 -184 124 -348 37 -82 80 -188 94 -235 59 -185 80 -414 55 -585 -6 -42 -9 -79 -5 -82 3 -4 19 5 34 18 15 14 45 38 67 54 113 80 185 179 185 255 0 86 -54 228 -131 342 -23 35 -33 55 -21 44 45 -39 105 -128 137 -201 l33 -77 20 44 c42 95 82 253 82 324 0 34 -2 36 -77 70 -210 96 -242 114 -283 162 -100 112 -193 281 -246 444 -11 32 -22 58 -25 58 -3 0 -17 -49 -31 -110z" id="60"/>
<path d="M6885 5187 c0 -344 -12 -486 -61 -751 -13 -72 -22 -132 -20 -134 2 -2 53 45 114 105 83 82 116 122 137 167 26 56 27 63 15 113 -6 29 -27 76 -45 103 -19 28 -30 50 -26 50 11 0 86 -82 94 -101 5 -12 7 -12 16 1 16 22 13 46 -9 90 -53 104 -99 342 -100 512 0 84 -1 87 -29 107 -16 12 -33 21 -37 21 -4 0 -17 9 -28 19 l-21 20 0 -322z" id="61"/>
<path d="M2939 5462 c-50 -132 -139 -476 -174 -671 -29 -170 -59 -417 -51 -430 7 -10 104 10 157 33 19 8 54 22 77 32 41 17 44 20 38 48 -21 120 -26 159 -26 221 0 138 60 434 131 643 16 47 29 87 29 88 0 1 -27 5 -61 8 -45 5 -67 13 -85 31 l-25 25 -10 -28z" id="62"/>
<path d="M4116 5408 c13 -146 10 -208 -15 -265 -13 -29 -30 -58 -39 -65 -14 -11 -15 -10 -7 7 31 75 46 133 43 174 l-3 46 -45 7 c-25 4 -72 4 -105 1 -53 -5 -65 -10 -102 -47 -29 -29 -43 -54 -48 -81 -4 -22 -31 -83 -61 -136 -93 -165 -103 -209 -46 -209 40 0 78 -32 108 -91 14 -28 31 -52 39 -55 29 -11 104 28 141 73 20 24 79 77 132 117 54 41 122 100 152 131 67 69 93 82 127 59 21 -13 24 -22 21 -60 -3 -44 -2 -45 22 -39 70 18 124 51 179 111 l58 64 1 75 c0 60 -2 75 -14 75 -26 0 -77 -31 -126 -76 -26 -24 -54 -44 -63 -44 -10 0 -4 10 17 29 l33 30 -57 -6 c-101 -10 -197 45 -256 146 -35 62 -72 111 -84 111 -6 0 -6 -32 -2 -82z" id="63"/>
<path d="M3365 5457 c-27 -10 -86 -22 -130 -25 l-80 -7 -32 -95 c-35 -105 -97 -349 -90 -356 2 -2 24 5 48 16 82 37 108 20 37 -24 -98 -59 -106 -72 -119 -177 -13 -111 -1 -241 30 -331 27 -79 70 -162 102 -200 l28 -33 7 25 c4 14 29 67 55 118 39 78 46 99 42 132 -8 57 1 79 57 149 27 34 53 74 56 89 14 62 26 90 50 113 21 20 24 29 19 64 -5 31 2 63 29 142 20 56 36 106 36 111 0 5 -24 14 -54 21 -77 17 -80 23 -67 128 6 48 15 103 21 122 5 19 9 35 7 36 -1 1 -24 -7 -52 -18z" id="64"/>
<path d="M4804 5398 c-62 -65 -95 -114 -104 -152 -4 -19 -5 -37 -2 -40 3 -3 20 8 39 24 18 17 45 30 58 30 21 0 25 5 25 30 0 16 7 50 16 75 24 73 15 82 -32 33z" id="65"/>
<path d="M3805 5360 c-55 -28 -111 -61 -124 -73 -31 -28 -51 -77 -51 -123 0 -24 -4 -34 -12 -31 -8 2 -13 23 -13 55 1 28 -3 48 -7 46 -18 -11 -62 -100 -95 -191 -31 -89 -33 -101 -22 -135 6 -20 9 -48 7 -62 -5 -22 -2 -26 21 -28 82 -4 111 9 111 52 0 24 94 252 148 355 38 75 162 168 181 136 5 -8 29 -11 71 -9 l63 3 -41 23 c-23 13 -63 25 -89 29 -44 5 -57 1 -148 -47z" id="66"/>
<path d="M7030 5358 c0 -60 17 -218 24 -225 3 -3 24 8 48 25 82 56 88 53 23 -13 -36 -37 -65 -72 -65 -79 0 -35 57 -201 93 -271 75 -144 221 -265 340 -281 l44 -6 6 68 c12 120 7 455 -8 563 -15 114 -35 158 -35 77 l0 -49 -44 41 c-24 23 -71 54 -103 70 -58 30 -304 132 -316 132 -4 0 -7 -24 -7 -52z" id="67"/>
<path d="M4857 5330 c-8 -39 0 -60 24 -60 25 0 79 -74 72 -100 -8 -29 10 -45 76 -69 165 -60 230 -205 165 -368 -23 -57 -26 -76 -22 -147 3 -58 11 -93 27 -124 25 -50 38 -50 22 0 -23 74 -24 134 -2 205 20 65 50 129 51 108 0 -5 -7 -35 -15 -65 -8 -30 -15 -59 -15 -63 0 -17 21 6 42 46 18 35 22 63 25 161 3 105 1 124 -18 163 -26 54 -66 85 -153 118 -139 52 -204 98 -221 155 -10 31 -35 70 -45 70 -4 0 -10 -13 -13 -30z" id="68"/>
<path d="M4948 5327 c32 -38 121 -59 253 -61 109 -2 130 -5 162 -24 47 -27 48 -13 1 28 -56 49 -78 54 -229 55 -77 0 -153 5 -170 9 -27 8 -29 8 -17 -7z" id="69"/>
<path d="M5503 5325 c4 -9 10 -28 13 -41 5 -19 13 -24 38 -24 42 0 98 -30 113 -60 28 -55 10 -129 -47 -194 -42 -47 -31 -59 18 -19 53 43 92 122 92 188 0 95 -56 146 -174 161 -54 6 -59 5 -53 -11z" id="70"/>
<path d="M7771 5289 c-1 -9 3 -29 8 -45 5 -16 24 -91 41 -167 l32 -138 51 -26 c53 -26 107 -45 107 -37 0 3 -23 35 -52 72 -42 55 -110 183 -176 332 -6 15 -11 19 -11 9z" id="71"/>
<path d="M6187 5252 c-11 -15 -30 -36 -45 -46 -29 -22 -116 -34 -126 -17 -15 24 -34 8 -60 -48 -42 -94 -32 -152 34 -186 41 -21 128 -19 170 3 45 25 51 52 48 202 l-3 120 -18 -28z" id="72"/>
<path d="M4970 5260 c0 -14 76 -56 154 -85 94 -35 117 -48 154 -86 37 -37 41 -26 12 31 -33 65 -91 99 -200 116 -25 3 -62 13 -82 20 -21 7 -38 9 -38 4z" id="73"/>
<path d="M5838 5225 c-56 -29 -68 -40 -68 -60 0 -34 33 -33 66 2 35 37 38 24 10 -38 -35 -78 -40 -119 -22 -181 33 -112 125 -162 269 -144 71 9 84 21 93 80 6 46 5 49 -12 41 -90 -38 -176 -26 -236 35 -33 33 -38 44 -38 85 0 27 11 74 26 111 43 109 22 126 -88 69z" id="74"/>
<path d="M4714 5153 c-96 -108 -147 -156 -186 -175 -73 -35 -198 -78 -282 -98 -104 -24 -196 -70 -236 -118 -52 -63 -64 -125 -57 -301 7 -195 29 -327 118 -711 111 -476 141 -552 275 -686 84 -83 140 -114 208 -114 64 0 103 25 151 97 21 32 50 71 64 86 22 24 26 39 30 108 3 70 0 86 -23 134 -15 29 -43 68 -64 86 l-37 33 -3 -40 c-5 -62 -19 -61 -24 3 -8 82 -69 237 -154 388 -180 323 -266 608 -220 729 23 59 38 71 131 94 51 13 139 50 245 104 l165 83 42 85 c45 92 48 100 33 100 -6 0 -24 -22 -40 -49 -18 -29 -53 -65 -89 -90 -50 -34 -67 -41 -108 -41 -28 0 -58 -7 -71 -16 -18 -12 -38 -14 -105 -8 -122 10 -234 -19 -335 -86 -25 -17 -31 -18 -26 -6 11 28 120 93 187 111 48 13 89 16 153 13 62 -3 96 -1 114 9 14 7 46 13 71 13 54 0 125 42 166 99 15 20 39 50 53 66 30 34 64 108 58 125 -2 8 -15 3 -35 -14 -29 -24 -40 -42 -88 -149 -28 -60 -159 -137 -186 -110 -8 8 1 17 35 32 79 35 106 60 136 127 16 35 47 83 69 107 44 48 49 57 27 57 -25 0 -73 -48 -115 -115 -58 -91 -97 -133 -152 -161 -27 -13 -53 -24 -59 -24 -21 0 -9 19 28 41 20 12 52 36 71 53 34 32 145 195 138 203 -3 2 -36 -31 -73 -74z" id="75"/>
<path d="M5290 5198 c45 -27 60 -44 84 -92 28 -54 30 -57 39 -35 13 36 -8 93 -48 128 -29 25 -44 31 -82 31 l-47 0 54 -32z" id="76"/>
<path d="M5535 5221 c-7 -12 2 -71 18 -118 14 -41 -4 -81 -72 -168 -60 -75 -71 -96 -71 -133 0 -41 22 -57 63 -45 32 9 32 9 29 63 -4 71 5 95 79 189 73 95 85 142 48 183 -26 29 -83 46 -94 29z" id="77"/>
<path d="M593 5082 c11 -186 49 -331 157 -592 46 -111 76 -200 91 -273 19 -90 24 -105 32 -85 12 32 1 245 -18 345 -22 118 -54 209 -144 416 -44 100 -87 208 -96 240 -9 31 -19 57 -22 57 -3 0 -3 -48 0 -108z" id="78"/>
<path d="M5345 5071 c3 -18 5 -49 5 -68 0 -20 4 -32 10 -28 15 9 11 65 -6 100 l-14 30 5 -34z" id="79"/>
<path d="M5736 5048 c-25 -29 -46 -56 -46 -60 0 -3 -32 -27 -70 -53 -91 -60 -108 -93 -77 -148 6 -12 12 -23 13 -25 2 -5 130 70 151 90 12 11 29 36 38 54 16 35 49 184 41 191 -2 2 -24 -20 -50 -49z" id="80"/>
<path d="M4945 5062 c3 -16 -1 -43 -10 -65 -14 -35 -14 -37 7 -51 13 -7 40 -19 60 -25 20 -7 51 -28 68 -47 41 -47 43 -94 8 -181 -19 -49 -19 -103 0 -103 4 0 29 42 57 93 47 87 50 96 50 168 0 67 -3 80 -28 117 -34 48 -85 85 -147 106 -65 23 -73 21 -65 -12z" id="81"/>
<path d="M5507 5065 c-8 -16 -41 -59 -72 -95 -85 -97 -112 -159 -83 -188 20 -20 28 -14 28 23 0 44 25 94 80 160 48 56 73 101 67 118 -2 7 -11 -1 -20 -18z" id="82"/>
<path d="M4271 4981 c-37 -39 -63 -71 -57 -71 5 0 37 6 69 12 49 10 63 18 79 43 10 16 17 41 16 55 -5 46 -35 35 -107 -39z" id="83"/>
<path d="M4869 4886 c-24 -51 -53 -76 -120 -102 -24 -10 -89 -41 -144 -70 -55 -29 -125 -60 -157 -70 -40 -12 -59 -24 -67 -41 -16 -34 -14 -63 4 -63 21 0 19 -10 -8 -44 -44 -55 -57 -11 -31 101 l6 28 -21 -21 c-50 -47 -46 -165 11 -343 32 -102 41 -104 51 -14 6 48 33 120 43 111 2 -3 -3 -49 -11 -104 -23 -153 -22 -160 43 -286 134 -259 153 -289 188 -304 64 -27 148 -18 296 31 86 29 156 46 190 46 l54 2 -26 51 c-24 49 -25 58 -23 216 1 91 6 226 12 301 10 116 9 141 -4 172 -8 20 -15 50 -15 66 0 35 -15 49 -23 21 -9 -34 -54 -24 -76 17 -16 31 -14 65 9 123 40 101 18 153 -81 191 -35 13 -67 25 -71 27 -4 2 -17 -17 -29 -42z m276 -558 c-30 -145 -165 -418 -207 -418 -4 0 8 21 27 46 20 26 42 59 50 75 13 24 61 173 97 297 5 18 16 32 24 32 12 0 14 -7 9 -32z m-591 -326 c36 -70 98 -137 161 -173 61 -35 69 -36 62 -4 -4 25 -4 25 14 9 11 -9 19 -28 19 -42 0 -23 -2 -24 -37 -17 -82 15 -168 79 -223 165 -44 68 -80 175 -79 235 l0 50 28 -85 c15 -47 40 -109 55 -138z m371 138 c22 -35 -120 -169 -162 -153 -9 4 0 12 27 24 30 14 50 33 78 78 38 62 46 69 57 51z" id="84"/>
<path d="M5748 4848 c-14 -18 -64 -55 -111 -81 -106 -59 -147 -103 -147 -155 1 -34 18 -72 34 -72 3 0 6 12 6 28 0 54 43 98 143 147 51 25 98 45 103 45 6 0 18 8 27 18 16 17 16 21 -1 60 -9 23 -20 42 -23 42 -4 0 -18 -15 -31 -32z" id="85"/>
<path d="M7855 4622 c0 -223 1 -238 20 -260 22 -26 103 -77 110 -70 3 2 -9 36 -25 75 -21 51 -38 124 -61 264 -17 106 -34 201 -38 210 -3 10 -6 -88 -6 -219z" id="86"/>
<path d="M1847 4805 c-13 -78 -7 -415 9 -523 39 -267 150 -475 317 -599 33 -24 63 -43 67 -43 5 0 -11 42 -35 93 -24 51 -58 147 -76 212 -26 103 -32 143 -36 280 -3 113 -1 186 9 248 13 81 13 87 -2 85 -9 -2 -37 20 -65 51 -54 62 -154 189 -171 217 -9 16 -12 13 -17 -21z" id="87"/>
<path d="M5840 4831 c0 -32 114 -148 177 -179 76 -39 77 -38 106 25 46 106 53 98 -77 98 -113 0 -115 0 -160 32 -25 18 -46 29 -46 24z" id="88"/>
<path d="M3430 4800 c0 -31 38 -40 161 -40 143 0 150 -15 56 -117 -32 -35 -39 -48 -31 -61 25 -39 40 -37 107 16 l65 52 -9 41 c-25 110 -57 130 -162 104 -78 -19 -135 -16 -161 10 -20 20 -26 19 -26 -5z" id="89"/>
<path d="M5825 4751 c-6 -5 -54 -28 -107 -51 -114 -49 -161 -92 -156 -143 3 -28 7 -32 35 -35 18 -2 79 6 135 18 133 28 215 17 257 -34 8 -9 17 -16 22 -16 8 0 59 80 59 93 0 4 -26 19 -57 34 -31 15 -84 54 -117 86 -33 31 -61 57 -61 57 -1 0 -5 -4 -10 -9z" id="90"/>
<path d="M3407 4718 c-8 -18 -35 -58 -61 -88 -26 -30 -49 -65 -52 -77 -13 -48 4 -44 46 11 70 92 59 46 -20 -85 -86 -145 -118 -214 -135 -297 -24 -112 -2 -189 122 -434 44 -88 87 -198 79 -205 -2 -3 -30 45 -61 107 -32 61 -59 109 -62 106 -10 -9 120 -381 141 -404 11 -13 38 -33 59 -43 40 -21 156 -53 163 -46 8 7 -73 326 -100 398 -13 35 -42 106 -65 158 -51 117 -25 100 41 -26 53 -102 95 -231 137 -425 34 -155 67 -230 114 -258 39 -24 83 -25 192 -4 l84 17 -24 31 c-12 17 -48 82 -80 145 -31 62 -91 170 -132 240 -112 186 -161 288 -178 366 -16 78 -19 115 -7 115 4 0 27 -33 52 -72 73 -116 287 -318 403 -380 18 -9 19 -8 14 13 -4 13 -32 137 -63 274 -70 316 -96 485 -98 652 0 73 -4 133 -7 133 -12 0 -97 -97 -113 -128 -12 -23 -23 -32 -42 -32 -20 0 -25 -4 -20 -16 3 -9 6 -19 6 -24 0 -4 9 -10 20 -13 13 -3 20 0 20 8 0 19 13 25 38 18 28 -7 29 -33 2 -33 -11 0 -20 -5 -20 -11 0 -15 -119 -159 -131 -159 -12 0 3 31 47 92 27 38 30 47 17 50 -9 2 -21 20 -27 43 -9 30 -25 49 -68 82 -78 60 -80 71 -19 141 28 32 51 62 51 65 0 4 -48 7 -106 7 -58 0 -114 5 -124 10 -17 9 -22 6 -33 -22z m463 -228 c14 -26 3 -45 -16 -29 -16 13 -19 49 -4 49 5 0 14 -9 20 -20z m-141 -304 c-7 -29 -17 -46 -26 -46 -20 0 -10 55 14 82 23 25 26 17 12 -36z" id="91"/>
<path d="M5322 4697 c-10 -23 -33 -59 -51 -79 -25 -29 -31 -44 -31 -81 0 -58 51 -159 101 -199 44 -35 123 -58 206 -58 85 0 162 -30 208 -81 20 -23 38 -39 39 -37 2 1 16 25 31 51 l28 49 -20 26 c-40 54 -78 67 -186 64 -79 -2 -106 1 -141 17 -45 19 -93 77 -122 146 -19 45 -18 128 2 167 17 32 12 42 -23 52 -18 6 -25 0 -41 -37z" id="92"/>
<path d="M5471 4721 c-44 -12 -66 -55 -66 -128 0 -60 2 -67 33 -94 24 -22 42 -29 72 -29 21 0 42 5 45 10 3 6 0 10 -9 10 -25 0 -75 50 -85 86 -11 41 0 90 30 128 21 27 20 28 -20 17z" id="93"/>
<path d="M7117 4646 c-36 -110 -77 -171 -185 -276 l-88 -85 -39 -157 c-22 -86 -37 -160 -33 -163 4 -4 17 0 30 9 44 31 52 16 12 -23 -68 -65 -76 -93 -82 -283 -3 -93 -1 -168 4 -168 4 0 21 12 36 27 15 15 28 22 28 15 0 -6 -5 -14 -11 -18 -6 -3 -20 -26 -30 -49 -19 -42 -19 -44 2 -111 55 -179 175 -347 318 -447 l44 -30 -7 54 c-21 150 -24 220 -21 404 4 220 19 369 65 649 44 268 53 375 46 511 -7 143 -11 163 -40 199 l-21 28 -28 -86z" id="94"/>
<path d="M2405 4699 c-48 -32 -156 -86 -203 -99 -48 -15 -53 -26 -71 -163 -33 -242 17 -531 130 -748 l41 -79 57 -15 c116 -31 105 -21 131 -123 16 -61 70 -111 70 -64 0 9 -11 67 -25 127 -14 61 -32 164 -41 230 -14 107 -19 123 -44 150 -32 34 -55 75 -42 75 5 0 19 -11 32 -25 13 -14 26 -23 28 -20 3 3 4 60 3 127 -2 119 6 228 30 408 l11 85 -36 78 c-20 42 -38 77 -39 77 -1 0 -15 -9 -32 -21z" id="95"/>
<path d="M6432 4615 c-94 -187 -160 -273 -387 -505 -192 -196 -255 -266 -255 -285 0 -4 27 18 60 48 33 30 129 104 214 166 254 184 388 317 458 455 l30 59 -30 66 c-17 36 -32 73 -34 81 -3 8 -27 -29 -56 -85z" id="96"/>
<path d="M7790 4628 c-22 -33 -59 -68 -100 -96 -36 -25 -69 -54 -73 -66 -12 -28 1 -230 19 -330 9 -43 31 -126 49 -183 35 -104 111 -273 124 -273 11 0 56 51 72 80 20 38 15 171 -10 270 -17 69 -27 89 -51 108 -17 13 -37 37 -46 54 -15 28 -15 29 5 19 11 -6 23 -16 26 -21 3 -6 9 -10 13 -10 4 0 7 113 7 250 0 138 0 250 0 250 -1 0 -16 -23 -35 -52z" id="97"/>
<path d="M3768 4592 c-68 -51 -79 -75 -36 -80 21 -3 30 3 43 27 8 17 29 47 46 66 43 49 22 44 -53 -13z" id="98"/>
<path d="M7230 4616 c0 -23 53 -263 60 -270 4 -4 25 4 46 18 21 14 40 24 42 21 2 -2 -12 -25 -32 -51 -20 -26 -36 -51 -36 -55 0 -33 101 -254 143 -313 l21 -30 17 40 16 39 8 -67 c6 -56 12 -71 39 -96 37 -36 178 -134 183 -128 3 2 -5 22 -15 43 -35 67 -91 241 -113 347 -11 55 -23 161 -26 234 l-6 132 -47 0 c-88 0 -145 25 -269 118 -17 13 -31 21 -31 18z" id="99"/>
<path d="M5850 4522 c0 -4 14 -15 30 -24 17 -9 40 -33 51 -53 12 -19 23 -35 25 -35 2 0 11 11 20 25 19 29 10 47 -35 69 -32 16 -91 28 -91 18z" id="100"/>
<path d="M2536 4483 c-14 -70 -26 -206 -26 -300 0 -93 26 -275 49 -335 7 -21 9 -20 27 10 20 34 38 43 30 15 -30 -107 -29 -126 3 -205 72 -171 160 -250 345 -307 65 -20 185 -29 199 -15 4 4 -8 24 -27 44 -118 131 -224 357 -262 557 -12 66 -15 128 -12 248 l4 160 -86 -21 c-47 -12 -89 -19 -95 -17 -5 2 -40 47 -77 99 -63 89 -67 93 -72 67z" id="101"/>
<path d="M6530 4438 c-62 -105 -232 -270 -405 -395 -77 -56 -158 -115 -180 -132 -90 -71 -190 -182 -262 -291 -58 -88 -108 -146 -208 -245 -119 -116 -185 -191 -185 -208 0 -3 44 15 98 40 53 25 203 92 332 150 425 188 597 285 760 426 139 121 281 307 306 401 18 66 18 64 -9 59 -21 -4 -34 11 -107 124 -46 70 -86 132 -90 136 -4 4 -26 -25 -50 -65z" id="102"/>
<path d="M1270 4471 c0 -34 56 -209 94 -295 63 -142 209 -317 316 -379 83 -47 247 -88 259 -63 7 15 -24 72 -60 113 -21 23 -51 68 -68 101 -27 53 -34 60 -68 67 -71 13 -164 67 -235 137 -71 70 -162 200 -204 293 -14 30 -27 55 -30 55 -2 0 -4 -13 -4 -29z" id="103"/>
<path d="M5665 4470 c-60 -16 -130 -30 -154 -30 -43 0 -44 0 -26 -20 28 -31 80 -43 155 -36 88 9 148 -6 196 -51 l39 -35 27 33 c30 36 30 55 -1 98 -50 71 -96 78 -236 41z" id="104"/>
<path d="M1225 4373 c-23 -173 -69 -249 -206 -340 -22 -15 -44 -36 -48 -47 -17 -44 136 -349 280 -557 198 -287 217 -318 247 -402 37 -101 62 -227 62 -308 0 -32 2 -59 5 -59 10 0 153 59 193 80 53 28 87 89 104 188 11 67 11 71 -17 137 -16 37 -42 88 -58 112 -15 25 -26 47 -24 50 3 2 23 -17 46 -43 53 -60 54 -42 5 98 -72 207 -150 324 -253 379 l-56 30 43 -5 c23 -2 42 -2 42 0 0 3 -25 41 -56 86 -60 88 -93 148 -125 230 -11 29 -40 94 -64 143 -42 85 -95 232 -95 261 0 8 -4 14 -9 14 -6 0 -13 -21 -16 -47z" id="105"/>
<path d="M2948 4389 c-24 -12 -41 -29 -45 -47 -5 -15 -8 -103 -7 -197 1 -149 4 -182 27 -268 46 -172 144 -361 251 -482 l35 -40 32 18 c31 17 34 17 65 1 18 -10 36 -16 39 -13 3 3 -22 91 -56 195 -55 169 -65 193 -99 224 -20 19 -45 48 -56 65 l-19 30 32 -23 c17 -12 33 -22 36 -22 2 0 -5 26 -16 58 -15 43 -21 87 -22 178 l-3 121 -36 49 c-20 27 -50 77 -67 112 -18 34 -37 62 -43 62 -6 -1 -28 -10 -48 -21z" id="106"/>
<path d="M5195 4357 c-4 -19 -8 -113 -8 -208 l-2 -174 31 -60 c41 -80 135 -253 158 -290 13 -22 7 -18 -22 14 -23 25 -71 95 -108 155 -64 106 -66 109 -60 66 4 -24 20 -64 36 -89 17 -24 30 -49 30 -55 0 -22 -31 -110 -46 -133 -21 -33 -59 -49 -78 -34 -22 19 -70 -10 -91 -55 -10 -21 -20 -72 -22 -118 l-6 -82 39 -25 c55 -36 98 -49 167 -49 l59 0 167 168 c205 205 218 227 261 452 17 85 40 183 51 218 l21 63 -25 38 c-39 59 -94 81 -232 91 -135 10 -205 36 -272 102 l-42 41 -6 -36z m83 -312 c53 -60 79 -79 112 -80 29 0 38 -16 17 -29 -39 -25 -129 41 -171 127 -14 28 -26 58 -25 66 0 10 5 5 12 -10 7 -14 31 -47 55 -74z" id="107"/>
<path d="M7231 4257 c-6 -62 -25 -191 -41 -287 -51 -312 -64 -443 -64 -660 -1 -203 9 -340 23 -340 8 0 103 193 136 278 17 41 17 45 -5 103 -12 33 -19 63 -17 66 3 2 17 -12 31 -33 l25 -37 11 29 c16 42 57 220 65 281 6 46 3 60 -26 118 -17 36 -29 69 -25 73 4 4 11 0 16 -8 5 -8 16 -24 25 -35 15 -19 16 -13 12 85 -4 96 -8 112 -42 185 -21 44 -55 128 -75 187 l-36 107 -13 -112z" id="108"/>
<path d="M1895 3965 c9 -54 67 -193 117 -280 58 -99 140 -197 201 -239 93 -63 224 -107 281 -92 l25 6 -24 25 c-12 14 -31 55 -41 91 -14 55 -21 65 -43 70 -216 47 -371 171 -484 386 -35 68 -38 70 -32 33z" id="109"/>
<path d="M6720 3968 c0 -32 -120 -251 -221 -403 -59 -88 -159 -241 -223 -339 -159 -243 -248 -357 -396 -507 -119 -121 -152 -150 -300 -265 -294 -228 -648 -399 -1010 -489 -267 -65 -378 -79 -650 -79 -189 0 -268 4 -345 17 -139 25 -317 71 -411 107 -90 34 -87 34 -78 19 14 -23 221 -110 303 -129 187 -41 318 -54 561 -54 325 0 547 31 839 119 598 181 993 436 1358 875 172 207 369 512 489 757 25 51 49 95 54 98 6 4 10 22 10 42 0 20 7 80 16 135 9 55 13 102 10 106 -3 3 -6 -1 -6 -10z" id="110"/>
<path d="M7434 3895 c11 -74 -12 -585 -29 -665 -34 -155 -102 -328 -200 -510 -26 -49 -35 -77 -35 -114 0 -67 19 -126 40 -126 27 0 130 117 178 202 127 224 186 547 163 889 -17 251 -15 245 -73 309 l-49 55 5 -40z" id="111"/>
<path d="M1500 3891 c0 -9 31 -56 175 -266 37 -55 109 -183 158 -285 l89 -185 14 48 c8 26 19 47 25 47 6 0 8 -8 6 -17 -15 -52 -17 -98 -7 -128 17 -51 125 -146 220 -194 71 -35 240 -96 324 -115 l29 -7 -17 28 c-10 15 -100 109 -199 208 -120 118 -205 213 -249 275 -68 96 -166 280 -189 356 -12 39 -16 42 -66 54 -79 17 -180 72 -250 136 -35 30 -63 51 -63 45z" id="112"/>
<path d="M3650 3888 c0 -23 71 -163 157 -309 45 -75 110 -194 146 -265 82 -160 110 -189 208 -214 41 -11 85 -20 97 -20 23 0 23 1 -11 48 -59 81 -98 174 -152 368 -2 6 -40 37 -84 68 -136 95 -266 214 -339 310 -12 16 -22 22 -22 14z" id="113"/>
<path d="M6575 3829 c-160 -162 -357 -286 -695 -436 -124 -55 -204 -97 -243 -128 -75 -60 -248 -217 -244 -222 2 -2 28 2 57 8 34 7 55 8 62 1 6 -6 -23 -19 -84 -38 -91 -28 -95 -31 -203 -130 -135 -125 -208 -185 -304 -252 l-74 -52 86 0 c51 0 87 -4 87 -10 0 -5 -20 -10 -45 -10 -78 0 -236 -39 -327 -81 -178 -81 -333 -123 -683 -187 -38 -7 -35 -8 65 -30 58 -12 124 -22 148 -22 30 0 41 -4 36 -11 -10 -17 -220 -5 -314 18 -66 15 -116 17 -406 14 -355 -3 -431 3 -566 45 -100 32 -167 77 -194 131 -31 61 -39 28 -12 -45 17 -46 39 -75 112 -148 77 -77 105 -97 186 -136 506 -243 1137 -260 1765 -47 252 86 552 247 760 408 32 25 66 51 74 57 11 8 -24 10 -132 6 -95 -3 -147 -1 -147 5 0 6 48 13 113 16 93 4 127 10 199 37 85 32 89 35 205 154 66 66 144 153 175 191 73 92 212 295 205 301 -2 3 -44 -11 -92 -31 -137 -57 -131 -36 11 35 l129 65 145 217 c147 219 224 350 218 368 -2 6 -35 -22 -73 -61z" id="114"/>
<path d="M2526 3787 c3 -38 17 -121 31 -185 31 -148 38 -214 25 -239 -12 -22 -72 -43 -124 -43 -88 0 -234 66 -315 142 -29 28 -53 47 -53 42 0 -13 69 -122 119 -189 25 -33 91 -109 146 -170 140 -153 205 -231 263 -317 47 -70 53 -74 103 -87 51 -13 105 -42 122 -66 4 -6 9 -1 13 13 7 25 26 29 43 8 6 -7 32 -69 57 -137 50 -138 85 -207 120 -240 30 -28 50 -19 58 25 8 42 9 39 -147 313 -64 110 -127 223 -141 251 -18 36 -53 74 -127 136 -105 90 -111 106 -20 56 30 -17 55 -29 57 -28 1 2 -11 32 -28 68 -52 112 -115 320 -137 448 -11 68 -24 128 -27 133 -3 6 -14 38 -25 72 l-19 62 6 -68z" id="115"/>
<path d="M7574 3730 c3 -36 9 -112 12 -170 4 -58 12 -114 19 -125 13 -21 104 -79 142 -90 21 -6 20 -1 -16 77 -21 46 -50 129 -65 186 -30 122 -43 149 -75 171 l-24 16 7 -65z" id="116"/>
<path d="M5070 3698 c-33 -9 -34 -10 -13 -21 12 -7 35 -31 52 -54 34 -47 42 -51 65 -27 19 19 29 53 24 85 -3 21 -9 24 -48 26 -25 1 -61 -3 -80 -9z" id="117"/>
<path d="M1900 3683 c0 -23 120 -251 177 -338 52 -78 110 -143 263 -295 107 -107 204 -212 215 -232 18 -35 42 -55 53 -44 8 9 -109 163 -196 259 -228 249 -332 391 -370 501 -9 28 -28 74 -42 101 -23 45 -30 50 -63 53 -20 2 -37 0 -37 -5z" id="118"/>
<path d="M4885 3638 c-37 -12 -91 -21 -143 -23 -45 -1 -85 -5 -88 -8 -4 -3 -4 -21 0 -39 4 -24 16 -39 39 -53 70 -41 127 -106 143 -163 24 -83 16 -179 -19 -226 -35 -45 -17 -49 49 -10 87 51 114 106 114 235 0 102 21 169 65 208 40 35 43 51 15 76 -29 26 -104 28 -175 3z" id="119"/>
<path d="M6662 3576 c-51 -107 -170 -310 -259 -444 -448 -676 -954 -1033 -1749 -1238 -245 -62 -384 -78 -694 -78 -172 -1 -305 4 -354 12 -44 7 -81 10 -83 8 -6 -6 161 -44 279 -63 199 -33 834 -14 1158 33 159 23 382 72 489 106 352 112 688 323 847 529 61 79 300 596 369 795 57 165 55 143 27 338 l-7 49 -23 -47z" id="120"/>
<path d="M2630 3544 c0 -23 61 -227 90 -300 18 -44 66 -146 108 -229 91 -177 314 -574 323 -575 9 0 28 108 36 195 5 62 1 87 -36 215 -25 87 -61 186 -91 248 -49 99 -52 103 -108 131 -125 63 -214 146 -286 266 -20 32 -36 54 -36 49z" id="121"/>
<path d="M7391 3468 c-1 -27 -51 -178 -79 -243 -15 -33 -53 -114 -85 -179 -35 -73 -61 -139 -64 -168 -3 -26 -8 -48 -10 -48 -2 0 -16 8 -30 17 -19 12 -28 14 -30 6 -8 -24 -84 -129 -138 -193 -64 -75 -91 -125 -105 -199 -14 -75 -13 -294 2 -326 13 -30 125 -92 139 -78 4 4 13 73 18 153 6 80 19 180 30 222 31 122 107 292 142 318 12 9 98 187 124 257 51 134 108 424 92 465 -4 9 -6 8 -6 -4z" id="122"/>
<path d="M2828 3352 c66 -62 136 -100 204 -112 29 -6 73 -14 98 -20 94 -19 267 -1 315 34 15 11 13 15 -24 39 -22 15 -48 27 -56 27 -9 0 -32 7 -52 15 -33 14 -40 14 -90 -5 -99 -37 -243 -22 -371 37 -31 15 -61 29 -67 31 -5 1 14 -19 43 -46z" id="123"/>
<path d="M6727 3313 c-2 -4 -17 -46 -32 -93 -15 -47 -54 -145 -87 -219 -32 -73 -57 -135 -55 -137 1 -2 29 12 61 32 32 19 60 33 62 31 3 -2 -16 -20 -40 -39 -124 -96 -148 -131 -250 -372 -40 -92 -116 -298 -116 -313 0 -2 13 5 29 16 46 33 45 25 -6 -41 -56 -74 -72 -140 -73 -306 0 -99 22 -236 40 -247 4 -3 11 17 15 43 20 137 90 294 218 492 99 153 172 291 228 430 41 104 159 444 159 459 0 5 -20 38 -44 75 -24 37 -54 93 -67 124 -24 63 -34 78 -42 65z" id="124"/>
<path d="M3494 3244 c3 -7 8 -28 11 -47 5 -28 14 -38 43 -51 43 -18 132 -32 132 -20 0 16 -43 96 -54 99 -6 2 -39 9 -74 17 -49 12 -62 12 -58 2z" id="125"/>
<path d="M5000 3226 c-16 -44 -15 -51 23 -123 43 -82 58 -166 45 -250 -5 -31 -11 -60 -14 -65 -27 -43 117 85 369 330 73 71 118 121 105 117 -36 -12 -238 -115 -269 -138 -39 -28 -45 -17 -21 36 l20 44 -67 6 c-44 5 -85 16 -124 36 l-58 30 -9 -23z" id="126"/>
<path d="M3375 3173 c-35 -10 -86 -13 -167 -10 -65 1 -118 2 -118 1 0 0 15 -35 34 -75 19 -41 45 -109 57 -152 13 -42 25 -77 29 -77 3 1 27 33 55 72 54 76 162 193 184 200 10 3 12 12 7 31 -7 30 -10 30 -81 10z" id="127"/>
<path d="M4935 3120 c-10 -11 -16 -21 -14 -23 29 -17 89 -44 89 -40 0 11 -44 83 -50 83 -4 0 -15 -9 -25 -20z" id="128"/>
<path d="M1898 3039 c5 -116 -14 -200 -64 -282 l-35 -57 53 -59 c29 -33 69 -84 88 -115 19 -30 37 -55 40 -55 3 -1 13 24 23 55 18 59 44 104 58 104 5 0 3 -12 -5 -27 -17 -35 -36 -123 -36 -171 0 -51 196 -532 263 -645 l52 -88 3 53 c3 71 22 188 30 188 4 0 7 -69 8 -153 l1 -152 86 -131 c84 -127 188 -316 199 -362 6 -21 12 -18 117 55 130 92 125 75 82 268 -65 291 -168 546 -329 811 -120 199 -273 407 -401 548 -64 70 -195 238 -227 292 -7 12 -9 -8 -6 -77z" id="129"/>
<path d="M3530 3092 c0 -11 12 -27 26 -37 29 -18 267 -67 442 -90 119 -16 397 -21 406 -7 5 8 -80 82 -94 82 -4 0 -59 9 -121 20 -138 24 -197 25 -286 4 -69 -16 -122 -13 -158 10 -11 7 -54 16 -95 19 -41 4 -85 9 -97 13 -19 5 -23 2 -23 -14z" id="130"/>
<path d="M4805 3048 c-73 -36 -123 -69 -85 -56 8 3 44 15 80 27 80 26 93 34 88 53 -2 12 -19 8 -83 -24z" id="131"/>
<path d="M1441 2964 c-1 -98 2 -115 24 -160 14 -27 34 -60 46 -74 l20 -25 -6 65 c-8 80 -38 203 -64 261 l-20 44 0 -111z" id="132"/>
<path d="M3414 3028 c-47 -50 -114 -132 -138 -170 -10 -14 -24 -66 -31 -115 -20 -127 -63 -352 -75 -393 -18 -61 -20 -60 100 -60 61 0 110 4 110 9 0 5 -11 33 -24 62 -31 68 -56 189 -56 269 0 61 12 73 24 25 12 -48 100 -216 133 -255 18 -21 52 -53 74 -71 38 -30 44 -32 122 -30 241 5 687 86 854 156 30 13 34 18 29 42 -3 16 -11 85 -17 156 -7 70 -16 127 -21 127 -4 0 -8 -6 -8 -14 0 -36 -88 -253 -89 -221 -1 10 20 90 55 212 15 55 46 85 66 65 6 -6 19 -81 29 -168 10 -87 20 -161 21 -166 5 -13 258 119 342 178 90 65 115 107 124 210 4 52 1 68 -19 103 -13 23 -38 51 -56 62 l-33 20 -22 -25 c-17 -19 -64 -39 -182 -77 -156 -50 -161 -51 -216 -39 -111 24 -159 -7 -324 -208 -183 -225 -298 -311 -426 -320 -62 -5 -149 18 -170 44 -16 18 -11 18 36 -2 56 -23 164 -15 235 18 89 42 157 106 293 272 71 87 137 163 148 169 10 7 18 15 18 18 0 4 -69 9 -152 11 -106 3 -205 14 -320 34 -92 16 -170 25 -174 22 -10 -11 122 -204 156 -228 74 -53 134 -48 227 18 29 20 78 55 108 76 40 28 59 36 67 28 12 -12 -136 -126 -220 -168 -69 -35 -136 -30 -190 13 -46 37 -128 143 -168 219 -25 49 -36 60 -72 72 -40 13 -45 13 -64 -4 -31 -29 -86 -115 -94 -149 l-7 -30 36 40 36 40 -18 -55 c-19 -57 -39 -72 -66 -50 -34 29 -6 107 77 212 55 70 -4 83 -68 16z" id="133"/>
<path d="M6899 2993 c-6 -15 -38 -107 -71 -203 -108 -311 -146 -391 -306 -644 -143 -225 -201 -365 -218 -519 l-6 -62 35 58 c57 93 123 162 246 261 128 102 161 143 199 243 21 58 26 91 32 219 6 143 8 155 38 215 17 35 58 96 92 134 59 67 120 159 120 180 0 6 -34 41 -75 78 l-75 68 -11 -28z" id="134"/>
<path d="M2175 2829 c44 -44 116 -111 160 -148 77 -66 310 -231 326 -231 4 0 10 13 14 29 9 42 48 90 92 113 21 11 45 27 53 35 13 13 12 17 -12 38 -33 28 -138 41 -255 30 -90 -8 -92 8 -3 25 53 10 77 20 48 20 -41 0 -314 86 -397 126 -51 24 -96 44 -100 44 -3 0 30 -36 74 -81z" id="135"/>
<path d="M2854 2617 c-17 -18 -46 -41 -65 -52 -29 -17 -34 -27 -37 -62 -3 -34 2 -47 27 -75 16 -19 54 -46 83 -60 52 -26 168 -61 168 -51 0 3 -8 17 -19 31 -17 24 -59 126 -105 255 -10 26 -18 47 -19 46 -1 0 -16 -14 -33 -32z" id="136"/>
<path d="M2340 2627 c0 -3 34 -54 76 -114 165 -235 270 -427 359 -652 55 -139 126 -393 140 -498 8 -60 13 -67 38 -48 40 29 46 271 12 470 -8 50 -34 153 -56 230 l-41 140 -68 72 c-38 40 -82 94 -98 122 -23 42 -49 64 -162 140 -74 50 -150 103 -167 117 -18 15 -33 24 -33 21z" id="137"/>
<path d="M3350 2488 c0 -24 44 -142 64 -173 13 -20 25 -25 56 -25 22 0 40 2 40 5 0 2 -22 26 -49 53 -27 27 -63 73 -80 103 -17 30 -31 46 -31 37z" id="138"/>
<path d="M6261 2354 c-39 -50 -156 -147 -261 -216 -125 -83 -277 -159 -455 -227 l-130 -50 95 -1 c52 -1 113 -5 135 -9 l40 -8 -55 -6 c-30 -3 -125 -9 -210 -11 -132 -5 -192 -13 -405 -55 -137 -28 -374 -69 -525 -91 -151 -23 -282 -44 -290 -46 -8 -3 6 -14 35 -29 60 -28 51 -30 -51 -9 -94 20 -159 16 -359 -21 -335 -61 -532 -122 -740 -228 -229 -118 -409 -249 -558 -406 -63 -67 -132 -159 -125 -166 2 -2 50 28 108 66 230 153 527 278 810 343 87 19 438 83 525 95 39 6 224 28 411 51 188 22 406 52 485 65 488 85 997 293 1306 534 127 99 163 135 163 162 0 20 19 87 77 272 8 24 -2 21 -26 -9z" id="139"/>
<path d="M2924 2088 c16 -56 75 -297 82 -338 l9 -45 50 68 c27 38 51 64 53 58 4 -12 -29 -74 -67 -126 -29 -40 -29 -42 -33 -195 l-4 -156 143 65 c140 64 142 65 161 110 11 25 23 69 27 97 l6 50 -91 122 c-78 105 -109 137 -210 217 -66 52 -122 95 -126 95 -3 0 -3 -10 0 -22z" id="140"/>
<path d="M6125 1947 c-222 -183 -596 -374 -935 -476 -278 -84 -530 -130 -995 -182 -178 -20 -199 -24 -140 -27 84 -4 387 22 580 49 563 79 1067 250 1406 477 138 93 151 107 147 164 l-3 45 -60 -50z" id="141"/>
<path d="M3317 1778 c66 -87 130 -159 164 -185 l55 -43 194 39 c107 21 356 62 552 92 197 29 355 55 353 57 -2 3 -99 -1 -214 -8 -480 -30 -825 17 -1109 150 -46 22 -89 40 -94 40 -5 0 40 -64 99 -142z" id="142"/>
<path d="M6120 1804 c-138 -109 -412 -248 -650 -329 -434 -148 -830 -218 -1385 -245 -121 -6 -278 -15 -350 -21 -337 -26 -687 -121 -980 -264 -107 -53 -290 -163 -282 -171 2 -2 39 12 83 32 103 47 379 139 474 158 134 27 308 36 698 36 l383 0 97 36 c53 20 133 57 177 82 44 24 85 47 90 50 6 3 4 -2 -4 -11 -18 -23 -95 -79 -167 -122 l-58 -35 47 0 c70 0 447 56 606 90 167 35 233 66 338 157 82 71 83 57 2 -31 -28 -31 -46 -56 -41 -56 28 0 265 79 412 137 220 87 610 279 610 302 0 9 -7 51 -15 94 -8 43 -15 94 -15 113 0 43 -13 43 -70 -2z" id="143"/>
<path d="M3363 1593 c-7 -32 -15 -68 -19 -80 l-6 -22 63 20 c35 11 70 23 77 25 9 3 -2 17 -30 40 -23 20 -50 44 -58 55 -14 18 -16 16 -27 -38z" id="144"/>
<path d="M3257 959 c-60 -4 -141 -13 -180 -20 l-72 -12 83 -13 c46 -6 86 -14 89 -18 4 -3 -56 -6 -133 -6 -163 0 -217 -11 -381 -76 -133 -53 -254 -117 -330 -176 -59 -45 -67 -63 -24 -55 119 24 184 14 82 -12 -67 -17 -180 -72 -222 -108 -19 -16 -47 -37 -64 -47 -65 -41 -167 -120 -158 -123 25 -9 253 76 438 162 110 51 256 113 325 138 69 25 216 79 327 121 110 42 259 92 330 111 135 37 476 109 578 122 l60 8 -60 6 c-82 9 -555 8 -688 -2z" id="145"/>
<path d="M690 1131 c-201 -75 -290 -152 -290 -252 0 -65 12 -92 55 -125 51 -38 130 -45 179 -15 l35 22 15 -34 c32 -77 142 -119 217 -83 55 26 84 78 83 150 -1 83 -61 214 -152 334 -30 39 -45 39 -142 3z" id="146"/>
<path d="M7415 1076 c-131 -200 -154 -314 -81 -394 78 -87 224 -59 265 51 l11 29 34 -21 c87 -54 214 -2 236 96 27 115 -76 218 -298 297 -40 14 -82 26 -93 26 -13 0 -36 -26 -74 -84z" id="147"/>
</g>
</svg>