<?xml version="1.0" ?><!DOCTYPE svg  PUBLIC '-//W3C//DTD SVG 20010904//EN'  'http://www.w3.org/TR/2001/REC-SVG-20010904/DTD/svg10.dtd'><svg height="850.000000pt" preserveAspectRatio="xMidYMid meet" version="1.0" viewBox="0 0 850.000000 850.000000" width="850.000000pt" xmlns="http://www.w3.org/2000/svg">
<metadata>
Created by potrace 1.14, written by Peter Selinger 2001-2017
</metadata>
<g fill="#ffffff" stroke="none" transform="translate(0.000000,850.000000) scale(0.100000,-0.100000)">
<path d="M0 4250 l0 -4250 4250 0 4250 0 0 4250 0 4250 -4250 0 -4250 0 0 -4250z m2661 3084 c135 -40 273 -136 363 -252 35 -46 52 -60 89 -70 114 -34 263 -148 368 -281 33 -42 99 -125 148 -184 109 -131 180 -237 259 -382 100 -183 163 -275 247 -360 76 -77 86 -84 203 -133 175 -75 210 -82 392 -82 275 -1 362 -23 465 -121 58 -55 105 -136 127 -221 19 -73 1 -80 -53 -23 -39 42 -122 90 -188 110 -20 6 -23 4 -17 -10 6 -16 1 -17 -51 -11 l-58 7 45 -21 c25 -12 78 -35 118 -52 120 -50 162 -97 162 -182 0 -53 -14 -65 -43 -38 -12 11 -35 25 -50 31 -35 13 -167 27 -167 17 0 -4 11 -24 25 -44 28 -41 50 -110 60 -189 l7 -53 -91 47 c-88 46 -120 51 -89 16 41 -47 62 -108 66 -195 3 -62 1 -88 -7 -88 -6 0 -16 10 -22 23 -6 12 -29 36 -52 54 l-42 32 -3 -57 c-4 -71 -14 -83 -38 -43 -25 43 -34 39 -22 -11 12 -52 4 -156 -12 -172 -9 -8 -15 -6 -24 9 -17 30 -143 155 -156 155 -6 0 -9 -4 -6 -8 11 -19 26 -142 20 -171 -9 -45 -28 -38 -63 22 -16 28 -43 68 -59 87 l-29 34 -5 -103 c-4 -75 -9 -107 -21 -118 -22 -23 -47 -9 -47 26 0 33 -33 143 -54 181 l-14 25 -7 -30 c-4 -17 -11 -43 -16 -60 -5 -16 -12 -63 -16 -102 -9 -106 -24 -111 -68 -23 -20 39 -42 99 -48 133 l-13 62 -18 -48 c-14 -33 -17 -61 -13 -96 3 -27 3 -51 0 -55 -9 -9 -44 14 -102 68 l-54 51 7 -102 c6 -97 5 -103 -13 -103 -11 0 -36 19 -56 42 -142 166 -158 472 -40 776 33 87 35 97 35 214 0 127 10 179 50 278 45 112 24 202 -96 400 -75 125 -124 196 -108 155 5 -11 9 -65 10 -120 1 -55 6 -127 12 -159 13 -87 -9 -259 -43 -326 -14 -28 -62 -88 -106 -133 -61 -62 -92 -103 -124 -167 -24 -47 -68 -119 -99 -160 -30 -41 -56 -86 -57 -100 -1 -14 -2 -40 -3 -59 0 -19 -7 -36 -14 -38 -6 -3 -36 20 -65 51 -28 30 -63 58 -77 60 -22 5 -28 0 -46 -37 -27 -55 -88 -98 -150 -104 -60 -7 -101 -35 -144 -102 -17 -28 -39 -51 -46 -51 -8 0 -23 20 -34 45 -11 25 -21 45 -24 45 -3 0 -33 -21 -68 -48 -35 -26 -110 -72 -167 -102 -57 -30 -128 -76 -157 -103 -29 -27 -58 -46 -63 -43 -5 3 -6 36 -3 72 4 60 2 72 -28 135 -19 38 -37 69 -41 69 -4 0 -23 -18 -42 -39 -45 -50 -61 -102 -45 -153 6 -21 9 -41 5 -44 -3 -3 -21 5 -39 19 -18 14 -69 42 -113 62 -146 66 -167 78 -191 114 -13 20 -29 53 -35 74 l-10 37 -72 -4 c-53 -3 -87 1 -131 16 -144 47 -255 164 -213 222 13 18 11 22 -25 48 -21 16 -67 57 -101 92 -34 35 -73 67 -86 71 l-24 7 24 14 c13 7 32 13 42 14 18 0 23 15 8 24 -4 3 -11 29 -14 57 -8 69 -27 93 -95 128 -113 57 -195 133 -245 226 l-22 40 -3 -63 c-3 -72 19 -202 53 -308 47 -149 245 -397 428 -536 90 -69 250 -165 492 -298 175 -96 197 -109 301 -182 114 -80 185 -138 196 -163 8 -19 8 -38 -2 -79 -17 -71 -9 -98 47 -152 98 -93 232 -130 443 -121 150 6 233 28 377 97 132 64 222 145 253 227 79 212 -18 387 -215 388 -111 0 -178 -44 -191 -127 -9 -56 4 -105 38 -143 26 -30 36 -35 75 -35 79 0 132 80 82 126 -15 13 -24 16 -36 8 -23 -14 -28 -34 -10 -34 21 0 32 -37 16 -56 -8 -9 -25 -14 -48 -12 -27 2 -40 11 -58 37 -33 49 -30 86 10 126 43 43 93 53 152 30 99 -37 125 -128 63 -221 -50 -73 -105 -107 -181 -112 -43 -3 -75 1 -101 12 -21 9 -40 16 -41 16 -2 0 -9 -16 -15 -35 -39 -117 -132 -147 -324 -105 -50 11 -111 20 -137 20 l-47 0 45 88 c51 100 85 139 151 173 54 27 163 38 212 21 l30 -11 0 57 c1 180 190 311 396 273 125 -23 238 -101 283 -194 68 -141 42 -300 -75 -464 l-46 -64 24 -47 c19 -38 35 -51 83 -75 l59 -29 95 16 c203 34 283 41 486 40 277 -1 400 -18 737 -103 271 -69 470 -132 523 -167 16 -10 26 -14 24 -8 -39 100 -55 122 -101 142 -31 13 -54 32 -71 58 -45 72 -310 179 -579 235 -80 16 -126 20 -208 16 -117 -5 -176 -23 -254 -76 -50 -35 -62 -35 -52 -3 7 22 24 31 121 68 101 38 260 44 403 15 164 -34 328 -87 450 -146 111 -54 114 -55 137 -37 14 9 25 21 25 26 0 4 -12 46 -26 92 -81 267 -117 611 -80 775 29 130 87 229 136 229 33 0 23 -20 -34 -74 -80 -75 -91 -120 -90 -351 0 -189 11 -276 59 -465 38 -150 59 -202 98 -241 21 -21 38 -50 42 -72 5 -27 17 -42 47 -62 22 -15 42 -25 44 -23 2 2 -8 44 -22 93 -67 244 -88 468 -81 853 6 308 20 446 63 620 74 300 225 649 359 832 l45 60 -31 44 -32 44 -25 -51 c-38 -76 -142 -175 -232 -220 -128 -64 -313 -72 -391 -16 l-29 21 -29 -31 c-47 -50 -68 -54 -231 -40 -145 12 -145 12 -228 -15 -95 -30 -192 -36 -192 -11 0 8 13 37 30 63 58 96 122 245 179 421 32 98 71 201 86 228 14 28 65 88 112 133 46 46 114 127 151 179 126 182 285 319 421 362 55 17 81 19 157 14 89 -6 95 -6 230 38 170 55 257 71 355 66 66 -4 84 -9 130 -38 l54 -34 190 -1 c254 -2 267 -8 413 -196 36 -47 131 -153 211 -235 190 -195 301 -354 397 -564 189 -412 287 -1002 244 -1466 -21 -219 -90 -537 -150 -691 -74 -188 -214 -440 -326 -589 -83 -111 -90 -140 -52 -214 43 -81 35 -126 -31 -196 -24 -25 -41 -54 -45 -76 -18 -101 -212 -189 -455 -206 -82 -6 -86 -8 -175 -66 -138 -91 -199 -117 -274 -117 -70 0 -109 15 -159 63 -63 59 -65 133 -5 190 74 70 172 51 172 -35 0 -29 -23 -58 -46 -58 -10 0 -13 7 -8 25 7 30 -18 44 -42 24 -24 -19 -13 -62 19 -77 23 -11 38 -11 78 -2 46 11 159 75 173 99 4 6 -12 22 -36 37 -24 15 -109 76 -190 135 -193 143 -398 282 -404 276 -3 -3 23 -41 58 -85 74 -94 147 -221 155 -269 5 -30 3 -33 -18 -33 -40 0 -134 61 -225 145 -48 43 -85 75 -83 70 3 -6 47 -95 98 -200 52 -104 122 -250 156 -323 35 -73 68 -139 74 -146 21 -25 30 -115 25 -238 -5 -109 -9 -130 -35 -184 -31 -66 -102 -144 -177 -196 -38 -27 -59 -33 -112 -36 -46 -3 -71 -10 -86 -23 -12 -11 -37 -22 -57 -26 -35 -5 -53 1 -123 42 -44 26 -74 15 -103 -40 -28 -53 -106 -127 -165 -157 -56 -29 -150 -35 -212 -14 -27 9 -73 34 -101 56 l-53 40 0 -88 c0 -151 -37 -240 -149 -355 -76 -79 -211 -173 -396 -277 -152 -85 -217 -133 -242 -178 -21 -38 -24 -39 -49 -11 -10 12 -86 76 -169 143 -290 234 -584 505 -660 612 -53 72 -98 162 -115 224 -6 25 -27 68 -46 95 -74 109 -104 258 -104 520 0 148 3 184 25 274 14 57 24 105 23 106 -12 10 -111 56 -114 52 -2 -2 5 -22 16 -44 67 -140 1 -287 -152 -340 -63 -21 -174 -18 -244 8 -33 12 -63 25 -68 30 -17 15 -28 10 -21 -11 12 -36 -5 -41 -48 -14 -23 14 -96 52 -162 84 -149 72 -229 125 -476 317 -208 162 -346 292 -498 468 -379 439 -562 810 -638 1295 -14 93 -18 175 -18 425 0 333 9 427 61 665 116 528 446 1066 771 1256 154 90 153 89 228 155 143 125 289 188 455 196 52 3 114 1 137 -5 32 -7 58 -5 115 9 94 23 246 24 319 3z" id="1"/>
<path d="M2605 7292 c78 -38 115 -70 161 -139 49 -73 68 -139 94 -316 20 -142 46 -240 77 -301 17 -32 101 -126 114 -126 4 0 7 60 6 133 -1 72 2 186 6 252 l9 120 -36 74 c-78 158 -275 302 -447 327 l-44 6 60 -30z" id="2"/>
<path d="M6010 7301 c-47 -10 -98 -25 -115 -32 -28 -12 -22 -13 80 -20 69 -5 154 -19 228 -38 65 -17 139 -31 165 -31 l47 1 -45 40 c-112 99 -194 117 -360 80z" id="3"/>
<path d="M2376 7292 c-3 -6 14 -20 38 -33 184 -91 306 -279 306 -468 0 -37 8 -58 39 -106 42 -64 149 -174 136 -140 -29 75 -47 153 -69 301 -20 127 -33 184 -55 229 -63 135 -180 217 -317 223 -42 3 -74 0 -78 -6z" id="4"/>
<path d="M1972 7266 c-56 -14 -185 -66 -179 -72 2 -2 39 5 82 16 53 14 111 20 179 20 155 0 250 -33 319 -109 65 -72 70 -93 77 -326 6 -183 9 -217 29 -267 25 -64 77 -137 121 -168 l30 -21 -8 33 c-13 58 -6 159 17 285 21 109 22 130 12 199 -29 195 -189 359 -402 409 -77 18 -204 18 -277 1z" id="5"/>
<path d="M6410 7236 c0 -3 15 -16 33 -30 23 -18 63 -31 133 -45 111 -22 237 -65 321 -110 31 -17 59 -29 61 -26 8 8 -112 148 -147 172 -19 13 -50 27 -70 33 -35 10 -331 15 -331 6z" id="6"/>
<path d="M5740 7221 c-24 -7 -23 -8 15 -19 22 -7 79 -22 126 -34 l86 -22 116 19 c64 10 115 21 112 23 -24 25 -397 52 -455 33z" id="7"/>
<path d="M5438 7201 c-74 -24 -178 -94 -258 -175 -35 -36 -62 -66 -59 -66 3 0 41 9 85 21 59 16 120 22 244 26 l165 5 110 43 c61 24 122 47 138 51 34 8 43 21 20 28 -10 3 -61 17 -113 32 -227 63 -240 64 -332 35z" id="8"/>
<path d="M1874 7180 c-39 -10 -100 -33 -135 -52 l-64 -33 95 -6 c176 -10 279 -58 410 -190 101 -103 157 -192 205 -330 50 -143 126 -240 223 -283 40 -18 73 -15 42 4 -47 29 -116 91 -146 132 -65 88 -77 138 -84 368 -7 220 -12 245 -65 308 -32 38 -89 69 -160 88 -73 20 -235 17 -321 -6z" id="9"/>
<path d="M6230 7127 c-93 -16 -125 -33 -194 -102 -48 -48 -56 -61 -70 -124 -19 -81 -21 -182 -5 -267 8 -46 59 -240 85 -322 3 -9 16 -5 46 16 67 45 130 65 187 60 44 -4 53 -2 74 21 35 37 46 62 73 165 46 173 139 326 251 411 l44 34 -23 15 c-37 24 -116 57 -186 77 -87 25 -191 31 -282 16z" id="10"/>
<path d="M6684 7088 c10 -7 46 -31 80 -53 78 -51 243 -210 363 -349 228 -265 369 -538 454 -876 31 -121 79 -384 79 -432 0 -19 -20 -5 -40 27 -12 19 -37 53 -55 75 l-33 39 -12 -29 c-11 -27 -9 -32 23 -72 19 -24 57 -79 83 -123 l49 -80 -1 -195 c-2 -211 -12 -329 -46 -512 -21 -115 -22 -118 -41 -100 -10 9 -26 30 -34 47 -22 43 -43 64 -58 59 -27 -11 -23 -34 16 -81 21 -26 47 -67 55 -90 17 -43 16 -44 -21 -151 -53 -153 -131 -308 -230 -456 -81 -121 -98 -156 -75 -156 12 0 125 150 214 286 80 124 175 316 215 441 34 104 73 282 92 423 20 140 17 542 -4 705 -52 392 -158 735 -309 999 -161 281 -409 516 -655 621 -43 18 -89 36 -103 39 -23 6 -23 5 -6 -6z" id="11"/>
<path d="M5942 7055 c-203 -78 -435 -230 -609 -399 -47 -45 -53 -55 -53 -91 0 -55 23 -129 77 -250 53 -117 83 -227 83 -302 0 -52 1 -54 23 -48 126 38 265 158 313 271 14 31 17 67 15 178 -2 162 11 261 48 367 34 95 81 175 145 245 26 30 42 54 35 54 -8 -1 -42 -12 -77 -25z" id="12"/>
<path d="M1615 7031 c-59 -17 -241 -118 -232 -128 3 -2 49 1 104 7 230 28 419 -25 547 -153 36 -37 76 -91 99 -134 38 -73 76 -200 78 -257 l0 -31 12 25 c19 42 14 275 -7 345 -44 146 -113 229 -241 290 -121 57 -244 70 -360 36z" id="13"/>
<path d="M5644 6976 c-171 -83 -375 -227 -500 -353 -32 -32 -156 -182 -277 -333 -121 -151 -233 -290 -250 -307 -17 -18 -28 -35 -25 -39 9 -9 196 181 390 396 96 107 213 233 259 280 136 137 328 284 506 387 73 42 7 23 -103 -31z" id="14"/>
<path d="M5350 6984 c-96 -15 -153 -28 -203 -46 -53 -19 -64 -28 -118 -101 -32 -45 -57 -82 -56 -84 2 -1 19 2 38 7 19 6 75 17 124 25 134 23 195 43 246 81 26 18 76 51 113 73 58 34 64 39 44 45 -24 6 -145 6 -188 0z" id="15"/>
<path d="M6714 6962 c-104 -76 -203 -230 -241 -376 -33 -126 6 -134 203 -43 126 59 215 91 358 129 l48 13 -105 111 c-91 95 -202 194 -219 194 -3 0 -23 -13 -44 -28z" id="16"/>
<path d="M3094 6945 c4 -11 12 -65 16 -120 10 -129 61 -278 130 -375 10 -14 41 -72 70 -129 l53 -103 28 64 c45 100 55 159 40 231 -32 155 -163 335 -316 433 -29 19 -29 19 -21 -1z" id="17"/>
<path d="M3282 6841 c87 -92 150 -203 174 -307 20 -88 13 -134 -38 -254 -35 -84 -39 -101 -34 -147 4 -35 1 -67 -9 -95 -8 -23 -12 -44 -10 -46 2 -2 16 3 32 11 102 54 173 232 158 400 -11 135 -45 222 -131 336 -45 60 -183 181 -206 181 -5 0 23 -36 64 -79z" id="18"/>
<path d="M5900 6827 c-46 -102 -61 -172 -67 -320 -7 -165 9 -245 59 -296 17 -18 34 -30 37 -29 20 9 91 98 91 114 0 10 -19 86 -42 169 -40 143 -42 157 -43 287 0 76 -1 138 -3 138 -2 0 -16 -28 -32 -63z" id="19"/>
<path d="M1457 6861 c-13 -5 1 -11 45 -20 93 -19 180 -65 253 -132 74 -70 109 -120 196 -282 64 -121 74 -132 167 -192 l53 -34 -6 87 c-13 174 -38 259 -107 363 -71 105 -178 175 -315 204 -70 15 -254 19 -286 6z" id="20"/>
<path d="M1325 6758 c4 -35 13 -74 20 -88 22 -42 127 -135 221 -195 49 -32 115 -75 146 -95 56 -36 93 -47 226 -65 l42 -5 -31 57 c-97 176 -129 223 -199 294 -107 108 -225 159 -368 159 l-64 0 7 -62z" id="21"/>
<path d="M1259 6774 c-45 -116 -55 -178 -40 -260 14 -77 69 -186 126 -251 25 -29 113 -111 196 -183 218 -192 299 -307 350 -495 34 -126 35 -127 47 -70 16 74 8 219 -17 289 -40 113 -88 170 -280 335 -147 125 -270 262 -312 347 -26 52 -31 78 -39 184 -6 68 -12 125 -15 128 -2 3 -10 -8 -16 -24z" id="22"/>
<path d="M5140 6754 c-180 -32 -266 -79 -337 -183 -32 -47 -55 -101 -94 -224 -29 -89 -69 -202 -90 -251 -22 -49 -37 -91 -35 -93 2 -3 48 51 102 119 54 68 159 200 233 293 75 94 178 212 230 263 51 50 87 92 80 91 -8 -1 -48 -7 -89 -15z" id="23"/>
<path d="M1136 6608 c-77 -159 -96 -302 -56 -431 45 -145 157 -245 509 -453 157 -93 222 -148 274 -235 l39 -64 -7 49 c-18 134 -92 294 -183 400 -31 36 -123 122 -204 191 -161 137 -233 216 -277 303 -42 84 -55 152 -48 249 3 45 4 83 2 83 -3 0 -25 -42 -49 -92z" id="24"/>
<path d="M3090 6613 c0 -53 10 -115 30 -194 39 -152 48 -178 60 -159 6 10 10 -27 10 -104 l0 -119 25 23 c58 54 78 144 54 235 -6 22 -39 96 -73 165 -35 69 -71 149 -80 178 -10 28 -19 52 -22 52 -2 0 -4 -35 -4 -77z" id="25"/>
<path d="M6975 6630 c-110 -32 -203 -69 -309 -122 l-68 -34 83 -2 c111 -2 222 -31 344 -91 131 -65 260 -156 363 -259 93 -93 95 -90 23 63 -71 149 -188 333 -290 453 -24 27 -24 27 -146 -8z" id="26"/>
<path d="M1340 6592 c0 -24 32 -96 62 -139 46 -68 168 -192 278 -286 52 -44 119 -103 149 -131 l53 -51 -6 62 c-12 131 -77 213 -270 341 -72 48 -161 116 -198 151 -38 35 -68 59 -68 53z" id="27"/>
<path d="M2728 6569 c-24 -14 -22 -24 6 -37 14 -6 44 -28 67 -49 39 -35 42 -36 55 -19 11 16 10 23 -13 53 -24 31 -70 63 -90 63 -4 0 -16 -5 -25 -11z" id="28"/>
<path d="M3564 6564 c4 -10 14 -48 22 -83 20 -84 30 -103 140 -254 102 -140 180 -262 240 -377 l39 -75 3 48 c3 43 -4 61 -73 188 -101 187 -189 330 -281 455 -75 104 -104 135 -90 98z" id="29"/>
<path d="M5241 6544 c-51 -111 -91 -283 -91 -398 0 -123 28 -177 103 -197 53 -14 156 -2 164 19 13 32 -18 187 -54 272 -76 182 -93 231 -101 281 l-7 53 -14 -30z" id="30"/>
<path d="M987 6442 c-186 -301 -295 -625 -343 -1017 -20 -168 -23 -540 -5 -695 49 -425 189 -774 457 -1136 30 -42 58 -74 60 -71 2 2 -26 53 -62 113 -307 501 -462 1094 -425 1631 16 223 50 409 101 541 11 29 20 69 20 90 0 95 82 275 166 362 41 43 54 64 54 87 0 16 9 63 19 103 11 41 18 76 16 78 -1 2 -28 -37 -58 -86z" id="31"/>
<path d="M2700 6467 c0 -24 5 -69 11 -101 10 -48 15 -56 30 -51 14 5 19 1 19 -12 0 -11 -5 -24 -11 -30 -8 -8 -6 -19 5 -42 l17 -31 -36 0 c-42 0 -47 -22 -14 -64 17 -21 29 -26 68 -26 26 0 52 5 59 12 21 21 14 -41 -8 -69 -12 -16 -20 -41 -20 -64 0 -39 31 -122 50 -134 6 -4 26 5 45 19 18 14 36 26 39 26 14 0 4 -42 -13 -59 -11 -11 -24 -29 -30 -40 -17 -30 -13 -112 7 -151 15 -31 21 -35 55 -34 34 1 37 -1 31 -20 -3 -11 -14 -30 -24 -41 -31 -36 -40 -63 -40 -122 0 -86 25 -101 99 -63 42 21 101 67 101 79 0 4 -19 14 -41 21 -38 13 -40 15 -20 24 18 8 21 17 21 79 l0 69 -25 -16 -25 -16 7 32 c3 18 13 46 21 62 16 33 18 160 2 201 -11 29 -26 31 -58 9 -29 -20 -29 -3 -1 61 32 73 12 151 -47 177 -21 10 -28 8 -50 -13 l-27 -24 7 33 c3 17 9 45 12 62 9 46 -3 92 -35 130 l-29 35 -24 -22 c-13 -13 -27 -23 -30 -23 -3 0 -8 28 -12 61 -7 69 -11 76 -55 102 l-31 18 0 -44z" id="32"/>
<path d="M5139 6462 c-25 -26 -41 -56 -53 -100 -32 -123 -107 -236 -224 -342 l-71 -65 57 -13 c31 -7 84 -15 117 -18 52 -5 64 -3 89 17 43 34 56 76 56 180 0 91 26 247 55 329 8 24 14 45 12 46 -2 2 -19 -13 -38 -34z" id="33"/>
<path d="M2884 6436 c-4 -19 4 -38 37 -83 24 -32 44 -60 45 -61 7 -10 44 12 49 29 7 22 -37 80 -91 117 l-34 22 -6 -24z" id="34"/>
<path d="M6437 6373 c-31 -51 -35 -40 42 -137 38 -47 88 -163 111 -254 18 -71 40 -270 40 -362 0 -115 28 -212 95 -330 125 -221 163 -333 152 -458 -12 -144 -88 -274 -257 -441 -46 -47 -76 -81 -65 -77 52 20 134 36 183 36 72 0 108 -23 152 -97 19 -32 63 -85 97 -118 58 -57 93 -108 93 -137 0 -8 23 -54 51 -103 45 -78 51 -97 56 -162 3 -41 9 -75 13 -78 12 -7 161 228 215 340 61 125 115 273 115 314 0 33 -43 96 -91 132 -32 24 -108 60 -204 96 -54 20 -67 33 -105 106 -18 34 -54 94 -80 132 -25 39 -50 79 -54 90 -17 44 -23 123 -15 184 10 72 67 211 87 211 7 0 31 -12 53 -27 35 -23 54 -27 142 -33 66 -3 113 -11 133 -22 79 -43 144 -168 155 -298 4 -47 14 -106 24 -133 11 -32 15 -62 11 -90 -16 -113 -18 -145 -8 -151 20 -12 54 311 55 539 2 183 0 190 -97 320 l-53 70 -139 -3 c-223 -6 -239 -5 -285 15 -24 11 -69 42 -99 70 -61 56 -127 93 -164 93 -32 0 -44 20 -21 36 16 12 15 15 -13 44 -36 36 -69 117 -77 192 -3 29 -11 72 -17 96 -13 52 2 116 31 132 33 17 204 42 249 36 113 -15 249 -71 275 -113 4 -7 13 -13 19 -13 6 0 3 12 -7 26 -26 39 -7 51 49 30 109 -42 176 -129 176 -231 0 -28 4 -55 9 -61 5 -5 20 -45 35 -89 24 -72 83 -192 91 -183 15 17 -60 352 -92 408 -76 132 -223 268 -390 361 -165 91 -210 103 -403 104 -132 1 -173 4 -204 18 -21 9 -39 17 -40 17 0 0 -14 -21 -29 -47z" id="35"/>
<path d="M4947 6252 c-59 -66 -161 -172 -228 -237 -124 -120 -124 -124 -15 -75 84 38 168 109 238 201 57 74 123 199 116 220 -2 5 -52 -43 -111 -109z" id="36"/>
<path d="M2291 6321 l-24 -19 51 -59 c64 -73 90 -88 159 -88 29 0 53 -4 53 -8 0 -4 -10 -21 -22 -38 -32 -43 -29 -95 7 -126 24 -21 36 -24 77 -21 40 4 48 2 48 -12 0 -9 -9 -25 -20 -35 -26 -24 -36 -80 -19 -112 16 -29 58 -53 94 -53 33 0 32 -13 -7 -49 l-32 -30 11 -68 c13 -73 37 -105 73 -96 28 7 25 -14 -9 -65 -28 -41 -29 -43 -15 -88 8 -26 19 -53 25 -60 24 -29 95 -11 134 33 19 22 24 40 25 78 0 70 -21 99 -66 90 -19 -3 -34 -3 -34 0 0 17 22 45 35 45 26 0 47 56 39 105 -5 34 -15 53 -44 79 -20 18 -43 36 -51 38 -11 4 -9 10 7 29 12 13 24 32 27 42 8 21 -26 117 -45 129 -20 12 -62 10 -77 -4 -15 -14 -15 -16 10 74 13 46 12 47 -25 103 l-37 56 -34 -21 -35 -22 0 42 c0 40 -1 42 -52 65 -29 13 -73 38 -98 54 -52 35 -94 39 -129 12z" id="37"/>
<path d="M3034 6269 c-19 -38 -15 -63 24 -149 l30 -64 22 43 c27 53 22 85 -21 153 -17 26 -33 48 -35 48 -2 0 -11 -14 -20 -31z" id="38"/>
<path d="M2246 6229 c-3 -17 -6 -60 -6 -95 0 -41 -4 -64 -11 -64 -7 0 -39 17 -73 38 -65 41 -124 68 -131 60 -3 -3 29 -37 70 -77 61 -60 79 -72 98 -67 75 22 77 21 77 -17 0 -19 -7 -40 -16 -48 -17 -14 -12 -49 12 -86 11 -18 24 -23 54 -23 22 0 40 -2 40 -4 0 -2 -7 -20 -15 -39 -22 -53 -19 -75 15 -109 26 -25 37 -29 71 -26 31 3 39 0 37 -12 -2 -8 -16 -21 -31 -28 -33 -16 -50 -54 -42 -92 7 -34 52 -77 84 -82 24 -3 23 -3 -13 -47 -30 -36 -36 -51 -34 -80 4 -48 33 -63 121 -59 85 5 111 26 109 89 -3 61 -16 72 -79 67 -29 -3 -53 -1 -53 4 0 5 23 30 51 56 49 45 51 48 46 92 -6 51 -37 84 -74 77 -29 -5 -32 23 -3 41 42 26 9 134 -45 148 -13 3 -38 1 -55 -4 -18 -7 -32 -7 -35 -1 -8 13 4 48 27 79 17 23 17 30 6 65 -10 31 -20 41 -47 49 -22 6 -43 6 -62 -1 -26 -10 -29 -9 -29 10 0 12 9 36 20 52 11 17 20 36 20 44 0 14 -80 120 -91 121 -4 0 -9 -14 -13 -31z" id="39"/>
<path d="M3605 6220 c-4 -12 -21 -45 -38 -73 -83 -139 -108 -163 -221 -209 -63 -26 -146 -88 -146 -109 0 -4 22 7 50 26 47 32 106 54 232 90 101 28 169 128 154 228 -9 57 -22 77 -31 47z" id="40"/>
<path d="M982 6166 c-115 -181 -24 -377 236 -508 42 -21 64 -35 47 -32 -101 22 -225 92 -284 159 -59 68 -86 139 -86 228 l1 77 -19 -36 c-10 -20 -25 -67 -33 -106 -27 -129 10 -232 114 -313 112 -88 241 -119 382 -92 88 16 300 79 300 88 0 4 -46 33 -102 65 -130 73 -289 180 -354 238 -65 57 -120 137 -149 217 l-23 63 -30 -48z" id="41"/>
<path d="M6090 6123 c-146 -73 -302 -254 -410 -478 -104 -215 -164 -404 -194 -606 -18 -121 -36 -355 -35 -449 l0 -65 58 175 c32 96 81 232 109 301 46 114 51 134 55 225 4 88 25 229 33 222 1 -2 -1 -51 -6 -110 -5 -58 -6 -118 -2 -132 7 -25 11 -20 59 61 28 48 61 120 73 158 62 205 118 309 245 459 59 70 188 172 266 212 27 13 49 26 49 29 0 2 -13 11 -30 20 -49 25 -83 19 -146 -29 -134 -100 -221 -220 -361 -501 -105 -212 -119 -222 -56 -40 78 225 172 384 302 508 45 42 77 77 72 77 -4 0 -41 -16 -81 -37z" id="42"/>
<path d="M1971 6080 c-19 -86 -17 -90 33 -90 60 0 76 20 52 63 -10 18 -30 42 -46 55 l-28 22 -11 -50z" id="43"/>
<path d="M6838 6109 c-98 -14 -122 -23 -136 -52 -17 -35 -7 -69 32 -109 29 -29 44 -36 111 -46 42 -7 97 -21 121 -31 24 -11 44 -16 44 -10 0 5 -19 30 -42 56 -51 55 -127 93 -185 93 -24 0 -43 5 -43 10 0 11 135 80 157 80 6 0 15 5 18 10 7 11 4 11 -77 -1z" id="44"/>
<path d="M3128 6053 l-26 -48 16 -100 c12 -81 17 -96 26 -81 6 10 29 42 51 70 45 58 105 155 105 170 0 5 -12 -2 -27 -15 -16 -14 -50 -38 -77 -54 l-49 -28 5 67 c3 36 5 66 3 66 -1 0 -13 -21 -27 -47z" id="45"/>
<path d="M6350 6073 c-234 -138 -407 -361 -481 -622 -10 -36 -17 -67 -14 -69 2 -3 76 64 163 149 220 214 317 285 489 355 20 9 21 11 8 48 -7 21 -17 42 -22 47 -24 24 -179 -89 -385 -281 -84 -78 -104 -94 -81 -61 100 138 274 295 390 353 38 18 60 35 56 42 -23 41 -47 66 -61 66 -9 0 -37 -12 -62 -27z" id="46"/>
<path d="M6960 6084 c-43 -9 -120 -35 -120 -42 0 -4 22 -17 48 -29 29 -13 76 -51 118 -94 59 -61 140 -116 152 -104 5 5 -79 114 -107 139 -11 11 -21 26 -21 34 0 12 12 14 74 9 40 -4 86 -11 101 -17 15 -6 30 -8 33 -6 8 8 -58 66 -98 86 -37 19 -135 32 -180 24z" id="47"/>
<path d="M3646 6026 c-30 -59 -83 -91 -192 -116 -103 -24 -197 -66 -234 -105 -27 -29 -19 -31 41 -9 35 13 67 14 162 9 108 -6 120 -5 163 16 62 30 86 81 82 176 l-3 68 -19 -39z" id="48"/>
<path d="M7280 6033 c0 -3 8 -31 17 -61 17 -53 101 -162 124 -162 18 0 9 78 -14 121 -29 54 -127 133 -127 102z" id="49"/>
<path d="M2028 5963 l-36 -4 31 -50 c20 -33 45 -58 72 -71 22 -11 42 -22 44 -24 2 -2 -4 -20 -15 -39 -19 -35 -19 -35 5 -80 20 -37 29 -45 52 -45 21 0 27 -4 23 -15 -4 -8 -14 -15 -24 -15 -30 0 -40 -57 -18 -104 7 -17 22 -28 44 -32 27 -5 32 -9 25 -22 -5 -9 -22 -16 -38 -17 -26 0 -28 -3 -31 -41 l-3 -41 55 5 c44 3 65 -1 111 -22 32 -14 59 -26 61 -26 7 0 4 55 -4 66 -16 23 -58 44 -90 44 -30 0 -32 2 -22 20 7 13 21 20 39 20 45 0 57 22 42 78 -15 58 -22 65 -62 64 -18 0 -36 1 -41 4 -11 7 2 34 18 34 26 0 37 39 23 82 -14 43 -33 58 -73 58 -31 0 -36 29 -6 37 11 3 20 10 20 17 -1 23 -49 89 -79 107 -31 18 -46 20 -123 12z" id="50"/>
<path d="M7091 5963 c12 -30 140 -175 174 -198 33 -21 50 -25 95 -23 48 3 55 6 58 26 2 12 -2 22 -8 22 -7 0 -44 31 -84 70 -39 38 -87 76 -106 84 -45 18 -134 32 -129 19z" id="51"/>
<path d="M6726 5839 c29 -124 68 -161 168 -157 36 2 66 4 66 6 0 15 -51 74 -73 83 -37 16 -30 32 19 43 69 15 71 16 51 27 -10 6 -59 19 -110 30 -51 10 -102 21 -114 25 l-22 6 15 -63z" id="52"/>
<path d="M6440 5832 c-112 -56 -217 -139 -396 -314 -88 -87 -172 -164 -187 -171 -36 -19 -132 -177 -115 -189 22 -14 93 -9 118 9 14 9 79 69 145 132 181 174 349 305 478 372 62 31 67 37 67 67 0 17 -4 32 -8 32 -17 0 -203 -127 -340 -232 -151 -116 -173 -117 -50 -3 92 86 210 174 311 232 69 40 78 48 75 71 -2 14 -8 27 -13 29 -6 2 -44 -14 -85 -35z" id="53"/>
<path d="M3737 5810 c-3 -14 -9 -46 -12 -72 -9 -71 -59 -160 -119 -215 -83 -76 -163 -90 -298 -53 -40 11 -88 20 -108 19 l-35 0 55 -26 c95 -43 192 -73 239 -73 132 1 263 139 290 307 10 63 0 161 -12 113z" id="54"/>
<path d="M4056 5786 c-8 -32 9 -117 33 -165 35 -67 109 -83 270 -58 l75 12 -119 55 c-96 44 -133 67 -186 118 -64 60 -67 61 -73 38z" id="55"/>
<path d="M6944 5792 c-20 -13 60 -107 111 -132 68 -33 156 -37 227 -10 31 11 67 30 80 40 l23 19 -45 1 c-30 0 -60 9 -90 26 -82 48 -267 82 -306 56z" id="56"/>
<path d="M2034 5764 c4 -15 10 -40 13 -58 6 -31 21 -49 34 -40 11 6 -31 124 -43 124 -6 0 -7 -11 -4 -26z" id="57"/>
<path d="M3660 5747 c-26 -13 -53 -17 -109 -15 l-73 3 -27 -38 c-35 -50 -91 -94 -175 -139 -42 -22 -65 -39 -56 -41 8 -3 59 -14 112 -26 80 -17 106 -19 145 -11 87 20 174 108 208 211 23 68 18 78 -25 56z" id="58"/>
<path d="M3261 5734 c-19 -8 -54 -30 -78 -50 -41 -34 -43 -38 -43 -90 0 -30 4 -54 10 -54 6 0 32 11 59 25 66 33 131 118 131 171 0 18 -35 18 -79 -2z" id="59"/>
<path d="M7441 5727 c-6 -16 -16 -61 -21 -100 -14 -97 -23 -114 -67 -133 l-38 -17 65 -8 c77 -10 104 3 114 52 10 52 7 80 -18 159 -23 73 -24 74 -35 47z" id="60"/>
<path d="M6413 5597 c-147 -98 -316 -241 -426 -357 -103 -111 -110 -124 -71 -155 27 -22 31 -22 59 -8 41 22 88 57 166 125 122 105 239 188 329 230 85 41 89 45 90 76 0 18 -5 32 -12 32 -17 0 -85 -41 -253 -152 l-150 -99 70 67 c84 80 186 154 278 200 l67 34 0 45 c0 29 -4 45 -12 45 -7 0 -68 -37 -135 -83z" id="61"/>
<path d="M6875 5653 c-49 -11 -49 -15 2 -39 28 -14 78 -49 111 -78 33 -30 75 -59 94 -64 79 -25 90 -24 174 17 79 38 83 41 102 93 11 29 19 54 18 55 -1 2 -26 -6 -54 -17 -82 -31 -185 -27 -279 10 -69 28 -117 34 -168 23z" id="62"/>
<path d="M2031 5598 c-9 -37 -8 -45 6 -55 22 -17 50 -17 60 -1 12 20 3 72 -15 86 -27 21 -39 14 -51 -30z" id="63"/>
<path d="M4002 5492 c-31 -82 -58 -209 -48 -219 2 -3 12 10 22 29 9 18 33 55 51 83 34 48 35 52 28 115 -4 36 -10 68 -14 72 -4 4 -21 -32 -39 -80z" id="64"/>
<path d="M1605 5518 c-33 -16 -73 -43 -90 -58 -36 -34 -135 -85 -199 -102 -35 -9 -54 -9 -76 -1 -28 10 -30 10 -30 -11 0 -28 22 -49 74 -70 77 -32 123 -14 197 75 93 111 133 149 182 174 39 19 45 25 26 25 -13 -1 -51 -15 -84 -32z" id="65"/>
<path d="M4830 5532 c0 -4 22 -15 49 -25 27 -9 72 -38 100 -63 35 -31 78 -57 136 -79 47 -19 99 -43 115 -55 43 -31 39 -6 -10 68 -74 110 -171 161 -307 162 -46 0 -83 -3 -83 -8z" id="66"/>
<path d="M2010 5503 c0 -31 68 -113 94 -113 3 0 6 18 6 40 0 38 -3 41 -50 65 -45 23 -50 24 -50 8z" id="67"/>
<path d="M4447 5481 c21 -15 56 -48 77 -72 40 -47 159 -276 197 -379 21 -57 23 -60 32 -39 5 13 9 70 9 125 1 175 -30 235 -165 329 -66 46 -108 63 -156 64 l-34 1 40 -29z" id="68"/>
<path d="M4684 5481 c19 -31 307 -144 323 -127 9 9 -73 88 -111 108 -47 24 -225 40 -212 19z" id="69"/>
<path d="M4130 5438 c-11 -39 -10 -47 15 -98 37 -74 105 -156 116 -138 5 7 9 56 9 108 0 71 -5 104 -18 130 -15 32 -22 35 -64 38 l-47 3 -11 -43z" id="70"/>
<path d="M1440 5458 c-14 -6 -72 -14 -128 -17 l-104 -6 22 -27 c14 -19 31 -28 50 -28 36 0 122 32 175 65 41 25 31 33 -15 13z" id="71"/>
<path d="M4389 5424 c72 -82 101 -195 101 -396 0 -109 1 -118 25 -146 23 -27 92 -69 100 -60 12 12 26 162 21 216 -13 126 -73 269 -145 345 -24 26 -119 87 -136 87 -3 0 12 -21 34 -46z" id="72"/>
<path d="M1686 5435 c-71 -29 -143 -78 -216 -146 l-55 -52 60 7 c90 9 190 62 259 137 31 33 56 64 56 70 0 16 -43 10 -104 -16z" id="73"/>
<path d="M4304 5437 c3 -14 13 -77 21 -140 22 -172 64 -287 124 -341 l21 -19 0 54 c-1 147 -30 306 -68 369 -22 35 -63 80 -86 92 -17 9 -18 7 -12 -15z" id="74"/>
<path d="M1815 5410 c-24 -46 -115 -132 -173 -163 -64 -35 -177 -59 -234 -51 -24 3 -76 15 -117 25 -101 26 -110 25 -81 -6 32 -34 158 -129 199 -150 28 -14 49 -16 107 -11 155 14 220 43 320 143 50 50 52 54 43 85 -5 18 -9 48 -9 66 0 30 -24 92 -35 92 -2 0 -11 -14 -20 -30z" id="75"/>
<path d="M6460 5399 c-144 -78 -369 -268 -451 -382 -24 -33 -29 -50 -29 -99 0 -32 3 -58 6 -58 3 0 29 21 58 46 147 133 397 278 542 314 l42 10 -26 63 c-14 34 -27 81 -30 105 -6 53 -15 53 -112 1z" id="76"/>
<path d="M1955 5380 c-8 -16 -15 -47 -15 -69 0 -39 0 -40 30 -31 17 5 30 6 30 2 0 -16 -51 -65 -152 -145 -106 -85 -168 -116 -237 -118 -26 -1 -26 -1 3 -11 71 -26 313 47 384 114 39 38 92 124 92 152 0 19 -95 136 -111 136 -5 0 -15 -13 -24 -30z" id="77"/>
<path d="M4760 5353 c68 -77 128 -198 144 -293 10 -62 14 -71 21 -50 22 69 -7 258 -51 325 -12 19 -128 75 -155 75 -6 0 13 -26 41 -57z" id="78"/>
<path d="M766 5335 c29 -176 97 -338 222 -530 120 -185 283 -358 449 -477 123 -89 336 -219 461 -283 128 -65 145 -66 225 -15 49 31 87 81 87 115 0 32 -39 80 -115 140 -84 66 -138 99 -400 240 -530 286 -717 447 -891 767 -40 75 -44 79 -38 43z" id="79"/>
<path d="M3135 5340 c-58 -23 -75 -42 -75 -84 0 -23 8 -36 30 -51 38 -25 77 -104 86 -173 4 -29 12 -52 18 -51 32 4 51 -4 82 -35 l33 -33 7 44 c17 115 -32 256 -108 312 -48 36 -28 42 23 8 60 -40 109 -141 109 -224 0 -18 4 -33 8 -33 11 0 80 95 109 151 30 58 26 107 -12 138 -25 19 -172 52 -230 51 -16 -1 -52 -10 -80 -20z" id="80"/>
<path d="M4070 5333 c-59 -41 -83 -94 -196 -432 -31 -93 -26 -113 11 -41 55 109 93 158 151 197 81 54 99 82 98 151 -1 32 -9 76 -20 100 l-19 42 -25 -17z" id="81"/>
<path d="M2166 5304 c-9 -8 -16 -25 -16 -37 0 -27 -32 -89 -72 -140 -16 -21 -28 -40 -26 -42 6 -6 188 60 237 84 62 32 69 47 44 90 -11 20 -31 42 -44 48 -34 18 -104 16 -123 -3z" id="82"/>
<path d="M710 5264 c0 -86 49 -363 80 -456 83 -249 216 -465 389 -638 124 -124 226 -197 511 -370 209 -128 321 -214 475 -369 71 -72 136 -131 143 -131 7 0 26 7 42 15 25 13 30 22 30 51 0 57 -27 100 -113 177 -182 164 -207 191 -237 250 -17 33 -30 69 -30 79 0 47 -68 100 -369 288 -326 203 -494 360 -663 619 -81 125 -187 335 -223 446 -15 44 -29 82 -31 84 -2 2 -4 -18 -4 -45z" id="83"/>
<path d="M4936 5272 c4 -15 12 -51 18 -79 6 -29 16 -57 22 -63 10 -10 193 -34 201 -27 2 2 -24 19 -58 36 -33 18 -58 35 -55 38 9 9 134 -54 161 -81 23 -23 25 -24 25 -5 0 53 -41 84 -209 158 l-113 50 8 -27z" id="84"/>
<path d="M4786 5223 c3 -32 14 -84 25 -116 10 -31 19 -79 19 -106 0 -40 4 -53 22 -65 21 -15 23 -15 29 3 9 24 -6 144 -24 197 -18 48 -65 144 -72 144 -3 0 -2 -26 1 -57z" id="85"/>
<path d="M2738 5224 c-27 -8 -22 -19 30 -68 54 -50 72 -94 72 -173 0 -56 -23 -143 -50 -190 -18 -31 -18 -31 4 -52 l22 -20 40 47 c65 75 69 86 68 197 0 120 -14 175 -57 221 -32 35 -85 50 -129 38z" id="86"/>
<path d="M2880 5224 c0 -3 11 -21 24 -42 14 -20 30 -57 36 -81 13 -51 18 -194 7 -233 -6 -24 -4 -28 12 -28 33 0 44 35 39 129 -4 76 -3 83 8 56 20 -47 27 -112 16 -145 -13 -37 -3 -39 44 -9 56 34 78 94 64 171 -22 112 -60 150 -179 172 -39 8 -71 12 -71 10z" id="87"/>
<path d="M2340 5179 c-27 -27 -61 -44 -145 -74 -147 -51 -177 -67 -219 -116 -81 -95 -99 -232 -40 -305 16 -20 40 -44 54 -53 23 -15 24 -15 15 4 -17 41 -18 164 -1 209 35 92 154 175 323 225 86 25 133 61 133 101 0 60 -65 66 -120 9z" id="88"/>
<path d="M2610 5214 c0 -3 13 -17 30 -30 40 -34 55 -92 37 -136 -19 -43 -33 -55 -157 -130 -94 -57 -106 -67 -116 -103 -14 -44 -16 -138 -6 -201 l7 -41 102 56 c142 78 224 145 239 196 30 97 9 250 -44 331 -18 26 -32 51 -32 56 0 4 -13 8 -30 8 -16 0 -30 -3 -30 -6z" id="89"/>
<path d="M2486 5180 c6 -25 1 -36 -33 -69 -31 -31 -56 -44 -128 -66 -157 -47 -259 -115 -298 -197 -27 -58 -23 -153 11 -218 31 -61 52 -75 52 -35 0 42 24 84 104 176 89 103 157 156 291 227 141 74 139 73 125 116 -12 38 -80 96 -112 96 -14 0 -16 -6 -12 -30z" id="90"/>
<path d="M7109 5182 c29 -41 89 -75 175 -97 74 -19 137 -61 172 -113 19 -27 24 -30 34 -17 27 32 -41 152 -108 192 -29 18 -53 23 -112 23 -67 1 -97 7 -164 35 -18 8 -18 6 3 -23z" id="91"/>
<path d="M4295 5169 c-6 -31 1 -56 40 -148 26 -62 45 -114 42 -117 -13 -13 -107 171 -107 209 0 7 -13 23 -29 35 l-30 22 6 -38 c2 -20 11 -57 19 -81 18 -57 18 -61 -5 -61 -15 0 -20 10 -25 45 -4 25 -10 45 -14 45 -4 0 -20 -11 -36 -23 -24 -20 -28 -28 -22 -51 5 -22 11 -27 27 -23 33 9 18 -23 -21 -44 -25 -14 -36 -16 -41 -7 -5 7 -3 18 2 24 12 15 1 64 -15 64 -13 0 -57 -29 -68 -44 -4 -6 -8 -19 -8 -28 0 -14 6 -16 30 -11 23 4 30 2 30 -11 0 -15 -6 -17 -50 -20 -8 -1 -16 -11 -18 -23 -3 -19 1 -23 21 -23 33 0 104 26 123 45 9 8 20 12 25 9 18 -11 69 17 69 38 0 13 6 18 17 16 27 -5 28 -35 1 -43 -13 -4 -36 -17 -53 -29 -25 -19 -70 -38 -145 -63 -11 -3 -7 -9 14 -20 38 -20 101 -4 109 28 4 16 11 19 27 14 26 -8 72 19 64 39 -3 7 2 16 10 19 9 4 16 2 16 -3 0 -6 7 -10 15 -10 18 0 18 -5 5 -31 -6 -10 -16 -19 -23 -19 -7 0 -27 -10 -45 -23 -17 -13 -49 -30 -72 -37 -31 -10 -38 -16 -29 -27 21 -24 89 -13 89 14 0 11 7 13 23 9 30 -7 68 19 60 41 -5 13 -2 15 20 9 20 -5 32 -1 46 13 14 14 23 17 27 9 4 -6 -1 -15 -10 -20 -9 -5 -21 -21 -27 -34 -5 -14 -13 -23 -18 -20 -5 4 -22 -4 -38 -17 -15 -13 -50 -30 -77 -37 -47 -13 -47 -14 -25 -26 33 -18 78 -17 85 1 4 8 15 15 26 15 29 0 60 20 55 34 -4 9 4 13 23 12 21 -1 26 -4 18 -13 -5 -7 -7 -17 -3 -22 3 -6 0 -9 -7 -6 -7 2 -22 -2 -33 -11 -16 -12 -18 -18 -7 -34 11 -18 10 -19 -13 -8 -19 8 -32 8 -52 -1 -25 -12 -26 -13 -9 -23 43 -24 111 -12 199 36 65 35 96 46 130 46 39 0 48 4 71 35 15 19 42 67 61 107 28 57 35 84 34 128 l-1 55 -18 -70 c-11 -38 -19 -73 -19 -77 -1 -5 -7 -8 -13 -8 -7 0 -26 41 -43 93 l-30 92 -2 -70 c-3 -92 -24 -235 -35 -235 -4 0 -37 14 -73 31 -50 23 -77 45 -120 97 -69 82 -92 125 -121 222 -22 75 -22 75 -29 39z" id="92"/>
<path d="M6529 5166 c-47 -12 -106 -33 -130 -45 -80 -42 -263 -168 -341 -237 -66 -58 -78 -73 -78 -100 0 -17 -3 -53 -7 -80 l-6 -48 49 41 c123 103 487 296 630 334 l83 22 -21 41 c-32 64 -58 96 -76 95 -9 0 -56 -11 -103 -23z" id="93"/>
<path d="M7080 5153 c0 -23 39 -97 71 -136 17 -21 57 -55 89 -77 33 -22 66 -50 74 -62 9 -12 17 -20 19 -17 2 2 11 17 20 32 19 30 37 28 37 -4 0 -11 7 -36 16 -57 l16 -37 15 52 c20 67 11 98 -38 145 -30 29 -60 44 -139 68 -79 24 -108 39 -140 69 -22 21 -40 32 -40 24z" id="94"/>
<path d="M7036 5150 c-30 -89 -34 -202 -10 -274 20 -57 73 -116 104 -116 13 0 52 -16 87 -36 35 -19 67 -33 72 -29 5 3 15 30 22 60 16 72 6 92 -68 143 -104 72 -156 133 -184 215 -10 30 -20 46 -23 37z" id="95"/>
<path d="M5703 5123 c-32 -22 -178 -424 -223 -615 l-24 -97 17 -143 c17 -143 57 -372 64 -365 2 3 14 49 28 103 37 155 178 545 191 532 2 -2 -28 -116 -67 -253 -77 -278 -139 -544 -139 -596 0 -37 19 -82 34 -81 5 1 19 33 31 71 13 39 59 142 103 228 68 136 95 205 152 388 16 54 61 287 76 395 15 119 18 237 5 292 -11 46 -52 97 -96 120 -38 20 -134 33 -152 21z" id="96"/>
<path d="M4960 5048 c-1 -29 -11 -65 -34 -119 -5 -12 2 -19 31 -28 21 -7 44 -15 51 -18 11 -4 12 -1 2 17 -20 37 -4 33 29 -7 29 -36 31 -36 31 -13 -1 51 -76 200 -101 200 -5 0 -9 -15 -9 -32z" id="97"/>
<path d="M1905 5018 c-61 -33 -103 -100 -112 -177 -9 -81 31 -162 98 -196 42 -22 43 -19 5 31 -61 80 -60 157 4 280 39 76 40 81 5 62z" id="98"/>
<path d="M1370 4995 c0 -28 72 -95 136 -126 90 -44 253 -55 254 -16 0 6 11 38 24 69 l24 58 -42 -8 c-75 -13 -207 -5 -276 17 -78 25 -120 27 -120 6z" id="99"/>
<path d="M6590 4979 c-139 -36 -335 -145 -488 -272 -103 -86 -148 -145 -162 -215 -6 -31 -13 -63 -16 -70 -6 -20 -34 -37 278 166 192 124 502 272 571 272 17 0 18 5 12 38 -4 20 -13 52 -20 70 -13 29 -18 32 -57 31 -24 0 -77 -9 -118 -20z" id="100"/>
<path d="M714 4905 c3 -22 10 -80 16 -130 15 -124 55 -283 97 -385 57 -139 167 -329 239 -415 164 -195 319 -322 714 -585 206 -137 259 -178 336 -256 l91 -94 16 38 c26 58 40 129 33 163 -15 77 -242 305 -423 425 -65 44 -183 119 -263 167 -198 120 -306 202 -425 321 -167 168 -297 388 -386 656 -23 69 -43 127 -46 130 -2 2 -2 -14 1 -35z" id="101"/>
<path d="M3938 4883 c-34 -62 -35 -109 -5 -154 25 -38 59 -57 115 -66 l37 -6 -36 44 c-53 64 -72 107 -78 173 l-6 60 -27 -51z" id="102"/>
<path d="M4812 4844 l-22 -45 56 -52 c32 -29 71 -62 88 -75 l31 -23 3 23 c11 67 -76 218 -125 218 -5 0 -19 -21 -31 -46z" id="103"/>
<path d="M7476 4858 c-4 -13 -13 -54 -21 -91 -8 -38 -20 -77 -26 -89 -6 -11 -8 -22 -6 -25 10 -9 57 29 77 62 19 31 20 38 8 99 -13 69 -22 81 -32 44z" id="104"/>
<path d="M7356 4814 c-4 -22 -17 -72 -28 -112 -12 -40 -18 -75 -15 -78 15 -15 55 8 75 45 28 49 28 74 -2 135 l-23 48 -7 -38z" id="105"/>
<path d="M2313 4791 c-23 -16 -44 -34 -47 -39 -3 -5 10 -42 29 -81 19 -40 35 -84 35 -97 0 -13 4 -24 9 -24 7 0 21 250 15 268 0 1 -19 -11 -41 -27z" id="106"/>
<path d="M6655 4789 c-190 -64 -383 -176 -560 -324 -181 -152 -199 -174 -235 -290 -18 -55 -59 -166 -91 -246 -32 -81 -59 -149 -59 -153 0 -4 68 63 152 149 225 231 477 436 705 572 52 31 110 75 129 97 42 49 104 170 104 202 0 33 -32 31 -145 -7z" id="107"/>
<path d="M4030 4782 c0 -5 27 -39 60 -78 32 -38 59 -77 60 -86 0 -21 -3 -22 -55 -4 -22 8 -60 17 -84 21 l-44 7 7 -57 c3 -31 13 -73 22 -93 14 -34 90 -122 105 -122 3 0 9 18 12 40 3 23 21 75 41 117 39 82 44 119 21 163 -23 45 -145 122 -145 92z" id="108"/>
<path d="M3851 4715 c-20 -44 -20 -55 -11 -133 13 -98 40 -186 75 -242 40 -64 45 -59 45 42 0 96 -40 291 -73 353 l-14 29 -22 -49z" id="109"/>
<path d="M4737 4735 l-27 -24 42 -28 c24 -15 53 -36 65 -47 13 -11 25 -17 28 -14 9 9 -11 86 -29 113 -21 31 -43 31 -79 0z" id="110"/>
<path d="M7120 4723 c0 -5 14 -31 30 -60 37 -64 60 -79 97 -61 31 16 41 56 15 65 -9 4 -37 19 -61 35 -43 27 -81 37 -81 21z" id="111"/>
<path d="M4603 4673 c-24 -8 -43 -18 -43 -21 0 -4 12 -13 28 -19 15 -7 63 -48 107 -92 44 -44 83 -77 87 -73 11 11 -8 115 -26 150 -16 31 -73 73 -97 71 -8 0 -33 -7 -56 -16z" id="112"/>
<path d="M7476 4644 c-29 -25 -56 -37 -115 -49 -112 -24 -112 -24 -56 -51 66 -32 126 -26 172 19 30 28 50 81 42 105 -2 6 -21 -5 -43 -24z" id="113"/>
<path d="M4215 4577 c-7 -97 4 -165 39 -227 l14 -25 7 40 c3 22 11 62 17 90 20 90 5 148 -51 199 -19 17 -19 15 -26 -77z" id="114"/>
<path d="M3118 4620 c-61 -11 -144 -56 -174 -95 -80 -105 -70 -252 23 -322 45 -35 125 -43 174 -18 103 52 156 154 113 220 -20 30 -88 58 -125 50 -39 -9 -79 -42 -79 -66 0 -31 29 -79 47 -79 15 0 15 1 0 18 -24 26 -21 68 5 86 79 56 178 -53 122 -133 -22 -31 -90 -61 -139 -61 -97 0 -178 113 -159 224 9 59 80 128 153 150 159 47 310 -16 381 -159 19 -40 24 -65 24 -122 -1 -63 -6 -83 -37 -147 -94 -189 -344 -336 -624 -367 -210 -24 -383 15 -548 121 -50 33 -99 60 -108 60 -18 0 -97 -73 -97 -90 0 -17 130 -107 215 -150 198 -98 449 -115 670 -43 242 78 497 293 567 476 38 99 21 237 -38 314 -75 98 -234 156 -366 133z" id="115"/>
<path d="M4435 4600 c-3 -5 -1 -10 5 -10 19 0 108 -90 136 -137 14 -24 28 -42 30 -40 3 3 0 35 -7 73 -16 90 -47 124 -113 124 -24 0 -48 -4 -51 -10z" id="116"/>
<path d="M4382 4523 c21 -43 41 -95 44 -115 10 -60 24 -44 24 28 0 81 -20 127 -65 148 -18 9 -35 16 -37 16 -2 0 13 -35 34 -77z" id="117"/>
<path d="M6472 4410 c-154 -104 -365 -273 -467 -375 -78 -78 -255 -286 -255 -300 0 -3 64 57 143 135 100 100 199 184 336 288 180 135 401 331 375 332 -6 0 -66 -36 -132 -80z" id="118"/>
<path d="M2652 4284 c-81 -29 -108 -51 -147 -125 -20 -39 -35 -72 -33 -73 9 -8 218 -46 253 -46 71 0 155 70 170 142 19 83 -88 77 -275 -17 -68 -34 -73 -35 -52 -12 34 36 141 87 224 107 l73 17 -40 11 c-54 16 -121 14 -173 -4z" id="119"/>
<path d="M6521 4215 c-146 -50 -210 -86 -421 -240 -166 -120 -339 -269 -327 -281 2 -3 62 5 133 17 124 21 131 23 179 64 117 99 455 292 654 373 54 22 54 22 35 43 -26 29 -88 59 -121 59 -15 0 -75 -16 -132 -35z" id="120"/>
<path d="M880 4175 c0 -26 133 -315 190 -413 81 -138 317 -340 660 -564 299 -195 347 -227 412 -274 38 -26 70 -45 73 -43 10 11 -17 80 -56 140 -70 108 -148 175 -420 357 -298 199 -402 278 -529 399 -101 95 -225 245 -285 341 -35 57 -45 70 -45 57z" id="121"/>
<path d="M6662 4064 c-131 -40 -267 -106 -402 -194 -165 -108 -187 -140 -95 -140 40 0 69 8 112 29 96 48 237 87 466 127 217 38 217 38 217 63 0 34 -127 151 -162 151 -13 -1 -74 -17 -136 -36z" id="122"/>
<path d="M3397 3890 c-3 -8 -11 -33 -18 -55 -6 -22 -20 -57 -31 -78 -11 -22 -17 -41 -15 -43 4 -4 177 43 184 50 2 1 -15 17 -37 35 -22 17 -49 49 -59 69 -13 25 -21 32 -24 22z" id="123"/>
<path d="M6695 3844 c-71 -7 -170 -24 -220 -39 -86 -25 -175 -69 -181 -90 -2 -5 13 -21 34 -34 32 -20 44 -22 102 -17 112 11 421 7 516 -7 l92 -13 8 51 c9 64 8 71 -24 122 l-27 43 -85 -1 c-47 -1 -143 -7 -215 -15z" id="124"/>
<path d="M3274 3806 c-66 -45 -256 -140 -318 -161 -97 -31 -192 -46 -301 -47 -163 0 -293 34 -462 122 -51 27 -93 44 -93 39 0 -24 51 -82 125 -141 135 -109 185 -175 188 -247 2 -51 -28 -113 -63 -134 -15 -9 -34 -31 -43 -49 -33 -72 -67 -158 -67 -172 0 -8 11 -51 25 -94 63 -198 236 -367 389 -380 78 -6 122 16 148 75 18 41 19 53 9 96 -22 94 -77 140 -144 118 -19 -7 -43 -21 -52 -31 -17 -19 -17 -21 0 -40 21 -24 65 -27 65 -5 0 8 9 15 20 15 30 0 26 -44 -6 -69 -35 -27 -73 -27 -114 2 -54 36 -75 72 -75 127 0 40 5 54 29 79 38 40 75 54 135 49 28 -1 51 -1 51 3 0 3 -15 19 -33 37 -27 26 -41 32 -77 32 -59 -1 -117 -28 -157 -74 -43 -48 -50 -80 -30 -136 19 -53 8 -73 -24 -44 -30 26 -49 75 -49 124 0 106 117 219 228 220 l42 0 0 42 c0 140 191 318 483 450 72 33 138 65 145 71 15 12 85 147 80 153 -2 2 -27 -12 -54 -30z" id="125"/>
<path d="M5314 3795 c-4 -8 -4 -22 0 -30 6 -18 66 -56 77 -49 13 7 -11 63 -34 79 -27 19 -36 19 -43 0z" id="126"/>
<path d="M3883 3739 c-144 -14 -428 -78 -483 -110 -25 -14 70 -10 181 7 126 20 269 16 317 -10 33 -17 35 -17 100 8 94 35 216 64 362 85 108 15 119 18 85 24 -54 9 -459 6 -562 -4z" id="127"/>
<path d="M4490 3714 c-231 -28 -456 -83 -527 -130 -23 -14 -25 -21 -19 -61 3 -25 6 -59 6 -74 0 -38 61 -106 117 -131 64 -28 235 -34 413 -14 80 10 278 44 440 77 162 33 355 72 428 87 79 16 132 31 132 38 0 7 -19 20 -42 29 -34 14 -72 18 -183 18 -143 -1 -256 -14 -488 -59 -71 -14 -133 -24 -139 -22 -20 7 213 78 325 99 62 12 119 24 127 27 8 2 -61 24 -155 47 -93 23 -201 52 -239 64 -37 11 -71 21 -75 20 -3 -1 -58 -7 -121 -15z" id="128"/>
<path d="M5730 3715 c-7 -9 -11 -18 -8 -20 3 -3 11 1 18 10 7 9 11 18 8 20 -3 3 -11 -1 -18 -10z" id="129"/>
<path d="M6035 3704 c-151 -24 -271 -47 -285 -54 -20 -11 -75 -118 -65 -128 3 -4 97 -7 208 -6 186 1 210 3 302 28 119 32 149 46 153 68 5 24 -39 62 -87 77 -45 13 -180 22 -226 15z" id="130"/>
<path d="M5675 3637 c-21 -31 -35 -61 -33 -67 2 -7 20 16 41 51 47 78 41 90 -8 16z" id="131"/>
<path d="M5440 3653 c1 -26 106 -196 170 -274 134 -163 404 -408 426 -386 11 10 -56 125 -132 227 -75 100 -264 298 -351 367 -53 42 -113 77 -113 66z" id="132"/>
<path d="M6482 3643 c-89 -4 -93 -5 -102 -29 -14 -35 -15 -34 33 -34 60 0 182 -31 332 -85 123 -44 357 -125 361 -125 1 0 0 17 -3 38 -3 21 -1 54 5 74 9 33 7 39 -17 62 -15 15 -43 31 -62 36 -90 26 -345 70 -396 68 -32 -1 -100 -4 -151 -5z" id="133"/>
<path d="M3680 3624 c-171 -26 -249 -34 -320 -33 -78 2 -91 -1 -163 -34 -167 -78 -280 -173 -335 -283 -50 -101 -49 -110 10 -51 29 29 74 67 99 84 108 74 311 159 424 178 29 5 13 -5 -60 -37 -182 -80 -360 -198 -448 -299 -50 -57 -54 -68 -35 -87 8 -8 27 6 76 59 75 80 187 168 280 216 68 35 169 68 332 106 114 27 370 141 353 158 -20 20 -142 33 -213 23z" id="134"/>
<path d="M1180 3585 c0 -3 22 -38 49 -78 164 -242 379 -477 581 -634 78 -61 329 -225 422 -277 37 -20 70 -41 73 -46 3 -6 13 -10 21 -10 24 0 15 88 -18 173 -22 56 -206 204 -478 384 -290 192 -453 313 -572 423 -43 39 -78 69 -78 65z" id="135"/>
<path d="M3812 3512 c-95 -54 -152 -99 -365 -291 -160 -144 -247 -239 -293 -317 -22 -38 -25 -48 -13 -55 31 -19 54 -8 94 48 66 93 325 346 339 332 2 -2 -72 -89 -165 -194 -93 -104 -169 -193 -169 -196 0 -4 9 -9 19 -12 15 -4 34 15 86 84 118 159 355 382 513 483 l62 40 0 63 c0 44 -4 63 -12 62 -7 0 -50 -21 -96 -47z" id="136"/>
<path d="M6324 3550 c-18 -4 -40 -10 -50 -14 -17 -7 -17 -9 7 -21 14 -8 72 -31 130 -53 57 -22 140 -57 184 -80 86 -43 292 -186 382 -265 31 -26 58 -46 61 -42 3 3 6 30 6 60 1 51 4 57 50 104 26 27 46 54 42 59 -3 6 -30 18 -59 27 -28 10 -101 42 -161 72 -237 117 -479 180 -592 153z" id="137"/>
<path d="M6142 3502 c-23 -7 -23 -8 -5 -23 10 -9 52 -39 93 -66 42 -28 136 -100 210 -160 74 -60 157 -124 183 -142 53 -36 237 -126 277 -136 28 -6 90 26 90 47 -1 25 -127 153 -220 222 -116 87 -214 139 -390 206 -136 52 -196 65 -238 52z" id="138"/>
<path d="M5920 3481 l-85 -6 150 -77 c256 -132 458 -267 607 -406 59 -55 95 -82 106 -78 9 2 35 7 57 11 85 13 85 12 -62 109 -76 50 -152 102 -169 116 -302 247 -438 341 -489 338 -16 -1 -68 -4 -115 -7z" id="139"/>
<path d="M5760 3459 c14 -11 95 -66 180 -121 85 -54 213 -141 283 -191 70 -51 164 -117 208 -148 77 -53 145 -86 156 -76 9 9 -78 104 -148 161 -74 61 -219 157 -356 234 -97 56 -281 145 -323 156 l-25 7 25 -22z" id="140"/>
<path d="M5450 3444 l-35 -14 40 5 c22 3 46 5 53 5 6 0 12 5 12 10 0 14 -28 11 -70 -6z" id="141"/>
<path d="M3474 3405 c-260 -69 -399 -155 -522 -318 l-52 -70 22 -25 c49 -51 55 -50 121 24 86 97 140 147 231 216 72 54 156 105 156 94 0 -2 -45 -43 -100 -91 -102 -89 -300 -297 -300 -315 0 -9 58 -50 70 -50 3 0 20 25 38 54 55 91 130 172 307 329 221 195 223 197 205 196 -8 -1 -87 -21 -176 -44z" id="142"/>
<path d="M3855 3368 c-149 -102 -369 -314 -481 -463 -61 -81 -61 -95 -3 -95 19 0 37 15 76 63 73 90 176 199 236 249 l52 43 -50 -65 c-27 -36 -89 -116 -137 -177 -48 -62 -88 -117 -88 -123 0 -5 15 -10 33 -9 29 0 40 11 117 115 47 62 98 133 114 156 41 60 195 209 239 233 21 11 36 23 35 26 -4 8 -77 89 -80 88 -2 0 -30 -19 -63 -41z" id="143"/>
<path d="M5485 3381 c-48 -7 -48 -7 -111 -206 -42 -135 -47 -160 -48 -250 -1 -83 2 -105 18 -128 12 -18 26 -27 40 -25 45 7 106 141 141 313 18 92 25 297 10 300 -5 1 -28 -1 -50 -4z" id="144"/>
<path d="M5170 3374 c-8 -2 -73 -10 -143 -18 -183 -21 -244 -52 -455 -229 -85 -72 -203 -209 -290 -339 -75 -112 -174 -296 -166 -309 4 -8 32 -10 84 -7 64 4 87 10 141 40 39 21 76 51 94 75 17 23 64 87 105 144 138 190 343 383 666 626 l29 22 -25 -1 c-14 0 -32 -2 -40 -4z" id="145"/>
<path d="M5170 3285 c-78 -52 -174 -122 -213 -154 -85 -70 -273 -260 -345 -349 -61 -75 -135 -182 -130 -187 2 -3 23 5 46 17 27 13 94 75 185 171 261 277 487 496 592 574 17 12 25 23 18 23 -6 0 -75 -43 -153 -95z" id="146"/>
<path d="M5314 3312 c-126 -83 -318 -278 -417 -426 -123 -183 -187 -325 -187 -412 0 -24 8 -39 31 -58 17 -14 36 -26 42 -26 7 0 34 41 61 90 27 50 59 103 70 119 95 131 239 316 316 405 88 102 93 111 120 199 37 126 42 147 32 147 -5 0 -35 -17 -68 -38z" id="147"/>
<path d="M5610 3317 c0 -26 48 -172 105 -318 105 -271 303 -624 332 -595 19 19 -49 175 -303 692 -98 200 -134 259 -134 221z" id="148"/>
<path d="M4660 3303 c-79 -14 -167 -49 -232 -93 -179 -120 -292 -260 -423 -526 -64 -128 -66 -136 -49 -149 22 -16 122 -51 127 -44 2 2 32 56 66 119 80 147 136 230 235 354 85 106 235 263 301 315 40 32 37 35 -25 24z" id="149"/>
<path d="M5577 3270 c-4 -14 -7 -42 -7 -63 0 -21 -5 -70 -12 -108 -15 -92 -7 -114 89 -269 148 -236 166 -270 300 -572 14 -32 29 -58 34 -58 13 0 39 68 39 102 0 19 -17 55 -44 97 -94 142 -292 586 -373 836 -17 52 -20 56 -26 35z" id="150"/>
<path d="M3971 3249 c-30 -18 -85 -61 -121 -96 -61 -57 -238 -272 -284 -344 -19 -30 -19 -30 3 -36 12 -3 54 -21 92 -39 39 -19 74 -34 79 -34 5 0 52 66 105 148 54 81 109 165 124 187 31 47 177 198 206 213 29 15 18 20 -70 27 -77 6 -82 5 -134 -26z" id="151"/>
<path d="M4320 3261 c-54 -8 -97 -30 -171 -87 -88 -67 -157 -148 -273 -323 -87 -130 -107 -167 -99 -179 5 -9 38 -38 73 -65 l63 -48 76 148 c120 232 251 413 368 506 34 28 63 52 63 54 0 4 -47 1 -100 -6z" id="152"/>
<path d="M2529 3086 c-76 -27 -135 -93 -153 -168 -9 -40 8 -35 22 6 25 68 134 136 220 136 18 0 23 4 18 16 -3 9 -6 18 -6 20 0 9 -67 2 -101 -10z" id="153"/>
<path d="M5208 2938 c-177 -215 -288 -380 -333 -498 -19 -49 -35 -96 -35 -105 0 -42 95 -135 138 -135 6 0 25 44 43 98 41 124 169 425 219 519 27 49 43 93 51 143 6 39 9 74 6 76 -2 2 -42 -42 -89 -98z" id="154"/>
<path d="M5518 2933 c-18 -46 -12 -82 42 -253 59 -187 110 -308 175 -421 25 -44 62 -111 81 -150 l36 -71 35 33 c51 50 53 57 37 134 -13 64 -98 268 -147 353 -56 99 -239 402 -243 402 -3 0 -9 -12 -16 -27z" id="155"/>
<path d="M2610 2919 c-45 -18 -70 -50 -70 -88 0 -54 14 -69 30 -32 29 72 148 96 211 44 69 -58 93 -194 46 -264 -35 -53 -99 -82 -169 -76 -75 7 -168 51 -237 113 l-54 49 7 -40 c10 -51 36 -79 105 -112 74 -35 200 -44 267 -18 126 48 175 163 120 280 -29 60 -76 107 -136 134 -49 22 -82 25 -120 10z" id="156"/>
<path d="M6172 2902 c-16 -15 -32 -38 -36 -50 -12 -36 11 -87 52 -115 52 -35 92 -41 154 -23 81 24 241 137 221 157 -6 6 -39 -11 -91 -45 -89 -58 -184 -91 -233 -81 -87 19 -79 164 10 178 20 3 18 4 -10 6 -28 1 -44 -6 -67 -27z" id="157"/>
<path d="M5248 2773 c-49 -95 -144 -327 -162 -397 -9 -32 -18 -97 -22 -145 -6 -82 -5 -88 17 -115 20 -23 36 -29 97 -36 40 -5 77 -12 83 -15 5 -4 9 18 9 51 0 58 8 133 41 384 10 80 19 166 19 192 0 47 -27 148 -40 148 -4 0 -23 -30 -42 -67z" id="158"/>
<path d="M5460 2803 c-21 -46 -24 -178 -6 -303 35 -236 80 -399 147 -532 l19 -37 56 30 c31 16 66 29 78 29 43 0 46 10 31 84 -9 42 -30 95 -54 135 -90 153 -150 297 -211 509 -18 61 -36 112 -40 112 -4 0 -13 -12 -20 -27z" id="159"/>
<path d="M4646 2661 l-99 -99 12 -33 c6 -18 19 -44 28 -58 l16 -25 18 60 c10 32 43 101 74 153 30 52 54 95 52 97 -2 2 -47 -41 -101 -95z" id="160"/>
<path d="M3090 2716 c0 -119 162 -374 316 -498 62 -50 214 -159 214 -154 0 2 -24 54 -54 117 -29 63 -70 159 -90 214 -21 55 -60 152 -87 216 l-50 117 -97 5 c-53 3 -109 9 -124 12 -27 7 -28 6 -28 -29z" id="161"/>
<path d="M5366 2668 c-4 -39 -14 -107 -21 -150 -29 -165 -39 -323 -26 -411 18 -115 20 -117 93 -117 44 0 70 -6 95 -21 l34 -21 -6 23 c-3 13 -18 80 -34 149 -50 214 -72 341 -81 465 -9 128 -15 155 -35 155 -8 0 -15 -24 -19 -72z" id="162"/>
<path d="M3460 2706 c0 -11 74 -174 125 -276 l57 -114 18 48 c10 26 37 72 60 102 l42 55 -48 42 c-92 81 -129 107 -182 127 -52 20 -72 24 -72 16z" id="163"/>
<path d="M3401 2693 c-1 -6 19 -58 43 -115 24 -56 59 -141 76 -188 18 -47 75 -175 128 -285 185 -391 249 -574 316 -910 26 -126 53 -248 61 -270 l14 -40 -5 50 c-3 28 -19 131 -35 230 -71 432 -130 601 -393 1120 -78 154 -156 312 -173 350 -17 39 -32 65 -32 58z" id="164"/>
<path d="M3019 2603 c-28 -67 -33 -90 -34 -159 0 -81 0 -82 48 -152 26 -38 85 -105 130 -149 78 -74 117 -103 400 -287 65 -42 141 -97 168 -123 27 -25 49 -41 49 -36 0 6 -21 61 -47 123 -56 135 -93 180 -230 275 -193 135 -353 327 -419 502 l-31 85 -34 -79z" id="165"/>
<path d="M4483 2513 c-10 -15 -41 -51 -70 -79 -42 -42 -71 -59 -146 -88 -183 -71 -305 -164 -359 -273 -30 -61 -33 -76 -32 -148 1 -66 10 -110 52 -245 35 -115 52 -159 57 -145 64 190 156 308 381 487 150 119 222 204 245 289 12 43 11 45 -30 109 -23 36 -45 77 -48 93 -7 34 -27 35 -50 0z" id="166"/>
<path d="M3750 2453 c-40 -45 -70 -108 -70 -148 0 -42 22 -100 93 -249 l62 -128 12 60 c35 173 135 270 397 387 91 41 97 55 10 24 -32 -11 -90 -23 -129 -26 -83 -6 -150 14 -256 77 -37 22 -72 40 -77 40 -6 0 -24 -17 -42 -37z" id="167"/>
<path d="M2985 2230 c16 -164 62 -284 138 -362 47 -48 205 -147 365 -227 155 -78 285 -183 376 -304 20 -27 36 -42 36 -34 0 38 -55 227 -77 265 -45 79 -142 166 -298 267 -83 54 -181 119 -220 144 -84 55 -219 182 -282 266 l-45 60 7 -75z" id="168"/>
<path d="M4657 2223 c-23 -43 -129 -139 -237 -213 -187 -127 -337 -300 -395 -454 -31 -83 -31 -103 1 -301 36 -227 33 -218 50 -172 18 52 91 152 150 207 27 25 94 80 150 122 125 95 180 155 235 260 130 246 146 330 94 502 -23 77 -30 85 -48 49z" id="169"/>
<path d="M4784 2105 c16 -110 98 -231 199 -289 82 -48 150 -44 240 14 60 38 67 55 34 87 -19 20 -39 27 -90 32 -58 6 -70 11 -110 48 -32 29 -65 48 -111 62 -81 25 -103 36 -140 70 l-28 26 6 -50z" id="170"/>
<path d="M4840 1856 c0 -21 44 -85 74 -109 130 -102 270 -110 373 -22 67 57 100 125 61 125 -6 0 -29 -16 -51 -36 -57 -52 -139 -87 -206 -88 -69 -1 -130 27 -201 91 -27 25 -50 42 -50 39z" id="171"/>
<path d="M4749 1762 c-74 -133 -196 -267 -359 -391 -120 -92 -198 -168 -243 -236 -46 -70 -94 -235 -69 -235 5 0 19 12 33 26 33 35 160 118 304 199 292 163 405 298 405 484 0 55 -28 201 -39 201 -3 0 -18 -22 -32 -48z" id="172"/>
<path d="M3155 1758 c16 -55 96 -177 159 -245 103 -110 652 -601 662 -591 1 2 -9 53 -21 114 -55 263 -195 421 -527 592 -75 39 -165 89 -201 111 -35 23 -67 41 -71 41 -4 0 -4 -10 -1 -22z" id="173"/>
</g>
</svg>