<?xml version="1.0" ?><!DOCTYPE svg  PUBLIC '-//W3C//DTD SVG 20010904//EN'  'http://www.w3.org/TR/2001/REC-SVG-20010904/DTD/svg10.dtd'><svg height="850.000000pt" preserveAspectRatio="xMidYMid meet" version="1.0" viewBox="0 0 850.000000 850.000000" width="850.000000pt" xmlns="http://www.w3.org/2000/svg">
<metadata>
Created by potrace 1.14, written by Peter Selinger 2001-2017
</metadata>
<g fill="#ffffff" stroke="none" transform="translate(0.000000,850.000000) scale(0.100000,-0.100000)">
<path d="M0 4250 l0 -4250 4250 0 4250 0 0 4250 0 4250 -4250 0 -4250 0 0 -4250z m4449 3886 c105 -112 191 -209 191 -215 0 -5 -27 -29 -61 -51 -138 -95 -277 -135 -387 -112 -105 22 -297 137 -297 178 0 15 344 404 357 404 4 0 92 -92 197 -204z m-587 -303 c32 -32 58 -62 58 -68 0 -12 -274 -167 -278 -157 -3 9 148 282 156 282 4 0 32 -26 64 -57z m921 -99 c38 -75 66 -139 63 -142 -9 -8 -265 162 -263 174 2 14 108 103 122 104 6 0 41 -61 78 -136z m-741 -6 c40 -17 77 -35 81 -39 5 -3 -42 -64 -104 -134 -62 -71 -115 -123 -117 -117 -4 12 58 322 64 322 2 0 36 -14 76 -32z m511 -35 c32 -141 48 -234 45 -250 -2 -11 -39 25 -110 106 -60 68 -108 128 -108 133 0 8 132 75 152 77 3 1 13 -29 21 -66z m-219 -21 c3 -5 -13 -74 -34 -155 l-39 -147 255 0 c190 0 254 -3 254 -12 0 -6 -18 -43 -41 -81 -22 -38 -39 -70 -37 -71 1 -1 102 -15 223 -30 121 -16 221 -29 223 -31 9 -8 118 -421 113 -426 -10 -11 -444 50 -452 63 -4 6 -31 95 -59 197 -28 102 -53 192 -56 200 -5 14 -133 -182 -134 -204 0 -5 132 -144 293 -307 l292 -297 417 -4 417 -5 30 126 c16 70 28 128 26 131 -2 2 -86 -43 -187 -99 -158 -89 -185 -101 -201 -90 -11 6 -94 69 -184 138 -130 100 -161 128 -151 138 14 12 366 214 374 214 3 0 84 -61 179 -135 96 -74 176 -135 179 -135 2 0 12 35 21 78 9 42 21 81 25 86 5 5 87 -70 183 -168 96 -97 178 -176 183 -176 5 0 42 59 82 130 40 72 79 130 85 130 20 0 120 -107 115 -122 -3 -7 -60 -44 -127 -82 -67 -37 -124 -72 -127 -77 -3 -5 74 -88 170 -184 97 -96 176 -179 176 -184 0 -6 -36 -18 -80 -28 -44 -10 -80 -21 -80 -26 0 -4 61 -86 135 -182 l136 -175 -47 -82 c-126 -225 -177 -309 -185 -301 -27 28 -269 350 -269 359 0 6 47 93 104 195 57 101 103 185 102 186 -1 1 -58 -12 -126 -30 l-125 -32 -3 -422 -2 -422 286 -293 c157 -161 292 -292 299 -292 16 2 215 125 215 134 0 3 -87 30 -194 59 -106 29 -198 56 -203 60 -10 6 -68 432 -61 449 3 9 411 -97 424 -110 3 -4 18 -101 33 -217 15 -116 30 -213 33 -217 4 -3 37 13 75 35 38 23 72 41 76 41 4 0 7 -115 7 -256 0 -238 1 -255 18 -250 9 2 71 19 137 36 66 17 128 34 138 36 15 5 17 -4 17 -85 0 -60 -4 -91 -11 -91 -6 0 -69 16 -140 35 -71 19 -136 35 -144 35 -13 0 -15 -37 -15 -255 0 -140 -2 -255 -5 -255 -2 0 -37 20 -77 44 -40 25 -74 43 -76 41 -2 -2 -16 -101 -32 -220 -16 -120 -32 -221 -37 -225 -10 -11 -415 -121 -421 -115 -3 2 8 102 22 222 19 151 32 221 42 229 7 6 102 35 209 64 107 30 195 56 195 59 0 3 -48 34 -106 68 -80 48 -110 61 -122 54 -9 -6 -145 -138 -302 -295 l-285 -286 0 -417 0 -417 115 -28 c63 -15 120 -27 126 -25 7 1 -35 85 -92 186 -59 105 -100 189 -96 195 11 18 217 286 246 321 25 29 26 30 41 10 9 -10 58 -95 111 -189 81 -142 94 -172 86 -190 -6 -12 -67 -93 -135 -181 -69 -88 -124 -161 -122 -163 2 -2 32 -10 66 -18 35 -8 75 -17 88 -20 22 -5 8 -22 -159 -189 -101 -101 -182 -186 -180 -188 3 -3 55 -33 115 -67 61 -35 121 -70 134 -78 l23 -14 -63 -64 c-34 -34 -66 -61 -70 -58 -4 2 -31 46 -60 97 -29 50 -64 110 -77 131 l-24 39 -183 -183 -183 -183 -11 39 c-5 21 -15 60 -22 87 -6 26 -14 47 -18 47 -3 0 -76 -55 -161 -121 -85 -67 -165 -128 -177 -136 -21 -14 -33 -9 -213 93 -104 59 -190 111 -190 115 0 9 333 267 353 274 6 3 95 -42 197 -99 102 -57 186 -103 188 -101 4 3 -55 235 -61 241 -2 2 -191 7 -420 11 l-415 6 -301 -293 c-285 -277 -301 -294 -288 -314 8 -12 40 -64 72 -115 l59 -95 12 40 c7 21 33 113 58 203 26 91 48 167 51 169 7 7 447 63 452 58 8 -7 -107 -410 -120 -422 -7 -6 -106 -23 -221 -38 -115 -14 -211 -28 -213 -30 -2 -2 16 -37 41 -77 l45 -74 -255 -3 c-233 -2 -254 -4 -254 -20 0 -9 16 -75 35 -147 19 -71 35 -133 35 -137 0 -5 -41 -8 -91 -8 -81 0 -90 2 -85 18 27 89 73 282 68 286 -3 3 -117 6 -254 6 -136 0 -248 3 -248 7 0 4 18 38 41 76 22 38 39 70 37 72 -2 3 -100 16 -218 31 -118 15 -219 30 -224 34 -10 10 -116 386 -116 413 0 16 6 18 38 13 20 -3 114 -15 207 -26 94 -12 179 -25 191 -29 17 -7 30 -44 73 -202 29 -107 57 -198 61 -202 4 -5 37 40 73 100 l66 108 -287 290 c-158 159 -291 293 -297 296 -5 4 -197 10 -426 14 l-417 8 -30 -129 c-17 -71 -29 -130 -28 -132 2 -1 84 42 183 98 99 55 184 100 191 100 6 0 71 -46 144 -102 189 -144 220 -170 211 -179 -19 -17 -363 -209 -377 -209 -8 0 -90 58 -183 130 -92 71 -171 130 -174 130 -4 0 -15 -35 -24 -77 -10 -43 -20 -82 -22 -87 -3 -4 -88 74 -188 174 l-182 182 -71 -123 c-39 -68 -75 -131 -81 -139 -7 -12 -20 -4 -70 45 -34 33 -61 64 -61 70 0 5 53 39 117 75 63 36 123 70 132 77 14 10 -8 36 -164 192 -98 99 -176 183 -172 187 3 4 41 15 83 25 42 10 78 19 79 21 1 2 -58 81 -131 176 -74 96 -134 180 -134 188 0 13 173 327 203 368 12 17 16 15 49 -26 86 -105 238 -310 238 -320 0 -6 -45 -92 -101 -191 -55 -98 -98 -181 -95 -184 3 -3 58 8 123 24 l118 29 3 423 2 423 -286 294 c-157 162 -290 294 -295 294 -11 0 -229 -133 -225 -138 2 -2 93 -28 202 -58 110 -30 202 -58 206 -62 9 -10 62 -441 55 -449 -6 -5 -415 102 -424 111 -2 2 -16 100 -31 219 -16 120 -31 219 -33 221 -2 3 -36 -15 -74 -40 -39 -24 -73 -44 -77 -44 -5 0 -8 115 -8 255 0 140 -3 255 -7 255 -5 0 -68 -16 -140 -35 -73 -19 -140 -35 -148 -35 -12 0 -15 16 -15 85 0 74 2 85 18 85 9 0 76 -16 147 -35 72 -19 133 -35 138 -35 4 0 7 115 7 255 0 140 3 255 7 255 4 0 38 -18 76 -41 38 -22 71 -38 75 -35 3 4 18 101 33 217 15 116 32 216 37 221 13 13 412 121 419 114 8 -7 -46 -438 -55 -448 -4 -4 -97 -32 -206 -62 -110 -31 -201 -58 -203 -60 -3 -3 144 -97 204 -130 7 -4 133 114 310 288 l298 294 3 419 4 419 -121 29 c-66 16 -123 26 -127 23 -3 -4 40 -88 96 -188 l101 -181 -28 -37 c-117 -157 -247 -322 -253 -322 -7 0 -202 336 -215 372 -5 12 32 67 124 185 72 92 131 173 131 179 0 6 -36 18 -80 28 -44 9 -80 21 -80 27 0 5 80 89 177 185 150 149 175 178 161 188 -8 6 -68 40 -131 76 -64 36 -117 70 -117 75 0 6 27 37 60 70 50 49 62 57 70 45 6 -8 40 -68 77 -132 37 -65 71 -118 76 -118 5 0 88 79 183 176 96 96 178 173 182 170 5 -3 17 -41 27 -86 10 -44 21 -79 25 -78 3 2 81 62 174 133 92 72 173 131 180 133 7 2 80 -35 162 -81 204 -116 225 -128 222 -137 -4 -10 -77 -69 -234 -189 l-122 -92 -187 106 c-103 59 -188 105 -190 103 -4 -4 50 -237 56 -243 2 -2 193 -5 424 -6 l420 -3 297 289 297 290 -26 45 c-15 25 -47 77 -71 115 l-45 70 -13 -40 c-7 -22 -33 -114 -58 -204 -26 -91 -47 -166 -49 -167 -5 -5 -452 -63 -455 -59 -5 4 109 418 117 427 3 4 103 19 221 34 118 15 217 28 219 30 2 2 -15 34 -38 72 -22 37 -41 74 -41 80 0 9 63 12 250 12 213 0 250 2 250 15 0 8 -16 73 -35 144 -19 71 -35 134 -35 140 0 13 166 16 174 3z m-1036 -203 c2 -21 -27 -165 -113 -556 -8 -36 -36 -28 -132 35 -48 32 -154 100 -235 151 -81 51 -154 102 -164 112 -16 18 -16 21 -1 36 15 15 20 14 74 -10 80 -35 134 -46 231 -47 l83 0 55 51 c63 60 106 122 130 188 10 25 22 52 27 59 16 20 42 9 45 -19z m1988 -30 c28 -74 75 -141 143 -208 l56 -53 105 4 c89 4 116 9 179 36 56 24 78 29 88 21 33 -28 31 -30 -351 -274 -155 -98 -165 -100 -179 -24 -4 24 -33 154 -63 287 -44 194 -53 247 -43 258 21 26 42 10 65 -47z m-3568 -305 l212 -7 0 -32 c0 -51 -36 -178 -70 -245 -17 -34 -52 -84 -77 -111 -75 -80 -221 -139 -345 -139 l-58 0 -1 43 c0 23 -6 145 -12 270 -7 126 -10 231 -7 234 3 3 37 2 75 -1 39 -3 166 -9 283 -12z m4792 -85 c0 -81 -2 -90 -17 -85 -10 3 -81 22 -158 42 -149 40 -152 41 -143 50 8 7 278 82 301 83 15 1 17 -10 17 -90z m634 -96 c-4 -104 -9 -233 -13 -288 l-6 -100 -35 3 c-114 10 -271 75 -344 143 -84 76 -155 260 -144 370 l3 34 195 11 c107 6 230 12 273 12 l78 2 -7 -187z m-4979 134 c71 -24 130 -48 132 -53 3 -9 -242 -64 -286 -64 -21 0 -23 3 -17 31 3 17 6 53 6 80 0 40 3 49 18 49 10 0 76 -19 147 -43z m-57 -241 c71 -46 133 -90 137 -96 6 -10 -9 -11 -66 -7 -41 4 -118 9 -171 13 -107 7 -108 8 -83 68 8 20 22 52 29 71 8 19 17 35 20 35 3 0 63 -38 134 -84z m4461 -3 c16 -40 26 -75 22 -77 -12 -8 -332 -29 -338 -22 -3 3 57 46 133 95 76 50 142 87 146 83 4 -4 21 -40 37 -79z m-4825 -380 c4 -71 9 -147 13 -170 3 -24 1 -43 -4 -43 -16 0 -186 271 -177 280 13 12 126 58 145 59 14 1 18 -18 23 -126z m5112 98 c46 -19 69 -33 68 -44 -2 -21 -164 -267 -176 -267 -5 0 -7 8 -4 18 2 9 8 82 11 162 4 80 9 148 12 153 7 11 15 9 89 -22z m-5326 -74 c0 -27 -78 -291 -86 -294 -6 -2 -18 27 -27 64 -9 38 -27 107 -41 156 l-24 87 89 0 c65 0 89 -3 89 -13z m5604 3 c4 -5 -81 -289 -90 -299 -2 -2 -7 -1 -10 2 -6 6 -63 269 -64 296 0 10 17 12 79 10 44 -2 82 -6 85 -9z m-5832 -637 c22 -24 318 -484 318 -493 0 -18 -35 -30 -190 -63 -91 -20 -218 -48 -282 -63 -65 -14 -124 -24 -133 -21 -21 9 -19 46 3 53 77 25 169 82 232 144 l70 69 0 73 c-1 88 -12 142 -46 226 -21 50 -24 65 -14 77 16 19 23 19 42 -2z m5949 -56 c-48 -116 -54 -143 -55 -245 l-1 -104 67 -64 c62 -58 168 -124 201 -124 8 0 21 -8 30 -18 14 -15 15 -21 4 -36 -12 -16 -19 -16 -127 8 -497 107 -497 107 -474 144 7 9 78 121 158 247 81 127 154 236 164 243 13 10 19 9 31 -3 13 -13 13 -20 2 -48z m519 -1025 c63 -35 117 -66 119 -68 7 -6 -111 -124 -124 -124 -10 0 -147 238 -153 267 -4 17 -9 20 158 -75z m-6935 -48 c-42 -64 -79 -123 -82 -130 -10 -26 -30 -14 -82 46 l-52 59 23 15 c39 25 263 134 267 130 2 -2 -31 -56 -74 -120z m-151 -248 c79 -160 82 -269 11 -411 -42 -86 -123 -187 -141 -177 -24 14 -394 353 -394 361 0 5 93 96 207 202 l207 192 33 -38 c18 -21 53 -79 77 -129z m7456 -41 c107 -97 196 -181 198 -188 2 -10 -285 -287 -387 -373 l-30 -25 -41 58 c-94 131 -140 279 -121 388 6 33 26 92 45 130 34 68 119 185 134 185 4 0 95 -79 202 -175z m-7070 161 c0 -10 -253 -226 -260 -221 -9 6 -74 154 -69 159 6 5 280 63 307 65 12 0 22 -1 22 -3z m6527 -27 c81 -17 152 -35 156 -39 14 -12 -60 -163 -75 -154 -18 11 -248 215 -248 220 0 7 16 5 167 -27z m-6674 -536 c55 -49 112 -98 126 -110 14 -11 24 -23 21 -26 -6 -6 -316 56 -325 65 -8 8 57 158 68 158 5 0 54 -39 110 -87z m6806 11 c18 -42 29 -80 24 -84 -10 -9 -314 -72 -320 -66 -2 2 35 39 83 82 49 44 104 94 123 111 20 18 41 33 46 33 6 0 26 -34 44 -76z m-6911 -262 c40 -72 72 -136 70 -140 -3 -8 -249 125 -270 146 -10 10 102 133 116 129 5 -2 43 -62 84 -135z m7011 72 c38 -47 48 -64 38 -72 -22 -18 -259 -133 -267 -130 -5 2 30 63 77 136 48 73 90 131 93 130 4 -2 31 -31 59 -64z m-6536 -609 c317 -69 311 -68 315 -86 1 -8 -26 -58 -60 -112 -35 -53 -108 -166 -162 -252 -70 -110 -104 -155 -118 -155 -30 0 -32 27 -5 88 47 105 61 254 30 319 -29 63 -165 160 -275 197 -18 5 -24 36 -11 49 11 11 23 9 286 -48z m6210 22 c8 -22 -5 -34 -65 -57 -70 -26 -158 -89 -217 -156 l-43 -49 5 -96 c4 -74 11 -111 32 -160 35 -82 37 -113 9 -117 -18 -3 -47 37 -183 246 -93 145 -159 256 -156 264 4 9 57 26 153 47 81 17 201 45 267 61 134 32 190 37 198 17z m-6029 -984 c17 -60 58 -284 53 -289 -3 -3 -42 -3 -87 1 -63 6 -80 10 -76 21 3 8 24 75 47 149 24 74 46 135 50 135 4 0 10 -8 13 -17z m5630 -124 c20 -78 40 -147 43 -155 4 -11 -12 -14 -86 -14 -66 0 -91 3 -91 13 0 11 64 252 75 285 11 30 23 3 59 -129z m-5348 54 c-3 -16 -8 -90 -12 -166 -3 -75 -10 -139 -14 -142 -10 -6 -160 55 -160 66 0 16 170 269 181 269 6 0 8 -11 5 -27z m5088 -104 c48 -72 86 -135 84 -141 -5 -13 -146 -70 -157 -63 -5 2 -12 67 -15 142 -4 76 -9 150 -12 166 -3 15 -1 27 4 27 5 0 48 -59 96 -131z m-5366 -195 c159 -33 295 -122 356 -233 33 -61 66 -188 66 -252 l0 -48 -52 -5 c-79 -8 -490 -27 -495 -23 -2 2 1 114 7 248 5 134 10 263 10 287 0 49 -2 49 108 26z m5636 -22 c3 -5 10 -105 15 -223 6 -118 13 -238 15 -268 l5 -54 -222 7 c-122 3 -252 9 -289 12 -66 6 -68 7 -68 33 0 48 37 176 70 241 56 110 131 177 245 219 90 33 218 51 229 33z m-4864 -146 c0 -3 -66 -48 -198 -133 l-83 -53 -18 42 c-33 79 -45 117 -37 125 11 11 336 30 336 19z m4298 -13 c23 -3 42 -11 42 -18 0 -25 -58 -150 -68 -148 -16 4 -272 173 -272 180 0 6 229 -4 298 -14z m-3384 -140 c2 -10 8 -34 11 -53 4 -19 32 -144 62 -278 44 -194 52 -246 43 -257 -17 -20 -39 -19 -46 3 -41 127 -163 283 -237 303 -58 15 -192 -3 -267 -37 -65 -29 -95 -29 -95 1 0 15 33 42 120 98 66 43 174 114 240 157 123 80 160 94 169 63z m2470 -167 c120 -77 220 -146 223 -153 3 -8 -1 -21 -9 -30 -14 -13 -20 -13 -55 5 -80 41 -180 59 -300 54 -38 -2 -49 -9 -103 -64 -41 -42 -73 -87 -97 -138 -19 -41 -38 -82 -43 -90 -12 -25 -45 -18 -48 11 -2 14 22 138 52 276 31 137 56 257 56 266 0 8 7 23 16 32 19 19 -8 33 308 -169z m-3477 63 c145 -39 161 -45 152 -53 -5 -4 -301 -86 -312 -86 -4 0 -7 41 -7 90 0 54 4 90 10 90 6 0 76 -18 157 -41z m4346 -41 c-3 -46 -8 -85 -10 -88 -6 -7 -293 90 -293 100 0 5 24 13 53 19 28 6 93 20 142 30 50 10 95 19 102 20 9 1 11 -20 6 -81z m-2485 -508 c56 -65 102 -123 102 -128 0 -11 -95 -58 -136 -68 -26 -7 -22 -19 -59 165 -27 133 -29 151 -17 150 4 0 53 -54 110 -119z m582 105 c0 -8 -13 -79 -30 -157 -16 -77 -30 -143 -30 -145 0 -1 -8 -3 -17 -2 -28 1 -148 63 -144 74 6 16 205 244 214 244 4 1 7 -6 7 -14z m-808 -225 c68 -45 124 -85 126 -89 3 -8 -110 -111 -122 -111 -3 0 -37 63 -76 140 -39 77 -66 140 -61 140 6 0 65 -36 133 -80z m1068 64 c0 -9 -125 -234 -144 -259 -14 -19 -17 -18 -75 40 -34 33 -60 63 -58 68 2 8 256 155 270 156 4 1 7 -2 7 -5z m-495 -164 c99 -34 249 -137 243 -165 -3 -15 -348 -403 -359 -404 -7 -1 -382 404 -387 418 -8 24 189 140 273 160 70 16 168 12 230 -9z" id="1"/>
<path d="M4224 8226 c-10 -14 -73 -84 -138 -156 -66 -72 -115 -135 -110 -138 147 -107 249 -137 362 -108 60 15 157 59 196 89 19 14 19 15 -8 48 -50 61 -267 289 -275 289 -4 0 -16 -11 -27 -24z" id="2"/>
<path d="M3770 7764 c-18 -30 -31 -57 -29 -58 2 -2 30 12 62 31 l59 35 -23 24 c-12 13 -26 24 -30 24 -4 0 -22 -25 -39 -56z" id="3"/>
<path d="M4665 7790 c-11 -12 -15 -24 -9 -29 21 -19 88 -60 92 -56 5 5 -49 105 -58 105 -4 0 -15 -9 -25 -20z" id="4"/>
<path d="M3981 7650 c-18 -85 -14 -89 34 -37 25 27 45 53 45 57 0 6 -52 30 -66 30 -1 0 -7 -23 -13 -50z" id="5"/>
<path d="M4470 7689 c-13 -6 -26 -12 -29 -14 -2 -3 18 -30 44 -60 26 -31 49 -54 51 -53 1 2 -1 24 -7 48 -21 103 -16 96 -59 79z" id="6"/>
<path d="M4210 7633 c2 -29 39 -135 43 -123 7 17 37 122 37 127 0 2 -18 3 -40 3 -22 0 -40 -3 -40 -7z" id="7"/>
<path d="M3837 7304 c-5 -6 93 -174 117 -201 9 -10 26 1 76 52 l64 65 78 -77 78 -78 78 78 79 78 67 -61 c44 -40 72 -58 78 -52 20 20 116 187 111 194 -5 9 -817 11 -826 2z" id="8"/>
<path d="M4054 7128 c-68 -75 -68 -76 -54 -103 17 -32 26 -31 57 5 13 17 30 30 37 30 7 0 45 -33 84 -73 l71 -74 83 84 82 83 38 -37 c37 -36 38 -36 53 -17 23 30 19 38 -41 89 l-56 48 -79 -79 -79 -79 -78 78 c-42 42 -80 77 -83 77 -3 0 -18 -15 -35 -32z" id="9"/>
<path d="M3542 7110 c-68 -10 -125 -20 -127 -22 -2 -2 -21 -69 -42 -150 l-40 -148 26 0 c56 1 291 36 300 45 7 9 81 269 81 288 0 11 -62 6 -198 -13z m148 -26 c0 -13 -53 -200 -61 -215 -6 -11 -38 -19 -119 -28 -61 -7 -114 -10 -117 -7 -9 9 48 215 61 223 24 15 236 39 236 27z" id="10"/>
<path d="M3523 7031 c-24 -4 -44 -9 -46 -12 -4 -5 -37 -126 -37 -137 0 -4 36 -4 79 1 l79 10 17 60 c9 34 19 67 22 74 6 14 -39 16 -114 4z" id="11"/>
<path d="M4786 7043 c14 -49 32 -116 40 -150 10 -40 22 -64 33 -67 36 -10 301 -39 307 -34 6 7 -64 278 -76 291 -8 9 -251 46 -302 47 l-26 0 24 -87z m162 36 c53 -7 102 -17 108 -23 15 -14 69 -215 60 -223 -6 -6 -208 14 -231 23 -10 4 -66 194 -65 222 0 15 7 15 128 1z" id="12"/>
<path d="M4870 7034 c0 -5 8 -38 18 -74 l19 -65 79 -11 c43 -7 80 -10 82 -9 6 6 -31 130 -42 142 -13 14 -156 29 -156 17z" id="13"/>
<path d="M4333 6938 l-83 -83 -78 78 -78 78 -22 -24 c-12 -13 -22 -27 -22 -32 0 -5 24 -49 53 -97 l52 -88 99 2 100 3 57 95 57 94 -20 28 c-10 16 -22 28 -26 28 -4 0 -44 -37 -89 -82z" id="14"/>
<path d="M4494 6884 c-46 -66 -204 -334 -204 -346 -1 -23 54 -238 60 -238 4 0 110 45 236 99 126 54 232 97 236 95 3 -2 46 -103 94 -224 48 -121 91 -220 95 -220 3 0 100 29 214 65 115 36 213 65 219 65 6 0 48 -89 94 -198 45 -108 86 -203 91 -210 5 -9 36 4 117 51 l109 63 48 203 c27 112 47 204 45 206 -2 2 -192 7 -423 11 l-420 7 -295 300 -296 301 -20 -30z m67 -267 c52 -46 94 -87 94 -92 0 -12 -253 -120 -261 -112 -4 3 6 63 21 134 31 149 32 153 43 153 5 0 51 -37 103 -83z m1283 -497 c11 -10 -142 -252 -156 -248 -10 4 -108 240 -108 260 0 13 250 1 264 -12z" id="15"/>
<path d="M4458 6553 c-9 -43 -15 -79 -14 -81 2 -1 36 12 76 30 l73 32 -53 48 c-30 26 -57 48 -60 48 -3 0 -13 -35 -22 -77z" id="16"/>
<path d="M5644 6077 c3 -13 16 -47 29 -77 l24 -54 46 69 c26 38 45 70 44 71 -1 0 -35 4 -76 8 -73 6 -73 6 -67 -17z" id="17"/>
<path d="M3699 6605 l-304 -296 -424 6 c-407 6 -424 6 -419 -12 3 -10 27 -106 53 -214 l49 -196 104 -63 c58 -34 108 -58 112 -54 5 5 48 108 95 229 48 121 91 224 95 229 5 5 97 -29 222 -82 117 -51 218 -92 223 -92 6 0 58 90 115 200 58 110 110 200 115 200 6 0 101 -37 213 -81 113 -45 207 -78 211 -73 10 11 61 204 61 229 0 14 -139 249 -206 348 -11 17 -42 -11 -315 -278z m396 -45 c15 -77 25 -143 22 -146 -9 -9 -257 99 -257 112 0 14 180 174 196 174 7 0 23 -60 39 -140z m-1165 -419 c0 -19 -98 -255 -108 -259 -9 -3 -162 222 -162 239 0 11 31 18 100 22 122 7 170 7 170 -2z" id="18"/>
<path d="M3971 6582 l-54 -48 74 -31 c41 -17 76 -30 77 -28 6 6 -30 155 -37 155 -3 0 -30 -22 -60 -48z" id="19"/>
<path d="M2783 6101 l-62 -6 42 -67 c23 -37 45 -67 48 -68 6 0 59 128 59 143 0 4 -6 6 -12 5 -7 -1 -41 -4 -75 -7z" id="20"/>
<path d="M2703 6754 c-68 -52 -123 -98 -123 -103 0 -8 252 -151 267 -151 13 0 252 183 253 194 1 7 -257 157 -269 156 -3 -1 -61 -44 -128 -96z m299 -39 c21 -11 38 -23 38 -27 0 -8 -184 -148 -195 -148 -14 0 -205 110 -204 118 0 4 43 40 96 79 l96 73 66 -37 c36 -20 83 -46 103 -58z" id="21"/>
<path d="M2772 6714 c-34 -25 -60 -50 -57 -54 7 -11 115 -70 128 -70 12 0 126 83 127 92 0 6 -122 78 -132 78 -2 0 -32 -21 -66 -46z" id="22"/>
<path d="M5528 6768 c-71 -40 -128 -74 -128 -77 0 -3 58 -50 129 -104 l129 -98 136 77 c103 58 134 79 126 89 -22 26 -238 185 -251 185 -8 -1 -71 -33 -141 -72z m242 -39 c50 -39 90 -74 90 -77 0 -10 -184 -112 -201 -112 -18 0 -184 129 -184 143 0 12 172 116 193 117 7 0 53 -32 102 -71z" id="23"/>
<path d="M5598 6718 c-32 -17 -58 -34 -58 -38 0 -5 27 -28 61 -53 l61 -46 62 34 c33 19 61 39 61 44 0 12 -104 91 -119 91 -6 0 -37 -15 -68 -32z" id="24"/>
<path d="M4190 6723 c0 -15 63 -103 70 -98 9 6 60 90 60 99 0 3 -29 6 -65 6 -36 0 -65 -3 -65 -7z" id="25"/>
<path d="M2081 6406 c-267 -267 -292 -295 -270 -301 170 -41 219 -51 224 -47 3 3 5 45 5 94 l0 88 110 0 110 0 0 109 0 108 90 7 c50 4 90 12 90 17 0 22 -53 219 -59 219 -3 0 -139 -132 -300 -294z" id="26"/>
<path d="M6086 6590 c-14 -61 -26 -115 -26 -120 0 -6 38 -10 90 -10 l90 0 0 -110 0 -110 109 0 c126 0 121 5 121 -111 0 -36 2 -68 6 -71 4 -5 59 7 198 43 l39 11 -294 294 c-162 162 -297 294 -301 294 -3 0 -18 -50 -32 -110z" id="27"/>
<path d="M1850 6645 c-15 -16 -20 -29 -14 -34 16 -16 114 -71 114 -64 0 9 -60 112 -69 117 -5 3 -19 -6 -31 -19z" id="28"/>
<path d="M6582 6613 c-18 -30 -31 -58 -28 -60 6 -6 116 57 116 66 0 8 -43 51 -51 51 -2 0 -19 -26 -37 -57z" id="29"/>
<path d="M2325 6421 l-30 -6 2 -108 1 -107 -109 0 -109 0 0 -79 c0 -83 5 -91 52 -91 17 0 19 5 16 48 l-3 47 107 3 107 3 3 117 3 117 53 3 c53 3 60 9 42 43 -9 15 -21 19 -58 18 -26 -1 -60 -4 -77 -8z" id="30"/>
<path d="M4585 6331 c-110 -47 -205 -90 -212 -94 -11 -7 -3 -61 11 -75 6 -5 175 68 287 124 36 18 70 29 75 26 6 -4 46 -105 89 -226 44 -120 84 -220 90 -222 6 -3 107 31 225 75 118 43 219 75 224 70 5 -4 35 -77 66 -161 32 -84 62 -153 66 -155 5 -2 23 6 41 17 l32 19 -65 153 c-36 84 -73 170 -81 191 -9 21 -21 36 -27 34 -6 -2 -102 -32 -213 -66 -145 -45 -207 -60 -219 -53 -9 5 -52 101 -98 215 -44 113 -83 208 -86 210 -3 3 -95 -34 -205 -82z" id="31"/>
<path d="M6040 6395 c-16 -42 -13 -45 46 -45 l57 0 -6 -110 -6 -110 120 0 119 0 0 -50 c0 -41 3 -50 18 -50 37 0 43 14 40 91 l-3 74 -114 3 -113 3 3 107 4 107 -78 3 c-75 3 -77 2 -87 -23z" id="32"/>
<path d="M4251 6397 c-1 -4 -28 -104 -61 -222 -33 -118 -60 -224 -60 -237 0 -31 114 -578 120 -578 3 0 18 60 32 133 15 72 42 203 60 290 l33 157 -49 193 c-51 196 -74 278 -75 264z" id="33"/>
<path d="M3752 6376 c-5 -6 -53 -95 -106 -198 -85 -163 -101 -188 -121 -188 -13 0 -114 39 -225 86 -110 48 -203 85 -205 82 -8 -8 -165 -409 -165 -422 0 -7 15 -20 34 -28 l34 -17 68 185 c37 101 71 184 75 184 5 0 106 -45 225 -100 119 -55 219 -98 223 -96 3 2 49 99 101 215 52 116 100 211 106 211 6 0 25 -7 42 -15 17 -9 86 -40 154 -70 l123 -55 12 28 c7 15 12 34 13 43 0 21 -375 172 -388 155z" id="34"/>
<path d="M2408 6213 l-3 -118 -107 -3 -108 -3 0 -38 0 -38 94 -21 c52 -12 101 -22 108 -22 7 0 42 30 79 66 l66 65 -26 112 -27 112 -36 3 -37 3 -3 -118z" id="35"/>
<path d="M6016 6298 c-3 -7 -14 -55 -27 -107 l-22 -93 70 -69 69 -70 112 28 112 27 0 38 0 38 -120 0 -120 0 0 110 0 110 -35 0 c-20 0 -37 -6 -39 -12z" id="36"/>
<path d="M4533 6177 c-89 -40 -133 -66 -133 -76 0 -9 9 -48 19 -87 l18 -70 -90 -440 c-49 -241 -91 -441 -93 -443 -2 -2 -6 -2 -9 1 -3 2 -45 202 -93 444 l-89 439 23 80 c13 44 22 81 20 82 -8 9 -249 114 -252 110 -2 -2 18 -57 45 -123 33 -79 54 -118 63 -115 7 2 20 6 29 8 9 3 19 -3 22 -11 5 -12 -9 -24 -54 -47 -34 -17 -67 -28 -75 -25 -18 7 -18 36 0 36 8 0 18 5 22 11 6 11 -95 259 -106 259 -3 0 -45 -88 -95 -196 -49 -108 -95 -198 -100 -200 -10 -4 -243 99 -363 160 -30 15 -56 25 -59 22 -3 -3 21 -69 52 -146 57 -138 59 -141 85 -135 19 4 29 2 33 -9 4 -9 2 -18 -3 -21 -13 -8 -121 -45 -132 -45 -17 0 -7 39 12 45 11 3 20 11 20 16 0 17 -102 260 -107 255 -2 -2 -28 -68 -58 -146 l-53 -141 28 -17 c128 -76 106 -50 365 -441 135 -203 248 -377 251 -386 8 -19 -56 21 -466 295 l-295 197 -39 69 c-21 38 -40 71 -42 72 -3 5 -246 -87 -256 -97 -10 -9 228 -104 241 -96 6 3 11 13 11 21 0 8 9 14 21 14 19 0 21 -4 15 -31 -3 -17 -15 -51 -25 -75 -15 -33 -24 -42 -36 -38 -12 5 -14 14 -10 34 6 26 3 28 -120 80 -69 29 -128 50 -130 48 -3 -2 30 -97 72 -211 42 -114 74 -210 71 -213 -4 -3 -98 -39 -210 -80 -111 -41 -206 -79 -211 -83 -7 -7 246 -121 270 -121 6 0 15 9 18 20 7 22 13 24 33 11 10 -6 6 -22 -19 -75 -34 -70 -54 -81 -54 -27 0 32 -2 33 -128 86 -70 29 -127 49 -127 45 0 -9 117 -271 124 -277 2 -2 39 6 82 18 93 26 44 32 585 -79 207 -42 377 -81 378 -87 1 -5 -128 -35 -286 -67 -158 -31 -355 -71 -437 -88 l-148 -31 -84 22 c-46 12 -86 20 -87 18 -14 -18 -108 -242 -103 -246 3 -3 57 16 121 42 l115 48 -6 33 c-11 57 21 42 56 -26 16 -33 30 -64 30 -70 0 -17 -31 -11 -48 9 -17 19 -20 18 -139 -32 -67 -29 -124 -55 -127 -57 -2 -3 87 -48 200 -100 112 -52 204 -97 204 -100 0 -4 -43 -98 -95 -210 -52 -112 -95 -207 -95 -211 0 -4 64 19 143 51 l142 59 -3 31 c-3 26 0 31 15 28 25 -5 70 -128 51 -140 -21 -13 -27 -9 -34 18 -5 18 -11 23 -23 19 -91 -33 -251 -100 -251 -104 0 -6 267 -106 282 -106 5 0 28 32 51 70 l42 70 305 203 c394 261 460 303 460 293 0 -5 -112 -178 -249 -384 l-249 -375 -66 -37 c-36 -20 -68 -41 -72 -46 -8 -13 87 -262 97 -252 9 9 99 223 99 236 0 4 -6 7 -14 7 -20 0 -36 23 -27 39 12 20 141 -28 141 -52 0 -14 -7 -18 -31 -15 -30 3 -31 2 -81 -120 -28 -67 -48 -125 -45 -128 3 -3 96 28 208 70 112 41 206 73 210 70 4 -2 26 -57 50 -121 23 -65 59 -163 80 -218 l37 -99 25 54 c13 30 41 95 62 144 l38 90 -21 14 c-25 17 -29 42 -7 42 9 0 42 -13 75 -30 44 -22 58 -34 53 -46 -3 -8 -13 -14 -22 -11 -9 2 -22 6 -30 8 -9 3 -31 -37 -67 -125 -30 -71 -53 -130 -51 -132 2 -2 57 22 122 52 66 31 130 60 142 64 l22 9 -23 86 -23 86 32 152 c18 84 58 283 90 442 32 160 60 292 62 294 2 2 5 2 8 -1 3 -2 45 -204 94 -447 l89 -443 -23 -79 c-16 -57 -20 -81 -11 -86 35 -23 241 -111 244 -104 1 4 -19 59 -46 122 -41 93 -53 113 -68 111 -11 -2 -23 -5 -29 -5 -5 -1 -10 6 -10 17 0 13 19 26 63 47 55 24 64 26 69 12 4 -10 -2 -22 -16 -33 l-23 -16 54 -127 c29 -70 55 -127 58 -127 3 0 47 92 99 205 87 189 95 203 115 195 11 -4 108 -49 214 -98 105 -50 192 -87 192 -82 0 5 -23 65 -51 132 -28 68 -53 129 -56 136 -4 9 -15 12 -34 8 -18 -3 -29 -1 -33 9 -6 18 9 29 68 49 64 21 76 20 76 -4 0 -11 -6 -20 -14 -20 -8 0 -18 -5 -21 -11 -7 -10 95 -273 102 -265 5 5 113 290 110 291 -1 1 -35 21 -75 46 l-73 44 -250 378 c-138 208 -249 380 -247 383 3 2 140 -85 304 -194 461 -305 452 -299 482 -349 15 -24 35 -57 44 -73 l17 -28 116 44 c64 24 123 48 132 52 11 7 -19 23 -108 60 l-124 51 -9 -24 c-10 -26 -30 -33 -41 -14 -4 5 3 39 16 75 16 46 27 64 38 61 11 -2 15 -12 14 -32 -2 -29 1 -31 118 -80 67 -28 126 -52 132 -54 13 -5 12 -3 -73 228 -39 106 -68 197 -63 201 7 7 232 92 376 142 32 11 57 22 55 24 -2 1 -66 30 -143 63 l-140 60 -20 -26 c-17 -20 -23 -23 -32 -12 -17 21 40 142 64 137 10 -2 16 -11 14 -19 -2 -8 -5 -21 -8 -29 -3 -12 28 -29 123 -68 69 -29 129 -51 131 -48 5 5 -104 253 -118 270 -5 6 -41 0 -89 -13 l-80 -22 -442 91 c-243 50 -444 93 -447 95 -2 3 -2 6 0 8 2 2 202 43 444 92 l440 88 80 -21 c44 -11 83 -18 87 -14 9 9 117 246 114 250 -2 1 -56 -20 -122 -47 -117 -49 -119 -50 -119 -82 0 -18 -5 -34 -11 -36 -13 -4 -77 124 -69 138 10 16 33 10 40 -11 3 -11 12 -20 18 -20 7 0 68 23 136 52 l125 53 -110 52 c-60 28 -147 69 -194 89 -47 21 -91 43 -98 49 -10 9 7 52 79 206 50 107 93 202 96 212 6 20 10 22 -182 -58 -100 -42 -100 -42 -97 -74 3 -27 0 -32 -14 -29 -17 3 -68 131 -56 142 12 13 29 5 40 -19 l11 -24 123 50 c68 28 127 54 131 58 10 10 -269 115 -282 107 -5 -3 -26 -36 -48 -72 l-38 -67 -370 -245 c-203 -134 -376 -247 -384 -250 -11 -4 -11 -1 -1 19 19 35 469 711 488 732 8 9 44 33 79 53 34 19 63 39 63 43 0 10 -79 220 -90 240 -6 12 -9 11 -18 -5 -12 -22 -92 -214 -92 -220 0 -3 11 -9 25 -14 28 -11 33 -28 10 -36 -15 -6 -113 22 -129 37 -5 4 -6 15 -3 23 5 12 12 14 31 6 24 -9 26 -5 71 103 55 131 66 157 62 157 -2 0 -93 -34 -203 -75 -109 -41 -206 -75 -215 -75 -11 0 -37 60 -94 215 -43 118 -82 212 -86 208 -9 -9 -119 -263 -119 -274 0 -4 9 -11 20 -14 21 -7 27 -30 11 -39 -5 -4 -37 6 -70 20 -44 19 -61 32 -61 46 0 16 5 18 33 13 l32 -6 48 115 c62 151 60 146 51 145 -5 0 -69 -28 -141 -62z m-471 -624 c16 -18 82 -358 76 -390 -2 -10 -51 35 -134 123 l-132 139 -20 155 c-11 85 -17 158 -15 163 4 7 186 -147 225 -190z m603 18 l-33 -144 -138 -139 c-80 -79 -140 -133 -142 -125 -2 8 17 91 42 185 50 192 30 162 201 305 50 41 93 72 97 68 4 -3 -8 -71 -27 -150z m-1056 -98 l81 -128 -1 -100 c-1 -55 -4 -143 -8 -195 l-6 -95 -86 145 c-48 80 -91 154 -97 165 -7 14 -6 63 4 160 7 77 13 148 14 158 0 36 21 13 99 -110z m1426 -45 l7 -147 -108 -155 c-60 -86 -112 -155 -116 -156 -10 0 -9 263 0 337 6 47 17 66 101 174 65 84 96 117 101 108 4 -8 11 -80 15 -161z m-1107 -131 c75 -73 175 -169 222 -212 46 -44 89 -85 95 -92 7 -9 70 47 240 213 169 166 234 224 250 222 19 -3 20 -12 26 -153 4 -82 7 -232 8 -332 l1 -183 318 0 c250 0 322 -3 336 -13 13 -10 16 -18 10 -29 -5 -9 -107 -118 -227 -244 -119 -125 -216 -232 -215 -236 2 -4 103 -108 226 -233 122 -124 222 -232 222 -240 0 -8 -6 -17 -12 -22 -7 -4 -159 -10 -338 -13 l-325 -5 -5 -330 c-5 -307 -6 -330 -23 -333 -12 -3 -81 57 -214 185 -108 103 -215 205 -239 226 l-42 37 -229 -225 c-164 -162 -234 -224 -248 -223 -19 3 -20 13 -26 178 -4 96 -7 245 -8 331 l-1 156 -326 5 c-323 6 -345 8 -344 38 1 5 53 62 304 324 l149 157 -24 27 c-13 15 -114 118 -224 230 -110 111 -202 207 -204 214 -10 30 32 38 198 38 91 0 236 3 323 7 l156 6 1 320 c1 176 4 324 7 329 16 25 55 -2 182 -125z m-563 -363 c83 -58 154 -110 160 -115 5 -5 -68 -9 -182 -9 l-191 0 -123 96 c-68 53 -125 99 -127 104 -2 4 34 11 80 14 46 3 99 8 118 9 114 11 105 15 265 -99z m2103 64 c78 -6 142 -15 142 -19 0 -4 -58 -44 -129 -88 l-128 -81 -191 0 c-105 0 -193 4 -196 8 -7 12 305 192 334 192 14 0 89 -5 168 -12z m-2531 -339 l136 -32 134 -134 c123 -125 154 -163 120 -150 -7 3 -89 24 -181 48 l-168 42 -97 116 c-53 64 -101 122 -105 129 -11 18 10 16 161 -19z m2813 -4 c0 -3 -45 -57 -101 -120 -67 -76 -110 -116 -128 -119 -100 -21 -326 -57 -344 -54 -17 2 6 28 116 133 l138 130 117 16 c123 17 202 23 202 14z m-380 -556 l155 -40 104 -125 c57 -69 101 -127 98 -130 -3 -3 -71 9 -151 27 l-145 33 -143 144 c-165 166 -173 158 82 91z m-2030 32 c0 -5 -60 -66 -134 -135 l-134 -126 -156 -21 c-87 -12 -160 -19 -163 -15 -3 3 41 58 98 123 l105 117 179 32 c209 37 205 37 205 25z m1919 -451 l96 0 123 -96 c67 -53 122 -100 122 -105 0 -5 -19 -9 -42 -10 -24 0 -92 -4 -153 -8 -107 -9 -111 -8 -150 17 -92 58 -275 194 -275 204 0 8 28 9 92 4 50 -3 134 -6 187 -6z m-1723 -9 c-3 -5 -76 -50 -161 -101 l-156 -91 -142 11 c-78 7 -153 15 -167 20 -23 7 -21 10 45 51 38 24 94 61 125 81 l55 36 203 1 c117 1 201 -3 198 -8z m1397 -312 l86 -145 -14 -145 c-8 -79 -15 -152 -15 -161 0 -10 -4 -18 -8 -18 -5 0 -45 58 -90 129 l-81 129 6 196 c5 156 9 192 18 179 7 -10 51 -84 98 -164z m-1245 -54 l-3 -161 -93 -119 c-52 -66 -98 -121 -102 -123 -14 -5 -18 27 -25 173 l-6 140 113 159 c132 185 122 191 116 -69z m419 -160 l-44 -170 -119 -102 c-117 -100 -151 -121 -140 -85 3 9 19 76 35 148 l30 132 138 136 c76 75 139 130 141 123 1 -7 -17 -89 -41 -182z m453 -6 l69 -75 15 -125 c9 -68 18 -139 21 -156 4 -19 2 -33 -4 -33 -12 0 -241 199 -241 210 0 5 -13 86 -30 182 -16 95 -30 180 -30 188 0 16 93 -73 200 -191z" id="37"/>
<path d="M3896 5550 l12 -100 83 -91 c46 -50 85 -87 87 -81 2 6 -6 64 -18 129 -15 85 -26 122 -39 133 -10 8 -43 36 -73 63 -31 26 -57 47 -60 47 -2 0 1 -45 8 -100z" id="38"/>
<path d="M4545 5559 l-70 -60 -27 -102 c-15 -56 -28 -106 -28 -110 0 -5 39 28 88 73 l87 82 17 76 c20 87 21 102 11 101 -5 0 -39 -27 -78 -60z" id="39"/>
<path d="M3536 5428 c-13 -127 -10 -142 46 -238 29 -50 56 -90 60 -90 5 0 8 52 8 116 l0 116 -47 75 c-26 41 -50 76 -54 79 -3 2 -9 -24 -13 -58z" id="40"/>
<path d="M4918 5414 l-68 -88 0 -118 c0 -65 2 -118 4 -118 2 0 36 45 75 101 69 97 71 102 70 157 0 31 -4 79 -7 105 l-7 48 -67 -87z" id="41"/>
<path d="M3802 5066 l3 -270 128 -44 c71 -24 130 -42 132 -40 1 2 30 57 63 124 l61 121 -107 104 c-59 57 -146 142 -195 189 l-87 85 2 -269z" id="42"/>
<path d="M4507 5142 l-186 -187 59 -122 c32 -68 64 -123 70 -123 6 0 67 18 136 41 l126 41 -7 266 c-4 147 -8 268 -9 269 -1 1 -86 -82 -189 -185z" id="43"/>
<path d="M4174 4785 c-44 -92 -75 -144 -84 -145 -9 0 -83 23 -165 50 -82 28 -151 50 -152 50 -14 0 55 -230 86 -288 6 -11 9 -27 6 -34 -3 -8 -73 -47 -155 -88 -82 -41 -146 -78 -143 -83 3 -5 69 -40 147 -78 77 -39 143 -75 145 -80 1 -6 -21 -80 -50 -164 -29 -85 -50 -157 -47 -160 3 -3 74 17 159 45 84 27 156 50 161 50 4 0 42 -67 83 -150 41 -82 79 -150 83 -150 5 0 41 68 81 150 40 83 75 150 77 150 1 0 75 -24 163 -54 88 -30 162 -52 164 -48 2 4 -18 72 -45 152 -26 80 -49 152 -51 160 -1 9 48 39 151 89 83 41 152 78 152 83 0 4 -64 39 -142 78 -79 40 -147 75 -152 80 -4 5 15 78 44 165 29 86 50 159 47 162 -7 6 -268 -75 -281 -88 -29 -27 -46 -7 -117 141 -40 83 -77 150 -84 150 -6 0 -43 -65 -81 -145z m146 -75 c30 -77 61 -140 67 -140 7 0 73 23 146 50 73 28 137 50 140 50 14 0 6 -23 -49 -152 -37 -86 -52 -134 -46 -140 6 -6 68 -37 138 -69 71 -32 130 -62 132 -67 1 -5 -57 -33 -130 -62 -73 -29 -137 -56 -141 -60 -4 -4 15 -69 43 -145 28 -77 49 -144 48 -151 -2 -9 -49 7 -142 47 -77 33 -142 56 -146 52 -4 -4 -33 -68 -66 -140 -32 -73 -64 -133 -70 -133 -6 0 -35 61 -64 136 -30 74 -56 137 -60 139 -3 2 -71 -21 -150 -51 -80 -29 -146 -54 -147 -54 -9 0 3 35 52 151 30 72 55 134 55 139 0 4 -63 36 -140 71 -77 35 -139 68 -137 74 2 5 63 33 137 62 73 29 135 55 138 58 3 3 -18 67 -46 143 -49 130 -58 162 -48 162 3 0 67 -27 143 -59 l138 -59 30 62 c17 33 47 98 67 144 21 45 41 82 45 82 4 0 33 -63 63 -140z" id="44"/>
<path d="M4211 4617 c-22 -49 -41 -96 -41 -105 0 -19 72 -192 80 -192 3 0 23 41 44 91 l39 92 -17 51 c-10 28 -28 74 -41 101 l-22 50 -42 -88z" id="45"/>
<path d="M3930 4567 c0 -18 66 -175 79 -189 12 -12 182 -88 197 -88 2 0 -16 45 -39 101 l-42 101 -78 33 c-88 38 -117 49 -117 42z" id="46"/>
<path d="M4471 4531 l-95 -36 -42 -102 c-24 -57 -42 -103 -40 -103 1 0 45 17 97 38 l94 37 43 89 c24 49 42 94 40 101 -2 9 -30 2 -97 -24z" id="47"/>
<path d="M3888 4292 c-48 -21 -88 -40 -88 -43 0 -3 41 -24 91 -47 l91 -42 100 42 c54 22 95 44 91 48 -12 11 -177 80 -188 79 -6 0 -49 -17 -97 -37z" id="48"/>
<path d="M4420 4294 c-47 -20 -89 -39 -93 -44 -4 -4 35 -25 89 -47 l96 -40 100 40 100 40 -92 44 c-51 24 -98 43 -104 42 -6 0 -49 -16 -96 -35z" id="49"/>
<path d="M4096 4161 l-89 -37 -40 -92 c-22 -51 -37 -95 -34 -99 3 -3 48 11 99 31 l94 36 41 100 c22 55 35 100 29 99 -6 0 -51 -17 -100 -38z" id="50"/>
<path d="M4300 4193 c0 -16 63 -168 75 -181 15 -16 186 -94 193 -88 6 6 -59 178 -72 193 -9 9 -180 83 -193 83 -2 0 -3 -3 -3 -7z" id="51"/>
<path d="M4246 4172 c-12 -20 -76 -177 -76 -187 0 -10 68 -186 75 -193 2 -2 23 39 48 92 l45 95 -43 101 c-23 56 -45 97 -49 92z" id="52"/>
<path d="M3415 4700 l-250 -5 187 -190 188 -190 125 63 c69 34 125 65 124 69 0 5 -20 64 -42 133 -35 104 -45 125 -62 125 -11 1 -132 -2 -270 -5z" id="53"/>
<path d="M4760 4575 c-23 -69 -40 -131 -37 -138 3 -7 57 -39 121 -72 l116 -60 183 189 c100 104 184 193 185 197 2 5 -116 9 -261 9 l-265 0 -42 -125z" id="54"/>
<path d="M3352 3993 c-99 -104 -177 -189 -174 -190 4 -1 123 -3 264 -6 l257 -4 45 134 45 134 -120 59 c-65 33 -123 60 -128 60 -5 0 -90 -84 -189 -187z" id="55"/>
<path d="M4834 4116 c-61 -29 -114 -58 -117 -63 -4 -6 13 -67 36 -136 l42 -127 170 0 c93 0 214 3 268 7 l99 6 -184 184 c-100 100 -187 183 -193 183 -5 0 -60 -24 -121 -54z" id="56"/>
<path d="M3910 3741 l-115 -37 4 -264 c2 -146 5 -267 7 -269 3 -3 88 79 190 180 l186 186 -61 121 c-44 88 -66 122 -79 121 -9 0 -69 -17 -132 -38z" id="57"/>
<path d="M4372 3658 l-63 -121 187 -181 c103 -100 191 -182 195 -184 5 -2 9 115 9 260 l0 264 -122 42 c-68 23 -127 42 -133 42 -5 0 -38 -55 -73 -122z" id="58"/>
<path d="M3070 4991 l-75 -6 85 -67 85 -68 124 0 125 0 -107 75 c-77 55 -114 75 -134 73 -15 -1 -62 -4 -103 -7z" id="59"/>
<path d="M5187 4913 l-98 -58 127 -3 127 -3 73 48 c41 26 74 51 74 56 0 4 -13 7 -28 7 -16 0 -62 2 -103 5 l-74 6 -98 -58z" id="60"/>
<path d="M2915 4571 c72 -92 83 -99 198 -130 59 -16 107 -26 107 -22 0 3 -38 44 -83 89 l-84 83 -84 19 c-46 11 -88 20 -92 20 -5 0 12 -26 38 -59z" id="61"/>
<path d="M5520 4598 l-75 -9 -82 -81 c-45 -45 -80 -84 -78 -86 2 -3 55 3 117 13 l113 17 67 72 c38 39 68 74 68 79 0 8 -30 7 -130 -5z" id="62"/>
<path d="M5365 3990 l89 -89 85 -20 c47 -11 87 -18 89 -16 3 2 -79 106 -113 143 -9 10 -211 72 -235 72 -2 0 36 -40 85 -90z" id="63"/>
<path d="M3090 4057 c-127 -24 -110 -14 -221 -141 l-34 -39 40 6 c22 3 70 9 107 13 l66 7 94 88 c51 48 86 88 78 88 -8 -1 -67 -11 -130 -22z" id="64"/>
<path d="M5090 3647 c0 -3 45 -37 100 -76 l101 -71 87 1 c132 1 134 4 42 76 l-79 62 -125 7 c-70 4 -126 4 -126 1z" id="65"/>
<path d="M3085 3596 c-42 -27 -74 -50 -72 -53 3 -2 47 -8 99 -14 l95 -9 99 57 c110 65 113 60 -48 65 l-97 3 -76 -49z" id="66"/>
<path d="M4850 3281 l0 -120 53 -82 52 -83 7 55 c17 138 16 149 -43 253 -30 52 -57 96 -61 96 -5 0 -8 -54 -8 -119z" id="67"/>
<path d="M3570 3301 c-77 -109 -78 -114 -62 -251 l7 -55 67 85 68 85 0 118 c0 64 -2 117 -5 117 -2 0 -36 -45 -75 -99z" id="68"/>
<path d="M3988 3132 l-85 -87 -18 -83 c-9 -46 -15 -85 -13 -88 3 -2 38 25 80 60 l74 63 28 107 c16 59 27 109 24 111 -2 2 -43 -35 -90 -83z" id="69"/>
<path d="M4420 3215 c0 -6 9 -62 20 -125 11 -63 20 -116 20 -116 0 -6 152 -136 154 -133 2 2 -3 51 -10 108 l-12 104 -86 86 c-47 47 -86 81 -86 76z" id="70"/>
<path d="M2492 6007 c-23 -23 -42 -46 -42 -49 0 -9 108 -30 119 -23 6 3 8 11 6 18 -2 7 -9 31 -15 55 -6 23 -14 42 -18 42 -4 0 -27 -19 -50 -43z" id="71"/>
<path d="M5956 6039 c-14 -39 -24 -105 -17 -112 8 -8 99 10 113 22 5 4 -14 29 -42 56 -35 34 -51 44 -54 34z" id="72"/>
<path d="M2196 5836 c-3 -61 -6 -250 -6 -421 l0 -310 -300 -293 c-165 -162 -300 -297 -300 -301 0 -5 82 -58 183 -119 l183 -111 119 30 c66 17 121 32 122 33 2 1 -42 107 -98 235 -55 129 -97 237 -92 241 4 4 106 47 226 95 126 51 216 93 214 99 -31 84 -127 411 -125 423 2 13 216 112 395 183 22 9 21 12 -39 117 -34 59 -63 110 -64 111 -1 2 -87 24 -191 48 -103 24 -195 45 -204 47 -14 4 -17 -12 -23 -107z m315 -67 c67 -44 117 -85 113 -89 -12 -11 -235 -100 -251 -100 -9 0 -13 19 -13 68 0 97 11 202 22 202 5 0 63 -36 129 -81z m-476 -1245 c30 -70 55 -130 55 -133 0 -6 -74 6 -187 30 -57 12 -103 26 -103 32 0 17 168 212 176 204 2 -2 29 -62 59 -133z" id="73"/>
<path d="M2406 5743 c-3 -21 -6 -55 -6 -75 l0 -38 51 21 c110 43 109 40 37 85 -34 21 -65 40 -69 42 -3 1 -9 -14 -13 -35z" id="74"/>
<path d="M1906 4528 l-45 -53 67 -17 c108 -27 105 -28 70 52 -17 39 -34 70 -39 70 -4 0 -28 -24 -53 -52z" id="75"/>
<path d="M6102 5896 l-204 -51 -63 -105 c-35 -58 -61 -108 -59 -112 2 -4 109 -48 237 -98 127 -51 233 -93 234 -94 2 -2 -40 -103 -93 -225 -53 -122 -95 -224 -93 -226 2 -2 95 -51 206 -110 l202 -106 -18 -47 c-10 -26 -49 -121 -85 -212 -36 -90 -63 -167 -58 -171 4 -4 59 -21 122 -38 l114 -30 158 97 c87 53 168 105 180 114 l23 17 -165 168 c-91 92 -222 227 -293 299 l-128 130 1 427 c0 235 -3 426 -7 426 -5 -1 -99 -25 -211 -53z m40 -117 c11 -99 9 -209 -4 -208 -24 1 -252 95 -255 105 -3 11 227 163 242 160 6 -2 13 -27 17 -57z m455 -1206 c81 -93 114 -135 111 -139 -6 -5 -293 -63 -297 -59 -2 2 15 46 37 97 22 51 47 110 56 131 8 20 19 37 24 37 6 0 36 -30 69 -67z" id="76"/>
<path d="M6030 5734 c-30 -20 -59 -40 -63 -44 -4 -4 26 -21 67 -38 l76 -31 0 28 c0 44 -12 121 -19 121 -3 0 -31 -16 -61 -36z" id="77"/>
<path d="M6505 4505 c-15 -36 -25 -68 -22 -71 3 -3 32 -1 64 6 102 20 99 15 47 76 -26 30 -50 54 -54 54 -4 0 -20 -29 -35 -65z" id="78"/>
<path d="M1745 5795 l-97 -126 77 -137 c43 -75 78 -138 80 -140 2 -2 151 189 192 246 10 14 -1 39 -62 147 -41 71 -79 131 -84 133 -5 2 -52 -54 -106 -123z m175 -59 l44 -84 -73 -96 c-41 -53 -75 -96 -77 -96 -2 0 -22 33 -45 73 -23 39 -50 86 -60 103 l-19 31 77 98 c88 113 76 115 153 -29z" id="79"/>
<path d="M1788 5728 l-46 -63 19 -38 c11 -21 28 -52 38 -68 l19 -30 46 59 c25 33 46 64 46 69 1 11 -64 133 -70 133 -4 0 -27 -28 -52 -62z" id="80"/>
<path d="M6610 5849 c-24 -41 -58 -101 -77 -133 -24 -41 -32 -65 -26 -76 4 -9 48 -69 98 -133 69 -90 92 -114 101 -104 16 18 144 248 144 260 0 9 -108 154 -168 226 l-29 35 -43 -75z m133 -91 c37 -48 67 -90 67 -94 0 -14 -111 -204 -119 -204 -5 0 -41 43 -81 95 l-72 94 38 68 c61 110 85 146 93 137 4 -5 38 -48 74 -96z" id="81"/>
<path d="M6626 5725 c-20 -36 -36 -68 -36 -71 0 -9 91 -124 98 -124 9 0 72 114 72 129 0 10 -89 131 -96 131 -1 0 -18 -29 -38 -65z" id="82"/>
<path d="M2747 5738 c11 -18 64 -111 118 -207 l99 -174 248 -165 c136 -91 250 -163 253 -161 2 3 -71 118 -163 256 -153 229 -171 253 -217 279 -27 15 -116 67 -197 116 -81 48 -150 88 -153 88 -4 0 2 -15 12 -32z" id="83"/>
<path d="M5559 5647 l-196 -112 -166 -250 c-91 -137 -165 -251 -163 -252 2 -2 116 70 253 160 l250 165 114 193 c126 213 124 209 112 208 -4 0 -96 -50 -204 -112z" id="84"/>
<path d="M2570 5492 c-96 -41 -177 -77 -178 -78 -2 -1 25 -98 61 -215 52 -168 63 -215 54 -229 -6 -11 -100 -53 -220 -100 -169 -66 -208 -85 -204 -99 3 -9 44 -104 91 -211 l86 -195 32 3 c18 1 36 6 40 10 7 7 -58 163 -128 306 -15 31 -25 58 -22 61 2 3 103 41 223 84 120 44 222 84 226 88 5 5 -27 107 -71 228 -45 120 -77 222 -73 226 4 4 76 33 158 64 83 31 153 59 157 61 13 8 -25 74 -41 73 -9 0 -95 -35 -191 -77z" id="85"/>
<path d="M5714 5539 c-8 -17 -12 -35 -7 -39 8 -7 283 -111 331 -125 12 -3 22 -13 22 -20 0 -8 -45 -112 -99 -231 l-100 -216 92 -42 c51 -24 145 -67 211 -96 65 -30 120 -60 123 -67 3 -7 -25 -80 -61 -161 -37 -81 -66 -152 -66 -159 0 -15 68 -29 79 -17 4 5 40 90 80 189 63 159 69 181 56 191 -9 7 -97 54 -195 105 -129 68 -181 100 -184 115 -4 13 27 98 83 227 49 114 86 209 82 211 -13 8 -415 166 -423 166 -4 0 -15 -14 -24 -31z" id="86"/>
<path d="M1557 5130 c-76 -21 -142 -41 -145 -45 -7 -7 -52 -317 -47 -323 3 -4 296 75 301 81 4 4 44 290 44 313 0 17 10 19 -153 -26z m113 -32 c0 -30 -27 -219 -32 -223 -7 -8 -222 -64 -228 -60 -8 5 19 227 29 238 7 7 193 64 219 66 6 0 12 -9 12 -21z" id="87"/>
<path d="M1544 5047 l-72 -19 -10 -82 c-6 -44 -10 -82 -8 -83 1 -1 35 8 76 21 l75 23 8 59 c4 32 6 68 5 80 l-3 21 -71 -20z" id="88"/>
<path d="M6790 5152 c0 -14 41 -317 43 -318 16 -7 279 -74 291 -74 12 0 16 6 12 18 -2 9 -12 81 -22 160 l-19 143 -50 14 c-241 68 -255 71 -255 57z m169 -72 c57 -16 104 -30 106 -32 1 -2 9 -56 17 -120 12 -97 12 -118 1 -118 -20 0 -207 52 -216 60 -7 6 -36 184 -37 228 0 17 11 15 129 -18z" id="89"/>
<path d="M6885 4994 c4 -38 11 -76 15 -84 7 -14 137 -56 145 -48 2 2 -1 38 -7 80 l-11 77 -56 16 c-31 9 -64 19 -75 22 -17 5 -18 1 -11 -63z" id="90"/>
<path d="M1190 4250 c0 -357 2 -421 14 -417 26 10 196 118 196 125 0 3 -28 35 -62 69 l-62 63 77 78 77 77 -75 75 c-41 41 -75 78 -75 82 0 4 28 37 61 73 34 36 60 67 58 69 -3 3 -133 82 -201 123 -5 2 -8 -186 -8 -417z" id="91"/>
<path d="M7215 4614 c-134 -83 -131 -76 -57 -142 34 -31 62 -62 62 -68 0 -6 -34 -44 -76 -83 l-77 -73 78 -78 79 -79 -62 -70 c-46 -51 -58 -71 -49 -78 31 -25 189 -115 193 -111 2 3 3 192 2 421 l-3 416 -90 -55z" id="92"/>
<path d="M1383 4461 l-52 -58 75 -74 c41 -40 74 -78 74 -84 0 -5 -32 -42 -72 -82 l-72 -73 53 -54 c53 -54 55 -55 83 -40 15 8 28 18 28 23 0 4 -16 23 -37 41 l-36 33 76 74 c43 40 77 77 77 82 0 5 -37 43 -82 85 l-82 76 38 39 37 38 -25 16 c-14 10 -27 17 -28 17 -2 0 -26 -27 -55 -59z" id="93"/>
<path d="M7022 4493 l-23 -16 38 -39 37 -38 -79 -74 -80 -74 85 -86 84 -86 -38 -39 -39 -40 27 -13 c27 -12 30 -10 84 46 l55 58 -76 70 c-42 38 -77 75 -77 82 0 6 34 45 75 86 l75 74 -52 53 c-29 29 -57 53 -63 52 -5 0 -20 -7 -33 -16z" id="94"/>
<path d="M1499 4434 l-24 -26 83 -78 c45 -42 82 -80 82 -83 0 -4 -35 -41 -77 -82 l-78 -75 29 -24 30 -25 38 22 c67 39 142 92 140 100 -1 4 -2 49 -2 100 l0 92 -90 53 c-48 28 -93 52 -98 52 -4 0 -19 -12 -33 -26z" id="95"/>
<path d="M6875 4404 c-107 -68 -100 -56 -97 -167 l3 -97 96 -56 95 -56 26 26 27 26 -85 85 -85 85 80 74 80 74 -24 26 c-14 14 -29 26 -35 25 -6 0 -42 -21 -81 -45z" id="96"/>
<path d="M2323 4312 c-117 -31 -213 -59 -213 -62 0 -3 101 -33 223 -67 l224 -62 296 61 c163 34 295 63 294 64 -5 5 -583 124 -597 123 -8 0 -111 -26 -227 -57z" id="97"/>
<path d="M5665 4316 c-137 -29 -266 -57 -285 -61 -31 -8 -21 -11 100 -36 74 -16 209 -44 299 -63 l164 -35 191 50 c105 27 209 55 231 61 39 10 37 11 -185 74 -124 35 -234 63 -245 63 -11 0 -132 -24 -270 -53z" id="98"/>
<path d="M1770 4251 l0 -71 50 31 c28 17 50 35 50 40 0 7 -29 28 -87 63 -10 5 -13 -10 -13 -63z" id="99"/>
<path d="M6678 4280 c-27 -17 -48 -34 -48 -39 0 -11 90 -65 96 -58 3 3 4 32 2 65 l-3 61 -47 -29z" id="100"/>
<path d="M7625 4284 c-5 -1 -37 -10 -70 -20 l-60 -16 69 -20 c38 -10 71 -17 73 -14 9 8 -2 73 -12 70z" id="101"/>
<path d="M860 4245 c0 -41 3 -41 85 -17 l60 18 -61 17 c-82 23 -84 22 -84 -18z" id="102"/>
<path d="M1785 4119 c-88 -55 -166 -106 -173 -113 -11 -11 33 -61 250 -283 145 -148 276 -283 291 -300 l28 -30 -1 -422 c0 -244 3 -421 8 -421 13 0 413 98 417 102 14 16 126 210 123 213 -4 5 -240 100 -370 150 -55 21 -98 43 -98 50 0 7 41 109 91 225 50 117 87 216 82 220 -4 4 -95 54 -200 110 -109 57 -193 108 -193 116 0 7 36 104 81 214 44 111 79 203 77 205 -5 5 -232 65 -243 64 -5 0 -82 -45 -170 -100z m302 -16 c-14 -45 -107 -248 -114 -250 -13 -5 -175 187 -170 200 2 6 59 23 128 38 153 34 163 34 156 12z m466 -1250 c37 -14 67 -30 67 -35 0 -13 -244 -168 -252 -160 -4 4 -11 67 -14 140 l-7 133 69 -27 c38 -14 99 -37 137 -51z" id="103"/>
<path d="M1943 4052 c-40 -8 -73 -19 -73 -25 0 -9 77 -99 91 -105 7 -3 65 136 58 141 -2 2 -37 -3 -76 -11z" id="104"/>
<path d="M2395 2798 c3 -40 8 -74 10 -76 2 -2 34 17 71 42 l68 45 -40 17 c-21 9 -54 22 -73 30 -18 8 -36 14 -39 14 -2 0 -1 -33 3 -72z" id="105"/>
<path d="M6417 4180 c-59 -15 -110 -29 -112 -31 -1 -2 42 -109 97 -237 56 -128 98 -235 95 -238 -3 -3 -103 -45 -223 -94 -182 -73 -219 -91 -216 -106 1 -11 31 -109 66 -219 35 -110 62 -203 60 -206 -2 -3 -96 -45 -209 -94 -113 -48 -205 -92 -205 -98 1 -7 27 -57 59 -112 l58 -100 169 -42 c93 -23 185 -45 205 -48 l36 -6 7 62 c3 34 6 222 6 419 l0 356 183 180 c100 99 236 232 302 296 105 103 118 119 105 131 -26 24 -349 217 -363 216 -6 0 -61 -13 -120 -29z m145 -100 c78 -17 144 -33 146 -35 8 -7 -169 -206 -180 -203 -5 2 -32 55 -59 118 -56 127 -64 150 -56 150 4 0 70 -14 149 -30z m-419 -1167 c6 -10 -11 -252 -18 -263 -6 -10 -247 142 -253 158 -1 4 55 31 125 59 142 57 140 56 146 46z" id="106"/>
<path d="M6480 4043 c0 -15 53 -133 60 -133 3 0 27 25 53 55 l48 54 -28 7 c-15 3 -44 10 -63 15 -43 11 -70 12 -70 2z" id="107"/>
<path d="M6023 2832 c-35 -14 -63 -28 -63 -32 0 -4 28 -26 63 -49 61 -40 62 -40 69 -18 9 31 9 127 1 126 -5 0 -36 -12 -70 -27z" id="108"/>
<path d="M2189 3953 c-41 -103 -74 -191 -74 -195 0 -5 88 -55 195 -111 189 -99 195 -103 194 -132 0 -16 -39 -119 -86 -227 l-86 -197 202 -80 c110 -44 208 -83 217 -86 11 -4 21 5 34 29 11 19 17 37 15 40 -7 6 -302 114 -324 118 -46 8 -42 28 61 251 71 153 97 219 89 226 -6 5 -101 50 -211 100 -110 50 -201 95 -203 101 -2 6 26 77 62 158 36 81 66 153 66 159 0 11 -9 15 -61 29 -12 3 -32 -38 -90 -183z" id="109"/>
<path d="M6183 4123 c-13 -2 -23 -6 -23 -8 0 -10 123 -283 141 -314 26 -43 20 -55 -33 -75 -252 -92 -403 -148 -405 -150 -2 -2 33 -103 78 -225 45 -123 77 -226 73 -230 -5 -4 -79 -34 -164 -65 -85 -32 -157 -59 -159 -61 -3 -4 38 -75 44 -75 8 0 361 153 368 160 7 6 -86 329 -118 411 -12 31 33 57 233 134 111 43 202 81 202 85 0 4 -40 99 -88 211 -93 213 -93 213 -149 202z" id="110"/>
<path d="M1363 3718 c3 -13 13 -84 23 -158 9 -74 20 -139 25 -144 9 -10 291 -87 297 -82 4 4 -36 317 -41 322 -3 3 -295 84 -303 84 -3 0 -4 -10 -1 -22z m175 -64 c53 -14 98 -27 100 -29 6 -5 34 -236 29 -241 -3 -3 -56 10 -119 28 l-113 33 -12 85 c-17 124 -16 163 2 156 8 -3 59 -17 113 -32z" id="111"/>
<path d="M1463 3558 c5 -40 12 -76 16 -81 4 -4 38 -16 75 -26 l68 -19 -7 70 c-3 39 -8 75 -11 82 -4 10 -114 46 -141 46 -6 0 -6 -29 0 -72z" id="112"/>
<path d="M6973 3691 c-72 -20 -134 -39 -137 -42 -7 -6 -48 -308 -44 -319 2 -4 70 12 153 34 l150 41 17 125 c9 69 19 142 22 163 8 46 11 46 -161 -2z m120 -53 c-3 -24 -11 -79 -17 -122 l-11 -79 -113 -32 c-78 -23 -115 -29 -118 -21 -5 13 22 225 30 233 7 8 196 62 218 62 13 1 15 -6 11 -41z" id="113"/>
<path d="M6960 3607 l-65 -22 -9 -73 c-4 -40 -5 -76 -2 -79 3 -3 36 3 73 13 74 22 70 16 88 137 7 55 8 55 -85 24z" id="114"/>
<path d="M3215 3301 l-250 -166 -118 -198 c-66 -109 -117 -200 -115 -203 3 -2 94 47 204 110 l199 113 169 251 c93 139 168 254 165 255 -2 2 -116 -71 -254 -162z" id="115"/>
<path d="M5030 3466 c0 -3 75 -118 166 -256 l167 -250 121 -71 c66 -40 157 -94 200 -120 44 -27 81 -47 83 -46 2 2 -50 96 -114 208 l-117 205 -224 150 c-277 184 -282 187 -282 180z" id="116"/>
<path d="M4247 3130 c-10 -27 -117 -554 -117 -574 0 -25 112 -457 117 -452 11 11 123 430 123 458 -1 49 -117 585 -123 568z" id="117"/>
<path d="M1725 2973 c-38 -70 -71 -133 -73 -139 -2 -7 41 -69 95 -139 86 -112 99 -124 110 -109 18 25 143 250 143 258 0 10 -191 256 -199 256 -3 0 -37 -57 -76 -127z m158 -25 c35 -46 67 -89 71 -95 7 -13 -99 -213 -114 -213 -8 0 -138 164 -146 185 -3 7 1 24 9 37 8 13 33 56 56 96 23 39 46 72 51 72 5 0 38 -37 73 -82z" id="118"/>
<path d="M1776 2907 c-20 -35 -36 -67 -36 -72 0 -15 85 -124 95 -121 10 3 75 112 75 125 0 6 -78 112 -95 129 -2 2 -19 -25 -39 -61z" id="119"/>
<path d="M6592 2970 l-100 -130 76 -135 c42 -74 79 -135 83 -135 6 0 175 217 192 246 5 9 -125 259 -145 280 -3 2 -50 -54 -106 -126z m155 -33 c28 -51 53 -97 55 -104 4 -14 -131 -193 -146 -193 -10 0 -116 181 -116 199 0 11 139 191 148 191 4 0 30 -42 59 -93z" id="120"/>
<path d="M6631 2899 c-48 -67 -49 -64 5 -157 l25 -43 50 66 50 65 -36 65 c-20 36 -40 65 -43 65 -4 0 -27 -28 -51 -61z" id="121"/>
<path d="M2958 2786 l-36 -22 80 -187 c44 -103 86 -187 92 -187 6 0 99 27 205 60 206 64 223 67 239 48 5 -7 44 -101 86 -208 43 -107 81 -199 86 -204 8 -8 405 154 421 172 4 4 1 23 -5 44 l-11 36 -150 -67 c-82 -37 -160 -73 -171 -81 -12 -7 -28 -11 -36 -8 -7 3 -47 97 -87 209 -40 112 -78 213 -85 225 -11 21 -14 20 -226 -57 -118 -44 -220 -79 -227 -79 -8 0 -15 6 -17 13 -8 24 -108 292 -114 304 -5 8 -18 5 -44 -11z" id="122"/>
<path d="M5440 2628 c-35 -95 -68 -178 -74 -185 -8 -9 -63 13 -226 88 -118 55 -219 98 -225 95 -6 -2 -53 -97 -104 -210 -52 -114 -97 -208 -101 -211 -3 -2 -78 28 -164 66 -87 39 -162 67 -167 62 -4 -4 -10 -24 -11 -42 l-3 -34 180 -73 c99 -40 185 -73 191 -74 6 0 56 86 111 192 62 118 108 194 120 199 13 5 85 -21 228 -82 114 -49 209 -88 211 -86 7 7 164 409 164 420 0 11 -48 47 -63 47 -2 0 -32 -78 -67 -172z" id="123"/>
<path d="M2760 2674 c-52 -31 -100 -61 -106 -67 -9 -9 -104 -384 -104 -411 0 -3 136 -7 303 -7 166 -1 358 -4 427 -8 l125 -6 290 -297 c280 -288 291 -297 306 -277 44 58 209 342 209 359 0 40 -53 230 -64 230 -6 0 -109 -43 -229 -95 -120 -52 -224 -95 -231 -95 -7 0 -52 99 -100 220 -52 131 -93 220 -101 220 -7 0 -107 -29 -221 -65 -114 -36 -211 -62 -215 -58 -4 4 -37 78 -73 163 -88 210 -106 250 -114 250 -4 -1 -50 -26 -102 -56z m109 -173 c28 -71 51 -134 51 -141 0 -9 -25 -10 -97 -5 -129 8 -173 15 -173 26 0 10 158 249 164 249 3 0 27 -58 55 -129z m1241 -423 c0 -26 -53 -273 -61 -282 -8 -9 -209 158 -209 173 0 4 46 27 103 50 56 23 113 48 127 56 31 18 40 18 40 3z" id="124"/>
<path d="M2758 2479 c-21 -33 -38 -65 -38 -70 0 -5 32 -9 70 -9 39 0 70 3 70 8 0 13 -53 132 -59 132 -3 0 -23 -27 -43 -61z" id="125"/>
<path d="M3985 1994 c-33 -13 -63 -28 -67 -32 -5 -5 17 -30 48 -56 30 -27 56 -47 58 -45 1 2 8 31 15 64 7 33 15 68 17 78 7 22 1 21 -71 -9z" id="126"/>
<path d="M5597 2643 c-20 -49 -62 -153 -92 -233 -31 -80 -60 -149 -64 -153 -4 -4 -106 35 -227 87 -199 85 -220 92 -232 78 -7 -10 -57 -101 -110 -204 -53 -104 -100 -188 -103 -188 -3 0 -100 38 -215 84 -115 47 -210 83 -212 82 -5 -6 -62 -221 -62 -237 0 -14 188 -330 211 -353 11 -12 44 18 357 326 l253 248 425 0 c400 0 425 1 421 18 -3 9 -26 104 -52 210 l-47 192 -87 52 c-47 28 -95 58 -107 65 -20 13 -23 10 -57 -74z m166 -143 c42 -67 77 -125 77 -129 0 -9 -39 -14 -192 -26 -52 -5 -78 -3 -78 4 0 16 103 271 109 271 3 0 41 -54 84 -120z m-1253 -466 c69 -30 129 -59 133 -63 7 -7 -185 -181 -201 -181 -4 0 -19 60 -35 133 -25 121 -31 167 -24 167 1 0 58 -25 127 -56z" id="127"/>
<path d="M5656 2465 c-14 -36 -26 -67 -26 -70 0 -7 115 -6 133 1 12 4 7 18 -26 70 -22 35 -44 64 -48 64 -4 0 -19 -29 -33 -65z" id="128"/>
<path d="M4433 1999 c3 -13 11 -50 18 -81 14 -65 14 -65 88 1 l45 40 -56 24 c-94 42 -102 43 -95 16z" id="129"/>
<path d="M2490 2558 c-19 -5 -37 -12 -39 -14 -6 -5 80 -94 90 -94 4 0 10 17 14 38 3 20 9 47 12 60 4 18 1 22 -18 21 -13 0 -40 -5 -59 -11z" id="130"/>
<path d="M5927 2563 c-3 -2 -1 -19 3 -36 4 -18 11 -45 15 -61 l6 -29 49 48 c27 27 48 51 45 53 -7 8 -114 30 -118 25z" id="131"/>
<path d="M2295 2510 c-38 -10 -82 -21 -97 -24 -25 -6 -28 -11 -28 -46 l0 -40 120 0 120 0 0 -110 c0 -108 0 -110 23 -110 40 0 54 22 77 118 l23 94 -69 69 c-38 38 -75 69 -84 68 -8 0 -46 -9 -85 -19z" id="132"/>
<path d="M6037 2462 c-38 -38 -67 -76 -67 -87 0 -11 11 -60 23 -110 l23 -90 37 -3 37 -3 0 108 c0 63 4 113 10 119 7 7 48 9 110 6 l100 -5 0 41 c0 37 -3 42 -27 48 -46 10 -147 35 -163 40 -10 2 -42 -23 -83 -64z" id="133"/>
<path d="M2092 2460 c-21 -9 -23 -14 -20 -87 l3 -78 113 -3 112 -3 0 -109 0 -110 75 0 c72 0 76 1 85 26 16 40 13 43 -42 46 l-53 3 3 108 2 107 -120 0 -120 0 0 55 c0 58 -1 59 -38 45z" id="134"/>
<path d="M6354 2457 c-2 -7 -3 -30 -2 -52 l3 -40 -107 -3 -108 -3 0 -107 c0 -71 -4 -112 -12 -120 -7 -7 -32 -12 -56 -12 -40 0 -43 -2 -37 -22 11 -35 15 -36 95 -29 l75 6 3 108 3 107 104 0 c57 0 106 3 108 8 2 4 1 40 -2 81 -6 71 -7 75 -34 82 -19 5 -30 4 -33 -4z" id="135"/>
<path d="M1910 2414 c-52 -14 -102 -27 -109 -30 -10 -3 84 -104 279 -299 162 -162 298 -295 302 -295 6 0 58 206 58 230 0 6 -38 10 -90 10 l-90 0 0 110 0 110 -109 0 -108 0 -7 31 c-3 17 -6 60 -6 95 0 45 -4 64 -12 63 -7 0 -56 -12 -108 -25z" id="136"/>
<path d="M6463 2358 c4 -46 3 -89 -2 -96 -6 -11 -33 -13 -112 -10 l-104 3 -3 -112 -3 -113 -84 0 c-48 0 -87 -4 -90 -11 -8 -12 44 -229 54 -229 3 0 139 133 301 295 197 197 289 296 279 299 -20 8 -222 56 -233 56 -5 0 -6 -36 -3 -82z" id="137"/>
<path d="M2703 1926 c-67 -39 -125 -74 -128 -77 -5 -6 222 -184 247 -194 13 -5 237 113 266 140 11 10 -10 30 -112 109 -69 53 -131 96 -138 95 -7 -1 -68 -33 -135 -73z m236 -37 c50 -38 91 -74 91 -79 0 -4 -45 -33 -100 -65 l-101 -56 -95 72 c-52 40 -93 76 -92 81 3 8 186 116 199 117 4 1 48 -31 98 -70z" id="138"/>
<path d="M2777 1877 c-32 -17 -58 -36 -59 -42 0 -5 26 -30 57 -54 l56 -45 64 35 c36 19 65 39 65 44 -1 9 -111 95 -121 95 -2 0 -30 -15 -62 -33z" id="139"/>
<path d="M5526 1903 c-69 -53 -126 -100 -126 -104 0 -4 46 -33 103 -65 56 -31 116 -65 133 -75 l31 -19 132 101 c73 56 131 102 129 104 -4 3 -225 128 -254 143 -19 10 -36 1 -148 -85z m297 -40 c20 -13 37 -25 37 -27 0 -10 -183 -146 -196 -146 -18 0 -196 104 -197 116 0 5 41 41 92 81 l94 72 66 -36 c36 -20 83 -47 104 -60z" id="140"/>
<path d="M5595 1864 c-33 -25 -61 -48 -63 -52 -1 -4 28 -24 66 -44 l67 -37 62 47 c35 26 63 50 63 53 0 5 -97 62 -130 76 -3 1 -32 -18 -65 -43z" id="141"/>
<path d="M1886 1912 l-58 -34 26 -27 c27 -26 27 -26 42 -6 20 25 56 96 52 100 -2 1 -29 -13 -62 -33z" id="142"/>
<path d="M6551 1943 c18 -42 65 -113 74 -113 14 0 45 32 45 46 0 5 -28 24 -61 43 -34 18 -60 29 -58 24z" id="143"/>
<path d="M4210 1823 c-17 -26 -30 -51 -30 -55 0 -4 29 -8 65 -8 39 0 65 4 65 11 0 11 -58 99 -66 99 -2 0 -18 -21 -34 -47z" id="144"/>
<path d="M4088 1622 l-57 -97 26 -28 27 -27 81 80 c44 44 84 80 89 80 5 0 39 -32 76 -72 70 -76 89 -82 111 -35 9 20 3 35 -42 110 l-52 87 -101 0 -101 0 -57 -98z" id="145"/>
<path d="M3330 1698 c1 -16 76 -287 81 -293 6 -5 320 -47 324 -43 5 5 -75 291 -83 300 -4 3 -65 13 -137 22 -71 9 -142 19 -157 22 -20 4 -28 2 -28 -8z m200 -49 c47 -6 88 -13 92 -17 12 -13 66 -222 58 -227 -9 -5 -231 22 -238 29 -6 7 -62 208 -62 224 0 9 10 11 33 8 17 -3 70 -11 117 -17z" id="146"/>
<path d="M3433 1603 c3 -10 13 -43 21 -74 17 -62 17 -62 119 -74 65 -8 64 -11 40 76 -19 69 -24 72 -121 83 -58 7 -63 6 -59 -11z" id="147"/>
<path d="M4995 1688 c-82 -11 -151 -22 -153 -23 -7 -7 -83 -297 -79 -301 2 -3 76 5 164 17 l159 21 38 140 c21 77 40 146 43 154 6 17 17 17 -172 -8z m115 -35 c0 -24 -50 -206 -59 -215 -8 -9 -232 -40 -238 -34 -6 6 49 205 61 221 7 9 51 20 116 29 58 7 108 14 113 15 4 0 7 -7 7 -16z" id="148"/>
<path d="M5010 1614 c-8 -1 -36 -5 -61 -9 l-47 -6 -17 -61 c-9 -34 -20 -68 -22 -76 -5 -11 6 -12 58 -6 98 11 103 14 122 83 9 33 17 65 17 71 0 10 -18 11 -50 4z" id="149"/>
<path d="M4171 1500 c-40 -44 -77 -80 -84 -80 -6 0 -26 15 -45 33 -32 31 -34 31 -48 13 -8 -11 -14 -22 -14 -26 0 -3 25 -30 55 -60 l55 -54 80 79 80 80 80 -80 81 -80 49 55 c27 30 49 60 50 66 0 7 -8 22 -18 34 l-19 23 -28 -36 c-15 -21 -31 -37 -36 -37 -5 0 -41 34 -80 75 -39 41 -75 75 -78 75 -4 0 -40 -36 -80 -80z" id="150"/>
<path d="M4175 1350 c-38 -38 -74 -70 -79 -70 -5 0 -38 25 -73 56 -45 40 -67 54 -75 46 -6 -6 -35 -50 -64 -99 l-54 -88 210 -3 c115 -1 304 -1 420 0 l210 3 -61 100 c-34 55 -63 102 -65 104 -3 3 -33 -23 -67 -57 -34 -34 -68 -62 -74 -62 -6 0 -39 32 -74 70 -34 39 -67 70 -73 70 -6 0 -43 -31 -81 -70z" id="151"/>
<path d="M4247 980 c-16 -42 -35 -119 -30 -124 4 -3 22 -6 40 -6 34 0 34 1 27 32 -15 70 -31 113 -37 98z" id="152"/>
<path d="M3133 7190 c-56 -52 -81 -60 -182 -60 l-66 0 120 -79 c66 -43 123 -75 127 -72 7 7 62 251 57 256 -2 1 -27 -18 -56 -45z" id="153"/>
<path d="M5330 7230 c-1 -28 55 -260 62 -260 4 0 58 33 120 73 l113 72 -81 5 c-87 5 -91 8 -166 79 -29 27 -48 39 -48 31z" id="154"/>
<path d="M1420 7043 c0 -67 21 -377 25 -381 9 -9 132 21 188 45 109 49 200 180 223 322 l6 38 -153 6 c-84 4 -183 7 -221 7 l-68 0 0 -37z" id="155"/>
<path d="M6385 7071 l-60 -18 57 -16 c81 -24 88 -23 88 18 0 40 -1 40 -85 16z" id="156"/>
<path d="M6835 7068 c-93 -6 -171 -11 -173 -13 -7 -6 28 -148 47 -189 29 -67 104 -142 175 -175 56 -27 176 -64 183 -57 5 5 21 431 16 439 -5 8 -8 8 -248 -5z" id="157"/>
<path d="M2040 7055 c0 -45 2 -45 85 -23 l40 11 -50 18 c-67 24 -75 23 -75 -6z" id="158"/>
<path d="M1973 6836 l-11 -35 63 -6 c35 -4 69 -5 76 -3 10 3 -98 78 -113 78 -3 0 -9 -15 -15 -34z" id="159"/>
<path d="M6445 6829 l-60 -41 73 5 c40 2 75 6 77 9 6 5 -17 68 -25 68 -3 0 -32 -18 -65 -41z" id="160"/>
<path d="M1663 6525 c-18 -8 -33 -16 -33 -19 0 -14 74 -119 77 -110 2 5 0 40 -4 76 l-8 66 -32 -13z" id="161"/>
<path d="M6798 6463 c-3 -38 -4 -69 -2 -71 1 -2 20 23 43 56 l40 59 -25 12 c-46 21 -51 15 -56 -56z" id="162"/>
<path d="M1414 6438 c3 -18 11 -50 18 -72 l11 -41 18 55 c27 83 25 90 -17 90 -36 0 -36 -1 -30 -32z" id="163"/>
<path d="M7025 6418 c14 -81 20 -87 38 -33 23 68 22 75 -14 75 -31 0 -31 0 -24 -42z" id="164"/>
<path d="M1380 5549 c0 -84 -5 -95 -84 -176 -28 -29 -48 -53 -45 -53 11 0 274 62 278 65 3 3 -129 216 -145 234 -2 2 -4 -29 -4 -70z" id="165"/>
<path d="M7051 5486 c-40 -65 -71 -119 -69 -122 6 -5 223 -54 243 -54 11 0 1 18 -34 56 -53 60 -50 50 -63 208 -3 25 -12 14 -77 -88z" id="166"/>
<path d="M7710 4754 c0 -12 61 -114 69 -114 4 0 17 11 30 23 25 27 25 27 -51 71 -27 15 -48 24 -48 20z" id="167"/>
<path d="M733 4717 c-24 -11 -43 -26 -43 -32 0 -12 38 -51 43 -44 19 28 57 90 57 94 0 9 -13 5 -57 -18z" id="168"/>
<path d="M410 4408 c-84 -79 -155 -148 -157 -154 -4 -11 290 -284 305 -284 13 0 73 96 98 159 28 69 33 150 14 222 -13 48 -88 199 -99 199 -4 0 -76 -64 -161 -142z" id="169"/>
<path d="M7900 4470 c-18 -28 -44 -78 -57 -112 -44 -107 -22 -247 57 -372 l31 -48 100 94 c56 51 130 120 165 153 l65 60 -151 135 c-83 74 -157 136 -164 138 -7 2 -28 -20 -46 -48z" id="170"/>
<path d="M848 4518 c-27 -6 -48 -14 -48 -18 0 -17 20 -60 28 -60 4 0 30 20 57 45 54 48 51 51 -37 33z" id="171"/>
<path d="M7620 4479 c54 -49 54 -49 67 -27 24 44 17 54 -44 67 -31 6 -61 11 -67 11 -6 -1 14 -23 44 -51z" id="172"/>
<path d="M807 4025 c-16 -34 -16 -35 6 -40 69 -15 113 -25 121 -25 10 0 -94 99 -105 100 -3 0 -13 -16 -22 -35z" id="173"/>
<path d="M7614 4008 l-59 -51 40 7 c22 4 57 12 78 17 l37 10 -16 32 c-9 18 -17 33 -19 35 -1 1 -28 -21 -61 -50z" id="174"/>
<path d="M696 3831 l-27 -28 56 -32 c32 -18 59 -30 61 -28 4 3 -48 101 -60 114 -1 2 -15 -10 -30 -26z" id="175"/>
<path d="M7732 3800 c-17 -28 -27 -50 -22 -50 6 0 33 13 60 28 l50 29 -23 21 c-13 12 -25 22 -28 22 -2 0 -19 -23 -37 -50z" id="176"/>
<path d="M1299 3136 c58 -59 70 -92 71 -190 l0 -60 71 110 c40 60 72 115 73 123 1 10 -35 22 -124 42 -69 16 -129 29 -135 29 -5 0 14 -24 44 -54z" id="177"/>
<path d="M7097 3141 c-65 -16 -120 -31 -123 -33 -2 -3 28 -56 68 -118 l73 -113 5 76 c5 70 9 79 50 132 24 31 50 59 57 62 17 7 17 23 1 22 -7 0 -66 -13 -131 -28z" id="178"/>
<path d="M1437 2108 c-23 -73 -22 -78 13 -78 35 0 36 9 17 84 l-13 48 -17 -54z" id="179"/>
<path d="M7037 2104 c-9 -33 -17 -63 -17 -67 0 -4 16 -7 36 -7 l36 0 -7 37 c-4 21 -12 51 -19 67 l-12 30 -17 -60z" id="180"/>
<path d="M1666 2053 c-20 -32 -36 -60 -36 -64 0 -8 59 -33 64 -28 5 6 17 149 12 149 -3 0 -21 -26 -40 -57z" id="181"/>
<path d="M6794 2075 c3 -22 6 -57 6 -79 0 -37 1 -38 28 -31 47 11 47 21 3 87 l-43 63 6 -40z" id="182"/>
<path d="M1426 1733 c-9 -202 -11 -313 -6 -314 19 -5 411 15 415 22 10 15 -23 146 -49 196 -34 67 -67 105 -124 141 -45 29 -132 63 -198 76 l-32 7 -6 -128z" id="183"/>
<path d="M6935 1811 c-72 -21 -98 -34 -150 -76 -53 -43 -99 -122 -127 -218 -28 -96 -27 -97 102 -97 52 0 146 -3 209 -7 l114 -6 -7 149 c-3 82 -9 177 -12 212 -6 62 -6 62 -38 61 -17 0 -58 -8 -91 -18z" id="184"/>
<path d="M1966 1692 c-2 -4 2 -22 10 -40 l13 -33 56 37 c30 20 55 38 55 40 0 8 -129 4 -134 -4z" id="185"/>
<path d="M6405 1688 c11 -6 39 -24 63 -40 l42 -29 14 33 c8 18 12 36 10 40 -3 5 -38 8 -77 8 -59 -1 -68 -3 -52 -12z" id="186"/>
<path d="M2996 1456 l-110 -71 75 -8 c65 -7 80 -13 127 -49 29 -23 60 -50 67 -62 8 -11 16 -18 18 -15 5 5 -53 262 -62 270 -3 3 -55 -26 -115 -65z" id="187"/>
<path d="M5367 1513 c-6 -10 -57 -238 -57 -255 0 -7 24 11 53 40 49 49 56 52 125 62 40 5 85 7 100 4 18 -4 24 -3 17 3 -8 8 -165 111 -222 146 -6 4 -14 4 -16 0z" id="188"/>
<path d="M2030 1440 c0 -30 4 -41 13 -37 6 2 36 10 65 17 28 8 52 17 52 21 0 4 -21 12 -47 18 -27 7 -56 14 -65 17 -15 5 -18 -1 -18 -36z" id="189"/>
<path d="M6390 1465 c-33 -7 -49 -15 -40 -18 32 -14 103 -37 105 -35 2 2 6 18 10 36 8 36 8 36 -75 17z" id="190"/>
<path d="M3976 863 c8 -37 16 -69 18 -71 2 -2 18 4 35 13 22 11 29 20 24 29 -10 17 -81 96 -87 96 -2 0 3 -30 10 -67z" id="191"/>
<path d="M4483 880 c-24 -26 -43 -51 -43 -54 0 -7 61 -39 66 -34 7 8 31 138 25 138 -3 -1 -25 -23 -48 -50z" id="192"/>
<path d="M3777 735 c15 -30 30 -55 33 -55 4 0 17 11 29 24 l22 23 -49 32 c-27 17 -52 31 -55 31 -4 0 5 -25 20 -55z" id="193"/>
<path d="M4700 758 c-30 -17 -57 -32 -59 -34 -6 -5 40 -54 50 -54 8 0 72 110 67 116 -2 2 -28 -11 -58 -28z" id="194"/>
<path d="M4129 662 c-61 -21 -154 -68 -170 -89 -9 -10 22 -49 136 -173 81 -88 148 -160 150 -160 2 0 68 70 146 156 l143 157 -29 24 c-17 13 -63 40 -102 60 -91 45 -186 54 -274 25z" id="195"/>
</g>
</svg>