<?xml version="1.0" ?><!DOCTYPE svg  PUBLIC '-//W3C//DTD SVG 20010904//EN'  'http://www.w3.org/TR/2001/REC-SVG-20010904/DTD/svg10.dtd'><svg height="850.000000pt" preserveAspectRatio="xMidYMid meet" version="1.0" viewBox="0 0 850.000000 850.000000" width="850.000000pt" xmlns="http://www.w3.org/2000/svg">
<metadata>
Created by potrace 1.14, written by Peter Selinger 2001-2017
</metadata>
<g fill="#ffffff" stroke="none" transform="translate(0.000000,850.000000) scale(0.100000,-0.100000)">
<path d="M0 4250 l0 -4250 4250 0 4250 0 0 4250 0 4250 -4250 0 -4250 0 0 -4250z m2380 3715 c81 -42 60 -144 -39 -194 -64 -33 -160 -60 -325 -92 -148 -28 -215 -49 -157 -49 12 0 53 -13 91 -30 83 -36 135 -38 550 -15 349 20 421 11 455 -55 13 -26 19 -28 57 -23 88 9 204 35 317 70 165 51 220 60 267 42 51 -19 77 -67 62 -111 -18 -50 -79 -70 -227 -76 l-124 -5 89 -32 c96 -35 132 -54 297 -163 59 -39 123 -74 142 -78 74 -13 122 24 91 71 -23 35 -53 41 -80 16 -28 -26 -50 -27 -76 -1 -45 45 -9 141 63 169 31 12 45 12 80 1 80 -24 148 -126 132 -199 -10 -46 -65 -102 -128 -131 l-59 -27 41 -16 c104 -42 168 -19 371 133 140 105 226 150 284 150 72 0 136 -60 151 -142 l7 -37 41 30 c42 31 150 69 196 69 37 0 44 8 74 73 37 82 144 187 231 228 58 27 75 31 131 27 55 -3 69 -8 95 -33 17 -16 33 -40 37 -52 5 -22 10 -19 78 46 40 38 82 72 93 75 15 5 24 22 33 60 10 47 9 58 -9 99 -35 80 -106 96 -172 40 -20 -16 -30 -34 -30 -53 0 -39 21 -53 68 -45 32 5 41 3 46 -11 24 -63 -86 -109 -164 -69 -81 42 -79 186 2 262 91 85 267 62 361 -47 42 -49 53 -93 41 -153 -9 -40 -8 -43 21 -62 16 -12 39 -34 50 -51 l19 -29 71 71 c77 78 131 104 217 104 41 0 54 -5 86 -34 l37 -35 0 -84 0 -84 70 33 c96 46 174 64 271 64 46 0 124 9 180 22 147 32 400 32 500 1 64 -20 78 -30 135 -91 69 -73 89 -116 89 -195 0 -34 -6 -53 -26 -76 l-26 -31 114 0 c134 -1 180 -14 285 -82 76 -49 147 -129 185 -208 34 -68 32 -177 -5 -251 -15 -31 -36 -64 -47 -74 -20 -18 -18 -19 98 -75 171 -84 234 -159 283 -337 26 -95 23 -162 -17 -288 -33 -107 -35 -182 -10 -304 13 -60 17 -115 14 -185 -3 -89 -8 -110 -36 -171 -18 -38 -44 -84 -58 -102 l-25 -33 25 -63 c35 -89 52 -226 37 -312 -12 -70 -45 -146 -87 -202 -13 -17 -24 -38 -24 -45 0 -7 -27 -69 -60 -138 -39 -82 -77 -185 -110 -300 -90 -307 -196 -519 -283 -563 -38 -20 -39 -20 -65 0 -46 34 -66 88 -66 179 -1 73 2 87 36 155 24 48 87 135 180 249 157 193 279 352 274 357 -8 8 -56 -18 -56 -29 0 -46 -162 -228 -234 -265 -97 -50 -188 -27 -194 49 -5 58 62 113 225 184 71 30 74 33 47 39 -251 51 -344 142 -344 334 0 89 14 135 58 183 47 52 102 78 170 78 65 0 111 -20 152 -66 62 -71 61 -165 -3 -228 l-30 -31 -10 30 c-14 43 -26 55 -54 55 -56 0 -93 -48 -93 -122 0 -96 77 -152 205 -151 153 1 244 92 276 277 15 91 -8 286 -35 286 -6 0 -36 -27 -68 -61 -32 -33 -58 -58 -58 -56 0 3 12 30 26 62 33 71 29 127 -12 186 -15 22 -81 87 -145 144 -138 121 -182 169 -260 288 -68 103 -99 180 -106 263 l-5 60 -46 -23 c-55 -28 -84 -29 -137 -4 -52 24 -98 74 -127 136 -19 41 -23 67 -23 145 1 94 4 105 53 203 2 4 -14 5 -36 1 -53 -8 -140 18 -194 59 -27 20 -54 55 -73 92 -26 52 -30 69 -30 144 0 103 25 165 110 277 74 97 98 153 99 234 1 52 -4 73 -22 103 -29 46 -94 85 -156 93 l-48 7 20 -39 c60 -120 17 -225 -120 -294 -125 -62 -228 -21 -228 90 0 53 19 85 56 94 29 8 74 -16 74 -39 0 -40 71 -20 90 26 19 46 -19 113 -93 164 l-59 40 -101 0 c-85 0 -110 -4 -152 -23 -77 -35 -96 -58 -89 -103 4 -20 1 -53 -5 -72 -13 -39 -72 -97 -98 -97 -28 0 -2 -16 54 -34 67 -22 152 -77 231 -151 54 -49 72 -76 117 -169 94 -196 111 -271 81 -370 -8 -27 -27 -67 -43 -89 l-28 -42 0 -200 c0 -193 1 -203 28 -278 64 -181 157 -262 298 -261 121 2 189 62 189 166 0 57 -25 125 -52 139 -14 8 -25 6 -44 -6 -29 -18 -30 -28 -7 -66 16 -27 16 -30 0 -46 -24 -25 -83 -22 -110 5 -46 47 -12 169 61 214 72 44 180 4 242 -90 38 -58 53 -113 44 -166 -7 -43 -40 -122 -55 -132 -19 -12 -7 -22 32 -27 47 -6 161 -78 208 -132 31 -36 65 -117 82 -196 20 -91 -39 -211 -125 -256 -48 -26 -179 -23 -232 5 -86 44 -110 166 -44 225 17 15 42 27 57 27 57 0 95 -76 58 -114 -13 -13 -13 -15 6 -21 57 -18 140 32 152 93 7 36 -4 85 -31 138 -33 65 -69 101 -130 131 -53 26 -67 28 -237 34 -227 8 -293 26 -365 98 -105 105 -194 392 -175 565 l6 61 -83 1 c-185 3 -256 54 -288 207 -41 202 161 342 284 197 27 -32 33 -73 16 -100 -8 -13 -13 -11 -32 12 -37 44 -91 39 -121 -11 -49 -83 18 -181 116 -168 55 7 115 53 144 107 21 38 24 56 21 120 -4 100 -46 186 -136 281 -50 54 -84 79 -149 111 -78 39 -92 42 -180 46 -55 3 -120 -1 -152 -8 -64 -14 -214 -81 -226 -101 -6 -9 13 -33 61 -77 75 -70 124 -97 197 -107 50 -8 67 -19 42 -29 -8 -3 -55 -11 -103 -17 -147 -19 -194 -43 -392 -198 -194 -152 -309 -188 -457 -143 -37 12 -81 32 -97 45 l-28 23 -57 -56 c-73 -73 -135 -94 -259 -88 -72 3 -96 9 -140 33 -49 26 -85 60 -94 85 -2 8 -70 -5 -86 -16 -2 -1 8 -25 23 -53 14 -29 33 -84 42 -123 20 -90 7 -158 -44 -224 -46 -61 -77 -88 -141 -119 -94 -46 -203 -51 -280 -11 -38 19 -91 80 -109 125 -20 46 -19 130 0 167 36 69 116 112 185 99 54 -10 91 -32 112 -68 38 -61 17 -123 -43 -129 l-32 -3 27 -18 c53 -37 146 2 185 77 22 43 19 154 -7 238 -11 37 -42 98 -67 135 -26 38 -73 130 -104 206 -87 208 -152 308 -244 375 -21 16 -81 40 -115 47 l-35 7 22 -23 c30 -34 229 -343 263 -409 60 -119 74 -214 41 -286 -23 -51 -55 -74 -101 -74 -83 0 -122 94 -145 348 -9 90 -20 184 -25 208 -33 145 -137 312 -249 397 -49 37 -167 107 -181 107 -5 0 3 -23 18 -52 64 -124 7 -305 -120 -377 -173 -99 -364 4 -375 203 -5 89 14 130 78 164 59 32 146 28 185 -9 56 -52 73 -140 34 -179 -39 -39 -85 -20 -85 36 0 46 -22 63 -59 46 -33 -15 -49 -53 -36 -87 13 -33 67 -65 110 -65 88 0 177 85 166 159 -12 79 -112 164 -239 202 -64 20 -70 20 -79 5 -25 -44 -139 -62 -227 -36 -19 5 -36 8 -38 6 -2 -2 7 -16 20 -32 37 -44 47 -69 47 -114 0 -34 -6 -48 -34 -76 -28 -28 -41 -34 -77 -34 -49 0 -87 20 -164 85 -43 37 -351 255 -359 255 -2 0 6 -19 18 -42 30 -63 34 -172 8 -224 -29 -56 -88 -109 -157 -141 -51 -23 -73 -27 -150 -28 -147 0 -205 45 -205 159 0 68 26 129 77 180 43 43 89 59 158 54 65 -4 65 -23 1 -64 -71 -48 -105 -84 -116 -126 -28 -101 51 -153 149 -97 63 35 96 90 95 158 -2 133 -96 231 -249 264 -158 33 -446 -106 -570 -275 -48 -65 -56 -85 -27 -73 106 45 174 45 272 -2 87 -41 143 -92 176 -159 23 -47 28 -73 32 -158 4 -89 2 -107 -18 -148 -45 -97 -175 -178 -285 -178 -75 0 -140 30 -172 79 -55 83 -6 238 84 265 35 11 111 -27 119 -58 14 -57 -12 -91 -81 -106 l-30 -6 35 -22 c45 -28 88 -28 131 1 100 66 82 201 -37 277 -117 74 -335 64 -436 -20 l-37 -30 29 -63 c71 -151 78 -287 21 -432 -32 -82 -78 -148 -203 -291 -71 -81 -85 -119 -54 -153 8 -9 26 -40 41 -69 l26 -52 26 20 c33 26 98 26 140 0 18 -11 33 -18 33 -16 0 2 -7 21 -16 42 -51 121 65 338 220 414 34 16 91 34 127 40 103 16 151 3 331 -88 5 -2 5 23 2 55 -13 135 43 289 138 379 29 28 107 82 173 121 137 82 224 154 253 214 20 39 21 40 32 19 7 -12 12 -52 12 -89 1 -120 -78 -313 -191 -468 -86 -119 -106 -172 -106 -283 1 -90 3 -100 41 -185 90 -197 108 -249 133 -374 41 -205 54 -547 27 -701 -20 -108 -98 -329 -155 -434 -108 -201 -225 -510 -238 -627 -6 -61 2 -74 28 -43 69 83 324 83 479 0 166 -89 250 -114 420 -123 156 -8 212 8 285 80 62 62 85 122 85 218 0 125 -60 234 -142 257 -22 6 -54 6 -82 1 -117 -22 -164 -88 -108 -151 20 -24 39 -23 94 7 58 31 83 32 103 2 30 -46 -17 -127 -97 -168 -24 -12 -58 -19 -96 -19 -109 0 -195 63 -238 176 -22 58 -15 173 14 229 44 86 139 145 265 165 117 18 290 -16 380 -76 22 -14 40 -24 41 -22 1 2 9 35 19 73 58 237 222 417 459 503 62 23 89 27 178 27 115 0 186 -19 333 -89 40 -19 73 -33 75 -32 5 6 -85 234 -110 277 -45 77 -137 187 -181 218 -23 16 -61 34 -84 41 -38 12 -44 11 -69 -9 -15 -11 -56 -30 -91 -41 -79 -24 -244 -27 -343 -5 -130 28 -216 18 -505 -60 -190 -51 -313 -19 -361 94 -38 89 -23 215 33 282 31 36 114 79 156 79 84 0 126 -72 72 -125 -30 -31 -75 -34 -75 -5 0 29 -36 26 -56 -5 -20 -30 -12 -57 27 -89 68 -58 172 -39 267 48 110 103 142 217 123 450 -13 162 -34 234 -117 396 -76 149 -129 214 -198 246 -105 49 -246 14 -246 -62 0 -36 50 -84 89 -84 27 0 31 3 31 28 0 85 104 101 145 22 20 -39 19 -110 -2 -140 -69 -99 -249 -121 -336 -42 -48 43 -71 127 -57 203 27 141 122 225 282 248 91 13 191 -1 318 -45 110 -38 397 -94 485 -94 28 0 66 4 84 10 43 12 91 57 91 85 0 32 -12 38 -24 12 -15 -29 -89 -37 -117 -11 -56 51 34 174 128 174 39 0 93 -44 117 -94 47 -99 1 -191 -134 -271 -109 -64 -169 -125 -214 -214 -52 -102 -76 -211 -82 -371 -7 -154 8 -248 53 -339 33 -68 100 -136 161 -164 64 -29 175 -30 217 -3 l30 20 -33 8 c-39 10 -68 61 -58 102 9 35 61 66 111 65 87 -1 145 -43 147 -107 1 -28 5 -32 37 -38 124 -20 235 -68 289 -123 l39 -41 7 58 c17 151 119 254 321 327 28 10 67 36 89 57 35 35 38 42 33 79 -10 73 -55 100 -127 75 -46 -16 -50 -8 -20 41 41 68 136 105 225 89 81 -16 153 -126 141 -219 -7 -64 -54 -163 -100 -215 -20 -22 -93 -88 -162 -148 -192 -165 -218 -216 -218 -424 0 -150 31 -236 206 -559 198 -367 300 -537 318 -526 14 9 86 202 124 335 56 193 76 316 77 459 1 110 -3 137 -26 209 -23 74 -33 90 -101 163 -80 85 -120 156 -129 229 -3 25 -7 60 -10 78 -5 40 7 41 65 2 25 -17 70 -38 100 -47 43 -12 69 -30 122 -81 37 -35 76 -82 87 -104 l20 -40 14 34 c8 19 18 46 22 59 39 126 184 304 319 391 63 40 168 78 218 78 82 0 179 -66 237 -161 50 -81 1 -227 -91 -275 -36 -19 -98 -18 -126 2 -49 34 -68 125 -37 183 17 33 65 56 100 47 36 -9 22 19 -17 35 -47 19 -91 14 -148 -17 -64 -35 -120 -96 -159 -172 -39 -76 -72 -177 -65 -195 3 -8 -7 -41 -21 -73 -34 -77 -154 -474 -195 -645 -28 -119 -68 -258 -129 -444 -38 -119 -153 -411 -183 -467 -16 -31 -38 -64 -48 -73 -16 -15 -21 -12 -67 39 -170 186 -235 275 -343 474 l-67 123 -7 -69 c-15 -153 -53 -240 -147 -333 -83 -84 -178 -132 -309 -159 -108 -22 -297 -27 -382 -9 -105 22 -249 101 -339 186 l-36 34 -31 -63 c-81 -165 -270 -272 -553 -314 -156 -23 -233 -15 -359 35 -132 54 -299 85 -405 78 -89 -7 -158 -28 -352 -110 -72 -31 -148 -59 -167 -63 -49 -9 -83 14 -92 62 -9 48 25 208 75 356 45 135 279 687 326 774 54 96 76 190 82 342 6 154 -10 380 -37 504 -26 121 -91 281 -155 383 -30 48 -55 91 -55 95 0 17 -104 103 -147 122 -64 28 -140 27 -195 -4 -53 -29 -84 -82 -74 -123 10 -38 67 -94 106 -101 20 -5 30 -12 28 -22 -5 -24 -65 -40 -149 -41 -61 -1 -85 4 -123 23 -46 23 -47 23 -39 2 4 -11 8 -59 7 -106 0 -80 -18 -153 -69 -283 -6 -14 2 -12 46 10 137 71 245 1 243 -157 -1 -68 -36 -165 -120 -332 -19 -37 -32 -68 -29 -68 3 0 29 13 58 29 209 117 401 60 500 -149 27 -55 32 -79 35 -160 3 -79 0 -105 -18 -152 -67 -179 -295 -274 -437 -182 -80 52 -110 136 -79 217 28 75 100 122 146 97 18 -9 20 -21 20 -100 0 -77 3 -93 20 -110 71 -71 240 68 240 196 0 88 -59 182 -144 227 -63 33 -183 31 -251 -5 -103 -54 -176 -166 -226 -348 -33 -121 -34 -297 -1 -391 23 -68 60 -132 107 -184 19 -22 25 -24 20 -10 -4 11 -10 54 -12 96 -6 92 7 137 54 190 69 76 150 41 172 -73 5 -29 12 -111 16 -183 9 -208 35 -415 56 -457 25 -49 63 -182 94 -331 14 -68 33 -143 41 -168 l14 -44 -5 50 c-22 216 -25 268 -15 334 10 71 36 138 69 175 41 46 150 73 179 44 20 -20 14 -65 -17 -126 -40 -80 -133 -303 -129 -308 3 -2 20 17 39 42 82 112 231 207 340 220 159 18 369 -70 469 -198 111 -139 109 -333 -2 -434 -85 -77 -231 -114 -323 -84 -139 46 -195 235 -89 305 66 43 154 38 176 -11 14 -31 -12 -93 -43 -101 -19 -5 -19 -7 -3 -24 24 -27 103 -26 138 2 61 48 73 128 30 196 -59 91 -273 190 -386 180 -95 -8 -193 -83 -250 -189 -34 -64 -33 -189 4 -276 66 -159 153 -256 310 -349 107 -63 167 -88 230 -97 l36 -4 -29 61 c-39 83 -38 129 1 169 27 26 35 29 68 23 153 -27 431 -295 590 -568 29 -50 55 -83 72 -90 14 -5 70 -31 125 -56 l100 -45 126 -1 126 0 94 -47 c106 -52 199 -131 275 -231 57 -76 104 -168 104 -203 l0 -27 -44 41 c-55 50 -73 60 -218 110 -131 46 -186 72 -238 111 -33 24 -42 26 -140 26 -94 0 -110 -3 -155 -27 -100 -52 -166 -154 -151 -232 9 -48 40 -91 79 -109 45 -22 129 -22 170 0 l32 16 -26 11 c-63 26 -76 72 -39 133 33 55 110 57 168 3 78 -71 68 -196 -20 -250 -87 -54 -230 -68 -313 -31 -123 54 -165 122 -165 266 1 143 35 195 170 259 60 28 74 31 168 31 56 0 101 2 99 5 -19 38 -64 100 -72 100 -5 0 -50 -12 -100 -26 -132 -38 -329 -44 -475 -15 -136 28 -240 77 -281 133 -46 65 -34 125 33 159 60 31 136 25 284 -21 70 -22 129 -38 132 -36 5 6 -78 54 -230 131 -86 44 -138 65 -163 65 -41 0 -295 45 -340 60 -16 6 -82 39 -145 73 -106 57 -127 74 -285 227 -214 208 -245 233 -388 304 -128 63 -187 115 -187 164 0 36 9 48 44 61 53 21 155 -25 256 -115 33 -30 51 -41 46 -29 -33 81 -60 178 -82 285 -38 186 -53 239 -86 303 -111 209 -368 238 -463 52 -25 -49 -30 -70 -30 -129 0 -59 5 -79 27 -118 45 -76 132 -105 233 -77 45 13 95 45 95 61 0 6 -8 4 -18 -5 -29 -26 -88 -22 -119 9 -20 20 -24 31 -19 57 27 133 261 118 243 -17 -7 -50 -42 -98 -108 -148 -115 -87 -216 -105 -301 -55 -58 34 -111 101 -134 169 -61 185 81 424 285 478 42 11 43 12 22 26 -88 62 -216 89 -350 72 -193 -23 -258 12 -237 127 25 132 206 147 460 40 16 -7 18 -5 14 11 -45 160 -50 187 -55 319 -6 159 6 228 58 348 37 84 35 126 -11 225 -41 87 -81 135 -165 197 -143 106 -182 181 -140 270 19 39 51 55 112 55 l46 0 -81 84 c-124 129 -164 213 -142 295 16 60 52 84 118 79 49 -4 52 -3 46 16 -13 42 -34 74 -68 104 -73 64 -266 97 -333 57 -78 -46 -105 -188 -47 -250 18 -20 33 -25 68 -25 85 0 114 -27 86 -80 -23 -42 -135 -53 -203 -19 -91 46 -121 98 -122 214 0 68 4 89 28 137 32 65 88 118 153 145 l43 18 -5 125 c-8 157 8 239 71 369 40 82 60 109 158 210 151 155 237 270 237 316 0 26 17 17 65 -37 l47 -53 37 45 c157 195 402 372 649 469 29 12 98 51 155 87 190 124 257 164 355 214 183 91 298 118 362 85z m3969 -71 c25 -32 27 -61 5 -92 -23 -33 -89 -28 -117 10 -17 23 -18 31 -8 56 23 54 87 68 120 26z m-3380 -30 c32 -19 55 -61 49 -90 -5 -27 -62 -61 -121 -73 -74 -15 -447 -51 -530 -51 -86 0 -81 12 24 55 40 17 131 58 203 93 71 35 153 70 180 78 63 17 155 12 195 -12z m3957 -56 c19 -37 11 -73 -21 -94 -69 -45 -153 48 -92 103 43 40 90 36 113 -9z m-6002 -450 c22 -31 20 -74 -4 -98 -50 -50 -145 8 -120 74 18 49 96 64 124 24z m1555 -314 c12 -15 21 -34 21 -44 0 -31 -39 -70 -69 -70 -41 0 -81 35 -81 70 0 63 90 93 129 44z m4480 -240 c27 -35 26 -59 -4 -89 -30 -30 -64 -32 -99 -4 -52 41 -16 119 55 119 18 0 35 -9 48 -26z m-5765 -283 c26 -28 24 -80 -4 -103 -69 -56 -163 41 -98 102 28 26 79 26 102 1z m1158 -132 c10 -73 1 -135 -29 -190 -42 -79 -128 -104 -155 -44 -17 37 -3 67 67 145 38 43 70 88 77 111 15 53 31 44 40 -22z m4638 31 c43 -43 11 -120 -50 -120 -36 0 -80 39 -80 70 0 12 11 32 25 45 30 31 77 33 105 5z m-4499 -125 c13 -27 19 -64 19 -116 0 -98 -20 -129 -83 -129 -44 1 -77 18 -77 40 0 7 13 34 30 60 45 70 62 127 55 180 l-7 45 22 -20 c13 -11 31 -38 41 -60z m229 -25 c43 -43 11 -120 -50 -120 -36 0 -80 39 -80 70 0 12 11 32 25 45 30 31 77 33 105 5z m2522 -32 c24 -20 28 -44 12 -67 -19 -26 -55 -27 -78 -2 -22 24 -14 54 17 69 29 14 31 14 49 0z m1658 -68 c63 -63 8 -150 -75 -116 -55 23 -60 92 -7 120 37 21 58 20 82 -4z m-430 -10 c8 -5 12 -11 10 -13 -3 -2 -50 -41 -104 -87 -112 -93 -204 -142 -283 -148 -65 -5 -98 13 -112 64 -14 50 5 100 52 138 l39 31 164 6 c90 3 167 9 171 12 9 10 46 8 63 -3z m40 -123 c-30 -137 -55 -202 -98 -249 -62 -68 -124 -86 -162 -48 -25 25 -26 76 -2 112 30 46 277 308 280 298 2 -6 -6 -56 -18 -113z m-1111 47 c40 -33 40 -70 5 -190 -15 -49 -37 -123 -49 -164 -23 -77 -41 -98 -49 -58 -2 13 -16 87 -31 166 -30 154 -29 220 0 252 27 29 86 26 124 -6z m458 4 c27 -25 31 -74 9 -116 -20 -39 -59 -72 -156 -134 -47 -30 -113 -81 -148 -112 -65 -61 -171 -187 -205 -244 -11 -18 -21 -31 -24 -29 -2 3 5 56 17 118 32 176 107 316 228 432 104 99 225 136 279 85z m-668 -54 c12 -15 21 -35 21 -46 0 -27 -44 -68 -73 -68 -36 0 -77 36 -77 68 0 66 89 97 129 46z m1396 -264 c8 -36 17 -109 21 -162 9 -124 -3 -148 -72 -148 -55 0 -94 33 -94 79 0 17 20 94 45 171 25 77 45 149 45 159 0 33 15 33 29 -1 7 -18 19 -62 26 -98z m-1486 56 c60 -31 221 -233 221 -277 0 -26 -7 -24 -53 17 -42 38 -122 78 -178 89 -44 8 -66 25 -79 59 -18 49 13 124 53 126 4 0 21 -6 36 -14z m-3771 -202 c50 -35 47 -100 -5 -123 -45 -21 -103 12 -103 59 0 29 15 52 45 68 27 15 37 15 63 -4z m211 -250 c12 -15 21 -36 21 -47 0 -31 -39 -67 -72 -67 -34 0 -78 39 -78 70 0 12 11 32 25 45 33 34 77 33 104 -1z m-1322 -19 c83 -35 250 -183 333 -295 85 -115 138 -244 166 -400 15 -88 18 -260 4 -260 -8 0 -28 49 -51 125 -20 69 -204 242 -386 364 -91 61 -167 120 -189 146 -42 52 -74 131 -74 183 0 47 31 114 61 136 29 20 89 21 136 1z m6416 -70 c188 -33 310 -134 369 -303 19 -56 23 -86 22 -182 -2 -184 -52 -308 -169 -420 -62 -58 -167 -111 -260 -131 -141 -30 -362 -9 -538 50 l-87 30 0 -32 c1 -160 116 -359 243 -422 145 -70 375 -72 510 -4 23 12 119 74 212 137 94 64 204 131 245 150 41 19 89 45 105 58 17 13 68 37 114 55 49 19 100 46 123 67 59 53 74 146 31 194 -21 24 -12 32 27 23 67 -15 126 -94 137 -184 8 -72 -10 -113 -79 -175 l-60 -55 31 -38 c42 -52 61 -113 61 -193 0 -56 -5 -77 -32 -130 -42 -81 -81 -112 -198 -155 -147 -55 -208 -46 -239 37 -19 51 11 78 63 58 39 -14 82 -12 116 5 35 18 50 43 50 85 0 86 -73 135 -200 135 -85 -1 -113 -12 -267 -112 -102 -66 -301 -163 -388 -190 -82 -25 -302 -25 -395 0 -169 45 -376 181 -482 318 -108 139 -124 185 -135 400 -5 102 -3 125 16 189 34 112 105 264 166 356 186 279 558 438 888 379z m1362 -100 c31 -30 33 -75 5 -100 -58 -53 -157 17 -115 81 30 47 75 55 110 19z m-6571 -37 c45 -64 -13 -138 -83 -108 -53 21 -61 92 -14 119 32 19 80 13 97 -11z m1862 -144 c12 -46 -14 -72 -60 -60 -43 11 -45 64 -3 83 31 14 56 5 63 -23z m-124 -133 c20 -40 12 -70 -24 -90 -72 -41 -142 46 -86 106 34 37 88 29 110 -16z m-298 -60 c73 -36 193 -136 253 -209 58 -71 56 -92 -4 -46 -67 51 -130 81 -268 125 -141 45 -190 73 -190 109 0 18 9 30 35 43 46 23 95 17 174 -22z m4684 -93 c7 -7 12 -21 12 -33 0 -28 -19 -45 -50 -45 -31 0 -50 17 -50 45 0 28 19 45 50 45 14 0 31 -5 38 -12z m-7212 -63 c82 -47 147 -135 314 -424 73 -126 103 -169 129 -185 65 -38 9 -28 -76 14 -231 114 -427 280 -498 422 -38 77 -44 122 -20 168 24 46 76 48 151 5z m7038 -17 c38 -55 9 -180 -69 -298 -47 -71 -147 -169 -153 -150 -2 6 5 32 16 58 12 27 37 122 57 212 20 92 43 172 52 182 23 26 78 24 97 -4z m-3199 -1032 c19 -8 36 -21 37 -28 0 -7 2 -107 2 -223 1 -115 5 -218 10 -227 7 -15 20 -6 85 60 119 122 310 239 443 271 107 25 262 4 394 -54 l56 -25 41 35 c51 44 160 80 218 72 73 -10 124 -61 161 -163 19 -51 22 -80 23 -219 0 -88 -4 -216 -9 -285 -13 -186 15 -296 99 -388 77 -86 149 -76 254 33 75 77 91 114 91 202 0 150 -36 297 -126 521 -82 203 -101 302 -71 362 15 30 70 48 147 49 151 2 212 -120 230 -459 13 -237 59 -425 117 -470 62 -48 179 -11 197 63 8 32 5 44 -27 106 -58 111 -48 161 33 161 92 0 180 -117 180 -239 0 -128 -84 -244 -210 -291 -69 -26 -187 -34 -261 -17 -34 8 -37 7 -43 -20 -13 -50 -64 -129 -116 -177 -85 -80 -209 -126 -341 -126 -132 0 -283 62 -381 157 l-56 56 -23 -44 c-72 -143 -251 -295 -400 -340 -37 -11 -123 -26 -191 -33 -102 -11 -132 -11 -176 0 -129 33 -226 111 -319 255 l-57 88 -21 -67 c-31 -96 -60 -148 -118 -209 -63 -67 -139 -113 -242 -149 -70 -24 -95 -28 -200 -28 -143 0 -211 16 -338 80 -173 87 -261 153 -317 236 -46 70 -77 162 -81 241 -2 48 1 61 20 81 30 32 109 66 171 73 43 5 51 3 76 -22 l27 -27 -8 -101 c-11 -143 -9 -174 20 -223 34 -58 113 -138 161 -162 104 -52 255 -55 361 -7 71 31 143 101 168 161 38 92 102 394 83 394 -2 0 -25 -20 -50 -44 -89 -85 -237 -116 -366 -77 -120 36 -258 142 -330 254 -23 34 -73 137 -110 227 -71 171 -102 229 -144 268 -56 51 -128 44 -138 -13 -10 -52 2 -79 59 -134 72 -69 91 -98 91 -142 0 -79 -100 -122 -192 -81 -85 37 -130 126 -131 257 0 68 5 91 28 143 91 202 346 260 499 114 57 -55 116 -151 200 -325 91 -191 122 -236 189 -273 44 -25 63 -29 127 -29 86 0 126 17 162 67 21 30 23 43 23 143 -1 115 -27 253 -82 430 -14 44 -27 96 -30 115 l-4 35 118 62 c158 83 234 100 308 69z m2621 -24 c15 -10 34 -47 34 -67 0 -25 -46 -65 -75 -65 -32 0 -75 41 -75 71 0 49 75 88 116 61z m383 -38 c40 -51 13 -114 -49 -114 -36 0 -80 39 -80 70 0 12 11 32 25 45 33 34 77 33 104 -1z m446 12 c89 -37 69 -124 -69 -293 -100 -122 -259 -334 -254 -338 2 -2 37 22 78 53 159 121 323 192 438 192 75 0 106 -16 110 -57 2 -23 -5 -40 -27 -65 -46 -53 -116 -85 -278 -127 -181 -48 -234 -69 -383 -152 -76 -42 -130 -80 -159 -111 -48 -53 -47 -54 23 -33 27 8 79 15 115 15 80 0 131 -22 146 -64 8 -25 6 -31 -22 -56 -38 -34 -133 -65 -263 -86 -268 -43 -318 -53 -350 -67 l-35 -15 62 -1 c57 -1 66 -4 102 -36 50 -46 71 -106 71 -204 -1 -130 -54 -201 -177 -237 -122 -35 -243 44 -218 143 8 35 64 90 100 99 38 9 76 -12 95 -53 18 -39 28 -37 58 7 81 119 -77 200 -274 139 -38 -12 -81 -27 -96 -35 -15 -8 -29 -10 -32 -5 -10 16 72 80 151 119 77 37 178 125 380 329 184 186 244 510 110 592 -94 56 -187 20 -187 -74 l0 -27 31 26 c66 56 139 20 124 -61 -9 -48 -67 -107 -123 -124 -39 -11 -46 -10 -99 17 -145 74 -156 254 -23 378 57 53 110 70 198 63 202 -16 308 -194 262 -437 -6 -29 -8 -55 -7 -57 8 -7 67 115 90 187 14 41 32 125 42 185 27 178 68 245 162 271 63 17 87 17 128 0z m-5773 -668 c24 -20 28 -44 12 -67 -18 -25 -51 -27 -76 -4 -23 21 -23 38 2 63 23 23 40 25 62 8z m50 -254 c15 -33 1 -58 -36 -62 -33 -4 -56 13 -56 42 0 51 71 66 92 20z m166 -189 c22 -48 -44 -88 -82 -49 -25 25 -19 51 18 71 26 14 52 6 64 -22z m5015 -164 c33 -13 53 -64 39 -97 -31 -67 -142 -41 -142 34 0 19 33 55 60 65 8 3 16 6 17 6 1 1 13 -3 26 -8z m-643 -198 c0 -6 -30 -59 -110 -193 -15 -25 -80 -118 -145 -205 -157 -211 -479 -536 -695 -701 -300 -230 -765 -474 -844 -444 -12 4 -55 38 -96 75 -41 38 -143 119 -226 181 -222 166 -274 231 -343 427 -71 203 -149 331 -222 364 -21 10 -39 20 -39 23 0 3 30 18 67 34 94 40 178 35 283 -15 81 -39 166 -109 201 -165 19 -32 23 -34 38 -20 53 48 181 61 250 27 103 -53 182 -222 166 -356 -4 -27 -19 -117 -35 -200 -30 -155 -35 -196 -32 -280 1 -34 5 -46 13 -38 25 25 73 203 105 393 38 231 71 356 116 447 50 102 141 172 245 189 53 8 123 -23 152 -69 l20 -31 11 29 c25 71 36 93 63 138 44 72 145 149 282 217 143 71 230 96 379 110 61 6 152 15 203 20 52 5 110 17 135 28 48 23 58 25 58 15z m629 -33 c29 -15 45 -64 30 -92 -16 -31 -28 -38 -66 -38 -82 0 -100 105 -23 133 23 9 40 8 59 -3z m-549 -134 c0 -39 -47 -84 -134 -128 -44 -22 -91 -49 -103 -61 -40 -36 -35 -11 10 49 73 97 154 164 198 164 24 0 29 -4 29 -24z m21 -156 c32 -17 24 -64 -17 -110 -37 -41 -83 -66 -294 -159 -64 -29 -153 -74 -200 -101 -46 -28 -85 -48 -88 -46 -7 8 176 223 231 271 54 47 183 119 252 141 50 16 91 17 116 4z m-2191 -50 c24 -24 26 -77 3 -102 -20 -22 -71 -24 -101 -2 -32 22 -30 76 4 103 34 26 68 27 94 1z m-716 -562 c22 -31 20 -74 -4 -98 -51 -51 -146 7 -121 74 19 49 97 64 125 24z" id="1"/>
<path d="M2190 7936 c-95 -34 -148 -59 -241 -112 -100 -56 -321 -195 -317 -199 5 -4 160 22 206 34 22 6 110 25 194 41 249 48 346 89 374 156 39 92 -70 133 -216 80z" id="2"/>
<path d="M5522 7905 c-54 -28 -92 -77 -106 -139 -9 -38 10 -91 41 -116 35 -27 106 -27 133 0 31 31 25 43 -19 35 -32 -5 -43 -3 -60 14 -25 25 -27 51 -6 91 32 62 129 80 183 35 42 -35 56 -75 49 -144 l-5 -58 50 12 c60 13 72 30 66 100 -6 69 -38 111 -115 152 -86 46 -145 51 -211 18z" id="3"/>
<path d="M6163 7692 c-28 -10 -67 -30 -86 -45 -50 -38 -107 -120 -114 -164 -7 -44 -25 -84 -47 -102 -21 -17 -20 -31 0 -31 33 0 83 -41 104 -85 27 -55 47 -70 129 -95 82 -26 147 -26 189 0 90 55 76 214 -19 235 -35 8 -35 10 -4 46 43 52 55 125 31 184 -28 65 -97 87 -183 57z" id="4"/>
<path d="M1633 7601 c-82 -22 -183 -61 -263 -101 -81 -41 -255 -159 -333 -226 -93 -81 -208 -224 -196 -244 26 -46 25 -46 86 11 33 30 85 68 116 84 48 25 63 40 94 93 104 178 370 336 564 335 129 -1 239 -67 296 -177 21 -42 24 -60 21 -117 -3 -58 -8 -74 -34 -106 -66 -81 -165 -107 -219 -57 -25 23 -27 30 -23 83 5 72 31 110 107 159 55 35 55 36 29 44 -95 32 -228 -100 -228 -227 0 -40 35 -93 78 -118 69 -40 224 -18 318 45 109 74 139 192 80 313 -36 73 -124 163 -191 195 -69 33 -201 38 -302 11z" id="5"/>
<path d="M5737 7606 c-81 -29 -182 -123 -227 -211 -11 -21 -20 -40 -20 -41 0 -1 20 -4 45 -6 60 -7 93 -31 117 -85 16 -36 19 -57 13 -98 -5 -42 -3 -56 10 -69 59 -58 168 -67 253 -21 30 16 62 43 73 62 51 83 -20 203 -121 203 l-35 0 33 26 c18 14 40 40 48 57 31 59 12 146 -38 181 -27 19 -99 20 -151 2z" id="6"/>
<path d="M7069 7610 c-52 -4 -133 -16 -178 -25 l-84 -18 55 -28 55 -28 43 21 c61 30 223 37 305 13 202 -58 331 -212 245 -290 -15 -14 -31 -16 -69 -13 -47 5 -49 4 -37 -14 25 -36 175 -98 307 -128 140 -31 190 -53 251 -108 74 -66 89 -148 40 -204 -24 -26 -36 -31 -73 -31 -64 0 -99 22 -226 144 -63 60 -117 109 -122 109 -5 0 15 -36 44 -80 50 -76 105 -193 105 -224 0 -17 65 -73 229 -196 191 -144 248 -231 272 -418 17 -132 4 -180 -78 -290 -91 -121 -96 -133 -102 -242 l-6 -95 -24 45 c-13 25 -54 92 -92 150 -37 58 -80 132 -96 165 -30 65 -30 73 -24 430 2 66 -2 136 -7 155 -8 28 -9 18 -5 -46 7 -98 -14 -156 -72 -200 -50 -38 -135 -45 -183 -15 -65 41 -93 124 -72 216 6 28 35 112 66 187 84 210 90 301 26 408 l-27 45 -6 -140 c-5 -145 -14 -182 -60 -247 -25 -34 -90 -67 -132 -68 -43 0 -96 29 -114 63 -22 44 -12 92 45 210 58 117 102 258 102 325 0 25 -9 64 -20 86 -24 51 -173 197 -229 226 -45 22 -129 37 -156 26 -15 -5 -13 -11 12 -40 18 -22 37 -35 54 -35 49 -2 130 -32 165 -63 51 -45 65 -79 65 -159 0 -85 -21 -135 -97 -237 -75 -99 -106 -169 -112 -251 -5 -82 9 -138 51 -193 65 -86 182 -128 271 -98 48 15 53 10 23 -26 -45 -54 -60 -96 -65 -179 -5 -95 7 -147 51 -211 52 -78 139 -114 200 -83 12 6 42 30 66 53 28 26 41 34 36 21 -4 -11 -10 -50 -13 -86 -11 -168 111 -352 415 -626 105 -95 139 -151 130 -214 -3 -21 -2 -39 2 -39 4 0 38 29 74 64 110 105 167 254 152 396 l-7 65 -32 -90 c-18 -49 -48 -126 -68 -170 -19 -44 -39 -89 -43 -100 -5 -15 -14 5 -32 75 -47 182 -22 313 85 438 43 49 54 72 82 167 54 185 50 282 -19 430 -52 111 -117 165 -294 240 l-88 38 36 29 c58 49 80 100 80 193 0 72 -3 86 -34 143 -43 79 -136 166 -226 212 -68 34 -72 35 -212 38 -79 2 -143 6 -143 9 0 3 14 21 30 40 25 28 30 42 30 86 0 66 -24 118 -84 184 -65 72 -114 90 -306 107 -19 2 -78 0 -131 -4z" id="7"/>
<path d="M3415 7585 c-110 -34 -244 -72 -279 -80 -29 -6 -29 -6 23 -31 49 -22 65 -24 204 -24 168 1 231 11 265 42 30 29 28 54 -7 89 -25 24 -37 29 -78 28 -26 0 -84 -11 -128 -24z" id="8"/>
<path d="M2470 7568 c-85 -4 -198 -11 -250 -15 l-95 -7 80 -8 c122 -13 225 -42 359 -102 192 -87 282 -104 344 -66 59 36 68 123 17 167 -51 45 -122 50 -455 31z" id="9"/>
<path d="M5308 7547 c-57 -22 -121 -62 -171 -109 -45 -42 -117 -149 -117 -174 0 -7 24 -19 53 -28 100 -29 157 -132 157 -287 l0 -50 29 21 c43 30 156 70 199 70 25 0 54 10 85 29 114 73 141 213 55 286 -32 27 -93 34 -130 14 -31 -16 -33 -4 -5 33 40 51 49 85 37 124 -22 65 -114 99 -192 71z" id="10"/>
<path d="M6535 7537 c-83 -28 -186 -79 -204 -101 -8 -9 -9 -16 -3 -16 6 0 24 -11 40 -25 l30 -25 49 30 c62 38 140 60 219 60 77 0 164 -41 223 -105 34 -37 41 -51 41 -85 0 -52 -13 -76 -50 -95 -38 -20 -59 -19 -67 3 -10 28 -35 52 -54 52 -10 0 -27 -12 -39 -27 -29 -38 -21 -88 20 -125 43 -40 99 -38 181 5 85 43 124 98 123 170 -1 99 -86 217 -196 273 -45 23 -68 28 -148 31 -79 3 -107 -1 -165 -20z" id="11"/>
<path d="M7053 7540 c-29 -6 -67 -16 -85 -23 -30 -12 -29 -13 38 -13 90 0 131 -22 240 -125 94 -88 150 -121 207 -123 49 -1 71 24 63 73 -7 48 -50 97 -126 142 -106 64 -225 88 -337 69z" id="12"/>
<path d="M2040 7537 c0 -7 164 -129 284 -212 54 -37 124 -88 154 -113 95 -78 122 -92 167 -92 76 0 115 59 89 135 -21 63 -88 122 -193 172 -111 53 -203 78 -338 93 -54 5 -113 13 -130 16 -18 4 -33 4 -33 1z" id="13"/>
<path d="M2979 7466 c-1 -14 -2 -31 -3 -37 -1 -7 26 -19 59 -29 102 -28 177 -76 227 -144 88 -121 -42 -286 -193 -246 -89 24 -118 102 -60 161 50 49 98 33 103 -36 2 -32 7 -41 25 -43 15 -2 27 5 39 23 33 50 -16 146 -84 164 -70 19 -152 -15 -182 -75 -21 -43 -16 -132 10 -184 122 -239 464 -125 465 155 0 59 -4 78 -27 117 -57 96 -201 185 -318 195 -59 6 -60 5 -61 -21z" id="14"/>
<path d="M3285 7402 c6 -6 60 -35 120 -66 87 -44 132 -74 218 -150 59 -53 109 -96 111 -96 1 0 28 -5 59 -10 50 -10 62 -8 107 11 97 42 148 129 116 200 -20 46 -35 63 -76 88 -41 24 -80 27 -118 7 -48 -25 -71 -96 -42 -131 16 -19 49 -19 56 0 9 22 70 19 94 -5 40 -40 19 -100 -42 -115 -43 -11 -94 12 -253 113 -141 91 -245 141 -325 157 -24 5 -32 4 -25 -3z" id="15"/>
<path d="M4454 7270 c-32 -16 -113 -70 -179 -119 -150 -113 -201 -141 -269 -148 l-54 -6 43 -61 c62 -91 111 -184 151 -288 47 -120 67 -159 106 -203 59 -68 124 -87 206 -60 16 5 22 3 22 -7 0 -18 56 -71 95 -91 51 -25 144 -38 206 -28 99 17 171 62 215 137 11 18 12 18 35 -3 52 -47 117 -68 219 -68 88 0 101 3 163 33 37 18 124 78 194 133 186 145 256 176 428 189 6 0 -13 9 -42 19 -30 10 -76 38 -108 67 -178 155 -268 199 -405 199 -76 0 -93 -4 -157 -34 -40 -18 -80 -42 -89 -52 -9 -11 -20 -19 -23 -19 -3 0 -6 46 -6 103 0 92 -3 108 -28 159 -47 97 -132 126 -270 94 -84 -20 -118 -37 -183 -92 -28 -24 -54 -44 -57 -44 -4 0 1 15 9 34 24 49 11 101 -36 148 -32 33 -44 38 -82 38 -30 0 -65 -10 -104 -30z m101 -34 c40 -17 55 -42 55 -92 0 -31 -7 -44 -43 -78 -46 -44 -178 -114 -266 -140 -30 -9 -77 -16 -105 -16 l-51 0 65 -44 c85 -56 144 -122 181 -199 46 -98 34 -157 -30 -157 -48 0 -77 33 -110 125 -36 101 -66 161 -115 234 -20 30 -35 57 -34 61 10 24 323 288 363 306 38 17 48 17 90 0z m495 -121 c76 -39 65 -142 -22 -208 -79 -61 -175 -85 -375 -95 l-138 -7 173 -24 c159 -22 185 -23 330 -13 114 7 203 20 322 47 242 54 367 44 386 -31 9 -34 -20 -73 -72 -99 -59 -30 -180 -27 -314 9 -76 21 -135 30 -215 32 l-110 4 77 -24 c152 -46 267 -123 284 -190 17 -68 -38 -116 -131 -116 -69 0 -131 32 -247 127 -54 43 -131 95 -170 115 -73 36 -275 104 -284 96 -2 -3 46 -44 108 -91 175 -132 246 -194 263 -228 15 -28 15 -33 0 -56 -22 -32 -72 -53 -148 -60 -78 -7 -137 9 -183 49 -42 37 -64 78 -116 218 -49 129 -80 194 -119 242 -34 43 -36 52 -11 44 48 -16 186 42 351 146 100 63 181 106 221 119 42 13 109 10 140 -6z" id="16"/>
<path d="M4458 7212 c-39 -20 -318 -260 -318 -274 0 -16 117 -8 176 12 151 52 264 130 279 192 6 22 1 33 -23 58 -35 35 -63 38 -114 12z" id="17"/>
<path d="M4168 6853 c31 -44 77 -143 101 -214 26 -78 56 -112 97 -107 25 2 29 8 32 36 4 39 -34 126 -79 183 -28 36 -146 129 -163 129 -4 0 1 -12 12 -27z" id="18"/>
<path d="M4865 7081 c-33 -15 -107 -57 -165 -93 -127 -78 -190 -111 -249 -129 -66 -20 -29 -27 131 -28 233 -1 363 27 440 97 71 64 83 117 38 162 -31 31 -120 27 -195 -9z" id="19"/>
<path d="M5505 6829 c-33 -4 -121 -21 -196 -38 -75 -17 -152 -31 -170 -32 -19 -1 11 -9 66 -19 55 -10 138 -27 185 -39 134 -33 247 -24 301 25 24 22 24 56 1 77 -14 13 -120 43 -126 36 0 -1 -28 -5 -61 -10z" id="20"/>
<path d="M4445 6790 c17 -11 38 -20 47 -20 40 0 264 -73 335 -109 43 -22 121 -74 173 -117 118 -95 176 -124 251 -124 109 0 142 64 72 141 -90 99 -238 146 -643 204 -96 14 -191 29 -210 35 -52 15 -58 12 -25 -10z" id="21"/>
<path d="M4390 6795 c0 -3 15 -36 33 -73 19 -37 51 -113 72 -170 72 -195 120 -238 259 -230 78 4 149 32 154 60 2 9 -16 38 -39 63 -89 96 -479 381 -479 350z" id="22"/>
<path d="M7384 7147 c1 -92 -29 -190 -96 -322 -42 -82 -52 -110 -52 -153 -1 -47 3 -57 27 -78 47 -40 134 -27 184 27 58 64 79 170 65 337 -9 100 -10 104 -56 171 -69 102 -72 103 -72 18z" id="23"/>
<path d="M1189 7181 c-94 -39 -203 -107 -255 -159 -47 -45 -53 -55 -44 -73 11 -19 13 -18 52 15 61 53 125 71 243 70 129 -1 194 -24 258 -93 78 -83 84 -161 20 -232 -59 -65 -132 -74 -193 -22 -41 34 -39 53 5 53 25 0 44 8 60 25 31 30 31 37 1 72 -19 22 -32 28 -66 28 -36 0 -47 -6 -71 -34 -37 -45 -55 -118 -39 -165 19 -60 103 -116 171 -116 51 0 150 43 199 86 73 67 94 112 94 204 -1 119 -25 185 -92 250 -76 75 -138 104 -227 107 -51 2 -82 -2 -116 -16z" id="24"/>
<path d="M6028 7153 l-16 -45 31 7 c18 4 59 10 92 14 l60 7 -54 17 c-30 9 -64 23 -76 31 -20 13 -22 11 -37 -31z" id="25"/>
<path d="M7472 7136 c13 -18 64 -66 113 -106 50 -40 123 -106 163 -147 44 -44 92 -83 119 -95 110 -49 179 31 123 142 -38 75 -121 119 -293 154 -68 14 -138 36 -175 55 -34 17 -64 31 -67 31 -3 0 5 -15 17 -34z" id="26"/>
<path d="M716 7117 c-10 -42 -128 -192 -231 -292 -159 -156 -214 -274 -222 -477 -3 -64 -2 -138 2 -163 l7 -47 42 6 c91 14 227 -26 312 -90 l42 -32 5 27 c4 16 43 68 93 122 110 119 146 174 184 277 49 134 38 276 -31 413 -49 98 -172 279 -189 279 -4 0 -10 -10 -14 -23z" id="27"/>
<path d="M6079 7104 c-42 -7 -105 -27 -140 -44 -98 -46 -208 -39 -274 18 -19 17 -22 16 -77 -39 l-57 -57 42 -6 c23 -4 78 -25 122 -46 78 -39 79 -39 100 -21 62 57 232 111 351 111 216 0 430 -159 494 -367 37 -121 22 -201 -51 -275 -74 -74 -155 -86 -219 -32 -40 34 -56 86 -41 135 22 72 100 103 148 57 l23 -21 0 24 c0 54 -59 99 -130 99 -33 0 -48 -7 -85 -41 -24 -22 -49 -57 -56 -76 -25 -76 19 -232 76 -269 33 -21 132 -44 196 -44 170 -1 298 139 286 310 -5 76 -76 260 -133 346 -61 91 -175 177 -301 225 -84 33 -149 36 -274 13z" id="28"/>
<path d="M2145 6954 c-47 -47 -104 -90 -170 -129 -55 -32 -123 -75 -151 -96 -64 -47 -127 -141 -154 -226 -22 -72 -26 -182 -9 -232 6 -18 9 -35 6 -38 -4 -3 -28 8 -54 25 -161 104 -298 116 -444 41 -129 -65 -229 -247 -205 -373 19 -102 182 -164 308 -117 21 8 20 10 -20 30 -82 42 -108 138 -55 202 57 67 156 86 255 49 65 -24 149 -96 173 -147 10 -21 26 -50 36 -64 28 -39 95 -178 124 -254 36 -97 62 -237 76 -415 21 -273 -1 -439 -80 -590 -48 -93 -261 -590 -308 -720 -45 -125 -93 -311 -93 -363 0 -24 7 -53 16 -66 24 -33 60 -26 244 52 85 36 182 74 215 83 128 38 368 10 534 -62 108 -47 215 -55 372 -29 320 53 497 181 554 402 42 162 -18 383 -133 483 -155 137 -437 158 -594 45 -95 -69 -130 -217 -78 -327 68 -145 248 -190 350 -88 37 37 58 89 45 110 -10 16 -47 12 -83 -10 -37 -23 -90 -26 -116 -7 -9 7 -21 30 -26 50 -7 34 -5 42 21 72 58 66 198 85 267 36 18 -12 45 -50 64 -89 30 -61 33 -74 33 -162 0 -79 -4 -103 -23 -142 -71 -142 -204 -195 -422 -169 -156 19 -244 48 -355 116 -56 34 -206 70 -290 69 -78 -1 -157 -29 -196 -70 -51 -54 -62 -14 -33 122 28 137 136 407 238 596 44 81 100 230 132 353 56 213 20 747 -62 925 -14 30 -34 78 -44 105 -10 28 -33 84 -51 125 -30 68 -33 84 -32 167 1 111 18 152 118 299 36 53 78 120 92 148 36 72 82 211 89 272 11 87 -2 88 -81 8z" id="29"/>
<path d="M3740 7027 c0 -4 9 -26 21 -48 34 -67 57 -180 69 -331 16 -223 48 -326 106 -348 34 -13 71 5 102 50 21 31 23 44 20 106 -6 90 -30 143 -161 352 -96 153 -156 237 -157 219z" id="30"/>
<path d="M3555 6978 c-11 -6 -32 -22 -47 -36 -56 -52 -24 -126 46 -108 32 8 34 33 4 39 -22 3 -21 4 5 11 19 6 34 3 52 -8 60 -39 2 -124 -101 -147 -50 -11 -76 -10 -238 15 -128 19 -215 39 -299 67 -165 55 -238 66 -329 51 -169 -29 -257 -111 -274 -256 -6 -47 -3 -63 19 -109 35 -70 84 -99 168 -99 112 0 194 63 194 149 0 38 -5 49 -33 74 -54 49 -89 35 -99 -41 -5 -36 -8 -40 -35 -40 -98 0 -153 113 -82 169 39 31 124 45 188 31 105 -22 175 -102 281 -321 77 -161 90 -224 90 -445 l0 -180 -38 -76 c-61 -125 -161 -198 -271 -198 -91 0 -146 40 -146 106 0 23 8 39 26 53 33 26 50 26 66 1 15 -24 31 -25 52 -4 22 21 20 57 -4 79 -16 14 -30 17 -71 12 -66 -8 -113 -38 -147 -95 -24 -41 -27 -57 -27 -133 0 -77 3 -90 28 -128 36 -55 92 -81 172 -81 65 0 106 9 318 64 155 40 225 45 337 21 162 -34 286 -29 392 17 61 26 133 103 148 156 23 86 -16 134 -113 140 -53 3 -65 1 -84 -18 -28 -25 -30 -71 -5 -93 20 -19 62 -23 62 -7 0 6 7 10 15 10 40 0 -9 -72 -65 -94 -116 -46 -275 21 -358 151 -85 134 -104 394 -46 621 39 153 131 281 246 342 81 43 137 95 161 149 17 38 18 48 6 88 -17 63 -67 113 -110 113 -19 0 -43 -6 -54 -12z" id="31"/>
<path d="M7605 6915 c14 -36 18 -154 5 -203 -6 -26 -33 -101 -60 -167 -81 -203 -88 -283 -29 -350 71 -80 195 -60 240 38 25 56 24 116 -6 271 -38 197 -55 254 -97 336 -37 72 -71 120 -53 75z" id="32"/>
<path d="M7760 6619 c0 -4 13 -49 29 -102 42 -134 52 -220 39 -331 -15 -140 -7 -290 20 -350 29 -63 133 -229 140 -222 2 3 0 31 -6 63 -6 32 -14 168 -17 303 -8 305 -16 377 -55 456 -25 52 -148 202 -150 183z" id="33"/>
<path d="M7894 6496 c66 -96 76 -156 86 -486 5 -196 13 -302 26 -370 l18 -95 8 53 c11 73 27 106 88 187 29 38 62 88 74 110 41 80 27 256 -30 372 -35 72 -108 150 -214 228 -49 36 -92 65 -95 65 -2 0 15 -29 39 -64z" id="34"/>
<path d="M4290 6377 c0 -1 9 -27 21 -57 26 -69 36 -193 19 -244 -27 -83 -123 -140 -196 -116 -37 12 -54 35 -54 71 0 18 3 20 12 11 7 -7 21 -12 33 -12 29 0 45 19 45 52 0 93 -142 141 -229 79 -66 -47 -84 -148 -42 -235 29 -59 69 -92 138 -112 179 -52 403 107 403 287 0 48 -35 162 -67 216 -15 25 -35 45 -53 52 -17 5 -30 9 -30 8z" id="35"/>
<path d="M6685 6250 c-10 -11 -33 -25 -50 -32 -27 -9 -34 -18 -39 -47 -21 -128 21 -348 94 -490 36 -71 105 -138 167 -161 84 -31 228 -47 296 -31 121 27 207 127 207 240 0 85 -89 199 -172 221 -68 19 -134 -27 -159 -110 -16 -52 -6 -85 30 -100 30 -12 71 -6 71 11 0 5 -7 21 -16 35 -15 21 -15 28 -4 50 8 13 24 27 38 31 53 13 97 -35 108 -121 19 -134 -61 -215 -212 -216 -121 0 -208 60 -273 188 -55 109 -65 168 -66 370 0 100 0 182 -1 182 0 0 -9 -9 -19 -20z" id="36"/>
<path d="M4685 6134 c-30 -15 -85 -63 -85 -73 0 -4 19 -5 43 -3 53 5 92 -23 108 -77 22 -74 -29 -133 -156 -180 -95 -36 -154 -72 -200 -124 -74 -81 -102 -192 -74 -290 14 -51 5 -58 -16 -13 -46 96 -149 168 -288 201 -85 20 -96 19 -107 -11 -6 -15 -20 -40 -31 -56 -12 -16 -20 -30 -18 -31 2 -1 30 -15 62 -31 62 -31 133 -102 196 -195 51 -75 66 -106 102 -209 42 -118 64 -158 106 -195 62 -54 131 -164 159 -251 14 -44 32 -137 40 -205 14 -119 17 -129 68 -225 87 -165 153 -271 219 -353 72 -90 186 -213 197 -213 24 0 151 307 227 545 19 61 48 146 64 190 16 44 33 109 39 144 17 94 160 594 209 726 10 28 26 80 35 118 36 155 124 287 231 348 108 62 214 23 215 -78 0 -24 -4 -43 -10 -43 -5 0 -10 10 -10 23 0 76 -105 55 -125 -25 -9 -36 9 -89 41 -119 80 -75 214 30 214 168 0 54 -23 96 -94 166 -105 105 -287 61 -469 -111 -101 -97 -172 -209 -216 -344 -13 -38 -26 -68 -29 -68 -4 0 -17 22 -30 50 -13 27 -51 79 -85 114 -49 51 -73 67 -114 80 -29 8 -72 26 -96 40 -24 14 -46 26 -49 26 -2 0 -1 -27 3 -60 9 -82 47 -155 123 -237 103 -112 136 -200 136 -371 0 -130 -14 -226 -55 -387 -52 -203 -144 -455 -166 -455 -27 0 -221 331 -422 722 -103 202 -112 234 -112 418 0 220 -1 219 302 498 127 117 164 175 171 273 4 48 0 65 -24 108 -15 28 -42 60 -59 71 -40 25 -127 27 -170 4z" id="37"/>
<path d="M259 6116 c-25 -6 -66 -24 -90 -38 -139 -82 -174 -306 -63 -410 38 -36 74 -48 139 -48 42 0 60 5 82 24 24 20 25 26 14 40 -9 10 -29 16 -57 16 -94 0 -134 44 -134 145 0 68 26 124 73 159 59 43 235 28 334 -30 48 -28 78 -66 103 -132 10 -26 27 -53 38 -60 19 -12 22 -11 36 17 9 16 16 38 16 47 0 57 -97 179 -180 227 -90 52 -214 69 -311 43z" id="38"/>
<path d="M822 5873 c-37 -18 -67 -56 -77 -96 -10 -39 -22 -42 -56 -13 -92 78 -199 42 -199 -67 0 -19 13 -60 30 -93 62 -124 340 -379 340 -312 0 6 12 26 26 45 43 57 106 255 112 355 4 77 2 90 -18 122 -21 34 -83 76 -112 76 -7 0 -28 -8 -46 -17z" id="39"/>
<path d="M8359 5682 c-105 -117 -132 -265 -75 -417 8 -22 15 -33 15 -25 1 8 21 57 45 108 66 140 81 204 70 304 l-9 82 -46 -52z" id="40"/>
<path d="M7256 5511 l-30 -20 30 -6 c126 -28 199 -82 245 -180 41 -85 40 -152 -2 -200 -37 -41 -90 -59 -138 -45 -58 16 -83 50 -37 50 31 0 41 26 21 56 -11 18 -25 24 -50 24 -100 0 -100 -170 0 -220 45 -22 170 -20 219 4 43 22 90 88 107 151 13 49 0 122 -39 209 -22 51 -37 67 -104 117 -54 40 -92 60 -128 68 -64 14 -60 14 -94 -8z" id="41"/>
<path d="M1034 5428 c-52 -17 -126 -80 -151 -127 -13 -25 -25 -46 -27 -49 -3 -2 -20 7 -38 21 -60 45 -121 70 -171 71 -41 1 -52 -3 -73 -27 -32 -38 -32 -96 0 -152 14 -24 59 -68 103 -102 44 -34 96 -80 117 -103 49 -55 106 -173 106 -222 0 -21 2 -38 4 -38 2 0 34 30 71 68 58 58 77 87 140 217 86 176 105 230 105 291 0 117 -85 187 -186 152z" id="42"/>
<path d="M8305 5070 c-4 -6 1 -41 10 -78 52 -206 -12 -436 -140 -502 -58 -29 -166 -39 -235 -20 -124 33 -171 181 -85 267 19 19 43 33 58 33 29 0 77 -35 77 -57 0 -13 3 -13 16 -2 72 60 45 192 -50 241 -76 40 -183 21 -243 -44 -37 -39 -56 -98 -56 -173 -1 -169 79 -260 268 -310 139 -36 257 -10 342 75 127 127 158 323 81 527 -19 52 -31 63 -43 43z" id="43"/>
<path d="M3710 5004 c-256 -68 -444 -269 -501 -534 -10 -47 -9 -49 34 -113 81 -118 119 -267 100 -388 -14 -84 -3 -104 90 -170 179 -126 312 -162 524 -139 184 19 273 50 381 133 154 118 206 305 169 609 -26 205 -62 290 -173 407 -75 80 -152 124 -306 176 -119 40 -218 46 -318 19z m328 -164 c49 -30 42 -51 -11 -31 -70 27 -174 -39 -184 -117 -11 -84 23 -122 109 -122 38 0 80 14 68 22 -3 2 -18 10 -35 18 -16 9 -31 24 -33 33 -10 51 76 107 163 107 98 0 176 -61 209 -162 21 -64 21 -240 1 -326 -51 -216 -207 -336 -435 -337 -208 0 -363 92 -424 252 -24 63 -32 214 -16 295 35 182 147 305 325 361 105 33 215 36 263 7z" id="44"/>
<path d="M3885 4840 c-278 -42 -428 -211 -429 -485 -1 -197 80 -319 254 -386 68 -26 204 -36 280 -20 204 42 313 186 336 441 17 203 -65 340 -204 342 -124 0 -206 -94 -101 -117 36 -8 37 -18 3 -44 -50 -39 -151 -22 -188 31 -36 51 -7 155 55 198 17 13 52 25 77 28 40 5 43 7 22 13 -31 9 -42 9 -105 -1z" id="45"/>
<path d="M1227 4917 c-182 -64 -343 -237 -392 -423 -32 -120 -13 -398 35 -527 18 -49 126 -203 188 -269 14 -15 47 -35 73 -43 27 -9 51 -21 54 -26 4 -5 10 -9 15 -9 10 0 -73 123 -103 153 -46 46 -138 182 -156 233 -64 170 -44 393 54 599 44 93 102 157 173 192 48 24 70 28 137 28 70 0 87 -4 134 -30 68 -38 117 -95 138 -162 32 -102 -13 -217 -110 -277 -60 -37 -117 -40 -149 -8 -20 20 -23 33 -23 105 0 98 -6 111 -48 103 -39 -8 -54 -21 -78 -67 -48 -95 1 -204 107 -239 20 -7 64 -10 97 -8 196 12 326 200 283 407 -48 231 -222 340 -429 268z" id="46"/>
<path d="M8246 4452 c-9 -9 -35 -44 -56 -77 -21 -33 -118 -157 -215 -275 -191 -235 -242 -317 -252 -412 -10 -99 31 -208 78 -208 31 0 91 63 139 146 61 107 111 235 165 426 31 110 65 203 106 287 33 68 58 126 56 127 -2 2 -11 -4 -21 -14z" id="47"/>
<path d="M8015 4366 c-146 -47 -295 -144 -295 -191 0 -20 38 -53 71 -60 73 -16 169 46 266 173 35 45 63 87 63 92 0 15 -28 11 -105 -14z" id="48"/>
<path d="M1153 4140 c-90 -55 -103 -219 -28 -356 34 -63 185 -277 191 -271 2 1 -1 32 -6 67 -5 36 -15 153 -20 260 -12 217 -20 261 -55 296 -29 29 -41 30 -82 4z" id="49"/>
<path d="M463 3975 c-62 -27 -86 -130 -40 -173 22 -21 30 -22 208 -19 207 2 246 -6 341 -69 28 -19 55 -33 60 -32 13 5 -101 157 -147 197 -51 45 -123 76 -217 95 -94 19 -163 20 -205 1z" id="50"/>
<path d="M895 3632 c-122 -59 -225 -209 -227 -329 -1 -89 26 -157 86 -219 74 -75 134 -90 228 -54 192 73 282 263 135 287 -98 16 -175 -68 -114 -125 30 -29 58 -28 86 2 20 21 22 31 16 62 -6 33 -5 36 9 25 8 -7 20 -28 27 -48 10 -31 9 -39 -8 -62 -64 -85 -220 -103 -309 -35 -107 80 -103 290 7 389 107 97 269 78 383 -45 69 -75 95 -142 140 -357 38 -178 60 -254 100 -338 13 -27 34 -76 46 -108 34 -86 105 -180 231 -302 92 -89 133 -122 214 -166 55 -30 112 -60 128 -67 29 -13 290 -62 328 -62 22 0 21 2 -11 29 -28 24 -48 31 -100 36 -165 16 -321 79 -465 187 -117 88 -145 123 -212 258 -92 187 -130 293 -168 466 -19 86 -44 189 -56 228 -72 243 -189 363 -364 373 -62 4 -77 1 -130 -25z" id="51"/>
<path d="M1630 3458 c-99 -51 -137 -151 -126 -335 3 -62 11 -147 18 -190 l11 -77 22 110 c21 101 99 305 142 371 8 12 21 42 28 67 12 40 12 48 -1 61 -21 21 -42 19 -94 -7z" id="52"/>
<path d="M1915 3276 c-79 -25 -131 -60 -216 -145 -106 -107 -131 -155 -137 -267 -5 -99 11 -163 76 -289 54 -104 120 -176 232 -252 139 -93 257 -141 398 -158 52 -7 53 -7 40 14 -7 12 -27 23 -48 26 -19 3 -49 8 -66 11 -45 7 -186 77 -271 136 -100 69 -165 144 -219 253 -81 163 -82 273 -4 394 47 72 115 125 190 148 72 21 153 8 257 -41 196 -94 264 -199 198 -311 -31 -54 -81 -79 -144 -72 -30 3 -51 12 -63 27 -24 29 -23 32 12 52 41 23 50 65 20 90 -27 21 -59 23 -103 4 -88 -37 -105 -137 -40 -225 80 -105 282 -94 400 23 187 186 30 499 -292 581 -71 18 -165 18 -220 1z" id="53"/>
<path d="M1105 2916 c-34 -52 23 -106 205 -194 47 -22 113 -64 148 -92 34 -28 62 -49 62 -47 0 15 -64 140 -89 175 -34 46 -129 121 -203 158 -62 31 -103 31 -123 0z" id="54"/>
<path d="M2252 2444 c-32 -22 -30 -94 4 -161 49 -100 167 -189 404 -308 52 -26 126 -67 163 -91 103 -67 108 -62 42 45 -144 234 -399 484 -530 520 -52 14 -56 14 -83 -5z" id="55"/>
<path d="M2437 1916 c-56 -21 -77 -43 -77 -84 0 -29 8 -44 48 -82 37 -36 65 -52 127 -72 188 -61 382 -69 563 -23 61 16 112 31 112 34 -1 12 -191 91 -305 126 -66 20 -167 52 -225 70 -129 41 -192 49 -243 31z" id="56"/>
<path d="M3268 1692 l-27 -7 43 -60 c48 -69 137 -145 216 -184 30 -15 110 -47 178 -71 68 -24 142 -56 165 -71 23 -16 44 -24 45 -19 5 14 -51 104 -112 178 -67 83 -149 150 -244 198 -68 34 -86 39 -157 41 -44 1 -92 -1 -107 -5z" id="57"/>
<path d="M3055 1525 c-143 -59 -180 -110 -179 -250 0 -106 15 -146 76 -201 58 -52 101 -68 188 -68 189 0 298 102 238 222 -42 83 -112 110 -163 62 -49 -46 -24 -126 37 -118 34 5 37 -10 6 -40 -74 -68 -218 -49 -275 37 -48 71 -22 195 55 262 65 58 136 84 229 84 46 0 83 3 83 6 0 14 -83 29 -156 29 -61 0 -93 -6 -139 -25z" id="58"/>
<path d="M6255 7880 c-24 -26 -13 -68 22 -81 53 -20 98 45 57 85 -21 22 -57 20 -79 -4z" id="59"/>
<path d="M2775 7858 c-16 -5 -86 -36 -155 -68 -69 -32 -156 -72 -195 -89 l-70 -30 50 -1 c67 0 440 37 495 49 97 22 126 84 61 128 -27 18 -47 23 -95 22 -34 0 -74 -5 -91 -11z" id="60"/>
<path d="M6832 7814 c-27 -18 -29 -55 -4 -77 37 -34 92 -11 92 38 0 23 -32 55 -55 55 -6 0 -21 -7 -33 -16z" id="61"/>
<path d="M827 7342 c-10 -10 -17 -25 -17 -34 0 -22 33 -48 61 -48 32 0 49 17 49 50 0 14 -5 31 -12 38 -18 18 -63 14 -81 -6z" id="62"/>
<path d="M2382 7038 c-7 -7 -12 -24 -12 -38 0 -35 17 -50 57 -50 32 0 53 21 53 54 0 38 -70 62 -98 34z" id="63"/>
<path d="M6862 6798 c-7 -7 -12 -24 -12 -38 0 -33 17 -50 51 -50 48 0 71 38 49 81 -12 22 -68 27 -88 7z" id="64"/>
<path d="M1094 6495 c-15 -23 -15 -27 0 -50 11 -17 26 -25 46 -25 20 0 35 8 46 25 15 23 15 27 0 50 -11 17 -26 25 -46 25 -20 0 -35 -8 -46 -25z" id="65"/>
<path d="M2318 6374 c-9 -17 -44 -61 -78 -98 -52 -57 -61 -73 -58 -99 3 -28 7 -32 34 -35 71 -7 129 93 122 210 l-3 53 -17 -31z" id="66"/>
<path d="M6896 6404 c-33 -32 -5 -84 45 -84 32 0 49 17 49 50 0 14 -5 31 -12 38 -17 17 -64 15 -82 -4z" id="67"/>
<path d="M2450 6285 c-1 -38 -21 -87 -66 -162 -15 -26 -16 -35 -6 -45 17 -17 79 -15 98 3 34 34 27 174 -10 224 -14 19 -15 18 -16 -20z" id="68"/>
<path d="M2626 6254 c-33 -32 -5 -84 45 -84 32 0 49 17 49 50 0 14 -5 31 -12 38 -17 17 -64 15 -82 -4z" id="69"/>
<path d="M5184 6216 c-12 -31 0 -51 31 -51 27 0 30 3 30 30 0 25 -4 30 -28 33 -17 2 -29 -2 -33 -12z" id="70"/>
<path d="M6817 6152 c-33 -36 -8 -92 40 -92 25 0 53 30 53 57 0 46 -62 69 -93 35z" id="71"/>
<path d="M6355 6140 c-22 -5 -87 -8 -145 -7 -151 1 -202 -26 -217 -116 -14 -87 99 -117 213 -56 58 30 104 65 197 147 46 41 47 42 20 41 -15 -1 -46 -5 -68 -9z" id="72"/>
<path d="M6390 5988 c-124 -131 -140 -153 -140 -193 0 -37 16 -55 47 -55 52 0 105 44 142 117 23 46 64 206 59 228 -2 8 -48 -34 -108 -97z" id="73"/>
<path d="M5310 6093 c-46 -16 -51 -81 -19 -248 12 -60 24 -121 26 -135 5 -24 42 84 87 248 19 68 7 109 -40 128 -18 8 -35 14 -36 13 -2 0 -10 -3 -18 -6z" id="74"/>
<path d="M5755 6090 c-90 -21 -190 -104 -269 -223 -61 -94 -88 -151 -104 -222 -14 -67 -22 -115 -19 -115 2 0 32 36 67 81 82 103 140 155 275 244 120 80 159 122 159 172 0 53 -44 79 -109 63z" id="75"/>
<path d="M5102 6034 c-28 -20 -30 -69 -3 -84 29 -15 56 -12 74 8 22 25 21 48 -3 72 -24 24 -38 25 -68 4z" id="76"/>
<path d="M6540 5836 c0 -10 -18 -72 -40 -137 -52 -155 -52 -192 -3 -218 31 -16 59 -14 79 6 15 15 16 31 11 128 -4 60 -13 136 -21 168 -14 60 -26 84 -26 53z" id="77"/>
<path d="M5036 5798 c-9 -12 -16 -34 -16 -48 0 -43 25 -66 92 -85 77 -21 115 -39 151 -73 36 -34 34 -21 -5 36 -54 79 -101 134 -142 164 -47 34 -60 35 -80 6z" id="78"/>
<path d="M1251 5594 c-44 -55 29 -114 80 -63 22 22 19 55 -9 77 -25 19 -49 14 -71 -14z" id="79"/>
<path d="M1438 5356 c-8 -20 -8 -32 0 -52 10 -21 18 -25 49 -22 45 4 61 26 47 65 -8 23 -16 29 -47 31 -31 3 -39 -1 -49 -22z" id="80"/>
<path d="M92 5334 c-56 -39 -68 -134 -28 -219 30 -65 92 -121 251 -227 207 -138 351 -284 381 -385 14 -48 14 -47 10 52 -8 228 -99 436 -264 603 -164 166 -281 225 -350 176z" id="81"/>
<path d="M6326 5264 c-219 -47 -403 -158 -531 -318 -93 -118 -215 -390 -215 -479 l0 -41 29 46 c59 92 141 130 291 132 l96 1 38 80 c51 105 151 208 248 254 154 73 345 93 444 47 126 -59 212 -263 156 -372 -40 -78 -116 -126 -228 -144 -103 -17 -210 0 -469 72 -136 39 -161 43 -265 43 -140 0 -204 -19 -261 -76 -22 -22 -39 -43 -39 -48 0 -4 26 -11 58 -14 37 -3 114 -27 222 -70 248 -98 351 -121 530 -121 132 0 152 2 224 27 228 80 356 267 356 521 0 240 -128 408 -351 461 -80 19 -242 18 -333 -1z" id="82"/>
<path d="M6495 4990 c-152 -27 -299 -106 -375 -203 -39 -48 -100 -155 -100 -175 0 -9 261 -82 383 -107 185 -37 305 -27 392 33 63 44 87 94 82 172 -7 115 -74 222 -164 262 -50 22 -148 30 -218 18z" id="83"/>
<path d="M7588 4476 c7 -113 -39 -166 -195 -226 -46 -17 -85 -34 -87 -38 -2 -4 28 -8 68 -8 55 -1 85 -7 127 -26 l56 -25 45 32 c66 49 91 89 96 154 3 47 -1 65 -25 109 -15 29 -42 62 -58 72 l-31 19 4 -63z" id="84"/>
<path d="M5608 4424 c-10 -3 -21 -17 -24 -31 -9 -35 3 -167 21 -238 47 -178 305 -407 546 -484 129 -42 313 -44 431 -6 83 27 303 138 417 210 127 81 195 102 283 86 110 -19 163 -68 163 -151 0 -38 -5 -54 -24 -74 -36 -39 -90 -52 -145 -36 -75 21 -89 -9 -31 -67 32 -32 38 -34 77 -28 52 9 180 60 228 92 75 49 119 167 101 268 -14 73 -32 105 -87 154 -100 88 -234 93 -393 15 -41 -20 -154 -90 -250 -155 -198 -133 -274 -167 -390 -176 -96 -7 -242 18 -318 53 -115 55 -234 223 -248 351 -15 143 -3 126 -123 174 -102 41 -186 57 -234 43z" id="85"/>
<path d="M7910 5170 c-11 -11 -20 -27 -20 -35 0 -20 36 -55 56 -55 51 0 73 59 36 93 -25 22 -48 21 -72 -3z" id="86"/>
<path d="M1342 5148 c-31 -15 -39 -54 -17 -78 20 -22 65 -26 83 -8 20 20 14 65 -10 82 -26 18 -25 18 -56 4z" id="87"/>
<path d="M3211 5002 c-16 -30 8 -57 43 -48 22 5 27 11 24 34 -4 35 -51 44 -67 14z" id="88"/>
<path d="M3054 4865 c-15 -23 -15 -27 0 -50 11 -17 26 -25 46 -25 20 0 35 8 46 25 15 23 15 27 0 50 -11 17 -26 25 -46 25 -20 0 -35 -8 -46 -25z" id="89"/>
<path d="M2678 4808 l-21 -21 26 -22 c14 -13 90 -43 169 -69 78 -25 163 -58 187 -71 24 -14 46 -23 49 -20 8 8 -94 100 -162 147 -111 76 -206 98 -248 56z" id="90"/>
<path d="M7479 4704 c-17 -21 0 -49 31 -49 31 0 48 28 31 49 -8 9 -21 16 -31 16 -10 0 -23 -7 -31 -16z" id="91"/>
<path d="M205 4653 c-25 -25 -15 -99 24 -178 38 -76 140 -185 241 -256 86 -61 229 -143 236 -136 6 6 -166 309 -227 399 -99 146 -223 223 -274 171z" id="92"/>
<path d="M7296 4637 c-18 -13 -26 -42 -67 -242 -12 -55 -27 -112 -35 -127 -19 -36 -18 -41 5 -29 28 15 110 128 136 186 33 75 47 147 34 184 -6 17 -15 31 -19 31 -5 0 -14 2 -22 5 -7 3 -22 0 -32 -8z" id="93"/>
<path d="M4000 3581 c-30 -10 -94 -40 -142 -67 -101 -56 -100 -55 -63 -164 14 -41 41 -147 60 -236 43 -200 46 -290 12 -355 -65 -122 -290 -125 -393 -5 -20 23 -81 131 -136 241 -140 281 -196 348 -309 375 -219 53 -413 -150 -369 -385 23 -121 86 -185 183 -185 63 0 97 28 97 81 0 36 -7 48 -75 119 -69 72 -75 82 -75 120 0 67 23 100 73 100 37 0 75 -21 113 -62 46 -50 58 -73 128 -243 35 -85 79 -180 97 -211 50 -83 175 -196 267 -241 73 -36 80 -38 176 -38 128 0 183 22 257 103 27 30 53 51 57 47 30 -30 -33 -351 -90 -457 -72 -135 -233 -206 -406 -180 -105 17 -169 50 -238 125 -85 92 -98 129 -89 246 10 126 8 161 -12 183 -30 34 -142 14 -210 -38 l-35 -27 6 -64 c20 -197 119 -315 372 -442 122 -61 196 -82 309 -88 182 -9 341 45 454 155 66 65 105 134 136 240 21 72 21 74 4 126 -48 140 -64 392 -34 511 8 33 33 96 54 140 l39 80 -14 65 c-12 50 -14 106 -9 242 6 175 6 176 -17 192 -30 21 -108 20 -178 -3z" id="94"/>
<path d="M5940 3573 c-38 -14 -50 -36 -50 -93 0 -68 25 -153 90 -310 62 -149 87 -232 105 -355 28 -188 20 -240 -53 -330 -121 -152 -245 -167 -332 -40 -79 115 -96 225 -74 478 9 101 13 212 9 250 -12 130 -60 242 -119 278 -61 37 -182 15 -254 -47 l-42 -36 50 -55 c111 -121 174 -269 191 -444 15 -164 3 -238 -75 -441 l-26 -68 58 -58 c70 -71 181 -128 294 -150 70 -14 86 -14 158 1 92 18 174 53 232 99 50 39 115 137 131 196 8 32 15 41 27 36 78 -32 199 -29 294 6 79 30 147 97 171 169 50 152 -31 328 -149 319 -61 -5 -65 -23 -23 -109 25 -49 37 -88 37 -115 0 -73 -60 -124 -145 -124 -37 0 -51 6 -80 33 -64 58 -110 236 -121 462 -11 234 -45 368 -110 424 -32 29 -40 31 -107 30 -40 0 -79 -3 -87 -6z" id="95"/>
<path d="M4771 3444 c-175 -37 -405 -194 -517 -349 -107 -151 -144 -293 -125 -485 20 -210 68 -345 173 -485 59 -77 132 -134 217 -166 89 -35 277 -24 419 22 132 43 310 195 371 317 50 99 120 290 132 359 14 82 6 256 -16 338 -36 135 -146 307 -231 363 -60 40 -208 88 -294 95 -39 3 -90 0 -129 -9z m243 -116 c109 -72 174 -215 197 -433 19 -184 -16 -387 -96 -550 -84 -172 -190 -255 -337 -263 -192 -11 -265 64 -339 348 -30 117 -24 291 15 399 61 175 186 348 328 458 107 82 157 91 232 41z" id="96"/>
<path d="M4834 3301 c-72 -46 -195 -173 -253 -260 -54 -79 -104 -186 -127 -271 -23 -84 -23 -242 -1 -325 77 -285 131 -349 297 -350 102 0 184 39 264 126 159 171 227 527 156 817 -32 132 -81 214 -164 273 -56 41 -98 39 -172 -10z" id="97"/>
<path d="M6722 3564 c-28 -20 -30 -69 -3 -84 29 -15 56 -12 74 8 22 25 21 48 -3 72 -24 24 -38 25 -68 4z" id="98"/>
<path d="M7086 3535 c-36 -36 -9 -88 43 -83 43 4 59 27 45 65 -11 34 -62 44 -88 18z" id="99"/>
<path d="M7487 3536 c-84 -30 -100 -62 -138 -266 -31 -169 -50 -228 -104 -326 -59 -105 -83 -108 -59 -9 8 33 15 98 17 145 2 79 0 90 -32 153 -58 115 -127 157 -257 157 -96 0 -167 -48 -217 -146 -43 -85 -27 -175 43 -238 52 -47 99 -55 156 -27 64 30 98 94 78 145 -10 25 -59 19 -94 -11 -31 -26 -33 -26 -46 -8 -18 24 -18 37 0 80 44 105 200 85 263 -34 44 -83 23 -235 -52 -387 -41 -84 -56 -102 -171 -213 -69 -66 -124 -121 -121 -121 3 0 41 25 84 56 43 31 94 64 113 74 56 29 177 170 395 460 43 58 113 148 156 200 169 209 198 288 116 319 -38 15 -84 13 -130 -3z" id="100"/>
<path d="M7680 3127 c-88 -30 -179 -83 -302 -174 -99 -74 -224 -190 -215 -200 3 -2 46 19 96 47 107 60 209 99 353 135 132 33 221 70 264 110 35 33 44 71 22 93 -20 20 -145 14 -218 -11z" id="101"/>
<path d="M7150 2619 c-68 -11 -210 -81 -313 -155 -43 -31 -77 -57 -75 -59 2 -2 89 10 193 26 285 44 390 79 390 128 0 51 -87 77 -195 60z" id="102"/>
<path d="M6690 2333 c-50 -10 -268 -119 -258 -128 2 -3 39 7 81 20 191 61 341 -4 306 -130 -11 -39 -71 -95 -101 -95 -17 0 -19 3 -10 12 31 31 -6 88 -58 88 -46 0 -100 -59 -100 -109 0 -71 87 -123 177 -106 88 16 163 81 184 157 24 90 -12 226 -73 271 -27 20 -100 30 -148 20z" id="103"/>
<path d="M1807 2879 c-24 -14 -22 -56 3 -64 25 -8 50 10 50 36 0 24 -30 40 -53 28z" id="104"/>
<path d="M1832 2638 c-21 -21 -14 -47 15 -54 19 -5 30 -2 39 11 26 36 -22 75 -54 43z" id="105"/>
<path d="M1994 2446 c-12 -31 0 -51 31 -51 27 0 30 3 30 30 0 25 -4 30 -28 33 -17 2 -29 -2 -33 -12z" id="106"/>
<path d="M7022 2254 c-27 -18 -29 -55 -4 -77 24 -22 55 -21 75 1 22 25 21 48 -3 72 -24 24 -38 25 -68 4z" id="107"/>
<path d="M6327 2034 c-26 -7 -112 -17 -192 -23 -228 -17 -325 -43 -496 -133 -111 -57 -214 -144 -253 -212 -14 -22 -34 -71 -46 -108 -12 -38 -24 -68 -26 -68 -2 0 -15 18 -29 40 -54 86 -140 101 -246 44 -125 -68 -180 -194 -238 -549 -34 -202 -56 -292 -96 -395 -14 -35 -23 -65 -21 -68 9 -9 142 41 240 90 341 170 628 380 922 673 152 152 217 226 327 372 75 101 148 206 163 235 15 29 35 65 45 80 31 43 27 45 -54 22z m-247 -114 c57 -57 -19 -264 -158 -430 -141 -168 -242 -266 -242 -234 0 3 18 35 40 71 25 41 63 138 106 267 75 225 90 259 131 298 51 48 93 58 123 28z m-350 -212 c25 -41 25 -80 1 -156 -38 -122 -111 -229 -322 -473 -134 -154 -264 -276 -275 -258 -4 6 0 16 9 20 14 9 96 151 143 249 11 25 51 131 89 235 72 201 102 269 144 324 38 50 107 91 153 91 32 0 41 -5 58 -32z m-580 -278 c33 -18 53 -91 48 -177 -5 -85 -33 -165 -89 -259 -70 -116 -283 -384 -295 -371 -19 18 140 590 198 713 39 84 91 119 138 94z" id="108"/>
<path d="M5993 1901 c-48 -30 -77 -90 -149 -307 -36 -110 -74 -214 -85 -233 -36 -62 -12 -43 81 61 156 175 225 296 237 415 9 81 -20 102 -84 64z" id="109"/>
<path d="M5623 1714 c-86 -43 -142 -139 -233 -399 -28 -82 -79 -206 -113 -275 -34 -69 -64 -129 -66 -135 -15 -41 274 280 378 420 77 102 131 218 138 292 5 56 3 63 -20 87 -30 30 -40 31 -84 10z" id="110"/>
<path d="M5095 1418 c-38 -17 -75 -95 -145 -309 -67 -204 -115 -393 -108 -428 2 -10 27 15 69 69 176 226 241 336 265 450 27 129 -18 247 -81 218z" id="111"/>
<path d="M3832 1642 c-29 -11 -55 -22 -58 -25 -3 -3 18 -27 46 -53 58 -54 125 -180 179 -336 45 -130 77 -186 149 -260 36 -38 67 -66 69 -64 2 2 -11 35 -30 72 -80 160 -123 331 -95 384 18 34 54 37 84 9 29 -27 49 -93 64 -209 17 -128 48 -249 78 -304 17 -31 52 -70 96 -104 38 -30 67 -51 64 -46 -2 5 -25 52 -51 104 -49 100 -97 263 -97 334 0 140 73 198 149 118 47 -49 57 -85 76 -264 13 -129 42 -259 74 -338 8 -21 10 -16 10 33 1 32 15 128 33 215 21 103 32 188 32 247 1 86 -1 95 -37 169 -43 85 -89 128 -161 147 -53 14 -127 -2 -181 -38 -37 -25 -40 -25 -49 -8 -32 53 -90 116 -138 148 -116 76 -219 100 -306 69z" id="112"/>
<path d="M4110 1355 c-29 -35 10 -201 84 -358 34 -70 94 -163 101 -155 2 2 -7 35 -21 73 -14 39 -36 140 -49 227 -24 165 -44 221 -81 226 -12 2 -27 -4 -34 -13z" id="113"/>
<path d="M4370 1248 c-44 -73 -13 -254 75 -434 43 -89 68 -126 120 -179 37 -37 68 -65 71 -63 2 3 -9 41 -26 86 -36 98 -66 245 -75 367 -9 115 -37 207 -72 234 -38 31 -70 27 -93 -11z" id="114"/>
<path d="M6998 2029 c-28 -16 -23 -65 7 -85 51 -33 104 21 71 71 -17 26 -48 32 -78 14z" id="115"/>
<path d="M6460 1912 c-35 -17 -145 -120 -137 -129 8 -7 140 63 160 85 10 11 17 30 15 41 -3 20 -4 20 -38 3z" id="116"/>
<path d="M6342 1700 c-73 -35 -121 -67 -164 -108 -74 -70 -162 -171 -156 -178 3 -2 43 16 89 40 46 25 136 66 199 92 166 68 236 122 228 177 -2 18 -10 22 -48 25 -37 2 -63 -6 -148 -48z" id="117"/>
<path d="M4255 1686 c-19 -28 -9 -58 25 -76 24 -13 66 5 73 30 15 58 -66 95 -98 46z" id="118"/>
<path d="M3552 1148 c-31 -15 -39 -54 -17 -78 20 -22 65 -26 83 -8 20 20 14 65 -10 82 -26 18 -25 18 -56 4z" id="119"/>
</g>
</svg>