<?xml version="1.0" ?><!-- Generator: Adobe Illustrator 23.0.1, SVG Export Plug-In . SVG Version: 6.00 Build 0)  --><svg height="850.000000pt" id="Layer_1" version="1.1" viewBox="0 0 850.000000 850.000000" width="850.000000pt" xml:space="preserve" xmlns="http://www.w3.org/2000/svg" xmlns:xlink="http://www.w3.org/1999/xlink">
<g fill="#ffffff" stroke="none" transform="scale(0.100000,0.100000)">
	<path d="M4710.1,5860c9,65.9-1.8,130.2,2.3,195.1c4.8,74.9,0.3,27.2,45.6,69.6   c23.4,21.9,54.4,37.4,78.3,60.3c44.5,42.6,82.5,94.5,113.7,147.5c60.1-52.3,117.8-107.4,173-164.9   c-215-84.9-344.4-271.7-440.2-473.5C4670.3,5694,4706.8,5835.5,4710.1,5860z" id="1" style="fill:#FFFFFF;"/>
	<path d="M3677.4,6967.8c60.5-103.2,100.4-217,139.1-329.8c9.7-28.1,15.2-79.6,33.2-104   c4.2-5.7,29.1,5.2,34,0c55-57.1,93.4-134,148.5-193.1c-328.1-202.9-948.5-219.2-1241.2,65.8c11.7-82.7,83.4-143.2,149.8-185.3   c-162.8-160.2-552.9-216.5-716.3-29.3c-119.6,137.1-194.9,339.9-208.8,519.3c-19.1,246.1,56.9,619.4,324.2,706.3   c56.7,18.4,120.2,28.2,179.9,26.2c32.8-1.1,65.3-14.3,97-15.4c55.2-2,35.7-5.1,87.7,25.7c134.5,79.8,306.1,90.5,453.5,44   C3381,7427.4,3565.3,7159.1,3677.4,6967.8z" id="2" style="fill:#FFFFFF;"/>
	<path d="M1277.4,6030.1c18.4-56.9-2.6-93.9-21.5-155c-3-9.8-6-19.6-9-29.4   c-131.2,195.5-321.9,314.8-522.4,429.8c-125.7,72.1-343.7,127.4-394.4,276.2c-58.9,172.8,58.7,404.5,175.9,527.8   c125.8,132.3,304.9,181.1,483.2,179.3c-27.3-255.6,2.2-511.7,81.1-756c37.3-115.4,81.3-229,134.6-338   C1226,6121.4,1262.7,6075.6,1277.4,6030.1z" id="3" style="fill:#FFFFFF;"/>
	<path d="M5402.8,6070.3c226.2-45.6,473.4-234.4,627.5-401.2c-279,21.3-558.2,26.2-837.9,27.1   c-135.1,0.4-270.1,0.1-405.2-1C4909.6,5884.2,5156,6120,5402.8,6070.3z" id="4" style="fill:#FFFFFF;"/>
	<path d="M4161.4,6360C4021,6481.8,3872,6680.2,3817,6858.1c411.8-15.4,757.4-217.4,1070.7-473.6   C4699.6,6139.2,4380.3,6168.5,4161.4,6360z" id="5" style="fill:#FFFFFF;"/>
	<path d="M2497.9,2748.3c33.4-24.8,122.6-85.6,107-137.6c-20.3-67.7-94.7,12.8-115.5,36.7   C2435.8,2708,2370.6,2842.9,2497.9,2748.3z" id="6" style="fill:#FFFFFF;"/>
	<path d="M1682.1,1834.2c8.5-5.3,31.3-62.9,39.7-75c28.9-41.9,62.6-80.8,95-120   c170.6-206.2,369.4-414.7,469.9-666.8c71.4-179.2,43-397.8-160.6-467c-177.5-60.4-369.3,35-447.1,201.1   c-95.9-176.9-362-343-543.4-177.6c-180.8,164.8-51.2,469.7,38.5,646.4c109.7,216.2,253.3,430,422.9,604.2   C1624.1,1807.3,1657.2,1849.5,1682.1,1834.2z" id="7" style="fill:#FFFFFF;"/>
	<path d="M2253.9,3291.7c59.3,254.5,192.5,488.1,408.3,641.6c119.5,85,250.1,104.4,394.5,93.3   c39.4-3,184-6,214.5-40.5c28.7-32.5,12.3-122.3,46.8-166.6c64.8,402.4,230.9,772.5,591.6,986.5c388.2,230.2,826,340.9,1273.9,258.5   c165.2-33.3,322.7-93.9,469.1-177.1c62.6-35.6,163.3-80.4,212.3-134.4c45.2-49.8,29.2-42.5-2.6-108.8c-8-16.6-15.8-33.2-23.7-49.8   c-131.4-277.9-287.6-534.6-477-777.5c-171.4-219.8-361.7-427-574.4-607.5c-113-95.9-232.1-184.4-356.7-264.6   c-109.9-70.8-216.8-115-334.8-165.9c-84.6-36.5-154.8-115.1-225.8-174.3c-91.1-75.9-182.5-152.1-278.2-222.1   c-198.5-145-447.4-259.5-690.6-300c-71.1-11.9-143.3-20-215.1-27c-89.9-8.8-113.7,26.2-169.5,92   c-79.4,93.5-147.1,197.8-199.6,308.7C2191.6,2721.3,2188.2,3009.7,2253.9,3291.7z M4074.7,3335.1   c543.1,293.8,120.8,1475.6-442.7,1049.5C3244.1,4091.4,3535.9,3017.3,4074.7,3335.1z M2541.7,2515.7   c268.4-174.5,410.2,116.4,454.1,342.3c46.5,229.8-31.2,558.1-245.7,688.8c-277.9,169.3-448-178.8-472.3-404.2   C2251.8,2902.5,2331.7,2652.1,2541.7,2515.7z" id="8" style="fill:#FFFFFF;"/>
	<path d="M854.8,2836.6c82.3,35.1,80.5,32.5,106.1-42.7c39.2-115,95.4-224.8,107.9-347.6   c6.3-62.4,5.5-188.1-88.5-170c-77.5,14.9-116.4,129.2-121.2,195.3c-96.6-67.8-229.8-14.6-231.6,109.1   C625.7,2701.7,755.4,2794.2,854.8,2836.6z" id="9" style="fill:#FFFFFF;"/>
	<path d="M6811.5,1208.8c16.2,1.8,67.4-20.8,85.1-24c52.2-9.5,105.1-15.7,157.5-24.8   c127.4-22.2,264-51.3,370.9-128.3c348.2-250.7-120.6-678.9-395-396c-8-174.5-132.2-405.9-337.9-385.7   c-231.3,22.8-196.4,329-151.1,483.9C6572.8,842.9,6692.5,1195.4,6811.5,1208.8z" id="10" style="fill:#FFFFFF;"/>
	<path d="M3743.5,3486.9c24.4-10.6,163.3-62.4,143.9-113.5c-22.2-58.4-110.4-0.8-139.9,17.6   c-18.8,12.1-132.3,78.6-118.1,118.6C3640.9,3541.8,3723,3495.7,3743.5,3486.9z" id="11" style="fill:#FFFFFF;"/>
	<path d="M3423.7,6012.6c26.3,36.9,62.4,70.1,100.8,93.8c101.2,5.2,191.6,46.8,285.1-2.7   c70.3-37.2,123.9-94.3,107-179.8C3758.7,6009.8,3603.8,6067.9,3423.7,6012.6z" id="12" style="fill:#FFFFFF;"/>
	<path d="M4567.9,5731.3c-1.6-40.1-21.9-53.3-60.9-39.8c-30.3-0.5-60.7-1.1-91-1.7   c-82.7,11.6-129.1-1.8-199.4,39.5c-52,30.6-126.1,76-169.2,117.7c-47.6,46.1-22.6,27.4-17.5,93.9c2.4,31-2.6,61-11.7,90.5   c-19.9,64.4-65,123.5-121.9,159.8c47.9,20.1,102.8,64,152.1,75.8c25.3,31.1,47.6,29.2,66.7-5.7c20.6-17.8,41.9-34.7,63.9-50.7   c81.6-59.3,173-109,272.7-128.8c25.3-5,132.1,4,145.5-7.7c24.3-21.2,8.6-146.3,6-175.6C4599.1,5851.2,4595.1,5772.1,4567.9,5731.3z   " id="13" style="fill:#FFFFFF;"/>
	<path d="M5803,1763.4c-278.7-63.9-555.9,14.1-825.4,86.7c61.2-117.2,212.6-137.6,322.9-184.4   c-211.9-376-865.4-368.5-1227.9-316.8c-521,74.4-1041.5,312.6-1481.7,595.5c398.8-24.2,855.4,52,1167.4,317.6   c69.1,58.8,131.9,124.9,186.3,197.6c48.9,65.4,76.2,145.4,123.1,209.7c31.5,43.2,25.9,35.9,85.3,47.6c49.3,9.7,98.5,19.3,147.8,29   c264.7,52,504.4,151.5,709.5,332.6c298.1,263.4,519.8,645.2,705,992.7c86.3,162,163,329,229.1,500.2   c34.7,89.9,176.3,355.1,100.3,437.9c-32.8-63.6-65.2-127.3-97.2-191.3c-392.6,395.3-1071.4,456.4-1583,320.9   c-258.5-68.5-524.5-189.4-721.2-374.1c-192.2-180.6-304-419.1-378.8-668.1c-427.3,154.2-817.8-58.2-1009.4-453.9   c-190.1-392.7-215.9-880.6-26.1-1279.2c-289.9,161.1-561.3,351.6-759.7,621.9c-196.2,267.1-285.7,586.2-321.9,912.4   c-73.4,661.9,65.2,1351.4,224.8,1991.1c17.1-22.4,74.3-31.7,100.6-41.9c-207.3,414.6-374.9,851.9-349.1,1324.3   c8.5,154.7,37.6,327.8,148.3,444.6c119,125.4,327.3,193,489.2,239.8c196.4,56.9,398,75,596.4,16.6   c136.7-40.3,298.5-113.7,338.2-264.5c7.1-27.1,15.5-64.6,0.4-86.4c-30.2-43.8-69.9-14.1-114.2-4.8c-83.7,17.5-173.4,24.7-256.7,0.9   c-170.2-48.6-277-212.3-342.6-366.6c-73.5-173-89.5-351.5-50.2-534.7c18.1-84.6,71.2-181.7,67.9-263.8   c-3.7-91-43.8-190.8-60.7-280.7c18,10.2,36.1,20.1,54.4,29.8c-28.1-155.9,14.3-300.2-0.1-453.6c-13.9-148.1-27-296.3-39-444.6   c-11.3-140.5-21.3-281.1-30-421.8c-3.2-52.1,5.3-152.7-29.7-174.1c-38.4-23.4-104.9-9-150-38.1   c-186.5-120.1-161.3-519.6-159.1-707.6c1.6-133.4,35.4-267.6,36.6-398.9c0.7-80.2-101.9-238-53.7-317.3   c205.2,431.1,371,876.8,623.4,1284c219.4,354.1,465.6,727.3,858.9,900.6c369,162.6,783.4,206.5,1181.6,231   c439.2,27,881,25.2,1320.8,14.9c186.5-4.4,373.8-9.7,559.4-29.5c190.2-20.3,387.9-64.6,578.9-28.1c-81,174.5-360,81.6-502.7,137   c-67.3,26.1-135.7,141.9-193.5,196c-77.7,72.5-162.6,136.8-252.2,193.9c-94.6,60.3-195.2,116-305,143.1   c-49.4,12.2-100.9,6.8-149.1,17.1c-60.5,12.9-85,49.8-132.3,97.2c-135.2,135.4-277.9,259.5-435.4,368.3   c60.4-34.4,127.7-104.1,196.4-53.6c-318.5,265.6-703.2,414.3-1038.7,651c-115.6,81.5-249.4,187-264,338.7   c-15.2,157.8,100.1,316.4,215,412.5c249.2,208.5,640,223.3,947.9,190.7c359-38,594.7-251.4,779-551.1   c91.6-149,150.8-303.8,200.7-470.4c24.6-82.1,37.3-221.3,86.3-291c20.5-29.2,31.6-28.7,71.7-39.8   c-8.7,239.4-48.3,480.1-135.5,703.9c358.5,115.3,733.4,251.3,1115,232.2c320.7-16.1,676.7-128.1,839.4-427.1   c61.9-113.8,120.3-276,3.8-374.9c-63.7-54.1-156.9-82-228.8-126.3c-87.5-54-170.5-115.5-249.2-181.6   c-129.8-109-251.3-235-327.5-388.5c-10.4-20.9-64.4-155.5-28.9-160.3c46.9-6.4,104.4,115.6,126.2,143.2   c262.4-397.4,274-968.5,228.1-1425.7c-51.1-509.6-161.3-1032.7-335.4-1514.5c5.6,299.9-45.1,590.8-239.8,828.4   c197.6-621.4,171.6-1345.7-173.8-1915.6C6358.2,2000.3,6086.1,1828.3,5803,1763.4z M6905.1,7324.8   c112-174.9,254.5-279.3,469.2-261.8c-141,105.5-277.5,219.5-396.3,350.1c-18,17.1-133.2,143.2-165.6,114.2   C6784.9,7502.6,6891.8,7345.6,6905.1,7324.8z" id="14" style="fill:#FFFFFF;"/>
	<path d="M3112.2,5487c78.4,184.8,192.1,370.1,408.4,402.3c208.9,31.1,419.1-99.1,586.5-208.1   c-215.6-22.2-429.9-58.7-643-97.2C3344.5,5562.4,3225.8,5530.5,3112.2,5487z" id="15" style="fill:#FFFFFF;"/>
	<path d="M0,0v8500h8500V0H0z M6607.2,177.9c243.2-128.4,459.8,111.2,473,342.5   c229.9-229.1,600.5,29.5,576.8,319.8c-25.9,317.5-511.1,397.8-750.6,475.5c-28.9,9.4-96.3,50.1-125,48.5   c-19.5-1.1-3.8,6.2-31.5-17.4c-37.5-31.9-62.9-111.1-84-154.4c-35.8-73.4-68.5-148.3-98.3-224.4   C6481.2,747.4,6323.8,327.5,6607.2,177.9z M993.5,613.1c101.2-361.5,546.9-421.4,695.1-60.1c163.8-401.9,694.3-194.9,747.4,168.2   c30.2,206.5-93.2,395.7-204.1,558.4c-120.9,177.4-258.1,342.5-390.1,511.5c-24.6,31.5-134.7,220.5-153.6,221.3   c-26.9,1.1-82-78.5-97.4-96.1c-53.4-60.9-103.1-125.1-151.4-190.1C1226.9,1439.9,886.8,994.3,993.5,613.1z M818.1,2395   c0.4-147.7,181.6-380.3,294.4-169.3c55.8,104.3,15.5,244.3-11.7,350.6c-28.1,109.7-52.9,242.2-102.2,344.6   c-11.3,23.5,1.8,31.1-17.6,40.6c-23.2,11.3-95.9-29.4-117.7-38.8c-109.7-47.4-235.8-118.4-287.1-232   C507.4,2538.5,645.3,2177.7,818.1,2395z M8274.4,2606.5c-69.4,244.9-292.6,358.7-535.9,367c-253,8.7-459.7-140.4-584.1-353.7   c-34.5-59.1-61.2-122.8-80.1-188.6c-18.9-65.8-14.8-130.4-70.4-168.3c-123.2-83.9-303.5-85.9-445.4-100.9   c122.4,172.3,212.1,364.7,271.5,567.2c61.7,210.1,167.2,407.3,237.8,615.8c155.7,459.7,241.4,941.1,292.9,1422.9   c40.1,374.7,77.6,770-8.1,1141c-34.3,148.7-89.6,295-178.7,419.9c-45.5,63.9-47.1,65.2,13.2,123.5c30.2,29.2,61.6,57.5,94.1,84.1   c69,56.5,143.1,103.2,220.4,147.1c137,77.9,303.9,171.3,391.8,308.3c86.9,135.4,20.6,299.3-51.5,426   c-168.1,295.3-488.4,479.2-823.1,512.2c-395.3,38.9-789.2-117.6-1169-205.9c-21.4-5-82.7-28.9-106.8-24.4   c-36.8,6.9-14.8,0.7-39.9,31.4c-24.4,30-40.3,71.8-61.5,104.5c-47.2,73.1-101,141.8-160.6,205.2c-99.6,106-217.8,179.8-354.5,229.2   c-352.5,127.2-735.8,102.7-1084.4-26.9c-282.8-105.2-583.9-298-543.4-640.7c-103-4.8-222.4-30.4-323-16.4   c-94.2,13.2-178.1,35.7-275.7,22.7c-63.2-8.4-48.6-15.5-77.9,35.4c-20.3,35.2-34.4,72.7-57.7,106.8   c-46.9,68.8-106.3,128-176.4,172.8c-312.1,199.2-762.9,100.8-1085.6-17.4c-137.7-50.4-268.3-124.8-362.4-239.5   c-42.4-51.7-76.3-109.9-100.4-172.2c-6.2-16-16.1-83.2-28.1-91.4c-17.4-11.8-101.4,8.6-123.9,10.3   c-199.5,15.4-309.3-5.4-445.7-156.6c-108.3-120.1-190-263.9-226.7-422.1c-74.1-318.9,100.4-506,381.5-624.7   c148.2-62.6,282.2-143.3,401.4-252.3c63.3-57.8,121.2-121.4,174.4-188.5c57-71.8,15.7-130.3-6.1-216.4   c-82.7-326.7-152.7-661.6-167.9-999.2c-14.5-322.9-5.2-676.5,55.2-994.4c62.8-331.1,214.2-616.9,463.6-844.8   c143.6-131.3,306.6-243.6,469.3-349.9c89-58.1,179.7-113.6,272-166.2c80.5-45.9,134.5-90.4,202-152.4   c-73.2,4.6-144.6,26.9-218.2,28.5c28-71.2,22.7-77.1,96.3-90.7c48.5-9,120.4-9.5,163-33.7c65.7-37.4,127.8-128,189.7-174.6   c102-76.8,211.1-143.6,324.7-201.8c482.7-247.2,998.9-378.6,1542.1-352.8c181.5,8.6,397.7,10.8,564.5,93.7   c94.2,46.8,179.5,127.6,246.1,207.8c14.1,17,39.7,76,56.5,89.4c5.5,4.4,4.8,20.4,10.9,23.7c7.9,4.3,71.6-10.1,87.3-11.6   c136.7-13.1,275.6-2,407,39c117.9,36.8,235.8,13.7,359,1.8c170.8-16.5,343-32.1,511.4-65.7c455.2-90.8,913.7-77.3,1259.9,266.8   C8258.9,2063.3,8352.1,2332.5,8274.4,2606.5z" id="16" style="fill:#FFFFFF;"/>
	<path d="M7532.1,1684.3c-206.2-38.9-413.6-7-617.2,30.7c-233.6,43.3-469.4,72.8-706.7,85.9   c54.4,38.2,105.3,81.2,152.8,127.6c58.4,57,80.8,74.4,162.2,86.1c116.8,16.8,233.8,35,348.9,61.4c22.2,5.1,91.5,33.8,116.3,29.1   c41.2-7.8,17.5-6,40.9-43.9c10.6-17.1,18.3-40.5,26.9-58.8c18.3-38.7,38.2-76.6,55.5-115.8c35.2,328.9,41.2,735.4,380.1,897.7   c259.7,124.4,659.2,28.6,671.1-307.1C8175,2111.8,7889.9,1751.8,7532.1,1684.3z" id="17" style="fill:#FFFFFF;"/>
	<path d="M3735.7,7212.7c161.2-125.7,364.2-207,544.5-302.2c-101.9,34.6-208.8,53.8-315.5,66.2   c-47.3,5.5-105.3-1.4-150.6,10.6c-62,16.4-52,18.3-85.9,76.2c-91,155.6-216.7,310.7-361.9,418.4c31.7,2.5,131.3,25.6,158,9.9   c15.4-9,32.6-75.1,43.4-93.5C3610.3,7325.3,3669.3,7264.5,3735.7,7212.7z" id="18" style="fill:#FFFFFF;"/>
	<path d="M2001.9,4331.3c-14-83-100.9-192-137-268.1c-33.8-71.5-65.9-143.8-95.7-217.1   c-18.8-46.1-36.4-92.6-53.5-139.3c-5.3-14.6-28-103.8-31.2-68.9c-16.2,182.1-4.4,373.9,22.2,554.4c17.1,116.2,56.5,249.2,184.7,281   c16.1,4.1,32.4,6.1,49.2,5.8c36.6,11.2,51.2-0.4,43.9-34.9C1990.9,4431.8,2004,4344,2001.9,4331.3z" id="19" style="fill:#FFFFFF;"/>
	<path d="M2315.5,4845.5c-85-127.1-166.4-256.7-243.1-389.1c-11.9,205.7-2.3,425.2,77.7,618.1   c87.8,211.7,275.2,210.1,462.1,112.1C2498.8,5086.7,2399.5,4971.1,2315.5,4845.5z" id="20" style="fill:#FFFFFF;"/>
	<path d="M2690.1,5250.6c-20.6,1.2-66.4,49.5-89.3,62.1c-59.6,32.9-125.2,53.2-192.1,64.9   c-132,23.1-268.3-40-329-164c9.8,122,18.4,244,25.7,366.2c99.1-54.8,214.2-48,300.8,24.6c50.4,42.3,85.9,100.4,115.2,158.5   c23.8,47.2,58.6,210.3,103.3,213c-17.5-185.8,9.7-384,107-545.9c20.9-34.7,45-68,71.3-98.8   C2784.4,5319,2713.4,5249.3,2690.1,5250.6z" id="21" style="fill:#FFFFFF;"/>
	<path d="M2098.4,6190.1c49.1-72.7,124.6-126.8,202.2-166.2c61.5-31.9,133.1-43.1,201.5-47.7   c-42.6-127.7-158.1-423.8-338.6-295.1c-74.4,53.1-92.7,145.9-97,231.7C2063.3,5975.2,2054.6,6142.2,2098.4,6190.1z" id="22" style="fill:#FFFFFF;"/>
	<path d="M2914.3,5396.5c-26.6-29.3-46.7-25.1-60.2,12.8c-37.9,29-63.5,105-79.9,147.6   c-35.6,92.3-53.5,192-53.3,290.8c0.1,32.6-7.3,118.7,13.6,145.4c7.5,9.6,90.5,31.8,103.6,37.9c18.9,8.9,213.6,133.1,191.6,148.3   c113.2-37.4,230.6-62.9,349.7-71.3c-51.8-53.5-64.4-119.4-104.4-173.3c-38.5-51.9-91.6-89-126.9-146.6   c-67-109.2-129.4-232.3-163.2-356.3C2961.2,5420.6,2937.6,5408.8,2914.3,5396.5z" id="23" style="fill:#FFFFFF;"/>
</g>
</svg>