<?xml version="1.0" ?><!-- Generator: Adobe Illustrator 23.0.1, SVG Export Plug-In . SVG Version: 6.00 Build 0)  --><svg height="850.000000pt" id="Layer_1" version="1.1" viewBox="0 0 850.000000 850.000000" width="850.000000pt" xml:space="preserve" xmlns="http://www.w3.org/2000/svg" xmlns:xlink="http://www.w3.org/1999/xlink">
<g fill="#ffffff" stroke="none" transform="scale(0.100000,0.100000)">
	<path d="M3019.1,3113.6c250-138.5,429.3-186.8,588.8-208.7c159.5-21.4,330.9-26.9,514.4-16.4   c178.7,10.5,427,94.1,744.5,250.3c7.4,3.7,14.7,7.2,22.2,10.9c4.1-6.7,8.6-12.9,12.9-19.4c123.3-187.2,319.2-289.8,587.7-307.6   c46.5-3.1,95-3.9,145.9-1.9c0.3,0,0.6,0,0.9,0c95,3.8,183,17.5,264.4,40.3c-58-125-132.6-227.8-223.9-306.1   c-38.3-33.3-113.8-62.2-254.8-72.5l-102.1,8.8c2-4.3,3.8-8.3,5.7-12.6c7.3-16,14.6-31.8,21.4-47c7.2-16,13.9-31.2,20.6-46.3   c116.9-265.5,147.8-393.1,92.1-382.2c-120.8,91.4-245.3,214.7-373.6,369.9l-142.9-479.2l167.4-493.1l-709.4-999.4l-258,1034.3   l468.8,488.3l106.1,354.3l36.2,121l4.5,15c-33.8-18.9-68.8-37-104.5-54.8c-138.4-69.1-290.7-129.8-457.1-182.2   c-50.3-24.6-99.7-36.9-89.4,3.1c2.1,20.1,21.2,53.9,56.8,101.1c40.6,53.8,103.4,125.6,187.5,214.7c12.5,13.3,25.5,26.9,39,40.9   c10.8,11.3,21.5,22.4,33,34.2c5.1,1.9,10,3.4,15.1,5.3c-72.1,12.9-147.6,27.1-227.9,43c-546.9,108.7-1097.8,339.3-1646.3,686.7   c36.6-8.8,73.7-19.9,111.5-33.7C2802.9,3227.3,2897.4,3181,3019.1,3113.6z M4357.1,1360.9l176.9-584.8l448.3,541.7l-191.5,493.1   L4357.1,1360.9z" id="1" style="fill:#FFFFFF;"/>
	<path d="M4795.8,1207.4c-61.4-74.9-85.4-112.3-161.8-195.2l-71.9-84.7l-124.6,413l327.6,340.4l134.4-345.7   L4795.8,1207.4z" id="2" style="fill:#FFFFFF;"/>
	<path d="M5918.1,6717.9c-163.5,156.2-335.3,259.7-515.4,310c-140.5,60.6-289.4,100.9-446.5,121   c-29.7,6.4-60,11.6-90.8,15.7c173.3,292.6,301.6,507,384.8,642.7c96,150.9,217.9,244.2,365.7,279.7c150.8,34.3,276,43.7,375.7,28.1   c99.4-15.5,173.7-49.2,223.1-101.2c47.3-50.7,44.5-147.5-8.6-290.6c-54.3-151.1-101.2-290.6-140.5-418.7   c-40.9-128.7-84.1-294.9-129.8-498.6C5929.5,6777.5,5923.7,6748,5918.1,6717.9z" id="3" style="fill:#FFFFFF;"/>
	<path d="M1754.6,4790.5c40.7-33.2,81.6-65.8,122.6-98.2c213.8-168.7,431.2-326.2,651.7-472.5   c-38.8-46.8-80.8-98.9-126.6-157.3c-64.9-82.8-123.4-168.7-177-257.2c-21.6-35.7-42.3-71.8-62-108.4c-14.8-27.4-29.3-55-43.1-83   c-138.1,103.8-276,214.3-413.4,332.9c-87.7,344.8-75.8,619.9,34.4,819.9C1745.7,4774.7,1749.9,4782.8,1754.6,4790.5z" id="4" style="fill:#FFFFFF;"/>
	<path d="M4193,2526.4c11.2-2.2,21.7-4.2,32.7-6.3c-71.7-80.3-129.8-157.5-174.3-231.4   c-58.7,6.4-115.3,16.5-169.7,30.5c-84.8,21.4-178.1,56-279.6,103.5c-26.5,12.4-53.8,25.9-81.5,40.2   c-38.2,19.6-77.3,40.7-117.7,63.7c-2.5,1.4-5.3,3.1-8.2,4.8c-8.7,5.2-18.8,11.7-30.5,19.5c-70.4,47.2-195.6,141.9-375.7,284.3   c-100.7,79.9-197.5,173.3-290.7,278.8C3195.8,2822.5,3695.7,2625.3,4193,2526.4L4193,2526.4z" id="5" style="fill:#FFFFFF;"/>
	<path d="M4334.7,3746c-4.1,4.2-7.5,8.7-10.3,13.3c-19.2,32.7-4,75.8,45.5,129.5   c47.9,52.3,82.1,73.4,102.9,63.9c3.6-1.6,6.9-3.9,9.7-7.4c18.4-23.1,6.7-70.4-35.2-141.9C4405.5,3732,4368,3712.8,4334.7,3746z" id="6" style="fill:#FFFFFF;"/>
	<path d="M5508.2,3027.9c-14,1.1-28.2,2.5-42.4,3.8c-91.3,10.8-177.7,38-259.1,81.6   c-13.1,7-26,14.4-38.8,22.3c-25.7,15.9-47.7,31.3-66.1,46.3c-55.7,45.6-77.2,87.4-64.4,125.3c17,49.4,38,100,62.9,151.7   c-101.5-76.1-203.9-140.8-307.2-194.1c-3.5-1.9-7.3-3.6-10.9-5.5c-20.5-10.5-42.2-20.7-65.2-30.5c-22.6-9.7-46.5-18.9-71.5-27.9   c-75.7-27.1-162.1-51.2-259.8-72.1c-168.6-35.5-342.8-51.6-522.6-48.4c-179,4.3-336.8,32.2-473.5,83.7   c-135.3,51.8-265.5,144.8-390.8,279c-125.7,134.2-207.6,275-245.5,422.4c-0.9,3.4-31.4,89.4,33,301c20.9,68.5,67.4,135.6,120,208.2   c9.7,12.6,19,25.5,27.7,38.4c71.7,95.4,142.4,175.9,212.1,242.4c56.4,53.9,112.3,98.8,167.4,133.8   c130.8,82.8,287.6,156,470.5,219.8c183.3,64.3,325.1,107.5,425.6,129.5c100,22,235.7,37.6,407,47.1   c172.6,10.1,326.3-13.6,460.9-71.3c134.7-57.6,273.4-173.3,416.2-347.1c0.7,46.3,0.2,77.3-1.5,92.9c49.7,38.8,98.9,64.1,147.6,75.9   c48,10.2,102.3,15.6,163.1,16.3c53.4,0.3,117.4-14.1,191.8-43.1c11.7-4.5,23.5-9.4,35.7-14.7c49.5-21.4,97.3-51.9,143.8-91   c38.8-32.7,76.6-71.3,113.3-116.5c27.6-34.3,56.7-84.5,87.1-150.1c31.5-68,64.5-152.7,99-254.4c11.5-45.1,21.2-84.1,29.7-118.4   c18.2-74.1,29.5-123.9,33.5-147.9c1.3-8.8,2.7-18.7,4.1-29.6c4.4-34.6,9.1-79.7,14-135.7c4.6-73.9-1.5-153.8-18.2-239.8   c-17.5-87.5-72.2-173.9-164.4-259.1c-92.6-85.3-179.4-152-260.3-200.2c-6.3-3.7-13-6.8-19.4-10.4   c-106.1-58.7-204.2-86.3-371.1-109.4C5654.5,3022.9,5583.3,3023.7,5508.2,3027.9z M4511,4247.6c-8.9,21.3-20.9,38.4-36.1,51.4   c-51.9,46.5-103.8,50-155.8,10.6c-0.5,0.1-0.9-0.2-1.3-0.9c-21.7-15.2-39.9-35.8-54.6-61.8c-35.5-56.5-60.3-119.7-74.4-189.8   c-9.8-51.7-10.3-105.7-1.3-162l0,0.9c2.8-18.1,6.2-36.7,10.1-55.7c9.6-56.8,32.3-103.3,67.9-139.4c0.6-0.6,1.2-1.2,1.8-1.7   c18.5-18.1,39-26.6,61.3-25.3c0.4,0,0.8,0,1.2,0c17.6,3.2,35.5,8.9,53.6,17.4c0,0.4,0.2,0.7,0.7,0.9c0.2,0.3,0.6,0.6,1.3,0.9   l-0.7-0.9c49.2,32.2,88.9,78.4,119.1,138.4c31.4,62.6,46.9,132.3,46.5,209l0.1,1.7c0.2,73.2-13,141.8-39.5,205.6L4511,4247.6z    M5520.4,4149.7c-8.9,21.3-20.9,38.4-36.1,51.4c-51.9,46.5-103.8,50-155.8,10.6c-0.5,0.1-0.9-0.2-1.3-0.9   c-21.7-15.2-39.9-35.8-54.6-61.8c-35.5-56.5-60.3-119.7-74.4-189.8c-9.8-51.7-10.3-105.7-1.3-162l0,0.9   c2.8-18.1,6.2-36.7,10.1-55.7c9.6-56.8,32.3-103.3,67.9-139.4c0.6-0.6,1.2-1.2,1.8-1.7c18.5-18.1,39-26.6,61.3-25.3   c0.4,0,0.8,0,1.2,0c17.6,3.2,35.5,8.9,53.6,17.4c0,0.4,0.2,0.7,0.7,0.9c0.2,0.3,0.6,0.6,1.3,0.9l-0.7-0.9   c49.2,32.2,88.9,78.4,119.1,138.4c31.4,62.6,46.9,132.3,46.5,209l0.1,1.7c0.2,73.2-13,141.8-39.5,205.6L5520.4,4149.7z" id="7" style="fill:#FFFFFF;"/>
	<path d="M3328.7,2420.3c22.2-12.7,44.4-24.8,66.5-36.4c-111.5-83.2-204.9-190.9-279.3-324.1   c-105.1-187.7-194.4-323.4-268.1-407.1c-73.9-83.4-184.1-148.4-330.7-195c-25-8.1-50.8-14.1-77.5-17.9   c-58.4-8.4-120.6-8.2-186.6,0.7c-1.1,0-1.9,0.2-2.4,0.4l-0.7,0.4c-197.4,54.9-327.9,174.5-391.3,358.8l-0.3,1   c-56,178.7-25,352,92.9,519.7l-2.1-2.3c114.7,143,257.8,185.9,429.3,128.6c176.6-84.7,263.1-213.1,259.4-385.2   c-3.4-13.1-7.3-25.4-11.7-36.9l-0.4-0.7c-35.9-102.3-102.9-169.1-200.8-200.3l-0.7,0.4c-101.6-29.4-181.1,7.8-238.6,111.5   c-32.7,95.3,6.1,193.7,116.4,295.5c-201.9-64-273.5-176.2-214.8-336.8c0.9-2.7,1.8-5.3,2.9-7.6c86.9-159.3,208.7-214.4,365.5-165.2   l0.4,0.7c102.1,31.4,179,91.5,230.8,180.3c16,26.1,29.3,54.7,39.9,85.8c5.6,14,10.3,29.1,14.2,45.1   c137.7,190.9,307.8,335.6,509.3,435.5C3277,2451.5,3303.2,2435,3328.7,2420.3z" id="8" style="fill:#FFFFFF;"/>
	<path d="M5344.1,3648.1c-4.1,4.2-7.5,8.7-10.3,13.3c-19.2,32.7-4,75.8,45.5,129.5   c47.9,52.3,82.1,73.4,102.9,63.9c3.6-1.6,6.9-3.9,9.7-7.4c18.4-23.1,6.7-70.4-35.2-141.9C5414.8,3634,5377.3,3614.9,5344.1,3648.1z   " id="9" style="fill:#FFFFFF;"/>
	<path d="M6683,5314.6c31-108.3,49.8-209.6,57.7-304.5c10.1-121.4,2.1-232.2-25.6-331.8   c-32.2-114.6-76.7-233.2-133.2-355.8c-21.5,70-42.5,128.4-62.9,174.6c-15.7,37.6-35.4,75.7-58.8,114.1   c-8.8,14.5-18.1,29.1-28.1,43.7c-33.9,53.7-71.1,103.5-111.6,149.5c-1.7,1.9-3.3,3.5-4.9,5.4c-38.1,42.8-74.7,76.1-109.7,99.5   c-34.9,23.2-85.6,53.1-152.1,89.5c-37,20.7-91.5,32.9-162.2,37.3c-7.5,0.5-14.7,1.1-22.6,1.4c-3.5,0.1-7.3,0.1-10.9,0.2   c-48.1,1.2-102.5-0.7-164.1-6.1c-78.5-11.3-158.7-40.8-240.7-88.8c-129.8,146-281.5,245.2-455.2,297.5   c-128.6,38.4-275,53-439.1,43.8c-163.7-9.1-352.3-42.1-565.8-98.8c-28.3-7.6-56.1-15.6-83.7-23.8   c-149.6-44.5-288.7-97.2-417.4-158.1c-26.2-12.4-52-25-77.3-38c-169.4-87.2-302.5-170.7-399.7-250.5c-1.3-1.1-2.8-2.2-4.1-3.3   c-61.9-51.5-129.3-122.6-202.1-212.9c0.1,0.5,0.2,1.1,0.3,1.6c-41.1-17.2-114.1-86.6-218.6-207.7   c-245,162.2-486.2,338.6-722.9,528.8c0,1.6-0.1,3.3-0.1,4.9c54-26.2,110-48.9,168.6-67c-59.8,37.5-115.5,76.5-167.9,116.7   c-40.4,31-78.8,62.9-114.9,95.5c-87.2,79-161.7,162.8-223.2,251.4c-119.8,172.7-202,336.4-246.7,491.1   c-45.2,154.9-52.1,309.9-20.9,464.7c31.1,154.5,91,256.9,179.5,307.3c88.5,49.9,181.3,61.9,278.3,36.1   c96.3-26,197.7-106.6,304-241.7c55-70.3,110.3-142,166-214.8c6-7.9,12.1-16.1,18.1-23.9c16.5-21.7,33.2-43.9,49.8-65.9   c8.3-11,16.6-21.9,24.9-32.9c7.4-9.8,14.7-19.4,22.1-29.2c13.2-17.6,26.2-34.5,39.5-52.2c107.1-144.5,217.6-220.5,331.4-228   c-126.3,115.6-227.7,230.6-305.1,345.2c-13.1,19.4-25.6,38.8-37.3,58.1c-2.1,3.4-4.4,6.8-6.4,10.3c-1.9,2.6-3.8,5-5.7,7.6   c8.7,26.4,17.4,53.2,25.9,79c37.9,115.7,73.6,224.9,107.5,328.7c57.5,176.1,109.5,335.8,155.7,477.7   c88.1,270.9,147.6,453.9,178.5,549.1c30.5,96.1,68.8,199.8,114.8,311c45.8,111.9,109.7,193.2,192,244   c82.5,51.4,177,84.2,283.7,98.5c107,13.6,225.1,3.2,354.3-31.1c126.4-34.9,194.5-123.5,204.3-265.7c7.1-132.9,4.8-370.6-6.9-712.5   c-1.2-34.2-2.4-69.5-3.8-105.8c35.8,3.2,55,7.9,55,7.9c159,22.6,252.7,40.8,476.3,48.9c204.8,1.7,265.3-4.1,353.6-9.1   c115-6.6,219.1-28.2,312.3-56.1c106.7-28.8,209.3-61.8,307.9-99c95.3-37.6,196.2-93.8,302.9-168.6   c54.4-38.6,109.3-85.9,164.4-141.6c32.2-32.5,64.5-68.3,96.9-106.7c23.8-28.2,47.7-57.6,71.6-88.9c28.8-27.2,61.9-64.7,99.1-112.1   c18.5-23.5,38.2-50.1,58.7-78.7c45.7-63.6,96.3-138.8,152.3-227.1C6510.4,5789.2,6611.9,5561.9,6683,5314.6z M6094,5603.5   c-4.3-5.6-8-11.7-12.1-17.4c-24.4,59.5-52.6,118.5-85.6,176.8c-17.3,30.9-36.6,58.2-57.4,82.7c-22.1,25.9-46.1,48.2-72.1,66.9   c-24.9,17.9-51.5,32.9-80.1,44.3c-86.2,35.1-164.6-3.1-235.1-114.7c-26.9-42.3-51-85.1-72.4-128.3   c-58.9,10.1-117.7,17.5-176.2,22.1c-110.9,9-238.2,6.5-380.7-6.5c-64.1,79.2-147.2,152.9-249.8,220.8   c-108.9,72.5-209.3,85.7-301.1,39.4c-92.3-45.7-158.1-111.7-197.2-197.7c-32.3-70.2-55.1-139.5-69.4-208.1   c-104.3-23.6-194.4-45.1-270.3-64.5c-52.6,57-115.1,110.3-188.1,159.7c-105.8,72.1-204.2,80.8-295.3,26.2   c-91.6-54.1-157.4-128.5-197.4-223c-34.2-80.1-58.3-158.7-73.5-236c-3.9-1.7-7.7-3.3-11.6-5c-239.2-95-408.5-183.7-508-266   c175.2,72.1,344.1,137.7,506.9,197.1c23.3,8.5,46.2,16.6,69.2,24.8c246,87.8,477.5,160.8,694.5,218.9c24.1,6.5,48.2,12.8,72,18.9   c62.8,16.1,124.6,31.1,185,44.7c22.2,5,43.9,9.5,65.7,14.1c78.6,16.7,155.4,31.3,229.6,43.5c220.5,36.2,409,60.7,565.3,73.6   c19.8,1.6,39,3,57.8,4.3c172.8,11.6,302.2,7.5,387.8-12.5c11.3-2.6,22.2-5.4,33.2-8.1c23.6-5.8,46.6-11.7,69-17.9   c90.8-24.9,172.4-52.8,244.8-83.8c15.5-6.7,30.7-13.5,45.4-20.4c9.8-4.6,19.6-9.2,29-13.9c47-23.8,95.8-51.7,146-82.7   c16-9.9,32.2-20.4,48.5-31c38.2-24.9,77.1-51.5,117-80.4c13.9-10,27.9-20.3,41.9-30.9c74.5-55.7,152-118.2,232.3-187.5   c3.7-3.2,7.3-6.2,11-9.4c10.7-9.3,21.6-18.8,32.4-28.4c26.3-23.2,52.7-46.6,79.7-71.2c-4,30.6-15.1,62.5-33.1,95.8   c-14.1,26.1-32.6,53-55.4,80.8c-8.9,86.2-22.7,173.8-41.8,262.7c-23.8,112-63.6,199.5-119.3,262.6   C6219.8,5702.6,6159.4,5690.8,6094,5603.5z" id="10" style="fill:#FFFFFF;"/>
	<path d="M3160.4,5280.5c4.1,13.6,8.4,27.8,13.2,43.3c26.2,85.8,83.6,168.5,172.2,248   c88.4,80.2,197.2,73.2,326.4-20.9c24.7-18,48.2-36.7,71.3-55.7c-56.6-15.6-102.4-29.6-136.5-41.9   C3476.8,5408.9,3327.8,5351.2,3160.4,5280.5z" id="11" style="fill:#FFFFFF;"/>
	<path d="M0,0v8500h8500V0H0z M7342.1,6286.5c-14,66-42.8,123.6-86.4,172.9c-35.5,40.5-84.4,78.2-146.9,113.2   c-111.7,63.1-249.5,74.5-413.2,34.2c-154.6-38.1-310.3-122.5-467-251.8c-38.6,49.5-77.7,97.8-117.9,143.7c1.8-3.1,3.7-6.2,5.7-9.5   c-15.2,21.7-31.1,44.2-47.9,67.4c-18.1,21.7-36.4,42.4-54.7,62.7c23,145.4,51.9,284.1,87.3,415.1c83.7,302.1,157.1,511.3,204,634.2   c28.6,74.9,51.3,191.6,54.8,285c4.4,93.6-43.8,172.6-144.7,237c-96.7,63.3-260.6,85.7-491.9,67.3   c-232-20.1-413.3-131.7-543.9-334.7c-129.5-201.9-201.6-341.8-279.1-489.3l-0.2-1.2c-66.7-130.6-114.1-216.5-142.4-258.1   c-4.1,0.2-8.2,0.6-12.4,0.8h-286.5c-142.7-1.3-278.4-10-408-25.4c20.3,351,18.9,587.5-4.2,772.3c-1.3,9.9-2.8,19.9-4.3,30.1   c-28.1,189.7-145.9,297.1-353.4,322c-207.4,25-367.2,17.8-479.1-21.5c-112.2-38.7-196.9-86.5-254.1-143.6   c-57.6-56.4-123.9-159.4-199-372.3c-74.8-212.2-164.9-480.3-270.2-804.1c-79.8-243.9-161-502.6-243.7-775.8   c-228.1,289.7-409.1,447.8-543,473.6c-66.4,12.2-130.6,7.6-192.8-13.9c-50.9-17.4-104.5-48.2-160.6-92.6   c-100.9-79.2-164-202.2-189.2-368.9c-25.1-166.8-3.3-354.2,65.3-562.2c68.5-208.3,173.7-384.6,315.8-528.8   c57.1-58.3,118.4-109.3,183.5-153.6l-16.2-22.3c-167.2-230-196.5-559.5-87.1-979.3l3.7-14.2l11.1-9.6   c147.9-128.1,296.3-247.2,445.1-358.4c-50.4-113-92.7-230-126.8-351.2c123.7,97.8,259,148.6,405.6,153.3   c16.9-11.4,33.7-23.1,50.6-34.2c113.1-150.9,243.2-299.3,390.4-445.2c134.7-133.9,259.5-242.3,374.8-326.6   c-37.5-12.3-75.3-27.5-113.3-45.9c-98.6-47.3-210.5-130.3-335.9-249.1c-40.8,134.5-141,240-300.7,316.4c-1.3,0.7-3.3,1.4-5.8,2.2   c-220.7,76.3-404.6,22.4-551.8-161.6c-0.5-0.9-1.2-1.7-2.1-2.3c-139.3-198.5-174.9-403.5-106.8-615c0.5-0.2,0.6-0.6,0.3-1   c9.5-28.2,19.9-54.9,31.2-80.1c86.9-191.9,233.3-313.3,439.3-364.2c164.4-32.7,323.4-2.8,477,89.7   c153.2,93.2,274,210.7,362.5,352.3c88.5,141.6,173.9,270.2,256,385.8c48.5,69,104.5,131.1,167.5,186.7   c100.7-46.6,200.7-82.6,300-107.6c69.1-17.5,138.7-30.3,208.9-38.9c-37.5-94.1-3.4-136.1,103-125.6   c178.3,45.9,340.8,101.6,487.4,167.1l-73.8-251.8l-485.3-506l3.1-23.5L4330.9,285l29.3-78.9l59.2,59.4l797,1107l8.1,19.4   l-168.4,500.9l81.3,276.5c113-119.3,218-210.3,315.1-272.9c54.3-32.1,96.5-20.5,126.8,35c25.3,49.5-9.5,203.3-104.1,460.8   c180,18.7,235.3,66.4,263.6,91c121.4,104.1,216.2,245.4,283.3,421c113,23,221.7,34.6,325.7,33.5c256.2-0.6,439.2-96.3,549-286.9   c41.2,282.6,24.8,558.9-49.1,828.9c-70.4,255.9-125.8,407.6-166.3,455.5c-5.1,26-10.6,51.7-16.7,77.2c-12,49.6-23.6,95.9-35,139.6   c106.6,207,181.2,386.2,223.4,537.4c37.2,134.1,36.5,287.8-1.9,461.1c56.7,128.9,120.2,240.2,190.6,333.7   C7272.5,5869.4,7372.6,6136.9,7342.1,6286.5z" id="12" style="fill:#FFFFFF;"/>
	<path d="M6147.5,5393.4c-6.6,23.8-14.4,50.3-24.1,80.1c-2.5,8-5.6,15.9-8.3,23.9   c63.4,67.2,117.5,61.6,162.5-17.4c53.7-93.4,88.3-191,103.7-292.7c0.6-4,1.2-7.6,1.8-11.5   C6314.7,5253.1,6236.3,5325.7,6147.5,5393.4z" id="13" style="fill:#FFFFFF;"/>
	<path d="M6816.8,5279c-29.7,96-69.6,197.2-120.2,304c-123.8,261.1-260.9,493.1-410.9,697   c16.6,14.7,33.3,28.9,50.1,42.3c126,100.9,266.6,166.4,421.7,196.5c154.7,30.1,272.3,13.9,352.5-48.8   c79.9-62.8,126.4-144,139.5-243.5c12.7-99-23.2-223.4-107.5-373.2c-84.6-149.2-173-301.1-265.2-455.9   C6852.1,5356.2,6832.3,5316.8,6816.8,5279z" id="14" style="fill:#FFFFFF;"/>
	<path d="M5825.4,5595.3c-20.4,10.6-41.1,20.9-62.1,31.2c-33.6,16.4-68,32.4-103.4,47.9   c-32.4,8.6-64.7,16.2-96.9,23.1c83.4,137.2,169.2,174.3,257.2,110.7c0,0,0.1-0.1,0.1-0.1c25.2-17.9,48.2-37,69.4-56.9   c54.4-51,96.2-108.4,125-172.3c9.1-20,17.4-38.3,24.9-55.4c13-29.4,23.8-54.7,32.3-75.5c-18.1,12.5-36.5,24.8-55.3,36.9   C5956.7,5523.5,5893,5560.3,5825.4,5595.3z" id="15" style="fill:#FFFFFF;"/>
	<path d="M4183.7,5601.4c4.1,13.1,8.5,26.9,13.5,41.9c25.2,78.6,82.2,152.7,171.1,222.3   c88.7,70.2,199.5,58.2,332.6-36.1c48.8-34.6,94.5-70.9,137.3-108.9c-143.4-16.6-300.7-42.9-473.6-79.9   C4300.5,5627,4240.4,5614,4183.7,5601.4z" id="16" style="fill:#FFFFFF;"/>
</g>
</svg>