<?xml version="1.0" ?><!-- Generator: Adobe Illustrator 23.0.1, SVG Export Plug-In . SVG Version: 6.00 Build 0)  --><svg height="850.000000pt" id="Layer_1" version="1.1" viewBox="0 0 850.000000 850.000000" width="850.000000pt" xml:space="preserve" xmlns="http://www.w3.org/2000/svg" xmlns:xlink="http://www.w3.org/1999/xlink">
<g fill="#ffffff" stroke="none" transform="scale(0.100000,0.100000)">
	<path d="M1464.2,5143.4c2.1-37.2,5-74.1,9.7-110c4.4-34.4,8.9-64.5,13.6-90.7c-42.7-94-80.9-192-114.7-294.1   c-6.7-19.9-12.8-39.4-18.8-58.5c-3.8,33.3-7.8,73.1-12.3,120.2c-10.5,107.3,0,218.2,31.5,332.7   C1390.6,5107.5,1421.2,5140.4,1464.2,5143.4z" id="1" style="fill:#FFFFFF;"/>
	<path d="M6487.4,4610.7c15.8-126.7,12.8-269.1-8.8-424.8c-42.6-28.7-87.2-56.1-132.9-82.7l-625.8-270.9   c-250.8-79.1-529.5-138.6-834.9-178.2c20.7,123.1,29.1,232.6,24.8,328.1C5552.6,4030.3,6082.8,4240.6,6487.4,4610.7z" id="2" style="fill:#FFFFFF;"/>
	<path d="M1741.4,5752.3c-62.5,1.2-115-24.7-157.5-77.9c-69-84.9-107.9-186.3-116.9-304   c-2.6-33-4.1-65.4-4.9-97.5c-55.6,14.3-98.2-9.3-127.8-71.1c-41.5-85.2-60.1-188.2-55.6-309.1c4.2-121.1,16.3-236.9,36.3-347.2   c0.1-0.8,0.3-1.5,0.4-2.3c-83.9,32.3-153.1,72.9-206.5,122.3c-112.2,104.4-191,217.6-236.5,339.8c-45.3,122.7-44.5,271.8,2.1,447.4   c65.6,190.2,164.4,330.4,281.1,438.3c191.8,177.4,409.3,320.2,700.2,165.1c-30.7-74-75.5-196.9-110.6-293.1   C1743.8,5759.4,1742.6,5755.8,1741.4,5752.3z" id="3" style="fill:#FFFFFF;"/>
	<path d="M2173.9,6594.1c-81.8-111.9-142.9-202.7-183.8-272.8c-19.7,160.9-47.7,306.4-84.5,435.5   c-54,187.2-104.5,340-151.4,458.4c-45.3,117.8-98.8,246.3-160.5,385.5c-60.2,131.8-66,220.4-17.3,265.9   c50.8,46.6,128.5,76.1,233.2,88.4c105,12.4,237.7,1.5,398.2-32.6c157.4-35.2,289-122.8,394.8-262.6   c85.6-117.2,215.3-298.5,387.7-541.9c-47.2-15.2-93.7-32.2-139.2-51.6C2610.9,7000.1,2385.1,6842.7,2173.9,6594.1z" id="4" style="fill:#FFFFFF;"/>
	<path d="M1905.2,5591.6c-49.7-56.6-102.9-123.9-159.6-202.2c-78-107.8-147.9-223-209.8-345.7   c-1.2,23.2-2,51.4-2.6,84.5c-0.4,20.5-0.6,42.8-0.8,67.1c-0.2,14.2,0.3,28.6,1.3,43c6,91,34.2,185.3,84.8,283   C1673.7,5629.2,1769.3,5652.6,1905.2,5591.6z" id="5" style="fill:#FFFFFF;"/>
	<path d="M2643.8,3346.8c29.7-8.1,45.3-20.7,46.9-37.7c1.2-21-13.3-23.7-43.4-8.2c-29.9,15.1-46,30.7-48.4,47   C2597.9,3354.7,2612.8,3354.4,2643.8,3346.8z" id="6" style="fill:#FFFFFF;"/>
	<path d="M6072.6,4875.1c-24.2-25.7-46.9-51.2-72.5-72.8l-39.7-33.2c-60.6-46.6-124.2-84.3-188.8-112   c-210.1-89.8-493.3-46.4-841.8,128.8c-363.2,182.4-747.5,335.4-1142.1,454.9C3397.4,5359.1,3013,5419,2644.9,5419   c-5.9,0-11.8,0-17.7,0c-255.3-1.3-479.7-83.4-667.9-243.9l-0.1,0.1c-19.5-14.6-44.6-38-71.7-65.8l-4.8-4.5l0.2-0.2   c-70.1-72.5-152.7-173-189.9-231h1.7c-125.9-197.7-228.5-381.4-307.9-551.4c17.5,112.1,58.6,245.3,123.3,399.8   c85.8,205.1,180,384.2,282.7,537.4c102.7,155.7,195.7,268.2,279.1,337.7c60.2,45.2,149.4,78.7,267.4,100.6   c32.9,6.4,68,11.8,105.4,16.2c262.6,5.9,556.9-30.1,883-107.9c322.7-84.2,658.4-208.5,1007.3-373   c343-173.3,561.5-284.4,655.5-333.3c91.6-51.8,189.2-105.9,292.9-162.3c7.3-3.6,46.5-20.4,117.7-50.7   c-97.6,121-222.9,223-375.7,306.2c-48.4,27.2-102.5,56.8-161.2,88.4c-1.5,36.3-7.1,83.9-16.9,143.6   c-17.3,108.6-49.4,220.1-96.6,334.6c-46.6,114.4-121.7,206-225.3,274.7c-16.3,11-32.9,19.9-49.5,27.1   c-19.6,39.6-39.6,79.6-60.5,120.6c-46.9,90.5-97.2,172.4-150.7,246.5l0,0c-96.6,133.7-203.8,241.1-322,321.5   c-183.2,125.4-349.7,200.2-499.6,224.3c-200.6,27.5-409.2,10.3-625.8-51.6l20.9,3.7c-62.2-16.2-134.4-48.4-216.6-96.6   c-60.2-39.8-103.8-74.8-130.7-104.8c-45.3-48.2-71.7-89.7-79.2-124.7c-6.5-29.5-0.5-66.4,17.9-110.7c6.8,10.9,12.9,20.6,18.4,29.5   c7.5-15,15.4-29.2,24-41.5c2.8-4.9,5.9-9.8,9-14.7c3.7-153.7-9.9-294.8-40.4-423.7c-35.9-1.2-69.8-3.2-101.3-6.3   c-85.3-8.1-154.6-23.3-207.8-45.5c-47.5-24-100.5-65.4-159.1-123.9c-34,20.2-69,39.6-106.6,56.7c-10.8,5-21.2,8.7-31.7,12.5   c40.3,146,76.3,254.3,107.9,324.7c57.2,127.3,103,213.9,137.4,259.9c31.5,46,63,90.8,94.5,134.4   c114.3,147.3,227.2,259.9,338.7,337.7c108.5,74.9,211.2,131.2,308.1,168.9c100.3,37.2,204.7,70.2,313.2,99.1   c177.3,52.4,393.2,72.7,647.5,60.9c11.1,2.9,21.1,4.4,29.8,4.4c159.7-11.4,308.6-26.2,447.1-44.1c-2.6,20.5-5.2,40.7-7.7,60.4   c-0.2,2-0.5,3.9-0.7,5.8c-37.8,300.4-58.7,514.4-62.7,641.4c-1.9,133.8,61.5,221,190.3,261.5c131.7,40.1,254,57.1,366.7,51   c112.4-6.8,213.8-31.7,304.1-74.8c90-42.5,163.7-114.7,220.9-216.7c57.5-101.3,106.2-196.1,146.2-284.2   c40.3-87.2,117.9-255,232.8-503.3c28-60.6,58-125.3,89.3-192.9c-63.6-29.2-127.1-66.6-190.6-112.6   c-162.7-117.3-275.5-248.6-338.6-393.9c-56.3-129.2-48.3-280.8,24.1-454.8c138.3-310.7,329-512.1,572.1-604   c-124.7,137.5-243.7,262.8-314.4,379.3c-70.3,116-123.3,238.4-158.8,367.2c-35.6,127.9,1.2,276.4,100.5,398.6   c124.2,133.2,244.8,240,393.4,293c199.4,71.2,500.4,48.9,737.6-200.4c360.4-378.7,339.5-823.2,273.9-1009   c-48.6-137.5-139.1-263.4-264.6-380.2c-126.2-116.8-328.3-191.1-606.2-223C6002.4,4881.3,6037.9,4877.4,6072.6,4875.1z" id="7" style="fill:#FFFFFF;"/>
	<path d="M3737.2,3640.3c27.1-14.6,39.5-30.4,37.2-47.4c-3.6-20.7-18.3-20.1-44.1,1.8   c-25.8,21.4-38,40.3-36.6,56.7C3694.2,3658.4,3708.7,3654.6,3737.2,3640.3z" id="8" style="fill:#FFFFFF;"/>
	<path d="M1667.7,4092.6c62.7,142.8,159.1,240.9,289.4,294.2c128,53.2,249.3,48.5,363.9-14   c1.5-16.1,7.4-46.8,17.8-92.3c10.7,23.6,21.3,46.5,31.8,68.4c78.1,161,153.6,278,226.7,351.2c84.3,85.5,201.1,151.9,350.5,199   c149.5,45.3,281.1,66.9,395,64.7c118.3-0.5,233.6-10.8,345.9-31.1c47.3-8.4,94.1-18.7,140.4-30.7c66.5-17,132-37.6,196.5-61.8   c103.6-40.6,185.9-83,246.8-127.2c9.4-7.4,19-14.6,28.8-21.7c20.2-14.7,41.2-28.9,63.1-42.5c9.3-9.1,20.3-17.2,33.1-24.2   c24.8-16.5,48.9-35.3,72.2-56.4c0.5-0.5,1-0.9,1.5-1.3c145.7-137.3,238.3-280.1,277.7-428.5c38.3-143.9,45.3-308.4,21.1-493.6   c-29.8-184.1-104.3-354.2-223.7-510.2c-48.8-65.5-102.4-121.7-160.7-168.5c-85.6-68-181.5-115.7-287.7-143.2   c-95.6-24.4-191.9-38.5-288.9-42.2c-64.8-2.6-130-0.7-195.6,5.8c-22.9,2.4-45.9,5.4-69.1,8.9c-45.4,5.4-87.6,11.3-126.5,17.7   c-33.8,5.6-65.2,11.5-94.3,17.7c-62,13.8-112.1,29.4-150.3,46.7c16-28.5,63-61.1,140.7-97.8c-66-106.1-175.9-169.7-329.8-190.8   c-155-23.5-340.4,4.2-556.1,83.1c-222.6,79.8-398.6,192.5-527.8,338.2c-128.6,148.4-218.2,292.6-269.1,432.5   c-27.7,87.3-43,166.7-45.9,238c-1.2,5-1.4,10.1-0.3,15.2C1577.5,3814.3,1605.2,3946.6,1667.7,4092.6z M3617,3759   c11.1-67.2,32.4-120.7,63.9-160.4c28.7-36.3,61.5-57.8,98.4-64.6c4.7-0.9,9.6-1.1,14.4-0.6c9.2,1,18.2,3,26.9,6.1   c4.1,1.4,8,3.3,11.5,5.8c12.6,9.1,23.1,23.9,31.5,44.5c19.4,46.4,28.3,95.9,26.7,148.4c0.1,19.1-0.3,37.6-1,55.6   c-1.9,52.3-10.1,98.5-24.4,138.6c-20.8,55-48.1,99.2-82.1,132.6c-13.8,14.9-29.1,24-46,27.4c-41.7,10.6-77-15.2-105.9-77.4   c-8.2-17.2-13.7-36.2-16.5-57.1C3604.9,3889.5,3605.8,3823.2,3617,3759z M2452.5,3628.5c6.3-68.8,22.2-133.2,47.5-193.2   c25.9-62.9,58.7-110.2,98.3-141.8c38.4-30.7,77.6-44.1,117.5-40.2c13.4,3.8,25.8,9.7,37.1,17.8c12.7,11.7,21.1,30,25.2,55.1   c8.4,49.6,6,99.8-7.4,150.6c-4.2,18.6-8.7,36.6-13.5,53.9c-13.6,50.5-31.9,93.7-55,129.5c-32.6,48.9-69.2,85.8-109.8,110.6   c-16.8,11.4-33.8,16.8-51,16.3c-42.9,0.9-71.5-32.2-85.8-99.2C2451.7,3669.2,2450.6,3649.5,2452.5,3628.5z" id="9" style="fill:#FFFFFF;"/>
	<path d="M1788,4826.5c23.8,37.4,72.6,117.8,226.3,276.2c172.4,148.5,378.6,224.3,613.5,225.5   c364.7,2.5,745.8-56.7,1133.6-174.3c389.7-118,769.1-269.1,1127.7-449.1c373.5-187.8,682.5-231.9,918.3-131.2   c71.7,30.7,141.8,72.3,208.5,123.6l8.3,6.4l0.7-0.5l15.4,12.9l11.6,8.9l-0.4,0.5l13,10.9c51.8,43.3,99.7,84.2,148.2,139.1   c71,5.4,137.8,19.1,200.3,41.2c17.1-83.9,28.5-159.4,33.9-226.1c-0.1-1.2-0.1-2.3,0-3.5l0.6-9.4   c-394.2-365.7-914.1-573.9-1547.7-620.4c-16.7,84.6-50.3,178.6-101.4,282.2c-58.8,113.9-155.6,223.5-290.3,328.7   c-21.1,16.5-43.2,32.8-66.3,49.2c-31.9,22.2-63.2,43.1-93.9,62.7c-134.9,86.4-258.6,148-371.1,184.6   c-55.8,17.5-109.7,32.6-161.9,45.3c-164.8,41.5-310.8,59.9-437.9,55.1c-167.9-8.6-312-32.1-432.3-70.5   c-124.7-41-234.3-98.1-329-171.4c-101.9-75.1-194.5-196-278-362.7c-82.5,32.2-159.5,46.6-230.9,43.1   c-155.6-15.7-272.5-55.9-350.9-120.8c-81.3-67.8-145.6-162.5-192.8-284c-46.7-121.5-70-228.2-69.9-320c0-18.4,0.3-35.6,0.6-52.6   c-83.4,92.6-133.7,159.5-149.9,199.9c75.8,255,221.5,552.2,437,891.8C1783.6,4820.9,1785.9,4823.8,1788,4826.5z" id="10" style="fill:#FFFFFF;"/>
	<path d="M0,0v8500h8500V0H0z M7694.9,2580.2c-128.3,242.4-437.3,409.8-927.1,502   c-99.8,18-197.2,35.9-292.5,53.7c69.2,8.5,139.6,20.6,211.3,37c420,96.4,715.8,298.2,887.6,605.6l1.9,4.3   c148,318.3,125,528.4-69,630.3c-178.5,100-472.5,37-881.8-188.8l-69.6-30.1c24.2,185.6,22.8,354-4.9,500.5l-1.3,7   c-5.9,75.6-19.5,161.5-40.5,257.2c21.9,11.7,43.2,24.6,63.8,38.7c14.3,11.9,37,28.7,68.2,50.3c230.2,223.8,342.9,481.1,338.3,771.8   c2.7,284.8-87.2,528.2-269.8,730.3c-84.2,90.3-186.4,173.2-306.7,248.7c-115.3,75.4-334.5,127.1-555.2,71   c-23.4,51.1-46.6,101.6-69.7,151.3c-137.4,296.8-254.1,542.3-350.1,736.5c-96.3,194.8-165.9,290.5-230.7,339.7   c-64.4,50-156.8,89.6-277.1,118.9c-120,29.9-287.1,26.8-501.2-9.5c-214.2-36.2-327.9-144-341-323.4c-0.7-9.7-1.3-19.2-1.9-28.5   c-8.6-181.8,0.8-383.1,50-655.9c-101.2,9-205.9,14.3-314.8,15.3h-291.4c-74.1-2.9-145.6-11.7-214.4-26.4   c-74.2-9.3-146.5-23.2-217.1-41.3c-28.1,41.8-62.9,96.4-104.7,164.4l-0.2,1.1c-86.2,136.4-200.6,298-343.3,485   c-143.8,188.1-319,269.4-565,292.1c-245.1,21.1-412.4-12.8-515.9-63.1c-226.4-109.9-129.1-362.8-68.6-473.4   c58.8-111.4,136.7-305.9,233.8-583.7c81.1-237.3,137.3-500.1,169-787.7c-100.9,52.5-362.6,149.3-627.7-27.2   c-193-128.5-534.2-434.9-520.8-854.1c8.3-259.7,96.7-489.7,302.4-689.8c27.9-19.3,48.2-34.3,61-45c64.4-43.9,135.5-74.4,213.1-92.4   c-38.1-154.3-47.5-278.5-28.2-372.8c-20.4-54.9-38-108.1-52.6-159.6l-3.5-14l1.7-12.2c11-59.3,99.7-176.3,265.3-350.5   c0.2-1.7,0.4-3.8,0.6-5.4c3.1-18.7,6.4-37.4,9.9-56.1c3-10.9,6-21.8,9-32.7c24.9-66.3,69.3-157.2,133.1-272.7   c78.9-136.3,206-274,381.5-413c96.9-79.3,216.4-141.5,357.1-187.7c-70-152.1-115.7-340-150-562.5   c-59-382.9,26.3-826.3,358.3-1045.8c241.4-159.6,488.8-185.9,680-94.9c219.6,104.6,353.8,429.1,234.8,910.6   c-74.7,209.1-123.8,382.7-147.6,520.9c304.3-124.8,592.5-176.9,863-155.9c78.6-302.3,235.3-646.8,470.8-1033.9   c335.7-549,703.5-840.9,1103.2-875.9l5.4-0.2c435.1,5.7,665.9,161.9,692.4,468.3c27.7,312.9-159.4,669-561.3,1068.2   c-285.7,279.4-547.1,541-784.8,785.3c14.4,11.8,28.8,23.6,43.4,35.9c205.3-222,523.3-432.6,955-631.7   c511.7-234.5,924.9-265.3,1239.7-92.4l4.1,2.6C7723.3,2114.5,7821.1,2343.1,7694.9,2580.2z" id="11" style="fill:#FFFFFF;"/>
	<path d="M2763.6,5828.3c72.7,79.4,154.7,152.8,247.4,219.3c147.3,105.6,271.2,114.5,371.9,26.8   c100.9-87.1,166.2-177.9,195.9-272.6c22.9-71.3,38.5-124.8,47-160.8c-29.2,9.9-58.4,19.9-88.1,29.6   C3245.3,5754.8,2987.3,5807.3,2763.6,5828.3z" id="12" style="fill:#FFFFFF;"/>
	<path d="M2588.5,6474.5c19.5-87.1,56.8-161.4,112.2-222.7c31.7-34.4,80.1-66.5,144.5-96.3   c-45.5-28.7-99-29-160.5-0.1c-54.8,25.6-116,104.8-183.7,237.1C2528.5,6422,2557.6,6449.5,2588.5,6474.5z" id="13" style="fill:#FFFFFF;"/>
	<path d="M2689.7,5834c-4.6,0.3-9.4,0.8-13.9,1.1c-51.3,3-99.6,4.7-145.1,5.1c3.2,11.9,6.4,24,9.6,36.5   c17.9,68.8,28.9,161.3,33.2,276.9c18.4-17.5,38.5-35.1,60.7-53c51.9-34.4,103.5-49.1,154.8-44.3c38.6,3.7,80.9,27.2,126.7,70   c8.4-3.2,16.6-6.3,25.5-9.5c-75.1-60.3-138.2-124.9-189-193.8C2728,5890.4,2707.5,5860.9,2689.7,5834z" id="14" style="fill:#FFFFFF;"/>
	<path d="M7336.5,2001.7c-251.4-136.5-620.6-109.5-1066.3,72.5c-444.6,181.5-834.3,402.9-1169,664.2   c13.2-18.2,27.2-36.2,41.8-54.3c-15.8-13.4-31.5-26.2-47.2-39c-42.5,44-84.5,87.5-125.5,130.3c180.3-307,455.9-638.9,827-995.7   c420.9-414.7,615.1-778.8,565.5-1063.1c-70.7-203.8-255.2-307.8-553.4-312.1c-318.3,29.5-639,287.2-945,744.1   c-305.3,455.8-534.9,914.7-688.7,1376.8c4.1-84.6,16.6-173.8,36.5-267c-266.9-18-552.6,38.5-855.3,169.8c-2,24-3.1,46.6-3.1,67.7   c0.3,36.5,3.6,68.6,9.8,96.5c-19.9-21.9-36.6-46.1-50.1-72.7c-70.7-140.5-45.4-390.3,43.1-626.5   c111.8-298.5,114.2-816.9-173.1-904.7c-169.4-36.7-345.9-16.1-525.6,112.5c-232.1,166-360.1,543.2-280.1,1010.1   c29.5,172.5,77.3,299.6,126.4,453c80.4-20.2,166.2-36.3,259-47.2c310.1-42.1,525.1,37.1,645.1,237.4c72.5-19,146.7-32.2,222.5-39.5   c50.6-5,101.9-7.3,153.9-7c16.5,0.3,32.9,0.9,49.2,1.7c114.4,5.6,219.6,22.6,315.8,50.8c90.1,24.6,176.7,65.3,259.7,122.1   c18.1,12.5,36,25.6,53.6,39.3c100.1,80.5,188.3,186.1,264.6,316.9c67.4,109.7,114.7,222.2,142.2,337.5   c511,64.1,950.6,183,1312.4,355.2c139.1,44.2,280.6,99.8,424.8,168.1c410.5,244.6,683.1,313,817.7,205.3   c133.1-78.3,151.3-233.5,54.8-465.8c-126.5-274.1-387.7-453.7-783.7-538.7c-402.2-87.9-781.6-90.5-1138.2-7.9   c158.4-83.3,326.4-135.6,504-157.8c181-52.5,382.1-97.9,604.2-136c511.3-94.1,836.7-261.6,935.1-494   C7644.9,2320.4,7556.8,2152.8,7336.5,2001.7z" id="15" style="fill:#FFFFFF;"/>
	<path d="M4533.9,5675.4c100.8-98.9,166.7-200,197.6-303.2c31.4-102.8,50-171.8,55.5-207   c2.3-13.3,4.6-28.8,6.7-46.1c-110.2,58.7-235.6,123.9-377.5,196.2c-134.3,67.2-277.4,131.2-429.1,192.1   c55.3,56.9,115.4,110.2,181.4,159C4311.5,5772.1,4433.3,5775.1,4533.9,5675.4z" id="16" style="fill:#FFFFFF;"/>
	<path d="M3812.9,6235.5c-86.9,60.4-183.9,197.1-290.9,409.4c183.6-44,339.3-132.5,466.8-266   c43.9-46.7,87.5-99.2,131-156.4c-28.5-20.9-54.4-35.4-77.8-42.8C3979.9,6153.9,3903.5,6172.5,3812.9,6235.5z" id="17" style="fill:#FFFFFF;"/>
	<path d="M3910.6,5537.6c-67.8,26.2-137.3,51.8-208.4,76.9c-2.2,17.3-4.8,35.7-8.1,55.9   c-15.7,100.1-46.4,202.1-92.3,306.3c93-37.2,182.9-67.8,269.2-91.2c116.1-35.2,238.6-48.8,367.4-41.4   c-14.3-7.7-28.8-16.5-43.4-26.6c-116.9-79.9-209.8-170.2-278.5-271.1C3914.3,5543.3,3912.6,5540.6,3910.6,5537.6z" id="18" style="fill:#FFFFFF;"/>
	<path d="M4312.7,5933c-1.3-0.2-2.5-0.4-3.8-0.6c-59.4-6.3-119.6-8.2-180.6-5.8   c-126.5,3.6-257.1,32.7-391.8,87.3c-72.1,26.6-140.8,53.3-206.2,80.2c-41,50.4-92,93.2-153.4,127.9   c-103.7,59.4-215.9,48.7-336.5-32.3c-8.7-5.8-16.9-11.7-25.4-17.6c-126.9,44-214,101.4-259.9,172.5   c-29.7,39.8-49.5,84.6-59.4,134.4c-4.5,21.8-7.2,43.1-8.5,63.9c148.9,88.6,328.5,133.7,539.3,134.7c70,0.2,136.8-4.8,200.6-14.3   c23.2-68.9,57.3-145.4,88.7-192.7c47.5-84.9,124.7-180.4,231.7-286.5c72.8-63.2,144.1-101.1,213.8-113.9   c65.7-12,137.2,13.7,214.6,76C4221.7,6081,4267.3,6009.8,4312.7,5933z" id="19" style="fill:#FFFFFF;"/>
</g>
</svg>