<?xml version="1.0" ?><!-- Generator: Adobe Illustrator 23.0.1, SVG Export Plug-In . SVG Version: 6.00 Build 0)  --><svg height="850.000000pt" id="Layer_1" version="1.1" viewBox="0 0 850.000000 850.000000" width="850.000000pt" xml:space="preserve" xmlns="http://www.w3.org/2000/svg" xmlns:xlink="http://www.w3.org/1999/xlink">
<g fill="#ffffff" stroke="none" transform="scale(0.100000,0.100000)">
	<path d="M3424.8,3705.8c123.1,8.8,159.3-225.8,24-220.8c-51.3,15-86,51.7-94.3,105.9   C3347.2,3638.6,3369.1,3701.9,3424.8,3705.8z" id="1" style="fill:#FFFFFF;"/>
	<path d="M5122.4,4900.4c118,84.7,304.7,137,436.3,53.8c21.3-13.5,65.6-41.9,66.5-69.8   c0.6-18.9-12.8-45.1-18.2-63.4c-6.6-22.1-13.1-44.3-19.7-66.4c-23.9-80.7-46.1-162.2-73-241.9c-62.1,67.7-123.3,135.4-188.5,200.2   C5260.3,4778.1,5191.2,4838.9,5122.4,4900.4z" id="2" style="fill:#FFFFFF;"/>
	<path d="M4253.9,3357.3c27.6-5.9,52.7-11.2,69-36.6c15.6-24.4,14.5-54.5,2.3-80.1   c-23.3-48.9-81.5-81.4-135.4-73.9c-54.5,7.6-84,59.2-62.7,110.1C4148,3326.4,4202,3354.9,4253.9,3357.3z" id="3" style="fill:#FFFFFF;"/>
	<path d="M6064.1,5767.8c-35.5-7.5-74.4-2.6-110.3-0.4c-41.9,2.6-83.6,6.8-125.4,11.3   c-81.9,8.9-163.7,19.5-245.5,29c-83.8,9.7-167.8,17.4-252.1,21c-22.8,1-236,2.4-229.6-29.2c56.4-1.9,112.8-1.1,169.1-7.2   c56.3-6.1,112.3-15.2,168-25.6c110-20.6,219-46.3,329-67.2c27.1-5.2,54.3-10,81.5-14.4c12.8-2.1,25.7-4,38.5-5.9   c10.4-1.5,39.9-0.4,48.1-7.2c5.2-4.4,6.9-29.7,8.6-37c2.8-12.2,5.7-24.5,8.5-36.7c6.3-27.5,12.6-55.1,18.4-82.8   c2.6-12.4,5.2-24.8,7.7-37.2c0-0.1,4.6-17.3,3.7-18.8c-1.9-3-19.2-5-23.3-6.1c-27.5-7.2-55-14.4-82.6-21.6   c-12.1-3.2-24.2-6.3-36.4-9.5c-19-5-22.3-4.7-30.7-23.2c-11.6-25.6-22.4-51.5-32.6-77.7c-44.8-114.5-77.7-233.9-124-347.6   c-55,36.1-108,64-174,74.1c-68.8,10.5-139.7,3.6-207.2-11.7c-63.3-14.3-124.2-37.7-180.9-69.2c-7.2-4-24.5-17.6-32.2-17.3   c-8.2,0.4-26,19.5-33.5,25.1c-29.2,21.8-58.8,43.1-88.9,63.7c-110.1,75.3-226.5,141.5-348.7,195.2c-63,27.6-127.2,52.5-192.3,74.6   c-32.6,11.1-65.4,21.5-98.3,31.2c-32,9.4-65.9,15.4-97.1,26.9c-26.3,9.6-34.6,31.8-47.4,54.8c-15.8,28.4-32.9,55.9-51.3,82.7   c-37.4,54.4-79.8,105.5-125.7,152.8c-88.2,90.9-195.2,172.6-316.6,212.8c-254.2,84.3-518-39.6-706.7-208.1   c-46.6-41.6-91.1-86.1-129.4-135.5c-19-24.4-33.3-51.8-51.7-76.4c-17-22.7-42.7-22.8-68.8-26.4c-34.6-4.8-69-10.2-103.5-15.4   c-15.8-2.4-31.5-4.7-47.3-7c-9.6-1.4-19.2-2.8-28.8-4.2c-15.4-2.3-18.1-4.4-28.5,7.3c-42.5,47.6-90.8,90.9-140.1,131.3   c-100,81.8-213.4,155.7-336.9,196.2c-126.3,41.4-250.7,32.2-362.1-43.7c-106.2-72.4-183.1-181.3-243.1-293.2   c-62.5-116.6-108.5-241.4-141.9-369.3c-4.4-17-5.5-39.3-19-49.8c-10.8-8.4-25-14.2-36.8-21c-30.7-17.7-61.1-36.1-90.9-55.3   c-58-37.4-114.2-77.9-165.7-124c-41.6-37.1-104.7-82.7-101.8-144.7c0.7-14.8,8.7-62.4,29.7-62.5c9,0,29.7,23.4,36,28.8   c13.8,12,27.8,23.8,41.9,35.5c206.5,170.4,443.6,302.6,688.2,409.7c251.2,109.9,514.7,192.8,782.3,251.9   c560.3,123.6,1159.3,148.5,1719.5,10.8c255-62.7,498.7-160.5,716.2-309.1c216.3-147.7,407.2-333,575.9-532.6   c10.5-12.4,21.9-24.6,31.4-37.7c9.5-13,8.7-17.9,4.3-34.2c-10.3-38.4-20.7-76.7-31-115.1c-18.8-69.9-37.6-139.7-56.4-209.6   c-0.9-3.2-3.6-18-5.1-19c-3.2-2.1-14.6,4.3-16.8,5.2c-12.4,5.2-24.1,12.3-36.2,18.1c-32.1,15.4-65.3,28.7-99.1,39.8   c-61.7,20.3-125.6,33.5-190.2,40.2c-271.6,28.3-548.2-45.1-790.5-164.9c-30-14.8-59.8-30.4-88.8-47c-8.9-5.1-22.1-17.1-32.6-18.7   c-15.6-2.4-17.3,16.3-22.8,29.2c-24.5,57.8-49.8,114.9-79.7,170.2c-57.2,105.6-126.9,204.4-208.3,292.8   c-163,177.1-370,312.7-597.8,390.5c-249.8,85.3-522.6,104.5-783.2,67.5c-249.9-35.4-493.7-121.5-697.6-272.7   c-44.5-33-86.9-68.9-126.8-107.4c-43.5-41.9-81.2-88.5-122.2-132.6c-35.8,33.6-56.8,79.6-88.1,117c3.1-27.8,10.8-54.7,21.1-80.6   c4.8-12,10.1-23.8,15.6-35.5c4.9-10.6,18.6-28.8,19.1-40.8c0.4-10.5-11.4-22.6-16.8-30.8c-8-12.2-15.9-24.4-23.6-36.8   c-16.8-26.9-32.8-54.4-48-82.2c-56.2-103.2-100.8-212.7-132.3-326c-67-241.5-78.9-501.4-18-745.4c51.3-205.3,147.5-399.6,289.9-557   c150.4-166.2,348-290,560.8-359.1c129.7-42.2,266.7-64.9,403.1-67.2c72.9-1.2,145.9,4.1,217.7,17c36.6,6.5,72.9,15.3,108.2,27.3   c29.8,10.2,60.4,20,83.4,41.7c-51.5-4.8-102.3-13.4-154.1-15.4c-54.7-2.1-109.4-2.5-164.1-0.1c-110.6,4.9-220.5,22.8-327.2,52.5   c-183.5,51-358,139.9-503.5,263.3c-307.5,260.9-446.8,662.9-435.1,1059.4c7.1,239.5,68,486.2,200.1,688   c57.5-73.8,108.5-151.8,168.8-223.7c60.2-71.7,123.9-140.5,189.5-207.3c131.3-133.7,271.5-258.7,418.5-374.9   c293.3-231.8,620.5-445,980.4-555.9c95.7-29.5,201.6-62.2,302.3-42c36.4,7.3,91.7,24.1,104.6,64c7.5,23.3-16.9,32.5-35.5,41   c-20.3,9.3-42,15.8-60.8,28.3c34.6,40.2,64.2,84.1,80.5,134.9c18.7,58.4,24.3,122.3,24.7,183.4c0.8,124.2-26.8,260.4-99,363.6   c-64.4,92.1-185.8,156.5-293.9,95.6c-104.6-59-131.8-201.5-133.1-311.3c-0.8-68,8.7-136.9,27.3-202.3c9.4-33.2,21.6-65.6,36.6-96.7   c7.6-15.8,15.9-31.2,24.9-46.2c5.1-8.5,19.4-21.8,13.6-32.3c-146.4,57.2-286.5,133.8-422.4,212.3   c-130.2,75.2-257.4,155.5-381.4,240.6c-248.2,170.5-485.3,359.9-703.7,567.4c-57.1,54.3-112.5,110.5-165.2,169.1   c-9.4,10.5-22.8,21.3-30.3,33.3c-8.9,14.1-4.1,20,5.4,32.2c23.4,29.8,50.3,57.5,77.4,84c103.4,100.9,226.1,182.4,355.8,245.5   c263,127.9,566.7,177.6,857.3,148.1c267.7-27.2,530.9-125.1,745.6-288.1c220.5-167.4,385-398.2,487.1-654.5   c2.3-5.7,4.8-15,9.9-19.1c9.3-7.4,9.2-3.7,19.5,2.2c15.1,8.6,29.8,17.8,44.7,26.7c34.2,20.5,69.2,39.9,104.7,58.2   c68.3,35,138.8,65.6,211.2,91.2c147.3,52,302.9,82.1,459.5,77.7c76.4-2.2,152.7-13,226.2-34c67.6-19.3,140.8-46.4,198-88.2   c9.2-6.7,11-7.3,11.9-17.6c0.7-7.5-3.6-17.6-5.2-24.8c-4.2-19.2-8.3-38.4-12.2-57.6c-8.5-41.6-16.1-83.5-22.8-125.4   c-13-81.3-22.1-163.2-27.2-245.4c-10.1-162.2-4.2-325.8,23.2-486.1c6.4-37.2,13.9-74.1,22.7-110.8c4.4-18.4,9.1-36.7,14.2-54.9   c2.5-9,6-18.2,7.8-27.3c2.5-12.2,3.5-13.3-4.3-19.7c-11.6-9.4-37.1-12.5-51.3-16.3c-25.1-6.8-50.6-12.5-76.1-17.8   c-282.6-58.4-576.2-71-862.8-38.2c-78.4,9-156.3,21.5-233.5,37.5c38.4,29.4,77,56.7,110.4,91.9c34.7,36.6,65.3,76.9,90.9,120.4   c52.5,89.1,94.1,200.6,62.1,304c-24.4,78.9-93,130.1-176.6,122.2c-98.5-9.3-178.5-82.4-237.6-156.4   c-61.7-77.3-111.1-173.3-118.2-273.2c-0.8-11.9-1.1-23.8-0.7-35.7c0.2-7.5,4.6-29.1-0.6-36.3c-7.8-11-48.3-0.2-64.4-13   c-37.9-29.9-15.8-91.2,6.6-122.9c59.5-84.1,173.9-119,268.5-144c110.2-29.1,223.7-44.4,337.4-50.7c227.9-12.7,457.5,7.4,679.9,58.9   c53.3,12.3,106.1,26.7,158.3,43c25.4,7.9,50.6,16.3,75.7,25.2c13.3,4.7,26.4,9.8,39.8,14.5c4.8,1.7,9.8,4.4,14.9,4.8   c13.3,1.2,11.2,3.1,17.5-10.3c47.5-100.9,92.8-200.9,163.1-288.5c16.8-20.9,34.2-41.5,51.5-62c9.2-10.9,18.4-21.7,27.6-32.6   c10.5-12.4,14.5-13.4,5.8-27.5c-26-42-61-80.8-93-118.3c-65.6-77-137.6-148.5-215.9-212.5c-155.3-127.2-334.9-225.1-529.1-277.9   c-423.7-115.2-865.4-1.1-1209.9,262.6c-20.2,15.4-40,31.3-59.4,47.6c-16.9,14.2-33.7,34.8-54.7,42.8c1.8-17.4,16.2-31.7,26.2-45   c11.7-15.7,23.8-31.1,36.2-46.2c27.4-33.1,56.6-64.7,87.6-94.5c61.3-59.1,129.1-111.2,201.6-156c-20.4-17.3-53.8-20.3-79-26.5   c-31.2-7.6-62.6-14.1-94.2-19.5c-63.1-10.8-126.9-17.5-190.8-21.5c-131.8-8.2-263.7-4.4-395.2,6.8c-24.2,2.1-67.8,12.4-87.2-1.4   c-22.7-16.2-42.9-41.8-60.8-62.9c-38.7-45.8-70.7-96.6-99-149.4c-59.7-111.4-97.2-231.3-136-351c-19.9-61.5-39.2-123.2-60.3-184.3   c-19.1-55.4-39-113.3-70.9-162.8c-61.1-95-172.4-150.3-275-189c-114.2-43.1-234.6-68.6-356.4-75.7c-119.8-7-246.6,0.1-358.3,48   c-99.2,42.5-171.6,121.1-186,230.1c-14.3,108.5,25.7,224.3,80.6,316.7c51.8,87.2,128.7,174.4,222.8,216.3   c59.2,26.4,113,27.4,173.8,7c59.9-20.2,120-40.7,180.9-57.6c60.1-16.6,123.2-31.7,185.8-22.9c53.5,7.5,106.8,26.3,155.3,49.9   c84.1,41,154.1,105,199.1,187.3c27.3,49.9,45.3,104.6,56.7,160.2c6.1,29.7,11.2,60.3,13.1,90.5c0.4,5.7,0.4,11.2,0.5,16.8   c0.1,14.4,1.9,13.5-8.8,20.6c-11.1,7.5-29.4,9.9-42.2,14.3c-117.3,39.8-232.4,82.5-344.2,136   c-413.3,197.8-780.8,498.1-1086.7,837.2C869.6,3053,605.4,3451.1,448.2,3883.8C362,4121,307.1,4372,327.8,4625.4   c20.8,254.4,107.4,501.7,210.8,733.3C641.7,5590,767.3,5811.1,901,6026c67.9,109.1,138.4,216.6,210.8,322.8   c15.8,23.1,29.5,45.2,33.5,73.5c4.2,29.7,1.6,61.4-1.6,91.1c-6.5,61.8-22.8,122.5-42.9,181.2c-83.5,243.3-233.6,453.6-360.1,675   c-14.8,26-33.2,54.5-36.9,84.8c-3.5,29,5.6,58.5,17.2,84.7c23.6,53.4,63.8,99.6,105.5,139.7c82.9,79.7,182,144.2,285.2,194.2   c106.9,51.9,223.6,93.9,343.3,99.4c128.1,5.8,251.8-37.1,368.3-86.2c231.6-97.6,447.8-233,653.6-376.2   c98.8-68.7,196.9-140.4,286-221.4c-27.3-24.6-71.5-22.2-99-47.9c61.2,2.7,122,16,183.3,20.9c64.9,5.3,130.2,7.9,195.2,11   c129.7,6.2,259.8,4.4,389.3-5.4c259-19.5,515.9-61.8,766-132c67-18.8,133.6-39.5,199.5-61.9c33-11.3,65.8-23,98.4-35.2   c27.9-10.4,67.9-18.5,90.5-38.8c-87.3-53.1-176.7-101.9-261.3-159.6c-42.4-29-83.7-59.3-123.9-91.2c-19.5-15.4-38.7-31.1-58-46.8   c-8.9-7.2-51-31.4-45.4-46.3c27.7,8,54.2,26.1,80,39.1c33.7,17,67.6,33.7,101.5,50.2c65.1,31.5,130.7,62,196.8,91.1   c129.5,57.1,261.2,109.2,395.3,154.6c136.7,46.3,276.6,85.5,420.4,101.3c70.2,7.8,141,6.9,209.7-10.5   c61.2-15.5,120.3-42.6,175.3-73.3c215.1-120.2,376.7-331.7,468.9-557.6c47-115.3,87-247.7,84.2-373.3   C6227.2,5970.4,6188.8,5794.3,6064.1,5767.8z M1191.3,7550.5c-44.5-30.6-93.9-54.2-146.5-66.8c-63.3-15.3-122.3-10.8-185.8-0.7   c-5.5-17.4,59.8-37.5,72.2-41.2c32-9.6,65.7-12.6,99-9.7c65.6,5.7,129.1,32,182.8,69.6c102.2,71.6,172.3,180.1,198.3,301.8   C1349.9,7707.7,1286.5,7616,1191.3,7550.5z" id="4" style="fill:#FFFFFF;"/>
	<path d="M5815.1,7034.2c-42.9,30.6-87.7,58.5-134.5,82.6c-19.2,9.9-44.8,17.2-59.8,33.3   c-15.5,16.7-19.2,42.8-25.7,63.8c-17.2,56.1-34.8,112-52.5,168c-18.2,57.7-36.4,115.3-54.5,173c-8.4,26.6-16.7,53.2-25.2,79.8   c-8.8,27.6-23.5,57.6-27,86.3c-5.8,47.6,57.1,75.5,94.9,86c48.1,13.3,106.6,9.9,155.2-0.2c26.3-5.5,31-12.6,37.2-35   c4.6-16.3,8.9-32.6,13.3-49c13-48.8,25.6-97.8,38.2-146.7c31.9-124.1,63.1-248.4,93.9-372.9c13.9-56.4,27.8-112.8,41.2-169.3   c6.6-27.9,15.3-56.5,19-85c-18.9,3.1-36.5,25.9-50.6,37.3C5857.6,7002.8,5836.6,7018.8,5815.1,7034.2z" id="5" style="fill:#FFFFFF;"/>
	<path d="M2902.5,5448.1c2.9,19,16.3,32.5,28.1,47.4c16.6,20.7,33.9,41,51.8,60.5   c32.8,35.8,67.9,69.5,105,100.9c74.9,63.2,158.3,117.8,251.3,150.2c97.6,34,203.8,38.7,301.5,2.2c88-32.8,164.5-95.7,230.2-161.6   c37.8-37.9,72.6-78.9,104.7-121.7c28.3-37.8,63.5-79.4,78-124.6c-189.3,32.4-376.6,56.7-568.7,63.6   C3289.3,5472,3096.9,5463,2902.5,5448.1z" id="6" style="fill:#FFFFFF;"/>
	<path d="M1418.1,5182.5c16.1,49,34.4,97.3,55.2,144.5c39.7,90,88.3,178.4,155.5,251   c63.7,68.8,147.4,120.9,243.7,120.6c104.2-0.3,199-58.7,282.1-116.1c44.7-30.9,87.4-64.7,127.8-101.1c20.8-18.7,41-38.1,60.6-58.2   c14.2-14.6,38.4-32.3,41.9-53.7c-344.9-72.4-684-176.1-1003-327.1C1381.8,5088.7,1403.7,5138.9,1418.1,5182.5z" id="7" style="fill:#FFFFFF;"/>
	<path d="M7768.9,3018.8c-68.3-0.6-131.1,19.6-194.5,42.5c-35.3-136.1-72.4-268.1-146.9-389.2   c-71.7-116.8-171.8-199.2-282.5-277.2c-117.3-82.6-264.7-129.5-408.8-119.1c-137.8,10-262.3,72.9-366.6,160.9   c-454.8,383.6-410,1074.3-309.8,1601.6c56.7,298.2,142.3,590.7,243.9,876.5c51.2,144.1,106.4,286.9,166.7,427.5   c15.4,36,32.2,71.4,47.4,107.5c3.6,8.6,6.9,22.3,15,28c13.3,9.4,42-6.4,56.6-12.3c70.8-28.7,141.5-58,211.2-89.4   c259.9-117.2,513.5-260,734.3-441.5c205.8-169.1,376-376.6,500.1-612.4c125.9-239.3,210.6-521.1,186.9-793.9   c-10.9-125.9-44.3-252.4-129-349.5C8011.7,3085.6,7894.3,3019.9,7768.9,3018.8z" id="8" style="fill:#FFFFFF;"/>
	<path d="M6796.2,5621.2c-1.3-17.8-2.7-35.6-4-53.4c-0.7-9.8,2.9-40.8-10.1-45.2c-9.2-3.2-40.9,15.4-49.9,19   c-16.5,6.6-33.1,13.1-49.5,19.8c-36.1,14.6-68.7,29-108.5,24c-35.2-4.4-70.4-11.6-105.4-17.5c-19.2-3.2-38.3-6.4-57.5-9.8   c-7.9-1.4-16-3.6-24.1-4c-17.2-0.8-17.2,2.1-21.2,17.6c-18.4,71-35.1,142.5-52.7,213.7c-5.2,20.8-12.8,42.4-15.1,63.7   c-2.1,19.2,5.5,31.2,13.4,47.8c16.6,35.2,28.8,72.8,36.5,110.9c16.7,82.7,3.3,163.3-7,245.8c126.3,0,282.5-47.9,370.9-142.3   c89.6-95.7,92.5-250.9,90.2-374.2C6801.3,5698.4,6798.9,5659.8,6796.2,5621.2z" id="9" style="fill:#FFFFFF;"/>
	<path d="M6309.5,5462.2c6.4-7.9,6.9-6.7,19.1-5.1c35.6,4.5,70.1,15.8,106.3,15.1   c-49.3-128.2-106.1-253.4-154.8-381.9c-49.4-130.2-95.6-261.7-137.5-394.6c-84.3-267.1-153.2-540.6-193.8-818   c-71.3-487.4-68.7-1079.1,306.9-1450.6c76.5-75.6,166.2-136.8,263.8-181.7c4.8-2.2,28-8.6,27-16.6c-1.2-9.3-36.2-8.6-42.6-9.3   c-34.1-3.9-68.3-6.8-102.5-9.5c-72.1-5.7-144.4-9-216.8-9.9c-68.3-0.8-132.8,3.7-196.5,30.5c-58.1,24.4-113.3,58.1-163.4,96.1   c-99.7,75.8-180,175.2-240.9,284.2c-129.7,232.2-179.4,503.2-182.8,766.8c-1.8,143.1,10.4,286.7,33.8,427.9   c23.4,140.5,61.7,278.4,98.9,415.7c74.4,274.6,156.7,548.7,258.9,814.4c25.2,65.6,52.1,130.6,81.4,194.4   c13.3,29.1,27.6,57.7,42.3,86.2c6.6,12.9,11.6,25.6,24.3,33.4c15.8,9.7,38.8,12.4,56.4,17.9c15.5,4.9,31.1,9.6,46.5,14.9   c6.6,2.3,13.2,4.7,19.8,7.2c13.6,5.2,9.6,1.3,10.6,14.6c1.1,14.3-7.6,33.8-10.8,48c-4.6,20.7-9.3,41.4-13.9,62.1   c-7.5,33.4-15,66.8-22.5,100.2c-3.2,14.4-10.8,32.9-10.7,47.9c0.1,14.3,0.7,11,15.7,15c10.3,2.8,20.8,4.9,31.2,7.2   c30.7,6.5,59.5,14.1,86.5,30.5c26.6,16.1,50,36.9,74.7,55.6c22.1-75.3,41.2-151.6,61.4-227.4c5.4-20.3,10-41.1,16.4-61.1   C6303.7,5476.2,6305.4,5467.3,6309.5,5462.2z" id="10" style="fill:#FFFFFF;"/>
	<path d="M0,0v8500h8500V0H0z M8330,3693.5c-12.4,372.1-170.6,725.2-404.6,1010.6   c-248.6,303.1-585.9,531.3-930.2,712.6c-42.9,22.6-86.5,43.9-129.9,65.7c-7,3.5-25.4,9.3-27.9,17.5c-2.3,7.6,7,28.4,9,36.1   c6.4,25.7,12.9,51.4,18.9,77.2c23.7,102.9,37,209.3,28.5,314.9c-7.5,93.7-37.9,187.1-106.6,253.9   c-67.6,65.6-155.4,108.2-244.3,136.8c-47.7,15.3-96.6,26.6-146.2,33.8c-23.5,3.4-47.1,4.8-70.6,7.7c-9.5,1.1-11.6,1.6-16.8,8.9   c-6.9,9.8-9.6,25.8-13.6,37c-31.9,89.5-74.4,175-126,254.8c-25.2,38.9-54.2,74.6-81,112.3c-29.1,41.1-35.2,94.1-46.7,142   c-25.2,104.8-51,209.4-77.4,313.9c-53.4,211.8-105,425-166.2,634.7c-4.1,14-4.4,24.1-16.6,31.2c-9.6,5.5-23.1,7.5-33.8,9.9   c-23.5,5.4-47.4,9.7-71.1,13.7c-50,8.5-107.9,15.9-157.9,3.5c-40.3-10-80.9-33-114.7-56.6c-17.6-12.3-34.2-25.9-49.5-40.9   c-13.1-12.8-40.5-36.6-39.9-54.7c0.8-21.9,18.4-51.9,25.8-72.7c8.1-22.7,16.2-45.5,24.3-68.2c17.4-48.6,34.8-97.2,52.2-145.9   c35.1-98.3,69.8-196.8,103.2-295.7c-52,9.4-102.6,22.3-155.5,26.5c-56.6,4.5-113.3,2.3-169.6-4.7c-110.3-13.7-218-43.3-322-81.8   c-26.4-9.8-52.6-20.1-78.7-30.8c-21.8-9-49.9-28.9-73.9-28.2c-23.9,0.7-51.2,20.9-72.2,31.1c-25.6,12.4-51.3,24.6-77.3,36.3   c-103.2,46.4-210.5,83.4-319.4,113.7c-223,62.2-449.6,94.7-680,112.9c-230.6,18.2-463.2,1.6-689-46.6c-11.6-2.5-23.2-5.1-35-7   c-17-2.7-18.9-0.6-30.9,12c-19,19.9-38.1,39.8-57.4,59.4c-37.4,37.9-75.6,75.1-114.6,111.4c-77.8,72.3-159,141.1-243.4,205.6   c-170.7,130.5-355.2,247.1-555,327.7c-102.9,41.5-209.8,73.3-319.8,88.9c-112.3,16-222.3-1.9-328.9-38.7   c-194.2-67-378.8-191.7-510.8-349.4c-64.3-76.8-128.9-176.5-124.1-281c2.6-55.6,33-100.4,63.1-145.2c31.6-47,65.5-92.5,98.7-138.4   c130-179.8,266.8-365.7,339-577.9c17.3-50.9,30.4-103.4,35.3-157c-134.3-146.7-263.8-295.1-378.8-457.8   c-111.9-158.3-211.5-325.3-296.5-499.6c-89.4-183.3-162-375.5-204.5-575.3c-43.5-204.8-45.1-413-12.6-619.5   C268.9,3879,438,3502.8,652.8,3167.8c199.1-310.4,441.2-593,721.4-833.1c294.8-252.6,629.8-460.9,999.4-584   c48.9-16.3,98.4-31,148.4-43.9c23.4-6,47.2-10.8,70.2-18.3c16-5.2,12.2-9.9,9.8-26c-1.9-12.7-4.6-25.3-8-37.7   c-21.7-78.8-65.1-154.3-118.6-215.8c-52-59.8-116.7-108-187.7-142.9c-52.6-25.8-91.4-12.9-143,8.1c-48.8,19.8-96.4,42.2-144.4,63.8   c-89.5,40.3-186.9,79-287.2,67.2c-91-10.7-175.2-57.4-238-123.2c-127.8-133.8-188.6-335.5-163.4-517.9   c12.1-87.5,42.7-173.3,100.7-241c57.2-66.9,135.7-112.9,219.1-139.2c196.9-62.3,416.7-34.8,608.5,32.9   c165.6,58.5,324.3,154.4,422.2,303.7c106.6,162.5,129,364.9,192,545.5c33.7,96.7,77.3,189.7,132.7,275.9   c10.9,17,23.1,43.6,39.2,56.2c9,7.1-1.8,4.7,14.2,4.6c5.7-0.1,13.3-2.3,18.7-3.3c12.4-2.2,24.7-4.4,37.1-6.5   c54.7-9.4,109.7-16.8,165.1-21c206.7-16,422.6-1.2,618.6,69.7c10.2,3.7,20.3,8.3,30.7,11.1c11.9,3.2,14.8,1.2,26.2-3.7   c25.3-10.9,50.4-22,76.2-31.6c45.5-17,92.1-31.2,139.4-42.6c101.7-24.6,206.9-37.7,311.6-38.4c174.2-1.1,351.7,32.4,514.8,93.3   c155.1,57.9,298.8,143.6,425.1,250.5c69.1,58.5,133.5,122.8,191.5,192.3c32.6,39.1,63.2,80,92,122c6.1,8.9,12.1,17.9,18.1,27   c3.3,5,14.8,28.7,19.7,29.7c5.7,1.1,22-13.5,26.5-16.6c11.7-8.2,23.4-16.3,35.4-24.1c77.1-49.5,162.5-85.1,251.7-106   c100.7-23.7,201.8-21.5,304.4-14.5c104,7.1,207.4,21.7,309.9,40.3c101.3,18.4,206.8,34.8,304.4,68   c175.4,59.7,328.4,184.5,445.5,325.8c61.3,74,115.1,154.5,159.7,239.6c22.6,43.1,42.5,87.4,60.4,132.6c2.5,6.2,7.1,26.3,12.7,30   c4.6,3,26.7-3.1,32.8-3.7c22.3-2.2,44.7-3.3,67-2.9c175.3,3,346.9,96.4,453.5,234.5C8304.2,3303.5,8336.1,3509.2,8330,3693.5z" id="11" style="fill:#FFFFFF;"/>
</g>
</svg>