<?xml version="1.0" ?><!DOCTYPE svg  PUBLIC '-//W3C//DTD SVG 20010904//EN'  'http://www.w3.org/TR/2001/REC-SVG-20010904/DTD/svg10.dtd'><svg height="850.000000pt" preserveAspectRatio="xMidYMid meet" version="1.0" viewBox="0 0 850.000000 850.000000" width="850.000000pt" xmlns="http://www.w3.org/2000/svg">
<metadata>
Created by potrace 1.14, written by Peter Selinger 2001-2017
</metadata>
<g fill="#ffffff" stroke="none" transform="translate(0.000000,850.000000) scale(0.100000,-0.100000)">
<path d="M0 8290 l0 -210 200 0 200 0 0 210 0 210 -200 0 -200 0 0 -210z" id="1"/>
<path d="M410 8290 l0 -210 220 0 220 0 0 210 0 210 -220 0 -220 0 0 -210z" id="2"/>
<path d="M860 8290 l0 -210 205 0 205 0 0 210 0 210 -205 0 -205 0 0 -210z" id="3"/>
<path d="M1280 8290 l0 -210 205 0 205 0 0 210 0 210 -205 0 -205 0 0 -210z" id="4"/>
<path d="M1700 8290 l0 -210 210 0 210 0 0 210 0 210 -210 0 -210 0 0 -210z" id="5"/>
<path d="M2130 8290 l0 -210 205 0 205 0 0 210 0 210 -205 0 -205 0 0 -210z" id="6"/>
<path d="M2550 8290 l0 -210 215 0 215 0 0 210 0 210 -215 0 -215 0 0 -210z" id="7"/>
<path d="M2990 8290 l0 -210 205 0 205 0 0 210 0 210 -205 0 -205 0 0 -210z" id="8"/>
<path d="M3410 8290 l0 -210 205 0 205 0 0 210 0 210 -205 0 -205 0 0 -210z" id="9"/>
<path d="M3830 8290 l0 -210 210 0 210 0 0 210 0 210 -210 0 -210 0 0 -210z" id="10"/>
<path d="M4260 8290 l0 -210 205 0 205 0 0 210 0 210 -205 0 -205 0 0 -210z" id="11"/>
<path d="M4680 8290 l0 -210 205 0 205 0 0 210 0 210 -205 0 -205 0 0 -210z" id="12"/>
<path d="M5100 8290 l0 -210 215 0 215 0 0 210 0 210 -215 0 -215 0 0 -210z" id="13"/>
<path d="M5540 8290 l0 -210 205 0 205 0 0 210 0 210 -205 0 -205 0 0 -210z" id="14"/>
<path d="M5960 8290 l0 -210 205 0 205 0 0 210 0 210 -205 0 -205 0 0 -210z" id="15"/>
<path d="M6380 8290 l0 -210 210 0 210 0 0 210 0 210 -210 0 -210 0 0 -210z" id="16"/>
<path d="M6810 8290 l0 -210 205 0 205 0 0 210 0 210 -205 0 -205 0 0 -210z" id="17"/>
<path d="M7230 8290 l0 -210 215 0 215 0 0 210 0 210 -215 0 -215 0 0 -210z" id="18"/>
<path d="M7670 8290 l0 -210 195 0 195 0 0 210 0 210 -195 0 -195 0 0 -210z" id="19"/>
<path d="M8070 8290 l0 -210 215 0 215 0 0 210 0 210 -215 0 -215 0 0 -210z" id="20"/>
<path d="M0 7875 l0 -195 200 0 200 0 0 195 0 195 -200 0 -200 0 0 -195z" id="21"/>
<path d="M410 7875 l0 -195 220 0 220 0 0 195 0 195 -220 0 -220 0 0 -195z" id="22"/>
<path d="M860 7875 l0 -195 205 0 205 0 0 195 0 195 -205 0 -205 0 0 -195z" id="23"/>
<path d="M1280 7875 l0 -195 205 0 205 0 0 195 0 195 -205 0 -205 0 0 -195z" id="24"/>
<path d="M1700 7875 l0 -195 210 0 210 0 0 195 0 195 -210 0 -210 0 0 -195z" id="25"/>
<path d="M2130 7875 l0 -195 205 0 205 0 0 195 0 195 -205 0 -205 0 0 -195z" id="26"/>
<path d="M2550 7875 l0 -195 215 0 215 0 0 195 0 195 -215 0 -215 0 0 -195z" id="27"/>
<path d="M2990 7875 l0 -195 205 0 205 0 0 195 0 195 -205 0 -205 0 0 -195z" id="28"/>
<path d="M3410 7875 l0 -195 205 0 205 0 0 195 0 195 -205 0 -205 0 0 -195z" id="29"/>
<path d="M3830 7875 l0 -195 210 0 210 0 0 195 0 195 -210 0 -210 0 0 -195z" id="30"/>
<path d="M4260 7875 l0 -195 205 0 205 0 0 195 0 195 -205 0 -205 0 0 -195z" id="31"/>
<path d="M4680 7875 l0 -195 205 0 205 0 0 195 0 195 -205 0 -205 0 0 -195z" id="32"/>
<path d="M5100 7875 l0 -195 215 0 215 0 0 195 0 195 -215 0 -215 0 0 -195z" id="33"/>
<path d="M5540 7875 l0 -195 205 0 205 0 0 195 0 195 -205 0 -205 0 0 -195z" id="34"/>
<path d="M5960 7875 l0 -195 205 0 205 0 0 195 0 195 -205 0 -205 0 0 -195z" id="35"/>
<path d="M6380 7875 l0 -195 210 0 210 0 0 195 0 195 -210 0 -210 0 0 -195z" id="36"/>
<path d="M6810 7875 l0 -195 205 0 205 0 0 195 0 195 -205 0 -205 0 0 -195z" id="37"/>
<path d="M7230 7875 l0 -195 215 0 215 0 0 195 0 195 -215 0 -215 0 0 -195z" id="38"/>
<path d="M7670 7875 l0 -195 195 0 195 0 0 195 0 195 -195 0 -195 0 0 -195z" id="39"/>
<path d="M8070 7875 l0 -195 215 0 215 0 0 195 0 195 -215 0 -215 0 0 -195z" id="40"/>
<path d="M0 7455 l0 -215 200 0 200 0 0 215 0 215 -200 0 -200 0 0 -215z" id="41"/>
<path d="M410 7455 l0 -215 220 0 220 0 0 215 0 215 -220 0 -220 0 0 -215z" id="42"/>
<path d="M860 7455 l0 -215 205 0 205 0 0 215 0 215 -205 0 -205 0 0 -215z" id="43"/>
<path d="M1280 7455 l0 -215 205 0 205 0 0 215 0 215 -205 0 -205 0 0 -215z" id="44"/>
<path d="M1700 7455 l0 -215 210 0 210 0 0 215 0 215 -210 0 -210 0 0 -215z" id="45"/>
<path d="M2130 7455 l0 -215 205 0 205 0 0 215 0 215 -205 0 -205 0 0 -215z" id="46"/>
<path d="M2550 7455 l0 -215 215 0 215 0 0 215 0 215 -215 0 -215 0 0 -215z" id="47"/>
<path d="M2990 7455 l0 -215 205 0 205 0 0 215 0 215 -205 0 -205 0 0 -215z" id="48"/>
<path d="M3410 7455 l0 -215 205 0 205 0 0 215 0 215 -205 0 -205 0 0 -215z" id="49"/>
<path d="M3830 7455 l0 -215 210 0 210 0 0 215 0 215 -210 0 -210 0 0 -215z" id="50"/>
<path d="M4260 7455 l0 -215 205 0 205 0 0 215 0 215 -205 0 -205 0 0 -215z" id="51"/>
<path d="M4680 7455 l0 -215 205 0 205 0 0 215 0 215 -205 0 -205 0 0 -215z" id="52"/>
<path d="M5100 7455 l0 -215 215 0 215 0 0 215 0 215 -215 0 -215 0 0 -215z" id="53"/>
<path d="M5540 7455 l0 -215 205 0 205 0 0 215 0 215 -205 0 -205 0 0 -215z" id="54"/>
<path d="M5960 7455 l0 -215 205 0 205 0 0 215 0 215 -205 0 -205 0 0 -215z" id="55"/>
<path d="M6380 7455 l0 -215 210 0 210 0 0 215 0 215 -210 0 -210 0 0 -215z" id="56"/>
<path d="M6810 7455 l0 -215 205 0 205 0 0 215 0 215 -205 0 -205 0 0 -215z" id="57"/>
<path d="M7230 7455 l0 -215 215 0 215 0 0 215 0 215 -215 0 -215 0 0 -215z" id="58"/>
<path d="M7670 7455 l0 -215 195 0 195 0 0 215 0 215 -195 0 -195 0 0 -215z" id="59"/>
<path d="M8070 7455 l0 -215 215 0 215 0 0 215 0 215 -215 0 -215 0 0 -215z" id="60"/>
<path d="M0 7025 l0 -205 200 0 200 0 0 205 0 205 -200 0 -200 0 0 -205z" id="61"/>
<path d="M410 7025 l0 -205 220 0 220 0 0 205 0 205 -220 0 -220 0 0 -205z" id="62"/>
<path d="M860 7025 l0 -205 205 0 205 0 0 205 0 205 -205 0 -205 0 0 -205z" id="63"/>
<path d="M1280 7025 l0 -205 205 0 205 0 0 205 0 205 -205 0 -205 0 0 -205z" id="64"/>
<path d="M1700 7025 l0 -205 210 0 210 0 0 205 0 205 -210 0 -210 0 0 -205z" id="65"/>
<path d="M2130 7025 l0 -205 205 0 205 0 0 205 0 205 -205 0 -205 0 0 -205z" id="66"/>
<path d="M2550 7025 l0 -205 215 0 215 0 0 205 0 205 -215 0 -215 0 0 -205z" id="67"/>
<path d="M2990 7025 l0 -205 205 0 205 0 0 205 0 205 -205 0 -205 0 0 -205z" id="68"/>
<path d="M3410 7025 l0 -205 205 0 205 0 0 205 0 205 -205 0 -205 0 0 -205z" id="69"/>
<path d="M3830 7025 l0 -205 210 0 210 0 0 205 0 205 -210 0 -210 0 0 -205z" id="70"/>
<path d="M4260 7025 l0 -205 205 0 205 0 0 205 0 205 -205 0 -205 0 0 -205z" id="71"/>
<path d="M4680 7025 l0 -205 205 0 205 0 0 205 0 205 -205 0 -205 0 0 -205z" id="72"/>
<path d="M5100 7025 l0 -205 215 0 215 0 0 205 0 205 -215 0 -215 0 0 -205z" id="73"/>
<path d="M5540 7025 l0 -205 205 0 205 0 0 205 0 205 -205 0 -205 0 0 -205z" id="74"/>
<path d="M5960 7025 l0 -205 205 0 205 0 0 205 0 205 -205 0 -205 0 0 -205z" id="75"/>
<path d="M6380 7025 l0 -205 210 0 210 0 0 205 0 205 -210 0 -210 0 0 -205z" id="76"/>
<path d="M6810 7025 l0 -205 205 0 205 0 0 205 0 205 -205 0 -205 0 0 -205z" id="77"/>
<path d="M7230 7025 l0 -205 215 0 215 0 0 205 0 205 -215 0 -215 0 0 -205z" id="78"/>
<path d="M7670 7025 l0 -205 195 0 195 0 0 205 0 205 -195 0 -195 0 0 -205z" id="79"/>
<path d="M8070 7025 l0 -205 215 0 215 0 0 205 0 205 -215 0 -215 0 0 -205z" id="80"/>
<path d="M0 6600 l0 -210 200 0 200 0 0 210 0 210 -200 0 -200 0 0 -210z" id="81"/>
<path d="M410 6600 l0 -210 220 0 220 0 0 210 0 210 -220 0 -220 0 0 -210z" id="82"/>
<path d="M860 6600 l0 -210 205 0 205 0 0 210 0 210 -205 0 -205 0 0 -210z" id="83"/>
<path d="M1280 6600 l0 -210 205 0 205 0 0 210 0 210 -205 0 -205 0 0 -210z" id="84"/>
<path d="M1700 6600 l0 -210 210 0 210 0 0 210 0 210 -210 0 -210 0 0 -210z" id="85"/>
<path d="M2130 6600 l0 -210 205 0 205 0 0 210 0 210 -205 0 -205 0 0 -210z" id="86"/>
<path d="M2550 6600 l0 -210 215 0 215 0 0 210 0 210 -215 0 -215 0 0 -210z" id="87"/>
<path d="M2990 6600 l0 -210 205 0 205 0 0 210 0 210 -205 0 -205 0 0 -210z" id="88"/>
<path d="M3410 6600 l0 -210 205 0 205 0 0 210 0 210 -205 0 -205 0 0 -210z" id="89"/>
<path d="M3830 6600 l0 -210 210 0 210 0 0 210 0 210 -210 0 -210 0 0 -210z" id="90"/>
<path d="M4260 6600 l0 -210 205 0 205 0 0 210 0 210 -205 0 -205 0 0 -210z" id="91"/>
<path d="M4680 6600 l0 -210 205 0 205 0 0 210 0 210 -205 0 -205 0 0 -210z" id="92"/>
<path d="M5100 6600 l0 -210 215 0 215 0 0 210 0 210 -215 0 -215 0 0 -210z" id="93"/>
<path d="M5540 6600 l0 -210 205 0 205 0 0 210 0 210 -205 0 -205 0 0 -210z" id="94"/>
<path d="M5960 6600 l0 -210 205 0 205 0 0 210 0 210 -205 0 -205 0 0 -210z" id="95"/>
<path d="M6380 6600 l0 -210 210 0 210 0 0 210 0 210 -210 0 -210 0 0 -210z" id="96"/>
<path d="M6810 6600 l0 -210 205 0 205 0 0 210 0 210 -205 0 -205 0 0 -210z" id="97"/>
<path d="M7230 6600 l0 -210 215 0 215 0 0 210 0 210 -215 0 -215 0 0 -210z" id="98"/>
<path d="M7670 6600 l0 -210 195 0 195 0 0 210 0 210 -195 0 -195 0 0 -210z" id="99"/>
<path d="M8070 6600 l0 -210 215 0 215 0 0 210 0 210 -215 0 -215 0 0 -210z" id="100"/>
<path d="M0 6175 l0 -205 200 0 200 0 0 205 0 205 -200 0 -200 0 0 -205z" id="101"/>
<path d="M410 6175 l0 -205 220 0 220 0 0 205 0 205 -220 0 -220 0 0 -205z" id="102"/>
<path d="M860 6175 l0 -205 205 0 205 0 0 205 0 205 -205 0 -205 0 0 -205z" id="103"/>
<path d="M1280 6175 l0 -205 205 0 205 0 0 205 0 205 -205 0 -205 0 0 -205z" id="104"/>
<path d="M1700 6175 l0 -205 210 0 210 0 0 205 0 205 -210 0 -210 0 0 -205z" id="105"/>
<path d="M2130 6175 l0 -205 205 0 205 0 0 205 0 205 -205 0 -205 0 0 -205z" id="106"/>
<path d="M2550 6175 l0 -205 215 0 215 0 0 205 0 205 -215 0 -215 0 0 -205z" id="107"/>
<path d="M2990 6175 l0 -205 205 0 205 0 0 205 0 205 -205 0 -205 0 0 -205z" id="108"/>
<path d="M3410 6175 l0 -205 205 0 205 0 0 205 0 205 -205 0 -205 0 0 -205z" id="109"/>
<path d="M3830 6175 l0 -205 210 0 210 0 0 205 0 205 -210 0 -210 0 0 -205z" id="110"/>
<path d="M4260 6175 l0 -205 205 0 205 0 0 205 0 205 -205 0 -205 0 0 -205z" id="111"/>
<path d="M4680 6175 l0 -205 205 0 205 0 0 205 0 205 -205 0 -205 0 0 -205z" id="112"/>
<path d="M5100 6175 l0 -205 215 0 215 0 0 205 0 205 -215 0 -215 0 0 -205z" id="113"/>
<path d="M5540 6175 l0 -205 205 0 205 0 0 205 0 205 -205 0 -205 0 0 -205z" id="114"/>
<path d="M5960 6175 l0 -205 205 0 205 0 0 205 0 205 -205 0 -205 0 0 -205z" id="115"/>
<path d="M6380 6175 l0 -205 210 0 210 0 0 205 0 205 -210 0 -210 0 0 -205z" id="116"/>
<path d="M6810 6175 l0 -205 205 0 205 0 0 205 0 205 -205 0 -205 0 0 -205z" id="117"/>
<path d="M7230 6175 l0 -205 215 0 215 0 0 205 0 205 -215 0 -215 0 0 -205z" id="118"/>
<path d="M7670 6175 l0 -205 195 0 195 0 0 205 0 205 -195 0 -195 0 0 -205z" id="119"/>
<path d="M8070 6175 l0 -205 215 0 215 0 0 205 0 205 -215 0 -215 0 0 -205z" id="120"/>
<path d="M0 5755 l0 -205 200 0 200 0 0 205 0 205 -200 0 -200 0 0 -205z" id="121"/>
<path d="M410 5755 l0 -205 220 0 220 0 0 205 0 205 -220 0 -220 0 0 -205z" id="122"/>
<path d="M860 5755 l0 -205 205 0 205 0 0 205 0 205 -205 0 -205 0 0 -205z" id="123"/>
<path d="M1280 5755 l0 -205 205 0 205 0 0 205 0 205 -205 0 -205 0 0 -205z" id="124"/>
<path d="M1700 5755 l0 -205 210 0 210 0 0 205 0 205 -210 0 -210 0 0 -205z" id="125"/>
<path d="M2130 5755 l0 -205 205 0 205 0 0 205 0 205 -205 0 -205 0 0 -205z" id="126"/>
<path d="M2550 5755 l0 -205 215 0 215 0 0 205 0 205 -215 0 -215 0 0 -205z" id="127"/>
<path d="M2990 5755 l0 -205 205 0 205 0 0 205 0 205 -205 0 -205 0 0 -205z" id="128"/>
<path d="M3410 5755 l0 -205 205 0 205 0 0 205 0 205 -205 0 -205 0 0 -205z" id="129"/>
<path d="M3830 5755 l0 -205 210 0 210 0 0 205 0 205 -210 0 -210 0 0 -205z" id="130"/>
<path d="M4260 5755 l0 -205 205 0 205 0 0 205 0 205 -205 0 -205 0 0 -205z" id="131"/>
<path d="M4680 5755 l0 -205 205 0 205 0 0 205 0 205 -205 0 -205 0 0 -205z" id="132"/>
<path d="M5100 5755 l0 -205 215 0 215 0 0 205 0 205 -215 0 -215 0 0 -205z" id="133"/>
<path d="M5540 5755 l0 -205 205 0 205 0 0 205 0 205 -205 0 -205 0 0 -205z" id="134"/>
<path d="M5960 5755 l0 -205 205 0 205 0 0 205 0 205 -205 0 -205 0 0 -205z" id="135"/>
<path d="M6380 5755 l0 -205 210 0 210 0 0 205 0 205 -210 0 -210 0 0 -205z" id="136"/>
<path d="M6810 5755 l0 -205 205 0 205 0 0 205 0 205 -205 0 -205 0 0 -205z" id="137"/>
<path d="M7230 5755 l0 -205 215 0 215 0 0 205 0 205 -215 0 -215 0 0 -205z" id="138"/>
<path d="M7670 5755 l0 -205 195 0 195 0 0 205 0 205 -195 0 -195 0 0 -205z" id="139"/>
<path d="M8070 5755 l0 -205 215 0 215 0 0 205 0 205 -215 0 -215 0 0 -205z" id="140"/>
<path d="M0 5325 l0 -215 200 0 200 0 0 215 0 215 -200 0 -200 0 0 -215z" id="141"/>
<path d="M410 5325 l0 -215 220 0 220 0 0 215 0 215 -220 0 -220 0 0 -215z" id="142"/>
<path d="M860 5325 l0 -215 205 0 205 0 0 215 0 215 -205 0 -205 0 0 -215z" id="143"/>
<path d="M1280 5325 l0 -215 205 0 205 0 0 215 0 215 -205 0 -205 0 0 -215z" id="144"/>
<path d="M1700 5325 l0 -215 210 0 210 0 0 215 0 215 -210 0 -210 0 0 -215z" id="145"/>
<path d="M2130 5325 l0 -215 205 0 205 0 0 215 0 215 -205 0 -205 0 0 -215z" id="146"/>
<path d="M2550 5325 l0 -215 215 0 215 0 0 215 0 215 -215 0 -215 0 0 -215z" id="147"/>
<path d="M2990 5325 l0 -215 205 0 205 0 0 215 0 215 -205 0 -205 0 0 -215z" id="148"/>
<path d="M3410 5325 l0 -215 205 0 205 0 0 215 0 215 -205 0 -205 0 0 -215z" id="149"/>
<path d="M3830 5325 l0 -215 210 0 210 0 0 215 0 215 -210 0 -210 0 0 -215z" id="150"/>
<path d="M4260 5325 l0 -215 205 0 205 0 0 215 0 215 -205 0 -205 0 0 -215z" id="151"/>
<path d="M4680 5325 l0 -215 205 0 205 0 0 215 0 215 -205 0 -205 0 0 -215z" id="152"/>
<path d="M5100 5325 l0 -215 215 0 215 0 0 215 0 215 -215 0 -215 0 0 -215z" id="153"/>
<path d="M5540 5325 l0 -215 205 0 205 0 0 215 0 215 -205 0 -205 0 0 -215z" id="154"/>
<path d="M5960 5325 l0 -215 205 0 205 0 0 215 0 215 -205 0 -205 0 0 -215z" id="155"/>
<path d="M6380 5325 l0 -215 210 0 210 0 0 215 0 215 -210 0 -210 0 0 -215z" id="156"/>
<path d="M6810 5325 l0 -215 205 0 205 0 0 215 0 215 -205 0 -205 0 0 -215z" id="157"/>
<path d="M7230 5325 l0 -215 215 0 215 0 0 215 0 215 -215 0 -215 0 0 -215z" id="158"/>
<path d="M7670 5325 l0 -215 195 0 195 0 0 215 0 215 -195 0 -195 0 0 -215z" id="159"/>
<path d="M8070 5325 l0 -215 215 0 215 0 0 215 0 215 -215 0 -215 0 0 -215z" id="160"/>
<path d="M0 4895 l0 -205 200 0 200 0 0 205 0 205 -200 0 -200 0 0 -205z" id="161"/>
<path d="M410 4895 l0 -205 220 0 220 0 0 205 0 205 -220 0 -220 0 0 -205z" id="162"/>
<path d="M860 4895 l0 -205 205 0 205 0 0 205 0 205 -205 0 -205 0 0 -205z" id="163"/>
<path d="M1280 4895 l0 -205 205 0 205 0 0 205 0 205 -205 0 -205 0 0 -205z" id="164"/>
<path d="M1700 4895 l0 -205 210 0 210 0 0 205 0 205 -210 0 -210 0 0 -205z" id="165"/>
<path d="M2130 4895 l0 -205 205 0 205 0 0 205 0 205 -205 0 -205 0 0 -205z" id="166"/>
<path d="M2550 4895 l0 -205 215 0 215 0 0 205 0 205 -215 0 -215 0 0 -205z" id="167"/>
<path d="M2990 4895 l0 -205 205 0 205 0 0 205 0 205 -205 0 -205 0 0 -205z" id="168"/>
<path d="M3410 4895 l0 -205 205 0 205 0 0 205 0 205 -205 0 -205 0 0 -205z" id="169"/>
<path d="M3830 4895 l0 -205 210 0 210 0 0 205 0 205 -210 0 -210 0 0 -205z" id="170"/>
<path d="M4260 4895 l0 -205 205 0 205 0 0 205 0 205 -205 0 -205 0 0 -205z" id="171"/>
<path d="M4680 4895 l0 -205 205 0 205 0 0 205 0 205 -205 0 -205 0 0 -205z" id="172"/>
<path d="M5100 4895 l0 -205 215 0 215 0 0 205 0 205 -215 0 -215 0 0 -205z" id="173"/>
<path d="M5540 4895 l0 -205 205 0 205 0 0 205 0 205 -205 0 -205 0 0 -205z" id="174"/>
<path d="M5960 4895 l0 -205 205 0 205 0 0 205 0 205 -205 0 -205 0 0 -205z" id="175"/>
<path d="M6380 4895 l0 -205 210 0 210 0 0 205 0 205 -210 0 -210 0 0 -205z" id="176"/>
<path d="M6810 4895 l0 -205 205 0 205 0 0 205 0 205 -205 0 -205 0 0 -205z" id="177"/>
<path d="M7230 4895 l0 -205 215 0 215 0 0 205 0 205 -215 0 -215 0 0 -205z" id="178"/>
<path d="M7670 4895 l0 -205 195 0 195 0 0 205 0 205 -195 0 -195 0 0 -205z" id="179"/>
<path d="M8070 4895 l0 -205 215 0 215 0 0 205 0 205 -215 0 -215 0 0 -205z" id="180"/>
<path d="M0 4475 l0 -205 200 0 200 0 0 205 0 205 -200 0 -200 0 0 -205z" id="181"/>
<path d="M410 4475 l0 -205 220 0 220 0 0 205 0 205 -220 0 -220 0 0 -205z" id="182"/>
<path d="M860 4475 l0 -205 205 0 205 0 0 205 0 205 -205 0 -205 0 0 -205z" id="183"/>
<path d="M1280 4475 l0 -205 205 0 205 0 0 205 0 205 -205 0 -205 0 0 -205z" id="184"/>
<path d="M1700 4475 l0 -205 210 0 210 0 0 205 0 205 -210 0 -210 0 0 -205z" id="185"/>
<path d="M2130 4475 l0 -205 205 0 205 0 0 205 0 205 -205 0 -205 0 0 -205z" id="186"/>
<path d="M2550 4475 l0 -205 215 0 215 0 0 205 0 205 -215 0 -215 0 0 -205z" id="187"/>
<path d="M2990 4475 l0 -205 205 0 205 0 0 205 0 205 -205 0 -205 0 0 -205z" id="188"/>
<path d="M3410 4475 l0 -205 205 0 205 0 0 205 0 205 -205 0 -205 0 0 -205z" id="189"/>
<path d="M3830 4475 l0 -205 210 0 210 0 0 205 0 205 -210 0 -210 0 0 -205z" id="190"/>
<path d="M4260 4475 l0 -205 205 0 205 0 0 205 0 205 -205 0 -205 0 0 -205z" id="191"/>
<path d="M4680 4475 l0 -205 205 0 205 0 0 205 0 205 -205 0 -205 0 0 -205z" id="192"/>
<path d="M5100 4475 l0 -205 215 0 215 0 0 205 0 205 -215 0 -215 0 0 -205z" id="193"/>
<path d="M5540 4475 l0 -205 205 0 205 0 0 205 0 205 -205 0 -205 0 0 -205z" id="194"/>
<path d="M5960 4475 l0 -205 205 0 205 0 0 205 0 205 -205 0 -205 0 0 -205z" id="195"/>
<path d="M6380 4475 l0 -205 210 0 210 0 0 205 0 205 -210 0 -210 0 0 -205z" id="196"/>
<path d="M6810 4475 l0 -205 205 0 205 0 0 205 0 205 -205 0 -205 0 0 -205z" id="197"/>
<path d="M7230 4475 l0 -205 215 0 215 0 0 205 0 205 -215 0 -215 0 0 -205z" id="198"/>
<path d="M7670 4475 l0 -205 195 0 195 0 0 205 0 205 -195 0 -195 0 0 -205z" id="199"/>
<path d="M8070 4475 l0 -205 215 0 215 0 0 205 0 205 -215 0 -215 0 0 -205z" id="200"/>
<path d="M0 4050 l0 -210 200 0 200 0 0 210 0 210 -200 0 -200 0 0 -210z" id="201"/>
<path d="M410 4050 l0 -210 220 0 220 0 0 210 0 210 -220 0 -220 0 0 -210z" id="202"/>
<path d="M860 4050 l0 -210 205 0 205 0 0 210 0 210 -205 0 -205 0 0 -210z" id="203"/>
<path d="M1280 4050 l0 -210 205 0 205 0 0 210 0 210 -205 0 -205 0 0 -210z" id="204"/>
<path d="M1700 4050 l0 -210 210 0 210 0 0 210 0 210 -210 0 -210 0 0 -210z" id="205"/>
<path d="M2130 4050 l0 -210 205 0 205 0 0 210 0 210 -205 0 -205 0 0 -210z" id="206"/>
<path d="M2550 4050 l0 -210 215 0 215 0 0 210 0 210 -215 0 -215 0 0 -210z" id="207"/>
<path d="M2990 4050 l0 -210 205 0 205 0 0 210 0 210 -205 0 -205 0 0 -210z" id="208"/>
<path d="M3410 4050 l0 -210 205 0 205 0 0 210 0 210 -205 0 -205 0 0 -210z" id="209"/>
<path d="M3830 4050 l0 -210 210 0 210 0 0 210 0 210 -210 0 -210 0 0 -210z" id="210"/>
<path d="M4260 4050 l0 -210 205 0 205 0 0 210 0 210 -205 0 -205 0 0 -210z" id="211"/>
<path d="M4680 4050 l0 -210 205 0 205 0 0 210 0 210 -205 0 -205 0 0 -210z" id="212"/>
<path d="M5100 4050 l0 -210 215 0 215 0 0 210 0 210 -215 0 -215 0 0 -210z" id="213"/>
<path d="M5540 4050 l0 -210 205 0 205 0 0 210 0 210 -205 0 -205 0 0 -210z" id="214"/>
<path d="M5960 4050 l0 -210 205 0 205 0 0 210 0 210 -205 0 -205 0 0 -210z" id="215"/>
<path d="M6380 4050 l0 -210 210 0 210 0 0 210 0 210 -210 0 -210 0 0 -210z" id="216"/>
<path d="M6810 4050 l0 -210 205 0 205 0 0 210 0 210 -205 0 -205 0 0 -210z" id="217"/>
<path d="M7230 4050 l0 -210 215 0 215 0 0 210 0 210 -215 0 -215 0 0 -210z" id="218"/>
<path d="M7670 4050 l0 -210 195 0 195 0 0 210 0 210 -195 0 -195 0 0 -210z" id="219"/>
<path d="M8070 4050 l0 -210 215 0 215 0 0 210 0 210 -215 0 -215 0 0 -210z" id="220"/>
<path d="M0 3625 l0 -205 200 0 200 0 0 205 0 205 -200 0 -200 0 0 -205z" id="221"/>
<path d="M410 3625 l0 -205 220 0 220 0 0 205 0 205 -220 0 -220 0 0 -205z" id="222"/>
<path d="M860 3625 l0 -205 205 0 205 0 0 205 0 205 -205 0 -205 0 0 -205z" id="223"/>
<path d="M1280 3625 l0 -205 205 0 205 0 0 205 0 205 -205 0 -205 0 0 -205z" id="224"/>
<path d="M1700 3625 l0 -205 210 0 210 0 0 205 0 205 -210 0 -210 0 0 -205z" id="225"/>
<path d="M2130 3625 l0 -205 205 0 205 0 0 205 0 205 -205 0 -205 0 0 -205z" id="226"/>
<path d="M2550 3625 l0 -205 215 0 215 0 0 205 0 205 -215 0 -215 0 0 -205z" id="227"/>
<path d="M2990 3625 l0 -205 205 0 205 0 0 205 0 205 -205 0 -205 0 0 -205z" id="228"/>
<path d="M3410 3625 l0 -205 205 0 205 0 0 205 0 205 -205 0 -205 0 0 -205z" id="229"/>
<path d="M3830 3625 l0 -205 210 0 210 0 0 205 0 205 -210 0 -210 0 0 -205z" id="230"/>
<path d="M4260 3625 l0 -205 205 0 205 0 0 205 0 205 -205 0 -205 0 0 -205z" id="231"/>
<path d="M4680 3625 l0 -205 205 0 205 0 0 205 0 205 -205 0 -205 0 0 -205z" id="232"/>
<path d="M5100 3625 l0 -205 215 0 215 0 0 205 0 205 -215 0 -215 0 0 -205z" id="233"/>
<path d="M5540 3625 l0 -205 205 0 205 0 0 205 0 205 -205 0 -205 0 0 -205z" id="234"/>
<path d="M5960 3625 l0 -205 205 0 205 0 0 205 0 205 -205 0 -205 0 0 -205z" id="235"/>
<path d="M6380 3625 l0 -205 210 0 210 0 0 205 0 205 -210 0 -210 0 0 -205z" id="236"/>
<path d="M6810 3625 l0 -205 205 0 205 0 0 205 0 205 -205 0 -205 0 0 -205z" id="237"/>
<path d="M7230 3625 l0 -205 215 0 215 0 0 205 0 205 -215 0 -215 0 0 -205z" id="238"/>
<path d="M7670 3625 l0 -205 195 0 195 0 0 205 0 205 -195 0 -195 0 0 -205z" id="239"/>
<path d="M8070 3625 l0 -205 215 0 215 0 0 205 0 205 -215 0 -215 0 0 -205z" id="240"/>
<path d="M0 3205 l0 -205 200 0 200 0 0 205 0 205 -200 0 -200 0 0 -205z" id="241"/>
<path d="M410 3205 l0 -205 220 0 220 0 0 205 0 205 -220 0 -220 0 0 -205z" id="242"/>
<path d="M860 3205 l0 -205 205 0 205 0 0 205 0 205 -205 0 -205 0 0 -205z" id="243"/>
<path d="M1280 3205 l0 -205 205 0 205 0 0 205 0 205 -205 0 -205 0 0 -205z" id="244"/>
<path d="M1700 3205 l0 -205 210 0 210 0 0 205 0 205 -210 0 -210 0 0 -205z" id="245"/>
<path d="M2130 3205 l0 -205 205 0 205 0 0 205 0 205 -205 0 -205 0 0 -205z" id="246"/>
<path d="M2550 3205 l0 -205 215 0 215 0 0 205 0 205 -215 0 -215 0 0 -205z" id="247"/>
<path d="M2990 3205 l0 -205 205 0 205 0 0 205 0 205 -205 0 -205 0 0 -205z" id="248"/>
<path d="M3410 3205 l0 -205 205 0 205 0 0 205 0 205 -205 0 -205 0 0 -205z" id="249"/>
<path d="M3830 3205 l0 -205 210 0 210 0 0 205 0 205 -210 0 -210 0 0 -205z" id="250"/>
<path d="M4260 3205 l0 -205 205 0 205 0 0 205 0 205 -205 0 -205 0 0 -205z" id="251"/>
<path d="M4680 3205 l0 -205 205 0 205 0 0 205 0 205 -205 0 -205 0 0 -205z" id="252"/>
<path d="M5100 3205 l0 -205 215 0 215 0 0 205 0 205 -215 0 -215 0 0 -205z" id="253"/>
<path d="M5540 3205 l0 -205 205 0 205 0 0 205 0 205 -205 0 -205 0 0 -205z" id="254"/>
<path d="M5960 3205 l0 -205 205 0 205 0 0 205 0 205 -205 0 -205 0 0 -205z" id="255"/>
<path d="M6380 3205 l0 -205 210 0 210 0 0 205 0 205 -210 0 -210 0 0 -205z" id="256"/>
<path d="M6810 3205 l0 -205 205 0 205 0 0 205 0 205 -205 0 -205 0 0 -205z" id="257"/>
<path d="M7230 3205 l0 -205 215 0 215 0 0 205 0 205 -215 0 -215 0 0 -205z" id="258"/>
<path d="M7670 3205 l0 -205 195 0 195 0 0 205 0 205 -195 0 -195 0 0 -205z" id="259"/>
<path d="M8070 3205 l0 -205 215 0 215 0 0 205 0 205 -215 0 -215 0 0 -205z" id="260"/>
<path d="M0 2775 l0 -215 200 0 200 0 0 215 0 215 -200 0 -200 0 0 -215z" id="261"/>
<path d="M410 2775 l0 -215 220 0 220 0 0 215 0 215 -220 0 -220 0 0 -215z" id="262"/>
<path d="M860 2775 l0 -215 205 0 205 0 0 215 0 215 -205 0 -205 0 0 -215z" id="263"/>
<path d="M1280 2775 l0 -215 205 0 205 0 0 215 0 215 -205 0 -205 0 0 -215z" id="264"/>
<path d="M1700 2775 l0 -215 210 0 210 0 0 215 0 215 -210 0 -210 0 0 -215z" id="265"/>
<path d="M2130 2775 l0 -215 205 0 205 0 0 215 0 215 -205 0 -205 0 0 -215z" id="266"/>
<path d="M2550 2775 l0 -215 215 0 215 0 0 215 0 215 -215 0 -215 0 0 -215z" id="267"/>
<path d="M2990 2775 l0 -215 205 0 205 0 0 215 0 215 -205 0 -205 0 0 -215z" id="268"/>
<path d="M3410 2775 l0 -215 205 0 205 0 0 215 0 215 -205 0 -205 0 0 -215z" id="269"/>
<path d="M3830 2775 l0 -215 210 0 210 0 0 215 0 215 -210 0 -210 0 0 -215z" id="270"/>
<path d="M4260 2775 l0 -215 205 0 205 0 0 215 0 215 -205 0 -205 0 0 -215z" id="271"/>
<path d="M4680 2775 l0 -215 205 0 205 0 0 215 0 215 -205 0 -205 0 0 -215z" id="272"/>
<path d="M5100 2775 l0 -215 215 0 215 0 0 215 0 215 -215 0 -215 0 0 -215z" id="273"/>
<path d="M5540 2775 l0 -215 205 0 205 0 0 215 0 215 -205 0 -205 0 0 -215z" id="274"/>
<path d="M5960 2775 l0 -215 205 0 205 0 0 215 0 215 -205 0 -205 0 0 -215z" id="275"/>
<path d="M6380 2775 l0 -215 210 0 210 0 0 215 0 215 -210 0 -210 0 0 -215z" id="276"/>
<path d="M6810 2775 l0 -215 205 0 205 0 0 215 0 215 -205 0 -205 0 0 -215z" id="277"/>
<path d="M7230 2775 l0 -215 215 0 215 0 0 215 0 215 -215 0 -215 0 0 -215z" id="278"/>
<path d="M7670 2775 l0 -215 195 0 195 0 0 215 0 215 -195 0 -195 0 0 -215z" id="279"/>
<path d="M8070 2775 l0 -215 215 0 215 0 0 215 0 215 -215 0 -215 0 0 -215z" id="280"/>
<path d="M0 2345 l0 -205 200 0 200 0 0 205 0 205 -200 0 -200 0 0 -205z" id="281"/>
<path d="M410 2345 l0 -205 220 0 220 0 0 205 0 205 -220 0 -220 0 0 -205z" id="282"/>
<path d="M860 2345 l0 -205 205 0 205 0 0 205 0 205 -205 0 -205 0 0 -205z" id="283"/>
<path d="M1280 2345 l0 -205 205 0 205 0 0 205 0 205 -205 0 -205 0 0 -205z" id="284"/>
<path d="M1700 2345 l0 -205 210 0 210 0 0 205 0 205 -210 0 -210 0 0 -205z" id="285"/>
<path d="M2130 2345 l0 -205 205 0 205 0 0 205 0 205 -205 0 -205 0 0 -205z" id="286"/>
<path d="M2550 2345 l0 -205 215 0 215 0 0 205 0 205 -215 0 -215 0 0 -205z" id="287"/>
<path d="M2990 2345 l0 -205 205 0 205 0 0 205 0 205 -205 0 -205 0 0 -205z" id="288"/>
<path d="M3410 2345 l0 -205 205 0 205 0 0 205 0 205 -205 0 -205 0 0 -205z" id="289"/>
<path d="M3830 2345 l0 -205 210 0 210 0 0 205 0 205 -210 0 -210 0 0 -205z" id="290"/>
<path d="M4260 2345 l0 -205 205 0 205 0 0 205 0 205 -205 0 -205 0 0 -205z" id="291"/>
<path d="M4680 2345 l0 -205 205 0 205 0 0 205 0 205 -205 0 -205 0 0 -205z" id="292"/>
<path d="M5100 2345 l0 -205 215 0 215 0 0 205 0 205 -215 0 -215 0 0 -205z" id="293"/>
<path d="M5540 2345 l0 -205 205 0 205 0 0 205 0 205 -205 0 -205 0 0 -205z" id="294"/>
<path d="M5960 2345 l0 -205 205 0 205 0 0 205 0 205 -205 0 -205 0 0 -205z" id="295"/>
<path d="M6380 2345 l0 -205 210 0 210 0 0 205 0 205 -210 0 -210 0 0 -205z" id="296"/>
<path d="M6810 2345 l0 -205 205 0 205 0 0 205 0 205 -205 0 -205 0 0 -205z" id="297"/>
<path d="M7230 2345 l0 -205 215 0 215 0 0 205 0 205 -215 0 -215 0 0 -205z" id="298"/>
<path d="M7670 2345 l0 -205 195 0 195 0 0 205 0 205 -195 0 -195 0 0 -205z" id="299"/>
<path d="M8070 2345 l0 -205 215 0 215 0 0 205 0 205 -215 0 -215 0 0 -205z" id="300"/>
<path d="M0 1920 l0 -210 200 0 200 0 0 210 0 210 -200 0 -200 0 0 -210z" id="301"/>
<path d="M410 1920 l0 -210 220 0 220 0 0 210 0 210 -220 0 -220 0 0 -210z" id="302"/>
<path d="M860 1920 l0 -210 205 0 205 0 0 210 0 210 -205 0 -205 0 0 -210z" id="303"/>
<path d="M1280 1920 l0 -210 205 0 205 0 0 210 0 210 -205 0 -205 0 0 -210z" id="304"/>
<path d="M1700 1920 l0 -210 210 0 210 0 0 210 0 210 -210 0 -210 0 0 -210z" id="305"/>
<path d="M2130 1920 l0 -210 205 0 205 0 0 210 0 210 -205 0 -205 0 0 -210z" id="306"/>
<path d="M2550 1920 l0 -210 215 0 215 0 0 210 0 210 -215 0 -215 0 0 -210z" id="307"/>
<path d="M2990 1920 l0 -210 205 0 205 0 0 210 0 210 -205 0 -205 0 0 -210z" id="308"/>
<path d="M3410 1920 l0 -210 205 0 205 0 0 210 0 210 -205 0 -205 0 0 -210z" id="309"/>
<path d="M3830 1920 l0 -210 210 0 210 0 0 210 0 210 -210 0 -210 0 0 -210z" id="310"/>
<path d="M4260 1920 l0 -210 205 0 205 0 0 210 0 210 -205 0 -205 0 0 -210z" id="311"/>
<path d="M4680 1920 l0 -210 205 0 205 0 0 210 0 210 -205 0 -205 0 0 -210z" id="312"/>
<path d="M5100 1920 l0 -210 215 0 215 0 0 210 0 210 -215 0 -215 0 0 -210z" id="313"/>
<path d="M5540 1920 l0 -210 205 0 205 0 0 210 0 210 -205 0 -205 0 0 -210z" id="314"/>
<path d="M5960 1920 l0 -210 205 0 205 0 0 210 0 210 -205 0 -205 0 0 -210z" id="315"/>
<path d="M6380 1920 l0 -210 210 0 210 0 0 210 0 210 -210 0 -210 0 0 -210z" id="316"/>
<path d="M6810 1920 l0 -210 205 0 205 0 0 210 0 210 -205 0 -205 0 0 -210z" id="317"/>
<path d="M7230 1920 l0 -210 215 0 215 0 0 210 0 210 -215 0 -215 0 0 -210z" id="318"/>
<path d="M7670 1920 l0 -210 195 0 195 0 0 210 0 210 -195 0 -195 0 0 -210z" id="319"/>
<path d="M8070 1920 l0 -210 215 0 215 0 0 210 0 210 -215 0 -215 0 0 -210z" id="320"/>
<path d="M0 1495 l0 -205 200 0 200 0 0 205 0 205 -200 0 -200 0 0 -205z" id="321"/>
<path d="M410 1495 l0 -205 220 0 220 0 0 205 0 205 -220 0 -220 0 0 -205z" id="322"/>
<path d="M860 1495 l0 -205 205 0 205 0 0 205 0 205 -205 0 -205 0 0 -205z" id="323"/>
<path d="M1280 1495 l0 -205 205 0 205 0 0 205 0 205 -205 0 -205 0 0 -205z" id="324"/>
<path d="M1700 1495 l0 -205 210 0 210 0 0 205 0 205 -210 0 -210 0 0 -205z" id="325"/>
<path d="M2130 1495 l0 -205 205 0 205 0 0 205 0 205 -205 0 -205 0 0 -205z" id="326"/>
<path d="M2550 1495 l0 -205 215 0 215 0 0 205 0 205 -215 0 -215 0 0 -205z" id="327"/>
<path d="M2990 1495 l0 -205 205 0 205 0 0 205 0 205 -205 0 -205 0 0 -205z" id="328"/>
<path d="M3410 1495 l0 -205 205 0 205 0 0 205 0 205 -205 0 -205 0 0 -205z" id="329"/>
<path d="M3830 1495 l0 -205 210 0 210 0 0 205 0 205 -210 0 -210 0 0 -205z" id="330"/>
<path d="M4260 1495 l0 -205 205 0 205 0 0 205 0 205 -205 0 -205 0 0 -205z" id="331"/>
<path d="M4680 1495 l0 -205 205 0 205 0 0 205 0 205 -205 0 -205 0 0 -205z" id="332"/>
<path d="M5100 1495 l0 -205 215 0 215 0 0 205 0 205 -215 0 -215 0 0 -205z" id="333"/>
<path d="M5540 1495 l0 -205 205 0 205 0 0 205 0 205 -205 0 -205 0 0 -205z" id="334"/>
<path d="M5960 1495 l0 -205 205 0 205 0 0 205 0 205 -205 0 -205 0 0 -205z" id="335"/>
<path d="M6380 1495 l0 -205 210 0 210 0 0 205 0 205 -210 0 -210 0 0 -205z" id="336"/>
<path d="M6810 1495 l0 -205 205 0 205 0 0 205 0 205 -205 0 -205 0 0 -205z" id="337"/>
<path d="M7230 1495 l0 -205 215 0 215 0 0 205 0 205 -215 0 -215 0 0 -205z" id="338"/>
<path d="M7670 1495 l0 -205 195 0 195 0 0 205 0 205 -195 0 -195 0 0 -205z" id="339"/>
<path d="M8070 1495 l0 -205 215 0 215 0 0 205 0 205 -215 0 -215 0 0 -205z" id="340"/>
<path d="M0 1075 l0 -205 200 0 200 0 0 205 0 205 -200 0 -200 0 0 -205z" id="341"/>
<path d="M410 1075 l0 -205 220 0 220 0 0 205 0 205 -220 0 -220 0 0 -205z" id="342"/>
<path d="M860 1075 l0 -205 205 0 205 0 0 205 0 205 -205 0 -205 0 0 -205z" id="343"/>
<path d="M1280 1075 l0 -205 205 0 205 0 0 205 0 205 -205 0 -205 0 0 -205z" id="344"/>
<path d="M1700 1075 l0 -205 210 0 210 0 0 205 0 205 -210 0 -210 0 0 -205z" id="345"/>
<path d="M2130 1075 l0 -205 205 0 205 0 0 205 0 205 -205 0 -205 0 0 -205z" id="346"/>
<path d="M2550 1075 l0 -205 215 0 215 0 0 205 0 205 -215 0 -215 0 0 -205z" id="347"/>
<path d="M2990 1075 l0 -205 205 0 205 0 0 205 0 205 -205 0 -205 0 0 -205z" id="348"/>
<path d="M3410 1075 l0 -205 205 0 205 0 0 205 0 205 -205 0 -205 0 0 -205z" id="349"/>
<path d="M3830 1075 l0 -205 210 0 210 0 0 205 0 205 -210 0 -210 0 0 -205z" id="350"/>
<path d="M4260 1075 l0 -205 205 0 205 0 0 205 0 205 -205 0 -205 0 0 -205z" id="351"/>
<path d="M4680 1075 l0 -205 205 0 205 0 0 205 0 205 -205 0 -205 0 0 -205z" id="352"/>
<path d="M5100 1075 l0 -205 215 0 215 0 0 205 0 205 -215 0 -215 0 0 -205z" id="353"/>
<path d="M5540 1075 l0 -205 205 0 205 0 0 205 0 205 -205 0 -205 0 0 -205z" id="354"/>
<path d="M5960 1075 l0 -205 205 0 205 0 0 205 0 205 -205 0 -205 0 0 -205z" id="355"/>
<path d="M6380 1075 l0 -205 210 0 210 0 0 205 0 205 -210 0 -210 0 0 -205z" id="356"/>
<path d="M6810 1075 l0 -205 205 0 205 0 0 205 0 205 -205 0 -205 0 0 -205z" id="357"/>
<path d="M7230 1075 l0 -205 215 0 215 0 0 205 0 205 -215 0 -215 0 0 -205z" id="358"/>
<path d="M7670 1075 l0 -205 195 0 195 0 0 205 0 205 -195 0 -195 0 0 -205z" id="359"/>
<path d="M8070 1075 l0 -205 215 0 215 0 0 205 0 205 -215 0 -215 0 0 -205z" id="360"/>
<path d="M0 640 l0 -220 200 0 200 0 0 220 0 220 -200 0 -200 0 0 -220z" id="361"/>
<path d="M410 640 l0 -220 220 0 220 0 0 220 0 220 -220 0 -220 0 0 -220z" id="362"/>
<path d="M860 640 l0 -220 205 0 205 0 0 220 0 220 -205 0 -205 0 0 -220z" id="363"/>
<path d="M1280 640 l0 -220 205 0 205 0 0 220 0 220 -205 0 -205 0 0 -220z" id="364"/>
<path d="M1700 640 l0 -220 210 0 210 0 0 220 0 220 -210 0 -210 0 0 -220z" id="365"/>
<path d="M2130 640 l0 -220 205 0 205 0 0 220 0 220 -205 0 -205 0 0 -220z" id="366"/>
<path d="M2550 640 l0 -220 215 0 215 0 0 220 0 220 -215 0 -215 0 0 -220z" id="367"/>
<path d="M2990 640 l0 -220 205 0 205 0 0 220 0 220 -205 0 -205 0 0 -220z" id="368"/>
<path d="M3410 640 l0 -220 205 0 205 0 0 220 0 220 -205 0 -205 0 0 -220z" id="369"/>
<path d="M3830 640 l0 -220 210 0 210 0 0 220 0 220 -210 0 -210 0 0 -220z" id="370"/>
<path d="M4260 640 l0 -220 205 0 205 0 0 220 0 220 -205 0 -205 0 0 -220z" id="371"/>
<path d="M4680 640 l0 -220 205 0 205 0 0 220 0 220 -205 0 -205 0 0 -220z" id="372"/>
<path d="M5100 640 l0 -220 215 0 215 0 0 220 0 220 -215 0 -215 0 0 -220z" id="373"/>
<path d="M5540 640 l0 -220 205 0 205 0 0 220 0 220 -205 0 -205 0 0 -220z" id="374"/>
<path d="M5960 640 l0 -220 205 0 205 0 0 220 0 220 -205 0 -205 0 0 -220z" id="375"/>
<path d="M6380 640 l0 -220 210 0 210 0 0 220 0 220 -210 0 -210 0 0 -220z" id="376"/>
<path d="M6810 640 l0 -220 205 0 205 0 0 220 0 220 -205 0 -205 0 0 -220z" id="377"/>
<path d="M7230 640 l0 -220 215 0 215 0 0 220 0 220 -215 0 -215 0 0 -220z" id="378"/>
<path d="M7670 640 l0 -220 195 0 195 0 0 220 0 220 -195 0 -195 0 0 -220z" id="379"/>
<path d="M8070 640 l0 -220 215 0 215 0 0 220 0 220 -215 0 -215 0 0 -220z" id="380"/>
<path d="M0 205 l0 -205 200 0 200 0 0 205 0 205 -200 0 -200 0 0 -205z" id="381"/>
<path d="M410 205 l0 -205 220 0 220 0 0 205 0 205 -220 0 -220 0 0 -205z" id="382"/>
<path d="M860 205 l0 -205 205 0 205 0 0 205 0 205 -205 0 -205 0 0 -205z" id="383"/>
<path d="M1280 205 l0 -205 205 0 205 0 0 205 0 205 -205 0 -205 0 0 -205z" id="384"/>
<path d="M1700 205 l0 -205 210 0 210 0 0 205 0 205 -210 0 -210 0 0 -205z" id="385"/>
<path d="M2130 205 l0 -205 205 0 205 0 0 205 0 205 -205 0 -205 0 0 -205z" id="386"/>
<path d="M2550 205 l0 -205 215 0 215 0 0 205 0 205 -215 0 -215 0 0 -205z" id="387"/>
<path d="M2990 205 l0 -205 205 0 205 0 0 205 0 205 -205 0 -205 0 0 -205z" id="388"/>
<path d="M3410 205 l0 -205 205 0 205 0 0 205 0 205 -205 0 -205 0 0 -205z" id="389"/>
<path d="M3830 205 l0 -205 210 0 210 0 0 205 0 205 -210 0 -210 0 0 -205z" id="390"/>
<path d="M4260 205 l0 -205 205 0 205 0 0 205 0 205 -205 0 -205 0 0 -205z" id="391"/>
<path d="M4680 205 l0 -205 205 0 205 0 0 205 0 205 -205 0 -205 0 0 -205z" id="392"/>
<path d="M5100 205 l0 -205 215 0 215 0 0 205 0 205 -215 0 -215 0 0 -205z" id="393"/>
<path d="M5540 205 l0 -205 205 0 205 0 0 205 0 205 -205 0 -205 0 0 -205z" id="394"/>
<path d="M5960 205 l0 -205 205 0 205 0 0 205 0 205 -205 0 -205 0 0 -205z" id="395"/>
<path d="M6380 205 l0 -205 210 0 210 0 0 205 0 205 -210 0 -210 0 0 -205z" id="396"/>
<path d="M6810 205 l0 -205 205 0 205 0 0 205 0 205 -205 0 -205 0 0 -205z" id="397"/>
<path d="M7230 205 l0 -205 215 0 215 0 0 205 0 205 -215 0 -215 0 0 -205z" id="398"/>
<path d="M7670 205 l0 -205 195 0 195 0 0 205 0 205 -195 0 -195 0 0 -205z" id="399"/>
<path d="M8070 205 l0 -205 215 0 215 0 0 205 0 205 -215 0 -215 0 0 -205z" id="400"/>
</g>
</svg>