<?xml version="1.0" ?><!DOCTYPE svg  PUBLIC '-//W3C//DTD SVG 20010904//EN'  'http://www.w3.org/TR/2001/REC-SVG-20010904/DTD/svg10.dtd'><svg height="850.000000pt" preserveAspectRatio="xMidYMid meet" version="1.0" viewBox="0 0 850.000000 850.000000" width="850.000000pt" xmlns="http://www.w3.org/2000/svg">
<metadata>
Created by potrace 1.14, written by Peter Selinger 2001-2017
</metadata>
<g fill="#ffffff" stroke="none" transform="translate(0.000000,850.000000) scale(0.100000,-0.100000)">
<path d="M0 8245 l0 -255 260 0 260 0 0 255 0 255 -260 0 -260 0 0 -255z" id="1"/>
<path d="M530 8245 l0 -255 260 0 260 0 0 255 0 255 -260 0 -260 0 0 -255z" id="2"/>
<path d="M1060 8245 l0 -255 265 0 265 0 0 255 0 255 -265 0 -265 0 0 -255z" id="3"/>
<path d="M1600 8245 l0 -255 260 0 260 0 0 255 0 255 -260 0 -260 0 0 -255z" id="4"/>
<path d="M2130 8245 l0 -255 260 0 260 0 0 255 0 255 -260 0 -260 0 0 -255z" id="5"/>
<path d="M2660 8245 l0 -255 265 0 265 0 0 255 0 255 -265 0 -265 0 0 -255z" id="6"/>
<path d="M3200 8245 l0 -255 260 0 260 0 0 255 0 255 -260 0 -260 0 0 -255z" id="7"/>
<path d="M3730 8245 l0 -255 255 0 255 0 0 255 0 255 -255 0 -255 0 0 -255z" id="8"/>
<path d="M4250 8245 l0 -255 260 0 260 0 0 255 0 255 -260 0 -260 0 0 -255z" id="9"/>
<path d="M4780 8245 l0 -255 265 0 265 0 0 255 0 255 -265 0 -265 0 0 -255z" id="10"/>
<path d="M5320 8245 l0 -255 260 0 260 0 0 255 0 255 -260 0 -260 0 0 -255z" id="11"/>
<path d="M5850 8245 l0 -255 260 0 260 0 0 255 0 255 -260 0 -260 0 0 -255z" id="12"/>
<path d="M6380 8245 l0 -255 265 0 265 0 0 255 0 255 -265 0 -265 0 0 -255z" id="13"/>
<path d="M6920 8245 l0 -255 260 0 260 0 0 255 0 255 -260 0 -260 0 0 -255z" id="14"/>
<path d="M7450 8245 l0 -255 260 0 260 0 0 255 0 255 -260 0 -260 0 0 -255z" id="15"/>
<path d="M7980 8245 l0 -255 260 0 260 0 0 255 0 255 -260 0 -260 0 0 -255z" id="16"/>
<path d="M0 7720 l0 -260 260 0 260 0 0 260 0 260 -260 0 -260 0 0 -260z" id="17"/>
<path d="M530 7720 l0 -260 260 0 260 0 0 260 0 260 -260 0 -260 0 0 -260z" id="18"/>
<path d="M1060 7720 l0 -260 265 0 265 0 0 260 0 260 -265 0 -265 0 0 -260z" id="19"/>
<path d="M1600 7720 l0 -260 260 0 260 0 0 260 0 260 -260 0 -260 0 0 -260z" id="20"/>
<path d="M2130 7720 l0 -260 260 0 260 0 0 260 0 260 -260 0 -260 0 0 -260z" id="21"/>
<path d="M2660 7720 l0 -260 265 0 265 0 0 260 0 260 -265 0 -265 0 0 -260z" id="22"/>
<path d="M3200 7720 l0 -260 260 0 260 0 0 260 0 260 -260 0 -260 0 0 -260z" id="23"/>
<path d="M3730 7720 l0 -260 255 0 255 0 0 260 0 260 -255 0 -255 0 0 -260z" id="24"/>
<path d="M4250 7720 l0 -260 260 0 260 0 0 260 0 260 -260 0 -260 0 0 -260z" id="25"/>
<path d="M4780 7720 l0 -260 265 0 265 0 0 260 0 260 -265 0 -265 0 0 -260z" id="26"/>
<path d="M5320 7720 l0 -260 260 0 260 0 0 260 0 260 -260 0 -260 0 0 -260z" id="27"/>
<path d="M5850 7720 l0 -260 260 0 260 0 0 260 0 260 -260 0 -260 0 0 -260z" id="28"/>
<path d="M6380 7720 l0 -260 265 0 265 0 0 260 0 260 -265 0 -265 0 0 -260z" id="29"/>
<path d="M6920 7720 l0 -260 260 0 260 0 0 260 0 260 -260 0 -260 0 0 -260z" id="30"/>
<path d="M7450 7720 l0 -260 260 0 260 0 0 260 0 260 -260 0 -260 0 0 -260z" id="31"/>
<path d="M7980 7720 l0 -260 260 0 260 0 0 260 0 260 -260 0 -260 0 0 -260z" id="32"/>
<path d="M0 7185 l0 -265 260 0 260 0 0 265 0 265 -260 0 -260 0 0 -265z" id="33"/>
<path d="M530 7185 l0 -265 260 0 260 0 0 265 0 265 -260 0 -260 0 0 -265z" id="34"/>
<path d="M1060 7185 l0 -265 265 0 265 0 0 265 0 265 -265 0 -265 0 0 -265z" id="35"/>
<path d="M1600 7185 l0 -265 260 0 260 0 0 265 0 265 -260 0 -260 0 0 -265z" id="36"/>
<path d="M2130 7185 l0 -265 260 0 260 0 0 265 0 265 -260 0 -260 0 0 -265z" id="37"/>
<path d="M2660 7185 l0 -265 265 0 265 0 0 265 0 265 -265 0 -265 0 0 -265z" id="38"/>
<path d="M3200 7185 l0 -265 260 0 260 0 0 265 0 265 -260 0 -260 0 0 -265z" id="39"/>
<path d="M3730 7185 l0 -265 255 0 255 0 0 265 0 265 -255 0 -255 0 0 -265z" id="40"/>
<path d="M4250 7185 l0 -265 260 0 260 0 0 265 0 265 -260 0 -260 0 0 -265z" id="41"/>
<path d="M4780 7185 l0 -265 265 0 265 0 0 265 0 265 -265 0 -265 0 0 -265z" id="42"/>
<path d="M5320 7185 l0 -265 260 0 260 0 0 265 0 265 -260 0 -260 0 0 -265z" id="43"/>
<path d="M5850 7185 l0 -265 260 0 260 0 0 265 0 265 -260 0 -260 0 0 -265z" id="44"/>
<path d="M6380 7185 l0 -265 265 0 265 0 0 265 0 265 -265 0 -265 0 0 -265z" id="45"/>
<path d="M6920 7185 l0 -265 260 0 260 0 0 265 0 265 -260 0 -260 0 0 -265z" id="46"/>
<path d="M7450 7185 l0 -265 260 0 260 0 0 265 0 265 -260 0 -260 0 0 -265z" id="47"/>
<path d="M7980 7185 l0 -265 260 0 260 0 0 265 0 265 -260 0 -260 0 0 -265z" id="48"/>
<path d="M0 6650 l0 -260 260 0 260 0 0 260 0 260 -260 0 -260 0 0 -260z" id="49"/>
<path d="M530 6650 l0 -260 260 0 260 0 0 260 0 260 -260 0 -260 0 0 -260z" id="50"/>
<path d="M1060 6650 l0 -260 265 0 265 0 0 260 0 260 -265 0 -265 0 0 -260z" id="51"/>
<path d="M1600 6650 l0 -260 260 0 260 0 0 260 0 260 -260 0 -260 0 0 -260z" id="52"/>
<path d="M2130 6650 l0 -260 260 0 260 0 0 260 0 260 -260 0 -260 0 0 -260z" id="53"/>
<path d="M2660 6650 l0 -260 265 0 265 0 0 260 0 260 -265 0 -265 0 0 -260z" id="54"/>
<path d="M3200 6650 l0 -260 260 0 260 0 0 260 0 260 -260 0 -260 0 0 -260z" id="55"/>
<path d="M3730 6650 l0 -260 255 0 255 0 0 260 0 260 -255 0 -255 0 0 -260z" id="56"/>
<path d="M4250 6650 l0 -260 260 0 260 0 0 260 0 260 -260 0 -260 0 0 -260z" id="57"/>
<path d="M4780 6650 l0 -260 265 0 265 0 0 260 0 260 -265 0 -265 0 0 -260z" id="58"/>
<path d="M5320 6650 l0 -260 260 0 260 0 0 260 0 260 -260 0 -260 0 0 -260z" id="59"/>
<path d="M5850 6650 l0 -260 260 0 260 0 0 260 0 260 -260 0 -260 0 0 -260z" id="60"/>
<path d="M6380 6650 l0 -260 265 0 265 0 0 260 0 260 -265 0 -265 0 0 -260z" id="61"/>
<path d="M6920 6650 l0 -260 260 0 260 0 0 260 0 260 -260 0 -260 0 0 -260z" id="62"/>
<path d="M7450 6650 l0 -260 260 0 260 0 0 260 0 260 -260 0 -260 0 0 -260z" id="63"/>
<path d="M7980 6650 l0 -260 260 0 260 0 0 260 0 260 -260 0 -260 0 0 -260z" id="64"/>
<path d="M0 6120 l0 -260 260 0 260 0 0 260 0 260 -260 0 -260 0 0 -260z" id="65"/>
<path d="M530 6120 l0 -260 260 0 260 0 0 260 0 260 -260 0 -260 0 0 -260z" id="66"/>
<path d="M1060 6120 l0 -260 265 0 265 0 0 260 0 260 -265 0 -265 0 0 -260z" id="67"/>
<path d="M1600 6120 l0 -260 260 0 260 0 0 260 0 260 -260 0 -260 0 0 -260z" id="68"/>
<path d="M2130 6120 l0 -260 260 0 260 0 0 260 0 260 -260 0 -260 0 0 -260z" id="69"/>
<path d="M2660 6120 l0 -260 265 0 265 0 0 260 0 260 -265 0 -265 0 0 -260z" id="70"/>
<path d="M3200 6120 l0 -260 260 0 260 0 0 260 0 260 -260 0 -260 0 0 -260z" id="71"/>
<path d="M3730 6120 l0 -260 255 0 255 0 0 260 0 260 -255 0 -255 0 0 -260z" id="72"/>
<path d="M4250 6120 l0 -260 260 0 260 0 0 260 0 260 -260 0 -260 0 0 -260z" id="73"/>
<path d="M4780 6120 l0 -260 265 0 265 0 0 260 0 260 -265 0 -265 0 0 -260z" id="74"/>
<path d="M5320 6120 l0 -260 260 0 260 0 0 260 0 260 -260 0 -260 0 0 -260z" id="75"/>
<path d="M5850 6120 l0 -260 260 0 260 0 0 260 0 260 -260 0 -260 0 0 -260z" id="76"/>
<path d="M6380 6120 l0 -260 265 0 265 0 0 260 0 260 -265 0 -265 0 0 -260z" id="77"/>
<path d="M6920 6120 l0 -260 260 0 260 0 0 260 0 260 -260 0 -260 0 0 -260z" id="78"/>
<path d="M7450 6120 l0 -260 260 0 260 0 0 260 0 260 -260 0 -260 0 0 -260z" id="79"/>
<path d="M7980 6120 l0 -260 260 0 260 0 0 260 0 260 -260 0 -260 0 0 -260z" id="80"/>
<path d="M0 5585 l0 -265 260 0 260 0 0 265 0 265 -260 0 -260 0 0 -265z" id="81"/>
<path d="M530 5585 l0 -265 260 0 260 0 0 265 0 265 -260 0 -260 0 0 -265z" id="82"/>
<path d="M1060 5585 l0 -265 265 0 265 0 0 265 0 265 -265 0 -265 0 0 -265z" id="83"/>
<path d="M1600 5585 l0 -265 260 0 260 0 0 265 0 265 -260 0 -260 0 0 -265z" id="84"/>
<path d="M2130 5585 l0 -265 260 0 260 0 0 265 0 265 -260 0 -260 0 0 -265z" id="85"/>
<path d="M2660 5585 l0 -265 265 0 265 0 0 265 0 265 -265 0 -265 0 0 -265z" id="86"/>
<path d="M3200 5585 l0 -265 260 0 260 0 0 265 0 265 -260 0 -260 0 0 -265z" id="87"/>
<path d="M3730 5585 l0 -265 255 0 255 0 0 265 0 265 -255 0 -255 0 0 -265z" id="88"/>
<path d="M4250 5585 l0 -265 260 0 260 0 0 265 0 265 -260 0 -260 0 0 -265z" id="89"/>
<path d="M4780 5585 l0 -265 265 0 265 0 0 265 0 265 -265 0 -265 0 0 -265z" id="90"/>
<path d="M5320 5585 l0 -265 260 0 260 0 0 265 0 265 -260 0 -260 0 0 -265z" id="91"/>
<path d="M5850 5585 l0 -265 260 0 260 0 0 265 0 265 -260 0 -260 0 0 -265z" id="92"/>
<path d="M6380 5585 l0 -265 265 0 265 0 0 265 0 265 -265 0 -265 0 0 -265z" id="93"/>
<path d="M6920 5585 l0 -265 260 0 260 0 0 265 0 265 -260 0 -260 0 0 -265z" id="94"/>
<path d="M7450 5585 l0 -265 260 0 260 0 0 265 0 265 -260 0 -260 0 0 -265z" id="95"/>
<path d="M7980 5585 l0 -265 260 0 260 0 0 265 0 265 -260 0 -260 0 0 -265z" id="96"/>
<path d="M0 5050 l0 -260 260 0 260 0 0 260 0 260 -260 0 -260 0 0 -260z" id="97"/>
<path d="M530 5050 l0 -260 260 0 260 0 0 260 0 260 -260 0 -260 0 0 -260z" id="98"/>
<path d="M1060 5050 l0 -260 265 0 265 0 0 260 0 260 -265 0 -265 0 0 -260z" id="99"/>
<path d="M1600 5050 l0 -260 260 0 260 0 0 260 0 260 -260 0 -260 0 0 -260z" id="100"/>
<path d="M2130 5050 l0 -260 260 0 260 0 0 260 0 260 -260 0 -260 0 0 -260z" id="101"/>
<path d="M2660 5050 l0 -260 265 0 265 0 0 260 0 260 -265 0 -265 0 0 -260z" id="102"/>
<path d="M3200 5050 l0 -260 260 0 260 0 0 260 0 260 -260 0 -260 0 0 -260z" id="103"/>
<path d="M3730 5050 l0 -260 255 0 255 0 0 260 0 260 -255 0 -255 0 0 -260z" id="104"/>
<path d="M4250 5050 l0 -260 260 0 260 0 0 260 0 260 -260 0 -260 0 0 -260z" id="105"/>
<path d="M4780 5050 l0 -260 265 0 265 0 0 260 0 260 -265 0 -265 0 0 -260z" id="106"/>
<path d="M5320 5050 l0 -260 260 0 260 0 0 260 0 260 -260 0 -260 0 0 -260z" id="107"/>
<path d="M5850 5050 l0 -260 260 0 260 0 0 260 0 260 -260 0 -260 0 0 -260z" id="108"/>
<path d="M6380 5050 l0 -260 265 0 265 0 0 260 0 260 -265 0 -265 0 0 -260z" id="109"/>
<path d="M6920 5050 l0 -260 260 0 260 0 0 260 0 260 -260 0 -260 0 0 -260z" id="110"/>
<path d="M7450 5050 l0 -260 260 0 260 0 0 260 0 260 -260 0 -260 0 0 -260z" id="111"/>
<path d="M7980 5050 l0 -260 260 0 260 0 0 260 0 260 -260 0 -260 0 0 -260z" id="112"/>
<path d="M0 4525 l0 -255 260 0 260 0 0 255 0 255 -260 0 -260 0 0 -255z" id="113"/>
<path d="M530 4525 l0 -255 260 0 260 0 0 255 0 255 -260 0 -260 0 0 -255z" id="114"/>
<path d="M1060 4525 l0 -255 265 0 265 0 0 255 0 255 -265 0 -265 0 0 -255z" id="115"/>
<path d="M1600 4525 l0 -255 260 0 260 0 0 255 0 255 -260 0 -260 0 0 -255z" id="116"/>
<path d="M2130 4525 l0 -255 260 0 260 0 0 255 0 255 -260 0 -260 0 0 -255z" id="117"/>
<path d="M2660 4525 l0 -255 265 0 265 0 0 255 0 255 -265 0 -265 0 0 -255z" id="118"/>
<path d="M3200 4525 l0 -255 260 0 260 0 0 255 0 255 -260 0 -260 0 0 -255z" id="119"/>
<path d="M3730 4525 l0 -255 255 0 255 0 0 255 0 255 -255 0 -255 0 0 -255z" id="120"/>
<path d="M4250 4525 l0 -255 260 0 260 0 0 255 0 255 -260 0 -260 0 0 -255z" id="121"/>
<path d="M4780 4525 l0 -255 265 0 265 0 0 255 0 255 -265 0 -265 0 0 -255z" id="122"/>
<path d="M5320 4525 l0 -255 260 0 260 0 0 255 0 255 -260 0 -260 0 0 -255z" id="123"/>
<path d="M5850 4525 l0 -255 260 0 260 0 0 255 0 255 -260 0 -260 0 0 -255z" id="124"/>
<path d="M6380 4525 l0 -255 265 0 265 0 0 255 0 255 -265 0 -265 0 0 -255z" id="125"/>
<path d="M6920 4525 l0 -255 260 0 260 0 0 255 0 255 -260 0 -260 0 0 -255z" id="126"/>
<path d="M7450 4525 l0 -255 260 0 260 0 0 255 0 255 -260 0 -260 0 0 -255z" id="127"/>
<path d="M7980 4525 l0 -255 260 0 260 0 0 255 0 255 -260 0 -260 0 0 -255z" id="128"/>
<path d="M0 4000 l0 -260 260 0 260 0 0 260 0 260 -260 0 -260 0 0 -260z" id="129"/>
<path d="M530 4000 l0 -260 260 0 260 0 0 260 0 260 -260 0 -260 0 0 -260z" id="130"/>
<path d="M1060 4000 l0 -260 265 0 265 0 0 260 0 260 -265 0 -265 0 0 -260z" id="131"/>
<path d="M1600 4000 l0 -260 260 0 260 0 0 260 0 260 -260 0 -260 0 0 -260z" id="132"/>
<path d="M2130 4000 l0 -260 260 0 260 0 0 260 0 260 -260 0 -260 0 0 -260z" id="133"/>
<path d="M2660 4000 l0 -260 265 0 265 0 0 260 0 260 -265 0 -265 0 0 -260z" id="134"/>
<path d="M3200 4000 l0 -260 260 0 260 0 0 260 0 260 -260 0 -260 0 0 -260z" id="135"/>
<path d="M3730 4000 l0 -260 255 0 255 0 0 260 0 260 -255 0 -255 0 0 -260z" id="136"/>
<path d="M4250 4000 l0 -260 260 0 260 0 0 260 0 260 -260 0 -260 0 0 -260z" id="137"/>
<path d="M4780 4000 l0 -260 265 0 265 0 0 260 0 260 -265 0 -265 0 0 -260z" id="138"/>
<path d="M5320 4000 l0 -260 260 0 260 0 0 260 0 260 -260 0 -260 0 0 -260z" id="139"/>
<path d="M5850 4000 l0 -260 260 0 260 0 0 260 0 260 -260 0 -260 0 0 -260z" id="140"/>
<path d="M6380 4000 l0 -260 265 0 265 0 0 260 0 260 -265 0 -265 0 0 -260z" id="141"/>
<path d="M6920 4000 l0 -260 260 0 260 0 0 260 0 260 -260 0 -260 0 0 -260z" id="142"/>
<path d="M7450 4000 l0 -260 260 0 260 0 0 260 0 260 -260 0 -260 0 0 -260z" id="143"/>
<path d="M7980 4000 l0 -260 260 0 260 0 0 260 0 260 -260 0 -260 0 0 -260z" id="144"/>
<path d="M0 3465 l0 -265 260 0 260 0 0 265 0 265 -260 0 -260 0 0 -265z" id="145"/>
<path d="M530 3465 l0 -265 260 0 260 0 0 265 0 265 -260 0 -260 0 0 -265z" id="146"/>
<path d="M1060 3465 l0 -265 265 0 265 0 0 265 0 265 -265 0 -265 0 0 -265z" id="147"/>
<path d="M1600 3465 l0 -265 260 0 260 0 0 265 0 265 -260 0 -260 0 0 -265z" id="148"/>
<path d="M2130 3465 l0 -265 260 0 260 0 0 265 0 265 -260 0 -260 0 0 -265z" id="149"/>
<path d="M2660 3465 l0 -265 265 0 265 0 0 265 0 265 -265 0 -265 0 0 -265z" id="150"/>
<path d="M3200 3465 l0 -265 260 0 260 0 0 265 0 265 -260 0 -260 0 0 -265z" id="151"/>
<path d="M3730 3465 l0 -265 255 0 255 0 0 265 0 265 -255 0 -255 0 0 -265z" id="152"/>
<path d="M4250 3465 l0 -265 260 0 260 0 0 265 0 265 -260 0 -260 0 0 -265z" id="153"/>
<path d="M4780 3465 l0 -265 265 0 265 0 0 265 0 265 -265 0 -265 0 0 -265z" id="154"/>
<path d="M5320 3465 l0 -265 260 0 260 0 0 265 0 265 -260 0 -260 0 0 -265z" id="155"/>
<path d="M5850 3465 l0 -265 260 0 260 0 0 265 0 265 -260 0 -260 0 0 -265z" id="156"/>
<path d="M6380 3465 l0 -265 265 0 265 0 0 265 0 265 -265 0 -265 0 0 -265z" id="157"/>
<path d="M6920 3465 l0 -265 260 0 260 0 0 265 0 265 -260 0 -260 0 0 -265z" id="158"/>
<path d="M7450 3465 l0 -265 260 0 260 0 0 265 0 265 -260 0 -260 0 0 -265z" id="159"/>
<path d="M7980 3465 l0 -265 260 0 260 0 0 265 0 265 -260 0 -260 0 0 -265z" id="160"/>
<path d="M0 2930 l0 -260 260 0 260 0 0 260 0 260 -260 0 -260 0 0 -260z" id="161"/>
<path d="M530 2930 l0 -260 260 0 260 0 0 260 0 260 -260 0 -260 0 0 -260z" id="162"/>
<path d="M1060 2930 l0 -260 265 0 265 0 0 260 0 260 -265 0 -265 0 0 -260z" id="163"/>
<path d="M1600 2930 l0 -260 260 0 260 0 0 260 0 260 -260 0 -260 0 0 -260z" id="164"/>
<path d="M2130 2930 l0 -260 260 0 260 0 0 260 0 260 -260 0 -260 0 0 -260z" id="165"/>
<path d="M2660 2930 l0 -260 265 0 265 0 0 260 0 260 -265 0 -265 0 0 -260z" id="166"/>
<path d="M3200 2930 l0 -260 260 0 260 0 0 260 0 260 -260 0 -260 0 0 -260z" id="167"/>
<path d="M3730 2930 l0 -260 255 0 255 0 0 260 0 260 -255 0 -255 0 0 -260z" id="168"/>
<path d="M4250 2930 l0 -260 260 0 260 0 0 260 0 260 -260 0 -260 0 0 -260z" id="169"/>
<path d="M4780 2930 l0 -260 265 0 265 0 0 260 0 260 -265 0 -265 0 0 -260z" id="170"/>
<path d="M5320 2930 l0 -260 260 0 260 0 0 260 0 260 -260 0 -260 0 0 -260z" id="171"/>
<path d="M5850 2930 l0 -260 260 0 260 0 0 260 0 260 -260 0 -260 0 0 -260z" id="172"/>
<path d="M6380 2930 l0 -260 265 0 265 0 0 260 0 260 -265 0 -265 0 0 -260z" id="173"/>
<path d="M6920 2930 l0 -260 260 0 260 0 0 260 0 260 -260 0 -260 0 0 -260z" id="174"/>
<path d="M7450 2930 l0 -260 260 0 260 0 0 260 0 260 -260 0 -260 0 0 -260z" id="175"/>
<path d="M7980 2930 l0 -260 260 0 260 0 0 260 0 260 -260 0 -260 0 0 -260z" id="176"/>
<path d="M0 2400 l0 -260 260 0 260 0 0 260 0 260 -260 0 -260 0 0 -260z" id="177"/>
<path d="M530 2400 l0 -260 260 0 260 0 0 260 0 260 -260 0 -260 0 0 -260z" id="178"/>
<path d="M1060 2400 l0 -260 265 0 265 0 0 260 0 260 -265 0 -265 0 0 -260z" id="179"/>
<path d="M1600 2400 l0 -260 260 0 260 0 0 260 0 260 -260 0 -260 0 0 -260z" id="180"/>
<path d="M2130 2400 l0 -260 260 0 260 0 0 260 0 260 -260 0 -260 0 0 -260z" id="181"/>
<path d="M2660 2400 l0 -260 265 0 265 0 0 260 0 260 -265 0 -265 0 0 -260z" id="182"/>
<path d="M3200 2400 l0 -260 260 0 260 0 0 260 0 260 -260 0 -260 0 0 -260z" id="183"/>
<path d="M3730 2400 l0 -260 255 0 255 0 0 260 0 260 -255 0 -255 0 0 -260z" id="184"/>
<path d="M4250 2400 l0 -260 260 0 260 0 0 260 0 260 -260 0 -260 0 0 -260z" id="185"/>
<path d="M4780 2400 l0 -260 265 0 265 0 0 260 0 260 -265 0 -265 0 0 -260z" id="186"/>
<path d="M5320 2400 l0 -260 260 0 260 0 0 260 0 260 -260 0 -260 0 0 -260z" id="187"/>
<path d="M5850 2400 l0 -260 260 0 260 0 0 260 0 260 -260 0 -260 0 0 -260z" id="188"/>
<path d="M6380 2400 l0 -260 265 0 265 0 0 260 0 260 -265 0 -265 0 0 -260z" id="189"/>
<path d="M6920 2400 l0 -260 260 0 260 0 0 260 0 260 -260 0 -260 0 0 -260z" id="190"/>
<path d="M7450 2400 l0 -260 260 0 260 0 0 260 0 260 -260 0 -260 0 0 -260z" id="191"/>
<path d="M7980 2400 l0 -260 260 0 260 0 0 260 0 260 -260 0 -260 0 0 -260z" id="192"/>
<path d="M0 1865 l0 -265 260 0 260 0 0 265 0 265 -260 0 -260 0 0 -265z" id="193"/>
<path d="M530 1865 l0 -265 260 0 260 0 0 265 0 265 -260 0 -260 0 0 -265z" id="194"/>
<path d="M1060 1865 l0 -265 265 0 265 0 0 265 0 265 -265 0 -265 0 0 -265z" id="195"/>
<path d="M1600 1865 l0 -265 260 0 260 0 0 265 0 265 -260 0 -260 0 0 -265z" id="196"/>
<path d="M2130 1865 l0 -265 260 0 260 0 0 265 0 265 -260 0 -260 0 0 -265z" id="197"/>
<path d="M2660 1865 l0 -265 265 0 265 0 0 265 0 265 -265 0 -265 0 0 -265z" id="198"/>
<path d="M3200 1865 l0 -265 260 0 260 0 0 265 0 265 -260 0 -260 0 0 -265z" id="199"/>
<path d="M3730 1865 l0 -265 255 0 255 0 0 265 0 265 -255 0 -255 0 0 -265z" id="200"/>
<path d="M4250 1865 l0 -265 260 0 260 0 0 265 0 265 -260 0 -260 0 0 -265z" id="201"/>
<path d="M4780 1865 l0 -265 265 0 265 0 0 265 0 265 -265 0 -265 0 0 -265z" id="202"/>
<path d="M5320 1865 l0 -265 260 0 260 0 0 265 0 265 -260 0 -260 0 0 -265z" id="203"/>
<path d="M5850 1865 l0 -265 260 0 260 0 0 265 0 265 -260 0 -260 0 0 -265z" id="204"/>
<path d="M6380 1865 l0 -265 265 0 265 0 0 265 0 265 -265 0 -265 0 0 -265z" id="205"/>
<path d="M6920 1865 l0 -265 260 0 260 0 0 265 0 265 -260 0 -260 0 0 -265z" id="206"/>
<path d="M7450 1865 l0 -265 260 0 260 0 0 265 0 265 -260 0 -260 0 0 -265z" id="207"/>
<path d="M7980 1865 l0 -265 260 0 260 0 0 265 0 265 -260 0 -260 0 0 -265z" id="208"/>
<path d="M0 1330 l0 -260 260 0 260 0 0 260 0 260 -260 0 -260 0 0 -260z" id="209"/>
<path d="M530 1330 l0 -260 260 0 260 0 0 260 0 260 -260 0 -260 0 0 -260z" id="210"/>
<path d="M1060 1330 l0 -260 265 0 265 0 0 260 0 260 -265 0 -265 0 0 -260z" id="211"/>
<path d="M1600 1330 l0 -260 260 0 260 0 0 260 0 260 -260 0 -260 0 0 -260z" id="212"/>
<path d="M2130 1330 l0 -260 260 0 260 0 0 260 0 260 -260 0 -260 0 0 -260z" id="213"/>
<path d="M2660 1330 l0 -260 265 0 265 0 0 260 0 260 -265 0 -265 0 0 -260z" id="214"/>
<path d="M3200 1330 l0 -260 260 0 260 0 0 260 0 260 -260 0 -260 0 0 -260z" id="215"/>
<path d="M3730 1330 l0 -260 255 0 255 0 0 260 0 260 -255 0 -255 0 0 -260z" id="216"/>
<path d="M4250 1330 l0 -260 260 0 260 0 0 260 0 260 -260 0 -260 0 0 -260z" id="217"/>
<path d="M4780 1330 l0 -260 265 0 265 0 0 260 0 260 -265 0 -265 0 0 -260z" id="218"/>
<path d="M5320 1330 l0 -260 260 0 260 0 0 260 0 260 -260 0 -260 0 0 -260z" id="219"/>
<path d="M5850 1330 l0 -260 260 0 260 0 0 260 0 260 -260 0 -260 0 0 -260z" id="220"/>
<path d="M6380 1330 l0 -260 265 0 265 0 0 260 0 260 -265 0 -265 0 0 -260z" id="221"/>
<path d="M6920 1330 l0 -260 260 0 260 0 0 260 0 260 -260 0 -260 0 0 -260z" id="222"/>
<path d="M7450 1330 l0 -260 260 0 260 0 0 260 0 260 -260 0 -260 0 0 -260z" id="223"/>
<path d="M7980 1330 l0 -260 260 0 260 0 0 260 0 260 -260 0 -260 0 0 -260z" id="224"/>
<path d="M0 800 l0 -260 260 0 260 0 0 260 0 260 -260 0 -260 0 0 -260z" id="225"/>
<path d="M530 800 l0 -260 260 0 260 0 0 260 0 260 -260 0 -260 0 0 -260z" id="226"/>
<path d="M1060 800 l0 -260 265 0 265 0 0 260 0 260 -265 0 -265 0 0 -260z" id="227"/>
<path d="M1600 800 l0 -260 260 0 260 0 0 260 0 260 -260 0 -260 0 0 -260z" id="228"/>
<path d="M2130 800 l0 -260 260 0 260 0 0 260 0 260 -260 0 -260 0 0 -260z" id="229"/>
<path d="M2660 800 l0 -260 265 0 265 0 0 260 0 260 -265 0 -265 0 0 -260z" id="230"/>
<path d="M3200 800 l0 -260 260 0 260 0 0 260 0 260 -260 0 -260 0 0 -260z" id="231"/>
<path d="M3730 800 l0 -260 255 0 255 0 0 260 0 260 -255 0 -255 0 0 -260z" id="232"/>
<path d="M4250 800 l0 -260 260 0 260 0 0 260 0 260 -260 0 -260 0 0 -260z" id="233"/>
<path d="M4780 800 l0 -260 265 0 265 0 0 260 0 260 -265 0 -265 0 0 -260z" id="234"/>
<path d="M5320 800 l0 -260 260 0 260 0 0 260 0 260 -260 0 -260 0 0 -260z" id="235"/>
<path d="M5850 800 l0 -260 260 0 260 0 0 260 0 260 -260 0 -260 0 0 -260z" id="236"/>
<path d="M6380 800 l0 -260 265 0 265 0 0 260 0 260 -265 0 -265 0 0 -260z" id="237"/>
<path d="M6920 800 l0 -260 260 0 260 0 0 260 0 260 -260 0 -260 0 0 -260z" id="238"/>
<path d="M7450 800 l0 -260 260 0 260 0 0 260 0 260 -260 0 -260 0 0 -260z" id="239"/>
<path d="M7980 800 l0 -260 260 0 260 0 0 260 0 260 -260 0 -260 0 0 -260z" id="240"/>
<path d="M0 265 l0 -265 260 0 260 0 0 265 0 265 -260 0 -260 0 0 -265z" id="241"/>
<path d="M530 265 l0 -265 260 0 260 0 0 265 0 265 -260 0 -260 0 0 -265z" id="242"/>
<path d="M1060 265 l0 -265 265 0 265 0 0 265 0 265 -265 0 -265 0 0 -265z" id="243"/>
<path d="M1600 265 l0 -265 260 0 260 0 0 265 0 265 -260 0 -260 0 0 -265z" id="244"/>
<path d="M2130 265 l0 -265 260 0 260 0 0 265 0 265 -260 0 -260 0 0 -265z" id="245"/>
<path d="M2660 265 l0 -265 265 0 265 0 0 265 0 265 -265 0 -265 0 0 -265z" id="246"/>
<path d="M3200 265 l0 -265 260 0 260 0 0 265 0 265 -260 0 -260 0 0 -265z" id="247"/>
<path d="M3730 265 l0 -265 255 0 255 0 0 265 0 265 -255 0 -255 0 0 -265z" id="248"/>
<path d="M4250 265 l0 -265 260 0 260 0 0 265 0 265 -260 0 -260 0 0 -265z" id="249"/>
<path d="M4780 265 l0 -265 265 0 265 0 0 265 0 265 -265 0 -265 0 0 -265z" id="250"/>
<path d="M5320 265 l0 -265 260 0 260 0 0 265 0 265 -260 0 -260 0 0 -265z" id="251"/>
<path d="M5850 265 l0 -265 260 0 260 0 0 265 0 265 -260 0 -260 0 0 -265z" id="252"/>
<path d="M6380 265 l0 -265 265 0 265 0 0 265 0 265 -265 0 -265 0 0 -265z" id="253"/>
<path d="M6920 265 l0 -265 260 0 260 0 0 265 0 265 -260 0 -260 0 0 -265z" id="254"/>
<path d="M7450 265 l0 -265 260 0 260 0 0 265 0 265 -260 0 -260 0 0 -265z" id="255"/>
<path d="M7980 265 l0 -265 260 0 260 0 0 265 0 265 -260 0 -260 0 0 -265z" id="256"/>
</g>
</svg>