<?xml version="1.0" ?><!DOCTYPE svg  PUBLIC '-//W3C//DTD SVG 20010904//EN'  'http://www.w3.org/TR/2001/REC-SVG-20010904/DTD/svg10.dtd'><svg height="850.000000pt" preserveAspectRatio="xMidYMid meet" version="1.0" viewBox="0 0 850.000000 850.000000" width="850.000000pt" xmlns="http://www.w3.org/2000/svg">
<metadata>
Created by potrace 1.14, written by Peter Selinger 2001-2017
</metadata>
<g fill="#ffffff" stroke="none" transform="translate(0.000000,850.000000) scale(0.100000,-0.100000)">
<path d="M0 7861 l0 -640 58 -6 c31 -4 95 -17 142 -29 64 -16 94 -19 117 -13 47 14 83 1 96 -33 9 -23 28 -37 99 -69 49 -23 102 -41 119 -41 39 0 82 -23 103 -54 19 -29 136 -93 136 -74 0 21 -79 172 -115 221 -27 36 -41 47 -53 42 -33 -14 -159 -17 -195 -6 -55 19 -87 48 -87 81 0 35 40 70 81 70 39 0 123 -33 164 -64 18 -14 36 -26 39 -26 3 0 6 21 6 48 0 64 16 115 46 152 69 82 145 -22 96 -132 -11 -25 -36 -63 -56 -85 -31 -35 -34 -42 -22 -58 12 -17 15 -17 48 8 74 57 177 73 235 37 56 -34 56 -102 0 -144 -31 -23 -95 -28 -173 -14 l-41 8 33 -83 c30 -77 35 -84 84 -111 44 -24 56 -27 76 -17 14 6 36 11 50 11 29 0 105 -49 129 -83 14 -20 23 -22 118 -21 56 0 121 6 145 13 36 10 45 18 59 52 16 40 54 69 91 69 11 0 25 7 32 15 7 8 18 15 25 15 7 0 24 9 38 20 14 11 32 20 40 20 18 0 47 32 47 53 0 10 -11 19 -27 23 -117 28 -202 136 -203 256 0 31 4 60 10 63 15 9 87 -32 131 -76 47 -47 76 -107 85 -173 4 -25 10 -46 13 -46 4 0 17 21 29 46 l23 46 -22 86 c-18 71 -21 106 -17 202 5 125 18 167 64 197 24 15 29 15 53 2 44 -25 52 -54 48 -161 l-4 -97 58 53 c103 96 209 125 259 71 28 -30 31 -82 6 -120 -37 -57 -165 -92 -274 -75 -35 6 -66 9 -67 8 -6 -8 -34 -102 -32 -105 2 -2 20 4 40 12 79 33 166 10 205 -54 16 -26 19 -28 37 -15 25 18 79 18 95 -1 7 -8 27 -15 44 -15 69 0 204 -43 345 -109 201 -94 187 -92 195 -29 4 29 2 127 -4 218 -5 91 -10 220 -10 287 l0 123 -40 20 c-37 19 -43 19 -63 5 -12 -8 -29 -15 -38 -15 -22 0 -79 47 -79 65 0 18 -76 28 -158 19 -57 -5 -77 -3 -113 13 -91 41 -159 120 -265 311 -62 112 -70 122 -102 128 -52 10 -70 -16 -99 -137 -25 -107 -45 -142 -92 -160 -17 -7 -30 -5 -49 7 -22 15 -24 21 -19 64 8 70 48 141 109 194 92 80 11 51 -130 -47 -51 -35 -112 -70 -137 -77 -57 -16 -111 -6 -131 25 -14 21 -14 26 0 54 24 45 122 90 221 100 76 7 79 8 50 20 -100 42 -133 71 -120 111 24 75 194 28 265 -75 30 -43 33 -45 80 -45 28 0 50 3 50 8 0 4 -68 73 -152 154 l-153 148 -862 0 -863 0 0 -639z" id="1"/>
<path d="M1906 8375 c137 -129 182 -188 278 -360 67 -122 132 -206 188 -242 39 -26 51 -28 182 -35 78 -4 150 -8 161 -10 19 -3 20 2 19 68 -1 47 -8 86 -22 117 -23 51 -12 47 -172 65 -47 6 -97 15 -111 21 -15 5 -80 69 -145 143 -65 73 -168 184 -228 246 l-109 112 -86 0 -86 0 131 -125z m593 -551 c8 -7 -12 -24 -28 -24 -18 0 -41 18 -41 32 0 7 59 0 69 -8z" id="2"/>
<path d="M2096 8398 c55 -57 153 -163 218 -235 64 -73 118 -133 119 -133 1 -1 42 -7 92 -14 84 -13 91 -13 114 5 29 23 43 24 86 3 32 -15 33 -14 63 15 38 39 76 40 113 5 16 -15 47 -30 71 -35 48 -9 188 -12 188 -4 0 3 -27 46 -61 96 -69 103 -163 222 -258 326 l-66 73 -389 0 -390 0 100 -102z" id="3"/>
<path d="M2857 8466 c15 -18 65 -78 111 -132 46 -55 118 -150 160 -212 64 -95 79 -111 96 -106 34 11 114 53 121 64 11 17 47 12 43 -7 -4 -23 -111 -79 -188 -99 -65 -16 -199 -15 -244 2 -17 6 -18 4 -12 -17 10 -31 44 -238 51 -310 l6 -57 97 -45 c114 -53 145 -62 277 -82 150 -23 183 -48 305 -229 61 -91 127 -228 164 -336 l25 -75 193 -6 c207 -7 308 -19 428 -50 69 -18 85 -28 170 -100 277 -235 427 -428 484 -619 46 -156 40 -355 -15 -467 -48 -99 -108 -133 -236 -133 -134 0 -317 51 -478 133 -66 33 -99 60 -194 156 -107 109 -114 114 -107 81 53 -266 70 -453 70 -760 0 -354 -30 -607 -110 -940 -58 -240 -208 -642 -308 -825 l-33 -60 22 -41 c16 -31 26 -40 36 -33 46 29 110 -5 123 -66 4 -19 18 -36 36 -47 16 -9 32 -27 35 -41 6 -22 9 -23 41 -13 25 8 32 15 27 26 -4 8 -7 38 -8 65 0 49 0 50 33 53 20 2 46 -5 68 -17 l34 -20 0 24 c0 14 9 34 19 44 12 12 17 27 14 40 -9 35 22 71 61 71 39 0 63 -23 72 -68 4 -21 12 -32 23 -32 15 0 17 11 13 90 -5 102 9 140 53 140 33 0 60 -42 88 -139 20 -70 26 -80 37 -66 7 8 24 21 38 28 51 24 123 204 151 378 12 68 21 127 21 131 0 4 -12 8 -27 10 -38 4 -42 28 -5 28 31 0 42 14 42 51 0 16 -5 19 -20 14 -23 -7 -60 2 -60 16 0 5 13 9 28 9 45 0 59 19 66 86 6 56 5 62 -14 67 -28 7 -25 27 5 27 14 0 25 6 25 13 0 6 3 22 6 35 5 16 2 22 -10 22 -22 0 -20 17 3 23 12 3 25 23 36 58 37 113 79 176 220 334 39 44 97 112 127 151 77 97 137 147 237 197 l84 42 121 0 c134 0 148 -4 238 -76 67 -52 111 -63 236 -55 85 5 102 3 102 -9 0 -9 -15 -17 -37 -21 -21 -3 -53 -9 -72 -13 l-35 -7 39 -43 c47 -52 100 -80 166 -88 52 -6 68 -18 51 -35 -8 -8 -27 -8 -64 0 -29 5 -54 9 -56 7 -2 -1 6 -28 17 -58 26 -77 76 -142 133 -177 51 -31 61 -50 28 -50 -17 0 -20 -7 -20 -42 0 -95 76 -349 147 -490 58 -117 110 -276 127 -390 14 -94 11 -170 -13 -318 -6 -36 -11 -88 -11 -116 l0 -51 43 -13 c101 -30 122 -61 67 -101 l-29 -22 24 -29 c32 -37 31 -53 0 -74 -21 -14 -42 -16 -118 -11 -51 3 -105 10 -121 16 -16 7 -31 9 -35 6 -12 -13 17 -38 65 -55 71 -25 137 -65 197 -120 l51 -47 27 58 c30 62 96 141 143 170 27 16 28 20 30 101 3 111 30 180 103 259 l56 59 -16 58 c-20 76 -24 100 -42 287 -8 88 -23 195 -32 238 -15 73 -12 108 7 77 14 -23 38 -174 55 -345 16 -166 40 -295 55 -295 10 0 152 140 252 247 71 77 104 97 211 133 108 37 210 10 263 -69 l25 -39 56 34 c30 18 68 36 85 39 16 4 31 12 34 19 7 19 -53 332 -85 443 -15 54 -53 168 -84 253 -234 647 -314 922 -387 1321 -22 123 -52 262 -66 309 -15 48 -71 172 -129 285 -128 250 -156 322 -255 651 -115 380 -152 468 -248 582 -122 146 -158 197 -202 287 -27 55 -54 126 -61 158 -7 31 -15 57 -19 57 -3 0 -12 -17 -20 -37 -10 -27 -13 -74 -12 -158 4 -170 -25 -267 -104 -355 -109 -121 -283 -119 -392 5 -70 80 -102 197 -102 375 0 235 51 331 283 533 72 63 177 161 232 216 l100 101 -640 0 c-680 0 -683 0 -562 -44 136 -50 254 -209 264 -355 4 -58 2 -70 -19 -102 l-25 -35 37 -27 c99 -71 87 -197 -19 -197 -52 0 -98 39 -143 121 -18 32 -35 59 -38 59 -3 0 -6 -56 -8 -124 l-3 -124 35 -12 c125 -41 200 -190 150 -295 -28 -60 -91 -85 -149 -61 -45 19 -65 64 -65 146 0 33 -3 60 -7 60 -5 0 -20 -23 -35 -50 l-28 -50 7 -148 c5 -130 4 -152 -12 -186 -35 -74 -116 -95 -162 -41 -34 38 -27 86 26 188 23 43 41 80 41 82 0 14 -46 -15 -83 -53 -36 -37 -54 -69 -86 -153 -46 -119 -92 -181 -155 -210 -55 -25 -89 -24 -122 4 -41 36 -27 73 54 147 66 60 67 60 44 76 -73 51 58 176 199 191 l54 5 0 53 c0 44 5 59 31 91 35 44 100 80 160 89 23 3 47 11 52 18 10 12 23 97 16 97 -3 0 -26 -11 -52 -24 -113 -57 -228 -74 -278 -41 -50 32 -20 121 52 151 48 20 90 17 189 -11 48 -14 90 -23 94 -20 10 10 14 255 5 255 -5 0 -36 -23 -69 -51 -101 -84 -191 -115 -255 -89 -41 17 -49 53 -22 90 18 24 20 33 11 58 -7 22 -7 38 4 63 13 33 12 35 -16 62 -27 25 -29 31 -24 78 9 78 71 194 138 261 l57 58 -1165 0 -1165 0 29 -34z m1421 -204 c2 -6 -13 -22 -33 -33 -34 -20 -35 -23 -18 -33 16 -9 83 -11 153 -4 17 2 25 -2 25 -12 0 -10 -16 -18 -45 -24 -25 -5 -47 -11 -49 -13 -3 -2 11 -20 31 -41 58 -61 113 -141 166 -242 60 -113 66 -135 87 -310 17 -139 36 -213 62 -242 9 -10 13 -25 9 -34 -6 -15 -9 -15 -30 5 l-24 23 -16 -34 c-9 -19 -43 -65 -76 -101 -96 -108 -98 -102 31 -123 102 -17 135 -32 116 -51 -4 -3 -73 6 -155 21 -199 35 -191 35 -185 -14 4 -30 2 -40 -8 -40 -21 0 -87 47 -100 71 -7 15 -17 19 -32 15 -12 -3 -29 -1 -37 4 -9 5 -19 5 -26 -1 -9 -7 -19 -4 -32 9 -20 20 -20 20 -69 -4 -65 -34 -84 -29 -104 26 -15 40 -21 46 -54 51 -20 3 -43 13 -52 21 -13 14 -13 19 1 45 15 29 14 31 -16 53 -30 22 -30 24 -13 36 10 8 29 14 41 14 22 0 22 2 -16 83 -51 109 -76 191 -95 312 -9 54 -17 101 -20 103 -2 2 -17 -7 -34 -19 -25 -18 -34 -20 -44 -10 -10 10 -6 16 16 33 32 24 60 75 93 172 33 97 66 148 141 221 56 54 71 63 113 69 34 5 61 2 92 -10 72 -27 99 -27 143 0 42 25 56 27 63 8z m-428 -45 c0 -7 -15 -28 -34 -46 -46 -45 -60 -22 -15 25 35 36 49 42 49 21z m650 -47 c0 -14 -45 -41 -73 -43 -41 -3 -32 15 15 34 53 21 58 22 58 9z m-830 -97 c0 -55 -126 -175 -197 -189 -48 -9 -41 10 10 30 59 22 118 75 148 130 25 48 39 58 39 29z m962 -100 c91 -152 131 -295 131 -478 1 -114 -6 -165 -21 -165 -4 0 -7 69 -7 153 0 127 -4 166 -23 235 -26 98 -65 186 -115 264 -32 50 -36 68 -17 68 3 0 27 -35 52 -77z m-1517 -302 c6 -11 -33 -36 -42 -27 -3 3 -3 12 0 21 7 17 33 20 42 6z m42 -46 c-4 -8 -11 -15 -17 -15 -14 0 -13 27 3 33 16 6 21 1 14 -18z m240 -54 c16 -9 16 -10 2 -16 -9 -3 -42 4 -75 16 -69 25 -68 25 -60 38 6 9 93 -15 133 -38z m2374 -237 c14 -131 33 -264 42 -295 36 -122 122 -189 245 -189 78 0 151 25 232 80 60 41 87 47 59 14 -24 -30 -114 -82 -177 -103 -132 -45 -265 -9 -338 91 -42 56 -62 148 -89 394 -29 275 -28 257 -13 252 9 -3 21 -82 39 -244z m836 84 c-12 -124 -103 -273 -218 -359 -86 -65 -229 -123 -217 -88 2 6 32 22 67 34 182 66 312 227 346 428 10 59 29 46 22 -15z m-1867 -213 c0 -25 -4 -45 -10 -45 -5 0 -10 20 -10 45 0 25 5 45 10 45 6 0 10 -20 10 -45z m1830 -340 c-23 -61 -62 -125 -104 -172 -45 -50 -131 -113 -154 -113 -24 0 -11 19 31 44 64 37 151 135 186 211 17 36 36 63 41 60 6 -3 6 -15 0 -30z m-1633 -214 c39 -27 87 -69 108 -93 65 -75 115 -178 88 -178 -5 0 -21 26 -38 57 -40 77 -130 171 -204 213 -33 19 -61 38 -61 43 0 20 44 2 107 -42z m1035 -172 c68 -116 110 -252 183 -599 54 -255 105 -388 194 -498 55 -67 58 -72 37 -72 -19 0 -98 105 -138 185 -50 99 -82 207 -138 465 -67 308 -112 443 -181 542 -11 14 -19 31 -19 38 0 26 27 0 62 -61z m-657 -497 c16 -124 15 -156 -2 -138 -10 9 -44 258 -38 275 12 31 23 -9 40 -137z m159 -158 c11 -30 6 -165 -10 -241 -30 -145 -99 -279 -192 -375 -74 -77 -79 -55 -7 29 123 144 185 312 185 500 0 95 9 127 24 87z m1636 -64 c0 -16 -23 -60 -32 -60 -11 0 -10 14 4 45 11 25 28 34 28 15z m-738 -85 c6 -75 60 -179 149 -290 106 -132 159 -205 159 -221 0 -27 -17 -14 -52 39 -20 28 -72 97 -117 152 -44 55 -96 129 -115 165 -34 66 -62 169 -52 196 11 30 24 12 28 -41z m-505 -216 c7 -25 75 -163 100 -201 22 -35 8 -50 -18 -18 -25 32 -97 177 -105 213 -7 32 15 39 23 6z m1443 -92 c0 -29 -80 -87 -119 -87 -35 0 -24 16 23 34 24 9 52 28 60 42 18 26 36 32 36 11z m50 -129 c0 -44 -85 -114 -127 -106 -28 5 -20 22 14 29 40 8 60 23 79 61 15 29 34 38 34 16z m-1195 -172 c170 -146 249 -235 303 -341 41 -83 49 -115 72 -315 22 -191 39 -263 70 -303 24 -30 25 -37 6 -37 -21 0 -53 57 -70 124 -9 32 -22 122 -31 200 -17 161 -30 233 -52 284 -42 102 -149 227 -310 364 -46 39 -83 77 -83 85 0 19 10 12 95 -61z m1245 -17 c0 -30 -63 -109 -87 -109 -20 0 -16 14 13 41 14 13 32 36 40 52 14 27 34 37 34 16z m-2440 -133 c0 -3 -50 -53 -111 -113 -187 -182 -230 -256 -283 -489 -38 -165 -76 -291 -112 -372 -34 -77 -48 -56 -17 26 42 110 63 180 94 317 42 183 64 244 121 332 53 83 266 303 293 303 8 0 15 -2 15 -4z m1108 -24 c10 -30 -96 -87 -127 -68 -19 12 1 36 29 36 17 0 37 10 51 25 25 25 40 28 47 7z m-830 -49 c-4 -22 -22 -20 -26 1 -2 10 3 16 13 16 10 0 15 -7 13 -17z m-73 -73 c0 -7 -6 -15 -12 -17 -8 -3 -13 4 -13 17 0 13 5 20 13 18 6 -3 12 -11 12 -18z m2275 -31 c-6 -10 -17 -19 -25 -19 -19 0 -19 9 1 31 21 23 38 14 24 -12z m-3041 -41 c-1 -76 -19 -150 -38 -156 -11 -4 -12 1 -7 19 4 13 10 63 13 112 4 65 9 87 19 87 11 0 14 -16 13 -62z m677 -12 c10 -8 16 -18 12 -22 -11 -10 -60 14 -53 26 8 14 18 13 41 -4z m1602 -299 c14 -109 37 -176 123 -355 87 -183 94 -206 124 -433 29 -212 28 -199 16 -199 -15 0 -21 27 -41 194 -25 201 -43 262 -136 458 -79 167 -114 278 -114 365 0 80 15 64 28 -30z m-2358 -141 c0 -36 -53 -236 -95 -356 -66 -191 -226 -503 -247 -482 -6 6 0 24 16 51 42 66 141 268 181 370 39 100 95 287 115 384 12 57 30 78 30 33z m3095 -128 c35 -109 76 -271 90 -354 7 -45 -10 -73 -20 -32 -3 13 -14 66 -25 118 -11 52 -36 147 -56 210 -43 140 -50 170 -36 170 6 0 27 -50 47 -112z m220 -355 c25 -144 28 -189 10 -171 -10 10 -66 329 -59 339 13 21 22 -9 49 -168z m-1017 111 c7 -2 10 -8 7 -14 -14 -22 -155 -3 -155 21 0 8 118 3 148 -7z m-4 -100 c31 -12 16 -24 -29 -24 -42 0 -54 7 -38 23 8 9 46 9 67 1z m-2328 -205 c-11 -66 -67 -166 -87 -153 -5 3 4 28 20 57 16 29 34 71 41 95 14 55 35 57 26 1z m2408 15 c9 -3 16 -15 16 -25 0 -17 -3 -18 -22 -7 -13 7 -25 14 -27 15 -4 2 8 23 14 23 2 0 10 -3 19 -6z" id="4"/>
<path d="M3945 8211 c-40 -25 -128 -119 -150 -161 -10 -19 -31 -72 -46 -119 -24 -69 -27 -91 -19 -120 5 -20 16 -79 24 -133 9 -53 30 -136 48 -184 l31 -88 19 42 c9 24 17 47 15 51 -1 4 11 35 27 69 28 58 29 64 13 79 -12 13 -19 14 -30 5 -17 -15 -30 -3 -16 14 13 16 2 37 -16 30 -22 -8 -26 6 -8 27 17 18 17 19 0 32 -20 15 -22 35 -3 35 7 0 16 15 20 32 6 32 -3 47 -38 62 -7 3 -4 11 8 20 13 10 17 22 12 39 -8 32 1 38 32 24 20 -9 26 -9 30 1 5 16 32 16 32 0 1 -33 15 -38 65 -22 36 11 74 14 138 10 81 -4 87 -3 87 15 0 21 26 26 33 7 3 -9 12 -6 29 10 28 26 38 21 38 -20 0 -23 4 -28 25 -28 32 0 32 -15 -1 -44 -24 -20 -25 -24 -13 -43 7 -12 22 -24 33 -27 21 -5 21 -5 1 -21 -19 -14 -19 -16 -3 -28 16 -13 16 -15 -4 -31 -13 -12 -19 -26 -15 -42 3 -16 -1 -28 -11 -33 -13 -7 -10 -12 15 -24 67 -35 143 -210 151 -349 2 -49 7 -88 11 -88 26 1 91 146 76 170 -4 6 -15 79 -26 162 -10 84 -26 173 -34 199 -29 87 -133 254 -209 338 -39 42 -142 111 -166 111 -10 0 -37 9 -61 20 -55 25 -105 25 -144 1z" id="5"/>
<path d="M4267 7935 c-18 -13 -18 -14 2 -24 30 -17 39 -13 33 14 -5 29 -10 30 -35 10z" id="6"/>
<path d="M3874 7904 c-2 -27 4 -29 29 -10 24 18 21 34 -5 33 -17 0 -23 -6 -24 -23z" id="7"/>
<path d="M3987 7918 c-29 -10 -28 -10 39 -43 l69 -34 57 39 c51 34 55 39 35 44 -35 9 -169 5 -200 -6z" id="8"/>
<path d="M4180 7869 c-19 -12 -45 -30 -57 -42 l-23 -20 -58 31 c-78 42 -118 45 -143 12 -20 -26 -34 -110 -18 -110 5 0 9 -8 9 -19 0 -28 46 -68 98 -85 81 -26 125 -29 193 -12 96 25 139 75 139 161 0 38 -5 52 -29 76 -35 34 -63 36 -111 8z m90 -49 c29 -29 26 -74 -6 -99 -15 -12 -34 -21 -44 -21 -10 0 -29 9 -44 21 -50 40 -21 119 44 119 17 0 39 -9 50 -20z m-231 -16 c12 -15 21 -34 21 -44 0 -10 -9 -29 -21 -44 -40 -50 -119 -21 -119 44 0 65 79 94 119 44z m111 -105 c0 -18 -33 -69 -45 -69 -8 0 -38 40 -53 73 -2 4 19 7 47 7 30 0 51 -4 51 -11z" id="9"/>
<path d="M4196 7807 c-12 -9 -17 -23 -14 -42 3 -27 7 -30 38 -30 31 0 35 3 38 30 3 26 -17 55 -38 55 -3 0 -14 -6 -24 -13z m38 -26 c3 -5 -1 -14 -8 -20 -16 -13 -32 2 -21 19 8 12 22 13 29 1z" id="10"/>
<path d="M3950 7781 c-17 -34 4 -63 43 -59 29 3 32 6 32 38 0 32 -3 35 -32 38 -24 2 -34 -2 -43 -17z m48 -23 c-6 -18 -28 -21 -28 -4 0 9 7 16 16 16 9 0 14 -5 12 -12z" id="11"/>
<path d="M4273 7628 c-6 -7 -13 -24 -16 -37 -5 -20 -3 -23 19 -18 32 6 40 -9 13 -23 -26 -15 -105 -15 -142 -1 -46 18 -77 14 -77 -8 0 -11 -4 -23 -10 -26 -22 -13 -8 -23 25 -18 19 3 35 3 35 1 0 -3 -11 -18 -25 -34 -14 -16 -25 -33 -25 -37 0 -5 20 -5 45 -1 48 7 53 1 30 -30 -23 -30 -18 -36 29 -36 38 0 48 5 72 33 15 17 30 31 33 29 12 -6 -1 -37 -27 -64 l-26 -28 38 0 c43 0 96 44 96 79 0 11 5 23 10 26 18 11 21 -20 5 -64 -18 -53 -18 -51 -2 -51 8 0 24 11 37 25 36 38 34 114 -6 191 -39 78 -106 124 -131 92z m117 -133 c0 -16 -6 -25 -15 -25 -9 0 -15 9 -15 25 0 16 6 25 15 25 9 0 15 -9 15 -25z m-90 -14 c0 -11 -4 -23 -10 -26 -6 -4 -10 5 -10 19 0 14 5 26 10 26 6 0 10 -9 10 -19z m-94 -37 c-13 -9 -23 -11 -30 -4 -7 7 -3 15 10 24 13 10 22 11 29 5 7 -7 4 -15 -9 -25z" id="12"/>
<path d="M3922 7569 c-12 -28 -20 -55 -17 -59 3 -5 -3 -23 -13 -42 -13 -22 -19 -52 -18 -88 1 -54 1 -55 31 -55 21 0 31 -5 33 -20 3 -10 11 -29 19 -42 13 -19 18 -20 39 -11 14 6 22 16 20 22 -3 6 -12 36 -21 66 -9 30 -21 68 -26 85 -5 18 -5 33 0 38 6 6 7 31 4 57 -3 27 -1 56 6 68 7 13 8 22 2 22 -5 0 -16 2 -24 5 -10 4 -20 -10 -35 -46z" id="13"/>
<path d="M4175 7595 c-43 -10 -47 -12 -25 -18 41 -11 70 -8 77 8 8 22 4 23 -52 10z" id="14"/>
<path d="M4005 7577 c-20 -28 -15 -30 28 -8 36 18 36 19 12 24 -18 3 -30 -2 -40 -16z" id="15"/>
<path d="M4002 7453 c6 -93 31 -173 54 -173 8 0 14 -9 14 -19 0 -14 9 -20 33 -22 52 -6 74 1 92 28 16 24 16 26 -3 43 -11 10 -32 20 -48 22 -24 2 -29 8 -32 35 -3 30 -5 31 -39 26 l-36 -6 6 36 c4 27 2 37 -10 41 -11 5 -14 14 -10 35 5 21 2 31 -10 35 -14 6 -15 -4 -11 -81z" id="16"/>
<path d="M4438 7340 c-24 -43 -108 -70 -108 -36 0 23 -71 0 -97 -32 -29 -34 -29 -38 1 -46 14 -3 31 -12 38 -19 7 -8 35 -25 62 -38 55 -28 69 -48 37 -56 -12 -3 -21 -8 -21 -12 0 -13 24 -31 40 -31 22 1 76 98 84 152 7 47 -2 148 -13 148 -3 0 -14 -14 -23 -30z" id="17"/>
<path d="M3900 7282 c0 -20 -3 -22 -40 -16 -48 8 -51 0 -10 -21 30 -15 44 -50 16 -39 -8 3 -19 -3 -26 -15 -9 -18 -7 -22 15 -31 15 -6 36 -10 49 -10 18 0 24 -9 34 -45 8 -29 18 -45 27 -45 23 0 87 35 109 59 24 26 38 18 30 -17 -5 -26 -5 -26 11 -7 16 20 16 20 34 -3 17 -23 18 -23 36 -6 18 18 18 18 29 -1 21 -37 75 -90 83 -82 4 5 -2 25 -14 46 -25 43 -21 57 11 36 31 -22 40 -18 22 10 -16 24 -16 26 6 34 22 8 21 9 -16 25 -21 9 -46 15 -55 14 -10 -2 -15 3 -13 13 4 29 -80 40 -114 14 -25 -19 -34 -19 -34 1 0 11 -6 14 -20 9 -16 -5 -20 -2 -20 14 0 26 -20 27 -53 1 -28 -22 -57 -18 -57 9 0 9 -9 30 -20 46 -18 28 -20 28 -20 7z" id="18"/>
<path d="M6440 8375 c-69 -69 -179 -173 -246 -231 -225 -196 -260 -270 -252 -535 5 -158 18 -212 70 -287 35 -51 104 -98 156 -107 80 -13 180 40 233 124 48 75 60 131 60 279 -1 131 0 136 35 220 20 48 63 141 97 207 55 108 72 131 166 229 58 60 136 135 174 167 l68 59 -218 0 -218 0 -125 -125z m249 -86 c-29 -23 -39 -24 -39 -4 0 18 53 48 59 33 2 -6 -7 -19 -20 -29z m-206 -285 c3 -4 -11 -27 -33 -51 -21 -25 -46 -67 -55 -94 -17 -50 -35 -65 -35 -29 0 29 35 99 71 143 30 37 40 43 52 31z m-143 -317 c0 -69 -75 -277 -101 -277 -13 0 -10 13 25 95 14 33 33 95 42 138 18 80 34 101 34 44z m-136 -343 c9 -3 13 -10 10 -15 -7 -11 -64 -12 -64 -1 0 21 24 28 54 16z" id="19"/>
<path d="M6970 8426 c-47 -40 -130 -120 -186 -177 -89 -92 -107 -118 -162 -227 l-63 -122 11 -63 c21 -119 73 -243 140 -336 l33 -44 18 73 c12 45 40 111 74 169 74 131 84 157 106 288 31 184 83 319 175 451 l43 62 -52 0 c-50 0 -55 -3 -137 -74z" id="20"/>
<path d="M7150 8425 c-99 -144 -142 -259 -179 -473 -16 -94 -26 -124 -67 -199 -104 -192 -109 -202 -113 -280 -3 -71 -2 -74 31 -111 98 -109 158 -233 234 -488 31 -104 58 -190 59 -192 2 -2 49 43 106 100 286 285 631 415 974 367 63 -8 156 -33 288 -76 16 -5 17 33 17 711 l0 716 -376 0 -376 0 7 -47 c4 -27 8 -49 8 -49 1 -1 31 -9 67 -18 95 -25 148 -59 172 -112 16 -38 17 -50 8 -79 -21 -63 -83 -84 -133 -45 -14 11 -37 50 -51 88 -37 95 -49 109 -42 47 4 -27 9 -99 13 -158 l6 -108 67 -34 c113 -57 166 -143 141 -227 -13 -43 -35 -58 -86 -58 -54 0 -79 33 -105 141 l-23 91 -18 -51 c-9 -28 -27 -65 -40 -82 l-22 -31 22 -90 c15 -58 20 -103 16 -127 -20 -121 -132 -169 -172 -74 -20 48 -5 120 37 187 31 49 30 51 -16 37 -16 -5 -41 -12 -56 -15 -21 -5 -27 -13 -33 -46 -8 -49 -40 -98 -84 -127 -115 -77 -225 59 -135 166 l24 29 -50 32 c-169 108 -213 302 -88 381 78 48 188 -11 188 -101 0 -83 -52 -130 -109 -99 -17 10 -27 25 -29 44 l-3 30 13 -25 c9 -17 23 -26 46 -28 29 -3 34 1 48 33 28 68 -13 135 -84 135 -73 0 -112 -44 -112 -126 0 -60 23 -110 73 -162 74 -76 100 -87 203 -87 60 0 96 -4 106 -13 13 -10 26 -10 62 -1 57 14 64 23 32 44 -13 9 -29 29 -36 45 -31 75 26 156 132 189 l63 19 -2 79 c-1 43 -7 115 -13 161 l-12 82 -35 -57 c-19 -32 -42 -66 -51 -77 -61 -67 -182 -59 -212 14 -34 82 61 153 236 175 l51 6 -8 42 c-4 23 -8 45 -9 50 0 4 -116 7 -259 7 l-259 0 -52 -75z" id="21"/>
<path d="M5131 8434 c-80 -74 -136 -181 -136 -263 l0 -56 50 2 c44 2 54 7 85 42 85 94 137 273 92 314 -10 10 -21 17 -25 17 -3 0 -33 -25 -66 -56z" id="22"/>
<path d="M5280 8429 c0 -6 24 -72 54 -148 29 -75 61 -158 71 -186 52 -142 153 -137 143 8 -8 117 -91 244 -203 308 -55 32 -65 34 -65 18z" id="23"/>
<path d="M5251 8334 c-7 -26 -19 -60 -27 -76 -9 -17 -13 -32 -11 -35 3 -2 23 5 45 16 l40 21 -15 57 c-8 32 -16 59 -18 61 -1 1 -8 -18 -14 -44z" id="24"/>
<path d="M7665 8365 c-5 -1 -36 -8 -68 -15 -71 -14 -127 -58 -127 -99 0 -69 102 -91 160 -36 33 31 90 121 90 143 0 11 -30 15 -55 7z" id="25"/>
<path d="M7815 8331 c8 -16 24 -54 35 -84 32 -86 75 -113 117 -71 21 21 24 32 20 61 -4 20 -14 45 -24 56 -22 25 -110 67 -141 67 -22 0 -22 -1 -7 -29z" id="26"/>
<path d="M1663 8303 c-4 -10 3 -24 19 -38 30 -26 156 -68 189 -63 23 3 23 3 -9 39 -58 66 -183 105 -199 62z" id="27"/>
<path d="M5224 8188 c-17 -13 -51 -38 -75 -57 -24 -18 -57 -38 -72 -43 -29 -11 -57 -53 -57 -86 0 -11 8 -30 19 -43 17 -21 21 -22 49 -10 17 7 49 33 71 56 52 57 127 205 104 205 -5 0 -22 -10 -39 -22z" id="28"/>
<path d="M5260 8116 l-45 -92 58 0 59 1 -6 66 c-13 127 -15 128 -66 25z" id="29"/>
<path d="M5347 8130 c9 -84 17 -105 40 -108 21 -3 21 -3 -3 60 -41 105 -43 107 -37 48z" id="30"/>
<path d="M1684 8150 c-109 -16 -204 -79 -173 -116 15 -18 80 -18 126 1 33 14 173 112 173 121 0 6 -67 3 -126 -6z" id="31"/>
<path d="M1885 8092 c-63 -61 -108 -186 -75 -207 17 -10 47 4 64 30 14 21 60 204 53 211 -2 2 -20 -13 -42 -34z" id="32"/>
<path d="M2817 8033 c-12 -11 -7 -23 7 -17 20 8 52 -31 72 -85 14 -38 18 -108 24 -421 5 -206 9 -425 9 -487 l1 -111 31 -11 c44 -15 52 -14 44 7 -4 9 -14 178 -21 375 -17 471 -45 677 -101 740 -16 17 -54 23 -66 10z" id="33"/>
<path d="M2680 7997 c55 -27 98 -175 78 -270 -9 -45 -12 -48 -34 -43 -29 8 -32 -9 -5 -24 56 -30 94 20 95 125 1 117 -64 225 -134 225 l-25 0 25 -13z" id="34"/>
<path d="M5205 7987 c-16 -7 -49 -25 -72 -40 -31 -22 -51 -28 -80 -25 -33 3 -39 0 -47 -25 -13 -36 2 -50 53 -50 54 0 134 41 201 102 l55 50 -40 0 c-22 0 -53 -6 -70 -12z" id="35"/>
<path d="M5370 7985 c0 -2 24 -46 53 -97 43 -75 61 -97 92 -112 34 -17 41 -18 64 -5 20 11 27 24 29 53 3 33 -2 43 -39 78 -46 44 -134 88 -174 88 -14 0 -25 -2 -25 -5z" id="36"/>
<path d="M7710 7970 c-71 -24 -110 -66 -110 -119 0 -74 76 -99 117 -38 30 43 55 119 51 151 l-3 25 -55 -19z" id="37"/>
<path d="M2790 7977 c0 -2 10 -23 22 -48 19 -37 23 -61 24 -148 l0 -105 28 -9 c15 -5 29 -7 30 -6 10 11 -15 241 -29 277 -15 36 -21 42 -46 42 -16 0 -29 -1 -29 -3z" id="38"/>
<path d="M7820 7962 c0 -9 11 -60 25 -112 16 -65 31 -101 46 -112 66 -54 129 36 84 121 -18 36 -88 97 -126 110 -25 8 -29 7 -29 -7z" id="39"/>
<path d="M5039 7715 c-14 -8 -32 -28 -39 -45 -11 -27 -11 -34 2 -46 24 -25 90 -28 149 -9 63 21 153 64 146 71 -2 3 -35 13 -73 24 -80 23 -148 25 -185 5z" id="40"/>
<path d="M7667 7688 c-61 -80 -83 -171 -51 -216 19 -28 45 -28 71 1 45 49 53 96 32 185 -16 65 -23 69 -52 30z" id="41"/>
<path d="M7352 7693 c-38 -18 -62 -58 -62 -103 0 -70 90 -96 148 -42 27 25 62 109 62 149 0 19 -107 17 -148 -4z" id="42"/>
<path d="M5353 7573 c4 -38 7 -99 7 -136 0 -59 3 -71 25 -92 48 -49 125 -20 145 55 21 79 -28 178 -111 220 -67 35 -73 30 -66 -47z" id="43"/>
<path d="M1886 7576 c-23 -35 -39 -158 -31 -235 7 -74 24 -152 35 -164 10 -11 55 102 70 175 6 32 12 91 13 132 1 60 -2 79 -17 95 -25 28 -50 26 -70 -3z" id="44"/>
<path d="M3006 7383 c9 -348 12 -419 24 -465 l12 -47 67 -15 c148 -34 221 -40 463 -41 135 0 249 3 252 6 9 9 -50 171 -92 254 -40 80 -117 198 -174 266 -45 56 -86 74 -199 89 -100 13 -189 41 -281 86 -37 19 -69 34 -72 34 -2 0 -2 -75 0 -167z" id="45"/>
<path d="M5203 7504 c-23 -9 -58 -33 -78 -55 -31 -35 -36 -46 -33 -82 3 -46 15 -52 58 -31 26 13 81 80 120 147 l22 37 -24 -1 c-12 0 -42 -7 -65 -15z" id="46"/>
<path d="M2187 7476 c-72 -26 -193 -133 -173 -154 4 -4 47 -7 94 -7 70 1 95 5 129 23 71 37 93 92 53 132 -23 23 -50 25 -103 6z" id="47"/>
<path d="M771 7395 c-23 -30 -42 -111 -35 -146 12 -53 13 -53 44 -24 38 37 60 84 60 132 0 64 -33 82 -69 38z" id="48"/>
<path d="M5177 7273 c-59 -98 -77 -143 -77 -188 0 -66 78 -74 124 -12 19 26 21 41 20 144 -1 63 -6 119 -11 124 -5 5 -28 -22 -56 -68z" id="49"/>
<path d="M1604 7254 c9 -69 53 -143 105 -176 58 -37 71 -36 71 5 -1 65 -69 170 -131 203 -46 23 -52 19 -45 -32z" id="50"/>
<path d="M462 7271 c-24 -14 -9 -54 27 -75 37 -21 146 -29 186 -13 19 8 19 9 -5 28 -67 54 -171 84 -208 60z" id="51"/>
<path d="M4947 7266 c-83 -30 -143 -92 -122 -125 9 -16 52 -13 88 5 32 17 139 109 145 125 5 14 -68 10 -111 -5z" id="52"/>
<path d="M2008 7186 c-65 -23 -162 -121 -136 -138 31 -19 78 -6 222 63 81 39 82 43 24 69 -50 23 -61 23 -110 6z" id="53"/>
<path d="M0 7159 c0 -22 8 -26 103 -48 56 -13 137 -36 180 -52 l78 -28 -3 32 c-2 25 -10 36 -38 49 -49 23 -180 56 -256 64 -63 7 -64 6 -64 -17z" id="54"/>
<path d="M885 7161 c-52 -23 -72 -47 -58 -69 14 -22 75 -40 141 -41 46 -1 57 3 83 28 35 36 36 45 4 76 -20 20 -34 25 -77 25 -29 0 -71 -9 -93 -19z" id="55"/>
<path d="M340 7151 c0 -5 8 -12 19 -16 14 -4 20 -19 25 -57 7 -49 33 -115 42 -105 6 6 -36 159 -48 175 -12 14 -38 16 -38 3z" id="56"/>
<path d="M4888 7097 c-115 -77 -170 -132 -166 -165 2 -21 9 -28 32 -30 46 -6 74 6 121 49 31 28 53 62 74 114 17 40 31 76 31 79 0 13 -18 3 -92 -47z" id="57"/>
<path d="M7960 7140 c-279 -27 -589 -196 -786 -428 l-53 -62 53 -156 c29 -85 56 -157 59 -161 4 -3 31 6 61 21 64 31 129 103 151 167 30 85 82 114 142 79 46 -27 53 -26 86 16 48 60 92 64 145 14 l23 -22 62 23 c45 17 76 38 117 79 65 66 199 140 253 140 42 0 87 -33 87 -64 0 -18 -19 -34 -91 -77 -111 -65 -178 -135 -240 -250 -27 -50 -58 -92 -76 -104 -30 -20 -30 -21 -37 -135 -4 -63 -13 -169 -21 -235 -8 -66 -15 -155 -15 -198 0 -70 3 -81 29 -118 47 -65 54 -121 46 -393 -4 -133 -4 -256 0 -274 5 -26 17 -38 58 -59 80 -39 204 -172 249 -263 36 -74 68 -177 68 -219 0 -31 28 -38 46 -12 10 14 26 21 48 21 21 0 40 8 54 23 l22 23 0 1266 0 1267 -54 20 c-157 59 -340 85 -486 71z" id="58"/>
<path d="M2294 7095 c13 -19 29 -63 35 -97 19 -103 24 -340 12 -553 -24 -410 -25 -457 -8 -495 l15 -35 16 36 c27 65 40 214 40 464 -1 195 -5 267 -23 385 -29 192 -47 266 -72 301 -29 41 -43 36 -15 -6z" id="59"/>
<path d="M2130 7091 c-13 -25 -13 -91 1 -144 11 -46 63 -117 76 -104 4 5 0 13 -9 18 -28 16 -53 98 -53 176 0 40 -1 73 -2 73 -1 0 -7 -9 -13 -19z" id="60"/>
<path d="M0 6635 l0 -462 38 -25 c72 -48 146 -124 304 -311 270 -318 430 -483 658 -678 234 -200 572 -409 713 -440 55 -12 58 -11 73 9 10 15 27 22 61 24 l46 3 19 55 c68 200 174 342 303 406 63 31 82 36 145 36 95 0 177 -39 248 -117 68 -74 97 -128 147 -273 3 -8 22 -3 64 18 124 63 247 47 351 -47 50 -44 170 -214 170 -239 0 -7 5 -16 10 -19 15 -9 100 21 133 48 25 20 28 29 30 94 3 60 7 77 27 98 13 14 18 25 12 25 -21 0 -13 50 13 75 13 14 28 25 32 25 5 0 7 20 5 45 -9 108 83 198 216 212 26 3 42 10 42 18 0 18 39 45 63 45 11 0 28 11 39 25 22 28 63 33 92 12 15 -11 24 -11 53 2 l35 16 -6 90 c-7 107 -27 247 -58 404 -24 123 -20 116 -133 245 -112 128 -266 235 -361 250 -23 4 -150 9 -282 10 l-240 3 -6 -81 c-15 -223 -17 -300 -6 -397 13 -116 3 -248 -27 -366 -19 -78 -36 -80 -75 -7 -48 89 -59 184 -65 562 l-5 343 -67 43 c-36 23 -115 87 -175 142 -130 118 -209 185 -213 180 -2 -2 1 -76 6 -164 16 -250 -8 -580 -48 -647 -24 -42 -46 -43 -68 -3 -22 39 -23 169 -5 423 7 88 12 228 12 312 l0 153 -35 17 c-32 15 -36 15 -54 -1 -18 -16 -22 -16 -49 -2 -17 9 -34 20 -37 26 -18 29 -97 -6 -175 -77 l-52 -48 22 -64 c27 -82 37 -190 21 -230 -7 -16 -25 -34 -40 -41 -72 -29 -138 65 -75 107 19 12 24 12 39 -4 17 -17 18 -15 13 32 -3 28 -11 63 -17 78 -11 27 -11 27 -41 12 -17 -9 -40 -13 -54 -9 -18 4 -25 1 -29 -15 -3 -12 -16 -22 -33 -26 -41 -8 -100 -26 -112 -34 -14 -9 2 -236 28 -391 11 -69 25 -215 30 -325 6 -110 15 -288 21 -395 15 -262 -1 -346 -74 -390 -37 -23 -56 -25 -92 -8 -42 19 -58 61 -46 116 14 65 42 406 48 592 3 108 0 200 -12 305 -9 83 -19 222 -22 310 l-6 160 -66 2 c-38 1 -100 12 -146 27 -51 16 -83 22 -89 16 -6 -6 -23 -10 -39 -10 l-30 0 6 -137 c3 -76 13 -176 22 -223 32 -161 3 -310 -64 -327 -47 -12 -81 76 -61 158 14 58 15 95 5 354 l-8 200 -28 33 c-16 18 -31 45 -35 60 -11 50 -13 54 -32 47 -63 -27 -118 -5 -160 64 -26 41 -42 52 -145 104 -83 41 -127 57 -156 57 -33 0 -44 5 -62 29 -18 24 -45 37 -143 69 -66 22 -151 47 -188 55 l-68 15 0 -463z m3381 -1325 c25 -14 49 -62 49 -101 0 -43 -56 -99 -100 -99 -66 0 -109 43 -110 108 0 60 41 102 100 102 23 0 50 -5 61 -10z" id="61"/>
<path d="M3281 5296 c-55 -30 -65 -90 -22 -138 23 -26 36 -32 65 -31 65 2 106 58 85 120 -17 53 -78 77 -128 49z" id="62"/>
<path d="M2168 7072 c-7 -27 10 -129 27 -161 10 -19 31 -34 70 -48 l56 -21 -7 71 c-3 40 -14 95 -23 122 l-16 50 -51 3 c-44 3 -52 0 -56 -16z" id="63"/>
<path d="M2360 7075 c0 -11 50 -279 53 -281 77 -61 142 -116 222 -189 119 -110 182 -158 246 -191 97 -48 146 -56 445 -63 l280 -7 75 -35 c135 -65 217 -141 461 -429 146 -174 201 -221 322 -280 233 -113 481 -148 576 -80 67 48 106 185 97 345 -15 267 -150 479 -483 761 -108 91 -113 94 -195 113 -152 36 -248 42 -677 40 -446 -1 -537 5 -701 47 -106 28 -265 91 -400 158 -123 62 -321 118 -321 91z m513 -524 c117 -79 205 -99 506 -111 132 -6 241 -15 280 -25 74 -18 182 -68 207 -97 18 -19 17 -19 -9 -9 -14 6 -43 19 -64 29 -106 54 -181 67 -498 82 -263 13 -352 40 -493 153 -67 52 -182 179 -182 199 0 7 46 -33 103 -88 56 -56 124 -115 150 -133z m1299 -508 c31 -29 35 -43 15 -43 -12 0 -57 51 -57 65 0 11 15 4 42 -22z m668 -158 c-13 -16 -71 -28 -94 -19 -29 11 -17 24 22 24 20 0 44 4 52 9 19 13 34 3 20 -14z m-500 -35 c61 -96 186 -188 280 -206 17 -4 30 -13 30 -21 0 -41 -182 47 -259 125 -49 48 -101 124 -101 147 0 18 22 -2 50 -45z m620 11 c0 -6 -10 -17 -22 -25 -25 -18 -98 -22 -98 -6 0 6 12 10 28 10 15 1 38 7 52 15 30 17 40 18 40 6z" id="64"/>
<path d="M1994 7026 c-146 -71 -221 -123 -228 -158 -9 -48 28 -178 52 -178 4 0 47 36 97 81 92 83 148 119 186 119 16 0 20 4 14 17 -8 22 -23 98 -27 136 l-3 28 -91 -45z" id="65"/>
<path d="M444 7028 c3 -17 7 -32 9 -33 11 -9 254 -125 260 -125 5 0 -2 18 -14 40 -19 34 -38 47 -136 95 -63 30 -117 55 -120 55 -3 0 -3 -14 1 -32z" id="66"/>
<path d="M680 6983 c0 -5 9 -18 20 -28 11 -10 20 -14 20 -8 0 5 -9 18 -20 28 -11 10 -20 14 -20 8z" id="67"/>
<path d="M801 6847 c18 -37 32 -49 87 -76 62 -31 67 -32 79 -15 7 10 13 23 13 29 0 8 -179 105 -195 105 -3 0 5 -20 16 -43z" id="68"/>
<path d="M1722 6873 c-6 -12 -12 -48 -12 -80 0 -103 58 -182 116 -159 17 7 16 9 -8 22 -40 21 -69 86 -77 168 -6 63 -8 69 -19 49z" id="69"/>
<path d="M751 6873 c-1 -7 10 -37 23 -67 26 -59 62 -90 98 -84 20 4 17 7 -19 22 -36 15 -47 27 -72 79 -16 34 -30 57 -30 50z" id="70"/>
<path d="M1663 6844 c-27 -42 -30 -141 -5 -197 21 -46 55 -68 75 -48 7 7 2 27 -19 68 -24 48 -29 70 -29 131 0 39 -1 72 -2 72 -2 0 -10 -12 -20 -26z" id="71"/>
<path d="M1577 6823 c-22 -26 -46 -138 -57 -272 -10 -120 0 -331 22 -506 23 -178 10 -521 -33 -878 -10 -79 -9 -90 7 -108 26 -29 75 -25 106 9 41 42 52 104 44 260 -3 75 -10 247 -16 382 -9 244 -15 301 -47 487 -24 140 -26 562 -2 589 27 31 31 54 10 54 -10 0 -25 -8 -34 -17z" id="72"/>
<path d="M1043 6800 c-56 -33 -78 -106 -52 -164 13 -28 39 -43 39 -22 0 7 -7 19 -15 26 -36 30 -6 135 43 146 54 12 58 14 42 24 -20 13 -20 13 -57 -10z" id="73"/>
<path d="M8175 6777 c-49 -25 -101 -64 -135 -98 -36 -37 -72 -62 -105 -74 -27 -10 -54 -21 -58 -25 -5 -4 1 -35 12 -68 12 -34 21 -77 21 -97 0 -24 5 -35 14 -35 17 0 41 33 87 120 46 87 123 168 219 229 43 28 81 55 85 60 6 11 -25 31 -47 31 -7 0 -49 -20 -93 -43z m-211 -256 c7 -11 -20 -48 -29 -39 -9 8 4 48 15 48 5 0 11 -4 14 -9z" id="74"/>
<path d="M1114 6772 c-56 -37 -83 -255 -63 -508 10 -125 10 -169 -1 -238 -11 -69 -11 -90 0 -115 16 -39 35 -39 55 -1 31 61 37 120 20 226 -33 210 -38 292 -27 413 14 153 28 194 67 201 29 6 30 6 8 18 -25 14 -43 15 -59 4z" id="75"/>
<path d="M1042 6748 c-6 -6 -12 -26 -11 -42 l1 -31 14 34 c17 38 15 58 -4 39z" id="76"/>
<path d="M1460 6709 c-19 -5 -98 -8 -175 -7 l-140 3 -3 -38 c-3 -38 -3 -38 62 -67 79 -36 173 -60 237 -60 l47 0 5 43 c4 23 9 63 13 90 3 26 2 47 -2 46 -5 -1 -25 -5 -44 -10z" id="77"/>
<path d="M1607 6694 c-11 -12 -8 -124 4 -124 6 0 19 5 30 11 16 8 18 13 9 24 -7 8 -17 33 -24 55 -7 22 -15 38 -19 34z" id="78"/>
<path d="M1885 6687 c-4 -10 1 -38 13 -65 27 -64 34 -114 22 -146 -10 -28 -38 -34 -58 -14 -9 9 -12 8 -12 -8 0 -42 54 -60 81 -28 24 29 8 188 -27 254 -11 22 -13 23 -19 7z" id="79"/>
<path d="M7705 6615 c-39 -38 -32 -47 29 -40 l53 7 27 -53 c29 -60 33 -122 16 -268 -6 -47 -14 -223 -19 -391 -9 -308 -18 -380 -49 -380 -9 0 -12 6 -8 16 13 33 28 105 24 109 -3 3 -17 -19 -31 -49 -34 -69 -37 -146 -7 -176 26 -26 42 -25 78 5 50 42 63 134 41 304 -9 72 -7 119 10 286 34 322 27 469 -27 568 -46 86 -93 107 -137 62z" id="80"/>
<path d="M1130 6575 c0 -8 6 -15 14 -15 22 0 28 17 10 24 -22 9 -24 8 -24 -9z" id="81"/>
<path d="M7504 6573 c-32 -32 -46 -87 -52 -195 -7 -162 19 -269 82 -328 21 -19 31 -22 44 -14 25 15 54 79 50 111 l-3 28 -18 -32 c-27 -50 -49 -43 -75 25 -29 73 -42 147 -42 232 0 80 14 125 48 163 25 26 25 27 5 27 -12 0 -29 -8 -39 -17z" id="82"/>
<path d="M7562 6540 c-12 -5 -27 -22 -33 -37 -13 -34 -6 -233 10 -283 20 -64 26 -67 57 -29 50 59 105 106 161 134 57 29 57 31 53 120 -1 22 -8 51 -15 65 -12 22 -19 24 -81 25 -38 1 -82 4 -99 8 -16 4 -40 2 -53 -3z m208 -149 c0 -5 -21 -16 -46 -25 -26 -9 -62 -27 -80 -41 -45 -34 -64 -32 -29 5 46 48 155 91 155 61z" id="83"/>
<path d="M7391 6376 c-18 -20 -65 -47 -139 -83 -5 -2 182 -362 188 -363 3 0 18 24 33 54 l26 55 -24 43 c-32 59 -45 113 -53 225 l-7 95 -24 -26z" id="84"/>
<path d="M2903 6342 c-11 -28 6 -586 22 -690 15 -102 51 -210 66 -195 18 19 40 211 35 299 -11 153 -11 214 -3 394 l9 175 -62 16 c-54 14 -62 14 -67 1z" id="85"/>
<path d="M7765 6289 c-64 -34 -105 -78 -105 -114 0 -96 -56 -182 -110 -170 -25 5 -29 1 -58 -65 l-31 -71 24 -86 c14 -47 41 -174 60 -282 20 -108 45 -234 56 -281 21 -92 79 -303 85 -309 1 -2 15 6 29 17 14 11 47 26 73 32 l47 13 1 121 c1 70 8 152 18 194 9 40 16 82 16 94 0 19 -2 18 -31 -6 -41 -35 -87 -35 -120 0 -20 22 -24 35 -23 87 0 53 6 75 43 147 l43 84 8 286 c5 157 12 295 15 308 9 27 9 27 -40 1z" id="86"/>
<path d="M0 5559 l0 -591 74 79 c82 87 143 125 227 142 160 33 320 -92 434 -340 16 -35 30 -65 31 -67 1 -2 28 12 60 30 51 29 68 33 129 33 53 0 79 -5 105 -20 49 -30 92 -91 118 -168 28 -86 47 -105 109 -108 l48 -3 -3 40 c-2 21 -10 49 -18 61 -18 28 -18 33 0 33 8 0 41 -29 74 -65 57 -62 60 -64 76 -46 20 22 84 35 102 20 9 -7 22 -6 43 6 32 16 39 29 21 40 -17 10 -11 25 10 25 14 0 20 7 20 24 0 21 -16 33 -106 80 -389 206 -749 510 -1123 946 -63 74 -154 180 -200 234 -74 85 -205 206 -225 206 -3 0 -6 -266 -6 -591z" id="87"/>
<path d="M7896 5532 c-4 -55 -4 -111 -1 -124 3 -13 -1 -57 -10 -98 -38 -175 -28 -364 34 -670 20 -103 31 -136 43 -138 45 -9 53 123 17 278 -12 52 -30 131 -40 175 -21 92 -23 175 -9 364 7 92 7 158 0 209 -16 115 -26 117 -34 4z" id="88"/>
<path d="M3992 5281 c-8 -4 -12 -19 -10 -32 3 -22 0 -24 -41 -24 -54 0 -75 -23 -47 -53 21 -24 6 -37 -20 -17 -26 20 -103 20 -110 0 -4 -10 -13 -13 -26 -10 -13 5 -30 -4 -57 -32 -47 -47 -64 -98 -49 -150 6 -21 6 -39 2 -40 -60 -21 -86 -63 -40 -63 36 0 32 -14 -9 -40 -38 -23 -54 -63 -37 -90 8 -13 7 -21 -5 -33 -18 -17 -10 -37 15 -37 9 0 35 -10 58 -22 48 -25 74 -19 74 18 0 25 2 26 38 20 20 -3 45 -6 56 -6 15 0 17 -5 12 -27 -9 -32 8 -45 42 -32 32 12 40 6 34 -29 -6 -43 26 -52 55 -16 l22 28 10 -27 c11 -28 25 -35 36 -17 3 6 19 10 34 10 15 0 32 5 39 12 7 7 13 8 13 2 1 -5 2 -16 3 -24 0 -8 8 -16 17 -18 25 -5 40 156 46 470 5 249 4 268 -12 274 -12 5 -23 0 -34 -15 l-16 -21 -35 25 c-38 28 -39 28 -58 16z m-98 -416 c39 -16 44 -34 23 -75 -10 -20 -10 -30 0 -49 12 -25 9 -41 -8 -41 -5 0 -9 6 -9 14 0 7 -10 20 -22 29 l-23 15 23 24 c28 31 28 51 0 63 -12 6 -23 16 -26 23 -5 15 -2 15 42 -3z" id="89"/>
<path d="M2273 5226 c-146 -48 -253 -175 -339 -404 l-25 -64 35 6 c29 6 37 3 59 -23 17 -20 31 -28 44 -25 14 4 25 -3 37 -20 9 -14 24 -26 33 -26 9 0 25 -8 35 -17 11 -10 37 -18 59 -18 38 -1 90 -29 93 -50 0 -5 -14 -11 -31 -13 -35 -3 -48 -32 -15 -32 9 0 34 -3 55 -6 26 -5 37 -3 37 6 0 18 -99 166 -159 238 -29 35 -50 66 -47 69 6 6 42 -33 93 -104 21 -29 41 -52 44 -53 7 0 19 140 19 227 0 36 5 65 11 69 9 5 10 -19 5 -92 l-6 -99 59 65 c33 35 62 62 65 59 3 -2 -23 -37 -58 -76 -57 -63 -64 -77 -70 -126 -6 -48 -4 -59 21 -101 15 -25 31 -46 35 -46 9 0 45 98 66 178 9 34 20 62 25 62 5 0 6 -8 3 -17 -3 -10 -8 -31 -12 -48 -7 -28 -6 -29 12 -16 10 8 31 28 46 45 17 19 28 25 28 17 0 -8 -23 -36 -52 -63 -39 -36 -57 -63 -74 -108 l-22 -60 37 6 c20 3 43 8 53 10 9 3 19 0 23 -6 3 -6 11 -8 16 -4 5 3 17 0 25 -7 8 -6 15 -10 17 -8 1 2 20 39 42 82 22 43 64 108 94 144 l54 66 -18 56 c-42 136 -146 270 -241 312 -59 27 -155 33 -211 15z" id="90"/>
<path d="M280 5171 c-83 -26 -178 -100 -245 -192 l-35 -47 0 -416 0 -417 21 12 c12 6 37 9 56 6 29 -5 39 -2 59 21 13 15 24 36 24 48 0 28 31 54 63 54 15 0 27 3 27 7 0 4 -20 45 -44 92 -59 117 -116 271 -99 271 4 0 19 -33 31 -72 28 -86 119 -278 133 -278 5 0 9 20 9 45 0 39 3 47 25 55 l25 10 0 145 c0 144 0 147 -28 188 -32 46 -102 166 -102 173 0 13 18 1 28 -18 9 -21 11 -20 17 20 4 23 12 42 17 42 5 0 7 -8 4 -17 -17 -55 -9 -101 25 -154 l34 -54 3 50 c2 28 7 54 13 60 5 5 9 -36 9 -110 l0 -118 26 24 c32 29 135 182 153 227 15 37 35 44 21 8 -5 -14 -27 -55 -50 -91 -22 -37 -40 -69 -40 -71 0 -9 49 -3 95 11 27 8 51 12 54 10 8 -9 -64 -33 -119 -41 -49 -6 -60 -12 -100 -57 l-45 -49 -3 -92 -4 -91 31 -11 c24 -10 33 -9 41 1 6 7 22 16 35 19 17 4 28 19 40 53 31 87 34 92 34 60 1 -25 3 -27 24 -16 12 6 39 27 60 47 20 20 37 31 37 25 0 -14 -74 -81 -106 -95 -32 -15 -59 -75 -43 -94 14 -17 62 5 102 48 22 24 34 29 65 27 29 -2 43 3 64 24 17 17 38 27 56 27 15 0 36 6 46 13 17 12 15 17 -30 55 -27 23 -68 49 -91 58 -41 16 -52 27 -35 37 4 3 32 1 61 -4 30 -5 57 -6 59 -4 10 9 -52 184 -89 253 -101 189 -223 292 -344 291 -27 0 -61 -4 -75 -8z" id="91"/>
<path d="M7785 4943 c-27 -8 -60 -24 -73 -37 l-22 -22 103 -307 c57 -168 105 -309 108 -311 2 -3 23 1 46 7 51 13 86 0 110 -40 14 -26 20 -28 73 -26 49 1 61 5 88 33 26 25 30 35 22 50 -19 36 -12 99 15 125 13 14 31 25 40 25 10 0 15 10 15 33 0 90 -74 248 -160 340 -57 62 -172 145 -178 129 -2 -6 9 -56 24 -113 19 -73 28 -135 30 -209 3 -97 2 -107 -20 -133 -23 -28 -24 -29 -54 -13 -34 18 -35 21 -77 263 -14 81 -29 164 -33 184 l-7 36 -50 -14z" id="92"/>
<path d="M2867 4886 c-105 -38 -193 -128 -266 -274 l-32 -64 23 -22 c13 -12 40 -32 61 -45 20 -12 37 -26 37 -30 0 -4 11 -13 24 -19 19 -9 27 -8 36 4 7 8 27 14 45 14 25 0 40 -8 65 -36 44 -51 61 -33 31 35 -11 27 -21 57 -21 65 0 9 -24 34 -52 57 -67 52 -76 72 -14 30 l46 -32 0 26 c0 15 4 24 10 20 6 -3 10 -16 10 -28 0 -33 20 -97 29 -97 12 0 29 47 56 155 19 73 23 83 24 52 1 -40 2 -41 60 -19 9 3 12 1 8 -6 -4 -6 -23 -16 -41 -22 -24 -8 -36 -19 -41 -38 -3 -15 -18 -56 -32 -91 -31 -78 -25 -107 27 -125 52 -17 73 -10 66 22 -3 15 -8 43 -11 62 -4 29 -2 26 12 -15 10 -27 23 -50 28 -50 18 0 45 70 51 134 4 34 11 64 17 68 7 4 8 -10 4 -40 -4 -26 -3 -47 2 -47 5 0 30 16 55 35 48 36 56 40 56 27 0 -4 -29 -27 -65 -51 -39 -26 -65 -51 -65 -62 0 -9 -3 -24 -6 -33 -4 -11 2 -17 23 -21 15 -3 36 -11 46 -16 14 -8 22 -5 35 11 l17 21 62 -23 c81 -30 90 -22 75 59 -33 166 -186 369 -311 411 -45 16 -137 14 -184 -2z" id="93"/>
<path d="M5557 4890 c-40 -7 -177 -63 -177 -72 0 -2 42 -3 93 -4 106 -1 166 -20 268 -86 186 -119 336 -305 413 -510 77 -205 77 -459 -1 -650 -44 -109 -93 -176 -266 -364 -163 -176 -201 -226 -237 -309 -30 -69 -27 -79 26 -93 26 -7 60 -22 75 -33 21 -14 49 -21 106 -24 43 -2 87 -7 97 -11 18 -7 19 -3 13 73 -4 58 -3 84 6 91 21 17 208 8 245 -12 31 -16 39 -16 124 -2 51 9 122 16 158 16 l67 0 6 63 c4 34 14 118 24 186 14 104 15 136 5 207 -18 121 -56 244 -113 364 -28 58 -62 134 -75 170 -43 112 -87 292 -89 360 -1 63 -3 67 -48 113 -48 50 -87 121 -107 196 -8 32 -25 57 -64 91 -28 27 -58 59 -65 73 -10 19 -27 29 -63 36 -60 13 -97 32 -142 71 -18 17 -49 36 -67 44 -45 19 -152 27 -212 16z" id="94"/>
<path d="M855 4811 c-77 -38 -80 -42 -65 -109 7 -33 15 -63 19 -68 3 -5 44 -22 90 -37 77 -26 85 -27 101 -12 14 12 32 15 80 11 34 -3 68 -10 75 -16 36 -30 23 54 -21 142 -13 26 -40 59 -60 75 -50 37 -157 44 -219 14z" id="95"/>
<path d="M5375 4778 c-55 -21 -102 -56 -151 -114 -27 -31 -91 -105 -142 -163 -160 -182 -195 -246 -231 -428 -51 -250 -69 -581 -39 -703 l14 -55 119 3 c157 4 262 -15 371 -67 l83 -40 32 97 c83 251 185 406 321 486 90 52 123 60 275 60 99 1 146 5 154 13 18 18 -3 187 -37 294 -79 254 -276 486 -500 591 -58 27 -82 33 -154 35 -47 1 -98 -3 -115 -9z m45 -1223 c13 -14 20 -28 16 -32 -9 -10 -36 8 -54 35 -13 19 -13 22 0 22 8 0 25 -11 38 -25z m-174 -5 c30 -12 85 -60 79 -70 -3 -5 -25 4 -48 21 -31 21 -59 32 -100 36 -56 6 -74 17 -39 26 19 5 77 -2 108 -13z" id="96"/>
<path d="M1928 4745 c-3 -3 -31 -8 -62 -10 -63 -5 -76 -10 -76 -31 0 -12 -11 -14 -55 -10 -49 4 -55 2 -55 -14 0 -11 -8 -23 -17 -29 -14 -8 -15 -11 -4 -25 16 -19 18 -17 -40 -45 -38 -17 -52 -20 -74 -11 -34 13 -62 5 -75 -20 -8 -15 -3 -31 22 -72 17 -29 33 -55 35 -57 1 -2 25 16 51 41 51 48 100 78 127 78 20 0 19 -6 -7 -48 -16 -25 -23 -56 -26 -113 -5 -95 2 -133 25 -125 10 4 26 -3 42 -18 l26 -25 33 63 c60 116 168 226 332 338 20 14 21 17 8 17 -10 1 -18 6 -18 11 0 6 -6 10 -13 10 -8 0 -20 12 -27 26 -14 25 -22 26 -64 8 -15 -6 -18 -4 -13 8 11 31 -52 76 -75 53z" id="97"/>
<path d="M3720 4632 c0 -11 -7 -23 -16 -26 -28 -11 -80 -6 -100 9 -30 23 -66 18 -135 -18 -35 -19 -75 -36 -88 -40 -18 -4 -22 -10 -16 -24 4 -10 10 -41 12 -69 4 -42 10 -54 29 -63 13 -6 24 -17 24 -24 0 -8 11 -19 24 -25 19 -9 27 -8 36 4 7 8 23 14 36 14 17 0 24 6 24 19 0 27 26 44 56 38 14 -2 38 0 53 6 22 8 26 15 23 38 l-4 28 58 -4 c33 -3 70 -5 82 -5 15 0 26 -7 29 -19 5 -20 50 -35 59 -19 11 17 -7 64 -29 73 -12 6 -26 20 -32 33 -5 12 -19 22 -30 22 -29 0 -43 12 -46 40 -5 32 -49 43 -49 12z" id="98"/>
<path d="M2152 4590 c-29 -18 -72 -73 -72 -93 0 -5 21 10 46 32 26 23 64 46 85 53 21 6 36 15 33 19 -9 16 -58 9 -92 -11z" id="99"/>
<path d="M832 4550 c98 -87 187 -222 258 -392 21 -51 44 -93 49 -92 6 1 22 2 35 3 23 1 24 3 15 30 -6 16 -9 55 -7 87 3 62 9 69 81 94 l28 10 -27 36 c-70 91 -267 217 -403 258 -85 25 -89 20 -29 -34z" id="100"/>
<path d="M1366 4469 c7 -149 17 -186 63 -218 l30 -22 7 28 c3 15 15 51 26 80 19 49 19 53 3 85 -23 43 -98 150 -119 168 -15 12 -16 2 -10 -121z" id="101"/>
<path d="M1015 4576 c-18 -13 -17 -14 11 -31 102 -62 169 -114 233 -180 81 -83 105 -95 90 -43 -5 18 -9 72 -9 119 l0 87 -42 5 c-28 2 -47 0 -53 -8 -8 -10 -15 -6 -27 16 -15 25 -20 28 -42 20 -19 -8 -26 -6 -30 5 -4 11 -14 14 -35 9 -17 -3 -32 -2 -36 4 -9 15 -38 14 -60 -3z" id="102"/>
<path d="M2414 4545 c-4 -10 -13 -13 -25 -10 -12 4 -22 -1 -29 -15 -9 -17 -14 -19 -25 -10 -8 7 -19 9 -24 6 -5 -4 -12 -2 -16 4 -3 5 -19 10 -36 10 -16 0 -29 5 -29 10 0 35 -103 -29 -146 -91 -25 -36 -43 -95 -44 -144 0 -18 5 -20 35 -17 35 4 35 4 35 56 0 49 2 54 44 89 l45 37 19 -27 20 -28 41 23 c27 15 54 23 79 21 21 -1 52 5 70 15 35 18 62 16 62 -6 0 -8 14 -13 35 -14 22 0 44 -9 59 -23 l24 -23 31 23 30 22 -27 14 c-15 8 -39 26 -54 40 -14 14 -31 22 -37 19 -5 -4 -14 1 -19 11 -8 14 -13 15 -25 5 -12 -10 -16 -10 -21 3 -7 20 -65 20 -72 0z" id="103"/>
<path d="M1986 4469 c-75 -69 -143 -159 -180 -238 -23 -51 -24 -55 -9 -98 10 -29 14 -62 10 -94 -6 -48 -6 -49 22 -49 28 0 28 0 34 83 8 110 53 254 73 234 4 -4 -3 -35 -15 -70 -16 -43 -24 -91 -27 -157 l-4 -95 15 53 c21 75 29 86 61 87 34 0 37 13 52 190 6 66 17 140 26 165 8 24 14 46 12 47 -2 2 -33 -24 -70 -58z" id="104"/>
<path d="M3931 4513 c-1 -33 28 -166 39 -177 7 -7 14 -6 22 2 10 10 8 19 -7 45 -11 17 -27 59 -36 92 -10 33 -18 50 -18 38z" id="105"/>
<path d="M4033 4516 c-4 -8 -19 -16 -33 -18 -20 -2 -24 -8 -21 -28 6 -44 40 -100 60 -100 11 0 26 -3 34 -6 11 -4 17 10 26 62 7 36 11 67 9 68 -2 1 -15 10 -30 19 -33 21 -35 21 -45 3z" id="106"/>
<path d="M826 4475 c-8 -9 -21 -15 -28 -13 -19 3 -68 -11 -68 -20 0 -5 -6 -16 -13 -26 -11 -16 -17 -17 -36 -7 -28 15 -47 9 -94 -34 l-39 -33 24 -13 c46 -25 96 -28 135 -8 47 24 69 24 118 -1 46 -24 72 -18 104 21 l23 30 -43 56 c-50 64 -60 70 -83 48z" id="107"/>
<path d="M1587 4430 c-80 -86 -118 -202 -86 -261 10 -19 12 -19 47 13 21 19 51 39 69 47 l31 13 -2 91 c0 51 3 107 7 125 12 47 -3 40 -66 -28z" id="108"/>
<path d="M3700 4467 c0 -14 5 -29 10 -32 22 -14 9 -26 -20 -20 -19 4 -36 2 -45 -5 -9 -8 -19 -8 -32 -1 -34 18 -49 -3 -52 -73 -1 -17 -2 -16 -19 4 l-17 21 -28 -21 c-22 -18 -31 -20 -42 -10 -8 7 -22 10 -30 6 -11 -4 -16 0 -14 12 4 39 0 43 -34 37 -22 -4 -52 1 -90 15 l-58 22 -21 -27 c-18 -23 -22 -25 -30 -11 -14 25 -38 19 -38 -9 0 -14 -4 -25 -10 -25 -5 0 -10 11 -10 24 0 41 -21 47 -65 20 -22 -13 -40 -28 -39 -34 1 -5 2 -19 3 -30 1 -15 7 -20 24 -19 66 6 70 3 65 -52 -5 -47 -3 -51 19 -60 14 -5 45 -28 69 -52 24 -23 53 -50 64 -59 12 -11 20 -30 20 -48 0 -27 3 -30 34 -30 34 0 34 0 29 39 -10 75 62 108 117 53 27 -27 30 -28 56 -14 29 15 98 22 109 10 4 -3 1 -16 -5 -28 -9 -16 -9 -25 -1 -33 6 -6 11 -19 11 -30 0 -10 5 -15 10 -12 6 3 10 23 10 44 0 54 36 86 87 78 27 -5 42 -2 55 10 16 14 16 18 3 44 -8 15 -15 41 -15 57 0 34 24 45 70 32 33 -9 40 -5 40 24 0 11 9 29 20 41 17 18 19 30 14 64 -5 33 -9 39 -20 30 -10 -8 -14 -8 -14 0 0 15 -33 14 -49 -1 -10 -11 -12 -7 -9 17 2 24 -1 30 -17 31 -11 0 -28 4 -37 8 -10 5 -25 5 -34 2 -9 -4 -23 -1 -30 5 -11 9 -14 6 -14 -14z" id="109"/>
<path d="M8488 4474 c-5 -4 -8 -18 -8 -30 0 -31 -13 -37 -33 -13 -23 26 -31 24 -59 -12 l-24 -30 -33 18 -32 18 -25 -28 c-13 -15 -24 -35 -24 -43 0 -24 28 -84 39 -84 6 0 18 -15 27 -32 17 -33 16 -33 -3 -15 -11 9 -29 17 -41 17 -25 0 -63 -45 -55 -66 7 -18 -7 -18 -43 1 -36 19 -55 19 -80 0 -26 -20 -44 -19 -44 4 0 34 -38 71 -75 71 -61 0 -61 -13 -1 -192 30 -90 67 -224 81 -298 14 -74 33 -168 41 -207 l15 -73 54 0 c46 0 59 -5 90 -31 29 -26 35 -38 35 -72 0 -36 -6 -46 -49 -87 l-50 -47 26 -51 25 -52 30 26 c39 32 52 27 56 -19 3 -30 7 -37 24 -37 18 0 20 4 14 33 -21 97 -15 196 11 204 6 2 23 -30 38 -72 15 -41 29 -74 31 -72 2 1 14 20 29 40 l25 38 -2 600 c-2 331 -6 597 -10 593z m-308 -502 c13 -11 23 -29 23 -45 0 -22 4 -27 24 -27 17 0 27 -7 30 -21 5 -18 11 -20 39 -14 26 4 34 2 34 -8 0 -9 -15 -17 -41 -21 -44 -7 -59 -2 -59 20 0 9 -11 14 -31 14 -29 0 -30 2 -24 30 8 38 -9 62 -44 60 -40 -3 -44 -1 -31 15 17 20 53 19 80 -3z m221 -52 c10 -6 19 -17 19 -25 0 -18 -1 -18 -36 -1 -19 10 -33 12 -45 5 -24 -12 -29 -11 -29 5 0 25 55 35 91 16z" id="110"/>
<path d="M2429 4441 c-22 -17 -31 -19 -55 -9 -29 11 -60 0 -128 -45 -13 -8 -20 -9 -23 -1 -2 6 -9 18 -16 27 -11 15 -15 14 -45 -9 -32 -26 -33 -27 -26 -86 l7 -61 -26 7 c-14 3 -37 2 -51 -3 -20 -8 -26 -19 -31 -58 -13 -87 -13 -84 32 -98 39 -12 43 -11 56 9 30 44 94 98 156 129 55 27 77 32 157 35 83 4 94 2 94 -13 0 -13 -6 -15 -28 -10 -64 14 -134 -42 -188 -147 -19 -37 -34 -71 -34 -75 0 -5 21 -16 48 -26 78 -28 93 -46 101 -113 7 -68 8 -68 118 -38 68 18 153 13 153 -10 0 -14 -99 -62 -138 -68 -18 -2 -28 -14 -37 -41 -7 -22 -24 -50 -37 -64 -19 -21 -20 -27 -8 -31 43 -15 106 -109 86 -129 -5 -5 -77 14 -122 33 -6 3 -17 -9 -24 -25 -10 -26 -9 -33 7 -55 11 -16 23 -23 33 -19 39 17 99 14 147 -7 l50 -21 38 22 c36 22 38 22 70 5 37 -20 56 -15 48 13 -3 14 2 20 22 25 14 4 31 18 37 32 9 19 17 24 32 19 53 -17 67 -17 86 0 11 10 16 24 13 33 -5 12 -2 14 18 8 59 -19 77 -18 98 3 25 25 26 35 6 55 -22 21 -18 38 8 34 20 -3 22 0 20 45 -3 46 -2 48 20 42 12 -4 24 -7 27 -7 28 -1 43 5 61 23 11 11 26 18 32 16 7 -2 -2 -17 -21 -36 -31 -31 -32 -35 -18 -56 9 -13 31 -28 51 -35 31 -10 34 -14 24 -32 -28 -52 25 -96 65 -53 16 18 26 21 39 14 13 -8 23 -4 40 15 l23 25 22 -21 c18 -18 23 -19 37 -8 11 9 14 22 10 37 -5 21 -2 24 17 21 17 -2 24 2 26 20 5 30 17 28 32 -7 32 -77 130 -52 130 33 0 23 3 25 30 20 55 -11 78 32 41 75 -18 21 -25 22 -93 16 -67 -6 -75 -5 -93 15 -20 23 -26 78 -11 119 8 23 8 23 -15 7 -34 -24 -41 -20 -33 19 l6 35 -33 -7 -32 -6 26 35 c15 19 27 38 27 43 0 13 -60 -4 -90 -25 -35 -25 -40 -25 -40 -2 0 27 -34 54 -62 50 -33 -4 -38 -60 -7 -81 36 -26 13 -37 -77 -37 -76 0 -101 8 -74 25 6 3 10 19 10 35 0 34 -30 55 -66 46 -17 -5 -24 -2 -24 8 0 8 6 16 13 19 21 7 -33 56 -77 69 -53 15 -52 13 -27 44 11 15 21 36 21 47 0 18 -4 19 -51 13 -50 -7 -51 -7 -45 17 12 51 -51 89 -88 52 -22 -22 -32 -19 -46 16 -19 44 -54 65 -85 51 -17 -8 -25 -20 -25 -37 0 -32 -14 -32 -28 0 -15 32 -60 44 -77 21 -7 -9 -11 -26 -8 -36 8 -31 -8 -24 -49 21 -38 42 -59 47 -110 25 -13 -6 -17 -2 -20 19 l-3 27 -26 -21z m631 -546 c0 -17 -36 -38 -50 -30 -15 9 -12 25 4 25 8 0 17 7 20 16 7 18 26 10 26 -11z m-100 -155 c0 -16 -46 -34 -66 -26 -21 8 -8 23 26 29 14 2 28 5 33 6 4 0 7 -4 7 -9z m489 -9 c12 -3 -25 -31 -40 -31 -19 0 -33 15 -25 28 4 6 42 8 65 3z m-669 -70 c0 -28 -27 -51 -61 -51 -20 0 -29 5 -29 16 0 10 6 13 18 10 20 -7 36 3 45 27 9 23 27 22 27 -2z m107 -35 c-5 -15 -49 -14 -54 1 -3 7 7 11 27 11 17 -1 29 -6 27 -12z" id="111"/>
<path d="M425 4326 l-16 -24 -38 21 c-57 31 -71 20 -71 -54 l0 -62 -38 7 c-46 7 -86 -16 -79 -44 3 -11 -5 -27 -19 -39 -13 -12 -24 -30 -24 -40 0 -27 -20 -38 -32 -17 -12 22 -70 21 -91 -2 -14 -15 -17 -42 -17 -156 l0 -137 31 35 c58 67 148 67 212 1 30 -31 40 -35 84 -35 46 0 52 3 81 39 29 37 35 39 69 34 21 -3 47 -9 58 -13 14 -5 26 -1 42 16 12 13 34 24 48 24 32 0 32 -16 0 -24 -15 -4 -31 -18 -37 -34 -7 -15 -13 -29 -14 -31 -2 -1 -13 4 -26 13 -28 20 -54 21 -62 1 -7 -20 -26 -19 -26 1 0 25 -23 11 -49 -29 -17 -26 -28 -34 -36 -27 -6 5 -28 7 -48 3 -26 -4 -37 -11 -39 -26 -4 -28 -28 -34 -28 -7 0 57 -65 120 -124 120 -16 0 -43 -9 -60 -20 -31 -19 -40 -32 -65 -93 -8 -20 -11 -447 -11 -1552 l0 -1525 38 0 c26 0 45 7 56 19 22 25 41 18 57 -20 20 -51 47 -61 131 -53 40 3 79 11 86 17 15 12 16 59 1 74 -18 18 -1 32 29 24 15 -4 41 -4 59 1 36 9 83 60 83 89 0 10 5 19 10 19 6 0 10 -9 10 -20 0 -22 38 -29 44 -8 16 52 12 50 67 22 l51 -26 32 31 c18 17 36 31 41 31 6 0 17 -15 25 -33 21 -45 61 -57 98 -30 27 20 43 63 23 63 -6 0 -11 5 -11 10 0 6 15 10 34 10 39 0 83 31 97 68 9 23 5 30 -32 62 -29 25 -40 41 -34 50 7 11 10 10 19 -1 20 -26 60 -49 86 -49 43 0 88 35 101 80 7 22 13 40 15 40 2 0 14 -5 28 -11 32 -15 80 -4 72 16 -4 11 2 15 19 15 13 0 36 11 51 24 26 22 30 22 62 9 49 -20 99 -2 118 43 8 18 11 40 8 49 -4 9 1 21 11 29 10 7 15 18 11 24 -5 8 -23 2 -60 -18 -40 -23 -65 -30 -105 -30 -59 0 -82 10 -127 52 l-32 30 -81 -80 c-104 -102 -134 -117 -231 -114 -317 7 -420 5 -508 -11 -112 -21 -112 -21 -112 -3 0 34 114 96 178 97 94 2 136 38 203 172 23 45 57 99 77 119 l36 38 -24 42 c-45 80 -29 180 42 255 l31 32 -39 6 c-55 9 -133 35 -139 46 -13 20 -78 8 -148 -28 -132 -67 -245 -48 -404 71 -35 25 -63 50 -63 55 0 5 34 7 78 4 66 -4 96 0 215 31 76 20 160 36 187 36 49 0 50 0 75 49 13 27 29 52 35 56 18 11 11 21 -24 33 -91 33 -177 151 -246 337 -48 129 -72 169 -134 220 -25 20 -43 42 -40 47 8 12 86 2 132 -18 18 -7 46 -26 61 -42 32 -32 71 -48 209 -86 50 -14 110 -38 133 -53 l40 -27 23 29 23 29 -48 60 c-55 68 -124 200 -114 217 5 7 18 0 39 -20 17 -16 69 -46 115 -65 46 -20 94 -45 106 -56 l22 -21 16 24 c49 75 230 90 286 24 16 -20 31 -13 31 13 0 26 48 80 87 96 77 32 188 1 251 -70 31 -35 34 -36 70 -27 20 6 51 11 67 11 22 1 9 8 -47 26 -129 41 -208 112 -208 186 0 25 -4 28 -31 28 -30 0 -30 0 -27 51 l3 51 -45 13 c-25 7 -52 15 -61 19 -12 5 -16 0 -16 -25 0 -71 -100 -108 -198 -72 l-53 20 -25 -28 c-23 -26 -32 -29 -87 -29 -60 0 -61 0 -76 -35 -22 -52 -19 -75 10 -75 14 0 28 -4 31 -10 3 -5 18 -10 33 -10 l27 -1 -24 -19 c-28 -24 -51 -26 -51 -5 0 9 -7 18 -15 22 -18 6 -55 -23 -55 -44 0 -19 -18 -16 -30 6 -5 11 -24 28 -40 38 -34 20 -39 33 -12 33 14 0 23 17 39 72 l21 71 -20 39 c-19 36 -23 38 -67 38 -57 0 -124 30 -147 65 -17 25 -17 30 -2 55 l16 27 -70 12 c-163 27 -226 107 -129 163 l38 22 -20 33 c-16 28 -18 39 -9 58 20 43 57 58 138 58 50 0 74 4 74 12 0 23 39 47 83 52 43 5 102 -14 148 -48 13 -10 21 -9 37 2 20 14 17 18 -84 111 -138 128 -190 151 -301 136 -40 -5 -26 17 19 30 114 34 284 24 400 -22 l58 -24 45 36 c51 39 51 33 4 147 -37 88 -86 175 -100 175 -6 0 -16 -13 -22 -29 -14 -38 -67 -47 -112 -19 -47 29 -115 20 -138 -18 -11 -18 -33 -18 -41 1 -4 11 -11 13 -30 5 -21 -8 -28 -6 -36 10 -13 25 -56 26 -82 3 -17 -15 -18 -15 -18 8 0 24 -16 49 -32 49 -4 0 -15 -11 -23 -24z m-270 -990 c14 -10 25 -11 41 -4 26 12 59 3 49 -12 -3 -5 -13 -10 -22 -10 -9 0 -25 -7 -35 -17 -17 -15 -19 -14 -42 10 -15 17 -31 24 -40 21 -11 -4 -16 -1 -16 10 0 20 39 21 65 2z m317 -35 c9 -18 26 -40 37 -48 22 -15 29 -53 11 -53 -6 0 -14 9 -18 21 -7 19 -9 19 -21 5 -19 -22 -31 -10 -25 23 4 20 -1 35 -22 60 l-27 33 24 -4 c15 -2 30 -15 41 -37z m-132 -5 c0 -8 -5 -18 -11 -22 -14 -8 -33 11 -25 25 10 16 36 13 36 -3z m265 -66 c4 -6 -7 -10 -25 -10 -18 0 -29 4 -25 10 3 6 15 10 25 10 10 0 22 -4 25 -10z m23 -1627 c-4 -22 -22 -20 -26 1 -2 10 3 16 13 16 10 0 15 -7 13 -17z m-165 -58 c10 12 16 14 21 7 11 -18 -12 -52 -35 -52 -11 0 -31 -13 -45 -29 -28 -34 -66 -46 -94 -31 -28 15 -15 31 19 24 33 -7 71 23 71 54 0 10 6 24 12 30 10 10 15 9 25 -5 12 -16 14 -16 26 2z m197 -80 c0 -35 0 -35 -45 -35 -25 0 -45 5 -45 10 0 6 9 10 19 10 33 0 51 11 51 31 0 10 5 19 10 19 6 0 10 -16 10 -35z m-222 -497 c-3 -30 -6 -33 -40 -36 -22 -2 -38 1 -38 7 0 6 11 11 25 11 18 0 25 5 25 18 0 20 8 32 22 32 5 0 8 -15 6 -32z m342 16 c0 -16 -28 -26 -51 -19 -32 11 -22 31 16 31 20 0 35 -5 35 -12z m-450 -45 c0 -48 -47 -89 -103 -89 -26 0 -49 6 -56 14 -10 11 -4 13 31 9 52 -6 93 21 103 67 9 39 25 39 25 -1z" id="112"/>
<path d="M4012 4310 c-19 -33 -30 -37 -38 -15 -4 8 -14 15 -24 15 -29 0 -43 -26 -36 -65 8 -39 2 -42 -40 -20 -44 23 -64 19 -64 -11 0 -32 63 -94 96 -94 13 0 26 -4 29 -10 3 -5 15 -10 26 -10 24 0 24 -5 -1 -30 -25 -25 -40 -26 -40 -2 0 28 -11 34 -32 15 -18 -16 -19 -16 -24 4 -9 32 -36 38 -56 13 -10 -12 -18 -28 -18 -36 0 -20 -10 -17 -35 10 -47 50 -96 0 -76 -78 7 -30 7 -42 -5 -53 -21 -21 -18 -77 6 -98 26 -23 68 -13 80 21 10 26 30 25 30 -2 0 -20 27 -18 39 4 6 9 11 12 11 6 0 -5 6 -19 14 -29 12 -16 16 -17 30 -6 10 9 14 22 10 37 -6 22 -4 23 22 18 43 -8 62 13 84 91 38 130 78 315 73 335 -8 30 -41 25 -61 -10z" id="113"/>
<path d="M1243 4245 c-17 -7 -34 -23 -38 -35 -17 -54 23 -160 61 -160 8 0 35 -20 60 -45 44 -45 45 -45 74 -30 26 14 28 18 19 41 -15 41 -47 82 -79 101 -29 17 -41 43 -20 43 21 0 99 -82 119 -126 12 -25 27 -44 33 -42 23 8 31 59 18 115 -26 120 -141 184 -247 138z" id="114"/>
<path d="M2340 4241 c-54 -17 -115 -55 -163 -103 l-50 -50 39 -34 c57 -49 72 -43 120 54 22 45 53 96 69 112 30 31 28 34 -15 21z" id="115"/>
<path d="M1670 4221 c-47 -15 -87 -40 -118 -75 -29 -33 -31 -40 -26 -88 5 -39 13 -59 31 -75 13 -13 28 -23 32 -23 5 0 12 21 16 48 8 58 40 132 56 132 12 0 10 -9 -15 -75 -18 -48 -21 -126 -4 -143 9 -9 20 -3 50 23 21 19 45 35 53 35 21 0 35 33 35 84 0 51 -12 87 -43 133 -23 35 -27 36 -67 24z" id="116"/>
<path d="M1941 4068 c-15 -42 -14 -69 4 -106 9 -17 19 -54 22 -82 6 -53 20 -70 70 -84 16 -5 23 -2 28 14 3 11 17 32 29 48 31 37 19 80 -40 137 -45 44 -52 55 -34 55 23 0 100 -84 112 -122 11 -37 13 -38 42 -32 40 8 39 7 32 49 -14 73 -96 131 -213 149 -39 6 -42 5 -52 -26z" id="117"/>
<path d="M1120 4029 c-33 -14 -68 -47 -86 -82 l-15 -28 56 -25 c74 -34 202 -45 228 -20 9 10 17 21 17 26 0 14 -61 33 -106 32 -31 0 -44 4 -44 14 0 19 80 19 127 -1 20 -8 38 -13 41 -10 8 7 -29 55 -61 79 -30 22 -119 31 -157 15z" id="118"/>
<path d="M730 3984 c30 -19 87 -66 125 -103 39 -38 81 -75 94 -84 22 -15 26 -15 51 3 14 10 48 24 75 31 l48 12 -67 30 c-63 28 -67 32 -61 57 5 25 2 29 -42 47 -65 28 -141 43 -216 43 l-62 0 55 -36z" id="119"/>
<path d="M2233 3945 c10 -43 28 -58 43 -34 11 19 76 41 87 30 6 -6 -2 -15 -25 -24 -47 -20 -55 -35 -29 -54 12 -8 32 -26 45 -40 l23 -25 12 30 c7 16 11 49 9 73 -3 39 -7 46 -43 66 -25 14 -57 23 -86 23 l-46 0 10 -45z" id="120"/>
<path d="M1430 3959 c-70 -21 -108 -85 -96 -161 12 -77 18 -81 103 -75 122 9 195 62 205 146 4 35 -36 56 -88 47 -30 -6 -52 -21 -91 -63 -39 -40 -53 -50 -53 -36 0 29 56 90 100 109 22 10 37 21 33 25 -14 14 -78 18 -113 8z" id="121"/>
<path d="M1724 3941 c-18 -11 -38 -36 -47 -60 -19 -48 -22 -148 -6 -185 12 -25 23 -29 111 -41 115 -15 185 93 155 240 l-12 60 -85 3 c-69 2 -91 -1 -116 -17z m84 -81 c-30 -27 -63 -66 -73 -86 -11 -24 -20 -33 -27 -26 -26 26 88 162 136 162 15 0 7 -12 -36 -50z" id="122"/>
<path d="M2157 3864 c-4 -4 18 -33 47 -65 52 -56 96 -143 96 -189 0 -38 -19 -20 -34 33 -18 62 -69 137 -117 173 -31 23 -35 23 -46 8 -50 -68 -10 -191 83 -257 92 -65 135 -64 177 2 30 49 30 139 -1 199 -32 61 -93 102 -152 102 -26 0 -50 -3 -53 -6z" id="123"/>
<path d="M3918 3840 c-9 -17 -24 -30 -33 -30 -12 0 -14 -4 -5 -19 5 -11 10 -27 10 -36 0 -25 -46 -65 -75 -65 -18 0 -25 -5 -25 -19 0 -10 -12 -30 -26 -45 -32 -32 -80 -35 -116 -7 -27 22 -35 19 -61 -22 -16 -24 -24 -28 -55 -26 -43 3 -86 -6 -124 -27 -14 -8 -37 -14 -51 -14 -33 0 -70 46 -64 78 3 17 -2 26 -23 37 -16 8 -34 28 -42 45 -15 34 -49 43 -41 10 3 -11 -2 -31 -11 -45 -9 -13 -16 -36 -16 -50 0 -45 -41 -72 -101 -66 -9 1 -34 -10 -54 -24 -40 -27 -49 -28 -80 -15 -24 9 -75 -32 -75 -61 0 -10 -9 -21 -20 -24 -15 -5 -20 -15 -20 -39 0 -38 -21 -61 -71 -77 -19 -6 -51 -28 -71 -47 l-38 -36 22 -23 c33 -35 37 -126 8 -184 -12 -24 -33 -56 -47 -70 l-24 -26 47 -24 c67 -33 89 -67 89 -136 0 -50 -3 -57 -34 -85 -33 -29 -36 -30 -112 -26 l-78 5 19 -27 c32 -45 46 -112 31 -149 -19 -44 -75 -90 -120 -97 -32 -5 -40 -11 -44 -33 -3 -14 -8 -33 -12 -42 -4 -11 6 -24 35 -43 62 -41 100 -100 100 -155 0 -25 -7 -55 -15 -65 -22 -29 -19 -33 29 -40 57 -9 170 -64 224 -110 24 -20 51 -36 59 -36 8 0 13 -6 11 -12 -3 -8 -24 -13 -51 -14 -64 -2 -110 -34 -202 -143 -76 -90 -125 -130 -180 -151 -67 -25 -214 -7 -299 37 -33 17 -46 7 -46 -37 0 -36 -43 -121 -76 -152 -35 -32 -74 -48 -120 -48 -35 0 -107 30 -119 50 -4 6 -16 -3 -29 -22 -12 -18 -32 -38 -44 -44 -32 -16 -51 -45 -52 -77 0 -20 -12 -41 -35 -64 -34 -34 -38 -36 -92 -30 -53 6 -60 4 -112 -31 -40 -26 -65 -36 -91 -36 -32 1 -39 -3 -55 -33 -19 -35 -48 -55 -97 -67 -17 -4 -28 -13 -28 -24 0 -31 -40 -83 -74 -97 -21 -9 -38 -26 -46 -45 -28 -67 -107 -82 -156 -30 l-28 29 -28 -26 -28 -27 -44 22 -44 21 -14 -21 c-8 -12 -25 -21 -41 -21 -18 0 -39 -11 -61 -33 -22 -22 -47 -35 -75 -40 -36 -6 -41 -10 -41 -33 0 -28 -31 -70 -53 -73 -7 0 -25 -2 -42 -4 -16 -2 -46 -6 -66 -9 -45 -8 -95 15 -111 51 -10 21 -16 24 -37 18 -14 -5 -43 -8 -63 -9 l-38 0 0 -312 0 -313 336 0 c312 0 338 1 362 19 83 58 170 90 512 184 69 19 191 65 272 101 253 113 391 141 586 117 136 -17 1456 -287 1538 -315 75 -25 143 -57 186 -87 25 -18 64 -19 955 -19 l928 1 -40 32 c-22 18 -90 78 -151 133 -206 187 -286 234 -444 260 -51 8 -99 18 -108 23 -10 6 22 21 109 49 184 62 250 75 379 76 104 1 118 3 144 24 16 12 53 29 83 38 46 13 53 19 53 40 0 34 24 77 59 107 36 30 126 65 187 74 39 5 46 2 75 -26 29 -30 32 -31 45 -14 7 10 14 21 14 25 0 4 18 20 40 34 34 22 40 32 40 61 0 63 -59 137 -134 168 -38 16 -39 16 -66 -10 -36 -34 -70 -30 -89 10 -7 17 -37 55 -66 85 -29 30 -74 87 -99 126 -25 40 -53 75 -62 78 -13 5 -14 10 -7 17 8 8 78 10 220 7 l208 -4 140 -48 c106 -35 161 -48 225 -52 l85 -6 24 46 c30 58 123 145 187 176 27 13 75 25 107 28 49 4 64 1 88 -17 l28 -21 16 23 c46 71 169 58 241 -25 18 -20 33 -40 35 -46 2 -5 19 -7 37 -5 l33 5 -3 82 c-4 99 11 128 79 158 45 20 102 21 171 2 21 -6 22 -3 22 43 0 59 18 80 78 94 28 6 56 4 98 -7 33 -9 88 -22 123 -30 35 -7 72 -21 82 -30 16 -14 19 -14 38 5 15 15 34 21 64 21 98 0 187 -103 187 -217 l0 -52 43 -11 c58 -15 115 -40 130 -58 10 -13 8 -15 -20 -9 -18 4 -54 0 -85 -9 -71 -21 -168 -73 -168 -91 0 -45 -73 -99 -172 -128 l-57 -16 -6 -67 c-4 -37 -9 -75 -11 -84 -7 -26 4 -22 69 21 74 49 135 67 177 53 26 -10 35 -8 65 13 41 27 134 41 226 32 l59 -5 0 475 0 475 -69 -3 c-75 -4 -91 2 -71 26 16 19 6 19 -55 0 -58 -17 -70 -12 -49 21 15 22 15 24 0 24 -9 0 -33 -7 -53 -15 -48 -20 -51 -20 -67 19 -27 66 -48 55 -52 -28 -1 -28 -3 -53 -3 -55 -1 -2 -10 4 -21 14 -17 15 -30 17 -86 11 -65 -7 -66 -6 -61 15 5 20 3 21 -59 17 -64 -4 -65 -4 -59 19 3 13 3 23 0 23 -14 0 -73 -35 -97 -58 -27 -25 -28 -25 -48 -7 -25 23 -26 38 -1 30 12 -3 37 6 68 25 27 17 66 33 86 37 32 5 37 3 37 -14 0 -17 8 -21 52 -25 32 -4 56 -12 64 -22 17 -24 104 -12 104 14 0 9 5 31 11 49 15 43 46 38 78 -11 l23 -36 43 16 c48 17 75 12 75 -16 0 -16 6 -18 55 -14 44 4 56 1 61 -12 4 -11 19 -16 50 -16 l44 0 0 89 0 89 -64 -5 c-73 -6 -235 11 -305 33 -29 9 -96 14 -185 14 -150 1 -191 11 -220 51 -9 13 -16 26 -16 30 0 11 51 29 85 29 40 0 40 -1 19 44 -23 48 -14 67 27 56 17 -5 42 -16 55 -25 24 -15 24 -15 24 23 0 38 -17 102 -27 102 -3 0 -18 -9 -34 -20 -28 -21 -142 -71 -189 -83 -27 -8 -100 -114 -100 -145 1 -15 2 -15 13 -2 20 27 60 50 84 50 28 0 29 -15 3 -58 -25 -41 -25 -42 4 -42 35 0 87 -21 83 -33 -2 -6 -23 -21 -47 -34 -34 -18 -59 -23 -122 -23 -76 0 -148 -18 -148 -38 0 -5 -18 -9 -40 -9 -48 0 -50 20 -2 25 38 4 63 29 41 43 -17 11 -23 10 -129 -36 -156 -67 -175 -74 -214 -80 -49 -8 -91 -51 -101 -102 -3 -21 -16 -48 -28 -60 -27 -30 -85 -31 -115 -3 -28 27 -40 25 -35 -4 4 -17 -3 -33 -20 -50 -29 -29 -35 -29 -397 -26 -174 1 -193 8 -188 64 2 25 11 35 44 52 l41 21 -37 40 c-22 23 -48 67 -61 102 -33 92 -87 118 -177 86 l-49 -18 -42 33 c-33 27 -41 40 -41 66 0 57 91 112 169 101 l37 -5 -4 37 c-3 25 -17 50 -46 81 -23 25 -47 54 -53 64 -11 21 -71 35 -150 36 -51 0 -53 -1 -53 -27 0 -40 -66 -97 -132 -114 -69 -18 -441 -18 -552 0 -178 29 -243 82 -186 154 l20 25 -23 6 c-40 11 -59 6 -91 -21 -17 -14 -46 -32 -65 -40 -25 -11 -31 -17 -22 -26 17 -17 13 -62 -7 -80 -26 -24 -100 -38 -146 -27 -28 6 -57 4 -98 -6 -47 -12 -69 -13 -111 -4 -29 6 -59 15 -67 20 -10 6 -20 4 -31 -6 -25 -23 -93 -29 -131 -13 -18 8 -54 12 -79 11 -26 -2 -62 3 -84 12 -33 14 -37 19 -33 45 4 26 1 30 -35 41 -21 6 -58 29 -81 50 l-41 38 -28 -24 c-30 -25 -83 -32 -116 -14 -14 7 -22 3 -40 -20 -29 -40 -80 -42 -110 -4 -16 20 -26 25 -45 20 -56 -14 -95 30 -82 94 5 30 5 30 -42 30 -155 0 -158 141 -4 175 25 5 32 12 32 31 0 14 11 36 25 49 37 38 88 31 142 -17 20 -19 23 -19 38 -4 9 9 21 16 26 16 5 0 9 20 9 45 0 24 5 55 11 68 11 25 47 47 74 47 18 0 51 57 119 208 56 124 156 381 156 401 0 22 -25 10 -42 -19z m1510 -1385 c97 -39 78 -126 -38 -172 -66 -26 -377 -23 -603 5 -92 12 -172 24 -177 27 -16 10 -12 30 12 60 35 45 79 57 228 61 82 2 174 11 235 23 122 25 276 23 343 -4z m372 -165 c154 -37 203 -74 202 -153 -1 -55 -44 -106 -108 -130 -72 -27 -350 -39 -714 -32 -343 7 -489 18 -564 43 -48 16 -51 19 -54 53 -4 46 31 90 90 115 36 15 88 19 318 25 278 7 332 14 440 55 134 50 250 57 390 24z m-1302 -156 c3 -26 -3 -36 -26 -53 -40 -28 -119 -45 -173 -37 -46 7 -120 43 -126 62 -12 36 107 63 267 60 54 -1 55 -2 58 -32z m-70 -159 c152 -28 309 -45 427 -45 130 0 264 -36 279 -75 8 -23 -10 -62 -39 -81 -16 -11 -131 -33 -330 -65 -349 -55 -527 -73 -635 -64 -227 19 -484 101 -541 173 -39 50 -17 102 59 141 55 28 88 33 286 41 235 11 332 6 494 -25z m1754 -64 c9 -1 29 -11 44 -24 23 -21 25 -26 15 -46 -37 -69 -206 -67 -312 3 -67 45 -50 64 66 75 33 3 85 3 115 -1 30 -3 63 -7 72 -7z m-383 -67 c30 -9 66 -23 79 -32 29 -19 54 -73 46 -99 -31 -95 -97 -121 -389 -155 -156 -18 -790 -17 -825 2 -30 16 -40 29 -40 53 0 29 55 44 180 52 135 8 217 28 380 95 139 57 230 88 297 100 66 12 207 4 272 -16z m-2817 -404 c46 -13 98 -71 98 -109 0 -42 -22 -54 -96 -53 -100 2 -161 23 -175 60 -13 34 11 68 64 93 49 22 59 22 109 9z m854 -290 c208 -17 595 -90 666 -126 97 -48 129 -128 96 -236 -16 -55 -79 -122 -142 -153 -205 -100 -812 -111 -1271 -24 -135 26 -329 84 -373 111 -54 33 -77 101 -51 150 12 23 89 59 313 147 228 90 409 133 597 140 20 0 94 -4 165 -9z m-1879 -22 c6 -5 23 -38 38 -73 26 -61 27 -66 11 -89 -9 -14 -30 -33 -47 -42 -29 -14 -38 -14 -118 1 -101 20 -121 29 -121 55 0 10 25 48 55 84 30 35 55 69 55 75 0 13 108 4 127 -11z m3145 -118 c50 -14 94 -53 108 -96 24 -72 -24 -160 -110 -204 -81 -41 -317 -66 -384 -40 -43 16 -44 52 -2 119 24 39 36 71 36 95 0 49 47 101 109 120 55 17 191 20 243 6z m-3451 -100 c16 0 49 -40 49 -60 0 -11 -11 -27 -24 -36 -21 -13 -33 -14 -80 -4 -39 8 -56 16 -56 27 0 22 70 85 87 79 8 -3 19 -6 24 -6z" id="124"/>
<path d="M5065 2430 c-56 -12 -131 -19 -201 -20 -125 0 -207 -19 -225 -51 -6 -11 -9 -22 -7 -23 2 -2 92 -13 200 -25 375 -42 588 -25 628 50 15 28 7 45 -32 65 -50 27 -246 29 -363 4z m78 -25 c1 -5 -6 -11 -15 -13 -11 -2 -18 3 -18 13 0 17 30 18 33 0z" id="125"/>
<path d="M5560 2283 c-14 -2 -72 -19 -130 -38 -160 -52 -205 -58 -455 -60 -126 -1 -246 -5 -265 -10 -60 -13 -106 -42 -120 -75 -16 -39 -8 -48 62 -67 135 -35 1084 -43 1207 -10 65 18 109 59 118 110 5 31 1 40 -24 66 -56 55 -278 103 -393 84z m64 -103 c-14 -14 -157 -31 -168 -20 -15 15 33 26 124 29 36 1 51 -2 44 -9z" id="126"/>
<path d="M4295 2135 c-5 -2 -27 -6 -47 -10 -49 -8 -48 -19 2 -39 80 -32 210 -10 218 37 3 15 -6 17 -80 16 -46 0 -87 -2 -93 -4z" id="127"/>
<path d="M3900 1970 c-98 -4 -190 -13 -210 -20 -78 -29 -115 -74 -88 -107 46 -57 234 -128 418 -159 132 -21 317 -15 545 20 415 64 496 79 520 98 76 59 -23 92 -320 107 -120 7 -225 18 -315 36 -155 30 -289 37 -550 25z m459 -81 c30 -13 41 -23 34 -30 -6 -6 -19 -5 -39 6 -16 8 -50 15 -76 15 -44 0 -65 10 -51 24 13 13 90 5 132 -15z m121 -9 c0 -6 -6 -10 -14 -10 -16 0 -38 24 -30 33 9 8 44 -11 44 -23z" id="128"/>
<path d="M5963 1893 c-44 -6 -41 -18 10 -44 57 -30 186 -39 222 -15 33 22 32 32 -7 46 -36 12 -175 21 -225 13z" id="129"/>
<path d="M5475 1820 c-38 -10 -137 -45 -220 -78 -210 -84 -243 -92 -390 -102 -71 -4 -138 -11 -147 -15 -27 -11 -21 -34 10 -42 15 -5 191 -8 392 -8 566 1 756 36 776 142 5 27 1 37 -23 61 -58 58 -257 79 -398 42z m345 -90 c0 -5 7 -10 15 -10 18 0 20 -14 3 -28 -15 -12 -118 -4 -118 9 0 5 10 9 23 9 13 0 32 7 43 15 23 17 34 19 34 5z" id="130"/>
<path d="M2881 1410 c-14 -6 -21 -14 -15 -19 14 -13 135 -51 161 -51 30 0 29 10 -6 44 -33 31 -98 43 -140 26z" id="131"/>
<path d="M2830 1350 c0 -20 62 -40 137 -45 l78 -5 -90 30 c-95 31 -125 36 -125 20z" id="132"/>
<path d="M3485 1114 c-124 -19 -240 -55 -445 -137 -210 -83 -246 -101 -260 -127 -15 -28 -2 -66 32 -95 56 -47 321 -116 588 -152 171 -23 662 -26 809 -4 184 26 288 71 339 145 51 75 47 175 -10 228 -37 34 -85 49 -303 93 -315 63 -558 79 -750 49z m-100 -205 c4 -6 5 -12 4 -14 -9 -8 -310 -48 -316 -42 -13 14 11 21 149 42 79 13 146 23 150 24 4 0 10 -4 13 -10z m75 -48 c0 -10 -22 -15 -102 -26 -39 -5 -48 -3 -48 9 0 15 27 21 108 24 23 1 42 -2 42 -7z" id="133"/>
<path d="M1827 1085 c-15 -19 -25 -35 -22 -35 3 0 29 12 58 26 45 23 49 28 32 35 -33 13 -39 10 -68 -26z" id="134"/>
<path d="M1845 1040 c-49 -27 -91 -53 -93 -59 -4 -12 12 -16 111 -32 l78 -13 26 27 27 26 -20 47 c-10 26 -23 48 -29 50 -5 1 -50 -20 -100 -46z" id="135"/>
<path d="M4845 970 c-47 -23 -75 -64 -75 -111 0 -19 -13 -52 -31 -80 -42 -65 -37 -82 26 -90 64 -8 222 7 277 27 121 42 176 130 133 213 -22 43 -78 61 -193 61 -77 0 -105 -4 -137 -20z m45 -44 c0 -8 -47 -56 -54 -56 -11 0 -7 35 6 48 11 11 48 17 48 8z" id="136"/>
<path d="M1615 880 c-12 -4 -26 -15 -34 -23 -11 -14 -8 -17 23 -23 42 -7 66 0 66 20 0 21 -31 35 -55 26z" id="137"/>
<path d="M2533 3829 c-18 -5 -35 -14 -39 -21 -10 -15 70 -5 116 15 l35 15 -40 0 c-22 0 -54 -4 -72 -9z" id="138"/>
<path d="M6166 3833 c-4 -5 -72 -8 -150 -8 l-142 0 -76 -38 c-147 -72 -259 -231 -342 -487 l-34 -105 46 -29 c71 -44 168 -86 215 -92 l42 -5 137 148 c208 225 255 297 296 453 34 126 36 191 8 163z" id="139"/>
<path d="M1111 3814 c-36 -8 -76 -22 -90 -31 l-26 -17 32 -12 c17 -7 44 -29 60 -48 l29 -35 29 19 c17 11 40 20 52 20 22 0 27 9 37 71 6 32 4 37 -16 43 -28 7 -29 7 -107 -10z" id="140"/>
<path d="M1266 3808 c-2 -7 -7 -33 -10 -56 -6 -39 -3 -48 24 -78 16 -19 30 -41 30 -49 0 -23 18 -18 61 16 46 37 49 49 10 49 -36 0 -51 18 -66 78 -12 46 -40 69 -49 40z" id="141"/>
<path d="M2399 3789 c-11 -22 -8 -26 26 -44 6 -3 5 -7 -2 -11 -18 -8 -17 -74 1 -74 17 0 76 65 76 84 0 17 -56 66 -75 66 -8 0 -19 -10 -26 -21z" id="142"/>
<path d="M725 3773 c-20 -5 -55 -31 -55 -42 0 -3 30 -21 68 -39 37 -18 97 -57 135 -87 73 -60 103 -70 91 -32 -14 46 -23 63 -53 104 -45 62 -134 108 -186 96z" id="143"/>
<path d="M1597 3743 c-23 -25 -34 -49 -63 -142 -3 -9 -8 -11 -14 -5 -7 7 -5 27 5 60 8 27 15 50 15 52 0 10 -78 -13 -92 -27 -24 -23 -35 -81 -16 -81 31 0 68 -40 68 -73 0 -41 30 -63 63 -46 39 20 96 82 107 115 9 27 8 38 -5 58 -9 14 -22 46 -29 71 l-11 46 -28 -28z" id="144"/>
<path d="M1947 3723 c-13 -28 -39 -59 -61 -74 -37 -25 -65 -61 -66 -86 0 -6 24 -17 53 -23 49 -11 118 -10 230 6 l47 6 -29 37 c-15 20 -33 46 -40 59 -8 15 -21 22 -42 22 -33 0 -98 -30 -118 -54 -17 -20 -31 -21 -31 -2 0 21 85 73 131 81 36 6 40 10 35 29 -3 11 -6 27 -6 34 0 7 -15 12 -40 12 -37 0 -40 -3 -63 -47z" id="145"/>
<path d="M933 3729 c-8 -8 -2 -29 23 -77 18 -37 36 -75 38 -84 5 -17 71 -36 83 -25 3 3 8 25 10 49 7 62 -17 115 -61 133 -42 18 -78 19 -93 4z" id="146"/>
<path d="M492 3695 c-28 -12 -33 -19 -30 -42 4 -39 39 -53 133 -53 83 0 180 -22 269 -59 63 -28 56 -10 -20 52 -121 98 -267 141 -352 102z" id="147"/>
<path d="M1150 3662 c-19 -15 -58 -132 -44 -132 3 0 26 11 52 24 26 13 66 29 90 36 23 7 42 15 42 17 0 15 -32 62 -45 67 -30 11 -73 6 -95 -12z" id="148"/>
<path d="M1716 3597 c-46 -50 -83 -108 -91 -143 -5 -27 -3 -32 17 -38 39 -10 78 -7 127 11 43 15 52 15 94 1 51 -17 53 -16 80 38 l16 31 -70 12 c-62 12 -72 11 -95 -4 -32 -21 -57 -5 -26 16 10 8 21 25 25 39 3 14 9 35 12 48 7 20 4 22 -25 22 -24 0 -41 -9 -64 -33z" id="149"/>
<path d="M2440 3600 c0 -11 12 -26 30 -35 67 -34 83 -5 20 38 -32 22 -50 21 -50 -3z" id="150"/>
<path d="M2401 3589 c-2 -26 -71 -99 -94 -99 -33 0 -67 -11 -67 -22 0 -5 7 -20 16 -34 l17 -25 23 35 c13 18 37 39 54 44 33 12 65 69 57 100 -4 15 -5 15 -6 1z" id="151"/>
<path d="M522 3570 c-64 -14 -107 -41 -107 -70 0 -33 75 -69 158 -77 53 -5 78 -1 158 25 52 16 110 34 129 40 l35 9 -48 21 c-102 46 -245 68 -325 52z" id="152"/>
<path d="M1273 3570 c-23 -5 -54 -15 -69 -23 -25 -13 -22 -14 47 -10 48 3 98 -1 143 -11 71 -17 92 -12 80 17 -12 32 -108 45 -201 27z" id="153"/>
<path d="M2078 3514 c-59 -31 -63 -93 -14 -215 38 -93 71 -214 90 -324 15 -83 32 -94 63 -38 45 83 58 142 58 268 -1 100 -4 129 -23 175 -28 69 -67 115 -112 134 -30 12 -39 12 -62 0z" id="154"/>
<path d="M952 3509 c7 -23 79 -52 142 -57 67 -5 73 9 17 42 -41 24 -166 36 -159 15z" id="155"/>
<path d="M1172 3501 c-9 -5 8 -11 45 -15 111 -13 230 -47 288 -81 l56 -34 -3 25 c-4 36 -68 80 -143 99 -63 16 -221 20 -243 6z" id="156"/>
<path d="M4741 3449 c-7 -24 -30 -82 -52 -128 -28 -60 -39 -97 -39 -131 l0 -48 39 5 c21 3 47 0 59 -6 17 -9 25 -6 50 19 l30 30 -19 50 c-10 28 -27 96 -37 152 l-18 101 -13 -44z" id="157"/>
<path d="M7736 3461 c74 -45 84 -110 29 -180 -47 -59 -62 -120 -69 -276 -10 -227 -57 -346 -192 -481 -77 -78 -89 -86 -267 -174 -189 -93 -289 -162 -268 -183 8 -8 21 -2 43 20 18 17 53 37 78 43 125 32 332 129 397 184 39 34 183 235 183 256 0 6 4 10 8 10 19 0 34 61 42 170 10 136 29 194 97 307 55 89 68 139 52 196 -18 66 -88 127 -146 127 -13 0 -8 -6 13 -19z" id="158"/>
<path d="M850 3456 c-159 -36 -245 -93 -212 -142 13 -21 70 -44 125 -50 51 -6 55 -5 62 16 4 12 38 55 77 96 38 40 67 78 63 84 -8 13 -44 11 -115 -4z" id="159"/>
<path d="M2332 3448 c-37 -41 -43 -71 -31 -171 11 -89 3 -180 -27 -287 -10 -38 120 130 141 181 20 50 31 160 21 214 -8 39 -45 85 -69 85 -7 0 -23 -10 -35 -22z" id="160"/>
<path d="M1191 3453 c2 -19 177 -168 217 -185 50 -23 114 -20 140 5 25 25 -12 86 -72 118 -67 36 -288 84 -285 62z" id="161"/>
<path d="M7519 3428 c-50 -26 -84 -57 -168 -151 -58 -65 -140 -145 -181 -178 -123 -98 -159 -149 -186 -265 -19 -84 -8 -125 40 -148 84 -40 240 11 219 71 -4 10 -10 9 -26 -2 -92 -65 -181 76 -113 180 8 12 62 54 120 94 73 49 118 88 148 128 60 79 102 106 152 100 74 -10 87 -56 41 -147 -23 -45 -28 -71 -34 -180 -7 -114 -12 -135 -40 -196 -43 -91 -178 -226 -266 -266 -222 -100 -277 -114 -308 -80 -43 48 -26 126 49 217 23 29 40 56 37 59 -35 35 -186 -109 -214 -205 -11 -36 -10 -44 25 -118 20 -43 40 -95 43 -115 5 -34 8 -36 43 -36 25 0 43 7 56 22 32 36 133 97 279 167 165 80 240 134 302 216 92 121 133 246 133 409 0 128 16 206 53 262 58 86 60 91 45 121 -38 79 -143 96 -249 41z" id="162"/>
<path d="M8092 3444 c-102 -22 -192 -76 -192 -114 0 -17 4 -20 18 -14 9 4 34 9 55 12 35 4 37 3 37 -25 0 -16 -16 -53 -35 -83 -20 -33 -35 -68 -35 -87 0 -51 -17 -81 -85 -155 -35 -38 -75 -93 -89 -121 -24 -51 -42 -157 -27 -157 27 0 105 69 138 122 21 34 64 90 96 124 64 71 72 87 93 188 22 105 45 149 102 193 59 45 77 75 62 104 -6 10 -19 19 -30 19 -10 0 -24 2 -32 4 -7 2 -41 -3 -76 -10z" id="163"/>
<path d="M937 3376 c-109 -104 -119 -165 -34 -209 48 -25 130 -28 153 -6 25 26 35 101 24 182 -12 79 -14 83 -50 92 -21 5 -36 -5 -93 -59z" id="164"/>
<path d="M1114 3423 c-19 -4 -21 -8 -13 -41 5 -20 9 -69 9 -109 l0 -71 45 -17 c79 -31 175 -5 175 47 0 24 -15 53 -53 101 -56 69 -111 99 -163 90z" id="165"/>
<path d="M2473 3424 c-8 -4 -10 -27 -6 -77 3 -40 1 -90 -6 -111 -6 -22 -9 -41 -7 -43 2 -2 21 7 41 22 26 17 51 25 81 25 34 0 48 6 73 31 50 50 36 101 -39 139 -36 18 -108 26 -137 14z m183 -119 c-7 -18 -26 -20 -26 -2 0 18 24 41 28 27 2 -6 1 -17 -2 -25z" id="166"/>
<path d="M2703 3415 c-21 -15 -21 -17 -6 -53 20 -48 18 -47 53 -32 23 10 30 19 30 40 0 26 -26 60 -46 60 -5 0 -19 -7 -31 -15z" id="167"/>
<path d="M1755 3385 c-19 -18 -25 -35 -25 -67 1 -90 53 -159 196 -260 44 -31 102 -80 129 -110 42 -45 68 -58 83 -43 2 2 -2 32 -8 66 -33 180 -123 343 -228 410 -59 37 -113 39 -147 4z" id="168"/>
<path d="M1602 3368 c-13 -15 -22 -39 -24 -68 -3 -39 -7 -47 -35 -60 -32 -15 -43 -35 -43 -77 0 -31 25 -29 53 3 32 37 70 54 122 54 45 0 45 0 38 28 -5 15 -8 50 -7 79 1 49 -1 51 -29 57 -45 9 -52 8 -75 -16z" id="169"/>
<path d="M4420 3374 c-17 -20 -18 -122 -1 -192 13 -54 8 -81 -10 -49 -12 21 -57 23 -65 2 -4 -8 -12 -15 -18 -15 -9 0 -11 15 -8 53 3 44 1 55 -18 72 -16 15 -25 17 -38 9 -27 -17 -27 -57 0 -69 28 -12 43 -53 34 -89 -10 -40 -24 -31 -28 17 -2 34 -7 43 -25 45 -30 4 -45 -27 -37 -78 8 -51 -6 -52 -51 -4 -26 27 -40 35 -62 32 -24 -3 -28 -7 -26 -32 3 -39 30 -76 64 -89 16 -6 29 -15 29 -20 0 -8 -15 -7 -91 9 -20 5 -35 -2 -61 -25 -20 -17 -38 -31 -41 -31 -3 0 -5 19 -4 41 2 54 -30 84 -80 74 -36 -7 -48 13 -13 22 39 10 9 93 -33 93 -35 0 -49 -25 -56 -97 -2 -28 -21 -11 -21 20 0 47 -19 106 -41 128 -23 23 -62 25 -79 4 -18 -21 -18 -91 -1 -143 17 -51 9 -64 -20 -29 -32 41 -42 34 -34 -23 8 -57 -2 -64 -28 -20 -29 49 -69 91 -95 101 -51 19 -98 -47 -57 -81 27 -23 16 -31 -34 -24 -61 8 -118 -16 -128 -54 -10 -41 25 -62 106 -62 42 0 74 -5 87 -14 18 -14 18 -15 -7 -24 -49 -19 -44 -92 6 -92 14 0 35 11 47 25 22 25 41 25 31 0 -9 -25 6 -63 28 -70 28 -9 59 21 59 57 0 35 13 35 52 3 16 -14 36 -25 43 -25 29 0 67 25 81 52 17 32 28 30 49 -12 37 -71 170 -104 241 -61 30 18 31 22 27 64 -5 40 -2 47 20 61 20 14 29 15 51 5 14 -7 28 -20 31 -31 4 -10 15 -18 25 -18 18 0 45 -20 52 -39 2 -6 26 -2 57 9 37 12 62 15 77 10 16 -7 24 -5 28 6 3 8 22 22 41 30 31 13 39 13 64 -1 16 -8 32 -24 36 -34 4 -13 12 -18 21 -14 9 3 27 -6 43 -21 24 -23 33 -26 69 -20 52 8 102 39 102 62 0 10 -7 27 -15 38 -20 26 -19 44 4 44 23 0 71 54 71 80 0 22 -26 50 -46 50 -26 0 -14 25 29 56 75 55 87 115 25 122 -36 4 -75 -33 -96 -92 -20 -56 -39 -58 -34 -4 3 28 -1 39 -17 47 -31 17 -41 14 -78 -25 -19 -20 -36 -34 -38 -32 -3 2 1 32 7 66 13 72 4 92 -31 70 -23 -14 -46 -71 -36 -88 3 -5 2 -18 -4 -27 -12 -22 -15 -14 -31 79 -15 95 -47 192 -68 212 -18 15 -20 15 -32 0z" id="170"/>
<path d="M8199 3320 c-79 -77 -81 -81 -108 -193 -26 -109 -39 -134 -106 -207 -30 -32 -63 -76 -74 -97 -28 -55 -89 -110 -162 -146 -34 -18 -65 -38 -67 -46 -6 -17 21 -9 107 32 86 40 155 106 196 187 18 36 52 83 75 105 50 47 70 89 70 144 0 90 18 136 75 190 46 44 75 88 63 95 -1 1 -33 -28 -69 -64z" id="171"/>
<path d="M7939 3295 c-15 -8 -36 -36 -49 -62 -12 -26 -40 -76 -62 -110 -39 -60 -78 -164 -78 -205 0 -16 15 -5 63 47 82 89 97 113 97 154 0 20 14 59 35 97 33 59 44 94 28 94 -5 -1 -20 -7 -34 -15z" id="172"/>
<path d="M4851 3281 c-11 -7 -11 -15 -2 -43 9 -27 19 -38 44 -44 17 -6 38 -21 46 -35 12 -22 12 -29 -1 -57 -15 -30 -15 -32 19 -84 67 -102 125 -149 206 -168 27 -6 119 -12 205 -14 86 -2 174 -7 195 -11 30 -6 37 -4 37 9 0 8 22 59 49 111 30 59 45 97 38 99 -73 18 -146 50 -221 94 -144 85 -224 123 -295 138 -72 15 -298 19 -320 5z m505 -210 c-3 -5 -32 -12 -63 -16 -72 -9 -120 -28 -156 -62 -19 -19 -30 -24 -38 -16 -15 15 55 70 111 88 50 15 154 20 146 6z m-1 -71 c-3 -5 -14 -10 -24 -10 -10 0 -30 -9 -44 -20 -30 -24 -37 -25 -37 -6 0 8 10 22 22 30 25 18 93 22 83 6z" id="173"/>
<path d="M8380 3239 c0 -25 7 -68 15 -95 8 -27 15 -50 15 -51 0 -2 -27 -3 -60 -3 l-59 0 6 33 c6 29 5 31 -11 18 -10 -8 -24 -27 -32 -43 -20 -39 -30 -35 -38 13 -4 23 -14 55 -23 72 -14 29 -17 30 -23 12 -4 -11 -10 -53 -14 -93 -7 -83 -13 -98 -61 -151 -20 -22 -38 -56 -44 -82 -20 -85 -16 -87 52 -22 97 93 213 143 334 143 l63 0 0 122 c0 67 -3 118 -7 115 -3 -4 -11 -27 -18 -52 -6 -25 -15 -47 -21 -48 -5 -1 -23 34 -41 78 l-32 80 -1 -46z" id="174"/>
<path d="M7459 3214 c-14 -9 -43 -40 -64 -69 -38 -53 -78 -87 -190 -162 -85 -57 -100 -77 -100 -130 0 -37 5 -49 28 -69 35 -30 42 -30 73 1 24 24 25 27 10 50 -23 34 -21 41 21 70 53 35 73 33 73 -7 -1 -31 -2 -32 -15 -14 -13 18 -16 18 -39 2 l-25 -16 19 -42 c25 -54 26 -110 3 -130 -38 -33 -89 -51 -153 -53 -63 -2 -66 -4 -106 -48 -49 -54 -74 -104 -74 -145 0 -29 21 -62 40 -62 15 0 232 90 281 116 51 28 164 137 202 194 44 67 59 120 64 240 4 101 9 123 36 183 23 52 28 73 20 85 -14 23 -72 26 -104 6z" id="175"/>
<path d="M2492 3181 c-31 -23 -194 -211 -256 -296 -48 -65 149 -60 278 8 101 53 163 169 136 252 -23 70 -89 85 -158 36z m78 -196 c0 -14 -4 -25 -10 -25 -5 0 -10 11 -10 25 0 14 5 25 10 25 6 0 10 -11 10 -25z m-52 -56 c-2 -6 -8 -10 -13 -10 -5 0 -11 4 -13 10 -2 6 4 11 13 11 9 0 15 -5 13 -11z m-58 -29 c0 -11 -4 -20 -10 -20 -5 0 -10 9 -10 20 0 11 5 20 10 20 6 0 10 -9 10 -20z m-48 -32 c-15 -15 -26 -4 -18 18 5 13 9 15 18 6 9 -9 9 -15 0 -24z" id="176"/>
<path d="M1655 3192 c-43 -7 -71 -24 -82 -49 -52 -111 48 -192 292 -238 72 -14 148 -29 170 -34 22 -5 42 -8 44 -6 2 2 -6 19 -18 38 -22 37 -73 81 -156 137 -27 19 -77 59 -110 91 -59 55 -91 69 -140 61z m245 -236 c0 -18 -17 -29 -30 -21 -8 5 -7 11 1 21 15 18 29 18 29 0z m40 -26 c0 -5 -7 -10 -15 -10 -8 0 -15 5 -15 10 0 6 7 10 15 10 8 0 15 -4 15 -10z" id="177"/>
<path d="M855 3093 c-9 -32 -19 -65 -21 -74 -2 -9 2 -22 11 -29 16 -14 14 -19 35 65 17 66 17 87 3 92 -7 3 -18 -18 -28 -54z" id="178"/>
<path d="M4870 3025 c-10 -13 -10 -19 3 -33 32 -35 25 -82 -18 -127 -49 -53 -37 -71 52 -78 50 -3 86 1 136 15 l68 20 -43 27 c-48 31 -105 91 -143 151 -28 44 -36 48 -55 25z" id="179"/>
<path d="M8361 2959 c-83 -16 -185 -73 -249 -138 -53 -55 -60 -67 -66 -114 -4 -29 -9 -68 -13 -87 l-6 -35 24 21 c41 37 191 100 210 88 16 -9 -19 -60 -80 -116 l-60 -56 74 -4 c54 -2 80 -8 92 -21 16 -16 16 -18 -3 -44 -11 -16 -39 -38 -62 -49 -38 -20 -40 -22 -19 -29 12 -4 84 -9 160 -12 l137 -6 0 307 0 306 -47 -1 c-27 -1 -68 -5 -92 -10z m-148 -138 c-16 -14 -38 -38 -48 -53 -19 -31 -35 -36 -35 -12 0 24 86 107 101 98 9 -5 4 -15 -18 -33z m120 24 c-2 -5 -16 -13 -33 -18 -16 -4 -34 -16 -40 -27 -12 -23 -30 -26 -30 -6 0 22 60 67 84 64 11 -2 20 -7 19 -13z" id="180"/>
<path d="M1384 2931 c-40 -24 -58 -69 -52 -130 6 -59 26 -100 103 -206 67 -93 94 -151 102 -218 6 -51 7 -52 65 -62 l37 -6 25 81 c15 45 26 99 26 121 0 36 -2 39 -27 39 -45 1 -110 36 -127 69 -37 70 -11 147 69 203 l45 32 -32 33 c-17 18 -46 39 -64 48 -45 21 -132 19 -170 -4z" id="181"/>
<path d="M754 2884 c10 -25 83 -128 107 -151 22 -20 28 -21 69 -10 25 6 46 12 48 13 10 6 -30 75 -50 86 -57 32 -179 75 -174 62z" id="182"/>
<path d="M1085 2865 c-72 -25 -107 -92 -69 -129 8 -9 24 -16 34 -16 44 0 182 -83 250 -150 65 -64 161 -196 175 -240 7 -23 33 -27 41 -6 9 22 -24 136 -52 181 -13 22 -49 75 -79 119 -31 43 -61 98 -68 123 -14 55 -64 109 -115 122 -48 14 -68 13 -117 -4z" id="183"/>
<path d="M2117 2862 c-20 -22 -22 -73 -5 -90 31 -31 98 4 98 52 0 50 -60 75 -93 38z" id="184"/>
<path d="M2495 2855 c-27 -13 -81 -29 -120 -35 -38 -6 -71 -12 -72 -14 -3 -3 120 -87 161 -108 43 -24 138 -42 171 -34 44 11 65 41 65 91 0 37 -6 52 -33 81 -44 48 -100 54 -172 19z m107 -80 c0 -5 -5 -11 -11 -13 -6 -2 -11 4 -11 13 0 9 5 15 11 13 6 -2 11 -8 11 -13z" id="185"/>
<path d="M6040 2871 c-18 -5 -29 -18 -38 -45 -20 -61 5 -132 67 -193 45 -45 48 -52 54 -112 6 -58 5 -62 -11 -55 -26 11 -89 17 -116 10 -32 -8 -86 -54 -86 -72 0 -26 29 -27 82 -4 98 42 175 8 212 -95 42 -115 67 -156 115 -186 25 -17 65 -35 89 -41 26 -6 42 -16 42 -25 0 -9 -6 -13 -15 -10 -8 4 -41 12 -73 18 -54 11 -62 11 -93 -7 -42 -25 -49 -51 -17 -63 30 -11 464 -14 503 -3 26 8 30 13 30 46 0 28 6 42 25 56 22 17 25 26 24 83 -2 165 -159 354 -349 417 -58 19 -63 24 -69 55 -4 22 -17 42 -37 56 -46 32 -21 44 32 15 60 -33 115 -46 204 -48 78 -2 100 7 89 36 -10 26 -58 46 -111 47 -90 2 -216 23 -221 38 -4 11 4 13 39 7 24 -4 92 -9 151 -13 90 -5 111 -3 133 11 35 23 32 31 -17 51 -64 26 -241 32 -350 11 -85 -16 -88 -16 -120 4 -34 20 -115 26 -168 11z m140 -30 c0 -11 -39 -21 -45 -11 -2 4 -2 10 2 14 10 9 43 7 43 -3z" id="186"/>
<path d="M1745 2850 c-72 -13 -155 -59 -178 -98 -29 -50 -26 -110 7 -139 64 -54 169 -53 288 3 166 80 255 188 186 226 -28 15 -234 20 -303 8z m275 -74 c0 -26 -27 -43 -43 -27 -7 7 -5 17 8 31 24 26 35 25 35 -4z" id="187"/>
<path d="M7999 2818 c-7 -18 -28 -49 -47 -70 l-33 -37 17 -57 c18 -63 13 -137 -12 -186 -12 -23 -12 -28 -1 -28 22 0 64 89 80 170 14 66 23 240 13 240 -2 0 -10 -15 -17 -32z" id="188"/>
<path d="M350 2778 c22 -29 52 -86 66 -125 15 -40 29 -73 31 -73 7 0 -8 142 -18 168 -16 41 -67 82 -103 82 -11 0 -4 -15 24 -52z" id="189"/>
<path d="M4122 2808 c-16 -16 -15 -28 6 -51 16 -18 16 -20 -17 -48 -19 -16 -56 -36 -82 -44 -88 -29 -63 -69 39 -64 32 2 67 -2 79 -9 32 -18 94 -14 123 7 23 18 26 18 55 3 47 -26 160 -23 208 6 46 27 43 27 50 2 10 -38 114 -21 141 23 13 21 -5 37 -45 37 -16 0 -33 10 -48 31 -22 29 -24 30 -46 15 -33 -21 -38 -20 -31 7 7 28 -18 67 -42 67 -29 0 -61 -29 -70 -63 -9 -37 -24 -39 -32 -5 -8 31 -30 33 -86 9 -53 -24 -86 -27 -83 -8 3 27 -2 37 -20 37 -11 0 -23 -5 -26 -10 -9 -15 -27 0 -21 17 7 18 -11 53 -27 53 -7 0 -18 -5 -25 -12z" id="190"/>
<path d="M5168 2800 c-145 -18 -238 -64 -238 -116 0 -20 9 -29 43 -44 80 -35 171 -45 427 -45 237 0 247 1 293 23 52 26 70 50 65 89 -7 63 -114 92 -358 98 -91 2 -195 0 -232 -5z m472 -140 c0 -13 -44 -23 -69 -15 -36 11 -23 25 24 25 25 0 45 -4 45 -10z" id="191"/>
<path d="M2230 2794 c0 -4 14 -22 31 -42 48 -54 99 -171 117 -267 15 -77 19 -85 40 -85 65 0 118 64 109 131 -10 72 -118 185 -234 244 -53 26 -63 29 -63 19z m244 -235 c-3 -6 0 -15 7 -20 12 -7 11 -11 -3 -25 -15 -16 -18 -16 -33 -1 -12 13 -14 21 -5 37 6 11 18 20 26 20 9 0 12 -5 8 -11z" id="192"/>
<path d="M2075 2740 c-12 -38 -87 -142 -153 -213 -105 -113 -128 -182 -77 -232 66 -66 212 8 270 137 25 55 29 78 33 178 l4 115 -36 16 c-33 15 -36 15 -41 -1z m45 -95 c0 -8 -6 -15 -14 -15 -17 0 -28 14 -19 24 12 12 33 6 33 -9z m-50 -194 c0 -13 -37 -24 -50 -16 -6 4 -8 11 -5 16 8 12 55 12 55 0z m-30 -51 c0 -5 -9 -10 -20 -10 -11 0 -20 5 -20 10 0 6 9 10 20 10 11 0 20 -4 20 -10z m-90 -55 c10 -12 10 -15 -4 -15 -9 0 -16 7 -16 15 0 8 2 15 4 15 2 0 9 -7 16 -15z" id="193"/>
<path d="M2199 2748 c-13 -10 -18 -37 -22 -128 -4 -93 -10 -128 -32 -185 -20 -54 -26 -82 -22 -123 5 -74 31 -106 88 -110 92 -5 149 69 149 194 0 111 -50 259 -109 326 -31 34 -38 38 -52 26z m54 -67 c5 -21 -18 -49 -30 -37 -12 11 -12 40 -1 53 13 16 24 10 31 -16z m-3 -66 c0 -8 -7 -15 -15 -15 -16 0 -20 12 -8 23 11 12 23 8 23 -8z m70 -324 c0 -12 -26 -32 -33 -25 -9 10 4 34 19 34 8 0 14 -4 14 -9z" id="194"/>
<path d="M465 2714 c2 -16 7 -66 10 -112 3 -45 15 -107 26 -137 27 -72 104 -156 168 -184 49 -21 49 -21 93 -2 54 24 205 45 272 38 56 -6 56 -6 -69 44 -70 28 -90 42 -161 114 -44 46 -91 86 -102 90 -19 5 -32 35 -16 35 11 0 50 -23 71 -43 27 -24 30 -22 35 22 3 31 -2 38 -37 62 -24 17 -84 40 -150 58 -60 16 -118 33 -127 36 -15 6 -17 2 -13 -21z" id="195"/>
<path d="M890 2678 c-65 -44 -92 -145 -54 -203 28 -43 83 -70 339 -168 41 -16 215 -71 226 -72 3 0 18 14 33 32 l27 32 -25 48 c-63 126 -192 259 -303 313 -92 46 -192 53 -243 18z m328 -300 c-5 -16 -48 -24 -48 -9 0 8 17 16 43 20 5 0 7 -5 5 -11z m60 -30 c-5 -16 -48 -24 -48 -10 0 11 17 20 38 21 8 1 12 -5 10 -11z m50 -29 c-2 -6 -8 -10 -13 -10 -5 0 -11 4 -13 10 -2 6 4 11 13 11 9 0 15 -5 13 -11z" id="196"/>
<path d="M1930 2624 c-61 -39 -149 -74 -183 -74 -20 0 -24 -8 -34 -75 -7 -41 -22 -97 -34 -124 -20 -49 -20 -50 -2 -75 24 -33 35 -32 78 5 26 23 35 39 35 63 0 50 43 128 111 202 120 129 122 136 29 78z" id="197"/>
<path d="M8151 2638 c-34 -9 -151 -116 -151 -138 0 -15 84 32 153 86 77 60 76 75 -2 52z" id="198"/>
<path d="M7837 2542 c2 -10 15 -32 28 -48 19 -23 26 -26 34 -15 12 19 2 49 -22 66 -29 20 -46 19 -40 -3z" id="199"/>
<path d="M8120 2494 c-46 -9 -145 -46 -164 -63 -17 -15 -17 -16 10 -22 48 -11 140 -10 194 2 54 12 117 56 102 71 -11 11 -105 19 -142 12z" id="200"/>
<path d="M7773 2463 c-13 -3 -23 -8 -23 -13 0 -24 86 -56 121 -45 55 18 -34 69 -98 58z" id="201"/>
<path d="M7627 2449 c-15 -9 -47 -58 -47 -74 0 -16 21 0 45 35 30 43 31 54 2 39z" id="202"/>
<path d="M7492 2384 c-40 -31 -42 -33 -23 -43 11 -6 33 -11 50 -11 33 0 35 7 22 61 l-6 27 -43 -34z" id="203"/>
<path d="M5993 2373 c-33 -17 -43 -33 -20 -33 6 0 34 7 60 15 26 8 62 12 80 8 26 -4 30 -3 20 7 -19 20 -103 22 -140 3z" id="204"/>
<path d="M7620 2345 c-25 -14 -25 -14 16 -15 22 0 49 7 60 15 18 13 17 14 -16 14 -19 0 -46 -6 -60 -14z" id="205"/>
<path d="M1500 2282 c-41 -20 -80 -75 -80 -112 0 -35 35 -79 76 -96 69 -29 169 -10 194 35 30 58 -5 141 -73 171 -52 24 -73 25 -117 2z" id="206"/>
<path d="M840 2276 c-101 -22 -158 -69 -181 -146 -25 -83 24 -156 124 -185 83 -23 139 -22 176 4 32 23 239 123 363 176 107 46 101 78 -21 116 -152 47 -343 61 -461 35z m350 -161 c0 -8 -4 -15 -10 -15 -5 0 -10 7 -10 15 0 8 5 15 10 15 6 0 10 -7 10 -15z m-98 -47 c-15 -15 -26 -4 -18 18 5 13 9 15 18 6 9 -9 9 -15 0 -24z m-136 -4 c10 -40 -11 -52 -25 -13 -14 40 -14 39 4 39 8 0 18 -12 21 -26z m74 7 c0 -20 -17 -37 -27 -28 -7 8 7 47 18 47 5 0 9 -9 9 -19z" id="207"/>
<path d="M2005 2271 c-64 -29 -95 -33 -146 -20 -41 11 -54 10 -93 -5 -35 -14 -46 -23 -46 -39 0 -37 12 -44 111 -60 109 -18 235 -56 328 -98 194 -88 363 -42 321 86 -11 33 -91 115 -113 115 -5 0 -27 -15 -48 -34 -40 -37 -92 -53 -135 -42 -33 9 -71 50 -79 87 -8 35 -38 38 -100 10z m32 -66 c3 -9 3 -19 -1 -22 -7 -7 -36 16 -36 28 0 15 30 10 37 -6z m53 -5 c0 -11 -4 -20 -10 -20 -5 0 -10 9 -10 20 0 11 5 20 10 20 6 0 10 -9 10 -20z" id="208"/>
<path d="M6877 2158 c-10 -8 -18 -29 -20 -53 -2 -34 1 -41 27 -53 25 -13 31 -12 55 5 46 35 36 95 -19 108 -14 3 -33 0 -43 -7z" id="209"/>
<path d="M1229 2056 c-264 -123 -365 -191 -403 -270 -34 -72 -10 -164 59 -225 111 -97 251 -79 374 47 87 91 178 262 203 384 l11 53 -41 43 c-23 23 -43 42 -44 41 -2 0 -73 -33 -159 -73z m-103 -333 c17 -23 17 -33 0 -33 -18 0 -39 27 -31 40 9 14 16 13 31 -7z m-66 -42 c19 -16 32 -32 28 -36 -12 -12 -78 34 -78 56 0 15 13 10 50 -20z" id="210"/>
<path d="M1720 2118 c0 -7 28 -37 63 -66 123 -106 219 -238 246 -338 10 -36 17 -44 52 -58 108 -43 241 -26 298 39 98 112 -55 277 -345 374 -157 52 -314 77 -314 49z m366 -133 c4 -8 3 -23 0 -32 -6 -14 -9 -12 -21 11 -18 35 -18 36 0 36 9 0 18 -7 21 -15z m64 -42 c-1 -18 -18 -35 -24 -24 -4 6 -4 16 -1 21 7 12 25 13 25 3z m60 -29 c0 -16 -16 -19 -25 -4 -8 13 4 32 16 25 5 -4 9 -13 9 -21z m100 -80 c0 -14 -12 -19 -23 -8 -9 9 4 35 14 28 5 -3 9 -12 9 -20z" id="211"/>
<path d="M390 2059 c-58 -16 -132 -32 -165 -37 l-60 -8 50 -32 c123 -80 212 -90 320 -39 39 19 82 37 98 41 26 6 27 7 11 31 -14 21 -24 25 -66 25 -27 0 -63 -7 -80 -16 -20 -10 -34 -12 -40 -6 -15 15 45 43 108 49 30 3 54 10 54 14 0 19 -129 7 -230 -22z" id="212"/>
<path d="M1679 2061 l-23 -18 17 -69 c39 -167 47 -381 16 -483 -11 -38 -10 -41 17 -65 49 -44 127 -78 160 -70 52 12 90 43 119 95 58 107 41 254 -46 389 -38 60 -210 240 -229 240 -4 0 -18 -8 -31 -19z m134 -123 c6 -17 -12 -50 -22 -44 -10 7 -2 56 9 56 5 0 10 -6 13 -12z m47 -57 c0 -19 -26 -48 -36 -39 -3 3 -2 17 2 32 7 30 34 36 34 7z m60 -61 c0 -5 -7 -16 -16 -25 -24 -24 -40 -3 -18 23 17 20 34 21 34 2z m22 -115 c0 -5 -5 -11 -11 -13 -6 -2 -11 4 -11 13 0 9 5 15 11 13 6 -2 11 -8 11 -13z" id="213"/>
<path d="M1494 2010 c-24 -112 -97 -270 -178 -380 -25 -35 -49 -79 -52 -97 -16 -87 31 -192 99 -224 49 -22 66 -23 119 -7 56 17 119 76 158 150 32 60 34 69 38 185 5 126 -8 246 -34 343 l-15 55 -65 0 c-61 1 -65 0 -70 -25z m136 -200 c0 -12 -28 -25 -36 -17 -9 9 6 27 22 27 8 0 14 -5 14 -10z m-11 -126 c1 -1 0 -7 -4 -13 -3 -6 -18 -8 -33 -5 -36 9 -43 14 -37 24 5 8 63 3 74 -6z m-4 -79 c0 -5 -19 -11 -42 -13 -34 -3 -43 0 -43 13 0 13 9 16 43 13 23 -2 42 -7 42 -13z m-45 -131 c0 -18 -44 -18 -59 -1 -15 19 -7 24 29 19 17 -2 30 -10 30 -18z m-12 -46 c-7 -20 -48 -23 -48 -4 0 11 9 16 26 16 16 0 24 -5 22 -12z" id="214"/>
<path d="M2361 1982 l-64 -3 39 -40 c37 -38 40 -39 105 -39 71 0 129 -15 113 -29 -5 -5 -39 -4 -77 2 -37 6 -70 8 -73 5 -3 -4 1 -17 9 -30 53 -83 15 -181 -88 -224 -50 -21 -163 -21 -228 -1 -43 14 -48 14 -45 0 2 -8 28 -25 59 -38 184 -75 288 -55 401 77 111 129 131 148 180 171 l50 24 -33 25 c-48 36 -106 64 -169 81 -72 20 -102 23 -179 19z" id="215"/>
<path d="M7660 1813 c0 -17 50 -33 103 -32 l52 1 -35 15 c-43 19 -120 29 -120 16z" id="216"/>
<path d="M7616 1764 c-12 -32 -6 -73 12 -83 10 -5 31 -28 46 -50 26 -37 29 -39 58 -29 16 6 56 8 89 5 52 -4 63 -2 102 23 53 33 62 52 42 90 -25 48 -45 53 -145 39 -78 -11 -93 -11 -132 4 -54 21 -64 21 -72 1z" id="217"/>
<path d="M8032 1768 c-33 -33 -9 -54 93 -78 27 -6 55 -16 62 -22 19 -15 16 0 -7 38 -20 31 -90 74 -121 74 -8 0 -20 -5 -27 -12z" id="218"/>
<path d="M7995 1666 c-11 -17 -41 -44 -67 -61 -37 -24 -47 -35 -45 -54 2 -21 15 -29 92 -57 110 -40 172 -44 203 -11 29 31 43 97 26 129 -14 27 -69 58 -103 58 -12 0 -36 6 -54 13 -31 13 -33 13 -52 -17z" id="219"/>
<path d="M7383 1671 c-39 -24 -41 -34 -41 -145 l0 -89 52 7 c28 3 90 17 138 32 78 24 89 30 113 67 29 45 25 65 -19 106 -44 40 -191 53 -243 22z" id="220"/>
<path d="M7699 1557 c-52 -35 -45 -51 23 -55 75 -4 128 18 128 52 0 25 -2 26 -59 26 -44 0 -66 -6 -92 -23z" id="221"/>
<path d="M828 1530 c-14 -10 -48 -64 -77 -118 -29 -55 -67 -116 -86 -136 -20 -22 -29 -39 -22 -41 7 -2 62 -15 123 -29 124 -29 236 -34 289 -12 19 8 73 52 120 98 l84 83 -15 55 c-8 30 -12 70 -9 88 l6 32 -46 -29 c-58 -37 -131 -55 -192 -47 -48 6 -48 6 -73 -35 -30 -50 -128 -142 -142 -133 -5 3 19 36 55 73 57 59 94 109 85 115 -2 1 -19 14 -39 29 -37 26 -37 26 -61 7z" id="222"/>
<path d="M7003 1528 c-11 -13 -26 -34 -33 -47 -12 -24 -50 -191 -50 -223 0 -30 24 -20 54 23 35 50 127 119 189 143 26 10 47 21 47 26 0 16 -52 71 -81 85 -43 23 -102 19 -126 -7z" id="223"/>
<path d="M6800 1521 c-25 -8 -110 -49 -110 -54 0 -8 170 -5 193 4 69 29 -6 73 -83 50z" id="224"/>
<path d="M7839 1494 c-13 -7 -32 -13 -42 -14 -20 0 -23 -7 -31 -68 l-7 -44 30 21 c44 32 77 34 171 13 83 -18 150 -15 150 7 0 5 -28 19 -62 31 -35 13 -90 33 -124 45 -53 20 -63 21 -85 9z" id="225"/>
<path d="M8205 1474 c-14 -19 -25 -34 -23 -34 6 0 123 50 118 50 -3 0 -19 4 -37 9 -29 9 -34 6 -58 -25z" id="226"/>
<path d="M7545 1454 c-55 -18 -117 -33 -138 -34 -31 0 -38 -3 -35 -17 2 -12 16 -20 40 -24 26 -4 53 -20 87 -52 55 -52 102 -66 161 -48 50 15 69 47 77 126 6 65 6 65 -20 65 -14 0 -36 4 -49 8 -16 6 -51 0 -123 -24z" id="227"/>
<path d="M6885 1443 c-21 -9 -52 -11 -100 -7 -40 3 -82 1 -98 -5 -39 -15 -124 -97 -136 -131 -13 -37 -1 -47 69 -56 68 -9 95 -18 141 -50 l37 -25 46 32 c27 20 46 41 46 52 0 11 7 46 16 79 8 33 14 75 12 92 -3 32 -3 33 -33 19z" id="228"/>
<path d="M1631 1385 l-32 -45 25 0 c31 0 56 24 56 55 0 40 -16 37 -49 -10z" id="229"/>
<path d="M7201 1410 c-105 -38 -231 -143 -231 -193 0 -11 -9 -35 -20 -53 l-21 -33 32 -17 c18 -9 71 -20 118 -25 47 -4 114 -11 148 -15 61 -7 63 -6 73 20 7 20 6 37 -6 69 -28 75 -28 90 6 156 40 80 37 105 -10 108 -19 2 -59 -6 -89 -17z" id="230"/>
<path d="M7791 1354 c-22 -19 -49 -50 -59 -69 l-20 -33 21 -6 c87 -23 299 26 356 83 31 31 26 39 -21 34 -24 -3 -71 2 -104 11 -97 25 -128 22 -173 -20z" id="231"/>
<path d="M5715 1368 c23 -39 97 -137 122 -161 l29 -27 31 43 c16 24 46 51 65 60 43 21 117 22 161 3 26 -10 46 -11 90 -3 31 6 57 13 57 17 0 3 -46 21 -102 40 -100 34 -109 35 -282 38 -146 3 -177 1 -171 -10z" id="232"/>
<path d="M7325 1311 c-28 -57 -29 -75 -2 -146 l15 -40 12 30 c17 41 24 154 12 185 -9 24 -10 23 -37 -29z" id="233"/>
<path d="M7390 1330 c0 -61 171 -124 250 -91 22 9 20 10 -23 10 -61 1 -104 20 -146 65 -39 40 -81 49 -81 16z" id="234"/>
<path d="M5994 1270 c-49 -15 -94 -73 -94 -120 0 -23 5 -40 11 -40 6 0 32 23 58 50 40 43 52 50 85 50 83 0 131 -72 142 -213 l7 -88 36 3 36 3 -2 75 c-3 100 -18 151 -60 200 -59 68 -149 101 -219 80z" id="235"/>
<path d="M6270 1269 c-75 -15 -76 -16 -47 -47 47 -49 70 -118 75 -222 l4 -95 39 -24 c21 -14 52 -44 69 -67 21 -29 40 -45 63 -49 49 -11 103 -41 127 -72 18 -23 21 -37 18 -82 -4 -47 -1 -62 26 -108 l31 -53 61 0 c44 0 74 -7 107 -24 45 -22 47 -23 53 -4 9 29 -4 97 -32 179 -30 86 -25 114 7 42 28 -61 39 -66 39 -20 0 17 7 61 14 97 8 36 13 66 12 66 0 1 -35 -4 -76 -12 -41 -7 -114 -13 -162 -14 -97 0 -128 15 -128 64 0 19 -6 24 -38 30 -120 19 -218 185 -162 274 29 46 78 64 192 70 96 5 129 22 42 22 -36 0 -50 6 -72 28 -25 25 -33 27 -122 29 -52 1 -115 -2 -140 -8z" id="236"/>
<path d="M7390 1208 c-6 -28 -22 -73 -37 -100 -33 -61 -76 -78 -155 -59 -59 13 -68 9 -43 -19 11 -13 18 -35 17 -62 0 -34 30 -155 65 -258 3 -8 15 19 27 60 20 70 21 75 4 78 -55 10 -10 125 57 146 11 3 40 33 64 66 76 105 99 106 32 2 l-39 -60 28 -12 c35 -15 76 -57 89 -93 36 -94 -7 -202 -132 -332 l-82 -85 0 -198 c-1 -110 -6 -216 -12 -240 l-11 -43 70 3 70 3 30 74 c29 75 70 209 81 269 11 54 -12 37 -43 -33 -31 -70 -47 -78 -80 -45 -23 23 -24 39 -9 95 17 59 43 90 101 119 l51 26 23 89 c33 130 95 278 176 420 66 115 70 127 62 160 -9 34 -11 36 -59 41 -29 3 -67 -1 -90 -8 -52 -18 -121 -10 -190 22 l-54 24 -11 -50z" id="237"/>
<path d="M470 1207 c-19 -7 -44 -19 -55 -26 -17 -10 -13 -11 30 -7 28 3 87 9 133 12 45 4 82 10 82 14 0 8 -77 20 -124 20 -17 -1 -47 -7 -66 -13z" id="238"/>
<path d="M6855 1176 c-33 -24 -68 -53 -79 -64 -17 -20 -17 -22 -2 -28 29 -11 66 6 116 54 48 47 64 82 37 82 -7 0 -40 -20 -72 -44z" id="239"/>
<path d="M7831 1211 c-12 -8 -12 -21 -3 -80 7 -38 12 -108 12 -155 0 -47 3 -86 8 -86 22 1 27 25 27 130 0 63 3 134 7 158 6 38 4 42 -15 42 -12 0 -28 -4 -36 -9z" id="240"/>
<path d="M6023 1180 c-32 -13 -29 -24 14 -39 20 -7 56 -31 80 -53 46 -43 55 -36 29 25 -24 58 -77 86 -123 67z" id="241"/>
<path d="M6533 1170 c-93 -8 -128 -26 -138 -68 -13 -60 31 -107 123 -132 35 -9 53 -8 95 4 68 20 127 68 127 105 0 14 7 37 16 49 35 51 -14 60 -223 42z" id="242"/>
<path d="M8254 1136 c-31 -14 -44 -33 -44 -65 0 -15 12 -19 72 -24 53 -5 76 -3 88 7 22 20 97 56 115 56 20 0 19 26 -1 34 -30 11 -198 5 -230 -8z" id="243"/>
<path d="M6870 1085 c-18 -14 -48 -27 -65 -31 -50 -9 -224 -189 -203 -210 3 -2 30 11 59 31 102 67 147 78 292 70 151 -9 187 0 187 46 0 36 -25 53 -110 75 -36 9 -77 23 -92 30 -34 17 -28 18 -68 -11z" id="244"/>
<path d="M8031 1082 c-63 -32 -141 -103 -141 -130 0 -33 17 -39 75 -27 45 9 59 16 74 41 21 34 63 67 99 79 18 5 22 13 20 33 -4 39 -56 40 -127 4z" id="245"/>
<path d="M8427 1058 c-54 -29 -57 -33 -51 -61 4 -21 1 -34 -15 -51 l-22 -23 50 -22 c28 -12 64 -24 81 -27 l30 -6 0 111 c0 61 -3 111 -7 111 -5 0 -34 -15 -66 -32z" id="246"/>
<path d="M7762 1000 c-76 -128 -145 -295 -176 -428 l-14 -62 44 -19 c24 -11 57 -34 73 -52 l30 -32 20 69 c12 38 27 99 35 136 12 59 12 72 -2 112 -16 43 -15 47 6 99 19 45 22 69 20 143 l-3 89 -33 -55z" id="247"/>
<path d="M8149 1018 c-44 -11 -94 -60 -86 -83 17 -42 142 -44 224 -2 59 29 76 53 48 70 -46 27 -119 33 -186 15z" id="248"/>
<path d="M6409 973 c12 -23 60 -68 88 -82 12 -6 37 -11 55 -11 26 0 37 7 54 33 l22 33 -53 -4 c-42 -3 -65 1 -110 22 -68 31 -68 31 -56 9z" id="249"/>
<path d="M7343 972 c-25 -4 -73 -55 -73 -78 0 -20 13 -17 28 6 19 31 85 28 111 -6 48 -61 17 -138 -114 -284 -26 -29 -30 -41 -26 -68 l6 -33 67 68 c74 75 132 164 142 218 18 97 -56 190 -141 177z" id="250"/>
<path d="M7105 920 c-11 -5 -81 -6 -156 -3 -131 6 -138 5 -192 -20 -69 -31 -147 -84 -147 -99 0 -7 41 -9 133 -5 181 7 317 47 376 111 25 27 21 31 -14 16z" id="251"/>
<path d="M7935 890 c-38 -10 -73 -19 -76 -19 -15 -2 -59 -79 -59 -103 0 -46 10 -58 49 -58 20 0 60 -11 89 -25 30 -14 65 -25 78 -25 44 0 81 27 95 67 6 21 23 60 36 87 27 53 22 65 -27 66 -14 0 -38 7 -54 15 -35 19 -44 18 -131 -5z" id="252"/>
<path d="M7331 883 c-15 -30 -58 -175 -65 -223 l-7 -45 31 30 c57 55 110 144 110 185 0 58 -47 94 -69 53z" id="253"/>
<path d="M8241 887 c-28 -9 -39 -22 -67 -81 -50 -104 -46 -150 19 -190 35 -22 61 -14 77 25 19 45 56 69 106 69 93 0 97 69 9 142 -60 50 -82 55 -144 35z" id="254"/>
<path d="M6208 880 c-91 -26 -146 -104 -140 -196 2 -18 10 -22 49 -27 43 -5 50 -2 78 25 38 38 112 76 164 84 47 7 49 12 21 47 -42 53 -118 82 -172 67z" id="255"/>
<path d="M7130 875 c-10 -12 -5 -36 24 -127 75 -235 93 -501 50 -715 -6 -29 -4 -33 14 -33 30 0 37 57 37 295 0 152 -5 220 -18 285 -27 126 -78 310 -87 310 -4 0 -13 -7 -20 -15z" id="256"/>
<path d="M7023 818 c-46 -18 -54 -25 -63 -57 -15 -60 -28 -160 -36 -276 -6 -106 -5 -112 17 -146 13 -19 27 -37 31 -39 4 -3 21 23 38 57 20 40 54 83 100 127 l70 65 -16 68 c-24 106 -66 223 -78 222 -6 -1 -35 -10 -63 -21z" id="257"/>
<path d="M8465 823 c20 -49 22 -71 10 -100 -16 -38 -99 -105 -159 -128 -38 -15 -44 -21 -50 -53 -12 -74 -11 -75 40 -67 25 3 79 6 120 6 l74 0 0 173 c0 149 -2 175 -16 180 -24 9 -27 7 -19 -11z" id="258"/>
<path d="M5873 801 c-85 -29 -143 -84 -143 -135 0 -9 20 -16 57 -21 32 -4 81 -16 110 -27 l53 -20 31 26 c17 14 35 26 41 26 15 0 0 119 -18 148 -18 27 -58 29 -131 3z" id="259"/>
<path d="M6279 707 c-92 -47 -178 -167 -120 -167 10 0 26 11 35 25 21 32 90 71 146 84 58 13 115 0 176 -39 51 -32 84 -28 84 11 0 69 -81 119 -193 119 -54 0 -76 -6 -128 -33z" id="260"/>
<path d="M8333 678 c-22 -10 -38 -36 -29 -46 8 -7 69 32 68 43 -1 14 -14 15 -39 3z" id="261"/>
<path d="M7850 666 c15 -19 103 -48 132 -44 18 3 11 9 -36 31 -65 30 -117 37 -96 13z" id="262"/>
<path d="M7815 624 c-21 -91 -39 -156 -60 -214 -35 -100 -128 -288 -174 -352 -32 -46 -37 -58 -23 -58 39 0 160 206 212 360 34 102 71 273 60 284 -5 5 -11 -2 -15 -20z" id="263"/>
<path d="M6060 630 c-19 -3 -47 -14 -63 -24 -41 -28 -19 -46 54 -46 55 0 59 2 74 30 8 16 15 31 15 33 0 9 -46 13 -80 7z" id="264"/>
<path d="M8070 613 c-30 -21 -43 -24 -100 -21 -36 2 -72 7 -81 12 -14 6 -20 -8 -39 -91 -12 -54 -35 -134 -51 -177 -16 -44 -29 -95 -29 -114 l0 -34 63 57 c74 68 187 144 262 176 48 22 55 28 64 66 18 68 14 92 -20 124 -17 16 -32 29 -33 28 0 0 -17 -12 -36 -26z" id="265"/>
<path d="M6318 616 c-43 -16 -92 -45 -85 -52 2 -2 20 3 41 11 51 22 147 30 187 16 42 -14 47 -8 12 14 -36 24 -108 29 -155 11z" id="266"/>
<path d="M5680 607 c-69 -16 -90 -28 -129 -72 -32 -36 -39 -68 -21 -95 8 -12 16 -9 42 22 55 64 128 81 235 57 43 -10 54 -8 102 14 l55 24 -57 27 c-67 33 -148 41 -227 23z" id="267"/>
<path d="M8201 510 c-33 -165 -155 -361 -294 -472 -62 -48 -35 -51 38 -3 130 87 233 248 270 426 17 80 19 109 6 109 -4 0 -14 -27 -20 -60z" id="268"/>
<path d="M6311 549 c-23 -9 -24 -11 -17 -92 4 -45 12 -103 19 -129 11 -44 19 -52 107 -114 188 -133 310 -214 321 -214 17 0 -11 181 -43 273 -21 62 -43 43 -23 -20 5 -16 0 -29 -19 -48 -30 -30 -59 -27 -89 7 -44 51 -33 122 27 183 l43 43 -26 48 c-24 44 -29 49 -57 46 -18 -2 -48 4 -69 12 -41 18 -136 20 -174 5z" id="269"/>
<path d="M5260 524 c-36 -7 -96 -23 -135 -35 l-70 -22 70 -22 c133 -41 209 -91 385 -254 52 -48 125 -111 162 -139 l66 -52 231 2 231 3 -85 73 c-47 40 -85 77 -85 83 0 17 58 -23 135 -93 l73 -68 65 0 66 0 -56 53 c-66 62 -136 150 -174 220 l-27 50 -99 1 c-89 1 -104 4 -158 31 -33 17 -64 41 -70 53 -13 29 -21 28 -97 -8 -82 -39 -121 -39 -159 -1 -24 25 -29 38 -29 79 0 36 -4 52 -16 56 -27 10 -156 5 -224 -10z" id="270"/>
<path d="M6230 530 c-12 -8 -13 -13 -2 -30 16 -26 15 -60 -3 -84 -22 -29 -18 -54 18 -127 33 -65 86 -143 94 -136 2 2 -8 30 -22 62 -36 80 -55 167 -55 253 0 73 -3 79 -30 62z" id="271"/>
<path d="M5936 518 c-22 -6 -57 -29 -84 -54 -38 -37 -43 -46 -32 -59 7 -8 21 -15 31 -15 10 0 21 -4 24 -10 14 -22 86 -10 158 28 56 29 84 37 124 37 60 0 69 6 54 34 -23 42 -178 64 -275 39z" id="272"/>
<path d="M7113 452 c-89 -87 -105 -130 -104 -271 1 -64 -3 -131 -8 -148 l-10 -33 43 0 43 0 -14 53 c-29 107 4 246 83 343 30 37 44 63 44 84 0 16 -4 30 -9 30 -5 0 -36 -26 -68 -58z" id="273"/>
<path d="M5634 481 c-17 -10 -41 -33 -53 -49 -21 -30 -21 -31 -1 -37 12 -4 49 7 97 29 43 19 91 36 107 38 16 2 31 8 33 14 10 29 -137 33 -183 5z" id="274"/>
<path d="M7470 448 c-42 -29 -71 -83 -68 -127 4 -50 23 -49 43 4 24 62 68 99 109 91 37 -7 106 -76 106 -106 0 -29 16 -25 28 8 11 32 0 67 -31 100 -52 56 -130 68 -187 30z" id="275"/>
<path d="M8305 438 c-27 -5 -54 -13 -58 -17 -7 -7 -77 -160 -77 -168 0 -1 25 10 56 24 30 14 74 27 97 29 38 4 40 3 17 -7 -195 -92 -186 -86 -248 -162 -33 -40 -78 -86 -101 -101 -23 -16 -41 -30 -41 -32 0 -2 124 -4 275 -4 l275 0 0 219 c0 190 -2 220 -16 225 -22 9 -120 5 -179 -6z" id="276"/>
<path d="M6669 407 c-75 -40 -111 -122 -75 -172 19 -26 50 -13 40 17 -23 66 10 108 82 108 25 0 59 -6 77 -14 93 -38 147 -181 118 -308 -9 -38 -9 -38 24 -38 32 0 33 1 45 64 26 138 -49 294 -165 347 -54 25 -93 24 -146 -4z" id="277"/>
<path d="M6054 389 c-84 -44 -89 -53 -27 -46 56 6 144 44 151 65 7 23 -64 12 -124 -19z" id="278"/>
<path d="M1775 385 c-74 -16 -157 -47 -302 -114 -108 -49 -219 -85 -463 -151 -63 -17 -155 -51 -205 -75 l-90 -43 1530 -1 1530 0 -65 34 c-36 18 -97 43 -135 54 -71 21 -1331 280 -1462 300 -95 15 -263 13 -338 -4z m25 -134 c0 -4 -24 -13 -52 -19 -29 -6 -75 -18 -101 -26 -26 -9 -45 -11 -42 -6 7 12 60 40 95 51 35 10 100 11 100 0z" id="279"/>
<path d="M7156 367 c-64 -84 -91 -212 -66 -316 11 -49 13 -51 45 -51 23 0 35 5 39 18 23 78 36 382 17 382 -6 0 -21 -15 -35 -33z" id="280"/>
<path d="M8047 356 c-155 -89 -270 -200 -316 -308 l-20 -48 51 0 c42 0 58 6 98 35 68 50 170 161 213 232 43 70 71 133 59 133 -4 0 -43 -20 -85 -44z" id="281"/>
<path d="M7556 369 c-3 -8 -15 -54 -27 -104 -17 -73 -51 -172 -86 -252 -3 -9 4 -13 23 -13 32 1 62 34 129 145 33 54 36 65 33 118 -4 49 -9 63 -36 89 -23 24 -32 28 -36 17z" id="282"/>
<path d="M6155 356 c-19 -14 -19 -15 -1 -53 31 -65 100 -155 179 -231 58 -55 81 -72 103 -72 l29 0 -35 28 c-106 82 -188 185 -226 282 -22 59 -26 63 -49 46z" id="283"/>
<path d="M6725 313 c15 -40 43 -162 50 -218 11 -95 11 -95 60 -95 l44 0 7 46 c22 149 -45 284 -141 284 -22 0 -26 -3 -20 -17z" id="284"/>
<path d="M6350 203 c1 -29 74 -133 116 -165 46 -36 53 -38 123 -38 l75 0 -151 105 c-149 104 -163 112 -163 98z" id="285"/>
<path d="M7662 79 l-52 -79 33 0 c33 0 34 1 57 75 13 41 22 77 19 79 -2 2 -28 -31 -57 -75z" id="286"/>
</g>
</svg>