<?xml version="1.0" ?><!DOCTYPE svg  PUBLIC '-//W3C//DTD SVG 20010904//EN'  'http://www.w3.org/TR/2001/REC-SVG-20010904/DTD/svg10.dtd'><svg height="850.000000pt" preserveAspectRatio="xMidYMid meet" version="1.0" viewBox="0 0 850.000000 850.000000" width="850.000000pt" xmlns="http://www.w3.org/2000/svg">
<metadata>
Created by potrace 1.14, written by Peter Selinger 2001-2017
</metadata>
<g fill="#ffffff" stroke="none" transform="translate(0.000000,850.000000) scale(0.100000,-0.100000)">
<path d="M20 8483 c0 -34 51 -103 95 -128 57 -34 65 -34 740 4 292 17 933 53 1425 81 492 27 918 51 945 53 28 2 -682 4 -1577 5 -1512 2 -1628 1 -1628 -15z" id="1"/>
<path d="M4121 8469 c-50 -36 -102 -135 -109 -209 -2 -26 1 -121 7 -211 16 -244 115 -1773 161 -2493 22 -346 42 -632 45 -634 3 -3 5 801 5 1786 l0 1792 -33 0 c-22 0 -49 -11 -76 -31z" id="2"/>
<path d="M4300 8485 c0 -51 58 -133 115 -163 39 -20 89 -19 640 12 242 14 883 50 1425 81 542 30 1086 61 1210 69 205 12 61 14 -1582 15 -1618 1 -1808 -1 -1808 -14z" id="3"/>
<path d="M8440 8469 c-54 -32 -80 -60 -106 -111 -45 -89 -45 -102 -14 -583 16 -247 61 -940 100 -1540 38 -599 71 -1110 73 -1135 2 -25 4 728 5 1673 2 1368 -1 1717 -10 1717 -7 0 -29 -10 -48 -21z" id="4"/>
<path d="M3902 8449 c-71 -35 -141 -138 -162 -236 -9 -41 -1 -118 54 -518 36 -258 131 -949 211 -1535 176 -1288 167 -1222 172 -1217 2 2 -14 278 -37 613 -140 2130 -173 2634 -180 2762 -4 79 -10 145 -12 147 -2 3 -23 -5 -46 -16z" id="5"/>
<path d="M3588 8418 c-53 -41 -105 -139 -120 -229 -10 -62 -8 -76 101 -569 61 -278 200 -912 308 -1409 109 -497 199 -897 201 -889 2 8 -22 193 -52 409 -89 633 -261 1873 -315 2269 -28 201 -53 384 -56 408 -4 23 -10 42 -15 42 -5 0 -28 -15 -52 -32z" id="6"/>
<path d="M2740 8424 c-207 -12 -483 -28 -1919 -109 -437 -24 -796 -46 -798 -49 -2 -2 1 -24 9 -48 18 -62 90 -131 159 -153 l54 -17 555 76 c1131 154 2176 297 2225 305 l50 9 -65 -1 c-36 0 -157 -6 -270 -13z" id="7"/>
<path d="M8175 8422 c-76 -47 -146 -166 -153 -262 -2 -31 11 -162 32 -305 34 -241 195 -1409 331 -2410 36 -264 67 -487 69 -495 9 -37 5 82 -14 358 -45 675 -200 3078 -200 3104 0 34 -21 37 -65 10z" id="8"/>
<path d="M7877 8399 c-37 -24 -54 -46 -83 -105 -66 -134 -69 -113 111 -929 86 -390 221 -1009 301 -1375 80 -366 148 -667 150 -669 2 -2 4 4 4 15 0 16 -313 2282 -370 2674 -10 74 -27 196 -36 270 -9 74 -20 138 -23 143 -4 4 -28 -7 -54 -24z" id="9"/>
<path d="M7105 8409 c-71 -5 -728 -42 -1459 -84 -731 -41 -1331 -77 -1334 -80 -15 -15 25 -94 72 -141 83 -83 90 -84 404 -41 1630 222 2549 348 2557 351 15 7 -96 4 -240 -5z" id="10"/>
<path d="M3314 8370 c-96 -62 -157 -246 -121 -365 8 -27 186 -594 395 -1260 209 -665 386 -1230 393 -1254 44 -150 -3 80 -176 865 -108 489 -237 1074 -287 1299 -81 367 -158 725 -158 732 0 8 -18 1 -46 -17z" id="11"/>
<path d="M2495 8314 c-209 -29 -843 -117 -1410 -194 -566 -77 -1031 -142 -1033 -145 -12 -12 30 -87 74 -132 61 -61 136 -89 215 -80 41 5 402 88 2269 522 179 41 330 77 335 79 32 14 -115 -3 -450 -50z" id="12"/>
<path d="M7582 8335 c-48 -42 -97 -134 -114 -217 -15 -70 -44 33 322 -1128 155 -492 327 -1041 383 -1219 56 -178 103 -319 105 -313 2 6 -28 154 -67 329 -38 175 -165 748 -281 1273 -116 525 -224 1018 -241 1095 -16 77 -33 155 -37 174 -4 19 -12 36 -18 38 -5 2 -29 -13 -52 -32z" id="13"/>
<path d="M6525 8259 c-390 -54 -845 -117 -1010 -139 -165 -23 -410 -56 -545 -75 -135 -19 -317 -43 -405 -55 -88 -12 -177 -24 -198 -28 l-38 -7 31 -62 c54 -107 147 -161 259 -150 55 5 2640 603 2649 612 8 8 -6 6 -743 -96z" id="14"/>
<path d="M2987 8278 c-61 -64 -87 -128 -87 -219 0 -41 7 -99 16 -128 8 -29 89 -224 180 -434 91 -210 301 -698 467 -1084 166 -387 303 -699 305 -695 2 7 -346 1112 -673 2137 -35 110 -82 260 -104 333 -23 72 -47 132 -53 132 -6 0 -29 -19 -51 -42z" id="15"/>
<path d="M7272 8256 c-84 -91 -111 -199 -79 -321 9 -33 182 -445 384 -915 203 -470 416 -964 473 -1097 57 -134 105 -241 107 -239 4 4 -66 226 -513 1631 -216 679 -278 878 -295 943 -6 23 -17 42 -24 42 -7 0 -31 -20 -53 -44z" id="16"/>
<path d="M2080 8119 c-682 -160 -1597 -373 -1804 -420 -93 -21 -171 -40 -173 -43 -12 -11 48 -93 89 -122 90 -65 153 -82 243 -66 28 5 331 109 675 231 344 122 823 292 1065 378 242 85 442 157 444 159 12 11 -73 -8 -539 -117z" id="17"/>
<path d="M5895 7990 c-539 -126 -1047 -245 -1130 -265 -82 -19 -199 -46 -258 -59 -60 -14 -112 -27 -115 -31 -11 -10 30 -75 71 -112 22 -19 64 -47 94 -60 94 -43 132 -35 553 115 201 72 660 235 1020 362 788 278 770 272 770 276 0 8 -48 -3 -1005 -226z" id="18"/>
<path d="M2706 8156 c-15 -20 -40 -64 -56 -98 -36 -77 -41 -169 -11 -251 10 -28 159 -293 332 -587 173 -294 404 -689 514 -877 110 -187 202 -339 204 -337 2 2 -158 376 -354 831 -197 455 -408 945 -470 1088 -62 142 -117 261 -122 262 -6 2 -22 -12 -37 -31z" id="19"/>
<path d="M6995 8139 c-14 -18 -40 -59 -58 -93 -28 -55 -31 -70 -31 -146 1 -106 0 -104 189 -425 80 -137 309 -528 508 -867 199 -340 363 -614 365 -610 1 4 -83 203 -186 442 -104 239 -314 726 -468 1083 -153 356 -282 647 -286 647 -3 0 -18 -14 -33 -31z" id="20"/>
<path d="M1870 7924 c-283 -101 -771 -274 -1085 -385 -314 -111 -574 -205 -578 -209 -5 -4 18 -35 50 -67 73 -75 133 -98 233 -90 64 5 107 26 996 471 511 256 922 465 914 464 -8 0 -247 -83 -530 -184z" id="21"/>
<path d="M6385 7985 c-349 -125 -1625 -577 -1780 -630 -60 -21 -112 -40 -114 -42 -8 -6 53 -83 85 -108 61 -46 101 -58 189 -53 l80 5 930 466 c512 256 923 466 915 466 -8 0 -145 -47 -305 -104z" id="22"/>
<path d="M2412 8008 c-29 -48 -42 -104 -42 -185 0 -119 16 -148 251 -448 116 -149 344 -440 506 -648 162 -208 297 -376 300 -374 2 3 -200 353 -450 779 -250 425 -471 803 -493 841 -21 37 -41 67 -45 67 -4 0 -16 -15 -27 -32z" id="23"/>
<path d="M6702 7992 c-53 -74 -66 -225 -27 -321 10 -24 86 -130 168 -235 82 -105 311 -399 510 -653 198 -255 362 -461 365 -459 2 3 -195 344 -438 758 -244 414 -467 795 -497 846 -30 50 -56 92 -58 92 -2 0 -13 -12 -23 -28z" id="24"/>
<path d="M1272 7487 c-518 -260 -942 -477 -942 -484 0 -23 63 -84 114 -111 43 -22 64 -26 131 -26 133 0 44 -55 910 559 281 199 563 399 628 444 110 78 127 92 110 90 -5 0 -432 -212 -951 -472z" id="25"/>
<path d="M5575 7476 c-517 -261 -947 -476 -955 -478 -26 -9 38 -87 100 -122 51 -29 62 -31 150 -31 72 0 103 4 128 18 17 10 170 116 340 236 450 319 699 495 952 674 234 165 250 177 235 176 -6 0 -433 -213 -950 -473z" id="26"/>
<path d="M2182 7815 c-30 -38 -55 -144 -50 -214 9 -123 6 -120 593 -640 292 -258 532 -468 533 -466 2 2 -187 246 -419 542 -233 296 -467 595 -521 665 -54 70 -103 130 -108 133 -4 3 -17 -6 -28 -20z" id="27"/>
<path d="M6467 7797 c-30 -46 -51 -123 -51 -192 -1 -115 25 -158 180 -296 603 -537 926 -820 930 -816 4 3 -516 673 -825 1062 -31 39 -90 115 -131 168 -41 53 -77 97 -81 97 -4 0 -13 -10 -22 -23z" id="28"/>
<path d="M1848 7630 c-201 -143 -1092 -774 -1233 -873 -55 -39 -102 -72 -104 -74 -10 -7 36 -45 86 -69 48 -24 62 -26 136 -22 56 3 95 11 120 24 30 15 1177 1117 1177 1130 0 12 -30 -8 -182 -116z" id="29"/>
<path d="M5695 7299 c-341 -242 -682 -484 -757 -536 -76 -53 -138 -100 -138 -104 0 -15 45 -52 90 -72 53 -25 163 -29 225 -8 30 10 91 64 245 215 113 110 279 273 370 361 500 486 600 585 593 585 -4 -1 -287 -199 -628 -441z" id="30"/>
<path d="M4271 5958 c0 -912 1 -1658 4 -1658 17 0 86 43 114 72 37 36 76 114 86 168 3 19 -10 269 -29 555 -20 286 -63 925 -96 1420 -33 495 -64 945 -69 1000 -5 61 -9 -546 -10 -1557z" id="31"/>
<path d="M1966 7562 c-15 -25 -24 -148 -15 -201 11 -58 50 -140 78 -165 21 -18 931 -509 936 -504 2 2 -40 42 -93 88 -53 47 -270 238 -482 425 -444 392 -416 369 -424 357z" id="32"/>
<path d="M6241 7500 c-23 -108 -8 -207 44 -290 21 -33 74 -64 412 -245 213 -115 423 -228 466 -252 44 -25 81 -42 83 -40 5 4 -970 869 -986 875 -5 2 -13 -20 -19 -48z" id="33"/>
<path d="M1414 7084 c-231 -224 -479 -466 -552 -537 -76 -73 -131 -135 -128 -142 2 -7 31 -26 63 -41 49 -24 71 -29 138 -29 108 0 165 28 217 105 250 374 688 1044 685 1047 -3 2 -193 -179 -423 -403z" id="34"/>
<path d="M5570 6938 c-305 -296 -556 -542 -557 -546 -4 -10 76 -58 120 -72 53 -17 173 -9 221 15 34 16 67 62 260 354 122 185 289 436 370 559 82 123 147 225 145 226 -2 2 -254 -239 -559 -536z" id="35"/>
<path d="M2 5882 l-2 -1553 23 6 c56 18 125 95 153 172 7 21 13 68 14 105 0 53 -170 2637 -183 2783 -2 22 -4 -659 -5 -1513z" id="36"/>
<path d="M51 7387 c-1 -15 40 -625 90 -1355 49 -730 95 -1403 100 -1497 6 -93 12 -172 15 -174 10 -10 72 28 119 74 40 39 57 65 69 105 20 67 21 56 -88 805 -47 319 -133 911 -191 1315 -58 404 -107 740 -110 745 -2 6 -4 -2 -4 -18z" id="37"/>
<path d="M4333 7355 c3 -27 49 -705 102 -1505 53 -800 99 -1470 101 -1488 l5 -32 31 16 c49 26 129 105 149 149 10 22 19 63 19 91 0 28 -41 332 -90 675 -50 343 -140 963 -200 1378 -60 414 -112 756 -116 760 -4 3 -4 -16 -1 -44z" id="38"/>
<path d="M121 7250 c0 -8 4 -43 9 -78 6 -34 98 -664 205 -1400 220 -1513 203 -1402 215 -1402 4 0 33 22 63 50 91 83 134 212 109 327 -33 144 -539 2278 -567 2388 -18 72 -34 123 -34 115z" id="39"/>
<path d="M1794 7225 c-14 -78 28 -193 88 -238 26 -19 116 -43 412 -111 208 -48 380 -86 382 -84 3 4 -842 461 -863 466 -7 2 -15 -12 -19 -33z" id="40"/>
<path d="M6077 7199 c-12 -88 44 -216 106 -245 34 -15 768 -187 774 -180 4 4 -854 466 -866 466 -5 0 -11 -18 -14 -41z" id="41"/>
<path d="M1371 6695 c-190 -287 -344 -527 -344 -531 2 -17 88 -35 140 -30 63 5 149 50 168 86 21 41 387 991 383 995 -1 2 -158 -232 -347 -520z" id="42"/>
<path d="M4410 7209 c0 -18 412 -2853 416 -2857 7 -9 66 33 97 69 72 84 104 188 86 286 -9 53 -80 353 -379 1613 -54 228 -124 523 -155 655 -54 227 -65 267 -65 234z" id="43"/>
<path d="M5855 6977 c-77 -117 -233 -353 -347 -525 -115 -173 -208 -315 -208 -317 0 -8 95 -25 142 -25 67 0 152 39 173 80 8 15 62 151 120 301 59 151 143 368 187 482 44 114 79 209 77 212 -3 2 -67 -92 -144 -208z" id="44"/>
<path d="M190 7159 c0 -5 31 -135 355 -1494 210 -883 228 -958 261 -1100 14 -60 28 -116 30 -123 6 -20 79 25 127 78 53 60 87 134 87 191 0 67 -30 158 -295 894 -130 363 -309 860 -396 1104 -140 392 -169 468 -169 450z" id="45"/>
<path d="M4484 7105 c3 -16 129 -552 281 -1190 153 -638 295 -1236 317 -1330 21 -93 41 -171 43 -173 8 -8 67 31 109 74 102 102 120 196 68 359 -33 104 -798 2240 -813 2270 -8 17 -9 15 -5 -10z" id="46"/>
<path d="M1710 6953 c0 -69 91 -205 147 -219 25 -7 523 66 523 76 0 3 -145 39 -322 80 -178 40 -329 75 -335 78 -8 2 -13 -4 -13 -15z" id="47"/>
<path d="M5995 6941 c-2 -5 0 -25 6 -47 26 -95 104 -184 162 -184 57 1 512 77 497 84 -12 5 -311 75 -623 145 -20 5 -39 6 -42 2z" id="48"/>
<path d="M1536 6620 c-60 -157 -137 -358 -172 -448 -35 -89 -64 -167 -64 -172 0 -6 31 -10 71 -10 58 0 80 5 120 27 86 46 85 43 125 465 19 205 33 384 32 398 -2 16 -44 -81 -112 -260z" id="49"/>
<path d="M5913 6840 c-46 -123 -254 -662 -292 -759 -23 -57 -39 -106 -36 -110 4 -3 39 -6 78 -6 61 0 79 4 120 28 80 47 77 35 119 481 21 221 36 406 34 411 -1 6 -12 -15 -23 -45z" id="50"/>
<path d="M2425 6731 c-38 -23 -83 -75 -91 -105 -3 -15 20 -75 71 -186 42 -91 81 -169 87 -175 7 -7 9 14 4 75 -3 47 -6 158 -6 248 0 180 -1 183 -65 143z" id="51"/>
<path d="M6704 6708 c-31 -21 -57 -49 -71 -76 l-22 -43 38 -82 c21 -45 59 -125 84 -177 l45 -95 1 95 c1 145 -11 410 -19 410 -4 0 -30 -15 -56 -32z" id="52"/>
<path d="M401 6727 c-1 -9 21 -72 427 -1202 154 -429 294 -821 311 -870 45 -128 45 -128 86 -81 81 91 110 200 80 302 -20 69 -903 1876 -904 1851z" id="53"/>
<path d="M2148 6682 c-36 -26 -69 -50 -73 -53 -3 -4 55 -44 130 -89 75 -45 138 -80 141 -78 5 6 -118 268 -126 268 -3 -1 -35 -22 -72 -48z" id="54"/>
<path d="M1885 6687 c-104 -17 -192 -32 -194 -34 -7 -5 42 -203 50 -203 7 0 351 241 374 261 14 13 -20 10 -230 -24z" id="55"/>
<path d="M6428 6659 c-38 -28 -68 -54 -68 -57 0 -11 265 -163 268 -154 4 12 -117 262 -126 261 -4 0 -37 -23 -74 -50z" id="56"/>
<path d="M2657 6689 c-48 -11 -87 -31 -110 -57 -17 -18 -17 -41 -11 -341 4 -177 10 -318 14 -314 8 9 220 694 220 711 0 14 -57 14 -113 1z" id="57"/>
<path d="M4690 6694 c0 -6 119 -343 265 -750 146 -406 321 -893 388 -1081 67 -189 126 -343 130 -343 14 0 64 61 93 113 36 66 44 162 19 238 -10 30 -201 428 -425 884 -447 911 -469 955 -470 939z" id="58"/>
<path d="M6173 6666 c-105 -17 -194 -33 -197 -36 -5 -6 38 -188 48 -197 4 -4 151 96 350 239 49 35 50 35 -201 -6z" id="59"/>
<path d="M6915 6664 c-22 -8 -53 -25 -69 -37 l-29 -24 3 -224 c1 -123 5 -271 9 -329 l6 -105 109 355 c60 195 111 361 114 368 6 17 -91 15 -143 -4z" id="60"/>
<path d="M1886 6497 l-129 -90 54 -48 c30 -27 56 -48 59 -48 6 -1 152 271 148 274 -2 1 -61 -38 -132 -88z" id="61"/>
<path d="M2872 6577 c-19 -6 -53 -29 -77 -51 l-44 -41 -125 -405 c-68 -222 -123 -406 -122 -408 4 -3 550 868 554 884 8 30 -115 44 -186 21z" id="62"/>
<path d="M2027 6515 c-19 -36 -30 -65 -23 -65 6 1 44 18 83 38 l73 37 -49 28 -49 27 -35 -65z" id="63"/>
<path d="M7191 6569 c-43 -8 -104 -43 -134 -77 -14 -16 -267 -808 -267 -835 0 -7 9 2 19 18 10 17 136 218 280 448 144 231 259 423 256 428 -7 10 -73 29 -95 28 -8 -1 -35 -5 -59 -10z" id="64"/>
<path d="M6180 6484 c-58 -42 -112 -79 -120 -84 -12 -7 -5 -19 35 -59 27 -28 52 -51 56 -51 7 0 149 255 149 266 0 11 -23 -3 -120 -72z" id="65"/>
<path d="M6313 6498 c-18 -34 -31 -63 -29 -65 1 -2 38 13 81 33 l78 36 -46 29 c-26 16 -48 29 -49 29 -2 0 -18 -28 -35 -62z" id="66"/>
<path d="M1661 6545 c0 -5 -13 -144 -27 -308 -15 -163 -25 -300 -21 -303 3 -3 25 3 49 13 49 22 104 80 115 121 4 18 -11 97 -47 242 -47 191 -69 266 -69 235z" id="67"/>
<path d="M5946 6509 c-7 -22 -55 -593 -50 -598 2 -2 21 1 43 7 43 13 117 86 126 124 5 20 -98 464 -111 477 -2 2 -5 -2 -8 -10z" id="68"/>
<path d="M2125 6468 l-39 -21 44 -23 c59 -30 63 -30 55 9 -12 55 -16 57 -60 35z" id="69"/>
<path d="M2210 6483 c0 -14 53 -224 55 -221 27 27 102 134 99 139 -4 7 -142 89 -150 89 -2 0 -4 -3 -4 -7z" id="70"/>
<path d="M580 6475 c0 -5 198 -410 440 -901 242 -491 440 -898 440 -903 0 -38 68 39 102 115 26 61 21 160 -15 237 -19 42 -928 1419 -958 1452 -5 5 -9 5 -9 0z" id="71"/>
<path d="M6493 6456 c3 -8 16 -57 28 -110 13 -53 26 -96 29 -96 8 0 100 117 100 128 0 7 -143 92 -156 92 -3 0 -4 -6 -1 -14z" id="72"/>
<path d="M6408 6444 c-16 -8 -28 -17 -28 -19 0 -5 80 -45 91 -45 4 0 2 18 -3 40 -11 44 -19 47 -60 24z" id="73"/>
<path d="M4870 6445 c0 -14 884 -1805 891 -1805 16 0 89 122 99 164 12 53 -6 159 -36 217 -16 33 -928 1405 -945 1424 -5 5 -9 5 -9 0z" id="74"/>
<path d="M2023 6417 c-13 -5 -23 -13 -23 -16 0 -3 24 -33 53 -65 l53 -59 32 43 c18 24 32 47 32 50 0 3 -12 11 -27 17 -16 6 -44 17 -63 26 -26 11 -41 12 -57 4z" id="75"/>
<path d="M6310 6398 c-14 -5 -26 -11 -29 -14 -3 -2 22 -31 54 -64 l58 -59 28 37 c16 20 29 42 29 47 0 6 -26 22 -58 36 -44 19 -64 24 -82 17z" id="76"/>
<path d="M1932 6339 c-13 -22 -22 -42 -20 -44 5 -5 133 -23 137 -19 4 4 -80 104 -88 104 -3 0 -16 -19 -29 -41z" id="77"/>
<path d="M3048 6366 c-21 -7 -48 -20 -60 -29 -13 -8 -115 -162 -228 -343 -113 -180 -249 -397 -303 -482 -54 -85 -96 -156 -95 -157 2 -1 220 219 485 490 l482 493 -27 19 c-35 24 -199 30 -254 9z" id="78"/>
<path d="M7372 6360 c-94 -20 -106 -33 -272 -298 -85 -136 -219 -350 -298 -475 -79 -126 -142 -230 -139 -233 2 -3 218 215 480 483 l476 488 -37 19 c-42 22 -145 30 -210 16z" id="79"/>
<path d="M2277 6215 c-59 -80 -105 -145 -102 -145 10 0 281 122 290 131 10 10 -58 159 -72 159 -5 -1 -56 -66 -116 -145z" id="80"/>
<path d="M6221 6325 c-11 -20 -21 -40 -21 -45 0 -5 21 -12 48 -15 26 -3 57 -8 70 -11 33 -7 27 7 -27 60 l-48 47 -22 -36z" id="81"/>
<path d="M1770 6330 c0 -10 86 -362 95 -387 3 -9 24 -3 72 18 37 17 90 41 116 52 l48 22 -166 153 c-91 84 -165 148 -165 142z" id="82"/>
<path d="M2166 6303 l-26 -38 22 -7 c13 -3 35 -6 50 -7 l27 -1 -16 45 c-8 25 -18 45 -22 45 -4 0 -20 -17 -35 -37z" id="83"/>
<path d="M6573 6208 c-117 -156 -121 -164 -102 -155 140 60 276 121 282 127 8 7 -62 160 -74 160 -4 0 -51 -60 -106 -132z" id="84"/>
<path d="M6053 6305 c4 -11 24 -94 47 -185 58 -237 39 -219 167 -159 59 28 110 53 112 55 2 2 -20 25 -50 51 -30 26 -92 84 -139 128 -132 125 -144 134 -137 110z" id="85"/>
<path d="M6454 6285 c-15 -20 -24 -38 -21 -41 3 -3 24 -8 48 -11 39 -6 42 -4 35 13 -4 10 -10 31 -13 47 -7 36 -16 34 -49 -8z" id="86"/>
<path d="M2025 6161 c49 -50 92 -91 95 -91 8 1 102 131 98 136 -2 2 -56 10 -119 19 -63 8 -125 18 -139 21 -19 4 -4 -16 65 -85z" id="87"/>
<path d="M801 6233 c10 -28 945 -1422 954 -1423 17 0 65 81 81 139 23 76 15 156 -22 226 -29 55 -107 138 -783 830 -129 132 -232 235 -230 228z" id="88"/>
<path d="M6230 6222 c0 -6 40 -46 89 -91 l89 -81 50 67 c28 38 50 69 49 70 -1 1 -56 9 -122 18 -66 9 -128 18 -137 21 -10 3 -18 1 -18 -4z" id="89"/>
<path d="M5090 6205 c0 -6 929 -1395 942 -1410 14 -15 60 45 82 105 25 70 24 160 -4 233 -20 54 -60 97 -517 568 -273 280 -497 509 -499 509 -2 0 -4 -2 -4 -5z" id="90"/>
<path d="M3260 6179 c-27 -7 -109 -85 -358 -337 -439 -445 -746 -762 -738 -762 4 0 51 32 104 72 282 209 1099 812 1175 866 48 35 87 67 87 71 0 14 -56 60 -92 75 -48 21 -134 28 -178 15z" id="91"/>
<path d="M7527 6150 c-21 -11 -158 -143 -305 -293 -146 -149 -383 -390 -526 -534 -143 -144 -258 -264 -255 -267 2 -2 264 188 581 422 317 235 627 463 687 507 61 44 111 83 111 88 0 4 -15 22 -32 38 -63 57 -191 76 -261 39z" id="92"/>
<path d="M2122 5998 c-100 -45 -181 -83 -179 -85 5 -4 520 17 525 22 8 8 -12 48 -40 81 -34 38 -77 64 -105 63 -10 0 -100 -37 -201 -81z" id="93"/>
<path d="M1116 5978 c418 -435 898 -923 907 -923 22 0 50 106 51 190 0 120 -42 191 -154 260 -25 16 -230 147 -457 291 -226 145 -415 264 -419 264 -4 0 28 -37 72 -82z" id="94"/>
<path d="M6413 5982 c-94 -42 -175 -80 -179 -84 -7 -8 262 -1 434 11 l92 6 -21 42 c-23 46 -79 90 -124 97 -22 3 -76 -16 -202 -72z" id="95"/>
<path d="M5321 6042 c6 -16 980 -1012 990 -1012 4 0 18 32 30 71 39 130 16 251 -63 326 -18 17 -215 148 -438 290 -223 143 -431 276 -464 297 -32 20 -56 33 -55 28z" id="96"/>
<path d="M3415 5914 c-11 -3 -30 -7 -42 -9 -11 -3 -142 -94 -290 -203 -147 -109 -447 -330 -666 -491 -219 -161 -396 -295 -394 -297 2 -2 378 191 836 430 458 239 841 438 852 441 25 8 24 16 -8 48 -63 60 -207 100 -288 81z" id="97"/>
<path d="M7672 5893 c-12 -2 -118 -75 -235 -161 -118 -86 -421 -310 -675 -496 -254 -187 -460 -342 -457 -344 2 -2 230 114 507 259 277 144 660 345 853 445 192 100 351 187 353 192 4 14 -66 63 -127 89 -54 22 -151 29 -219 16z" id="98"/>
<path d="M1426 5872 c14 -14 816 -523 831 -529 10 -4 13 13 13 79 0 70 -4 93 -25 134 -14 28 -36 61 -49 73 -16 15 -136 57 -392 137 -203 62 -373 114 -378 114 -6 0 -6 -3 0 -8z" id="99"/>
<path d="M1910 5869 c-107 -4 -206 -10 -220 -12 -16 -2 16 -16 95 -41 408 -130 616 -192 621 -185 10 16 -26 133 -51 165 -14 18 -40 43 -57 56 -40 28 -95 30 -388 17z" id="100"/>
<path d="M5701 5857 c2 -2 192 -124 423 -271 325 -208 421 -265 428 -255 15 23 2 155 -21 202 -42 87 -47 89 -446 213 -327 102 -399 122 -384 111z" id="101"/>
<path d="M6240 5850 c-85 -4 -186 -8 -224 -9 -38 0 -67 -3 -64 -6 3 -3 148 -50 324 -105 175 -54 339 -106 363 -114 55 -20 51 -21 51 14 0 53 -38 136 -81 175 -67 60 -54 59 -369 45z" id="102"/>
<path d="M3549 5640 c-29 -5 -151 -63 -341 -162 -162 -84 -555 -289 -872 -453 -316 -165 -572 -301 -568 -303 4 -1 415 150 912 336 498 186 970 363 1050 392 80 29 146 54 148 56 9 6 -21 46 -52 69 -66 50 -189 79 -277 65z" id="103"/>
<path d="M7808 5616 c-20 -7 -401 -202 -845 -434 -444 -231 -832 -432 -861 -447 -30 -14 -52 -28 -49 -31 2 -3 427 153 943 347 517 193 992 370 1056 392 65 23 118 47 118 53 0 15 -60 69 -100 89 -84 43 -193 56 -262 31z" id="104"/>
<path d="M3600 5351 c-36 -10 -360 -128 -720 -263 -360 -135 -798 -299 -973 -363 -174 -65 -315 -120 -313 -122 4 -5 32 2 1176 282 531 130 1024 250 1095 266 182 42 167 35 151 67 -65 124 -245 181 -416 133z" id="105"/>
<path d="M7985 5353 c-63 -7 -142 -34 -910 -320 -1059 -394 -1212 -452 -1198 -453 7 0 520 124 1140 276 621 151 1157 282 1193 290 36 8 75 17 88 19 21 5 22 7 7 36 -52 99 -189 164 -320 152z" id="106"/>
<path d="M3690 5060 c-30 -4 -221 -49 -425 -98 -578 -142 -2081 -508 -2170 -528 -44 -10 -72 -20 -63 -22 8 -2 218 26 464 62 666 97 2374 343 2492 359 56 8 105 16 108 19 11 12 -36 85 -81 127 -84 77 -184 102 -325 81z" id="107"/>
<path d="M7980 5043 c-29 -5 -631 -151 -1705 -413 -407 -99 -789 -192 -849 -205 -60 -14 -112 -28 -115 -31 -9 -10 -9 -10 1404 195 721 104 1378 199 1460 211 200 28 215 30 215 36 0 18 -45 86 -82 121 -67 65 -137 93 -228 92 -41 -1 -86 -4 -100 -6z" id="108"/>
<path d="M2655 4600 c-605 -88 -1235 -179 -1400 -202 -165 -23 -291 -44 -281 -46 11 -2 727 40 1593 94 1113 70 1573 102 1573 110 0 20 -60 94 -101 124 -57 41 -138 69 -217 75 -53 4 -302 -29 -1167 -155z" id="109"/>
<path d="M7150 4610 c-487 -70 -1114 -161 -1395 -201 -280 -41 -501 -75 -491 -77 21 -4 3158 189 3166 195 2 2 -4 20 -15 39 -29 53 -108 120 -173 145 -108 41 -135 39 -1092 -101z" id="110"/>
<path d="M3840 4482 c-25 -1 -808 -50 -1740 -107 -932 -58 -1715 -107 -1739 -111 -24 -3 -53 -9 -65 -14 -12 -5 841 -9 1937 -9 1857 -1 1957 0 1957 17 0 33 -47 117 -83 149 -61 53 -162 82 -267 75z" id="111"/>
<path d="M7640 4434 c-289 -19 -1064 -68 -1724 -109 -659 -41 -1201 -77 -1204 -80 -3 -3 844 -5 1882 -5 l1887 0 -7 23 c-36 116 -129 187 -264 201 -25 2 -281 -11 -570 -30z" id="112"/>
<path d="M20 4173 c0 -72 89 -155 180 -168 25 -3 724 33 1555 79 831 47 1600 90 1710 96 110 6 207 13 215 14 8 2 -812 4 -1822 5 l-1838 1 0 -27z" id="113"/>
<path d="M4310 4178 c1 -38 35 -101 73 -135 63 -56 83 -57 404 -39 1064 60 1617 91 2338 131 451 24 863 49 915 53 57 6 -663 10 -1817 11 l-1913 1 0 -22z" id="114"/>
<path d="M4171 4167 c-86 -40 -145 -133 -158 -247 -2 -25 9 -256 26 -515 17 -258 65 -994 106 -1634 41 -641 77 -1167 80 -1169 3 -3 5 801 5 1786 0 985 -3 1793 -7 1795 -5 3 -28 -4 -52 -16z" id="115"/>
<path d="M8438 4141 c-85 -54 -132 -155 -130 -281 1 -64 175 -2799 185 -2915 2 -22 4 695 5 1593 1 897 -2 1632 -6 1632 -4 0 -29 -13 -54 -29z" id="116"/>
<path d="M3902 4119 c-48 -24 -87 -70 -127 -149 -43 -85 -44 -158 -1 -455 32 -226 290 -2103 366 -2670 17 -126 33 -231 36 -234 6 -7 6 -8 -31 551 -19 288 -55 838 -80 1223 -25 385 -57 871 -70 1080 -14 209 -30 445 -35 524 -5 79 -11 145 -13 147 -1 2 -22 -6 -45 -17z" id="117"/>
<path d="M3592 4090 c-72 -52 -122 -168 -122 -284 0 -41 50 -289 156 -771 136 -620 362 -1653 427 -1950 11 -55 23 -93 25 -84 1 9 -17 159 -42 335 -74 522 -261 1869 -321 2304 -66 489 -65 480 -74 480 -5 0 -26 -13 -49 -30z" id="118"/>
<path d="M8185 4101 c-68 -41 -141 -165 -151 -257 -4 -33 19 -228 70 -594 41 -300 127 -923 190 -1385 168 -1223 171 -1243 174 -1210 1 17 -42 721 -98 1565 -55 844 -105 1617 -111 1718 -13 200 -14 201 -74 163z" id="119"/>
<path d="M2490 4085 c-206 -12 -843 -48 -1415 -80 -572 -32 -1043 -61 -1047 -64 -13 -11 14 -78 44 -116 42 -50 107 -85 170 -91 37 -4 334 33 968 120 503 69 1100 150 1325 181 563 76 541 73 425 72 -52 0 -264 -10 -470 -22z" id="120"/>
<path d="M7899 4087 c-83 -56 -135 -170 -133 -297 1 -58 51 -302 228 -1105 125 -566 261 -1186 303 -1377 42 -192 78 -346 80 -344 2 2 -60 457 -137 1012 -77 555 -160 1151 -185 1324 -24 173 -58 426 -77 562 -18 137 -36 248 -39 248 -3 0 -21 -10 -40 -23z" id="121"/>
<path d="M6695 4070 c-258 -15 -895 -51 -1415 -80 -520 -29 -949 -57 -954 -61 -15 -13 22 -94 62 -134 47 -48 105 -75 162 -75 25 0 392 47 815 105 424 58 1036 141 1360 185 325 45 597 82 605 84 43 10 -217 0 -635 -24z" id="122"/>
<path d="M3296 4020 c-52 -48 -103 -153 -111 -230 -5 -45 -1 -75 27 -170 75 -254 783 -2491 785 -2483 2 5 -91 438 -207 963 -116 525 -251 1140 -301 1365 -49 226 -99 452 -110 503 -11 50 -25 92 -30 92 -5 0 -29 -18 -53 -40z" id="123"/>
<path d="M2250 3956 c-366 -51 -1007 -139 -1425 -196 -418 -57 -764 -106 -768 -110 -15 -13 33 -98 78 -139 45 -41 121 -71 181 -71 18 0 65 6 106 14 72 14 2534 583 2553 591 36 13 -140 -8 -725 -89z" id="124"/>
<path d="M7592 4012 c-58 -54 -105 -158 -110 -243 -4 -70 0 -88 93 -379 42 -130 182 -578 531 -1690 91 -289 170 -540 176 -558 31 -99 8 21 -83 429 -55 250 -188 852 -295 1339 -107 487 -207 941 -222 1009 -15 69 -32 126 -38 128 -6 2 -29 -14 -52 -35z" id="125"/>
<path d="M6575 3949 c-352 -48 -993 -136 -1425 -195 -432 -59 -789 -111 -794 -115 -15 -13 25 -90 70 -135 54 -55 124 -78 213 -71 36 3 602 129 1256 281 1353 315 1391 324 1350 324 -16 0 -318 -40 -670 -89z" id="126"/>
<path d="M2998 3953 c-97 -100 -120 -210 -75 -358 13 -44 179 -440 369 -880 190 -440 398 -921 461 -1070 64 -148 116 -264 117 -256 0 7 -156 504 -346 1105 -397 1252 -391 1232 -439 1389 -20 64 -38 117 -39 117 -1 0 -22 -21 -48 -47z" id="127"/>
<path d="M7296 3949 c-20 -17 -50 -60 -68 -96 -28 -57 -32 -74 -31 -141 1 -47 9 -100 21 -137 11 -33 211 -503 444 -1045 234 -542 440 -1020 458 -1063 33 -79 50 -98 32 -35 -5 18 -141 447 -302 953 -160 506 -330 1042 -377 1190 -46 149 -94 300 -106 338 -11 37 -24 67 -29 67 -4 0 -23 -14 -42 -31z" id="128"/>
<path d="M1995 3774 c-314 -73 -865 -202 -1225 -285 -360 -83 -658 -154 -662 -158 -4 -3 4 -26 18 -50 30 -48 123 -115 188 -132 87 -24 123 -13 1218 375 1228 435 1089 384 1058 384 -14 0 -281 -60 -595 -134z" id="129"/>
<path d="M5820 3654 c-575 -134 -1128 -262 -1230 -285 -102 -23 -187 -43 -189 -45 -2 -2 2 -17 9 -33 17 -43 92 -108 157 -138 99 -46 137 -38 598 127 220 78 699 248 1065 377 366 129 667 237 669 239 12 12 -120 -18 -1079 -242z" id="130"/>
<path d="M2701 3815 c-102 -142 -104 -276 -7 -445 164 -289 980 -1670 983 -1666 3 2 -54 141 -126 308 -72 167 -281 649 -464 1072 -183 423 -337 771 -343 773 -6 2 -25 -17 -43 -42z" id="131"/>
<path d="M6995 3803 c-71 -98 -93 -217 -60 -329 8 -27 92 -182 188 -344 95 -162 325 -555 512 -873 186 -317 340 -575 342 -573 3 2 -110 269 -250 593 -140 323 -350 810 -467 1081 -117 270 -217 492 -221 492 -5 0 -25 -21 -44 -47z" id="132"/>
<path d="M1925 3618 c-247 -88 -733 -261 -1080 -383 -346 -123 -631 -227 -632 -232 -6 -16 68 -93 115 -121 43 -24 56 -27 142 -26 l95 0 920 462 c506 253 913 461 905 461 -8 0 -217 -73 -465 -161z" id="133"/>
<path d="M6255 3621 c-242 -87 -730 -260 -1085 -386 -355 -125 -651 -231 -658 -235 -24 -12 60 -104 123 -135 50 -25 63 -27 143 -23 l87 5 930 466 c512 256 923 466 915 466 -8 -1 -213 -72 -455 -158z" id="134"/>
<path d="M2406 3657 c-49 -99 -45 -238 10 -334 14 -23 147 -199 297 -390 149 -192 373 -478 496 -636 123 -158 226 -285 228 -283 2 2 -198 347 -445 767 -247 420 -470 801 -496 847 -26 45 -52 82 -56 82 -5 0 -20 -24 -34 -53z" id="135"/>
<path d="M6721 3687 c-60 -74 -72 -258 -21 -356 10 -21 229 -307 486 -637 257 -329 486 -622 508 -651 22 -29 42 -50 44 -48 2 2 -124 221 -281 487 -588 999 -689 1172 -700 1195 -12 26 -20 29 -36 10z" id="136"/>
<path d="M1278 3164 c-522 -261 -948 -479 -948 -484 0 -21 73 -90 118 -111 56 -28 170 -32 246 -10 35 10 150 86 410 271 198 141 532 377 741 524 398 281 405 286 390 285 -6 0 -436 -214 -957 -475z" id="137"/>
<path d="M5580 3159 c-514 -259 -941 -473 -948 -477 -23 -12 38 -84 98 -116 41 -22 71 -30 126 -34 110 -7 153 11 349 151 94 66 424 300 735 520 558 394 604 428 585 426 -6 0 -431 -212 -945 -470z" id="138"/>
<path d="M2186 3487 c-22 -33 -45 -101 -52 -156 -7 -52 14 -141 44 -195 18 -30 1060 -961 1068 -953 3 2 -156 208 -351 458 -196 250 -429 547 -518 661 -89 114 -165 207 -169 208 -4 0 -14 -10 -22 -23z" id="139"/>
<path d="M6473 3463 c-54 -100 -57 -224 -8 -317 26 -48 98 -115 555 -520 289 -256 526 -463 528 -461 2 2 -126 169 -285 372 -159 202 -393 502 -522 666 -128 163 -236 297 -240 297 -4 0 -16 -17 -28 -37z" id="140"/>
<path d="M4271 1728 l-1 -1728 28 0 c62 0 144 87 177 188 17 50 16 69 -9 435 -14 210 -62 922 -106 1582 -44 660 -82 1211 -83 1225 -2 14 -5 -752 -6 -1702z" id="141"/>
<path d="M1955 3381 c-105 -76 -1336 -948 -1398 -990 -46 -31 -48 -34 -31 -52 9 -10 39 -30 67 -44 84 -41 225 -33 293 17 17 13 260 246 540 518 280 273 536 521 569 553 33 31 56 57 50 56 -5 0 -46 -26 -90 -58z" id="142"/>
<path d="M5990 3187 c-513 -366 -1101 -782 -1142 -808 -21 -13 -38 -29 -38 -35 0 -18 73 -64 127 -80 57 -18 149 -12 205 14 24 11 254 227 613 576 316 307 575 560 575 562 0 12 -43 -18 -340 -229z" id="143"/>
<path d="M1960 3189 c-26 -108 8 -256 72 -316 26 -24 917 -507 924 -500 4 4 -960 860 -975 865 -5 2 -14 -20 -21 -49z" id="144"/>
<path d="M6266 3222 c-16 -27 -27 -144 -17 -195 11 -62 49 -143 77 -168 21 -18 936 -511 940 -506 1 1 -41 41 -94 87 -53 47 -272 241 -487 431 -215 190 -396 349 -402 352 -7 4 -14 4 -17 -1z" id="145"/>
<path d="M1510 2852 c-184 -180 -436 -425 -560 -545 -216 -210 -224 -219 -205 -234 82 -64 228 -79 320 -33 49 24 60 39 418 579 202 304 367 555 365 556 -2 2 -154 -143 -338 -323z" id="146"/>
<path d="M5703 2743 c-230 -224 -479 -466 -552 -536 -148 -144 -144 -132 -51 -179 37 -19 61 -23 135 -23 155 0 122 -36 538 594 197 299 356 545 354 548 -3 2 -193 -179 -424 -404z" id="147"/>
<path d="M1 1558 l-1 -1557 28 10 c48 16 97 65 130 127 28 53 32 69 32 138 0 74 -41 703 -144 2204 l-44 635 -1 -1557z" id="148"/>
<path d="M51 3064 c0 -16 40 -626 89 -1355 50 -728 95 -1403 101 -1499 6 -96 12 -177 15 -179 3 -3 19 3 37 14 68 38 116 86 143 141 23 48 26 63 21 117 -6 60 -363 2533 -391 2707 -7 47 -14 71 -15 54z" id="149"/>
<path d="M4344 3025 c4 -38 42 -603 86 -1255 44 -652 87 -1286 95 -1410 8 -124 16 -249 18 -277 2 -29 6 -56 10 -59 3 -3 31 11 62 31 90 60 135 132 135 217 0 29 -50 395 -110 813 -61 418 -151 1038 -200 1379 -49 340 -92 621 -96 625 -3 3 -3 -25 0 -64z" id="150"/>
<path d="M1805 2932 c-3 -3 -5 -35 -5 -71 0 -102 59 -205 127 -225 64 -18 726 -167 734 -164 5 2 -184 107 -421 234 -236 127 -432 229 -435 226z" id="151"/>
<path d="M120 2927 c0 -3 41 -284 90 -624 50 -340 122 -834 161 -1098 38 -264 83 -570 100 -680 16 -110 36 -252 44 -315 9 -63 18 -127 21 -143 l6 -27 30 17 c50 29 116 110 139 171 29 78 27 133 -14 307 -246 1042 -569 2390 -572 2394 -3 2 -5 2 -5 -2z" id="152"/>
<path d="M6096 2907 c-24 -89 27 -231 96 -268 22 -12 739 -179 767 -179 9 0 -144 86 -339 191 -195 104 -392 210 -436 235 -80 43 -82 43 -88 21z" id="153"/>
<path d="M4421 2893 c-1 -12 15 -129 34 -260 74 -496 375 -2567 375 -2580 0 -56 135 73 170 162 38 98 33 134 -83 625 -58 245 -192 807 -297 1250 -105 443 -192 810 -194 815 -3 6 -5 0 -5 -12z" id="154"/>
<path d="M1367 2365 l-346 -526 27 -10 c52 -20 127 -22 180 -5 95 32 95 32 303 570 104 269 188 490 186 492 -2 2 -159 -232 -350 -521z" id="155"/>
<path d="M5895 2707 c-66 -100 -222 -336 -347 -525 -125 -188 -228 -347 -228 -352 0 -14 69 -30 131 -30 66 0 151 39 175 80 17 29 395 1002 391 1007 -2 1 -57 -80 -122 -180z" id="156"/>
<path d="M4491 2811 c-1 -7 134 -579 298 -1270 165 -691 309 -1298 321 -1349 12 -50 25 -92 29 -92 18 0 100 61 129 96 78 94 94 185 54 309 -14 45 -520 1458 -813 2270 -9 28 -18 44 -18 36z" id="157"/>
<path d="M203 2780 c4 -26 505 -2124 566 -2375 6 -22 22 -94 37 -160 14 -66 30 -124 35 -129 12 -13 93 38 133 86 78 90 97 180 61 289 -10 30 -166 468 -347 974 -182 506 -364 1014 -405 1130 -41 115 -77 212 -80 215 -3 3 -3 -11 0 -30z" id="158"/>
<path d="M1716 2613 c3 -16 19 -56 36 -91 38 -81 95 -126 148 -117 19 3 121 19 225 35 105 17 207 33 228 36 21 3 37 8 34 10 -4 4 -652 154 -667 154 -6 0 -8 -12 -4 -27z" id="159"/>
<path d="M6010 2612 c0 -63 88 -201 139 -217 10 -3 104 8 207 25 104 17 207 33 229 36 65 8 97 16 92 20 -4 5 -645 154 -659 154 -5 0 -8 -8 -8 -18z" id="160"/>
<path d="M5840 2307 c-57 -150 -137 -355 -177 -457 -40 -101 -70 -186 -67 -190 3 -3 36 -5 72 -5 84 0 153 31 186 84 22 33 27 69 60 435 19 220 34 401 33 403 -2 1 -50 -120 -107 -270z" id="161"/>
<path d="M1637 2555 c-5 -11 -60 -153 -122 -315 -62 -162 -136 -353 -164 -425 -28 -71 -51 -133 -51 -136 0 -12 78 -17 126 -8 60 11 118 49 140 90 12 23 26 133 50 398 19 201 33 377 32 391 -3 23 -4 24 -11 5z" id="162"/>
<path d="M2435 2413 c-45 -23 -71 -50 -90 -94 l-18 -39 51 -108 c28 -59 65 -138 82 -176 17 -38 32 -67 34 -65 9 10 -10 493 -19 495 -5 2 -23 -4 -40 -13z" id="163"/>
<path d="M6707 2391 c-29 -19 -54 -46 -67 -71 l-21 -42 83 -179 83 -178 3 47 c2 26 1 138 -3 250 -5 146 -11 202 -19 202 -7 0 -33 -13 -59 -29z" id="164"/>
<path d="M401 2405 c-1 -6 150 -431 335 -945 184 -514 360 -1004 390 -1089 30 -85 56 -156 58 -158 11 -12 70 58 101 119 42 85 47 166 16 245 -11 26 -184 383 -386 793 -202 410 -400 813 -440 895 -40 83 -74 145 -74 140z" id="165"/>
<path d="M1906 2363 c-116 -18 -212 -36 -215 -38 -6 -6 43 -200 51 -200 3 0 333 229 377 262 15 11 -27 6 -213 -24z" id="166"/>
<path d="M2145 2355 c-33 -24 -60 -49 -60 -56 0 -12 256 -171 263 -164 7 7 -122 265 -132 265 -6 -1 -38 -21 -71 -45z" id="167"/>
<path d="M4701 2382 c-1 -7 158 -457 353 -1000 195 -543 369 -1029 386 -1079 19 -53 38 -93 46 -93 17 0 65 60 95 118 31 63 37 162 14 232 -10 29 -185 392 -389 808 -205 417 -402 818 -438 892 -37 74 -67 129 -67 122z" id="168"/>
<path d="M6195 2353 c-115 -19 -211 -36 -213 -37 -3 -3 47 -197 52 -203 1 -2 77 50 168 115 91 65 176 125 189 134 13 9 22 18 19 20 -3 3 -99 -11 -215 -29z" id="169"/>
<path d="M6439 2345 c-35 -25 -64 -50 -64 -56 0 -13 253 -164 261 -156 8 7 -112 257 -123 257 -5 0 -38 -20 -74 -45z" id="170"/>
<path d="M2683 2370 c-57 -8 -137 -50 -147 -76 -8 -22 5 -657 14 -647 3 4 55 167 114 362 88 286 106 355 95 362 -8 5 -16 8 -19 8 -3 -1 -28 -5 -57 -9z" id="171"/>
<path d="M6973 2360 c-61 -9 -143 -53 -144 -78 -2 -61 5 -456 10 -546 l6 -109 112 364 c61 200 111 364 110 365 -11 8 -52 10 -94 4z" id="172"/>
<path d="M2884 2256 c-45 -14 -109 -59 -124 -86 -15 -28 -251 -793 -247 -803 3 -10 547 857 547 872 0 13 -58 31 -99 30 -20 0 -55 -6 -77 -13z" id="173"/>
<path d="M1996 2252 c-3 -5 -57 -44 -121 -87 l-115 -79 47 -48 c26 -26 52 -48 58 -48 5 0 22 21 36 48 91 164 119 222 110 222 -5 0 -12 -4 -15 -8z" id="174"/>
<path d="M7170 2245 c-59 -19 -115 -74 -134 -133 -67 -208 -236 -765 -233 -768 2 -3 455 715 550 872 11 19 -43 44 -95 43 -24 0 -63 -7 -88 -14z" id="175"/>
<path d="M2022 2185 c-17 -36 -30 -65 -27 -65 11 0 155 75 155 80 0 8 -74 50 -87 50 -5 0 -23 -29 -41 -65z" id="176"/>
<path d="M6182 2163 c-67 -47 -122 -88 -122 -92 0 -15 102 -93 110 -85 14 15 143 255 138 259 -2 2 -58 -35 -126 -82z" id="177"/>
<path d="M6319 2179 c-16 -34 -29 -62 -27 -64 2 -1 39 15 83 35 l79 37 -42 27 c-23 14 -46 26 -52 26 -5 0 -24 -27 -41 -61z" id="178"/>
<path d="M1660 2215 c0 -5 -12 -142 -26 -303 -15 -161 -24 -295 -20 -299 3 -3 24 2 46 12 47 21 107 83 116 120 4 16 -13 104 -46 238 -47 189 -69 263 -70 232z" id="179"/>
<path d="M5960 2210 c-5 -11 -58 -605 -55 -608 2 -2 18 -1 35 3 39 9 126 90 134 125 5 21 -108 496 -114 480z" id="180"/>
<path d="M570 2168 c0 -3 169 -349 376 -769 207 -420 409 -833 450 -916 40 -84 75 -153 78 -153 16 0 95 124 105 165 14 56 0 147 -31 208 -18 37 -949 1440 -969 1462 -5 5 -9 6 -9 3z" id="181"/>
<path d="M2210 2162 c0 -14 48 -214 53 -218 4 -4 107 122 107 130 0 2 -26 19 -57 36 -32 18 -68 40 -80 48 -14 8 -23 10 -23 4z" id="182"/>
<path d="M2120 2141 l-34 -19 53 -27 54 -27 -8 39 c-11 61 -12 62 -65 34z" id="183"/>
<path d="M6502 2149 c3 -8 16 -60 29 -116 13 -57 26 -103 29 -102 7 1 90 107 96 124 5 12 -26 33 -150 103 -5 3 -7 -1 -4 -9z" id="184"/>
<path d="M4870 2148 c0 -3 167 -345 371 -759 204 -415 405 -823 445 -907 46 -97 78 -152 86 -150 7 3 32 32 55 66 52 77 60 122 38 221 -17 72 -34 99 -497 795 -466 699 -498 747 -498 734z" id="185"/>
<path d="M6423 2133 c-18 -9 -33 -19 -33 -23 0 -6 92 -51 96 -47 5 5 -19 87 -25 86 -3 0 -21 -8 -38 -16z" id="186"/>
<path d="M2014 2086 c-18 -14 -17 -17 36 -70 30 -31 57 -56 60 -56 4 0 49 63 58 81 3 6 -109 59 -125 59 -5 0 -18 -6 -29 -14z" id="187"/>
<path d="M6307 2079 c-16 -9 -13 -16 34 -70 28 -32 54 -59 58 -59 4 0 22 19 39 43 l31 43 -62 27 c-69 30 -74 31 -100 16z" id="188"/>
<path d="M3065 2049 c-22 -5 -53 -19 -70 -31 -19 -13 -133 -185 -325 -491 -162 -259 -296 -475 -298 -481 -3 -12 470 466 779 786 l181 188 -43 20 c-48 21 -152 26 -224 9z" id="189"/>
<path d="M1930 2011 c-11 -22 -17 -42 -12 -44 15 -9 132 -18 132 -10 0 10 -82 93 -92 93 -4 0 -17 -18 -28 -39z" id="190"/>
<path d="M6228 2005 c-12 -24 -20 -46 -17 -49 2 -2 35 -7 73 -11 l69 -7 -49 56 c-26 31 -49 56 -51 56 -2 0 -13 -20 -25 -45z" id="191"/>
<path d="M7363 2040 c-69 -16 -96 -43 -182 -180 -46 -74 -183 -292 -303 -483 -121 -192 -218 -350 -216 -352 4 -3 958 972 958 980 0 3 -19 15 -42 25 -45 20 -151 26 -215 10z" id="192"/>
<path d="M2286 1899 c-59 -78 -105 -143 -103 -146 7 -7 287 119 287 129 0 13 -68 158 -73 158 -3 0 -53 -64 -111 -141z" id="193"/>
<path d="M6613 1932 c-40 -53 -89 -119 -110 -146 -30 -39 -33 -48 -18 -44 19 6 277 118 283 123 4 4 -70 165 -77 165 -3 0 -39 -44 -78 -98z" id="194"/>
<path d="M2167 1979 c-29 -43 -29 -43 36 -54 22 -3 37 -3 34 2 -3 4 -10 27 -16 51 -7 23 -15 42 -19 42 -4 -1 -19 -19 -35 -41z" id="195"/>
<path d="M1770 2004 c-1 -16 93 -379 100 -387 5 -6 185 67 223 90 5 3 -20 30 -55 61 -35 31 -99 90 -143 132 -102 96 -125 115 -125 104z" id="196"/>
<path d="M6467 1976 c-15 -19 -27 -39 -27 -44 0 -8 78 -23 87 -17 4 2 -19 80 -26 88 -5 4 -20 -8 -34 -27z" id="197"/>
<path d="M6064 1983 c3 -10 26 -100 52 -200 26 -101 51 -183 55 -183 4 0 55 23 115 50 l108 51 -30 28 c-144 136 -292 271 -298 271 -4 0 -5 -8 -2 -17z" id="198"/>
<path d="M2025 1835 c50 -46 93 -84 96 -85 7 0 103 130 98 134 -5 3 -260 37 -274 36 -5 0 31 -39 80 -85z" id="199"/>
<path d="M6240 1907 c0 -9 161 -162 173 -164 12 -2 97 109 97 126 0 4 -44 13 -99 20 -54 6 -115 14 -135 18 -20 3 -36 3 -36 0z" id="200"/>
<path d="M810 1897 c0 -10 939 -1417 946 -1417 14 0 56 61 75 110 27 70 29 158 5 229 -17 49 -51 87 -375 420 -509 524 -651 667 -651 658z" id="201"/>
<path d="M5103 1888 c4 -12 921 -1388 943 -1417 2 -2 13 7 24 20 87 102 100 263 31 370 -16 24 -151 170 -302 324 -150 154 -370 379 -488 500 -118 121 -212 213 -208 203z" id="202"/>
<path d="M3230 1837 c-36 -22 -1081 -1079 -1074 -1086 4 -4 -8 -13 639 465 297 220 587 433 644 474 l104 74 -41 36 c-48 43 -98 60 -178 60 -44 0 -68 -6 -94 -23z" id="203"/>
<path d="M7520 1826 c-51 -35 -1077 -1083 -1053 -1075 7 2 249 180 539 394 507 375 782 576 814 596 12 7 7 16 -26 48 -48 45 -94 61 -179 61 -48 0 -68 -5 -95 -24z" id="204"/>
<path d="M2135 1679 c-99 -45 -182 -83 -185 -86 -6 -6 512 7 522 14 12 6 -11 56 -40 86 -26 27 -92 68 -109 66 -4 0 -89 -36 -188 -80z" id="205"/>
<path d="M6445 1675 c-93 -41 -179 -80 -190 -85 -14 -7 64 -8 240 -4 143 3 263 9 267 13 4 4 -2 25 -13 48 -19 39 -71 83 -114 96 -13 4 -79 -19 -190 -68z" id="206"/>
<path d="M1041 1733 c4 -12 978 -1013 986 -1013 2 0 13 21 25 46 24 56 35 183 19 240 -24 90 -42 103 -527 414 -253 161 -470 300 -483 309 -13 8 -22 10 -20 4z" id="207"/>
<path d="M5386 1668 c32 -35 221 -229 419 -433 198 -203 395 -406 437 -450 l77 -80 22 50 c34 75 38 205 9 272 -12 28 -36 64 -53 81 -28 27 -951 622 -965 622 -3 0 21 -28 54 -62z" id="208"/>
<path d="M3407 1589 c-42 -8 -141 -77 -723 -506 -370 -273 -672 -498 -670 -500 2 -2 381 194 842 435 462 241 847 441 857 445 25 9 21 22 -15 53 -77 64 -192 93 -291 73z" id="209"/>
<path d="M7702 1580 c-23 -5 -48 -12 -55 -17 -10 -6 -573 -420 -1165 -856 -89 -66 -160 -122 -158 -124 3 -3 166 79 363 182 197 103 579 302 848 443 270 140 492 257 495 259 9 8 -56 55 -115 83 -67 33 -147 44 -213 30z" id="210"/>
<path d="M1430 1547 c8 -8 179 -120 380 -247 201 -128 384 -246 408 -262 24 -17 46 -27 49 -24 13 12 15 105 4 158 -12 58 -55 129 -89 147 -10 5 -178 59 -374 120 -195 61 -364 114 -374 117 -17 6 -17 5 -4 -9z" id="211"/>
<path d="M1830 1543 c-79 -2 -148 -7 -152 -11 -4 -4 79 -34 185 -66 106 -33 267 -83 358 -113 92 -29 172 -53 178 -53 35 0 -11 149 -61 197 -62 58 -36 56 -508 46z" id="212"/>
<path d="M5713 1544 c5 -5 196 -129 425 -276 277 -177 419 -262 424 -255 13 20 9 121 -6 171 -16 52 -56 110 -88 127 -15 8 -436 141 -743 235 -11 4 -16 3 -12 -2z" id="213"/>
<path d="M6130 1533 c-79 -2 -148 -7 -152 -11 -6 -6 570 -193 706 -230 18 -5 19 -1 13 46 -10 81 -56 155 -119 188 -27 14 -62 15 -448 7z" id="214"/>
<path d="M3344 1224 c-736 -381 -1592 -829 -1589 -832 2 -2 437 159 967 357 529 198 1006 376 1058 394 52 19 96 39 97 44 7 21 -48 71 -109 98 -49 22 -82 30 -148 33 l-85 4 -191 -98z" id="215"/>
<path d="M7790 1289 c-95 -43 -1720 -892 -1716 -896 2 -3 217 75 478 172 260 98 732 274 1048 392 316 117 576 216 579 219 2 2 -16 24 -42 49 -82 79 -247 109 -347 64z" id="216"/>
<path d="M3640 1039 c-25 -6 -443 -159 -930 -341 -487 -181 -936 -348 -998 -371 -63 -23 -107 -43 -100 -45 7 -1 162 34 343 78 823 202 1841 450 1950 475 66 16 121 29 123 31 2 1 -3 16 -12 32 -23 44 -101 108 -154 127 -60 21 -164 27 -222 14z" id="217"/>
<path d="M7915 1021 c-38 -10 -428 -152 -865 -315 -437 -163 -875 -327 -974 -364 -98 -36 -174 -68 -169 -69 6 -2 102 19 214 46 112 27 627 153 1144 279 517 127 966 236 998 243 31 6 57 15 57 19 0 17 -59 92 -90 115 -43 32 -149 65 -204 64 -22 0 -72 -9 -111 -18z" id="218"/>
<path d="M3695 735 c-44 -7 -330 -74 -635 -148 -1229 -300 -1870 -456 -1958 -477 -51 -12 -91 -24 -89 -26 3 -4 1230 172 2457 351 168 24 378 54 468 66 89 12 162 26 162 31 0 21 -41 85 -72 114 -55 51 -93 73 -154 89 -67 17 -72 17 -179 0z" id="219"/>
<path d="M7965 721 c-55 -11 -397 -92 -760 -181 -860 -210 -1551 -379 -1747 -426 -87 -21 -156 -40 -154 -42 2 -2 237 31 522 72 855 124 2310 334 2442 352 67 10 122 21 122 26 0 21 -42 86 -77 120 -90 86 -188 108 -348 79z" id="220"/>
<path d="M3650 419 c-40 -7 -2330 -338 -2668 -386 -23 -3 -41 -7 -39 -10 4 -3 2970 179 3134 193 l73 6 -16 29 c-28 55 -83 106 -151 140 -63 31 -76 34 -173 36 -58 1 -130 -3 -160 -8z" id="221"/>
<path d="M7780 385 c-280 -42 -2518 -365 -2540 -366 -8 0 -10 -3 -5 -5 10 -4 2949 176 3133 192 l72 6 -22 40 c-31 54 -89 105 -157 136 -86 40 -200 39 -481 -3z" id="222"/>
<path d="M2890 100 c-503 -32 -1050 -67 -1215 -78 l-300 -19 1398 -2 c773 0 1397 3 1397 8 0 4 -18 28 -40 53 -56 64 -121 90 -235 94 -49 2 -502 -23 -1005 -56z" id="223"/>
<path d="M6965 76 l-1130 -73 1313 -2 1313 -1 -19 28 c-59 81 -132 115 -257 118 -49 1 -598 -30 -1220 -70z" id="224"/>
</g>
</svg>