<?xml version="1.0" ?><!DOCTYPE svg  PUBLIC '-//W3C//DTD SVG 20010904//EN'  'http://www.w3.org/TR/2001/REC-SVG-20010904/DTD/svg10.dtd'><svg height="850.000000pt" preserveAspectRatio="xMidYMid meet" version="1.0" viewBox="0 0 850.000000 850.000000" width="850.000000pt" xmlns="http://www.w3.org/2000/svg">
<metadata>
Created by potrace 1.14, written by Peter Selinger 2001-2017
</metadata>
<g fill="#ffffff" stroke="none" transform="translate(0.000000,850.000000) scale(0.100000,-0.100000)">
<path d="M0 7070 c0 -786 2 -1430 5 -1430 2 0 30 16 61 36 68 43 141 74 284 120 122 39 150 57 218 140 59 71 126 124 208 161 33 14 60 27 61 27 1 1 12 51 24 111 20 102 70 258 182 561 56 151 103 332 121 461 8 54 13 99 11 101 -1 1 -30 -30 -65 -68 -79 -90 -146 -130 -216 -130 -70 0 -80 13 -60 82 9 29 32 80 52 113 50 83 55 98 63 200 11 132 15 138 156 210 180 92 502 231 602 261 119 35 263 43 365 20 87 -19 155 -57 259 -145 92 -77 127 -94 269 -126 514 -117 808 -271 1017 -534 155 -196 204 -237 439 -367 285 -158 338 -210 390 -392 9 -31 52 -140 94 -242 94 -224 110 -276 110 -354 0 -75 -20 -119 -99 -229 -73 -101 -96 -148 -105 -210 -10 -63 -39 -95 -91 -99 -38 -3 -41 -1 -62 41 -12 24 -28 69 -34 100 -7 31 -14 58 -15 59 -1 2 -49 -19 -106 -46 -124 -61 -219 -140 -393 -332 -180 -197 -272 -272 -507 -409 l-133 -78 -8 -64 c-4 -35 -21 -93 -37 -128 -23 -48 -30 -78 -30 -125 0 -157 -42 -385 -101 -556 -22 -63 -41 -123 -44 -133 -9 -39 -60 -157 -115 -267 -32 -63 -72 -149 -90 -190 -18 -41 -51 -106 -73 -145 -22 -38 -62 -112 -89 -164 -27 -52 -73 -129 -103 -170 -160 -223 -191 -270 -240 -373 -29 -62 -68 -160 -85 -218 -154 -499 -337 -780 -982 -1505 -112 -127 -283 -323 -381 -437 l-178 -208 824 0 824 0 7 70 c8 91 28 149 81 235 23 39 59 121 80 183 20 62 51 134 69 160 29 42 34 60 44 152 8 74 24 141 52 225 54 158 66 221 79 400 12 160 28 275 43 315 6 14 16 49 24 77 34 131 130 269 295 428 168 162 428 398 476 433 255 182 702 220 1084 92 99 -33 261 -112 331 -162 46 -32 147 -167 163 -216 4 -13 33 -54 65 -91 32 -37 67 -85 78 -107 12 -21 45 -60 74 -85 39 -34 67 -72 102 -136 37 -72 66 -108 139 -180 134 -130 176 -221 272 -578 14 -49 38 -129 55 -176 16 -47 43 -163 59 -261 17 -96 39 -198 51 -227 11 -28 20 -67 20 -86 0 -35 0 -35 -45 -35 -64 0 -98 21 -145 90 -34 50 -61 73 -169 144 -142 94 -178 132 -219 231 -30 74 -74 114 -92 85 -16 -25 -11 -63 12 -105 19 -35 22 -63 30 -235 6 -155 5 -210 -7 -271 -16 -87 -9 -132 31 -184 30 -39 54 -107 54 -151 l0 -34 1351 0 1351 0 -64 47 c-34 26 -207 191 -384 368 -285 284 -328 332 -390 427 -120 187 -183 281 -239 356 -43 58 -57 86 -66 135 -13 65 -26 82 -118 156 -37 29 -57 63 -141 235 -112 230 -190 421 -196 476 -5 56 -45 155 -120 298 l-66 127 7 72 6 72 -41 26 c-54 34 -66 61 -51 119 6 25 11 72 11 105 l0 60 -42 11 c-178 43 -351 121 -491 220 -109 78 -266 241 -335 345 -138 213 -237 288 -492 375 -149 50 -230 91 -327 164 -40 30 -85 56 -100 58 -22 2 -29 9 -31 31 -5 39 32 90 133 186 138 130 337 256 540 341 201 85 287 172 302 303 7 62 14 73 52 80 20 4 33 16 46 44 9 21 26 58 38 83 33 71 106 136 202 181 72 33 87 44 105 78 11 22 34 51 52 64 81 60 323 178 455 221 28 10 65 30 80 46 16 16 66 100 112 187 108 203 174 303 254 382 101 100 223 172 316 187 52 8 67 -4 76 -63 14 -95 48 -157 199 -363 119 -162 159 -228 189 -319 19 -55 35 -83 61 -105 66 -58 282 -316 353 -421 59 -87 120 -214 154 -319 33 -98 69 -291 69 -363 0 -24 4 -53 10 -63 13 -23 105 -44 156 -34 30 6 40 3 53 -14 9 -11 28 -24 44 -27 l27 -7 0 1966 0 1966 -4250 0 -4250 0 0 -1430z" id="1"/>
<path d="M1785 7989 c-88 -21 -209 -66 -380 -142 -99 -43 -225 -97 -279 -118 -55 -21 -107 -46 -118 -55 -21 -20 -23 -55 -6 -135 15 -72 4 -113 -58 -219 -55 -93 -57 -114 -11 -105 82 17 123 55 341 312 129 152 191 210 276 254 38 20 60 24 140 24 87 0 100 -3 149 -30 30 -16 67 -48 83 -69 45 -63 34 -121 -22 -110 -25 6 -27 3 -39 -49 -7 -31 -18 -60 -25 -66 -17 -14 -61 1 -92 30 l-21 20 -22 -36 c-14 -25 -27 -35 -39 -32 -30 6 -70 -21 -82 -57 -12 -37 -55 -80 -90 -91 -14 -4 -20 -15 -20 -34 0 -23 -5 -30 -27 -34 -22 -5 -34 -19 -58 -68 -34 -71 -87 -118 -163 -145 l-47 -17 -86 -226 c-47 -124 -82 -228 -76 -230 23 -9 54 23 66 67 7 26 14 53 17 60 2 6 19 12 37 12 38 0 51 11 61 54 6 24 10 27 29 21 12 -4 38 -8 56 -9 36 -1 37 0 71 74 4 9 28 18 56 22 27 3 69 13 93 22 57 21 158 19 246 -4 39 -10 72 -16 73 -15 11 10 -70 137 -116 182 -58 59 -58 67 0 26 47 -32 120 -128 143 -185 14 -39 23 -47 93 -80 42 -20 80 -34 85 -31 4 2 7 19 7 38 0 72 23 83 80 35 45 -39 56 -38 63 8 4 21 13 46 21 57 13 18 15 17 50 -21 53 -57 114 -186 125 -264 17 -126 -20 -266 -90 -345 -35 -39 -112 -188 -125 -239 -6 -26 -5 -28 12 -21 10 5 50 13 88 19 61 9 72 8 104 -10 56 -30 82 -76 82 -145 0 -33 2 -59 4 -59 10 0 154 63 174 76 23 15 23 17 7 34 -28 31 -21 61 35 143 113 167 265 257 432 257 74 0 143 -22 158 -51 15 -27 12 -57 -7 -69 -12 -8 -14 -13 -6 -16 24 -10 93 -64 93 -73 0 -16 -25 -29 -90 -46 -36 -9 -68 -19 -72 -21 -14 -9 15 -53 44 -65 16 -6 54 -27 85 -46 53 -31 59 -33 87 -21 44 19 208 16 276 -5 57 -17 126 -54 117 -63 -2 -3 -33 5 -68 17 -68 24 -220 37 -284 25 l-36 -7 64 -64 c112 -111 177 -229 177 -322 0 -19 7 -48 16 -65 16 -30 16 -33 -5 -49 -12 -10 -27 -19 -33 -21 -8 -3 -7 -11 5 -28 17 -25 8 -50 -19 -50 -17 0 -44 -28 -44 -46 0 -8 11 -26 26 -40 34 -35 27 -55 -29 -81 -43 -21 -47 -26 -47 -58 0 -19 4 -35 10 -35 11 0 116 95 276 253 l111 109 2 56 c1 38 10 75 27 109 14 29 23 57 20 62 -3 5 -2 56 2 114 6 76 15 116 31 146 12 23 19 46 17 50 -3 4 6 24 20 44 l25 37 -28 10 c-71 25 -80 49 -29 82 20 13 36 26 36 29 0 4 -30 17 -67 30 l-68 24 0 115 c0 63 -4 139 -9 168 -12 73 4 67 49 -20 41 -78 52 -91 73 -83 25 9 144 -15 192 -40 62 -32 134 -113 159 -181 28 -74 27 -154 -6 -277 -49 -191 -28 -447 38 -447 5 0 9 6 9 13 0 38 36 123 80 191 96 147 119 216 100 300 -18 80 -198 534 -243 614 -57 100 -137 173 -273 246 -184 100 -295 179 -378 268 -42 45 -76 85 -76 89 0 12 -209 186 -244 203 -19 9 -48 16 -65 16 -26 0 -34 6 -50 39 -24 47 -119 133 -175 159 -23 11 -108 43 -191 72 -118 40 -166 52 -225 55 -55 2 -97 11 -157 34 -78 30 -107 49 -260 170 -93 73 -154 94 -293 97 -63 2 -133 -1 -155 -7z m1296 -815 c-6 -32 -19 -69 -28 -83 -26 -39 -27 -7 -3 63 11 33 20 69 20 82 0 12 3 31 8 41 12 31 14 -39 3 -103z m-525 -70 c46 -161 41 -319 -10 -319 -27 0 -34 36 -24 125 5 44 4 113 -2 167 -6 51 -10 98 -10 105 1 25 31 -27 46 -78z m400 -40 c-3 -39 -10 -84 -16 -98 -9 -25 -8 -27 10 -21 30 10 25 -6 -28 -76 -27 -35 -67 -92 -91 -126 -23 -35 -46 -63 -52 -63 -34 0 -11 63 63 172 51 74 88 179 95 271 6 63 8 68 15 42 5 -16 7 -62 4 -101z m362 -376 c-2 -6 -40 -20 -83 -30 -44 -10 -119 -37 -168 -59 -65 -30 -92 -38 -100 -30 -23 23 47 76 147 112 60 21 210 26 204 7z" id="2"/>
<path d="M1578 7725 c-20 -7 -49 -21 -65 -31 -43 -28 -153 -117 -153 -125 0 -12 84 -57 97 -52 8 3 25 25 39 49 14 24 32 44 39 44 6 0 36 -24 65 -52 l52 -53 17 25 c9 13 25 35 37 49 l20 24 33 -32 c17 -17 36 -31 41 -31 5 0 12 17 16 38 4 20 14 49 22 64 14 23 14 29 1 44 -41 49 -177 70 -261 39z" id="3"/>
<path d="M1504 7503 l-41 -44 -52 21 c-78 30 -108 27 -150 -18 l-36 -37 -1 -120 c-1 -72 -8 -141 -17 -172 -8 -29 -11 -53 -7 -53 47 0 124 68 158 138 14 30 31 56 39 59 8 3 20 18 29 34 8 16 31 37 52 48 51 26 67 47 85 108 14 47 14 53 -1 66 -15 12 -21 9 -58 -30z" id="4"/>
<path d="M2213 6815 c8 -57 -7 -66 -72 -42 -25 9 -47 14 -49 12 -2 -2 -8 -22 -13 -44 -8 -38 -6 -45 30 -99 55 -81 81 -164 81 -262 0 -44 4 -80 8 -80 18 0 62 58 88 115 53 114 42 272 -27 392 -38 66 -54 69 -46 8z" id="5"/>
<path d="M1471 6825 c-69 -18 -87 -27 -98 -49 -16 -31 -61 -56 -100 -56 -21 0 -33 -8 -45 -30 -19 -33 -60 -54 -89 -45 -26 8 -42 -29 -36 -81 6 -55 17 -69 88 -104 100 -51 127 -100 136 -255 10 -160 -35 -338 -138 -554 -27 -57 -47 -106 -44 -109 8 -9 45 30 85 88 62 92 159 174 263 224 100 49 230 90 318 101 73 9 80 14 86 67 5 42 3 45 -23 56 -16 6 -62 15 -103 21 -51 7 -88 19 -120 38 -58 36 -120 125 -128 182 -3 24 -12 45 -19 48 -22 8 -16 27 19 60 72 70 180 92 258 52 59 -29 129 -98 150 -144 19 -42 22 -90 20 -304 0 -68 2 -128 5 -132 3 -5 19 -9 37 -9 51 0 83 41 117 150 17 52 41 115 56 140 17 30 22 46 13 49 -6 2 -20 12 -30 22 -16 16 -18 33 -17 126 3 147 -21 200 -136 309 -157 149 -324 193 -525 139z m340 -290 c44 -15 125 -73 115 -82 -2 -3 -25 9 -50 26 -62 43 -117 61 -186 61 -68 0 -118 -16 -201 -65 l-62 -36 -41 27 -41 28 70 12 c39 6 95 19 125 27 30 9 66 18 80 21 42 8 142 -2 191 -19z m-353 -249 c57 -92 63 -117 30 -140 -27 -19 -82 -21 -96 -3 -8 9 -18 178 -13 220 3 24 33 -5 79 -77z" id="6"/>
<path d="M1420 6218 c0 -41 3 -48 20 -48 27 0 27 40 0 71 l-19 24 -1 -47z" id="7"/>
<path d="M6998 6515 c-119 -81 -207 -175 -255 -272 -51 -107 -103 -323 -103 -429 0 -53 6 -98 15 -121 9 -21 13 -49 10 -64 -8 -36 -52 -79 -88 -86 -37 -8 -34 -18 42 -134 46 -70 76 -104 116 -132 67 -47 80 -71 94 -172 13 -94 22 -109 97 -166 68 -52 92 -94 105 -183 18 -130 28 -191 34 -212 5 -15 1 -23 -11 -28 -22 -8 -42 15 -86 99 -49 95 -74 121 -195 201 -62 42 -126 93 -140 113 -15 20 -66 74 -113 121 -75 74 -94 101 -151 209 -76 147 -118 198 -207 250 -78 46 -222 95 -235 82 -16 -16 3 -63 35 -90 18 -14 62 -56 99 -92 54 -53 70 -77 83 -119 20 -67 20 -104 1 -120 -12 -10 -20 -7 -46 14 -17 14 -43 29 -57 32 -15 3 -33 7 -39 10 -25 7 -12 -14 22 -37 53 -36 60 -65 45 -165 -16 -100 -6 -145 40 -189 32 -31 39 -62 16 -71 -8 -3 -38 10 -68 29 -29 19 -84 52 -123 73 -128 70 -189 142 -252 299 -22 56 -39 84 -58 95 -24 14 -27 13 -41 -5 -12 -15 -14 -33 -9 -75 22 -178 114 -313 259 -378 160 -72 200 -97 244 -152 25 -30 70 -70 101 -88 75 -45 111 -80 191 -187 85 -114 107 -134 172 -156 47 -16 53 -21 53 -46 0 -41 -28 -41 -137 0 -51 19 -127 40 -168 47 -96 16 -118 28 -174 94 -41 47 -60 60 -149 97 -110 46 -152 80 -162 132 -13 66 -27 85 -93 129 -112 74 -103 73 -156 25 -32 -30 -46 -51 -46 -69 0 -51 -39 -67 -80 -32 -8 7 -44 22 -80 34 -53 18 -82 21 -155 18 -105 -5 -161 -26 -282 -110 -42 -29 -115 -73 -162 -98 -72 -39 -92 -55 -128 -105 -23 -33 -42 -63 -43 -67 0 -10 126 -91 195 -125 33 -17 119 -53 190 -82 208 -82 313 -160 418 -314 124 -182 315 -355 499 -452 73 -39 260 -108 349 -129 l27 -6 -25 78 c-48 151 -41 228 29 307 31 35 45 63 60 122 25 99 38 122 94 172 94 83 208 101 309 49 28 -14 85 -43 127 -65 94 -49 140 -58 184 -37 19 9 42 13 54 9 31 -10 53 -50 46 -83 -4 -15 -6 -56 -6 -92 1 -70 -17 -134 -50 -181 -20 -28 -20 -29 -3 -29 11 0 24 5 31 12 9 9 15 9 27 -3 14 -14 13 -18 -6 -43 -12 -15 -46 -45 -76 -67 -49 -36 -54 -44 -48 -67 9 -36 12 -38 32 -20 32 28 131 79 136 71 3 -5 -18 -21 -46 -36 -29 -15 -65 -38 -81 -51 -28 -22 -29 -25 -17 -54 7 -16 23 -40 36 -52 l23 -21 32 53 c45 74 109 158 120 158 5 0 -22 -46 -60 -102 -39 -56 -70 -107 -70 -114 0 -17 51 -44 82 -44 21 0 26 9 42 68 10 37 20 73 23 80 3 7 -1 10 -10 6 -20 -7 -33 15 -17 29 9 9 15 8 23 -5 9 -14 15 -9 37 35 18 36 32 52 45 52 11 0 20 -7 20 -15 0 -8 -8 -14 -17 -14 -18 2 -47 -50 -79 -145 -33 -96 -34 -95 79 -88 113 7 231 35 318 76 108 51 268 216 354 366 31 55 55 133 65 213 8 62 0 65 -75 27 -28 -14 -50 -21 -50 -15 0 6 27 23 61 38 l60 27 -4 52 c-2 29 -6 56 -10 59 -14 14 -184 -154 -200 -198 -3 -10 -8 -10 -17 -2 -9 9 13 37 93 120 114 116 116 123 59 157 l-30 17 -37 -42 c-52 -61 -69 -96 -55 -113 15 -18 4 -36 -18 -32 -37 6 -30 34 32 120 l54 76 -44 7 c-40 6 -49 3 -73 -20 -31 -30 -38 -31 -60 -12 -14 13 -23 12 -71 -4 -67 -23 -127 -25 -204 -5 -31 8 -68 12 -81 9 -40 -10 -108 71 -76 90 14 9 -9 105 -57 236 -73 196 -64 292 37 383 50 45 77 59 176 88 74 22 84 28 144 91 101 107 172 123 282 64 35 -18 86 -45 113 -60 43 -22 106 -35 106 -21 0 16 -44 191 -62 245 -29 90 -106 241 -166 325 -27 39 -104 135 -170 214 -89 107 -128 147 -153 155 -26 9 -35 18 -42 46 -37 154 -68 217 -193 391 -92 129 -167 246 -208 327 -14 28 -30 52 -34 52 -4 0 -50 -30 -104 -65z m134 -107 c8 -13 21 -41 28 -63 18 -59 46 -100 122 -184 106 -116 150 -229 128 -328 -13 -58 -25 -79 -54 -98 -25 -16 -56 -11 -56 9 0 7 -6 21 -14 31 -13 18 -14 17 -30 -13 -19 -36 -33 -40 -52 -14 -9 12 -13 13 -14 4 0 -31 -33 -81 -60 -92 -58 -24 -109 31 -110 120 -1 22 -2 23 -13 8 -7 -9 -20 -30 -29 -47 -10 -19 -22 -29 -31 -25 -37 14 -47 108 -23 222 12 58 11 62 -6 62 -23 0 -24 39 -2 124 21 81 63 167 119 244 49 67 73 77 97 40z m543 -1240 c-8 -55 -36 -108 -57 -108 -24 0 -23 14 5 51 18 26 22 43 21 102 l-1 72 19 -40 c12 -27 17 -53 13 -77z m85 -43 c0 -37 -25 -79 -54 -93 -34 -15 -43 1 -17 34 11 14 23 38 26 54 9 39 45 43 45 5z m-409 -185 c37 -20 23 -55 -50 -125 -63 -61 -83 -91 -111 -167 -6 -19 -14 -26 -25 -22 -31 12 -12 179 31 269 8 18 25 37 37 43 29 14 93 15 118 2z m-732 -134 c6 -7 51 -30 101 -50 135 -56 162 -84 175 -181 3 -28 9 -63 12 -80 l6 -30 -48 40 c-38 31 -62 41 -118 52 -92 17 -127 38 -154 93 -25 49 -29 91 -12 139 12 34 21 38 38 17z m-94 -215 c54 -25 80 -55 106 -126 14 -40 36 -74 66 -103 67 -65 58 -77 -56 -73 -52 1 -104 7 -116 11 -27 10 -65 56 -65 79 0 29 -47 115 -79 145 -38 36 -39 47 -3 68 35 23 97 22 147 -1z m-1224 -121 c29 -16 23 -48 -16 -83 -19 -17 -35 -34 -35 -38 0 -4 23 1 50 12 77 29 90 26 87 -18 -2 -37 -1 -38 34 -38 20 0 43 -6 52 -14 27 -22 21 -69 -12 -100 l-29 -28 33 -12 c21 -7 37 -22 45 -41 11 -27 10 -34 -12 -68 -14 -20 -31 -52 -38 -70 -16 -41 -45 -62 -86 -62 -26 0 -48 14 -113 74 -87 80 -117 94 -251 120 -41 8 -101 24 -132 36 -61 23 -149 78 -155 96 -2 6 10 17 28 24 17 8 52 35 77 62 54 58 176 122 272 142 79 17 174 20 201 6z m1162 -451 c9 -6 17 -14 17 -20 0 -5 -8 -12 -17 -15 -61 -20 -166 -80 -216 -124 -35 -32 -63 -50 -72 -46 -29 11 -12 139 23 180 33 37 72 47 162 40 47 -3 93 -10 103 -15z m1098 -268 c-3 -52 1 -74 22 -120 14 -31 29 -77 32 -103 7 -57 26 -66 107 -49 81 18 121 50 159 126 17 36 36 65 40 65 27 0 -9 -109 -45 -139 -9 -8 -16 -17 -16 -22 0 -15 -91 -163 -118 -193 -39 -42 -90 -71 -207 -121 -101 -44 -158 -55 -170 -36 -5 9 53 31 83 31 24 0 115 95 138 145 27 57 30 92 9 118 -12 17 -17 17 -50 6 -33 -12 -43 -11 -98 10 -93 34 -124 37 -156 13 -44 -32 -57 -15 -35 44 14 37 44 75 123 154 167 167 188 175 182 71z m425 28 c10 -17 -13 -36 -27 -22 -12 12 -4 33 11 33 5 0 12 -5 16 -11z m-220 -10 c10 -17 -13 -36 -27 -22 -12 12 -4 33 11 33 5 0 12 -5 16 -11z m-1752 -98 c21 -33 -59 -81 -134 -81 -49 0 -90 13 -90 28 0 4 31 7 68 7 60 0 73 4 103 27 37 30 45 32 53 19z m1734 -52 c-2 -6 -8 -10 -13 -10 -5 0 -11 4 -13 10 -2 6 4 11 13 11 9 0 15 -5 13 -11z m-1650 -25 c5 -34 -52 -76 -97 -72 -46 4 -48 29 -4 40 18 5 40 20 49 34 20 29 48 28 52 -2z m1378 -235 c10 -17 -13 -36 -27 -22 -12 12 -4 33 11 33 5 0 12 -5 16 -11z m-330 -140 c10 -17 -13 -36 -27 -22 -12 12 -4 33 11 33 5 0 12 -5 16 -11z" id="8"/>
<path d="M7050 6337 c-47 -83 -89 -186 -90 -217 l0 -24 16 22 c15 22 44 30 44 13 0 -5 -14 -38 -31 -74 -34 -74 -60 -230 -43 -267 8 -19 14 -13 53 60 24 45 46 78 50 75 3 -4 6 -49 6 -101 0 -81 3 -96 21 -114 32 -33 68 -14 83 44 6 25 11 56 11 70 0 37 17 32 34 -9 8 -19 17 -35 20 -35 3 0 13 14 21 31 l16 31 36 -36 c20 -20 40 -36 43 -36 18 0 32 64 28 128 -4 85 -35 150 -122 256 -39 48 -73 102 -87 138 -21 57 -53 108 -67 108 -4 0 -23 -28 -42 -63z" id="9"/>
<path d="M7252 4903 c-24 -5 -43 -39 -57 -101 -7 -32 -6 -32 54 29 34 35 61 67 61 71 0 8 -18 9 -58 1z" id="10"/>
<path d="M6610 4741 c0 -44 24 -97 53 -116 14 -8 53 -20 88 -26 35 -5 72 -12 83 -15 16 -5 18 -2 12 22 -12 48 -35 75 -82 95 -41 18 -129 58 -146 67 -5 2 -8 -10 -8 -27z" id="11"/>
<path d="M6411 4561 c-12 -8 -10 -15 11 -43 14 -18 35 -57 48 -85 31 -72 50 -87 111 -85 28 0 53 2 54 4 2 2 -9 39 -24 82 -36 102 -71 136 -139 136 -26 0 -53 -4 -61 -9z" id="12"/>
<path d="M5040 4406 c-36 -12 -79 -31 -96 -42 -53 -32 -163 -119 -164 -127 0 -18 170 -86 264 -106 109 -23 157 -47 242 -121 91 -80 106 -78 154 24 35 73 29 86 -41 86 -64 0 -64 18 1 60 77 50 81 96 6 85 -52 -8 -71 9 -61 54 l7 31 -40 -14 c-22 -8 -54 -22 -72 -31 -17 -9 -34 -14 -37 -11 -12 12 10 80 33 101 13 12 24 25 24 29 0 3 -35 6 -77 6 -56 0 -97 -7 -143 -24z" id="13"/>
<path d="M6275 4003 c-30 -8 -53 -32 -60 -65 -4 -16 -5 -31 -3 -33 2 -3 25 11 51 29 26 19 61 40 79 47 27 11 29 14 12 20 -21 8 -49 9 -79 2z" id="14"/>
<path d="M7488 3746 c-10 -7 -26 -34 -37 -59 -17 -38 -33 -55 -93 -94 -63 -41 -70 -48 -48 -51 14 -1 65 -12 113 -24 66 -15 91 -18 100 -9 8 8 8 14 -1 23 -21 21 -13 31 12 15 44 -29 47 1 11 91 -14 34 -25 75 -25 92 0 33 -6 36 -32 16z" id="15"/>
<path d="M7735 3424 c-42 -21 -68 -47 -94 -94 -26 -46 -17 -50 41 -18 39 22 93 97 86 118 -2 6 -15 3 -33 -6z" id="16"/>
<path d="M1019 6523 l-36 -4 -34 -107 c-43 -136 -44 -219 -6 -337 15 -44 27 -86 27 -94 0 -28 -29 11 -52 70 -13 32 -26 59 -29 59 -7 0 -19 -156 -19 -252 0 -66 3 -74 75 -213 94 -181 109 -247 81 -358 -10 -40 -36 -110 -58 -157 -51 -110 -77 -205 -84 -305 -8 -106 16 -174 85 -238 59 -55 98 -67 218 -67 123 0 125 1 107 52 -24 69 -27 137 -10 236 9 50 16 110 16 133 0 79 52 139 127 146 158 16 514 -236 513 -361 0 -39 -30 -104 -61 -134 -34 -32 -272 -151 -319 -158 -37 -6 -38 -8 -29 -32 25 -66 157 -190 268 -253 50 -29 61 -31 123 -27 96 7 159 47 267 171 154 176 242 231 434 272 167 37 238 61 327 113 l81 47 -69 6 c-89 9 -133 19 -127 29 3 5 29 6 58 3 28 -3 92 0 141 6 82 10 97 15 192 72 162 96 244 156 237 175 -3 9 -6 32 -7 53 -1 32 -4 36 -31 39 -16 2 -61 12 -100 23 -38 10 -88 19 -110 19 -90 -1 -273 -90 -384 -187 -28 -24 -84 -94 -125 -156 -41 -62 -99 -136 -129 -164 -63 -61 -96 -68 -117 -27 -12 22 -12 32 4 72 94 243 120 366 111 512 -8 116 -20 191 -47 291 l-21 77 -41 5 c-30 4 -50 15 -73 41 -39 42 -41 71 -16 191 10 51 13 94 9 119 -22 119 -148 115 -276 -8 -39 -38 -78 -66 -96 -70 -38 -8 -111 20 -120 46 -4 15 -17 18 -63 18 -85 0 -203 -33 -318 -90 -117 -58 -172 -108 -253 -228 -29 -42 -63 -85 -76 -95 -32 -24 -90 -33 -109 -17 -21 18 -19 34 10 62 13 13 43 71 65 129 79 200 116 389 108 543 -7 122 -22 154 -94 202 -36 24 -67 54 -79 76 -11 21 -22 37 -25 36 -3 -1 -21 -3 -41 -5z m1191 -839 c33 -101 -12 -190 -169 -333 -108 -97 -119 -97 -101 6 15 90 57 187 114 267 53 75 79 96 117 96 23 0 30 -6 39 -36z m-974 -525 c10 -17 -13 -36 -27 -22 -12 12 -4 33 11 33 5 0 12 -5 16 -11z m-126 -135 c11 -12 10 -18 -3 -32 -16 -15 -18 -15 -34 0 -13 14 -14 20 -3 32 7 9 16 16 20 16 4 0 13 -7 20 -16z m96 -15 c10 -17 -13 -36 -27 -22 -12 12 -4 33 11 33 5 0 12 -5 16 -11z m-68 -132 c2 -12 -3 -17 -17 -17 -12 0 -21 6 -21 13 0 31 32 34 38 4z m68 -118 c10 -17 -13 -36 -27 -22 -12 12 -4 33 11 33 5 0 12 -5 16 -11z m777 -223 c3 -8 -1 -22 -9 -33 -14 -17 -14 -17 -28 0 -18 23 -10 47 14 47 10 0 20 -6 23 -14z m132 -6 c0 -8 -8 -16 -17 -18 -13 -2 -18 3 -18 18 0 15 5 20 18 18 9 -2 17 -10 17 -18z m-265 -70 c0 -13 -7 -20 -20 -20 -13 0 -20 7 -20 20 0 13 7 20 20 20 13 0 20 -7 20 -20z m156 -21 c10 -17 -13 -36 -27 -22 -12 12 -4 33 11 33 5 0 12 -5 16 -11z" id="17"/>
<path d="M2121 5649 c-41 -25 -99 -116 -128 -202 -24 -72 -29 -107 -15 -107 15 0 168 164 186 197 20 40 22 119 2 126 -7 3 -27 -3 -45 -14z" id="18"/>
<path d="M1595 6426 c-51 -22 -57 -36 -39 -96 33 -112 97 -168 203 -177 96 -9 162 27 146 78 -7 21 -7 21 -22 0 -68 -98 -223 -40 -223 83 0 31 7 45 39 77 21 21 36 41 33 44 -10 10 -108 4 -137 -9z" id="19"/>
<path d="M1773 6375 c-46 -20 -68 -57 -52 -87 27 -51 72 -62 107 -25 34 36 38 74 11 103 -26 28 -24 27 -66 9z" id="20"/>
<path d="M6746 6360 c-43 -52 -73 -110 -111 -215 -52 -143 -143 -313 -177 -331 -15 -8 -81 -30 -147 -49 -118 -34 -292 -105 -292 -120 0 -4 25 -18 56 -30 70 -29 147 -76 203 -123 35 -30 60 -70 125 -202 78 -157 85 -168 145 -215 34 -28 79 -73 100 -100 24 -32 73 -74 135 -116 54 -36 123 -90 154 -120 l55 -54 -6 55 c-10 77 -30 112 -92 166 -67 57 -89 99 -99 188 -9 91 -18 108 -79 150 -28 19 -62 50 -76 68 -48 61 -162 260 -153 268 4 3 26 12 49 18 22 6 50 22 61 34 19 20 20 29 13 68 -35 177 40 506 147 648 32 43 24 52 -11 12z" id="21"/>
<path d="M3930 6271 l0 -38 84 -31 c93 -36 116 -53 96 -77 -6 -8 -20 -17 -31 -20 -27 -9 -24 -21 11 -35 43 -18 54 -34 40 -60 -11 -20 -10 -21 38 -14 31 4 52 2 56 -4 4 -6 -7 -33 -24 -60 -16 -27 -30 -54 -30 -60 0 -14 63 -34 92 -30 18 2 27 17 45 73 72 226 -42 364 -319 389 l-58 5 0 -38z" id="22"/>
<path d="M2952 6261 c-64 -22 -149 -79 -198 -133 -38 -43 -94 -126 -94 -141 0 -10 27 -7 155 22 60 14 126 21 199 21 105 0 108 1 93 18 -28 31 -20 40 53 63 39 13 70 26 70 30 0 4 -16 13 -35 20 -44 16 -51 36 -26 70 l20 27 -31 11 c-47 17 -146 13 -206 -8z" id="23"/>
<path d="M762 6043 c-71 -43 -139 -105 -182 -165 -17 -23 -44 -50 -60 -60 -33 -20 -38 -48 -15 -88 8 -14 14 -48 15 -77 0 -43 -5 -58 -34 -95 l-33 -44 38 -22 c22 -13 39 -27 39 -33 0 -6 -14 -30 -31 -55 -71 -104 -86 -182 -48 -256 25 -50 26 -85 4 -162 -34 -115 11 -259 102 -334 74 -59 92 -79 99 -107 9 -34 -18 -64 -66 -71 l-37 -6 48 -48 c74 -74 76 -147 8 -205 l-29 -24 29 -20 c16 -12 59 -34 95 -51 48 -21 66 -34 66 -48 0 -11 -23 -49 -51 -86 -28 -37 -48 -70 -45 -73 14 -14 145 19 208 51 60 31 69 34 83 20 13 -14 13 -19 -1 -52 -28 -65 -54 -145 -49 -150 2 -3 23 8 46 23 29 21 45 26 56 19 8 -5 31 -49 51 -97 20 -50 39 -84 44 -79 5 5 22 40 37 78 39 97 62 98 211 3 104 -66 165 -91 220 -91 60 0 82 12 119 66 69 100 148 133 294 122 112 -8 167 0 167 24 0 28 28 44 74 41 71 -3 224 35 313 79 100 49 166 117 188 194 11 37 23 57 43 68 47 28 100 88 126 144 14 30 30 54 36 54 26 0 115 189 97 207 -3 2 -97 -47 -209 -110 -112 -63 -309 -172 -438 -242 -129 -71 -248 -141 -265 -156 -57 -51 -93 -64 -185 -64 -72 0 -96 5 -155 29 -67 29 -77 30 -225 31 -178 2 -221 13 -317 86 -31 23 -78 50 -106 60 -70 26 -96 55 -157 172 -29 56 -63 113 -76 127 -13 14 -30 41 -38 61 -23 55 -36 394 -39 962 -1 268 -2 487 -3 487 0 0 -28 -17 -62 -37z m275 -1832 c105 -22 146 -39 151 -63 5 -27 -69 -60 -126 -56 l-47 3 40 25 39 24 -44 13 c-62 18 -192 41 -272 49 -38 3 -68 10 -68 15 0 17 230 10 327 -10z m284 -149 c63 -48 96 -92 173 -237 21 -37 35 -69 34 -71 -2 -2 -34 36 -70 84 -37 48 -90 110 -118 137 -49 48 -52 49 -66 31 -8 -11 -14 -35 -14 -54 0 -49 -31 -40 -43 13 -7 36 -2 119 10 138 10 16 34 5 94 -41z" id="24"/>
<path d="M2895 5983 c-107 -24 -204 -59 -230 -83 -16 -16 -65 -45 -107 -65 -87 -41 -138 -90 -138 -134 0 -67 75 -79 211 -32 46 15 108 44 138 62 73 46 148 47 233 6 103 -51 178 -168 162 -254 -7 -39 -19 -49 -64 -55 -19 -3 -70 -15 -112 -28 -67 -21 -82 -22 -117 -12 -59 18 -91 50 -144 146 -31 54 -55 86 -65 86 -9 0 -36 -8 -60 -17 -35 -15 -42 -22 -37 -38 55 -191 69 -363 42 -507 -9 -46 -21 -114 -27 -152 -6 -38 -24 -110 -40 -160 -16 -50 -27 -92 -24 -95 10 -10 80 71 154 179 113 167 203 251 350 325 120 61 199 68 322 29 83 -27 148 -35 180 -22 15 6 14 10 -4 47 l-20 41 20 41 c19 38 19 42 4 70 -16 29 -16 31 7 50 13 10 30 19 37 19 10 0 13 8 10 23 -3 12 -8 49 -11 82 -10 87 -55 165 -150 260 -83 84 -163 139 -253 174 -42 17 -73 21 -150 20 -53 -1 -106 -3 -117 -6z m233 -236 c62 -49 112 -116 112 -153 1 -10 14 -53 30 -94 31 -77 28 -100 -8 -81 -45 24 -52 40 -52 114 0 90 -24 142 -94 201 -28 24 -64 56 -81 71 l-30 27 30 -17 c17 -10 58 -40 93 -68z m49 -417 c2 -9 -28 -33 -79 -62 -100 -59 -112 -63 -132 -43 -19 19 -22 90 -3 102 40 25 210 27 214 3z" id="25"/>
<path d="M2988 5298 c-7 -18 1 -38 15 -38 7 0 30 11 52 25 l40 24 -51 1 c-33 0 -54 -5 -56 -12z" id="26"/>
<path d="M4076 5931 c-25 -5 -34 -16 -54 -66 -16 -40 -24 -80 -24 -120 -1 -37 -6 -66 -15 -77 -12 -13 -12 -20 -2 -36 11 -17 9 -24 -14 -52 -22 -26 -27 -41 -27 -87 0 -52 1 -55 19 -42 86 64 207 142 240 155 l41 16 0 57 c0 73 -24 113 -84 140 -25 11 -46 25 -46 31 0 6 9 29 20 50 l20 40 -22 -1 c-13 -1 -36 -4 -52 -8z" id="27"/>
<path d="M325 5731 c-124 -46 -183 -76 -262 -135 l-63 -46 0 -1098 0 -1099 42 40 c53 51 140 91 198 91 l45 1 6 -42 c3 -24 7 -45 10 -47 3 -3 33 6 68 20 75 31 139 36 154 13 7 -12 3 -25 -17 -55 l-26 -39 44 -7 c58 -8 105 -36 113 -66 3 -13 3 -55 -1 -93 -6 -63 2 -87 19 -59 9 14 45 12 50 -2 2 -7 6 -38 10 -69 l6 -56 57 23 c38 15 60 20 68 13 22 -18 37 -133 29 -221 -16 -182 -77 -306 -229 -467 l-61 -64 35 7 c78 16 108 18 115 7 8 -14 -9 -60 -42 -113 -13 -21 -21 -38 -19 -38 3 0 41 16 85 35 43 19 96 35 116 35 53 0 90 -40 100 -107 10 -79 -7 -121 -87 -215 -118 -137 -370 -456 -440 -558 -110 -160 -129 -208 -228 -570 -42 -152 -96 -264 -165 -338 l-55 -60 0 -176 0 -176 235 0 c169 0 235 3 235 11 0 7 51 64 112 128 62 64 142 157 177 206 94 132 190 251 421 520 114 132 236 278 273 325 37 47 90 113 119 146 48 58 79 104 208 311 96 155 191 379 244 573 31 113 108 339 160 465 67 164 78 196 72 202 -4 4 -32 -18 -62 -48 -53 -51 -55 -52 -39 -19 28 54 91 145 154 218 31 37 72 87 91 112 19 25 68 84 110 132 41 47 93 107 115 133 100 116 192 282 244 443 28 84 62 263 77 397 l6 60 -30 -40 c-17 -22 -50 -55 -74 -72 -32 -23 -48 -43 -56 -72 -17 -55 -82 -134 -145 -176 -75 -50 -160 -81 -284 -106 -80 -16 -114 -28 -131 -45 -36 -35 -107 -46 -215 -34 -160 19 -212 1 -259 -88 -9 -17 -39 -46 -65 -63 -43 -27 -54 -30 -113 -27 -70 4 -99 16 -245 100 -115 67 -119 67 -134 16 -7 -24 -26 -74 -43 -111 -28 -61 -34 -68 -57 -65 -22 3 -31 17 -68 103 -24 57 -47 99 -54 97 -6 -2 -31 -16 -55 -32 -47 -33 -81 -38 -91 -14 -6 15 17 137 33 178 6 17 4 18 -17 12 -45 -14 -213 -23 -227 -13 -19 15 -8 51 39 125 44 71 44 72 26 72 -21 0 -176 99 -187 120 -9 16 -4 23 33 44 86 50 84 111 -4 190 -27 24 -49 51 -49 59 0 24 40 47 82 47 57 0 49 25 -28 94 -88 79 -127 158 -132 267 -3 51 1 96 12 133 16 55 16 57 -9 115 -14 34 -25 79 -25 103 0 47 34 137 68 186 l22 30 -55 31 c-30 17 -55 36 -55 41 0 6 15 19 33 29 74 44 90 89 61 171 -10 27 -20 49 -23 49 -4 -1 -51 -18 -106 -38z m1675 -3127 c0 -28 -143 -159 -224 -207 -99 -58 -193 -94 -208 -79 -16 16 -3 28 70 62 78 37 238 141 302 199 50 45 60 49 60 25z m-1067 -156 l6 -46 -62 -40 c-34 -23 -75 -46 -90 -51 l-28 -11 19 27 c11 16 35 42 52 58 18 17 45 49 62 73 16 24 31 42 33 40 1 -2 5 -24 8 -50z m816 -224 c17 -14 31 -30 31 -35 0 -20 -32 -21 -53 -1 -12 11 -34 25 -49 31 -39 14 -35 31 6 31 22 0 45 -9 65 -26z m-150 -449 c26 -70 36 -152 22 -187 -18 -47 -39 -25 -46 50 -4 37 -13 93 -19 124 -9 38 -10 60 -3 67 15 15 24 6 46 -54z m-132 -174 c-8 -97 -57 -253 -100 -317 -61 -91 -80 -59 -21 36 47 76 92 207 100 292 10 98 29 88 21 -11z" id="28"/>
<path d="M2802 5698 c-27 -13 -46 -76 -37 -121 15 -73 89 -148 145 -146 36 0 205 55 203 65 -1 5 -4 26 -7 47 -7 44 -16 46 -37 9 -19 -34 -74 -62 -122 -62 -40 0 -96 34 -115 70 -13 26 -12 101 2 133 9 19 1 21 -32 5z" id="29"/>
<path d="M2903 5688 c-31 -34 -37 -65 -18 -94 37 -56 112 -47 134 17 17 49 14 57 -29 79 -50 25 -62 25 -87 -2z" id="30"/>
<path d="M875 5555 c3 -71 5 -206 5 -300 l0 -170 41 90 c76 170 75 261 -7 422 l-44 88 5 -130z" id="31"/>
<path d="M5855 5491 c-6 -5 -46 -28 -91 -50 -44 -23 -91 -52 -104 -66 -22 -23 -22 -26 -6 -44 9 -10 28 -56 42 -102 50 -165 113 -248 231 -307 101 -51 98 -52 99 26 0 37 2 93 5 125 l4 57 -54 50 c-46 42 -52 52 -41 65 16 19 72 19 125 0 21 -8 41 -12 44 -10 2 3 -1 23 -8 46 -16 52 -87 130 -165 181 -64 41 -67 42 -81 29z" id="32"/>
<path d="M5489 5127 c-9 -7 -21 -35 -28 -64 -17 -69 -67 -150 -117 -188 -22 -17 -83 -46 -135 -64 -236 -81 -477 -243 -639 -430 -52 -61 -53 -64 -35 -78 19 -13 21 -12 29 17 17 57 89 125 180 170 47 22 104 56 128 74 134 102 256 149 393 148 54 0 110 -6 140 -16 61 -19 65 -20 65 -2 0 8 11 23 25 34 17 14 25 30 25 51 0 46 23 48 77 9 27 -19 79 -50 117 -69 86 -43 123 -79 131 -127 16 -92 46 -124 131 -137 89 -13 126 -33 194 -104 67 -71 118 -98 214 -115 l39 -7 -30 38 c-16 21 -53 72 -80 114 -55 82 -102 128 -161 158 -21 10 -65 50 -99 88 -57 64 -70 74 -170 117 -60 26 -135 67 -166 92 -73 57 -150 161 -179 242 -13 34 -25 62 -28 62 -3 0 -12 -6 -21 -13z" id="33"/>
<path d="M1388 5039 c-28 -16 -21 -41 17 -72 20 -16 52 -53 72 -83 42 -63 88 -93 183 -119 74 -20 116 -39 147 -67 31 -28 65 -20 76 18 20 71 -83 191 -229 266 -117 60 -223 83 -266 57z" id="34"/>
<path d="M1337 4933 c-4 -3 -7 -17 -7 -30 0 -18 6 -23 24 -23 47 0 126 -93 126 -149 0 -24 -31 -46 -77 -56 -43 -9 -57 -28 -50 -71 14 -87 116 -131 192 -84 42 26 47 41 33 95 -11 39 -10 47 4 61 26 26 97 11 146 -31 34 -30 42 -33 52 -20 19 23 -35 69 -106 90 -135 39 -141 43 -204 121 -77 93 -112 119 -133 97z" id="35"/>
<path d="M7730 4880 c-38 -24 -80 -60 -80 -69 0 -4 33 -5 73 -3 67 3 77 1 155 -37 86 -42 148 -51 231 -35 45 9 34 26 -32 45 -31 9 -92 38 -136 63 -98 58 -158 68 -211 36z" id="36"/>
<path d="M1320 4759 l0 -67 33 10 c17 6 38 12 45 14 18 5 15 69 -5 86 -10 9 -30 18 -45 20 l-28 5 0 -68z" id="37"/>
<path d="M7635 4763 c-46 -11 -44 -23 10 -77 42 -42 57 -66 71 -111 30 -104 5 -218 -65 -298 -32 -36 -90 -68 -183 -102 -35 -12 -48 -22 -48 -36 0 -21 42 -43 69 -35 44 13 149 17 157 5 9 -15 -22 -39 -50 -39 -24 0 -127 -80 -120 -92 11 -17 150 -8 212 13 67 22 72 31 47 80 -12 23 -13 30 -3 33 7 1 36 10 64 19 29 10 59 17 68 17 21 0 21 -38 1 -87 -8 -20 -14 -37 -13 -39 2 -1 29 -4 60 -5 55 -3 59 -1 105 42 26 24 61 54 76 66 24 19 28 27 22 52 -8 37 16 96 56 137 l29 30 -25 22 c-35 31 -32 64 10 99 l35 28 -30 60 c-16 33 -32 79 -36 101 l-6 42 -101 4 c-90 4 -113 9 -190 41 -86 36 -157 46 -222 30z" id="38"/>
<path d="M7505 4691 c-23 -11 -33 -20 -22 -20 10 -1 35 -10 56 -21 138 -70 149 -259 20 -344 -72 -48 -153 -55 -221 -20 -15 8 -28 11 -28 6 0 -9 31 -105 36 -111 2 -2 14 4 28 12 14 9 66 32 116 51 104 39 131 60 166 129 54 105 41 196 -39 283 -27 30 -54 54 -61 54 -6 0 -29 -9 -51 -19z" id="39"/>
<path d="M1621 4641 c-9 -6 -12 -19 -7 -42 4 -19 6 -47 6 -62 l0 -28 30 18 c17 10 41 28 53 41 l22 24 -33 29 c-34 30 -48 34 -71 20z" id="40"/>
<path d="M7347 4607 c-124 -115 -63 -300 94 -285 87 9 149 76 149 161 0 82 -65 148 -152 154 -49 4 -56 2 -91 -30z" id="41"/>
<path d="M8283 4545 c38 -33 35 -66 -9 -111 -29 -28 -34 -38 -23 -45 8 -5 20 -9 27 -9 6 0 21 -9 32 -20 16 -16 18 -24 10 -41 -10 -17 -4 -27 34 -70 26 -29 51 -69 58 -92 6 -23 13 -43 14 -45 1 -2 18 0 38 3 l36 7 0 194 0 193 -35 7 c-19 3 -45 14 -58 24 -13 10 -48 19 -87 23 l-65 5 28 -23z" id="42"/>
<path d="M2531 4494 c-73 -16 -112 -38 -162 -91 -47 -50 -102 -123 -94 -123 8 0 353 207 370 222 13 12 -40 8 -114 -8z" id="43"/>
<path d="M1012 4483 c47 -105 100 -163 149 -163 45 0 94 -24 166 -81 42 -34 79 -55 106 -60 56 -11 159 -11 176 0 20 13 -17 30 -174 81 -166 55 -209 77 -270 140 -27 29 -69 61 -93 71 -46 20 -66 24 -60 12z" id="44"/>
<path d="M1226 4441 l-30 -6 50 -41 c61 -51 113 -78 191 -98 34 -9 64 -16 68 -16 3 0 -20 29 -52 65 -44 50 -71 70 -111 85 -55 21 -67 22 -116 11z" id="45"/>
<path d="M8202 4258 c-14 -14 -16 -44 -3 -53 11 -6 81 25 81 37 0 9 -34 28 -52 28 -8 0 -19 -5 -26 -12z" id="46"/>
<path d="M8263 4207 c-24 -11 -43 -23 -43 -26 0 -4 14 -14 30 -23 37 -21 38 -43 3 -62 -16 -8 -39 -25 -51 -39 -23 -24 -23 -25 -5 -31 12 -4 50 8 96 29 69 32 77 38 77 64 0 22 -52 113 -63 110 -1 0 -21 -10 -44 -22z" id="47"/>
<path d="M8058 4063 c-35 -32 -65 -59 -67 -60 -7 -5 73 -72 85 -73 6 0 19 9 29 20 14 15 16 29 11 60 -4 28 -1 50 9 70 31 59 12 54 -67 -17z" id="48"/>
<path d="M7367 4104 c-13 -13 -7 -72 9 -88 19 -20 17 -20 67 5 l42 22 -40 14 c-22 7 -47 23 -55 34 -9 11 -19 17 -23 13z" id="49"/>
<path d="M8448 4093 c-9 -2 -32 -32 -51 -66 -28 -50 -36 -77 -41 -140 -4 -58 -3 -79 7 -81 6 -2 30 -8 51 -12 22 -5 41 -14 43 -21 3 -8 -11 -7 -47 4 -28 8 -52 13 -54 11 -57 -91 -76 -131 -76 -165 0 -82 -25 -134 -95 -201 -76 -71 -115 -143 -115 -211 l0 -45 28 26 c15 14 42 33 60 42 52 27 62 11 62 -94 l0 -88 78 38 c42 21 104 60 137 87 l60 49 3 437 c2 477 6 445 -50 430z" id="50"/>
<path d="M7782 4049 l11 -32 13 24 c19 34 17 39 -10 39 -24 0 -24 -2 -14 -31z" id="51"/>
<path d="M8278 4029 c-60 -28 -69 -36 -88 -80 -20 -47 -44 -148 -37 -156 5 -4 149 16 156 22 2 3 7 42 11 87 4 46 14 97 23 115 28 54 26 54 -65 12z" id="52"/>
<path d="M8095 3920 c-3 -5 -3 -15 1 -21 6 -11 23 6 24 24 0 10 -18 9 -25 -3z" id="53"/>
<path d="M6546 3837 c-84 -26 -109 -130 -49 -204 64 -80 166 -92 230 -28 55 55 44 132 -30 203 -40 39 -90 48 -151 29z" id="54"/>
<path d="M6790 3786 c0 -2 7 -20 15 -39 65 -156 -106 -298 -262 -219 -82 42 -134 140 -113 212 5 19 8 35 6 37 -9 10 -67 -72 -76 -109 -10 -34 -9 -43 3 -50 8 -4 40 -28 71 -53 69 -57 129 -84 181 -85 131 0 223 87 239 227 6 50 6 53 -23 68 -30 15 -41 18 -41 11z" id="55"/>
<path d="M8235 3785 c-5 -2 -26 -6 -47 -9 l-36 -7 -7 -97 c-8 -131 -11 -142 -51 -208 -19 -31 -32 -59 -30 -61 10 -10 116 70 136 101 11 19 23 55 26 82 11 98 15 113 44 149 17 21 30 42 30 46 0 9 -44 11 -65 4z" id="56"/>
<path d="M7035 3744 c-16 -7 -42 -13 -56 -14 l-27 0 34 -34 c19 -19 34 -44 34 -57 l0 -22 26 24 c71 66 63 135 -11 103z" id="57"/>
<path d="M6890 3638 c-6 -29 -21 -69 -34 -89 -32 -48 -111 -97 -179 -111 -99 -21 -220 27 -305 120 l-34 37 7 -65 c8 -81 31 -133 96 -222 60 -80 78 -124 79 -190 0 -47 0 -47 28 -42 25 5 34 0 60 -32 29 -35 33 -37 57 -26 39 18 68 15 108 -12 l36 -25 35 47 c19 26 57 69 85 97 46 44 51 54 51 92 0 30 -4 43 -14 43 -8 0 -17 7 -20 16 -12 30 -6 110 10 132 16 23 48 29 59 12 11 -17 30 5 53 58 23 54 40 152 25 152 -15 0 -71 -80 -78 -111 -8 -35 -40 -40 -48 -7 -3 11 -3 49 0 83 5 57 4 63 -18 79 -37 25 -47 20 -59 -36z" id="58"/>
<path d="M6276 3508 c-24 -20 -30 -34 -34 -79 -3 -46 2 -71 38 -164 23 -61 52 -118 64 -128 11 -10 39 -34 60 -54 45 -40 56 -33 56 37 0 52 -20 98 -79 190 -40 62 -67 133 -73 194 l-3 30 -29 -26z" id="59"/>
<path d="M130 3379 c-30 -16 -64 -39 -77 -51 -12 -11 -29 -18 -37 -15 -14 6 -16 -12 -16 -142 l0 -148 67 23 c162 56 298 12 389 -123 95 -144 121 -331 79 -573 -6 -35 -6 -35 61 35 74 78 145 178 193 273 31 62 32 64 25 163 -4 55 -10 102 -15 105 -4 2 -31 -9 -58 -26 -76 -47 -91 -38 -91 56 0 41 -2 74 -5 74 -3 0 -22 -8 -43 -19 -38 -19 -62 -18 -62 2 0 6 9 30 20 53 30 62 45 143 31 177 -10 26 -12 27 -95 27 -94 0 -116 12 -96 50 6 12 9 24 7 26 -3 3 -36 -10 -74 -29 -85 -43 -99 -38 -108 38 -9 66 -16 68 -95 24z" id="60"/>
<path d="M6986 3374 c-16 -43 2 -56 38 -29 20 15 20 15 0 30 -25 19 -31 18 -38 -1z" id="61"/>
<path d="M7969 3300 c-51 -27 -116 -96 -139 -148 -11 -24 -20 -45 -20 -46 0 -7 214 4 221 11 6 6 3 24 -7 49 -12 28 -15 55 -10 96 3 32 2 58 -2 58 -4 -1 -23 -9 -43 -20z" id="62"/>
<path d="M2558 3236 c-111 -121 -169 -205 -234 -341 -59 -122 -122 -300 -111 -312 7 -6 158 183 202 252 50 78 123 229 172 354 24 62 42 115 41 117 -2 1 -33 -30 -70 -70z" id="63"/>
<path d="M8076 3098 c-41 -44 -63 -75 -57 -81 5 -5 39 -12 75 -14 l66 -6 0 87 c0 47 -4 86 -9 86 -4 0 -38 -32 -75 -72z" id="64"/>
<path d="M6921 3093 c-27 -32 -49 -59 -47 -60 2 -2 22 4 46 12 23 8 60 15 82 15 22 0 38 3 36 8 -13 27 -51 82 -58 82 -5 0 -31 -26 -59 -57z" id="65"/>
<path d="M8430 3095 c-35 -29 -98 -72 -140 -94 -60 -32 -78 -48 -92 -78 -21 -46 -37 -116 -38 -163 0 -34 -52 -117 -108 -175 -42 -43 -54 -93 -27 -115 24 -20 19 -65 -9 -78 -55 -25 -59 -145 -7 -242 16 -30 48 -93 72 -139 l44 -84 1 -161 c1 -185 13 -244 75 -373 28 -58 45 -83 57 -83 23 0 42 -19 42 -41 0 -10 17 -31 37 -46 20 -15 62 -52 92 -81 30 -28 59 -52 63 -52 4 0 8 167 8 370 0 318 -2 370 -15 370 -8 0 -33 28 -56 63 -24 34 -60 82 -82 107 -46 52 -93 147 -102 205 l-7 40 112 0 c128 0 137 -5 114 -70 -20 -58 -17 -90 11 -122 l24 -28 1 563 c0 309 -1 562 -2 561 -2 0 -32 -25 -68 -54z m-134 -605 c76 0 72 -19 -26 -114 -98 -96 -110 -96 -127 -2 -7 38 -18 75 -24 82 -6 8 -8 21 -5 30 5 14 16 16 68 10 33 -3 85 -6 114 -6z" id="66"/>
<path d="M8184 2418 c9 -44 12 -45 46 -13 27 26 29 30 13 37 -10 3 -29 7 -42 7 -21 1 -23 -2 -17 -31z" id="67"/>
<path d="M7655 3039 c-95 -48 -184 -69 -325 -75 -69 -3 -107 -8 -111 -17 -4 -6 -9 -34 -10 -62 l-3 -50 71 -3 c70 -3 71 -2 139 44 62 43 76 48 140 53 39 4 78 12 87 19 24 20 100 122 95 127 -2 3 -40 -14 -83 -36z" id="68"/>
<path d="M6276 3008 c-3 -29 -9 -74 -12 -100 -8 -55 2 -72 52 -93 41 -17 51 -48 35 -110 -13 -53 -3 -83 52 -161 67 -95 138 -266 152 -369 4 -31 22 -76 47 -119 22 -38 91 -172 153 -299 97 -195 121 -237 163 -277 46 -44 51 -53 62 -118 11 -70 52 -146 83 -158 24 -9 122 43 188 99 80 69 103 75 160 47 68 -35 127 -25 241 41 l93 54 158 3 c86 2 157 5 157 7 0 13 -147 227 -222 323 -137 176 -193 316 -186 460 3 64 7 76 28 93 30 23 52 24 89 4 28 -14 29 -14 42 17 19 45 56 86 100 109 30 15 39 25 39 45 0 36 20 71 89 153 63 76 66 84 75 208 l5 71 -58 10 c-65 12 -131 37 -131 50 0 4 12 19 28 32 24 22 25 25 9 28 -28 6 -146 -17 -181 -35 -17 -9 -54 -41 -82 -71 l-51 -56 -76 -6 c-66 -6 -85 -12 -130 -42 -84 -57 -97 -62 -174 -61 l-73 2 0 -40 c0 -55 19 -174 35 -220 8 -22 10 -41 5 -44 -18 -11 -60 190 -60 288 0 23 -45 23 -117 -3 -32 -11 -65 -20 -74 -20 -22 0 -45 -97 -59 -241 -10 -100 -3 -249 10 -249 14 0 86 58 123 99 21 23 47 62 59 86 25 51 38 57 38 19 0 -70 -96 -201 -178 -243 l-40 -21 14 -62 c8 -35 18 -74 21 -88 4 -19 3 -22 -6 -14 -6 6 -19 43 -29 83 l-17 72 -45 -3 c-57 -4 -61 16 -7 40 l37 17 3 180 c3 130 9 202 22 259 18 78 18 78 -2 95 -11 9 -32 32 -47 52 -27 37 -57 53 -73 39 -4 -5 -19 -10 -33 -12 -19 -2 -29 -14 -43 -53 -34 -87 -38 -94 -32 -49 2 22 14 62 25 88 28 63 24 100 -12 104 -19 2 -30 -3 -38 -17 -18 -34 -55 -26 -91 19 -18 22 -39 40 -48 40 -9 0 -40 -16 -69 -36 -51 -36 -53 -36 -72 -19 -11 10 -20 27 -20 38 0 21 -63 87 -84 87 -8 0 -16 -20 -20 -52z m1174 -629 c0 -22 -68 -94 -134 -140 -70 -49 -171 -89 -227 -89 -16 0 -29 5 -29 10 0 6 5 10 11 10 31 0 223 106 289 159 76 62 90 69 90 50z" id="69"/>
<path d="M165 3012 c-16 -1 -60 -12 -98 -24 l-67 -22 0 -860 c0 -725 2 -857 13 -841 113 166 437 866 421 909 -7 19 -3 19 -50 1 l-39 -16 25 23 c14 13 38 33 53 45 61 47 89 345 48 506 -25 94 -53 151 -100 200 -58 62 -124 87 -206 79z" id="70"/>
<path d="M6960 2998 c-13 -5 -39 -20 -57 -34 l-33 -25 40 -46 c22 -25 40 -50 40 -54 0 -5 6 -9 13 -9 12 0 72 129 72 154 0 15 -48 24 -75 14z" id="71"/>
<path d="M7037 2932 c-15 -33 -30 -74 -33 -91 l-6 -31 48 15 c27 8 70 15 97 15 45 0 47 1 47 28 0 15 3 43 6 63 l6 36 -57 8 c-32 4 -63 9 -70 11 -7 3 -23 -20 -38 -54z" id="72"/>
<path d="M3905 2791 c-80 -13 -165 -32 -165 -37 0 -2 19 -21 42 -42 44 -40 98 -140 98 -183 0 -26 -27 -59 -49 -59 -8 0 -7 -9 4 -30 9 -17 14 -39 10 -49 -3 -9 8 -44 24 -77 43 -85 49 -128 50 -324 0 -153 -2 -181 -20 -227 -18 -45 -27 -54 -67 -71 -26 -11 -60 -24 -75 -27 -16 -4 -44 -27 -65 -53 -20 -25 -44 -51 -53 -59 -20 -18 -14 -69 6 -53 25 21 176 70 216 70 51 0 104 -27 152 -79 47 -50 76 -58 136 -41 25 8 76 16 113 18 56 3 76 -1 127 -24 l61 -27 48 45 c90 84 198 71 301 -36 28 -29 37 -33 53 -25 15 8 17 17 12 47 -11 60 -33 93 -119 177 -73 71 -83 87 -98 141 -9 33 -17 70 -17 81 0 11 -7 38 -16 59 -24 56 -16 203 14 265 12 25 22 55 22 68 0 24 34 96 49 106 7 4 6 14 -1 30 -16 35 -4 63 48 123 l47 53 -28 30 c-62 64 -291 160 -466 194 -96 19 -320 28 -394 16z m259 -155 c49 -60 86 -144 93 -210 9 -85 -13 -77 -26 10 -13 91 -47 163 -104 223 -24 24 -33 39 -21 33 11 -6 37 -31 58 -56z m49 -859 c34 -28 37 -34 25 -50 -19 -25 -45 -13 -68 33 -17 34 -17 50 -1 50 3 0 23 -15 44 -33z m-110 -31 c43 -18 100 -79 95 -102 -6 -31 -34 -28 -47 5 -16 37 -47 66 -85 78 -17 5 -32 15 -34 21 -5 16 31 15 71 -2z" id="73"/>
<path d="M3606 2705 c-79 -42 -109 -66 -333 -261 -403 -351 -517 -481 -564 -637 -11 -40 -25 -85 -30 -102 -4 -16 -11 -115 -14 -220 -8 -245 -18 -323 -65 -470 -48 -151 -63 -251 -58 -393 3 -121 11 -142 47 -122 20 10 21 17 15 69 -8 73 11 141 73 264 59 119 80 206 88 368 8 176 21 266 52 358 45 133 107 244 184 328 47 52 83 102 104 148 41 89 78 125 183 178 79 39 98 56 161 137 32 41 36 14 8 -50 -27 -63 -27 -66 4 -50 23 13 24 7 3 -25 -39 -60 21 -67 107 -14 71 45 99 52 140 35 34 -14 90 -68 136 -131 l22 -30 1 47 c0 63 -30 155 -70 213 -28 41 -31 51 -21 67 10 17 8 25 -14 54 -35 45 -27 64 25 64 25 0 40 5 40 13 -1 22 -37 91 -62 119 -21 22 -96 68 -111 68 -2 0 -25 -11 -51 -25z m-429 -413 c-9 -10 -32 -53 -52 -95 -20 -42 -37 -77 -39 -77 -2 0 0 19 5 43 10 44 74 147 92 147 5 0 3 -8 -6 -18z" id="74"/>
<path d="M4788 2472 c-33 -45 -35 -52 -23 -68 18 -24 19 -51 2 -61 -8 -4 -24 -22 -36 -39 -20 -27 -21 -34 -10 -52 12 -19 10 -25 -14 -50 -32 -34 -57 -106 -57 -166 l0 -41 25 41 c33 56 94 96 154 102 49 4 49 4 108 -57 66 -67 87 -74 129 -38 l27 23 -26 65 c-14 35 -30 84 -37 108 -16 59 -63 131 -140 213 l-65 69 -37 -49z" id="75"/>
<path d="M7890 2342 c-7 -15 -15 -60 -19 -101 -7 -82 -21 -99 -45 -54 -26 48 -70 92 -98 98 -23 6 -28 3 -34 -20 -12 -47 5 -138 41 -212 43 -92 75 -139 160 -233 94 -104 121 -147 165 -257 22 -53 43 -99 48 -102 5 -3 15 -17 21 -29 7 -13 15 -21 18 -19 2 3 -2 18 -10 34 -41 79 -50 129 -57 300 l-6 172 -39 73 c-108 203 -108 204 -113 288 -3 44 -8 82 -12 85 -4 2 -13 -8 -20 -23z" id="76"/>
<path d="M567 2226 c-37 -7 -70 -15 -73 -18 -3 -3 -27 -72 -55 -152 -87 -258 -229 -567 -373 -815 l-66 -114 0 -336 c0 -335 0 -336 20 -311 44 56 92 167 160 365 77 227 137 354 214 455 241 315 452 602 472 641 13 26 26 65 30 87 5 34 2 44 -24 73 l-29 33 -69 -19 c-38 -10 -109 -35 -159 -56 -49 -22 -96 -39 -102 -39 -25 0 -12 17 36 49 45 28 131 136 131 162 0 11 -27 10 -113 -5z" id="77"/>
<path d="M3562 2164 c-35 -24 -74 -44 -87 -44 -20 0 -25 -7 -34 -52 -27 -130 -31 -207 -15 -248 17 -43 53 -74 98 -86 27 -6 28 -8 22 -55 -6 -45 -5 -49 14 -49 11 0 32 -7 45 -16 25 -16 26 -16 66 30 23 26 55 54 71 62 l30 16 -29 18 c-65 39 -98 110 -91 194 4 53 42 142 79 187 25 31 19 64 -13 75 -27 8 -44 -10 -67 -71 -34 -89 -55 -64 -26 31 8 27 15 50 15 52 0 8 -22 -5 -78 -44z" id="78"/>
<path d="M3295 2158 c-62 -38 -76 -53 -117 -123 -27 -45 -75 -105 -111 -140 -152 -144 -237 -370 -257 -678 -15 -235 -30 -298 -106 -457 -68 -145 -83 -199 -40 -145 34 41 120 201 136 250 24 75 62 140 162 274 106 143 141 204 169 291 14 44 21 55 37 53 27 -3 117 93 147 159 20 43 25 69 25 135 0 61 7 103 27 165 31 96 38 251 12 256 -8 1 -45 -17 -84 -40z" id="79"/>
<path d="M8296 2168 c13 -44 34 -77 89 -140 31 -34 68 -83 83 -108 24 -40 27 -42 30 -21 6 40 -6 68 -52 114 -47 49 -63 97 -46 141 5 15 10 29 10 32 0 2 -27 4 -61 4 -58 0 -60 -1 -53 -22z" id="80"/>
<path d="M5142 2120 c3 -8 14 -34 23 -58 18 -45 10 -72 -22 -72 -11 0 -13 -5 -8 -17 4 -10 11 -37 16 -61 5 -23 13 -50 18 -60 5 -9 11 -33 13 -52 3 -33 1 -35 -23 -32 -26 2 -26 2 -17 -46 4 -27 14 -72 21 -99 19 -73 136 -249 226 -340 73 -74 80 -85 125 -198 53 -133 113 -253 208 -412 62 -104 121 -183 131 -173 3 3 -3 37 -13 76 -10 40 -26 132 -35 205 -18 151 -37 244 -71 339 -12 36 -45 138 -73 227 -73 229 -120 318 -230 434 -48 52 -106 122 -128 156 -41 62 -171 211 -161 183z m248 -537 c42 -27 91 -77 106 -106 26 -49 10 -49 -26 0 -19 26 -54 61 -77 78 -56 40 -59 66 -3 28z m160 -115 c17 -35 30 -79 29 -98 0 -31 -2 -29 -18 25 -9 33 -25 74 -34 92 -18 34 -20 43 -12 43 3 0 19 -28 35 -62z" id="81"/>
<path d="M4865 2084 c15 -38 17 -54 7 -54 -6 0 -14 9 -17 21 -8 25 -45 41 -62 27 -18 -14 -17 -17 21 -76 19 -29 37 -72 40 -95 9 -57 -16 -135 -60 -193 l-36 -47 29 -23 c38 -31 63 -30 109 6 24 20 47 30 63 28 25 -3 26 -1 26 47 0 49 1 50 30 50 17 -1 40 -4 53 -9 22 -7 23 -5 20 31 -3 34 -1 38 20 37 20 -1 22 3 17 25 -4 14 -14 44 -24 66 -15 35 -24 42 -67 53 -35 10 -60 25 -89 56 -22 24 -51 49 -64 56 -22 11 -23 11 -16 -6z" id="82"/>
<path d="M3754 2050 c-35 -53 -54 -127 -44 -171 l8 -34 1 36 c1 46 38 100 76 112 17 5 31 11 33 12 4 4 -37 85 -43 85 -3 0 -17 -18 -31 -40z" id="83"/>
<path d="M4706 1984 c-11 -30 -6 -44 17 -44 27 -1 50 -17 66 -48 21 -39 25 -16 7 33 -24 63 -76 97 -90 59z" id="84"/>
<path d="M3785 1935 c-26 -25 -31 -71 -16 -139 8 -36 43 -52 64 -28 22 25 36 87 30 130 -10 67 -37 79 -78 37z" id="85"/>
<path d="M4697 1903 c-11 -10 -7 -105 6 -142 25 -71 59 -36 61 62 1 47 -3 61 -18 73 -21 15 -39 18 -49 7z" id="86"/>
<path d="M3413 1733 c-7 -3 -13 -10 -13 -16 0 -7 -18 -41 -40 -77 -42 -68 -51 -110 -25 -110 21 0 19 -6 -16 -68 -22 -39 -27 -58 -20 -65 17 -17 13 -42 -9 -62 -24 -22 -26 -41 -4 -49 11 -4 15 -16 13 -41 -2 -19 2 -40 9 -47 6 -6 12 -18 12 -25 0 -7 6 -23 13 -36 6 -12 12 -23 12 -24 1 -1 19 3 42 8 45 12 61 35 73 108 l7 43 -43 -6 c-25 -3 -44 -2 -44 4 0 5 23 12 50 16 28 4 50 10 50 13 0 4 15 33 34 64 21 35 32 64 29 77 -3 11 0 26 6 33 8 11 -4 21 -59 48 -77 37 -93 56 -29 34 69 -25 119 -18 119 16 0 16 -8 19 -46 19 l-47 0 6 50 c3 28 2 50 -3 50 -5 0 -21 11 -37 24 -15 12 -34 21 -40 19z" id="87"/>
<path d="M5034 1704 c11 -41 -11 -94 -38 -94 -12 0 -26 4 -32 10 -6 6 -23 -3 -49 -24 l-39 -33 13 -44 c22 -74 37 -91 75 -83 32 5 33 5 28 -21 -3 -16 -17 -35 -34 -45 -30 -18 -30 -18 -9 -29 30 -16 26 -38 -9 -56 -28 -15 -30 -18 -24 -58 4 -23 8 -43 9 -45 2 -2 36 -11 76 -22 41 -10 83 -21 95 -25 18 -6 22 -2 28 25 5 28 9 32 31 28 24 -5 25 -4 25 53 0 49 3 59 20 64 25 8 25 19 -1 75 -38 83 -68 169 -80 232 -9 47 -20 70 -42 91 -37 34 -51 35 -43 1z" id="88"/>
<path d="M3742 1501 c-35 -15 -68 -33 -74 -39 -7 -7 10 -31 61 -82 39 -39 71 -77 71 -84 0 -8 -36 23 -80 67 l-81 80 -25 -24 c-28 -26 -79 -107 -72 -114 2 -3 21 7 41 20 41 28 47 30 47 12 0 -7 -9 -18 -21 -25 -26 -17 -22 -21 33 -33 74 -17 158 -60 158 -80 0 -12 -7 -19 -20 -19 -13 0 -20 7 -20 19 0 25 -95 63 -160 65 -43 1 -46 -1 -77 -48 -41 -61 -43 -79 -5 -70 15 3 46 15 69 27 44 22 65 18 43 -8 -11 -13 -3 -15 66 -15 44 0 86 -5 94 -11 11 -8 -11 -9 -79 -6 -111 5 -125 3 -139 -28 -13 -27 -26 -95 -19 -95 2 0 25 9 51 21 63 28 189 54 194 40 2 -6 12 -11 23 -11 12 0 19 -7 19 -20 0 -13 -7 -20 -20 -20 -13 0 -20 7 -20 20 0 12 -7 20 -17 20 -36 0 -145 -31 -185 -51 l-42 -21 23 -19 c120 -97 268 -149 427 -149 100 0 141 15 177 62 64 84 39 179 -63 237 -77 45 -119 89 -126 132 -5 29 0 42 32 83 28 38 34 51 23 54 -14 5 -44 36 -105 106 -29 33 -35 36 -85 36 -37 0 -74 -9 -117 -29z m258 -451 c0 -5 -7 -10 -15 -10 -8 0 -15 5 -15 10 0 6 7 10 15 10 8 0 15 -4 15 -10z m-54 -81 c10 -17 -13 -36 -27 -22 -12 12 -4 33 11 33 5 0 12 -5 16 -11z" id="89"/>
<path d="M3257 1474 c-9 -17 -33 -46 -54 -65 -33 -30 -118 -177 -108 -187 5 -5 88 52 104 72 7 8 11 21 8 28 -3 7 13 46 35 86 21 40 37 79 35 85 -2 7 -11 -2 -20 -19z" id="90"/>
<path d="M4559 1465 c-14 -8 -38 -30 -53 -49 l-26 -35 25 -37 c14 -20 30 -54 37 -75 10 -35 9 -42 -15 -78 -41 -61 -76 -89 -131 -102 -70 -17 -91 -32 -111 -85 -28 -74 -23 -113 20 -152 l38 -35 91 6 c88 5 226 40 226 58 0 9 -69 58 -117 83 -29 14 -33 15 -33 1 0 -8 -4 -15 -10 -15 -14 0 -13 18 3 34 10 12 19 10 52 -6 22 -11 59 -36 83 -55 49 -40 63 -38 112 13 29 29 32 36 20 44 -22 14 -108 40 -157 47 -24 3 -43 10 -43 15 0 12 65 2 145 -23 33 -10 64 -19 68 -19 4 0 5 16 1 35 -5 27 -3 35 9 35 8 0 20 -7 27 -15 19 -23 30 -1 30 59 l0 49 -77 -6 c-43 -3 -105 -15 -138 -26 -68 -25 -99 -21 -41 4 49 21 159 45 209 45 20 0 37 4 37 9 0 4 -11 24 -25 44 -29 44 -15 60 22 26 l25 -24 -7 25 c-4 14 -16 42 -27 63 -22 44 -21 44 -124 -34 -36 -27 -68 -48 -70 -46 -7 6 60 64 114 100 l53 35 -33 31 c-68 64 -152 87 -209 56z m161 -370 c0 -8 -4 -15 -10 -15 -5 0 -10 7 -10 15 0 8 5 15 10 15 6 0 10 -7 10 -15z m-164 -6 c10 -17 -13 -36 -27 -22 -12 12 -4 33 11 33 5 0 12 -5 16 -11z m-130 -60 c10 -17 -13 -36 -27 -22 -12 12 -4 33 11 33 5 0 12 -5 16 -11z m214 -33 c0 -8 -5 -18 -11 -22 -14 -8 -33 11 -25 25 10 16 36 13 36 -3z" id="91"/>
<path d="M4190 1411 c-72 -22 -164 -106 -158 -145 2 -17 9 -21 36 -18 46 3 93 -22 128 -68 27 -36 61 -60 85 -60 6 0 34 22 62 49 67 63 91 75 117 61 28 -15 36 9 16 48 -56 109 -178 165 -286 133z" id="92"/>
<path d="M7743 1390 c-24 -10 -63 -33 -88 -50 -98 -68 -185 -87 -258 -57 -38 16 -50 13 -101 -26 -38 -30 -38 -31 -15 -39 13 -5 69 -12 125 -15 118 -7 156 3 268 69 39 23 112 63 161 90 l90 47 -70 0 c-48 1 -83 -6 -112 -19z" id="93"/>
<path d="M4850 1374 c0 -10 42 -65 46 -61 7 6 -27 67 -37 67 -5 0 -9 -3 -9 -6z" id="94"/>
<path d="M7965 1346 c-22 -7 -112 -50 -200 -95 -200 -103 -247 -114 -398 -88 -122 20 -159 21 -210 3 -34 -11 -36 -14 -22 -26 9 -8 56 -73 103 -144 106 -161 170 -246 184 -246 14 0 219 76 273 101 62 29 121 98 166 193 21 45 48 91 61 102 33 30 100 66 201 109 48 21 87 39 87 41 0 3 -14 17 -32 33 -29 26 -39 29 -103 29 -38 0 -88 -5 -110 -12z" id="95"/>
<path d="M5286 1228 c4 -51 2 -70 -14 -100 l-20 -38 68 -46 c62 -42 90 -75 90 -107 0 -38 27 -95 62 -133 34 -37 166 -134 182 -134 3 0 -25 60 -63 133 -38 72 -84 168 -102 212 -47 116 -81 166 -166 240 l-42 37 5 -64z" id="96"/>
<path d="M3180 1221 c-25 -15 -70 -42 -101 -60 -89 -53 -145 -151 -156 -275 -6 -58 -6 -58 18 -51 13 4 26 7 29 7 59 1 80 -27 80 -105 0 -59 2 -65 25 -75 16 -7 33 -30 46 -58 21 -50 72 -117 150 -199 27 -27 74 -88 106 -135 65 -95 137 -158 257 -226 l78 -44 417 0 416 1 61 57 c79 73 137 146 209 263 32 52 59 96 61 98 2 2 12 -3 22 -12 10 -10 21 -17 24 -17 3 0 20 35 38 78 19 42 37 81 42 86 5 6 20 -2 37 -18 l30 -29 5 24 c9 39 25 232 21 239 -3 4 -28 26 -58 48 -50 39 -55 41 -90 31 -20 -5 -39 -15 -43 -20 -3 -6 -32 -23 -64 -38 -48 -23 -56 -30 -48 -45 5 -9 7 -22 5 -29 -2 -7 -9 -1 -16 13 l-12 25 -152 -1 c-169 -1 -162 2 -294 -84 -88 -58 -119 -62 -184 -25 -122 70 -207 103 -319 125 -146 28 -202 48 -295 104 l-75 45 -33 -29 c-19 -16 -46 -47 -62 -70 -26 -38 -45 -51 -45 -31 0 4 27 37 60 73 l59 66 -55 36 c-31 21 -63 51 -72 67 -10 16 -21 29 -25 29 -16 0 -84 -39 -145 -85 -35 -25 -67 -44 -70 -41 -3 4 3 13 14 22 39 32 166 113 184 119 20 6 28 35 10 35 -5 0 -10 13 -10 29 0 17 -4 33 -10 36 -5 3 -9 20 -7 37 3 41 -9 43 -63 9z m911 -758 c67 -60 92 -121 97 -233 4 -93 -7 -150 -28 -150 -6 0 -10 41 -10 108 0 141 -17 199 -77 263 -54 57 -41 66 18 12z m248 -30 c-18 -21 -45 -66 -61 -100 -30 -66 -48 -80 -48 -37 0 40 28 89 76 134 55 50 77 52 33 3z" id="97"/>
<path d="M8205 1224 c-69 -12 -161 -41 -207 -64 -47 -25 -78 -65 -104 -134 -62 -163 -107 -201 -324 -271 -63 -20 -117 -39 -119 -41 -3 -2 10 -19 28 -38 l32 -33 117 44 c64 24 154 65 200 90 68 39 82 50 80 69 -4 34 97 150 148 170 33 13 48 27 75 76 40 71 73 97 135 106 44 7 45 8 28 23 -17 14 -27 15 -89 3z" id="98"/>
<path d="M4911 1113 c-23 -87 -31 -106 -48 -125 -9 -10 -14 -20 -12 -22 2 -2 25 -15 50 -30 72 -41 104 -35 145 29 22 34 68 144 63 149 -4 4 -169 46 -179 46 -3 0 -12 -21 -19 -47z" id="99"/>
<path d="M3485 1119 c-4 -5 1 -19 11 -30 18 -20 18 -20 31 3 7 13 12 26 13 31 0 11 -48 8 -55 -4z" id="100"/>
<path d="M8214 1109 c-10 -11 -30 -42 -44 -67 -20 -37 -36 -52 -80 -73 -30 -15 -70 -43 -89 -63 -30 -31 -33 -38 -23 -60 13 -29 7 -35 -84 -89 -78 -47 -182 -94 -267 -122 -37 -12 -68 -25 -68 -29 0 -9 270 -266 280 -266 18 0 87 87 173 220 52 80 101 150 109 157 8 6 39 21 70 32 64 24 98 57 164 159 26 40 63 84 81 99 19 14 34 28 34 32 -1 9 -81 58 -124 76 -52 22 -109 19 -132 -6z" id="101"/>
<path d="M3363 1098 c-18 -6 -33 -16 -33 -21 0 -14 79 -89 113 -106 42 -22 56 -2 31 45 -10 20 -26 49 -34 65 -16 31 -27 33 -77 17z" id="102"/>
<path d="M5136 1034 c-22 -54 -18 -79 30 -187 45 -98 54 -163 35 -237 -11 -43 -11 -66 -3 -109 9 -42 9 -59 -2 -79 l-13 -25 -17 48 c-11 33 -16 83 -16 157 0 59 -4 108 -9 108 -5 0 -12 -39 -15 -87 -12 -158 -31 -190 -87 -144 l-24 19 -30 -85 c-33 -94 -52 -116 -85 -95 -28 17 -27 17 -54 -36 -32 -64 -95 -143 -174 -219 l-65 -63 386 0 386 0 -14 39 c-20 56 -32 79 -76 137 l-39 51 0 99 c1 54 5 119 9 143 7 34 4 55 -11 100 -20 55 -20 58 -3 161 17 106 17 106 -5 143 -17 29 -21 49 -19 99 4 71 -5 92 -41 101 -22 5 -27 1 -44 -39z" id="103"/>
<path d="M8463 965 c-12 -9 -47 -52 -76 -98 -30 -45 -65 -92 -79 -104 -27 -25 -88 -53 -116 -53 -35 0 -66 -37 -156 -184 -50 -80 -107 -164 -127 -185 l-38 -39 25 -23 c13 -12 26 -21 28 -18 2 2 15 29 29 59 82 188 191 293 372 361 30 11 82 38 115 60 l60 41 0 99 c0 54 -3 99 -8 99 -4 0 -17 -7 -29 -15z" id="104"/>
<path d="M3496 952 c-3 -6 1 -13 10 -16 23 -9 28 -2 10 13 -8 7 -17 8 -20 3z" id="105"/>
<path d="M4817 921 c-9 -16 -33 -39 -53 -51 -19 -12 -33 -27 -31 -34 8 -21 66 -8 127 30 l61 38 -38 23 c-21 12 -40 23 -43 23 -3 0 -13 -13 -23 -29z" id="106"/>
<path d="M5038 886 l-27 -24 45 -37 c25 -21 48 -34 51 -31 7 7 -28 116 -37 116 -3 0 -17 -11 -32 -24z" id="107"/>
<path d="M2807 761 c-36 -73 -50 -115 -54 -158 -7 -71 -2 -74 101 -66 37 3 66 2 66 -3 0 -5 -30 -39 -66 -74 -56 -56 -154 -185 -154 -204 0 -3 21 8 47 24 55 35 74 37 98 10 17 -19 17 -22 -4 -85 -22 -68 -27 -105 -13 -105 5 0 45 14 91 30 107 39 116 35 116 -57 l0 -68 274 -3 274 -2 -59 43 c-76 56 -151 139 -188 208 -37 69 -52 88 -141 180 -40 42 -85 99 -99 126 -16 32 -38 58 -61 71 -34 21 -41 37 -36 87 3 32 -8 65 -23 65 -7 0 -25 -9 -39 -20 -29 -23 -55 -26 -63 -6 -3 8 -8 34 -12 59 l-7 46 -48 -98z" id="108"/>
<path d="M4655 815 c-33 -15 -17 -19 34 -9 17 4 31 10 31 15 0 13 -30 10 -65 -6z" id="109"/>
<path d="M4142 753 c-30 -6 -24 -22 18 -50 45 -31 85 -29 150 9 47 27 52 32 35 39 -21 8 -164 9 -203 2z" id="110"/>
<path d="M8464 665 c-10 -8 -64 -29 -119 -46 -55 -18 -121 -42 -146 -55 -64 -32 -166 -145 -217 -243 l-44 -82 48 -42 c74 -65 151 -124 214 -162 57 -35 58 -35 179 -35 l121 0 0 340 c0 187 -4 340 -8 340 -5 0 -17 -7 -28 -15z" id="111"/>
<path d="M2447 569 c-9 -19 -21 -67 -28 -105 -13 -79 -28 -112 -75 -170 -52 -63 -64 -102 -64 -204 l0 -90 341 0 c307 0 341 2 335 16 -3 9 -6 27 -6 40 0 31 -14 30 -79 -3 -40 -19 -58 -24 -70 -16 -26 16 -36 77 -23 140 6 31 10 59 7 61 -8 8 -63 -42 -115 -105 -28 -35 -56 -63 -62 -63 -7 0 -9 20 -5 57 8 78 61 181 142 276 l66 77 -35 0 c-47 0 -70 24 -63 67 3 18 4 33 2 33 -2 0 -19 -28 -39 -63 -30 -55 -41 -65 -76 -76 -32 -10 -46 -9 -68 1 -26 13 -35 31 -60 128 l-9 35 -16 -36z" id="112"/>
</g>
</svg>