<?xml version="1.0" ?><!DOCTYPE svg  PUBLIC '-//W3C//DTD SVG 20010904//EN'  'http://www.w3.org/TR/2001/REC-SVG-20010904/DTD/svg10.dtd'><svg height="850.000000pt" preserveAspectRatio="xMidYMid meet" version="1.0" viewBox="0 0 850.000000 850.000000" width="850.000000pt" xmlns="http://www.w3.org/2000/svg">
<metadata>
Created by potrace 1.14, written by Peter Selinger 2001-2017
</metadata>
<g fill="#ffffff" stroke="none" transform="translate(0.000000,850.000000) scale(0.100000,-0.100000)">
<path d="M0 5628 l0 -2873 103 0 c96 0 106 -2 172 -34 173 -85 300 -296 226 -375 -42 -45 -103 -61 -226 -60 -118 1 -169 14 -237 60 l-38 24 0 -1185 0 -1185 2721 0 2721 0 -69 68 c-133 130 -203 273 -211 429 -8 173 45 321 161 448 l64 69 52 -12 c84 -19 251 -89 311 -130 65 -44 126 -136 161 -245 34 -102 34 -270 0 -377 -24 -77 -69 -174 -103 -223 l-19 -27 1355 0 1356 0 0 1720 0 1719 -47 -50 c-57 -61 -172 -139 -250 -170 -52 -21 -75 -23 -224 -24 l-165 0 -85 42 c-84 41 -165 103 -216 163 l-26 32 -101 -2 c-56 -1 -428 -2 -828 -1 l-728 1 0 140 0 140 850 0 850 0 57 44 c161 121 374 178 549 146 90 -17 266 -74 321 -104 l43 -25 0 2365 0 2364 -2082 0 -2083 0 3 -110 c4 -134 -16 -215 -78 -308 -56 -83 -172 -172 -225 -172 -29 0 -114 50 -184 108 -88 74 -115 106 -149 179 -25 53 -27 68 -27 181 l0 122 -1837 0 -1838 0 0 -2872z m6832 2602 c27 -27 30 -36 25 -72 -8 -57 -36 -83 -93 -83 -38 0 -50 5 -70 28 -34 40 -32 90 5 128 41 41 91 40 133 -1z m-3669 -184 c67 -27 148 -155 181 -283 18 -69 21 -225 5 -293 -28 -123 -141 -271 -252 -330 l-47 -25 -74 74 c-118 117 -166 237 -166 416 0 157 41 274 127 366 75 81 152 106 226 75z m-1167 -91 c173 -77 227 -303 109 -458 -25 -32 -55 -55 -102 -79 -57 -28 -77 -32 -137 -32 -114 2 -206 56 -261 155 -27 49 -30 63 -30 144 0 69 4 98 19 125 34 63 74 106 125 133 93 51 182 55 277 12z m3416 -186 c40 -29 58 -69 58 -129 0 -45 -4 -55 -37 -91 -106 -112 -293 -13 -252 134 28 104 145 147 231 86z m-887 -89 c259 -81 388 -277 373 -567 -3 -60 -11 -101 -21 -116 -17 -27 -132 -74 -204 -84 -24 -3 -43 -8 -42 -12 0 -3 36 -23 80 -44 48 -23 103 -60 140 -95 71 -65 71 -68 14 -185 -102 -208 -266 -341 -475 -383 -81 -16 -203 -15 -269 3 l-23 6 6 -259 c3 -142 9 -336 12 -430 l6 -172 73 -11 c84 -12 158 -39 230 -83 127 -77 189 -152 232 -283 23 -69 26 -98 27 -207 1 -78 5 -128 11 -128 6 0 51 -5 100 -10 116 -13 207 -36 269 -67 l49 -25 -7 -74 c-6 -82 -43 -202 -84 -277 -39 -72 -140 -186 -210 -237 l-62 -45 32 -11 c111 -38 255 -131 350 -226 163 -163 288 -473 288 -712 0 -193 -79 -438 -198 -612 -123 -183 -352 -321 -608 -370 -98 -18 -295 -24 -416 -11 l-78 8 30 -48 c33 -53 60 -147 60 -205 0 -21 2 -38 4 -38 3 0 44 13 93 29 229 76 475 66 632 -26 100 -58 201 -181 201 -245 0 -45 -41 -122 -115 -216 -94 -119 -186 -172 -356 -208 -46 -10 -86 -19 -88 -20 -2 -2 13 -34 32 -72 51 -96 69 -183 65 -306 l-3 -101 -40 -15 c-27 -9 -83 -14 -175 -15 -115 0 -145 3 -204 23 -156 52 -290 147 -361 255 -9 15 -21 27 -26 27 -21 0 -147 -86 -184 -126 -35 -37 -322 -230 -415 -279 -54 -29 -151 -25 -222 9 -78 37 -172 138 -193 208 -30 102 -13 193 48 260 33 35 428 239 485 249 44 9 392 185 392 199 0 4 -21 10 -47 14 -155 21 -324 157 -364 290 -7 25 -17 46 -22 46 -5 0 -29 -14 -53 -31 -69 -47 -189 -99 -244 -106 -134 -16 -255 113 -310 331 -46 180 -14 373 90 540 24 40 24 40 -45 51 -63 10 -175 58 -239 100 -103 68 -176 192 -198 335 -6 36 -15 74 -20 85 -9 16 -2 27 52 78 137 129 301 197 473 197 123 -1 269 -52 353 -124 l42 -36 7 68 c16 152 87 300 217 452 138 162 263 246 453 306 l30 9 3 218 2 218 23 -3 c21 -3 22 0 25 109 l3 112 -35 45 c-65 85 -96 174 -121 339 l-6 37 -159 0 -160 0 0 158 c0 241 -33 1428 -46 1654 l-6 107 36 6 36 7 0 304 0 304 103 0 c56 0 139 3 185 7 l82 6 0 38 c0 35 4 41 38 58 44 23 161 59 229 71 82 15 259 5 338 -20z m2483 -106 c87 -43 142 -132 142 -229 0 -23 -7 -62 -15 -86 -77 -226 -413 -226 -490 0 -59 172 62 341 245 341 51 0 78 -6 118 -26z m-792 -126 c55 -27 66 -37 93 -88 46 -86 233 -649 226 -680 -9 -38 -61 -86 -154 -143 -45 -28 -78 -53 -72 -55 13 -4 33 -47 66 -144 27 -76 26 -77 -53 -160 -41 -43 -58 -52 -166 -87 -219 -73 -249 -78 -353 -66 -51 5 -96 15 -102 20 -8 9 -44 120 -58 183 -6 26 -4 26 -112 6 -115 -22 -243 -16 -270 11 -11 11 -79 170 -151 354 -155 396 -154 391 -81 496 l48 70 144 61 c335 143 771 270 883 258 27 -3 77 -19 112 -36z m-4965 -185 c146 -68 197 -155 214 -364 7 -100 3 -104 -124 -104 -82 0 -104 4 -151 26 -82 39 -144 99 -184 179 -39 79 -61 190 -51 257 l7 45 112 -4 c99 -4 119 -8 177 -35z m1252 -8 c122 -26 248 -96 289 -163 57 -92 -52 -284 -206 -361 -86 -43 -166 -61 -274 -61 -168 0 -297 47 -366 133 -30 37 -30 38 -18 95 17 80 75 193 121 235 55 49 121 86 204 113 84 27 154 29 250 9z m5552 -6 c80 -15 134 -44 249 -135 83 -65 97 -80 91 -98 -4 -11 -12 -52 -17 -91 -17 -112 -26 -139 -70 -205 -100 -150 -331 -254 -521 -235 -147 14 -314 88 -453 200 l-75 60 5 51 c17 192 273 410 534 454 71 12 191 11 257 -1z m-5165 -719 c295 -9 416 -20 464 -41 49 -22 51 -58 51 -734 0 -652 -2 -678 -46 -766 -23 -47 -69 -85 -117 -99 -20 -5 -109 -10 -197 -10 -88 0 -177 -5 -197 -10 -44 -13 -78 -52 -78 -91 l0 -29 90 0 c85 0 90 -1 95 -22 3 -13 4 -108 3 -213 l-3 -190 -450 0 -450 0 0 210 0 210 103 3 102 3 0 28 c0 49 -21 91 -53 107 -24 13 -71 17 -241 18 -116 1 -220 6 -231 10 -20 7 -21 0 -38 -166 -37 -369 -39 -445 -33 -1313 3 -467 9 -943 12 -1057 l7 -207 -32 -32 c-30 -30 -35 -31 -97 -27 -53 3 -69 9 -90 29 l-25 26 -30 1149 c-24 933 -33 1179 -49 1307 -23 194 -45 298 -73 357 -15 32 -22 64 -22 110 0 95 42 177 139 267 l74 69 4 505 c3 443 6 508 20 535 32 59 32 59 518 64 245 3 474 6 510 7 36 1 198 -2 360 -7z m3925 -181 c206 -38 402 -247 478 -510 50 -170 60 -404 23 -522 -24 -76 -74 -162 -105 -180 -16 -9 -44 -17 -63 -17 -84 0 -284 76 -379 145 -27 19 -51 35 -54 35 -3 0 -6 -339 -7 -752 l-3 -753 -669 -3 c-369 -1 -673 1 -678 6 -13 13 -22 1663 -10 1757 17 126 -38 115 589 115 l535 0 -6 24 c-3 14 -11 69 -16 122 -26 249 47 498 155 530 51 16 136 17 210 3z m-5880 -364 c153 -39 270 -135 344 -283 22 -45 41 -88 41 -95 0 -27 -83 -142 -149 -207 l-66 -65 -5 -1350 -5 -1350 -29 -180 c-15 -99 -29 -182 -31 -184 -2 -1 -6 12 -9 30 -66 415 -61 345 -60 829 0 245 1 762 3 1150 1 388 -1 767 -5 843 -6 135 -7 138 -28 132 -11 -4 -76 -9 -143 -12 -150 -7 -238 11 -355 69 -141 71 -260 218 -244 302 10 50 74 143 145 208 148 138 413 210 596 163z m3564 -70 c71 -36 44 -145 -37 -145 -75 0 -110 83 -57 135 28 29 54 31 94 10z m3722 -254 c24 -24 29 -38 29 -76 0 -38 -5 -52 -29 -76 -24 -24 -38 -29 -76 -29 -38 0 -52 5 -76 29 -24 24 -29 38 -29 76 0 38 5 52 29 76 24 24 38 29 76 29 38 0 52 -5 76 -29z m-326 -781 c13 -5 30 -34 49 -81 55 -141 45 -293 -31 -449 -48 -99 -176 -229 -278 -282 -110 -57 -230 -89 -367 -95 l-116 -6 -25 49 c-39 77 -57 151 -57 236 0 98 12 151 60 253 85 183 235 320 400 365 96 26 306 32 365 10z m-5275 -734 c25 -9 62 -28 83 -42 l37 -24 0 -98 c0 -175 -46 -298 -152 -408 -145 -151 -363 -199 -584 -130 -44 14 -101 40 -129 57 -27 17 -52 30 -55 28 -13 -10 -9 146 5 212 23 111 64 186 143 261 69 65 196 139 268 157 64 16 331 7 384 -13z m-2145 -127 c59 -16 113 -57 143 -108 22 -38 27 -58 27 -116 0 -58 -5 -78 -27 -116 -120 -204 -431 -120 -431 116 0 155 141 264 288 224z m5395 -771 c115 -58 123 -203 17 -282 -21 -16 -43 -21 -87 -21 -66 0 -99 18 -137 75 -32 46 -32 124 0 171 24 37 97 79 137 79 14 0 46 -10 70 -22z m1546 -29 c68 -17 130 -99 160 -214 18 -67 18 -227 -1 -300 -43 -168 -160 -317 -305 -389 -80 -39 -211 -69 -258 -60 -27 6 -30 2 -75 -91 -34 -70 -64 -114 -107 -159 l-60 -63 77 -13 c187 -30 423 -150 423 -215 0 -35 -93 -167 -158 -225 -150 -135 -371 -212 -557 -194 -155 14 -357 84 -444 153 -21 17 -59 55 -85 85 -54 63 -54 62 16 151 53 68 138 137 217 176 36 18 67 34 69 35 2 1 -23 28 -56 60 -134 135 -244 350 -273 534 -20 130 23 332 94 443 39 61 202 218 265 254 37 22 52 25 102 20 35 -3 83 -17 122 -35 64 -31 176 -111 212 -151 26 -29 37 -26 70 19 37 49 91 93 155 125 108 54 294 80 397 54z m652 -708 c165 -85 142 -326 -36 -377 -70 -21 -134 -6 -190 42 -106 91 -89 262 33 331 52 29 140 31 193 4z m-5670 -46 c76 -32 112 -86 112 -168 0 -158 -192 -232 -302 -116 -83 87 -54 230 56 280 50 23 85 24 134 4z m-98 -528 c78 -32 144 -80 220 -157 119 -122 163 -243 163 -450 1 -228 -48 -336 -240 -533 l-75 -77 -57 6 c-103 10 -234 87 -342 200 -93 98 -140 199 -160 343 -20 141 25 333 106 455 70 106 238 235 305 235 14 1 50 -10 80 -22z m-1167 -113 c26 -10 69 -35 95 -54 l47 -36 0 -80 c-1 -64 -6 -90 -27 -136 -51 -109 -154 -193 -287 -232 -72 -21 -230 -21 -302 0 -77 23 -146 60 -154 83 -3 10 -1 63 4 118 11 119 37 178 104 240 53 49 110 80 192 105 79 24 257 19 328 -8z m6939 -651 c80 -40 79 -186 -2 -228 -64 -33 -156 -11 -185 45 -31 60 -11 155 37 181 55 30 95 30 150 2z m-1447 -90 c95 -32 175 -143 175 -243 0 -50 -30 -126 -66 -168 -96 -112 -269 -122 -373 -22 -54 52 -73 92 -79 166 -15 192 161 330 343 267z m-5542 -334 c15 -11 32 -37 38 -58 24 -80 -51 -156 -131 -132 -50 15 -71 41 -77 95 -5 42 -3 48 30 81 28 28 43 35 75 35 25 0 49 -8 65 -21z" id="1"/>
<path d="M6717 8212 c-10 -10 -17 -32 -17 -49 0 -55 59 -81 108 -47 28 19 30 74 4 97 -25 22 -75 21 -95 -1z" id="2"/>
<path d="M3025 8011 c-16 -10 -50 -39 -73 -65 -115 -125 -150 -343 -86 -534 29 -88 57 -132 122 -196 l50 -49 6 44 c3 24 15 197 26 384 11 187 22 361 25 388 5 44 4 47 -17 47 -13 0 -36 -8 -53 -19z" id="3"/>
<path d="M3125 8018 c-3 -12 -55 -799 -55 -841 0 -16 2 -16 28 -3 46 24 118 93 155 148 105 161 113 354 20 550 -47 101 -134 187 -148 146z" id="4"/>
<path d="M1787 7946 c-136 -51 -214 -180 -187 -312 44 -213 288 -292 458 -149 51 43 82 118 82 197 0 111 -47 191 -140 242 -63 34 -155 44 -213 22z" id="5"/>
<path d="M5274 7760 c-26 -10 -62 -55 -71 -88 -9 -36 14 -99 45 -120 57 -40 116 -37 162 10 94 93 -12 248 -136 198z" id="6"/>
<path d="M4130 7660 c-41 -10 -90 -25 -109 -33 l-34 -15 24 -14 c13 -8 89 -52 169 -98 229 -131 563 -354 642 -428 21 -20 40 -33 44 -29 13 13 6 203 -10 266 -47 184 -180 309 -377 356 -89 21 -255 18 -349 -5z" id="7"/>
<path d="M3950 7561 c0 -22 6 -30 24 -35 24 -6 24 -9 28 -119 3 -104 5 -118 37 -182 67 -137 206 -243 367 -281 125 -29 276 -14 408 41 33 14 35 17 24 36 -21 34 -305 233 -534 375 -131 81 -332 194 -345 194 -5 0 -9 -13 -9 -29z" id="8"/>
<path d="M3575 7489 c-3 -8 -4 -140 -3 -294 l3 -280 90 -3 c50 -2 123 0 163 3 l73 7 -7 206 c-3 114 -9 234 -13 267 -6 57 -8 61 -44 79 -52 25 -254 36 -262 15z" id="9"/>
<path d="M3885 7480 c18 -20 21 -44 28 -239 4 -119 10 -240 13 -268 5 -48 8 -53 30 -53 l24 0 -2 288 -3 287 -55 3 -54 3 19 -21z" id="10"/>
<path d="M4003 7070 l2 -155 40 -5 c34 -4 40 -9 43 -31 l3 -27 43 24 c24 13 76 33 117 43 l73 18 -45 20 c-99 45 -189 129 -266 249 -10 15 -12 -12 -10 -136z" id="11"/>
<path d="M4280 6900 c-30 -6 -84 -25 -120 -43 l-65 -32 -3 -140 c-1 -76 0 -145 2 -152 4 -9 23 -6 78 13 121 42 365 101 513 124 184 29 185 29 185 39 0 14 -118 100 -180 131 -30 15 -80 35 -110 44 -67 20 -225 28 -300 16z" id="12"/>
<path d="M3566 6883 l-59 -4 7 -172 c18 -480 29 -873 35 -1262 l6 -430 268 -3 267 -2 0 312 c-1 172 -5 441 -10 598 -5 157 -12 436 -15 620 -4 184 -9 337 -12 340 -6 6 -404 8 -487 3z m439 -50 c15 -40 17 -246 4 -450 -17 -282 -16 -425 5 -658 18 -190 16 -294 -6 -400 -33 -162 -146 -265 -257 -235 -85 23 -127 85 -141 213 -20 171 -49 1412 -36 1500 l7 47 209 0 c189 0 208 -2 215 -17z" id="13"/>
<path d="M3601 6798 c-17 -47 19 -1440 40 -1537 19 -90 64 -138 137 -148 49 -7 89 13 136 69 79 92 101 275 72 579 -18 191 -20 352 -6 559 12 172 15 434 5 473 l-7 27 -184 0 c-182 0 -185 0 -193 -22z m259 -667 l0 -459 -67 -4 c-79 -4 -96 -1 -89 19 3 8 6 215 6 459 l0 444 75 0 75 0 0 -459z" id="14"/>
<path d="M3735 6547 c-3 -6 -4 -201 -3 -432 l3 -420 50 0 50 0 3 433 2 432 -50 0 c-31 0 -52 -5 -55 -13z" id="15"/>
<path d="M4743 6655 c-152 -24 -335 -66 -492 -113 l-156 -47 3 -130 c2 -88 6 -131 15 -137 22 -13 118 -21 201 -15 163 10 318 90 427 220 52 62 129 196 129 225 0 14 -19 14 -127 -3z" id="16"/>
<path d="M4121 5203 l1 -108 136 -225 137 -225 108 -3 107 -3 0 -62 c1 -50 3 -58 12 -43 38 66 50 258 23 374 -33 138 -94 227 -210 302 -77 50 -213 100 -272 100 l-43 0 1 -107z" id="17"/>
<path d="M4117 5010 l-6 -30 -117 0 -117 0 7 -62 c9 -78 49 -199 84 -255 26 -41 42 -54 42 -33 0 6 65 10 175 10 96 0 175 2 175 4 0 4 -228 387 -235 394 -1 1 -5 -11 -8 -28z" id="18"/>
<path d="M4035 4607 c-3 -7 -4 -71 -3 -143 l3 -129 60 0 c73 0 84 20 36 64 -40 38 -41 73 0 113 24 25 29 38 27 67 l-3 36 -58 3 c-41 2 -59 -1 -62 -11z" id="19"/>
<path d="M4190 4578 c0 -35 4 -45 22 -53 57 -25 61 -103 7 -133 -20 -11 -29 -24 -27 -37 3 -19 11 -20 193 -20 l190 0 0 140 0 140 -192 3 -193 2 0 -42z" id="20"/>
<path d="M4670 4587 c0 -8 -14 -41 -31 -75 -25 -51 -30 -71 -27 -119 3 -49 6 -58 23 -62 11 -2 23 -8 26 -13 8 -12 390 180 396 199 6 17 -94 51 -200 68 -118 19 -187 20 -187 2z" id="21"/>
<path d="M4147 4492 c-24 -27 -21 -59 8 -78 23 -15 27 -15 50 0 30 20 33 56 7 79 -24 22 -45 21 -65 -1z" id="22"/>
<path d="M4868 4381 l-208 -106 3 -180 2 -180 26 -3 c55 -6 204 121 285 243 43 65 93 201 101 276 3 32 4 59 2 58 -2 -1 -97 -49 -211 -108z" id="23"/>
<path d="M3987 4303 c-4 -3 -7 -28 -7 -55 l0 -48 325 0 325 0 0 55 0 55 -318 0 c-175 0 -322 -3 -325 -7z" id="24"/>
<path d="M3980 4039 l0 -131 78 6 c42 4 188 8 324 9 l248 2 0 123 0 122 -325 0 -325 0 0 -131z" id="25"/>
<path d="M4110 3894 c-133 -10 -275 -49 -358 -97 -152 -87 -347 -302 -417 -461 -49 -110 -58 -168 -50 -326 10 -234 29 -319 103 -470 73 -149 248 -345 358 -400 27 -14 51 -28 54 -32 10 -13 134 -66 205 -86 177 -53 396 -66 576 -36 328 55 557 216 690 486 144 290 157 578 38 859 -99 233 -248 394 -462 494 -131 62 -166 68 -442 70 -137 1 -270 1 -295 -1z m649 -100 c89 -25 191 -82 254 -143 115 -109 238 -329 278 -497 29 -119 29 -286 0 -398 -58 -222 -242 -485 -386 -552 -72 -34 -121 -31 -255 18 -104 38 -124 42 -205 41 -93 -1 -100 -2 -325 -82 -91 -33 -147 -38 -201 -19 -52 17 -110 61 -149 112 -19 25 -86 89 -148 142 -125 106 -178 167 -216 248 -74 157 -74 394 0 593 88 236 223 399 397 482 117 56 155 57 417 11 75 -13 125 -8 233 27 147 46 193 49 306 17z m-86 -1688 c4 -20 -185 -65 -219 -52 -16 6 -16 8 -4 16 8 6 31 10 50 11 19 0 62 9 95 19 64 19 75 20 78 6z" id="26"/>
<path d="M4490 3758 c-119 -39 -240 -43 -402 -13 -125 23 -177 16 -281 -35 -176 -87 -304 -251 -386 -496 -57 -170 -62 -329 -15 -472 34 -102 78 -167 170 -248 44 -38 129 -119 190 -180 77 -78 122 -115 149 -124 60 -20 147 -7 260 38 199 79 318 82 503 12 123 -46 149 -47 225 -8 117 59 277 278 341 465 91 267 38 549 -154 822 -95 134 -189 203 -344 250 -91 28 -143 26 -256 -11z m-380 -703 c0 -33 1 -34 26 -25 14 6 48 10 76 10 30 0 69 8 92 19 68 31 112 35 133 11 11 -13 30 -20 53 -20 19 0 52 -5 74 -11 34 -9 41 -8 61 11 12 11 39 23 59 27 32 5 36 3 36 -15 0 -24 -30 -47 -72 -57 -35 -9 -37 -37 -3 -70 33 -34 68 -31 112 8 75 65 95 77 134 77 29 0 39 -4 39 -16 0 -10 -6 -13 -19 -9 -28 8 -66 -10 -115 -55 -56 -52 -96 -64 -143 -45 -33 14 -67 68 -61 97 4 15 -98 40 -131 32 -14 -3 -36 -14 -50 -25 -29 -24 -42 -8 -17 20 26 29 20 44 -15 37 -58 -11 -99 -38 -114 -72 -13 -32 -58 -64 -71 -51 -4 3 3 21 15 40 26 42 26 47 4 47 -39 0 -95 -23 -127 -50 -41 -37 -51 -29 -26 21 19 37 26 69 15 69 -3 0 -22 -9 -43 -19 -49 -25 -107 -87 -127 -133 -14 -35 -35 -51 -35 -28 0 53 83 153 155 186 71 34 85 32 85 -11z m-630 -121 c0 -49 33 -156 51 -167 22 -14 25 -37 5 -37 -27 0 -53 48 -70 130 -18 79 -16 117 4 105 5 -3 10 -17 10 -31z" id="27"/>
<path d="M2735 3193 c-108 -23 -235 -87 -315 -159 -46 -42 -41 -54 23 -54 63 0 213 -34 526 -119 162 -44 296 -79 298 -77 2 2 1 56 -3 120 l-7 117 -54 49 c-61 56 -152 102 -231 119 -51 11 -195 13 -237 4z" id="28"/>
<path d="M2365 2909 c18 -132 82 -262 160 -326 42 -35 133 -82 210 -108 65 -23 233 -31 308 -15 73 15 182 69 237 118 l42 37 -18 60 c-10 33 -20 63 -23 67 -8 9 -601 171 -702 192 -42 9 -109 19 -149 22 l-72 7 7 -54z" id="29"/>
<path d="M3280 2543 c-91 -71 -197 -111 -318 -120 l-83 -6 -32 -56 c-71 -122 -100 -223 -100 -351 0 -111 19 -193 70 -297 32 -66 116 -163 141 -163 5 0 29 55 52 122 87 255 211 543 309 718 l59 104 -21 43 c-12 24 -23 43 -26 42 -4 0 -26 -16 -51 -36z" id="30"/>
<path d="M3383 2448 c-23 -30 -126 -233 -181 -358 -64 -145 -189 -473 -199 -523 l-6 -30 52 5 c67 7 197 71 289 143 153 119 241 294 242 477 0 66 0 67 -51 125 -28 32 -69 84 -90 116 -22 31 -41 57 -43 57 -2 0 -8 -6 -13 -12z" id="31"/>
<path d="M3610 2155 l0 -46 38 7 c20 3 40 10 45 13 4 4 -13 22 -38 40 l-45 32 0 -46z" id="32"/>
<path d="M3641 2087 c-31 -11 -35 -18 -68 -117 l-34 -105 59 -55 c33 -30 115 -88 183 -129 68 -41 150 -92 181 -113 31 -21 61 -38 65 -38 5 0 25 16 44 36 18 20 53 47 77 61 23 14 42 32 42 41 0 50 -24 153 -45 197 -37 76 -77 107 -185 144 -52 18 -120 46 -152 62 -62 31 -110 36 -167 16z" id="33"/>
<path d="M3510 1831 c0 -5 -30 -41 -67 -81 l-67 -72 13 -46 c35 -132 162 -245 322 -287 83 -22 137 -19 193 13 42 23 53 36 75 86 l25 59 -27 22 c-15 12 -98 64 -183 116 -86 52 -182 118 -214 147 -58 52 -70 59 -70 43z" id="34"/>
<path d="M4511 1719 c-159 -19 -302 -74 -401 -152 -60 -48 -130 -151 -113 -168 6 -6 67 20 174 74 190 97 250 113 393 104 123 -8 194 -24 223 -53 34 -34 29 -61 -19 -107 l-43 -40 30 6 c17 3 103 16 193 28 95 14 162 28 162 34 0 45 -128 178 -212 221 -99 50 -247 71 -387 53z" id="35"/>
<path d="M4360 1532 c-57 -19 -241 -109 -274 -134 -17 -14 -17 -15 10 -32 75 -48 127 -124 140 -205 4 -23 10 -41 15 -41 12 0 348 209 438 273 86 60 101 79 85 105 -19 30 -84 44 -224 48 -113 4 -144 1 -190 -14z" id="36"/>
<path d="M4940 1384 c-274 -41 -269 -40 -384 -113 -58 -36 -126 -79 -152 -94 l-48 -29 52 -28 c29 -16 75 -47 102 -70 l49 -41 68 12 c154 26 277 89 355 180 72 85 136 193 120 202 -4 2 -77 -7 -162 -19z" id="37"/>
<path d="M3733 1237 c-139 -72 -253 -134 -253 -137 0 -4 16 -12 35 -19 49 -17 125 -96 154 -159 14 -29 28 -52 33 -52 15 0 466 268 495 294 19 17 -25 103 -75 148 -35 31 -93 58 -127 58 -5 0 -124 -60 -262 -133z" id="38"/>
<path d="M4040 1034 c-85 -53 -194 -118 -242 -145 -48 -28 -89 -53 -91 -57 -2 -4 -1 -31 2 -59 l6 -53 95 60 c180 111 345 219 372 242 19 16 28 34 30 62 2 22 -1 41 -7 42 -5 2 -80 -39 -165 -92z" id="39"/>
<path d="M4283 1102 c-28 -17 -45 -37 -49 -55 -3 -15 -17 -35 -30 -43 -13 -9 -24 -20 -24 -23 0 -4 64 -63 142 -131 78 -68 181 -162 230 -208 49 -47 92 -82 96 -78 4 4 7 42 6 84 -2 190 -104 366 -261 450 -33 17 -62 32 -64 32 -2 0 -23 -13 -46 -28z" id="40"/>
<path d="M3206 992 l-169 -87 54 -11 c110 -22 196 -92 247 -202 23 -48 27 -71 27 -143 l0 -85 140 91 c165 107 178 124 173 226 -8 158 -137 300 -272 299 -19 0 -98 -35 -200 -88z" id="41"/>
<path d="M4035 889 c-60 -39 -116 -74 -124 -79 -40 -22 119 -179 243 -240 114 -56 191 -74 311 -73 103 1 160 12 160 30 0 16 -458 434 -475 433 -3 -1 -54 -32 -115 -71z" id="42"/>
<path d="M2990 863 c-96 -35 -124 -79 -118 -187 5 -86 26 -133 89 -196 92 -92 211 -123 299 -78 64 33 82 72 77 168 -6 119 -78 228 -182 276 -48 23 -127 31 -165 17z" id="43"/>
<path d="M6816 7566 c-54 -20 -85 -45 -121 -95 -24 -34 -30 -54 -33 -109 -4 -76 9 -117 53 -170 87 -104 263 -104 350 0 40 47 55 89 55 153 0 64 -15 106 -55 153 -56 67 -169 98 -249 68z" id="44"/>
<path d="M5935 7435 c-228 -53 -433 -121 -707 -235 -111 -45 -132 -57 -158 -93 -16 -22 -28 -42 -27 -43 2 -2 69 23 149 56 263 106 744 261 933 300 l60 13 -30 13 c-43 19 -106 16 -220 -11z" id="45"/>
<path d="M6126 7393 c-319 -68 -1088 -340 -1117 -395 -6 -11 -8 -31 -4 -45 13 -55 258 -669 272 -685 62 -70 489 22 886 190 190 81 347 186 347 232 0 27 -174 546 -210 627 -26 58 -38 74 -63 82 -16 6 -33 11 -36 10 -3 0 -37 -7 -75 -16z m79 -107 c31 -20 49 -60 64 -141 7 -39 36 -110 81 -200 85 -168 99 -232 58 -279 -21 -24 -34 -29 -108 -37 -121 -13 -155 -28 -293 -122 -150 -103 -220 -140 -338 -173 -75 -22 -105 -26 -172 -22 -152 8 -207 58 -297 269 -98 229 -98 304 -1 351 25 12 87 61 137 109 115 110 202 154 400 204 271 68 410 80 469 41z" id="46"/>
<path d="M5890 7255 c-307 -66 -420 -116 -536 -235 -50 -52 -99 -92 -134 -109 -47 -23 -56 -33 -64 -64 -12 -49 9 -125 79 -278 69 -152 83 -172 151 -205 140 -69 365 -8 606 164 131 94 174 112 281 122 116 11 131 23 124 101 -4 43 -20 85 -75 191 -53 104 -73 154 -82 208 -8 47 -20 80 -35 98 -22 25 -29 27 -112 29 -63 2 -121 -5 -203 -22z m217 -345 l53 -145 -22 -17 c-76 -59 -289 -143 -438 -174 -132 -26 -125 -31 -193 131 l-58 140 23 19 c63 51 235 120 413 167 170 44 158 51 222 -121z" id="47"/>
<path d="M5875 7001 c-139 -36 -333 -114 -382 -153 -8 -7 2 -41 39 -131 27 -67 53 -125 56 -129 11 -11 189 28 289 63 86 30 203 87 234 115 14 13 11 26 -30 139 -54 146 -39 139 -206 96z" id="48"/>
<path d="M6196 6441 c-4 -5 -2 -21 4 -35 14 -37 6 -48 -54 -85 -71 -42 -173 -77 -264 -90 -86 -11 -98 -8 -106 25 -8 31 -41 32 -80 1 -20 -16 -27 -29 -23 -40 10 -27 193 -24 283 4 224 68 371 154 357 207 -5 19 -12 22 -59 22 -29 0 -55 -4 -58 -9z" id="49"/>
<path d="M6090 6399 c-24 -11 -99 -38 -165 -61 -66 -22 -123 -42 -128 -45 -4 -2 -2 -13 4 -25 10 -18 17 -19 67 -13 104 13 258 73 310 120 2 2 1 13 -3 24 -8 26 -27 26 -85 0z" id="50"/>
<path d="M6284 6339 c-35 -37 -113 -75 -259 -125 -95 -32 -125 -38 -222 -42 -62 -2 -113 -7 -113 -11 0 -3 6 -26 14 -51 15 -52 32 -59 156 -62 67 -2 93 4 235 51 146 48 164 57 208 100 27 25 53 53 58 62 11 21 -17 109 -35 109 -7 0 -25 -14 -42 -31z" id="51"/>
<path d="M1010 7271 c0 -10 80 -82 170 -153 30 -24 74 -68 98 -98 78 -97 143 -170 153 -170 25 0 -4 187 -39 256 -28 54 -77 99 -144 129 -79 36 -238 60 -238 36z" id="52"/>
<path d="M983 7168 c12 -144 110 -281 233 -327 36 -14 79 -21 126 -21 l72 0 -35 38 c-20 20 -66 75 -104 122 -39 49 -99 109 -144 143 -42 32 -90 72 -106 88 -17 16 -35 29 -39 29 -5 0 -6 -33 -3 -72z" id="53"/>
<path d="M2234 7211 c-93 -36 -134 -62 -179 -112 -55 -61 -126 -229 -97 -229 5 0 181 43 390 95 210 52 389 95 396 95 22 0 29 19 14 37 -28 34 -135 94 -210 118 -113 36 -218 34 -314 -4z" id="54"/>
<path d="M2355 6940 c-214 -53 -391 -102 -392 -107 -6 -18 74 -80 130 -102 111 -41 227 -50 339 -26 149 31 265 114 319 228 34 72 38 107 12 106 -10 0 -193 -45 -408 -99z" id="55"/>
<path d="M7761 7215 c-127 -29 -275 -116 -366 -217 -50 -55 -105 -157 -105 -194 0 -21 1 -21 88 -7 175 27 302 57 573 133 152 43 302 84 333 91 31 7 59 15 61 19 7 11 -165 137 -220 162 -42 19 -70 23 -175 25 -81 1 -148 -3 -189 -12z" id="56"/>
<path d="M8295 6998 c-22 -6 -166 -46 -320 -90 -261 -73 -416 -110 -592 -138 -40 -7 -73 -16 -73 -20 0 -21 145 -123 231 -165 112 -53 198 -75 294 -75 181 0 380 104 462 242 31 51 44 98 57 211 6 52 7 52 -59 35z" id="57"/>
<path d="M1775 6501 c-213 -6 -238 -12 -255 -57 -6 -15 -10 -232 -10 -523 0 -410 2 -501 14 -510 14 -12 17 33 32 619 7 247 10 266 58 318 56 62 105 65 277 17 168 -48 275 -56 604 -45 349 12 372 14 501 52 78 23 131 32 185 32 68 1 79 -2 112 -27 26 -19 38 -38 43 -65 4 -20 8 -275 8 -567 l1 -530 -27 -51 c-34 -64 -105 -128 -165 -148 -59 -20 -153 -21 -200 -1 -49 21 -416 20 -691 -1 -215 -16 -352 -13 -443 10 l-50 13 -20 -39 c-11 -21 -17 -43 -14 -48 13 -21 114 -30 274 -25 149 6 170 5 200 -12 56 -30 74 -62 76 -140 l1 -68 226 -3 225 -2 6 60 c11 127 44 143 297 147 214 4 250 14 288 81 50 90 54 134 55 752 2 662 -2 712 -56 729 -83 27 -217 33 -772 35 -319 2 -670 0 -780 -3z" id="58"/>
<path d="M1673 6360 c-32 -16 -48 -34 -68 -73 -24 -49 -25 -57 -26 -256 0 -114 -4 -273 -9 -356 -4 -82 -5 -182 -3 -221 5 -69 6 -70 44 -92 22 -13 55 -22 79 -22 52 0 72 -11 136 -70 154 -145 305 -161 984 -109 127 10 153 10 202 -5 30 -8 61 -22 68 -30 26 -32 -17 -76 -75 -76 -39 0 -29 -18 13 -25 110 -18 228 50 279 163 l25 53 -1 525 c-1 288 -6 534 -10 547 -28 73 -119 85 -286 38 -154 -43 -208 -49 -570 -56 -351 -8 -403 -4 -573 45 -149 43 -161 44 -209 20z m1237 -650 l0 -380 -460 0 -460 0 0 373 c0 206 3 377 7 380 3 4 210 7 460 7 l453 0 0 -380z" id="59"/>
<path d="M2010 5710 l0 -350 440 0 440 0 -2 348 -3 347 -437 3 -438 2 0 -350z m808 -3 l2 -307 -372 2 -373 3 -3 294 c-2 210 1 298 9 307 10 12 75 14 373 12 l361 -3 3 -308z" id="60"/>
<path d="M2100 5710 l0 -280 348 2 347 3 0 275 0 275 -347 3 -348 2 0 -280z" id="61"/>
<path d="M1446 5350 c-29 -35 -53 -108 -63 -187 -4 -36 -10 -53 -20 -53 -15 0 -12 54 8 130 12 49 11 54 -8 39 -9 -8 -29 -41 -45 -74 -37 -78 -39 -156 -5 -206 l23 -34 138 -3 c90 -2 143 1 151 8 25 21 34 98 19 158 -16 59 -11 79 11 48 21 -28 29 -104 18 -161 -6 -27 -9 -52 -6 -55 8 -9 38 17 58 51 58 99 -14 262 -150 340 -65 38 -96 37 -129 -1z m54 -261 c0 -36 -4 -49 -12 -47 -15 5 -22 50 -13 85 9 39 25 16 25 -38z" id="62"/>
<path d="M1680 5314 c0 -3 11 -20 25 -38 34 -44 56 -102 64 -161 6 -47 8 -51 46 -64 60 -20 255 -25 432 -12 86 7 290 16 452 21 285 7 361 16 361 41 0 6 -17 17 -37 26 -34 14 -61 15 -253 3 -382 -22 -625 -24 -709 -6 -100 21 -185 63 -251 123 -30 27 -65 55 -77 61 -23 13 -53 16 -53 6z" id="63"/>
<path d="M1340 4919 c0 -12 6 -47 14 -78 8 -31 25 -153 37 -271 27 -251 27 -251 117 -249 31 1 68 4 82 8 39 10 60 63 60 152 0 42 9 158 20 258 11 100 18 187 15 192 -4 5 -82 9 -176 9 -165 0 -169 0 -169 -21z m288 -36 c3 -10 -25 -13 -117 -13 -111 0 -133 5 -114 24 13 12 226 2 231 -11z" id="64"/>
<path d="M2080 4655 l0 -65 425 0 425 0 0 65 0 65 -79 0 c-75 0 -80 -1 -83 -22 -3 -23 -3 -23 -233 -26 -126 -1 -240 0 -251 3 -12 2 -24 14 -27 25 -5 18 -13 20 -91 20 l-86 0 0 -65z" id="65"/>
<path d="M2082 4453 l3 -108 420 0 420 0 3 108 3 107 -426 0 -426 0 3 -107z m826 -55 c-4 -10 -92 -13 -398 -13 -306 0 -394 3 -397 13 -4 9 80 12 397 12 317 0 401 -3 398 -12z" id="66"/>
<path d="M1414 4195 c3 -60 16 -537 27 -1060 24 -1043 18 -973 86 -996 38 -12 79 -5 106 18 16 16 17 65 12 912 -3 493 -8 973 -11 1066 l-6 170 -110 0 -110 0 6 -110z" id="67"/>
<path d="M6616 6321 c-4 -6 8 -30 27 -54 117 -143 251 -389 446 -816 61 -134 115 -251 120 -259 7 -13 13 -10 30 19 82 133 96 339 40 581 -51 219 -197 415 -369 497 -69 33 -84 36 -181 39 -71 3 -109 0 -113 -7z" id="68"/>
<path d="M6557 6272 c-97 -106 -116 -487 -33 -667 72 -158 205 -299 351 -372 117 -59 315 -106 315 -75 0 12 -240 533 -310 672 -100 200 -267 459 -296 460 -6 0 -18 -8 -27 -18z" id="69"/>
<path d="M5390 5621 c-5 -11 -7 -22 -3 -24 11 -7 1108 -13 1107 -7 -1 3 -4 15 -8 28 l-7 22 -539 0 c-523 0 -540 -1 -550 -19z" id="70"/>
<path d="M5376 5559 c-9 -29 -17 -252 -11 -304 l7 -55 384 0 384 0 0 180 0 180 -349 0 c-192 0 -362 3 -380 6 -21 5 -32 2 -35 -7z m62 -156 c-2 -44 -7 -78 -13 -78 -6 0 -11 34 -13 78 -2 65 0 77 13 77 13 0 15 -12 13 -77z" id="71"/>
<path d="M6170 5380 l0 -180 255 0 254 0 3 63 c3 62 3 62 -49 124 -28 34 -66 87 -85 117 l-33 55 -172 1 -173 0 0 -180z" id="72"/>
<path d="M5372 4503 l3 -678 23 -3 22 -3 0 643 c0 551 2 647 15 672 22 41 19 46 -25 46 l-40 0 2 -677z" id="73"/>
<path d="M5500 5163 c-26 -14 -37 -27 -45 -58 -7 -27 -9 -246 -7 -663 l4 -622 421 2 422 3 3 89 c2 53 -1 93 -8 100 -7 7 -10 6 -10 -2 0 -17 -78 -38 -92 -24 -7 7 -19 7 -36 1 -31 -12 -37 -7 -23 19 21 39 11 44 -24 13 -48 -42 -99 -45 -148 -9 l-29 20 -26 -25 c-38 -35 -82 -55 -128 -59 -38 -3 -39 -2 -36 26 4 38 29 74 62 91 42 22 44 5 5 -31 -41 -37 -48 -69 -12 -58 44 13 74 33 111 75 30 32 40 38 47 28 5 -8 9 -20 9 -26 0 -7 11 -20 25 -29 35 -23 71 -11 123 39 46 45 62 42 62 -12 0 -20 3 -23 28 -17 15 4 43 10 62 14 l35 7 0 560 0 560 -380 3 c-346 2 -383 1 -415 -15z" id="74"/>
<path d="M6327 5173 c-4 -3 -7 -260 -7 -569 l0 -564 25 -6 c36 -9 70 2 81 26 8 19 11 19 32 5 12 -9 22 -19 22 -23 0 -12 -77 -32 -120 -32 l-41 0 3 -92 3 -93 145 0 145 0 0 620 c0 600 -1 621 -20 660 -29 57 -70 75 -176 75 -47 0 -89 -3 -92 -7z" id="75"/>
<path d="M6590 5174 c0 -4 10 -23 23 -43 l22 -36 5 -635 c5 -594 6 -635 23 -638 16 -3 17 34 17 677 l0 681 -45 0 c-25 0 -45 -3 -45 -6z" id="76"/>
<path d="M734 5968 c-78 -8 -210 -52 -283 -95 -85 -49 -221 -198 -221 -241 0 -9 133 -12 525 -12 355 0 525 3 525 10 0 20 -52 115 -91 166 -98 128 -265 191 -455 172z" id="77"/>
<path d="M225 5568 c11 -36 61 -110 97 -145 50 -48 144 -101 233 -130 67 -22 99 -26 200 -27 70 0 138 5 163 12 l42 13 0 113 c0 134 12 160 73 160 54 0 67 -17 68 -88 1 -102 7 -106 65 -44 47 50 114 139 114 152 0 3 -239 6 -531 6 l-530 0 6 -22z" id="78"/>
<path d="M1002 5528 c-6 -9 -9 -441 -8 -1268 l1 -1255 37 0 38 0 5 1248 c4 863 2 1254 -5 1267 -12 22 -52 27 -68 8z" id="79"/>
<path d="M990 2940 l0 -41 43 3 c41 3 42 4 42 38 0 34 -1 35 -42 38 l-43 3 0 -41z" id="80"/>
<path d="M992 2798 c3 -43 3 -43 43 -43 40 0 40 0 43 43 l3 42 -46 0 -46 0 3 -42z" id="81"/>
<path d="M996 2722 c-5 -8 17 -177 29 -231 9 -38 16 -19 31 86 21 150 21 153 -20 153 -19 0 -37 -4 -40 -8z" id="82"/>
<path d="M4415 5876 c-13 -19 -13 -28 -4 -50 16 -33 44 -42 74 -22 27 18 34 63 13 84 -21 21 -66 14 -83 -12z" id="83"/>
<path d="M8088 5640 c-25 -26 -29 -36 -24 -63 9 -45 39 -71 81 -71 76 0 109 91 51 140 -37 33 -71 30 -108 -6z" id="84"/>
<path d="M7603 4859 c-150 -25 -284 -111 -379 -245 -100 -140 -147 -300 -126 -426 12 -71 48 -168 62 -168 14 0 135 143 310 365 148 188 282 351 364 443 17 20 18 24 6 32 -18 12 -166 11 -237 -1z" id="85"/>
<path d="M7850 4808 c-19 -24 -71 -86 -115 -138 -45 -52 -154 -187 -242 -300 -89 -113 -193 -241 -231 -285 -39 -44 -69 -81 -67 -84 11 -10 159 2 233 19 165 39 312 129 397 243 59 78 77 114 105 206 33 109 32 196 -4 299 -16 45 -32 82 -36 82 -4 0 -22 -19 -40 -42z" id="86"/>
<path d="M2271 4139 c-62 -12 -175 -68 -243 -120 -119 -91 -177 -202 -186 -356 -2 -51 -2 -93 1 -93 3 0 54 29 113 63 60 35 186 107 279 160 188 106 447 269 452 284 5 15 -85 51 -158 62 -75 13 -195 12 -258 0z" id="87"/>
<path d="M2600 3983 c-113 -74 -297 -184 -550 -327 -85 -48 -162 -94 -170 -103 -13 -13 -13 -16 4 -29 11 -8 56 -28 100 -45 95 -37 233 -49 329 -29 126 26 261 120 323 225 58 100 92 246 77 334 l-8 43 -105 -69z" id="88"/>
<path d="M335 3982 c-139 -67 -166 -239 -52 -339 170 -149 419 48 314 248 -50 94 -169 135 -262 91z" id="89"/>
<path d="M5733 3220 c-89 -54 -93 -177 -8 -230 40 -25 107 -26 146 -3 40 24 73 94 65 137 -18 94 -124 145 -203 96z" id="90"/>
<path d="M7255 3203 c-68 -8 -173 -37 -225 -62 -58 -27 -180 -141 -180 -167 0 -9 11 -30 25 -48 35 -46 111 -211 129 -280 9 -33 17 -60 19 -62 1 -2 56 79 122 179 66 100 157 234 203 299 45 65 82 120 82 122 0 7 -98 26 -123 25 -12 -1 -35 -4 -52 -6z" id="91"/>
<path d="M6443 3174 c-14 -37 18 -457 53 -689 12 -83 54 -491 54 -532 0 -10 24 -13 88 -13 l89 0 71 74 c126 130 191 299 192 498 0 110 -21 182 -93 323 -75 145 -253 298 -395 339 -48 14 -54 14 -59 0z" id="92"/>
<path d="M6375 3168 c-50 -28 -207 -175 -245 -229 -65 -93 -110 -247 -110 -378 0 -126 75 -323 181 -477 53 -76 151 -175 172 -173 7 0 44 6 82 13 65 11 70 14 68 37 -2 13 -10 105 -18 204 -9 99 -25 243 -36 319 -22 154 -45 399 -55 579 -3 64 -9 117 -12 117 -4 0 -16 -6 -27 -12z" id="93"/>
<path d="M7402 3093 c-93 -129 -324 -478 -351 -533 -24 -48 -38 -113 -54 -255 -2 -16 5 -21 35 -23 21 -2 66 4 100 13 205 52 353 195 414 400 25 83 25 251 1 321 -20 57 -72 144 -86 144 -5 0 -31 -30 -59 -67z" id="94"/>
<path d="M6540 1911 c-153 -17 -265 -58 -367 -135 -59 -44 -149 -144 -139 -153 3 -3 28 0 57 6 29 6 147 18 263 26 116 8 270 22 341 30 72 9 221 18 333 22 111 3 205 9 207 14 18 28 -193 137 -325 169 -98 23 -261 32 -370 21z" id="95"/>
<path d="M6920 1679 c-69 -5 -186 -15 -260 -24 -74 -8 -207 -20 -295 -25 -218 -13 -335 -31 -335 -52 0 -23 106 -119 168 -151 81 -42 204 -83 292 -97 227 -35 449 34 616 192 47 44 124 145 124 162 0 8 -154 5 -310 -5z" id="96"/>
<path d="M7917 2495 c-125 -44 -158 -206 -61 -297 88 -81 223 -55 280 54 18 35 18 121 0 156 -19 37 -55 68 -98 87 -45 18 -71 18 -121 0z" id="97"/>
<path d="M2265 2432 c-85 -55 -104 -150 -43 -227 78 -99 244 -51 264 77 8 45 -23 113 -63 142 -39 28 -120 32 -158 8z" id="98"/>
<path d="M2220 1925 c0 -3 17 -67 39 -142 75 -267 112 -532 114 -820 1 -110 6 -183 12 -183 14 0 110 105 161 176 83 116 114 216 114 371 0 173 -46 310 -140 416 -57 63 -153 136 -221 167 -42 18 -79 26 -79 15z" id="99"/>
<path d="M2114 1882 c-122 -79 -214 -207 -260 -358 -28 -90 -26 -267 4 -361 27 -87 103 -204 169 -260 110 -92 240 -159 295 -151 l23 3 -1 220 c-1 235 -15 376 -60 592 -30 148 -87 346 -100 350 -6 2 -37 -14 -70 -35z" id="100"/>
<path d="M852 1815 c-138 -30 -250 -109 -293 -208 -21 -49 -41 -207 -26 -207 4 0 37 20 73 45 129 86 328 176 552 250 79 26 82 28 67 45 -24 27 -127 70 -192 80 -74 12 -103 12 -181 -5z" id="101"/>
<path d="M1090 1641 c-223 -79 -336 -131 -462 -214 -43 -28 -78 -55 -78 -60 0 -15 105 -56 178 -69 187 -32 394 54 479 200 24 41 52 134 53 175 0 25 -20 21 -170 -32z" id="102"/>
<path d="M7948 1154 c-30 -16 -58 -61 -58 -94 0 -53 57 -110 110 -110 53 0 110 57 110 110 0 34 -28 78 -60 95 -36 19 -67 19 -102 -1z" id="103"/>
<path d="M6432 1044 c-217 -108 -139 -435 104 -434 74 0 127 24 176 78 169 187 -52 470 -280 356z" id="104"/>
<path d="M960 720 c-13 -13 -20 -33 -20 -59 0 -73 84 -108 135 -56 52 51 17 135 -56 135 -26 0 -46 -7 -59 -20z" id="105"/>
<path d="M3706 8483 c-25 -89 -12 -212 31 -296 14 -28 50 -74 81 -104 58 -55 166 -133 185 -133 6 0 8 24 4 68 -3 37 -12 160 -18 275 l-13 207 -132 0 c-118 0 -133 -2 -138 -17z" id="106"/>
<path d="M4013 8333 c6 -154 25 -384 32 -391 9 -10 95 47 140 92 96 95 143 239 129 392 l-7 74 -150 0 -150 0 6 -167z" id="107"/>
<path d="M7968 3879 c-118 -12 -224 -52 -330 -122 -27 -18 -48 -35 -48 -39 0 -5 110 -8 244 -8 l245 0 3 -32 c3 -31 6 -33 38 -32 19 1 113 5 208 9 l172 8 0 42 0 42 -78 36 c-158 72 -329 108 -454 96z" id="108"/>
<path d="M5854 3677 c-2 -7 -3 -60 -2 -118 l3 -104 710 0 710 0 0 115 0 115 -708 3 c-580 2 -708 0 -713 -11z" id="109"/>
<path d="M7304 3677 c-3 -8 -4 -43 -2 -78 l3 -64 375 0 375 0 0 75 0 75 -373 3 c-308 2 -373 0 -378 -11z" id="110"/>
<path d="M8301 3628 c-121 -5 -198 -12 -207 -19 -10 -8 -14 -36 -14 -95 l0 -84 -269 0 c-160 0 -272 -4 -276 -10 -9 -15 123 -118 200 -156 92 -45 158 -56 280 -49 173 11 275 56 403 180 l83 81 -3 79 -3 80 -194 -7z" id="111"/>
<path d="M7304 3495 c-4 -8 -4 -22 0 -30 5 -13 53 -15 378 -13 l373 3 0 25 0 25 -373 3 c-325 2 -373 0 -378 -13z" id="112"/>
<path d="M32 2733 c-30 -4 -32 -7 -32 -42 0 -37 1 -39 41 -45 95 -15 354 -141 421 -204 15 -14 31 -23 34 -19 12 12 -44 114 -93 167 -103 112 -229 160 -371 143z" id="113"/>
<path d="M0 2516 l0 -114 51 -33 c66 -42 133 -59 234 -59 95 0 145 12 182 45 28 23 28 23 8 45 -21 23 -148 102 -230 143 -52 25 -169 69 -217 81 l-28 6 0 -114z" id="114"/>
<path d="M5410 976 c0 -2 63 -216 140 -476 77 -260 140 -479 140 -486 0 -9 12 -14 34 -14 30 0 38 6 65 48 116 181 153 399 95 570 -30 90 -82 180 -125 216 -39 33 -140 81 -247 117 -84 28 -102 33 -102 25z" id="115"/>
<path d="M5326 908 c-82 -94 -125 -199 -141 -343 -18 -168 88 -387 250 -517 l59 -48 89 0 c67 0 88 3 84 13 -2 6 -67 222 -143 480 -76 257 -141 467 -145 467 -4 0 -28 -23 -53 -52z" id="116"/>
</g>
</svg>