<?xml version="1.0" ?><!DOCTYPE svg  PUBLIC '-//W3C//DTD SVG 20010904//EN'  'http://www.w3.org/TR/2001/REC-SVG-20010904/DTD/svg10.dtd'><svg height="850.000000pt" preserveAspectRatio="xMidYMid meet" version="1.0" viewBox="0 0 850.000000 850.000000" width="850.000000pt" xmlns="http://www.w3.org/2000/svg">
<metadata>
Created by potrace 1.14, written by Peter Selinger 2001-2017
</metadata>
<g fill="#ffffff" stroke="none" transform="translate(0.000000,850.000000) scale(0.100000,-0.100000)">
<path d="M0 7442 l0 -1058 113 4 c186 7 299 -38 433 -172 113 -112 154 -201 154 -331 l0 -61 128 1 c143 0 198 -14 247 -65 38 -40 45 -109 17 -172 -53 -120 -239 -252 -421 -299 -85 -22 -228 -29 -357 -16 l-81 8 -12 -48 c-7 -26 -21 -66 -32 -88 -28 -54 -102 -129 -150 -151 l-39 -17 0 -568 0 -569 97 81 c347 292 773 453 1265 478 313 15 611 -18 916 -101 l113 -31 20 22 c11 11 26 21 34 21 21 0 20 4 -19 73 -79 141 -120 352 -82 425 18 35 51 48 92 38 23 -6 25 -4 19 11 -73 180 -94 362 -50 430 20 31 73 63 103 63 23 0 23 1 16 68 -12 97 -7 226 11 287 10 37 26 63 52 85 33 29 41 32 88 28 l51 -4 12 111 c21 195 66 285 143 285 31 0 46 -8 80 -40 23 -22 43 -40 44 -40 2 0 5 14 9 30 20 101 124 288 175 314 45 24 94 20 129 -9 17 -14 32 -25 35 -25 2 0 7 18 11 41 8 49 25 84 60 122 22 24 33 27 84 27 33 0 79 -7 102 -15 23 -8 44 -15 46 -15 2 0 8 19 14 43 20 77 27 87 63 87 48 0 133 -27 194 -61 63 -35 63 -35 63 -9 0 35 29 79 56 86 67 17 168 -22 272 -106 l62 -50 49 51 c46 48 50 50 87 43 79 -14 157 -67 223 -151 24 -30 37 -41 45 -33 48 48 236 -83 296 -207 21 -44 29 -52 52 -53 54 0 144 -106 173 -202 10 -35 18 -44 50 -55 60 -21 101 -58 132 -120 24 -49 28 -70 28 -138 0 -44 -4 -94 -8 -112 -7 -27 -5 -32 13 -38 11 -3 28 -22 38 -41 l18 -34 54 77 c73 102 208 238 355 355 117 93 121 97 143 160 50 142 174 288 295 347 57 29 157 52 157 38 0 -4 -13 -28 -29 -54 -37 -61 -74 -153 -61 -153 6 0 47 18 91 41 399 200 839 291 1414 292 219 0 434 -13 487 -29 17 -5 18 20 18 431 0 432 0 436 -20 430 -14 -5 -20 -2 -20 9 0 9 9 16 20 16 20 0 20 7 20 520 l0 520 -635 0 c-567 0 -638 -2 -660 -16 -23 -15 -25 -15 -31 0 -6 15 -158 16 -1765 16 -1602 0 -1758 -1 -1752 -16 4 -12 0 -15 -18 -12 -13 2 -23 9 -22 16 2 9 -383 12 -1807 12 l-1810 0 0 -1058z m4595 1039 c10 -18 -17 -23 -33 -7 -15 15 -15 16 5 16 12 0 24 -4 28 -9z m2525 -26 c0 -8 -9 -15 -20 -15 -20 0 -26 11 -13 23 12 13 33 7 33 -8z m-3372 -13 c3 -9 -2 -13 -14 -10 -9 1 -19 9 -22 16 -3 9 2 13 14 10 9 -1 19 -9 22 -16z m931 9 c7 -5 11 -14 7 -19 -9 -15 -36 -4 -36 14 0 16 9 18 29 5z m2341 -41 c-21 -14 -30 -12 -30 4 0 18 22 27 35 14 6 -6 5 -12 -5 -18z m-3180 -6 c0 -9 -7 -14 -17 -12 -25 5 -28 28 -4 28 12 0 21 -6 21 -16z m940 1 c0 -17 -2 -18 -24 -9 -23 9 -20 24 4 24 11 0 20 -7 20 -15z m2150 -14 c0 -14 -18 -23 -30 -16 -6 4 -8 11 -5 16 8 12 35 12 35 0z m-3002 -24 c2 -11 -2 -14 -17 -10 -22 5 -26 14 -14 27 10 10 28 1 31 -17z m950 5 c3 -9 -2 -13 -14 -10 -9 1 -19 9 -22 16 -3 9 2 13 14 10 9 -1 19 -9 22 -16z m1960 -14 c-7 -19 -38 -22 -38 -4 0 10 9 16 21 16 12 0 19 -5 17 -12z m-1868 -13 c0 -17 -2 -18 -24 -9 -23 9 -20 24 4 24 11 0 20 -7 20 -15z m-942 -12 c2 -8 -5 -13 -17 -13 -21 0 -35 13 -24 24 10 10 36 3 41 -11z m2712 2 c0 -8 -9 -15 -20 -15 -22 0 -27 15 -7 23 21 9 27 7 27 -8z m-1672 -12 c2 -8 -5 -13 -17 -13 -12 0 -21 6 -21 16 0 18 31 15 38 -3z m-959 -12 c7 -5 11 -14 7 -19 -9 -15 -36 -4 -36 14 0 16 9 18 29 5z m1045 3 c22 -9 20 -24 -3 -24 -21 0 -34 13 -24 24 8 7 8 7 27 0z m1496 -3 c0 -6 -5 -13 -10 -16 -15 -9 -43 3 -35 15 8 13 45 13 45 1z m-1390 -32 c0 -5 -9 -9 -20 -9 -19 0 -26 11 -14 23 8 8 34 -3 34 -14z m1288 9 c-7 -19 -38 -22 -38 -4 0 10 9 16 21 16 12 0 19 -5 17 -12z m-2338 -23 c0 -17 -2 -18 -24 -9 -23 9 -20 24 4 24 11 0 20 -7 20 -15z m1148 -2 c2 -8 -5 -13 -17 -13 -12 0 -21 6 -21 16 0 18 31 15 38 -3z m1090 5 c-3 -7 -11 -13 -18 -13 -7 0 -15 6 -17 13 -3 7 4 12 17 12 13 0 20 -5 18 -12z m-97 -13 c0 -5 -9 -11 -21 -13 -20 -3 -27 8 -13 22 10 9 34 3 34 -9z m-891 -3 c0 -14 -11 -21 -26 -15 -21 8 -17 23 6 23 11 0 20 -4 20 -8z m794 -13 c-7 -12 -44 -12 -44 0 0 5 6 11 13 14 17 6 38 -3 31 -14z m-1946 -6 c2 -8 -5 -13 -17 -13 -12 0 -21 6 -21 16 0 18 31 15 38 -3z m1250 5 c-3 -7 -11 -13 -18 -13 -7 0 -15 6 -17 13 -3 7 4 12 17 12 13 0 20 -5 18 -12z m600 -6 c2 -7 -7 -12 -22 -12 -27 0 -35 15 -13 23 17 7 30 3 35 -11z m-498 -2 c0 -5 -9 -10 -20 -10 -11 0 -20 5 -20 10 0 6 9 10 20 10 11 0 20 -4 20 -10z m98 -7 c2 -8 -5 -13 -17 -13 -21 0 -35 13 -24 24 10 10 36 3 41 -11z m100 0 c2 -8 -5 -13 -17 -13 -21 0 -35 13 -24 24 10 10 36 3 41 -11z m100 0 c2 -8 -5 -13 -17 -13 -21 0 -35 13 -24 24 10 10 36 3 41 -11z m97 8 c3 -5 1 -13 -5 -16 -15 -9 -43 3 -35 15 8 13 32 13 40 1z m-1657 -29 c3 -9 -2 -13 -14 -10 -9 1 -19 9 -22 16 -3 9 2 13 14 10 9 -1 19 -9 22 -16z m100 -29 c2 -8 -5 -13 -17 -13 -21 0 -35 13 -24 24 10 10 36 3 41 -11z m-2950 -11 c88 -28 158 -81 208 -161 2 -1 31 7 66 20 52 20 83 24 178 24 104 0 121 -3 171 -26 111 -52 181 -142 197 -251 l7 -53 85 -1 c139 -2 198 -41 187 -125 -7 -52 -42 -97 -112 -144 -108 -72 -234 -98 -370 -77 -53 9 -71 9 -77 -1 -4 -6 -1 -15 7 -20 21 -11 19 -27 -3 -27 -11 0 -25 -14 -35 -35 -38 -80 -154 -126 -267 -105 -34 6 -63 10 -64 8 -42 -90 -100 -147 -185 -179 -86 -33 -266 -39 -358 -11 -102 31 -176 86 -248 184 l-20 28 -65 -22 c-113 -37 -383 -25 -397 18 -7 22 63 99 112 124 28 14 52 26 54 27 2 1 -2 24 -9 51 -10 43 -9 57 9 108 18 53 18 60 5 71 -21 15 -10 33 16 26 15 -4 34 8 69 40 60 56 107 77 176 77 l52 0 -7 46 c-8 53 2 119 27 172 42 89 169 180 304 216 78 21 214 20 287 -2z m3040 -20 c3 -9 -2 -13 -14 -10 -9 1 -19 9 -22 16 -3 9 2 13 14 10 9 -1 19 -9 22 -16z m100 -29 c2 -8 -5 -13 -17 -13 -21 0 -35 13 -24 24 10 10 36 3 41 -11z m92 -28 c0 -17 -2 -18 -24 -9 -23 9 -20 24 4 24 11 0 20 -7 20 -15z m84 -11 c23 -9 20 -24 -4 -24 -11 0 -20 7 -20 15 0 17 2 18 24 9z m109 -39 c-4 -15 -36 -12 -41 3 -3 9 3 13 19 10 13 -1 23 -7 22 -13z m81 -11 c23 -9 20 -24 -4 -24 -11 0 -20 7 -20 15 0 17 2 18 24 9z m111 -33 c3 -5 1 -12 -4 -15 -12 -8 -41 3 -41 15 0 12 37 12 45 0z m95 -27 c0 -9 -7 -14 -17 -12 -25 5 -28 28 -4 28 12 0 21 -6 21 -16z m84 -10 c23 -9 20 -24 -4 -24 -11 0 -20 7 -20 15 0 17 2 18 24 9z m116 -33 c0 -19 -22 -23 -38 -7 -15 15 -14 16 11 16 15 0 27 -4 27 -9z m95 -20 c3 -5 1 -12 -4 -15 -12 -8 -41 3 -41 15 0 12 37 12 45 0z m95 -22 c0 -5 -9 -9 -20 -9 -19 0 -26 11 -14 23 8 8 34 -3 34 -14z m98 -16 c2 -8 -5 -13 -17 -13 -12 0 -21 6 -21 16 0 18 31 15 38 -3z m1078 -19 c22 -8 55 -29 73 -48 l33 -34 50 34 c142 96 351 83 476 -30 25 -23 48 -35 62 -34 13 2 25 -3 27 -9 3 -7 -3 -13 -12 -13 -9 0 -15 -3 -13 -7 30 -61 32 -64 52 -57 12 3 39 9 62 11 34 4 46 0 74 -23 18 -16 39 -42 46 -60 12 -28 18 -32 69 -37 73 -7 105 -28 105 -68 0 -62 -38 -94 -140 -119 -55 -14 -66 -20 -70 -41 -15 -71 -98 -168 -180 -209 -57 -29 -150 -36 -212 -17 l-46 15 -32 -33 c-67 -69 -212 -125 -327 -125 -113 0 -225 41 -280 103 l-29 33 -60 -22 c-176 -68 -394 28 -411 180 -7 60 11 107 60 157 39 39 145 99 176 99 9 0 11 7 6 23 -19 57 -17 107 6 154 74 153 273 234 435 177z m-976 0 c0 -9 -7 -14 -17 -12 -25 5 -28 28 -4 28 12 0 21 -6 21 -16z m84 0 c22 -9 20 -24 -3 -24 -21 0 -34 13 -24 24 8 7 8 7 27 0z m111 -23 c3 -5 1 -12 -4 -15 -12 -8 -41 3 -41 15 0 12 37 12 45 0z m98 -16 c-4 -15 -36 -12 -41 3 -3 9 3 13 19 10 13 -1 23 -7 22 -13z m95 -13 c2 -7 -6 -12 -17 -12 -21 0 -27 11 -14 24 9 9 26 2 31 -12z m100 -10 c2 -7 -6 -12 -17 -12 -21 0 -27 11 -14 24 9 9 26 2 31 -12z m2103 -7 c0 -5 -9 -11 -21 -13 -20 -3 -27 8 -13 22 10 9 34 3 34 -9z m-96 -4 c3 -5 1 -13 -5 -16 -15 -9 -43 3 -35 15 8 13 32 13 40 1z m-95 -10 c0 -6 -5 -13 -10 -16 -15 -9 -43 3 -35 15 8 13 45 13 45 1z m-202 -19 c4 -14 -34 -16 -42 -3 -6 10 13 21 28 17 6 -1 12 -8 14 -14z m102 9 c0 -5 -6 -11 -12 -14 -18 -6 -39 3 -32 14 7 12 44 12 44 0z m-302 -19 c2 -7 -6 -12 -17 -12 -21 0 -27 11 -14 24 9 9 26 2 31 -12z m102 9 c0 -6 -5 -13 -10 -16 -15 -9 -43 3 -35 15 8 13 45 13 45 1z m-7880 -16 c0 -17 -2 -18 -24 -9 -23 9 -20 24 4 24 11 0 20 -7 20 -15z m7580 0 c0 -8 -9 -15 -20 -15 -11 0 -20 7 -20 15 0 8 9 15 20 15 11 0 20 -7 20 -15z m98 3 c-7 -19 -38 -22 -38 -4 0 10 9 16 21 16 12 0 19 -5 17 -12z m-7578 -24 c0 -9 -7 -14 -17 -12 -25 5 -28 28 -4 28 12 0 21 -6 21 -16z m98 -21 c2 -8 -5 -13 -17 -13 -21 0 -35 13 -24 24 10 10 36 3 41 -11z m90 -20 c2 -8 -5 -13 -17 -13 -12 0 -21 6 -21 16 0 18 31 15 38 -3z m100 -20 c2 -8 -5 -13 -17 -13 -12 0 -21 6 -21 16 0 18 31 15 38 -3z m86 -9 c22 -9 20 -24 -3 -24 -21 0 -34 13 -24 24 8 7 8 7 27 0z m3151 -64 c17 -33 66 -72 165 -130 138 -82 189 -147 198 -255 4 -54 7 -61 25 -61 11 1 22 -5 25 -13 3 -10 -2 -13 -22 -9 -31 6 -30 8 -45 -131 -6 -51 -12 -95 -14 -98 -7 -7 -196 65 -260 99 -34 18 -93 63 -130 101 -37 37 -74 67 -82 67 -17 0 -20 17 -5 22 7 2 5 19 -6 48 -26 70 -23 164 8 230 26 58 102 160 118 160 5 0 17 -14 25 -30z m-387 -85 c38 -32 48 -72 28 -118 -17 -42 -41 -57 -91 -57 -47 0 -71 13 -90 50 -52 101 66 198 153 125z m1622 -83 c16 -85 -11 -188 -72 -274 -19 -28 -19 -28 1 -28 23 0 28 -15 9 -26 -7 -4 -16 -1 -22 8 -8 14 -16 11 -52 -21 -93 -82 -212 -120 -398 -128 l-129 -6 8 77 c5 53 3 81 -5 91 -8 10 -8 15 3 22 8 4 22 33 30 63 20 69 65 140 107 170 54 38 113 50 257 50 142 0 182 9 217 49 25 27 33 18 46 -47z m3470 23 c0 -8 -9 -15 -20 -15 -20 0 -26 11 -13 23 12 13 33 7 33 -8z m-99 -20 c0 -13 -41 -19 -41 -7 0 11 20 22 33 18 5 -1 8 -6 8 -11z m-91 -24 c0 -5 -7 -12 -16 -15 -22 -9 -24 -8 -24 9 0 8 9 15 20 15 11 0 20 -4 20 -9z m-102 -23 c-7 -19 -38 -22 -38 -4 0 10 9 16 21 16 12 0 19 -5 17 -12z m-100 -20 c-3 -7 -11 -13 -18 -13 -7 0 -15 6 -17 13 -3 7 4 12 17 12 13 0 20 -5 18 -12z m-5805 -23 c-4 -15 -36 -12 -41 3 -3 9 3 13 19 10 13 -1 23 -7 22 -13z m5717 5 c0 -5 -11 -10 -25 -10 -14 0 -25 5 -25 10 0 6 11 10 25 10 14 0 25 -4 25 -10z m-5622 -18 c2 -7 -6 -12 -17 -12 -21 0 -27 11 -14 24 9 9 26 2 31 -12z m5520 0 c4 -14 -34 -16 -42 -3 -6 10 13 21 28 17 6 -1 12 -8 14 -14z m-5418 -18 c0 -9 -7 -14 -17 -12 -25 5 -28 28 -4 28 12 0 21 -6 21 -16z m98 -11 c2 -8 -5 -13 -17 -13 -12 0 -21 6 -21 16 0 18 31 15 38 -3z m576 -63 c11 0 16 -7 15 -17 -1 -10 1 -26 6 -35 10 -25 -2 -50 -22 -46 -17 3 -71 92 -93 153 -10 29 -10 29 33 -13 23 -23 51 -42 61 -42z m-476 48 c-3 -7 -11 -13 -18 -13 -7 0 -15 6 -17 13 -3 7 4 12 17 12 13 0 20 -5 18 -12z m97 -7 c3 -5 1 -13 -5 -16 -15 -9 -43 3 -35 15 8 13 32 13 40 1z m89 -7 c25 -9 19 -24 -9 -24 -24 0 -32 10 -18 23 8 8 8 8 27 1z m106 -24 c0 -5 -9 -10 -20 -10 -11 0 -20 5 -20 10 0 6 9 10 20 10 11 0 20 -4 20 -10z m-588 -104 c12 -22 -10 -50 -34 -41 -12 5 -68 121 -68 142 0 10 90 -79 102 -101z m688 96 c0 -14 -11 -21 -26 -15 -21 8 -17 23 6 23 11 0 20 -4 20 -8z m200 -28 c0 -9 -7 -14 -17 -12 -25 5 -28 28 -4 28 12 0 21 -6 21 -16z m100 -10 c0 -9 -7 -14 -17 -12 -25 5 -28 28 -4 28 12 0 21 -6 21 -16z m4657 -91 c20 -29 10 -55 -19 -51 -16 2 -28 18 -45 63 -38 99 -38 104 8 55 23 -25 48 -55 56 -67z m-4559 85 c-3 -7 -11 -13 -18 -13 -7 0 -15 6 -17 13 -3 7 4 12 17 12 13 0 20 -5 18 -12z m102 -7 c0 -6 -4 -12 -9 -15 -13 -8 -42 4 -35 15 7 12 44 12 44 0z m720 -51 c0 -5 -11 -10 -25 -10 -14 0 -25 5 -25 10 0 6 11 10 25 10 14 0 25 -4 25 -10z m1764 -11 c-7 -12 -44 -12 -44 0 0 5 6 11 13 14 17 6 38 -3 31 -14z m97 6 c0 -5 -9 -11 -21 -13 -20 -3 -27 8 -13 22 10 9 34 3 34 -9z m99 5 c0 -5 -9 -10 -20 -10 -11 0 -20 5 -20 10 0 6 9 10 20 10 11 0 20 -4 20 -10z m-492 -18 c2 -7 -7 -12 -22 -12 -27 0 -35 15 -13 23 17 7 30 3 35 -11z m97 9 c3 -5 1 -13 -5 -16 -15 -9 -43 3 -35 15 8 13 32 13 40 1z m98 -6 c-4 -15 -36 -12 -41 3 -3 9 3 13 19 10 13 -1 23 -7 22 -13z m-893 -10 c0 -8 -9 -15 -20 -15 -11 0 -20 7 -20 15 0 8 9 15 20 15 11 0 20 -7 20 -15z m100 0 c0 -8 -9 -15 -20 -15 -11 0 -20 7 -20 15 0 8 9 15 20 15 11 0 20 -7 20 -15z m100 0 c0 -8 -9 -15 -20 -15 -11 0 -20 7 -20 15 0 8 9 15 20 15 11 0 20 -7 20 -15z m100 6 c0 -6 -5 -13 -10 -16 -15 -9 -43 3 -35 15 8 13 45 13 45 1z m100 0 c0 -6 -5 -13 -10 -16 -15 -9 -43 3 -35 15 8 13 45 13 45 1z m100 0 c0 -6 -5 -13 -10 -16 -15 -9 -43 3 -35 15 8 13 45 13 45 1z m100 0 c0 -12 -21 -19 -37 -13 -22 8 -14 22 12 22 14 0 25 -4 25 -9z m-2743 -27 c2 -7 -16 -23 -41 -38 -64 -37 -91 -78 -121 -181 -20 -69 -28 -125 -34 -240 -9 -176 -28 -233 -104 -309 -104 -104 -256 -150 -524 -160 -131 -4 -151 3 -94 37 81 48 136 161 161 335 19 133 46 219 88 287 94 150 235 245 409 275 70 12 256 7 260 -6z m4591 -139 c46 -58 51 -88 16 -93 -17 -2 -25 6 -37 35 -22 55 -36 113 -29 113 4 0 27 -25 50 -55z m-1834 24 c53 -42 23 -122 -46 -122 -73 0 -93 105 -25 133 33 13 42 12 71 -11z m2245 -147 c53 -81 59 -116 18 -110 -14 2 -27 22 -47 78 -54 149 -51 153 29 32z m-5771 -72 c-2 -8 -14 -15 -28 -15 -20 0 -32 14 -67 75 -23 41 -42 79 -43 85 0 5 32 -22 70 -60 39 -39 69 -77 68 -85z m4700 -45 c-2 -12 -11 -20 -23 -20 -14 0 -25 16 -46 70 -14 39 -29 86 -33 105 -6 30 1 22 49 -50 30 -47 54 -94 53 -105z m-5522 28 c19 -27 12 -53 -15 -53 -15 0 -33 24 -70 94 -28 51 -51 97 -51 102 1 10 110 -106 136 -143z m1912 -18 c-2 -12 -11 -20 -23 -20 -20 0 -71 81 -94 150 -9 25 1 18 55 -40 43 -46 64 -77 62 -90z m2110 135 c91 -56 97 -182 13 -253 -46 -38 -101 -44 -158 -15 -58 29 -84 63 -90 120 -6 56 24 120 70 148 43 27 121 26 165 0z m582 -13 c0 -12 27 -76 61 -142 l61 -120 -4 -85 c-5 -137 -67 -243 -172 -298 -44 -22 -68 -27 -176 -32 -69 -3 -129 -3 -134 1 -4 4 12 27 37 51 58 56 67 90 67 263 0 126 3 145 24 190 13 28 39 64 57 81 48 45 162 123 171 118 5 -3 8 -15 8 -27z m1293 -110 c26 -40 47 -81 47 -90 0 -23 -28 -33 -45 -16 -15 16 -67 179 -57 179 4 0 28 -33 55 -73z m-4144 -203 c12 -15 21 -34 21 -44 0 -10 -9 -29 -21 -44 -40 -51 -129 -22 -129 43 0 65 89 96 129 45z m-1362 -161 c19 -28 11 -53 -17 -53 -16 0 -29 19 -60 86 -22 48 -40 90 -40 93 1 8 97 -96 117 -126z m220 55 c29 -27 29 -65 1 -95 -42 -45 -118 -15 -118 47 0 62 71 91 117 48z m596 -447 c50 -52 57 -63 47 -81 -19 -36 -34 -26 -82 55 -19 33 -41 70 -48 83 -10 21 -10 23 7 14 10 -6 44 -37 76 -71z m-1037 -42 c58 -71 62 -80 41 -98 -10 -8 -18 -7 -29 2 -14 11 -85 139 -102 181 -7 20 -7 20 14 1 12 -11 46 -49 76 -86z m4288 70 c56 -26 53 -105 -4 -129 -80 -33 -135 90 -56 128 28 14 31 14 60 1z m-3506 -219 c51 -31 74 -76 69 -136 -14 -189 -290 -179 -290 11 0 112 125 183 221 125z m-619 -286 c112 -20 201 -55 276 -108 130 -93 173 -190 195 -441 20 -221 44 -294 131 -389 61 -67 61 -67 -121 -62 -208 5 -329 42 -427 130 -104 94 -132 191 -109 375 27 206 17 289 -47 373 -31 40 -102 101 -128 110 -8 3 -10 11 -6 22 6 15 16 16 79 11 40 -4 111 -13 157 -21z m-175 -325 c52 -41 25 -119 -41 -119 -97 0 -94 134 3 139 6 1 23 -8 38 -20z m-766 -386 c-2 -11 -12 -18 -27 -18 -19 0 -32 17 -73 95 l-50 95 77 -77 c50 -50 75 -83 73 -95z m410 22 c-2 -12 -11 -20 -23 -20 -15 0 -29 19 -57 75 -20 41 -37 80 -37 85 0 6 27 -19 60 -55 37 -41 58 -72 57 -85z m-518 -468 c0 -26 -29 -33 -50 -11 -9 10 -39 60 -64 109 l-47 90 80 -85 c45 -47 81 -93 81 -103z" id="1"/>
<path d="M1342 8148 c-148 -17 -291 -96 -346 -191 -56 -97 -56 -185 0 -269 39 -57 39 -58 20 -58 -8 0 -27 16 -42 35 -25 33 -30 35 -86 35 -75 0 -121 -23 -181 -90 -60 -67 -86 -141 -69 -199 12 -40 61 -91 88 -91 8 0 14 -7 14 -15 0 -20 -18 -19 -64 5 -32 18 -43 19 -72 10 -40 -14 -119 -84 -110 -99 10 -15 100 -31 174 -31 80 0 166 19 245 55 62 27 96 24 57 -5 l-23 -17 21 -34 c83 -135 250 -202 442 -178 179 21 288 109 293 236 2 57 24 70 29 17 3 -36 6 -39 48 -52 93 -28 199 7 247 80 24 35 28 52 27 105 0 65 10 81 25 39 12 -29 33 -35 147 -43 76 -5 103 -2 161 16 179 54 293 195 202 250 -58 35 -219 39 -219 5 0 -18 -47 -71 -55 -62 -4 4 3 28 15 53 20 41 21 51 11 106 -18 105 -71 175 -171 225 -47 24 -69 29 -155 31 -84 3 -111 0 -165 -19 -72 -25 -67 -13 -54 -130 6 -50 4 -58 -10 -58 -12 0 -16 10 -16 43 -2 117 -88 229 -215 276 -62 23 -130 29 -213 19z" id="2"/>
<path d="M6654 7830 c-135 -27 -254 -143 -254 -247 0 -64 18 -79 102 -86 70 -5 158 -31 158 -46 0 -17 -13 -17 -63 0 -145 51 -352 -15 -412 -132 -87 -167 184 -326 386 -227 49 25 54 26 63 10 24 -45 88 -92 152 -112 117 -36 243 -23 361 36 76 39 115 86 111 133 -2 27 1 36 12 36 10 0 16 -12 18 -36 3 -34 6 -38 47 -48 65 -16 118 -13 179 10 73 27 147 106 173 186 20 58 20 58 67 65 62 9 138 47 147 75 13 36 -11 56 -75 61 -50 4 -60 2 -82 -19 -16 -15 -28 -19 -34 -13 -7 7 -4 16 10 29 29 26 25 52 -14 91 -24 24 -43 34 -64 34 -50 0 -62 -9 -62 -47 0 -49 -19 -38 -42 26 -25 65 -112 157 -183 192 -43 21 -64 24 -155 24 -94 0 -111 -3 -161 -28 -81 -39 -93 -55 -80 -105 11 -40 7 -72 -10 -72 -5 0 -9 12 -9 28 -1 77 -77 163 -162 182 -55 11 -66 11 -124 0z" id="3"/>
<path d="M3623 7497 c-49 -72 -66 -126 -61 -197 10 -130 100 -239 263 -316 146 -69 156 -68 77 13 -157 159 -242 329 -242 480 0 29 -3 53 -7 53 -5 0 -18 -15 -30 -33z" id="4"/>
<path d="M3680 7466 c0 -66 31 -172 72 -246 59 -106 228 -295 247 -275 5 6 14 58 20 116 21 192 -5 243 -179 349 -53 33 -107 71 -120 85 -13 14 -27 25 -32 25 -4 0 -8 -24 -8 -54z" id="5"/>
<path d="M3192 7457 c-38 -40 -25 -95 27 -116 23 -10 34 -10 53 0 51 27 61 69 27 113 -27 34 -77 36 -107 3z" id="6"/>
<path d="M4872 7359 c-50 -81 -136 -141 -244 -169 -99 -27 -189 -88 -268 -181 l-44 -52 95 6 c166 11 284 54 368 132 83 78 126 169 119 255 l-3 45 -23 -36z" id="7"/>
<path d="M4800 7369 c-19 -4 -91 -7 -160 -7 -100 2 -133 -2 -168 -16 -87 -37 -143 -141 -158 -294 l-7 -67 79 76 c97 92 123 108 245 149 104 35 177 82 211 138 22 35 19 36 -42 21z" id="8"/>
<path d="M2521 7024 c-122 -33 -250 -128 -320 -239 -43 -67 -77 -179 -91 -300 -13 -112 -37 -184 -80 -244 -17 -22 -30 -43 -30 -46 0 -10 93 37 148 74 105 72 212 199 255 304 9 20 28 81 42 134 14 54 36 116 49 138 29 49 105 125 166 165 l45 30 -65 -1 c-36 0 -89 -7 -119 -15z" id="9"/>
<path d="M2638 6973 c-85 -65 -134 -132 -159 -218 -48 -165 -62 -204 -100 -267 -22 -37 -65 -95 -96 -128 -56 -60 -188 -156 -230 -166 -13 -4 -23 -11 -23 -17 0 -6 29 -8 87 -3 236 18 387 95 454 232 31 62 33 74 40 218 8 170 31 271 79 349 16 26 25 47 20 47 -5 0 -37 -21 -72 -47z" id="10"/>
<path d="M5526 6924 c-9 -8 -16 -22 -16 -29 0 -17 27 -45 44 -45 19 0 36 22 36 45 0 41 -36 58 -64 29z" id="11"/>
<path d="M5135 6811 c-104 -48 -97 -192 11 -230 52 -18 88 -9 131 34 27 27 33 40 33 77 0 101 -86 160 -175 119z" id="12"/>
<path d="M5743 6742 c-66 -53 -100 -96 -113 -141 -6 -21 -10 -99 -10 -172 1 -138 -6 -178 -35 -223 -21 -31 -16 -32 34 -6 46 23 96 71 117 112 25 49 44 157 44 259 0 53 5 120 10 149 6 29 8 55 6 57 -2 2 -26 -14 -53 -35z" id="13"/>
<path d="M5815 6753 c-4 -10 -11 -90 -16 -178 -4 -93 -14 -182 -24 -212 -19 -63 -67 -129 -119 -163 l-39 -25 32 -3 c17 -2 56 4 87 13 108 31 191 144 202 271 5 73 -4 105 -68 225 -37 71 -49 87 -55 72z" id="14"/>
<path d="M2912 6488 c-28 -28 -3 -72 39 -66 30 4 47 33 33 56 -14 21 -55 27 -72 10z" id="15"/>
<path d="M1777 6382 c-10 -10 -17 -26 -17 -35 0 -15 35 -47 52 -47 11 0 48 38 48 50 0 15 -38 50 -53 50 -8 0 -21 -8 -30 -18z" id="16"/>
<path d="M5644 5939 c-13 -15 -16 -24 -8 -36 20 -32 41 -38 63 -19 26 23 26 38 3 59 -24 22 -35 21 -58 -4z" id="17"/>
<path d="M2042 5716 c-32 -30 -37 -40 -37 -79 0 -56 28 -96 78 -116 47 -17 82 -8 124 34 28 28 33 40 33 80 0 40 -5 52 -34 81 -29 29 -41 34 -80 34 -39 0 -52 -6 -84 -34z" id="18"/>
<path d="M1525 5411 c119 -59 205 -127 270 -213 65 -86 88 -141 124 -304 18 -76 45 -167 61 -201 30 -64 110 -153 137 -153 15 0 15 2 1 18 -54 60 -84 167 -102 362 -8 88 -24 184 -36 222 -51 165 -211 273 -454 307 -42 6 -83 11 -89 11 -7 0 33 -22 88 -49z" id="19"/>
<path d="M1494 5388 c66 -92 90 -189 75 -308 -32 -263 -23 -332 61 -423 88 -96 224 -147 394 -147 l90 0 -55 49 c-79 71 -113 141 -155 322 -19 87 -48 181 -66 218 -43 90 -175 222 -274 274 -84 43 -92 45 -70 15z" id="20"/>
<path d="M1334 5132 c-38 -26 -7 -90 39 -78 30 7 43 37 27 66 -11 20 -45 26 -66 12z" id="21"/>
<path d="M4040 6690 c-6 -11 -13 -49 -17 -85 -3 -36 -7 -65 -7 -65 -1 0 -27 24 -57 53 -42 41 -69 57 -123 75 -38 13 -70 21 -72 19 -2 -2 15 -23 38 -47 48 -51 123 -164 156 -236 20 -43 27 -50 47 -46 37 7 94 -17 169 -69 39 -27 76 -49 83 -49 7 0 24 21 38 48 14 26 30 54 37 63 22 32 -99 220 -203 313 -57 51 -73 56 -89 26z" id="22"/>
<path d="M4120 6706 c0 -2 25 -29 55 -60 60 -62 119 -144 158 -221 23 -46 30 -52 75 -64 38 -9 67 -28 121 -77 40 -35 76 -64 82 -64 6 0 20 11 31 25 11 15 30 25 44 25 32 0 29 11 -37 147 -34 69 -68 121 -108 165 -58 63 -59 63 -80 44 -11 -10 -29 -36 -38 -57 -9 -22 -21 -39 -25 -39 -5 0 -37 24 -72 54 -35 30 -83 65 -107 79 -45 26 -99 50 -99 43z" id="23"/>
<path d="M3711 6643 c-5 -21 -13 -51 -16 -68 -13 -58 -13 -59 -49 -27 -36 31 -132 59 -163 48 -29 -12 -6 -132 58 -312 29 -79 30 -81 72 -91 23 -6 65 -21 94 -33 69 -31 100 -19 155 64 22 34 55 76 71 94 l31 32 -28 56 c-55 113 -149 239 -197 265 -15 8 -20 3 -28 -28z" id="24"/>
<path d="M4571 6578 c55 -69 133 -216 150 -284 9 -36 23 -53 78 -97 88 -71 89 -72 109 -54 9 9 29 17 44 19 l27 3 -29 72 c-29 76 -115 223 -130 223 -5 0 -8 -19 -7 -41 3 -62 -17 -58 -54 11 -40 76 -95 139 -156 179 -79 52 -91 41 -32 -31z" id="25"/>
<path d="M7740 6570 c-349 -24 -629 -78 -884 -172 -132 -48 -370 -160 -381 -179 -18 -27 -7 -136 23 -244 17 -61 34 -127 38 -147 3 -21 12 -38 19 -38 7 0 51 18 99 40 343 159 796 239 1288 228 l217 -5 60 106 c65 117 147 236 223 324 33 38 45 59 36 62 -72 24 -527 39 -738 25z m-977 -370 c40 -45 37 -92 -8 -137 -32 -32 -40 -35 -76 -30 -48 6 -68 21 -86 65 -44 105 93 187 170 102z m1307 -50 c0 -5 -61 -9 -151 -9 -82 0 -154 -3 -160 -6 -5 -4 -15 -3 -21 2 -22 13 40 21 190 22 85 1 142 -3 142 -9z m-466 -22 c-15 -7 -28 -7 -40 1 -16 9 -12 10 21 10 35 0 37 -2 19 -11z m-144 -17 c-8 -5 -44 -12 -80 -15 -98 -11 -213 -38 -392 -93 -10 -3 -18 -1 -18 4 0 17 261 89 385 106 57 8 121 7 105 -2z m-659 -167 c-18 -8 -38 -13 -45 -11 -14 6 32 26 59 26 14 -1 10 -5 -14 -15z" id="26"/>
<path d="M6639 6191 c-51 -41 -17 -131 50 -131 65 0 95 89 45 129 -33 26 -65 27 -95 2z" id="27"/>
<path d="M3418 6524 c-13 -30 -23 -81 -27 -138 l-7 -91 -27 57 c-52 105 -118 128 -177 61 -31 -35 -32 -39 -26 -98 7 -73 36 -180 77 -286 27 -70 33 -79 65 -89 19 -7 41 -10 48 -7 7 3 35 43 61 89 26 45 70 104 97 130 l49 47 -40 118 c-22 65 -45 148 -52 186 -6 37 -13 67 -16 67 -2 0 -13 -21 -25 -46z" id="28"/>
<path d="M8438 6433 c-175 -216 -318 -503 -379 -761 l-20 -84 86 -81 c48 -44 102 -103 121 -131 21 -32 35 -45 38 -35 3 8 17 50 31 94 32 96 88 211 144 293 l41 61 -2 357 -3 357 -57 -70z m12 -598 c0 -3 -20 -32 -44 -65 -25 -33 -59 -91 -77 -128 -17 -37 -34 -62 -36 -55 -2 7 9 41 26 75 43 90 131 206 131 173z" id="29"/>
<path d="M4900 6380 c26 -44 60 -113 75 -154 24 -66 38 -85 116 -165 60 -61 93 -89 104 -85 8 3 15 9 15 13 0 18 -34 120 -53 156 -19 37 -20 38 -28 17 -12 -33 -36 -27 -43 11 -11 55 -53 134 -98 183 -42 46 -114 104 -129 104 -4 0 14 -36 41 -80z" id="30"/>
<path d="M6395 6385 c-118 -76 -227 -238 -261 -391 -22 -100 -14 -199 28 -364 33 -134 42 -268 20 -322 -19 -47 6 -31 31 20 44 86 51 140 41 317 -15 281 -12 380 14 465 27 87 82 185 142 253 23 26 41 49 39 51 -2 2 -27 -11 -54 -29z" id="31"/>
<path d="M6428 6351 c-75 -81 -129 -182 -154 -286 -14 -59 -15 -95 -8 -225 16 -284 12 -396 -14 -468 -13 -35 -21 -66 -18 -69 8 -8 121 83 165 134 22 27 55 77 73 113 27 54 33 79 36 151 4 77 0 105 -37 247 -53 208 -53 260 5 400 15 34 24 65 22 68 -3 3 -35 -27 -70 -65z" id="32"/>
<path d="M105 6365 c-5 -2 -31 -6 -57 -10 l-48 -6 0 -670 c0 -368 3 -669 6 -669 17 0 78 46 113 87 56 63 84 141 78 218 -2 33 -8 68 -12 79 -6 14 -4 17 11 14 12 -2 22 -18 29 -48 10 -41 14 -45 50 -54 72 -16 313 -12 385 8 157 42 332 159 390 259 79 138 1 227 -199 227 -124 0 -151 -8 -167 -45 -17 -42 -62 -95 -80 -95 -20 0 -18 8 15 46 37 41 51 90 51 175 0 73 -21 156 -53 209 -62 103 -203 215 -311 249 -60 18 -181 34 -201 26z" id="33"/>
<path d="M4362 6333 c-7 -3 -24 -27 -38 -54 -42 -84 -75 -84 -183 -2 -58 44 -70 42 -32 -6 37 -46 114 -190 131 -244 7 -21 19 -41 29 -44 9 -4 35 -19 57 -34 46 -31 54 -29 54 12 0 63 15 69 110 45 30 -8 57 -13 59 -10 8 8 -52 155 -95 230 -49 87 -73 114 -92 107z" id="34"/>
<path d="M3092 6262 c-16 -37 -35 -88 -42 -113 -19 -75 -21 -79 -34 -79 -6 0 -34 23 -61 50 -51 52 -91 64 -114 36 -27 -32 24 -319 86 -481 36 -98 82 -187 92 -181 5 3 12 36 16 73 11 110 35 213 64 278 29 63 79 115 112 115 24 0 24 4 -7 86 -14 37 -37 116 -51 174 -14 58 -26 106 -28 108 -1 1 -16 -28 -33 -66z" id="35"/>
<path d="M3967 6310 c-14 -11 -46 -52 -72 -90 -25 -38 -61 -78 -80 -90 l-35 -22 50 -97 c28 -54 66 -116 85 -137 l34 -39 1 49 0 49 56 -6 c30 -3 71 -15 90 -26 19 -12 39 -21 43 -21 5 0 12 28 17 63 l9 62 33 -3 c17 -1 32 1 32 6 0 22 -105 215 -145 265 -50 63 -75 71 -118 37z" id="36"/>
<path d="M4420 6325 c0 -3 11 -22 24 -43 40 -64 82 -154 106 -227 23 -68 70 -135 96 -135 7 0 16 9 19 20 3 11 18 23 31 26 21 5 33 -1 65 -32 27 -27 39 -33 39 -22 0 42 -86 245 -124 293 -15 19 -17 19 -27 3 -19 -32 -53 -20 -125 43 -67 59 -104 86 -104 74z" id="37"/>
<path d="M4736 6133 c30 -60 64 -147 76 -195 l23 -86 28 24 c38 32 50 31 100 -15 l42 -39 19 25 c14 19 17 34 11 69 -7 49 -80 204 -96 204 -6 0 -19 -5 -30 -10 -24 -14 -43 -4 -138 71 -40 33 -77 59 -81 59 -4 0 17 -48 46 -107z" id="38"/>
<path d="M5179 6142 c10 -21 27 -63 36 -95 13 -44 21 -57 36 -57 11 0 19 7 19 18 -1 41 -77 172 -101 172 -5 0 -1 -17 10 -38z" id="39"/>
<path d="M3538 6145 c-61 -41 -63 -53 -28 -157 41 -123 88 -208 124 -227 16 -9 44 -29 63 -45 18 -16 35 -27 36 -25 1 2 12 25 24 50 12 26 42 71 67 102 l45 56 -38 68 c-22 38 -46 84 -54 103 -12 30 -26 40 -90 68 -92 39 -102 39 -149 7z" id="40"/>
<path d="M5000 6063 c17 -31 37 -81 46 -110 l15 -52 40 26 c21 14 39 30 39 35 0 13 -145 158 -159 158 -6 0 2 -25 19 -57z" id="41"/>
<path d="M2803 6069 c-16 -38 -33 -167 -33 -255 0 -41 -3 -74 -6 -74 -3 0 -17 9 -31 20 -16 12 -41 20 -66 20 l-40 0 6 -97 c6 -94 28 -196 63 -283 19 -47 27 -49 42 -15 16 35 70 65 117 65 53 0 115 18 121 35 3 7 -10 49 -29 92 -66 151 -115 334 -130 483 l-3 35 -11 -26z" id="42"/>
<path d="M3453 6048 c-6 -7 -21 -33 -33 -58 -43 -87 -82 -108 -140 -75 -32 18 -71 19 -95 1 -17 -12 -18 -18 -7 -68 17 -75 102 -244 149 -297 l39 -44 27 26 c14 15 31 27 36 27 6 0 21 -18 33 -40 13 -22 26 -40 29 -40 8 0 109 247 109 266 0 9 -8 28 -19 42 -30 44 -52 92 -86 185 -24 66 -34 85 -42 75z" id="43"/>
<path d="M7525 6019 c-307 -29 -617 -107 -865 -217 l-104 -47 -12 -79 c-17 -109 -67 -208 -148 -289 -60 -62 -266 -207 -292 -207 -23 0 -26 21 -6 43 40 45 56 90 60 180 3 54 1 87 -6 87 -5 0 -51 -36 -101 -80 -96 -86 -213 -213 -306 -335 l-57 -74 21 -44 c15 -31 21 -63 21 -113 l0 -70 34 -12 c19 -7 37 -19 40 -28 4 -11 15 -14 41 -9 19 3 50 7 69 10 28 5 44 18 92 83 162 217 407 420 630 523 50 23 93 55 154 114 192 183 442 277 735 277 106 0 148 -5 226 -25 76 -20 186 -63 255 -99 3 -2 16 38 29 87 13 50 40 135 60 190 20 55 39 107 42 116 3 12 -5 18 -34 22 -53 9 -469 6 -578 -4z m-835 -616 c0 -5 -40 -21 -89 -36 -52 -16 -120 -48 -161 -74 -78 -50 -107 -53 -39 -3 56 40 152 86 220 104 65 18 69 18 69 9z m-460 -283 c0 -5 -9 -14 -20 -20 -22 -12 -27 -1 -8 18 14 14 28 16 28 2z m-90 -67 c0 -5 -27 -35 -61 -68 -33 -33 -84 -91 -112 -130 -28 -38 -52 -72 -54 -74 -2 -2 -6 -2 -9 2 -9 9 80 130 154 208 59 64 82 81 82 62z" id="44"/>
<path d="M4405 5938 c-12 -96 -11 -96 -64 -45 -69 68 -141 97 -154 64 -3 -8 -8 -39 -12 -71 -4 -31 -11 -59 -16 -61 -4 -3 -18 4 -30 16 -26 26 -96 58 -126 59 -21 0 -23 -4 -23 -60 0 -33 -3 -60 -7 -60 -4 0 -27 19 -51 43 l-43 42 -34 -40 c-39 -45 -90 -143 -100 -192 -8 -41 -21 -42 -30 -3 -8 38 -51 90 -73 90 -12 0 -33 -41 -77 -150 -33 -83 -63 -150 -67 -150 -5 0 -22 23 -39 50 -17 28 -35 50 -40 50 -19 0 -40 -71 -51 -175 -9 -85 -14 -105 -28 -105 -8 0 -24 14 -34 31 -10 16 -23 29 -29 27 -7 -2 -22 -25 -35 -50 -19 -39 -23 -61 -23 -140 1 -51 6 -111 11 -133 14 -58 14 -58 -32 -25 -64 46 -75 42 -83 -34 -8 -76 -1 -131 26 -182 10 -21 17 -39 15 -41 -2 -2 -23 6 -46 18 -41 22 -43 22 -56 4 -8 -10 -14 -26 -14 -34 1 -43 33 -161 60 -219 16 -35 30 -66 30 -67 0 -2 -15 1 -32 6 -59 16 -68 13 -68 -26 0 -43 23 -90 84 -170 l45 -60 -47 -5 c-45 -5 -47 -6 -44 -35 5 -44 45 -107 98 -154 26 -23 51 -41 55 -41 26 0 2 -23 -47 -45 -38 -17 -53 -28 -48 -37 24 -43 79 -97 123 -123 52 -31 71 -63 29 -51 -92 27 -107 16 -64 -43 43 -58 60 -64 139 -57 40 4 75 10 79 14 3 4 -7 66 -23 137 -133 584 -125 963 28 1335 132 322 346 530 654 638 344 121 739 54 1025 -172 222 -175 464 -557 650 -1026 58 -148 77 -180 101 -180 10 0 13 18 13 71 0 77 -12 111 -38 108 -37 -3 -39 1 -44 106 -4 73 -11 113 -22 130 -19 28 -41 33 -50 9 -14 -37 -26 4 -26 94 0 112 -13 142 -59 142 -28 0 -28 1 -35 78 -11 134 -28 154 -69 85 l-22 -38 -6 117 c-4 84 -10 123 -22 142 -22 33 -62 44 -86 22 -36 -33 -51 -21 -52 42 -1 66 -18 121 -43 136 -14 9 -23 5 -47 -23 -34 -37 -41 -34 -59 24 -21 66 -71 166 -86 172 -8 3 -23 -2 -34 -12 -28 -25 -44 -14 -80 53 -38 72 -82 117 -105 108 -9 -3 -24 -24 -33 -46 -9 -22 -19 -40 -22 -40 -3 0 -18 23 -35 50 -16 28 -44 64 -62 82 -27 26 -35 29 -48 18 -8 -7 -15 -23 -15 -36 0 -36 -26 -30 -80 19 -29 26 -69 50 -100 60 -82 27 -87 25 -95 -35z" id="45"/>
<path d="M6025 5928 c-194 -156 -317 -283 -401 -413 l-41 -64 5 -128 c3 -89 9 -133 18 -144 8 -9 19 -53 25 -100 5 -46 11 -85 12 -86 2 -1 40 48 86 108 83 110 256 293 363 385 l57 49 -25 100 c-17 65 -27 141 -31 218 -3 64 -9 117 -12 116 -3 0 -28 -18 -56 -41z m5 -436 c-30 -26 -92 -83 -137 -126 -46 -44 -86 -76 -90 -72 -14 13 243 247 270 246 7 -1 -13 -22 -43 -48z m-292 -302 c-20 -27 -38 -39 -38 -24 0 13 36 53 48 54 8 0 5 -11 -10 -30z" id="46"/>
<path d="M5175 5935 c-57 -27 -68 -36 -112 -88 -35 -41 -41 -72 -19 -102 13 -18 15 -16 34 22 55 107 214 168 302 116 91 -53 93 -238 4 -334 -21 -22 -23 -30 -14 -54 l11 -28 23 22 c13 12 36 47 52 79 68 134 31 318 -76 372 -56 29 -141 27 -205 -5z" id="47"/>
<path d="M5258 5883 c-14 -2 -38 -15 -53 -29 -14 -13 -33 -24 -42 -24 -12 0 -13 -3 -4 -14 8 -10 9 -16 1 -21 -5 -3 -10 2 -10 12 -1 14 -7 11 -31 -16 l-31 -34 30 -13 c17 -7 38 -26 46 -43 11 -20 21 -28 31 -25 8 4 15 2 15 -4 0 -6 -5 -12 -10 -14 -7 -2 -6 -15 3 -38 8 -19 17 -43 20 -53 7 -18 8 -18 37 0 16 9 30 23 30 30 0 7 5 13 11 13 6 0 9 -6 7 -12 -6 -17 39 -51 56 -45 8 3 26 31 41 61 22 46 25 59 15 71 -9 10 -9 15 -1 15 14 0 15 69 1 105 -5 14 -18 35 -28 46 -18 18 -75 41 -97 38 -5 -1 -22 -4 -37 -6z" id="48"/>
<path d="M3124 5835 c-28 -67 -53 -182 -56 -256 l-3 -71 70 -3 c75 -4 140 -23 185 -55 l28 -20 6 25 c5 21 -3 37 -40 82 -51 63 -112 178 -139 263 -24 75 -32 80 -51 35z" id="49"/>
<path d="M2581 5724 c-39 -85 -35 -276 8 -415 11 -32 16 -59 12 -59 -4 0 -20 14 -36 30 -18 19 -39 30 -56 30 -45 0 -51 -18 -34 -106 27 -141 87 -296 159 -408 l37 -57 35 30 c19 17 41 31 49 31 18 0 19 13 5 60 -34 114 -53 234 -55 355 -3 115 -6 137 -30 194 -32 75 -65 225 -65 294 0 52 -11 60 -29 21z" id="50"/>
<path d="M8459 5675 c-58 -94 -88 -159 -120 -257 -34 -105 -36 -135 -10 -186 24 -48 57 -152 71 -225 l12 -59 44 76 44 76 -2 317 -3 318 -36 -60z" id="51"/>
<path d="M4260 5705 c-149 -28 -322 -100 -435 -180 -73 -51 -188 -171 -242 -251 -60 -88 -130 -233 -168 -348 -111 -334 -111 -640 1 -1166 19 -91 37 -171 40 -179 3 -10 16 2 38 34 l32 49 -27 138 c-57 278 -77 526 -60 713 56 589 339 981 800 1107 112 31 333 31 451 -1 100 -26 247 -94 334 -153 256 -174 457 -463 656 -944 48 -117 68 -154 86 -163 16 -7 24 -7 24 0 0 21 -105 270 -179 424 -309 641 -646 915 -1141 930 -92 3 -159 0 -210 -10z" id="52"/>
<path d="M7390 5699 c-161 -19 -358 -93 -486 -184 -219 -157 -346 -427 -314 -670 27 -201 185 -388 384 -455 89 -29 139 -28 211 5 l60 28 -57 13 c-125 29 -212 93 -260 192 -31 62 -33 74 -33 167 0 87 4 107 26 155 103 218 393 358 635 307 239 -51 394 -243 394 -488 0 -199 -94 -387 -285 -568 -249 -235 -595 -381 -962 -407 l-103 -7 0 -31 c0 -17 -3 -68 -6 -112 l-7 -81 39 -8 c22 -4 107 -26 191 -50 147 -43 154 -44 235 -35 129 14 351 87 522 172 483 241 788 657 813 1108 27 502 -284 893 -757 950 -95 11 -132 11 -240 -1z m281 -394 c72 -29 189 -110 189 -131 0 -9 -20 2 -54 30 -57 46 -145 92 -196 103 -17 3 -33 10 -36 14 -10 17 36 9 97 -16z m-367 6 c3 -5 -5 -11 -19 -13 -24 -5 -32 2 -18 15 9 10 31 9 37 -2z m910 -36 c18 -28 21 -45 6 -45 -5 0 -10 6 -10 14 0 7 -7 19 -15 26 -8 7 -15 16 -15 21 0 17 18 9 34 -16z m-1046 -11 c-13 -12 -78 -33 -78 -24 0 12 61 39 73 33 5 -3 7 -7 5 -9z m-152 -96 c-15 -18 -48 -64 -73 -102 -26 -37 -49 -63 -51 -56 -8 22 117 190 140 190 6 0 -1 -15 -16 -32z m1267 -75 c24 -86 37 -170 37 -230 0 -85 -16 -53 -23 44 -5 77 -12 114 -43 221 -3 12 -2 22 4 22 5 0 16 -26 25 -57z m-363 -9 c0 -8 -4 -12 -10 -9 -5 3 -10 10 -10 16 0 5 5 9 10 9 6 0 10 -7 10 -16z m-1070 -210 c0 -21 -4 -33 -10 -29 -17 10 -11 65 7 65 2 0 3 -16 3 -36z m1470 -219 c0 -14 -4 -25 -10 -25 -11 0 -14 33 -3 43 11 11 13 8 13 -18z m-45 -197 c-11 -41 -94 -202 -119 -233 -42 -52 -37 -23 9 49 25 37 57 99 72 137 26 65 52 96 38 47z m-500 -633 c-49 -42 -220 -138 -236 -133 -7 2 31 28 84 57 52 29 111 66 129 82 18 15 40 28 48 28 8 0 -2 -15 -25 -34z m-280 -165 c-3 -5 -13 -10 -21 -10 -8 0 -12 5 -9 10 3 6 13 10 21 10 8 0 12 -4 9 -10z m-105 -20 c0 -22 -173 -80 -282 -96 -81 -11 -54 11 30 25 58 10 191 52 250 80 1 0 2 -4 2 -9z" id="53"/>
<path d="M4340 5624 c-62 -11 -160 -37 -160 -43 0 -4 18 -25 40 -46 45 -44 126 -157 159 -222 14 -29 34 -49 62 -64 23 -11 42 -19 44 -17 1 2 10 17 19 35 15 30 14 36 -8 115 -14 46 -40 119 -59 163 -35 83 -41 88 -97 79z" id="54"/>
<path d="M4455 5549 c19 -45 46 -119 60 -166 22 -76 50 -121 77 -123 23 -1 29 50 24 198 -5 181 4 169 -123 171 l-72 1 34 -81z" id="55"/>
<path d="M4634 5599 c-10 -16 6 -282 18 -296 18 -22 28 -14 28 20 0 26 23 143 47 243 4 17 -2 24 -28 33 -40 14 -56 14 -65 0z" id="56"/>
<path d="M4745 5547 c-34 -82 -50 -200 -50 -382 0 -190 8 -283 28 -308 7 -8 30 -17 52 -21 l40 -5 -3 48 c-12 166 84 293 232 308 122 13 266 -88 266 -186 0 -33 -13 -24 -35 22 -20 42 -100 107 -132 107 -10 0 -7 -10 13 -32 36 -44 54 -89 54 -138 0 -173 -213 -245 -331 -112 l-39 45 0 -40 c0 -32 5 -42 24 -51 13 -6 39 -24 57 -40 33 -29 37 -30 134 -29 119 1 174 -11 319 -70 77 -31 129 -46 177 -50 40 -3 69 -2 69 3 0 17 -146 309 -190 379 -118 189 -274 363 -409 454 -56 38 -237 131 -255 131 -4 0 -13 -15 -21 -33z m136 -73 c32 -20 59 -40 59 -44 0 -12 -75 -77 -108 -94 -28 -15 -31 -14 -44 7 -20 32 -38 76 -38 93 0 21 41 74 58 74 8 0 41 -16 73 -36z" id="57"/>
<path d="M4797 5462 c-21 -23 -21 -35 -2 -73 l16 -30 30 18 c17 10 37 25 45 34 13 14 10 19 -26 43 -47 31 -43 30 -63 8z" id="58"/>
<path d="M4065 5539 c-78 -40 -125 -69 -125 -78 0 -4 21 -17 48 -30 74 -36 171 -104 243 -169 37 -35 80 -64 101 -70 l36 -10 10 39 c9 36 7 44 -37 119 -63 109 -165 230 -194 230 -12 -1 -49 -14 -82 -31z" id="59"/>
<path d="M5475 5527 c-6 -7 -14 -17 -17 -23 -11 -18 12 -96 37 -126 28 -33 32 -45 45 -138 7 -53 8 -39 6 80 -2 104 -8 156 -19 183 -16 38 -34 46 -52 24z" id="60"/>
<path d="M3028 5465 c-93 -25 -168 -92 -189 -167 -15 -57 3 -165 38 -230 31 -57 94 -118 152 -148 46 -23 61 -20 61 13 0 15 -11 29 -35 41 -20 11 -52 35 -71 54 -150 146 -56 386 151 385 61 0 152 -30 176 -59 18 -22 29 -16 29 16 0 25 -8 35 -46 60 -76 48 -173 61 -266 35z" id="61"/>
<path d="M5402 5447 c-33 -35 -29 -50 11 -42 40 9 39 8 31 39 -8 32 -14 32 -42 3z" id="62"/>
<path d="M3858 5402 c-45 -39 -118 -116 -118 -124 0 -3 24 -8 54 -12 83 -9 222 -53 325 -102 51 -24 108 -44 126 -44 29 0 33 4 38 33 4 28 -1 37 -47 81 -93 88 -277 206 -320 206 -8 0 -34 -17 -58 -38z" id="63"/>
<path d="M2801 5411 c-9 -6 -11 -20 -6 -50 6 -38 25 -58 25 -27 0 8 11 28 25 44 14 17 25 33 25 36 0 9 -53 7 -69 -3z" id="64"/>
<path d="M3095 5391 c-65 -11 -146 -71 -137 -103 1 -3 -5 -12 -13 -18 -10 -8 -15 -32 -15 -70 0 -68 7 -90 27 -90 9 0 12 -6 9 -18 -6 -19 21 -50 82 -91 31 -22 34 -22 52 -6 15 13 28 15 61 10 31 -5 40 -4 34 5 -16 26 -6 184 17 247 18 53 26 63 50 69 21 4 35 1 49 -12 11 -9 19 -12 19 -6 0 26 -142 96 -184 91 -6 -1 -29 -4 -51 -8z" id="65"/>
<path d="M2749 5343 c-32 -79 -15 -290 36 -466 32 -107 32 -107 -10 -107 -52 0 -55 -22 -14 -99 55 -104 203 -291 230 -291 4 0 9 12 11 28 2 22 8 28 36 30 17 2 32 5 32 7 0 3 -11 39 -25 81 -32 93 -37 184 -12 212 16 18 14 23 -48 118 -35 54 -76 113 -89 130 -46 57 -74 128 -92 229 -9 55 -19 112 -21 128 -3 15 -9 27 -14 27 -5 0 -14 -12 -20 -27z" id="66"/>
<path d="M6575 5277 c-124 -65 -229 -142 -345 -254 -90 -86 -227 -244 -238 -272 -1 -4 57 -11 130 -14 221 -10 310 -36 350 -103 l20 -35 52 48 c28 26 51 50 50 53 -1 16 -17 60 -21 60 -3 0 -16 -9 -30 -20 -40 -32 -52 -22 -13 10 l34 30 -2 123 c-3 138 14 221 71 337 18 36 34 68 35 73 7 14 -13 6 -93 -36z m-140 -301 c95 -95 -31 -237 -133 -151 -76 64 -34 174 66 175 32 0 49 -6 67 -24z" id="67"/>
<path d="M6344 4970 c-26 -10 -54 -48 -54 -71 0 -33 39 -69 76 -69 56 0 89 50 68 105 -5 13 -55 47 -66 44 -2 0 -13 -4 -24 -9z" id="68"/>
<path d="M4627 5273 c-2 -5 -7 -21 -11 -37 l-7 -30 -25 32 c-14 18 -33 32 -43 32 -18 0 -41 -37 -41 -65 0 -21 -8 -19 -42 10 -48 40 -68 30 -68 -35 l0 -29 -35 15 c-46 19 -55 12 -55 -38 0 -35 -2 -40 -20 -35 -33 8 -22 -6 23 -33 23 -14 96 -78 161 -142 77 -76 123 -115 130 -109 6 5 31 16 56 24 33 11 44 20 43 34 -1 10 -7 59 -13 110 -5 51 -10 134 -10 186 0 59 -4 97 -12 105 -14 14 -25 15 -31 5z" id="69"/>
<path d="M2424 5224 c-15 -83 18 -250 72 -356 35 -69 34 -71 -41 -63 -37 4 -65 3 -65 -2 0 -23 55 -167 95 -250 45 -91 158 -269 212 -331 21 -24 33 -31 50 -26 l21 6 -20 46 c-28 62 -67 256 -75 371 -6 85 -10 99 -40 145 -78 117 -163 329 -179 449 -8 56 -20 61 -30 11z" id="70"/>
<path d="M3714 5243 c-18 -14 -70 -96 -106 -168 -49 -97 -86 -202 -113 -323 l-24 -103 29 -70 c15 -38 44 -89 64 -113 31 -39 106 -97 139 -109 7 -2 9 -8 5 -12 -12 -12 -91 40 -141 94 -27 28 -59 75 -72 103 -33 72 -39 51 -40 -155 0 -193 -4 -184 94 -213 139 -41 304 -25 441 43 63 31 96 58 220 183 105 106 159 152 196 170 47 22 53 28 68 77 9 29 33 73 52 98 l35 46 -48 56 c-93 109 -238 220 -382 293 -139 70 -381 130 -417 103z m211 -105 c34 -72 32 -83 -12 -96 -62 -18 -143 -26 -143 -14 0 15 30 145 36 154 3 4 25 8 50 8 44 0 45 -1 69 -52z m265 -261 c84 -35 216 -133 209 -155 -2 -7 -29 5 -67 30 -34 22 -64 39 -66 37 -2 -2 1 -27 7 -56 26 -127 -60 -226 -198 -226 -71 0 -109 17 -155 70 l-33 37 7 -62 c4 -37 3 -62 -3 -62 -16 0 -32 61 -38 141 -5 67 -3 83 19 131 56 122 186 169 318 115z m-380 -579 c0 -13 -23 -5 -28 10 -2 7 2 10 12 6 9 -3 16 -11 16 -16z" id="71"/>
<path d="M3825 5148 c-15 -48 -22 -89 -15 -93 11 -7 90 10 100 22 5 4 1 25 -7 46 -13 31 -20 37 -44 37 -16 0 -31 -6 -34 -12z" id="72"/>
<path d="M4003 4834 c-37 -19 -46 -39 -46 -109 0 -95 75 -190 149 -188 40 1 90 28 116 64 48 64 27 178 -40 224 -44 30 -128 34 -179 9z m176 -40 c23 -16 51 -70 51 -98 0 -17 -13 -22 -81 -31 -54 -7 -54 -6 -66 25 -10 28 -9 36 15 75 29 48 45 54 81 29z m41 -162 c0 -24 -75 -72 -114 -72 -31 0 -39 12 -27 44 9 22 17 25 63 29 29 2 59 4 66 5 6 1 12 -2 12 -6z" id="73"/>
<path d="M4113 4751 c-18 -32 -20 -41 -10 -56 11 -14 22 -16 61 -10 45 7 47 9 41 34 -7 29 -42 71 -59 71 -6 0 -21 -18 -33 -39z" id="74"/>
<path d="M4096 4595 c-7 -20 33 -20 60 0 18 13 17 14 -17 15 -24 0 -39 -5 -43 -15z" id="75"/>
<path d="M3917 4753 c-9 -18 -17 -42 -17 -55 1 -36 35 -102 65 -126 40 -32 51 -27 23 11 -35 46 -41 64 -47 137 l-6 65 -18 -32z" id="76"/>
<path d="M7330 5224 c-161 -34 -313 -145 -374 -273 -42 -89 -48 -198 -16 -283 69 -184 341 -275 502 -168 117 78 131 246 28 333 -79 67 -205 30 -247 -71 -10 -24 -18 -31 -25 -24 -7 7 -4 24 12 56 24 50 77 88 139 101 70 15 159 -33 197 -107 19 -36 29 -115 20 -161 -16 -83 -101 -166 -193 -188 -27 -7 -91 -31 -144 -55 -185 -84 -389 -138 -569 -151 l-92 -6 6 -46 c3 -25 8 -84 11 -131 3 -47 8 -105 11 -129 l6 -44 116 6 c102 6 211 23 273 42 11 4 19 2 19 -3 0 -21 -222 -62 -342 -62 -61 0 -68 -2 -68 -20 0 -17 7 -20 49 -20 88 0 275 29 378 59 445 128 803 436 878 755 17 71 19 192 4 255 -17 77 -61 154 -119 212 -118 119 -280 162 -460 123z m534 -366 c8 -32 6 -99 -4 -123 -11 -25 -11 -25 -13 68 -2 76 5 98 17 55z m-874 -145 c6 -23 22 -56 37 -73 29 -35 24 -53 -7 -25 -24 21 -60 115 -59 153 0 24 1 25 9 7 5 -11 14 -39 20 -62z m488 -115 c-2 -6 -10 -14 -16 -16 -7 -2 -10 2 -6 12 7 18 28 22 22 4z m-358 -48 c8 -5 11 -12 7 -16 -4 -4 -15 0 -24 9 -18 18 -8 23 17 7z m308 -2 c-2 -6 -20 -19 -38 -30 -38 -20 -164 -26 -175 -8 -4 6 21 10 67 10 55 0 80 5 103 19 35 23 48 26 43 9z m412 3 c0 -6 -4 -13 -10 -16 -5 -3 -10 1 -10 9 0 9 5 16 10 16 6 0 10 -4 10 -9z m-62 -106 c-48 -68 -143 -175 -156 -175 -7 0 16 33 52 74 35 41 77 93 92 116 16 23 30 37 32 30 2 -6 -7 -27 -20 -45z m-228 -254 c0 -13 -26 -32 -33 -24 -8 7 11 33 24 33 5 0 9 -4 9 -9z m-110 -78 c0 -17 -150 -103 -221 -128 -63 -22 -45 0 24 29 34 14 89 44 122 65 62 41 75 46 75 34z m-345 -173 c-3 -5 -13 -10 -21 -10 -8 0 -12 5 -9 10 3 6 13 10 21 10 8 0 12 -4 9 -10z" id="77"/>
<path d="M4992 5127 c-18 -6 -47 -23 -63 -38 -24 -22 -29 -35 -29 -73 0 -58 22 -111 62 -153 36 -37 48 -41 48 -15 0 35 23 49 89 56 63 6 63 6 49 -16 -19 -28 -75 -58 -113 -59 -30 0 -30 0 -6 -10 69 -28 151 49 151 141 0 68 -38 128 -102 161 -41 21 -40 21 -86 6z m108 -52 c33 -17 60 -61 60 -99 0 -31 -2 -32 -72 -40 -57 -7 -58 -7 -69 21 -9 24 -6 36 18 80 15 29 29 53 31 53 2 0 16 -7 32 -15z" id="78"/>
<path d="M5051 5027 c-13 -21 -18 -42 -14 -56 5 -20 10 -22 42 -17 20 3 42 6 49 6 19 0 14 45 -9 74 -27 34 -43 33 -68 -7z" id="79"/>
<path d="M8458 4965 c-33 -65 -38 -85 -38 -143 0 -458 -273 -887 -732 -1151 -163 -94 -413 -191 -572 -223 l-70 -14 115 -56 c138 -66 205 -108 294 -183 36 -31 68 -55 70 -53 2 1 30 44 63 94 166 252 461 528 779 726 60 37 114 71 121 75 10 6 12 111 10 506 l-3 498 -37 -76z" id="80"/>
<path d="M4867 5004 c-25 -26 5 -117 52 -157 42 -35 62 -35 29 1 -32 34 -48 65 -62 120 -6 24 -15 40 -19 36z" id="81"/>
<path d="M2974 4903 c12 -29 100 -143 111 -143 9 0 9 14 2 53 -9 52 -11 54 -64 80 -43 21 -54 23 -49 10z" id="82"/>
<path d="M5035 4869 c-11 -16 1 -21 34 -14 44 9 48 25 7 25 -19 0 -38 -5 -41 -11z" id="83"/>
<path d="M4670 4821 c-51 -16 -89 -41 -124 -82 -41 -49 -73 -133 -58 -152 15 -18 115 -52 119 -41 12 37 45 82 73 102 53 36 140 25 179 -22 8 -9 17 -16 22 -16 13 0 59 72 59 92 0 61 -189 145 -270 119z" id="84"/>
<path d="M2370 4713 c0 -118 62 -288 144 -395 20 -26 36 -51 36 -57 0 -19 -20 -22 -42 -7 -22 15 -58 22 -58 11 0 -13 47 -96 93 -164 52 -78 204 -241 192 -206 -4 11 -16 44 -26 72 -20 56 -25 146 -10 186 8 21 2 35 -50 102 -106 139 -208 325 -253 463 -10 28 -19 52 -22 52 -2 0 -4 -26 -4 -57z" id="85"/>
<path d="M2703 4623 c11 -173 61 -371 112 -442 31 -44 18 -61 -23 -31 -36 26 -59 21 -68 -15 -12 -50 114 -216 236 -310 64 -49 197 -125 219 -125 10 0 4 12 -16 33 -32 34 -83 107 -83 118 0 4 20 15 45 25 25 9 45 20 45 23 0 4 -16 23 -36 42 -56 53 -94 126 -94 181 0 45 1 47 31 50 l31 3 -32 40 c-18 22 -41 58 -51 81 -10 22 -50 73 -88 113 -69 71 -162 200 -197 274 -29 61 -38 45 -31 -60z" id="86"/>
<path d="M4998 4711 c-20 -4 -38 -23 -63 -65 -31 -52 -34 -63 -26 -94 12 -40 -3 -85 -38 -116 -26 -24 -26 -36 -1 -69 18 -22 24 -25 49 -16 52 18 82 61 90 127 7 62 23 92 47 92 19 0 18 -10 -3 -25 -11 -8 -19 -33 -23 -71 -4 -33 -10 -66 -14 -75 -5 -11 3 -20 29 -32 19 -9 74 -54 121 -99 67 -65 87 -79 95 -68 5 8 9 18 9 21 0 4 23 29 51 58 57 58 125 96 200 112 l51 11 -34 29 -33 29 44 39 44 39 -42 26 c-46 29 -43 28 -187 85 -153 60 -282 82 -366 62z m232 -69 c0 -9 -58 -32 -80 -32 -20 0 -3 13 33 27 40 14 47 15 47 5z m5 -92 c4 -6 -15 -10 -49 -10 -31 0 -56 5 -56 10 0 6 22 10 49 10 28 0 53 -4 56 -10z m-65 -70 c55 -28 50 -45 -5 -18 -25 12 -45 26 -45 30 0 12 7 10 50 -12z" id="87"/>
<path d="M5865 4692 c-44 -8 -42 1 -37 -125 2 -49 4 -53 32 -64 42 -16 53 -52 47 -156 -6 -96 4 -137 34 -137 32 0 292 138 363 192 38 29 84 75 103 102 61 89 37 145 -74 173 -63 16 -398 26 -468 15z" id="88"/>
<path d="M6550 4614 c-33 -36 -41 -51 -37 -72 2 -15 15 -84 28 -154 l24 -128 55 0 c92 0 306 39 388 71 27 11 26 11 -28 28 -132 42 -248 127 -321 234 -24 37 -49 67 -55 67 -6 0 -30 -21 -54 -46z" id="89"/>
<path d="M4685 4616 l-30 -24 28 -11 c44 -17 74 -13 91 11 25 36 20 48 -21 48 -25 0 -48 -8 -68 -24z" id="90"/>
<path d="M4805 4587 c-8 -20 -15 -43 -15 -51 0 -22 31 -96 39 -96 12 0 48 44 55 67 8 25 -11 69 -43 97 -21 19 -21 19 -36 -17z" id="91"/>
<path d="M5588 4562 l34 -28 -46 -36 -47 -36 38 -30 c26 -20 55 -32 91 -37 28 -4 52 -3 52 2 -1 4 -17 49 -38 98 l-37 90 -40 3 -40 2 33 -28z" id="92"/>
<path d="M4410 4553 c-19 -9 -102 -83 -185 -164 -154 -150 -196 -183 -276 -213 -34 -13 -52 -28 -68 -56 -29 -52 -27 -60 17 -60 21 0 47 -6 57 -14 17 -12 18 -18 7 -53 -16 -54 -17 -53 21 -42 17 5 68 12 112 15 142 11 262 -28 355 -115 50 -47 52 -48 65 -27 23 38 34 88 50 228 8 75 16 142 17 149 2 6 -15 17 -37 23 -22 7 -64 25 -93 40 -36 18 -60 24 -78 20 -23 -6 -25 -4 -22 16 7 47 31 48 125 3 48 -23 98 -45 110 -48 26 -7 126 17 190 45 41 18 44 22 41 52 l-3 33 -62 2 c-78 2 -108 21 -130 82 -15 45 -19 48 -88 74 -84 32 -80 31 -125 10z m-200 -278 c0 -5 -95 -55 -105 -55 -15 0 9 22 43 40 36 19 62 25 62 15z m5 -94 c-21 -28 -42 -48 -47 -45 -9 6 1 20 51 76 40 45 37 23 -4 -31z m112 15 c-3 -8 -11 -33 -17 -55 -6 -23 -16 -41 -21 -41 -6 0 -9 6 -6 14 3 8 11 33 17 55 6 23 16 41 21 41 6 0 9 -6 6 -14z" id="93"/>
<path d="M4644 4545 c-11 -27 6 -81 32 -106 18 -17 36 -23 65 -23 22 1 42 4 45 7 10 10 -16 74 -39 94 -18 16 -76 43 -94 43 -2 0 -6 -7 -9 -15z" id="94"/>
<path d="M6460 4511 c0 -5 -23 -35 -51 -65 -66 -73 -185 -151 -342 -226 l-125 -60 13 -42 c15 -53 16 -52 149 14 139 70 259 149 328 218 60 60 65 74 52 139 -6 28 -24 45 -24 22z" id="95"/>
<path d="M1313 4370 c-484 -38 -907 -210 -1240 -507 l-73 -65 0 -80 0 -80 75 70 c54 51 102 84 177 121 139 70 222 91 386 98 155 7 248 -5 374 -48 l87 -30 58 20 c129 43 228 56 443 55 215 0 310 -12 455 -55 39 -11 79 -23 91 -25 14 -4 42 9 86 40 36 25 100 62 142 82 42 20 76 40 76 44 0 4 -9 27 -19 51 -11 24 -25 74 -32 111 l-12 67 -111 30 c-314 86 -672 123 -963 101z m917 -166 c82 -49 77 -174 -9 -219 -107 -55 -226 70 -165 174 34 58 116 79 174 45z m-640 -214 c0 -5 -4 -10 -9 -10 -6 0 -13 5 -16 10 -3 6 1 10 9 10 9 0 16 -4 16 -10z m329 -14 c29 -8 56 -17 59 -20 13 -14 -8 -14 -53 0 -28 8 -85 18 -128 21 -43 3 -80 11 -84 16 -8 14 136 2 206 -17z m-470 9 c-3 -2 -45 -9 -95 -15 -81 -9 -172 -28 -216 -45 -11 -4 -18 -3 -18 4 0 11 71 35 151 50 47 9 186 14 178 6z m651 -55 c0 -5 -4 -10 -9 -10 -6 0 -13 5 -16 10 -3 6 1 10 9 10 9 0 16 -4 16 -10z" id="96"/>
<path d="M2096 4159 c-36 -43 -35 -91 3 -130 22 -21 39 -29 66 -29 27 0 44 8 66 29 38 39 39 87 3 130 -21 26 -33 31 -69 31 -36 0 -48 -5 -69 -31z" id="97"/>
<path d="M6461 4339 c-18 -21 -60 -58 -92 -82 -32 -23 -59 -44 -59 -47 0 -3 20 -13 44 -23 58 -24 120 -78 153 -134 35 -61 44 -184 18 -262 -20 -61 -91 -144 -149 -173 -22 -11 -42 -21 -43 -23 -2 -1 17 -22 40 -47 72 -74 92 -126 92 -238 0 -81 -4 -102 -25 -145 -32 -64 -92 -124 -155 -154 -64 -31 -181 -39 -241 -19 l-42 15 5 -121 c5 -114 -3 -182 -33 -283 -5 -19 -2 -23 15 -23 38 0 97 -38 143 -90 l44 -50 63 105 c63 106 154 297 167 351 l7 29 -37 -34 c-20 -19 -48 -61 -63 -93 -14 -32 -30 -58 -35 -58 -11 0 -12 -5 21 76 16 38 32 84 36 102 9 42 26 42 19 0 l-5 -33 44 47 c34 36 48 62 65 120 32 110 59 241 79 379 21 150 24 554 5 699 -22 168 -35 250 -41 249 -3 0 -21 -18 -40 -40z m-211 -1676 c0 -22 -17 -50 -25 -42 -6 7 11 59 20 59 3 0 5 -8 5 -17z" id="98"/>
<path d="M4987 4363 c-4 -4 -4 -28 -1 -53 7 -56 -5 -84 -46 -105 -27 -14 -29 -18 -19 -37 6 -11 19 -44 29 -72 l17 -51 79 -1 c49 -1 94 -8 118 -18 21 -9 40 -16 42 -16 2 0 4 15 4 33 0 18 7 54 16 79 l15 46 -81 79 c-72 68 -143 123 -161 123 -3 0 -9 -3 -12 -7z" id="99"/>
<path d="M5490 4344 c-113 -41 -207 -144 -236 -258 -6 -26 -6 -26 53 -26 159 0 316 37 400 93 45 31 113 108 113 128 0 6 -30 24 -67 41 -82 39 -191 48 -263 22z" id="100"/>
<path d="M4823 4283 c-62 -26 -113 -52 -113 -59 0 -19 50 -54 76 -54 39 0 153 50 173 76 22 27 15 78 -10 81 -8 1 -65 -19 -126 -44z" id="101"/>
<path d="M5816 4236 c-27 -42 -89 -97 -136 -121 -76 -38 -158 -57 -300 -69 l-135 -11 3 -33 c2 -32 54 -146 85 -187 15 -19 17 -18 64 31 125 130 318 201 476 176 55 -9 57 -8 57 13 0 69 -62 225 -90 225 -4 0 -15 -11 -24 -24z" id="102"/>
<path d="M2430 4220 c0 -30 26 -121 45 -160 13 -25 48 -78 79 -119 30 -41 53 -78 50 -82 -3 -5 -20 -9 -39 -9 -19 0 -37 -5 -40 -10 -10 -17 59 -102 123 -152 67 -53 181 -122 189 -115 2 3 -1 15 -7 27 -6 11 -10 38 -8 58 2 30 7 38 26 40 12 2 22 7 22 12 0 4 -64 72 -143 151 -132 133 -230 258 -268 342 -12 26 -29 37 -29 17z" id="103"/>
<path d="M4617 4207 c-13 -9 -20 -38 -28 -107 -19 -169 -30 -229 -53 -275 -36 -70 -26 -73 116 -41 l124 28 17 48 c24 67 101 156 149 172 8 3 -32 131 -45 144 -3 3 -28 -2 -56 -12 -61 -20 -94 -13 -132 27 -29 31 -64 37 -92 16z" id="104"/>
<path d="M3460 4170 c0 -43 60 -409 76 -463 5 -15 15 -9 62 34 77 71 175 135 257 168 62 25 70 31 82 66 7 22 12 44 9 51 -2 6 -28 14 -56 17 -29 4 -55 8 -57 11 -2 2 5 23 17 46 12 23 20 43 18 45 -2 2 -30 -1 -63 -7 -75 -12 -188 -3 -268 22 -71 23 -77 23 -77 10z" id="105"/>
<path d="M6233 4168 c-27 -13 -30 -28 -5 -28 25 0 123 -48 150 -73 42 -39 65 -97 66 -162 0 -114 -84 -218 -216 -266 l-60 -23 28 -20 c101 -70 167 -180 167 -276 -1 -190 -180 -289 -366 -202 -36 17 -86 49 -110 71 -24 23 -47 41 -50 41 -3 0 -12 -33 -21 -73 -19 -84 -61 -177 -101 -225 -42 -50 -119 -86 -185 -86 -87 -1 -180 63 -214 146 -22 52 -20 162 3 238 l20 62 -22 -6 c-130 -35 -284 -33 -369 7 -79 35 -103 78 -103 178 0 65 5 85 32 140 18 35 31 65 29 66 -7 7 -70 -19 -83 -34 -59 -73 -74 -200 -33 -285 40 -85 138 -149 257 -168 62 -10 155 0 193 20 31 16 34 7 13 -32 -28 -52 -25 -196 6 -266 28 -62 85 -115 149 -136 54 -19 165 -21 213 -4 116 39 199 159 232 331 6 31 14 57 18 57 4 0 14 -11 23 -24 102 -156 363 -169 477 -25 123 155 88 351 -86 476 -22 16 -26 22 -15 26 82 26 120 46 156 79 116 107 117 310 2 414 -71 63 -144 87 -195 62z" id="106"/>
<path d="M6068 4083 l-98 -46 0 -69 c0 -71 -16 -154 -31 -164 -4 -2 -18 15 -30 38 -23 46 -47 78 -60 78 -4 0 -10 -34 -14 -75 -4 -41 -11 -75 -16 -75 -5 0 -40 14 -79 31 -39 18 -73 30 -76 27 -2 -3 -10 -33 -17 -66 -7 -34 -16 -64 -19 -68 -4 -4 -38 14 -74 39 -37 26 -71 44 -76 41 -5 -4 -9 -27 -8 -53 4 -67 2 -71 -21 -71 -14 0 -47 26 -89 69 l-67 69 -149 -43 c-82 -23 -160 -45 -174 -48 -55 -13 -116 -156 -108 -254 6 -67 29 -100 94 -133 45 -23 60 -25 174 -25 100 1 136 5 183 21 31 12 57 19 57 16 0 -2 -12 -37 -26 -76 -51 -139 -31 -268 52 -331 78 -60 140 -69 219 -31 63 30 107 76 139 146 27 59 56 161 56 196 0 54 10 54 65 -1 150 -149 346 -162 435 -27 81 123 22 288 -142 393 l-51 33 69 21 c85 26 105 37 156 83 57 52 82 105 83 177 0 89 -35 144 -119 185 -97 48 -124 47 -238 -7z m-338 -334 c0 -5 -7 -9 -15 -9 -15 0 -20 12 -9 23 8 8 24 -1 24 -14z m45 10 c10 -15 -1 -23 -20 -15 -9 3 -13 10 -10 16 8 13 22 13 30 -1z m55 -8 c0 -14 -18 -23 -30 -16 -6 4 -8 11 -5 16 8 12 35 12 35 0z m-152 -13 c-6 -18 -28 -21 -28 -4 0 9 7 16 16 16 9 0 14 -5 12 -12z m192 -9 c0 -5 -7 -9 -15 -9 -15 0 -20 12 -9 23 8 8 24 -1 24 -14z m45 -20 c10 -15 -1 -23 -20 -15 -9 3 -13 10 -10 16 8 13 22 13 30 -1z m-87 -24 c78 -33 113 -98 92 -174 -16 -61 -59 -91 -127 -91 -128 0 -208 108 -158 214 30 62 113 84 193 51z m-226 -10 c0 -5 -5 -11 -11 -13 -6 -2 -11 4 -11 13 0 9 5 15 11 13 6 -2 11 -8 11 -13z m348 -11 c0 -16 -16 -19 -25 -4 -8 13 4 32 16 25 5 -4 9 -13 9 -21z m-370 -28 c0 -8 -4 -17 -9 -21 -12 -7 -24 12 -16 25 9 15 25 12 25 -4z m392 -11 c0 -5 -5 -11 -11 -13 -6 -2 -11 4 -11 13 0 9 5 15 11 13 6 -2 11 -8 11 -13z m-402 -39 c0 -8 -4 -17 -9 -21 -12 -7 -24 12 -16 25 9 15 25 12 25 -4z m420 -12 c0 -16 -16 -19 -25 -4 -8 13 4 32 16 25 5 -4 9 -13 9 -21z m-420 -45 c0 -11 -4 -17 -10 -14 -5 3 -10 13 -10 21 0 8 5 14 10 14 6 0 10 -9 10 -21z m420 1 c0 -11 -4 -20 -10 -20 -5 0 -10 9 -10 20 0 11 5 20 10 20 6 0 10 -9 10 -20z m-402 -48 c2 -7 -3 -12 -12 -12 -9 0 -16 7 -16 16 0 17 22 14 28 -4z m397 -12 c-5 -8 -11 -8 -17 -2 -6 6 -7 16 -3 22 5 8 11 8 17 2 6 -6 7 -16 3 -22z m-367 -28 c2 -7 -3 -12 -12 -12 -9 0 -16 7 -16 16 0 17 22 14 28 -4z m350 -4 c-6 -18 -28 -21 -28 -4 0 9 7 16 16 16 9 0 14 -5 12 -12z m-308 -29 c0 -11 -27 -12 -34 0 -3 4 -3 11 0 14 8 8 34 -3 34 -14z m280 -8 c0 -14 -18 -23 -30 -16 -6 4 -8 11 -5 16 8 12 35 12 35 0z m-240 -11 c0 -5 -7 -10 -15 -10 -8 0 -15 5 -15 10 0 6 7 10 15 10 8 0 15 -4 15 -10z m45 -11 c10 -15 -1 -23 -20 -15 -9 3 -13 10 -10 16 8 13 22 13 30 -1z m150 1 c3 -6 -1 -13 -10 -16 -19 -8 -30 0 -20 15 8 14 22 14 30 1z m-100 -9 c7 -12 -12 -24 -25 -16 -11 7 -4 25 10 25 5 0 11 -4 15 -9z m53 -9 c2 -7 -6 -12 -17 -12 -21 0 -27 11 -14 24 9 9 26 2 31 -12z" id="107"/>
<path d="M5680 3642 c-49 -50 -38 -134 24 -171 74 -44 153 -30 183 34 15 32 16 40 3 77 -20 55 -56 80 -124 86 -51 4 -57 2 -86 -26z" id="108"/>
<path d="M2720 4034 c0 -50 83 -204 149 -276 34 -36 61 -71 61 -77 0 -6 -18 -11 -40 -11 -37 0 -40 -2 -40 -28 0 -27 40 -93 71 -118 13 -11 146 -5 267 11 l42 6 -26 35 c-15 18 -32 51 -39 71 -11 32 -24 44 -81 76 -130 72 -233 162 -318 276 -42 58 -46 61 -46 35z" id="109"/>
<path d="M4968 4018 c-20 -5 -54 -25 -76 -43 -39 -34 -102 -138 -90 -150 6 -7 258 54 356 86 69 23 76 37 37 73 -44 41 -144 56 -227 34z" id="110"/>
<path d="M5693 3995 c-35 -7 -93 -29 -130 -47 -71 -35 -193 -142 -193 -169 0 -19 37 -69 51 -69 5 0 9 15 9 33 0 35 24 77 44 77 7 0 38 -16 70 -35 37 -22 58 -30 61 -22 2 7 11 38 20 70 8 31 18 57 21 57 2 0 36 -16 74 -35 78 -39 76 -40 83 43 2 29 9 58 15 64 16 16 69 -9 90 -40 l17 -26 7 40 c4 25 2 43 -6 52 -19 19 -161 24 -233 7z" id="111"/>
<path d="M8405 3953 c-327 -200 -630 -482 -807 -752 -26 -40 -48 -80 -48 -87 0 -8 16 -35 36 -60 44 -58 69 -108 104 -201 l26 -72 86 98 c143 162 368 352 568 479 52 33 103 67 113 74 16 12 17 34 15 294 l-3 281 -90 -54z m-105 -542 c0 -10 -24 -21 -43 -21 -7 0 -3 7 7 15 22 17 36 19 36 6z m-101 -68 c0 -5 -39 -33 -86 -63 -49 -31 -127 -95 -180 -148 -51 -51 -93 -86 -93 -79 0 23 178 188 263 245 76 50 98 60 96 45z m-435 -402 c-18 -30 -34 -40 -34 -22 0 12 41 63 47 57 3 -2 -3 -18 -13 -35z" id="112"/>
<path d="M2390 3929 c-200 -96 -332 -232 -301 -310 13 -35 51 -66 101 -84 51 -19 269 -37 378 -33 l73 3 -51 60 c-67 78 -108 150 -116 201 -7 52 1 80 34 110 l25 24 -24 35 c-13 19 -26 35 -30 35 -3 0 -43 -18 -89 -41z" id="113"/>
<path d="M4004 3915 c-77 -17 -168 -53 -241 -96 -59 -35 -211 -177 -232 -216 -11 -21 -9 -23 11 -23 55 1 298 50 321 64 21 14 42 16 139 10 131 -8 200 6 280 58 53 33 118 101 118 123 0 19 -71 59 -139 79 -65 19 -173 19 -257 1z" id="114"/>
<path d="M587 3899 c-206 -21 -362 -91 -508 -228 l-79 -73 0 -524 c0 -413 3 -524 13 -524 170 4 425 23 470 35 64 17 137 51 137 64 0 5 -21 14 -46 20 -116 29 -216 107 -265 206 -27 56 -32 75 -32 143 0 192 98 328 284 393 92 33 247 33 341 1 124 -43 238 -135 278 -224 20 -44 20 -44 44 29 31 93 136 228 211 270 18 11 18 13 -10 54 -172 248 -506 391 -838 358z m207 -385 c28 -11 17 -19 -24 -19 -39 0 -52 8 -27 18 18 8 33 8 51 1z m-250 -43 c-105 -34 -167 -72 -237 -144 -32 -32 -61 -56 -65 -52 -13 12 136 144 198 175 65 33 159 61 174 52 5 -3 -27 -17 -70 -31z m470 -1 c50 -19 153 -96 142 -107 -3 -3 -24 10 -48 30 -53 43 -93 63 -141 72 -20 4 -37 11 -37 16 0 14 25 11 84 -11z m-794 -355 c0 -19 -4 -35 -10 -35 -5 0 -10 16 -10 35 0 19 5 35 10 35 6 0 10 -16 10 -35z" id="115"/>
<path d="M1375 3890 c-77 -12 -195 -40 -218 -52 -15 -8 -9 -15 45 -50 111 -71 197 -154 258 -247 l16 -24 78 27 c113 39 221 44 361 17 61 -12 120 -24 133 -27 18 -5 22 -2 22 15 0 12 -5 32 -11 43 -15 27 -14 91 2 120 6 13 25 39 40 59 16 20 29 39 29 43 0 9 -128 44 -225 62 -105 19 -438 28 -530 14z" id="116"/>
<path d="M5135 3865 c-38 -12 -184 -50 -323 -83 -140 -33 -256 -63 -258 -65 -10 -10 9 -87 22 -87 31 0 690 174 702 185 2 1 -5 19 -14 39 -21 43 -30 43 -129 11z" id="117"/>
<path d="M4396 3789 c-27 -46 -129 -116 -203 -139 -70 -21 -171 -26 -238 -10 -22 5 -44 5 -48 1 -9 -9 72 -150 98 -171 12 -10 23 -6 62 23 115 84 201 111 347 111 l108 -1 -5 54 c-5 51 -24 89 -70 141 -26 28 -29 28 -51 -9z" id="118"/>
<path d="M2510 3780 c0 -44 84 -173 162 -248 l34 -32 87 6 c48 4 87 11 87 15 0 4 -21 17 -47 29 -79 35 -208 127 -267 190 -44 48 -56 57 -56 40z" id="119"/>
<path d="M4670 3621 l-105 -26 -7 -55 c-12 -97 -68 -220 -68 -150 0 25 -27 80 -39 80 -5 0 -12 -15 -16 -32 -12 -59 -26 -98 -36 -98 -6 0 -32 18 -58 40 -26 22 -53 40 -59 40 -7 0 -18 -21 -24 -46 -7 -26 -18 -49 -25 -51 -7 -3 -29 9 -50 26 -35 29 -38 30 -41 12 -2 -11 2 -30 8 -41 6 -12 9 -24 6 -28 -12 -11 -120 74 -165 130 -25 32 -51 58 -57 58 -6 0 -85 -11 -176 -24 -322 -48 -715 -85 -1081 -103 l-138 -6 30 -31 c72 -75 100 -224 56 -306 -44 -83 -119 -147 -203 -171 -32 -9 -41 -16 -37 -28 7 -19 140 -239 158 -262 21 -28 93 -58 166 -71 l69 -12 42 38 c38 34 63 48 124 70 18 6 17 9 -11 39 -150 158 -95 446 104 543 107 53 268 43 383 -24 61 -35 142 -113 181 -174 l32 -50 18 46 c92 232 322 325 533 213 72 -38 137 -101 167 -164 31 -62 38 -191 15 -258 -15 -46 -15 -46 7 -39 37 11 141 71 205 119 107 80 213 208 276 333 l27 53 -50 47 c-67 63 -91 117 -91 210 0 53 6 87 21 123 12 27 20 51 18 53 -2 1 -51 -9 -109 -23z" id="120"/>
<path d="M3720 3569 c-333 -63 -760 -102 -1125 -102 -284 0 -377 8 -438 40 -35 17 -37 16 -30 -20 7 -37 33 -53 129 -78 158 -42 506 -35 1069 22 210 21 582 73 592 82 3 3 -5 22 -17 41 -25 42 -35 43 -180 15z" id="121"/>
<path d="M4278 3574 c-71 -17 -166 -64 -213 -105 l-36 -32 27 -28 c35 -36 40 -36 48 1 4 20 11 30 24 30 10 0 31 -13 47 -30 16 -16 32 -30 36 -30 3 0 14 20 23 45 10 25 22 47 27 51 6 3 34 -13 64 -35 30 -23 56 -41 59 -41 3 0 8 17 11 38 12 71 15 80 32 86 10 4 26 -3 45 -21 24 -23 30 -25 38 -13 5 8 10 31 10 51 0 34 -2 37 -37 43 -59 9 -143 6 -205 -10z" id="122"/>
<path d="M1620 3525 c-194 -54 -328 -188 -377 -378 -22 -86 -13 -233 21 -352 174 -603 755 -905 1826 -950 l145 -7 -80 53 c-44 28 -117 81 -163 116 l-83 64 -181 25 c-100 14 -225 34 -277 45 -203 44 -422 131 -552 219 -218 148 -392 442 -377 635 12 144 125 259 267 272 70 7 208 -19 313 -57 61 -22 78 -26 74 -14 -3 8 -22 67 -41 132 -20 64 -40 126 -45 138 -20 50 -352 91 -470 59z m194 -164 c3 -5 -21 -11 -53 -15 -76 -9 -169 -55 -216 -108 -89 -98 -125 -247 -91 -377 18 -66 15 -95 -5 -45 -57 149 -22 323 89 437 53 55 105 85 177 103 61 15 92 17 99 5z m141 -21 c3 -5 -3 -10 -14 -10 -11 0 -23 5 -26 10 -3 6 3 10 14 10 11 0 23 -4 26 -10z" id="123"/>
<path d="M6580 3491 c0 -15 -3 -49 -6 -74 l-7 -46 44 -10 c239 -59 386 -121 505 -213 279 -215 344 -495 190 -813 -55 -114 -123 -209 -226 -319 l-82 -86 56 -25 c31 -14 74 -36 96 -50 46 -29 55 -27 63 14 11 54 98 264 163 391 74 146 150 270 241 393 l65 88 -12 47 c-20 73 -76 190 -119 246 -154 203 -393 337 -810 452 -154 42 -161 42 -161 5z" id="124"/>
<path d="M603 3395 c-168 -47 -264 -149 -294 -310 -28 -153 47 -289 200 -361 66 -32 178 -43 235 -24 76 25 146 112 146 182 0 110 -124 173 -211 109 -50 -37 -71 -19 -23 18 58 45 142 47 203 5 30 -21 61 -89 61 -134 0 -100 -123 -220 -225 -220 -9 0 -33 -14 -53 -31 -76 -67 -166 -89 -397 -95 -99 -3 -195 -7 -212 -10 l-33 -5 0 -159 c0 -159 0 -160 23 -160 12 0 103 9 201 20 161 18 199 19 185 6 -4 -4 -368 -46 -396 -46 -7 0 -13 -11 -13 -25 0 -30 -1 -30 175 -10 368 43 578 107 749 229 161 115 279 307 280 456 1 121 -23 279 -50 340 -40 91 -128 164 -249 209 -78 30 -227 37 -302 16z m-169 -502 c24 -27 33 -43 24 -43 -17 0 -50 34 -68 69 -17 33 0 23 44 -26z m363 -66 c-18 -43 -70 -77 -118 -77 -21 0 -41 5 -44 10 -4 6 12 10 40 10 40 0 52 5 81 34 19 19 34 41 34 51 0 9 4 13 10 10 6 -4 5 -18 -3 -38z m-272 -27 c3 -5 -1 -10 -9 -10 -8 0 -18 5 -21 10 -3 6 1 10 9 10 8 0 18 -4 21 -10z m541 -156 c-12 -30 -25 -13 -13 19 8 23 12 27 15 14 2 -10 1 -25 -2 -33z m-102 -145 c-15 -23 -48 -58 -73 -80 -49 -44 -162 -104 -183 -97 -7 3 17 19 54 37 73 35 164 112 199 168 13 20 25 31 27 24 2 -6 -9 -30 -24 -52z m-419 -239 c-3 -5 -13 -10 -21 -10 -8 0 -12 5 -9 10 3 6 13 10 21 10 8 0 12 -4 9 -10z" id="125"/>
<path d="M2150 3406 c0 -15 91 -277 122 -351 31 -73 36 -80 64 -83 34 -3 86 28 117 70 28 38 34 117 12 174 -34 89 -89 133 -206 163 -41 11 -82 22 -91 26 -10 4 -18 4 -18 1z" id="126"/>
<path d="M8405 3348 c-501 -318 -898 -795 -1108 -1333 -82 -209 -82 -194 0 -270 38 -35 89 -89 113 -120 l43 -56 58 112 c211 405 557 760 912 935 l77 38 0 44 c0 39 -2 43 -15 32 -9 -7 -18 -10 -21 -7 -3 3 3 12 15 19 21 13 21 19 21 335 0 178 -3 323 -7 322 -5 0 -44 -23 -88 -51z m5 -642 c0 -2 -39 -25 -86 -50 -113 -60 -205 -122 -277 -187 -32 -28 -61 -48 -65 -44 -9 9 72 81 165 145 112 78 263 156 263 136z m-510 -365 c0 -12 -50 -44 -57 -37 -6 6 37 45 50 46 4 0 7 -4 7 -9z m-130 -116 c0 -3 -29 -40 -64 -83 -75 -91 -141 -186 -191 -276 -35 -62 -55 -88 -55 -69 0 5 19 43 43 84 90 158 267 386 267 344z" id="127"/>
<path d="M2390 3354 c0 -4 15 -22 33 -39 85 -82 101 -217 35 -300 -23 -29 -87 -65 -118 -65 -25 0 -25 -1 0 -50 24 -48 43 -50 115 -16 54 25 118 84 141 129 62 117 -17 313 -133 332 -21 4 -46 9 -55 12 -10 2 -18 1 -18 -3z" id="128"/>
<path d="M6551 3278 c-6 -35 -20 -99 -30 -143 -11 -44 -18 -81 -17 -82 1 -1 56 51 121 117 65 66 116 122 112 126 -5 6 -151 44 -168 44 -4 0 -12 -28 -18 -62z" id="129"/>
<path d="M6628 3144 l-143 -146 -34 -97 c-19 -53 -69 -165 -112 -248 -42 -84 -73 -153 -69 -153 4 0 103 41 221 91 118 50 340 143 494 206 154 63 284 119 289 124 24 22 -115 168 -234 245 -65 42 -181 97 -247 118 -19 6 -43 -15 -165 -140z" id="130"/>
<path d="M1726 3215 c-65 -23 -68 -30 -51 -110 8 -39 15 -82 15 -97 0 -40 14 -34 45 18 15 25 58 79 96 119 38 39 66 75 62 78 -12 12 -127 6 -167 -8z" id="131"/>
<path d="M1859 3133 c-98 -101 -159 -207 -159 -279 0 -28 -5 -88 -11 -133 l-11 -82 42 -54 c44 -57 165 -175 179 -175 4 0 31 29 60 65 74 92 201 207 299 272 45 30 82 57 82 59 0 3 -24 57 -54 122 -29 64 -59 134 -67 156 -10 27 -24 43 -51 57 -48 24 -184 69 -211 69 -13 0 -51 -30 -98 -77z" id="132"/>
<path d="M4867 3126 c-97 -190 -275 -356 -470 -441 -41 -18 -71 -38 -81 -56 l-16 -27 82 5 c95 7 154 29 257 98 83 55 204 179 254 261 31 51 87 180 87 200 0 4 -63 34 -72 34 -2 0 -20 -34 -41 -74z" id="133"/>
<path d="M3921 3175 c-124 -35 -207 -123 -255 -272 -10 -29 -21 -53 -26 -53 -4 0 -23 26 -40 57 -51 89 -132 168 -219 211 -67 33 -84 37 -167 40 -83 4 -98 1 -153 -23 -72 -33 -123 -85 -159 -164 -61 -132 -12 -319 99 -377 42 -21 38 -44 -8 -44 -44 0 -117 -31 -151 -63 -38 -35 -64 -97 -69 -162 -5 -57 -3 -62 26 -89 l31 -30 0 46 c0 143 90 235 254 259 l75 11 -47 38 c-125 98 -171 208 -138 325 47 161 234 232 398 152 75 -37 157 -121 221 -225 l51 -84 17 49 c41 121 121 230 205 279 156 91 375 -23 400 -209 9 -65 -20 -184 -70 -283 -23 -46 -42 -84 -42 -84 1 0 23 7 50 15 145 44 328 -16 384 -125 20 -39 23 -56 19 -125 -4 -90 -25 -142 -79 -195 -57 -58 -109 -75 -224 -75 l-100 0 18 -48 c37 -97 18 -201 -52 -280 l-32 -37 29 0 c65 0 122 103 123 221 l0 76 63 6 c139 11 250 85 308 203 53 107 45 229 -23 336 -33 53 -101 103 -162 119 -56 15 -152 6 -211 -20 -26 -12 -49 -20 -51 -18 -2 1 13 23 33 47 19 25 48 73 64 106 74 156 54 290 -58 395 -96 90 -221 125 -332 94z" id="134"/>
<path d="M5102 3161 l-94 -6 -17 -50 c-69 -194 -238 -383 -428 -479 -29 -14 -53 -28 -53 -31 0 -2 15 -11 33 -20 61 -29 106 -75 139 -143 31 -63 33 -73 33 -172 0 -94 -3 -111 -28 -161 -52 -108 -166 -189 -297 -211 l-70 -12 0 -56 c0 -30 -3 -64 -5 -75 -8 -30 76 -86 171 -115 68 -20 87 -22 151 -14 l74 9 23 66 c41 123 117 202 226 236 30 9 56 18 58 19 2 1 -15 26 -37 55 -69 90 -92 192 -66 291 47 185 217 297 406 267 108 -17 205 -80 259 -168 l28 -44 16 32 c10 18 46 60 81 94 72 70 116 152 134 252 12 65 14 157 5 193 -6 21 -10 18 -44 -36 -65 -103 -155 -152 -280 -152 -149 0 -259 76 -299 205 -22 71 -26 136 -12 198 6 26 6 36 -3 35 -6 -1 -53 -4 -104 -7z" id="135"/>
<path d="M1607 3125 c-29 -40 -47 -103 -47 -164 0 -59 43 -198 76 -249 l18 -27 9 55 c16 102 -8 411 -32 410 -3 0 -14 -12 -24 -25z" id="136"/>
<path d="M5870 3049 c-9 -31 -8 -63 1 -130 14 -100 4 -196 -31 -296 -11 -31 -18 -59 -15 -61 2 -3 17 0 32 6 15 6 40 13 54 16 44 9 64 91 64 256 0 74 -3 147 -7 162 -5 14 -26 40 -47 58 l-40 31 -11 -42z" id="137"/>
<path d="M3890 3048 c-95 -47 -192 -185 -221 -313 -7 -30 -16 -55 -20 -55 -4 0 -24 32 -44 72 -69 137 -150 224 -251 274 -47 23 -63 26 -132 23 -99 -5 -161 -39 -207 -113 -26 -43 -30 -59 -30 -120 0 -49 6 -81 19 -105 27 -51 104 -129 166 -170 l55 -36 -93 -7 c-195 -15 -293 -108 -280 -264 5 -62 15 -75 125 -166 284 -233 638 -386 1023 -442 l105 -16 38 38 c81 77 99 179 51 298 -14 36 -24 67 -22 70 3 2 21 -3 41 -11 20 -8 63 -15 95 -15 167 0 270 90 280 245 6 93 0 116 -43 164 -49 54 -122 83 -220 89 -71 4 -89 1 -149 -23 -37 -15 -69 -25 -71 -23 -3 2 11 25 29 51 64 90 116 236 116 327 0 91 -69 188 -164 231 -57 26 -140 25 -196 -3z m-245 -539 c10 -15 -1 -23 -20 -15 -9 3 -13 10 -10 16 8 13 22 13 30 -1z m55 -10 c0 -5 -9 -9 -20 -9 -19 0 -26 11 -14 23 8 8 34 -3 34 -14z m-102 -1 c-6 -18 -28 -21 -28 -4 0 9 7 16 16 16 9 0 14 -5 12 -12z m147 2 c3 -6 -1 -13 -10 -16 -19 -8 -30 0 -20 15 8 14 22 14 30 1z m-197 -21 c-2 -6 -8 -10 -13 -10 -5 0 -11 4 -13 10 -2 6 4 11 13 11 9 0 15 -5 13 -11z m242 -5 c0 -9 -5 -14 -12 -12 -18 6 -21 28 -4 28 9 0 16 -7 16 -16z m-282 -16 c-6 -18 -28 -21 -28 -4 0 9 7 16 16 16 9 0 14 -5 12 -12z m323 -3 c-1 -15 -24 -12 -29 3 -3 9 2 13 12 10 10 -1 17 -7 17 -13z m-361 -30 c0 -8 -7 -15 -15 -15 -16 0 -20 12 -8 23 11 12 23 8 23 -8z m401 0 c-1 -15 -24 -12 -29 3 -3 9 2 13 12 10 10 -1 17 -7 17 -13z m-142 -11 c63 -18 125 -72 142 -121 6 -19 9 -58 7 -85 -11 -113 -117 -173 -243 -138 -54 15 -123 72 -141 117 -35 82 0 182 76 221 52 26 88 28 159 6z m179 -22 c2 -7 -3 -12 -12 -12 -9 0 -16 7 -16 16 0 17 22 14 28 -4z m-468 -7 c0 -8 -7 -15 -15 -15 -16 0 -20 12 -8 23 11 12 23 8 23 -8z m498 -33 c2 -7 -3 -12 -12 -12 -9 0 -16 7 -16 16 0 17 22 14 28 -4z m-523 -22 c-5 -8 -11 -8 -17 -2 -6 6 -7 16 -3 22 5 8 11 8 17 2 6 -6 7 -16 3 -22z m537 -25 c0 -5 -5 -11 -11 -13 -6 -2 -11 4 -11 13 0 9 5 15 11 13 6 -2 11 -8 11 -13z m-547 -25 c-5 -8 -11 -8 -17 -2 -6 6 -7 16 -3 22 5 8 11 8 17 2 6 -6 7 -16 3 -22z m560 -18 c0 -18 -20 -15 -23 4 -3 10 1 15 10 12 7 -3 13 -10 13 -16z m-563 -17 c0 -5 -5 -11 -11 -13 -6 -2 -11 4 -11 13 0 9 5 15 11 13 6 -2 11 -8 11 -13z m568 -30 c0 -8 -4 -15 -10 -15 -5 0 -10 7 -10 15 0 8 5 15 10 15 6 0 10 -7 10 -15z m-560 -20 c0 -8 -4 -15 -9 -15 -13 0 -22 16 -14 24 11 11 23 6 23 -9z m560 -30 c0 -8 -7 -15 -15 -15 -8 0 -15 7 -15 15 0 8 7 15 15 15 8 0 15 -7 15 -15z m-542 -23 c2 -7 -3 -12 -12 -12 -9 0 -16 7 -16 16 0 17 22 14 28 -4z m522 -27 c0 -8 -4 -15 -10 -15 -5 0 -10 7 -10 15 0 8 5 15 10 15 6 0 10 -7 10 -15z m-500 -11 c0 -17 -22 -14 -28 4 -2 7 3 12 12 12 9 0 16 -7 16 -16z m35 -44 c-5 -8 -11 -8 -17 -2 -6 6 -7 16 -3 22 5 8 11 8 17 2 6 -6 7 -16 3 -22z m445 15 c0 -8 -7 -15 -15 -15 -16 0 -20 12 -8 23 11 12 23 8 23 -8z m-402 -33 c2 -7 -3 -12 -12 -12 -9 0 -16 7 -16 16 0 17 22 14 28 -4z m370 -4 c-6 -18 -28 -21 -28 -4 0 9 7 16 16 16 9 0 14 -5 12 -12z m-323 -7 c7 -12 -12 -24 -25 -16 -11 7 -4 25 10 25 5 0 11 -4 15 -9z m45 -27 c0 -9 -5 -14 -12 -12 -18 6 -21 28 -4 28 9 0 16 -7 16 -16z m238 4 c-6 -18 -28 -21 -28 -4 0 9 7 16 16 16 9 0 14 -5 12 -12z m-190 -16 c2 -7 -3 -12 -12 -12 -9 0 -16 7 -16 16 0 17 22 14 28 -4z m52 -1 c0 -14 -18 -23 -30 -16 -6 4 -8 11 -5 16 8 12 35 12 35 0z m45 0 c7 -12 -12 -24 -25 -16 -11 7 -4 25 10 25 5 0 11 -4 15 -9z m50 -1 c-3 -5 -13 -10 -21 -10 -8 0 -14 5 -14 10 0 6 9 10 21 10 11 0 17 -4 14 -10z" id="138"/>
<path d="M3580 2382 c-84 -42 -94 -168 -18 -239 54 -51 159 -69 219 -38 62 33 89 128 54 195 -42 81 -173 123 -255 82z" id="139"/>
<path d="M7050 2805 c-124 -51 -346 -145 -495 -207 -254 -108 -270 -116 -267 -139 7 -54 6 -136 -2 -163 l-9 -29 164 7 c417 16 796 38 816 46 41 17 103 217 103 336 0 97 -44 245 -72 243 -7 0 -114 -42 -238 -94z" id="140"/>
<path d="M2256 2698 c-91 -64 -319 -292 -314 -312 2 -6 50 -35 107 -64 l104 -52 43 64 c45 67 136 165 216 232 l47 39 -46 78 c-25 42 -51 77 -58 77 -7 0 -51 -28 -99 -62z" id="141"/>
<path d="M1211 2708 c-28 -93 -84 -182 -171 -269 -195 -196 -418 -275 -933 -330 l-107 -12 0 -109 c0 -109 0 -110 23 -105 41 10 231 36 342 47 61 6 226 10 368 9 l258 -1 73 42 c41 23 104 69 140 102 36 33 66 55 66 50 0 -19 -129 -130 -190 -165 l-61 -34 32 -7 c60 -12 82 -6 146 40 94 67 186 156 254 246 l59 80 -48 56 c-92 107 -166 231 -207 350 -11 28 -22 52 -25 52 -4 0 -12 -19 -19 -42z m169 -475 c-1 -14 -30 -47 -36 -41 -6 7 17 48 28 48 5 0 8 -3 8 -7z" id="142"/>
<path d="M8400 2572 c-325 -183 -599 -453 -798 -787 -36 -60 -80 -141 -98 -179 l-33 -68 23 -47 c13 -25 34 -80 46 -121 12 -41 26 -84 29 -94 6 -16 17 -6 61 60 144 215 337 400 555 534 79 48 283 150 303 150 9 0 12 67 12 300 0 165 -3 300 -7 300 -5 0 -46 -22 -93 -48z m-135 -532 c-3 -5 -16 -10 -28 -10 -18 0 -19 2 -7 10 20 13 43 13 35 0z m-145 -69 c0 -5 -35 -34 -77 -64 -43 -30 -106 -80 -140 -112 -35 -31 -63 -51 -63 -45 0 16 99 105 192 173 85 61 88 62 88 48z m-389 -358 c-12 -23 -61 -69 -61 -58 0 13 50 75 61 75 6 0 6 -6 0 -17z" id="143"/>
<path d="M2397 2512 c-38 -31 -89 -82 -114 -112 -42 -50 -44 -55 -25 -63 25 -11 496 -134 500 -131 2 1 -31 45 -75 96 -43 51 -107 132 -143 181 -35 48 -67 87 -70 87 -3 0 -36 -26 -73 -58z" id="144"/>
<path d="M5857 2536 c-101 -42 -189 -124 -228 -213 -10 -24 -20 -43 -22 -43 -2 0 -19 29 -36 64 -60 122 -169 189 -311 190 -60 0 -86 -5 -131 -26 -164 -76 -239 -263 -168 -418 27 -57 59 -96 119 -142 l35 -27 -41 -1 c-102 -1 -215 -61 -269 -144 -32 -49 -63 -131 -53 -141 2 -2 24 -1 48 3 40 7 45 11 57 49 30 88 149 171 282 194 l61 11 -57 62 c-80 85 -126 173 -125 241 1 179 201 299 367 221 91 -42 176 -153 192 -248 l6 -38 46 80 c93 161 169 224 270 223 68 -1 129 -28 161 -73 12 -16 24 -30 28 -30 4 0 20 18 35 40 26 37 27 41 13 69 -33 63 -128 121 -197 121 -13 0 -50 -11 -82 -24z" id="145"/>
<path d="M2607 2458 c5 -7 36 -46 68 -86 l59 -74 12 61 c7 33 15 65 19 70 3 6 -11 13 -32 16 -21 3 -57 10 -80 16 -54 12 -57 11 -46 -3z" id="146"/>
<path d="M6194 2403 c-84 -120 -159 -205 -271 -313 -90 -87 -131 -117 -232 -174 -577 -323 -1254 -431 -1866 -298 -127 28 -325 94 -423 142 -66 32 -95 40 -138 40 -31 0 -54 -4 -54 -10 0 -40 81 -126 164 -175 113 -66 287 -121 476 -149 774 -114 1612 76 2115 479 136 109 275 263 275 306 0 10 4 19 10 19 12 0 30 65 30 112 0 42 -15 88 -29 88 -5 0 -31 -30 -57 -67z" id="147"/>
<path d="M5180 2404 c-81 -35 -144 -126 -144 -209 0 -81 90 -226 178 -285 20 -14 36 -28 36 -32 0 -5 -19 -8 -43 -8 -102 0 -235 -56 -292 -123 -29 -34 -52 -83 -43 -93 7 -6 236 56 350 95 166 58 310 123 453 205 136 78 218 146 326 267 l70 80 -19 32 c-38 66 -122 98 -203 77 -34 -9 -59 -27 -109 -79 -61 -63 -102 -130 -156 -256 l-18 -40 -6 80 c-9 128 -71 229 -172 279 -61 30 -151 35 -208 10z" id="148"/>
<path d="M2204 2294 c-10 -14 -13 -29 -8 -34 16 -15 197 -68 304 -89 125 -24 340 -54 346 -48 2 2 -7 14 -21 27 -19 18 -91 41 -302 96 -153 40 -284 73 -290 74 -7 0 -20 -11 -29 -26z" id="149"/>
<path d="M7210 2294 c-29 -4 -551 -30 -785 -40 l-161 -6 -23 -40 c-12 -22 -47 -69 -78 -104 -30 -36 -53 -67 -51 -69 1 -1 42 -20 90 -40 l88 -38 77 17 c161 36 370 31 530 -14 l66 -18 54 51 c109 103 264 313 226 306 -5 -1 -19 -3 -33 -5z" id="150"/>
<path d="M1496 2225 c-42 -67 -169 -198 -249 -258 l-70 -52 74 -13 c74 -12 385 -77 425 -88 20 -5 21 -1 27 78 3 46 15 114 26 153 11 38 19 70 18 71 -37 22 -133 91 -165 118 -24 20 -47 36 -50 36 -4 0 -20 -20 -36 -45z" id="151"/>
<path d="M1764 2028 c-29 -96 -25 -249 10 -353 53 -161 127 -275 270 -413 280 -270 734 -465 1311 -562 94 -16 211 -32 260 -35 87 -6 94 -5 215 35 494 164 1039 241 1600 226 135 -4 268 -11 295 -15 28 -5 51 -7 53 -6 2 2 -8 20 -22 42 -35 52 -64 142 -72 220 -5 46 -10 63 -20 59 -208 -80 -685 -191 -989 -230 -337 -44 -835 -47 -1130 -7 -358 49 -706 142 -984 265 -192 84 -338 218 -416 380 -49 103 -65 167 -65 265 l0 67 -52 19 c-29 10 -95 38 -147 62 -52 23 -95 43 -96 43 -1 0 -11 -28 -21 -62z" id="152"/>
<path d="M6039 1981 c-40 -34 -208 -158 -255 -188 -18 -10 -16 -15 28 -59 l47 -48 54 51 c69 65 185 141 271 178 36 15 66 31 66 34 0 6 -149 72 -161 71 -3 0 -26 -17 -50 -39z" id="153"/>
<path d="M8392 1950 c-312 -147 -569 -370 -754 -655 l-58 -89 0 -102 c0 -314 -138 -603 -382 -798 -186 -149 -444 -246 -773 -290 -91 -13 -42 -14 550 -15 l650 0 52 107 c120 251 335 466 598 598 56 28 129 59 163 70 l62 19 0 598 c0 471 -3 597 -12 596 -7 0 -50 -18 -96 -39z" id="154"/>
<path d="M6413 1956 c-97 -19 -164 -41 -255 -86 -207 -102 -344 -249 -412 -439 -28 -78 -31 -97 -30 -206 0 -133 15 -190 77 -282 31 -46 35 -49 102 -62 89 -17 429 -21 445 -5 9 9 2 13 -26 19 -96 18 -182 83 -226 173 -30 60 -33 76 -33 152 0 79 3 92 38 162 149 303 603 351 849 89 112 -119 168 -255 168 -411 0 -168 -56 -297 -185 -426 -96 -96 -211 -160 -357 -198 -166 -44 -260 -50 -664 -42 -414 7 -519 1 -769 -45 -410 -76 -773 -188 -1005 -309 l-75 -39 911 -1 c910 0 1134 6 1424 41 615 72 987 334 1127 794 25 83 27 103 27 265 1 172 0 177 -32 270 -18 52 -42 107 -52 122 -11 15 -20 30 -20 34 0 17 -95 136 -148 185 -116 108 -255 183 -421 226 -120 31 -344 40 -458 19z m986 -542 c7 -19 11 -38 8 -41 -6 -5 -37 50 -37 67 0 23 17 8 29 -26z m-1393 -88 c-9 -27 -16 -80 -16 -123 0 -57 -3 -74 -11 -66 -16 16 -6 160 14 207 23 53 32 39 13 -18z m1466 -270 c-9 -18 -11 -16 -11 19 0 33 1 37 10 21 8 -12 8 -25 1 -40z m-1447 -26 c10 -11 15 -20 11 -20 -14 0 -46 21 -46 30 0 16 16 11 35 -10z m1425 -194 c-6 -34 -24 -91 -40 -128 -29 -69 -114 -198 -131 -198 -15 0 -11 8 31 61 56 71 99 167 120 268 22 104 21 100 27 77 3 -10 0 -46 -7 -80z m-340 -464 c0 -5 -19 -22 -42 -39 -59 -41 -68 -46 -68 -35 0 10 88 80 103 81 4 1 7 -3 7 -7z" id="155"/>
<path d="M2110 1883 c0 -38 5 -85 11 -105 9 -35 13 -38 48 -38 76 0 679 64 688 74 2 2 -47 9 -109 16 -169 18 -389 56 -515 90 -62 17 -114 30 -117 30 -4 0 -6 -30 -6 -67z" id="156"/>
<path d="M478 1909 c-135 -8 -325 -30 -425 -50 l-53 -10 0 -265 c0 -145 3 -264 8 -264 4 0 61 12 127 25 133 27 320 44 295 26 -8 -6 -33 -11 -55 -11 -50 0 -207 -24 -303 -46 l-72 -16 0 -40 c0 -37 2 -40 22 -34 52 14 292 56 408 70 496 62 1030 30 1508 -90 74 -19 137 -34 139 -34 2 0 -25 27 -61 61 -127 119 -233 283 -276 429 -38 127 -24 114 -167 148 -251 59 -446 88 -701 102 -194 11 -196 11 -394 -1z m787 -480 c50 -6 97 -15 105 -21 10 -6 -3 -7 -40 -3 -269 28 -287 28 -520 9 -50 -4 -61 -3 -48 6 43 27 309 31 503 9z m-650 -38 c-8 -13 -55 -15 -55 -2 0 5 12 11 28 13 32 4 36 3 27 -11z m945 -1 c0 -5 -18 -10 -40 -10 -22 0 -40 5 -40 10 0 6 18 10 40 10 22 0 40 -4 40 -10z" id="157"/>
<path d="M2955 1804 c-13 -5 -616 -71 -728 -80 -83 -6 -87 -8 -81 -28 22 -71 102 -183 188 -263 64 -60 178 -133 208 -133 23 0 354 136 717 296 l63 28 -42 34 c-23 19 -55 58 -71 87 l-29 52 -62 7 c-65 6 -147 7 -163 0z" id="158"/>
<path d="M5645 1719 c-49 -27 -128 -63 -174 -81 -46 -18 -85 -38 -88 -45 -4 -9 173 -341 192 -361 2 -2 22 2 45 9 48 14 58 29 75 113 20 92 52 170 101 243 24 36 44 69 44 72 0 8 -94 101 -100 100 -3 -1 -45 -23 -95 -50z" id="159"/>
<path d="M4267 1649 c-16 -23 -26 -43 -24 -45 2 -3 51 -3 108 -2 l104 3 -52 23 c-28 13 -59 32 -69 43 -24 27 -35 24 -67 -22z" id="160"/>
<path d="M3250 1573 c-105 -49 -401 -175 -550 -235 -69 -27 -126 -51 -128 -53 -13 -13 323 -130 516 -179 l144 -37 76 73 c42 40 146 131 231 202 l154 129 -114 37 c-63 20 -142 51 -176 68 -34 18 -66 32 -70 31 -4 0 -42 -16 -83 -36z" id="161"/>
<path d="M6403 1595 c-220 -60 -360 -261 -313 -453 35 -147 172 -236 365 -235 112 0 176 35 219 119 54 109 13 224 -99 279 -96 47 -188 24 -228 -58 -21 -43 -37 -48 -37 -12 0 35 53 91 106 111 123 47 286 -50 308 -184 9 -57 -10 -134 -45 -181 -45 -63 -94 -90 -195 -106 -49 -8 -120 -22 -159 -31 -99 -22 -294 -14 -500 22 -155 27 -170 28 -520 28 -279 0 -394 -4 -510 -17 -782 -91 -1426 -324 -2055 -744 -69 -45 -138 -94 -155 -108 l-30 -24 717 -1 717 0 63 35 c251 137 664 268 1090 344 244 44 363 51 786 44 421 -6 527 2 686 56 224 75 385 227 447 421 30 92 29 232 -1 320 -65 192 -204 330 -376 374 -75 19 -210 20 -281 1z m577 -362 c17 -59 25 -209 11 -217 -8 -5 -11 12 -11 57 0 62 -12 144 -25 180 -4 9 -3 17 3 17 6 0 16 -17 22 -37z m-363 -185 c-16 -38 -58 -72 -83 -66 -16 4 -15 6 7 16 30 12 69 57 69 79 0 8 4 11 10 8 6 -4 5 -17 -3 -37z m293 -223 c0 -8 -4 -15 -10 -15 -5 0 -10 7 -10 15 0 8 5 15 10 15 6 0 10 -7 10 -15z m-95 -151 c-81 -68 -224 -139 -303 -151 -54 -8 -29 10 43 31 80 24 180 77 235 125 25 21 49 36 54 33 5 -3 -8 -20 -29 -38z m-1305 -164 c0 -6 -31 -10 -72 -10 -103 0 -274 -17 -405 -40 -129 -23 -130 -23 -117 -11 34 35 594 92 594 61z m240 0 c0 -5 -13 -10 -30 -10 -16 0 -30 5 -30 10 0 6 14 10 30 10 17 0 30 -4 30 -10z m570 -9 c0 -11 -127 -21 -281 -21 -204 0 -182 14 31 20 107 3 207 7 223 8 15 1 27 -2 27 -7z m-1635 -120 c-10 -9 -49 -15 -70 -11 -16 3 28 19 55 19 15 1 20 -3 15 -8z m-160 -41 c-3 -5 -10 -10 -15 -10 -5 0 -116 -50 -247 -111 -288 -134 -263 -123 -263 -112 0 9 142 78 430 211 66 31 106 40 95 22z" id="162"/>
<path d="M5240 1554 c-58 -18 -140 -41 -182 -50 -59 -13 -78 -21 -78 -34 0 -27 80 -364 88 -371 14 -13 471 107 478 126 5 11 -168 330 -190 351 -8 8 -40 1 -116 -22z" id="163"/>
<path d="M4868 1464 c-37 -7 -126 -20 -199 -28 -73 -9 -136 -21 -139 -27 -9 -14 -23 -389 -16 -397 14 -13 501 59 519 77 5 5 -8 85 -28 177 -40 181 -50 215 -62 213 -5 -1 -38 -7 -75 -15z" id="164"/>
<path d="M3625 1394 c-230 -195 -365 -318 -358 -325 18 -18 347 -64 538 -75 l110 -6 70 207 c39 114 71 212 73 216 4 10 -9 13 -168 33 -69 9 -136 19 -150 21 -20 4 -43 -10 -115 -71z" id="165"/>
<path d="M4050 1331 c-65 -179 -113 -331 -106 -338 9 -9 383 -5 476 5 l65 7 6 90 c4 50 9 142 12 206 l5 115 -214 1 -213 0 -31 -86z" id="166"/>
<path d="M740 1293 c-191 -9 -495 -49 -673 -89 l-67 -16 0 -345 c0 -325 1 -345 18 -338 51 20 337 87 467 109 270 45 353 51 700 51 256 0 363 -4 475 -18 439 -55 720 -124 1270 -314 l46 -15 129 71 c72 39 202 102 290 141 88 39 171 76 185 82 23 11 20 12 -35 20 -571 78 -991 216 -1320 434 -67 44 -101 58 -210 88 -405 111 -846 159 -1275 139z m739 -523 c41 -5 76 -12 79 -15 12 -12 -7 -13 -63 -5 -33 6 -160 13 -283 16 -140 5 -218 10 -210 16 16 11 372 2 477 -12z m-774 -10 c-3 -5 -24 -10 -46 -10 -75 0 -263 -32 -388 -66 -68 -19 -126 -32 -129 -29 -6 6 33 21 133 50 151 43 446 81 430 55z m165 0 c0 -5 -15 -10 -34 -10 -19 0 -38 5 -41 10 -4 6 10 10 34 10 23 0 41 -4 41 -10z m918 -35 c11 -11 -6 -13 -66 -8 -34 3 -62 10 -62 16 0 10 118 3 128 -8z m232 -20 c109 -18 240 -54 240 -66 0 -11 6 -12 -75 11 -39 11 -110 27 -160 35 -49 8 -105 18 -122 21 -18 2 -33 9 -33 14 0 5 12 7 28 5 15 -3 70 -12 122 -20z m415 -117 c7 -8 1 -9 -25 -4 -19 3 -39 11 -45 18 -7 8 -1 9 25 4 19 -3 39 -11 45 -18z m320 -89 c85 -28 158 -55 161 -60 9 -15 -20 -10 -86 16 -36 14 -111 39 -169 55 -57 17 -107 32 -109 35 -18 18 70 -2 203 -46z" id="167"/>
<path d="M8410 736 c-209 -86 -392 -214 -527 -368 -85 -97 -194 -270 -217 -345 l-7 -23 420 0 421 0 0 380 c0 432 9 396 -90 356z" id="168"/>
<path d="M775 625 c-228 -23 -509 -77 -707 -136 l-68 -20 0 -234 0 -235 1249 0 1249 0 114 81 c62 45 158 109 211 143 54 33 98 66 98 71 1 6 -106 46 -237 90 -394 132 -717 202 -1109 240 -193 18 -614 18 -800 0z" id="169"/>
</g>
</svg>