<?xml version="1.0" ?><!DOCTYPE svg  PUBLIC '-//W3C//DTD SVG 20010904//EN'  'http://www.w3.org/TR/2001/REC-SVG-20010904/DTD/svg10.dtd'><svg height="850.000000pt" preserveAspectRatio="xMidYMid meet" version="1.0" viewBox="0 0 850.000000 850.000000" width="850.000000pt" xmlns="http://www.w3.org/2000/svg">
<metadata>
Created by potrace 1.14, written by Peter Selinger 2001-2017
</metadata>
<g fill="#ffffff" stroke="none" transform="translate(0.000000,850.000000) scale(0.100000,-0.100000)">
<path d="M0 7716 l0 -784 77 24 c43 13 143 45 223 71 l145 48 -3 50 c-1 28 -23 337 -47 687 -25 350 -45 648 -45 662 l0 26 -175 0 -175 0 0 -784z" id="1"/>
<path d="M370 8473 c1 -80 98 -1384 104 -1390 8 -8 1749 56 1758 65 4 4 -4 293 -17 642 -14 349 -25 652 -25 673 l0 37 -910 0 -910 0 0 -27z" id="2"/>
<path d="M2210 8478 c1 -88 50 -1321 53 -1324 3 -4 237 93 245 101 3 3 0 11 -7 18 -6 8 -13 47 -16 88 -7 103 -33 580 -45 839 -6 118 -13 234 -16 258 l-6 42 -104 0 c-101 0 -104 -1 -104 -22z" id="3"/>
<path d="M2443 8468 c4 -18 11 -125 16 -238 33 -644 43 -831 49 -885 7 -56 9 -60 39 -68 22 -7 45 -5 75 4 43 14 43 14 51 74 14 98 -1 404 -32 665 -16 135 -25 249 -20 254 12 13 15 -11 49 -324 21 -198 31 -331 30 -435 -1 -82 -1 -154 0 -159 0 -5 7 -3 15 4 11 9 15 33 15 91 0 46 4 79 10 79 6 0 10 -25 10 -56 0 -79 23 -67 32 17 23 204 20 358 -11 637 -17 150 -31 295 -31 322 l0 50 -151 0 -151 0 5 -32z m187 -108 c0 -22 -4 -40 -10 -40 -5 0 -10 18 -10 40 0 22 5 40 10 40 6 0 10 -18 10 -40z" id="4"/>
<path d="M2763 8409 c4 -50 19 -193 33 -317 21 -188 25 -253 20 -382 -10 -263 -14 -296 -42 -309 -38 -17 -28 -31 24 -31 101 -1 818 22 840 26 21 4 22 8 22 125 l0 122 -322 -4 -323 -4 -12 400 c-6 220 -11 415 -12 433 l-1 32 -116 0 -117 0 6 -91z" id="5"/>
<path d="M3016 8338 c3 -90 9 -280 12 -423 l7 -260 285 3 c157 2 297 6 313 8 l27 6 0 240 0 239 -53 49 c-65 60 -112 144 -129 233 l-13 67 -227 0 -227 0 5 -162z" id="6"/>
<path d="M3495 8453 c9 -68 56 -164 105 -217 24 -25 46 -46 51 -46 5 0 9 70 9 155 l0 155 -86 0 -86 0 7 -47z" id="7"/>
<path d="M3680 8070 c0 -236 4 -430 8 -430 30 0 32 29 32 442 0 411 0 418 -20 418 -20 0 -20 -7 -20 -430z" id="8"/>
<path d="M3740 8353 c1 -134 2 -146 16 -128 22 29 53 136 60 210 l7 65 -42 0 -41 0 0 -147z" id="9"/>
<path d="M3836 8429 c-7 -81 -36 -174 -71 -230 -25 -38 -25 -40 -25 -292 l0 -254 198 -42 c108 -24 208 -45 221 -48 21 -5 23 -3 18 18 -3 13 -13 45 -23 70 -15 39 -16 51 -5 91 7 25 30 67 52 94 21 27 59 77 85 110 25 34 63 71 85 83 l39 22 0 225 0 224 -284 0 -283 0 -7 -71z" id="10"/>
<path d="M4430 8280 l0 -220 25 0 c13 0 40 11 60 24 42 29 114 46 190 46 l55 0 0 148 c0 81 3 164 6 185 l7 37 -172 0 -171 0 0 -220z" id="11"/>
<path d="M4786 8439 c-3 -34 -6 -119 -6 -190 l0 -128 60 -42 c33 -23 75 -65 96 -95 25 -37 44 -54 58 -54 32 0 66 -28 66 -54 0 -13 9 -31 20 -41 19 -17 20 -28 17 -140 -4 -119 -3 -124 25 -176 35 -67 36 -103 3 -133 -34 -32 -31 -59 10 -113 27 -36 35 -55 35 -88 0 -25 11 -67 26 -99 l26 -57 151 3 152 3 6 130 c4 80 14 165 28 220 19 77 112 435 127 488 4 13 -1 17 -18 17 -13 0 -40 5 -60 11 -33 9 -38 14 -38 39 0 33 11 38 90 42 l45 3 3 78 3 77 49 0 50 0 0 -79 0 -78 60 -7 c44 -5 63 -12 70 -26 18 -33 -12 -50 -110 -63 -13 -2 -15 -46 -18 -317 -2 -310 -2 -317 23 -414 14 -55 31 -106 37 -113 8 -11 80 -13 357 -11 l346 3 5 135 c4 87 11 145 20 164 8 16 282 265 610 554 327 289 616 545 642 569 l47 43 -1553 0 -1553 0 -7 -61z" id="12"/>
<path d="M7915 8486 c-6 -7 -296 -265 -645 -574 -453 -399 -640 -570 -653 -596 -15 -33 -17 -77 -17 -431 l0 -395 40 0 39 0 3 388 3 388 27 41 c28 43 309 296 336 302 39 8 42 -17 42 -407 l0 -373 38 3 37 3 5 440 c3 268 9 446 15 455 9 15 242 224 313 283 27 21 37 25 53 17 17 -10 19 -22 19 -126 l0 -115 43 3 42 3 6 185 c3 102 6 186 7 187 2 2 364 324 371 330 2 1 -22 3 -55 3 -38 0 -63 -5 -69 -14z m-46 -111 c-115 -109 -622 -546 -631 -543 -11 4 58 67 477 436 87 77 163 138 168 135 5 -3 -2 -16 -14 -28z m-249 -450 c0 -37 -4 -65 -10 -65 -11 0 -14 113 -3 123 12 13 13 7 13 -58z m-470 -174 c0 -10 -384 -353 -402 -360 -6 -2 -9 2 -6 9 4 14 388 358 401 359 4 1 7 -3 7 -8z m-10 -416 c0 -63 -4 -105 -10 -105 -11 0 -14 192 -3 203 12 13 13 7 13 -98z m-490 -640 c0 -70 -4 -115 -10 -115 -6 0 -10 45 -10 115 0 70 4 115 10 115 6 0 10 -45 10 -115z" id="13"/>
<path d="M8100 8474 c6 -15 10 -214 10 -495 l0 -469 40 0 40 0 0 495 0 495 -50 0 c-49 0 -49 0 -40 -26z m60 -569 c0 -43 -4 -75 -10 -75 -6 0 -10 32 -10 75 0 43 4 75 10 75 6 0 10 -32 10 -75z" id="14"/>
<path d="M8210 8005 l0 -495 29 0 c26 0 29 3 35 46 3 26 6 104 6 175 0 148 -12 134 128 144 l92 7 0 309 0 309 -145 0 -145 0 0 -495z" id="15"/>
<path d="M7876 8325 c-96 -86 -180 -164 -186 -175 -13 -24 -13 -347 -1 -355 16 -9 22 12 28 105 l6 90 58 0 58 0 3 -102 3 -102 35 -7 c19 -4 52 -10 72 -13 29 -5 39 -13 44 -32 8 -32 -9 -52 -52 -60 -19 -3 -36 -10 -39 -14 -2 -4 6 -38 18 -76 l22 -69 70 0 70 0 3 463 c2 446 -1 502 -27 502 -5 0 -88 -70 -185 -155z" id="16"/>
<path d="M5730 8044 l0 -75 28 3 c26 3 27 5 30 76 l3 72 -31 0 -30 0 0 -76z" id="17"/>
<path d="M4597 8096 c-71 -19 -68 -26 9 -26 131 0 248 -48 314 -128 39 -47 39 -28 0 30 -75 114 -193 159 -323 124z" id="18"/>
<path d="M4520 8039 c-26 -10 -60 -38 -60 -48 0 -3 42 -6 93 -7 75 -1 109 -7 187 -33 52 -18 119 -45 148 -62 59 -33 66 -24 22 31 -63 80 -183 131 -305 129 -33 0 -71 -5 -85 -10z" id="19"/>
<path d="M4400 8020 c-11 -7 -7 -10 18 -10 17 0 32 5 32 10 0 13 -30 13 -50 0z" id="20"/>
<path d="M7410 7909 c-63 -56 -139 -124 -168 -151 l-52 -50 2 -337 3 -336 110 0 110 0 3 68 3 67 64 0 65 0 0 264 c0 166 -4 267 -10 271 -5 3 -10 22 -10 41 0 19 5 34 10 34 6 0 10 45 10 115 0 85 -3 115 -12 115 -7 0 -65 -46 -128 -101z" id="21"/>
<path d="M4362 7981 c-10 -6 -7 -10 13 -15 27 -7 45 -1 45 15 0 11 -40 12 -58 0z" id="22"/>
<path d="M4473 7961 c-71 -12 -100 -51 -38 -51 19 0 78 -14 130 -31 53 -16 126 -37 163 -44 77 -17 212 -20 212 -5 0 15 -177 97 -245 114 -78 19 -169 26 -222 17z" id="23"/>
<path d="M7747 7963 c-3 -4 -6 -51 -8 -103 l-4 -95 37 -3 c46 -4 50 8 46 123 l-3 80 -32 3 c-17 2 -33 -1 -36 -5z" id="24"/>
<path d="M5653 7953 c9 -2 25 -2 35 0 9 3 1 5 -18 5 -19 0 -27 -2 -17 -5z" id="25"/>
<path d="M5823 7953 c9 -2 25 -2 35 0 9 3 1 5 -18 5 -19 0 -27 -2 -17 -5z" id="26"/>
<path d="M4345 7940 c3 -5 13 -10 21 -10 8 0 12 5 9 10 -3 6 -13 10 -21 10 -8 0 -12 -4 -9 -10z" id="27"/>
<path d="M5600 7929 c0 -12 62 -19 160 -19 98 0 160 7 160 19 0 3 -72 6 -160 6 -88 0 -160 -3 -160 -6z" id="28"/>
<path d="M4310 7907 l-25 -10 24 -5 c13 -2 28 1 33 6 15 15 -4 21 -32 9z" id="29"/>
<path d="M4990 7901 c0 -5 7 -12 15 -15 14 -5 14 -9 0 -35 -22 -44 -76 -80 -137 -93 -44 -9 -70 -8 -139 5 -46 9 -97 19 -114 22 l-30 6 37 -34 c21 -18 69 -46 107 -62 85 -34 144 -30 205 13 85 59 132 158 91 188 -22 16 -35 18 -35 5z" id="30"/>
<path d="M4450 7880 c0 -19 47 -39 165 -70 127 -33 245 -43 280 -22 17 10 10 11 -42 12 -75 0 -176 21 -301 60 -104 34 -102 33 -102 20z" id="31"/>
<path d="M5726 7788 c-3 -57 -8 -379 -11 -715 l-6 -613 34 0 35 0 7 673 c4 369 5 690 3 712 -3 35 -6 40 -29 43 l-27 3 -6 -103z" id="32"/>
<path d="M4345 7870 c-4 -6 6 -10 22 -10 49 0 108 -78 149 -194 8 -22 21 -85 30 -141 8 -55 21 -121 30 -148 17 -52 72 -117 98 -117 13 0 9 7 -14 26 -48 41 -61 76 -76 218 -20 187 -51 265 -133 339 -41 37 -92 50 -106 27z" id="33"/>
<path d="M4254 7851 c-64 -39 -105 -125 -85 -179 l9 -27 1 25 c2 41 36 103 75 138 20 17 41 32 46 32 6 0 10 7 10 15 0 20 -19 19 -56 -4z" id="34"/>
<path d="M4319 7820 c-19 -10 -41 -31 -48 -47 -8 -15 -24 -51 -37 -80 l-23 -52 45 -26 c76 -45 91 -114 44 -206 l-19 -36 27 -21 c20 -15 23 -21 11 -21 -9 -1 -27 8 -40 18 l-24 19 23 46 c33 69 30 83 -18 88 -44 4 -44 4 -54 -72 -5 -36 -2 -54 17 -90 13 -25 33 -63 45 -85 11 -22 28 -62 38 -89 13 -39 23 -51 52 -63 66 -27 144 1 259 95 l43 34 -44 42 c-41 40 -62 84 -80 167 -5 24 -12 27 -61 34 -36 4 -55 11 -55 20 0 7 -3 20 -6 29 -4 11 0 16 12 17 11 0 4 5 -14 10 -23 7 -32 15 -30 27 2 13 17 18 63 22 59 5 60 5 57 33 -8 72 -93 208 -131 207 -9 -1 -32 -9 -52 -20z m51 -466 c0 -9 -5 -14 -12 -12 -18 6 -21 28 -4 28 9 0 16 -7 16 -16z m37 -57 c91 -1 95 -8 30 -49 -81 -51 -123 -49 -150 7 -24 50 -22 58 11 50 16 -3 65 -7 109 -8z" id="35"/>
<path d="M4310 7249 c0 -12 38 -21 60 -14 32 10 23 20 -20 20 -22 1 -40 -2 -40 -6z" id="36"/>
<path d="M8298 7678 c-2 -90 -1 -166 2 -169 3 -4 49 -10 103 -13 l97 -7 0 175 0 176 -99 0 -100 0 -3 -162z" id="37"/>
<path d="M5040 7790 c-18 -42 -100 -114 -148 -128 -21 -7 -59 -12 -83 -13 -38 0 -41 -2 -21 -10 13 -5 54 -12 91 -15 53 -5 75 -3 104 11 48 22 100 102 95 146 -4 43 -22 47 -38 9z" id="38"/>
<path d="M5633 7589 c-77 -289 -87 -353 -80 -494 7 -130 32 -227 90 -345 l42 -85 3 54 c2 37 -3 70 -17 105 -38 94 -53 170 -58 292 -6 142 4 227 53 441 24 103 34 171 32 209 -3 55 -6 46 -65 -177z" id="39"/>
<path d="M4541 7766 c22 -38 151 -147 216 -184 39 -22 153 -42 246 -44 31 -1 67 27 67 51 -1 14 -2 14 -10 -1 -21 -34 -69 -40 -169 -18 -115 24 -152 46 -264 149 -48 45 -91 81 -97 81 -5 0 0 -15 11 -34z" id="40"/>
<path d="M7600 7760 c20 -13 113 -13 105 0 -3 6 -32 10 -63 10 -41 0 -53 -3 -42 -10z" id="41"/>
<path d="M7840 7750 c0 -6 25 -9 58 -9 56 1 57 1 17 10 -55 11 -75 11 -75 -1z" id="42"/>
<path d="M7560 7732 c0 -30 326 -57 385 -31 27 12 11 14 -145 20 -96 3 -190 9 -207 13 -20 5 -33 4 -33 -2z" id="43"/>
<path d="M7572 7433 l3 -258 40 0 40 0 3 244 c1 135 -1 248 -5 252 -5 3 -25 10 -46 13 l-37 7 2 -258z" id="44"/>
<path d="M4584 7658 c3 -13 6 -31 6 -40 0 -9 7 -24 17 -33 12 -12 13 -19 4 -24 -9 -6 -9 -29 -2 -92 12 -105 21 -129 62 -163 28 -24 34 -25 41 -12 13 23 31 20 23 -4 -5 -16 -2 -20 19 -20 14 0 26 -4 26 -10 0 -13 -34 -30 -63 -30 -14 0 -51 -21 -88 -51 -35 -28 -77 -58 -92 -66 -21 -10 -27 -19 -22 -31 4 -9 9 -33 12 -52 3 -20 11 -44 18 -54 13 -17 16 -16 54 15 22 19 35 36 30 40 -5 3 5 30 23 61 18 31 41 71 52 89 10 19 21 29 23 22 4 -12 -37 -100 -69 -145 -23 -33 -15 -35 30 -8 52 32 33 0 -21 -36 -100 -66 -110 -94 -53 -147 30 -29 35 -40 41 -102 9 -79 -1 -381 -15 -465 -22 -132 -24 -199 -5 -240 17 -38 17 -42 0 -86 -14 -36 -15 -48 -5 -57 8 -8 14 -8 16 -2 3 6 34 64 70 130 188 346 235 498 219 704 -6 65 -4 83 4 75 7 -6 15 -51 18 -100 11 -175 -37 -345 -162 -574 -127 -233 -137 -258 -125 -295 6 -18 8 -45 4 -59 -5 -23 -3 -26 21 -26 22 0 29 7 43 43 9 23 71 152 138 287 153 306 177 377 178 520 0 157 -40 261 -150 397 -74 91 -84 118 -84 233 0 82 -3 100 -15 100 -8 0 -15 5 -15 10 0 6 8 10 18 10 10 0 27 7 38 15 18 14 17 14 -15 8 -29 -5 -33 -4 -28 13 3 10 9 34 12 52 7 32 6 33 -13 21 -11 -7 -23 -28 -27 -46 -3 -18 -11 -33 -17 -33 -6 0 -8 12 -4 32 6 29 -4 58 -46 143 -10 20 -110 105 -124 105 -3 0 -4 -10 0 -22z" id="45"/>
<path d="M5048 7658 c-21 -32 -75 -58 -125 -59 l-38 -1 48 -13 c64 -18 100 -5 122 41 20 43 15 66 -7 32z" id="46"/>
<path d="M7681 7543 c1 -80 4 -119 9 -103 12 37 12 230 0 230 -6 0 -10 -49 -9 -127z" id="47"/>
<path d="M7731 7648 c-4 -13 -16 -192 -25 -398 -10 -206 -19 -404 -21 -440 -2 -36 -13 -263 -26 -505 -13 -242 -20 -448 -16 -458 8 -20 75 -24 82 -4 8 19 85 1808 79 1818 -3 5 -19 9 -35 9 -22 0 -32 -6 -38 -22z" id="48"/>
<path d="M7837 7663 c-18 -17 1 -87 109 -405 125 -370 175 -492 273 -665 66 -116 195 -296 250 -347 l31 -30 0 52 c0 29 -4 52 -9 52 -14 0 -130 151 -181 235 -59 96 -147 281 -215 455 -59 151 -215 610 -215 634 0 8 -7 17 -16 20 -19 7 -19 7 -27 -1z" id="49"/>
<path d="M3740 7508 l0 -124 253 -71 c138 -39 253 -70 255 -68 2 1 -10 25 -26 51 -38 62 -44 95 -33 164 5 30 7 59 5 65 -2 5 -95 29 -207 53 -111 23 -212 45 -224 48 -23 6 -23 6 -23 -118z" id="50"/>
<path d="M3687 7583 c-4 -3 -7 -50 -7 -104 0 -94 -1 -99 -22 -103 -13 -3 -121 -7 -241 -10 l-218 -6 -1032 -477 c-568 -262 -1035 -479 -1039 -482 -3 -3 121 -458 278 -1011 156 -553 283 -1014 284 -1025 0 -17 -658 -783 -1526 -1778 l-164 -188 0 -1199 0 -1200 1155 0 c635 0 1155 2 1155 4 0 3 -28 26 -62 52 -72 54 -148 124 -148 136 0 5 10 22 21 38 l21 28 -46 60 c-63 83 -106 116 -183 141 -78 26 -101 37 -130 64 -33 29 -29 63 10 95 17 15 65 58 105 96 81 78 84 90 56 187 -13 45 -27 65 -84 119 -63 59 -109 130 -110 168 0 18 346 473 450 592 47 53 125 141 173 195 49 54 108 126 132 160 107 150 116 212 39 285 -72 69 -69 78 99 249 167 172 280 309 393 481 151 229 258 446 334 672 28 84 31 103 23 149 -7 48 -11 53 -40 61 -35 9 -49 38 -41 83 4 17 -2 31 -18 46 -17 16 -24 34 -24 60 0 28 -6 40 -25 53 -17 11 -25 26 -25 44 0 17 -8 32 -21 40 -16 10 -20 20 -16 41 4 20 1 30 -14 39 -16 10 -19 24 -19 76 0 58 2 64 23 70 40 10 97 65 97 94 0 27 9 43 69 127 52 73 85 161 82 224 -2 61 18 101 50 101 26 0 77 108 174 365 93 248 107 278 176 372 69 95 103 180 94 233 -4 19 -27 80 -52 134 -35 75 -47 113 -49 155 l-2 56 -193 122 c-107 67 -195 129 -197 136 -2 8 136 130 325 288 187 156 321 275 314 277 -8 3 -89 26 -180 51 l-166 46 -3 113 c-2 84 -6 112 -16 112 -7 0 -16 -3 -19 -7z m-1129 -1311 c12 -25 11 -29 -19 -54 -41 -34 -80 -43 -116 -26 -38 18 -43 48 -8 48 30 0 75 21 94 44 19 23 34 19 49 -12z m-915 -72 c43 -11 47 -15 47 -42 0 -39 -18 -44 -126 -30 -108 14 -132 21 -112 33 7 5 23 9 35 9 13 0 37 13 55 29 20 17 37 26 43 21 6 -5 32 -14 58 -20z m691 -199 c26 -29 70 -35 107 -17 42 21 42 21 34 -11 -10 -42 -24 -53 -64 -53 -51 0 -66 -12 -51 -40 14 -26 19 -21 -53 -51 -54 -21 -61 -22 -85 -8 -15 8 -28 25 -30 38 -3 20 -1 21 18 11 17 -9 28 -8 57 7 44 21 52 38 22 46 l-21 6 21 27 c13 16 19 35 16 46 -8 24 7 23 29 -1z m1106 -152 c0 -37 -39 -79 -73 -79 -35 0 -77 36 -77 67 0 25 1 25 18 10 28 -25 61 -21 91 12 30 34 41 31 41 -10z m-1888 -154 c11 -14 30 -25 43 -25 13 0 37 11 53 25 17 14 33 25 36 25 3 0 6 -18 6 -40 0 -34 -4 -42 -26 -50 -41 -16 -89 -12 -117 10 -28 22 -42 54 -32 70 9 15 15 13 37 -15z m646 -77 c8 -10 21 -18 29 -18 8 0 13 -7 11 -17 -2 -13 -24 -24 -71 -37 l-67 -20 -30 29 c-17 16 -30 38 -30 50 0 17 6 20 38 20 23 0 50 9 68 22 26 19 29 20 33 5 1 -9 10 -25 19 -34z m407 -531 c33 -19 40 -28 38 -51 -3 -37 -37 -87 -81 -117 -53 -36 -143 -34 -201 4 -70 46 -69 79 1 60 48 -13 64 -9 79 19 9 16 7 26 -10 48 -15 22 -17 30 -8 38 38 30 129 29 182 -1z m303 -123 c13 -19 22 -40 20 -46 -2 -5 -38 -29 -80 -53 l-76 -43 -68 46 c-72 48 -72 51 -4 66 14 3 35 14 47 26 29 26 32 26 44 -10 6 -16 15 -30 20 -30 5 0 22 18 37 40 15 21 29 39 32 39 3 1 15 -15 28 -35z m-998 -1616 c6 -21 15 -38 20 -38 4 0 21 17 38 37 l29 37 32 -27 c18 -14 51 -31 74 -37 23 -6 46 -12 51 -13 5 -2 -15 -24 -44 -50 -83 -74 -191 -97 -278 -57 -34 16 -47 29 -67 71 -26 58 -25 69 9 69 12 0 42 13 66 29 25 15 48 26 51 22 4 -3 12 -23 19 -43z m-439 -1594 c19 -24 102 -63 148 -70 54 -9 53 -23 -12 -109 -62 -83 -153 -148 -227 -164 -133 -29 -273 -1 -354 70 -40 35 -76 84 -76 104 0 3 39 5 88 5 58 1 105 7 140 19 37 13 55 15 57 7 10 -37 15 -46 24 -46 24 0 113 85 147 140 20 33 40 60 44 60 4 0 13 -7 21 -16z" id="51"/>
<path d="M2472 6236 c-35 -18 -40 -25 -27 -30 20 -7 87 23 93 42 5 18 -17 14 -66 -12z" id="52"/>
<path d="M1546 6175 c-27 -20 -19 -25 54 -27 71 -3 91 13 39 31 -42 15 -70 13 -93 -4z" id="53"/>
<path d="M2320 5954 c0 -8 4 -13 9 -9 5 3 12 1 15 -3 3 -5 18 -7 33 -4 l28 5 -35 13 c-47 17 -50 17 -50 -2z" id="54"/>
<path d="M2314 5879 c-3 -6 -23 -18 -43 -26 -20 -9 -31 -18 -24 -20 17 -6 95 36 88 47 -8 13 -12 13 -21 -1z" id="55"/>
<path d="M3373 5816 c-18 -6 -33 -14 -33 -18 0 -14 47 -8 60 7 17 20 11 23 -27 11z" id="56"/>
<path d="M1647 5663 c-4 -3 -24 -9 -44 -13 l-38 -8 36 -1 c19 0 44 6 55 14 10 8 14 15 8 15 -6 0 -14 -3 -17 -7z" id="57"/>
<path d="M2130 5614 c-14 -8 -36 -14 -50 -14 l-25 0 25 -25 c23 -23 29 -24 65 -14 54 15 59 22 33 46 -20 17 -26 18 -48 7z" id="58"/>
<path d="M2463 5083 c-7 -2 -13 -8 -13 -13 0 -15 64 -70 82 -70 26 0 88 32 88 46 0 29 -113 55 -157 37z" id="59"/>
<path d="M2448 4978 c-24 -27 -32 -29 -65 -24 -36 6 -37 6 -18 -9 58 -46 144 -43 200 7 38 33 47 55 16 38 -27 -14 -63 -13 -86 4 -18 12 -23 11 -47 -16z" id="60"/>
<path d="M2853 4927 c-30 -44 -29 -51 6 -32 36 18 43 28 35 49 -9 23 -16 20 -41 -17z" id="61"/>
<path d="M2728 4922 c-16 -10 -28 -19 -28 -22 0 -3 15 -15 34 -27 33 -21 34 -21 51 -3 16 17 15 20 0 44 -20 30 -21 30 -57 8z" id="62"/>
<path d="M1855 3351 c-3 -6 -24 -16 -45 -22 -22 -7 -40 -14 -40 -17 0 -17 36 -74 55 -86 28 -18 97 -31 120 -22 14 5 13 11 -9 39 -14 19 -32 51 -39 72 -14 40 -30 54 -42 36z" id="63"/>
<path d="M1968 3315 c-35 -41 -35 -48 -2 -74 36 -28 53 -26 102 9 45 32 53 50 23 50 -10 0 -35 11 -55 25 -20 14 -38 25 -39 24 -1 0 -14 -15 -29 -34z" id="64"/>
<path d="M1411 1679 c-23 -33 -64 -76 -91 -96 -28 -21 -50 -42 -50 -49 0 -6 20 -30 45 -53 58 -53 84 -53 164 0 57 38 151 141 151 165 0 6 -20 17 -45 24 -25 7 -65 25 -89 40 l-43 28 -42 -59z" id="65"/>
<path d="M1170 1585 c-19 -7 -68 -14 -107 -14 -87 -1 -92 -11 -32 -66 60 -54 119 -77 216 -83 46 -2 83 -1 83 3 0 4 -20 29 -44 55 -24 25 -49 63 -57 83 -7 20 -15 37 -19 36 -3 0 -21 -7 -40 -14z" id="66"/>
<path d="M6895 7456 c-82 -73 -159 -148 -170 -167 -17 -28 -20 -52 -20 -144 l0 -110 180 0 180 0 3 255 c3 247 0 300 -16 300 -4 0 -74 -60 -157 -134z" id="67"/>
<path d="M5678 7515 c-40 -166 -63 -415 -42 -469 7 -19 53 -21 59 -3 3 7 4 131 3 277 l-3 265 -17 -70z" id="68"/>
<path d="M4465 7560 c-20 -5 -23 -8 -10 -9 11 -1 31 -4 44 -8 17 -4 22 -2 19 7 -5 17 -16 19 -53 10z" id="69"/>
<path d="M4774 7535 c11 -8 22 -12 25 -9 6 6 -19 24 -34 24 -5 -1 -1 -7 9 -15z" id="70"/>
<path d="M5075 7498 c2 -58 14 -98 31 -98 26 0 29 51 4 97 -12 24 -26 43 -29 43 -4 0 -6 -19 -6 -42z" id="71"/>
<path d="M4869 7521 c14 -4 27 -13 29 -20 3 -9 -2 -11 -16 -7 -22 7 -39 -8 -22 -19 16 -10 12 -22 -11 -28 -12 -3 -18 -10 -15 -15 11 -18 45 0 67 34 27 44 19 64 -23 63 -29 -1 -30 -2 -9 -8z" id="72"/>
<path d="M4500 7505 c0 -8 7 -15 16 -15 14 0 14 3 4 15 -7 8 -14 15 -16 15 -2 0 -4 -7 -4 -15z" id="73"/>
<path d="M4940 7501 c0 -9 -11 -33 -25 -53 -32 -47 -31 -58 0 -58 59 0 127 49 140 101 6 25 6 26 -54 26 -49 0 -61 -3 -61 -16z" id="74"/>
<path d="M7816 7348 c-3 -88 -4 -163 -2 -165 5 -6 128 -24 132 -20 5 5 -110 347 -117 347 -3 0 -9 -73 -13 -162z" id="75"/>
<path d="M8213 7484 c4 -4 58 -13 120 -20 137 -16 167 -17 167 -5 0 5 -39 12 -87 15 -49 4 -115 9 -148 12 -33 4 -57 3 -52 -2z" id="76"/>
<path d="M7960 7472 c0 -11 105 -321 111 -327 2 -2 87 -15 189 -29 102 -14 197 -28 213 -31 l27 -4 0 172 0 173 -222 23 c-123 13 -244 25 -270 28 -31 4 -48 2 -48 -5z" id="77"/>
<path d="M5048 7386 c-3 -24 -16 -58 -28 -76 -20 -28 -21 -33 -8 -46 13 -13 17 -12 33 13 21 31 33 137 17 147 -5 3 -12 -13 -14 -38z" id="78"/>
<path d="M4993 7364 c-25 -39 -28 -50 -13 -59 11 -7 36 30 45 68 10 37 -5 33 -32 -9z" id="79"/>
<path d="M4946 7370 c-15 -5 -16 -9 -7 -14 7 -5 18 -3 24 3 14 14 6 20 -17 11z" id="80"/>
<path d="M4857 7364 c-4 -4 -7 -17 -7 -28 1 -19 1 -20 11 -3 11 19 8 43 -4 31z" id="81"/>
<path d="M2055 6892 c-667 -297 -1051 -473 -1053 -482 -1 -9 108 -464 243 -1013 135 -548 245 -1005 245 -1016 0 -11 -166 -183 -431 -445 l-430 -426 40 -51 c23 -29 41 -55 41 -59 0 -4 -20 -7 -45 -8 -60 0 -113 -18 -158 -54 -20 -16 -46 -28 -57 -26 -14 2 -80 -57 -235 -212 l-215 -214 2 -225 3 -225 815 939 c448 517 824 950 834 963 19 24 19 25 -269 1044 -239 849 -285 1022 -274 1032 8 7 463 219 1011 472 863 397 1031 477 991 473 -5 0 -480 -211 -1058 -467z" id="82"/>
<path d="M2718 7334 c-16 -8 -28 -21 -28 -29 0 -21 -38 -42 -90 -50 -25 -4 -113 -35 -196 -70 l-150 -64 -885 -31 -884 -32 -233 -71 c-127 -39 -237 -74 -242 -77 -7 -4 -9 -676 -8 -1998 l3 -1992 209 209 209 209 -56 29 c-33 16 -53 32 -49 38 15 23 93 77 138 97 30 13 69 21 101 21 l53 0 432 426 432 427 -252 1024 c-139 563 -249 1027 -244 1032 4 4 459 208 1011 453 552 245 1011 450 1020 455 11 6 -31 9 -124 9 -105 0 -147 -4 -167 -15z m-1722 -2219 c19 -18 34 -43 34 -54 0 -28 -67 -101 -107 -118 -51 -21 -82 -17 -93 13 -18 46 -13 61 18 56 39 -5 90 45 98 99 4 21 9 39 12 39 3 0 20 -16 38 -35z m-549 -701 c50 -6 51 -7 42 -31 -5 -14 -7 -29 -3 -34 9 -15 40 -10 65 10 l24 19 35 -36 c19 -21 44 -42 55 -49 18 -10 15 -14 -39 -38 -106 -50 -194 -46 -250 10 -38 37 -51 79 -41 125 7 33 16 35 112 24z m419 -185 c18 -12 47 -19 76 -19 39 0 49 4 66 27 15 20 29 28 56 29 20 0 36 -3 36 -7 0 -5 -15 -25 -32 -45 -92 -104 -283 -115 -353 -19 -20 27 -20 28 -1 39 11 6 33 23 50 38 l31 27 21 -25 c12 -14 34 -34 50 -45z" id="83"/>
<path d="M954 5065 c-16 -34 -50 -65 -86 -78 -20 -7 -23 -22 -8 -32 20 -12 79 17 114 56 41 45 44 59 16 76 -17 11 -21 9 -36 -22z" id="84"/>
<path d="M355 4377 c-8 -31 19 -93 50 -113 27 -17 100 -31 93 -18 -30 62 -39 92 -36 116 3 21 0 28 -11 28 -9 0 -33 3 -53 6 -34 6 -38 4 -43 -19z" id="85"/>
<path d="M550 4330 c-8 -5 -25 -10 -37 -10 -28 0 -29 -10 -2 -44 24 -30 35 -32 89 -10 l41 17 -33 28 c-38 32 -38 32 -58 19z" id="86"/>
<path d="M755 4235 l-30 -25 28 -24 c34 -32 82 -41 135 -26 51 13 54 26 8 34 -19 4 -49 20 -66 36 -18 17 -35 30 -39 30 -3 0 -19 -11 -36 -25z" id="87"/>
<path d="M1017 4215 c-23 -32 -7 -32 23 0 16 17 19 25 9 25 -8 0 -22 -12 -32 -25z" id="88"/>
<path d="M4868 7309 c-28 -28 -39 -74 -16 -67 17 6 50 64 46 82 -2 9 -11 5 -30 -15z" id="89"/>
<path d="M4907 7276 c-9 -20 -28 -42 -42 -48 -43 -20 -30 -107 14 -93 38 12 68 96 53 148 l-8 29 -17 -36z" id="90"/>
<path d="M5063 7267 c-26 -43 -29 -67 -9 -67 17 0 39 51 34 82 -3 21 -5 20 -25 -15z" id="91"/>
<path d="M4957 7236 c-8 -57 -39 -112 -69 -121 -14 -5 -17 -10 -9 -18 16 -16 58 7 81 45 20 33 25 87 11 123 -6 14 -9 7 -14 -29z" id="92"/>
<path d="M3775 6979 c-170 -143 -310 -265 -310 -271 0 -6 82 -63 183 -127 147 -92 185 -112 193 -100 5 8 9 17 9 20 0 4 -70 48 -155 99 -85 50 -158 97 -164 104 -7 8 72 83 270 261 154 137 285 255 291 262 35 43 -41 -17 -317 -248z" id="93"/>
<path d="M3852 6983 c-160 -142 -291 -262 -291 -268 0 -9 268 -177 293 -183 14 -3 149 125 166 158 7 14 21 31 31 38 10 7 39 41 64 76 97 137 201 196 343 196 56 0 61 6 42 55 -10 25 -12 26 -63 20 -38 -5 -64 -2 -90 9 -36 14 -43 25 -75 107 -8 20 -22 29 -56 38 -24 6 -51 11 -59 11 -8 0 -145 -116 -305 -257z" id="94"/>
<path d="M5087 7201 c-16 -25 -23 -42 -16 -46 15 -10 37 13 44 46 10 45 1 44 -28 0z" id="95"/>
<path d="M5000 7205 c0 -41 -25 -90 -61 -118 -38 -30 -33 -35 11 -12 43 22 70 62 70 106 0 21 -4 41 -10 44 -6 4 -10 -5 -10 -20z" id="96"/>
<path d="M5121 7165 c-17 -33 -21 -49 -13 -57 16 -16 30 -1 38 36 11 61 1 69 -25 21z" id="97"/>
<path d="M7815 7152 c-3 -3 -5 -13 -5 -23 0 -19 16 -24 103 -34 47 -6 57 -5 57 8 0 8 -6 19 -12 25 -15 11 -135 32 -143 24z" id="98"/>
<path d="M7629 7138 c23 -6 37 -6 44 1 8 8 -2 11 -33 10 l-45 -1 34 -10z" id="99"/>
<path d="M5013 7105 c-17 -28 -19 -36 -8 -45 16 -14 45 23 45 57 0 32 -11 28 -37 -12z" id="100"/>
<path d="M5807 7111 c-4 -18 -7 -128 -7 -243 0 -187 2 -209 15 -198 53 44 66 270 23 400 -24 73 -24 74 -31 41z" id="101"/>
<path d="M7440 6982 l0 -159 94 -21 c52 -12 101 -22 109 -22 15 0 18 18 31 242 2 43 1 80 -3 82 -8 5 -193 36 -216 36 -13 0 -15 -24 -15 -158z" id="102"/>
<path d="M8086 7111 c-3 -5 2 -18 12 -29 12 -14 39 -23 95 -31 96 -14 307 -15 307 -1 0 10 -9 12 -215 40 -82 11 -160 23 -172 25 -12 3 -24 1 -27 -4z" id="103"/>
<path d="M5150 7087 c0 -8 9 -22 20 -32 23 -21 25 -16 8 20 -12 27 -28 34 -28 12z" id="104"/>
<path d="M5051 7059 c-18 -24 -20 -34 -11 -42 15 -15 40 16 40 50 0 30 -2 29 -29 -8z" id="105"/>
<path d="M7806 7068 c-11 -56 -15 -317 -4 -324 12 -8 342 -84 346 -80 1 2 -20 50 -47 107 -27 57 -64 145 -82 194 -19 50 -38 93 -43 96 -5 4 -38 10 -74 14 -36 4 -71 9 -78 12 -8 3 -15 -5 -18 -19z" id="106"/>
<path d="M5100 7060 c0 -12 -7 -32 -16 -46 -13 -20 -14 -28 -5 -37 10 -9 17 -7 32 12 20 24 24 47 13 75 -9 23 -24 20 -24 -4z" id="107"/>
<path d="M4943 7048 c-32 -15 -29 -30 4 -26 17 2 29 10 31 21 4 19 -3 20 -35 5z" id="108"/>
<path d="M5136 6997 c-11 -23 -22 -45 -24 -49 -2 -5 6 -8 17 -8 28 0 56 53 41 80 -6 11 -12 20 -13 20 -1 0 -11 -19 -21 -43z" id="109"/>
<path d="M8130 6990 c11 -27 29 -71 39 -97 36 -90 103 -223 112 -223 6 0 8 70 7 172 l-3 173 -65 12 c-36 7 -75 12 -87 13 l-23 0 20 -50z" id="110"/>
<path d="M4976 7005 c-11 -8 -17 -18 -14 -21 11 -10 48 7 48 22 0 18 -10 17 -34 -1z" id="111"/>
<path d="M8310 6809 l0 -212 56 -84 c31 -47 62 -87 70 -90 7 -2 24 4 38 14 l25 18 1 283 0 282 -95 0 -95 0 0 -211z" id="112"/>
<path d="M5227 6983 c3 -16 11 -42 19 -60 8 -17 14 -47 14 -66 0 -52 38 -86 58 -51 8 14 10 14 25 -1 24 -24 21 -69 -8 -103 -31 -38 -33 -101 -5 -157 22 -44 25 -78 9 -123 -8 -25 -7 -35 7 -58 12 -17 18 -46 18 -79 0 -49 -5 -61 -49 -121 -6 -8 -4 -22 5 -38 12 -24 11 -28 -6 -41 -26 -20 -41 -19 -80 6 -60 37 -71 85 -28 124 21 20 25 30 19 54 -8 36 -15 42 -64 51 -20 4 -44 11 -54 15 -18 7 -18 -2 -13 -221 4 -125 9 -230 12 -233 2 -3 766 -431 1697 -951 l1692 -947 3 1096 2 1096 -68 73 -67 73 -275 -217 c-151 -119 -275 -219 -275 -222 0 -4 19 -10 43 -14 64 -11 94 -29 118 -72 15 -27 35 -44 67 -58 61 -27 82 -78 57 -142 -47 -125 -667 -116 -812 12 -21 18 -24 78 -6 117 7 16 32 37 60 51 51 26 55 44 10 45 -15 0 -205 76 -422 168 l-395 168 -3 161 c-2 160 -2 161 20 164 l23 3 3 263 2 262 -349 0 -349 0 5 -73 c3 -41 0 -104 -6 -142 -12 -65 -50 -157 -71 -170 -5 -3 -10 -32 -10 -64 l0 -58 49 -7 c76 -10 110 -25 127 -57 9 -18 30 -36 54 -45 43 -17 54 -38 48 -95 -2 -25 -11 -38 -34 -51 -48 -28 -158 -48 -269 -48 -133 0 -218 14 -285 48 -52 26 -55 30 -58 70 -3 34 1 45 23 64 14 13 43 41 64 62 33 33 50 41 103 51 l63 11 3 55 c3 48 -2 63 -32 113 -38 64 -92 202 -109 284 l-11 52 -157 0 -156 0 4 -27z m633 -1210 c0 -8 -15 -30 -34 -49 -42 -42 -82 -45 -125 -8 -41 34 -42 56 -3 42 35 -14 93 -3 124 21 25 21 38 19 38 -6z m1915 -844 c-6 -39 -3 -60 11 -91 21 -47 17 -52 -63 -68 -77 -16 -163 3 -163 36 0 9 -19 34 -42 55 -45 40 -35 51 17 18 51 -32 77 -40 109 -33 48 10 86 43 107 90 10 24 21 44 25 44 3 0 3 -23 -1 -51z" id="113"/>
<path d="M5757 5733 c-15 -2 -25 -9 -22 -14 9 -14 39 -11 61 6 20 15 16 16 -39 8z" id="114"/>
<path d="M7690 4844 c-24 -13 -59 -24 -77 -24 -40 0 -44 -17 -5 -26 15 -3 33 -8 41 -10 20 -7 121 16 121 26 0 15 -23 60 -29 59 -3 -1 -26 -12 -51 -25z" id="115"/>
<path d="M5646 6983 c12 -58 35 -133 39 -133 3 0 5 36 5 80 0 79 0 80 -25 80 -22 0 -25 -3 -19 -27z" id="116"/>
<path d="M6700 6756 c0 -153 4 -257 10 -261 5 -3 68 -3 139 1 l131 7 2 161 3 161 40 5 40 5 0 85 0 85 -182 3 -183 2 0 -254z" id="117"/>
<path d="M7190 6920 l0 -90 115 0 115 0 0 90 0 90 -115 0 -115 0 0 -90z" id="118"/>
<path d="M5013 6973 c-24 -16 -31 -43 -12 -43 20 0 49 21 49 35 0 22 -13 24 -37 8z" id="119"/>
<path d="M4344 6961 c-65 -18 -101 -41 -148 -89 l-28 -30 23 -13 c13 -7 63 -15 112 -17 l87 -4 0 -32 c0 -39 61 -102 130 -136 25 -12 60 -33 78 -47 18 -14 36 -22 39 -19 15 15 -22 60 -78 94 -109 66 -159 119 -159 171 0 35 17 32 65 -9 53 -46 115 -80 145 -80 17 0 20 6 20 38 -1 30 -3 34 -11 20 -17 -31 -70 -23 -107 15 -33 34 -41 57 -20 57 6 0 19 -7 28 -15 10 -9 35 -18 56 -21 l39 -5 -27 23 c-16 13 -28 31 -28 40 0 9 -8 23 -18 30 -10 7 -21 21 -25 31 -9 23 -89 22 -173 -2z" id="120"/>
<path d="M5177 6942 c-14 -16 -12 -21 24 -61 l39 -44 0 30 c0 16 -11 43 -24 61 -22 30 -24 31 -39 14z" id="121"/>
<path d="M5038 6922 c-32 -20 -33 -22 -14 -48 20 -26 50 -8 54 35 4 35 -1 36 -40 13z" id="122"/>
<path d="M5100 6892 c0 -11 -9 -27 -20 -37 -24 -22 -26 -43 -4 -52 11 -4 22 1 30 12 16 22 19 95 4 95 -5 0 -10 -8 -10 -18z" id="123"/>
<path d="M5140 6864 c0 -26 -8 -51 -21 -68 l-20 -26 25 -12 c33 -14 37 -9 43 45 4 29 0 54 -10 73 l-16 29 -1 -41z" id="124"/>
<path d="M5190 6823 c0 -23 -5 -54 -12 -68 -10 -23 -9 -29 19 -57 l32 -31 7 37 c7 40 -8 106 -32 141 -13 18 -14 16 -14 -22z" id="125"/>
<path d="M4430 6813 c0 -26 51 -72 134 -122 37 -22 70 -41 73 -41 2 0 3 17 1 37 -3 32 -7 37 -32 40 -39 5 -98 36 -141 74 -30 27 -35 29 -35 12z" id="126"/>
<path d="M4122 6778 c-17 -24 -42 -54 -56 -67 -14 -14 -26 -28 -26 -32 0 -4 16 -17 35 -29 33 -20 35 -20 60 -4 25 16 27 16 55 -5 21 -15 37 -20 55 -15 14 3 32 1 40 -6 17 -15 42 -7 78 25 29 26 29 29 1 128 -4 14 -17 17 -67 17 -34 1 -80 7 -102 15 -22 8 -41 15 -42 15 -1 0 -15 -19 -31 -42z" id="127"/>
<path d="M7120 6801 c30 -17 520 -152 530 -146 14 9 12 81 -2 92 -7 6 -66 22 -130 37 -99 22 -141 26 -265 26 -87 0 -142 -4 -133 -9z" id="128"/>
<path d="M7000 6656 c0 -103 4 -146 13 -153 22 -19 610 -214 618 -206 4 4 9 80 11 168 l3 160 -300 87 c-165 47 -310 87 -322 87 -23 1 -23 0 -23 -143z" id="129"/>
<path d="M5060 6773 c0 -13 29 -38 35 -31 3 3 -4 13 -15 23 -11 10 -20 13 -20 8z" id="130"/>
<path d="M5260 6767 c0 -22 31 -30 49 -12 14 13 14 15 -1 15 -9 0 -23 3 -32 6 -10 4 -16 1 -16 -9z" id="131"/>
<path d="M5306 6724 c-11 -7 -16 -17 -13 -21 4 -4 15 1 24 10 9 9 15 19 12 21 -2 2 -13 -2 -23 -10z" id="132"/>
<path d="M5080 6713 c1 -23 90 -103 114 -103 6 0 -10 21 -34 46 -46 46 -80 71 -80 57z" id="133"/>
<path d="M7794 6707 c-3 -8 -4 -34 -2 -58 3 -38 6 -44 33 -51 31 -10 343 -3 353 7 16 16 -40 37 -188 70 -91 21 -171 40 -177 42 -7 3 -15 -2 -19 -10z" id="134"/>
<path d="M5260 6703 c0 -7 5 -24 12 -38 9 -20 9 -36 0 -71 -13 -47 -5 -85 9 -48 13 32 9 117 -6 144 -8 14 -14 20 -15 13z" id="135"/>
<path d="M3978 6607 c-105 -86 -147 -167 -129 -249 12 -53 96 -234 103 -222 3 5 18 47 33 94 15 47 50 146 76 220 27 74 49 139 49 145 0 5 -18 20 -40 33 l-39 22 -53 -43z" id="136"/>
<path d="M5090 6637 c0 -8 8 -21 18 -30 20 -18 92 -50 98 -44 2 2 -17 19 -43 38 -68 49 -73 52 -73 36z" id="137"/>
<path d="M5240 6636 c0 -8 5 -18 10 -21 6 -3 10 3 10 14 0 12 -4 21 -10 21 -5 0 -10 -6 -10 -14z" id="138"/>
<path d="M4357 6615 c-30 -26 -66 -32 -84 -14 -8 8 -17 8 -31 0 -16 -8 -25 -6 -46 10 -48 37 -38 57 -186 -379 -94 -277 -103 -298 -159 -375 -74 -103 -84 -123 -166 -342 -37 -99 -87 -225 -111 -280 -49 -110 -50 -117 -30 -134 8 -7 18 -25 21 -41 4 -19 14 -29 31 -33 20 -4 28 3 54 47 16 28 72 103 125 166 175 208 275 371 350 565 28 72 100 217 181 361 l134 242 0 76 c0 78 -22 156 -44 156 -6 0 -24 -12 -39 -25z m-313 -902 c-19 -14 -54 -18 -54 -5 0 4 15 14 33 22 35 16 51 5 21 -17z" id="139"/>
<path d="M4504 6607 c64 -48 107 -91 112 -113 7 -27 24 -23 24 5 0 29 -37 69 -94 101 -60 35 -84 39 -42 7z" id="140"/>
<path d="M4455 6578 c9 -43 30 -58 78 -58 35 0 38 2 26 16 -14 17 -94 74 -104 74 -4 0 -4 -15 0 -32z" id="141"/>
<path d="M5080 6552 c0 -24 6 -45 16 -53 13 -11 15 -7 12 36 -4 61 -28 75 -28 17z" id="142"/>
<path d="M7787 6573 c-3 -5 -8 -79 -12 -165 l-7 -158 26 -12 c16 -7 30 -8 35 -2 5 5 11 80 12 167 3 131 1 160 -11 167 -18 12 -37 13 -43 3z" id="143"/>
<path d="M7990 6573 c-58 -2 -109 -8 -114 -13 -5 -5 -12 -87 -15 -182 l-6 -173 -42 -9 c-37 -9 -43 -14 -47 -40 -9 -55 -14 -266 -7 -271 6 -3 544 414 578 448 8 9 -5 37 -58 117 -90 137 -82 130 -137 128 -26 -1 -94 -4 -152 -5z" id="144"/>
<path d="M5205 6516 c33 -18 62 -32 64 -30 8 7 -15 28 -53 45 -68 31 -75 21 -11 -15z" id="145"/>
<path d="M5298 6529 c-7 -19 3 -119 12 -119 8 0 20 49 20 79 0 10 -6 25 -13 35 -11 15 -15 16 -19 5z" id="146"/>
<path d="M5160 6500 c58 -46 110 -81 110 -75 0 21 -27 48 -70 70 -59 30 -74 32 -40 5z" id="147"/>
<path d="M4470 6499 c0 -17 65 -26 74 -10 3 5 -12 11 -34 13 -22 2 -40 1 -40 -3z" id="148"/>
<path d="M4580 6503 c0 -25 -33 -44 -71 -42 -21 2 -39 -1 -39 -6 0 -6 19 -10 42 -10 50 0 60 -18 21 -38 -15 -9 -39 -27 -53 -42 -14 -15 -36 -31 -50 -37 l-24 -9 24 -12 c33 -17 37 -58 10 -97 -17 -24 -18 -30 -6 -30 20 0 29 17 36 64 6 47 22 56 38 21 19 -40 14 -79 -13 -119 -31 -46 -32 -66 -2 -38 28 27 35 27 60 5 20 -17 20 -17 12 2 -4 11 -11 52 -15 92 -7 71 -21 103 -45 103 -22 0 -26 29 -5 40 30 16 55 12 85 -16 15 -14 29 -24 30 -22 7 7 -14 169 -24 185 -6 10 -11 13 -11 6z" id="149"/>
<path d="M5150 6471 c0 -13 48 -46 56 -38 3 2 -9 15 -25 27 -17 12 -31 17 -31 11z" id="150"/>
<path d="M5625 6475 c-5 -2 -23 -6 -40 -10 -26 -6 -27 -8 -12 -16 9 -6 50 -12 90 -15 50 -3 66 -2 51 5 -12 5 -24 16 -27 25 -6 14 -36 20 -62 11z" id="151"/>
<path d="M5793 6455 l-21 -25 48 0 c58 0 110 10 110 20 0 7 -86 30 -108 30 -4 0 -17 -12 -29 -25z" id="152"/>
<path d="M6733 6473 c-62 -2 -113 -7 -113 -11 0 -4 165 -65 366 -136 l366 -129 125 2 c68 1 131 5 139 8 8 3 14 17 14 32 0 25 -8 29 -318 134 -303 103 -320 107 -392 105 -41 -1 -126 -4 -187 -5z" id="153"/>
<path d="M5090 6451 c0 -21 32 -37 51 -26 7 5 4 13 -7 26 -22 25 -44 24 -44 0z" id="154"/>
<path d="M5036 6393 c-10 -32 -65 -150 -123 -262 -115 -227 -106 -189 -87 -361 4 -42 3 -44 -11 -26 -9 12 -15 40 -15 67 0 66 -15 69 -35 9 -14 -42 -15 -56 -5 -80 6 -16 9 -37 7 -47 -4 -13 14 -33 72 -80 79 -62 88 -66 128 -64 34 2 52 39 80 168 25 113 26 130 24 412 -1 162 -5 300 -9 308 -6 9 -14 -6 -26 -44z" id="155"/>
<path d="M6552 6313 l3 -137 384 -163 c211 -90 388 -163 393 -163 14 0 10 304 -4 322 -12 14 -738 278 -766 278 -9 0 -12 -35 -10 -137z" id="156"/>
<path d="M5537 6424 c-4 -4 -7 -17 -7 -30 0 -38 65 -57 210 -61 143 -4 223 15 228 52 4 37 -10 46 -53 34 -41 -12 -313 -7 -350 5 -11 4 -24 4 -28 0z" id="157"/>
<path d="M4463 6405 c-9 -25 2 -27 22 -5 17 18 17 20 1 20 -9 0 -19 -7 -23 -15z" id="158"/>
<path d="M8470 6404 c-11 -13 -10 -19 8 -37 l22 -21 0 37 c0 40 -10 46 -30 21z" id="159"/>
<path d="M5090 6396 c0 -15 45 -56 62 -56 9 0 1 40 -11 51 -3 4 -16 10 -28 14 -17 4 -23 2 -23 -9z" id="160"/>
<path d="M5180 6396 c6 -8 28 -20 48 -27 20 -6 52 -20 71 -31 38 -21 47 -19 32 10 -6 12 -36 29 -73 41 -75 26 -96 27 -78 7z" id="161"/>
<path d="M5464 6365 c-9 -23 12 -42 64 -59 137 -44 322 -46 447 -4 75 25 93 48 55 68 -18 10 -26 8 -45 -10 -37 -35 -108 -50 -230 -50 -120 0 -194 16 -238 50 -30 24 -46 25 -53 5z" id="162"/>
<path d="M5191 6344 c8 -9 33 -25 57 -35 23 -10 54 -31 67 -45 22 -24 25 -25 25 -7 0 28 -48 68 -104 87 -61 20 -62 20 -45 0z" id="163"/>
<path d="M4532 6326 c24 -18 38 -60 38 -116 0 -99 24 -109 33 -14 7 72 -7 115 -42 134 -29 15 -50 12 -29 -4z" id="164"/>
<path d="M5450 6299 c0 -17 100 -57 170 -68 180 -29 440 9 440 64 0 18 0 18 -38 0 -115 -58 -390 -58 -527 -1 -44 19 -45 19 -45 5z" id="165"/>
<path d="M4403 6284 c-8 -4 -9 -13 -1 -35 8 -24 13 -27 25 -18 26 23 7 65 -24 53z" id="166"/>
<path d="M5256 6233 c3 -27 8 -50 10 -52 9 -10 34 12 40 35 6 21 2 31 -16 46 -35 28 -42 23 -34 -29z" id="167"/>
<path d="M4322 6153 c-100 -178 -141 -260 -168 -331 -14 -40 -25 -75 -23 -77 3 -2 49 3 104 11 55 8 169 17 253 21 132 5 154 9 162 24 12 21 4 45 -27 82 -26 32 -29 61 -8 97 18 31 18 42 3 63 -11 14 -19 15 -45 8 -76 -22 -141 28 -170 130 -9 32 -20 59 -24 59 -4 0 -30 -39 -57 -87z" id="168"/>
<path d="M4467 6179 c-29 -33 -35 -53 -15 -47 14 5 53 66 46 73 -2 2 -16 -9 -31 -26z" id="169"/>
<path d="M5209 6189 c-8 -16 -8 -28 0 -45 12 -28 69 -60 83 -46 14 14 -7 58 -31 65 -13 3 -21 13 -21 26 0 27 -16 27 -31 0z" id="170"/>
<path d="M7388 6173 l-28 -4 0 -165 c0 -162 0 -164 22 -164 12 0 29 7 39 16 11 10 53 21 103 28 46 6 86 13 89 16 2 3 7 67 11 143 l7 137 -108 -1 c-59 -1 -120 -4 -135 -6z" id="171"/>
<path d="M4510 6095 c-17 -20 -9 -27 25 -23 27 3 27 3 8 21 -18 16 -21 16 -33 2z" id="172"/>
<path d="M7512 5860 c-84 -12 -84 -24 0 -47 29 -8 116 -17 193 -20 192 -7 288 19 168 46 -114 25 -112 25 -123 -3 -8 -23 -15 -26 -55 -26 -56 0 -85 14 -85 40 0 22 -9 23 -98 10z" id="173"/>
<path d="M5090 5836 c0 -8 -3 -21 -6 -29 -6 -17 -17 -11 1941 -1195 787 -476 1440 -872 1453 -880 l22 -14 0 119 0 119 -1693 947 c-932 521 -1699 947 -1705 947 -7 0 -12 -6 -12 -14z" id="174"/>
<path d="M7410 5791 c-24 -46 -5 -65 101 -102 55 -19 85 -23 209 -23 206 0 279 31 241 103 -10 17 -15 18 -48 9 -57 -16 -366 -4 -428 16 -63 20 -62 20 -75 -3z" id="175"/>
<path d="M4370 5750 c-176 -17 -250 -31 -261 -51 -5 -10 -8 -19 -5 -19 2 0 57 9 123 21 126 22 403 31 476 16 34 -7 38 -6 35 10 -2 14 -16 19 -68 24 -85 9 -206 8 -300 -1z" id="176"/>
<path d="M5076 5749 c-3 -8 -12 -49 -21 -91 -17 -80 -44 -128 -74 -128 -10 0 -20 -3 -24 -6 -9 -9 228 -297 296 -360 78 -73 159 -126 270 -179 125 -60 190 -76 336 -80 173 -5 201 -27 201 -164 0 -63 3 -77 25 -103 14 -16 25 -38 25 -48 0 -22 19 -30 70 -30 59 0 68 -25 35 -97 -22 -49 -24 -60 -13 -89 9 -25 9 -39 0 -59 -7 -14 -12 -31 -12 -36 0 -16 193 -103 336 -152 234 -80 478 -127 662 -127 138 0 160 -6 176 -45 8 -18 29 -42 47 -55 19 -13 48 -37 66 -53 29 -27 36 -29 77 -23 l46 7 0 -43 c0 -30 8 -55 26 -81 27 -41 43 -120 44 -216 0 -30 5 -81 12 -113 10 -50 10 -69 -5 -126 -9 -37 -17 -70 -17 -73 0 -10 136 -97 233 -149 152 -81 333 -151 555 -214 l52 -15 0 447 0 447 -1397 845 c-769 465 -1533 928 -1698 1028 -165 101 -306 186 -312 189 -7 3 -15 -1 -17 -8z" id="177"/>
<path d="M7320 5730 c-27 -27 -26 -33 18 -57 167 -92 537 -111 705 -37 47 22 49 49 4 70 -33 16 -35 15 -60 -9 -44 -40 -106 -52 -272 -52 -131 0 -159 3 -223 24 -41 13 -86 36 -103 52 -37 34 -43 35 -69 9z" id="178"/>
<path d="M4454 5701 c-18 -8 -27 -33 -52 -138 -118 -492 -158 -1053 -108 -1499 15 -131 22 -142 203 -344 11 -12 13 22 13 202 l0 216 -37 19 c-49 23 -53 56 -18 134 54 120 85 309 85 516 0 59 -7 226 -16 371 -12 179 -14 266 -7 273 7 7 13 -24 17 -98 4 -59 12 -186 18 -282 19 -307 -1 -588 -53 -726 -12 -31 -19 -58 -17 -60 10 -10 97 45 140 88 27 26 55 47 63 47 19 0 19 -2 -5 165 -17 125 -53 470 -67 644 -4 40 -2 62 4 58 6 -4 13 -38 17 -76 9 -98 59 -286 112 -421 71 -180 304 -643 385 -765 98 -148 227 -276 387 -383 118 -79 347 -200 358 -190 2 3 -26 27 -63 55 -330 241 -598 559 -812 964 -124 237 -207 478 -241 710 -26 174 -44 247 -76 311 -13 26 -20 48 -15 48 19 0 42 -46 67 -130 47 -161 66 -215 113 -315 77 -162 178 -318 304 -469 23 -27 26 -28 60 -15 27 9 42 10 60 2 25 -12 280 -3 292 9 4 3 -15 19 -42 34 -146 82 -277 163 -343 212 -146 107 -271 244 -329 360 -41 80 -16 65 33 -19 96 -166 310 -348 590 -500 54 -30 115 -68 135 -85 l36 -32 -17 -30 c-10 -17 -18 -48 -18 -70 0 -28 -7 -50 -23 -69 -19 -22 -57 -101 -57 -117 0 -5 134 -86 141 -86 3 0 5 37 3 83 -1 45 0 70 2 54 5 -26 7 -26 27 -12 33 23 39 18 12 -10 -28 -27 -31 -60 -11 -109 10 -24 31 -42 80 -69 79 -44 95 -45 135 -11 38 32 42 13 4 -22 -14 -13 -24 -26 -22 -28 6 -5 141 -66 147 -66 3 0 2 29 -1 65 -11 112 -53 179 -142 225 -25 13 -30 18 -15 15 14 -4 44 -20 68 -36 23 -16 42 -26 42 -23 0 2 -9 21 -19 42 -21 41 -59 79 -111 112 -19 12 -26 19 -15 15 59 -21 60 -20 31 21 -20 28 -12 22 28 -21 93 -100 144 -215 155 -349 4 -50 11 -81 19 -84 8 -2 12 7 12 26 0 16 10 41 21 56 29 37 21 79 -36 188 -25 48 -45 91 -45 95 0 11 56 -72 82 -122 14 -26 23 -35 25 -25 3 8 13 37 24 63 17 41 18 53 8 81 -10 27 -9 39 10 80 35 80 33 82 -61 90 -280 24 -581 163 -893 413 -148 117 -232 214 -370 424 -68 103 -152 218 -188 255 l-64 68 -69 3 c-38 2 -79 -1 -90 -6z" id="179"/>
<path d="M4310 5680 c-31 -31 -162 -300 -233 -480 -83 -208 -111 -306 -242 -827 -58 -233 -114 -450 -124 -483 -18 -59 -18 -61 0 -84 10 -13 38 -28 62 -35 44 -10 91 -52 132 -115 19 -29 34 -31 115 -14 56 11 59 11 133 -25 42 -20 84 -37 93 -37 16 0 67 -46 75 -67 2 -6 16 -14 31 -18 l26 -7 -15 64 c-18 73 -29 87 -103 138 -71 49 -132 113 -162 170 -19 38 -23 60 -23 137 0 61 4 96 13 105 10 10 10 6 1 -21 -17 -49 -6 -158 21 -211 l24 -45 7 42 c8 45 32 98 49 108 6 4 2 -10 -9 -31 -45 -83 -15 -161 88 -231 l64 -44 -7 33 c-114 564 -92 1288 60 1890 13 53 24 99 24 102 0 3 -18 6 -40 6 -27 0 -47 -7 -60 -20z m-275 -1506 c-61 -101 -68 -209 -20 -304 30 -58 79 -104 188 -174 48 -32 87 -62 87 -67 0 -15 -211 108 -225 132 -3 4 -38 18 -78 30 -92 27 -140 52 -166 85 -33 42 -25 49 12 11 24 -26 52 -41 105 -57 40 -12 75 -20 77 -18 3 3 -5 24 -17 49 -47 97 -33 238 33 328 41 58 43 51 4 -15z m95 42 c0 -3 -21 -19 -47 -36 l-48 -31 37 36 c33 31 58 44 58 31z m-179 -129 c-13 -13 -15 24 -3 63 6 22 7 21 10 -14 2 -21 -1 -43 -7 -49z m-42 -151 c58 -76 61 -100 5 -40 -37 38 -94 145 -94 174 0 8 9 -3 19 -25 10 -22 41 -71 70 -109z" id="180"/>
<path d="M4705 5638 c31 -35 114 -148 183 -253 147 -222 249 -332 432 -467 147 -109 207 -147 331 -208 95 -48 269 -114 277 -105 7 7 -70 117 -118 169 -44 48 -44 49 -8 22 20 -15 44 -38 52 -52 18 -26 36 -32 36 -11 0 7 7 22 16 33 15 18 15 18 5 -3 -18 -36 -13 -69 20 -121 28 -46 35 -50 86 -61 31 -6 60 -11 65 -11 16 0 7 28 -21 63 -26 34 -28 40 -23 111 4 72 4 76 -24 104 -29 28 -33 29 -159 35 -148 7 -215 22 -333 77 -183 86 -289 175 -458 385 -122 152 -157 188 -281 289 -55 44 -91 66 -108 66 -25 0 -24 -3 30 -62z" id="181"/>
<path d="M4221 5679 c-56 -11 -61 -16 -135 -128 -143 -218 -246 -429 -366 -751 -131 -351 -174 -435 -307 -588 -87 -101 -94 -139 -30 -166 28 -11 35 -21 40 -51 8 -49 33 -75 72 -75 35 0 54 -12 79 -53 15 -25 22 -28 59 -25 l41 3 23 75 c32 106 32 113 -12 94 -77 -32 -173 -8 -208 53 -34 59 -5 113 68 128 25 5 22 2 -15 -17 -58 -30 -73 -66 -43 -106 11 -15 31 -33 44 -40 30 -16 134 -11 173 9 29 14 32 22 137 439 140 555 208 753 368 1065 36 71 68 133 69 137 4 9 3 9 -57 -3z" id="182"/>
<path d="M4099 5653 c-8 -2 -34 -37 -57 -77 -56 -99 -173 -261 -271 -376 -99 -116 -161 -232 -161 -299 0 -71 -15 -109 -80 -211 -51 -80 -60 -100 -60 -139 0 -28 8 -59 20 -79 27 -44 26 -76 -4 -91 -29 -16 -50 -6 -114 53 -46 42 -92 123 -92 163 0 21 -2 20 -49 -10 -48 -31 -50 -34 -50 -79 -1 -38 3 -49 20 -59 17 -8 20 -17 15 -40 -4 -22 -1 -31 14 -39 13 -7 20 -21 20 -40 0 -20 8 -35 24 -46 19 -11 26 -26 28 -56 2 -26 9 -45 21 -52 16 -9 25 -3 67 44 l48 55 -27 7 c-15 4 -38 19 -52 34 l-24 26 35 -21 c55 -33 85 -28 121 22 49 67 121 225 209 462 94 253 245 569 347 725 38 58 72 111 77 118 7 12 4 13 -25 5z" id="183"/>
<path d="M7302 5643 c4 -24 85 -62 176 -85 115 -29 325 -35 444 -14 90 16 158 44 158 65 0 6 -16 5 -38 -3 -173 -61 -524 -46 -690 29 -46 21 -53 22 -50 8z" id="184"/>
<path d="M4784 5153 c2 -10 8 -38 11 -63 10 -65 69 -254 115 -370 99 -249 180 -370 282 -420 24 -12 66 -46 95 -75 54 -56 129 -100 223 -130 30 -9 83 -33 117 -52 52 -28 69 -33 99 -27 28 5 46 1 84 -20 27 -15 74 -31 105 -36 44 -7 62 -16 89 -45 31 -32 38 -35 90 -35 38 0 76 -8 116 -25 35 -15 79 -25 106 -25 25 0 72 -6 103 -14 51 -13 181 -28 181 -21 0 1 -26 12 -57 23 -586 213 -866 347 -1128 542 -240 178 -430 411 -571 698 -52 104 -72 136 -60 95z" id="185"/>
<path d="M3460 5091 c-15 -29 -12 -67 6 -85 31 -32 74 -10 74 38 0 55 -57 89 -80 47z" id="186"/>
<path d="M3560 5000 c0 -5 9 -10 20 -10 11 0 20 5 20 10 0 6 -9 10 -20 10 -11 0 -20 -4 -20 -10z" id="187"/>
<path d="M3419 4890 c-22 -47 -52 -101 -68 -120 -15 -19 -33 -45 -39 -57 -16 -30 -15 -80 2 -90 10 -5 16 -29 19 -68 2 -46 4 -39 5 33 1 61 6 92 13 92 9 0 10 -21 6 -74 l-7 -75 43 -62 c23 -35 48 -65 56 -67 8 -3 0 13 -17 34 -45 56 -63 115 -56 180 10 81 24 76 22 -8 -2 -78 17 -133 61 -172 30 -28 35 -14 10 28 -17 30 -21 48 -17 95 4 50 12 70 56 137 68 104 82 141 82 214 0 59 -1 60 -27 61 -16 0 -45 1 -66 2 l-38 2 -40 -85z" id="188"/>
<path d="M4664 4895 c59 -514 112 -781 216 -1095 89 -267 174 -446 279 -588 47 -62 328 -398 570 -680 25 -30 85 -85 133 -124 49 -39 110 -99 138 -136 49 -66 235 -248 276 -270 15 -8 67 -10 170 -5 l148 6 -54 50 c-30 27 -143 115 -250 197 -107 81 -225 175 -262 209 -66 61 -460 506 -580 656 -116 145 -196 274 -262 424 -20 46 -48 98 -62 114 -39 47 -67 110 -127 282 -54 158 -114 378 -138 505 -7 36 -40 128 -74 205 -34 77 -72 172 -85 210 -31 90 -43 104 -36 40z" id="189"/>
<path d="M5216 4587 c-17 -12 -12 -19 54 -80 62 -58 188 -158 227 -180 8 -5 19 9 33 40 11 26 29 57 40 68 11 12 20 40 22 70 3 28 8 57 12 66 11 25 -7 27 -167 18 -96 -6 -155 -5 -167 1 -24 13 -33 13 -54 -3z" id="190"/>
<path d="M4890 4400 c0 -29 80 -317 123 -445 68 -197 87 -241 122 -282 18 -21 46 -68 63 -103 32 -69 55 -96 225 -258 114 -109 118 -117 97 -191 -7 -25 -6 -40 5 -60 14 -28 211 -254 224 -259 11 -4 -5 82 -35 187 -45 153 -115 301 -302 631 -47 82 -89 140 -148 203 -104 111 -191 240 -293 437 -44 85 -81 148 -81 140z" id="191"/>
<path d="M4634 4355 c-25 -25 -72 -59 -103 -74 -106 -54 -107 -81 -6 -123 144 -60 245 -90 245 -73 0 18 -60 297 -66 306 -10 16 -24 9 -70 -36z" id="192"/>
<path d="M5140 4273 c162 -264 364 -495 590 -676 100 -80 290 -210 297 -203 13 13 -140 191 -302 351 -101 99 -222 226 -270 283 -48 57 -104 115 -126 129 -21 14 -50 41 -64 59 -15 19 -48 45 -75 59 -27 14 -51 29 -55 35 -3 5 -10 10 -15 10 -6 0 3 -21 20 -47z" id="193"/>
<path d="M6175 4240 c-4 -6 -6 -27 -5 -48 3 -66 0 -79 -26 -107 -18 -20 -24 -36 -22 -59 3 -31 5 -32 173 -94 292 -107 348 -131 451 -189 54 -31 144 -77 198 -101 118 -52 165 -82 266 -172 41 -36 102 -85 135 -107 34 -23 77 -59 98 -82 46 -51 49 -34 11 71 -28 78 -71 150 -125 214 l-34 39 35 -29 c88 -71 165 -208 176 -311 8 -73 53 -175 91 -205 l28 -22 6 79 c3 43 14 106 24 140 16 54 17 72 7 130 -6 38 -15 114 -20 170 -7 86 -13 109 -36 143 -15 23 -28 55 -28 72 l-1 29 -76 -7 c-42 -3 -77 -8 -79 -9 -2 -2 3 -14 11 -27 15 -23 31 -88 22 -88 -3 0 -15 21 -26 46 -12 25 -31 51 -43 59 -12 7 -69 15 -135 19 -62 4 -147 11 -187 17 -62 10 -85 9 -139 -5 -35 -9 -88 -15 -117 -15 l-53 2 55 7 c30 4 69 13 85 20 30 12 29 13 -50 31 -139 33 -237 67 -230 79 2 4 57 -8 122 -27 107 -31 374 -83 426 -83 19 0 18 4 -14 36 -29 32 -31 35 -9 24 14 -7 40 -26 58 -41 32 -28 36 -29 147 -29 62 0 116 4 120 9 3 5 -22 30 -55 56 -33 25 -63 57 -66 69 -7 30 -36 36 -166 36 -267 0 -671 105 -950 246 -29 15 -49 20 -53 14z m974 -501 c42 -18 117 -86 107 -96 -3 -3 -32 15 -65 40 -34 25 -78 51 -98 57 -21 7 -42 16 -48 21 -15 14 54 -1 104 -22z m180 -86 c13 -26 14 -43 2 -43 -10 0 -51 79 -51 100 0 14 29 -21 49 -57z m-111 -48 c47 -14 70 -30 60 -40 -2 -3 -38 9 -79 25 -79 31 -67 40 19 15z m288 -102 c11 -37 14 -70 9 -100 -9 -61 -15 -49 -19 33 -2 43 -11 89 -24 119 -21 48 -21 49 -2 26 11 -13 27 -48 36 -78z" id="194"/>
<path d="M4536 4123 c-3 -4 -6 -112 -6 -240 l0 -234 36 27 c34 26 55 59 103 160 11 23 24 45 30 48 6 4 11 14 11 23 0 9 6 24 14 32 25 27 47 104 33 113 -14 9 -77 28 -93 28 -6 0 -36 11 -67 24 -30 14 -58 22 -61 19z" id="195"/>
<path d="M5460 4068 c41 -34 296 -153 420 -196 63 -21 158 -49 210 -62 52 -13 99 -27 104 -32 6 -5 1 -20 -12 -38 -15 -19 -22 -44 -22 -72 0 -25 -8 -56 -19 -75 -11 -17 -23 -49 -27 -70 -3 -21 -15 -53 -26 -70 -36 -60 -27 -69 117 -124 172 -65 417 -188 594 -299 79 -50 146 -90 147 -90 2 0 4 12 4 27 0 38 -70 126 -122 152 -35 17 -38 21 -19 21 13 0 44 -11 68 -25 47 -28 50 -27 29 14 -22 41 -101 110 -159 137 -34 15 -44 24 -30 24 12 0 51 -15 87 -34 36 -19 66 -32 66 -30 0 13 -78 126 -124 179 -42 48 -45 55 -20 37 101 -71 223 -283 225 -390 0 -48 11 -40 23 18 3 14 19 41 35 60 l30 35 -25 -49 c-13 -27 -24 -60 -24 -72 0 -31 -10 -55 -21 -48 -5 3 -9 -13 -9 -35 0 -51 10 -52 31 -2 20 48 50 68 109 75 43 6 44 5 11 -5 -52 -16 -75 -35 -99 -80 -13 -23 -21 -43 -20 -44 2 -1 36 -25 76 -54 95 -67 97 -68 112 -31 7 17 34 50 60 73 l48 43 -47 65 c-26 35 -90 100 -142 143 -52 44 -139 123 -194 176 -146 142 -260 237 -302 251 -40 13 -95 45 -309 176 -127 79 -202 113 -245 113 -12 0 -37 16 -57 36 -28 28 -48 38 -90 44 -30 5 -73 21 -97 35 -35 20 -52 24 -87 19 -36 -5 -50 -1 -88 24 -42 26 -160 72 -184 72 -6 -1 0 -10 14 -22z" id="196"/>
<path d="M4777 4013 c-4 -3 -7 -16 -7 -28 0 -12 -9 -34 -20 -48 -11 -14 -20 -32 -20 -40 0 -9 -5 -19 -11 -23 -6 -3 -19 -25 -30 -48 -49 -103 -70 -134 -113 -170 -96 -78 -102 -160 -16 -218 19 -13 39 -37 44 -53 14 -50 20 -56 58 -69 20 -7 48 -23 63 -34 15 -12 36 -22 47 -22 10 0 32 -10 48 -21 18 -14 37 -20 51 -16 15 4 27 -1 39 -16 16 -20 22 -21 50 -10 26 10 36 9 63 -7 22 -13 37 -16 47 -10 8 5 27 10 43 10 15 0 27 2 27 4 0 2 -16 28 -36 57 -94 140 -209 410 -289 682 -27 91 -28 91 -38 80z" id="197"/>
<path d="M5510 4002 c0 -5 45 -57 101 -116 105 -111 120 -119 173 -94 20 8 35 8 64 0 29 -9 46 -9 69 0 23 9 41 9 66 1 19 -6 41 -7 47 -3 8 5 -22 19 -76 35 -105 32 -273 99 -373 150 -39 19 -71 31 -71 27z" id="198"/>
<path d="M3389 3782 c-53 -155 -202 -458 -298 -605 -129 -197 -281 -384 -435 -537 -77 -75 -87 -90 -62 -90 24 0 66 -41 115 -114 51 -75 112 -136 136 -136 10 0 8 10 -8 39 -12 22 -25 37 -28 35 -11 -6 -46 43 -60 83 -14 43 -6 120 16 163 22 42 29 32 10 -13 -8 -20 -15 -51 -15 -70 0 -42 27 -122 46 -138 12 -9 14 -5 14 25 0 46 20 95 50 121 21 18 20 17 -3 -19 -70 -102 -28 -217 91 -251 48 -14 66 -27 117 -81 33 -35 65 -64 72 -64 7 0 17 19 23 43 6 23 16 57 22 75 13 43 2 136 -23 184 -22 44 -56 69 -107 79 l-37 7 40 1 c24 0 53 -7 72 -19 35 -21 73 -85 73 -122 0 -44 18 -2 60 137 50 170 265 816 349 1048 75 209 80 232 53 246 -12 6 -35 11 -52 11 -29 0 -60 22 -85 62 -6 9 -30 18 -57 22 l-46 5 -43 -127z" id="199"/>
<path d="M4332 3793 c10 -60 34 -166 52 -237 23 -86 32 -136 26 -150 -10 -27 -53 -66 -110 -102 -71 -44 -110 -85 -110 -113 0 -34 8 -43 55 -70 22 -12 48 -35 57 -51 14 -26 23 -30 58 -30 32 0 48 -7 80 -36 40 -37 44 -38 174 -48 l58 -5 -7 102 c-4 56 -9 103 -10 105 -2 2 -16 -3 -32 -11 -34 -18 -75 -61 -96 -102 -9 -16 -16 -23 -17 -14 0 29 59 108 99 131 37 21 41 27 41 64 l0 40 -48 -46 c-59 -57 -122 -81 -206 -78 l-61 1 60 6 c75 8 206 70 148 71 -10 0 -36 9 -58 20 -22 11 -29 16 -15 12 14 -4 47 -7 73 -7 39 0 53 5 68 24 19 24 19 24 -1 46 -11 12 -20 29 -20 39 0 28 -19 55 -49 71 -28 14 -29 14 -41 -16 -16 -38 -100 -114 -142 -128 -27 -8 -29 -8 -14 2 39 24 108 92 124 121 10 20 17 57 18 101 1 39 5 91 9 117 6 39 4 53 -14 83 -24 41 -152 195 -162 195 -4 0 2 -48 13 -107z m251 -735 c-7 -41 -23 -61 -23 -29 0 22 16 61 25 61 3 0 2 -15 -2 -32z" id="200"/>
<path d="M6246 3803 c51 -38 334 -202 366 -212 43 -14 156 -107 303 -250 55 -54 146 -137 202 -185 57 -48 123 -115 148 -150 25 -36 60 -73 79 -84 33 -20 126 -159 182 -274 16 -32 31 -58 35 -58 14 0 71 154 80 214 18 128 1 195 -63 245 -14 11 -38 46 -53 78 -34 73 -124 176 -190 219 -28 17 -95 70 -150 118 -59 51 -127 99 -169 120 -226 109 -305 145 -336 151 -19 4 -57 16 -83 26 -26 11 -66 19 -88 19 -23 0 -67 6 -98 14 -31 8 -85 16 -120 18 -56 4 -61 3 -45 -9z" id="201"/>
<path d="M5785 3768 c-11 -6 -22 -13 -24 -15 -3 -1 32 -40 75 -86 44 -45 109 -119 144 -165 l63 -82 22 37 c12 21 25 55 29 76 4 21 16 53 28 73 13 22 18 44 15 62 -3 14 2 40 10 56 12 24 13 30 1 37 -14 10 -148 13 -268 7 -14 -1 -36 1 -50 5 -14 4 -34 2 -45 -5z" id="202"/>
<path d="M3671 3652 c-21 -64 -92 -270 -156 -457 -64 -187 -141 -418 -171 -513 -54 -171 -54 -175 -43 -235 17 -98 70 -186 163 -274 44 -42 70 -70 56 -63 -77 41 -207 199 -232 282 -6 21 -14 38 -17 38 -4 0 -14 -28 -24 -62 -9 -35 -28 -103 -41 -151 l-25 -88 45 -19 c25 -11 77 -40 115 -65 140 -91 164 -100 264 -100 81 0 96 3 155 32 100 49 122 72 128 132 4 47 2 53 -28 81 -22 21 -43 30 -69 31 -32 2 -33 3 -7 6 15 3 40 2 53 -2 33 -8 73 -52 73 -81 0 -87 71 37 78 137 16 224 -181 379 -355 279 -98 -56 -133 -163 -85 -257 26 -51 27 -60 5 -42 -23 19 -53 88 -53 123 0 80 60 173 134 207 61 28 154 25 214 -5 95 -49 152 -137 160 -248 l5 -68 29 25 c16 14 39 25 51 25 16 0 10 -6 -19 -19 -44 -20 -78 -60 -90 -106 -6 -25 -5 -27 12 -20 10 5 39 10 64 11 l45 3 -44 -9 c-24 -5 -55 -17 -69 -26 -28 -18 -82 -74 -82 -85 0 -4 21 -5 48 -2 35 3 43 2 32 -6 -8 -6 -28 -11 -44 -11 -16 0 -64 -20 -108 -46 -96 -56 -152 -74 -234 -74 -83 0 -139 20 -254 90 -106 64 -154 90 -169 90 -5 0 -12 -14 -16 -31 -6 -25 -3 -34 14 -45 12 -9 21 -24 21 -35 0 -13 12 -25 35 -35 22 -9 35 -21 35 -33 0 -23 23 -43 64 -56 17 -5 40 -24 51 -42 11 -18 33 -37 49 -43 17 -6 44 -26 62 -45 39 -43 84 -47 133 -11 17 13 52 27 76 30 25 4 59 19 80 36 28 22 44 28 64 24 17 -4 41 1 61 11 24 12 45 15 76 10 37 -5 49 -2 77 19 40 31 53 32 91 7 21 -14 39 -18 60 -14 17 3 32 6 32 7 1 1 -4 30 -10 65 -11 59 -14 65 -41 73 -51 14 -170 -10 -293 -58 -129 -50 -218 -74 -272 -73 -23 1 -9 6 40 14 41 8 145 40 230 71 134 50 162 64 203 103 26 25 58 62 71 81 l24 35 -15 130 c-18 148 -23 795 -9 1098 l8 177 -57 26 c-50 23 -61 25 -100 15 -82 -21 -109 -15 -139 27 -42 61 -80 92 -129 107 l-46 14 -40 -117z m143 -849 c32 -65 40 -93 26 -93 -12 0 -44 65 -55 113 -11 41 2 32 29 -20z m26 -160 c-1 -14 -10 -8 -38 23 -20 23 -45 57 -55 75 -16 29 -11 26 37 -23 31 -31 56 -65 56 -75z m144 82 c-9 -13 -22 -44 -29 -67 -8 -24 -14 -35 -14 -25 -1 20 24 84 40 104 19 22 21 15 3 -12z m-65 -127 c1 -22 -15 -23 -23 -2 -3 9 -8 41 -11 72 l-5 57 20 -55 c10 -30 19 -63 19 -72z" id="203"/>
<path d="M5416 3658 c9 -18 46 -85 82 -148 135 -238 218 -431 263 -609 l11 -44 21 34 c13 22 21 51 21 81 1 39 6 53 29 73 18 18 27 36 27 58 0 37 7 50 36 65 13 7 24 28 32 62 12 51 12 52 -24 95 -20 25 -65 60 -102 81 -106 59 -251 157 -329 223 -39 34 -74 61 -78 61 -3 0 2 -15 11 -32z" id="204"/>
<path d="M4195 3414 c-4 -80 -4 -148 -1 -151 3 -4 16 3 29 14 12 11 43 32 69 47 62 36 98 74 98 103 0 19 -10 28 -45 44 -25 11 -45 24 -45 30 0 19 -49 59 -73 59 -24 0 -24 0 -32 -146z" id="205"/>
<path d="M440 3469 c-30 -16 -63 -38 -73 -48 -17 -17 -16 -19 33 -49 28 -18 55 -32 60 -32 5 0 26 11 46 25 20 14 55 30 78 36 23 6 52 14 65 18 l24 7 -37 37 c-33 33 -42 37 -89 37 -39 0 -66 -8 -107 -31z" id="206"/>
<path d="M5740 3476 c0 -3 46 -30 103 -62 372 -207 875 -539 1028 -680 31 -28 70 -55 87 -58 19 -5 45 -25 71 -56 23 -27 50 -51 60 -55 11 -3 50 -46 86 -95 37 -50 73 -90 81 -90 7 0 47 11 88 25 53 18 96 25 150 25 42 0 76 3 76 8 -2 20 -457 361 -665 497 -324 213 -530 315 -848 424 -80 27 -182 66 -227 85 -83 37 -90 39 -90 32z" id="207"/>
<path d="M5270 3415 c0 -9 128 -205 133 -205 2 0 19 5 36 11 l33 12 -74 74 c-73 74 -128 120 -128 108z" id="208"/>
<path d="M5950 3325 c0 -3 28 -42 61 -87 89 -120 167 -256 282 -488 73 -148 114 -219 149 -257 44 -49 48 -57 48 -104 0 -47 3 -54 44 -93 30 -30 45 -54 50 -82 5 -21 23 -66 42 -100 19 -33 34 -69 34 -80 1 -10 8 -37 16 -59 9 -22 19 -68 24 -102 5 -45 15 -71 34 -93 24 -30 26 -37 20 -95 -5 -48 -3 -74 10 -105 9 -22 16 -65 16 -95 0 -37 6 -65 20 -87 18 -29 19 -45 14 -159 -6 -123 -5 -128 21 -179 26 -51 27 -57 20 -162 -5 -74 -4 -108 4 -108 33 0 124 45 144 71 12 17 50 48 85 70 l64 41 -33 34 -32 33 13 57 c12 51 12 61 -4 103 -32 81 -44 124 -71 241 -69 297 -209 653 -450 1145 -151 309 -329 566 -442 637 -67 43 -183 108 -183 103z" id="209"/>
<path d="M4677 3183 c4 -60 8 -280 8 -491 0 -210 2 -381 5 -379 3 1 41 21 85 43 82 43 212 138 322 237 45 40 77 60 117 71 43 13 62 25 88 58 48 60 101 114 118 120 10 3 -28 54 -123 166 -148 173 -157 180 -221 151 -20 -10 -30 -9 -51 5 -18 12 -36 15 -60 10 -25 -4 -43 -1 -60 10 -13 9 -35 16 -48 16 -14 0 -36 9 -50 20 -14 11 -34 20 -45 20 -11 0 -34 11 -50 25 -17 14 -33 25 -37 25 -3 0 -3 -48 2 -107z" id="210"/>
<path d="M5956 3211 c-4 -28 -15 -46 -36 -61 -24 -17 -30 -29 -30 -57 0 -26 -7 -41 -29 -60 -24 -21 -28 -32 -24 -58 4 -23 -4 -49 -26 -94 -34 -66 -33 -81 3 -81 13 0 40 -13 60 -29 30 -24 44 -29 71 -24 25 4 41 0 61 -16 21 -16 35 -20 57 -15 24 5 35 0 61 -25 30 -29 34 -30 64 -19 28 11 35 10 61 -10 31 -22 52 -27 64 -15 19 18 -312 603 -342 603 -4 0 -11 -18 -15 -39z" id="211"/>
<path d="M5442 3199 l-23 -9 32 -45 c35 -49 47 -48 51 4 4 41 -24 64 -60 50z" id="212"/>
<path d="M7648 3078 c-3 -49 0 -80 9 -95 30 -51 9 -219 -43 -336 -19 -43 -34 -85 -34 -92 0 -33 -31 -12 -51 35 -18 43 -25 50 -43 44 -26 -8 -32 -14 -40 -40 -5 -17 10 -33 84 -92 49 -40 90 -77 90 -82 0 -6 -40 -10 -94 -10 -75 0 -112 -6 -178 -27 -46 -14 -94 -26 -107 -25 -19 2 -22 -2 -18 -19 3 -13 -3 -39 -14 -62 -13 -25 -18 -48 -14 -64 9 -39 -3 -62 -45 -83 -45 -23 -60 -46 -60 -90 0 -43 -13 -64 -55 -88 -34 -21 -75 -74 -75 -99 0 -43 144 -150 247 -183 119 -39 137 -64 88 -122 -18 -22 -25 -41 -25 -73 0 -40 -4 -47 -49 -86 -37 -30 -51 -49 -53 -72 -2 -19 -11 -36 -23 -42 -45 -23 -46 -24 -30 -62 18 -42 19 -88 4 -132 -11 -30 -9 -35 20 -65 17 -17 31 -39 31 -47 0 -8 -22 -28 -50 -44 -27 -16 -50 -33 -50 -39 0 -5 35 -50 77 -100 212 -251 375 -408 655 -632 91 -73 169 -138 173 -144 4 -6 71 -10 185 -10 l178 0 11 33 c15 48 29 141 36 242 7 103 37 178 86 219 29 24 29 26 29 128 l0 103 -103 44 c-263 114 -524 255 -667 361 -80 59 -110 90 -88 90 8 0 23 -10 34 -21 30 -33 239 -170 355 -232 90 -48 451 -217 464 -217 3 0 5 229 5 509 l0 508 -117 53 c-243 109 -723 357 -723 372 0 15 22 7 98 -36 107 -61 417 -216 592 -297 l145 -67 3 491 c1 269 1 491 -1 493 -1 2 -57 19 -122 39 -256 78 -474 174 -634 279 -47 31 -86 56 -87 56 -1 0 -4 -33 -6 -72z" id="213"/>
<path d="M6281 3111 c8 -11 43 -62 79 -113 78 -112 149 -184 338 -340 78 -66 142 -121 142 -124 0 -2 -16 -20 -35 -40 -27 -27 -35 -43 -35 -72 0 -21 -9 -54 -20 -74 -19 -37 -19 -37 1 -82 32 -72 71 -91 129 -61 17 9 30 11 30 6 0 -16 -22 -25 -71 -31 l-46 -5 65 -162 c37 -90 69 -163 72 -163 3 0 12 16 19 35 7 19 28 48 48 63 64 48 73 61 73 97 0 49 18 82 52 96 46 19 57 35 51 74 -4 23 0 43 10 59 9 13 17 46 18 73 2 41 -2 56 -26 87 l-28 37 -19 -28 c-49 -71 -99 -188 -117 -272 -18 -80 -81 -241 -95 -241 -3 0 4 24 16 53 82 203 93 395 33 585 -21 66 -30 80 -86 130 -83 76 -188 152 -209 152 -9 0 -34 -11 -54 -25 -33 -23 -36 -23 -26 -4 6 11 22 25 36 31 13 6 23 16 21 22 -4 11 -357 255 -371 256 -5 0 -2 -9 5 -19z m585 -513 c44 -41 104 -145 104 -181 0 -11 -16 12 -36 51 -21 44 -58 95 -95 132 -65 66 -45 64 27 -2z m54 -241 c33 -42 50 -93 49 -149 l-1 -53 -13 61 c-13 62 -46 137 -65 149 -5 3 -15 15 -21 27 -10 19 -10 20 10 6 11 -8 30 -26 41 -41z" id="214"/>
<path d="M4187 3023 c-18 -271 7 -750 53 -988 31 -166 42 -236 36 -250 -3 -9 -18 -15 -35 -15 -16 0 -33 -5 -36 -10 -8 -12 86 -55 164 -76 l56 -14 -59 5 c-33 3 -85 17 -116 31 -52 23 -58 24 -85 10 -17 -9 -41 -16 -55 -16 -17 0 -36 -13 -61 -41 -32 -38 -41 -42 -86 -45 -31 -1 -69 -12 -99 -28 -27 -14 -56 -26 -65 -26 -23 0 -30 -10 -18 -31 12 -23 37 -24 64 -3 14 10 32 13 60 9 27 -5 50 -1 70 9 36 19 67 20 112 4 27 -10 38 -10 53 0 31 19 70 14 102 -13 24 -20 37 -25 59 -20 23 5 34 1 54 -21 20 -22 34 -27 61 -26 30 2 37 -2 55 -32 15 -26 33 -39 70 -51 38 -13 56 -26 74 -55 17 -27 34 -40 57 -45 18 -4 48 -21 67 -37 19 -17 40 -27 48 -24 39 15 65 17 95 7 31 -11 34 -9 66 25 32 35 34 36 86 30 43 -6 55 -4 67 10 19 23 77 46 92 37 6 -4 45 -7 86 -7 72 -1 76 -2 88 -27 12 -26 68 -58 79 -46 3 3 -14 34 -39 69 -24 35 -63 96 -86 136 l-42 72 -47 0 c-58 -1 -90 -15 -139 -60 -89 -83 -203 -125 -318 -118 -39 3 -80 10 -90 17 -20 12 -20 12 0 6 58 -19 154 -17 221 4 38 11 78 28 88 36 18 14 18 15 -10 25 -68 26 -102 47 -147 92 -129 129 -154 337 -61 519 13 26 28 51 34 54 6 4 1 -8 -10 -27 -82 -133 -78 -345 8 -470 28 -41 71 -86 61 -63 -3 6 -18 36 -33 68 -15 32 -30 77 -32 100 l-3 42 9 -43 c13 -63 68 -159 112 -196 52 -45 112 -62 142 -42 28 18 89 108 117 173 l21 48 -36 115 c-19 63 -40 134 -46 157 -13 52 -54 84 -118 91 -32 3 -56 13 -77 32 -16 15 -44 33 -62 39 -18 7 -41 28 -52 47 -20 33 -21 34 -90 34 -78 0 -85 6 -70 66 6 22 13 174 16 340 5 247 3 303 -8 309 -7 5 -52 12 -100 15 -83 6 -90 8 -128 43 -33 29 -49 37 -80 37 -40 0 -65 16 -75 48 -5 14 -63 52 -80 52 -2 0 -6 -44 -9 -97z m389 -1029 c-7 -22 -17 -58 -21 -82 -4 -23 -11 -44 -16 -48 -19 -11 -8 73 16 125 29 61 42 64 21 5z m-49 -181 c-12 -12 -37 20 -57 73 -35 95 -22 105 22 16 22 -45 38 -85 35 -89z m337 142 c-9 -14 -18 -25 -21 -25 -5 0 5 18 20 38 17 22 18 13 1 -13z m163 -62 c-10 -32 -13 -34 -15 -15 -4 28 4 52 17 52 5 0 4 -16 -2 -37z m-337 23 c0 -9 -118 -96 -129 -96 -32 0 17 43 94 84 34 17 35 18 35 12z m280 -69 c-1 -6 -14 4 -30 23 -39 45 -38 65 0 22 17 -18 30 -38 30 -45z m-149 22 c-5 -13 -10 -19 -10 -12 -1 15 10 45 15 40 3 -2 0 -15 -5 -28z m309 -9 c0 -13 -44 -30 -73 -29 -17 0 -13 5 18 20 46 21 55 23 55 9z m-323 -57 c-3 -10 -5 -4 -5 12 0 17 2 24 5 18 2 -7 2 -21 0 -30z m143 -3 c0 -5 -13 -10 -30 -10 -16 0 -30 5 -30 10 0 6 14 10 30 10 17 0 30 -4 30 -10z m-545 -16 c-35 -28 -83 -44 -127 -43 -42 1 -42 1 19 14 33 7 74 20 90 29 36 20 43 20 18 0z m100 -29 c-15 -43 -19 -147 -6 -180 7 -17 11 -13 28 26 12 26 26 50 33 54 9 5 8 1 -1 -16 -7 -13 -18 -53 -25 -89 l-11 -65 -27 55 c-37 78 -34 196 7 248 16 21 17 9 2 -33z m481 -32 c-17 -31 -19 -23 -10 27 6 26 9 29 16 16 6 -10 4 -25 -6 -43z m140 -20 c16 -36 18 -91 5 -111 -5 -9 -10 9 -14 47 -3 37 -14 75 -28 98 l-23 38 24 -20 c12 -11 29 -34 36 -52z m-41 -93 c7 -41 -23 -130 -44 -130 -5 0 -1 19 9 43 22 47 26 107 9 140 -9 21 -9 21 5 4 8 -11 17 -36 21 -57z m-457 -47 c-15 -18 -20 -30 -32 -86 -4 -16 -11 -25 -17 -21 -6 3 -8 18 -4 33 8 31 46 91 59 91 5 0 2 -8 -6 -17z m33 -87 c-7 -8 -16 -27 -20 -43 -7 -23 -10 -25 -16 -10 -8 19 18 67 36 67 8 0 8 -4 0 -14z" id="215"/>
<path d="M7262 2884 c-23 -14 -53 -42 -67 -62 -30 -43 -39 -31 117 -151 l108 -82 10 26 c5 14 21 30 35 35 14 5 25 13 25 18 0 12 -93 166 -125 208 -31 41 -47 42 -103 8z" id="216"/>
<path d="M5389 2793 c-54 -60 -54 -52 -1 -170 121 -270 311 -534 551 -765 135 -130 258 -221 386 -285 50 -25 92 -47 93 -48 9 -8 -12 -49 -39 -76 -16 -16 -29 -40 -29 -53 0 -15 -13 -33 -35 -50 -26 -20 -35 -35 -35 -56 0 -16 -11 -42 -25 -58 -16 -20 -25 -42 -25 -65 0 -23 -9 -46 -25 -65 -38 -46 -62 -225 -33 -259 6 -8 34 -13 67 -13 31 -1 74 -8 96 -16 69 -27 91 -28 123 -4 23 17 39 21 66 17 30 -5 39 -1 71 30 28 27 42 34 61 29 13 -3 35 -9 47 -12 18 -4 33 3 62 30 21 20 46 36 56 36 28 0 24 46 -7 115 -26 55 -27 63 -22 187 5 115 4 131 -13 152 -11 13 -19 33 -19 45 0 14 -13 26 -44 40 -33 14 -53 33 -82 78 -45 71 -121 174 -227 311 -56 71 -86 102 -101 102 -11 1 -30 6 -42 13 -44 25 -227 205 -275 269 -27 37 -90 99 -139 139 -61 49 -140 130 -242 251 -164 192 -175 200 -219 151z" id="217"/>
<path d="M6502 2783 c2 -5 25 -50 51 -101 44 -85 49 -92 72 -86 16 4 34 0 50 -10 13 -9 39 -16 57 -16 l33 1 -31 27 c-107 93 -225 192 -230 192 -3 0 -4 -3 -2 -7z" id="218"/>
<path d="M5781 2763 c57 -74 228 -258 290 -313 41 -37 154 -125 250 -197 96 -71 209 -163 252 -203 71 -66 78 -70 72 -44 -13 56 -18 69 -42 105 -13 20 -30 60 -38 89 -10 38 -25 62 -54 89 -38 35 -41 42 -41 89 0 48 -4 56 -50 107 -27 30 -59 73 -70 95 -16 31 -26 40 -47 40 -14 0 -40 9 -58 20 -27 17 -36 18 -64 7 -30 -11 -33 -10 -62 20 -25 27 -34 31 -60 26 -22 -4 -38 0 -60 16 -22 16 -37 20 -62 16 -27 -5 -40 -1 -71 24 -44 35 -110 46 -85 14z" id="219"/>
<path d="M5295 2680 c-10 -11 -43 -28 -72 -36 -52 -15 -154 -90 -161 -119 -4 -16 88 -280 152 -434 48 -116 53 -134 45 -168 -5 -21 -6 -64 -2 -96 5 -49 3 -63 -15 -86 l-21 -28 34 -77 c38 -87 115 -226 126 -226 3 0 12 7 19 15 9 11 22 14 42 10 22 -5 29 -2 34 12 19 53 82 80 123 54 11 -7 24 -1 48 19 28 25 36 28 64 20 29 -9 35 -6 69 31 37 41 55 47 100 35 19 -5 31 -2 44 13 24 27 50 26 88 0 26 -19 34 -20 68 -10 48 14 64 8 89 -35 22 -37 48 -43 89 -20 23 12 21 14 -55 62 -118 76 -217 160 -350 297 -217 225 -392 483 -502 740 -23 53 -30 56 -56 27z" id="220"/>
<path d="M6973 2635 c3 -11 15 -51 26 -89 11 -37 23 -101 27 -142 l7 -73 34 57 c18 31 43 65 54 74 l21 18 -21 29 c-12 16 -30 33 -41 36 -11 3 -40 30 -66 58 -26 30 -44 43 -41 32z" id="221"/>
<path d="M6622 2571 c-10 -6 -1 -32 40 -115 29 -58 56 -106 61 -106 12 0 27 47 27 86 0 25 8 42 27 60 26 24 26 25 7 39 -10 8 -37 15 -59 15 -22 0 -49 7 -59 15 -23 17 -26 18 -44 6z" id="222"/>
<path d="M2542 2528 c-24 -24 -13 -58 33 -100 34 -31 45 -48 45 -71 0 -29 8 -39 83 -99 20 -17 30 -35 34 -66 6 -44 19 -55 85 -76 9 -3 29 -23 42 -45 14 -22 34 -45 45 -51 29 -15 76 -12 116 7 29 14 42 15 65 6 28 -10 29 -9 45 30 13 34 14 42 3 46 -7 2 -40 30 -74 62 -63 61 -95 79 -180 98 -66 16 -110 53 -179 151 -71 100 -131 140 -163 108z m455 -368 c48 0 64 -3 53 -10 -25 -16 -102 -11 -147 10 -51 23 -58 35 -8 14 19 -7 65 -14 102 -14z" id="223"/>
<path d="M4950 2444 c-47 -35 -120 -83 -164 -105 -84 -44 -116 -70 -116 -94 0 -12 14 -15 63 -15 64 0 97 -17 97 -48 0 -6 21 -23 48 -36 26 -13 56 -33 66 -45 11 -12 31 -21 48 -21 33 0 94 -24 119 -46 13 -12 109 -28 109 -19 0 2 -21 54 -46 117 -25 62 -65 171 -89 242 -24 70 -45 130 -47 131 -2 2 -41 -25 -88 -61z" id="224"/>
<path d="M2598 2227 c-36 -74 -113 -173 -258 -334 -156 -171 -216 -245 -409 -500 l-153 -202 14 -38 c8 -23 43 -67 88 -113 77 -76 109 -138 110 -209 1 -24 7 -20 73 49 163 169 406 480 582 745 104 158 225 363 225 382 0 24 -50 93 -68 93 -33 0 -82 38 -82 64 0 42 -18 75 -52 96 -18 11 -35 20 -38 20 -3 0 -17 -24 -32 -53z" id="225"/>
<path d="M4149 2078 l-45 -48 57 0 57 0 -5 43 c-3 23 -8 45 -12 48 -3 3 -27 -16 -52 -43z" id="226"/>
<path d="M3020 2004 c-19 -8 -55 -14 -79 -12 l-45 2 -95 -159 c-160 -267 -345 -528 -545 -770 -110 -132 -372 -404 -436 -450 -27 -20 -39 -37 -38 -50 4 -26 59 -62 125 -81 75 -22 139 -68 201 -146 l54 -67 122 111 c178 165 267 258 317 332 24 36 47 66 52 66 16 0 5 -26 -40 -88 -52 -73 -157 -180 -340 -347 -148 -135 -155 -146 -122 -181 13 -14 57 -51 97 -82 41 -30 76 -61 79 -69 4 -11 105 -13 559 -13 l555 0 35 77 c166 360 299 775 389 1218 48 236 47 244 -25 203 l-41 -23 -33 39 c-23 27 -39 37 -50 33 -21 -8 -20 1 4 57 10 25 26 69 34 97 l15 51 -52 -7 c-32 -5 -63 -17 -80 -31 -21 -17 -41 -24 -72 -24 -37 0 -49 6 -78 35 -19 19 -48 40 -65 46 -18 6 -40 25 -51 44 -12 21 -31 37 -48 41 -34 8 -73 42 -73 63 0 9 -15 23 -33 31 -19 9 -34 25 -37 40 -5 18 -12 24 -26 22 -29 -6 -57 -5 -79 2 -11 3 -36 -1 -55 -10z" id="227"/>
<path d="M5162 1992 c-28 -4 -26 -15 20 -162 39 -122 55 -109 54 46 -1 106 -1 108 -26 114 -14 3 -35 4 -48 2z" id="228"/>
<path d="M6382 1972 c-22 -7 -18 -13 59 -112 45 -58 104 -136 130 -174 27 -38 50 -67 50 -65 1 2 3 80 4 172 l3 168 -25 10 c-27 10 -185 11 -221 1z" id="229"/>
<path d="M6654 1928 c-4 -7 -7 -88 -7 -181 1 -140 4 -173 18 -195 23 -36 56 -62 79 -62 15 0 17 6 13 33 -3 17 -12 51 -21 75 -13 34 -14 52 -6 88 10 43 9 49 -20 92 -24 36 -30 56 -30 98 0 52 -12 76 -26 52z" id="230"/>
<path d="M4072 1844 c-29 -23 -40 -26 -78 -20 -31 4 -54 1 -74 -9 -16 -8 -47 -15 -68 -15 -46 0 -57 -11 -66 -65 -4 -22 -18 -66 -30 -97 -13 -32 -21 -60 -18 -63 11 -10 76 8 130 36 35 19 69 29 96 29 37 0 46 5 74 39 24 30 39 39 73 44 32 4 48 13 66 36 15 20 34 31 49 31 14 0 24 6 24 14 0 21 -24 36 -48 30 -13 -4 -32 2 -51 15 -37 26 -39 26 -79 -5z" id="231"/>
<path d="M6940 1813 c0 -4 13 -48 30 -98 24 -74 32 -89 47 -86 10 2 49 5 87 5 38 1 71 6 72 11 2 6 -23 22 -54 37 -32 15 -86 53 -120 83 -34 31 -62 53 -62 48z" id="232"/>
<path d="M5206 1644 c-9 -22 -8 -24 9 -24 8 0 15 6 15 14 0 22 -17 28 -24 10z" id="233"/>
<path d="M7185 1620 c-4 -7 -30 -8 -68 -4 -52 5 -66 3 -84 -12 l-22 -19 37 -152 c20 -84 40 -153 44 -153 4 0 18 4 32 10 19 7 26 17 26 36 0 20 14 40 50 73 45 41 50 51 50 88 0 30 7 50 25 71 14 17 25 33 25 36 0 10 -66 36 -89 36 -11 0 -23 -5 -26 -10z" id="234"/>
<path d="M5935 1600 c-10 -11 -27 -20 -38 -20 -11 0 -17 -5 -14 -12 3 -7 35 -76 70 -154 51 -110 138 -327 172 -432 9 -26 22 -2 27 47 3 34 13 59 31 81 18 21 27 43 27 67 0 23 9 45 25 65 14 16 25 41 25 55 0 16 13 37 35 57 20 18 35 42 35 54 0 12 14 36 30 54 17 17 30 37 30 43 0 19 -55 38 -92 32 -18 -3 -51 -8 -74 -12 -37 -7 -43 -5 -62 21 -40 54 -38 52 -80 41 -34 -9 -44 -7 -74 11 -43 27 -50 27 -73 2z" id="235"/>
<path d="M5214 1600 c-19 -7 -68 -60 -62 -65 2 -2 28 2 60 9 l56 11 -14 28 c-8 15 -16 27 -17 26 -1 0 -12 -4 -23 -9z" id="236"/>
<path d="M5789 1549 c-34 -37 -40 -40 -74 -33 -31 5 -40 3 -65 -21 -27 -26 -30 -26 -65 -14 -40 15 -62 7 -80 -28 -21 -42 -36 -52 -64 -47 -21 4 -30 1 -34 -11 -8 -20 8 -52 62 -124 23 -30 41 -60 41 -67 0 -7 -20 -20 -45 -31 -25 -10 -45 -22 -45 -26 0 -4 -12 -20 -26 -34 -30 -30 -26 -35 55 -59 146 -44 288 33 343 184 12 31 17 78 18 142 0 72 3 91 12 82 20 -20 22 -124 3 -188 -58 -204 -266 -309 -436 -220 l-47 24 -11 -25 c-7 -14 -10 -27 -9 -28 8 -6 100 -25 153 -30 161 -18 327 60 445 207 52 65 67 61 20 -6 -27 -41 -58 -70 -140 -134 l-24 -20 90 5 c80 5 96 3 154 -20 35 -15 66 -24 68 -22 20 19 -221 572 -253 582 -5 1 -26 -16 -46 -38z m-50 -183 c26 -28 37 -90 22 -126 -8 -21 -10 -17 -10 30 -1 60 -19 96 -55 110 -21 9 -21 9 0 9 11 1 31 -10 43 -23z m271 -256 c0 -5 -17 -12 -37 -16 -21 -4 -51 -13 -68 -21 -27 -14 -29 -14 -15 0 35 36 120 63 120 37z m24 -52 c-15 -7 -28 -7 -40 1 -16 9 -12 10 21 10 35 0 37 -2 19 -11z" id="237"/>
<path d="M3966 1515 l-39 -24 -38 -188 c-87 -433 -201 -800 -363 -1165 -31 -70 -56 -129 -56 -132 0 -3 194 -6 431 -6 l432 0 -7 46 c-30 225 -52 573 -67 1079 -10 355 -11 371 -31 392 -25 27 -50 29 -84 6 -23 -15 -28 -15 -60 0 -47 23 -72 21 -118 -8z" id="238"/>
<path d="M4292 1490 l-23 -10 6 -187 c21 -685 32 -887 60 -1136 8 -71 15 -135 15 -143 0 -12 68 -14 431 -14 407 0 431 1 424 18 -29 77 -165 619 -165 661 0 6 4 11 9 11 5 0 17 -35 26 -77 36 -169 97 -413 127 -510 l31 -103 1359 0 c747 0 1358 2 1358 4 0 2 -75 64 -167 138 -281 225 -450 389 -662 641 -40 48 -75 87 -78 87 -2 0 -15 -13 -29 -29 -14 -17 -49 -39 -82 -51 -31 -11 -69 -29 -83 -40 l-26 -18 5 94 c3 65 1 94 -6 94 -6 0 -28 -16 -48 -36 -36 -37 -61 -41 -116 -19 -12 5 -28 -5 -54 -30 -32 -32 -40 -36 -71 -30 -25 4 -43 1 -67 -14 -39 -25 -83 -27 -113 -6 -12 8 -56 18 -99 22 -74 6 -105 20 -115 52 -3 8 -13 8 -36 -1 -26 -10 -40 -10 -66 0 -46 17 -55 15 -89 -13 -38 -32 -63 -32 -111 2 -36 25 -40 26 -87 14 -42 -11 -53 -10 -80 4 -22 11 -41 14 -63 9 -64 -14 -202 9 -237 41 -9 8 -30 15 -46 15 -16 0 -34 4 -40 8 -7 4 -37 84 -68 179 -32 95 -61 175 -66 178 -5 3 -23 -4 -39 -16 -24 -18 -37 -20 -74 -15 -42 7 -47 5 -80 -30 -35 -37 -36 -37 -75 -26 -28 9 -48 9 -67 2 -39 -15 -50 -13 -86 18 -18 15 -49 32 -68 37 -24 7 -44 23 -60 47 -18 28 -37 42 -72 53 -35 12 -53 25 -68 51 -19 32 -25 35 -51 29 -26 -6 -35 -2 -59 24 -16 17 -31 31 -33 30 -1 0 -13 -4 -26 -9z" id="239"/>
<path d="M5218 1176 c25 -72 47 -133 48 -134 8 -11 41 12 56 38 9 17 28 34 42 40 13 5 27 18 31 28 3 11 25 28 48 37 39 16 41 18 22 31 -10 8 -26 14 -34 14 -26 1 -63 26 -77 51 -11 22 -19 24 -96 25 l-85 1 45 -131z" id="240"/>
<path d="M5830 1033 c-19 -2 -82 -16 -140 -30 -134 -33 -259 -35 -342 -6 -32 11 -60 18 -62 16 -2 -2 -1 -16 3 -31 6 -22 14 -28 42 -30 19 -2 42 -11 51 -19 26 -23 91 -36 193 -37 50 -1 100 -7 112 -14 15 -8 29 -9 48 -2 43 16 79 12 115 -15 41 -31 61 -31 86 -4 31 34 60 41 98 22 29 -14 39 -14 65 -3 34 13 37 26 20 64 -16 35 -179 100 -239 94 -8 -1 -31 -3 -50 -5z" id="241"/>
<path d="M8467 458 c-43 -58 -50 -80 -63 -215 -7 -73 -20 -157 -28 -188 l-14 -55 69 0 69 0 0 245 c0 135 -2 245 -4 245 -3 0 -16 -15 -29 -32z" id="242"/>
</g>
</svg>