<?xml version="1.0" ?><!DOCTYPE svg  PUBLIC '-//W3C//DTD SVG 20010904//EN'  'http://www.w3.org/TR/2001/REC-SVG-20010904/DTD/svg10.dtd'><svg height="850.000000pt" preserveAspectRatio="xMidYMid meet" version="1.0" viewBox="0 0 850.000000 850.000000" width="850.000000pt" xmlns="http://www.w3.org/2000/svg">
<metadata>
Created by potrace 1.14, written by Peter Selinger 2001-2017
</metadata>
<g fill="#ffffff" stroke="none" transform="translate(0.000000,850.000000) scale(0.100000,-0.100000)">
<path d="M0 4250 l0 -4250 4250 0 4250 0 0 4250 0 4250 -4250 0 -4250 0 0 -4250z m1616 3659 c32 -6 63 -15 69 -20 5 -5 17 -9 27 -9 35 0 232 -72 374 -137 139 -63 146 -65 177 -52 19 8 66 14 117 13 103 0 167 -27 210 -85 34 -48 53 -119 41 -152 -9 -22 -3 -29 77 -84 110 -76 251 -189 417 -333 72 -62 137 -120 147 -127 14 -12 22 -12 62 1 92 31 177 14 242 -49 68 -65 78 -161 24 -210 -20 -18 -19 -20 158 -199 98 -100 229 -239 291 -309 138 -156 190 -185 367 -211 l41 -6 1 108 c1 134 25 234 87 357 63 126 184 262 256 287 8 3 36 -6 63 -19 27 -14 122 -53 210 -88 355 -138 730 -307 1149 -516 186 -92 229 -118 234 -137 14 -57 -41 -259 -98 -360 -16 -30 -29 -55 -27 -57 5 -4 252 53 376 87 62 17 112 36 112 42 0 27 -54 117 -86 146 -19 16 -57 41 -84 55 -28 14 -50 30 -50 35 0 33 171 33 261 0 52 -19 78 -37 135 -95 l72 -72 103 42 c125 51 261 115 330 155 27 17 54 30 59 30 18 0 145 -287 210 -475 188 -545 206 -1096 55 -1695 -88 -347 -208 -638 -391 -951 l-75 -127 81 -123 c45 -68 127 -216 182 -329 55 -113 120 -243 143 -290 24 -47 55 -119 68 -160 23 -70 24 -82 15 -185 -5 -60 -17 -136 -28 -168 -10 -31 -18 -57 -17 -58 1 0 13 -2 27 -4 113 -15 263 -67 285 -98 59 -85 -64 -186 -295 -241 -146 -36 -508 -93 -729 -117 -102 -11 -213 -24 -246 -30 -90 -16 -753 -24 -844 -10 -131 20 -171 58 -185 170 -10 76 -18 87 -83 111 -51 19 -73 21 -183 18 -191 -6 -249 -39 -234 -134 9 -59 -16 -123 -64 -165 -99 -88 -343 -146 -807 -193 -294 -31 -878 -76 -1097 -86 -295 -13 -864 -13 -986 1 -212 23 -341 65 -371 121 -14 24 -13 32 14 97 28 70 28 71 9 92 -49 54 -141 75 -395 88 -298 16 -469 52 -542 112 -31 26 -38 37 -35 62 3 27 12 36 76 70 39 21 157 67 262 101 189 61 190 62 175 84 -14 18 -14 41 -5 169 6 81 18 192 27 246 l16 98 -59 51 c-265 230 -510 592 -642 948 -115 311 -165 637 -165 1090 0 371 32 647 109 963 33 135 120 414 133 429 4 4 22 3 41 -2 33 -9 275 -45 478 -71 l92 -12 0 -79 c0 -268 157 -572 342 -662 32 -16 64 -26 71 -23 9 3 16 31 21 78 6 68 5 75 -16 90 l-22 17 36 68 c51 97 65 146 89 302 17 111 21 166 17 292 -5 141 -8 163 -37 250 -41 120 -125 261 -247 415 -53 66 -106 137 -117 157 -12 21 -26 38 -30 38 -5 0 -29 -16 -54 -35 -25 -19 -52 -35 -59 -35 -7 0 -29 -11 -49 -25 -48 -32 -131 -62 -193 -71 l-51 -6 -11 43 c-8 29 -10 79 -5 149 8 134 17 174 37 178 9 2 43 -15 76 -36 72 -46 138 -67 189 -59 61 10 65 21 41 112 -31 120 -31 341 0 448 41 144 123 295 213 392 25 27 38 49 33 54 -5 5 -88 35 -184 66 -372 123 -480 188 -480 287 0 51 43 104 110 135 84 39 208 52 316 32z m2808 -470 c103 -38 200 -151 244 -284 21 -63 47 -213 39 -222 -3 -3 -24 33 -46 80 -51 107 -90 141 -218 192 -128 51 -174 91 -180 162 -5 45 -3 52 22 71 35 27 69 28 139 1z m-189 -550 c65 -24 213 -117 232 -146 13 -20 9 -19 -44 10 -58 31 -59 32 -203 32 -128 0 -149 2 -180 21 -60 35 -50 72 27 100 44 15 95 10 168 -17z m3087 -286 c126 -46 208 -134 208 -223 0 -25 -7 -56 -16 -68 -49 -71 -197 -91 -354 -47 -288 78 -393 83 -512 22 -37 -19 -68 -33 -68 -30 0 3 20 36 45 74 91 135 237 243 385 284 78 21 237 15 312 -12z m-884 -30 c32 -44 -8 -83 -108 -108 -75 -18 -180 -64 -212 -93 -48 -42 10 57 71 121 87 92 210 132 249 80z" id="1"/>
<path d="M1435 7883 c-105 -14 -185 -55 -185 -95 0 -26 60 -88 122 -125 29 -18 134 -60 233 -94 368 -125 582 -212 849 -346 425 -213 778 -434 1086 -682 214 -172 480 -429 630 -609 68 -82 405 -380 416 -369 2 2 -16 46 -40 98 -25 52 -52 124 -61 161 -19 73 -25 78 -102 78 -67 0 -159 34 -206 76 -23 21 -80 81 -125 133 -46 53 -176 194 -290 313 -155 164 -214 220 -241 229 -53 17 -99 55 -136 113 -47 74 -510 467 -719 611 -55 37 -63 40 -130 40 -89 0 -120 19 -165 104 -30 58 -35 61 -144 119 -316 169 -634 267 -792 245z" id="2"/>
<path d="M1215 7759 c-22 -87 91 -155 463 -278 271 -90 421 -151 657 -267 571 -280 910 -493 1283 -806 51 -43 100 -78 109 -78 22 0 7 17 -101 109 -273 232 -570 431 -966 647 -375 203 -593 299 -1035 454 -82 28 -170 59 -194 67 -67 24 -163 94 -188 138 -21 38 -22 38 -28 14z" id="3"/>
<path d="M2283 7673 c-35 -7 -28 -16 31 -45 49 -24 58 -34 85 -90 34 -72 68 -98 128 -98 61 0 77 17 71 77 -10 103 -94 164 -223 162 -38 -1 -80 -4 -92 -6z" id="4"/>
<path d="M1853 7328 c-57 -60 -116 -151 -162 -249 -61 -130 -75 -194 -75 -344 -1 -117 16 -266 33 -293 8 -14 111 8 111 24 0 7 11 26 25 42 l25 30 -17 64 c-11 39 -17 99 -17 158 0 82 5 108 33 185 45 124 102 218 182 298 57 57 65 69 50 76 -26 14 -125 51 -136 51 -6 0 -29 -19 -52 -42z" id="5"/>
<path d="M2004 7217 c-58 -59 -82 -94 -123 -178 -51 -105 -81 -208 -81 -286 0 -40 25 -192 34 -200 2 -2 15 -1 30 3 25 6 26 8 20 58 -14 117 37 341 97 428 45 66 105 121 164 149 33 16 66 29 73 29 6 0 12 3 12 8 -1 9 -120 62 -140 62 -8 0 -47 -33 -86 -73z" id="6"/>
<path d="M2151 7164 c-142 -71 -227 -229 -238 -445 -5 -93 -3 -111 16 -154 21 -48 48 -85 60 -85 3 0 12 4 18 8 10 6 8 21 -9 62 -30 78 -37 245 -13 325 9 33 26 77 37 99 27 52 106 136 174 182 30 21 54 39 54 41 0 10 -36 -1 -99 -33z" id="7"/>
<path d="M2227 7140 c-135 -90 -207 -195 -226 -332 -17 -119 21 -308 63 -316 17 -4 18 1 10 60 -23 165 1 306 71 423 40 67 113 145 163 176 31 20 35 39 7 39 -7 0 -47 -22 -88 -50z" id="8"/>
<path d="M2324 7131 c-52 -38 -116 -106 -147 -156 -56 -92 -99 -269 -81 -340 l7 -28 14 27 c7 14 18 52 24 84 13 71 88 231 134 288 36 44 85 92 120 119 17 13 18 16 5 25 -23 15 -34 12 -76 -19z" id="9"/>
<path d="M2397 7093 c-78 -59 -151 -165 -197 -286 -26 -66 -30 -90 -28 -150 3 -70 4 -72 31 -75 26 -3 27 -2 27 46 0 69 34 194 75 279 26 53 53 88 105 136 38 35 67 67 63 71 -13 13 -41 5 -76 -21z" id="10"/>
<path d="M2476 7028 c-66 -112 -90 -210 -85 -336 2 -44 7 -83 10 -87 10 -9 58 16 64 34 3 9 9 95 14 191 5 96 14 188 20 204 18 45 5 42 -23 -6z" id="11"/>
<path d="M2520 7019 c-6 -23 -12 -83 -13 -134 -2 -87 0 -98 28 -149 17 -31 33 -56 36 -56 4 0 17 25 29 55 31 78 25 166 -19 258 -18 37 -36 67 -41 67 -5 0 -14 -18 -20 -41z" id="12"/>
<path d="M2595 7034 c35 -81 55 -160 61 -251 4 -56 10 -106 14 -112 3 -7 23 -14 43 -18 32 -5 37 -3 42 19 9 36 -11 166 -36 232 -24 65 -59 110 -102 132 -28 15 -29 15 -22 -2z" id="13"/>
<path d="M2391 6984 c-22 -26 -52 -70 -66 -98 -29 -59 -75 -233 -75 -282 0 -37 8 -40 82 -28 l37 7 -5 91 c-7 105 11 205 51 293 14 31 24 58 21 60 -2 2 -22 -17 -45 -43z" id="14"/>
<path d="M2725 6964 c34 -86 48 -141 52 -216 4 -55 10 -88 17 -88 53 1 74 124 35 210 -24 54 -44 77 -83 97 -27 14 -28 14 -21 -3z" id="15"/>
<path d="M2850 6900 c0 -6 11 -35 24 -63 14 -29 31 -77 38 -107 11 -44 19 -56 36 -58 19 -3 22 1 22 30 0 46 -18 108 -42 140 -23 33 -78 74 -78 58z" id="16"/>
<path d="M3336 6899 c-17 -10 -14 -16 32 -63 27 -28 53 -61 56 -73 9 -30 84 -83 117 -83 40 0 59 24 59 74 0 88 -83 156 -189 156 -31 0 -64 -5 -75 -11z" id="17"/>
<path d="M2986 6783 c8 -25 14 -65 14 -88 0 -42 0 -43 63 -73 13 -7 7 95 -8 131 -13 32 -57 77 -75 77 -5 0 -2 -21 6 -47z" id="18"/>
<path d="M3092 6729 c10 -30 7 -101 -8 -148 -6 -19 -4 -22 12 -19 22 4 42 63 43 125 1 32 -4 45 -21 57 -33 23 -38 20 -26 -15z" id="19"/>
<path d="M2866 6696 c-7 -42 -10 -46 -52 -62 -30 -12 -58 -15 -89 -10 -68 9 -85 21 -85 61 0 46 -13 44 -35 -5 -30 -66 -42 -69 -64 -17 -11 25 -24 47 -29 51 -12 7 -22 -26 -22 -71 0 -29 -6 -36 -52 -60 -94 -47 -288 -43 -288 7 0 10 -4 21 -10 25 -11 7 -40 -86 -40 -132 0 -36 -2 -38 -32 -22 -11 6 -31 8 -44 5 -85 -22 -17 -150 71 -134 21 4 26 0 36 -31 20 -62 80 -169 121 -216 78 -88 238 -142 371 -123 158 22 286 107 350 235 26 51 47 134 47 183 0 27 3 30 34 30 48 0 86 33 86 75 0 52 -36 65 -104 39 -13 -5 -13 -1 -3 25 17 45 2 62 -74 88 -60 20 -64 24 -70 57 -9 52 -16 53 -23 2z m2 -208 c17 -17 15 -67 -4 -75 -26 -10 -64 14 -64 41 0 37 43 59 68 34z m-522 -35 c4 -14 2 -33 -3 -42 -22 -35 -73 -19 -73 23 0 50 65 66 76 19z m467 -207 c-7 -113 -143 -220 -255 -201 -66 11 -140 102 -162 198 -7 28 -6 28 31 20 67 -14 274 -8 318 9 59 23 70 19 68 -26z" id="20"/>
<path d="M2725 6238 c-36 -12 -239 -16 -278 -5 l-27 7 14 -32 c8 -20 19 -31 27 -29 8 3 57 5 109 6 88 2 117 -2 162 -20 12 -5 21 2 32 24 30 57 21 69 -39 49z" id="21"/>
<path d="M2493 6162 c-13 -2 -23 -9 -23 -17 0 -21 57 -64 96 -71 41 -7 112 16 139 46 17 19 17 20 -6 28 -26 10 -170 20 -206 14z" id="22"/>
<path d="M3163 6647 c-5 -34 -13 -69 -17 -77 -6 -15 22 -51 79 -98 24 -20 104 -46 113 -38 2 2 6 35 9 73 l6 69 -39 30 c-22 17 -62 47 -90 67 l-51 36 -10 -62z" id="23"/>
<path d="M4804 6604 c-9 -62 2 -363 16 -444 16 -93 20 -100 34 -63 10 29 36 47 28 20 -16 -53 -24 -118 -18 -142 8 -29 10 -27 46 53 21 45 44 82 50 82 7 0 10 -6 7 -12 -3 -7 -22 -51 -42 -98 -33 -76 -35 -89 -26 -121 17 -58 106 -225 175 -328 70 -105 217 -255 278 -284 129 -61 597 47 839 194 46 28 92 58 103 67 44 40 121 237 140 359 5 36 3 44 -13 53 -22 11 -24 10 -41 -45 -13 -41 -50 -109 -56 -103 -2 2 8 34 21 71 29 80 31 103 9 111 -9 4 -18 5 -19 4 -1 -2 -12 -20 -24 -41 -27 -44 -40 -43 -17 2 9 16 16 36 16 44 0 23 -794 398 -948 448 l-71 23 -45 -32 c-49 -36 -56 -38 -56 -19 0 7 14 24 31 36 28 21 30 25 14 33 -13 8 -23 4 -44 -16 -15 -14 -30 -26 -34 -26 -13 0 -7 27 8 40 8 7 15 16 15 20 0 13 -330 160 -359 160 -5 0 -13 -21 -17 -46z m640 -566 c-46 -74 -106 -148 -120 -148 -8 0 -14 3 -14 8 0 14 150 195 157 188 2 -2 -8 -24 -23 -48z m-94 23 c-15 -29 -101 -100 -135 -111 -29 -9 -29 -8 10 23 21 18 57 49 80 69 44 41 61 48 45 19z m564 -180 c3 -5 -15 -46 -40 -90 -122 -218 -311 -319 -375 -200 -38 72 114 203 316 271 92 31 92 31 99 19z" id="24"/>
<path d="M5775 5817 c-117 -44 -233 -129 -249 -184 -9 -28 24 -63 59 -63 66 0 172 88 239 199 20 32 36 61 36 65 0 10 -23 6 -85 -17z" id="25"/>
<path d="M4741 6614 c-40 -34 -61 -103 -68 -229 -4 -63 -9 -92 -14 -80 -10 27 -10 129 0 183 5 23 6 42 2 42 -3 0 -16 -16 -29 -35 -25 -40 -42 -113 -42 -187 0 -35 -4 -48 -12 -45 -9 2 -12 23 -11 63 l3 59 -24 -50 c-84 -181 -78 -429 17 -651 40 -93 74 -149 108 -180 24 -22 134 -94 143 -94 3 0 -2 16 -10 35 -8 19 -13 35 -11 35 2 0 18 -21 37 -46 29 -41 82 -84 103 -84 4 0 -10 24 -31 53 -42 55 -55 79 -73 124 -13 34 -12 33 46 -47 75 -103 156 -180 189 -180 3 0 -15 30 -40 68 -26 37 -54 85 -64 107 -37 86 -30 86 22 1 29 -49 76 -113 103 -142 42 -42 60 -53 103 -63 29 -6 66 -11 83 -11 30 0 29 1 -28 48 -185 154 -381 502 -437 775 -25 122 -39 293 -34 428 3 71 4 129 2 129 -1 0 -16 -12 -33 -26z" id="26"/>
<path d="M3374 6485 l-10 -66 36 -21 c19 -12 52 -28 73 -34 l37 -12 0 53 c0 52 0 52 -59 99 -33 25 -61 46 -63 46 -2 0 -8 -29 -14 -65z" id="27"/>
<path d="M1870 6533 c-54 -20 -98 -78 -86 -110 4 -10 16 -4 41 21 20 21 49 38 70 42 38 7 41 11 21 37 -14 18 -21 19 -46 10z" id="28"/>
<path d="M3165 6449 c-4 -11 -5 -21 -3 -22 2 -1 18 -15 36 -31 l32 -30 0 32 c0 30 -28 72 -49 72 -5 0 -13 -9 -16 -21z" id="29"/>
<path d="M1844 6428 l-36 -32 22 -18 c25 -20 81 -24 111 -8 14 8 19 21 19 50 0 40 0 40 -40 40 -30 0 -48 -8 -76 -32z" id="30"/>
<path d="M1306 6418 c-13 -48 -8 -55 52 -72 61 -17 124 -20 155 -7 14 5 4 11 -40 24 -33 10 -79 31 -104 47 -53 36 -55 36 -63 8z" id="31"/>
<path d="M1678 6404 c-20 -9 -39 -23 -42 -31 -10 -24 2 -28 23 -9 11 10 38 20 61 23 23 3 39 10 37 17 -6 17 -38 17 -79 0z" id="32"/>
<path d="M3264 6405 c-8 -20 4 -35 28 -35 12 0 41 -10 65 -21 47 -23 57 -22 47 4 -6 16 -55 43 -106 57 -22 7 -30 5 -34 -5z" id="33"/>
<path d="M3540 6381 l0 -40 56 -11 c30 -7 58 -9 61 -6 7 7 -93 95 -109 96 -5 0 -8 -18 -8 -39z" id="34"/>
<path d="M3092 6386 l-32 -12 24 -23 c27 -25 88 -33 108 -13 9 9 6 17 -12 37 -26 27 -38 29 -88 11z" id="35"/>
<path d="M1719 6361 c-69 -22 -87 -51 -29 -51 51 0 99 26 100 53 0 9 -37 8 -71 -2z" id="36"/>
<path d="M1567 6353 c-9 -8 -9 -66 -1 -87 8 -20 18 -20 49 0 l25 16 -20 25 c-11 14 -20 32 -20 39 0 14 -22 19 -33 7z" id="37"/>
<path d="M1953 6343 c-19 -7 -16 -21 17 -92 76 -160 185 -248 385 -311 22 -7 62 -24 88 -37 l48 -24 -3 28 c-2 23 -9 29 -41 35 -67 14 -150 60 -203 112 -46 47 -134 198 -134 231 0 7 -18 15 -41 19 -23 4 -54 16 -69 26 -16 11 -30 20 -32 19 -1 0 -9 -3 -15 -6z" id="38"/>
<path d="M3239 6331 l-23 -19 34 -21 c38 -23 80 -27 111 -11 27 15 24 26 -13 43 -59 26 -84 28 -109 8z" id="39"/>
<path d="M1807 6326 c-6 -15 -25 -26 -70 -40 -16 -5 -15 -10 11 -48 17 -24 60 -79 97 -123 133 -159 231 -322 275 -460 32 -99 40 -368 16 -517 -24 -144 -42 -212 -79 -292 l-31 -68 22 -19 c75 -60 270 -94 492 -85 218 8 370 41 502 107 75 38 80 56 35 145 -76 151 -110 320 -111 549 -1 150 1 163 23 210 32 66 119 151 266 262 112 84 225 200 225 230 0 16 -20 27 -53 29 -15 1 -36 9 -46 18 -30 27 -73 20 -96 -16 -44 -71 -176 -160 -357 -243 l-108 -49 0 -51 c0 -73 -17 -121 -58 -167 -68 -76 -162 -97 -261 -59 -111 42 -167 118 -159 217 l5 54 -56 21 c-161 60 -264 147 -331 281 -22 44 -40 89 -40 99 0 13 -7 19 -24 19 -13 0 -37 3 -53 6 -22 4 -32 2 -36 -10z m982 -861 c39 -33 55 -84 48 -152 -10 -95 -74 -174 -203 -253 l-54 -32 -77 33 c-128 56 -216 163 -230 279 -6 56 6 84 50 110 62 38 185 15 219 -40 17 -26 21 -25 41 10 40 67 150 91 206 45z" id="40"/>
<path d="M2670 5453 c-23 -9 -70 -55 -86 -85 -15 -29 -34 -37 -34 -15 0 15 -45 59 -77 76 -31 16 -99 14 -133 -4 -103 -53 8 -263 178 -337 l61 -26 58 40 c126 87 166 146 167 241 1 54 -2 61 -32 88 -31 28 -65 35 -102 22z" id="41"/>
<path d="M3031 6283 c-15 -79 -45 -134 -103 -199 -58 -63 -111 -96 -206 -130 -57 -20 -67 -27 -64 -46 1 -12 4 -24 6 -26 5 -5 213 87 326 143 47 24 117 66 157 94 76 53 137 121 116 128 -7 3 -24 14 -40 26 -18 15 -42 22 -74 23 -30 0 -57 8 -76 22 l-30 21 -12 -56z" id="42"/>
<path d="M3439 6318 c-6 -13 -20 -33 -31 -45 -19 -21 -19 -22 -1 -31 11 -6 24 -8 30 -4 15 10 33 48 33 71 0 30 -17 35 -31 9z" id="43"/>
<path d="M1296 6314 c-3 -9 -6 -24 -6 -34 0 -24 58 -34 127 -21 48 10 113 36 113 46 0 2 -24 1 -53 -2 -35 -4 -73 0 -109 11 -68 20 -65 19 -72 0z" id="44"/>
<path d="M3500 6311 c0 -15 155 -71 195 -71 28 0 35 4 35 19 0 22 -19 31 -68 31 -20 0 -62 7 -92 15 -65 17 -70 18 -70 6z" id="45"/>
<path d="M3780 6281 c0 -5 37 -43 83 -86 141 -132 218 -226 315 -390 156 -261 252 -371 441 -508 237 -171 491 -251 796 -251 100 1 175 6 225 17 89 19 286 115 375 182 73 55 169 144 162 151 -2 3 -42 -10 -88 -29 -113 -46 -222 -81 -354 -113 -96 -24 -132 -27 -280 -28 -200 -1 -272 5 -379 33 -138 36 -347 153 -541 301 -124 95 -374 332 -433 410 -27 36 -101 117 -163 181 -108 109 -159 152 -159 130z" id="46"/>
<path d="M1470 6244 c-19 -7 -68 -13 -109 -13 l-74 -1 6 -37 c4 -20 10 -40 15 -45 12 -12 120 19 177 51 81 46 70 78 -15 45z" id="47"/>
<path d="M3482 6236 c2 -8 36 -49 77 -91 53 -55 77 -73 85 -65 17 17 -11 57 -82 117 -63 54 -86 65 -80 39z" id="48"/>
<path d="M3610 6193 c29 -27 56 -49 61 -51 7 -3 39 48 39 63 0 3 -14 5 -30 5 -17 0 -47 7 -67 15 -58 24 -58 18 -3 -32z" id="49"/>
<path d="M3740 6193 c-31 -70 -82 -151 -99 -158 -9 -4 -37 17 -78 57 -61 61 -63 62 -77 42 -56 -80 -109 -132 -210 -207 -140 -105 -225 -187 -257 -247 -19 -37 -24 -64 -27 -155 -8 -228 55 -513 144 -648 14 -22 23 -46 19 -54 -3 -9 6 -33 21 -55 30 -43 27 -43 127 -3 155 62 289 181 356 317 23 46 45 105 50 131 5 26 10 50 12 52 2 2 132 8 289 14 157 6 333 14 393 17 l107 7 -39 33 c-45 39 -169 190 -229 280 -22 33 -66 111 -96 173 -31 62 -66 127 -78 144 -27 40 -220 239 -270 278 l-37 30 -21 -48z" id="50"/>
<path d="M2517 5883 c-3 -27 -9 -62 -13 -80 -6 -30 -4 -32 34 -43 32 -10 45 -10 68 2 25 12 29 19 28 53 0 22 -4 57 -8 78 -7 37 -7 37 -55 37 l-48 0 -6 -47z" id="51"/>
<path d="M2374 5885 c-11 -28 2 -111 22 -138 25 -34 90 -75 139 -88 90 -25 188 16 228 95 21 40 36 136 21 136 -5 0 -32 -10 -61 -22 -52 -21 -53 -22 -53 -65 0 -38 -4 -46 -32 -64 -39 -24 -103 -21 -143 5 -23 15 -25 21 -19 65 5 36 3 49 -7 54 -8 3 -31 12 -52 21 -34 15 -38 15 -43 1z" id="52"/>
<path d="M6650 5886 c0 -2 20 -16 44 -30 66 -39 121 -107 151 -189 66 -179 81 -211 107 -230 25 -19 29 -19 51 -4 60 39 77 151 37 244 -27 63 -110 145 -174 173 -63 27 -216 52 -216 36z" id="53"/>
<path d="M7485 5865 c-22 -14 -44 -26 -49 -28 -5 -2 14 -57 44 -123 141 -316 209 -587 229 -903 38 -610 -173 -1315 -554 -1845 -52 -73 -60 -96 -32 -96 23 0 112 -47 160 -84 26 -20 49 -36 52 -36 10 0 151 250 210 373 203 427 319 894 332 1342 8 267 -11 459 -69 712 l-21 93 -36 6 c-59 11 -71 23 -23 24 39 0 43 2 40 23 -2 14 -11 23 -25 25 -25 4 -32 22 -8 22 8 0 15 4 15 10 0 28 -121 334 -190 483 -16 33 -24 33 -75 2z" id="54"/>
<path d="M7330 5784 c-30 -14 -98 -44 -150 -65 -83 -34 -95 -41 -93 -61 10 -88 5 -145 -14 -183 -25 -49 -49 -71 -86 -80 -42 -11 -97 50 -127 138 -17 52 -26 67 -37 63 -16 -7 -377 -95 -478 -118 -56 -12 -63 -17 -105 -72 -106 -140 -242 -261 -359 -321 -119 -61 -296 -95 -493 -95 -225 0 -363 38 -646 182 l-194 97 -196 -10 c-109 -5 -278 -13 -377 -17 l-180 -7 -7 -99 c-4 -55 -21 -155 -38 -224 -70 -280 -175 -486 -339 -664 l-62 -67 17 -108 c22 -144 22 -409 -1 -635 -17 -164 -17 -179 -1 -211 9 -19 16 -44 16 -55 0 -15 11 -22 48 -31 112 -28 182 -81 182 -138 0 -33 -39 -82 -82 -104 -55 -29 -119 -29 -181 -1 -147 65 -242 192 -192 258 8 10 15 26 15 35 0 9 10 28 21 43 21 26 21 34 16 244 -4 165 -10 239 -25 310 -22 100 -60 222 -69 222 -3 0 -36 -14 -72 -31 -36 -18 -102 -44 -146 -59 l-80 -27 2 -39 c2 -21 7 -205 12 -409 10 -405 14 -445 40 -445 34 0 136 -59 154 -89 23 -39 22 -96 -3 -131 -29 -41 -69 -53 -159 -48 -65 4 -88 10 -141 39 -71 39 -122 101 -141 172 -10 37 -9 46 10 79 11 20 21 44 21 52 0 8 11 23 25 34 25 20 25 22 25 171 0 225 -30 344 -130 512 -36 61 -44 69 -78 74 -169 25 -329 85 -445 169 -76 54 -209 191 -264 271 -90 133 -149 285 -179 458 -9 55 -18 185 -21 319 l-6 228 -31 5 c-42 6 -330 45 -338 45 -17 0 -20 -85 -9 -258 39 -628 195 -1233 447 -1733 318 -630 819 -1146 1391 -1431 l142 -71 73 30 c84 35 197 53 336 53 129 0 157 -15 306 -161 l119 -117 136 -7 c134 -6 386 5 551 25 433 54 853 169 1253 345 l107 47 0 137 c0 134 1 140 31 199 35 70 83 114 215 198 228 144 578 274 737 274 42 0 45 2 97 73 247 330 446 793 525 1223 37 202 48 347 42 559 -8 280 -55 519 -154 778 -43 113 -119 287 -125 287 -2 0 -28 -12 -58 -26z m-241 -541 c55 -111 101 -290 77 -303 -5 -3 -21 45 -36 105 -15 61 -39 139 -54 174 -14 36 -26 68 -26 73 0 19 11 4 39 -49z m-84 -189 c23 -80 25 -118 4 -97 -9 9 -59 210 -58 233 1 23 26 -41 54 -136z m-2587 -345 c3 -76 1 -118 -6 -123 -11 -7 -18 51 -26 214 -4 92 -3 94 11 60 10 -22 18 -80 21 -151z m-118 20 c11 -58 7 -99 -9 -99 -5 0 -11 37 -15 83 -3 45 -8 98 -11 117 l-5 35 15 -38 c8 -21 19 -65 25 -98z m2089 -46 c103 -207 132 -338 93 -425 -25 -57 -67 -83 -124 -75 -52 7 -87 31 -104 73 -35 83 -26 311 17 450 18 57 26 67 61 73 4 0 30 -43 57 -96z m-1460 -73 c39 -54 86 -170 102 -248 15 -80 7 -238 -15 -281 -41 -78 -141 -65 -197 25 -31 51 -38 186 -15 300 25 119 67 244 82 244 8 0 27 -18 43 -40z m-809 -598 c57 -157 80 -265 80 -372 0 -106 -7 -137 -40 -170 -48 -48 -158 -11 -196 67 -25 51 -25 208 0 316 22 96 61 212 82 244 22 35 37 18 74 -85z m1827 -106 c15 -74 14 -142 -2 -139 -5 1 -15 42 -21 90 -6 48 -14 111 -18 138 l-6 50 16 -35 c9 -19 23 -66 31 -104z m-113 -146 c32 -99 39 -130 27 -130 -6 0 -15 19 -21 43 -6 23 -25 83 -42 132 -42 124 -42 126 -14 75 14 -25 36 -79 50 -120z m498 -57 c87 -142 118 -231 118 -337 0 -89 -13 -136 -46 -170 -41 -40 -87 -36 -134 12 -55 55 -64 97 -57 282 7 168 18 236 45 256 28 22 38 16 74 -43z m-4071 -120 c83 -167 92 -354 20 -393 -54 -29 -127 3 -151 65 -16 43 -11 166 9 248 23 88 57 160 74 155 7 -2 28 -36 48 -75z m2319 -444 c12 -82 13 -279 1 -279 -5 0 -12 60 -15 133 -4 72 -9 155 -12 182 -9 76 15 43 26 -36z m-101 -117 c1 -73 -3 -111 -9 -107 -6 4 -10 61 -9 143 2 163 16 134 18 -36z m649 6 c5 -7 28 -76 51 -153 70 -233 66 -374 -13 -443 -43 -37 -68 -46 -111 -38 -73 14 -107 104 -85 226 6 35 34 126 62 204 27 78 55 158 61 179 12 39 19 44 35 25z m-1567 -391 c58 -114 92 -235 93 -325 1 -82 0 -84 -32 -113 -51 -45 -114 -36 -172 26 -21 23 -25 38 -29 106 -4 95 12 216 42 308 11 36 21 71 22 76 1 6 3 15 4 20 3 16 41 -35 72 -98z m2214 -153 c-18 -115 -49 -217 -72 -236 -15 -12 -16 -10 -9 12 7 22 49 184 79 305 17 70 19 21 2 -81z m-121 54 c-7 -61 -43 -220 -54 -238 -22 -35 -21 7 4 97 14 54 31 117 36 141 6 23 12 42 14 42 2 0 2 -19 0 -42z" id="55"/>
<path d="M6296 4686 c-38 -152 -43 -346 -11 -423 11 -25 23 -34 55 -43 49 -13 73 -7 99 26 51 65 29 199 -64 390 -30 63 -56 114 -59 114 -2 0 -11 -29 -20 -64z" id="56"/>
<path d="M4887 4603 c-3 -5 -18 -56 -32 -113 -33 -126 -43 -261 -25 -324 22 -80 105 -131 143 -88 44 48 46 234 4 357 -34 100 -80 185 -90 168z" id="57"/>
<path d="M4050 4045 c-7 -16 -25 -82 -42 -145 -35 -137 -42 -293 -16 -345 26 -49 54 -68 101 -69 38 -1 44 2 60 34 16 30 18 52 14 145 -4 89 -12 132 -40 225 -20 63 -42 131 -51 150 l-14 35 -12 -30z" id="58"/>
<path d="M6259 3683 c-9 -25 -13 -98 -14 -213 0 -159 2 -178 21 -210 11 -19 32 -42 47 -50 24 -13 30 -13 54 0 60 34 71 196 19 320 -28 69 -97 190 -108 190 -3 0 -12 -17 -19 -37z" id="59"/>
<path d="M2180 3548 c-23 -65 -38 -225 -26 -272 12 -50 75 -83 112 -58 53 35 42 188 -23 335 -14 31 -29 57 -33 57 -5 0 -18 -28 -30 -62z" id="60"/>
<path d="M5107 2960 c-32 -80 -98 -299 -107 -352 -11 -72 -2 -140 22 -164 24 -24 70 -26 104 -6 61 39 86 143 64 268 -16 92 -75 273 -83 254z" id="61"/>
<path d="M3490 2655 c-38 -99 -57 -349 -30 -399 31 -59 114 -75 150 -28 20 24 22 35 17 102 -3 48 -17 108 -37 165 -32 90 -76 185 -85 185 -3 0 -10 -11 -15 -25z" id="62"/>
<path d="M987 5353 c-10 -60 -8 -302 3 -323 5 -10 30 -31 55 -46 25 -16 45 -32 45 -36 0 -8 -61 11 -75 23 -17 16 -25 9 -25 -21 0 -23 7 -33 30 -45 34 -17 32 -36 -2 -27 -21 5 -21 4 -14 -83 15 -200 75 -539 142 -808 253 -1012 800 -1830 1553 -2324 l95 -62 85 87 c50 51 112 102 147 122 l61 35 -136 70 c-492 253 -939 683 -1253 1205 -277 461 -464 1025 -543 1644 -22 169 -36 436 -29 526 7 87 13 81 -87 95 l-46 7 -6 -39z" id="63"/>
<path d="M938 5235 c-25 -72 -72 -260 -97 -389 -68 -348 -81 -575 -43 -712 25 -86 57 -149 71 -139 5 3 22 38 37 78 15 39 32 77 37 84 19 26 38 -4 73 -115 19 -63 46 -139 59 -169 25 -54 72 -123 85 -123 4 0 -4 39 -17 88 -107 378 -178 833 -192 1222 -3 107 -9 186 -13 175z" id="64"/>
<path d="M3712 5103 c-12 -32 -31 -87 -43 -123 -47 -146 -159 -309 -262 -382 l-32 -23 22 30 c12 17 38 46 58 65 20 19 57 62 81 96 44 62 110 191 102 200 -3 2 -21 -22 -41 -53 -36 -58 -137 -166 -137 -147 0 6 11 21 25 34 39 37 29 44 -17 12 -62 -42 -116 -68 -183 -87 -33 -10 -61 -19 -63 -20 -2 -2 8 -25 21 -52 13 -26 34 -79 47 -117 23 -71 20 -85 -21 -86 -27 0 -29 -12 -6 -44 12 -16 33 -63 47 -104 l26 -73 64 67 c101 109 196 271 261 446 40 108 36 117 -11 29 -46 -84 -109 -168 -170 -226 -35 -34 -31 -26 28 53 75 101 148 237 182 342 23 68 53 210 46 217 -2 2 -13 -22 -24 -54z" id="65"/>
<path d="M1620 4880 c0 -8 5 -22 10 -30 9 -13 10 -13 10 0 0 8 -5 22 -10 30 -9 13 -10 13 -10 0z" id="66"/>
<path d="M1600 4822 c0 -34 54 -166 102 -247 23 -38 66 -96 96 -127 30 -31 52 -63 50 -70 -6 -17 -100 73 -136 130 -16 26 -39 63 -51 82 l-23 35 7 -30 c3 -16 30 -79 60 -140 129 -265 357 -458 619 -525 85 -22 116 -25 116 -12 0 13 -148 153 -213 202 -57 43 -60 43 -100 32 -26 -6 -46 -7 -51 -1 -23 22 -48 132 -74 318 -7 52 -8 54 -47 66 -22 6 -54 19 -70 28 -51 26 -158 139 -200 212 -21 37 -41 63 -43 57 -8 -25 83 -176 150 -247 74 -80 78 -92 16 -48 -52 36 -123 131 -169 228 -25 51 -39 72 -39 57z" id="67"/>
<path d="M3075 4760 c-72 -43 -182 -77 -325 -101 -176 -30 -442 -24 -575 13 -49 14 -98 28 -107 32 -26 12 -33 -29 -32 -184 0 -129 15 -230 43 -304 l12 -29 22 22 c13 11 29 21 37 21 8 0 59 18 114 39 222 87 507 157 830 205 92 14 170 26 172 28 9 9 -49 145 -91 212 -26 42 -48 76 -49 75 0 0 -23 -13 -51 -29z" id="68"/>
<path d="M2995 4427 c-66 -11 -122 -22 -124 -24 -3 -2 14 -19 36 -38 91 -78 199 -246 253 -393 60 -165 74 -261 76 -535 1 -153 5 -252 12 -259 17 -17 51 10 60 50 5 20 18 116 27 212 45 435 6 788 -105 963 -28 45 -32 47 -72 46 -24 -1 -97 -10 -163 -22z" id="69"/>
<path d="M2755 4373 c-11 -2 -53 -11 -93 -19 l-73 -16 51 -55 c58 -63 121 -187 145 -285 l17 -66 52 15 c90 26 236 94 236 110 0 41 -148 247 -213 298 -33 24 -69 30 -122 18z" id="70"/>
<path d="M2470 4310 c-95 -28 -300 -103 -300 -110 0 -3 37 -33 81 -65 84 -61 247 -225 272 -273 8 -15 37 -70 65 -122 81 -152 94 -209 101 -458 6 -228 6 -224 60 -239 49 -13 51 -1 48 396 -4 456 -17 544 -109 723 -36 69 -122 169 -145 167 -4 0 -37 -9 -73 -19z" id="71"/>
<path d="M760 4043 c0 -91 18 -398 26 -446 l6 -38 34 57 c37 61 59 83 85 84 27 0 66 -38 100 -98 41 -73 106 -142 135 -142 26 0 84 54 84 78 0 9 -11 51 -25 92 -21 64 -30 77 -55 87 -56 21 -104 118 -187 373 -3 9 -15 -10 -29 -45 -14 -33 -33 -69 -44 -79 -17 -18 -20 -18 -43 -3 -24 15 -67 93 -67 121 0 8 -4 18 -10 21 -6 4 -10 -19 -10 -62z" id="72"/>
<path d="M876 3628 c-14 -19 -37 -60 -52 -92 l-26 -58 21 -117 c33 -176 70 -302 99 -333 13 -15 46 -36 73 -47 63 -28 83 -18 153 73 67 88 103 126 119 126 7 0 35 -25 62 -56 43 -50 98 -94 117 -94 4 0 -17 51 -46 113 -29 61 -72 162 -96 222 -23 61 -44 112 -46 114 -2 2 -19 -10 -39 -28 -39 -34 -71 -39 -113 -17 -38 20 -63 50 -119 141 -27 44 -56 81 -65 83 -9 2 -27 -12 -42 -30z" id="73"/>
<path d="M3330 3203 c0 -23 -40 -53 -70 -53 -22 0 -33 7 -44 28 l-15 27 -1 -27 c0 -32 28 -65 65 -74 50 -13 101 49 76 93 -6 10 -11 12 -11 6z" id="74"/>
<path d="M1186 3051 c-97 -125 -132 -141 -211 -101 -21 11 -41 18 -43 15 -16 -16 136 -324 170 -344 63 -38 121 -62 145 -59 29 3 36 20 67 152 28 119 54 138 136 96 39 -20 120 -28 120 -11 0 4 -22 48 -49 97 -47 84 -53 90 -99 107 -36 12 -65 34 -105 77 -31 33 -57 60 -59 60 -2 0 -34 -40 -72 -89z" id="75"/>
<path d="M3170 3113 c0 -44 42 -95 120 -149 69 -47 75 -49 140 -49 54 0 75 4 97 21 40 29 57 68 43 95 -21 38 -210 111 -210 80 0 -6 -15 -19 -34 -27 -47 -23 -98 -12 -130 27 l-26 31 0 -29z" id="76"/>
<path d="M2642 3069 c-13 -35 0 -61 44 -86 51 -30 98 -30 118 -1 23 32 21 51 -3 38 -47 -25 -101 -7 -131 43 l-19 31 -9 -25z" id="77"/>
<path d="M2600 2983 c0 -30 46 -116 76 -145 52 -48 120 -72 207 -73 74 0 80 2 103 28 47 55 25 114 -60 153 -62 29 -80 30 -106 4 -37 -37 -147 -17 -189 34 -18 21 -31 20 -31 -1z" id="78"/>
<path d="M6840 2830 c-287 -77 -650 -270 -714 -380 -16 -26 -21 -51 -20 -100 1 -62 18 -118 78 -265 l17 -40 -21 25 c-19 23 -74 130 -98 190 -8 21 -11 13 -17 -53 -9 -94 -1 -214 26 -367 26 -148 67 -337 83 -375 7 -16 21 -55 30 -85 19 -59 53 -120 66 -120 13 0 28 50 56 185 15 72 27 164 28 205 1 65 -3 84 -32 144 -18 38 -30 71 -28 73 3 3 26 -17 53 -44 54 -55 108 -93 168 -120 33 -14 81 -18 290 -22 242 -4 248 -5 175 -17 -42 -7 -165 -13 -280 -13 -220 -1 -272 -9 -295 -45 -20 -31 -54 -166 -61 -246 -8 -81 11 -125 59 -144 44 -16 315 -12 764 10 l111 6 28 115 c16 63 30 110 32 104 3 -10 -23 -166 -34 -203 -4 -14 0 -18 18 -18 37 0 46 11 64 85 20 78 32 64 15 -17 -6 -28 -10 -53 -7 -55 7 -7 129 16 139 26 6 6 25 61 43 123 24 84 33 104 33 77 1 -20 -8 -71 -19 -114 -11 -43 -18 -81 -15 -84 19 -18 43 27 73 135 17 65 34 124 36 129 11 24 -8 -116 -24 -178 l-17 -69 31 6 c59 11 93 77 117 226 11 69 5 129 -17 173 -17 31 -28 33 -167 16 -51 -6 -110 -9 -132 -7 -37 3 -33 5 50 27 105 28 184 61 204 85 23 27 17 66 -23 162 -113 269 -357 695 -447 781 -19 18 -61 44 -94 60 -81 37 -215 42 -325 13z m-181 -174 c-2 -2 -52 -23 -110 -48 -130 -55 -242 -127 -276 -179 -16 -24 -28 -59 -31 -90 -5 -51 -22 -51 -22 1 0 114 119 221 324 291 70 24 128 37 115 25z m863 -449 c73 -108 128 -221 128 -263 0 -40 -31 -79 -83 -105 -49 -26 -170 -48 -252 -48 -57 1 -53 2 60 24 187 35 245 67 245 134 0 43 -42 134 -106 234 -26 40 -62 97 -81 127 l-34 55 31 -35 c18 -19 59 -75 92 -123z m-1112 -876 c0 -14 7 -33 17 -43 23 -26 9 -34 -16 -9 -15 15 -21 34 -21 64 0 31 3 38 10 27 5 -8 10 -26 10 -39z" id="79"/>
<path d="M1366 2768 c-3 -13 -16 -63 -27 -112 -33 -137 -70 -161 -169 -111 -28 14 -50 22 -50 18 0 -29 155 -246 230 -321 96 -97 253 -139 305 -82 8 9 23 55 31 101 26 135 36 143 109 79 44 -38 96 -53 109 -32 3 5 -40 68 -94 141 -55 73 -124 173 -155 220 l-55 88 -53 -5 c-41 -3 -66 1 -102 17 -60 27 -71 26 -79 -1z" id="80"/>
<path d="M1736 2312 c-3 -10 -10 -46 -17 -82 -10 -51 -20 -72 -46 -99 -33 -33 -35 -33 -101 -28 -37 3 -78 8 -92 12 l-25 8 25 -28 c38 -41 171 -150 205 -168 51 -26 99 -31 134 -13 39 21 57 55 71 139 8 41 17 67 25 67 7 0 32 -9 56 -19 43 -19 81 -26 127 -23 20 2 12 14 -65 100 -52 57 -94 96 -103 94 -69 -16 -86 -13 -137 21 -44 30 -53 33 -57 19z" id="81"/>
<path d="M1925 2033 c-18 -98 -67 -158 -135 -165 -35 -3 -34 -4 60 -64 142 -91 283 -164 316 -164 38 0 88 31 110 69 21 35 43 39 99 16 43 -19 165 -32 165 -19 0 5 -49 49 -109 96 -60 48 -147 123 -193 167 l-84 79 -64 -5 c-47 -4 -76 -1 -104 11 -52 22 -53 21 -61 -21z" id="82"/>
<path d="M5965 2013 c-135 -70 -480 -193 -705 -251 -371 -96 -784 -149 -1103 -141 -75 2 -137 1 -137 -3 0 -4 20 -39 44 -77 93 -144 115 -215 93 -293 -7 -27 -6 -28 27 -28 41 0 43 4 52 114 4 53 11 83 17 79 6 -4 8 -41 4 -99 -5 -77 -4 -94 8 -94 9 0 15 18 20 58 11 108 24 125 23 32 l-1 -85 79 3 c297 12 703 82 1027 177 65 19 63 16 73 100 l8 60 6 -45 c4 -24 5 -53 2 -62 -5 -21 18 -24 50 -7 19 10 20 17 15 132 -6 115 -5 119 8 72 7 -27 14 -80 14 -117 1 -58 4 -68 19 -67 30 1 236 85 243 100 4 8 12 39 17 69 l9 55 2 -57 c1 -43 5 -58 15 -58 31 0 46 30 47 93 1 34 4 73 8 87 6 20 9 14 15 -33 4 -31 5 -71 1 -87 -4 -17 -4 -30 -1 -30 4 0 33 13 65 29 l58 30 -22 128 c-13 70 -26 154 -30 186 -3 31 -9 57 -13 57 -4 -1 -29 -13 -57 -27z" id="83"/>
<path d="M1616 1883 c-13 -66 -26 -204 -26 -285 0 -108 26 -186 73 -222 109 -83 264 -143 294 -114 7 8 24 56 38 108 l24 95 1 -81 c0 -91 13 -141 39 -149 21 -6 133 16 240 47 73 21 74 22 96 72 34 78 38 114 15 126 -17 9 -20 6 -25 -27 -11 -63 -25 -101 -40 -107 -8 -3 -15 -4 -15 -3 0 1 7 20 15 42 15 43 20 115 7 115 -4 0 -15 -22 -25 -49 -9 -27 -26 -59 -37 -72 l-20 -24 19 50 c10 28 21 64 25 81 7 29 5 31 -51 54 -32 13 -93 40 -135 61 l-78 38 -6 -27 c-12 -54 -17 -57 -27 -12 -5 25 -10 50 -12 56 -3 10 -329 224 -342 224 -10 0 6 -330 18 -373 12 -44 51 -67 116 -68 34 0 35 -1 15 -10 -43 -17 -124 11 -141 48 -19 42 -32 170 -30 302 2 82 -1 126 -8 128 -6 2 -14 -9 -17 -24z m478 -561 c4 -7 17 -17 29 -21 18 -7 18 -8 3 -14 -11 -4 -26 2 -42 18 -20 20 -24 33 -23 82 l1 58 12 -55 c6 -30 15 -61 20 -68z" id="84"/>
<path d="M3338 1899 c-43 -10 -243 -99 -307 -136 -59 -35 -113 -84 -180 -168 -77 -95 -87 -113 -105 -183 -22 -84 -20 -186 4 -241 22 -48 154 -214 207 -261 33 -29 63 -39 63 -21 0 5 -7 14 -15 21 -9 7 -30 32 -48 54 -26 33 -16 28 52 -32 46 -40 86 -71 89 -67 3 3 -17 29 -44 58 -28 28 -70 77 -94 107 -30 39 -8 20 76 -62 l119 -118 105 -16 c94 -14 273 -15 287 -1 2 3 -34 42 -79 88 -94 95 -160 177 -213 267 -55 95 -99 119 -170 92 -15 -6 -60 -19 -99 -29 -60 -16 -82 -17 -122 -9 l-49 11 110 27 c61 15 129 37 152 48 60 31 105 91 148 195 50 121 96 213 148 295 24 37 47 73 51 80 8 14 -28 15 -86 1z m-142 -342 c-16 -32 -50 -77 -85 -111 -59 -55 -166 -116 -206 -116 -11 0 12 15 51 34 87 41 178 125 224 204 42 73 52 66 16 -11z" id="85"/>
<path d="M3505 1881 c-22 -10 -58 -38 -80 -62 -48 -52 -131 -210 -175 -331 l-31 -86 31 -89 c43 -123 100 -214 194 -312 99 -102 150 -141 187 -141 33 0 179 75 265 136 191 135 262 256 219 372 -10 26 -21 49 -25 52 -4 3 -16 23 -28 45 -61 121 -289 373 -373 413 -56 27 -129 28 -184 3z m349 -254 c237 -239 260 -320 126 -440 -28 -25 -71 -57 -96 -71 -41 -23 -38 -19 35 50 44 42 90 91 101 110 19 30 20 38 9 71 -22 68 -103 174 -253 331 -38 39 -64 72 -57 72 7 0 68 -55 135 -123z m-461 -49 c-56 -108 -58 -115 -58 -188 1 -73 3 -83 62 -219 4 -9 2 -12 -6 -7 -6 4 -26 35 -43 69 -25 50 -32 77 -36 143 -4 72 -1 89 21 138 23 50 104 176 113 176 2 0 -22 -50 -53 -112z" id="86"/>
<path d="M2295 1674 c-14 -19 -40 -41 -58 -50 l-31 -17 54 -24 c30 -13 97 -40 150 -59 52 -19 125 -48 163 -64 37 -17 73 -30 80 -30 12 0 93 98 103 125 3 8 -28 34 -81 69 -84 55 -88 56 -122 45 -42 -14 -116 -5 -184 20 l-48 19 -26 -34z" id="87"/>
<path d="M6019 1584 c-301 -146 -762 -287 -1134 -348 -228 -38 -331 -48 -553 -55 l-204 -6 -36 -49 -36 -49 104 7 c298 20 839 98 1190 172 259 53 758 180 787 198 2 2 -37 160 -41 163 -1 2 -36 -13 -77 -33z" id="88"/>
<path d="M6075 1399 c-120 -39 -546 -141 -785 -189 -292 -58 -498 -91 -795 -124 -224 -26 -265 -36 -335 -87 -14 -10 -77 -36 -140 -58 -63 -21 -173 -59 -245 -84 -258 -89 -382 -96 -664 -38 -166 34 -163 32 -301 202 l-79 96 -68 7 c-82 7 -190 35 -257 64 -63 28 -167 29 -296 2 -144 -30 -172 -27 -260 23 -41 23 -113 69 -160 101 l-85 58 -50 -12 c-175 -45 -445 -149 -473 -182 -11 -14 -9 -19 13 -37 71 -55 225 -86 540 -106 264 -17 347 -37 406 -96 25 -25 25 -79 -2 -130 -29 -58 -23 -80 32 -107 134 -66 414 -87 974 -73 414 11 469 14 970 56 736 62 984 102 1145 182 99 50 120 81 120 177 0 83 12 107 69 136 97 49 314 53 414 7 65 -30 82 -56 90 -142 7 -76 38 -107 124 -127 97 -22 681 -14 913 12 328 38 792 110 940 146 77 20 181 65 226 99 41 32 48 60 21 86 -29 27 -138 59 -223 66 -67 5 -71 5 -87 -20 -31 -48 -102 -71 -322 -103 -126 -18 -609 -39 -907 -39 -214 0 -228 1 -255 21 -34 26 -76 91 -108 170 -13 32 -27 59 -32 60 -4 1 -35 -7 -68 -17z" id="89"/>
<path d="M2601 1348 c-71 -10 -144 -44 -186 -88 l-26 -27 43 -18 c56 -22 203 -55 250 -55 36 0 37 1 28 25 -5 14 -15 56 -20 93 -6 37 -14 70 -18 73 -4 3 -36 1 -71 -3z" id="90"/>
<path d="M4290 7404 c-13 -32 -13 -30 6 -70 19 -41 66 -70 183 -115 65 -24 96 -43 133 -80 58 -58 62 -43 14 56 -50 106 -104 167 -177 204 -82 41 -145 43 -159 5z" id="91"/>
<path d="M4047 6874 c-38 -20 -30 -35 29 -57 41 -16 65 -18 153 -12 91 6 101 9 89 22 -25 24 -146 63 -196 63 -26 -1 -60 -8 -75 -16z" id="92"/>
<path d="M7070 6600 c-65 -10 -150 -40 -218 -78 -48 -26 -212 -181 -212 -200 0 -7 17 -3 43 8 95 42 226 35 419 -21 176 -52 311 -49 375 5 22 19 28 32 27 65 -4 139 -227 253 -434 221z" id="93"/>
<path d="M6303 6551 c-41 -19 -138 -100 -129 -108 2 -3 18 3 35 12 17 8 66 24 108 35 81 20 110 39 100 64 -9 22 -62 20 -114 -3z" id="94"/>
</g>
</svg>