<?xml version="1.0" ?><!DOCTYPE svg  PUBLIC '-//W3C//DTD SVG 20010904//EN'  'http://www.w3.org/TR/2001/REC-SVG-20010904/DTD/svg10.dtd'><svg height="850.000000pt" preserveAspectRatio="xMidYMid meet" version="1.0" viewBox="0 0 850.000000 850.000000" width="850.000000pt" xmlns="http://www.w3.org/2000/svg">
<metadata>
Created by potrace 1.14, written by Peter Selinger 2001-2017
</metadata>
<g fill="#ffffff" stroke="none" transform="translate(0.000000,850.000000) scale(0.100000,-0.100000)">
<path d="M0 7830 c0 -468 3 -670 11 -670 16 0 51 20 77 43 l22 20 0 -106 c0 -95 2 -107 19 -117 41 -22 138 16 189 75 18 20 32 39 32 43 0 4 9 13 20 20 20 12 20 12 6 -21 -17 -41 -5 -67 29 -67 26 0 72 48 81 86 9 33 27 25 35 -16 4 -18 13 -36 20 -40 18 -12 39 -1 39 21 0 26 6 24 64 -20 89 -69 159 -81 196 -34 11 14 19 31 17 36 -2 6 -70 27 -153 48 -451 112 -653 257 -578 415 53 111 276 218 576 278 222 45 370 59 668 65 l285 6 1 54 c1 50 3 54 31 66 16 7 39 25 50 41 l21 29 7 -50 c3 -28 7 -57 8 -65 4 -22 73 -17 105 7 15 11 28 30 30 41 3 20 41 56 50 48 2 -2 -2 -22 -9 -45 -10 -32 -9 -43 1 -56 20 -24 68 -19 95 11 32 34 40 80 26 144 -15 70 -15 70 18 70 68 0 78 66 19 127 -17 18 -29 35 -26 38 3 3 37 -1 77 -10 129 -27 190 -17 220 37 14 24 14 28 -4 48 -16 18 -27 21 -60 16 -37 -6 -39 -5 -21 9 11 8 29 15 40 16 12 0 39 6 61 14 34 11 -155 13 -1177 14 l-1218 1 0 -670z" id="1"/>
<path d="M2441 8480 c-13 -11 -29 -20 -36 -20 -10 0 -11 -6 -3 -28 16 -41 2 -80 -35 -103 -27 -17 -45 -20 -125 -17 -81 3 -92 2 -86 -12 4 -8 9 -32 12 -53 5 -44 -18 -77 -54 -77 -22 0 -22 -2 -17 -73 8 -104 -25 -161 -100 -174 -29 -4 -40 -1 -60 19 -24 24 -24 24 -58 6 -22 -12 -50 -18 -79 -16 -42 3 -45 5 -50 36 -6 36 -5 36 -40 27 -22 -5 -25 -11 -26 -55 l0 -49 40 -5 c23 -3 82 -8 131 -11 50 -3 207 -17 350 -31 368 -37 583 -27 667 30 43 28 46 50 12 81 -36 34 -106 66 -261 118 -266 92 -324 149 -235 237 43 42 86 54 267 69 133 11 1123 9 1148 -3 23 -11 22 -49 -2 -70 -17 -15 -60 -19 -378 -27 -335 -8 -488 -20 -621 -49 -32 -7 -52 -17 -49 -23 2 -7 69 -37 148 -67 178 -69 233 -99 308 -167 156 -141 103 -263 -148 -344 -251 -80 -449 -79 -983 6 -120 19 -226 35 -235 35 -16 0 -18 -8 -15 -57 3 -48 -1 -64 -21 -93 -22 -34 -23 -38 -9 -68 12 -25 13 -37 4 -56 -17 -37 -58 -61 -84 -49 -15 6 -32 6 -50 -1 -28 -10 -28 -11 -28 -97 l0 -87 43 -7 c82 -13 235 -55 291 -79 140 -62 177 -134 117 -228 -51 -80 -122 -119 -316 -173 l-120 -33 -3 -382 -2 -383 72 65 c40 35 101 86 136 112 35 27 66 55 69 63 3 8 -8 31 -24 51 -17 21 -33 47 -37 60 -12 38 13 89 68 139 29 27 61 60 70 75 26 40 112 94 201 127 72 26 117 36 330 72 83 15 153 43 198 80 l38 31 -45 28 c-76 48 -94 113 -58 208 60 157 258 326 359 307 62 -11 130 -55 198 -127 145 -153 174 -284 84 -370 -22 -21 -46 -38 -54 -38 -26 0 -25 -18 1 -50 53 -62 121 -84 328 -105 263 -27 401 -69 476 -146 20 -21 49 -41 64 -45 15 -3 46 -24 69 -45 22 -22 45 -39 50 -39 4 0 15 -16 23 -35 20 -48 6 -97 -42 -146 -43 -44 -41 -60 15 -88 22 -11 68 -42 103 -69 l64 -48 39 80 c53 110 166 224 280 283 183 94 360 104 543 29 70 -28 184 -101 221 -140 14 -14 28 -26 33 -26 4 0 8 247 8 549 l0 549 -44 -5 c-66 -8 -126 43 -126 106 0 19 -2 19 -56 -6 -63 -28 -159 -40 -214 -26 -33 9 -35 12 -38 53 -3 39 7 100 23 142 5 12 -8 14 -67 14 l-73 -1 0 56 0 56 -62 -5 c-61 -5 -63 -4 -98 31 -25 25 -35 44 -35 66 0 30 -1 31 -47 31 -27 0 -58 3 -71 6 -22 6 -22 7 -6 26 17 18 17 22 -4 87 -12 37 -22 78 -22 92 0 31 32 83 65 105 14 9 25 19 25 23 0 3 -16 15 -35 25 -40 22 -85 102 -85 150 1 53 17 106 49 157 l30 49 -1087 0 c-1066 -1 -1087 -1 -1111 -20z" id="2"/>
<path d="M4650 8463 c-45 -50 -60 -92 -60 -161 0 -70 26 -117 80 -145 34 -18 54 -18 140 -2 33 6 34 6 15 -9 -11 -9 -38 -21 -60 -27 -64 -17 -124 -57 -142 -94 -15 -32 -15 -38 5 -98 12 -35 22 -75 22 -89 0 -29 20 -38 88 -38 45 0 47 -2 32 -31 -21 -39 34 -99 92 -99 11 0 47 12 79 26 33 15 63 23 67 19 4 -4 1 -10 -6 -12 -20 -7 -54 -82 -50 -111 2 -20 9 -28 28 -30 32 -5 98 15 133 40 16 11 30 18 33 16 2 -3 -11 -34 -30 -70 -36 -69 -56 -162 -38 -180 16 -16 134 -12 191 7 30 10 67 32 87 52 40 40 52 37 34 -6 -27 -65 31 -149 94 -137 40 8 86 58 86 94 0 37 15 60 24 37 3 -9 6 -27 6 -39 0 -33 31 -56 74 -56 64 0 90 38 144 205 10 33 22 68 27 78 5 12 3 17 -9 17 -9 0 -16 5 -16 10 0 6 6 10 13 10 38 0 118 34 155 66 48 41 78 93 88 153 l6 41 30 -22 c115 -81 262 31 199 153 -31 59 -27 82 8 42 62 -73 123 -20 125 109 1 57 -2 71 -21 90 -19 19 -26 20 -48 10 -15 -7 -25 -20 -25 -32 0 -24 -18 -27 -27 -4 -8 21 35 64 64 64 56 0 83 -42 83 -130 0 -89 -35 -153 -91 -164 -26 -5 -29 -10 -29 -43 0 -21 -9 -53 -20 -71 l-20 -33 45 -48 c25 -26 70 -62 102 -78 l56 -31 -40 -20 c-85 -44 -127 -121 -121 -222 3 -52 4 -55 32 -58 46 -6 74 6 120 48 49 45 65 42 35 -6 -63 -102 -13 -230 82 -209 43 10 63 39 61 93 l-1 47 15 -35 c41 -92 51 -106 86 -125 l37 -20 36 35 c20 19 46 51 57 70 12 19 23 36 24 38 1 2 14 -4 27 -13 14 -9 38 -15 54 -13 53 6 40 88 -13 88 -14 0 -24 6 -24 14 0 9 19 15 64 18 116 10 232 78 298 177 17 25 33 48 34 50 2 2 11 -2 19 -9 20 -16 71 -15 92 2 9 7 22 26 28 42 l13 30 15 -31 c31 -59 120 -68 167 -18 30 32 38 31 50 -1 30 -77 100 -126 180 -126 77 0 143 47 175 127 9 22 26 50 38 63 23 25 29 86 13 132 -8 24 -7 24 25 -6 19 -18 48 -39 66 -48 61 -30 175 -15 225 31 17 15 18 41 18 330 l0 313 -1909 0 -1909 0 -32 -37z" id="3"/>
<path d="M2670 8339 c-224 -28 -270 -44 -270 -95 0 -36 53 -65 224 -124 249 -86 326 -134 326 -204 0 -125 -263 -167 -740 -117 -375 39 -487 45 -775 45 -312 0 -463 -13 -705 -59 -296 -58 -517 -159 -564 -260 -22 -46 -15 -75 31 -126 71 -78 244 -155 502 -220 150 -39 192 -44 496 -69 217 -17 285 -43 300 -110 7 -34 -14 -87 -46 -117 -75 -68 -185 -96 -466 -118 -548 -44 -777 -109 -893 -257 -81 -102 -112 -261 -71 -369 39 -102 164 -245 267 -305 l43 -25 105 17 105 17 -68 48 c-257 180 -261 431 -10 585 150 91 286 120 677 144 284 18 650 89 794 154 87 39 156 121 140 165 -34 99 -300 177 -722 211 -354 28 -555 84 -640 176 -46 50 -54 75 -48 149 8 92 71 151 217 200 135 46 262 60 561 60 289 0 295 -1 670 -60 334 -53 489 -68 612 -61 297 18 528 109 528 209 0 44 -30 88 -91 137 -68 53 -123 81 -283 142 -168 63 -206 98 -157 142 51 47 357 76 794 76 222 0 257 2 257 15 0 13 -64 15 -517 14 -285 -1 -547 -5 -583 -10z" id="4"/>
<path d="M6089 7813 c-24 -76 -78 -134 -164 -175 -54 -25 -62 -40 -106 -186 -40 -132 -122 -191 -201 -145 l-34 20 -17 -23 c-16 -21 -17 -70 -17 -593 l0 -571 48 -59 c26 -32 66 -95 90 -140 24 -45 49 -81 55 -82 7 -1 26 0 42 1 18 0 42 -7 56 -19 14 -11 40 -19 57 -19 17 1 38 -4 46 -11 12 -10 20 -9 39 4 21 14 24 21 20 59 -5 38 -2 45 22 64 18 14 42 22 66 22 l39 0 2 940 c3 944 3 950 -27 950 -2 0 -9 -17 -16 -37z" id="5"/>
<path d="M6250 7834 c-19 -7 -50 -11 -67 -8 l-33 5 0 -938 1 -938 24 -27 c17 -20 33 -28 58 -28 19 0 45 -8 57 -18 27 -22 92 -19 83 4 -16 43 28 84 90 84 12 0 30 8 41 19 29 26 67 33 96 17 17 -9 33 -10 53 -3 20 7 34 5 52 -7 14 -9 25 -21 25 -26 0 -6 13 -10 30 -10 19 0 34 -7 42 -20 20 -31 51 -25 72 14 25 47 69 65 107 44 23 -14 28 -14 33 -2 8 20 67 54 94 54 l22 0 0 691 0 691 -32 -7 c-42 -9 -40 -7 -29 -39 11 -27 1 -68 -19 -81 -14 -9 -60 -9 -86 -1 -17 5 -27 -2 -48 -33 -15 -21 -43 -50 -63 -64 -42 -30 -69 -25 -119 24 l-31 30 -34 -20 c-53 -33 -104 -28 -145 13 -31 31 -34 39 -34 95 l0 60 -41 -14 c-97 -35 -124 -15 -124 89 1 84 25 140 87 198 l40 37 -30 15 c-17 9 -53 38 -80 66 -27 27 -51 49 -53 49 -2 -1 -20 -7 -39 -15z" id="6"/>
<path d="M8447 7808 c-40 -21 -123 -28 -170 -15 l-27 7 2 -1031 3 -1032 29 -10 c23 -8 31 -6 38 7 22 39 110 61 122 30 6 -15 10 -14 31 6 l25 23 0 1019 c0 560 -3 1017 -7 1017 -5 -1 -25 -10 -46 -21z" id="7"/>
<path d="M8200 7798 c0 -12 -14 -43 -30 -68 -16 -25 -30 -50 -30 -56 0 -6 -14 -30 -31 -53 -43 -60 -122 -96 -193 -87 -60 7 -120 45 -155 98 l-23 36 -32 -19 c-41 -25 -116 -25 -147 0 -22 18 -23 18 -58 -6 -28 -19 -44 -24 -75 -20 -38 5 -42 3 -102 -62 -38 -41 -83 -77 -118 -95 l-56 -28 0 -698 c0 -678 1 -697 19 -715 12 -10 21 -33 23 -58 3 -35 7 -42 32 -48 33 -9 46 -24 46 -56 0 -28 16 -29 55 -3 40 27 105 27 105 1 0 -17 3 -18 28 -9 39 15 80 2 99 -31 15 -25 20 -27 68 -23 36 3 63 -1 88 -13 34 -16 36 -16 57 5 11 11 33 23 48 26 20 4 35 18 51 50 27 50 95 90 133 78 42 -13 76 -44 98 -89 19 -38 26 -45 51 -45 18 0 39 -10 55 -25 l24 -24 -2 1026 c-2 810 -6 1027 -15 1031 -8 2 -13 -5 -13 -20z" id="8"/>
<path d="M1229 7690 c-173 -12 -318 -43 -406 -86 -78 -37 -111 -73 -120 -128 -17 -103 68 -175 267 -226 64 -16 255 -49 293 -50 16 0 5 38 -18 60 l-25 23 52 18 c33 11 62 29 79 50 23 28 27 30 36 15 5 -9 25 -19 44 -22 29 -5 41 -1 65 19 l29 25 -17 50 c-10 27 -18 67 -17 88 l0 39 18 -51 c40 -111 72 -148 127 -148 27 0 41 7 59 30 l24 29 1 -27 c0 -20 5 -28 18 -28 43 0 59 69 22 92 -26 17 -25 31 3 43 31 14 51 78 40 130 -8 38 -10 40 -53 46 -84 13 -394 17 -521 9z" id="9"/>
<path d="M1517 7347 c-26 -28 -30 -30 -89 -24 -55 5 -65 3 -91 -19 -16 -13 -35 -24 -44 -24 -11 0 -13 -7 -8 -32 4 -18 11 -37 15 -41 4 -5 52 -12 106 -17 55 -5 123 -12 152 -16 l52 -6 0 85 0 85 -33 19 -33 20 -27 -30z" id="10"/>
<path d="M2935 7218 c-57 -30 -165 -145 -199 -211 -36 -73 -39 -127 -8 -160 39 -41 90 -49 304 -45 181 3 199 5 225 24 45 34 58 70 44 124 -23 88 -136 226 -219 269 -52 26 -96 26 -147 -1z" id="11"/>
<path d="M33 7143 l-33 -17 0 -334 0 -335 26 39 c40 61 94 112 155 149 67 42 207 89 312 106 l77 13 0 143 c0 132 -1 143 -18 143 -11 0 -27 8 -36 19 -16 18 -18 18 -46 -10 -32 -32 -89 -40 -109 -15 -11 13 -19 10 -57 -19 -74 -57 -167 -72 -205 -34 -19 19 -21 30 -17 95 5 81 4 83 -49 57z" id="12"/>
<path d="M880 7075 c0 -28 -31 -64 -65 -75 -45 -15 -98 0 -163 45 -27 18 -53 31 -56 28 -3 -4 -6 -74 -6 -156 l0 -149 53 7 c28 4 104 13 167 19 l115 11 3 134 c2 101 -1 136 -10 143 -21 13 -38 9 -38 -7z" id="13"/>
<path d="M950 6945 l0 -135 38 0 c54 0 209 18 267 31 70 16 151 56 175 86 27 35 26 79 -2 97 -13 8 -50 19 -83 25 -70 12 -279 31 -347 31 l-48 0 0 -135z" id="14"/>
<path d="M2788 6702 c-45 -47 -88 -72 -155 -92 -24 -7 -43 -16 -43 -20 0 -3 17 -18 38 -32 20 -13 61 -41 91 -61 29 -21 63 -37 75 -37 11 0 47 18 79 39 112 76 171 78 316 11 52 -23 113 -45 136 -47 38 -5 45 -2 96 45 l54 50 -30 6 c-128 27 -211 73 -252 139 l-27 43 -168 -1 -168 0 -42 -43z" id="15"/>
<path d="M1599 6636 c-18 -17 -425 -66 -556 -66 -101 0 -93 25 -93 -282 l0 -270 53 -61 c30 -34 79 -96 109 -138 60 -81 100 -113 160 -123 34 -6 37 -5 47 27 16 48 53 80 97 82 29 2 40 9 51 29 25 47 83 56 125 19 9 -8 22 -12 27 -8 8 4 11 133 11 401 0 322 -2 394 -13 394 -8 0 -16 -2 -18 -4z" id="16"/>
<path d="M2442 6573 l-33 -4 58 -38 c32 -21 90 -66 128 -101 130 -117 229 -138 320 -70 95 72 120 73 259 3 172 -87 239 -73 381 81 47 52 85 96 85 100 0 3 -28 6 -62 6 -60 0 -62 -1 -114 -50 -62 -59 -107 -80 -149 -73 -17 3 -77 26 -135 51 -143 62 -185 62 -278 0 -37 -25 -75 -48 -85 -51 -28 -10 -86 15 -157 67 -36 27 -82 57 -102 67 -36 19 -49 20 -116 12z" id="17"/>
<path d="M790 6545 c-41 -8 -102 -22 -135 -32 l-60 -19 -3 -192 c-2 -189 -2 -193 17 -182 51 27 169 3 264 -54 l57 -35 0 265 0 264 -32 -1 c-18 0 -67 -7 -108 -14z" id="18"/>
<path d="M2234 6522 c-124 -44 -194 -98 -209 -163 -6 -22 -1 -28 45 -53 81 -44 141 -56 350 -67 265 -15 1142 -5 1360 15 170 15 204 22 257 50 29 15 31 18 22 48 -26 93 -102 134 -338 184 -21 5 -41 -12 -130 -104 -143 -149 -201 -176 -310 -148 -33 8 -96 34 -140 56 -44 22 -93 40 -109 40 -16 0 -47 -13 -69 -29 -68 -49 -99 -61 -161 -61 -77 0 -134 29 -242 125 -90 79 -182 135 -221 135 -13 0 -60 -13 -105 -28z" id="19"/>
<path d="M494 6444 c-208 -125 -231 -301 -60 -468 l50 -49 19 44 c10 24 29 58 43 76 24 31 24 35 24 232 0 111 -4 201 -8 201 -5 0 -35 -16 -68 -36z" id="20"/>
<path d="M4120 6325 c0 -55 -83 -98 -225 -115 -376 -45 -1512 -49 -1707 -6 -83 18 -172 61 -203 98 -25 30 -43 22 -25 -11 28 -54 129 -101 273 -129 82 -15 164 -17 742 -16 653 1 841 8 990 39 88 19 176 62 195 97 13 24 13 29 -4 47 -25 28 -36 26 -36 -4z" id="21"/>
<path d="M4892 6316 c-29 -8 -87 -30 -130 -51 -134 -66 -277 -229 -297 -340 -5 -26 2 -39 51 -95 69 -79 164 -221 211 -314 37 -73 53 -75 53 -7 0 26 -10 44 -39 76 -67 73 -72 132 -21 269 57 150 215 236 381 208 263 -45 411 -261 396 -577 -6 -126 -24 -201 -71 -300 -65 -138 -130 -196 -353 -319 -57 -31 -125 -78 -154 -104 l-50 -47 -18 -105 c-21 -122 -56 -232 -106 -330 -19 -38 -35 -71 -35 -74 0 -15 81 25 120 61 49 44 59 64 91 187 22 86 66 123 214 181 214 84 383 242 491 457 71 142 96 239 101 403 4 118 2 153 -15 226 -69 289 -288 526 -549 593 -72 19 -197 19 -271 2z" id="22"/>
<path d="M4188 6260 c-36 -63 -166 -109 -363 -129 -359 -36 -1454 -33 -1635 5 -92 19 -194 65 -237 107 -31 29 -33 29 -33 9 0 -12 15 -38 32 -58 30 -34 33 -43 30 -94 -2 -54 1 -62 50 -136 41 -63 52 -89 55 -129 10 -123 -101 -176 -191 -92 -39 38 -56 88 -56 172 l0 59 -22 -21 c-20 -20 -21 -34 -26 -195 -5 -192 7 -268 54 -362 77 -153 217 -234 329 -192 113 44 148 164 63 216 -48 29 -66 25 -111 -25 -46 -51 -78 -58 -120 -25 -32 25 -40 60 -26 113 25 95 103 150 213 150 64 0 141 -26 178 -60 16 -14 25 -14 102 2 129 27 277 18 379 -23 43 -18 87 -32 98 -32 11 0 78 23 150 50 182 71 280 92 414 93 130 0 185 -10 367 -69 142 -46 226 -56 271 -33 12 6 63 51 113 100 64 63 108 96 149 114 l58 26 -39 40 c-56 58 -150 131 -217 169 -92 52 -101 96 -37 174 37 44 51 88 32 100 -4 2 -15 -8 -24 -24z" id="23"/>
<path d="M629 6061 c-27 -21 -89 -128 -89 -153 0 -8 12 -20 27 -27 23 -11 29 -10 40 4 6 10 10 30 7 44 -4 18 0 32 9 40 24 19 51 -28 44 -76 -11 -68 -46 -89 -181 -113 -126 -22 -156 -32 -156 -54 0 -25 27 -37 103 -45 96 -11 129 -31 183 -113 100 -150 156 -308 220 -623 76 -374 119 -500 219 -640 92 -129 246 -229 374 -242 l65 -6 -22 30 c-35 50 -118 222 -147 307 -88 258 -97 545 -25 738 11 30 45 96 76 148 76 128 105 194 106 245 1 79 -25 97 -152 110 -141 14 -183 42 -291 191 -105 146 -223 233 -339 249 -37 5 -50 3 -71 -14z" id="24"/>
<path d="M0 5780 l0 -281 28 3 c19 2 26 8 22 18 -2 8 -4 38 -5 65 l0 50 46 3 c31 2 53 10 64 23 11 11 31 19 49 19 32 0 48 16 73 72 11 25 9 28 -30 54 -61 40 -153 130 -204 198 l-43 58 0 -282z" id="25"/>
<path d="M1913 6027 c-32 -23 -43 -51 -43 -116 0 -84 33 -148 90 -171 36 -15 64 -1 86 42 22 42 12 84 -37 151 -22 31 -45 70 -52 87 l-13 30 -31 -23z" id="26"/>
<path d="M7075 6016 c-28 -12 -51 -48 -68 -106 -3 -9 -8 -3 -12 15 -10 41 -23 55 -50 55 -25 0 -49 -23 -64 -63 -9 -23 -16 -27 -50 -27 -33 0 -40 3 -43 23 -5 36 -44 35 -63 -2 -21 -41 -29 -39 -22 6 11 64 -34 86 -72 36 -18 -25 -20 -26 -21 -7 0 48 -48 58 -100 19 -19 -14 -48 -25 -65 -25 -46 0 -57 -16 -40 -56 16 -38 18 -36 -69 -48 -33 -4 -42 -1 -58 19 -24 31 -54 32 -85 3 l-23 -21 0 36 c0 26 -6 40 -22 51 -31 22 -36 20 -30 -9 4 -25 -12 -55 -30 -55 -5 0 -6 16 -2 35 6 33 5 35 -20 35 -19 0 -30 -8 -38 -25 -10 -22 -8 -30 10 -55 26 -35 27 -40 7 -40 -30 0 -75 -30 -81 -55 -3 -13 -13 -30 -22 -37 -14 -12 -15 -9 -10 23 8 47 -3 63 -36 55 -14 -3 -26 -11 -26 -16 0 -20 -18 -9 -24 13 -14 56 -104 54 -92 -1 3 -15 13 -67 22 -117 59 -324 -90 -713 -358 -936 l-59 -49 182 0 181 0 -7 23 c-3 12 -9 54 -12 93 -7 92 12 151 82 254 29 43 56 91 59 107 10 42 61 100 101 114 19 7 35 17 35 22 0 5 -9 44 -20 88 -12 44 -18 84 -15 89 3 5 58 46 121 91 104 74 123 83 183 93 59 10 66 14 69 36 3 19 31 43 123 104 l120 80 37 -13 c20 -7 66 -25 101 -39 l65 -25 14 22 c8 11 24 21 35 21 34 0 370 -81 400 -97 25 -12 40 -12 124 1 53 8 101 13 107 9 62 -35 296 -209 292 -217 -90 -224 -91 -227 -69 -244 11 -10 23 -25 26 -34 4 -10 13 -18 22 -18 45 0 145 -80 145 -115 0 -8 22 -47 50 -88 27 -40 57 -93 65 -118 18 -51 21 -151 6 -192 -6 -16 -11 -33 -11 -38 0 -5 107 -9 265 -9 l265 0 0 538 c-1 535 -1 537 -20 513 -11 -13 -20 -29 -20 -37 0 -8 -7 -14 -15 -14 -11 0 -14 7 -10 23 14 55 -51 55 -94 1 l-21 -27 -45 17 c-25 10 -55 31 -68 48 -24 30 -56 39 -87 24 -11 -5 -20 6 -33 43 -20 58 -66 101 -107 101 -39 0 -87 -43 -101 -91 -11 -35 -16 -39 -44 -39 -37 0 -65 -26 -65 -60 l0 -24 -27 26 c-16 15 -41 32 -58 38 -31 12 -101 5 -111 -11 -10 -17 -24 -9 -24 14 0 29 -18 53 -48 62 -17 5 -30 -1 -53 -24 -17 -17 -32 -31 -35 -31 -2 0 -4 16 -4 35 0 22 -6 38 -14 41 -20 8 -71 -18 -71 -36 0 -10 -8 -14 -20 -11 -11 2 -41 4 -68 4 l-47 0 30 18 c52 32 33 69 -36 69 l-43 0 15 28 c19 37 18 58 -6 82 -23 23 -34 24 -75 6z" id="27"/>
<path d="M4915 5987 c-27 -14 -64 -40 -82 -58 -65 -69 -111 -216 -84 -268 8 -15 21 -21 44 -21 18 0 50 -5 72 -11 31 -9 40 -8 44 2 2 8 17 26 32 41 43 43 119 36 159 -14 16 -19 16 -19 35 2 10 11 28 51 40 87 l22 66 47 -45 47 -45 14 27 c10 19 25 30 50 34 l36 7 -23 41 c-13 22 -45 60 -71 84 -66 59 -141 87 -247 91 -74 3 -92 1 -135 -20z" id="28"/>
<path d="M1732 5873 c-67 -95 -87 -190 -80 -374 5 -121 7 -131 51 -240 78 -196 82 -240 25 -304 -34 -40 -53 -44 -68 -15 -8 15 -7 27 5 50 28 53 -18 98 -79 77 -31 -11 -56 -57 -56 -107 0 -71 58 -143 124 -155 79 -15 168 44 196 130 12 37 9 133 -6 184 l-7 25 31 -22 c62 -44 158 -82 224 -89 82 -7 155 13 234 66 78 52 177 81 295 88 263 15 471 -103 473 -269 1 -45 -3 -53 -36 -84 -32 -29 -45 -34 -86 -34 -53 0 -92 21 -92 51 0 10 16 36 35 58 19 21 35 48 35 59 0 29 -37 52 -83 52 -32 0 -46 -7 -77 -38 -75 -75 -76 -193 -2 -265 42 -40 64 -50 162 -73 99 -22 145 -56 237 -176 195 -252 375 -352 574 -319 111 18 199 72 245 150 22 37 105 61 229 68 111 7 207 -17 336 -82 66 -33 90 -41 97 -32 11 14 52 94 52 101 0 11 -95 60 -153 78 -121 39 -318 24 -464 -35 l-58 -24 0 71 c0 88 -31 155 -93 202 -142 109 -352 15 -352 -157 0 -48 23 -80 66 -93 31 -9 80 35 88 79 13 69 77 79 125 19 48 -60 14 -148 -74 -193 -42 -22 -63 -26 -140 -26 -81 0 -97 3 -158 32 -112 53 -234 186 -279 305 -51 136 2 352 118 473 171 178 411 191 668 35 146 -87 213 -99 304 -54 58 29 98 74 162 179 73 121 145 183 201 171 17 -3 29 -1 29 5 0 19 -29 67 -45 73 -53 20 -153 -10 -208 -62 -16 -15 -48 -57 -72 -93 -23 -36 -57 -76 -75 -89 -71 -51 -172 -33 -332 57 -163 92 -182 97 -343 98 -154 0 -173 -5 -400 -102 -87 -37 -93 -38 -205 -37 -63 0 -135 6 -159 13 -55 16 -202 16 -266 0 -28 -6 -79 -25 -114 -40 l-63 -29 8 28 c5 15 9 62 9 105 l0 78 68 21 c97 29 185 22 295 -26 129 -56 173 -49 313 44 113 76 155 97 236 116 89 21 250 22 330 1 34 -9 128 -49 209 -89 144 -71 149 -73 223 -73 88 0 125 17 224 104 76 67 127 92 199 98 32 3 58 9 58 12 0 3 -23 36 -50 73 -46 63 -51 66 -78 59 -59 -17 -100 -46 -192 -136 -135 -132 -178 -140 -385 -70 -188 63 -219 69 -375 70 -164 0 -216 -11 -417 -91 -130 -51 -169 -54 -253 -19 -95 40 -179 50 -290 36 -190 -25 -178 -25 -218 1 -86 58 -188 63 -262 14 -68 -45 -94 -140 -46 -171 22 -15 56 -12 56 5 0 4 13 22 29 39 35 37 88 42 138 11 100 -60 74 -204 -48 -268 -56 -30 -151 -27 -218 8 -107 54 -199 196 -227 350 -12 63 -14 121 -10 223 3 75 4 137 1 137 -2 0 -12 -12 -23 -27z" id="29"/>
<path d="M1495 5830 c-14 -15 -16 -29 -11 -62 l6 -43 -23 28 c-37 44 -94 33 -117 -23 -7 -17 -11 -32 -9 -34 2 -1 35 -10 74 -19 57 -14 70 -15 77 -4 4 7 27 41 53 75 25 34 45 66 45 72 0 12 -34 30 -58 30 -10 0 -27 -9 -37 -20z" id="30"/>
<path d="M6519 5803 c-106 -71 -150 -106 -142 -114 6 -6 39 -4 81 4 40 8 74 11 76 8 2 -3 7 -26 11 -50 6 -38 9 -41 22 -29 12 13 12 26 -1 103 -9 48 -17 89 -19 91 -2 2 -14 -4 -28 -13z" id="31"/>
<path d="M6590 5803 c0 -9 5 -45 11 -80 l11 -63 33 29 33 29 83 -29 c45 -16 84 -28 86 -25 2 2 0 19 -4 37 -9 31 -16 36 -119 76 -123 48 -134 50 -134 26z" id="32"/>
<path d="M6816 5791 c-3 -5 7 -14 23 -21 24 -10 30 -20 40 -69 l11 -58 75 -23 c63 -20 74 -26 69 -42 -3 -10 -2 -18 3 -17 32 3 48 22 73 92 l28 77 -36 9 c-94 25 -249 61 -264 61 -9 0 -19 -4 -22 -9z" id="33"/>
<path d="M1597 5728 c-63 -79 -80 -114 -66 -139 29 -55 -8 -173 -98 -318 -94 -151 -110 -232 -78 -386 34 -164 96 -268 255 -430 65 -66 132 -142 149 -170 42 -66 71 -163 71 -236 0 -81 21 -79 44 4 25 90 79 195 130 252 l45 50 -19 -62 c-19 -62 -43 -178 -54 -260 l-6 -42 42 -12 c24 -6 59 -19 78 -29 l35 -18 78 89 c44 49 83 89 88 89 4 0 -9 -50 -31 -111 -44 -122 -47 -141 -26 -159 12 -9 25 -4 68 28 60 46 191 122 209 122 6 0 -22 -35 -62 -77 -41 -43 -91 -98 -111 -123 -35 -44 -36 -47 -25 -87 10 -38 14 -42 51 -47 50 -8 107 -46 138 -92 13 -19 27 -34 32 -34 18 0 146 87 290 198 l60 46 -20 -33 c-42 -71 -147 -194 -214 -248 -38 -32 -70 -63 -70 -69 0 -34 555 -57 825 -34 235 20 516 80 600 129 l29 17 -2 134 c-4 162 8 234 44 271 62 64 216 122 416 154 l108 18 21 45 c22 44 22 45 3 60 -30 23 -153 78 -219 98 -74 22 -207 23 -286 2 -48 -13 -67 -26 -125 -85 -84 -85 -147 -113 -270 -121 -97 -5 -167 8 -250 49 -113 56 -186 125 -356 339 -53 66 -100 94 -192 115 -81 19 -131 43 -168 82 -94 98 -70 280 44 339 66 34 158 12 178 -42 12 -31 -9 -87 -39 -106 -29 -18 -27 -46 3 -54 33 -8 94 13 106 36 25 47 -1 129 -57 181 -139 130 -470 139 -648 18 -80 -54 -148 -72 -249 -67 -60 3 -96 11 -138 31 l-58 26 0 -38 c0 -57 -26 -132 -61 -174 -78 -94 -213 -104 -291 -21 -35 38 -48 74 -48 135 0 85 50 149 117 149 46 0 93 -45 93 -90 0 -21 4 -29 11 -24 23 14 2 125 -45 240 -39 94 -48 129 -57 218 -10 100 -1 253 17 301 10 26 -3 17 -39 -27z m478 -812 c83 -35 101 -169 31 -218 -49 -35 -131 -24 -178 22 -53 53 -28 164 45 195 41 18 60 18 102 1z m495 -1 c61 -32 72 -112 21 -157 -43 -39 -92 -38 -132 1 -50 50 -34 134 31 160 35 14 47 13 80 -4z m-694 -356 c52 -48 36 -117 -33 -145 -84 -36 -165 48 -123 126 27 51 111 61 156 19z" id="34"/>
<path d="M1965 4868 c-15 -14 -28 -38 -32 -60 -5 -32 -1 -41 25 -68 50 -50 127 -40 152 19 26 63 -17 131 -81 131 -25 0 -47 -8 -64 -22z" id="35"/>
<path d="M2480 4870 c-28 -28 -23 -67 12 -93 24 -18 30 -18 57 -7 38 15 50 53 30 89 -20 35 -70 40 -99 11z" id="36"/>
<path d="M1753 4524 c-15 -24 -15 -29 -2 -53 29 -51 119 -33 119 24 0 55 -86 76 -117 29z" id="37"/>
<path d="M5365 5761 c-22 -5 -36 -17 -53 -49 -21 -38 -42 -48 -42 -20 0 13 -39 68 -49 68 -5 0 -22 -28 -39 -63 -36 -73 -72 -111 -80 -87 -10 29 -61 70 -85 70 -36 0 -87 -46 -87 -77 0 -20 -4 -24 -17 -18 -27 11 -105 35 -114 35 -5 0 3 -17 17 -37 32 -47 29 -113 -6 -163 l-23 -32 21 -62 c42 -119 55 -199 61 -364 l6 -162 53 40 c30 22 106 68 170 102 245 133 343 295 345 573 1 103 -20 228 -41 246 -4 3 -20 3 -37 0z" id="38"/>
<path d="M7331 5709 c-30 -5 -56 -11 -57 -12 -3 -2 153 -122 227 -176 16 -11 29 -10 89 8 39 12 69 25 66 30 -3 4 -54 42 -115 84 -114 81 -117 81 -210 66z" id="39"/>
<path d="M7156 5678 c-21 -50 -28 -78 -21 -78 20 0 45 24 55 55 19 58 -11 79 -34 23z" id="40"/>
<path d="M266 5685 c-3 -9 -6 -35 -6 -58 l-1 -42 -20 38 c-24 46 -56 50 -72 8 -10 -26 -12 -27 -43 -18 -50 15 -68 4 -61 -40 4 -20 15 -46 27 -58 11 -12 20 -24 20 -28 0 -4 -25 -7 -55 -7 l-55 0 0 -395 0 -395 415 0 c228 0 415 1 415 3 0 14 -83 410 -100 477 -38 149 -131 347 -194 415 -28 29 -40 34 -101 40 -86 9 -106 17 -138 50 -21 23 -25 24 -31 10z" id="41"/>
<path d="M6610 5614 c-41 -36 -76 -69 -78 -73 -4 -10 271 -91 311 -91 29 0 42 9 87 61 29 33 50 62 48 65 -3 2 -63 24 -134 48 -71 24 -136 46 -144 50 -10 3 -42 -18 -90 -60z" id="42"/>
<path d="M7192 5563 c-41 -106 -41 -108 -23 -127 19 -18 19 -18 30 3 11 19 20 21 122 21 61 0 119 -5 131 -11 21 -11 37 0 38 27 0 10 -217 179 -243 190 -10 3 -26 -27 -55 -103z" id="43"/>
<path d="M6435 5601 c-39 -36 -72 -66 -74 -68 -2 -1 6 -52 19 -113 13 -61 25 -109 27 -107 2 2 18 55 35 117 23 84 38 120 56 135 22 19 24 25 16 60 l-10 40 -69 -64z" id="44"/>
<path d="M6378 5645 c-3 -3 -45 -12 -93 -21 -78 -13 -97 -21 -162 -66 -40 -29 -72 -53 -70 -54 3 -3 249 42 275 50 10 3 38 26 62 51 42 43 43 45 19 45 -14 0 -28 -2 -31 -5z" id="45"/>
<path d="M4465 5566 c-16 -7 -66 -44 -109 -81 -99 -84 -150 -107 -236 -107 -75 0 -128 19 -265 92 -157 85 -312 109 -474 75 -96 -20 -129 -35 -221 -100 -159 -112 -227 -123 -370 -60 -72 32 -96 38 -155 38 -38 0 -88 -5 -110 -11 l-40 -11 0 -61 c0 -33 2 -60 5 -60 3 0 32 10 65 21 90 30 202 35 309 14 49 -10 128 -18 175 -19 83 -1 91 1 236 60 189 77 235 88 365 88 133 0 192 -17 333 -95 132 -73 174 -89 242 -89 65 0 92 19 146 106 67 106 152 164 245 167 49 2 48 1 34 28 -9 16 -21 19 -78 19 -37 -1 -80 -7 -97 -14z" id="46"/>
<path d="M7081 5541 c-81 -36 -108 -71 -53 -71 l27 0 3 -84 c2 -46 6 -96 10 -111 8 -27 9 -27 50 37 23 35 42 69 42 74 0 6 -11 21 -25 34 -14 13 -24 29 -21 35 35 88 44 115 38 114 -4 0 -36 -13 -71 -28z" id="47"/>
<path d="M7596 5495 c-66 -20 -83 -34 -85 -72 -1 -17 89 -77 99 -67 11 13 64 153 59 157 -2 2 -35 -6 -73 -18z" id="48"/>
<path d="M6135 5483 c-77 -14 -141 -26 -142 -27 -2 -2 30 -150 48 -227 l9 -36 83 14 c45 8 93 23 107 32 20 14 38 17 84 13 58 -5 59 -4 53 19 -3 13 -16 72 -28 132 -26 126 -4 118 -214 80z" id="49"/>
<path d="M6485 5456 c-30 -106 -55 -201 -55 -208 0 -5 15 -8 33 -8 32 0 33 1 29 33 -4 31 1 38 64 90 37 31 86 63 107 70 l39 13 -101 31 -101 31 -15 -52z" id="50"/>
<path d="M6951 5486 c-8 -9 -11 -19 -7 -23 9 -9 29 13 24 27 -2 8 -8 7 -17 -4z" id="51"/>
<path d="M6800 5413 l-145 -15 -52 -40 c-29 -22 -53 -42 -53 -44 0 -3 10 -2 23 0 12 3 93 10 179 17 l158 12 36 43 c28 35 32 44 17 43 -10 -1 -83 -8 -163 -16z" id="52"/>
<path d="M7286 5410 c5 -5 58 -43 117 -83 l108 -75 60 16 c33 8 58 16 57 17 -2 2 -45 32 -97 69 l-94 66 -80 0 c-52 0 -78 -3 -71 -10z" id="53"/>
<path d="M6970 5363 l-42 -48 7 -80 c4 -44 10 -100 14 -125 l6 -45 44 59 43 58 -12 114 c-7 63 -14 114 -15 114 -2 0 -22 -21 -45 -47z" id="54"/>
<path d="M7151 5299 c-40 -61 -71 -115 -69 -120 2 -4 52 -42 111 -83 148 -104 149 -104 232 25 37 56 63 105 58 109 -4 4 -65 46 -134 93 l-127 87 -71 -111z" id="55"/>
<path d="M4603 5353 c-16 -16 -64 -80 -106 -144 -104 -159 -160 -199 -281 -199 -58 0 -74 5 -153 47 -177 94 -220 112 -301 128 -67 14 -94 15 -144 6 -183 -32 -318 -163 -363 -353 -28 -120 -14 -200 55 -307 81 -126 188 -202 312 -223 53 -9 73 -8 122 6 99 29 149 100 109 154 -26 35 -63 42 -63 12 0 -53 -61 -120 -110 -120 -34 0 -91 37 -107 70 -42 83 22 216 129 271 162 83 360 -32 376 -218 2 -29 5 -53 7 -53 1 0 27 9 57 19 181 62 405 50 543 -29 l52 -30 22 67 c12 36 18 69 14 73 -4 4 -39 15 -78 25 -131 34 -199 74 -246 146 -56 82 -49 144 37 352 77 186 121 238 219 259 25 5 45 13 45 18 0 5 -12 18 -26 29 -38 30 -85 27 -121 -6z" id="56"/>
<path d="M6698 5292 l-168 -15 1 -26 c0 -14 6 -71 12 -125 12 -98 12 -100 42 -108 26 -8 204 3 304 18 l33 5 -5 47 c-4 26 -9 76 -12 112 -9 90 -14 110 -28 109 -6 -1 -87 -9 -179 -17z" id="57"/>
<path d="M4659 5260 c-49 -26 -80 -75 -145 -231 -73 -175 -81 -241 -35 -311 38 -60 106 -99 219 -128 46 -11 86 -19 88 -17 7 7 22 102 18 109 -3 5 -18 8 -33 8 -15 0 -52 7 -82 16 -118 35 -143 83 -104 198 73 219 108 281 178 321 12 7 15 17 11 33 -5 18 -13 22 -43 22 -20 -1 -52 -9 -72 -20z" id="58"/>
<path d="M5948 5250 c-24 -15 -58 -74 -58 -102 0 -36 49 -77 116 -98 194 -60 622 -110 944 -110 259 0 628 41 736 81 57 21 107 58 124 90 8 15 3 26 -25 58 -20 22 -50 43 -66 46 -44 10 -47 -1 -6 -19 40 -16 52 -42 38 -79 -20 -53 -114 -87 -319 -117 -355 -52 -761 -43 -1177 26 -200 33 -251 48 -292 89 -40 40 -43 76 -8 111 34 34 31 46 -7 24z" id="59"/>
<path d="M7556 5228 c-20 -7 -46 -37 -87 -101 -32 -50 -57 -92 -56 -94 1 -1 22 1 46 4 42 6 46 9 102 97 33 50 59 94 59 98 0 11 -29 9 -64 -4z" id="60"/>
<path d="M5982 5208 c-13 -13 -16 -47 -4 -65 10 -16 92 -53 118 -53 21 0 101 76 91 87 -3 2 -31 0 -63 -6 -92 -17 -104 -15 -110 19 -7 33 -14 36 -32 18z" id="61"/>
<path d="M6315 5199 c4 -11 17 -51 29 -87 25 -73 22 -71 134 -85 l44 -5 -7 51 c-3 29 -8 69 -11 89 l-6 37 -66 6 c-37 3 -80 8 -95 10 -25 4 -27 2 -22 -16z" id="62"/>
<path d="M6216 5150 c-27 -32 -48 -62 -47 -66 1 -5 30 -14 64 -21 104 -20 99 -23 71 59 -13 40 -28 75 -32 79 -4 4 -29 -19 -56 -51z" id="63"/>
<path d="M4733 5157 c-28 -32 -62 -109 -116 -264 -27 -76 -18 -110 34 -135 43 -22 147 -44 157 -34 13 13 13 289 0 376 -15 99 -29 109 -75 57z" id="64"/>
<path d="M7599 5128 c-22 -35 -35 -64 -30 -66 15 -5 102 25 129 44 40 28 25 64 -31 78 -25 6 -30 1 -68 -56z" id="65"/>
<path d="M7007 5076 c-26 -35 -47 -67 -47 -70 0 -7 144 -6 227 3 l62 6 -90 63 c-50 34 -94 62 -98 62 -4 0 -28 -29 -54 -64z" id="66"/>
<path d="M5828 5047 c-33 -45 -78 -134 -78 -155 0 -8 14 -3 38 13 54 36 95 46 183 46 152 0 230 -45 446 -253 133 -128 164 -152 239 -190 80 -39 93 -43 184 -46 152 -6 248 31 266 104 14 56 -43 111 -96 93 -27 -10 -37 -24 -64 -91 -15 -38 -57 -68 -96 -68 -12 0 -35 14 -52 31 -29 28 -30 34 -25 88 6 69 22 103 73 153 55 56 108 78 185 78 103 -1 196 -56 234 -140 20 -44 26 -48 46 -24 18 22 114 86 174 116 185 92 340 94 434 5 l33 -32 -4 61 c-4 63 -37 142 -82 199 l-22 28 -53 -37 c-131 -89 -451 -132 -926 -123 -483 9 -886 74 -975 157 l-31 29 -31 -42z" id="67"/>
<path d="M5880 4911 c-80 -26 -144 -88 -134 -128 6 -21 7 -20 57 10 46 29 58 32 131 32 71 0 90 -4 150 -33 58 -27 96 -58 240 -201 94 -92 193 -180 220 -196 122 -71 291 -106 413 -85 71 11 169 53 209 87 33 28 72 85 79 116 6 20 28 40 94 81 217 134 388 188 466 146 15 -8 38 -37 52 -65 l26 -50 26 53 c24 50 24 54 9 80 -23 41 -111 82 -174 82 -114 0 -306 -85 -410 -182 -34 -32 -64 -58 -66 -58 -3 0 -8 18 -12 39 -9 57 -61 121 -126 154 -47 24 -63 28 -113 24 -74 -7 -140 -45 -177 -103 -35 -56 -45 -106 -28 -142 11 -22 20 -27 48 -27 33 0 37 4 62 56 43 91 93 118 158 84 41 -21 60 -53 60 -100 0 -101 -98 -159 -270 -160 -181 0 -266 45 -491 262 -195 187 -256 223 -391 229 -45 2 -94 0 -108 -5z" id="68"/>
<path d="M1310 4870 c-8 -213 29 -324 156 -460 177 -190 204 -240 204 -372 0 -85 1 -88 25 -94 18 -4 37 1 65 20 37 25 40 29 40 74 0 130 -50 224 -205 382 -165 170 -212 242 -259 402 -21 68 -25 77 -26 48z" id="69"/>
<path d="M5885 4791 c-60 -15 -115 -53 -115 -80 0 -9 10 -31 21 -50 21 -35 21 -35 38 -14 29 38 83 63 134 63 104 0 177 -75 177 -182 0 -74 -25 -108 -80 -108 -56 0 -84 27 -84 81 -1 51 -22 63 -56 29 l-21 -21 30 -38 c57 -72 212 -197 296 -238 54 -27 271 -80 375 -92 203 -23 300 -24 405 -2 55 11 170 32 255 46 128 22 163 31 205 57 128 78 316 239 368 316 l27 39 -26 49 c-15 27 -34 55 -42 62 -51 41 -219 -14 -427 -138 -66 -40 -83 -55 -94 -86 -18 -51 -95 -131 -153 -160 -167 -85 -410 -67 -593 44 -35 20 -130 104 -225 197 -91 89 -181 171 -201 183 -35 21 -140 53 -169 51 -8 -1 -28 -4 -45 -8z" id="70"/>
<path d="M5902 4663 c-18 -9 -42 -28 -52 -44 l-20 -28 24 -28 24 -28 24 23 c31 28 83 30 98 3 5 -11 10 -35 10 -53 0 -39 15 -58 46 -58 53 0 70 86 31 155 -38 68 -116 92 -185 58z" id="71"/>
<path d="M0 4590 l0 -60 436 0 436 0 -7 36 c-3 20 -10 47 -15 60 l-10 24 -420 0 -420 0 0 -60z" id="72"/>
<path d="M5266 4635 c-11 -8 -62 -31 -113 -51 -51 -20 -96 -40 -99 -45 -3 -5 156 -9 380 -9 l385 0 -37 60 -37 60 -230 0 c-186 -1 -234 -3 -249 -15z" id="73"/>
<path d="M7932 4628 c-6 -13 -21 -38 -32 -55 l-22 -33 311 0 311 0 0 55 0 55 -278 0 -279 0 -11 -22z" id="74"/>
<path d="M0 3995 l0 -515 207 2 208 3 6 38 c3 20 9 40 12 43 6 6 37 -59 37 -77 0 -15 147 -11 153 4 3 7 -2 36 -11 64 -13 44 -22 55 -66 81 -28 16 -68 35 -90 42 -75 24 -208 -9 -268 -67 -23 -22 -26 -23 -22 -6 11 39 80 117 125 140 78 41 142 40 275 -2 20 -6 23 -2 29 47 28 204 161 424 329 544 l30 21 -35 77 -34 76 -442 0 -443 0 0 -515z" id="75"/>
<path d="M4990 4491 c-5 -11 -10 -22 -10 -24 0 -2 39 -18 88 -36 48 -17 122 -51 165 -76 88 -52 204 -156 233 -210 10 -20 28 -38 39 -40 283 -51 411 -93 474 -153 33 -32 40 -47 50 -103 6 -36 11 -78 11 -92 0 -19 5 -27 18 -27 31 0 136 -57 169 -91 33 -35 72 -111 73 -141 0 -17 33 -18 556 -18 l556 0 62 48 c99 78 161 101 296 112 243 18 482 -35 570 -125 32 -33 38 -35 97 -35 l63 0 0 510 0 510 -326 0 -327 0 -81 -78 c-45 -42 -111 -100 -149 -127 -37 -28 -62 -51 -55 -53 7 -1 57 8 109 22 79 20 108 33 160 72 125 92 252 132 363 114 100 -16 134 -56 102 -119 -15 -27 -15 -31 -1 -31 8 0 29 -13 47 -29 31 -27 32 -30 20 -68 -36 -119 -247 -221 -436 -211 -78 5 -81 4 -230 -57 -293 -120 -610 -220 -827 -260 -95 -18 -96 -18 -165 3 -123 39 -204 121 -204 207 0 45 14 73 53 106 l30 26 -39 7 c-90 16 -197 60 -243 102 -25 23 -66 51 -91 64 -90 46 -167 106 -272 212 l-108 108 -415 0 c-399 0 -415 -1 -425 -19z" id="76"/>
<path d="M1360 4468 c0 -4 12 -40 26 -80 38 -106 117 -256 182 -345 l56 -77 9 35 c21 79 -8 173 -81 261 -59 70 -192 214 -192 206z" id="77"/>
<path d="M4960 4393 c0 -15 14 -24 58 -37 113 -36 214 -97 303 -183 42 -41 62 -54 80 -51 22 3 20 7 -37 64 -72 72 -187 146 -287 184 -113 43 -117 44 -117 23z" id="78"/>
<path d="M8012 4386 c-58 -22 -128 -64 -192 -116 -34 -27 -212 -71 -470 -115 -380 -64 -572 -107 -655 -144 -11 -5 -35 -15 -53 -21 -18 -7 -44 -22 -58 -33 -24 -19 -24 -20 -6 -33 16 -11 25 -10 60 7 97 48 646 177 1040 244 184 31 220 40 260 66 59 38 127 58 220 66 76 6 102 23 102 65 0 42 -150 50 -248 14z" id="79"/>
<path d="M4940 4321 c-8 -16 -5 -28 15 -56 13 -21 27 -53 31 -74 8 -53 13 -63 24 -56 15 9 12 40 -7 81 -17 35 -17 36 2 50 12 9 30 12 45 9 47 -12 130 -57 190 -102 34 -25 63 -43 66 -40 10 10 -97 95 -165 131 -56 29 -171 76 -187 76 -2 0 -8 -9 -14 -19z" id="80"/>
<path d="M895 4238 c-147 -137 -238 -316 -247 -487 -4 -77 18 -80 27 -4 19 170 87 304 225 445 85 86 106 118 80 118 -4 0 -43 -32 -85 -72z" id="81"/>
<path d="M8131 4258 c-121 -13 -230 -77 -277 -163 -18 -35 -24 -37 -208 -96 -240 -77 -536 -161 -663 -189 -184 -40 -315 -24 -394 47 -22 20 -42 33 -45 30 -3 -3 3 -25 14 -49 30 -68 134 -128 223 -128 89 0 406 83 639 167 158 57 390 151 407 164 8 7 29 7 67 -2 69 -15 165 -1 263 38 104 42 195 142 153 168 -22 14 -109 20 -179 13z" id="82"/>
<path d="M4875 4230 c-37 -38 -96 -67 -165 -80 -30 -6 -59 -15 -65 -21 -10 -10 271 -3 304 7 24 8 -10 124 -37 124 -5 0 -21 -14 -37 -30z" id="83"/>
<path d="M919 4162 c-136 -142 -197 -267 -206 -423 -4 -59 -2 -88 6 -93 8 -5 11 8 11 41 0 100 60 153 156 138 57 -8 114 -58 114 -99 0 -17 5 -26 16 -26 12 0 15 6 10 23 -4 12 -10 52 -13 89 -4 54 -2 73 11 94 23 34 73 54 138 54 57 0 90 13 73 28 -6 6 -33 6 -70 -1 -75 -13 -125 -4 -164 29 -61 51 -62 131 -1 189 17 16 30 32 30 37 0 24 -36 -2 -111 -80z m11 -92 c0 -10 11 -42 25 -72 30 -64 32 -101 5 -128 -60 -60 -160 -14 -160 74 0 41 19 79 62 123 32 33 45 40 55 31 7 -6 13 -18 13 -28z" id="84"/>
<path d="M861 4014 c-23 -29 -28 -83 -11 -115 15 -27 75 -26 90 1 9 16 5 33 -16 80 -15 33 -30 60 -35 60 -4 0 -17 -12 -28 -26z" id="85"/>
<path d="M5037 4228 c4 -7 10 -31 13 -53 l5 -40 90 -2 90 -3 -30 25 c-34 29 -141 85 -162 85 -9 0 -11 -5 -6 -12z" id="86"/>
<path d="M1021 4174 c-74 -83 -5 -171 123 -157 26 3 49 9 52 14 2 4 -11 29 -31 54 -19 26 -35 50 -35 54 0 4 -18 22 -39 39 l-39 32 -31 -36z" id="87"/>
<path d="M1926 4100 c-31 -84 -33 -110 -8 -110 15 0 20 15 29 87 7 48 11 89 9 90 -2 2 -15 -28 -30 -67z" id="88"/>
<path d="M7695 4134 c-189 -33 -461 -88 -595 -120 -172 -41 -432 -113 -450 -124 -44 -27 83 -65 190 -57 165 13 926 232 971 280 38 41 21 45 -116 21z" id="89"/>
<path d="M6364 4132 c9 -15 145 -57 231 -71 57 -10 77 -9 110 2 l40 15 -35 5 c-19 3 -64 9 -100 12 -60 6 -154 23 -224 41 -20 5 -27 4 -22 -4z" id="90"/>
<path d="M4725 4069 c-319 -25 -588 -104 -620 -184 -7 -16 -15 -55 -19 -85 l-6 -55 60 -50 c79 -65 146 -104 194 -112 57 -9 90 -42 89 -88 -1 -51 -37 -87 -87 -87 -41 0 -153 49 -198 87 -36 31 -42 28 -28 -12 9 -26 28 -38 128 -86 140 -67 207 -87 283 -87 80 0 122 18 259 109 148 99 224 126 336 119 55 -4 89 -13 136 -36 108 -53 198 -163 198 -243 0 -44 -47 -89 -94 -89 -40 0 -54 11 -103 83 -48 69 -103 102 -172 101 -64 -1 -98 -16 -231 -104 -191 -125 -336 -141 -505 -57 -33 16 -68 36 -78 45 -38 34 -23 2 28 -59 110 -131 236 -213 415 -272 220 -73 450 -86 628 -37 46 12 80 26 75 29 -4 4 -30 13 -57 19 -137 35 -286 188 -286 294 0 37 24 68 54 68 30 0 58 -20 142 -100 81 -77 109 -93 191 -104 40 -6 42 -5 60 32 40 76 137 126 271 139 61 6 65 8 90 47 29 45 91 201 92 229 0 37 -123 13 -134 -26 -3 -12 -6 -42 -6 -67 0 -57 -16 -88 -59 -117 -46 -31 -95 -30 -128 3 -22 22 -25 31 -18 67 3 23 10 78 13 122 8 92 23 121 84 165 46 34 113 55 201 66 l57 6 0 42 c-1 60 -16 116 -37 132 -154 121 -713 191 -1218 153z m727 -94 c143 -17 252 -37 339 -65 49 -15 60 -16 67 -4 5 9 12 10 22 4 41 -26 -62 -89 -204 -125 -183 -47 -347 -60 -736 -59 -369 1 -489 9 -618 44 -87 24 -172 65 -172 83 0 8 12 24 28 38 15 13 21 17 15 9 -17 -19 -16 -40 1 -40 7 0 35 9 60 21 107 47 338 91 576 109 151 11 462 4 622 -15z" id="91"/>
<path d="M4750 3949 c-136 -13 -312 -46 -405 -74 -113 -35 -117 -39 -56 -60 119 -39 198 -46 563 -52 466 -7 680 11 878 74 l84 27 -31 12 c-37 16 -197 49 -308 64 -106 15 -605 21 -725 9z" id="92"/>
<path d="M1250 4039 c0 -4 16 -32 35 -64 19 -32 36 -62 37 -67 4 -10 38 0 38 11 0 10 -109 128 -110 120z" id="93"/>
<path d="M1325 4020 c3 -5 18 -10 32 -10 32 0 28 5 -10 14 -19 4 -26 3 -22 -4z" id="94"/>
<path d="M1420 3999 c13 -6 32 -17 41 -25 11 -10 32 -14 57 -12 35 3 39 5 29 19 -8 10 -35 18 -82 22 -51 4 -63 3 -45 -4z" id="95"/>
<path d="M2182 3950 c-25 -34 -27 -46 -8 -53 9 -4 17 8 25 35 16 50 10 56 -17 18z" id="96"/>
<path d="M1380 3949 c7 -12 17 -18 27 -15 8 3 20 6 26 6 20 1 -25 30 -45 30 -16 0 -17 -3 -8 -21z" id="97"/>
<path d="M1215 3930 c-16 -4 -52 -8 -78 -9 -37 -1 -54 -7 -74 -27 -23 -23 -25 -31 -20 -74 11 -94 27 -129 73 -160 45 -30 54 -29 54 5 0 45 33 117 77 165 43 48 45 52 33 80 -13 31 -16 32 -65 20z" id="98"/>
<path d="M1801 3920 c-42 -20 -43 -21 -27 -43 9 -12 29 -47 44 -77 26 -52 27 -62 26 -195 0 -77 -4 -153 -8 -170 -7 -29 -6 -29 34 15 23 25 39 38 37 30 -11 -38 -28 -132 -24 -136 2 -2 26 23 52 56 66 83 154 153 253 202 51 26 82 47 82 57 0 35 -49 118 -96 164 -72 70 -151 106 -249 113 -67 4 -87 2 -124 -16z" id="99"/>
<path d="M1475 3897 c-184 -47 -266 -152 -252 -323 4 -40 12 -84 19 -99 11 -24 15 -26 52 -19 110 18 225 -2 309 -55 l47 -31 0 43 c0 24 6 52 14 62 12 17 15 13 31 -38 10 -32 19 -57 22 -57 2 0 8 12 13 26 13 33 35 26 35 -11 0 -35 22 -45 29 -13 3 13 10 77 16 143 12 135 3 211 -30 280 -40 83 -177 124 -305 92z" id="100"/>
<path d="M2291 3816 c-13 -14 -18 -26 -13 -30 6 -3 20 7 32 24 25 36 13 40 -19 6z" id="101"/>
<path d="M798 3779 c-21 -12 -40 -74 -32 -106 4 -13 7 -23 8 -23 1 0 22 10 47 22 24 11 65 23 92 26 26 2 50 8 52 13 9 14 -17 57 -42 68 -30 14 -102 14 -125 0z" id="102"/>
<path d="M335 3731 c-15 -7 -1 -10 50 -10 59 -1 82 -7 140 -35 39 -18 91 -52 116 -75 42 -37 48 -39 60 -25 12 14 8 21 -25 49 -22 18 -69 48 -105 66 -54 26 -80 33 -141 36 -41 1 -84 -1 -95 -6z" id="103"/>
<path d="M4080 3658 c0 -55 26 -98 87 -142 49 -36 139 -76 172 -76 39 0 67 64 39 88 -7 5 -33 15 -58 22 -65 17 -110 43 -179 100 l-61 51 0 -43z" id="104"/>
<path d="M5831 3663 c-36 -11 -69 -31 -98 -58 -42 -41 -43 -43 -43 -106 0 -35 -4 -80 -10 -99 -14 -48 6 -68 49 -51 35 15 51 53 51 120 0 83 48 121 153 121 208 0 297 -136 188 -287 -48 -67 -113 -92 -277 -107 -180 -17 -241 -43 -280 -118 -16 -31 -19 -108 -4 -108 5 0 36 25 67 56 71 69 105 85 263 123 218 52 275 82 326 173 24 44 29 65 29 124 0 93 -34 152 -115 198 -49 27 -64 31 -150 33 -66 2 -112 -3 -149 -14z" id="105"/>
<path d="M890 3641 c-129 -42 -239 -166 -284 -320 -21 -70 -20 -108 2 -151 l17 -35 86 -6 c61 -4 101 -13 142 -32 l57 -26 14 22 c21 32 29 73 18 94 -16 30 -4 41 36 36 35 -5 38 -3 55 32 23 48 101 130 149 157 21 12 38 24 38 28 0 3 -22 40 -49 82 -40 61 -59 80 -98 99 -50 24 -140 34 -183 20z" id="106"/>
<path d="M2193 3567 c-35 -17 -88 -52 -119 -76 -57 -44 -164 -166 -164 -186 0 -6 23 -18 51 -25 l52 -14 -32 -9 c-31 -8 -35 -27 -5 -27 22 0 16 -30 -8 -39 -21 -7 -16 -12 41 -40 35 -18 85 -53 111 -77 42 -40 56 -46 111 -54 144 -20 255 37 299 155 17 46 14 167 -6 231 -22 70 -69 141 -114 172 -52 35 -137 31 -217 -11z" id="107"/>
<path d="M7737 3583 c-1 -1 -21 -3 -44 -6 -23 -2 -53 -11 -67 -20 -14 -10 -31 -17 -38 -17 -21 0 -137 -98 -153 -130 -26 -49 -19 -104 16 -145 17 -19 37 -35 45 -35 7 0 23 -14 36 -30 12 -17 29 -30 38 -28 8 1 29 -6 47 -15 18 -9 50 -17 71 -17 22 0 55 -6 73 -13 25 -10 76 -13 188 -11 172 4 241 20 325 75 64 43 89 81 94 146 4 46 1 59 -23 93 -39 57 -79 83 -170 113 -103 34 -204 48 -333 45 -57 -2 -104 -4 -105 -5z m375 -70 c26 -23 23 -50 -7 -55 -24 -5 -65 15 -65 32 0 12 29 40 42 40 6 0 20 -7 30 -17z m126 -65 c-2 -13 -7 -23 -13 -23 -5 0 -11 10 -13 23 -2 15 2 22 13 22 11 0 15 -7 13 -22z m-628 -18 c41 -41 12 -120 -45 -120 -39 0 -79 44 -71 78 14 57 78 80 116 42z m670 -105 c25 -30 -11 -72 -51 -60 -19 6 -27 54 -12 68 12 12 50 7 63 -8z m-282 -32 c7 -51 -84 -67 -147 -26 -30 19 -17 32 45 43 75 12 98 9 102 -17z m-295 -35 c12 -7 45 -13 73 -14 57 0 117 -21 111 -38 -1 -6 -23 -21 -47 -34 -61 -32 -157 -28 -195 8 -24 22 -34 68 -18 83 10 11 53 8 76 -5z m421 -27 c19 -21 14 -62 -10 -82 -19 -15 -84 -15 -113 0 -36 20 -24 52 29 78 56 27 72 28 94 4z" id="108"/>
<path d="M8070 3490 c0 -5 9 -10 21 -10 11 0 17 5 14 10 -3 6 -13 10 -21 10 -8 0 -14 -4 -14 -10z" id="109"/>
<path d="M7536 3411 c-10 -11 -16 -30 -14 -43 2 -19 9 -23 37 -23 45 0 61 24 38 59 -21 31 -38 33 -61 7z" id="110"/>
<path d="M8230 3300 c0 -5 7 -10 15 -10 8 0 15 5 15 10 0 6 -7 10 -15 10 -8 0 -15 -4 -15 -10z" id="111"/>
<path d="M7935 3292 c-49 -6 -54 -22 -8 -22 23 0 44 4 48 9 8 13 -5 17 -40 13z" id="112"/>
<path d="M7640 3230 c0 -47 110 -71 185 -41 41 17 15 32 -50 29 -32 -1 -62 4 -82 15 -41 22 -53 21 -53 -3z" id="113"/>
<path d="M8046 3206 c-52 -16 -56 -33 -10 -42 43 -8 68 4 72 35 4 24 -4 25 -62 7z" id="114"/>
<path d="M2620 3539 c-25 -17 -52 -34 -60 -39 -11 -6 -12 -12 -4 -20 8 -8 26 1 67 35 32 25 57 48 57 51 0 9 -16 1 -60 -27z" id="115"/>
<path d="M6023 3505 c-8 -23 0 -27 43 -23 l39 3 -32 18 c-39 21 -42 21 -50 2z" id="116"/>
<path d="M5003 3495 c-70 -19 -122 -47 -215 -112 -95 -66 -171 -102 -235 -110 -67 -7 -184 23 -306 80 -53 25 -97 42 -97 38 0 -12 88 -92 142 -129 182 -125 349 -114 572 38 140 95 223 112 317 62 33 -17 67 -45 87 -72 75 -102 86 -107 128 -65 19 19 23 31 18 52 -37 153 -247 264 -411 218z" id="117"/>
<path d="M4019 3423 c-12 -31 -37 -72 -53 -91 l-31 -35 68 7 c37 3 78 11 92 16 l24 9 -29 63 c-17 35 -30 69 -30 76 0 29 -19 8 -41 -45z" id="118"/>
<path d="M3865 3433 c-98 -29 -263 -59 -410 -73 -148 -15 -515 -15 -703 0 -84 7 -155 10 -157 8 -3 -2 -1 -24 3 -49 l8 -44 54 -7 c148 -18 460 -28 585 -18 223 18 440 57 592 104 87 28 117 48 128 84 8 27 4 27 -100 -5z" id="119"/>
<path d="M0 3385 l0 -55 221 0 c207 0 221 1 214 18 -4 9 -9 34 -12 55 l-6 37 -208 0 -209 0 0 -55z" id="120"/>
<path d="M511 3410 c37 -49 49 -48 68 4 10 26 10 26 -40 26 l-50 0 22 -30z" id="121"/>
<path d="M6000 3435 c0 -2 -9 -27 -20 -55 l-20 -50 60 0 c56 0 60 2 75 30 8 16 15 40 15 55 0 24 -3 25 -55 25 -30 0 -55 -2 -55 -5z" id="122"/>
<path d="M6306 3428 c-2 -7 -8 -32 -13 -55 l-10 -43 537 0 537 0 6 33 c4 17 9 42 13 55 l6 22 -536 0 c-421 0 -537 -3 -540 -12z" id="123"/>
<path d="M8414 3424 c3 -9 9 -33 12 -55 6 -36 9 -39 40 -39 l34 0 0 55 0 55 -46 0 c-38 0 -45 -3 -40 -16z" id="124"/>
<path d="M456 3399 c9 -45 37 -99 63 -123 21 -19 21 -19 23 7 0 15 1 31 2 35 1 5 -20 32 -46 61 l-48 53 6 -33z" id="125"/>
<path d="M1277 3416 c-61 -17 -148 -77 -181 -124 -53 -78 -68 -128 -64 -216 5 -97 30 -157 94 -221 64 -63 142 -97 236 -103 120 -7 123 -5 124 75 1 72 17 128 66 231 24 51 28 66 17 78 -6 8 -21 13 -33 12 -36 -5 -30 28 8 52 20 12 36 25 36 30 0 4 -30 20 -66 36 -79 33 -68 47 34 42 66 -3 67 -2 67 22 0 21 -11 31 -68 59 -57 29 -81 35 -145 38 -44 1 -97 -3 -125 -11z" id="126"/>
<path d="M1826 3345 c-17 -26 -59 -34 -71 -14 -5 7 -13 5 -25 -6 -16 -15 -18 -15 -24 0 -8 22 -26 9 -26 -18 0 -16 -3 -18 -12 -9 -16 16 -58 -30 -51 -57 3 -12 -4 -28 -17 -41 -20 -20 -20 -23 -6 -39 9 -10 16 -23 16 -29 0 -7 9 -12 20 -12 12 0 31 -10 44 -22 30 -30 114 -34 134 -6 7 10 22 18 33 18 10 0 19 6 19 13 0 23 31 77 43 77 7 1 1 7 -12 14 -16 9 -20 15 -12 21 9 5 8 10 -5 19 -9 7 -14 18 -11 23 4 6 0 14 -9 17 -13 5 -15 14 -10 41 8 41 4 44 -18 10z m-21 -90 c33 -33 32 -70 -4 -106 -36 -36 -60 -37 -100 -3 -37 31 -41 69 -10 108 28 35 80 36 114 1z" id="127"/>
<path d="M1723 3238 c-5 -7 -10 -25 -11 -40 -1 -22 4 -29 23 -34 31 -8 55 10 55 40 0 40 -45 62 -67 34z" id="128"/>
<path d="M3826 3314 c-120 -44 -439 -93 -656 -101 -139 -5 -454 9 -536 23 -26 5 -32 2 -37 -17 -4 -13 -5 -24 -4 -26 10 -9 269 -35 398 -40 297 -11 656 49 837 141 72 37 72 47 -2 20z" id="129"/>
<path d="M0 2695 l0 -595 702 0 702 0 -27 28 c-26 27 -26 27 -7 52 25 32 25 37 0 50 -18 9 -27 4 -69 -39 -36 -36 -62 -53 -101 -65 -222 -66 -558 94 -560 266 0 23 -10 32 -60 59 -93 50 -155 132 -184 244 -44 168 4 323 124 397 49 30 49 31 35 59 -8 15 -15 35 -15 44 0 9 -19 34 -42 55 l-41 40 -229 0 -228 0 0 -595z" id="130"/>
<path d="M4080 3280 c-14 -4 -61 -8 -105 -9 -59 -1 -87 -6 -105 -18 l-25 -18 30 -5 c43 -7 46 -42 5 -80 -44 -41 -169 -118 -238 -146 -109 -45 -182 -24 -169 48 4 18 9 43 13 56 6 21 4 23 -21 20 -25 -3 -30 -11 -54 -85 -47 -143 -97 -173 -230 -134 -102 29 -274 115 -322 160 -37 36 -42 38 -161 53 -68 9 -125 14 -127 12 -5 -5 11 -9 84 -23 69 -13 205 -75 253 -115 74 -63 26 -101 -150 -117 -62 -6 -124 -13 -138 -16 -24 -4 -24 -5 10 -24 35 -20 76 -66 68 -75 -3 -2 -22 3 -44 13 -55 24 -228 24 -308 0 -70 -22 -69 -32 3 -16 28 6 100 9 160 7 102 -3 110 -5 157 -35 27 -18 69 -42 94 -53 105 -47 115 -54 118 -82 4 -31 -23 -52 -78 -62 -86 -15 -423 30 -517 69 -49 21 -61 55 -35 99 12 20 17 36 13 36 -16 0 -146 -128 -139 -136 11 -11 214 -51 375 -74 426 -60 886 -49 1307 30 64 12 116 27 116 32 0 6 -10 8 -22 4 -13 -3 -60 -9 -105 -12 -69 -6 -86 -4 -109 11 -25 16 -26 21 -21 75 9 105 55 143 174 145 39 0 74 3 78 6 3 4 -26 11 -66 17 -49 7 -79 18 -94 32 -26 25 -39 63 -30 91 7 22 242 214 294 241 24 12 58 18 103 18 l68 0 -22 35 c-24 36 -40 40 -88 25z m-580 -325 c33 -19 71 -19 96 0 23 18 66 19 82 3 20 -20 13 -85 -17 -166 -16 -42 -32 -105 -36 -139 -4 -34 -12 -69 -18 -77 -14 -19 -106 -36 -194 -36 l-63 0 -26 53 c-26 51 -27 53 -15 141 14 108 31 150 79 199 39 40 70 46 112 22z m-347 -85 c56 -23 108 -48 115 -57 21 -29 15 -101 -12 -128 -32 -32 -74 -38 -229 -32 -205 8 -317 54 -317 132 0 44 23 60 109 74 41 6 93 20 115 31 62 28 105 24 219 -20z m33 -250 c42 0 109 -55 99 -82 -9 -23 -36 -28 -155 -27 -111 0 -166 13 -184 41 -25 41 84 85 178 72 16 -2 44 -4 62 -4z" id="131"/>
<path d="M3408 2903 c-41 -44 -54 -79 -66 -180 -7 -61 -5 -77 11 -112 17 -35 24 -41 51 -41 40 0 168 19 175 25 2 3 8 35 13 71 4 37 21 102 38 145 47 122 40 143 -34 108 l-44 -22 -51 21 c-27 12 -51 22 -53 22 -2 0 -20 -17 -40 -37z" id="132"/>
<path d="M2938 2854 c-32 -13 -84 -27 -118 -31 -66 -6 -85 -21 -75 -54 17 -53 193 -92 365 -81 109 7 115 8 129 33 8 15 11 36 8 51 -6 23 -23 33 -111 67 -58 23 -113 40 -123 40 -10 -1 -44 -12 -75 -25z" id="133"/>
<path d="M3015 2583 c-33 -8 -40 -21 -14 -28 13 -3 76 -4 139 -3 l115 3 -37 18 c-36 16 -151 22 -203 10z" id="134"/>
<path d="M5930 3275 c-10 -12 -9 -15 6 -14 11 0 35 7 54 14 l35 13 -41 1 c-26 1 -46 -5 -54 -14z" id="135"/>
<path d="M6231 3249 c-42 -51 -92 -84 -167 -110 -32 -11 -65 -22 -73 -25 -8 -3 10 -18 45 -39 67 -40 144 -118 177 -179 18 -34 22 -57 22 -141 0 -90 -3 -106 -28 -154 -15 -30 -26 -55 -25 -55 2 -1 61 -16 132 -33 310 -76 427 -201 266 -283 -79 -41 -295 -17 -503 55 l-98 33 -82 -37 c-226 -104 -497 -161 -769 -161 -454 0 -933 141 -1112 328 -34 35 -42 39 -63 31 -44 -16 -265 -58 -394 -74 -279 -35 -830 -30 -1144 10 l-110 15 -37 -25 -38 -25 49 -65 c26 -35 64 -98 82 -140 l34 -75 449 0 450 0 25 24 c40 38 104 39 148 2 l29 -24 2502 -8 2502 -7 0 601 0 602 -40 0 c-34 0 -42 -4 -50 -24 -14 -37 -78 -104 -125 -132 -23 -13 -75 -35 -115 -49 -66 -22 -90 -25 -239 -26 -149 -1 -163 -2 -136 -14 17 -8 44 -14 60 -15 40 -1 62 -14 134 -82 l61 -58 0 -79 c0 -122 -49 -204 -154 -256 -28 -14 -58 -29 -66 -34 -33 -19 -98 -42 -148 -51 -29 -5 -61 -14 -72 -20 -10 -5 -37 -10 -59 -10 -22 0 -63 -5 -91 -12 -45 -10 -56 -10 -86 7 -32 17 -38 17 -98 3 -64 -16 -121 -11 -168 13 -10 5 -27 9 -38 9 -10 0 -34 13 -52 29 -32 28 -35 28 -63 14 -22 -12 -48 -14 -114 -10 -48 3 -106 1 -131 -4 -25 -6 -77 -13 -117 -15 -67 -3 -76 -1 -152 37 -44 22 -89 52 -100 67 -24 34 -35 91 -27 135 7 40 59 122 112 178 66 70 89 95 99 112 6 9 19 18 30 20 11 1 31 10 45 20 13 9 31 17 38 17 8 0 25 9 38 19 14 11 50 22 84 26 38 4 73 16 96 31 36 25 55 29 68 17 4 -4 55 -8 114 -8 115 -2 175 -18 254 -70 l39 -26 107 17 c79 12 134 15 207 10 107 -8 124 1 28 14 -96 14 -134 27 -167 59 -18 17 -36 31 -42 31 -13 0 -68 58 -83 88 l-12 22 -552 0 -552 0 -34 -41z" id="136"/>
<path d="M5110 3235 c-31 -37 45 -163 136 -226 66 -45 135 -69 200 -69 54 0 56 1 50 23 -3 12 -6 34 -6 50 0 25 -3 27 -37 27 -58 0 -138 43 -201 107 -55 58 -110 103 -123 103 -3 0 -12 -7 -19 -15z" id="137"/>
<path d="M3641 3170 l-105 -27 -18 -53 c-30 -88 7 -101 128 -46 70 32 224 132 224 146 0 18 -123 8 -229 -20z" id="138"/>
<path d="M980 3156 c0 -34 -15 -71 -38 -94 -19 -19 -19 -20 17 -37 l36 -17 -38 -33 c-26 -22 -36 -38 -31 -47 4 -7 7 -26 6 -43 -2 -29 -1 -30 40 -30 42 0 43 -1 43 -32 0 -29 3 -33 27 -33 15 0 34 -9 45 -22 12 -16 29 -23 53 -24 19 0 41 -2 49 -5 30 -9 19 18 -14 35 -52 28 -123 108 -153 174 -22 48 -27 71 -27 145 0 48 -3 87 -7 87 -5 0 -8 -11 -8 -24z" id="139"/>
<path d="M4025 3168 c-11 -6 -75 -56 -142 -110 -131 -105 -144 -126 -102 -164 14 -13 40 -20 87 -22 l67 -4 43 51 c47 55 142 127 232 175 l58 31 -23 28 c-23 26 -28 27 -112 27 -48 0 -97 -6 -108 -12z" id="140"/>
<path d="M1907 3143 c-13 -12 -7 -40 13 -58 11 -10 20 -24 20 -32 0 -17 -41 -17 -66 2 -37 28 -47 19 -40 -34 3 -26 3 -59 -2 -71 -8 -21 -10 -20 -26 21 -31 77 -73 103 -96 59 -16 -30 -35 -24 -45 13 -8 24 -16 33 -36 35 -23 3 -29 -4 -56 -60 -40 -81 -53 -130 -53 -198 1 -93 44 -162 123 -195 139 -58 382 5 493 128 41 46 44 53 44 106 0 37 -7 68 -19 91 -11 19 -24 44 -29 56 -15 32 -77 81 -142 114 -62 31 -72 34 -83 23z" id="141"/>
<path d="M3300 3108 c-30 -5 -137 -9 -238 -10 -138 0 -180 -3 -173 -12 17 -21 187 -106 262 -131 91 -31 147 -32 178 -4 24 22 31 37 55 117 17 60 21 58 -84 40z" id="142"/>
<path d="M605 3075 c-101 -43 -155 -113 -170 -222 -13 -99 31 -231 102 -304 32 -33 109 -78 116 -68 2 2 18 28 36 57 30 47 86 101 240 230 28 24 51 47 51 52 0 5 -16 4 -36 -2 -20 -5 -39 -7 -42 -3 -3 3 -6 25 -7 47 l0 42 -62 -3 c-35 -1 -63 0 -63 4 0 3 24 17 53 30 28 13 65 33 82 44 33 23 38 20 -79 57 l-71 22 45 2 45 2 -31 13 c-17 8 -57 16 -90 19 -49 5 -69 2 -119 -19z" id="143"/>
<path d="M6885 3090 c-8 -13 -69 -39 -92 -39 -41 -1 -83 -14 -99 -32 -9 -10 -27 -19 -39 -19 -13 0 -28 -7 -35 -15 -7 -8 -23 -15 -36 -15 -13 0 -24 -4 -24 -9 0 -5 -29 -39 -64 -75 -86 -89 -128 -156 -130 -206 -1 -47 28 -90 70 -103 16 -6 40 -18 53 -28 26 -21 140 -27 185 -10 31 12 115 15 183 6 46 -7 57 -4 100 21 48 28 77 44 171 96 26 14 54 34 61 42 8 9 19 16 27 16 7 0 34 35 58 78 38 65 46 85 46 130 0 64 -21 90 -106 129 -64 29 -189 44 -242 29 -24 -7 -39 -6 -53 2 -23 15 -26 15 -34 2z m180 -90 c0 -18 -43 -26 -57 -12 -16 16 2 33 30 30 16 -2 27 -9 27 -18z m109 -114 c-10 -25 -69 -18 -69 9 0 12 9 21 25 26 30 7 53 -11 44 -35z m-23 -122 c27 -33 -16 -70 -72 -62 -30 4 -40 55 -15 73 19 14 71 8 87 -11z m-617 -17 c16 -26 -27 -62 -55 -46 -27 14 -34 36 -18 55 16 19 59 14 73 -9z m349 -14 c12 -11 -14 -33 -39 -33 -28 0 -31 15 -6 29 20 12 36 14 45 4z m-97 -46 c13 -13 -10 -41 -49 -60 -29 -15 -49 -17 -87 -12 l-50 7 0 40 0 40 89 -4 c49 -1 93 -7 97 -11z m239 -13 c14 -14 14 -19 2 -37 -20 -30 -94 -67 -132 -67 -18 0 -43 9 -56 19 -34 28 -17 50 62 77 78 27 103 29 124 8z" id="144"/>
<path d="M7077 2753 c-17 -17 -6 -34 20 -31 36 4 45 38 10 38 -13 0 -27 -3 -30 -7z" id="145"/>
<path d="M6480 2736 c0 -9 7 -16 16 -16 17 0 14 22 -4 28 -7 2 -12 -3 -12 -12z" id="146"/>
<path d="M6625 2670 c-12 -20 7 -30 54 -30 51 0 87 22 55 34 -25 10 -102 7 -109 -4z" id="147"/>
<path d="M6907 2642 c-72 -26 -75 -42 -8 -42 59 0 142 61 90 66 -8 1 -45 -10 -82 -24z" id="148"/>
<path d="M2524 3059 c-48 -51 -85 -73 -151 -89 l-62 -15 15 -32 c9 -17 22 -34 30 -37 20 -8 485 31 517 43 15 6 27 15 27 20 0 27 -138 101 -235 126 -86 22 -107 20 -141 -16z" id="149"/>
<path d="M4238 3046 c-177 -89 -288 -216 -288 -331 0 -52 27 -125 66 -182 110 -160 466 -304 852 -344 170 -17 510 -7 637 21 163 35 423 128 383 137 -9 2 -49 -10 -90 -27 -99 -42 -236 -77 -382 -96 -147 -20 -488 -14 -637 10 -388 63 -660 190 -757 356 -37 61 -38 153 -3 225 35 71 132 162 224 210 42 22 77 43 77 48 0 12 -13 8 -82 -27z" id="150"/>
<path d="M5760 3053 c-14 -10 -52 -40 -86 -69 -33 -28 -84 -64 -112 -79 -44 -24 -52 -33 -52 -57 0 -24 5 -30 30 -34 42 -9 48 -20 59 -109 l10 -80 -31 -26 -31 -26 254 -6 254 -5 22 26 c36 43 56 116 51 186 -11 132 -79 202 -265 272 -76 29 -72 28 -103 7z" id="151"/>
<path d="M4266 2998 c-151 -80 -236 -186 -236 -295 0 -69 23 -114 91 -179 127 -119 382 -215 699 -261 142 -20 476 -23 605 -5 114 16 229 44 324 79 89 31 87 32 -90 62 -261 45 -507 38 -639 -18 -93 -40 -164 -55 -256 -54 -95 1 -170 21 -267 69 -135 68 -200 157 -178 242 23 85 110 130 268 140 l83 5 0 31 c0 40 -7 49 -50 66 -71 27 -147 69 -208 114 -34 25 -63 46 -65 46 -1 0 -37 -19 -81 -42z" id="152"/>
<path d="M5994 3025 c11 -8 25 -15 30 -15 6 0 2 7 -8 15 -11 8 -25 15 -30 15 -6 0 -2 -7 8 -15z" id="153"/>
<path d="M7455 3016 c-5 -3 -27 -7 -47 -11 l-38 -6 2 -68 c1 -62 -3 -75 -37 -137 -21 -38 -47 -82 -58 -98 l-20 -29 34 6 c90 17 136 19 144 8 24 -40 -60 -121 -125 -121 -23 0 -43 7 -53 18 -20 22 -22 63 -5 80 19 19 -2 14 -41 -10 -37 -24 -59 -36 -131 -76 -46 -26 -48 -45 -4 -50 16 -2 35 -8 41 -14 7 -6 20 -7 29 -4 10 4 25 -1 36 -10 16 -15 25 -16 69 -6 68 16 115 15 142 -3 20 -13 28 -13 71 0 27 8 63 15 80 15 73 0 227 46 275 82 13 10 31 18 41 18 23 0 97 65 117 104 14 27 23 163 11 169 -2 1 -27 24 -55 51 -38 36 -61 50 -88 53 -21 2 -54 11 -74 20 -25 11 -76 17 -171 19 -74 2 -139 2 -145 0z m480 -196 c4 -13 0 -31 -9 -45 -13 -20 -25 -25 -56 -25 -35 0 -40 3 -40 23 0 39 27 67 65 67 25 0 35 -5 40 -20z m-340 -92 c16 -7 25 -19 25 -35 0 -21 -4 -23 -47 -22 -85 1 -97 16 -43 52 29 20 32 20 65 5z m-27 -130 c36 -36 -7 -88 -74 -88 l-45 0 3 37 c2 28 9 41 28 50 32 16 72 17 88 1z" id="154"/>
<path d="M7865 2798 c-14 -21 -14 -23 0 -26 26 -6 45 6 45 28 0 27 -25 26 -45 -2z" id="155"/>
<path d="M7540 2700 c0 -5 14 -10 31 -10 17 0 28 4 24 10 -3 6 -17 10 -31 10 -13 0 -24 -4 -24 -10z" id="156"/>
<path d="M7500 2577 c-35 -17 -39 -47 -7 -47 31 0 73 32 63 48 -9 15 -25 15 -56 -1z" id="157"/>
<path d="M6074 2964 c65 -61 90 -120 90 -209 0 -68 -6 -88 -62 -197 -2 -5 1 -8 6 -8 5 0 24 28 43 63 30 55 33 71 34 142 0 65 -5 88 -23 124 -25 45 -106 131 -125 131 -6 0 11 -21 37 -46z" id="158"/>
<path d="M2224 2943 c2 -10 8 -33 11 -51 6 -31 9 -33 38 -26 18 3 33 7 34 8 2 2 -5 21 -15 44 -14 35 -22 42 -45 42 -22 0 -27 -4 -23 -17z" id="159"/>
<path d="M2320 2843 c-51 -8 -77 -27 -155 -112 -44 -48 -95 -98 -112 -110 -21 -15 -33 -32 -33 -47 0 -19 21 -2 113 90 134 135 174 155 327 164 67 4 86 8 65 13 -33 7 -165 9 -205 2z" id="160"/>
<path d="M5372 2823 c-95 -30 -236 -46 -337 -38 -75 6 -255 38 -289 51 -12 5 -16 -1 -16 -25 0 -25 5 -32 28 -37 83 -19 114 -30 186 -66 l78 -41 113 6 c62 3 143 13 181 22 84 19 161 57 155 76 -2 8 -6 26 -9 42 -2 15 -7 29 -11 31 -3 1 -39 -8 -79 -21z" id="161"/>
<path d="M3743 2760 c-33 -20 -41 -38 -46 -100 l-2 -35 55 -3 c30 -2 78 -1 105 3 l50 6 -3 74 -4 75 -61 0 c-44 0 -71 -6 -94 -20z" id="162"/>
<path d="M5507 2745 c-19 -47 -228 -105 -380 -105 l-89 0 29 -34 c42 -52 84 -60 228 -47 101 10 130 17 185 44 36 18 65 38 64 45 -1 6 -2 35 -2 62 -2 35 -6 50 -16 50 -8 0 -16 -7 -19 -15z" id="163"/>
<path d="M935 2724 c-70 -47 -187 -158 -217 -203 -79 -125 5 -260 202 -325 102 -33 165 -41 234 -26 72 15 117 53 154 129 24 50 27 67 26 151 -1 101 -26 197 -66 253 -27 37 -43 23 -59 -51 l-13 -57 -10 54 c-14 68 -35 84 -69 53 -32 -30 -45 -28 -49 11 -3 30 -5 32 -48 35 -36 2 -54 -3 -85 -24z" id="164"/>
<path d="M2361 2729 c-90 -18 -121 -67 -58 -93 116 -49 489 -85 532 -53 19 15 17 17 -40 41 -64 28 -74 33 -146 78 -41 26 -57 30 -145 33 -54 2 -119 -1 -143 -6z" id="165"/>
<path d="M4560 2724 c-133 -21 -190 -56 -190 -118 0 -58 50 -110 162 -167 151 -77 313 -78 475 -4 83 38 180 48 385 42 242 -7 453 -47 648 -121 144 -55 327 -96 429 -96 84 0 143 47 109 87 -42 51 -307 132 -498 152 -189 20 -434 24 -676 11 -289 -15 -327 -10 -368 48 -84 120 -293 193 -476 166z" id="166"/>
<path d="M1321 2678 c33 -65 50 -163 48 -272 -2 -56 0 -107 4 -113 4 -7 27 -17 49 -24 153 -41 398 115 410 261 l3 31 -65 5 c-126 9 -191 38 -242 108 l-29 41 -99 0 -98 0 19 -37z" id="167"/>
<path d="M7328 2657 c-61 -11 -82 -33 -58 -62 22 -27 67 -18 110 21 62 56 57 60 -52 41z" id="168"/>
<path d="M1938 2553 c-6 -16 -16 -83 -24 -149 -7 -67 -16 -138 -19 -158 -6 -28 -4 -36 8 -36 11 0 21 33 41 138 40 211 42 232 22 232 -9 0 -21 -12 -28 -27z" id="169"/>
<path d="M2077 2556 c-6 -14 30 -25 228 -71 82 -19 284 -46 326 -43 19 1 133 -2 254 -6 235 -9 507 3 714 30 113 14 329 58 339 69 15 14 -15 12 -136 -10 -245 -46 -368 -57 -653 -62 -369 -7 -647 18 -960 87 -111 24 -105 24 -112 6z" id="170"/>
<path d="M1879 2530 c-9 -19 -22 -53 -29 -75 -7 -22 -21 -57 -31 -77 -12 -24 -19 -58 -19 -95 l1 -58 50 150 c27 83 48 159 46 170 -2 16 -6 13 -18 -15z" id="171"/>
<path d="M2015 2451 c-13 -26 -27 -65 -31 -86 l-7 -39 41 32 c22 18 55 39 74 46 32 14 76 52 67 59 -2 2 -30 10 -62 19 l-58 16 -24 -47z" id="172"/>
<path d="M2196 2433 c-25 -13 -27 -17 -13 -25 12 -6 25 -3 47 13 16 13 30 24 30 26 0 8 -38 0 -64 -14z" id="173"/>
<path d="M2166 2323 c63 -64 151 -193 189 -275 31 -69 31 -49 0 51 -28 86 -104 212 -156 255 -18 15 -43 26 -60 26 l-30 0 57 -57z" id="174"/>
<path d="M2015 2307 c-30 -29 -55 -61 -55 -70 0 -25 15 -21 35 11 10 15 36 43 57 64 23 21 35 39 29 42 -6 4 -35 -17 -66 -47z" id="175"/>
<path d="M1868 2325 c-10 -17 -38 -118 -34 -123 11 -10 25 12 36 58 11 47 10 85 -2 65z" id="176"/>
<path d="M1748 2306 c-12 -9 -18 -27 -18 -52 0 -41 13 -73 24 -56 7 11 21 122 15 122 -2 0 -12 -7 -21 -14z" id="177"/>
<path d="M2066 2289 c-14 -17 -26 -35 -26 -40 0 -21 53 21 74 59 15 25 -23 11 -48 -19z" id="178"/>
<path d="M2133 2279 c-9 -9 -3 -20 23 -44 39 -37 43 -66 13 -103 l-21 -27 36 -3 c20 -2 52 -2 71 0 l35 3 -37 56 c-44 65 -96 129 -103 129 -4 0 -11 -5 -17 -11z" id="179"/>
<path d="M1671 2256 c-8 -9 -8 -21 -1 -40 14 -37 30 -32 30 8 0 39 -12 52 -29 32z" id="180"/>
<path d="M1578 2225 c-53 -11 -67 -28 -27 -33 43 -5 87 11 80 28 -5 13 -14 14 -53 5z" id="181"/>
<path d="M2037 2205 c-22 -8 -89 -22 -150 -31 -124 -18 -337 -15 -395 6 -18 7 -40 9 -49 6 -58 -22 114 -56 285 -56 142 0 224 10 327 41 64 19 68 22 50 35 -22 16 -19 16 -68 -1z" id="182"/>
<path d="M2070 2139 c-119 -49 -436 -60 -589 -22 l-23 6 28 -48 c15 -26 35 -75 44 -109 17 -61 17 -61 71 -80 111 -38 314 -30 387 14 23 14 32 29 37 61 4 23 24 75 45 116 21 40 35 73 32 72 -4 0 -18 -5 -32 -10z" id="183"/>
<path d="M3366 2091 c-8 -12 57 -93 125 -157 56 -52 166 -130 173 -123 7 7 -211 267 -233 278 -24 13 -58 14 -65 2z" id="184"/>
<path d="M0 2005 l0 -55 740 0 740 0 -20 53 c-11 28 -20 53 -20 55 0 1 -324 2 -720 2 l-720 0 0 -55z" id="185"/>
<path d="M2104 2024 c-28 -66 -24 -69 119 -72 142 -3 139 -5 107 66 l-19 42 -96 0 -96 0 -15 -36z" id="186"/>
<path d="M2414 2008 c4 -29 8 -53 9 -54 1 -1 221 -4 489 -6 l487 -6 -46 59 -46 59 -450 0 -450 0 7 -52z" id="187"/>
<path d="M3587 2000 l48 -60 2433 0 2432 0 0 53 0 54 -1777 6 c-978 4 -2094 7 -2481 7 l-703 0 48 -60z" id="188"/>
<path d="M0 1393 l0 -518 656 3 c360 1 654 6 652 10 -51 98 -53 106 -52 212 0 127 18 190 135 485 43 111 79 206 79 211 0 5 -9 15 -20 22 -15 9 -20 23 -20 52 l0 40 -715 0 -715 0 0 -517z" id="189"/>
<path d="M2041 1896 c-7 -8 -33 -25 -59 -38 -43 -21 -60 -23 -197 -23 -134 0 -157 3 -210 23 -90 35 -95 36 -95 19 0 -15 23 -31 78 -56 44 -20 167 -33 257 -28 94 6 193 28 204 44 3 6 16 15 29 22 22 12 29 35 13 45 -5 3 -14 -1 -20 -8z" id="190"/>
<path d="M2125 1883 c-3 -15 -16 -38 -27 -50 l-20 -22 95 -238 c136 -336 164 -459 133 -566 -9 -31 -26 -72 -37 -92 l-21 -35 494 0 495 0 11 38 c25 82 126 166 216 178 44 6 48 9 67 55 25 57 97 127 165 162 161 81 442 110 588 61 50 -17 126 -81 126 -105 0 -11 19 -14 88 -14 82 0 94 -3 164 -38 42 -20 97 -58 123 -82 51 -50 104 -151 112 -215 l6 -40 688 0 688 0 -60 57 c-60 58 -79 96 -79 159 0 36 -22 41 -59 13 -19 -15 -27 -16 -45 -7 -23 13 -85 11 -101 -2 -15 -12 -92 -13 -145 -2 -25 6 -67 15 -95 20 -27 6 -63 15 -80 21 -16 5 -52 17 -80 25 -99 29 -145 55 -162 92 -9 19 -22 34 -28 34 -15 0 -75 74 -75 93 0 7 -7 22 -15 33 -19 25 -18 82 3 119 39 70 58 95 77 101 11 4 37 21 58 39 48 42 132 85 163 85 14 0 52 14 86 31 59 30 65 31 113 20 38 -9 60 -9 80 -1 42 16 238 3 300 -19 28 -10 90 -26 139 -35 49 -9 106 -26 127 -36 51 -27 106 -101 127 -172 l17 -58 75 7 c92 10 205 9 244 -2 17 -5 49 -3 81 5 64 15 132 2 182 -36 19 -14 45 -24 66 -24 35 0 136 -58 167 -94 8 -10 24 -22 37 -27 36 -14 58 -66 57 -139 -1 -94 -32 -162 -102 -227 -31 -29 -59 -53 -63 -53 -5 0 -11 -4 -14 -10 -4 -7 202 -10 609 -10 l616 0 0 510 0 510 -2412 2 c-1327 2 -2415 2 -2417 0 -3 -1 5 -12 16 -25 11 -12 28 -36 36 -53 9 -18 40 -58 69 -89 48 -53 50 -58 26 -52 -62 16 -258 121 -321 172 l-67 55 -505 0 -504 0 -3 -77 -3 -78 -21 75 -20 75 -121 3 -121 3 -7 -28z m1008 -209 c41 -21 85 -62 103 -96 62 -118 -76 -273 -275 -310 -170 -32 -369 76 -500 270 -24 35 -41 65 -39 68 2 2 36 -13 74 -34 68 -36 71 -37 181 -37 l112 0 53 57 c29 31 73 66 98 77 56 25 148 28 193 5z" id="191"/>
<path d="M2970 1624 c-19 -8 -86 -69 -150 -134 l-116 -119 51 -23 c67 -30 185 -36 253 -14 96 32 192 123 192 181 0 36 -39 85 -83 105 -50 23 -100 25 -147 4z" id="192"/>
<path d="M2607 1448 l32 -32 41 19 c77 35 72 45 -21 45 l-84 0 32 -32z" id="193"/>
<path d="M2000 1775 c0 -19 137 -540 151 -577 6 -15 32 -48 57 -74 l47 -47 3 32 c5 54 -43 218 -118 402 -39 96 -81 198 -92 227 -19 49 -48 71 -48 37z" id="194"/>
<path d="M1561 1743 c-6 -21 -35 -136 -65 -255 -58 -230 -93 -316 -163 -397 l-35 -41 16 -48 c9 -26 41 -79 71 -117 30 -39 76 -98 102 -133 46 -59 52 -64 128 -88 110 -36 240 -38 342 -6 58 18 76 28 87 50 8 16 47 66 85 113 39 46 85 112 103 147 l31 63 -57 51 c-31 27 -66 68 -77 90 -11 21 -53 165 -94 320 -41 154 -76 283 -79 286 -15 14 -2 -57 46 -262 43 -187 51 -237 52 -326 1 -155 -30 -240 -89 -240 -30 0 -85 65 -121 145 -29 63 -37 136 -52 484 -4 114 -11 176 -18 178 -8 3 -10 -33 -7 -129 3 -73 0 -212 -6 -309 -15 -238 -41 -320 -119 -371 -36 -24 -36 -24 -81 18 -95 85 -99 203 -22 549 28 126 51 237 51 247 0 32 -19 19 -29 -19z" id="195"/>
<path d="M1625 1745 c-3 -11 -26 -114 -51 -230 -59 -263 -68 -384 -34 -463 12 -28 33 -58 47 -67 22 -15 27 -15 48 -1 14 9 32 31 42 49 37 71 44 136 50 433 l6 292 -52 3 c-45 4 -52 1 -56 -16z" id="196"/>
<path d="M1862 1762 l-42 -3 5 -117 c4 -64 10 -196 15 -292 5 -115 14 -190 24 -220 17 -47 82 -141 103 -147 18 -6 40 45 54 121 14 81 6 140 -51 391 -21 94 -42 188 -46 210 -9 56 -14 60 -62 57z" id="197"/>
<path d="M5633 1729 c-32 -15 -78 -33 -103 -40 -47 -13 -99 -44 -113 -66 -4 -7 -20 -19 -36 -27 -15 -8 -40 -33 -55 -55 -24 -34 -27 -46 -21 -78 10 -58 35 -104 62 -114 13 -5 31 -24 40 -44 21 -45 86 -76 243 -117 152 -40 248 -50 274 -29 18 14 114 23 121 11 4 -6 15 -4 30 6 13 9 28 13 33 10 6 -3 15 1 22 9 7 9 20 15 29 14 56 -5 82 3 108 31 15 17 45 40 68 50 103 51 144 105 145 193 0 114 -72 194 -200 218 -126 23 -147 28 -183 43 -30 13 -71 16 -222 14 -176 -3 -187 -4 -242 -29z m-48 -90 c13 -21 -5 -59 -32 -65 -45 -12 -80 28 -53 61 14 17 76 20 85 4z m175 -14 c0 -16 -45 -21 -54 -6 -8 12 4 21 31 21 14 0 23 -6 23 -15z m-238 -121 c23 -49 -30 -104 -87 -90 -36 9 -65 41 -65 71 0 21 8 29 43 44 50 22 92 12 109 -25z m877 6 c29 -15 32 -36 10 -64 -16 -20 -29 -26 -60 -26 -41 0 -49 9 -24 30 8 7 15 17 15 23 0 10 29 47 37 47 2 0 12 -4 22 -10z m-338 -26 c29 -35 -45 -78 -126 -72 -35 3 -40 6 -43 29 -5 42 7 47 134 57 12 1 27 -5 35 -14z m104 -135 c0 -15 -7 -25 -18 -27 -22 -4 -33 24 -17 43 18 21 35 13 35 -16z m-436 -39 l34 -29 -27 -7 c-40 -10 -116 1 -134 20 -14 14 -13 17 19 30 49 22 70 19 108 -14z m298 6 c25 -21 26 -26 15 -50 -21 -46 -122 -73 -172 -46 -27 14 -42 47 -35 71 16 50 144 66 192 25z" id="198"/>
<path d="M5522 1623 c-17 -7 -5 -23 19 -23 10 0 19 7 19 15 0 15 -14 18 -38 8z" id="199"/>
<path d="M5424 1510 c-33 -13 -38 -29 -18 -51 36 -40 115 -5 88 39 -13 20 -40 25 -70 12z" id="200"/>
<path d="M6370 1469 c0 -24 23 -21 28 4 2 10 -3 17 -12 17 -10 0 -16 -9 -16 -21z" id="201"/>
<path d="M5917 1458 c-9 -6 -9 -10 0 -19 10 -10 24 -10 68 0 30 7 55 16 55 21 0 10 -106 9 -123 -2z" id="202"/>
<path d="M5650 1300 c20 -13 53 -13 45 0 -3 6 -18 10 -33 10 -21 0 -24 -2 -12 -10z" id="203"/>
<path d="M5910 1312 c-14 -2 -31 -9 -37 -14 -16 -13 -17 -44 -2 -54 17 -10 107 -6 129 6 22 12 27 48 8 54 -27 9 -74 12 -98 8z" id="204"/>
<path d="M1486 1678 c-121 -304 -167 -440 -181 -533 l-6 -40 25 30 c51 59 86 153 142 374 30 122 54 226 52 231 -2 6 -16 -23 -32 -62z" id="205"/>
<path d="M6584 1438 c-49 -10 -51 -11 -78 -72 -24 -56 -25 -62 -10 -71 79 -47 93 -87 43 -129 -44 -37 -101 -36 -140 3 -16 16 -29 39 -29 50 0 18 -3 19 -26 11 -15 -6 -35 -22 -46 -36 -11 -13 -37 -33 -57 -42 -31 -15 -36 -22 -39 -56 -4 -47 14 -93 39 -101 10 -3 21 -15 24 -26 8 -23 59 -52 98 -55 16 -1 41 -13 56 -28 23 -22 36 -26 89 -26 43 0 75 -6 102 -20 44 -22 90 -26 108 -8 8 8 15 8 26 -2 9 -7 23 -9 33 -5 10 4 53 9 96 11 43 2 99 11 125 20 26 8 71 18 100 21 28 3 52 10 52 14 0 5 7 9 17 9 54 0 190 120 218 192 22 60 17 157 -10 173 -10 5 -41 29 -69 53 -63 53 -100 72 -140 72 -18 0 -50 13 -76 31 -43 29 -48 31 -110 24 -36 -4 -78 -7 -95 -6 -16 0 -79 3 -140 5 -60 2 -133 0 -161 -6z m94 -95 c4 -25 -31 -53 -67 -53 -14 0 -35 10 -48 22 -22 20 -22 22 -6 40 13 15 28 18 67 16 43 -3 51 -6 54 -25z m-244 -258 c15 -14 32 -25 38 -25 18 0 58 -42 58 -60 0 -42 -53 -51 -149 -26 -64 18 -91 40 -91 77 0 59 93 81 144 34z m197 4 c102 -40 131 -78 92 -121 -31 -34 -77 -24 -135 32 -29 28 -56 50 -60 50 -15 0 -8 39 10 49 24 15 35 14 93 -10z m253 -5 c10 -4 16 -18 16 -35 0 -27 -3 -29 -39 -29 -54 0 -71 8 -71 35 0 23 5 26 67 34 6 0 18 -2 27 -5z m109 -149 c-2 -5 -15 -14 -29 -19 -28 -9 -51 4 -39 24 8 14 71 9 68 -5z" id="206"/>
<path d="M6584 1339 c-3 -6 -1 -16 4 -21 13 -13 75 9 66 23 -7 13 -61 11 -70 -2z" id="207"/>
<path d="M6333 1080 c-13 -5 -23 -16 -23 -24 0 -34 45 -56 148 -72 38 -6 42 -5 42 14 0 23 -27 42 -59 42 -12 0 -21 5 -21 11 0 15 -31 38 -50 38 -8 0 -25 -4 -37 -9z" id="208"/>
<path d="M6560 1060 c6 -11 22 -23 35 -26 14 -3 25 -12 25 -20 0 -14 38 -44 57 -44 6 0 19 7 28 16 12 13 13 19 3 31 -18 22 -104 63 -133 63 -23 0 -24 -2 -15 -20z" id="209"/>
<path d="M6837 1062 c-9 -2 -15 -8 -12 -13 8 -12 55 -12 55 0 0 12 -21 18 -43 13z" id="210"/>
<path d="M3900 1324 c-147 -31 -250 -88 -302 -165 -40 -60 -37 -73 21 -88 59 -15 129 -57 193 -117 26 -24 56 -44 67 -44 27 0 61 46 62 84 1 17 4 42 8 56 6 21 10 16 30 -40 13 -36 25 -66 26 -68 1 -1 14 3 29 9 18 9 32 28 44 61 9 26 20 48 24 48 5 0 8 -29 8 -65 0 -41 4 -65 11 -65 13 0 81 66 97 95 8 15 14 17 23 8 9 -9 7 -22 -6 -57 -10 -26 -15 -49 -12 -52 9 -9 93 124 115 182 11 27 20 72 21 101 1 48 -2 54 -35 82 -20 16 -56 34 -80 40 -59 15 -265 12 -344 -5z" id="211"/>
<path d="M6410 1271 c-14 -27 -13 -64 4 -86 21 -29 92 -27 117 3 24 30 16 47 -36 77 -50 30 -71 31 -85 6z" id="212"/>
<path d="M4453 1200 c-40 -9 -63 -27 -63 -49 0 -24 -56 -138 -101 -203 -21 -32 -39 -60 -39 -63 0 -2 26 -2 58 1 31 3 68 1 82 -4 24 -9 23 -10 -15 -17 -46 -9 -115 -41 -115 -54 0 -5 25 -15 56 -21 43 -9 54 -15 52 -28 -2 -12 -15 -18 -43 -20 -88 -7 -53 -31 75 -52 80 -12 171 -13 202 -1 13 5 50 16 82 26 74 21 149 91 160 147 8 44 -21 134 -62 193 -68 98 -229 168 -329 145z" id="213"/>
<path d="M3433 1034 c-135 -49 -189 -216 -120 -368 l26 -56 56 39 c40 28 95 52 188 81 173 54 187 60 187 75 0 7 -15 16 -32 21 -18 6 -34 17 -36 27 -3 14 4 17 42 17 38 0 46 3 46 18 0 10 -5 23 -11 29 -6 6 -17 22 -23 35 -6 13 -41 38 -77 56 -79 41 -177 51 -246 26z" id="214"/>
<path d="M3957 926 c-9 -24 -50 -45 -90 -48 -28 -2 -37 -7 -37 -20 0 -10 -7 -18 -16 -18 -10 0 -13 -6 -9 -19 3 -12 -3 -29 -19 -48 -24 -29 -24 -29 -4 -42 15 -9 19 -20 16 -41 l-4 -29 48 6 c37 4 49 2 53 -10 4 -9 14 -13 25 -10 11 3 35 -4 53 -15 31 -18 35 -18 44 -3 10 14 13 14 36 -7 l25 -24 7 51 c7 53 17 61 46 36 15 -15 17 -14 23 10 5 18 13 25 31 25 18 0 23 4 18 16 -4 10 1 17 16 21 24 6 29 23 7 23 -23 0 -30 20 -13 38 15 14 14 17 -6 27 -18 8 -21 18 -19 48 l4 37 -34 -19 c-18 -10 -43 -22 -55 -26 -20 -5 -23 -3 -23 20 0 22 -3 26 -17 20 -40 -17 -76 -18 -88 -1 -11 14 -13 14 -18 2z m113 -79 c59 -30 59 -102 0 -132 -47 -24 -133 -25 -159 -1 -41 37 -19 112 39 135 35 14 91 13 120 -2z" id="215"/>
<path d="M3940 800 c-38 -38 -18 -70 45 -70 71 0 115 39 85 75 -19 23 -105 20 -130 -5z" id="216"/>
<path d="M0 790 l0 -60 715 0 c393 0 715 3 715 6 0 4 -21 31 -46 60 l-46 54 -669 0 -669 0 0 -60z" id="217"/>
<path d="M2184 803 c-22 -27 -44 -54 -48 -60 -6 -10 106 -13 543 -13 l551 0 -3 58 -2 57 -500 3 -500 2 -41 -47z" id="218"/>
<path d="M4889 823 c-6 -16 -22 -43 -35 -60 l-25 -33 1836 -2 1835 -3 0 63 0 62 -649 0 c-423 0 -652 -3 -656 -10 -3 -5 -23 -10 -43 -10 -21 0 -62 -7 -92 -15 -78 -22 -147 -33 -284 -45 -116 -10 -119 -10 -173 15 -40 18 -73 25 -117 25 -45 0 -67 6 -86 20 -24 19 -46 20 -763 20 l-737 0 -11 -27z" id="219"/>
<path d="M3602 700 c-150 -40 -220 -84 -240 -152 -18 -60 -8 -89 50 -154 89 -97 255 -157 367 -133 67 14 105 47 129 112 22 59 39 237 23 237 -15 0 -38 -40 -46 -80 -7 -30 -9 -32 -16 -15 -4 11 -8 42 -8 69 l-1 49 -34 -6 c-18 -3 -67 -28 -109 -56 -41 -28 -79 -51 -83 -51 -5 0 17 26 48 58 31 31 63 71 72 89 15 31 15 33 -3 43 -28 14 -65 12 -149 -10z" id="220"/>
<path d="M0 350 l0 -350 4250 0 4250 0 0 350 0 350 -1862 -2 -1863 -3 -57 -25 c-42 -18 -56 -29 -52 -40 4 -8 9 -36 11 -61 11 -104 -81 -219 -238 -297 -199 -98 -396 -95 -469 8 l-23 33 -20 -27 c-72 -100 -251 -113 -416 -30 -137 68 -215 166 -210 262 2 36 -5 62 -30 114 l-33 68 -563 0 -562 0 1 -40 c0 -30 -6 -46 -28 -69 -95 -100 -478 -101 -597 -2 -25 22 -32 35 -33 66 l-1 40 -727 3 -728 2 0 -350z" id="221"/>
<path d="M4193 675 c-3 -10 -1 -31 5 -47 16 -42 -11 -49 -50 -12 l-30 29 5 -55 c3 -30 9 -66 12 -80 6 -20 -3 -15 -49 30 -31 30 -56 50 -56 45 -1 -25 -18 -37 -37 -26 -19 10 -21 6 -26 -47 -8 -74 22 -182 59 -211 14 -11 49 -23 79 -26 69 -9 117 13 163 75 48 64 78 79 171 90 156 18 211 76 169 183 -10 27 -11 27 -102 27 -50 0 -122 8 -161 16 -116 27 -144 29 -152 9z" id="222"/>
<path d="M1510 650 c0 -18 63 -49 132 -65 159 -36 404 -2 416 57 3 13 -9 11 -65 -10 -60 -23 -83 -26 -193 -26 -111 0 -134 3 -203 27 -88 31 -87 31 -87 17z" id="223"/>
<path d="M4455 409 c-90 -12 -121 -25 -147 -63 -12 -17 -33 -43 -46 -58 -32 -35 -22 -35 79 2 84 30 162 75 194 110 20 23 26 22 -80 9z" id="224"/>
</g>
</svg>