<?xml version="1.0" ?><!DOCTYPE svg  PUBLIC '-//W3C//DTD SVG 20010904//EN'  'http://www.w3.org/TR/2001/REC-SVG-20010904/DTD/svg10.dtd'><svg height="850.000000pt" preserveAspectRatio="xMidYMid meet" version="1.0" viewBox="0 0 850.000000 850.000000" width="850.000000pt" xmlns="http://www.w3.org/2000/svg">
<metadata>
Created by potrace 1.14, written by Peter Selinger 2001-2017
</metadata>
<g fill="#ffffff" stroke="none" transform="translate(0.000000,850.000000) scale(0.100000,-0.100000)">
<path d="M0 7808 c0 -380 3 -689 6 -686 3 3 53 -7 112 -22 320 -84 558 -220 755 -430 79 -84 163 -204 303 -435 91 -151 181 -251 291 -324 42 -28 78 -49 80 -47 2 2 -6 46 -18 97 -31 136 -35 274 -14 479 11 110 15 206 11 260 -6 95 -11 94 56 7 34 -44 133 -94 211 -105 67 -11 67 -11 33 79 l-24 64 57 124 58 125 104 38 c57 22 134 50 172 64 l67 26 0 40 c0 102 46 210 170 403 85 132 111 180 130 240 18 58 25 61 49 22 24 -39 120 -132 234 -225 l77 -63 0 29 c0 52 -29 195 -53 267 -40 116 -91 205 -173 300 -73 85 -123 169 -109 183 3 3 20 0 38 -7 18 -7 91 -33 164 -56 240 -79 343 -147 403 -269 53 -108 52 -227 -6 -430 -14 -48 -23 -91 -20 -93 3 -3 161 53 351 123 l347 129 -7 40 c-4 22 -7 45 -8 52 0 7 33 82 74 168 l74 155 105 44 105 44 129 -14 c71 -8 131 -16 133 -18 2 -2 78 -93 169 -202 l165 -199 -5 -59 c-3 -32 -6 -90 -6 -127 l0 -68 -86 -98 c-47 -54 -93 -101 -102 -104 -10 -3 -65 -14 -123 -24 l-107 -18 -6 -56 c-3 -31 -10 -119 -16 -196 -11 -138 -11 -141 -57 -233 -26 -51 -52 -97 -57 -101 -6 -5 -85 -40 -176 -79 l-165 -69 -5 -39 c-3 -22 -9 -45 -13 -51 -6 -9 -2 -13 11 -13 13 0 26 -13 36 -34 21 -44 20 -54 -5 -95 -20 -33 -20 -35 -3 -48 26 -19 27 -18 48 34 28 67 107 182 169 245 129 131 267 214 504 302 58 22 85 40 140 94 117 114 211 276 254 437 31 116 31 299 0 460 -45 236 -18 390 103 573 l54 82 -1468 0 -1467 0 -67 -116 c-36 -63 -98 -163 -136 -223 l-69 -107 -223 -101 -223 -100 -110 -7 -110 -6 -334 127 -334 128 -126 136 c-111 120 -129 143 -150 202 l-23 67 -174 0 -174 0 0 -692z m3484 -53 c54 -50 16 -135 -62 -135 -48 0 -82 32 -82 79 0 75 86 109 144 56z m-1316 -71 c31 -22 30 -69 -3 -90 -23 -15 -27 -15 -50 0 -33 21 -34 68 -3 90 12 9 25 16 28 16 3 0 16 -7 28 -16z m-1055 -312 c24 -21 23 -84 -3 -107 -48 -43 -120 -10 -120 55 0 69 69 99 123 52z m3597 -212 c0 -15 -7 -20 -29 -20 -17 0 -33 5 -36 10 -11 17 5 30 36 30 22 0 29 -5 29 -20z m-3046 -116 c9 -8 16 -19 16 -24 0 -11 -29 -40 -40 -40 -11 0 -40 29 -40 40 0 11 29 40 40 40 5 0 16 -7 24 -16z m-189 -584 c0 -33 -2 -35 -35 -35 -29 0 -36 4 -38 23 -6 40 5 54 40 50 30 -3 33 -6 33 -38z" id="1"/>
<path d="M416 8478 c19 -61 42 -93 144 -206 99 -109 115 -122 139 -118 14 3 69 8 123 12 l96 6 69 77 c115 130 106 107 81 184 l-22 67 -319 0 -318 0 7 -22z" id="2"/>
<path d="M1094 8478 c3 -13 6 -29 6 -35 0 -24 18 -13 29 18 14 41 15 39 -15 39 -22 0 -25 -3 -20 -22z" id="3"/>
<path d="M1156 8430 l-26 -70 96 -137 c53 -76 98 -139 99 -141 2 -2 89 36 194 84 190 86 191 87 191 119 0 17 3 73 6 123 l7 92 -270 0 -271 0 -26 -70z" id="4"/>
<path d="M1756 8423 c-4 -43 -8 -100 -10 -126 l-3 -48 103 -69 102 -69 70 107 c73 114 162 265 162 275 0 4 -94 7 -209 7 l-209 0 -6 -77z" id="5"/>
<path d="M5172 8407 c-90 -138 -132 -258 -132 -376 0 -46 12 -30 34 44 37 120 121 264 216 368 l52 57 -55 0 -55 0 -60 -93z" id="6"/>
<path d="M5376 8478 c-29 -40 -22 -156 28 -468 l23 -145 97 147 97 147 9 88 c9 81 7 133 -6 221 l-5 32 -114 0 c-106 0 -115 -1 -129 -22z" id="7"/>
<path d="M5654 8463 c3 -21 6 -83 6 -138 0 -94 1 -98 16 -77 18 26 124 236 124 246 0 3 -34 6 -76 6 l-77 0 7 -37z" id="8"/>
<path d="M5816 8438 c-43 -99 -129 -247 -259 -442 -203 -305 -254 -394 -334 -586 -69 -165 -147 -288 -259 -409 -31 -33 -51 -61 -44 -61 17 0 270 84 390 129 57 22 106 38 109 36 7 -8 -30 -226 -55 -325 -14 -52 -47 -142 -75 -199 -27 -57 -48 -105 -47 -105 2 -1 20 -9 40 -18 51 -24 115 -84 139 -130 11 -22 101 -258 201 -526 99 -268 182 -489 184 -491 2 -2 10 14 19 36 9 22 24 55 34 73 16 31 16 34 -6 79 -46 97 -74 220 -80 347 -9 186 24 356 102 538 l34 78 -43 62 c-95 133 -174 326 -216 521 -34 159 -41 615 -9 615 5 0 9 -6 9 -14 0 -7 18 -50 40 -94 51 -101 128 -175 277 -265 59 -37 128 -80 153 -96 l44 -30 35 67 c51 97 156 199 251 245 41 19 103 41 137 47 99 20 313 -1 313 -29 0 -5 -30 -26 -67 -47 -87 -51 -217 -174 -282 -269 -64 -92 -116 -203 -140 -297 -16 -64 -17 -76 -4 -137 19 -88 12 -244 -16 -331 -11 -36 -21 -68 -21 -71 0 -3 26 -22 58 -42 62 -38 162 -137 207 -205 25 -38 29 -41 40 -25 6 10 44 71 84 136 40 64 77 117 82 117 5 0 57 -36 116 -80 60 -44 111 -80 116 -80 4 0 7 22 7 48 0 58 23 149 55 219 60 133 157 244 365 421 74 63 176 156 227 205 l91 90 17 -39 c278 -655 300 -719 299 -904 0 -110 -3 -135 -28 -205 -37 -109 -95 -203 -177 -290 -74 -77 -139 -117 -282 -174 -143 -57 -212 -103 -241 -160 -13 -26 -6 -77 54 -367 l11 -51 82 22 c45 12 99 25 119 29 l37 7 -16 -38 c-11 -27 -18 -92 -24 -223 -4 -102 -13 -210 -19 -240 -41 -214 -155 -369 -362 -491 l-88 -52 54 -22 c69 -28 109 -53 231 -144 55 -40 121 -85 147 -100 26 -14 48 -29 48 -32 0 -3 -17 -11 -38 -17 -34 -10 -152 -101 -160 -123 -2 -5 24 -9 58 -9 53 0 112 -18 460 -142 l399 -143 37 -65 c21 -36 44 -74 51 -85 11 -16 13 370 13 2251 l0 2270 -507 107 c-280 59 -511 107 -514 107 -3 0 -100 153 -215 339 l-209 340 -606 0 -606 1 -27 -62z m1162 -1417 c18 -52 -24 -92 -82 -77 -30 7 -47 52 -33 83 22 49 97 45 115 -6z m1375 -6 c7 -16 -8 -29 -23 -20 -10 6 -2 35 10 35 4 0 10 -7 13 -15z m-2633 -375 c0 -13 -7 -20 -20 -20 -13 0 -20 7 -20 20 0 13 7 20 20 20 13 0 20 -7 20 -20z m-190 -61 c0 -61 -44 -98 -95 -79 -56 21 -51 100 7 125 46 19 88 -3 88 -46z m1074 45 c9 -8 16 -19 16 -24 0 -5 -7 -16 -16 -24 -8 -9 -19 -16 -24 -16 -5 0 -16 7 -24 16 -9 8 -16 19 -16 24 0 5 7 16 16 24 8 9 19 16 24 16 5 0 16 -7 24 -16z m1016 -1464 c11 -11 20 -29 20 -40 0 -26 -34 -60 -60 -60 -26 0 -60 34 -60 60 0 11 9 29 20 40 11 11 29 20 40 20 11 0 29 -9 40 -20z m406 -116 c30 -29 27 -67 -8 -96 -23 -21 -78 -24 -96 -6 -21 21 -14 77 13 103 31 32 59 32 91 -1z m-184 -583 c28 -25 33 -36 33 -76 0 -40 -5 -51 -33 -76 -84 -75 -212 10 -169 114 31 72 111 90 169 38z m456 13 c12 -8 22 -24 22 -34 0 -20 -35 -50 -59 -50 -20 0 -51 30 -51 48 0 21 30 52 49 52 9 0 27 -7 39 -16z m-613 -494 c0 -18 -6 -26 -23 -28 -13 -2 -25 3 -28 12 -10 26 4 48 28 44 17 -2 23 -10 23 -28z" id="9"/>
<path d="M7132 8478 c8 -13 93 -149 188 -303 95 -154 176 -284 180 -288 4 -5 101 45 216 111 l209 119 -2 99 c-1 54 -5 141 -9 192 l-6 92 -395 0 -395 0 14 -22z" id="10"/>
<path d="M7950 8458 c1 -62 18 -330 22 -334 5 -5 509 -164 519 -164 5 0 9 122 9 270 l0 270 -275 0 -275 0 0 -42z" id="11"/>
<path d="M5261 8350 c-35 -47 -78 -114 -95 -150 -28 -59 -31 -74 -31 -165 1 -85 6 -120 38 -232 21 -73 40 -162 44 -198 3 -36 10 -65 14 -65 5 0 22 27 39 60 16 32 53 98 81 145 58 99 57 66 14 345 -14 85 -28 198 -32 250 l-8 95 -64 -85z" id="12"/>
<path d="M1038 8250 c-35 -39 -64 -75 -66 -79 -3 -8 287 -85 294 -79 4 5 -150 227 -158 228 -4 0 -35 -32 -70 -70z" id="13"/>
<path d="M2668 8224 c18 -22 43 -52 56 -68 l24 -29 15 24 c31 48 26 60 -28 79 -108 37 -103 37 -67 -6z" id="14"/>
<path d="M1542 8136 c-100 -44 -182 -83 -182 -86 0 -3 36 -36 80 -74 l81 -68 194 88 c107 48 195 90 195 93 0 3 -42 34 -93 67 l-93 62 -182 -82z" id="15"/>
<path d="M2793 8153 l-22 -47 37 -57 c20 -32 42 -65 47 -74 12 -19 76 -34 153 -35 61 0 104 -16 151 -55 l33 -29 -7 35 c-12 62 -55 138 -103 180 -49 44 -185 115 -237 124 -28 5 -32 2 -52 -42z" id="16"/>
<path d="M4116 8120 c-38 -16 -70 -31 -72 -33 -4 -4 15 -118 22 -129 5 -8 245 96 245 107 0 8 -106 85 -118 85 -4 0 -39 -14 -77 -30z" id="17"/>
<path d="M4306 8120 c48 -36 57 -37 77 -6 16 23 16 23 -30 30 -86 11 -91 9 -47 -24z" id="18"/>
<path d="M843 8130 c-40 -3 -75 -8 -78 -11 -3 -4 394 -161 518 -205 16 -6 18 0 15 61 l-3 68 -190 49 c-104 26 -190 47 -190 46 0 0 -33 -4 -72 -8z" id="19"/>
<path d="M4412 8090 l-22 -29 128 -141 c119 -132 129 -141 156 -136 39 8 42 13 24 33 -8 10 -68 82 -132 161 -65 78 -121 142 -125 142 -4 0 -17 -13 -29 -30z" id="20"/>
<path d="M7752 7977 c-107 -61 -188 -113 -180 -116 7 -2 219 -48 471 -101 l457 -96 0 126 0 126 -274 87 c-150 48 -275 87 -277 86 -2 -1 -91 -51 -197 -112z" id="21"/>
<path d="M4215 7976 l-140 -62 -5 -89 -5 -89 91 -42 c73 -34 94 -49 103 -73 12 -27 21 -31 98 -49 l86 -20 26 31 c84 99 141 172 139 178 -3 8 -249 279 -251 278 -1 0 -65 -29 -142 -63z" id="22"/>
<path d="M3971 7949 c-18 -39 -30 -73 -28 -75 2 -3 49 25 85 51 5 4 -11 95 -18 95 -4 0 -22 -32 -39 -71z" id="23"/>
<path d="M5086 7983 c-9 -59 -9 -127 -1 -263 20 -325 -58 -560 -257 -776 -74 -80 -21 -46 74 49 111 108 248 307 275 396 28 91 22 223 -16 361 -18 63 -38 148 -45 188 -8 40 -16 76 -19 78 -3 3 -8 -12 -11 -33z" id="24"/>
<path d="M1340 7994 c0 -10 -3 -36 -6 -56 l-7 -38 60 0 c33 0 62 3 65 6 5 5 -29 38 -94 93 -16 13 -18 12 -18 -5z" id="25"/>
<path d="M2896 7865 c12 -34 28 -90 35 -126 12 -60 17 -68 79 -129 37 -36 76 -83 87 -104 l20 -39 22 64 c27 82 51 193 51 241 0 30 -8 47 -36 78 -43 47 -100 67 -210 72 l-71 4 23 -61z" id="26"/>
<path d="M3963 7841 c-58 -37 -61 -41 -54 -68 6 -20 13 -27 27 -25 10 2 36 4 56 5 l38 2 0 63 c0 34 -1 62 -2 62 -2 0 -31 -18 -65 -39z" id="27"/>
<path d="M2562 7717 c-18 -38 -31 -71 -30 -72 2 -2 32 -17 68 -35 36 -18 80 -43 98 -57 18 -14 35 -23 37 -21 4 4 -121 236 -134 249 -3 4 -21 -25 -39 -64z" id="28"/>
<path d="M4703 7752 c-18 -2 -33 -9 -32 -15 0 -7 13 -43 28 -82 l29 -70 7 77 c4 42 6 80 4 85 -2 4 -19 7 -36 5z" id="29"/>
<path d="M4562 7637 l-71 -85 37 -6 c54 -9 172 -7 172 2 0 5 -15 45 -33 91 l-34 82 -71 -84z" id="30"/>
<path d="M3930 7680 c-25 -10 -452 -169 -950 -354 -498 -184 -931 -344 -963 -356 l-59 -22 -44 -95 c-24 -53 -44 -103 -44 -112 0 -9 12 -49 26 -88 26 -71 28 -73 68 -83 104 -25 265 -73 347 -104 l89 -33 907 339 c500 187 913 345 919 351 7 7 29 52 49 100 l38 88 -48 132 c-26 73 -52 140 -57 150 -10 19 -191 108 -217 106 -9 0 -36 -9 -61 -19z m111 -98 c47 -20 47 -21 93 -140 l47 -120 -32 -65 -32 -64 -910 -332 c-672 -246 -917 -331 -936 -326 -14 3 -49 12 -77 20 l-51 15 -42 118 -42 119 37 69 c21 38 39 71 40 73 2 2 410 152 906 332 556 202 913 327 928 324 14 -2 46 -12 71 -23z" id="31"/>
<path d="M3055 7246 l-890 -323 -33 -62 -33 -62 38 -102 38 -102 60 -14 61 -14 869 318 c479 175 883 322 898 327 19 7 36 27 53 60 l25 50 -41 107 -41 108 -47 16 c-26 10 -51 17 -57 16 -5 0 -410 -146 -900 -323z m959 183 c42 -50 29 -116 -28 -142 -30 -14 -1618 -588 -1662 -601 -48 -14 -107 35 -106 90 0 32 20 71 41 80 9 4 385 141 836 305 485 176 835 298 857 298 29 1 42 -5 62 -30z" id="32"/>
<path d="M3930 7423 c-8 -3 -382 -138 -830 -300 -448 -162 -823 -302 -834 -313 -24 -24 -15 -67 19 -82 21 -9 129 27 847 286 453 164 833 304 846 312 30 19 30 67 0 88 -24 17 -25 17 -48 9z" id="33"/>
<path d="M2730 7636 c0 -2 16 -37 35 -77 19 -41 43 -107 53 -148 l18 -75 21 35 c12 19 27 54 33 79 l12 45 -77 73 c-69 63 -95 82 -95 68z" id="34"/>
<path d="M2455 7533 c-31 -47 -70 -110 -87 -139 l-30 -54 22 -30 c27 -38 108 -100 129 -99 9 0 79 23 156 52 104 39 141 57 143 71 8 38 -10 107 -34 136 -31 36 -144 111 -201 133 l-42 16 -56 -86z" id="35"/>
<path d="M2958 7553 c7 -90 42 -146 87 -138 39 7 49 18 41 48 -8 33 -62 103 -102 134 l-32 24 6 -68z" id="36"/>
<path d="M4290 7544 c0 -13 65 -184 70 -184 5 0 60 141 60 153 0 6 -31 15 -102 31 -16 4 -28 3 -28 0z" id="37"/>
<path d="M4500 7503 c1 -5 21 -30 46 -58 l45 -50 46 50 46 50 -54 7 c-77 9 -129 9 -129 1z" id="38"/>
<path d="M5654 7463 c-9 -60 10 -302 32 -413 17 -86 34 -126 34 -79 0 43 41 190 76 274 l34 80 -53 50 c-30 28 -66 69 -82 93 -15 23 -29 42 -31 42 -1 0 -6 -21 -10 -47z" id="39"/>
<path d="M6613 7489 c-66 -11 -154 -44 -187 -70 -20 -16 -26 -29 -26 -59 0 -75 46 -230 68 -230 4 0 26 28 49 63 23 34 72 94 110 132 51 51 74 83 86 119 10 27 17 51 17 53 0 5 -62 1 -117 -8z" id="40"/>
<path d="M4427 7425 c-14 -38 -26 -70 -24 -71 5 -5 147 20 147 25 0 3 -22 30 -48 60 l-48 54 -27 -68z" id="41"/>
<path d="M6750 7469 c-18 -33 -7 -40 28 -18 38 25 41 39 7 39 -14 0 -29 -8 -35 -21z" id="42"/>
<path d="M2907 7419 c-9 -29 -14 -55 -12 -57 7 -7 78 22 81 33 2 6 -9 25 -24 43 l-28 33 -17 -52z" id="43"/>
<path d="M6321 7335 c-50 -54 -96 -126 -112 -172 -10 -32 -9 -35 38 -87 27 -30 64 -84 83 -120 19 -36 38 -66 41 -66 3 0 11 19 18 43 7 23 24 68 38 99 l25 57 -25 53 c-33 69 -46 121 -48 186 -1 28 -5 52 -9 52 -4 0 -26 -20 -49 -45z" id="44"/>
<path d="M5822 7237 c-53 -125 -76 -223 -76 -322 -1 -88 0 -93 48 -192 27 -57 52 -103 57 -103 14 0 112 115 156 183 54 83 87 155 113 250 l20 72 -27 23 c-23 19 -230 149 -254 160 -4 2 -21 -30 -37 -71z" id="45"/>
<path d="M2311 7256 c-6 -25 -11 -61 -11 -81 0 -41 -4 -41 98 -3 l53 20 -45 34 c-25 19 -50 43 -56 54 -16 31 -27 24 -39 -24z" id="46"/>
<path d="M4285 7140 c-26 -52 -42 -134 -27 -144 13 -8 60 93 67 147 10 63 -7 62 -40 -3z" id="47"/>
<path d="M6140 7028 c-43 -144 -119 -273 -228 -390 l-45 -48 27 -40 c14 -22 30 -40 35 -40 6 0 15 16 22 35 7 19 15 35 19 35 3 0 12 -13 22 -29 9 -16 42 -47 73 -68 l57 -37 25 29 c60 74 128 262 148 412 6 48 4 56 -25 98 -40 58 -89 115 -100 115 -4 0 -18 -33 -30 -72z" id="48"/>
<path d="M0 7007 l0 -82 95 -18 c131 -24 272 -70 386 -126 235 -116 383 -253 558 -514 135 -202 204 -284 310 -368 74 -60 217 -146 226 -137 14 14 -15 48 -70 81 -99 58 -207 148 -258 217 -26 34 -90 133 -142 221 -124 205 -197 304 -305 410 -178 175 -418 305 -691 374 -53 14 -100 25 -103 25 -3 0 -6 -37 -6 -83z" id="49"/>
<path d="M7716 6991 c-83 -83 -83 -81 10 -217 36 -53 74 -115 84 -138 l19 -41 0 135 c1 156 -19 330 -38 330 -3 0 -37 -31 -75 -69z" id="50"/>
<path d="M3355 6730 c-467 -175 -857 -323 -865 -328 -12 -7 -5 -14 30 -32 25 -12 63 -35 85 -50 l40 -27 124 47 c111 42 126 51 142 81 38 75 112 129 271 201 177 79 267 100 438 104 l145 2 220 85 c186 72 221 89 226 109 10 33 11 128 2 127 -5 0 -390 -143 -858 -319z" id="51"/>
<path d="M5298 7027 c-31 -13 -59 -25 -62 -28 -3 -3 -13 -44 -21 -91 -20 -118 -59 -236 -111 -342 -24 -49 -44 -90 -44 -91 0 -1 21 2 48 7 26 5 57 6 68 3 19 -4 28 6 63 73 66 128 98 237 136 465 5 33 -1 33 -77 4z" id="52"/>
<path d="M4294 6982 c-33 -21 -73 -172 -46 -172 20 0 64 106 60 144 -2 23 -7 33 -14 28z" id="53"/>
<path d="M5071 6949 c-130 -43 -161 -67 -210 -159 -40 -75 -59 -160 -67 -297 -6 -90 -4 -113 6 -113 7 0 57 16 112 37 97 36 99 37 132 92 48 79 103 216 125 313 26 113 34 168 24 167 -4 -1 -59 -19 -122 -40z" id="54"/>
<path d="M7865 6734 c0 -112 1 -204 3 -204 11 0 62 132 67 175 6 46 2 62 -32 143 l-39 90 1 -204z" id="55"/>
<path d="M7528 6824 c-49 -41 -88 -79 -88 -83 0 -5 57 -101 127 -213 123 -199 183 -308 183 -338 1 -33 18 17 40 115 28 127 30 233 3 300 -10 28 -50 95 -87 150 -37 55 -69 110 -72 122 -4 13 -9 23 -13 23 -3 0 -45 -34 -93 -76z" id="56"/>
<path d="M0 4245 l0 -2642 23 -10 c29 -14 758 -463 774 -477 14 -13 134 -716 124 -732 -3 -7 -84 -94 -180 -195 l-174 -184 247 -3 c136 -1 356 -1 489 0 l241 3 -51 38 -50 39 -6 131 c-4 102 -2 138 9 159 8 15 61 66 119 113 l105 87 77 -3 c73 -3 76 -3 86 21 16 41 13 246 -7 379 -35 236 -8 402 95 572 45 75 46 79 26 83 -12 2 -62 14 -112 26 -134 33 -176 39 -217 33 -21 -3 -38 -3 -38 -1 0 3 20 25 44 49 53 54 78 117 117 299 36 167 51 214 90 275 l31 48 -104 104 c-57 57 -131 122 -165 145 l-62 41 62 36 c38 22 110 84 187 161 131 132 189 177 268 212 l47 21 -160 54 -160 53 -50 -15 c-66 -20 -125 -69 -231 -193 -97 -114 -174 -176 -281 -228 -201 -97 -397 -82 -719 54 -77 32 -158 65 -179 72 l-39 13 63 22 c79 29 142 71 262 176 152 132 256 184 419 210 94 14 182 7 379 -31 85 -17 164 -30 175 -30 12 0 -24 18 -79 41 -140 56 -271 131 -372 212 l-87 69 -85 -92 -86 -92 -199 16 c-110 9 -201 18 -202 19 -1 1 -42 76 -92 167 -49 91 -98 179 -107 195 l-18 31 133 174 c73 96 139 180 146 186 10 8 44 5 126 -11 l113 -22 3 44 c2 28 -6 73 -22 121 -60 180 -72 348 -36 498 25 105 51 162 138 308 40 65 81 144 93 176 23 65 37 68 61 17 25 -53 64 -92 171 -175 136 -105 208 -184 255 -283 l39 -79 41 53 c63 84 162 196 183 207 16 9 18 6 16 -42 -3 -67 21 -106 111 -186 l67 -60 0 202 c0 110 4 218 8 239 8 37 8 37 -25 37 -43 0 -225 42 -308 70 -100 35 -235 106 -260 137 l-22 28 79 6 c43 4 102 16 130 28 96 38 175 82 170 94 -56 141 -56 141 -115 169 -198 93 -345 232 -522 497 -181 270 -314 397 -532 507 -141 71 -264 112 -413 138 l-75 13 0 -2642z m1100 1729 c11 -12 10 -18 -3 -32 -16 -15 -18 -15 -34 0 -13 14 -14 20 -3 32 7 9 16 16 20 16 4 0 13 -7 20 -16z m-232 -290 c31 -35 30 -94 -2 -131 -19 -22 -32 -28 -66 -28 -54 0 -90 37 -90 93 0 91 99 133 158 66z m422 -119 c26 -32 -13 -81 -47 -59 -35 22 -23 74 17 74 10 0 23 -7 30 -15z m-506 -281 c9 -8 16 -19 16 -24 0 -11 -29 -40 -40 -40 -11 0 -40 29 -40 40 0 11 29 40 40 40 5 0 16 -7 24 -16z m686 -134 c11 -11 20 -24 20 -30 0 -5 -9 -19 -20 -30 -11 -11 -24 -20 -30 -20 -5 0 -19 9 -30 20 -11 11 -20 25 -20 30 0 13 37 50 50 50 6 0 19 -9 30 -20z m-948 -327 c22 -20 23 -61 1 -85 -34 -38 -103 -11 -103 40 0 54 62 81 102 45z m1263 -1858 c0 -23 -5 -31 -21 -33 -29 -4 -44 17 -33 46 14 36 54 26 54 -13z m-815 -410 c10 -12 10 -18 0 -30 -7 -8 -18 -15 -25 -15 -7 0 -18 7 -25 15 -10 12 -10 18 0 30 7 8 18 15 25 15 7 0 18 -7 25 -15z m490 -215 c11 -11 20 -29 20 -40 0 -11 -9 -29 -20 -40 -11 -11 -29 -20 -40 -20 -11 0 -29 9 -40 20 -11 11 -20 29 -20 40 0 11 9 29 20 40 11 11 29 20 40 20 11 0 29 -9 40 -20z m-252 -496 c31 -35 30 -94 -2 -131 -34 -39 -98 -39 -132 0 -42 49 -26 134 30 157 32 14 79 3 104 -26z m-103 -1439 c56 -55 15 -155 -64 -155 -47 0 -77 21 -91 64 -9 28 -8 40 4 65 20 38 41 50 89 51 27 0 45 -7 62 -25z" id="57"/>
<path d="M4725 6841 c-205 -64 -195 -57 -197 -144 -4 -163 11 -389 27 -405 2 -3 52 12 110 33 l105 38 0 111 c0 61 7 142 15 180 14 67 57 167 91 214 9 12 13 22 8 21 -5 0 -76 -22 -159 -48z" id="58"/>
<path d="M6311 6825 c-34 -165 -70 -261 -131 -349 l-31 -46 45 -20 c25 -11 66 -29 91 -40 44 -19 45 -19 55 0 22 40 40 150 40 240 0 92 -14 172 -43 242 l-14 33 -12 -60z" id="59"/>
<path d="M3985 6775 c-150 -59 -209 -86 -206 -96 17 -60 28 -78 46 -81 15 -3 359 131 370 144 6 7 11 118 6 117 -3 -1 -100 -38 -216 -84z" id="60"/>
<path d="M4420 6719 c-95 -50 -208 -134 -237 -178 -33 -50 -53 -122 -63 -238 -9 -101 -5 -173 11 -173 6 0 388 139 396 144 1 1 -3 24 -9 51 -6 28 -13 136 -17 242 l-6 192 -75 -40z" id="61"/>
<path d="M7326 6638 c-42 -45 -79 -92 -82 -105 -13 -49 45 -177 166 -373 101 -163 143 -241 171 -320 l23 -64 33 69 c100 216 113 296 64 400 -31 68 -277 468 -290 473 -5 2 -43 -34 -85 -80z" id="62"/>
<path d="M3545 6689 c-184 -18 -453 -127 -557 -227 -39 -37 -64 -92 -54 -117 3 -8 18 -15 34 -15 23 0 31 7 45 39 21 48 80 77 122 61 34 -13 35 -13 35 5 0 8 13 29 28 47 31 33 68 41 125 24 20 -6 27 -5 27 6 0 8 12 25 26 39 31 29 104 34 130 8 15 -16 18 -15 43 12 36 41 92 49 132 20 27 -20 30 -21 54 -5 27 17 31 34 15 63 -19 37 -90 51 -205 40z" id="63"/>
<path d="M7956 6665 c-4 -20 -29 -80 -56 -133 -36 -73 -53 -123 -69 -202 -11 -58 -32 -146 -47 -195 -14 -50 -29 -99 -32 -109 -7 -26 12 -18 99 41 84 56 188 164 218 226 l22 46 -20 75 c-17 62 -96 274 -106 284 -1 2 -6 -13 -9 -33z" id="64"/>
<path d="M1570 6639 c0 -40 41 -222 72 -318 35 -111 91 -234 137 -306 l32 -50 -6 35 c-3 19 -8 109 -11 200 -6 164 -5 176 33 337 4 19 0 23 -33 28 -77 12 -120 27 -171 61 -50 32 -53 33 -53 13z" id="65"/>
<path d="M3574 6545 c-15 -23 -15 -27 0 -50 29 -45 116 -25 116 27 0 48 -88 66 -116 23z" id="66"/>
<path d="M3756 6551 c-25 -27 -17 -63 17 -79 24 -12 31 -11 53 2 31 21 32 60 2 80 -30 21 -51 20 -72 -3z" id="67"/>
<path d="M1845 6498 c-29 -98 -39 -237 -26 -366 17 -168 31 -222 74 -274 59 -72 131 -128 166 -128 34 0 61 22 61 51 0 11 34 86 76 167 42 81 85 172 96 202 24 70 41 192 33 239 l-6 37 -112 37 c-105 34 -307 87 -334 87 -7 0 -19 -24 -28 -52z" id="68"/>
<path d="M3399 6521 c-20 -16 -22 -23 -14 -47 9 -24 17 -30 48 -32 21 -2 45 2 53 9 17 14 18 61 2 77 -18 18 -63 14 -89 -7z" id="69"/>
<path d="M5977 6463 c-15 -97 -20 -216 -8 -209 6 4 11 13 11 19 0 7 20 42 45 79 25 37 45 71 45 75 0 4 -16 19 -35 32 -19 13 -35 27 -35 32 0 5 -4 9 -9 9 -5 0 -11 -17 -14 -37z" id="70"/>
<path d="M7192 6459 c-34 -56 -62 -136 -72 -209 -15 -106 -8 -124 72 -183 37 -27 70 -59 73 -71 3 -11 27 -138 55 -281 28 -143 53 -266 56 -274 6 -17 81 82 156 207 l51 84 -12 54 c-15 66 -84 202 -183 359 -85 135 -120 202 -153 288 l-22 59 -21 -33z" id="71"/>
<path d="M3232 6464 c-29 -20 -29 -59 2 -79 25 -16 49 -12 79 13 22 19 22 45 -1 65 -23 21 -51 22 -80 1z" id="72"/>
<path d="M4077 6427 c-59 -79 -108 -190 -117 -263 -5 -36 -14 -71 -21 -80 -22 -27 0 -27 76 1 l75 27 0 112 c0 61 7 142 15 180 8 38 14 71 12 72 -1 1 -19 -21 -40 -49z" id="73"/>
<path d="M1546 6380 c-7 -79 -7 -82 23 -129 32 -50 78 -98 86 -90 2 3 -8 39 -24 80 -16 40 -37 107 -47 147 -10 39 -21 72 -25 72 -3 0 -10 -36 -13 -80z" id="74"/>
<path d="M5045 6405 c-38 -14 -71 -25 -72 -25 -3 0 76 -131 83 -139 4 -5 296 40 312 48 9 5 2 19 -24 49 -75 88 -178 111 -299 67z" id="75"/>
<path d="M3535 6400 c-117 -25 -187 -50 -315 -116 -116 -59 -195 -118 -225 -169 -16 -28 -17 -37 -7 -60 l12 -26 54 48 c113 100 285 186 481 239 83 23 121 28 228 28 126 1 128 1 134 25 10 42 -17 51 -151 50 -78 0 -153 -7 -211 -19z" id="76"/>
<path d="M2348 6312 c-7 -119 -30 -191 -107 -332 -50 -91 -101 -206 -101 -228 0 -4 70 -6 156 -5 l156 1 39 38 c54 53 114 148 140 219 12 34 23 98 26 147 l6 87 -69 44 c-67 43 -171 99 -219 117 -22 8 -22 8 -27 -88z" id="77"/>
<path d="M6048 6337 c-61 -95 -82 -161 -75 -236 8 -75 38 -211 47 -211 4 0 21 21 37 48 32 47 77 85 232 190 58 40 90 69 104 95 19 37 19 38 1 52 -18 13 -284 135 -294 135 -3 0 -26 -33 -52 -73z" id="78"/>
<path d="M3063 6376 c-27 -24 -27 -26 -13 -53 29 -53 110 -33 110 27 0 52 -51 65 -97 26z" id="79"/>
<path d="M5904 6355 c-39 -92 -66 -186 -60 -209 3 -13 26 -46 50 -72 l43 -48 -4 174 c-5 220 -4 215 -29 155z" id="80"/>
<path d="M3587 5866 c-730 -271 -1330 -495 -1333 -499 -3 -3 -3 -15 1 -27 5 -16 13 -21 28 -18 20 4 2667 987 2675 994 8 6 -20 44 -31 43 -7 0 -609 -222 -1340 -493z" id="81"/>
<path d="M2795 6311 c-38 -15 -79 -30 -89 -34 -18 -7 -18 -9 5 -33 13 -14 36 -34 50 -45 25 -18 27 -18 75 0 41 16 50 24 57 52 23 99 14 104 -98 60z" id="82"/>
<path d="M3705 6313 c-115 -15 -317 -76 -416 -126 -75 -38 -199 -120 -225 -148 -14 -16 -15 -19 -2 -19 8 0 29 7 47 16 29 15 53 14 94 -2 10 -4 16 4 21 29 8 42 38 82 76 102 37 19 107 19 144 0 15 -8 30 -15 31 -15 2 0 13 19 24 43 12 23 33 50 46 60 53 38 143 34 194 -8 l29 -25 16 25 c9 13 31 32 49 41 29 16 30 18 12 25 -21 8 -87 9 -140 2z" id="83"/>
<path d="M2954 6280 c-28 -11 -36 -43 -17 -70 21 -30 72 -24 92 12 14 24 14 28 -3 47 -20 22 -38 25 -72 11z" id="84"/>
<path d="M3635 5784 c-731 -273 -1334 -500 -1339 -504 -10 -10 13 -72 25 -68 4 2 613 230 1353 508 l1344 505 -14 27 c-8 16 -20 28 -27 28 -6 -1 -610 -224 -1342 -496z" id="85"/>
<path d="M8067 6238 c-38 -64 -120 -139 -235 -215 l-102 -68 -83 -168 c-93 -187 -96 -176 33 -125 101 39 221 121 301 205 85 88 109 151 116 306 3 59 3 107 0 107 -3 0 -16 -19 -30 -42z" id="86"/>
<path d="M3825 6235 c-50 -49 -23 -155 39 -155 62 0 85 111 32 157 -34 29 -41 29 -71 -2z" id="87"/>
<path d="M3594 6236 c-48 -21 -74 -61 -74 -113 0 -38 5 -50 34 -79 29 -29 41 -34 79 -34 53 0 93 27 114 77 38 92 -62 189 -153 149z" id="88"/>
<path d="M5323 6243 c-13 -2 -23 -7 -23 -10 0 -3 264 -706 586 -1562 323 -856 591 -1569 596 -1584 9 -25 15 -28 47 -25 27 2 36 7 35 21 -1 9 -264 726 -585 1592 -568 1531 -585 1575 -609 1574 -14 -1 -35 -4 -47 -6z" id="89"/>
<path d="M6421 6220 c-13 -38 -48 -71 -136 -128 -162 -105 -227 -171 -241 -242 -6 -29 20 -120 34 -120 4 0 43 31 87 69 44 38 92 77 107 86 l28 16 0 -38 c0 -40 51 -175 68 -181 18 -6 111 111 151 187 21 42 49 107 60 145 20 66 20 70 4 90 -38 46 -100 109 -125 127 l-26 19 -11 -30z" id="90"/>
<path d="M1536 6163 c4 -43 17 -130 30 -193 25 -126 29 -132 116 -176 50 -25 136 -48 227 -59 l54 -6 -68 73 c-71 77 -121 146 -173 238 -19 33 -51 71 -80 93 -28 21 -60 53 -73 72 -13 19 -28 35 -32 35 -4 0 -5 -35 -1 -77z" id="91"/>
<path d="M6827 6203 c-13 -21 -36 -57 -50 -79 l-26 -42 92 -35 92 -35 15 21 c8 11 25 37 38 58 l23 38 -75 56 c-41 30 -77 55 -80 55 -3 0 -16 -17 -29 -37z" id="92"/>
<path d="M5151 6216 c-35 -6 -66 -16 -68 -22 -3 -8 1171 -3159 1181 -3171 2 -3 129 15 164 23 19 4 23 10 18 27 -3 12 -271 726 -595 1587 -546 1450 -591 1565 -613 1566 -12 1 -52 -3 -87 -10z" id="93"/>
<path d="M2686 6139 c-12 -129 -86 -289 -171 -369 -29 -27 -32 -40 -9 -40 30 0 157 -41 221 -72 48 -22 67 -27 81 -19 45 24 90 202 78 305 -8 63 -54 132 -143 219 l-50 48 -7 -72z" id="94"/>
<path d="M3675 5681 c-981 -369 -1349 -512 -1347 -522 4 -17 1191 -3139 1201 -3156 4 -8 437 152 1350 497 739 280 1345 510 1346 512 5 5 -1187 3178 -1194 3178 -3 -1 -613 -229 -1356 -509z m1869 -1111 c307 -820 557 -1492 555 -1494 -13 -11 -2502 -947 -2511 -944 -12 4 -1143 2967 -1135 2974 5 5 2515 952 2527 953 3 1 257 -670 564 -1489z" id="95"/>
<path d="M3765 5564 c-649 -244 -1199 -451 -1222 -460 -24 -8 -43 -20 -43 -26 0 -21 1104 -2908 1111 -2906 4 2 554 210 1223 463 669 253 1216 464 1216 469 0 24 -1086 2906 -1095 2905 -5 0 -541 -200 -1190 -445z m390 -88 c29 -19 63 -89 71 -147 13 -93 -48 -220 -135 -285 -56 -41 -158 -76 -183 -63 -19 10 -24 44 -8 54 22 14 61 97 70 149 7 43 5 68 -9 118 -20 71 -15 110 20 147 47 50 121 62 174 27z m391 -35 c73 -45 110 -128 101 -230 -9 -96 -32 -154 -87 -214 -92 -101 -198 -137 -395 -136 -148 1 -220 16 -220 44 0 17 22 27 136 65 151 50 222 89 256 139 29 43 29 76 -2 126 -45 73 -25 161 47 205 43 26 122 27 164 1z m-628 -136 c23 -42 29 -75 12 -75 -5 0 -10 9 -10 20 0 12 -11 42 -25 68 -25 47 -31 82 -17 96 4 4 10 -9 13 -31 3 -21 15 -56 27 -78z m-231 60 c66 -28 104 -65 136 -134 51 -109 41 -257 -16 -235 -9 3 -22 23 -28 45 -7 21 -21 47 -33 57 -26 24 -103 48 -175 56 -89 9 -125 61 -99 141 25 76 124 108 215 70z m1737 -974 c179 -480 326 -878 326 -885 -1 -33 -119 256 -257 623 -332 889 -415 1123 -412 1165 1 16 -9 42 343 -903z m-1931 759 c38 -18 39 -20 15 -20 -34 0 -98 54 -98 84 0 18 3 16 20 -12 12 -19 38 -41 63 -52z m82 -114 c75 -24 157 -69 190 -106 23 -26 13 -54 -18 -46 -91 25 -190 38 -228 30 -38 -8 -43 -13 -61 -62 -24 -63 -77 -108 -141 -117 -160 -24 -229 157 -101 264 79 65 223 80 359 37z m1075 -35 c-46 -65 -188 -166 -207 -147 -4 3 -4 7 -2 9 2 1 30 15 62 31 36 18 77 50 105 83 50 57 77 72 42 24z m-840 -184 c35 -9 46 -17 48 -35 3 -19 8 -23 27 -18 31 8 42 -9 47 -75 5 -70 36 -129 98 -194 58 -61 70 -83 70 -130 0 -105 -106 -158 -210 -105 -59 30 -87 66 -104 136 -30 119 -15 227 43 315 17 24 28 45 27 47 -7 7 -194 -99 -216 -123 -21 -22 -22 -29 -14 -77 31 -200 -16 -297 -140 -285 -45 4 -55 10 -92 50 -56 62 -71 118 -55 204 23 125 84 204 198 258 93 44 184 55 273 32z m245 -18 c28 -17 67 -38 89 -45 61 -22 164 -17 253 11 135 43 210 28 247 -50 22 -45 15 -95 -20 -146 -38 -56 -95 -82 -189 -87 -100 -5 -172 9 -264 53 -94 45 -151 105 -186 194 -42 106 -20 127 70 70z m-865 -84 c14 -8 40 -14 58 -15 17 0 32 -4 32 -10 0 -23 -107 2 -124 29 -10 15 4 13 34 -4z m1520 -21 c6 -14 10 -39 10 -56 0 -34 -36 -118 -51 -118 -13 0 -11 5 11 42 22 36 27 107 10 139 -8 13 -7 19 0 19 6 0 15 -12 20 -26z m667 -819 c149 -379 241 -628 238 -641 -4 -17 -143 -73 -862 -346 -842 -319 -893 -336 -893 -298 0 5 -108 287 -241 626 -183 467 -238 619 -230 627 16 16 1712 656 1731 654 9 -2 97 -214 257 -622z m-1217 515 c11 -40 5 -110 -10 -110 -4 0 -5 22 -2 49 4 41 0 58 -22 97 -32 58 -33 67 -1 31 13 -15 29 -45 35 -67z m-494 -45 c-17 -67 -71 -136 -116 -148 -26 -7 -26 10 -1 18 32 10 89 81 97 119 3 20 11 36 16 36 6 0 7 -11 4 -25z m2214 -1171 c0 -35 -33 -72 -69 -76 -37 -4 -35 17 1 27 32 10 33 11 37 75 3 64 3 64 17 35 7 -16 13 -44 14 -61z m-2166 -829 c48 11 51 11 54 0 2 -5 -12 -15 -32 -22 -44 -15 -88 -2 -110 32 -27 42 -18 48 20 15 31 -27 42 -31 68 -25z" id="96"/>
<path d="M4014 5426 c-38 -38 -41 -57 -18 -112 26 -61 15 -166 -23 -237 -35 -65 -29 -70 40 -36 54 27 123 93 148 142 24 45 34 120 25 171 -4 20 -21 52 -38 71 -42 48 -87 48 -134 1z m136 -46 c15 -28 9 -105 -8 -105 -9 0 -14 19 -16 63 -2 64 5 77 24 42z" id="97"/>
<path d="M4413 5416 c-68 -31 -85 -108 -38 -171 27 -34 27 -37 16 -92 -8 -41 -20 -67 -43 -90 -39 -40 -144 -95 -223 -117 -33 -10 -68 -19 -77 -22 -36 -10 -17 -23 45 -29 85 -9 240 9 311 35 81 31 156 105 185 183 29 80 29 178 -2 231 -41 72 -110 101 -174 72z m108 -66 c29 -16 49 -64 49 -120 0 -51 -22 -120 -38 -120 -18 0 -21 13 -7 34 36 56 25 152 -21 183 -40 26 -26 46 17 23z" id="98"/>
<path d="M3555 5336 c-31 -13 -55 -51 -55 -86 0 -33 36 -60 79 -60 58 0 164 -36 191 -65 14 -14 30 -38 36 -53 23 -52 16 61 -8 125 -26 72 -73 118 -140 138 -61 18 -64 18 -103 1z" id="99"/>
<path d="M3332 5015 c-61 -17 -96 -38 -121 -74 -74 -107 24 -212 144 -155 40 19 67 56 75 104 8 52 35 62 159 57 l104 -4 -58 29 c-59 30 -167 58 -220 57 -16 0 -54 -7 -83 -14z m58 -106 c0 -55 -67 -129 -99 -109 -11 6 -7 12 15 23 29 15 47 40 59 85 8 28 25 29 25 1z" id="100"/>
<path d="M3605 4772 c-154 -53 -235 -157 -235 -302 0 -80 74 -170 139 -170 12 0 35 13 52 28 27 24 33 37 37 86 3 32 -1 83 -7 112 -23 101 1 138 131 206 55 28 75 44 66 49 -22 15 -131 9 -183 -9z m-45 -281 c15 -29 12 -83 -6 -109 -23 -33 -35 -17 -18 23 10 25 11 41 4 60 -6 15 -10 31 -10 36 0 16 19 10 30 -10z" id="101"/>
<path d="M3862 4692 c-39 -54 -52 -98 -52 -174 1 -136 24 -187 104 -227 41 -21 52 -22 84 -13 47 14 76 59 67 102 -4 16 -33 59 -65 95 -71 77 -88 108 -104 188 l-12 60 -22 -31z m126 -263 c3 -28 -12 -54 -25 -46 -13 8 -3 79 11 74 6 -2 12 -14 14 -28z" id="102"/>
<path d="M4010 4770 c0 -26 52 -110 90 -144 125 -113 366 -149 460 -69 77 65 77 161 0 193 -33 14 -34 14 -185 -29 -119 -34 -225 -24 -309 30 -52 32 -56 34 -56 19z m560 -134 c0 -35 -36 -74 -78 -86 -52 -14 -92 -13 -92 4 0 9 17 15 50 18 56 6 90 29 90 63 0 12 3 25 6 28 11 11 24 -3 24 -27z" id="103"/>
<path d="M4275 4124 c-445 -168 -813 -309 -818 -313 -7 -7 436 -1156 452 -1173 5 -5 718 261 1574 588 37 14 67 31 67 38 0 7 -84 226 -186 487 -102 261 -203 520 -225 577 -22 56 -44 102 -47 102 -4 -1 -371 -138 -817 -306z m992 -280 c112 -280 206 -520 209 -534 5 -25 -4 -28 -738 -302 -409 -153 -749 -279 -757 -280 -10 -2 -74 145 -222 517 -114 286 -208 527 -208 536 -1 13 169 81 747 297 411 154 751 279 757 278 5 -1 101 -232 212 -512z" id="104"/>
<path d="M4315 4045 c-385 -144 -705 -267 -711 -271 -9 -7 39 -139 182 -499 108 -269 199 -494 203 -498 7 -7 1426 516 1442 532 12 10 -385 996 -401 998 -8 1 -330 -117 -715 -262z m722 -126 c72 -27 122 -109 123 -200 0 -92 -51 -149 -133 -149 -102 0 -178 85 -179 202 0 115 89 185 189 147z m-298 -114 c24 -12 41 -33 41 -51 0 -11 -39 -2 -50 11 -16 20 -79 19 -108 -1 -77 -54 -65 -212 21 -264 61 -38 120 -19 148 47 21 49 39 56 39 16 0 -58 -68 -123 -128 -123 -108 0 -199 150 -162 266 14 42 53 91 85 104 32 14 83 11 114 -5z m-367 -136 c84 -23 148 -137 133 -237 -22 -145 -217 -157 -285 -17 -31 64 -36 116 -16 169 19 50 42 74 82 86 39 11 44 11 86 -1z m-305 -110 c44 -16 65 -39 52 -55 -9 -11 -16 -10 -36 6 -57 45 -142 7 -163 -72 -37 -135 107 -269 193 -180 15 15 27 38 27 50 0 16 6 22 21 22 19 0 21 -4 15 -32 -9 -46 -30 -73 -72 -93 -72 -34 -161 3 -199 82 -73 152 28 323 162 272z" id="105"/>
<path d="M4915 3864 c-50 -54 -40 -158 21 -219 41 -41 86 -51 133 -28 75 37 76 156 1 234 -33 35 -42 39 -84 39 -38 0 -52 -5 -71 -26z" id="106"/>
<path d="M4277 3630 c-42 -26 -60 -114 -36 -177 16 -43 69 -92 106 -99 125 -24 171 150 65 250 -34 31 -104 45 -135 26z" id="107"/>
<path d="M2876 6154 c-22 -8 -41 -16 -43 -18 -2 -2 21 -40 51 -85 52 -78 107 -206 122 -285 3 -21 12 -40 18 -42 6 -2 44 9 85 24 l74 29 -46 22 c-58 28 -89 75 -89 135 0 41 -2 46 -31 55 -17 6 -39 19 -49 27 -24 22 -33 76 -18 105 11 19 10 24 -6 36 -21 15 -18 15 -68 -3z" id="108"/>
<path d="M3330 6139 c-39 -16 -59 -39 -70 -80 -19 -70 26 -136 98 -146 74 -10 132 43 132 122 0 73 -92 133 -160 104z" id="109"/>
<path d="M5815 6038 c-5 -35 -8 -103 -8 -153 l1 -90 42 -37 c67 -59 213 -105 195 -60 -27 65 -64 176 -75 222 -11 47 -22 64 -78 117 -36 35 -66 63 -67 63 -2 0 -6 -28 -10 -62z" id="110"/>
<path d="M7002 6045 l-33 -56 56 -107 c30 -59 77 -149 103 -199 25 -51 49 -93 53 -93 6 0 29 285 29 355 -1 38 -4 42 -80 98 -44 31 -83 57 -87 57 -5 0 -23 -25 -41 -55z" id="111"/>
<path d="M3767 6041 c-20 -34 -90 -71 -133 -71 -16 0 -46 8 -66 19 -38 19 -48 18 -48 -7 0 -28 -44 -75 -88 -94 -42 -19 -81 -19 -128 -1 -9 3 -18 -5 -25 -23 -6 -16 -18 -38 -27 -48 -14 -16 -14 -18 -2 -14 8 2 154 56 323 119 264 98 303 115 277 120 -18 4 -37 12 -43 18 -16 16 -21 14 -40 -18z" id="112"/>
<path d="M6712 6020 c-19 -31 -19 -32 1 -93 13 -42 21 -101 25 -182 l5 -119 41 -53 c22 -28 44 -52 48 -52 4 -1 10 9 13 22 12 50 75 401 75 418 0 13 -22 26 -82 49 -46 18 -88 34 -95 37 -7 3 -21 -9 -31 -27z" id="113"/>
<path d="M6606 6007 c-15 -78 -103 -232 -183 -318 l-43 -46 53 -84 c29 -46 65 -105 80 -131 l28 -47 43 21 c48 23 75 67 101 168 19 72 19 240 0 314 -18 69 -54 156 -65 156 -4 0 -11 -15 -14 -33z" id="114"/>
<path d="M3100 5983 c-45 -57 6 -153 81 -153 62 0 87 56 54 120 -33 64 -98 79 -135 33z" id="115"/>
<path d="M6950 5911 c0 -5 -16 -93 -35 -196 -20 -103 -35 -194 -33 -202 2 -12 8 -11 30 6 34 27 38 27 38 -8 0 -41 33 -144 78 -242 76 -164 112 -296 112 -412 0 -38 3 -67 8 -65 4 2 42 23 84 48 52 30 76 50 73 60 -2 8 -31 148 -64 310 l-61 295 -107 207 c-97 186 -123 228 -123 199z" id="116"/>
<path d="M2916 5885 c-3 -9 -6 -33 -6 -53 0 -20 -11 -67 -24 -104 -12 -38 -21 -68 -20 -68 19 0 114 44 114 53 0 17 -39 158 -49 175 -7 12 -9 11 -15 -3z" id="117"/>
<path d="M6240 5775 c-69 -152 -151 -397 -137 -411 15 -15 270 147 283 179 2 7 -13 44 -35 83 -23 38 -49 103 -60 144 l-19 75 -32 -70z" id="118"/>
<path d="M1610 5798 c1 -22 71 -200 86 -217 1 -1 60 26 130 60 l128 64 -69 8 c-85 9 -163 31 -227 63 -26 13 -48 23 -48 22z" id="119"/>
<path d="M7237 5760 c-4 -25 -9 -94 -13 -155 -5 -107 -4 -118 56 -404 33 -162 62 -296 63 -297 1 -2 18 5 38 14 l36 17 -83 420 c-46 231 -85 427 -87 435 -2 8 -6 -5 -10 -30z" id="120"/>
<path d="M7877 5741 c-59 -47 -157 -96 -262 -132 -63 -22 -85 -35 -102 -61 -32 -46 -29 -51 16 -28 22 11 74 33 116 50 124 49 176 79 237 138 53 51 69 73 51 71 -5 0 -30 -17 -56 -38z" id="121"/>
<path d="M6121 5706 l-63 -63 11 -54 c18 -84 26 -89 46 -28 10 30 31 87 47 127 17 40 28 75 26 77 -2 3 -32 -24 -67 -59z" id="122"/>
<path d="M5820 5728 c0 -42 65 -229 79 -227 6 0 111 144 111 152 0 2 -17 7 -38 10 -20 4 -63 22 -95 41 -31 19 -57 30 -57 24z" id="123"/>
<path d="M2165 5709 c-102 -13 -130 -22 -133 -45 -4 -25 67 -166 111 -220 l33 -41 169 62 c93 35 171 68 173 74 6 17 -42 92 -87 135 -39 38 -42 39 -118 42 -43 1 -109 -2 -148 -7z" id="124"/>
<path d="M2478 5665 c18 -20 43 -57 54 -80 l21 -43 61 23 c34 13 75 29 91 35 l30 12 -29 15 c-45 24 -161 61 -213 69 l-48 7 33 -38z" id="125"/>
<path d="M1897 5636 c-43 -19 -108 -52 -145 -74 -37 -22 -90 -51 -119 -66 -28 -14 -54 -30 -58 -35 -3 -5 22 -39 54 -74 64 -68 140 -114 229 -141 l53 -15 57 58 c39 39 73 64 107 76 28 10 54 22 58 26 5 3 -9 33 -31 65 -45 67 -74 123 -91 177 -7 20 -18 37 -24 37 -7 0 -47 -16 -90 -34z" id="126"/>
<path d="M5982 5545 c-28 -38 -63 -91 -77 -117 l-25 -47 16 -78 c20 -98 98 -313 109 -301 2 2 9 50 15 108 6 58 22 160 36 227 l25 122 -20 58 c-10 32 -21 67 -23 78 -3 16 -14 6 -56 -50z" id="127"/>
<path d="M6703 5512 c-11 -37 -20 -68 -19 -69 2 -3 120 28 125 32 4 4 -71 104 -79 104 -3 0 -15 -30 -27 -67z" id="128"/>
<path d="M6335 5464 c-38 -30 -109 -73 -157 -97 -48 -23 -90 -49 -92 -57 -13 -37 -36 -260 -36 -342 l0 -90 28 7 c120 30 283 128 388 234 96 96 102 109 79 163 -24 56 -127 238 -134 237 -3 0 -37 -25 -76 -55z" id="129"/>
<path d="M6849 5426 c-30 -24 -74 -65 -97 -92 -41 -47 -112 -170 -112 -193 0 -33 185 11 274 65 85 51 82 43 48 126 -16 40 -33 88 -37 106 -4 17 -10 32 -13 32 -4 0 -32 -20 -63 -44z" id="130"/>
<path d="M1470 5428 c-36 -11 -73 -23 -84 -27 -14 -5 3 -17 71 -48 84 -40 261 -98 270 -89 2 2 -12 13 -31 25 -37 23 -146 136 -146 152 0 12 -2 11 -80 -13z" id="131"/>
<path d="M6695 5406 l-40 -12 -3 -69 -3 -69 32 44 c17 25 48 62 67 83 35 36 35 37 12 36 -14 0 -43 -6 -65 -13z" id="132"/>
<path d="M6589 5363 c-13 -9 -25 -17 -27 -19 -6 -4 53 -134 60 -134 6 0 0 159 -6 167 -1 2 -13 -5 -27 -14z" id="133"/>
<path d="M2122 5322 c-84 -36 -124 -70 -156 -133 -28 -56 -35 -129 -13 -129 20 1 311 136 314 147 6 17 -56 143 -69 142 -7 0 -41 -13 -76 -27z" id="134"/>
<path d="M5840 5284 c-12 -34 -7 -50 76 -277 l89 -242 3 77 c3 72 0 83 -36 160 -42 87 -102 264 -102 298 0 32 -17 23 -30 -16z" id="135"/>
<path d="M976 5213 c-4 -10 -10 -72 -13 -138 -6 -113 -5 -119 11 -102 10 9 49 37 87 62 39 25 69 49 67 53 -2 5 -35 38 -74 75 -60 56 -73 64 -78 50z" id="136"/>
<path d="M6945 5196 c-69 -45 -139 -72 -219 -87 -65 -12 -68 -14 -62 -38 31 -140 46 -221 46 -246 1 -63 8 -74 48 -68 67 10 179 71 248 135 83 78 88 87 73 141 -16 63 -69 197 -77 196 -4 0 -29 -15 -57 -33z" id="137"/>
<path d="M6505 5122 c-111 -118 -226 -193 -379 -248 l-78 -27 6 -92 c8 -104 27 -203 50 -258 l16 -37 48 24 c26 13 89 35 139 49 164 47 296 130 353 221 17 29 18 39 9 106 -13 90 -54 251 -77 300 l-17 37 -70 -75z" id="138"/>
<path d="M881 5075 l-52 -85 26 -47 c14 -27 38 -63 53 -81 l27 -33 0 166 c0 91 -1 165 -1 165 -1 0 -25 -38 -53 -85z" id="139"/>
<path d="M2181 5119 c-47 -22 -87 -41 -89 -44 -6 -6 1200 -3215 1209 -3215 13 0 199 114 197 121 -2 4 -275 720 -608 1593 -332 872 -609 1586 -615 1586 -5 0 -48 -19 -94 -41z" id="140"/>
<path d="M1077 5015 c-43 -29 -86 -63 -95 -76 -23 -33 -20 -137 7 -258 21 -94 33 -121 56 -121 21 0 103 79 150 144 47 66 115 200 115 226 0 22 -129 143 -149 139 -3 -1 -41 -25 -84 -54z" id="141"/>
<path d="M1997 5037 c-35 -14 -47 -25 -44 -36 10 -39 1190 -3217 1197 -3224 12 -14 112 53 107 72 -12 44 -1198 3196 -1205 3202 -4 3 -29 -3 -55 -14z" id="142"/>
<path d="M7583 4948 c-25 -5 -44 -16 -47 -26 -7 -28 -18 -132 -13 -132 3 0 24 29 47 64 23 36 48 70 56 77 15 12 19 30 7 28 -5 -1 -27 -5 -50 -11z" id="143"/>
<path d="M771 4864 c-35 -96 -58 -255 -42 -296 11 -28 66 -78 86 -78 8 0 32 35 53 77 45 90 66 108 89 78 15 -19 15 -18 9 14 -14 75 -28 112 -63 163 -20 29 -48 70 -61 91 -14 20 -29 37 -33 37 -4 0 -21 -39 -38 -86z" id="144"/>
<path d="M7029 4875 c-76 -71 -186 -131 -260 -141 l-49 -7 0 -81 c0 -44 -3 -105 -6 -133 -7 -51 -6 -53 18 -53 13 0 48 7 76 15 40 12 60 26 89 63 21 25 75 85 121 133 l83 86 -3 91 -3 90 -66 -63z" id="145"/>
<path d="M7401 4885 c-109 -45 -134 -62 -126 -83 14 -34 64 -242 71 -291 4 -28 9 -51 13 -51 3 0 35 57 71 128 64 127 65 127 70 230 3 65 1 102 -5 102 -5 0 -48 -16 -94 -35z" id="146"/>
<path d="M1306 4845 c-41 -94 -100 -181 -167 -247 -33 -32 -59 -59 -59 -62 0 -2 33 -16 73 -31 39 -15 98 -41 130 -58 l57 -30 26 24 c14 13 38 44 52 69 35 58 36 145 3 241 -18 55 -73 159 -84 159 -1 0 -15 -29 -31 -65z" id="147"/>
<path d="M1588 4848 c-118 -147 -120 -155 -81 -247 l19 -44 28 103 c15 57 38 131 52 164 13 32 22 61 20 63 -2 2 -19 -16 -38 -39z" id="148"/>
<path d="M1657 4857 c-23 -55 -75 -219 -87 -274 -6 -27 -13 -58 -15 -71 -5 -20 0 -18 47 19 64 51 153 93 231 109 31 6 57 14 57 17 0 4 -42 47 -93 97 -52 50 -100 102 -109 116 l-16 25 -15 -38z" id="149"/>
<path d="M7595 4825 c-20 -30 -38 -62 -42 -71 -10 -26 31 0 56 35 21 29 39 91 27 91 -3 0 -22 -25 -41 -55z" id="150"/>
<path d="M1943 4755 c5 -93 9 -106 41 -160 86 -141 126 -345 97 -492 -9 -47 -17 -22 191 -608 186 -525 749 -2047 785 -2122 8 -18 18 -33 22 -33 4 0 13 83 20 184 l13 184 -582 1568 c-319 863 -584 1571 -587 1574 -3 3 -3 -40 0 -95z" id="151"/>
<path d="M7195 4773 c-22 -14 -60 -42 -84 -62 l-44 -36 6 -90 c10 -142 80 -387 107 -370 6 4 42 48 81 98 l71 92 -6 60 c-10 95 -70 335 -84 335 -4 0 -25 -12 -47 -27z" id="152"/>
<path d="M7560 4703 c-46 -49 -80 -97 -117 -170 -29 -56 -53 -104 -53 -106 0 -5 74 9 134 25 22 5 52 22 67 37 24 24 28 37 33 117 4 49 8 106 10 127 2 20 1 37 -3 37 -3 0 -35 -30 -71 -67z" id="153"/>
<path d="M6619 4669 c-67 -69 -153 -114 -309 -163 -63 -20 -130 -45 -147 -56 l-33 -20 29 -77 c16 -43 54 -148 86 -233 31 -85 60 -159 65 -163 17 -19 288 293 326 378 29 64 46 185 42 300 l-3 90 -56 -56z" id="154"/>
<path d="M6983 4582 c-29 -34 -65 -83 -80 -110 -26 -44 -28 -53 -27 -162 1 -95 6 -129 27 -195 44 -135 39 -134 151 -24 l96 94 -35 91 c-32 84 -54 180 -73 314 l-7 55 -52 -63z" id="155"/>
<path d="M1778 4597 c-76 -26 -163 -82 -208 -134 -30 -34 -30 -34 -30 -158 0 -68 5 -136 10 -151 l11 -27 92 6 c132 8 235 47 335 127 43 34 52 46 52 73 0 47 -47 181 -83 235 -28 42 -37 47 -72 49 -22 2 -70 -7 -107 -20z" id="156"/>
<path d="M926 4543 c-63 -198 -39 -438 63 -613 l26 -45 6 75 c11 130 64 272 153 410 40 62 44 71 29 77 -120 43 -181 73 -227 113 l-34 31 -16 -48z" id="157"/>
<path d="M1485 4515 c-4 -28 -15 -83 -26 -123 l-19 -72 27 -42 28 -42 6 110 c3 60 9 123 12 139 4 18 1 40 -7 55 -14 24 -14 23 -21 -25z" id="158"/>
<path d="M730 4497 c1 -32 40 -181 46 -174 10 10 42 137 35 137 -5 0 -25 11 -45 25 -21 14 -36 19 -36 12z" id="159"/>
<path d="M1401 4439 c-32 -39 -32 -41 -15 -60 9 -10 20 -19 24 -19 7 0 34 109 28 115 -2 2 -18 -14 -37 -36z" id="160"/>
<path d="M6790 4444 c-25 -7 -54 -13 -65 -13 -18 -1 -24 -14 -41 -91 -20 -87 -20 -90 -2 -90 27 0 98 38 98 53 0 7 16 45 35 85 19 40 31 71 27 71 -4 -1 -27 -7 -52 -15z" id="161"/>
<path d="M835 4388 c-10 -36 -20 -111 -23 -176 -4 -110 -4 -114 27 -176 29 -60 113 -166 131 -166 4 0 -10 35 -31 78 -61 122 -81 214 -82 370 0 72 -1 132 -2 132 -1 0 -10 -28 -20 -62z" id="162"/>
<path d="M7567 4439 c-9 -6 -50 -17 -90 -25 -89 -18 -117 -38 -198 -138 -35 -44 -74 -92 -87 -107 l-23 -28 37 -7 c51 -9 138 3 195 28 55 23 125 106 164 193 42 93 42 107 2 84z" id="163"/>
<path d="M1192 4347 c-81 -130 -124 -240 -141 -362 -18 -123 -9 -147 85 -245 l83 -85 10 28 c6 16 48 86 93 155 46 70 90 150 100 177 21 62 24 202 4 248 -15 36 -107 127 -152 150 l-30 16 -52 -82z" id="164"/>
<path d="M6831 4335 c-29 -66 -42 -126 -57 -265 -17 -165 -25 -186 -113 -294 -32 -39 -70 -90 -85 -112 -32 -49 -76 -168 -75 -204 0 -18 5 -11 18 25 62 173 141 274 341 435 30 24 59 47 63 51 5 3 0 24 -11 46 -34 65 -55 153 -62 253 -6 90 -7 93 -19 65z" id="165"/>
<path d="M2000 4233 c-97 -78 -294 -143 -397 -131 -18 2 -33 0 -33 -4 0 -4 11 -47 25 -94 14 -47 25 -100 25 -118 0 -40 9 -52 43 -65 43 -17 186 -13 240 5 44 15 49 21 81 87 19 40 37 86 40 102 3 17 10 51 16 76 6 25 10 76 8 112 l-3 67 -45 -37z" id="166"/>
<path d="M6544 4157 c-32 -39 -96 -111 -141 -158 l-83 -86 29 -73 c28 -73 28 -73 38 -43 6 17 31 58 56 91 68 93 180 322 165 337 -2 3 -31 -28 -64 -68z" id="167"/>
<path d="M6738 4225 c-3 -3 -24 -9 -47 -13 -42 -7 -42 -7 -80 -97 -21 -49 -56 -120 -79 -157 -22 -38 -39 -68 -38 -68 2 0 30 16 62 35 33 20 85 45 116 57 55 20 57 22 62 62 2 22 8 74 13 114 8 66 6 81 -9 67z" id="168"/>
<path d="M1471 4150 c-2 -117 -23 -167 -167 -390 -38 -59 -54 -93 -52 -111 2 -20 35 -53 138 -138 l135 -113 7 46 c3 25 16 76 29 113 19 57 22 91 23 213 1 164 -15 239 -78 365 l-35 70 0 -55z" id="169"/>
<path d="M7042 4027 c-56 -51 -98 -93 -94 -95 4 -1 63 16 131 38 109 36 250 104 265 129 3 5 -29 8 -72 8 -42 -1 -88 1 -102 5 -21 5 -40 -7 -128 -85z" id="170"/>
<path d="M576 4063 c23 -130 43 -225 47 -229 4 -5 171 42 188 52 4 2 -4 43 -16 91 l-22 88 -59 11 c-32 7 -78 15 -102 19 l-43 6 7 -38z" id="171"/>
<path d="M482 4008 c-26 -33 -68 -89 -94 -122 l-47 -61 116 -3 c64 -1 118 0 120 2 6 6 -37 246 -43 246 -2 0 -25 -28 -52 -62z" id="172"/>
<path d="M830 3979 c0 -13 39 -118 60 -159 69 -135 153 -226 254 -275 69 -33 187 -58 185 -39 0 5 -43 45 -96 89 -52 44 -121 110 -152 146 -31 36 -75 76 -99 89 -41 22 -84 63 -129 125 -12 17 -23 27 -23 24z" id="173"/>
<path d="M6690 3948 c-29 -9 -94 -104 -129 -186 -36 -86 -23 -80 62 25 99 125 122 180 67 161z" id="174"/>
<path d="M2020 3900 c-22 -48 -72 -113 -204 -267 -75 -87 -106 -152 -106 -221 0 -69 20 -114 62 -140 88 -55 341 -112 493 -112 60 0 66 2 60 18 -11 30 -204 572 -237 667 -17 50 -34 93 -38 98 -3 4 -17 -15 -30 -43z" id="175"/>
<path d="M7028 3915 c-141 -42 -207 -76 -271 -137 -43 -41 -48 -48 -27 -44 14 4 86 9 160 13 l134 6 73 48 c40 26 94 55 121 65 65 24 69 30 30 44 -109 40 -105 40 -220 5z" id="176"/>
<path d="M6534 3866 c-33 -24 -74 -59 -93 -79 -31 -33 -33 -39 -27 -82 6 -38 10 -45 24 -40 9 4 29 11 44 17 20 7 31 22 43 56 8 26 31 75 49 110 19 34 30 62 26 62 -4 0 -34 -20 -66 -44z" id="177"/>
<path d="M7255 3852 c-53 -18 -125 -57 -164 -89 -23 -19 -22 -19 176 -52 115 -19 222 -31 256 -29 l58 3 -82 60 c-129 95 -173 125 -184 125 -5 -1 -33 -8 -60 -18z" id="178"/>
<path d="M728 3822 c-49 -14 -88 -29 -88 -34 0 -4 15 -31 33 -60 19 -29 66 -106 107 -172 l73 -119 72 79 72 78 -56 76 c-31 42 -67 99 -80 128 -14 28 -29 52 -35 51 -6 0 -50 -12 -98 -27z" id="179"/>
<path d="M1623 3733 c-4 -37 -7 -116 -7 -174 1 -87 6 -114 24 -155 l23 -49 8 63 c13 104 44 158 176 309 l52 59 -102 0 c-56 -1 -116 3 -134 7 l-31 8 -9 -68z" id="180"/>
<path d="M330 3773 c0 -6 138 -263 146 -272 8 -9 16 10 58 143 l44 136 -124 0 c-68 0 -124 -3 -124 -7z" id="181"/>
<path d="M605 3739 c-19 -50 -94 -283 -92 -284 4 -4 291 -25 294 -22 3 3 -178 301 -190 314 -4 3 -9 0 -12 -8z" id="182"/>
<path d="M6791 3711 c-11 -7 -10 -15 9 -42 78 -112 169 -189 222 -189 14 0 45 7 69 17 25 9 89 19 148 22 l105 6 -65 39 c-35 22 -88 65 -118 95 l-53 56 -152 3 c-83 2 -157 -1 -165 -7z" id="183"/>
<path d="M6700 3703 c-18 -3 -36 -20 -59 -55 -37 -56 -91 -170 -91 -191 0 -29 188 -80 273 -75 45 3 52 6 57 28 3 14 14 27 25 29 11 2 31 7 43 12 23 9 22 11 -29 49 -56 42 -115 109 -151 173 -12 20 -26 36 -32 36 -6 -1 -22 -4 -36 -6z" id="184"/>
<path d="M7204 3654 c47 -43 179 -124 203 -124 6 0 42 26 79 57 l68 58 -101 11 c-55 7 -138 19 -185 28 -46 9 -91 16 -99 16 -8 -1 8 -21 35 -46z" id="185"/>
<path d="M6472 3649 c-47 -20 -48 -22 -15 -99 l15 -35 18 51 c10 28 23 61 29 72 16 29 3 32 -47 11z" id="186"/>
<path d="M1568 3490 c-4 -14 -9 -45 -13 -70 l-7 -45 64 -51 c120 -96 201 -133 440 -199 150 -41 296 -70 306 -60 3 2 2 16 -2 30 -6 23 -11 25 -64 25 -165 0 -348 42 -502 116 -139 66 -182 113 -205 224 -9 45 -12 51 -17 30z" id="187"/>
<path d="M1194 3477 c69 -59 298 -176 396 -201 24 -7 24 -6 -6 21 -17 15 -70 61 -118 102 l-86 73 -87 8 c-49 4 -97 11 -108 15 -15 5 -12 0 9 -18z" id="188"/>
<path d="M7090 3437 c-52 -16 -89 -32 -83 -34 7 -3 95 -27 195 -53 l183 -49 42 45 c23 24 56 62 73 84 l32 40 -174 -1 c-164 -1 -178 -3 -268 -32z" id="189"/>
<path d="M7510 3383 c-36 -42 -70 -84 -77 -93 -10 -14 8 -61 107 -275 l118 -258 238 -107 238 -108 183 62 182 61 1 142 0 142 -69 118 c-66 112 -71 119 -117 137 -137 52 -716 256 -727 256 -7 0 -42 -35 -77 -77z" id="190"/>
<path d="M6535 3402 c-13 -14 0 -65 60 -227 71 -193 80 -258 49 -340 -27 -71 -27 -79 6 -131 40 -63 77 -181 89 -286 10 -82 18 -694 9 -703 -2 -3 -20 0 -39 5 -19 6 -132 31 -253 56 -120 25 -223 47 -230 50 -8 3 -11 -42 -12 -158 -1 -246 -33 -347 -179 -569 -110 -167 -140 -240 -133 -330 3 -40 1 -59 -7 -59 -29 0 -219 108 -303 171 -249 191 -423 475 -476 781 -8 43 -16 81 -19 84 -2 2 -146 -48 -319 -112 l-315 -116 -12 -73 c-15 -90 -58 -182 -151 -320 -84 -125 -137 -230 -146 -291 l-6 -44 -63 58 c-35 32 -128 96 -207 142 -88 53 -168 109 -209 147 l-65 62 -65 -21 c-38 -12 -105 -22 -163 -26 l-99 -5 -76 -64 c-157 -131 -344 -241 -496 -289 -86 -27 -241 -43 -269 -27 -14 8 -17 30 -21 139 -2 71 -11 181 -20 244 -29 217 -45 365 -45 424 l0 58 -28 -6 c-15 -4 -63 -10 -107 -13 -92 -6 -101 -12 -157 -98 -84 -128 -96 -243 -43 -415 83 -275 100 -411 74 -594 l-10 -76 40 -48 40 -47 -20 -125 c-19 -123 -21 -126 -61 -167 l-42 -43 981 0 982 0 5 32 c3 18 15 89 27 158 l21 125 48 45 c27 25 109 103 184 174 l136 128 194 37 195 37 230 -26 c225 -26 233 -28 370 -80 l139 -53 283 -216 283 -216 26 -72 25 -73 1168 0 1167 0 0 1101 0 1101 -62 -6 c-35 -3 -117 -8 -183 -12 l-120 -6 -414 155 c-458 172 -424 154 -694 362 -177 136 -165 117 -192 305 -16 112 -16 118 4 214 12 54 21 104 21 110 0 8 -33 16 -88 23 -48 6 -120 22 -160 35 -40 14 -74 22 -77 20z m459 -1193 c58 -27 55 -115 -5 -139 -63 -26 -125 36 -100 99 19 44 60 60 105 40z m930 -265 c9 -8 16 -19 16 -24 0 -11 -29 -40 -40 -40 -11 0 -40 29 -40 40 0 11 29 40 40 40 5 0 16 -7 24 -16z m-1474 -479 c26 -32 -13 -81 -47 -59 -35 22 -23 74 17 74 10 0 23 -7 30 -15z m-4215 -105 c17 -19 17 -21 0 -40 -29 -32 -75 -20 -75 20 0 40 46 52 75 20z m1336 -259 c18 -14 24 -29 24 -61 0 -49 -29 -80 -75 -80 -46 0 -75 31 -75 80 0 49 29 80 75 80 15 0 38 -9 51 -19z m1609 -31 c60 -60 23 -160 -60 -160 -62 0 -101 53 -86 115 11 42 41 65 86 65 26 0 47 -7 60 -20z m324 -246 c9 -8 16 -19 16 -24 0 -11 -29 -40 -40 -40 -11 0 -40 29 -40 40 0 11 29 40 40 40 5 0 16 -7 24 -16z m1231 -17 c8 -12 15 -40 15 -63 0 -100 -113 -145 -156 -62 -12 24 -13 36 -3 66 15 47 27 62 63 77 35 15 62 9 81 -18z m-3439 -22 c18 -28 11 -60 -17 -75 -24 -13 -55 2 -64 30 -9 27 19 70 45 70 11 0 27 -11 36 -25z m535 5 c38 -21 13 -70 -36 -70 -8 0 -21 12 -27 26 -11 22 -10 28 7 40 23 17 30 17 56 4z m-1033 -42 c28 -28 -3 -83 -33 -58 -8 7 -15 20 -15 29 0 17 18 41 30 41 3 0 11 -5 18 -12z m1318 -159 c10 -17 -13 -36 -27 -22 -12 12 -4 33 11 33 5 0 12 -5 16 -11z m-351 -109 c0 -18 -6 -26 -23 -28 -13 -2 -25 3 -28 12 -10 26 4 48 28 44 17 -2 23 -10 23 -28z" id="191"/>
<path d="M6920 3323 c-7 -32 -18 -86 -25 -120 -7 -35 -10 -63 -6 -63 20 -1 430 135 424 140 -8 6 -360 100 -375 100 -4 0 -12 -26 -18 -57z" id="192"/>
<path d="M955 3241 c-66 -18 -120 -40 -174 -70 -23 -13 -22 -14 34 -36 31 -13 75 -36 97 -52 143 -100 157 -101 340 -28 79 32 147 61 151 65 4 4 -49 36 -119 71 -112 56 -134 64 -193 66 -42 2 -92 -4 -136 -16z" id="193"/>
<path d="M7135 3177 c-137 -43 -251 -80 -253 -82 -2 -2 4 -56 14 -120 l18 -116 130 -103 c168 -132 270 -206 284 -206 10 0 253 168 279 193 10 9 -13 67 -102 261 -63 137 -116 250 -117 251 -2 1 -115 -34 -253 -78z" id="194"/>
<path d="M1310 3210 c116 -65 142 -70 214 -48 33 10 61 20 63 22 3 3 -246 51 -322 63 -22 3 -10 -7 45 -37z" id="195"/>
<path d="M1553 3144 c-38 -14 -43 -20 -57 -67 -8 -28 -14 -52 -13 -53 1 -1 32 29 68 67 69 73 70 76 2 53z" id="196"/>
<path d="M643 3070 c-68 -58 -86 -80 -64 -80 5 0 33 -16 62 -36 49 -33 58 -36 104 -30 91 10 275 48 275 56 0 4 -14 13 -30 20 -17 7 -47 26 -68 42 -51 41 -123 76 -169 83 -36 6 -43 3 -110 -55z" id="197"/>
<path d="M1332 3060 c-185 -77 -225 -107 -273 -203 -12 -23 -37 -64 -56 -91 l-35 -49 56 7 c111 13 253 83 345 170 43 40 79 106 99 179 14 49 7 48 -136 -13z" id="198"/>
<path d="M2135 3043 c-71 -18 -72 -11 24 -150 48 -70 105 -156 126 -190 l38 -63 99 0 c91 0 100 2 93 18 -4 9 -34 91 -67 182 -32 91 -63 168 -67 173 -7 7 -193 38 -215 36 -6 -1 -20 -4 -31 -6z" id="199"/>
<path d="M6505 3020 c-22 -4 -80 -13 -128 -20 -70 -10 -87 -15 -83 -27 11 -28 159 -263 166 -263 4 0 26 13 48 30 74 54 114 171 89 263 -8 29 -19 31 -92 17z" id="200"/>
<path d="M1985 2975 c-27 -19 -83 -67 -123 -108 l-74 -74 17 -34 c10 -19 31 -51 47 -71 l30 -38 199 0 c109 0 199 3 199 7 0 4 -47 77 -105 163 -113 166 -130 190 -136 190 -2 -1 -26 -16 -54 -35z" id="201"/>
<path d="M486 2939 l-58 -39 50 0 c79 0 172 12 166 22 -3 4 -27 19 -53 32 l-47 24 -58 -39z" id="202"/>
<path d="M995 2944 c-49 -13 -121 -28 -160 -35 -58 -9 -77 -18 -110 -48 -22 -20 -53 -46 -69 -57 l-29 -21 64 -21 c78 -25 159 -42 203 -42 40 0 80 39 127 125 18 33 41 73 52 88 10 16 18 29 16 31 -2 2 -44 -7 -94 -20z" id="203"/>
<path d="M4887 2465 c-731 -277 -1332 -506 -1335 -510 -3 -3 3 -40 15 -83 13 -52 24 -77 34 -76 19 2 2722 1014 2731 1022 12 12 -82 152 -100 151 -9 0 -615 -227 -1345 -504z" id="204"/>
<path d="M645 2885 c-5 -2 -54 -7 -108 -10 -55 -4 -95 -10 -90 -14 4 -4 37 -20 72 -35 l64 -27 42 21 c23 11 52 31 65 45 l23 25 -29 -1 c-16 0 -33 -2 -39 -4z" id="205"/>
<path d="M4975 2269 c-748 -281 -1363 -513 -1367 -517 -4 -4 -2 -27 4 -50 8 -33 15 -42 27 -39 21 6 2718 1006 2753 1021 l27 11 -26 43 c-14 23 -32 42 -42 41 -9 0 -628 -230 -1376 -510z" id="206"/>
<path d="M1740 2745 c-12 -13 -41 -37 -63 -52 l-40 -28 99 -6 c54 -3 100 -5 102 -4 2 2 -62 102 -72 112 -2 2 -13 -8 -26 -22z" id="207"/>
<path d="M7514 2629 c-150 -106 -139 -97 -131 -105 7 -8 718 -274 731 -274 8 0 2 259 -6 265 -9 5 -456 205 -460 205 -3 0 -63 -41 -134 -91z" id="208"/>
<path d="M6533 2548 c-33 -90 -64 -173 -68 -185 -6 -22 -4 -23 67 -23 41 0 98 -6 127 -14 l54 -14 -7 71 c-4 39 -13 100 -22 136 -14 64 -70 191 -84 191 -4 0 -34 -73 -67 -162z" id="209"/>
<path d="M6485 2659 c-13 -7 -33 -45 -59 -117 -21 -59 -53 -140 -72 -181 -19 -41 -32 -77 -29 -79 12 -12 76 66 89 108 8 25 34 98 59 163 25 64 42 117 39 116 -4 0 -16 -5 -27 -10z" id="210"/>
<path d="M1665 2597 c22 -17 55 -46 73 -64 39 -38 46 -36 112 32 58 59 50 65 -105 65 l-120 -1 40 -32z" id="211"/>
<path d="M5035 2119 c-753 -279 -1379 -512 -1390 -517 -18 -8 -28 -38 -59 -182 -21 -94 -37 -173 -35 -175 4 -3 516 186 1956 720 l752 279 40 86 c52 110 113 269 109 284 -2 9 -470 -160 -1373 -495z" id="212"/>
<path d="M8325 2571 l-170 -58 -3 -34 c-2 -19 -1 -81 3 -137 l7 -104 152 8 c83 4 159 8 169 8 16 0 17 16 17 188 0 103 -1 188 -2 187 -2 0 -79 -26 -173 -58z" id="213"/>
<path d="M1864 2545 l-70 -75 30 -29 c55 -52 139 -111 205 -143 61 -29 64 -29 74 -12 5 11 61 69 122 129 93 91 155 171 155 200 0 3 -100 5 -222 4 l-223 0 -71 -74z" id="214"/>
<path d="M2385 2562 c-20 -39 -66 -93 -150 -175 -103 -102 -118 -120 -103 -128 29 -16 165 -39 231 -39 108 0 287 39 287 62 0 14 -110 311 -118 319 -4 4 -32 9 -62 13 l-55 6 -30 -58z" id="215"/>
<path d="M1879 2313 c-15 -19 -49 -78 -49 -86 0 -2 37 -7 83 -10 122 -8 297 -64 389 -123 33 -22 52 -14 125 53 l48 44 -74 -5 c-127 -9 -247 17 -381 82 -63 31 -118 57 -121 59 -3 2 -12 -4 -20 -14z" id="216"/>
<path d="M6413 2274 c-21 -20 -53 -44 -71 -53 l-33 -17 44 -60 c25 -32 71 -84 103 -115 52 -50 65 -57 109 -62 28 -3 71 -15 98 -26 l47 -20 0 183 0 184 -44 11 c-25 6 -83 11 -130 11 -83 0 -85 0 -123 -36z" id="217"/>
<path d="M2620 2222 c-33 -16 -120 -136 -107 -148 3 -3 40 0 82 6 42 6 88 9 101 6 16 -4 24 -2 24 6 0 19 -51 148 -58 148 -4 0 -23 -8 -42 -18z" id="218"/>
<path d="M1811 2169 c-10 -33 -41 -158 -41 -170 0 -3 26 -11 58 -18 31 -7 94 -29 140 -48 l82 -35 58 32 c31 18 88 53 126 77 66 43 68 45 51 63 -42 47 -258 118 -386 127 l-77 6 -11 -34z" id="219"/>
<path d="M6261 2149 c-23 -51 -43 -199 -34 -253 5 -34 7 -35 74 -50 104 -24 97 -30 101 87 l3 102 -45 55 c-25 31 -52 67 -62 80 l-16 25 -21 -46z" id="220"/>
<path d="M2439 2122 c-41 -32 -102 -77 -135 -100 -58 -41 -62 -46 -67 -90 -3 -26 -4 -48 -3 -49 1 -1 47 28 102 65 98 65 102 69 142 147 23 43 40 81 38 82 -2 2 -36 -23 -77 -55z" id="221"/>
<path d="M6050 2106 c-91 -34 -174 -65 -185 -69 -18 -7 -17 -9 10 -28 53 -36 138 -76 228 -108 49 -17 90 -31 93 -31 2 0 4 35 4 79 0 70 11 156 26 204 3 9 2 17 -3 16 -4 0 -82 -28 -173 -63z" id="222"/>
<path d="M2585 2054 c-103 -22 -102 -21 -129 -98 -14 -39 -33 -100 -41 -135 -17 -66 -32 -231 -22 -231 3 0 22 11 42 24 20 14 73 37 118 52 124 40 153 60 205 138 l46 70 -28 80 c-16 45 -33 87 -39 94 -9 11 -105 15 -152 6z" id="223"/>
<path d="M5715 1983 c-38 -15 -73 -31 -77 -37 -3 -5 -10 -56 -13 -114 l-8 -104 44 -45 c24 -24 75 -65 113 -90 74 -50 364 -189 373 -179 10 10 32 139 33 191 0 33 -7 62 -21 85 -49 83 -323 322 -365 319 -5 0 -40 -12 -79 -26z" id="224"/>
<path d="M6436 1974 c-9 -39 -11 -142 -4 -150 8 -7 230 -56 234 -51 2 2 -48 54 -110 116 -113 113 -114 113 -120 85z" id="225"/>
<path d="M1765 1957 c-2 -7 -11 -39 -20 -72 -9 -33 -26 -76 -36 -97 -11 -21 -15 -38 -9 -38 18 0 182 66 250 100 l64 32 -28 15 c-35 19 -128 51 -179 63 -27 6 -39 5 -42 -3z" id="226"/>
<path d="M2194 1950 c-6 -6 -65 -38 -132 -73 l-121 -63 -34 -67 c-19 -37 -31 -70 -27 -72 4 -3 32 -7 61 -11 l54 -6 102 99 c97 95 102 101 109 151 7 54 5 59 -12 42z" id="227"/>
<path d="M2319 1892 c-117 -80 -278 -238 -345 -338 -67 -100 -110 -214 -124 -327 -8 -70 -7 -110 10 -241 22 -169 27 -278 15 -368 l-7 -58 54 0 c52 0 56 -2 84 -40 16 -22 32 -40 36 -40 25 -1 21 309 -5 410 -8 30 -31 111 -52 180 -59 198 -51 307 32 450 49 84 187 221 289 288 70 46 83 59 93 94 7 22 11 42 8 44 -2 2 -41 -22 -88 -54z" id="228"/>
<path d="M5366 1852 l-228 -85 6 -56 c7 -58 42 -206 55 -229 5 -9 19 5 46 43 58 85 165 178 259 226 l83 43 6 70 c4 39 5 71 4 72 -1 1 -105 -37 -231 -84z" id="229"/>
<path d="M6625 1861 c44 -44 81 -81 82 -81 2 0 3 24 3 54 0 54 0 54 -44 76 -24 11 -62 24 -83 27 l-38 5 80 -81z" id="230"/>
<path d="M3333 1832 c-89 -53 -162 -102 -163 -107 0 -23 67 -89 114 -111 69 -32 141 -32 234 2 39 15 72 29 72 33 -2 28 -77 275 -85 278 -6 1 -83 -41 -172 -95z" id="231"/>
<path d="M6092 1808 l83 -83 3 35 c5 63 -7 79 -83 106 -39 13 -74 24 -78 24 -5 0 29 -37 75 -82z" id="232"/>
<path d="M2815 1807 c-4 -10 -5 -55 -3 -100 4 -65 18 -119 66 -262 69 -204 84 -273 85 -397 1 -49 4 -88 7 -88 16 1 250 181 250 194 0 2 -24 16 -54 30 -60 29 -124 93 -155 154 -11 22 -55 132 -97 244 -103 274 -91 247 -99 225z" id="233"/>
<path d="M2308 1768 c-25 -18 -67 -52 -93 -75 l-48 -43 62 0 c34 0 77 7 96 14 29 12 35 20 35 44 0 16 3 44 6 61 8 39 -1 39 -58 -1z" id="234"/>
<path d="M1798 1756 c-43 -17 -78 -33 -78 -36 0 -7 84 -30 109 -30 11 0 28 18 45 50 32 59 30 59 -76 16z" id="235"/>
<path d="M2748 1739 c-43 -73 -115 -257 -153 -391 -41 -144 -44 -218 -15 -332 20 -81 68 -196 80 -196 18 0 123 41 192 75 85 42 88 47 88 141 0 100 -26 220 -89 410 -42 123 -63 204 -68 259 l-8 80 -27 -46z" id="236"/>
<path d="M5524 1734 c-68 -36 -100 -60 -168 -124 -57 -54 -136 -158 -136 -180 0 -15 67 -146 108 -210 41 -64 144 -192 150 -186 2 3 23 52 47 109 23 58 58 134 78 169 l36 64 -19 109 c-11 61 -22 147 -26 193 -4 45 -10 82 -14 82 -4 0 -29 -12 -56 -26z" id="237"/>
<path d="M2670 1680 c-8 -4 -51 -20 -96 -34 -102 -33 -171 -76 -180 -112 -4 -14 3 -106 15 -203 28 -224 32 -251 40 -251 3 1 19 11 34 23 24 20 34 47 72 193 41 159 84 284 121 355 17 34 16 41 -6 29z" id="238"/>
<path d="M5634 1604 c4 -38 19 -132 34 -209 l27 -140 88 -43 c53 -26 106 -62 137 -92 l51 -49 64 97 c66 101 112 200 98 212 -4 4 -68 35 -141 68 -154 70 -220 108 -304 176 l-61 48 7 -68z" id="239"/>
<path d="M3131 1469 c-11 -165 -11 -183 4 -199 23 -26 102 -58 162 -65 58 -8 187 11 203 29 9 11 80 308 80 335 0 5 -33 -2 -72 -15 -122 -42 -236 -21 -325 60 l-40 35 -12 -180z" id="240"/>
<path d="M0 1269 l0 -274 203 -36 202 -37 147 75 c80 41 153 80 161 86 13 10 -39 46 -309 212 -179 110 -343 211 -365 224 l-39 23 0 -273z" id="241"/>
<path d="M4355 1479 c-27 -11 -57 -22 -65 -25 -10 -4 7 -16 45 -33 33 -16 63 -25 67 -22 12 10 22 101 12 100 -5 -1 -31 -10 -59 -20z" id="242"/>
<path d="M4108 1387 c-48 -18 -89 -35 -93 -38 -3 -4 10 -53 29 -110 l35 -104 62 -43 c34 -24 63 -42 64 -40 2 2 34 48 70 103 66 98 115 185 115 203 0 17 -116 62 -156 61 -22 0 -78 -15 -126 -32z" id="243"/>
<path d="M3815 1278 c-88 -32 -162 -62 -165 -64 -10 -11 108 -110 186 -156 l79 -46 31 59 c18 33 44 75 58 93 l25 34 -21 63 c-11 35 -23 67 -27 70 -3 4 -78 -20 -166 -53z" id="244"/>
<path d="M5608 1264 c-20 -38 -52 -111 -72 -163 l-37 -94 43 -38 c84 -74 298 -212 298 -192 0 5 -24 69 -54 143 -30 74 -71 189 -91 255 -20 66 -40 129 -44 139 -6 15 -14 5 -43 -50z" id="245"/>
<path d="M5710 1205 c0 -7 69 -195 107 -292 20 -51 39 -90 43 -88 4 3 10 22 14 43 3 22 21 70 40 108 39 77 38 83 -24 137 -60 51 -180 113 -180 92z" id="246"/>
<path d="M4013 1133 c-11 -15 -32 -51 -47 -80 l-26 -52 63 -42 c34 -23 72 -51 85 -62 12 -11 22 -16 22 -11 0 22 -62 260 -69 267 -5 5 -18 -4 -28 -20z" id="247"/>
<path d="M2497 957 c-20 -81 -37 -149 -37 -152 0 -7 120 -6 147 1 22 6 22 6 4 43 -26 50 -51 125 -65 195 l-13 60 -36 -147z" id="248"/>
<path d="M4093 1077 c2 -7 13 -48 22 -91 l18 -79 28 54 27 54 -40 38 c-41 37 -64 48 -55 24z" id="249"/>
<path d="M2472 1061 c-21 -15 -23 -24 -20 -86 l3 -70 22 85 c12 46 21 85 20 87 -1 1 -13 -6 -25 -16z" id="250"/>
<path d="M596 980 c-82 -43 -152 -82 -156 -87 -4 -4 16 -100 44 -213 l51 -205 160 -26 c88 -15 162 -25 164 -23 2 2 -15 120 -38 261 -61 365 -62 373 -70 372 -3 -1 -73 -36 -155 -79z" id="251"/>
<path d="M0 481 l0 -481 93 0 94 0 157 232 157 231 -52 212 -52 212 -181 32 c-100 18 -189 35 -198 37 -17 5 -18 -22 -18 -475z" id="252"/>
<path d="M4763 620 c-26 -33 -46 -63 -44 -67 12 -22 224 -170 239 -167 9 2 82 16 162 30 80 14 148 28 151 30 7 4 -21 166 -30 176 -3 4 -85 16 -181 27 -96 11 -191 23 -212 26 -34 5 -38 2 -85 -55z" id="253"/>
<path d="M4620 644 c-36 -8 -69 -16 -75 -18 -5 -2 23 -13 62 -25 l73 -22 30 33 c16 18 30 36 30 41 0 10 -45 7 -120 -9z" id="254"/>
<path d="M4280 451 l-165 -158 55 -64 c30 -35 54 -65 55 -66 1 -4 320 77 334 85 10 6 100 265 101 293 0 5 -197 69 -210 69 -3 0 -79 -72 -170 -159z" id="255"/>
<path d="M5290 591 c0 -22 19 -123 24 -128 2 -2 38 15 80 38 42 23 76 43 74 45 -4 3 -167 64 -174 64 -2 0 -4 -8 -4 -19z" id="256"/>
<path d="M4665 433 c-14 -49 -33 -108 -41 -132 -7 -25 -14 -51 -14 -59 0 -8 28 -66 63 -128 l62 -114 108 0 109 0 -6 48 c-3 26 -10 101 -16 167 -6 66 -13 125 -15 132 -3 9 -174 144 -212 166 -8 5 -20 -20 -38 -80z" id="257"/>
<path d="M5430 479 c-41 -23 -81 -44 -88 -48 -10 -6 20 -46 104 -144 l118 -137 225 0 c123 0 222 2 220 4 -33 31 -484 366 -493 366 -6 0 -45 -19 -86 -41z" id="258"/>
<path d="M1623 459 c-66 -54 -68 -56 -54 -78 7 -11 35 -4 151 38 79 28 152 57 164 63 20 11 20 11 1 19 -11 4 -60 8 -110 8 l-90 0 -62 -50z" id="259"/>
<path d="M1935 479 c-4 -6 -5 -11 -4 -13 26 -17 60 -36 64 -36 4 0 -3 14 -15 30 -23 32 -35 37 -45 19z" id="260"/>
<path d="M424 283 c-59 -87 -127 -186 -150 -221 l-43 -62 127 0 127 0 175 186 c96 103 176 190 178 194 1 4 -59 17 -135 29 -76 12 -146 24 -155 27 -12 4 -44 -35 -124 -153z" id="261"/>
<path d="M1745 390 c-71 -27 -133 -50 -138 -52 -12 -5 139 -243 154 -242 13 1 329 221 329 228 0 8 -190 116 -202 115 -7 0 -71 -23 -143 -49z" id="262"/>
<path d="M5116 379 c-81 -15 -151 -30 -153 -33 -3 -3 1 -82 8 -175 l13 -171 243 0 243 0 32 65 32 64 -20 23 c-11 13 -67 76 -123 141 -56 64 -108 117 -114 116 -7 -1 -79 -14 -161 -30z" id="263"/>
<path d="M1502 358 c-7 -7 -12 -40 -12 -77 0 -72 6 -71 39 7 17 42 20 57 10 68 -14 17 -21 18 -37 2z" id="264"/>
<path d="M1535 209 c-42 -102 -45 -89 39 -158 l49 -40 49 25 c26 13 48 26 48 29 0 5 -141 235 -145 235 -1 0 -19 -41 -40 -91z" id="265"/>
<path d="M1941 168 c-96 -67 -138 -103 -129 -108 7 -4 46 -15 86 -25 l74 -18 47 47 c45 44 48 52 59 123 7 42 11 78 9 80 -2 1 -68 -43 -146 -99z" id="266"/>
<path d="M4096 229 c-9 -38 -36 -203 -36 -216 0 -30 31 -9 79 53 28 37 51 70 51 74 0 7 -53 75 -80 104 -5 5 -11 -1 -14 -15z" id="267"/>
<path d="M4388 166 l-157 -41 -46 -60 -47 -60 272 -3 c150 -1 275 -1 276 1 2 2 -21 49 -52 105 -38 69 -61 102 -72 101 -10 -1 -88 -20 -174 -43z" id="268"/>
<path d="M5537 55 l-27 -55 299 0 299 0 -21 55 -20 55 -251 0 -252 0 -27 -55z" id="269"/>
<path d="M1710 15 c-23 -13 -17 -14 70 -14 93 1 94 1 55 14 -53 18 -94 18 -125 0z" id="270"/>
</g>
</svg>