<?xml version="1.0" ?><!DOCTYPE svg  PUBLIC '-//W3C//DTD SVG 20010904//EN'  'http://www.w3.org/TR/2001/REC-SVG-20010904/DTD/svg10.dtd'><svg height="850.000000pt" preserveAspectRatio="xMidYMid meet" version="1.0" viewBox="0 0 850.000000 850.000000" width="850.000000pt" xmlns="http://www.w3.org/2000/svg">
<metadata>
Created by potrace 1.14, written by Peter Selinger 2001-2017
</metadata>
<g fill="#ffffff" stroke="none" transform="translate(0.000000,850.000000) scale(0.100000,-0.100000)">
<path d="M0 7605 l0 -895 68 -77 c100 -113 334 -335 343 -326 4 4 55 138 113 296 97 267 104 292 99 342 -5 44 -2 58 16 83 11 17 21 39 21 51 0 11 9 40 19 63 11 24 23 59 26 79 8 52 43 99 90 121 95 45 89 39 125 118 4 8 15 17 25 19 16 3 17 -3 12 -60 -7 -58 -5 -65 24 -110 41 -65 47 -114 20 -167 -12 -23 -21 -56 -21 -75 0 -19 -11 -54 -24 -79 -13 -25 -27 -59 -31 -77 -4 -19 -21 -43 -41 -59 -24 -18 -40 -43 -51 -79 -9 -29 -14 -55 -11 -59 4 -3 57 -10 120 -15 191 -16 410 -58 590 -112 l46 -15 36 37 c75 77 118 233 97 352 -12 72 -32 100 -59 83 -9 -6 -37 -51 -61 -100 -24 -49 -45 -84 -47 -79 -4 13 -34 721 -34 804 0 79 14 77 43 -9 35 -102 98 -129 146 -61 47 66 52 288 10 522 -11 66 -19 122 -17 124 2 2 50 -1 107 -7 75 -8 130 -8 203 1 56 6 103 10 104 8 2 -2 -5 -34 -16 -71 -78 -273 -95 -524 -42 -596 46 -61 110 -22 186 114 27 47 52 83 57 80 5 -3 9 -156 9 -340 0 -184 2 -334 4 -334 3 0 38 25 78 55 40 30 128 83 196 117 l123 63 -6 35 c-10 61 -54 138 -106 184 -54 49 -63 81 -26 95 37 14 552 22 566 8 19 -19 12 -42 -20 -73 -49 -45 -89 -105 -89 -131 0 -25 9 -25 120 -4 l35 7 6 117 c3 64 9 120 12 123 3 4 29 -14 58 -39 106 -93 247 -142 337 -119 79 21 150 92 172 171 15 53 12 187 -6 261 -8 36 -35 107 -60 158 -25 52 -44 95 -42 97 2 2 161 -5 353 -16 193 -10 360 -19 373 -19 25 0 29 -22 7 -40 -35 -29 -134 -192 -156 -256 -26 -80 -32 -215 -10 -277 32 -93 129 -157 238 -157 34 0 68 3 77 6 33 13 12 86 -38 133 -14 14 -26 33 -26 42 0 37 34 42 189 30 184 -15 388 -38 401 -46 21 -13 7 -40 -54 -105 -79 -84 -108 -152 -108 -255 0 -92 26 -162 71 -192 48 -32 62 -29 94 22 29 45 80 95 98 95 6 0 21 -12 36 -26 28 -28 23 -30 103 42 40 36 69 47 89 35 11 -7 13 -32 8 -128 -7 -136 -44 -454 -58 -489 -11 -32 -42 -31 -66 2 -13 17 -24 23 -36 18 -24 -9 -22 -16 23 -73 33 -41 46 -51 71 -51 66 0 143 58 174 133 15 37 15 37 -9 37 -32 0 -74 45 -82 87 -15 78 17 150 74 168 22 6 32 15 32 30 0 24 55 142 77 168 26 28 59 22 74 -15 l13 -32 7 34 c4 19 18 117 30 218 24 192 38 224 59 140 17 -66 32 -100 41 -91 23 23 42 216 43 430 1 164 4 223 13 223 31 0 169 -22 175 -29 4 -4 2 -43 -6 -86 -8 -44 -31 -204 -51 -356 l-36 -277 24 -26 c34 -37 51 -104 44 -176 -11 -98 -47 -163 -107 -195 -23 -12 -27 -24 -48 -160 -13 -81 -22 -149 -20 -151 2 -2 47 19 100 46 181 91 324 196 603 441 77 67 184 158 238 201 260 207 587 383 899 484 49 15 88 32 88 36 0 20 -77 128 -91 128 -25 0 -66 37 -74 67 -3 15 -17 40 -31 56 -13 16 -27 41 -30 55 -7 35 -19 60 -49 101 -29 39 -31 71 -9 132 8 24 14 64 12 89 -3 40 -1 45 20 48 12 2 22 -1 22 -6 0 -13 45 -29 103 -37 56 -8 112 -51 135 -105 8 -19 29 -51 47 -71 18 -20 36 -51 40 -68 4 -17 20 -44 36 -61 25 -25 29 -36 27 -72 -2 -41 10 -63 253 -438 141 -217 268 -413 283 -434 l26 -39 0 677 0 676 -4250 0 -4250 0 0 -895z" id="1"/>
<path d="M7535 8428 c3 -13 -3 -52 -15 -87 -16 -52 -18 -71 -10 -97 18 -53 36 -61 55 -25 25 50 87 85 151 85 60 1 65 9 33 50 -27 35 -62 52 -124 60 -27 4 -60 14 -73 22 -21 14 -22 14 -17 -8z" id="2"/>
<path d="M7638 8258 c-65 -37 -86 -114 -48 -175 11 -18 22 -33 24 -33 2 0 14 15 26 34 27 44 108 86 167 86 48 0 55 13 27 56 -37 56 -129 71 -196 32z" id="3"/>
<path d="M1726 8213 c-1 -1 6 -49 15 -105 36 -212 33 -432 -6 -508 -35 -68 -114 -84 -167 -33 l-31 28 6 -100 c4 -55 10 -193 13 -307 4 -115 10 -208 13 -208 3 0 18 21 33 45 44 73 94 71 125 -4 22 -52 19 -202 -5 -278 -24 -75 -70 -150 -112 -181 -35 -26 -38 -54 -10 -82 18 -18 20 -33 20 -154 0 -106 -3 -136 -15 -146 -8 -7 -15 -21 -15 -31 0 -35 95 -49 535 -79 576 -39 1892 -153 2480 -216 346 -36 988 -111 1041 -120 42 -8 58 14 50 68 -4 27 1 84 14 153 71 385 194 1160 255 1605 24 184 49 359 53 388 10 59 15 55 -79 67 l-45 6 4 -113 c7 -174 -19 -440 -50 -520 -14 -38 -44 -36 -68 5 -11 17 -20 28 -20 22 0 -10 -63 -448 -76 -530 l-7 -40 35 33 c37 35 59 40 77 18 16 -19 -10 -179 -45 -284 -47 -143 -101 -228 -169 -267 -130 -77 -304 -9 -385 149 -30 58 -36 81 -39 149 -3 64 -1 79 10 75 8 -3 16 -13 18 -24 12 -67 99 -12 108 69 7 56 -15 100 -58 117 -27 11 -36 11 -58 -1 -14 -8 -30 -25 -36 -37 -14 -31 -20 -28 -38 18 -31 79 -124 88 -168 16 -37 -61 -17 -145 42 -177 26 -13 56 -3 62 21 10 37 30 23 24 -16 -9 -57 -47 -125 -100 -181 -212 -225 -599 -191 -723 63 -54 110 -54 267 -1 345 41 60 70 74 156 74 69 0 85 -4 152 -37 40 -20 98 -58 127 -84 29 -25 54 -45 56 -43 2 2 13 101 25 219 12 118 31 278 41 354 11 77 19 141 17 142 -1 2 -25 -11 -52 -28 -296 -186 -577 -90 -578 197 -1 136 35 239 130 373 25 34 43 62 41 63 -7 2 -643 36 -646 34 -1 -1 12 -33 29 -70 67 -148 88 -324 52 -434 -20 -62 -80 -134 -137 -163 -31 -16 -58 -22 -111 -21 -85 0 -160 27 -252 90 -36 24 -66 43 -68 41 -1 -2 -5 -64 -9 -138 -3 -74 -11 -200 -16 -280 -5 -80 -10 -171 -10 -203 l0 -58 45 31 c118 81 281 126 365 101 51 -15 106 -63 127 -110 23 -51 23 -182 0 -247 -39 -114 -121 -196 -234 -236 -245 -86 -531 46 -603 279 -24 78 -25 103 -5 103 9 0 15 -9 15 -24 0 -35 37 -76 69 -76 108 0 141 193 41 245 -37 19 -63 19 -100 0 -35 -18 -60 -62 -60 -105 0 -20 -5 -30 -15 -30 -8 0 -15 7 -15 16 0 32 -33 84 -65 104 -62 38 -140 17 -170 -46 -19 -40 -19 -54 1 -104 20 -49 61 -80 106 -80 41 1 67 19 77 56 4 15 13 30 21 32 21 7 4 -83 -29 -155 -105 -224 -387 -313 -583 -183 -100 66 -151 173 -152 320 -1 144 35 220 105 220 21 0 42 -16 90 -70 34 -39 63 -69 63 -68 1 2 -1 172 -4 378 l-5 375 -33 -52 c-86 -134 -173 -149 -223 -39 -35 77 -23 274 31 501 10 44 22 89 26 99 7 18 3 19 -87 14 -52 -4 -129 -3 -172 1 -43 4 -79 6 -81 4z m4209 -243 c3 -5 -1 -10 -9 -10 -9 0 -16 5 -16 10 0 6 4 10 9 10 6 0 13 -4 16 -10z m-4025 -49 c22 -43 9 -127 -23 -137 -29 -9 -47 20 -47 74 0 53 14 82 40 82 11 0 24 -9 30 -19z m2103 -52 c47 -21 61 -90 27 -127 -28 -30 -62 -36 -98 -18 -60 31 -58 111 3 144 26 14 38 15 68 1z m-2115 -141 c15 -15 16 -102 2 -129 -25 -45 -60 -9 -60 61 0 67 27 99 58 68z m2125 -68 c13 -11 28 -31 31 -45 8 -33 -18 -95 -41 -96 -53 -3 -80 4 -100 27 -66 73 33 175 110 114z m-753 -131 c0 -5 -4 -9 -10 -9 -5 0 -10 7 -10 16 0 8 5 12 10 9 6 -3 10 -10 10 -16z m-1331 -58 c53 -56 68 -188 32 -268 -47 -102 -150 -78 -187 42 -26 87 -14 170 32 225 35 41 85 42 123 1z m2096 -12 c23 -7 57 -28 81 -53 87 -86 83 -212 -9 -293 -103 -90 -251 -62 -312 60 -40 82 -29 165 33 231 54 58 127 77 207 55z m-1940 -102 c20 -80 -17 -168 -51 -123 -16 23 -19 98 -4 127 15 27 48 24 55 -4z m102 -8 c20 -39 16 -103 -8 -125 -21 -19 -21 -18 -40 5 -24 29 -25 98 -3 129 19 27 34 24 51 -9z m1288 6 c27 -26 33 -72 14 -106 -26 -50 -116 -43 -144 12 -42 81 66 159 130 94z m-1815 -70 c0 -66 -19 -100 -42 -77 -20 20 -22 109 -4 138 27 40 46 16 46 -61z m74 69 c13 -33 6 -121 -10 -135 -14 -11 -18 -10 -30 6 -17 23 -18 117 -2 133 17 17 35 15 42 -4z m1931 10 c19 -8 45 -55 45 -82 0 -11 -9 -31 -21 -46 -45 -57 -149 -19 -149 54 0 58 65 96 125 74z m732 -66 c30 -28 32 -89 3 -118 -31 -31 -93 -27 -119 6 -63 80 42 181 116 112z m208 -13 c41 -40 28 -107 -26 -136 -33 -17 -88 7 -105 47 -35 83 68 153 131 89z m1253 -139 c4 -59 -13 -106 -39 -106 -39 0 -51 67 -23 127 13 25 22 33 38 31 18 -3 22 -11 24 -52z m-3623 -86 c-3 -5 -14 -10 -23 -10 -15 0 -15 2 -2 10 20 13 33 13 25 0z m-345 -29 c15 -29 12 -104 -4 -127 -30 -40 -73 26 -60 91 11 55 44 73 64 36z m2115 -66 c46 -45 26 -127 -34 -140 -52 -11 -100 27 -100 80 0 73 84 111 134 60z m-2121 -137 c20 -28 21 -108 2 -133 -30 -41 -72 17 -63 88 5 37 22 67 38 67 4 0 15 -10 23 -22z m2101 -54 c46 -18 54 -109 12 -139 -50 -35 -137 0 -137 55 0 26 25 77 42 83 19 8 64 8 83 1z m-2087 -331 c3 -82 8 -113 17 -113 19 0 36 -25 29 -44 -3 -9 -12 -16 -20 -16 -8 0 -20 -16 -29 -36 -18 -44 -45 -43 -58 3 -7 21 -17 33 -31 35 -33 5 -34 46 -2 54 26 6 26 7 26 111 0 75 4 112 16 135 l16 30 16 -23 c11 -17 17 -54 20 -136z m972 21 l50 -85 -47 -80 c-26 -43 -50 -79 -53 -79 -3 0 -27 36 -53 79 -43 70 -47 82 -37 103 20 38 84 148 87 148 1 0 25 -39 53 -86z m1088 -116 c-3 -114 -2 -117 20 -128 29 -13 25 -40 -8 -57 -14 -7 -27 -23 -30 -35 -9 -35 -43 -30 -54 8 -5 17 -19 35 -30 40 -29 12 -26 36 5 51 25 12 26 18 33 115 8 116 30 173 54 141 10 -13 12 -49 10 -135z m-2250 -21 c10 -51 -22 -87 -59 -67 -22 12 -26 59 -7 78 18 18 62 11 66 -11z m3398 -69 c18 -40 34 -78 34 -84 0 -10 -74 -119 -101 -148 -7 -8 -89 142 -89 164 0 6 23 45 51 86 35 52 54 73 61 66 6 -6 25 -43 44 -84z m-2967 51 c9 -27 8 -33 -15 -56 -23 -23 -27 -24 -47 -10 -25 16 -34 61 -16 83 6 8 24 14 39 14 22 0 30 -6 39 -31z m1555 -65 c32 -31 10 -94 -32 -94 -28 0 -62 29 -62 52 0 49 61 76 94 42z m514 -26 c7 -7 12 -24 12 -38 0 -33 -17 -50 -51 -50 -29 0 -59 23 -59 43 0 7 7 23 16 35 17 24 62 30 82 10z" id="4"/>
<path d="M1866 7914 c-3 -8 -6 -33 -6 -54 0 -54 9 -74 26 -59 8 7 14 31 14 59 0 50 -22 86 -34 54z" id="5"/>
<path d="M3937 7842 c-36 -40 -10 -112 40 -112 11 0 33 10 48 21 22 18 26 27 21 53 -4 17 -14 37 -23 44 -24 18 -67 15 -86 -6z" id="6"/>
<path d="M1856 7686 c-7 -35 7 -86 23 -86 14 0 21 41 14 83 -7 46 -29 48 -37 3z" id="7"/>
<path d="M3926 7638 c-22 -31 -20 -64 4 -88 41 -41 110 -13 110 44 0 41 -26 66 -68 66 -21 0 -36 -7 -46 -22z" id="8"/>
<path d="M1835 7464 c-86 -93 -31 -335 69 -310 84 21 99 217 24 302 -36 41 -61 43 -93 8z" id="9"/>
<path d="M3905 7434 c-119 -61 -147 -194 -62 -291 130 -148 370 -18 317 172 -14 49 -60 102 -107 121 -43 19 -111 17 -148 -2z" id="10"/>
<path d="M2053 7354 c-10 -25 -9 -84 1 -109 7 -20 8 -20 22 -1 19 26 18 100 -1 116 -12 10 -16 9 -22 -6z" id="11"/>
<path d="M2154 7347 c-9 -24 0 -110 13 -114 17 -6 34 57 25 91 -9 33 -29 45 -38 23z" id="12"/>
<path d="M3400 7357 c-38 -19 -49 -61 -23 -95 26 -35 70 -40 101 -12 55 52 -10 141 -78 107z" id="13"/>
<path d="M1635 7339 c-9 -25 -2 -114 10 -114 14 0 19 90 6 112 -9 16 -10 16 -16 2z" id="14"/>
<path d="M1707 7323 c-7 -38 3 -95 17 -90 15 5 15 109 0 114 -6 2 -14 -9 -17 -24z" id="15"/>
<path d="M3596 7339 c-32 -25 -35 -70 -6 -99 54 -54 141 11 105 79 -23 46 -57 53 -99 20z" id="16"/>
<path d="M4316 7289 c-32 -25 -35 -70 -6 -99 40 -40 110 -9 110 50 0 29 -38 70 -65 70 -7 0 -24 -9 -39 -21z" id="17"/>
<path d="M4515 7275 c-14 -13 -25 -33 -25 -45 0 -27 43 -70 70 -70 12 0 32 11 46 26 30 29 27 67 -8 97 -28 24 -55 21 -83 -8z" id="18"/>
<path d="M5820 7144 c-13 -39 -6 -88 12 -82 27 9 34 118 9 118 -5 0 -15 -16 -21 -36z" id="19"/>
<path d="M1856 7015 c-11 -29 -7 -80 8 -100 13 -19 15 -18 23 15 11 39 3 92 -14 97 -6 2 -13 -3 -17 -12z" id="20"/>
<path d="M3917 6952 c-10 -10 -17 -32 -17 -49 0 -64 74 -84 113 -31 20 27 20 29 4 63 -14 30 -22 35 -50 35 -20 0 -41 -7 -50 -18z" id="21"/>
<path d="M1856 6814 c-9 -23 -7 -87 3 -103 23 -36 50 43 32 92 -12 30 -26 35 -35 11z" id="22"/>
<path d="M3916 6749 c-33 -26 -34 -68 -3 -97 29 -27 61 -28 87 -2 31 31 30 75 -2 103 -27 22 -49 22 -82 -4z" id="23"/>
<path d="M1864 6565 c-4 -10 -8 -71 -8 -134 -1 -112 -2 -116 -23 -119 -30 -4 -29 -20 1 -32 13 -5 26 -20 30 -35 8 -31 26 -24 26 10 0 17 6 25 22 27 31 4 33 25 3 32 -25 6 -25 6 -25 124 0 116 -11 168 -26 127z" id="24"/>
<path d="M2787 6455 l-37 -76 37 -69 c21 -38 40 -70 43 -70 3 0 21 31 41 68 l36 68 -39 77 c-21 42 -39 77 -41 77 -1 0 -19 -34 -40 -75z" id="25"/>
<path d="M3932 6455 c-7 -14 -12 -67 -12 -116 0 -85 -12 -135 -28 -125 -13 8 -35 -11 -28 -23 4 -6 16 -11 27 -11 15 0 19 -7 19 -31 0 -35 23 -36 28 -1 2 13 13 24 28 28 30 8 31 24 3 31 -21 6 -21 9 -15 127 7 126 -1 168 -22 121z" id="26"/>
<path d="M1661 6322 c-7 -14 -6 -24 4 -38 13 -18 15 -18 32 -1 13 13 15 21 7 34 -16 25 -31 27 -43 5z" id="27"/>
<path d="M5021 6258 c-22 -33 -41 -65 -41 -70 0 -5 14 -39 31 -76 l30 -67 29 35 c16 19 37 49 46 66 17 31 17 33 -11 98 -16 37 -32 69 -35 71 -4 3 -26 -23 -49 -57z" id="28"/>
<path d="M2087 6323 c-10 -10 -8 -61 2 -67 15 -10 40 4 46 25 10 32 -27 64 -48 42z" id="29"/>
<path d="M3640 6235 c-19 -23 -4 -65 23 -65 43 0 60 35 31 64 -19 20 -38 20 -54 1z" id="30"/>
<path d="M4152 6208 c-32 -32 -1 -75 42 -58 40 15 29 70 -14 70 -9 0 -21 -5 -28 -12z" id="31"/>
<path d="M7745 8135 c-78 -28 -123 -102 -95 -156 16 -28 30 -23 30 10 0 38 41 86 86 101 46 15 114 7 131 -16 7 -10 15 -15 18 -12 9 8 -14 53 -34 65 -31 19 -94 23 -136 8z" id="32"/>
<path d="M7790 8073 c-40 -13 -63 -30 -77 -56 -14 -28 -13 -32 38 -115 29 -48 54 -89 55 -91 2 -2 19 10 37 26 19 16 55 38 80 49 26 10 47 23 47 27 0 4 -22 41 -49 81 -54 79 -81 96 -131 79z" id="33"/>
<path d="M7930 7864 c-48 -21 -100 -62 -100 -80 0 -12 16 -43 37 -73 1 -2 19 11 40 29 20 18 56 41 80 52 24 10 43 21 43 24 0 3 -8 19 -17 35 -19 33 -33 35 -83 13z" id="34"/>
<path d="M7994 7770 c-41 -20 -104 -75 -104 -90 0 -8 273 -463 291 -486 6 -7 22 1 50 27 22 21 61 47 86 59 30 14 43 26 39 35 -7 18 -275 434 -294 458 -19 21 -18 21 -68 -3z" id="35"/>
<path d="M7665 7731 c-180 -62 -485 -200 -485 -220 0 -7 501 -234 505 -229 3 4 105 470 105 481 0 10 -5 9 -125 -32z" id="36"/>
<path d="M7797 7674 c-9 -38 -32 -145 -53 -239 -20 -93 -40 -174 -44 -179 -5 -4 -123 44 -264 108 -140 64 -260 116 -265 116 -10 0 -8 -233 4 -433 3 -56 1 -79 -8 -82 -7 -3 -136 17 -287 45 -151 27 -279 50 -284 50 -6 0 -6 -105 -2 -270 l7 -270 -28 0 c-15 1 -144 22 -286 49 -142 26 -260 44 -262 40 -3 -4 -13 -125 -22 -268 -19 -299 -7 -276 -123 -241 -119 36 -113 41 -138 -117 -14 -90 -20 -156 -16 -189 6 -44 3 -55 -14 -72 l-21 -21 55 -98 c30 -54 57 -106 60 -115 3 -10 12 -18 19 -18 24 0 242 97 365 162 135 71 254 147 363 231 87 67 85 59 36 166 -16 35 -27 66 -24 69 3 3 33 -22 66 -56 34 -34 68 -62 76 -62 8 0 141 103 297 230 l282 230 23 161 c24 174 28 189 43 189 7 0 8 -14 4 -37 -21 -123 -37 -240 -34 -258 3 -19 17 -11 123 72 231 182 483 339 688 430 56 24 103 46 105 48 3 3 -397 665 -413 684 -11 11 -16 0 -28 -55z" id="37"/>
<path d="M4501 7651 c-12 -8 -8 -17 22 -50 24 -27 39 -55 43 -81 4 -22 12 -40 18 -40 19 0 132 57 188 94 62 42 83 46 75 14 -11 -41 -26 -151 -47 -323 l-20 -170 82 -76 c81 -75 82 -76 128 -71 25 2 47 6 49 8 2 2 1 18 -3 37 -5 27 -12 36 -34 40 -121 24 -167 240 -85 401 14 27 50 76 81 108 30 32 53 61 49 64 -8 8 -127 22 -332 39 -210 18 -196 17 -214 6z" id="38"/>
<path d="M2785 7640 c-121 -4 -221 -7 -222 -8 -11 -8 4 -31 42 -65 49 -42 85 -104 105 -176 10 -37 14 -42 33 -37 12 3 72 20 133 38 l111 33 18 49 c10 29 37 71 67 102 27 29 47 58 43 63 -3 6 -30 10 -58 9 -29 -1 -151 -5 -272 -8z" id="39"/>
<path d="M6990 7396 c-120 -81 -380 -289 -380 -305 0 -10 528 -107 536 -98 12 12 -7 487 -20 487 -6 0 -67 -38 -136 -84z" id="40"/>
<path d="M917 7401 c-13 -32 -24 -42 -71 -61 -63 -25 -116 -78 -116 -115 0 -22 2 -24 26 -15 60 23 135 3 184 -51 l29 -33 16 37 c18 45 12 75 -27 137 -25 38 -29 52 -24 93 3 26 4 47 2 47 -2 0 -11 -17 -19 -39z" id="41"/>
<path d="M3097 7419 c-227 -33 -468 -127 -663 -257 -140 -94 -138 -92 -130 -213 3 -59 2 -99 -3 -97 -5 1 -27 27 -50 56 -23 28 -45 52 -50 52 -16 0 -141 -142 -147 -167 -15 -59 47 -177 122 -232 124 -91 326 -78 448 29 40 36 90 103 105 143 9 24 9 24 -33 20 -55 -7 -98 15 -133 68 -67 102 -1 239 115 239 29 0 29 0 24 50 -8 85 51 200 103 200 52 0 132 -132 121 -200 l-6 -37 42 -6 c78 -10 128 -72 128 -157 0 -86 -69 -166 -137 -158 -18 2 -33 2 -33 1 0 -20 49 -88 91 -129 157 -147 421 -165 572 -38 101 85 150 237 116 359 -15 54 -74 111 -124 121 -93 17 -246 -32 -355 -115 -30 -22 -59 -41 -64 -41 -9 0 -5 150 11 413 3 62 2 106 -3 106 -5 -1 -35 -5 -67 -10z" id="42"/>
<path d="M2777 7263 c-42 -47 -61 -149 -36 -195 6 -12 26 -36 44 -54 l33 -33 36 47 c42 54 51 79 42 127 -8 39 -64 118 -87 123 -8 1 -23 -5 -32 -15z" id="43"/>
<path d="M8315 7251 c-27 -16 -63 -43 -79 -60 -26 -27 -28 -33 -17 -58 7 -15 18 -37 26 -47 14 -18 16 -17 60 23 26 24 67 52 91 63 43 19 45 21 31 41 -8 12 -20 32 -28 45 -18 28 -24 28 -84 -7z" id="44"/>
<path d="M5928 7098 c-15 -95 -25 -174 -24 -176 2 -1 11 0 20 4 45 17 95 172 80 252 -8 42 -31 92 -42 92 -5 0 -20 -78 -34 -172z" id="45"/>
<path d="M5295 7174 c-55 -46 -65 -61 -60 -78 16 -53 17 -115 1 -147 -9 -18 -15 -33 -14 -33 87 -30 125 -136 77 -215 -17 -28 -19 -39 -10 -58 6 -12 15 -23 21 -23 13 0 17 19 40 210 27 219 36 385 22 394 -6 3 -40 -19 -77 -50z" id="46"/>
<path d="M775 7192 c-44 -15 -74 -48 -89 -99 -7 -21 -4 -21 56 -21 71 1 115 -16 159 -64 l27 -30 12 23 c19 35 16 97 -7 127 -36 48 -112 79 -158 64z" id="47"/>
<path d="M8421 7159 c-40 -16 -116 -76 -130 -103 -13 -23 -7 -35 98 -207 l111 -183 0 217 c0 208 -1 219 -22 252 -25 38 -23 38 -57 24z" id="48"/>
<path d="M5132 7135 c-44 -37 -75 -107 -67 -147 8 -40 45 -98 62 -98 7 0 30 17 53 38 35 34 40 44 40 83 0 38 -40 149 -54 149 -2 0 -18 -11 -34 -25z" id="49"/>
<path d="M5600 7110 c-43 -60 -62 -117 -54 -166 l7 -46 -27 17 c-32 21 -50 15 -76 -27 -24 -39 -26 -98 -5 -138 16 -32 51 -48 68 -31 18 18 27 13 27 -14 0 -86 -113 -205 -195 -205 -14 0 -25 -2 -25 -5 0 -3 24 -39 53 -81 l52 -76 53 5 c64 7 110 35 152 94 28 39 30 46 21 80 -14 48 -14 118 0 166 8 32 13 36 33 31 39 -9 65 23 77 95 5 35 7 66 3 70 -3 3 -30 -20 -60 -53 -65 -71 -71 -64 -50 60 19 106 20 150 5 210 -13 51 -29 56 -59 14z" id="50"/>
<path d="M4776 7029 c-3 -19 -10 -81 -16 -139 -7 -58 -14 -107 -16 -109 -2 -2 -28 19 -57 47 -140 131 -297 186 -384 132 -55 -33 -78 -91 -78 -195 1 -117 32 -192 112 -265 180 -165 509 -114 645 99 34 55 34 57 2 65 -93 24 -130 125 -83 223 12 24 20 45 17 46 -2 1 -33 31 -70 66 l-67 64 -5 -34z" id="51"/>
<path d="M670 7022 c-16 -17 -30 -41 -30 -54 l0 -23 18 22 c53 65 204 15 214 -72 l3 -30 18 33 c17 32 17 35 0 69 -27 54 -63 76 -132 81 -56 4 -62 2 -91 -26z" id="52"/>
<path d="M6515 7013 c-179 -155 -421 -336 -477 -356 -7 -2 -10 -7 -7 -11 6 -7 451 -91 515 -98 l28 -3 -3 190 c-2 105 -6 218 -10 252 l-6 61 -40 -35z" id="53"/>
<path d="M2070 7000 c-21 -42 -39 -161 -24 -159 5 0 38 34 73 76 l63 75 -23 24 c-35 37 -65 31 -89 -16z" id="54"/>
<path d="M8190 6996 c-238 -100 -518 -275 -786 -493 l-92 -74 -6 -62 c-4 -34 -7 -142 -8 -240 -1 -168 -9 -222 -24 -161 -4 15 -4 119 0 232 l7 204 -40 -31 c-157 -125 -497 -404 -499 -411 -5 -14 74 -55 259 -135 96 -42 203 -93 239 -115 141 -83 259 -223 332 -391 50 -116 73 -212 98 -404 25 -196 49 -288 100 -382 l38 -71 -73 -55 -74 -55 -43 51 c-85 102 -134 137 -343 252 -188 102 -264 157 -361 257 -183 190 -233 327 -249 693 -6 132 -21 274 -29 283 -2 2 -48 -30 -103 -70 -54 -40 -142 -99 -196 -131 -99 -60 -364 -190 -449 -222 -27 -10 -48 -24 -48 -32 0 -7 20 -53 44 -101 234 -467 442 -1108 596 -1842 79 -376 132 -566 242 -870 67 -187 199 -450 224 -450 35 0 271 92 409 160 277 136 421 241 705 514 170 163 301 280 394 348 l45 33 0 495 c0 422 -2 491 -13 465 -47 -104 -194 -147 -309 -89 -66 33 -127 83 -149 122 l-18 30 33 24 c58 44 55 44 116 -16 69 -68 110 -83 160 -58 69 34 96 133 53 192 -12 15 -18 30 -15 34 24 24 99 -21 126 -76 16 -31 17 -21 17 226 l0 260 -30 -29 c-16 -16 -33 -26 -36 -22 -4 4 1 34 11 66 29 96 0 172 -79 210 -55 27 -81 26 -144 -5 -134 -67 -262 -301 -262 -479 0 -49 -2 -53 -31 -65 -39 -17 -41 -13 -71 105 -30 122 -33 404 -5 505 45 160 149 304 254 353 106 48 254 20 352 -68 l41 -37 0 625 0 626 -120 198 c-66 109 -124 199 -128 200 -4 1 -32 -8 -62 -21z m-1034 -2462 c144 -41 347 -148 419 -220 17 -17 16 -19 -9 -40 l-26 -23 -57 21 c-91 32 -257 36 -358 9 -94 -26 -150 -57 -193 -105 -97 -111 -6 -266 155 -266 50 0 49 -19 -4 -42 -68 -30 -185 -36 -269 -13 -73 20 -166 75 -207 125 -60 70 -80 127 -85 233 -4 94 -3 100 27 162 47 96 125 149 264 181 88 20 232 11 343 -22z m838 -128 c14 -25 26 -49 26 -54 0 -5 -19 -18 -42 -28 -58 -26 -182 -107 -245 -160 -28 -24 -55 -44 -59 -44 -13 0 -74 63 -74 76 0 14 77 86 145 136 57 41 194 118 212 118 6 0 23 -20 37 -44z m-46 -229 c11 -20 55 -57 105 -90 127 -83 150 -123 182 -307 9 -51 23 -110 32 -131 20 -51 11 -60 -21 -22 -14 16 -67 52 -118 79 -153 81 -206 149 -233 303 -8 46 -23 97 -35 115 l-20 33 38 26 c20 14 40 26 44 26 3 1 15 -14 26 -32z m-127 -142 c24 -50 33 -83 37 -139 6 -91 -8 -136 -61 -193 -86 -94 -227 -88 -296 12 -46 67 -35 165 12 101 70 -97 237 -57 237 56 0 13 -14 52 -30 86 -17 35 -30 69 -30 75 0 11 77 66 92 67 4 0 21 -29 39 -65z" id="55"/>
<path d="M6800 4530 c-102 -25 -193 -88 -233 -164 -18 -34 -22 -58 -22 -136 0 -83 3 -102 27 -150 70 -142 234 -233 391 -216 60 6 113 25 73 26 -11 0 -40 10 -64 21 -121 59 -137 231 -29 313 42 32 126 69 197 87 81 20 240 15 325 -10 82 -23 106 -14 60 24 -97 78 -275 163 -410 196 -84 20 -248 25 -315 9z" id="56"/>
<path d="M7873 4381 c-75 -40 -154 -95 -211 -149 -33 -31 -33 -32 -15 -56 10 -14 21 -26 26 -26 4 0 37 24 72 53 35 29 105 77 155 106 l90 53 -17 29 c-10 16 -20 29 -23 29 -3 0 -38 -18 -77 -39z" id="57"/>
<path d="M7891 4161 c-12 -8 -12 -14 1 -43 9 -18 21 -66 27 -106 21 -138 75 -206 224 -286 69 -36 87 -43 83 -29 -3 10 -12 58 -20 108 -9 49 -27 113 -42 142 -22 46 -39 63 -112 112 -48 32 -98 70 -111 85 -27 29 -30 30 -50 17z" id="58"/>
<path d="M7741 4051 l-24 -18 27 -66 c42 -104 32 -160 -34 -205 -30 -20 -44 -23 -97 -20 -42 3 -68 10 -82 23 -30 26 -37 12 -14 -27 61 -105 206 -103 283 3 36 50 47 115 32 188 -12 55 -49 141 -60 141 -4 0 -18 -9 -31 -19z" id="59"/>
<path d="M683 6958 c-6 -7 -24 -52 -41 -99 l-31 -87 47 -7 c26 -4 64 -16 85 -27 22 -11 43 -16 47 -11 4 4 19 46 33 92 29 94 26 111 -23 136 -35 18 -104 20 -117 3z" id="60"/>
<path d="M590 6714 c-16 -42 -12 -54 19 -54 15 0 54 -13 85 -29 l57 -29 10 26 c21 54 16 66 -31 90 -25 12 -63 22 -87 22 -37 0 -45 -4 -53 -26z" id="61"/>
<path d="M5699 6693 c-17 -3 -29 -12 -33 -26 -8 -31 -6 -108 3 -132 7 -18 10 -16 25 18 8 21 21 57 26 78 6 22 14 47 17 55 3 8 1 13 -3 13 -5 -1 -21 -4 -35 -6z" id="62"/>
<path d="M820 6676 c0 -12 231 -446 240 -451 8 -5 401 329 408 346 3 8 -8 11 -133 43 -148 37 -515 81 -515 62z" id="63"/>
<path d="M0 6507 l0 -167 38 5 c20 3 82 10 136 15 55 6 101 12 103 14 2 2 -34 41 -80 87 -46 46 -109 113 -140 148 l-57 64 0 -166z" id="64"/>
<path d="M716 6398 c-44 -139 -80 -257 -80 -262 -1 -13 171 -120 294 -185 76 -40 301 -140 465 -206 6 -2 50 77 99 176 66 135 86 183 77 192 -14 14 -14 42 0 81 9 26 5 56 -29 189 -22 87 -43 161 -46 164 -3 4 -16 -3 -29 -14 -80 -71 -408 -353 -411 -353 -3 0 -60 106 -128 235 -68 129 -125 235 -128 235 -3 0 -41 -114 -84 -252z" id="65"/>
<path d="M502 6473 c-34 -93 -63 -174 -64 -182 -4 -17 162 -146 172 -134 5 4 36 99 71 210 71 229 71 220 -17 253 -99 37 -93 42 -162 -147z" id="66"/>
<path d="M5180 6614 c0 -36 30 -108 65 -156 30 -41 119 -107 130 -96 4 3 -162 237 -186 263 -5 5 -9 1 -9 -11z" id="67"/>
<path d="M5914 6594 l-71 -33 -17 -108 c-9 -59 -24 -145 -33 -191 -16 -80 -16 -84 3 -102 15 -14 160 -64 165 -57 6 8 35 513 30 518 -3 3 -38 -9 -77 -27z" id="68"/>
<path d="M1550 6449 c16 -61 31 -113 34 -116 3 -4 6 20 6 51 0 43 -5 65 -20 83 -11 14 -20 41 -20 59 0 22 -5 34 -14 34 -11 0 -8 -23 14 -111z" id="69"/>
<path d="M250 6344 c-8 -1 -68 -8 -132 -15 l-118 -11 0 -427 0 -426 83 -61 c109 -81 304 -204 322 -204 8 0 34 25 57 55 49 62 68 59 39 -6 -10 -24 -22 -58 -26 -76 -6 -30 -4 -33 57 -69 197 -116 538 -272 570 -262 6 2 28 73 49 157 22 85 64 229 94 320 30 91 53 167 51 169 -2 2 -68 -26 -147 -62 -79 -36 -147 -62 -151 -58 -3 4 -29 130 -57 281 -27 150 -53 276 -56 279 -3 3 -127 -32 -276 -77 -149 -46 -273 -80 -276 -77 -4 4 -32 469 -33 554 0 21 -10 25 -50 16z" id="70"/>
<path d="M326 6288 c2 -24 9 -142 14 -263 6 -121 13 -221 14 -223 4 -3 497 145 503 152 2 2 -52 38 -119 79 -147 91 -142 88 -288 204 -63 51 -118 93 -121 93 -4 0 -5 -19 -3 -42z" id="71"/>
<path d="M1516 5901 c-243 -489 -394 -1009 -452 -1553 -22 -212 -15 -678 15 -893 37 -266 84 -497 153 -739 241 -856 718 -1759 1351 -2563 l120 -153 179 0 c99 0 178 3 176 8 -1 4 -49 84 -104 177 -888 1491 -1301 2602 -1405 3780 -16 183 -16 655 0 820 44 449 148 887 291 1220 11 26 19 49 18 50 -2 2 -44 8 -95 14 -50 6 -105 14 -122 17 l-30 6 -95 -191z" id="72"/>
<path d="M1892 6047 c-18 -23 -121 -302 -161 -439 -114 -390 -164 -754 -165 -1198 -1 -240 1 -264 28 -405 161 -848 502 -1564 1029 -2163 144 -164 337 -356 717 -714 461 -434 700 -681 958 -990 l115 -138 129 0 129 0 -48 61 c-86 110 -227 271 -338 387 -59 62 -104 116 -100 120 14 14 328 -330 470 -515 l40 -52 149 -1 c140 0 148 1 135 18 -56 72 -202 232 -317 347 -248 249 -485 447 -1027 860 -165 126 -356 274 -425 329 -431 347 -709 635 -938 974 -332 491 -540 1071 -614 1712 -19 174 -17 639 5 820 37 299 115 624 210 873 40 105 47 149 19 114z" id="73"/>
<path d="M1908 5959 c-165 -435 -241 -850 -241 -1324 0 -611 131 -1173 399 -1707 170 -340 358 -600 644 -892 235 -240 424 -400 925 -781 722 -550 1007 -802 1304 -1152 85 -101 87 -102 130 -103 l43 0 -28 38 c-171 228 -499 577 -814 865 -96 88 -285 248 -420 355 -135 108 -292 237 -350 288 -151 132 -633 624 -781 796 -152 177 -350 438 -400 528 -8 15 -34 58 -56 96 -195 330 -322 692 -385 1099 -30 192 -36 599 -13 806 28 258 76 473 155 702 46 135 129 330 170 404 16 29 26 54 22 57 -4 2 -66 7 -138 11 l-130 7 -36 -93z" id="74"/>
<path d="M2180 5888 c-205 -428 -302 -866 -302 -1363 0 -394 61 -743 190 -1085 41 -110 133 -313 138 -307 2 2 -10 56 -26 121 -17 65 -39 184 -51 264 -11 81 -31 215 -45 297 -138 848 -80 1574 166 2084 33 68 60 125 60 127 0 2 -14 4 -31 4 -29 0 -33 -5 -99 -142z" id="75"/>
<path d="M2316 5988 c-146 -249 -248 -638 -277 -1058 -17 -244 3 -718 40 -935 l9 -50 1 45 c5 174 24 465 36 568 44 355 163 761 376 1275 38 92 69 169 69 171 0 3 -39 7 -87 11 -49 3 -100 8 -115 11 -23 5 -30 -1 -52 -38z" id="76"/>
<path d="M2591 5971 c-43 -85 -204 -502 -264 -686 -97 -298 -157 -558 -183 -802 -6 -59 -5 -62 17 -68 13 -3 149 -34 301 -70 153 -35 302 -75 332 -88 77 -36 136 -99 185 -198 73 -150 76 -170 76 -549 0 -285 -3 -346 -17 -407 -24 -96 -23 -186 2 -242 22 -48 159 -194 204 -218 44 -23 85 -9 155 51 64 56 86 67 158 86 55 14 93 58 93 110 0 51 -12 80 -52 126 -27 31 -29 35 -10 25 47 -25 87 -122 76 -180 -10 -50 -52 -87 -122 -106 -45 -13 -77 -31 -115 -64 -29 -25 -64 -53 -77 -62 -24 -15 -25 -22 -25 -106 0 -95 -11 -123 -46 -123 -11 0 -28 9 -40 21 -18 18 -20 28 -14 76 12 97 1 125 -68 183 -34 27 -87 60 -117 71 -137 51 -164 146 -75 261 59 75 66 124 72 478 5 263 3 329 -10 399 -9 46 -23 91 -30 100 -8 9 -30 45 -50 81 -39 72 -71 96 -167 124 -53 16 -574 96 -625 96 -23 0 -25 -4 -25 -41 0 -35 2 -40 18 -34 9 4 67 10 129 13 152 6 228 -13 404 -100 105 -52 151 -81 198 -125 34 -33 61 -67 61 -78 0 -15 -12 -6 -46 33 -25 29 -54 57 -63 62 -16 8 -18 5 -17 -28 l1 -37 -90 0 c-61 -1 -115 -8 -169 -23 -132 -37 -251 -26 -371 32 -62 31 -65 31 -65 7 0 -26 17 -38 101 -67 105 -37 227 -43 339 -16 53 13 79 16 68 8 -11 -8 -15 -21 -12 -37 l6 -24 -19 21 c-15 16 -24 19 -42 12 -19 -7 -22 -13 -17 -36 l6 -27 -16 23 c-25 34 -54 29 -55 -10 l-1 -33 -14 33 c-12 28 -18 32 -42 26 -39 -10 -42 -12 -43 -42 -1 -24 -2 -23 -11 9 -8 31 -15 38 -40 41 -26 4 -32 1 -44 -26 l-13 -31 -1 36 c0 32 -4 38 -27 44 -15 3 -29 2 -31 -3 -1 -5 -9 -18 -17 -28 -13 -17 -14 -16 -8 17 4 31 2 38 -16 44 -34 11 -41 -3 -41 -83 0 -244 74 -608 170 -842 65 -157 443 -660 496 -660 47 0 204 33 292 61 100 31 108 31 151 -15 31 -33 38 -33 77 5 38 37 56 38 149 10 133 -40 260 -62 397 -68 l137 -6 -15 -22 c-18 -28 -56 -45 -99 -45 -53 0 -65 -8 -59 -39 13 -64 -86 -179 -187 -216 -66 -24 -268 -29 -307 -7 -19 11 -30 11 -60 1 -20 -7 -66 -12 -102 -12 l-64 1 199 -197 c110 -108 256 -242 325 -298 l125 -102 48 27 c64 34 146 117 176 176 12 26 27 77 33 114 14 94 45 153 150 278 106 129 167 245 301 584 177 444 256 777 244 1020 -11 226 -97 342 -265 356 -40 4 -72 4 -72 1 0 -3 5 -18 10 -34 l10 -28 -27 33 c-27 31 -29 32 -50 17 -19 -13 -21 -20 -12 -42 13 -35 3 -43 -12 -9 -12 27 -26 31 -67 20 -21 -6 -23 -11 -18 -48 l6 -41 -15 32 c-18 40 -23 43 -65 34 -29 -6 -35 -11 -37 -35 -2 -34 -13 -48 -13 -18 0 11 -3 27 -6 36 -8 21 -63 21 -69 1 -15 -46 -19 -50 -23 -17 -3 28 -7 32 -34 32 -18 0 -36 -8 -44 -17 -12 -17 -13 -16 -14 4 0 18 -8 24 -42 31 -30 6 4 7 107 4 117 -3 166 -1 220 12 72 17 185 65 185 79 0 4 -12 12 -27 18 -23 9 -44 6 -123 -21 -122 -41 -206 -47 -338 -25 -89 15 -114 15 -188 4 -75 -11 -87 -11 -101 3 -20 21 -12 56 22 96 14 17 25 33 25 37 0 3 -27 -8 -61 -26 -56 -30 -87 -59 -115 -105 -7 -11 -15 -16 -19 -12 -14 13 42 84 92 116 26 17 88 47 136 68 101 42 100 54 -4 54 -41 0 -96 -9 -149 -25 -46 -14 -87 -25 -92 -25 -15 0 20 57 50 82 20 17 100 45 253 91 376 112 389 117 413 163 31 58 29 204 -3 294 -54 148 -127 266 -281 449 -234 279 -495 503 -751 645 -94 52 -294 117 -446 145 -43 8 -44 8 -62 -28z m890 -2291 c38 -135 43 -168 43 -255 1 -90 -2 -105 -27 -153 -16 -29 -33 -52 -40 -49 -18 6 -46 138 -53 252 -8 124 14 380 31 363 2 -2 23 -73 46 -158z m18 -862 c-7 -13 -14 -18 -16 -11 -3 7 1 22 8 35 7 13 14 18 16 11 3 -7 -1 -22 -8 -35z" id="77"/>
<path d="M3425 3664 c-12 -145 11 -404 36 -404 5 0 16 15 26 33 30 53 24 216 -11 342 -15 55 -31 104 -36 109 -4 4 -11 -32 -15 -80z" id="78"/>
<path d="M6630 5998 c0 -3 6 -23 14 -44 23 -65 36 -170 46 -373 6 -106 17 -224 24 -261 31 -148 108 -284 230 -406 91 -91 169 -145 336 -235 179 -96 242 -139 322 -221 l67 -69 48 37 c26 20 50 38 52 40 2 2 -12 36 -32 76 -44 89 -70 199 -92 380 -21 176 -54 299 -114 423 -112 233 -214 315 -596 483 -121 52 -222 108 -272 148 -18 15 -33 24 -33 22z" id="79"/>
<path d="M2960 5947 c564 -200 999 -548 1410 -1127 238 -336 389 -635 705 -1395 236 -569 306 -717 417 -884 86 -128 220 -312 225 -307 2 2 -21 48 -51 103 -203 362 -423 950 -617 1641 -43 155 -101 350 -128 431 -195 582 -479 1105 -763 1404 l-63 66 -525 46 c-289 25 -565 47 -615 50 l-90 6 95 -34z" id="80"/>
<path d="M920 5913 c0 -10 20 -128 45 -262 25 -134 45 -245 45 -247 0 -11 39 3 165 60 l140 64 38 88 c20 48 37 92 37 96 0 9 -68 41 -213 99 -54 21 -133 57 -177 79 -68 34 -80 38 -80 23z" id="81"/>
<path d="M4209 5789 c360 -415 630 -980 856 -1790 243 -874 502 -1509 778 -1912 137 -200 463 -532 796 -811 389 -325 877 -651 1446 -968 203 -113 400 -218 409 -218 3 0 6 83 6 184 l0 184 -146 107 c-236 175 -376 295 -610 529 -295 295 -484 524 -699 851 -253 383 -411 707 -764 1567 -326 795 -494 1138 -728 1492 -207 311 -460 580 -713 758 l-65 46 -245 26 c-135 14 -278 28 -319 32 l-75 7 73 -84z m1244 -1581 c40 -128 71 -243 132 -487 61 -244 103 -367 172 -505 131 -262 342 -528 608 -768 68 -61 122 -116 119 -120 -14 -22 -341 297 -473 462 -47 58 -115 152 -153 209 -37 58 -68 100 -68 93 0 -35 185 -412 287 -584 292 -496 664 -912 1117 -1253 66 -49 114 -91 108 -93 -6 -2 -62 34 -124 80 -535 398 -974 931 -1279 1553 -158 324 -246 572 -355 998 -36 143 -80 310 -99 373 -39 127 -38 124 -26 124 5 0 20 -37 34 -82z" id="82"/>
<path d="M4866 5783 c12 -10 59 -47 105 -83 113 -88 305 -281 412 -415 323 -403 565 -870 958 -1842 29 -73 55 -131 57 -128 8 7 -227 803 -298 1010 -199 577 -448 1034 -750 1372 l-45 51 -195 21 c-107 12 -211 24 -230 27 -35 5 -35 5 -14 -13z" id="83"/>
<path d="M3256 5782 c5 -5 63 -49 129 -98 194 -144 419 -374 597 -612 153 -203 230 -444 184 -578 -9 -26 -15 -49 -13 -50 1 -2 38 13 82 32 96 42 105 41 264 -42 57 -30 106 -53 107 -51 6 6 -135 237 -221 364 -259 379 -547 679 -850 883 -119 80 -327 193 -279 152z" id="84"/>
<path d="M5350 5736 c0 -4 22 -33 49 -64 315 -364 570 -863 782 -1530 22 -70 90 -298 151 -507 60 -209 129 -439 153 -511 42 -129 145 -378 152 -370 2 2 -14 64 -37 137 -54 178 -101 365 -151 605 -131 640 -312 1214 -541 1719 -63 139 -189 385 -231 451 l-25 40 -108 13 c-60 7 -128 15 -151 18 -24 3 -43 3 -43 -1z" id="85"/>
<path d="M8185 5470 c-131 -19 -251 -157 -304 -350 -28 -98 -37 -251 -22 -365 15 -112 41 -225 53 -225 13 0 28 47 28 87 0 155 141 393 273 460 132 67 275 -26 265 -173 -3 -53 4 -70 16 -38 3 9 6 118 6 244 l0 227 -42 40 c-77 70 -182 106 -273 93z" id="86"/>
<path d="M0 5186 c0 -135 3 -246 6 -246 3 0 56 28 117 61 127 70 259 158 255 170 -2 4 -77 58 -168 118 -91 61 -175 118 -187 127 l-23 16 0 -246z" id="87"/>
<path d="M399 5151 c-57 -50 -158 -114 -292 -185 l-107 -58 0 -519 0 -520 47 33 c26 18 84 69 129 113 117 116 186 225 235 370 23 68 24 80 24 400 0 182 4 347 9 368 4 20 6 37 4 37 -3 0 -25 -17 -49 -39z" id="88"/>
<path d="M456 5043 c-4 -38 -2 -149 3 -248 11 -194 3 -320 -25 -415 -19 -65 -74 -177 -117 -240 -47 -68 -172 -194 -248 -251 l-69 -51 0 -84 c0 -46 2 -84 4 -84 2 0 35 12 72 26 286 108 550 48 638 -145 27 -60 29 -194 3 -266 -67 -191 -305 -309 -506 -249 -63 18 -62 36 1 45 83 12 134 53 158 125 24 72 -18 152 -101 195 -51 26 -152 49 -216 49 l-53 0 0 -814 0 -814 73 -47 c80 -52 244 -133 325 -161 46 -17 54 -17 62 -4 17 27 131 447 185 682 55 239 126 588 284 1393 62 315 93 503 101 595 12 148 32 294 59 438 10 51 15 94 12 96 -3 1 -39 13 -79 26 -80 25 -300 130 -452 215 -54 30 -100 55 -103 55 -2 0 -7 -30 -11 -67z" id="89"/>
<path d="M4260 4461 c-66 -35 -225 -89 -485 -167 -228 -68 -327 -106 -312 -120 2 -3 89 18 193 46 349 93 611 146 794 159 l95 7 -97 47 c-105 51 -135 56 -188 28z" id="90"/>
<path d="M2135 4359 c-4 -17 -5 -32 -3 -35 3 -2 117 -20 254 -39 233 -33 384 -59 423 -72 12 -4 13 -3 5 6 -19 21 -117 49 -385 110 -147 34 -272 61 -277 61 -6 0 -13 -14 -17 -31z" id="91"/>
<path d="M8415 4362 c17 -79 -38 -180 -109 -198 -47 -11 -105 13 -158 68 -48 49 -49 50 -73 34 -35 -23 -31 -37 21 -86 101 -93 216 -114 303 -57 91 60 106 185 31 252 l-22 20 7 -33z" id="92"/>
<path d="M4405 4353 c-139 -17 -451 -77 -560 -107 -27 -8 -70 -20 -95 -26 l-45 -12 45 -14 c38 -12 52 -12 90 1 201 63 459 52 667 -29 69 -27 80 -46 26 -46 -27 0 -62 -14 -120 -47 -46 -25 -83 -49 -83 -52 0 -3 15 -13 32 -22 31 -15 35 -14 88 12 30 15 66 30 80 33 24 6 23 6 -3 -9 -27 -16 -28 -17 -12 -41 17 -26 5 -33 -15 -9 -18 22 -55 15 -55 -10 0 -15 14 -24 60 -40 108 -37 159 -90 198 -207 28 -83 29 -306 3 -447 -52 -283 -174 -644 -349 -1031 -70 -155 -72 -159 -189 -304 -107 -131 -129 -171 -138 -258 -4 -36 -18 -88 -31 -115 -26 -56 -140 -173 -187 -192 -34 -14 -37 -28 -10 -45 27 -16 120 19 190 72 35 26 88 81 119 122 111 145 384 649 499 919 129 303 271 701 350 983 l33 118 -102 237 c-56 131 -137 308 -179 393 l-77 155 -50 12 c-49 11 -121 14 -180 6z" id="93"/>
<path d="M2268 4204 c-13 -12 -9 -62 6 -99 30 -71 110 -92 175 -46 32 23 65 85 57 106 -8 21 -222 56 -238 39z" id="94"/>
<path d="M3972 4195 c-46 -7 -86 -15 -89 -19 -3 -3 -1 -24 6 -45 15 -51 62 -91 107 -91 46 0 102 51 114 104 16 71 9 74 -138 51z" id="95"/>
<path d="M4140 4193 c0 -44 -25 -101 -60 -135 -32 -32 -44 -38 -80 -38 -26 0 -53 8 -71 21 -30 21 -69 86 -69 114 0 12 -6 15 -22 10 -13 -4 -27 -11 -32 -15 -27 -26 50 -130 119 -161 51 -24 99 -23 150 0 71 33 115 102 115 181 0 36 -2 40 -25 40 -17 0 -25 -6 -25 -17z" id="96"/>
<path d="M2187 4193 c-23 -22 6 -115 50 -164 66 -73 168 -84 254 -26 60 40 107 130 78 148 -25 16 -34 9 -56 -41 -33 -76 -103 -112 -174 -91 -53 16 -91 67 -97 131 -4 43 -7 50 -27 50 -12 0 -25 -3 -28 -7z" id="97"/>
<path d="M4217 4185 c-4 -9 -7 -28 -7 -41 0 -57 -45 -128 -105 -165 -25 -16 -26 -19 -10 -19 34 0 128 49 168 88 42 40 92 128 78 136 -4 3 -33 8 -63 12 -46 5 -56 4 -61 -11z" id="98"/>
<path d="M2125 4157 c-4 -13 -5 -47 -3 -77 3 -49 6 -57 36 -77 55 -36 142 -64 220 -70 59 -5 96 -1 190 22 64 15 129 32 144 37 41 15 45 43 11 73 -32 27 -110 72 -115 65 -2 -3 -15 -27 -29 -55 -50 -97 -146 -145 -246 -125 -46 10 -65 21 -102 59 -45 44 -71 100 -71 150 0 28 -28 27 -35 -2z" id="99"/>
<path d="M4355 4143 c-9 -21 -29 -55 -46 -75 -16 -21 -26 -38 -20 -38 5 0 47 23 92 50 45 28 86 50 91 50 23 0 3 18 -33 29 -23 7 -47 15 -55 18 -8 3 -19 -9 -29 -34z" id="100"/>
<path d="M3719 4111 c-24 -15 -55 -40 -68 -55 l-25 -26 21 -28 c19 -26 24 -27 109 -27 49 -1 107 -4 129 -9 l40 -8 -30 19 c-43 28 -91 86 -106 127 -7 20 -16 36 -19 36 -3 0 -26 -13 -51 -29z" id="101"/>
<path d="M2753 3995 c-19 -20 -16 -25 13 -25 18 0 25 5 22 17 -4 22 -20 26 -35 8z" id="102"/>
<path d="M3607 3996 c-11 -28 -8 -36 13 -36 23 0 25 9 7 34 -13 18 -14 18 -20 2z" id="103"/>
<path d="M1008 3925 c-4 -11 -59 -285 -122 -610 -134 -683 -185 -926 -261 -1224 -146 -583 -301 -1015 -521 -1456 l-104 -210 0 -212 0 -213 640 0 640 0 0 103 c0 232 -36 498 -140 1035 -99 516 -146 818 -182 1172 -7 71 -12 254 -12 425 0 329 13 468 61 694 17 80 26 148 24 186 -1 33 -6 121 -10 195 -3 74 -10 126 -13 115z" id="104"/>
<path d="M1595 3816 c12 -198 83 -586 165 -901 207 -797 558 -1589 1166 -2626 81 -137 154 -259 163 -270 14 -17 26 -20 89 -17 l73 3 -40 58 c-22 31 -55 83 -72 115 -18 31 -68 118 -111 192 -285 487 -532 1082 -684 1650 -30 113 -60 214 -67 225 -6 11 -50 83 -98 160 -259 419 -441 870 -568 1405 l-21 85 5 -79z" id="105"/>
<path d="M235 3715 c-84 -16 -113 -25 -182 -55 l-53 -22 0 -78 0 -78 72 -7 c254 -25 383 -156 307 -312 -23 -47 -58 -77 -116 -97 l-38 -14 49 -7 c173 -27 377 101 427 267 15 50 12 167 -5 216 -36 101 -133 171 -266 192 -81 12 -107 12 -195 -5z" id="106"/>
<path d="M4970 3382 c-27 -95 -148 -465 -175 -534 -21 -55 95 20 153 97 43 59 162 284 162 307 0 15 -88 230 -99 240 -4 5 -22 -45 -41 -110z" id="107"/>
<path d="M1037 3470 c-11 -27 -36 -172 -54 -305 -24 -182 -24 -665 1 -900 35 -344 73 -583 215 -1330 63 -331 91 -546 98 -762 l6 -173 680 0 c667 0 679 0 666 19 -8 11 -70 92 -139 181 -465 600 -865 1296 -1116 1943 -159 410 -273 832 -337 1252 -8 50 -16 83 -20 75z" id="108"/>
<path d="M5076 3128 c-70 -146 -133 -236 -199 -283 l-28 -21 16 -154 c74 -718 241 -1343 494 -1849 146 -291 319 -543 510 -743 l74 -78 709 0 708 0 -72 67 c-131 120 -421 415 -548 559 -405 456 -754 941 -1068 1484 -127 219 -358 678 -462 918 -45 105 -84 192 -86 192 -2 0 -23 -42 -48 -92z" id="109"/>
<path d="M8381 3104 c-108 -90 -180 -156 -391 -359 -69 -66 -171 -155 -228 -197 -199 -150 -460 -287 -701 -369 -56 -19 -101 -38 -101 -43 0 -5 43 -74 95 -153 109 -165 78 -155 265 -91 160 55 315 133 472 238 161 108 275 202 521 434 l187 177 0 225 c0 123 -3 224 -7 224 -5 0 -55 -39 -112 -86z" id="110"/>
<path d="M2979 2994 c-44 -51 -53 -124 -20 -166 21 -26 97 -65 107 -55 3 3 -5 21 -19 39 -30 40 -39 66 -46 142 -6 55 -7 57 -22 40z" id="111"/>
<path d="M4788 2798 c-9 -7 -48 -92 -86 -188 -39 -96 -86 -209 -105 -251 -31 -69 -36 -90 -47 -226 -12 -147 -12 -154 15 -299 47 -259 51 -274 98 -322 58 -60 146 -122 247 -172 94 -47 242 -111 246 -107 2 2 -21 77 -51 167 -123 375 -216 829 -255 1245 -6 66 -13 130 -16 143 -5 25 -22 28 -46 10z" id="112"/>
<path d="M8445 2659 c-76 -79 -327 -311 -423 -391 -215 -178 -475 -326 -722 -409 -69 -23 -127 -43 -129 -45 -5 -5 158 -220 272 -356 111 -134 437 -472 446 -463 3 4 29 105 57 226 50 210 52 220 37 251 -15 28 -15 36 0 82 22 71 37 141 46 206 10 80 33 115 97 152 54 30 62 40 81 103 6 20 15 30 28 30 18 0 20 -7 20 -56 0 -48 5 -63 31 -95 17 -22 36 -49 42 -61 15 -27 15 -83 1 -120 -6 -15 -12 -55 -13 -88 -1 -33 -7 -73 -14 -90 -6 -16 -14 -42 -17 -57 -3 -15 -19 -43 -35 -61 -22 -26 -31 -48 -36 -92 l-7 -58 54 6 c30 4 96 7 147 7 l92 0 0 710 c0 391 -4 710 -8 710 -4 0 -26 -18 -47 -41z" id="113"/>
<path d="M3245 2525 c0 -65 4 -88 15 -95 36 -23 45 -3 45 97 l0 83 -30 0 -30 0 0 -85z" id="114"/>
<path d="M5530 2434 c0 -6 39 -80 86 -164 448 -809 1012 -1544 1618 -2112 l169 -158 549 0 549 0 -3 31 c-3 29 -14 37 -198 136 -1268 680 -2096 1348 -2690 2169 -82 113 -80 111 -80 98z" id="115"/>
<path d="M3085 2358 c-49 -16 -134 -37 -188 -45 l-98 -17 23 -22 c20 -19 40 -24 138 -33 63 -5 116 -8 118 -6 3 2 -5 16 -17 31 -33 42 -16 40 34 -4 59 -52 130 -76 200 -69 66 7 108 28 162 80 48 46 72 43 28 -3 l-29 -30 83 0 c124 0 371 20 400 33 22 9 7 12 -94 18 -114 7 -308 43 -397 75 -60 21 -86 17 -125 -16 -18 -16 -40 -30 -47 -30 -8 0 -33 16 -56 35 -23 19 -43 35 -43 34 -1 -1 -42 -14 -92 -31z" id="116"/>
<path d="M2872 2221 c8 -22 183 -203 209 -217 34 -17 141 -20 182 -5 25 10 27 14 27 71 0 79 18 78 22 -2 l3 -62 45 -14 c64 -19 209 -10 282 17 100 38 186 148 158 201 -8 16 -20 20 -58 20 -67 0 -76 -9 -56 -49 11 -22 13 -36 6 -43 -6 -6 -13 1 -20 21 -19 53 -50 65 -155 58 -56 -4 -113 -14 -145 -26 -62 -25 -131 -26 -187 -5 -54 22 -319 51 -313 35z" id="117"/>
<path d="M4479 2118 c-81 -161 -235 -433 -305 -539 -95 -144 -172 -209 -312 -265 -21 -8 -12 -18 115 -120 76 -62 179 -148 228 -192 50 -44 93 -77 96 -74 4 4 12 36 18 72 7 36 43 205 81 375 77 348 93 430 114 595 21 164 28 250 22 250 -3 0 -29 -46 -57 -102z" id="118"/>
<path d="M2335 2135 c3 -22 31 -123 60 -225 182 -628 456 -1236 803 -1780 33 -52 67 -103 74 -113 12 -16 46 -17 562 -15 l549 3 -105 125 c-243 290 -603 660 -1043 1071 -418 390 -637 621 -826 867 -78 102 -81 105 -74 67z" id="119"/>
<path d="M8220 1984 c0 -27 -34 -65 -90 -99 -42 -25 -68 -61 -76 -104 -7 -31 -5 -34 12 -26 80 33 147 27 203 -21 29 -24 30 -24 40 -5 25 46 11 90 -47 155 -31 35 -34 43 -29 82 2 24 1 44 -4 44 -5 0 -9 -12 -9 -26z" id="120"/>
<path d="M4506 1790 c-9 -52 -50 -246 -91 -430 -40 -184 -79 -363 -85 -396 l-12 -61 128 -124 c71 -68 180 -177 243 -242 63 -64 115 -116 117 -114 2 2 -6 52 -16 112 -11 61 -31 193 -44 295 -21 163 -168 872 -210 1012 l-12 43 -18 -95z" id="121"/>
<path d="M0 1590 l0 -201 83 -39 c78 -37 227 -90 251 -90 6 0 33 64 60 143 27 78 51 147 53 153 2 6 -29 23 -69 39 -89 34 -236 107 -303 149 -27 18 -56 36 -62 40 -10 6 -13 -36 -13 -194z" id="122"/>
<path d="M8070 1723 c-23 -21 -33 -40 -37 -72 -5 -39 -4 -44 11 -38 73 28 150 14 203 -36 l32 -30 11 27 c15 39 12 67 -8 105 -39 73 -154 96 -212 44z" id="123"/>
<path d="M8031 1574 c-22 -18 -31 -35 -31 -55 l0 -30 23 27 c20 23 33 28 73 28 68 1 111 -19 134 -63 l18 -36 12 26 c16 34 -8 82 -53 109 -50 31 -137 27 -176 -6z" id="124"/>
<path d="M8051 1511 c-14 -9 -64 -200 -52 -202 3 -1 16 0 28 1 12 1 50 -6 84 -15 34 -8 64 -13 66 -11 2 2 12 46 21 96 l16 93 -28 23 c-20 18 -39 24 -74 24 -26 0 -53 -4 -61 -9z" id="125"/>
<path d="M4640 1481 c0 -6 22 -111 49 -235 49 -220 65 -316 96 -566 9 -69 25 -164 36 -212 21 -87 21 -89 127 -215 59 -71 127 -156 152 -190 l45 -62 383 -1 384 0 -88 98 c-241 270 -448 606 -598 972 l-51 124 -142 62 c-170 74 -230 108 -323 180 -38 30 -70 51 -70 45z" id="126"/>
<path d="M1 928 l0 -433 76 150 c103 203 264 580 252 588 -2 2 -38 13 -79 26 -41 13 -113 41 -159 62 -46 21 -85 39 -87 39 -2 0 -4 -195 -3 -432z" id="127"/>
<path d="M7980 1254 c-17 -44 -13 -51 40 -58 27 -4 68 -13 91 -21 23 -9 44 -13 47 -10 3 3 6 24 6 46 1 39 -1 43 -34 55 -19 7 -59 13 -88 13 -47 1 -53 -1 -62 -25z" id="128"/>
<path d="M8283 1253 c-40 -2 -73 -6 -73 -9 0 -5 235 -339 274 -389 14 -18 15 -1 16 193 l0 212 -72 -2 c-40 -1 -106 -4 -145 -5z" id="129"/>
<path d="M8190 1206 c0 -5 -16 -102 -36 -215 l-37 -205 34 -29 c42 -36 284 -218 322 -242 l27 -17 0 145 0 146 -141 198 c-140 197 -169 235 -169 219z" id="130"/>
<path d="M7951 1133 c-11 -45 -27 -108 -35 -144 -5 -22 5 -35 85 -103 49 -43 92 -77 94 -75 2 2 16 73 31 158 26 149 26 155 8 168 -26 19 -82 33 -131 33 -40 0 -43 -2 -52 -37z" id="131"/>
</g>
</svg>