<?xml version="1.0" ?><!DOCTYPE svg  PUBLIC '-//W3C//DTD SVG 20010904//EN'  'http://www.w3.org/TR/2001/REC-SVG-20010904/DTD/svg10.dtd'><svg height="850.000000pt" preserveAspectRatio="xMidYMid meet" version="1.0" viewBox="0 0 850.000000 850.000000" width="850.000000pt" xmlns="http://www.w3.org/2000/svg">
<metadata>
Created by potrace 1.14, written by Peter Selinger 2001-2017
</metadata>
<g fill="#ffffff" stroke="none" transform="translate(0.000000,850.000000) scale(0.100000,-0.100000)">
<path d="M0 4250 l0 -4250 4250 0 4250 0 0 4250 0 4250 -4250 0 -4250 0 0 -4250z m2447 3908 c-3 -24 -9 -53 -13 -65 -5 -18 -2 -23 11 -23 15 0 17 -6 11 -42 -4 -22 -10 -46 -14 -52 -4 -6 -8 -31 -9 -56 -3 -77 -5 -93 -22 -150 -14 -51 -18 -187 -5 -199 5 -6 53 18 185 92 64 36 149 57 396 97 54 9 89 22 145 56 112 67 263 122 421 153 141 28 157 41 51 41 -30 0 -54 4 -54 9 0 9 71 71 127 109 17 12 44 22 60 22 36 0 168 -54 209 -85 l33 -25 103 26 c57 14 139 28 184 31 l80 6 166 -86 c99 -51 206 -98 267 -117 55 -17 101 -34 101 -38 0 -5 -5 -13 -11 -19 -13 -13 85 -27 124 -18 18 5 43 -1 82 -21 55 -28 56 -28 89 -10 19 10 75 60 126 112 l93 94 101 31 c56 17 168 56 249 86 81 30 150 53 153 50 15 -14 -12 -49 -57 -73 -27 -15 -49 -30 -49 -34 0 -4 -40 -48 -90 -99 -49 -51 -90 -98 -90 -103 0 -5 -43 -56 -95 -113 -52 -57 -95 -108 -95 -113 0 -12 46 -32 72 -32 12 0 48 7 80 16 55 16 60 16 76 0 11 -11 17 -32 16 -64 l0 -48 135 -2 c75 -1 159 -6 186 -11 28 -5 72 -13 99 -16 39 -5 58 -15 95 -50 25 -23 71 -59 103 -79 31 -19 85 -67 119 -106 35 -38 71 -70 80 -70 34 0 61 34 66 85 7 61 17 75 56 75 30 0 219 -71 312 -118 126 -63 252 -159 306 -234 38 -52 8 -48 -79 11 -148 101 -236 136 -281 112 -12 -7 -21 -21 -21 -32 0 -12 -12 -27 -30 -37 -16 -9 -30 -22 -30 -29 0 -6 -14 -22 -30 -35 l-30 -24 100 -101 c55 -56 100 -105 100 -109 0 -3 -12 -3 -27 0 l-28 7 25 -21 c14 -11 49 -32 77 -46 29 -14 70 -45 92 -71 l39 -46 131 92 c72 51 152 101 178 113 44 20 55 20 138 10 93 -11 379 -67 395 -77 17 -10 11 -35 -7 -36 -10 0 -37 0 -61 1 -24 1 -49 -3 -56 -10 -8 -6 -38 -14 -67 -17 l-54 -6 60 -29 c33 -15 66 -28 74 -28 7 0 52 -13 100 -28 47 -16 112 -37 144 -46 97 -29 66 -50 -78 -51 -49 -1 -92 -3 -95 -4 -3 -2 -71 -5 -152 -6 -81 -2 -158 -6 -170 -10 -25 -7 -84 -32 -108 -47 -61 -35 -133 -62 -177 -66 -29 -3 -53 -7 -53 -10 0 -3 11 -28 24 -56 13 -28 29 -78 36 -111 7 -33 19 -69 26 -80 23 -32 17 -55 -17 -67 l-30 -10 64 -67 c82 -84 92 -104 121 -233 4 -15 39 -61 79 -101 39 -40 85 -93 102 -116 l29 -43 -35 -33 c-20 -18 -41 -34 -48 -36 -9 -3 -3 -38 24 -134 81 -293 118 -376 235 -534 68 -91 92 -152 54 -137 -11 4 -14 2 -11 -6 59 -135 84 -250 73 -347 -13 -109 -48 -247 -81 -313 -22 -46 -29 -68 -20 -68 22 0 46 -90 52 -196 7 -113 -10 -212 -51 -300 -28 -60 -122 -178 -261 -329 -206 -224 -275 -346 -275 -489 0 -65 5 -79 33 -89 19 -7 23 -44 6 -79 -7 -16 -7 -58 -1 -132 7 -80 6 -128 -4 -184 -15 -88 -92 -292 -109 -292 -8 0 -14 24 -18 63 -3 39 -17 88 -37 132 -17 39 -37 94 -44 124 l-12 54 -45 -53 c-24 -30 -86 -97 -136 -151 -51 -53 -93 -103 -93 -111 0 -37 -51 -118 -89 -144 -51 -33 -68 -23 -77 47 -4 27 -7 49 -8 49 -16 -1 -237 -64 -278 -80 -86 -32 -104 -51 -168 -184 -49 -101 -70 -133 -132 -198 -84 -87 -127 -112 -236 -134 -185 -39 -271 -132 -272 -295 0 -42 -4 -99 -10 -128 -12 -64 -49 -151 -64 -151 -6 1 -28 36 -49 78 -33 69 -37 85 -37 154 l0 77 -51 -26 c-43 -21 -65 -25 -133 -25 -105 1 -172 -13 -217 -42 l-36 -24 -6 -91 c-4 -67 -12 -106 -31 -146 -31 -69 -52 -72 -62 -7 -4 26 -10 55 -13 65 -6 17 -8 17 -34 -3 -14 -12 -46 -28 -70 -36 -28 -9 -63 -35 -101 -74 -33 -35 -66 -60 -78 -60 -18 0 -20 5 -16 45 l3 45 -40 0 c-77 -1 -171 -26 -220 -58 -78 -52 -135 -76 -148 -63 -8 8 -6 15 5 28 34 40 31 41 -54 36 -46 -3 -105 -11 -132 -19 -68 -19 -69 -19 -63 21 3 19 1 37 -4 41 -28 17 -120 3 -210 -32 -121 -47 -209 -55 -257 -24 -41 25 -37 44 9 48 98 9 269 69 269 94 0 13 -14 10 -72 -17 -32 -15 -71 -25 -100 -25 -25 0 -67 -9 -93 -20 -26 -11 -57 -20 -70 -20 -26 0 -41 15 -25 25 16 10 12 35 -6 35 -9 0 -60 19 -113 41 -138 60 -146 61 -241 45 -46 -8 -87 -13 -91 -10 -5 2 1 20 12 38 40 68 -9 119 -59 61 -34 -39 -113 -47 -98 -10 6 16 -18 24 -130 45 -45 9 -67 9 -82 1 -26 -14 -77 -14 -104 0 -20 11 -20 11 7 39 31 33 26 50 -15 50 -36 0 -78 39 -120 113 -18 32 -45 64 -60 72 -16 8 -75 23 -131 33 -56 10 -104 23 -106 29 -3 7 8 18 24 27 26 14 21 15 -82 13 -101 -1 -115 2 -170 27 l-60 28 23 19 23 18 -36 48 c-20 26 -55 58 -79 70 -23 11 -68 51 -101 88 -33 36 -77 75 -97 86 -43 22 -47 34 -18 57 31 26 10 83 -56 152 -30 31 -54 60 -54 65 0 4 16 4 35 1 41 -8 40 -10 19 39 -8 21 -14 54 -12 75 3 35 0 39 -102 121 -195 156 -446 416 -593 613 -54 71 -139 250 -180 381 -63 196 -97 417 -97 624 1 490 206 1405 393 1751 l40 75 -31 45 c-105 151 -140 496 -79 760 52 220 159 456 256 561 85 92 88 88 93 -123 l4 -173 47 -138 c65 -195 75 -280 51 -450 l-6 -37 119 83 c144 102 215 174 279 280 l49 81 0 113 c1 104 3 114 25 138 l24 25 -42 43 c-75 76 -181 132 -337 177 -175 50 -258 77 -314 103 -66 31 -164 128 -190 188 -25 57 -23 68 10 46 12 -9 56 -24 98 -33 43 -10 83 -25 92 -35 14 -16 18 -16 23 -4 9 25 42 17 55 -12 l13 -27 18 24 19 25 33 -30 c36 -34 98 -65 128 -65 10 0 22 -5 26 -11 3 -6 18 -9 33 -6 16 3 45 -2 70 -14 24 -10 58 -19 76 -19 20 0 35 -6 39 -15 3 -8 16 -15 29 -15 14 0 30 -7 37 -15 7 -8 20 -15 30 -15 10 0 23 -6 29 -14 7 -8 20 -12 31 -9 12 3 22 -3 30 -17 6 -11 19 -20 28 -18 9 1 28 -5 42 -14 14 -8 44 -18 67 -22 l41 -6 11 51 c14 66 31 96 78 140 44 42 258 195 320 230 51 28 54 39 13 39 -49 0 -97 25 -158 84 -50 48 -64 56 -110 62 -77 10 -67 37 31 84 35 16 60 21 91 18 l43 -5 7 104 c4 57 15 129 25 161 38 116 72 208 86 234 9 15 27 57 41 95 30 79 32 83 46 83 7 0 9 -15 5 -42z m3673 -393 c53 -34 93 -54 135 -69 33 -12 -3 -26 -66 -26 -44 0 -64 6 -94 25 -29 21 -40 23 -51 14 -12 -10 -10 -15 16 -30 38 -24 38 -35 -2 -59 -42 -26 -46 -25 -60 6 -11 24 -15 25 -60 19 -45 -6 -48 -5 -48 15 0 19 -6 16 -54 -24 -103 -89 -101 -34 3 77 39 41 51 44 87 21 24 -16 25 -16 63 25 21 22 46 41 57 41 10 0 44 -16 74 -35z m-4096 -532 c64 -19 33 -43 -56 -43 -42 0 -48 -3 -67 -36 -19 -31 -26 -36 -50 -31 -23 5 -35 -1 -67 -34 -36 -37 -64 -50 -64 -30 0 5 16 41 37 80 36 70 55 85 80 60 8 -8 14 -5 23 12 7 13 19 31 27 40 15 18 18 17 137 -18z m5561 -1197 c16 -23 18 -24 51 -10 l35 14 18 -42 c10 -24 33 -56 50 -72 31 -30 41 -56 20 -56 -17 0 -52 21 -81 47 -23 23 -32 25 -73 19 -41 -7 -47 -5 -52 12 -4 15 -17 21 -66 26 -98 10 -97 30 4 65 71 25 76 25 94 -3z m275 -646 c11 -11 20 -27 20 -35 0 -8 -9 -24 -20 -35 -11 -11 -27 -20 -35 -20 -8 0 -24 9 -35 20 -11 11 -20 27 -20 35 0 8 9 24 20 35 11 11 27 20 35 20 8 0 24 -9 35 -20z m-151 -112 c11 -18 30 -45 41 -59 14 -17 23 -45 26 -85 3 -32 12 -74 21 -92 20 -40 7 -60 -27 -42 -16 9 -25 9 -33 1 -19 -19 -27 -12 -27 24 0 19 -11 58 -25 87 -19 39 -25 68 -25 118 0 90 13 103 49 48z m267 -406 c15 -10 34 -47 34 -67 0 -23 -45 -65 -70 -65 -50 0 -77 71 -44 118 15 22 57 30 80 14z m133 -948 c57 -47 51 -141 -12 -202 -48 -46 -86 -51 -126 -15 -88 78 -41 243 68 243 28 0 49 -8 70 -26z m-577 -1333 c59 -53 34 -141 -49 -170 -37 -13 -43 -13 -68 3 -35 23 -58 80 -50 122 13 74 107 99 167 45z m-6282 -611 c11 -11 20 -31 20 -45 0 -27 -31 -65 -54 -65 -20 0 -53 31 -60 56 -8 26 28 74 55 74 10 0 28 -9 39 -20z m108 -111 c4 -20 -28 -34 -39 -18 -11 18 1 40 20 37 9 -2 17 -10 19 -19z m5111 -335 c30 -38 27 -80 -8 -115 -29 -28 -64 -37 -88 -21 -19 12 -44 79 -36 99 22 64 95 84 132 37z m332 -17 c22 -15 39 -38 49 -65 13 -37 13 -47 0 -84 -29 -82 -127 -115 -189 -63 -52 44 -60 106 -24 177 28 58 106 74 164 35z m-461 -179 c-1 -29 -26 -61 -65 -82 -16 -9 -38 -22 -48 -29 -14 -10 -19 -9 -27 3 -17 27 -11 51 21 78 62 53 119 67 119 30z m240 -141 c0 -23 -42 -93 -69 -114 -9 -7 -34 -16 -56 -20 -29 -6 -43 -16 -53 -36 -17 -35 -40 -35 -48 1 -4 15 -16 35 -26 46 -25 23 -13 36 41 43 33 5 45 12 56 33 20 38 73 70 118 70 32 0 37 -3 37 -23z" id="1"/>
<path d="M3694 8110 c-23 -9 -41 -30 -26 -30 5 0 14 -11 20 -26 7 -14 29 -32 49 -40 20 -9 50 -29 67 -44 75 -69 203 -173 224 -181 30 -12 119 -12 126 0 14 22 -6 40 -35 34 -25 -5 -35 0 -64 33 -48 54 -44 73 7 30 23 -20 48 -36 55 -36 22 0 -14 46 -98 125 -112 105 -254 164 -325 135z m287 -241 c30 -21 38 -39 16 -39 -12 0 -34 21 -51 48 -11 18 2 15 35 -9z" id="2"/>
<path d="M4135 8054 c-66 -14 -122 -28 -124 -30 -3 -3 11 -18 30 -34 20 -15 55 -54 78 -84 47 -61 47 -61 88 -45 l28 10 -48 26 c-26 15 -46 28 -44 29 1 1 34 -7 73 -18 39 -12 79 -18 89 -14 16 6 15 10 -11 37 l-29 31 42 -21 c69 -34 125 -24 82 15 -45 40 -42 59 3 22 42 -34 98 -59 98 -43 0 21 -71 89 -114 109 -77 37 -109 38 -241 10z" id="3"/>
<path d="M3610 8050 l-25 -20 43 0 c43 0 51 7 30 28 -16 16 -18 15 -48 -8z" id="4"/>
<path d="M5432 7983 c-39 -4 -51 -13 -150 -112 -124 -125 -143 -134 -207 -96 -59 34 -90 33 -108 -5 -14 -28 -14 -30 12 -46 14 -9 45 -38 68 -64 35 -39 59 -54 140 -86 118 -47 171 -85 198 -142 12 -26 26 -42 37 -42 21 0 22 4 7 33 l-12 22 25 -22 c26 -24 73 -34 50 -11 -20 20 -13 31 11 16 15 -10 29 -13 45 -7 28 11 28 25 0 32 -13 4 -32 13 -43 21 -19 14 -18 15 14 6 53 -15 73 8 24 27 -25 10 -23 11 30 12 43 1 57 5 57 16 0 10 -10 15 -30 15 -16 0 -30 5 -30 10 0 6 11 10 25 10 16 0 25 6 25 16 0 13 -6 15 -27 10 -103 -23 -128 -20 -217 22 -106 52 -126 70 -126 120 0 46 45 120 93 154 l32 23 -18 -25 c-107 -149 -110 -173 -29 -218 l42 -24 20 44 c13 28 17 33 14 16 -4 -17 -2 -28 5 -28 6 0 11 3 11 8 0 4 29 38 65 75 36 38 65 70 65 72 0 2 -10 5 -22 8 -20 3 -19 5 9 12 33 7 61 31 50 41 -3 3 -30 1 -61 -6 -55 -11 -82 -7 -71 11 4 5 17 9 30 9 13 0 48 5 77 12 51 11 52 11 23 19 -16 5 -41 6 -55 3 -14 -3 -34 -8 -45 -10 -11 -3 -4 4 15 15 19 11 29 20 22 21 -7 0 -10 5 -7 10 6 10 1 10 -83 3z m-404 -224 c-2 -6 -8 -10 -13 -10 -5 0 -11 4 -13 10 -2 6 4 11 13 11 9 0 15 -5 13 -11z m401 -229 c27 0 27 -27 0 -35 -16 -5 -30 1 -55 26 -43 42 -44 57 0 30 18 -12 43 -21 55 -21z" id="5"/>
<path d="M3580 7951 c-135 -28 -245 -59 -237 -67 2 -3 30 -20 62 -39 74 -45 153 -49 113 -6 -11 11 -9 11 10 2 25 -13 194 -52 200 -46 2 1 -16 17 -40 33 -68 47 -81 70 -18 33 129 -75 180 -90 133 -38 -40 44 -36 51 9 15 50 -41 72 -50 43 -18 -18 20 -18 20 16 6 19 -8 41 -11 47 -7 20 12 -156 162 -187 160 -9 -1 -77 -13 -151 -28z" id="6"/>
<path d="M2305 7818 c-31 -93 -48 -289 -26 -302 6 -4 32 2 57 13 46 21 46 22 41 59 -3 20 -9 73 -12 117 -9 105 -14 118 -31 80 -11 -26 -13 -27 -14 -8 0 12 4 32 9 45 16 44 21 78 13 78 -5 0 -22 -37 -37 -82z" id="7"/>
<path d="M4320 7869 c-100 -26 -141 -41 -137 -52 2 -7 31 -18 65 -26 51 -12 62 -18 62 -35 0 -46 -198 -192 -225 -165 -5 5 -14 44 -20 87 -8 65 -13 77 -30 81 -11 2 -33 13 -49 24 -29 20 -30 20 -75 2 -56 -23 -146 -25 -287 -5 -92 12 -111 12 -195 -4 -52 -10 -145 -34 -206 -52 -62 -19 -133 -34 -158 -34 -29 0 -64 -9 -95 -25 -27 -14 -61 -25 -76 -25 -21 0 -24 -3 -15 -14 17 -20 -1 -30 -104 -57 -68 -17 -109 -35 -166 -74 -42 -27 -85 -55 -95 -61 -16 -10 -17 -13 -5 -28 7 -9 19 -16 26 -16 7 0 49 26 92 58 98 73 103 76 103 62 0 -6 -31 -43 -70 -82 -38 -39 -67 -74 -65 -78 3 -4 25 -11 49 -14 65 -10 73 -25 33 -68 -28 -31 -97 -68 -127 -68 -5 0 -17 15 -26 33 -9 17 -18 33 -19 35 -4 5 -207 -129 -253 -167 -68 -56 -122 -137 -122 -183 0 -35 2 -38 23 -33 13 4 57 12 98 19 112 19 107 3 -31 -88 -36 -24 -74 -53 -84 -65 -17 -19 -17 -21 -2 -21 9 0 28 12 43 26 24 24 53 27 53 5 0 -20 -33 -41 -89 -56 -54 -16 -62 -22 -115 -91 -68 -88 -113 -120 -202 -145 -37 -10 -68 -20 -69 -21 -1 -2 -14 -20 -29 -40 l-28 -37 11 -103 c27 -245 25 -385 -6 -533 l-6 -30 35 30 c20 17 79 68 131 114 225 198 611 442 808 510 94 33 210 38 276 13 59 -22 511 -269 762 -416 91 -53 172 -96 180 -96 9 0 49 13 89 30 85 34 369 125 458 146 78 18 89 15 312 -59 l184 -61 16 21 c21 25 73 53 102 53 19 0 21 3 13 33 -14 58 -9 114 15 146 12 17 22 31 22 33 0 2 -127 3 -283 3 -155 1 -331 6 -392 13 -171 18 -345 45 -345 53 0 4 66 10 148 13 161 8 441 42 457 57 5 6 28 47 50 92 80 164 201 203 313 102 l50 -45 44 11 c38 10 50 10 77 -4 33 -16 34 -16 60 12 37 40 99 57 156 44 37 -8 45 -8 45 4 0 8 11 25 25 39 21 21 24 31 19 64 -4 26 -1 47 9 67 9 15 18 40 21 54 3 14 24 49 46 77 131 164 332 174 473 23 64 -68 89 -128 95 -222 4 -74 5 -76 35 -85 22 -6 37 -21 52 -51 l20 -42 58 -1 c93 0 157 -48 157 -116 0 -26 4 -34 18 -34 10 0 28 -7 41 -16 19 -14 22 -24 19 -59 l-3 -43 48 -6 c130 -15 205 -147 127 -224 -16 -17 -30 -33 -30 -36 0 -2 20 -8 45 -12 27 -4 44 -11 42 -17 -10 -30 -178 -47 -581 -60 l-79 -2 239 -108 c131 -60 300 -144 374 -187 123 -72 233 -127 287 -144 19 -6 20 -4 12 36 -4 24 -15 70 -23 103 -25 95 -19 385 8 412 3 4 17 -4 31 -17 l25 -23 0 45 c0 24 2 47 5 50 3 3 31 1 61 -4 31 -5 59 -7 61 -4 3 3 -1 22 -7 42 -8 24 -40 65 -87 112 l-75 73 -36 -36 c-23 -22 -44 -35 -57 -33 -30 4 -24 30 10 41 39 13 55 26 55 45 0 12 -3 13 -12 4 -19 -19 -29 -14 -22 13 5 20 -2 34 -34 69 -63 68 -85 119 -90 211 l-5 80 -55 63 c-32 35 -62 60 -69 58 -24 -10 -56 10 -72 44 -15 33 -19 35 -111 51 -117 21 -113 21 -105 9 3 -5 14 -10 24 -10 28 0 45 -25 27 -39 -18 -15 -51 4 -84 49 -13 18 -57 47 -105 71 -113 57 -192 114 -232 168 -29 40 -41 48 -98 65 -67 19 -108 49 -91 66 6 6 34 6 72 0 47 -6 75 -5 110 5 54 17 113 11 160 -16 17 -10 32 -15 32 -11 0 19 -66 84 -113 111 -62 35 -258 91 -337 96 -30 2 -86 8 -125 13 -67 8 -72 7 -110 -20 -36 -25 -116 -48 -167 -48 -10 0 -21 8 -25 18 -3 9 -13 33 -21 52 -14 34 -15 35 -21 10 -4 -14 -13 -25 -21 -25 -9 0 -16 11 -18 25 -9 74 -66 104 -148 76 -26 -9 -55 -16 -63 -16 -9 0 -38 -11 -65 -25 -27 -14 -60 -25 -72 -25 -12 0 -35 -6 -51 -14 -152 -76 -303 -124 -395 -126 -62 -1 -108 13 -108 32 0 4 28 21 63 36 46 21 90 55 163 124 54 52 110 101 124 108 14 8 71 25 127 39 57 14 104 30 105 36 2 5 -43 37 -98 71 -91 55 -109 62 -173 68 -39 4 -108 18 -153 32 -85 25 -173 30 -238 13z m-557 -317 c157 -78 252 -246 233 -414 -5 -40 -2 -71 9 -103 8 -25 15 -64 15 -86 l0 -41 63 7 c77 7 124 -13 150 -66 16 -33 22 -37 68 -42 62 -8 91 -25 123 -76 25 -38 53 -51 114 -51 15 0 37 -13 56 -33 17 -18 39 -36 50 -40 16 -6 16 -10 5 -24 -13 -15 -44 -15 -329 -10 -640 14 -1453 37 -1458 41 -9 10 22 16 183 35 183 22 207 29 231 68 29 47 57 73 76 73 27 0 35 30 12 43 -43 24 -113 101 -142 155 -17 31 -36 88 -43 125 -36 196 88 399 284 463 27 9 77 13 138 11 85 -2 103 -6 162 -35z m972 -776 c12 5 23 1 31 -11 20 -27 17 -41 -3 -23 -11 8 -36 14 -60 14 -48 -2 -51 1 -26 20 12 8 22 9 29 3 6 -5 19 -6 29 -3z m-1067 -432 c31 -9 27 -24 -7 -24 -16 0 -34 -7 -42 -16 -8 -9 -21 -13 -35 -10 -19 5 -27 0 -41 -26 -13 -26 -18 -29 -21 -15 -6 30 25 67 57 67 16 0 34 7 41 15 14 17 16 17 48 9z" id="8"/>
<path d="M3493 7555 c-120 -33 -204 -102 -256 -213 -29 -61 -32 -76 -32 -162 0 -78 4 -104 23 -145 33 -72 70 -122 114 -154 l40 -29 36 25 c25 16 45 23 62 19 25 -4 27 -1 44 65 37 143 119 214 247 213 54 -1 80 -7 126 -30 32 -16 62 -31 67 -33 5 -2 7 33 4 81 -3 67 -10 97 -35 150 -53 113 -136 181 -260 213 -70 18 -112 18 -180 0z" id="9"/>
<path d="M3700 7139 c-88 -27 -135 -95 -165 -241 -5 -25 -9 -28 -49 -28 -47 0 -67 -15 -83 -65 -7 -20 -18 -31 -40 -37 -19 -5 -40 -22 -57 -48 -34 -52 -62 -69 -127 -77 -51 -6 -52 -7 -21 -14 18 -4 194 -10 390 -13 196 -4 485 -11 642 -17 157 -6 312 -7 345 -2 l60 8 -23 23 c-12 12 -34 22 -49 22 -63 0 -102 19 -123 60 -24 48 -45 60 -117 67 -51 6 -56 9 -69 39 -7 18 -26 42 -41 54 -24 19 -35 20 -105 14 -43 -4 -78 -3 -78 2 -1 5 -2 36 -3 69 -3 77 -30 123 -95 158 -56 30 -140 42 -192 26z" id="10"/>
<path d="M4870 7795 c0 -2 14 -12 31 -21 32 -16 58 -7 45 15 -7 11 -76 16 -76 6z" id="11"/>
<path d="M4185 7770 c-3 -5 -27 -11 -54 -15 l-49 -7 5 -41 c7 -68 13 -88 23 -82 6 3 10 18 11 33 0 26 1 26 9 5 16 -40 33 -27 26 20 -5 39 -5 40 9 23 8 -11 15 -26 15 -34 0 -12 3 -12 15 -2 9 8 13 21 10 34 -6 19 -5 20 8 4 13 -16 16 -15 42 12 16 16 27 31 24 33 -11 10 -90 24 -94 17z" id="12"/>
<path d="M2785 7701 c-11 -5 -40 -11 -65 -15 -25 -4 -68 -19 -96 -34 -28 -15 -101 -53 -162 -85 -101 -51 -134 -77 -100 -77 6 0 63 27 126 60 62 34 163 79 224 100 110 39 152 61 113 59 -11 0 -29 -4 -40 -8z" id="13"/>
<path d="M4895 7630 c-138 -38 -151 -44 -170 -82 -21 -41 -36 -88 -27 -88 3 0 30 23 59 52 61 60 69 52 18 -16 -38 -49 -34 -63 6 -20 13 14 36 35 51 46 26 18 27 18 21 1 -3 -10 -13 -26 -21 -36 -27 -31 -4 -30 35 2 47 39 60 40 32 1 -31 -41 -18 -47 24 -11 39 35 47 38 47 16 0 -18 1 -18 34 -5 16 6 26 17 26 30 0 23 3 24 29 8 14 -9 29 -8 65 2 25 7 46 16 46 19 0 4 -25 18 -55 30 -32 13 -64 35 -76 52 -24 34 -17 34 -144 -1z" id="14"/>
<path d="M2660 7607 c-30 -13 -108 -51 -174 -84 l-118 -61 -57 15 c-60 15 -191 29 -191 20 0 -33 95 -139 151 -167 60 -31 178 -21 222 18 16 15 16 16 -4 38 -17 18 -28 21 -60 17 -53 -7 -50 12 4 26 55 14 235 130 218 140 -8 5 4 14 33 25 46 18 69 36 44 36 -7 0 -38 -11 -68 -23z m-470 -132 c0 -8 -7 -15 -15 -15 -16 0 -20 12 -8 23 11 12 23 8 23 -8z" id="15"/>
<path d="M2065 7460 c-4 -6 5 -10 20 -10 15 0 24 4 20 10 -3 6 -12 10 -20 10 -8 0 -17 -4 -20 -10z" id="16"/>
<path d="M6033 7423 c-37 -5 -45 -23 -10 -24 18 0 102 -26 202 -63 15 -5 14 -3 -5 11 -14 10 -41 33 -61 51 -37 32 -48 34 -126 25z" id="17"/>
<path d="M2535 7310 c-18 -20 -18 -21 3 -43 20 -20 22 -20 22 -3 0 18 1 18 20 1 16 -15 22 -15 35 -5 8 7 15 19 15 26 0 8 10 14 23 15 21 0 21 1 2 8 -11 5 -38 12 -60 15 -34 6 -44 4 -60 -14z" id="18"/>
<path d="M6566 7258 c-6 -40 -15 -59 -41 -85 l-35 -35 28 -36 c72 -96 107 -122 165 -122 21 0 41 7 51 19 16 18 16 20 -16 51 -33 33 -32 33 33 7 14 -6 33 -7 43 -4 29 11 17 35 -30 59 -52 26 -44 37 10 14 24 -10 44 -12 59 -7 21 9 20 10 -15 25 -21 9 -41 16 -46 16 -5 0 -15 7 -22 15 -18 22 -4 20 118 -15 58 -17 110 -29 115 -27 18 6 -132 83 -217 112 -44 15 -93 36 -110 46 -17 10 -43 19 -57 19 -24 0 -27 -4 -33 -52z" id="19"/>
<path d="M6286 7208 c8 -29 14 -67 14 -84 0 -20 6 -34 16 -38 13 -5 14 1 8 42 -8 58 3 50 20 -14 8 -34 18 -49 35 -56 23 -8 23 -7 17 34 -6 41 -5 42 9 18 8 -14 14 -32 15 -41 0 -9 7 -22 16 -30 16 -13 16 -8 -3 66 -5 19 -4 19 10 -1 9 -11 19 -33 22 -47 6 -22 13 -27 36 -27 27 0 29 2 18 22 -21 39 -102 119 -161 160 -87 59 -88 58 -72 -4z" id="20"/>
<path d="M2289 7194 c-128 -86 -264 -191 -293 -225 -14 -16 -31 -49 -37 -72 -31 -115 -70 -189 -103 -195 -11 -3 -16 0 -12 7 9 14 5 14 -36 -3 -39 -17 -52 -30 -63 -66 -4 -14 -20 -37 -36 -52 -30 -28 -39 -71 -18 -84 7 -4 38 -6 71 -6 87 1 158 40 225 122 29 36 83 98 119 138 37 39 64 72 61 72 -3 0 -17 -4 -31 -10 -45 -17 -28 0 27 26 l52 25 -54 -7 c-46 -5 -64 -14 -113 -55 -115 -96 -127 -87 -62 44 59 120 143 212 284 308 117 80 129 89 114 89 -6 0 -48 -25 -95 -56z" id="21"/>
<path d="M6080 7174 c0 -42 4 -50 56 -100 71 -70 263 -167 374 -189 41 -8 85 -17 98 -20 15 -4 22 -1 22 10 0 32 21 13 45 -40 14 -33 30 -55 40 -55 14 0 14 3 0 31 -24 46 -12 58 13 14 24 -40 42 -43 21 -4 -11 22 -10 22 20 -4 55 -46 55 -30 1 32 -51 59 -68 71 -97 71 -8 0 -37 19 -65 41 -46 39 -53 42 -116 43 -52 2 -81 9 -133 34 -78 38 -90 50 -93 94 -2 18 -4 36 -5 40 -3 16 -91 48 -134 48 l-47 0 0 -46z m58 15 c-2 -6 -8 -10 -13 -10 -5 0 -11 4 -13 10 -2 6 4 11 13 11 9 0 15 -5 13 -11z" id="22"/>
<path d="M5955 7195 c46 -19 105 -28 105 -15 0 14 -12 17 -80 23 -52 5 -53 4 -25 -8z" id="23"/>
<path d="M1060 7084 c0 -12 8 -32 19 -45 10 -13 20 -30 22 -38 7 -20 118 -58 220 -76 152 -27 252 -70 359 -157 29 -24 58 -47 64 -52 8 -6 31 5 66 30 51 36 56 58 8 33 l-23 -12 20 23 20 23 -20 -7 c-25 -10 -65 -18 -47 -10 6 3 12 14 12 25 0 19 -1 19 -42 -2 l-43 -22 19 21 c21 24 15 58 -9 48 -8 -3 -22 -9 -30 -12 -10 -4 -15 -2 -13 7 2 9 -5 14 -20 13 -15 0 -21 4 -18 13 6 16 -8 17 -35 2 -19 -10 -20 -9 -9 11 15 27 8 35 -18 21 -28 -15 -50 -15 -35 0 6 6 9 18 6 25 -4 11 -11 11 -39 -1 -32 -13 -34 -13 -32 3 3 18 -21 21 -57 6 -18 -7 -19 -6 -6 9 18 23 5 35 -20 18 -18 -10 -24 -10 -40 5 -17 16 -20 16 -45 -1 -24 -15 -26 -15 -21 -2 8 20 -11 33 -26 18 -6 -6 -15 -11 -21 -11 -6 0 -5 5 2 12 33 33 -1 38 -36 6 l-24 -23 13 27 c10 24 10 31 -6 48 -22 25 -37 26 -34 3 4 -46 -3 -46 -41 -3 -33 37 -40 41 -40 24z" id="24"/>
<path d="M905 7060 c38 -42 126 -92 210 -121 118 -39 141 -36 35 5 -79 30 -159 73 -222 117 -34 25 -46 24 -23 -1z" id="25"/>
<path d="M2071 6959 c-32 -39 -77 -136 -67 -146 3 -3 25 12 50 33 48 40 54 54 14 33 -23 -12 -23 -11 -5 8 10 11 17 24 15 29 -1 5 6 21 16 36 30 45 13 50 -23 7z" id="26"/>
<path d="M5735 6936 c-91 -43 -160 -130 -153 -191 3 -29 1 -35 -14 -35 -23 0 -25 -57 -3 -86 22 -29 19 -47 -8 -41 -38 10 -51 -6 -43 -52 3 -23 4 -41 2 -41 -3 0 -20 9 -38 19 -57 33 -124 31 -167 -5 -39 -33 -44 -78 -8 -69 17 5 33 -1 53 -18 17 -14 43 -27 59 -29 19 -2 34 -11 40 -25 8 -20 17 -23 67 -23 45 0 63 -5 78 -20 11 -11 20 -24 20 -30 0 -15 66 -29 184 -39 107 -9 140 -21 120 -41 -5 -5 -102 -17 -214 -25 -214 -15 -301 -11 -356 18 -22 12 -50 14 -118 10 -74 -5 -93 -10 -117 -30 -50 -42 -56 -115 -14 -179 22 -34 19 -45 -9 -38 -26 6 -91 -10 -114 -29 -11 -8 -11 -12 0 -18 18 -12 235 -11 242 0 10 16 194 91 248 101 41 8 82 7 162 -5 139 -19 202 -36 327 -88 l104 -42 300 7 c165 3 314 11 330 16 17 6 25 11 19 11 -5 1 -19 7 -30 15 -18 14 -17 16 24 54 49 45 53 72 19 122 -32 49 -79 73 -143 74 -58 0 -60 3 -42 54 12 31 11 35 -11 53 -13 10 -34 19 -47 19 -21 0 -23 4 -21 41 1 35 -4 46 -30 70 -39 34 -91 45 -149 32 l-44 -10 0 31 c0 17 -7 42 -16 55 -14 20 -22 22 -56 17 l-40 -7 9 33 c34 136 -42 299 -170 362 -69 35 -161 36 -232 2z" id="27"/>
<path d="M1250 6901 c14 -5 74 -24 133 -42 119 -36 206 -86 289 -167 42 -40 48 -43 54 -27 18 47 -190 184 -331 219 -73 18 -183 30 -145 17z" id="28"/>
<path d="M1035 6798 c-36 -42 -98 -144 -110 -183 -4 -12 8 -3 28 21 20 22 53 53 75 68 35 24 40 33 46 78 4 28 5 52 3 55 -3 2 -21 -15 -42 -39z" id="29"/>
<path d="M7385 6733 c-16 -9 -88 -57 -158 -106 -104 -72 -125 -92 -116 -103 22 -27 86 -16 183 30 51 24 122 54 157 67 38 13 86 41 118 68 52 44 53 46 30 52 -49 14 -183 9 -214 -8z" id="30"/>
<path d="M6840 6690 c23 -32 40 -39 40 -16 0 12 -40 46 -55 46 -4 0 3 -13 15 -30z" id="31"/>
<path d="M998 6631 c-59 -63 -134 -184 -167 -269 -31 -79 -25 -84 18 -17 52 82 122 158 182 196 l49 32 0 59 c0 75 -12 75 -82 -1z" id="32"/>
<path d="M6894 6635 c-18 -27 -16 -93 6 -167 14 -49 119 -168 143 -161 13 3 17 -2 17 -20 0 -26 25 -52 82 -86 21 -12 51 -40 68 -62 29 -35 60 -52 60 -31 0 23 -35 122 -57 164 -14 25 -22 51 -19 57 4 6 35 11 69 12 42 0 78 7 112 23 l50 23 -44 12 c-65 18 -38 34 33 20 43 -9 60 -9 69 0 8 8 4 11 -19 11 -16 0 -36 5 -44 10 -18 12 -13 13 70 11 53 -1 60 1 41 9 -35 15 -14 32 26 21 18 -5 51 -7 75 -3 35 5 39 7 19 12 -14 3 -27 12 -29 19 -4 11 4 12 34 7 l39 -6 -35 31 -35 31 30 -7 c17 -3 43 -13 59 -21 45 -22 43 -9 -4 25 -109 79 -185 69 -450 -58 -40 -19 -81 -31 -106 -31 -39 0 -45 4 -95 67 -53 66 -109 113 -135 113 -8 0 -21 -11 -30 -25z" id="33"/>
<path d="M4862 6549 c-52 -26 -81 -62 -121 -152 -20 -43 -38 -70 -53 -76 -35 -14 -230 -41 -346 -48 -56 -3 -101 -8 -99 -10 2 -1 75 -10 163 -19 151 -16 262 -17 839 -11 76 1 111 -3 145 -17 40 -16 65 -18 225 -12 98 3 183 10 188 15 4 4 -24 11 -63 15 -86 8 -136 27 -145 55 -10 33 -86 41 -149 15 -17 -7 -18 -4 -13 23 7 35 -4 44 -46 36 -22 -4 -28 -1 -37 21 -10 26 -43 36 -55 16 -11 -17 -35 -11 -35 9 0 27 -36 68 -65 75 -16 4 -40 0 -61 -10 l-34 -16 -50 46 c-76 71 -115 81 -188 45z" id="34"/>
<path d="M1025 6500 c-27 -22 -72 -65 -98 -97 -52 -63 -142 -237 -152 -293 -5 -31 -3 -29 27 25 70 126 153 220 259 293 l47 32 -10 40 c-6 22 -13 40 -17 40 -3 0 -28 -18 -56 -40z" id="35"/>
<path d="M1680 6445 c0 -43 10 -44 32 -6 18 32 15 41 -14 41 -14 0 -18 -8 -18 -35z" id="36"/>
<path d="M1044 6377 c-106 -78 -192 -189 -240 -308 -38 -93 -29 -115 13 -35 61 114 158 202 331 301 6 4 -26 79 -35 82 -5 2 -36 -16 -69 -40z" id="37"/>
<path d="M2726 6344 c-280 -68 -963 -552 -1135 -805 -104 -154 -287 -287 -400 -291 -40 -1 -45 -4 -58 -36 -8 -19 -12 -36 -10 -39 3 -2 29 8 59 23 93 47 421 194 425 191 2 -2 -108 -60 -243 -128 -136 -68 -253 -130 -261 -137 -7 -7 -13 -20 -13 -28 0 -9 53 12 163 67 189 95 418 201 423 196 2 -2 -131 -72 -295 -155 -268 -137 -311 -163 -311 -192 0 -4 73 29 162 74 164 82 428 200 434 193 2 -2 -115 -61 -261 -132 -146 -71 -263 -130 -261 -132 2 -3 57 17 123 42 65 26 181 70 258 97 77 28 223 90 325 138 190 91 409 184 416 178 2 -2 -59 -33 -136 -69 -136 -62 -177 -91 -69 -48 76 30 543 189 546 185 2 -1 -34 -17 -78 -36 -65 -27 -78 -35 -64 -43 13 -7 44 0 112 23 51 18 96 30 99 28 3 -3 -31 -20 -76 -38 -44 -18 -80 -34 -80 -36 0 -2 14 -11 31 -19 29 -16 33 -15 112 18 120 51 145 53 45 4 -47 -23 -90 -45 -93 -49 -4 -3 7 -14 25 -23 31 -16 33 -15 157 35 69 28 127 49 130 47 2 -2 -49 -28 -112 -58 l-116 -53 34 -17 c33 -18 34 -17 137 22 57 21 105 37 107 35 2 -1 -38 -22 -89 -46 l-93 -43 30 -13 c43 -19 49 -18 159 21 54 20 100 34 103 32 2 -2 -38 -22 -89 -43 l-92 -39 39 -12 c60 -18 75 -16 180 22 54 20 99 34 101 32 3 -2 -25 -16 -61 -32 -36 -15 -68 -31 -71 -36 -13 -22 163 5 254 38 113 40 126 41 47 3 l-60 -28 47 -1 c29 -1 77 10 128 29 100 37 110 37 45 2 l-50 -27 53 -3 c41 -2 74 5 149 33 52 20 97 34 100 32 2 -3 -13 -11 -34 -20 -21 -8 -60 -25 -87 -37 l-50 -23 36 -18 c36 -19 38 -18 85 2 54 23 241 89 251 89 14 -1 -48 -30 -149 -70 -57 -23 -108 -45 -113 -50 -4 -5 6 -16 23 -25 31 -16 34 -15 224 53 106 38 203 72 217 76 48 12 -96 -52 -227 -100 -73 -27 -133 -52 -133 -55 0 -3 29 -9 63 -13 60 -6 73 -3 213 48 170 61 202 71 192 61 -3 -3 -66 -31 -140 -61 l-133 -54 87 0 c79 0 101 5 249 55 89 30 164 53 166 51 5 -4 -191 -82 -234 -92 -25 -7 -25 -8 -8 -15 11 -4 52 -8 90 -8 59 -1 95 7 220 49 82 27 150 48 152 47 2 -2 -43 -22 -99 -45 l-103 -42 100 6 c80 5 121 14 208 45 60 22 112 39 115 38 4 0 -24 -16 -63 -34 l-70 -34 85 6 c67 5 114 16 219 54 74 27 136 47 138 45 2 -2 -30 -18 -72 -35 -42 -18 -86 -36 -98 -42 -15 -6 4 -8 63 -5 70 3 104 11 194 45 127 49 155 48 35 0 l-82 -34 57 -3 c42 -2 80 4 139 24 115 38 120 38 52 5 l-60 -30 61 -1 c39 0 111 13 197 35 74 19 139 35 144 34 4 0 -28 -13 -72 -29 l-80 -28 84 -1 c69 -1 100 4 173 30 110 37 129 32 24 -8 -77 -29 -88 -40 -60 -64 13 -11 35 -6 142 29 69 23 127 40 129 38 2 -2 -46 -23 -106 -47 -69 -27 -106 -46 -98 -51 29 -18 136 -7 261 28 70 19 130 34 132 31 2 -2 -35 -18 -84 -35 l-87 -32 99 6 c78 4 128 15 240 50 77 24 145 43 150 41 5 -2 -35 -20 -90 -40 l-99 -36 70 0 c75 -1 93 3 229 43 49 14 91 25 93 22 2 -2 -27 -15 -64 -29 l-68 -26 107 0 106 -1 7 105 c4 57 5 115 1 128 -4 19 -25 32 -93 61 -48 20 -148 73 -223 117 -220 128 -810 392 -978 436 -76 20 -123 26 -220 27 l-123 1 -402 -202 c-221 -111 -419 -207 -441 -213 -21 -7 -61 -10 -90 -8 -109 9 -500 188 -814 372 -240 141 -690 387 -745 408 -56 21 -129 22 -211 2z m419 -364 c5 -15 12 -18 35 -13 23 4 34 0 54 -23 25 -29 33 -54 18 -54 -5 0 -18 14 -31 30 -19 26 -25 29 -42 19 -25 -13 -49 -5 -49 16 0 21 -16 19 -50 -7 -43 -32 -47 -16 -5 21 41 36 61 39 70 11z m648 -498 c26 -13 47 -28 47 -33 0 -12 -35 -3 -67 17 -29 18 -33 18 -33 -5 0 -36 -11 -51 -34 -45 -17 4 -25 -2 -38 -28 -11 -22 -17 -27 -17 -15 -1 10 6 31 15 48 11 23 20 29 35 24 16 -5 19 -2 19 23 0 28 8 45 19 39 3 -2 27 -13 54 -25z" id="38"/>
<path d="M1081 6263 c-35 -21 -89 -63 -120 -94 -118 -117 -172 -227 -170 -346 l0 -68 18 50 c64 179 186 333 318 402 46 25 52 31 46 53 -12 50 -11 50 -92 3z" id="39"/>
<path d="M1634 6265 c-15 -33 -15 -37 1 -61 9 -15 25 -49 35 -78 l19 -51 0 49 c1 62 -18 176 -30 176 -4 0 -16 -16 -25 -35z" id="40"/>
<path d="M1099 6157 c-86 -58 -171 -161 -226 -276 -39 -78 -47 -105 -51 -167 -3 -41 -1 -74 4 -74 5 0 15 28 21 62 27 139 142 300 279 390 57 38 64 46 64 75 0 44 -13 42 -91 -10z" id="41"/>
<path d="M1573 6171 c-22 -28 -22 -29 -3 -46 40 -36 88 -212 90 -330 1 -43 3 -47 11 -26 17 44 22 134 10 209 -12 79 -59 213 -76 219 -6 2 -21 -10 -32 -26z" id="42"/>
<path d="M1506 6098 c-21 -30 -20 -40 8 -97 42 -81 59 -166 60 -288 1 -102 2 -111 17 -97 26 23 39 85 39 185 0 106 -20 202 -58 272 -28 52 -43 58 -66 25z" id="43"/>
<path d="M1111 6044 c-146 -109 -241 -277 -243 -425 0 -36 4 -74 9 -84 9 -15 13 -8 23 36 28 120 96 231 224 367 59 62 66 74 66 111 0 22 -4 41 -9 41 -5 0 -36 -21 -70 -46z" id="44"/>
<path d="M1436 6021 c-4 -5 7 -50 24 -99 52 -155 56 -352 10 -442 -28 -54 -19 -63 14 -13 48 73 59 119 60 248 0 125 -14 196 -55 277 -19 36 -41 49 -53 29z" id="45"/>
<path d="M4435 6005 c-74 -16 -394 -117 -460 -145 -32 -14 -45 -24 -38 -31 6 -6 46 3 117 26 59 20 110 35 112 32 2 -2 -40 -21 -93 -42 -112 -45 -108 -57 8 -25 45 12 83 20 85 18 2 -2 -26 -15 -61 -28 -110 -41 -75 -54 55 -20 41 10 76 18 77 16 2 -2 -25 -14 -59 -26 -79 -29 -87 -36 -51 -44 18 -4 60 1 107 14 100 28 117 22 26 -9 -38 -13 -70 -28 -70 -33 0 -11 57 -10 103 3 53 14 59 4 8 -12 -23 -7 -41 -15 -41 -19 0 -17 43 -17 107 1 110 31 103 22 -22 -25 -20 -8 -20 -8 2 -16 14 -6 44 -2 88 11 79 24 98 19 25 -7 -48 -17 -66 -34 -35 -34 8 0 58 14 111 31 53 17 98 29 100 26 2 -2 -29 -17 -68 -32 -87 -34 -102 -45 -62 -45 55 0 132 30 292 112 86 44 197 102 247 127 l90 46 -110 6 c-100 5 -126 11 -290 66 -215 73 -223 74 -300 58z" id="46"/>
<path d="M1370 5982 l-23 -19 32 -93 c29 -83 33 -105 32 -199 -1 -116 -17 -193 -56 -271 -33 -65 -16 -64 34 3 75 99 94 181 80 334 -8 84 -48 236 -68 256 -4 4 -18 -1 -31 -11z" id="47"/>
<path d="M7114 5960 c7 -46 -12 -63 -46 -41 -11 7 -23 10 -26 6 -3 -3 -8 -72 -9 -153 -3 -107 0 -153 9 -171 22 -41 63 -64 123 -69 133 -11 225 78 225 217 0 85 -91 190 -200 232 -76 29 -84 27 -76 -21z m184 -69 c28 -34 62 -118 62 -153 0 -50 -16 -89 -40 -95 -11 -3 -22 -13 -25 -23 -6 -19 -34 -35 -43 -25 -3 3 5 17 19 31 21 23 24 34 23 107 -1 61 2 75 9 56 5 -13 9 -50 9 -81 0 -63 12 -68 27 -10 18 63 -15 151 -78 211 -34 32 -34 33 -6 16 17 -10 36 -26 43 -34z m-212 -68 c-11 -11 -17 4 -9 23 7 18 8 18 11 1 2 -10 1 -21 -2 -24z m162 -5 c2 -19 -3 -30 -18 -38 -43 -23 -69 19 -34 55 23 23 48 15 52 -17z m-148 -168 c14 -26 52 -51 93 -60 l32 -8 -38 -1 c-29 -1 -45 6 -73 32 -32 29 -37 40 -40 88 -3 53 -3 54 6 12 5 -23 14 -51 20 -63z" id="48"/>
<path d="M1097 5865 c-85 -99 -162 -239 -174 -315 -6 -41 -5 -44 10 -31 53 43 183 243 223 342 42 102 27 103 -59 4z" id="49"/>
<path d="M1294 5930 c-7 -7 -5 -33 8 -83 43 -168 29 -320 -41 -462 -22 -44 -38 -81 -36 -83 9 -10 67 43 90 81 80 137 93 342 32 495 -23 58 -35 70 -53 52z" id="50"/>
<path d="M1234 5875 c-4 -9 -4 -58 0 -108 7 -113 -6 -241 -39 -366 -14 -52 -23 -96 -21 -99 8 -7 65 88 86 145 43 114 49 265 17 387 -14 52 -32 70 -43 41z" id="51"/>
<path d="M1167 5808 c-8 -13 -27 -45 -42 -73 -33 -60 -113 -167 -188 -253 -73 -84 -134 -207 -196 -394 -93 -285 -171 -624 -228 -998 -30 -200 -43 -561 -24 -705 27 -203 85 -415 156 -570 37 -81 163 -250 308 -414 103 -116 255 -256 420 -388 123 -99 437 -308 562 -374 l100 -53 120 -1 c119 0 121 0 190 36 74 39 143 105 284 271 109 128 163 167 382 277 228 114 271 142 360 231 126 127 144 219 76 386 -20 50 -37 101 -37 112 0 24 20 72 30 72 17 0 93 77 111 112 11 22 38 92 60 155 79 228 147 329 380 559 191 189 276 289 319 374 32 64 67 176 57 186 -6 6 -380 -201 -477 -264 -77 -51 -279 -249 -362 -356 -38 -49 -107 -153 -153 -230 -46 -78 -107 -175 -136 -216 -176 -250 -529 -513 -809 -603 -194 -63 -484 -80 -695 -43 -180 32 -395 115 -447 173 -9 10 -30 45 -47 79 -16 33 -37 66 -45 74 -23 18 -20 3 9 -46 19 -32 22 -42 10 -38 -19 8 -69 79 -80 114 -4 14 -16 37 -27 52 -31 45 -95 188 -122 273 -108 344 -132 718 -70 1120 21 133 118 578 150 685 15 47 39 112 54 146 58 124 97 340 85 477 -7 81 -15 92 -38 55z m9 -186 c-8 -66 -36 -195 -42 -190 -2 2 3 58 11 123 8 66 15 123 15 128 0 4 5 5 11 1 8 -4 9 -25 5 -62z m-289 -328 c-53 -131 -76 -198 -138 -414 -48 -167 -66 -196 -28 -47 66 266 185 595 206 574 2 -3 -16 -53 -40 -113z m233 77 c0 -16 -37 -95 -55 -116 -16 -19 -16 -19 -10 10 10 46 43 115 54 115 6 0 11 -4 11 -9z m-99 -318 c-17 -59 -44 -171 -60 -248 -40 -189 -41 -191 -35 -101 8 128 53 327 97 430 32 77 31 38 -2 -81z m-235 -424 c-87 -288 -119 -490 -120 -764 0 -171 -2 -196 -9 -135 -11 99 -2 370 18 495 25 166 117 506 132 491 2 -2 -7 -42 -21 -87z m-127 -173 c-35 -144 -49 -173 -30 -59 12 70 52 205 59 199 2 -2 -11 -65 -29 -140z m3451 -307 c-52 -34 -105 -70 -117 -82 -13 -11 -23 -16 -23 -10 0 17 69 73 141 116 103 60 102 42 -1 -24z m-3523 -86 c-3 -10 -5 -2 -5 17 0 19 2 27 5 18 2 -10 2 -26 0 -35z m200 -15 c-2 -13 -4 -5 -4 17 -1 22 1 32 4 23 2 -10 2 -28 0 -40z m-214 -210 c-10 -338 15 -513 123 -865 3 -10 -1 -7 -9 7 -29 49 -78 205 -104 329 -24 114 -27 147 -27 351 -1 198 9 380 19 380 2 0 1 -91 -2 -202z m221 -45 c3 -62 2 -113 -3 -113 -13 0 -21 92 -20 220 1 97 3 106 9 60 4 -30 10 -106 14 -167z m3020 105 c-55 -57 -156 -168 -224 -248 -180 -213 -190 -215 -23 -3 133 169 311 353 341 353 3 0 -39 -46 -94 -102z m-142 -335 c-16 -21 -40 -47 -52 -58 -28 -25 -101 -117 -174 -219 -31 -43 -56 -74 -56 -69 0 13 87 152 127 203 34 42 172 180 181 180 2 0 -10 -17 -26 -37z m-2763 -208 l0 -20 -8 20 c-4 11 -11 34 -14 50 l-6 30 14 -30 c8 -16 14 -39 14 -50z m2378 -88 c-46 -92 -197 -250 -311 -325 -78 -51 -86 -37 -10 17 87 61 228 207 290 300 26 39 49 69 52 66 3 -2 -7 -28 -21 -58z m-2257 -198 c20 -39 25 -58 15 -49 -21 17 -52 78 -76 149 -26 76 -23 87 6 19 13 -31 37 -85 55 -119z m-105 -385 c21 -38 56 -96 78 -128 22 -32 34 -55 27 -51 -24 15 -148 217 -183 298 -52 122 -56 157 -4 46 24 -53 61 -128 82 -165z m231 165 c146 -179 373 -301 620 -333 l109 -14 -77 -1 c-261 -4 -552 157 -691 382 -27 42 -15 32 39 -34z m2218 7 c5 -33 4 -46 -3 -41 -6 3 -11 27 -11 52 0 57 5 53 14 -11z m-490 11 c-2 -7 -32 -31 -67 -54 -111 -73 -113 -70 -9 15 63 52 86 63 76 39z m-1887 -412 c103 -129 241 -266 372 -368 144 -113 155 -124 96 -92 -183 100 -432 346 -599 593 -53 78 -126 212 -126 229 0 5 40 -53 88 -127 49 -74 125 -180 169 -235z m2406 165 c-16 -94 -88 -169 -278 -287 -141 -87 -256 -152 -240 -136 6 6 91 62 191 126 255 165 302 217 313 342 4 57 5 58 12 25 5 -19 6 -51 2 -70z m-883 -6 c0 -10 -115 -56 -204 -80 -50 -14 -129 -27 -176 -29 l-85 -5 99 19 c92 18 345 87 355 97 6 6 11 5 11 -2z m-973 -467 c44 -31 124 -83 178 -117 55 -33 96 -60 92 -60 -21 0 -168 78 -250 133 -91 61 -251 210 -317 297 -21 28 15 -2 92 -75 70 -67 162 -146 205 -178z m1423 215 c-162 -80 -237 -140 -331 -264 -72 -93 -124 -137 -215 -180 -64 -30 -76 -32 -164 -31 -58 1 -124 10 -170 22 -41 11 -59 18 -40 16 144 -19 234 -24 280 -15 116 22 190 73 294 204 107 134 198 204 341 263 114 46 116 40 5 -15z m-299 -340 c-34 -44 -78 -83 -52 -47 19 26 74 85 79 85 2 0 -10 -17 -27 -38z m-910 -172 c140 -82 292 -129 424 -131 92 -1 57 -17 -39 -18 -174 -2 -396 99 -561 253 l-60 57 84 -61 c46 -33 114 -78 152 -100z m688 -52 c-35 -29 -109 -71 -115 -65 -8 7 120 96 130 89 5 -3 -1 -14 -15 -24z" id="52"/>
<path d="M7377 5606 c-31 -66 -159 -117 -238 -96 -22 6 -48 14 -57 17 -31 12 18 -35 81 -78 67 -44 102 -49 141 -18 31 25 81 119 91 172 9 46 3 47 -18 3z" id="53"/>
<path d="M7446 5572 c-8 -13 11 -122 40 -230 14 -51 24 -98 21 -105 -3 -10 -51 132 -75 223 l-9 35 -8 -48 c-12 -78 35 -265 111 -438 37 -83 46 -131 19 -95 -8 11 -18 36 -21 55 -4 20 -17 56 -29 81 -27 54 -71 191 -88 278 l-13 63 -27 -41 c-33 -50 -34 -89 -8 -191 33 -130 79 -215 192 -357 23 -29 39 -55 36 -58 -7 -8 -131 148 -166 211 -39 68 -76 175 -91 262 -11 70 -13 72 -32 59 -11 -8 -27 -12 -34 -9 -8 3 -14 -1 -14 -10 0 -24 49 -186 67 -220 15 -30 15 -31 0 -18 -19 15 -77 187 -77 226 0 17 -14 34 -47 60 -25 19 -48 33 -50 31 -2 -2 9 -31 26 -64 32 -64 65 -174 77 -255 6 -42 15 -56 83 -126 42 -43 118 -114 170 -157 158 -131 222 -201 263 -284 46 -94 57 -143 58 -252 0 -156 -38 -220 -214 -362 -130 -105 -222 -206 -188 -206 4 0 46 34 92 75 117 104 143 114 40 14 -74 -71 -81 -81 -55 -75 17 4 48 24 70 44 22 21 58 53 80 72 37 33 38 33 15 5 -13 -16 -38 -45 -55 -64 -30 -33 -30 -33 -5 -26 144 41 312 320 327 546 7 101 -14 210 -52 278 -29 50 -31 61 -10 61 27 0 16 24 -46 105 -118 154 -153 230 -230 501 -27 97 -54 183 -60 192 -5 10 -24 63 -43 120 -19 57 -37 99 -40 94z m163 -592 c37 -94 83 -184 149 -292 37 -60 17 -44 -31 25 -72 101 -167 305 -167 359 0 31 3 24 49 -92z m231 -461 c12 -22 23 -64 26 -92 l4 -52 -19 65 c-10 36 -23 77 -30 93 -16 41 -4 33 19 -14z m40 -366 c-12 -71 -42 -159 -64 -189 -8 -10 -4 12 10 50 27 75 53 187 56 239 l1 32 4 -34 c3 -19 -1 -63 -7 -98z" id="54"/>
<path d="M7490 5568 c0 -9 14 -55 31 -102 33 -91 44 -100 87 -70 12 8 22 21 22 28 0 20 -139 164 -140 144z" id="55"/>
<path d="M7381 5504 c-31 -72 -79 -114 -131 -114 -29 0 -55 11 -104 44 -61 41 -66 43 -66 22 0 -36 149 -166 191 -166 29 0 97 96 120 171 27 88 21 113 -10 43z" id="56"/>
<path d="M2310 5416 c-41 -13 -154 -53 -250 -89 -631 -237 -880 -333 -890 -344 -3 -3 16 -2 42 1 81 12 748 -21 1113 -55 644 -59 1031 -49 1900 50 145 17 810 34 1065 28 161 -4 279 -13 375 -27 274 -42 715 -37 1105 10 85 10 185 22 223 26 66 6 67 7 67 35 l0 29 -172 0 c-95 0 -279 -7 -408 -16 -239 -16 -402 -15 -453 5 -15 6 -39 23 -53 38 -24 26 -27 26 -132 24 -433 -8 -835 -24 -1052 -42 -213 -17 -308 -20 -575 -16 -185 3 -339 10 -365 16 -25 6 -91 35 -148 64 l-104 52 -166 -5 c-92 -3 -234 -5 -317 -4 -144 0 -154 2 -240 33 -49 18 -142 60 -205 94 -63 33 -139 73 -169 89 -63 33 -91 34 -191 4z" id="57"/>
<path d="M7090 5170 c0 -107 5 -212 10 -232 9 -30 79 -159 97 -178 11 -11 -10 68 -33 124 -30 75 -23 86 11 15 15 -32 25 -46 25 -33 0 25 -29 125 -40 139 -5 6 -14 24 -20 40 l-11 30 25 -30 c14 -16 34 -55 45 -85 l21 -55 -6 45 c-3 25 -21 83 -40 129 -37 94 -31 97 15 7 18 -33 31 -50 31 -38 0 33 -40 153 -72 217 -59 118 -58 121 -58 -95z" id="58"/>
<path d="M6775 4958 c-223 -28 -266 -30 -600 -31 -329 -2 -374 0 -515 21 -329 49 -1086 39 -1660 -22 -520 -56 -583 -59 -955 -59 -307 1 -393 5 -700 32 -699 62 -1148 68 -1271 16 -22 -9 -33 -21 -37 -43 -3 -16 -9 -41 -13 -56 l-6 -26 54 19 c106 37 195 46 433 46 251 0 372 -11 565 -53 119 -26 138 -27 390 -26 241 1 284 4 475 32 356 52 468 51 810 -5 212 -34 410 -36 610 -5 119 19 182 22 416 22 303 0 427 -9 594 -42 89 -18 143 -22 285 -22 171 0 180 2 430 53 322 67 456 75 706 42 89 -12 198 -21 244 -21 74 0 82 2 77 18 -3 9 -13 40 -22 67 -10 28 -19 56 -21 63 -4 15 -2 15 -289 -20z" id="59"/>
<path d="M7245 4886 c-4 -26 -6 -48 -4 -50 2 -2 23 -1 45 3 l42 6 -38 44 -38 44 -7 -47z" id="60"/>
<path d="M1350 4829 c-130 -7 -240 -26 -303 -52 -40 -17 -39 -16 -62 -147 -57 -323 -59 -337 -59 -600 -1 -140 3 -286 8 -325 l10 -70 7 80 c5 53 20 114 44 180 21 55 39 114 42 130 9 62 14 75 28 75 22 0 35 -33 35 -87 0 -35 -10 -68 -36 -122 -30 -59 -37 -87 -40 -145 l-4 -71 20 60 c11 33 38 97 61 143 27 53 45 107 52 152 6 39 14 70 18 70 22 0 34 -39 33 -104 0 -59 -7 -85 -36 -151 -76 -172 -83 -281 -26 -407 26 -56 40 -73 88 -107 32 -23 89 -55 127 -72 37 -16 76 -40 85 -52 10 -12 18 -16 18 -9 0 21 25 13 56 -19 16 -17 52 -42 79 -56 131 -67 175 -116 175 -196 0 -58 -17 -94 -65 -136 -32 -28 -42 -31 -103 -31 -62 0 -74 4 -144 45 -43 25 -85 45 -96 45 -40 0 -59 57 -22 67 29 8 25 27 -14 61 -33 29 -67 43 -131 56 l-30 6 34 -31 c19 -18 47 -57 62 -88 43 -91 106 -137 251 -186 182 -60 250 -70 478 -70 162 0 223 4 290 19 219 48 414 149 652 338 161 128 265 257 423 523 95 162 181 271 320 410 123 123 199 177 445 315 264 149 318 170 338 134 7 -12 16 -4 45 40 47 71 69 78 114 34 63 -60 111 -161 159 -333 18 -66 27 -135 35 -260 20 -307 -5 -532 -85 -781 -70 -215 -107 -297 -227 -494 -5 -8 -23 -41 -39 -73 -17 -32 -48 -87 -70 -122 l-40 -65 32 -19 c63 -39 184 -63 331 -67 75 -1 142 -6 148 -10 12 -7 4 -82 -13 -119 -5 -12 -27 -32 -48 -44 -22 -12 -42 -31 -45 -41 -7 -21 -53 -50 -79 -50 -8 0 -21 -12 -28 -27 -26 -54 -200 -85 -328 -59 -70 15 -192 66 -235 99 -18 14 -25 10 -105 -58 -128 -109 -219 -175 -239 -175 -11 0 -47 -36 -89 -87 -39 -49 -143 -162 -231 -252 l-160 -164 -56 6 c-52 5 -57 4 -96 -29 -47 -39 -60 -41 -103 -14 -35 21 -31 22 -110 -34 -25 -18 -29 -18 -69 -2 -48 18 -93 21 -102 6 -3 -5 -24 -10 -45 -10 -31 0 -43 5 -55 24 -22 33 -41 39 -75 21 -50 -26 -92 -19 -130 20 -52 54 -37 68 78 77 99 7 175 35 268 99 57 39 187 150 182 155 -2 2 -26 -4 -53 -12 -107 -32 -283 -48 -550 -48 -227 0 -266 2 -309 18 -73 27 -212 106 -374 212 -78 52 -145 94 -147 94 -10 0 -4 -58 10 -108 12 -39 33 -70 84 -125 38 -41 72 -85 76 -98 l8 -24 8 24 c15 38 33 19 53 -55 10 -38 23 -79 29 -91 17 -38 136 -92 238 -109 101 -16 127 -30 181 -96 29 -35 51 -49 119 -75 46 -18 103 -37 126 -43 37 -9 180 -110 206 -145 4 -5 -6 -22 -23 -36 l-31 -26 42 -17 c52 -21 73 -18 230 34 64 21 137 41 162 45 57 9 117 -9 117 -35 0 -17 -54 -72 -96 -97 -19 -11 -19 -11 1 -18 11 -4 45 -18 76 -31 114 -48 243 -55 364 -18 27 8 72 14 102 14 54 0 185 -25 213 -41 42 -24 44 -27 31 -43 -20 -24 12 -31 79 -18 113 24 218 10 294 -38 l46 -30 0 35 c0 30 3 35 23 35 13 0 46 -7 73 -15 89 -27 139 -14 234 59 141 109 199 136 290 136 l58 0 43 57 c43 55 151 153 170 153 19 0 8 16 -27 38 -42 27 -40 43 7 59 46 16 116 16 172 -1 61 -18 225 -7 259 18 13 9 59 41 103 70 121 80 122 85 23 79 -47 -2 -89 0 -98 6 -41 28 139 137 243 148 55 6 58 7 76 47 10 23 46 78 80 123 53 73 69 87 133 119 55 28 89 38 140 42 66 5 67 4 74 -22 3 -14 8 -26 11 -26 11 0 95 63 145 109 56 51 165 198 155 208 -3 3 -41 -13 -83 -36 -84 -46 -99 -43 -88 14 9 43 33 77 84 120 60 51 136 85 187 85 43 0 78 16 164 76 65 46 121 72 182 88 l52 13 6 114 c11 181 45 310 126 473 35 69 40 87 26 81 -77 -33 -193 -59 -193 -44 0 5 39 65 87 135 89 129 128 165 216 203 37 16 45 25 56 62 14 46 69 157 98 199 17 23 17 24 -2 16 -11 -4 -51 -14 -90 -21 -38 -8 -78 -17 -87 -20 -43 -17 -6 67 61 139 14 15 70 64 123 107 98 80 153 139 182 196 38 75 12 297 -49 431 -26 56 -125 162 -267 285 -66 57 -66 57 -131 57 -72 0 -77 -4 -77 -71 0 -54 -20 -51 -59 9 l-31 49 -130 6 c-71 4 -178 14 -237 23 -80 12 -153 15 -283 11 -159 -4 -196 -9 -395 -50 -352 -73 -482 -80 -709 -36 -181 34 -306 43 -606 43 -260 1 -313 -2 -448 -23 -202 -31 -401 -26 -642 15 -143 24 -191 28 -365 28 -169 0 -226 -5 -370 -28 -341 -54 -656 -58 -876 -12 -220 47 -491 67 -729 55z m4210 -125 c107 -8 269 -24 360 -36 92 -11 224 -21 300 -21 l135 -1 -105 -13 c-98 -12 -120 -11 -320 12 -370 42 -486 50 -785 50 -305 0 -333 -3 -630 -56 -182 -33 -305 -37 -435 -14 -47 9 -172 20 -279 26 -295 17 -567 -4 -858 -67 -127 -27 -283 -32 -451 -13 -113 12 -526 80 -657 108 -144 31 -49 24 185 -14 477 -78 479 -78 660 -79 160 -1 188 2 325 31 236 50 321 58 635 57 225 -1 307 -4 390 -19 195 -33 271 -31 495 9 189 34 321 52 445 60 90 6 381 -4 590 -20z m-4248 -10 c87 -45 125 -200 73 -307 -26 -55 -102 -97 -175 -97 -67 0 -108 23 -147 81 -24 37 -28 53 -28 114 0 62 4 78 30 120 62 100 158 134 247 89z m5096 -41 c-10 -2 -26 -2 -35 0 -10 3 -2 5 17 5 19 0 27 -2 18 -5z m1063 -13 c35 -19 22 -90 -16 -90 -35 0 -58 28 -50 59 10 39 31 49 66 31z m-1871 -236 c42 -36 60 -74 60 -131 0 -84 -55 -143 -133 -143 -66 0 -133 82 -124 150 10 78 77 150 139 150 14 0 40 -12 58 -26z m2037 -104 c43 -26 63 -68 63 -131 0 -64 -30 -130 -72 -161 -42 -30 -122 -35 -168 -11 -41 21 -80 90 -80 140 0 68 47 143 105 169 45 20 115 17 152 -6z m-6248 -116 c40 -51 18 -114 -45 -130 -31 -8 -50 2 -77 38 -56 75 65 165 122 92z m910 -109 c55 -28 66 -111 22 -156 -43 -43 -93 -41 -137 7 -40 42 -44 79 -13 118 36 46 80 56 128 31z m4391 -103 c32 -26 38 -90 11 -124 -23 -28 -75 -45 -109 -34 -28 9 -56 67 -48 100 17 67 96 98 146 58z m-1335 -37 c19 -18 25 -35 25 -68 0 -58 -17 -78 -72 -84 -38 -4 -48 -2 -67 18 -49 53 -3 156 72 158 10 1 29 -10 42 -24z m-2855 -195 c26 -26 25 -64 -2 -90 -35 -32 -74 -26 -97 17 -17 33 -13 60 11 77 31 22 64 20 88 -4z m4729 -116 c26 -22 31 -33 31 -71 0 -55 -12 -78 -51 -99 -40 -20 -80 -5 -109 41 -24 39 -25 66 -5 105 29 56 85 66 134 24z m-5794 -11 c43 -68 117 -123 165 -123 13 0 20 -7 20 -20 0 -12 9 -38 20 -60 28 -56 42 -124 30 -155 -13 -33 -24 -32 -81 12 -57 43 -93 106 -78 135 14 27 -9 55 -88 108 -73 48 -85 73 -40 78 23 3 26 7 21 28 -8 32 10 31 31 -3z m5315 -12 c36 -69 -36 -135 -90 -81 -11 11 -20 25 -20 31 0 15 21 53 34 61 22 15 65 8 76 -11z m-3510 -36 c0 -35 -54 -140 -82 -159 -12 -9 -35 -16 -49 -16 -15 0 -41 -11 -57 -25 -35 -29 -62 -32 -62 -7 0 9 -3 26 -5 37 -5 16 2 23 34 37 34 14 40 20 38 43 -2 24 7 33 68 71 81 51 115 57 115 19z m2272 -22 c27 -25 24 -88 -6 -118 -26 -26 -46 -25 -78 3 -26 22 -23 74 7 106 28 30 51 33 77 9z m-3114 -76 c-2 -25 -8 -33 -26 -35 -49 -7 -70 44 -30 72 32 23 60 4 56 -37z m72 -146 c0 -12 -20 -25 -27 -18 -7 7 6 27 18 27 5 0 9 -4 9 -9z m4178 -34 c4 -22 -25 -57 -48 -57 -23 0 -39 19 -33 39 14 41 74 54 81 18z m-1255 -29 c6 -19 -3 -38 -18 -38 -18 0 -28 17 -21 35 7 18 33 20 39 3z m-2738 -19 c13 -13 -32 -94 -68 -125 -32 -27 -50 -30 -66 -11 -8 11 -24 12 -72 4 -44 -7 -70 -7 -93 1 -18 7 -46 12 -64 12 -17 0 -33 4 -37 9 -6 10 32 51 47 51 4 0 8 12 8 26 0 29 -4 29 82 -1 l46 -17 73 36 c73 36 116 41 144 15z m4073 -111 c-3 -7 -13 -15 -24 -17 -16 -3 -17 -1 -5 13 16 19 34 21 29 4z m-4324 -77 c11 -17 -26 -101 -55 -126 -48 -39 -99 -48 -206 -36 -102 12 -155 36 -190 88 -23 33 -34 59 -27 66 12 11 92 -25 97 -43 10 -39 105 -55 114 -20 3 11 17 23 31 27 14 3 44 16 66 29 31 18 56 24 103 24 34 0 64 -4 67 -9z m2910 -50 c24 -26 17 -53 -17 -69 -35 -17 -57 -2 -57 37 0 50 42 68 74 32z m1536 -30 c0 -25 -67 -171 -79 -171 -5 0 -12 7 -15 16 -6 15 -10 14 -32 -7 -14 -13 -33 -39 -42 -58 -10 -19 -21 -34 -26 -35 -5 0 -16 18 -23 41 l-14 42 41 42 c36 38 40 45 26 55 -15 10 -15 13 0 25 72 59 164 88 164 50z m-291 -135 c6 -14 6 -39 0 -62 -4 -22 -9 -54 -9 -71 0 -37 -2 -38 -30 -21 -28 18 -70 -23 -70 -68 0 -17 -6 -37 -14 -43 -12 -10 -18 -7 -31 18 -9 18 -23 31 -35 31 -35 0 -31 19 10 45 40 25 56 65 25 65 -39 0 7 57 85 107 45 29 58 29 69 -1z m-1094 -151 c0 -25 -4 -30 -24 -30 -32 0 -49 28 -31 50 7 9 23 15 34 13 16 -2 21 -10 21 -33z m1071 -139 c6 -16 -23 -125 -39 -144 -6 -7 -20 -11 -32 -8 -27 7 -48 -15 -65 -69 -22 -71 -42 -81 -53 -25 -5 21 -12 30 -27 30 -30 0 -25 18 20 66 22 24 43 57 46 73 5 23 19 36 63 60 63 34 79 37 87 17z m-196 -24 c0 -44 -98 -147 -131 -137 -12 4 -24 -5 -40 -32 -35 -57 -50 -66 -75 -42 -11 10 -28 19 -37 19 -32 0 -27 20 10 43 43 28 81 66 97 99 7 15 33 31 71 45 76 28 105 29 105 5z m575 -44 c52 -61 10 -148 -71 -148 -56 0 -72 7 -89 41 -40 77 0 138 92 139 34 0 46 -5 68 -32z m-1535 -57 c0 -11 -4 -22 -9 -25 -12 -8 -34 21 -26 34 11 17 35 11 35 -9z m39 -207 c-6 -7 -15 -11 -21 -8 -5 3 -4 12 3 20 6 7 15 11 21 8 5 -3 4 -12 -3 -20z m797 2 c32 -22 22 -40 -50 -94 -57 -43 -81 -51 -89 -29 -4 8 -17 0 -37 -22 -28 -29 -31 -39 -26 -70 12 -77 12 -76 -9 -73 -104 14 -105 15 -80 60 8 15 19 53 25 85 7 33 22 69 36 86 13 16 24 34 24 40 0 39 153 51 206 17z m-333 8 c15 -16 -22 -71 -82 -120 -56 -47 -70 -54 -95 -50 -24 5 -36 0 -63 -26 -37 -36 -52 -31 -36 13 11 28 10 31 -13 40 -38 14 -24 32 36 46 62 14 78 26 61 47 -16 19 -2 27 74 42 69 14 109 17 118 8z m-367 -198 c7 -18 -29 -118 -56 -156 -16 -23 -27 -29 -44 -24 -17 4 -28 -4 -55 -40 -18 -25 -36 -46 -42 -46 -5 0 -9 16 -9 35 0 32 -2 35 -30 35 -44 0 -37 24 13 44 62 24 83 42 69 59 -13 16 5 35 73 81 44 29 73 33 81 12z m-378 -29 c27 -29 52 -89 52 -126 0 -17 -9 -53 -20 -82 -13 -33 -19 -69 -18 -102 3 -48 1 -52 -20 -55 -15 -2 -28 -15 -37 -35 -17 -40 -35 -169 -35 -250 -1 -34 -7 -79 -14 -100 -26 -71 -95 -152 -114 -133 -3 3 9 52 27 107 39 117 57 223 47 265 -7 25 -9 27 -18 11 -5 -10 -21 -73 -34 -140 -31 -155 -54 -194 -154 -263 -85 -59 -106 -86 -165 -210 -44 -92 -66 -121 -85 -109 -14 8 -12 62 3 105 20 56 118 187 210 282 96 99 123 148 132 239 6 70 8 73 -45 -47 -21 -46 -44 -76 -99 -124 -58 -53 -79 -79 -111 -146 -29 -60 -51 -91 -82 -115 -24 -18 -58 -46 -76 -63 -32 -30 -33 -30 -39 -8 -3 12 -9 22 -12 22 -9 0 -63 -74 -85 -117 -9 -18 -21 -33 -28 -33 -15 0 -2 91 22 143 10 23 23 60 29 83 11 41 60 95 155 169 36 28 39 35 51 111 7 45 21 98 30 119 10 20 73 91 141 158 68 66 127 129 130 140 3 11 -2 35 -12 54 l-19 35 31 26 c17 15 47 55 67 89 70 115 145 154 195 100z m662 -117 c0 -20 -52 -115 -78 -142 -30 -32 -40 -34 -56 -12 -10 13 -17 12 -60 -12 -42 -23 -54 -26 -104 -20 -72 9 -81 18 -48 51 14 14 26 34 26 45 0 16 4 17 32 9 51 -14 80 -11 117 14 105 70 171 95 171 67z m-1717 -17 c8 -13 -50 -131 -69 -141 -11 -5 -45 -12 -76 -16 -44 -5 -58 -3 -58 7 0 20 111 124 150 141 41 18 47 19 53 9z m344 -56 c60 -41 69 -123 27 -237 -26 -69 -26 -72 -10 -112 18 -46 7 -73 -25 -63 -29 10 -23 -15 12 -51 49 -51 21 -84 -41 -49 -14 8 -28 14 -32 15 -16 0 -53 -49 -84 -115 -18 -38 -42 -81 -53 -95 -16 -21 -19 -35 -14 -90 7 -82 -11 -126 -71 -174 -57 -46 -75 -54 -163 -72 -43 -9 -88 -22 -100 -30 -32 -20 -43 -17 -43 9 0 38 41 66 134 91 114 30 176 88 176 163 0 26 -1 26 -47 -24 -27 -28 -66 -59 -88 -68 -62 -26 -180 -44 -293 -45 -119 0 -147 -9 -231 -75 -63 -49 -91 -57 -91 -24 0 37 33 79 85 109 55 31 173 70 212 70 38 0 18 17 -30 26 -64 11 -98 6 -139 -22 -20 -14 -72 -37 -115 -51 -88 -28 -154 -27 -199 2 l-28 18 23 18 c18 15 33 17 79 13 44 -5 71 -1 116 15 69 24 96 47 141 116 18 28 41 58 52 67 29 26 99 48 155 48 102 0 155 51 197 189 11 37 35 87 52 111 18 24 27 46 22 47 -60 20 -53 63 9 63 52 0 71 10 58 30 -6 8 -10 23 -10 33 0 14 7 17 41 15 41 -3 43 -1 80 52 27 38 54 63 91 83 60 32 91 31 145 -6z m1542 -77 c-26 -70 -66 -123 -86 -116 -8 3 -29 -5 -46 -18 -36 -27 -72 -40 -86 -32 -14 9 76 153 115 184 36 29 104 54 116 43 4 -4 -2 -31 -13 -61z m-1269 -53 c0 -31 -46 -96 -76 -107 -28 -11 -34 -59 -9 -80 8 -7 15 -16 15 -21 0 -11 -58 -41 -69 -35 -14 9 -34 114 -28 152 3 20 14 45 24 56 26 28 83 57 116 58 22 0 27 -4 27 -23z m-736 -6 c8 -13 -18 -83 -49 -129 -18 -28 -40 -45 -71 -57 -25 -9 -55 -30 -67 -47 -18 -24 -23 -26 -32 -15 -6 8 -25 18 -43 21 -45 10 -39 27 20 56 28 14 55 33 59 43 5 9 13 25 17 34 10 20 129 103 148 103 7 0 15 -4 18 -9z m1426 -69 c0 -4 -16 -23 -35 -42 -19 -19 -47 -51 -61 -71 -14 -20 -36 -40 -49 -43 -16 -4 -29 -20 -40 -51 -25 -64 -42 -76 -56 -36 -8 23 -17 31 -35 31 -37 0 -28 22 24 55 34 22 48 37 50 57 4 30 48 73 97 94 33 15 105 19 105 6z m310 -21 c0 -30 -44 -102 -83 -138 -46 -42 -70 -52 -82 -34 -3 6 -23 2 -48 -9 -47 -22 -84 -25 -107 -10 -13 9 -12 12 4 25 19 15 19 15 -4 40 -13 14 -19 25 -14 25 5 1 32 2 59 3 42 2 59 9 96 39 25 20 58 44 74 52 33 17 105 22 105 7z m-2040 -226 c0 -4 -7 -19 -14 -34 -23 -43 -81 -89 -123 -97 -21 -3 -49 -13 -62 -21 -22 -14 -25 -14 -42 8 -26 34 -23 46 14 53 17 3 56 23 85 42 55 38 142 68 142 49z m1700 -5 c0 -6 -17 -35 -37 -66 -31 -46 -49 -62 -108 -91 -38 -19 -80 -44 -92 -55 -26 -24 -44 -16 -42 20 1 15 -1 34 -5 43 -5 12 3 18 32 27 22 7 47 23 56 36 25 39 80 76 127 85 62 12 69 12 69 1z m-381 -345 c-23 -51 -62 -95 -86 -95 -8 0 -26 -9 -40 -20 -38 -30 -53 -26 -53 14 0 24 5 36 18 40 9 3 28 22 41 41 24 36 119 91 133 77 5 -5 -1 -30 -13 -57z" id="61"/>
<path d="M1175 4674 c-63 -32 -106 -92 -120 -166 -9 -48 20 -112 69 -155 30 -27 45 -33 83 -33 66 0 124 31 152 81 20 34 23 52 19 113 -3 61 -8 79 -31 109 -49 64 -111 83 -172 51z m15 -49 c0 -2 -20 -25 -45 -49 -44 -45 -56 -46 -34 -3 13 26 49 56 67 57 6 0 12 -2 12 -5z m-80 -170 c0 -8 -4 -15 -10 -15 -5 0 -10 7 -10 15 0 8 5 15 10 15 6 0 10 -7 10 -15z" id="62"/>
<path d="M7424 4615 c-9 -23 3 -45 25 -45 23 0 35 28 20 46 -15 18 -38 18 -45 -1z" id="63"/>
<path d="M5478 4373 c-46 -49 -61 -89 -48 -128 36 -109 169 -112 201 -5 10 33 9 47 -5 85 -30 78 -98 100 -148 48z m22 -32 c0 -12 -20 -25 -27 -18 -7 7 6 27 18 27 5 0 9 -4 9 -9z" id="64"/>
<path d="M7493 4281 c-67 -31 -108 -121 -84 -184 14 -35 56 -73 98 -87 27 -9 40 -8 78 9 39 17 50 28 72 77 32 71 28 124 -15 166 -38 39 -92 46 -149 19z m-16 -64 c-21 -29 -33 -38 -36 -28 -3 13 50 71 64 71 3 0 -10 -19 -28 -43z m-24 -117 c3 -14 1 -20 -6 -17 -7 2 -14 14 -15 26 -4 28 13 20 21 -9z" id="65"/>
<path d="M1298 4178 c-30 -24 -31 -56 -4 -83 26 -26 45 -25 79 3 50 43 -23 121 -75 80z" id="66"/>
<path d="M2195 4035 c-34 -33 -31 -55 9 -94 37 -35 60 -37 101 -8 24 19 24 80 -1 108 -25 28 -79 25 -109 -6z m19 -20 c-6 -16 -24 -21 -24 -7 0 11 11 22 21 22 5 0 6 -7 3 -15z" id="67"/>
<path d="M6581 3944 c-44 -56 -13 -123 51 -110 42 8 68 33 68 65 0 69 -77 98 -119 45z m28 -20 c-14 -18 -24 -11 -15 11 3 9 11 13 16 10 8 -5 7 -11 -1 -21z" id="68"/>
<path d="M5269 3911 c-34 -34 -37 -63 -9 -91 24 -24 48 -25 78 -4 29 20 30 76 2 104 -27 27 -36 25 -71 -9z m12 -34 c-13 -13 -26 -3 -16 12 3 6 11 8 17 5 6 -4 6 -10 -1 -17z" id="69"/>
<path d="M2420 3725 c-13 -16 -6 -47 16 -66 37 -30 86 35 52 69 -16 16 -53 15 -68 -3z" id="70"/>
<path d="M7143 3618 c-47 -23 -53 -103 -10 -133 31 -21 54 -19 82 10 58 57 -1 157 -72 123z m1 -43 c-6 -16 -24 -21 -24 -7 0 11 11 22 21 22 5 0 6 -7 3 -15z" id="71"/>
<path d="M1412 3564 c-19 -9 -16 -13 32 -42 29 -17 65 -47 80 -66 23 -30 25 -38 14 -60 -9 -21 -8 -32 2 -52 14 -24 85 -84 102 -84 17 0 7 74 -19 134 -23 52 -34 66 -67 82 -22 10 -59 37 -82 59 -35 34 -45 38 -62 29z" id="72"/>
<path d="M6676 3584 c-20 -20 -18 -43 7 -58 25 -16 52 4 52 40 0 35 -33 45 -59 18z" id="73"/>
<path d="M3136 3529 c-63 -39 -66 -42 -51 -59 15 -17 14 -19 -18 -39 -19 -11 -39 -21 -46 -21 -6 0 -11 -11 -11 -25 l0 -24 25 24 c13 14 35 25 49 25 34 0 70 17 85 42 24 39 50 107 42 112 -4 3 -38 -13 -75 -35z" id="74"/>
<path d="M5451 3516 c-26 -28 -27 -62 -2 -76 29 -15 37 -13 49 15 17 37 15 63 -7 74 -14 8 -23 5 -40 -13z" id="75"/>
<path d="M2352 3488 c-18 -18 -14 -38 8 -38 13 0 20 7 20 19 0 25 -13 34 -28 19z" id="76"/>
<path d="M6593 3275 c-3 -9 -3 -19 1 -22 7 -7 36 16 36 28 0 15 -30 10 -37 -6z" id="77"/>
<path d="M2515 3200 c-53 -32 -93 -36 -139 -17 -26 11 -31 10 -56 -13 l-27 -25 49 -12 c38 -10 66 -10 115 -3 45 8 69 8 78 0 20 -16 42 -2 70 45 14 24 25 46 25 49 0 17 -71 2 -115 -24z" id="78"/>
<path d="M2244 3015 c-27 -14 -55 -25 -61 -25 -7 0 -13 -7 -13 -15 0 -23 -39 -38 -88 -32 -36 4 -52 13 -79 42 -37 41 -54 42 -28 1 33 -49 71 -64 190 -71 100 -6 113 -4 142 14 34 21 56 51 68 89 6 20 3 22 -38 22 -27 0 -63 -10 -93 -25z" id="79"/>
<path d="M5260 2976 c0 -29 11 -39 35 -30 24 10 15 48 -12 52 -19 3 -23 -1 -23 -22z" id="80"/>
<path d="M6763 2944 c-29 -17 -43 -33 -43 -47 0 -23 -47 -97 -61 -97 -5 0 -9 -10 -8 -22 l0 -23 17 25 c27 38 72 75 94 75 14 0 25 16 43 58 26 64 20 68 -42 31z" id="81"/>
<path d="M6505 2821 c-16 -10 -38 -27 -48 -39 -16 -17 -17 -23 -5 -42 12 -19 9 -24 -28 -59 l-40 -38 23 -23 23 -22 0 30 c0 34 47 82 80 82 15 0 20 11 25 54 9 73 6 80 -30 57z" id="82"/>
<path d="M5425 2690 c-11 -17 5 -32 21 -19 8 6 14 15 14 20 0 12 -27 11 -35 -1z" id="83"/>
<path d="M6449 2505 c-20 -13 -39 -35 -43 -49 -3 -14 -20 -41 -37 -60 -26 -31 -28 -37 -17 -55 17 -28 24 -26 31 8 8 37 43 71 74 71 24 0 38 23 50 83 7 35 -10 35 -58 2z" id="84"/>
<path d="M6245 2492 c-23 -9 -67 -45 -99 -79 -49 -53 -57 -65 -46 -78 19 -23 28 -19 50 25 21 42 50 63 73 55 8 -4 29 11 50 35 56 62 48 74 -28 42z" id="85"/>
<path d="M6782 2470 c-47 -44 -10 -120 57 -120 42 0 65 19 76 62 16 61 -83 104 -133 58z m28 -19 c0 -5 -7 -14 -15 -21 -12 -10 -15 -10 -15 2 0 8 3 18 7 21 9 10 23 9 23 -2z" id="86"/>
<path d="M6030 2168 c-48 -57 -59 -78 -60 -113 0 -16 -7 -43 -15 -59 -20 -37 -20 -36 15 -36 27 0 30 2 20 19 -17 33 -11 56 25 99 39 44 73 62 85 42 5 -9 22 -1 59 26 28 21 51 41 51 45 0 11 -41 19 -95 19 -46 0 -53 -3 -85 -42z" id="87"/>
<path d="M5786 2196 c-44 -8 -60 -16 -62 -29 -4 -28 -23 -46 -64 -58 -34 -10 -37 -14 -27 -30 8 -13 15 -15 24 -7 7 6 26 8 43 5 23 -5 37 0 72 29 63 51 106 107 81 103 -5 -1 -35 -7 -67 -13z" id="88"/>
<path d="M5438 1989 c-40 -26 -47 -35 -42 -54 5 -19 -2 -28 -34 -50 -33 -21 -38 -30 -34 -52 l5 -26 19 27 c27 36 55 51 73 36 10 -9 18 0 38 42 30 63 43 108 31 108 -5 0 -30 -14 -56 -31z" id="89"/>
<path d="M5038 1974 c-21 -15 -56 -58 -79 -96 -23 -38 -53 -77 -66 -85 -24 -16 -24 -17 -5 -35 10 -10 69 -36 130 -58 l112 -39 0 43 c0 24 7 65 15 92 27 89 16 151 -33 192 -22 17 -32 15 -74 -14z m102 -88 c0 -22 -4 -47 -9 -55 -5 -8 -7 3 -4 31 3 27 0 55 -8 69 -11 22 -11 23 4 10 11 -9 17 -28 17 -55z m-34 -172 c-8 -20 -50 -17 -77 6 l-24 20 28 -10 c52 -18 67 -13 68 23 2 31 2 31 6 4 3 -16 2 -35 -1 -43z" id="90"/>
<path d="M4895 1687 c-4 -12 -62 -78 -130 -147 -68 -69 -130 -139 -139 -157 -9 -17 -23 -75 -31 -129 -25 -152 -40 -179 -137 -245 -34 -23 -68 -57 -83 -83 -39 -66 -30 -74 19 -14 24 29 71 75 104 102 92 74 111 106 123 217 6 52 19 113 29 136 11 26 70 95 149 177 72 74 131 139 131 145 0 21 -29 19 -35 -2z" id="91"/>
<path d="M4944 1670 c-5 -10 -59 -70 -120 -132 -162 -166 -163 -168 -188 -358 -8 -60 5 -37 42 77 17 50 38 106 47 124 24 46 107 131 161 165 42 26 94 100 94 134 0 18 -27 11 -36 -10z" id="92"/>
<path d="M4978 1613 c-37 -82 -55 -149 -62 -221 -8 -88 -42 -148 -143 -250 -100 -101 -203 -250 -203 -293 0 -16 2 -29 4 -29 3 0 25 42 49 93 52 109 80 145 156 196 108 74 118 92 155 265 13 61 40 149 60 196 40 94 41 100 23 100 -7 0 -24 -26 -39 -57z" id="93"/>
<path d="M5040 1615 c-7 -20 -13 -88 -14 -153 -2 -94 -8 -134 -29 -201 -15 -46 -25 -86 -23 -88 2 -3 16 16 30 40 23 39 28 62 36 179 9 118 20 181 45 241 5 13 2 17 -13 17 -15 0 -24 -10 -32 -35z" id="94"/>
<path d="M4843 1439 c-16 -36 -55 -93 -87 -128 -67 -76 -75 -108 -15 -60 50 39 80 84 114 168 35 85 26 101 -12 20z" id="95"/>
<path d="M4793 1433 c-34 -43 -67 -103 -60 -109 7 -7 56 54 78 98 27 53 18 58 -18 11z" id="96"/>
<path d="M4490 1108 c-53 -43 -97 -94 -89 -102 2 -2 29 12 59 32 49 34 100 96 87 108 -3 3 -29 -14 -57 -38z" id="97"/>
<path d="M4594 1080 c-16 -21 -53 -58 -81 -81 -29 -23 -53 -49 -53 -57 0 -16 0 -16 71 41 42 33 107 122 97 133 -3 2 -18 -14 -34 -36z" id="98"/>
<path d="M5685 1824 c-54 -41 -85 -54 -126 -54 -16 0 -35 -5 -42 -10 -7 -6 -21 -17 -32 -24 -19 -13 -17 -15 20 -22 34 -6 49 -3 99 25 46 25 61 29 72 20 18 -15 48 10 75 64 19 37 19 37 0 37 -11 0 -40 -16 -66 -36z" id="99"/>
<path d="M4011 1823 c-18 -9 -35 -24 -38 -32 -3 -9 -15 -26 -26 -38 l-20 -23 30 0 c33 0 66 29 83 74 6 16 9 30 8 32 -2 1 -18 -4 -37 -13z" id="100"/>
<path d="M4305 1801 c-43 -20 -76 -53 -116 -114 -22 -35 -27 -38 -61 -34 -33 4 -36 3 -29 -11 24 -43 105 -106 205 -156 60 -31 111 -55 113 -53 2 2 -2 17 -7 34 -9 25 -7 42 10 89 38 101 43 149 24 190 -16 33 -65 74 -89 74 -5 0 -28 -9 -50 -19z m46 -24 c-13 -13 -26 -3 -16 12 3 6 11 8 17 5 6 -4 6 -10 -1 -17z m-64 -20 c-12 -13 -32 -36 -45 -52 l-22 -30 16 35 c20 44 43 70 60 70 8 0 5 -9 -9 -23z m127 1 c9 -12 16 -38 15 -58 l-1 -35 -9 39 c-5 22 -17 48 -26 58 -9 10 -11 18 -5 18 6 0 18 -10 26 -22z m16 -129 c0 -5 -7 -9 -15 -9 -15 0 -20 12 -9 23 8 8 24 -1 24 -14z m-40 -58 c-5 -11 -10 -29 -10 -40 0 -12 -5 -21 -11 -21 -13 0 -4 47 13 67 16 19 20 16 8 -6z" id="101"/>
<path d="M4050 1576 l-35 -13 48 -5 c53 -6 84 -29 123 -90 21 -33 29 -38 64 -38 33 0 45 -6 72 -36 69 -77 78 -84 95 -84 13 0 10 7 -14 33 -17 17 -33 43 -35 56 -2 19 -22 34 -89 70 -48 25 -105 63 -128 84 -45 40 -49 41 -101 23z" id="102"/>
<path d="M4023 1502 c-31 -42 -59 -101 -77 -164 -12 -41 -30 -71 -64 -108 l-47 -51 -87 -8 c-108 -10 -139 -27 -196 -111 -51 -74 -61 -83 -122 -113 -31 -14 -73 -23 -135 -27 l-90 -6 43 -13 c47 -16 93 -9 194 29 44 16 75 39 136 100 85 86 97 93 204 115 45 9 80 23 96 37 13 13 47 68 74 123 28 55 70 128 95 163 42 59 43 62 20 62 -14 0 -31 -11 -44 -28z" id="103"/>
<path d="M4081 1453 c-16 -32 -50 -112 -76 -178 -86 -219 -158 -276 -332 -261 -39 4 -74 3 -76 -2 -9 -13 158 -45 198 -38 44 9 111 67 154 134 16 26 49 96 72 156 34 88 51 118 90 159 46 48 48 52 32 69 -9 10 -20 18 -24 18 -5 0 -22 -26 -38 -57z" id="104"/>
<path d="M4128 1413 c-29 -31 -78 -126 -98 -188 -24 -74 -62 -139 -117 -197 -67 -69 -115 -94 -209 -107 -104 -15 -209 -57 -257 -103 -58 -55 -38 -58 30 -5 79 62 99 69 243 77 133 7 181 22 227 72 12 12 60 103 106 200 47 97 97 192 111 211 44 58 13 92 -36 40z" id="105"/>
<path d="M4207 1344 c-42 -85 -59 -182 -51 -290 6 -80 4 -95 -15 -132 -28 -54 -77 -85 -178 -112 -45 -12 -88 -29 -95 -38 -11 -14 -10 -15 7 -8 11 4 54 14 95 23 41 8 86 21 100 28 34 18 97 85 108 115 5 13 7 75 4 137 -6 141 11 212 72 306 18 26 18 27 -1 27 -13 0 -27 -17 -46 -56z" id="106"/>
<path d="M4283 1338 c-40 -41 -83 -133 -83 -176 0 -46 15 -33 49 42 15 34 42 78 59 97 26 30 29 39 19 53 -11 15 -15 14 -44 -16z" id="107"/>
<path d="M4095 1195 c-36 -76 -63 -140 -60 -144 3 -3 9 -1 13 5 4 6 23 30 44 55 28 34 39 59 48 109 6 35 16 73 22 83 5 10 7 21 4 24 -3 4 -35 -56 -71 -132z" id="108"/>
<path d="M3955 1258 c-46 -95 -70 -113 -178 -137 -91 -21 -162 -59 -144 -78 15 -14 161 -7 194 11 48 24 99 91 133 173 39 93 35 114 -5 31z" id="109"/>
<path d="M4074 1057 c-28 -28 -56 -56 -62 -62 -33 -28 -78 -85 -68 -85 7 0 34 11 62 25 55 28 124 112 124 151 0 13 -1 24 -2 24 -2 0 -26 -24 -54 -53z" id="110"/>
<path d="M5875 1728 c-35 -30 -94 -128 -77 -128 5 0 21 14 37 30 17 18 37 29 49 28 20 -3 46 32 61 80 10 34 -27 29 -70 -10z" id="111"/>
<path d="M4621 1658 c-29 -14 -48 -32 -57 -54 -18 -43 -17 -61 5 -109 l19 -40 -5 51 c-4 41 -2 54 12 65 41 33 85 81 85 95 0 19 -7 18 -59 -8z" id="112"/>
<path d="M3870 1611 c-30 -20 -57 -47 -60 -59 -5 -21 -74 -82 -94 -82 -6 0 0 -6 14 -14 22 -11 28 -10 50 9 14 13 43 32 65 43 29 14 49 35 68 70 45 83 38 89 -43 33z" id="113"/>
<path d="M5282 1573 c-60 -29 -98 -102 -52 -98 27 2 129 115 103 115 -10 0 -33 -8 -51 -17z" id="114"/>
<path d="M5182 1447 c-21 -22 -30 -57 -14 -57 8 1 45 71 39 76 -2 2 -13 -6 -25 -19z" id="115"/>
<path d="M5583 1544 c-24 -14 -43 -29 -43 -35 0 -14 -62 -49 -86 -49 -16 0 -23 -8 -27 -27 -3 -16 -4 -30 -2 -32 2 -1 28 8 58 22 38 17 58 22 65 15 16 -16 58 16 93 70 16 25 29 50 29 54 0 16 -46 7 -87 -18z" id="116"/>
<path d="M3575 1321 c-22 -10 -51 -30 -64 -44 -13 -14 -36 -29 -52 -32 -16 -4 -27 -10 -24 -15 3 -5 21 -2 40 6 19 8 44 14 55 14 24 0 95 62 89 78 -3 8 -17 5 -44 -7z" id="117"/>
<path d="M5243 1310 c-18 -10 -43 -35 -55 -54 -13 -20 -35 -40 -50 -45 -27 -10 -35 -21 -22 -33 7 -8 125 50 152 75 13 12 30 34 38 50 14 26 13 27 -8 27 -13 0 -37 -9 -55 -20z" id="118"/>
<path d="M4923 1020 c-18 -10 -40 -32 -49 -47 -10 -15 -27 -36 -38 -45 -11 -9 -18 -20 -14 -24 4 -4 14 -1 23 6 8 7 30 20 47 29 32 16 73 72 66 91 -2 5 -17 1 -35 -10z" id="119"/>
<path d="M4540 4440 l-21 -29 30 -16 c59 -30 112 -123 141 -247 41 -178 35 -358 -20 -603 -46 -208 -56 -306 -40 -425 7 -55 15 -100 19 -100 21 0 40 105 45 255 4 121 13 196 36 310 40 198 49 369 26 484 -31 152 -100 319 -156 379 -27 29 -34 28 -60 -8z" id="120"/>
<path d="M4400 4348 c-56 -219 -134 -330 -416 -595 -188 -176 -286 -320 -349 -513 -15 -47 -36 -102 -47 -123 -11 -22 -17 -41 -14 -44 6 -6 56 91 56 110 0 29 81 177 140 257 35 47 154 175 265 286 111 110 224 229 250 265 84 114 126 216 140 342 8 68 -9 78 -25 15z" id="121"/>
<path d="M4502 4378 c-19 -19 -14 -34 21 -69 74 -74 110 -252 89 -441 -7 -61 -22 -157 -32 -212 -11 -56 -25 -149 -31 -209 -20 -187 2 -607 31 -607 4 0 15 21 25 47 18 45 18 52 0 175 -23 163 -17 254 29 464 45 203 60 334 52 449 -15 197 -67 339 -145 394 -21 15 -31 17 -39 9z" id="122"/>
<path d="M4466 4286 c-4 -15 4 -41 24 -77 33 -62 50 -150 50 -264 0 -101 -13 -182 -50 -315 -83 -299 -90 -493 -26 -733 20 -76 36 -147 36 -158 0 -31 18 -22 39 19 18 35 18 43 6 78 -39 114 -46 556 -11 734 58 303 68 422 42 549 -18 90 -36 132 -69 169 -26 28 -33 28 -41 -2z" id="123"/>
<path d="M4429 4190 c-11 -35 -10 -46 6 -78 12 -24 20 -68 23 -127 4 -81 0 -105 -38 -250 -23 -88 -55 -203 -71 -254 -56 -181 -57 -271 -8 -571 11 -69 24 -197 27 -284 l7 -159 54 98 54 97 -13 70 c-7 39 -26 118 -42 177 -45 159 -49 327 -14 516 14 77 37 178 50 225 14 47 29 112 35 144 14 77 14 226 0 301 -10 53 -42 135 -54 135 -2 0 -10 -18 -16 -40z" id="124"/>
<path d="M4368 4060 c-20 -36 -28 -64 -28 -100 0 -35 -19 -109 -59 -233 -89 -273 -97 -372 -55 -742 23 -208 23 -542 0 -649 -9 -43 -15 -80 -13 -82 8 -8 86 92 105 132 28 64 22 342 -12 559 -36 224 -36 355 -1 480 100 355 127 472 127 541 0 69 -16 144 -30 144 -4 0 -19 -23 -34 -50z" id="125"/>
<path d="M1041 3955 c-18 -53 -31 -98 -29 -100 2 -3 19 24 37 59 23 45 31 74 29 100 -3 34 -6 29 -37 -59z" id="126"/>
<path d="M1178 4020 c-3 -8 -11 -34 -17 -58 -7 -23 -30 -79 -51 -123 -54 -111 -76 -213 -60 -278 6 -27 17 -57 23 -66 10 -12 12 8 12 97 0 106 2 118 34 193 55 133 72 186 69 219 -3 19 -6 25 -10 16z" id="127"/>
<path d="M4262 3910 c-53 -63 -93 -153 -135 -300 -21 -72 -22 -93 -22 -605 0 -455 -3 -543 -17 -625 -22 -123 -61 -258 -94 -322 -14 -27 -23 -52 -21 -54 2 -2 44 37 93 88 97 100 104 115 135 278 19 97 15 424 -6 625 -24 217 -24 433 -1 539 10 43 37 133 60 200 45 125 72 224 64 232 -3 2 -28 -23 -56 -56z" id="128"/>
<path d="M990 3799 c-8 -31 -11 -88 -8 -144 5 -83 9 -99 44 -166 55 -104 137 -183 253 -243 51 -26 111 -64 132 -83 27 -24 39 -30 39 -20 0 26 -49 75 -88 87 -101 32 -262 161 -303 242 -53 104 -75 222 -58 313 13 72 5 83 -11 14z" id="129"/>
<path d="M4105 3749 c-42 -47 -70 -107 -92 -199 -13 -56 -14 -107 -7 -355 15 -487 11 -690 -15 -830 -13 -66 -36 -150 -52 -187 -27 -61 -29 -73 -22 -130 l8 -62 37 79 c20 44 48 123 62 176 48 188 51 231 48 731 -3 513 1 569 56 735 16 46 25 83 21 83 -4 0 -23 -18 -44 -41z" id="130"/>
<path d="M7834 3770 c4 -14 9 -56 12 -95 l4 -70 -14 73 c-18 92 -22 102 -40 102 -8 0 -36 -20 -63 -45 -26 -25 -64 -54 -84 -65 -74 -39 -86 -100 -39 -205 21 -47 23 -49 36 -30 34 51 44 58 24 17 -36 -74 -7 -69 41 6 16 25 29 43 29 39 0 -13 -39 -85 -50 -92 -17 -10 -11 -25 8 -18 20 8 38 30 70 87 15 27 20 32 16 16 -3 -14 -14 -40 -25 -57 -12 -22 -14 -33 -6 -33 28 1 52 32 83 107 15 36 24 49 24 35 0 -12 -7 -39 -15 -59 -20 -46 -19 -50 5 -28 11 10 25 36 31 57 16 63 -9 246 -38 270 -15 11 -16 10 -9 -12z m-40 -113 c-10 -27 -44 -21 -44 7 0 13 6 26 13 29 18 7 39 -17 31 -36z" id="131"/>
<path d="M3966 3617 c-38 -50 -45 -78 -57 -230 -11 -125 -9 -172 10 -399 19 -219 20 -273 11 -359 -16 -148 -62 -312 -126 -454 -4 -10 74 -52 80 -44 23 33 60 151 78 249 21 117 22 144 18 435 -8 584 -6 704 13 767 9 31 17 59 17 62 0 16 -21 3 -44 -27z" id="132"/>
<path d="M4760 3588 c-21 -98 -40 -243 -39 -298 1 -49 2 -52 10 -25 23 77 60 375 46 375 -3 0 -10 -24 -17 -52z" id="133"/>
<path d="M952 3605 c0 -16 2 -22 5 -12 2 9 2 23 0 30 -3 6 -5 -1 -5 -18z" id="134"/>
<path d="M7551 3509 c-1 -50 26 -142 53 -184 16 -24 22 -26 54 -20 49 8 128 48 171 85 40 34 38 51 -2 20 -14 -11 -45 -27 -68 -35 -101 -36 -126 -17 -197 155 -10 23 -11 20 -11 -21z" id="135"/>
<path d="M970 3516 c-1 -49 45 -182 71 -208 36 -37 61 -36 26 0 -29 30 -67 117 -67 155 -1 12 -7 33 -15 47 -12 21 -14 22 -15 6z" id="136"/>
<path d="M3871 3499 c-48 -79 -56 -123 -55 -314 0 -99 3 -254 5 -345 3 -139 1 -176 -15 -235 -39 -144 -119 -280 -245 -417 -39 -42 -71 -79 -71 -82 0 -3 20 3 45 14 25 11 86 27 136 37 72 14 94 22 106 40 26 39 91 237 109 330 21 107 23 301 4 463 -15 130 -16 398 -1 480 5 30 7 57 6 59 -2 2 -13 -12 -24 -30z" id="137"/>
<path d="M7508 3465 c-9 -27 -19 -81 -23 -119 -7 -77 -18 -103 -81 -193 -48 -67 -104 -163 -134 -229 -57 -127 -100 -321 -100 -452 l0 -73 48 3 47 3 7 87 c9 103 47 212 107 303 22 34 91 110 153 170 133 129 258 276 293 345 48 94 21 88 -46 -11 -21 -32 -44 -61 -51 -65 -6 -4 0 8 14 27 57 77 44 80 -39 6 -33 -29 -95 -78 -140 -110 -154 -109 -221 -183 -238 -267 -12 -56 -27 -72 -19 -20 15 106 66 166 262 312 72 54 132 100 132 103 0 2 -20 2 -44 -1 -40 -6 -45 -4 -67 25 l-23 31 -18 -47 c-9 -25 -22 -51 -28 -57 -5 -5 0 17 12 50 21 58 21 63 7 145 l-15 84 -16 -50z m11 -447 c-109 -107 -132 -135 -173 -213 -49 -94 -53 -83 -6 20 38 85 95 152 202 239 51 42 95 76 98 76 2 0 -52 -55 -121 -122z m-256 -441 c-3 -20 -10 -37 -15 -37 -5 0 -6 10 -3 23 4 12 9 30 12 40 8 31 13 13 6 -26z" id="138"/>
<path d="M3786 3392 c-49 -95 -60 -144 -56 -247 3 -55 5 -176 4 -270 0 -165 -1 -173 -33 -264 -66 -195 -123 -273 -345 -471 -124 -111 -181 -179 -261 -310 -34 -56 -84 -121 -122 -157 -35 -35 -60 -63 -56 -63 48 0 85 27 186 134 59 64 128 130 152 147 24 17 59 55 78 83 19 28 86 106 150 174 173 184 253 310 294 462 20 74 22 205 9 490 -6 141 -5 189 7 245 8 39 13 72 12 73 -2 2 -11 -10 -19 -26z" id="139"/>
<path d="M1050 3385 c0 -4 9 -23 20 -41 26 -41 93 -97 185 -153 39 -24 94 -66 123 -94 l52 -51 0 31 c0 48 -38 84 -152 144 -65 34 -126 76 -165 113 -35 32 -63 55 -63 51z" id="140"/>
<path d="M7395 3323 c-58 -29 -120 -85 -142 -128 -9 -16 -33 -53 -55 -81 -21 -28 -38 -54 -38 -57 0 -11 22 -8 78 8 74 22 156 100 199 190 50 105 45 113 -42 68z" id="141"/>
<path d="M1057 3248 c7 -8 54 -37 104 -64 100 -54 211 -141 234 -182 l14 -27 1 28 c0 39 -63 104 -160 163 -105 64 -139 81 -175 90 -26 6 -28 5 -18 -8z" id="142"/>
<path d="M3683 3225 c-27 -49 -42 -155 -62 -450 -19 -276 -118 -426 -493 -757 -47 -42 -115 -120 -178 -204 -56 -75 -122 -156 -146 -180 -38 -39 -41 -44 -21 -44 36 0 125 51 177 102 26 26 81 100 121 165 75 122 111 161 375 414 95 92 117 118 156 195 94 182 114 311 95 599 -10 143 -15 176 -24 160z" id="143"/>
<path d="M1070 3194 c0 -23 28 -46 72 -59 84 -25 87 -17 10 25 -76 41 -82 44 -82 34z" id="144"/>
<path d="M1481 3146 c-5 -13 -15 -52 -22 -87 -16 -87 -44 -139 -80 -152 -37 -15 -37 -27 1 -27 24 0 38 10 74 57 54 69 73 131 56 192 -12 47 -17 50 -29 17z" id="145"/>
<path d="M1110 3110 c0 -18 42 -41 96 -51 73 -14 89 -21 142 -72 23 -23 42 -35 42 -28 0 24 -41 71 -87 97 -44 27 -193 68 -193 54z" id="146"/>
<path d="M1540 3075 c0 -55 -27 -111 -82 -171 -34 -37 -38 -45 -23 -50 24 -10 82 50 116 121 35 72 38 120 9 135 -19 10 -20 8 -20 -35z" id="147"/>
<path d="M1619 3062 c64 -46 111 -100 110 -128 l-1 -29 -12 27 c-15 35 -54 76 -87 94 -26 13 -27 13 -48 -45 -13 -37 -37 -74 -67 -104 l-45 -46 32 -20 c44 -27 109 -36 153 -21 73 24 116 123 82 189 -18 34 -101 101 -126 100 -10 0 -7 -6 9 -17z m52 -232 c-13 -11 -30 -20 -39 -20 -18 0 -12 8 20 26 35 19 46 16 19 -6z" id="148"/>
<path d="M3586 3041 c-14 -15 -14 -20 -2 -30 11 -9 15 -6 20 15 9 34 3 39 -18 15z" id="149"/>
<path d="M3544 2989 c-11 -14 -34 -75 -34 -90 0 -13 54 -11 68 3 17 17 15 52 -6 78 -15 18 -20 20 -28 9z" id="150"/>
<path d="M3460 2950 c-21 -21 -27 -74 -10 -100 8 -13 9 -13 13 0 6 20 29 92 34 108 8 19 -15 14 -37 -8z" id="151"/>
<path d="M3490 2840 c0 -35 8 -37 44 -9 35 28 33 39 -9 39 -32 0 -35 -2 -35 -30z" id="152"/>
<path d="M3552 2820 c-18 -17 -39 -30 -47 -30 -8 0 -15 -8 -15 -17 1 -21 27 -133 33 -139 2 -2 15 31 30 74 25 75 42 142 35 142 -2 0 -18 -14 -36 -30z" id="153"/>
<path d="M3541 2584 c-42 -87 -88 -149 -201 -273 -67 -72 -154 -154 -211 -197 -105 -79 -249 -230 -319 -334 -51 -77 -101 -135 -148 -172 l-35 -28 32 0 c69 0 123 51 286 268 76 102 130 162 188 211 135 113 319 308 364 386 39 66 80 171 71 180 -2 3 -14 -16 -27 -41z" id="154"/>
<path d="M7221 2376 c-100 -12 -104 -13 -131 -46 -19 -23 -25 -38 -19 -45 12 -12 162 -13 202 -2 15 4 36 22 47 40 20 32 27 68 13 66 -5 -1 -55 -7 -112 -13z m-11 -31 c0 -16 -35 -21 -44 -6 -8 12 4 21 26 21 10 0 18 -7 18 -15z" id="155"/>
<path d="M7016 2316 c-46 -43 -46 -62 2 -75 53 -15 181 -13 217 4 l30 14 -42 -6 c-55 -7 -146 4 -169 22 -18 13 -18 14 4 44 32 43 4 41 -42 -3z" id="156"/>
<path d="M4313 2300 c-11 -16 -9 -21 10 -35 41 -29 176 -75 248 -85 102 -15 247 -3 259 21 6 10 10 20 10 22 0 3 -66 7 -147 9 -124 4 -161 10 -228 31 -44 15 -89 33 -100 41 -27 21 -38 20 -52 -4z" id="157"/>
<path d="M6904 2263 c-72 -55 -191 -180 -227 -238 -94 -152 -135 -195 -325 -341 -18 -14 -32 -28 -29 -30 2 -2 28 7 58 20 30 14 106 38 170 55 64 16 152 44 195 62 75 31 86 40 269 225 183 183 190 192 156 187 -71 -10 -159 -44 -198 -78 -22 -18 -53 -60 -71 -92 -49 -92 -67 -106 -23 -18 44 91 95 145 161 173 l45 19 -40 7 c-92 16 -157 -47 -292 -279 -23 -38 -54 -82 -70 -96 -31 -30 -92 -63 -100 -55 -3 2 10 12 29 21 53 28 77 54 135 155 78 133 141 214 190 246 38 23 41 28 27 39 -14 9 -14 16 -5 33 17 32 1 27 -55 -15z" id="158"/>
<path d="M4252 2227 c-12 -13 -22 -26 -22 -30 0 -24 202 -90 310 -101 80 -9 224 8 257 29 27 18 31 40 6 30 -10 -4 -61 -9 -114 -12 -120 -7 -215 12 -329 67 -45 22 -83 40 -84 40 -1 0 -12 -10 -24 -23z" id="159"/>
<path d="M7292 2233 c-7 -12 -12 -57 -13 -100 0 -43 -4 -96 -8 -118 -7 -31 -9 -14 -10 74 -1 100 -3 112 -16 101 -8 -7 -16 -27 -16 -44 -1 -23 -3 -25 -6 -8 -5 27 -15 28 -36 4 -33 -36 -18 -121 46 -262 l25 -55 22 70 c16 51 24 105 27 195 3 69 4 134 1 145 -4 19 -4 19 -16 -2z" id="160"/>
<path d="M3154 2197 c-28 -17 -106 -74 -173 -126 -123 -95 -216 -190 -340 -350 -36 -45 -83 -98 -105 -117 l-40 -34 30 0 c70 0 167 83 264 225 76 112 205 249 310 329 95 73 131 106 114 106 -5 0 -32 -15 -60 -33z" id="161"/>
<path d="M6654 2165 c-59 -30 -131 -95 -144 -131 -6 -15 -9 -28 -7 -30 1 -2 43 18 92 43 87 45 105 69 28 39 -35 -15 -36 -15 -18 0 25 20 136 74 153 74 6 0 12 7 12 15 0 24 -59 18 -116 -10z" id="162"/>
<path d="M4175 2140 l-28 -30 48 -21 c95 -42 227 -62 374 -56 98 4 138 9 148 20 13 13 4 14 -76 9 -127 -7 -273 24 -392 84 l-46 23 -28 -29z" id="163"/>
<path d="M3633 2121 c-75 -21 -113 -38 -176 -79 -47 -31 -40 -42 8 -13 65 38 150 61 227 61 88 0 144 -14 158 -40 12 -23 -6 -77 -48 -146 -17 -27 -28 -51 -26 -54 15 -14 114 143 114 180 0 26 -33 76 -60 90 -38 20 -123 20 -197 1z" id="164"/>
<path d="M2895 2073 c-73 -39 -166 -126 -366 -344 -72 -78 -111 -111 -153 -132 -31 -15 -56 -30 -56 -34 0 -7 68 3 124 18 50 13 117 77 221 209 80 101 196 221 280 287 53 42 36 41 -50 -4z" id="165"/>
<path d="M4105 2071 c-19 -22 -14 -26 70 -69 128 -64 245 -78 374 -44 78 20 99 48 29 38 -91 -14 -304 22 -405 69 -49 22 -52 22 -68 6z" id="166"/>
<path d="M3589 1958 c-213 -237 -643 -623 -762 -684 -29 -16 -30 -17 -12 -30 46 -34 90 -7 310 185 217 190 595 581 595 617 0 37 -44 7 -131 -88z" id="167"/>
<path d="M3555 2031 c-26 -12 -70 -53 -128 -119 -252 -290 -490 -490 -707 -594 -47 -23 -87 -43 -89 -45 -9 -6 33 -43 49 -43 34 0 150 70 270 164 158 124 515 461 629 594 58 68 52 78 -24 43z" id="168"/>
<path d="M3718 1991 c-124 -159 -471 -501 -659 -650 l-69 -55 28 -18 c35 -23 45 -23 68 3 10 12 42 36 70 55 143 95 624 643 624 710 0 26 -17 14 -62 -45z" id="169"/>
<path d="M3799 2009 c-47 -99 -246 -338 -447 -537 -85 -84 -152 -156 -149 -159 20 -19 73 26 239 200 225 235 387 457 376 513 -2 12 -8 7 -19 -17z" id="170"/>
<path d="M3355 1923 c-39 -27 -143 -120 -235 -213 -310 -309 -451 -400 -626 -400 -68 0 -76 -6 -44 -35 23 -21 46 -18 158 23 193 71 400 218 615 436 119 121 222 236 211 236 -5 -1 -40 -22 -79 -47z" id="171"/>
<path d="M1443 1865 c5 -52 14 -66 27 -45 14 21 12 64 -2 78 -23 23 -31 12 -25 -33z" id="172"/>
<path d="M1475 1780 c-3 -11 -15 -20 -26 -20 -26 0 -24 -12 7 -41 51 -47 79 -139 52 -168 -11 -11 -10 -14 0 -18 8 -3 36 -25 63 -49 56 -50 109 -61 109 -24 0 41 -32 96 -95 160 -51 53 -67 78 -80 123 -9 31 -18 57 -20 57 -2 0 -7 -9 -10 -20z" id="173"/>
<path d="M6786 1758 c-7 -13 -19 -32 -25 -43 -10 -17 -11 -15 -5 13 6 32 5 33 -15 23 -15 -8 -21 -21 -21 -44 0 -55 14 -63 43 -26 34 47 60 99 47 99 -5 0 -16 -10 -24 -22z" id="174"/>
<path d="M6144 1706 c-67 -32 -112 -75 -99 -96 10 -15 106 -12 158 6 50 17 107 72 107 104 0 34 -81 27 -166 -14z m56 -26 c0 -5 -7 -10 -15 -10 -8 0 -15 5 -15 10 0 6 7 10 15 10 8 0 15 -4 15 -10z" id="175"/>
<path d="M6205 1538 c-45 -87 -112 -183 -151 -218 l-28 -25 25 35 c14 19 44 60 66 90 50 67 98 170 79 170 -20 0 -41 -29 -79 -112 -20 -44 -55 -98 -82 -127 -44 -47 -149 -111 -183 -111 -8 0 13 15 48 32 103 54 147 100 197 206 23 51 43 95 43 98 0 2 -18 4 -41 4 -22 0 -50 5 -61 11 -31 17 -59 -21 -136 -189 -25 -54 -142 -166 -234 -226 -91 -59 -128 -96 -128 -128 0 -10 -9 -37 -21 -60 -33 -65 -50 -132 -50 -204 -1 -36 1 -68 4 -70 3 -3 10 25 17 63 6 38 16 75 21 83 8 11 9 7 5 -15 -15 -84 -17 -127 -10 -167 l8 -43 17 80 18 80 -5 -60 c-3 -33 -7 -73 -10 -90 l-5 -30 18 30 c13 23 18 66 23 190 6 134 11 169 29 210 31 71 84 123 141 140 16 4 9 -4 -20 -22 -47 -30 -100 -86 -100 -105 0 -6 15 1 33 16 43 35 114 72 157 81 147 32 226 82 312 198 49 67 138 227 138 250 0 24 -23 -3 -55 -65z m-221 -279 c-9 -15 -146 -80 -153 -72 -3 3 -1 8 4 10 6 2 42 19 80 38 83 39 78 38 69 24z" id="176"/>
<path d="M1718 1484 c-3 -5 -8 -21 -12 -36 -4 -18 -15 -30 -32 -34 -24 -6 -24 -7 -7 -26 10 -11 32 -26 49 -33 40 -16 138 -143 124 -160 -20 -24 42 -39 182 -45 139 -5 148 -3 148 30 0 24 -70 55 -162 71 -157 28 -266 100 -269 179 -1 32 -14 66 -21 54z" id="177"/>
<path d="M5795 1406 c-56 -18 -139 -61 -155 -82 -14 -15 -10 -16 50 -12 62 4 160 39 160 58 0 4 -27 -1 -61 -11 -33 -10 -68 -19 -77 -19 -30 0 6 18 83 41 39 12 74 26 80 30 13 13 -33 10 -80 -5z" id="178"/>
<path d="M2180 1132 c0 -18 -8 -23 -42 -29 -43 -7 -42 -7 43 -24 111 -22 144 -40 177 -97 28 -48 99 -128 107 -120 3 2 1 18 -4 34 -17 62 7 63 77 3 31 -28 34 -28 57 -13 14 9 25 19 24 23 0 10 -111 96 -144 113 -16 9 -44 19 -62 22 -48 11 -193 73 -214 92 -18 16 -19 16 -19 -4z" id="179"/>
<path d="M5210 1090 c11 -7 3 -10 -30 -10 -44 -1 -44 -1 -20 -15 35 -20 84 -18 120 4 37 22 24 31 -43 31 -31 0 -38 -3 -27 -10z" id="180"/>
<path d="M5425 1081 c-38 -4 -81 -12 -95 -20 -32 -17 -60 -42 -60 -52 0 -14 35 -28 96 -38 50 -7 65 -6 95 9 35 19 59 54 59 90 0 11 -6 19 -12 18 -7 -1 -44 -4 -83 -7z m5 -31 c0 -5 -7 -10 -15 -10 -8 0 -15 5 -15 10 0 6 7 10 15 10 8 0 15 -4 15 -10z" id="181"/>
<path d="M5200 1011 c-54 -17 -90 -43 -159 -117 -93 -100 -84 -111 43 -56 52 23 105 42 119 42 13 0 45 7 72 14 64 20 42 -1 -27 -25 l-53 -18 61 -1 c63 0 135 28 177 69 18 18 17 18 -35 25 -92 12 -128 25 -140 52 -12 25 -18 27 -58 15z" id="182"/>
<path d="M2480 899 c0 -6 17 -27 37 -45 l38 -35 -30 -23 c-41 -33 -26 -42 40 -26 49 12 67 11 152 -6 74 -14 97 -23 101 -36 6 -26 24 -22 67 12 21 17 41 30 44 31 3 1 21 2 40 4 39 3 146 73 146 95 0 32 -83 23 -231 -25 -81 -26 -160 -45 -185 -45 -55 0 -115 27 -167 74 -42 38 -52 43 -52 25z" id="183"/>
<path d="M4815 776 c-112 -35 -115 -73 -7 -90 80 -12 161 26 162 75 0 9 -7 20 -16 23 -25 10 -96 6 -139 -8z m85 -15 c0 -14 -18 -23 -30 -16 -6 4 -8 11 -5 16 8 12 35 12 35 0z" id="184"/>
<path d="M2985 692 l0 -48 40 7 c84 17 123 10 229 -36 57 -25 121 -48 142 -53 31 -7 39 -13 38 -30 -1 -26 -3 -26 43 -7 19 8 53 15 74 15 38 0 58 13 39 25 -18 11 -11 61 15 99 l24 36 -42 0 c-24 0 -66 -6 -93 -14 -128 -37 -254 -29 -372 23 -39 17 -85 31 -104 31 -33 0 -33 0 -33 -48z" id="185"/>
<path d="M4650 684 c-62 -50 -150 -98 -197 -108 -20 -5 -49 -1 -78 8 -25 9 -56 16 -68 16 -21 0 -22 -4 -21 -57 1 -45 -3 -65 -22 -95 -13 -21 -21 -38 -16 -38 4 0 30 14 58 32 74 47 129 65 229 73 148 11 240 41 329 107 54 39 58 53 13 45 -54 -8 -129 10 -152 37 l-20 24 -55 -44z" id="186"/>
<path d="M4941 660 c-24 -31 -30 -45 -25 -66 5 -19 9 -22 15 -12 6 8 9 -1 10 -27 l0 -40 13 35 c12 33 30 150 23 150 -2 0 -18 -18 -36 -40z" id="187"/>
<path d="M3631 665 c-32 -42 -37 -73 -15 -96 19 -18 20 -17 81 14 34 18 75 42 90 53 l28 22 -30 12 c-16 6 -53 14 -81 17 -47 5 -52 3 -73 -22z m49 -24 c0 -6 -4 -13 -10 -16 -5 -3 -10 1 -10 9 0 9 5 16 10 16 6 0 10 -4 10 -9z" id="188"/>
<path d="M3863 576 c-45 -19 -106 -47 -135 -63 -47 -27 -89 -41 -203 -68 l-30 -8 27 -7 c36 -11 102 3 213 45 64 24 111 35 147 35 62 0 102 -22 95 -51 -6 -22 14 -25 61 -8 26 9 29 13 20 28 -15 24 -4 63 28 100 l26 31 -84 0 c-71 0 -95 -5 -165 -34z" id="189"/>
<path d="M3775 591 c-3 -5 -2 -12 2 -14 9 -5 53 10 53 18 0 9 -49 5 -55 -4z" id="190"/>
<path d="M4101 564 c-33 -42 -36 -65 -11 -86 29 -24 84 -23 139 2 l44 20 -29 31 c-59 62 -111 74 -143 33z m79 -35 c0 -5 -7 -9 -15 -9 -15 0 -20 12 -9 23 8 8 24 -1 24 -14z" id="191"/>
<path d="M4655 501 c-24 -5 -31 -12 -33 -34 -4 -35 7 -34 43 3 33 34 31 38 -10 31z" id="192"/>
<path d="M5997 7740 c-38 -44 -47 -47 -82 -24 -24 15 -45 12 -45 -7 0 -5 7 -9 16 -9 9 0 18 -9 21 -19 4 -16 11 -18 45 -13 34 4 43 1 57 -17 11 -14 23 -20 34 -15 25 9 21 21 -14 33 -37 13 -36 38 3 60 24 14 30 13 62 -4 27 -15 39 -16 47 -8 9 9 -1 18 -39 37 -28 14 -56 26 -61 26 -5 0 -25 -18 -44 -40z" id="193"/>
<path d="M1884 7204 c-15 -36 -21 -38 -65 -20 -11 5 -20 -4 -32 -29 -23 -48 -21 -53 7 -26 18 17 32 22 51 17 22 -6 27 -2 42 29 15 31 21 35 55 35 46 0 50 15 7 24 -48 9 -49 9 -65 -30z" id="194"/>
<path d="M7505 6022 c-41 -12 -46 -16 -30 -23 11 -4 34 -8 52 -8 21 -1 36 -8 43 -20 8 -17 15 -18 42 -10 24 6 38 5 55 -6 27 -18 28 -14 8 25 -18 34 -16 34 -51 18 -24 -11 -29 -10 -48 13 -21 25 -22 26 -71 11z" id="195"/>
<path d="M7804 5366 c-8 -21 3 -36 27 -36 15 0 20 6 17 22 -4 27 -35 37 -44 14z" id="196"/>
<path d="M7680 5224 c0 -21 11 -63 25 -92 14 -30 25 -65 25 -78 0 -18 5 -24 21 -24 16 0 19 4 14 18 -4 9 -10 44 -14 77 -8 65 -18 90 -50 119 -21 19 -21 19 -21 -20z" id="197"/>
<path d="M7908 4835 c-15 -33 11 -76 42 -68 33 9 44 40 25 69 -20 31 -52 31 -67 -1z" id="198"/>
<path d="M7987 3910 c-41 -32 -53 -82 -32 -136 27 -70 76 -84 125 -36 15 16 33 46 39 67 25 92 -61 161 -132 105z m22 -32 c-13 -13 -26 -19 -27 -15 -6 12 19 37 36 37 11 0 9 -6 -9 -22z m-19 -74 c0 -8 -4 -12 -10 -9 -5 3 -10 10 -10 16 0 5 5 9 10 9 6 0 10 -7 10 -16z" id="199"/>
<path d="M7417 2588 c-31 -25 -39 -67 -20 -107 15 -30 24 -36 54 -39 45 -4 89 36 89 80 0 58 -78 100 -123 66z m24 -22 c-7 -8 -16 -27 -20 -43 -7 -24 -10 -25 -16 -10 -10 24 10 67 31 67 13 0 14 -3 5 -14z" id="200"/>
<path d="M1196 1967 c-27 -20 -18 -62 14 -62 19 0 26 6 28 26 4 34 -18 53 -42 36z" id="201"/>
<path d="M6385 1530 c-3 -5 1 -10 10 -10 14 0 14 -2 -1 -25 -20 -31 -38 -33 -29 -4 5 15 4 19 -4 15 -18 -11 -13 -43 12 -72 22 -25 25 -26 52 -13 40 19 54 59 31 93 -17 26 -59 36 -71 16z" id="202"/>
<path d="M6713 1513 c-12 -2 -34 -18 -48 -34 -44 -54 -26 -144 34 -168 35 -15 60 -9 101 26 74 62 8 194 -87 176z m-26 -66 c-8 -13 -17 -32 -20 -42 -4 -17 -5 -16 -6 4 0 14 6 33 16 43 23 25 28 23 10 -5z" id="203"/>
<path d="M6290 1332 c-18 -5 -80 -63 -80 -73 0 -11 74 27 93 49 19 21 13 33 -13 24z" id="204"/>
<path d="M6458 1150 c-32 -33 -56 -50 -72 -50 -27 0 -42 -15 -26 -25 5 -3 10 -16 10 -28 1 -20 2 -20 16 6 8 15 23 27 35 27 40 0 88 29 113 69 14 22 26 43 26 46 0 3 -12 5 -27 5 -19 0 -41 -14 -75 -50z" id="205"/>
</g>
</svg>