<?xml version="1.0" ?><!DOCTYPE svg  PUBLIC '-//W3C//DTD SVG 20010904//EN'  'http://www.w3.org/TR/2001/REC-SVG-20010904/DTD/svg10.dtd'><svg height="850.000000pt" preserveAspectRatio="xMidYMid meet" version="1.0" viewBox="0 0 850.000000 850.000000" width="850.000000pt" xmlns="http://www.w3.org/2000/svg">
<metadata>
Created by potrace 1.14, written by Peter Selinger 2001-2017
</metadata>
<g fill="#ffffff" stroke="none" transform="translate(0.000000,850.000000) scale(0.100000,-0.100000)">
<path d="M0 4250 l0 -4250 4250 0 4250 0 0 4250 0 4250 -4250 0 -4250 0 0 -4250z m4180 4121 c0 -5 -32 -40 -72 -78 -40 -37 -83 -78 -96 -91 -30 -29 -26 -33 23 -22 l40 9 -25 -19 c-14 -11 -50 -26 -80 -35 -152 -42 -323 -118 -432 -192 -66 -45 -153 -147 -214 -253 -29 -49 -75 -106 -134 -164 -50 -49 -89 -91 -87 -92 2 -2 64 25 138 60 74 35 177 78 229 96 56 18 103 41 113 53 47 56 126 132 160 154 48 30 308 116 319 105 19 -19 -158 -232 -192 -232 -5 0 -10 -3 -10 -7 0 -5 39 -5 87 -2 224 14 58 -39 -237 -76 -97 -12 -140 -23 -195 -48 l-69 -32 104 -11 c58 -6 140 -15 183 -19 42 -4 77 -11 77 -15 0 -14 -113 -88 -183 -121 -34 -15 -94 -34 -134 -41 -96 -16 -138 -3 -188 57 -20 25 -44 45 -54 45 -20 0 -224 -96 -283 -132 -40 -25 -311 -268 -305 -274 2 -2 39 10 83 27 149 56 409 130 808 230 220 54 407 105 415 113 21 18 97 56 112 56 7 0 10 -11 7 -30 -4 -30 -4 -30 41 -30 119 0 610 -45 936 -85 17 -2 55 -13 85 -25 30 -12 120 -44 200 -72 80 -27 235 -86 344 -130 129 -52 203 -78 211 -72 103 77 170 101 318 115 62 6 130 14 152 19 53 12 55 12 55 -4 0 -20 -176 -185 -215 -202 -19 -8 -56 -14 -82 -14 l-48 -1 48 -25 47 -24 118 78 c223 150 447 266 661 342 81 29 91 35 76 46 -13 10 -24 10 -54 0 -103 -37 -210 -26 -341 34 -47 21 -95 42 -107 45 -25 7 -31 23 -10 29 6 2 53 16 102 30 60 17 114 26 160 26 l70 0 -96 98 c-90 92 -222 237 -282 311 -53 64 -16 45 64 -35 74 -72 80 -76 75 -49 -3 17 -12 77 -20 135 -8 58 -20 119 -26 135 -8 20 -8 31 0 39 15 15 140 -120 182 -198 33 -61 33 -62 31 -184 l-2 -123 46 -32 c100 -69 191 -141 245 -193 62 -60 90 -65 58 -11 -21 35 -62 148 -57 154 2 1 14 -20 27 -47 28 -59 40 -63 40 -15 0 40 68 255 81 255 20 0 63 -216 57 -285 l-5 -54 66 25 c82 31 236 108 278 140 47 36 67 29 43 -14 -5 -9 -26 -60 -46 -112 -20 -52 -59 -137 -86 -189 -50 -91 -50 -94 -38 -135 14 -46 16 -43 42 44 7 25 18 43 23 40 29 -14 -15 -214 -80 -361 -19 -42 -39 -97 -45 -120 -6 -24 -13 -51 -16 -60 -4 -14 9 -18 91 -24 52 -4 97 -10 100 -15 8 -12 -18 -29 -102 -65 -69 -30 -78 -38 -81 -62 -3 -25 2 -30 35 -42 68 -24 307 -132 359 -162 53 -30 96 -69 75 -69 -6 0 -33 11 -59 24 -26 13 -60 26 -76 30 l-28 7 29 -38 c24 -30 84 -136 111 -195 12 -26 -123 33 -208 90 l-45 31 -22 -48 c-13 -27 -53 -83 -88 -125 -65 -76 -66 -77 -66 -139 -1 -88 181 -866 194 -827 2 8 19 71 37 140 33 126 53 175 70 165 19 -12 62 -194 80 -336 12 -104 0 -161 -67 -299 l-46 -95 13 -85 c20 -133 28 -198 36 -293 6 -81 8 -87 27 -81 43 13 52 -65 12 -106 -25 -26 -25 -28 -27 -226 -2 -160 0 -204 11 -218 12 -14 12 -22 -2 -54 -40 -91 -66 -172 -55 -172 6 0 35 13 63 29 92 52 141 61 337 61 226 0 232 -15 33 -75 -190 -57 -237 -77 -292 -126 -28 -26 -87 -72 -130 -102 l-78 -55 -34 -119 c-18 -65 -35 -123 -37 -129 -4 -8 46 -10 181 -6 131 3 185 2 185 -6 0 -6 -19 -16 -42 -22 -84 -20 -114 -33 -213 -90 -159 -91 -187 -108 -236 -144 -29 -20 -64 -35 -93 -39 -25 -4 -69 -18 -97 -33 l-51 -25 22 -24 22 -24 52 29 c28 16 94 41 146 54 52 14 127 37 165 50 61 22 87 26 200 26 72 0 166 -6 211 -14 44 -8 89 -14 100 -13 10 1 19 -4 19 -12 0 -8 -33 -21 -91 -36 -50 -13 -109 -32 -131 -43 -22 -12 -86 -35 -143 -51 -62 -19 -116 -42 -138 -60 -64 -49 -141 -93 -200 -112 -34 -10 -56 -23 -54 -30 2 -6 -16 -51 -40 -98 l-43 -86 0 -139 -1 -138 -31 -28 c-44 -39 -96 -45 -282 -30 -176 15 -201 10 -201 -38 0 -37 8 -46 65 -75 28 -14 88 -58 135 -99 69 -61 104 -103 187 -228 93 -138 136 -221 121 -235 -5 -6 -96 53 -193 125 -27 21 -75 45 -105 55 -78 25 -110 42 -152 83 l-37 35 -44 -36 c-49 -40 -96 -108 -123 -177 -10 -25 -28 -62 -41 -82 -21 -34 -28 -38 -63 -38 -26 0 -40 -5 -40 -13 0 -7 23 -87 51 -177 57 -186 114 -314 159 -356 28 -27 40 -54 23 -54 -5 0 -31 13 -58 29 -71 41 -152 117 -193 180 -30 48 -82 104 -89 97 -10 -9 44 -243 77 -339 22 -64 40 -119 40 -122 0 -45 -207 171 -249 260 -44 92 -101 251 -101 280 0 14 -8 38 -17 52 -15 23 -18 50 -18 163 l0 137 -113 59 c-140 73 -132 70 -132 42 0 -12 -7 -47 -15 -77 l-14 -54 49 -81 c27 -45 52 -93 55 -108 11 -44 -78 -357 -104 -366 -25 -8 -81 162 -93 283 -3 29 -4 29 -44 -32 -23 -34 -51 -94 -64 -135 -36 -112 -54 -142 -109 -177 -63 -41 -210 -103 -223 -95 -16 10 1 54 59 153 90 152 166 220 249 221 28 0 37 8 72 62 51 78 99 182 123 268 11 36 19 66 19 67 0 1 -28 -19 -63 -45 -34 -26 -153 -103 -263 -170 l-201 -124 -6 -80 c-4 -43 -12 -91 -19 -106 -31 -63 -347 -297 -370 -274 -6 6 -1 26 11 50 12 23 30 65 42 94 11 29 45 88 76 131 30 44 51 78 45 76 -6 -2 -43 -21 -84 -42 -112 -57 -258 -118 -310 -128 -68 -14 -293 -7 -293 8 0 16 220 148 273 163 33 11 56 9 143 -9 57 -11 114 -21 127 -21 29 0 326 147 449 221 l88 54 -105 6 c-110 7 -196 24 -207 42 -8 14 24 35 115 74 207 90 194 87 354 88 l147 0 30 29 c49 47 48 69 -5 118 -25 23 -54 59 -65 80 -20 39 -33 45 -59 28 -12 -8 -8 -16 24 -49 25 -26 37 -45 32 -56 -8 -22 -68 -46 -149 -58 -77 -12 -118 -3 -176 40 -28 22 -40 25 -81 20 -27 -3 -72 -16 -99 -28 -44 -19 -51 -25 -51 -50 0 -35 -14 -37 -34 -7 -15 22 -18 23 -133 16 -65 -3 -141 -7 -170 -7 -49 -1 -52 -3 -62 -34 -6 -17 -19 -94 -30 -170 -15 -106 -25 -148 -45 -182 -15 -24 -31 -47 -36 -50 -13 -8 -113 67 -143 107 -39 52 -50 79 -58 137 -9 61 -43 104 -119 149 -38 23 -59 27 -144 30 -94 4 -99 3 -91 -14 34 -84 29 -159 -15 -252 -35 -74 -96 -137 -148 -153 -32 -9 -44 -8 -70 5 -38 20 -41 36 -7 36 49 0 95 74 95 153 0 49 -36 109 -83 140 -27 17 -27 17 -50 -20 -46 -73 -58 -104 -69 -183 -7 -48 -16 -80 -23 -80 -6 0 -30 16 -52 35 -25 21 -52 35 -68 35 -15 0 -64 -16 -111 -36 -139 -60 -167 -112 -146 -270 6 -43 8 -82 6 -86 -3 -4 -24 -8 -48 -8 -79 0 -191 98 -299 262 -30 46 -67 94 -82 108 -27 25 -27 25 -41 5 -8 -11 -36 -49 -61 -85 l-47 -65 -13 50 c-7 28 -13 71 -13 98 0 26 -2 47 -3 47 -2 0 -23 -18 -47 -40 -48 -44 -118 -74 -200 -85 -30 -4 -67 -14 -82 -21 -59 -31 -63 -11 -11 66 20 30 71 89 113 130 82 80 103 112 127 194 8 28 33 93 55 144 23 51 38 95 35 98 -8 8 -114 -17 -135 -32 -15 -11 -17 -35 -20 -174 -4 -181 -8 -191 -66 -146 -73 56 -160 215 -209 386 l-24 84 -22 -50 c-13 -27 -25 -73 -28 -102 -6 -54 -21 -68 -31 -30 -3 13 -18 46 -33 74 -62 118 -80 248 -46 327 l16 38 -32 19 c-28 18 -43 19 -118 14 -84 -6 -89 -6 -180 32 -83 34 -103 48 -172 117 -82 80 -157 136 -242 180 -92 47 -149 123 -259 348 -123 251 -206 400 -248 447 -64 71 -83 138 -132 477 -32 213 -105 583 -125 631 -13 30 -228 171 -324 211 -98 41 -111 52 -133 109 -20 52 -11 68 45 84 60 18 290 25 350 10 29 -7 55 -10 58 -7 3 4 -14 75 -37 159 -23 84 -71 263 -105 398 -63 243 -63 244 -101 275 -105 83 -198 173 -211 202 -33 81 -41 333 -9 333 12 0 186 -253 186 -271 0 -5 3 -9 8 -9 4 0 7 16 7 37 0 20 6 38 12 40 16 6 25 -18 73 -182 20 -71 51 -175 68 -230 18 -55 39 -127 48 -160 l17 -60 22 83 c23 86 112 272 131 272 15 0 48 -183 48 -270 1 -58 -4 -84 -21 -116 -24 -45 -73 -100 -112 -127 l-25 -16 27 -88 c14 -49 33 -106 42 -128 l17 -39 48 159 c100 329 186 545 241 603 11 13 34 55 50 95 38 92 87 180 158 287 168 251 332 484 389 553 l64 78 -65 68 c-86 89 -160 205 -199 314 -31 88 -32 89 -93 128 -66 42 -200 174 -252 249 -17 25 -56 93 -86 150 -30 58 -94 175 -141 260 -104 184 -150 279 -143 287 3 3 46 -28 94 -69 340 -285 637 -459 959 -563 199 -64 261 -92 349 -157 96 -71 203 -138 219 -138 8 0 81 53 163 119 143 114 544 508 717 703 l68 78 -16 40 c-26 65 -30 164 -11 250 9 41 24 123 33 182 9 58 20 109 24 113 10 10 74 -121 103 -211 14 -43 25 -100 25 -130 0 -30 4 -54 9 -54 23 0 231 267 284 366 9 16 16 22 17 14 0 -29 -52 -126 -109 -200 -64 -84 -114 -160 -106 -160 3 0 40 20 83 44 42 25 96 52 119 61 30 12 43 24 48 43 10 40 61 116 105 156 36 33 65 44 210 84 46 13 70 14 70 3z" id="1"/>
<path d="M4023 8318 c-55 -15 -82 -29 -112 -58 -41 -40 -97 -127 -88 -136 3 -4 27 1 54 10 38 13 69 37 143 111 52 52 90 95 85 94 -6 0 -43 -10 -82 -21z" id="2"/>
<path d="M3327 8275 c-4 -9 -7 -31 -7 -48 0 -18 -9 -70 -20 -117 -30 -129 -21 -305 15 -305 6 0 33 24 60 54 l50 54 -2 78 c-1 80 -32 192 -72 268 -15 27 -19 30 -24 16z" id="3"/>
<path d="M6603 8034 c3 -5 13 -63 22 -129 9 -66 25 -140 36 -165 19 -43 65 -100 80 -100 4 0 11 34 14 77 6 58 4 88 -8 127 -17 51 -111 186 -136 194 -8 3 -11 1 -8 -4z" id="4"/>
<path d="M3899 7836 c-64 -22 -131 -51 -150 -63 -41 -26 -145 -130 -138 -138 15 -15 154 16 224 49 65 32 84 47 135 112 33 41 60 77 60 80 0 6 -6 4 -131 -40z" id="5"/>
<path d="M3194 7623 c-245 -267 -593 -607 -769 -751 -33 -27 -37 -34 -25 -42 8 -5 19 -10 24 -10 16 0 763 751 782 786 10 19 26 37 36 40 16 5 63 73 55 80 -2 2 -48 -44 -103 -103z" id="6"/>
<path d="M880 7614 c78 -79 196 -173 332 -263 192 -128 350 -203 616 -292 106 -35 165 -61 225 -100 45 -29 143 -91 217 -137 347 -217 463 -293 572 -372 262 -191 398 -298 481 -379 48 -46 87 -80 87 -75 0 25 -362 358 -516 474 -109 83 -390 264 -569 368 -71 42 -168 101 -215 132 -117 79 -150 94 -334 156 -283 95 -596 270 -849 473 -48 39 -91 71 -95 71 -3 0 18 -25 48 -56z" id="7"/>
<path d="M3604 7609 c-29 -5 -103 -28 -165 -52 -166 -64 -446 -207 -406 -207 2 0 82 38 178 84 218 105 347 153 458 171 71 11 77 13 36 13 -27 0 -73 -4 -101 -9z" id="8"/>
<path d="M7191 7558 c-28 -85 -37 -177 -19 -201 22 -29 62 -8 76 41 10 31 9 56 -3 123 -8 46 -15 87 -15 92 0 4 -4 7 -9 7 -5 0 -19 -28 -30 -62z" id="9"/>
<path d="M901 7513 c179 -318 304 -455 513 -560 127 -64 229 -101 558 -204 253 -79 524 -174 641 -223 60 -26 43 -2 -40 54 -43 29 -96 67 -118 85 -22 17 -101 69 -175 115 -74 46 -166 105 -205 130 -98 66 -118 75 -295 135 -197 67 -350 135 -485 216 -114 69 -265 178 -355 258 -32 28 -62 51 -65 51 -4 0 8 -26 26 -57z" id="10"/>
<path d="M7540 7457 c-30 -17 -91 -46 -135 -64 -48 -19 -81 -39 -83 -49 -5 -20 11 -16 137 39 89 38 151 79 151 98 0 14 -11 10 -70 -24z" id="11"/>
<path d="M6980 7390 c59 -56 98 -86 104 -80 9 9 -54 72 -140 137 -76 59 -61 34 36 -57z" id="12"/>
<path d="M3360 7463 c-8 -3 -29 -14 -47 -25 l-32 -19 48 -49 c47 -48 51 -50 104 -50 30 0 82 8 115 19 58 18 186 83 196 100 12 18 -339 40 -384 24z" id="13"/>
<path d="M6715 7439 c-28 -4 -69 -16 -90 -25 l-40 -17 70 -33 c93 -43 189 -60 263 -45 31 6 60 15 64 19 4 4 -12 27 -36 51 -59 58 -113 70 -231 50z" id="14"/>
<path d="M7510 7378 c-31 -16 -87 -39 -125 -53 l-70 -24 -20 -63 c-22 -67 -46 -112 -103 -190 -18 -27 -31 -48 -27 -48 15 0 186 124 265 193 62 54 95 91 118 135 32 59 39 83 25 81 -5 -1 -33 -15 -63 -31z" id="15"/>
<path d="M4015 7363 c-16 -9 -34 -22 -40 -28 -5 -7 -109 -36 -230 -64 -460 -110 -843 -217 -1035 -289 -53 -20 -78 -35 -87 -52 -7 -14 -9 -26 -5 -28 4 -1 75 23 157 53 226 84 576 189 594 178 10 -6 20 -4 32 8 35 35 244 100 424 131 109 18 149 20 430 15 257 -4 342 -9 500 -31 257 -34 284 -41 317 -80 27 -31 38 -29 50 7 4 10 86 -19 253 -90 168 -72 254 -104 485 -182 129 -43 184 -67 213 -91 30 -25 43 -31 55 -23 23 14 25 30 5 36 -10 3 -92 38 -183 77 -352 153 -803 321 -900 334 -192 28 -266 37 -395 50 -157 16 -539 46 -588 46 -24 0 -27 3 -22 20 8 24 8 24 -30 3z" id="16"/>
<path d="M7075 7271 c-240 -86 -270 -98 -403 -165 -189 -95 -407 -235 -562 -360 -137 -111 -399 -376 -372 -376 6 0 57 43 114 96 385 360 694 559 1171 753 199 81 257 108 257 116 0 9 -14 5 -205 -64z" id="17"/>
<path d="M7229 7280 c-20 -10 -103 -46 -185 -78 -363 -146 -624 -293 -884 -500 -111 -89 -291 -244 -287 -248 1 -2 28 6 60 16 32 11 86 24 120 31 60 10 65 14 162 108 162 157 196 176 453 251 392 114 500 175 570 321 32 68 47 119 35 119 -5 -1 -24 -9 -44 -20z" id="18"/>
<path d="M4155 7252 c6 -5 55 -24 110 -42 55 -18 144 -50 199 -71 l99 -39 29 25 c61 51 172 59 283 20 39 -13 89 -27 113 -31 32 -5 42 -10 40 -23 -5 -24 -76 -59 -151 -73 -37 -7 -67 -16 -67 -19 0 -8 3 -9 145 -60 179 -65 244 -101 294 -164 63 -79 62 -78 112 -58 30 12 70 18 124 18 79 0 81 -1 189 -60 60 -33 110 -64 110 -70 1 -5 -19 -20 -44 -33 -40 -21 -56 -23 -145 -19 -55 2 -108 7 -119 12 -16 7 -17 6 -7 -13 7 -12 10 -22 7 -22 -3 0 -49 38 -103 85 -94 82 -209 167 -248 181 -13 5 -8 -7 18 -40 20 -26 46 -73 58 -104 25 -64 38 -192 20 -192 -19 0 -243 224 -257 258 -8 17 -17 59 -21 93 -7 69 -2 65 -133 101 -41 11 -114 40 -162 65 -80 40 -294 123 -320 123 -5 0 15 -27 46 -60 62 -68 117 -174 137 -263 9 -43 9 -61 1 -69 -14 -14 -39 5 -183 135 -112 101 -141 146 -170 262 -7 28 -14 51 -15 53 -1 2 -64 19 -140 38 -157 40 -166 40 -344 -5 -146 -37 -222 -66 -260 -98 -24 -20 -37 -24 -64 -19 -36 7 -95 -11 -411 -127 -99 -36 -240 -87 -313 -113 -73 -26 -129 -50 -125 -54 4 -4 78 -52 164 -107 252 -161 337 -229 608 -483 81 -76 162 -164 207 -223 47 -63 96 -116 136 -146 163 -123 270 -182 367 -202 64 -13 58 -19 143 116 63 101 216 252 328 327 183 121 339 179 501 186 121 5 192 -10 272 -59 56 -34 57 -34 168 22 159 79 360 230 550 412 118 113 141 141 133 154 -17 28 -91 60 -324 144 -124 44 -287 107 -363 140 -75 33 -159 68 -186 79 l-49 19 -15 -22 c-12 -19 -17 -20 -38 -9 -13 6 -35 21 -49 32 -27 22 -155 50 -340 75 -137 19 -560 32 -545 17z" id="19"/>
<path d="M3977 7242 c-14 -6 3 -13 60 -26 132 -30 492 -155 608 -211 61 -29 140 -60 177 -69 51 -12 243 -82 336 -123 6 -3 12 -1 12 4 0 13 -28 25 -185 83 -180 67 -276 105 -375 150 -47 21 -146 60 -220 88 -245 90 -371 122 -413 104z" id="20"/>
<path d="M7413 7141 c-54 -49 -173 -131 -269 -186 -57 -32 -82 -54 -105 -90 -16 -26 -28 -49 -26 -52 8 -7 88 17 152 47 81 37 171 109 215 173 51 72 94 147 83 147 -4 -1 -27 -18 -50 -39z" id="21"/>
<path d="M4180 7130 c0 -12 14 -55 31 -95 28 -69 39 -82 147 -180 64 -58 120 -105 123 -105 13 0 -12 83 -45 148 -44 85 -91 140 -169 194 -90 63 -87 62 -87 38z" id="22"/>
<path d="M4631 7119 c-27 -12 -41 -23 -35 -29 14 -14 105 -47 150 -54 41 -7 151 11 209 34 l30 12 -60 18 c-33 9 -73 22 -88 29 -46 18 -156 13 -206 -10z" id="23"/>
<path d="M1130 7102 c0 -5 44 -54 98 -109 140 -142 169 -156 552 -258 368 -99 576 -174 828 -298 86 -43 152 -71 152 -64 0 26 -33 58 -88 86 -84 42 -379 151 -602 221 -588 185 -717 241 -882 383 -32 27 -58 45 -58 39z" id="24"/>
<path d="M7422 7042 c-29 -44 -30 -50 -21 -94 16 -74 33 -78 59 -14 17 42 20 64 15 100 -4 25 -11 48 -15 51 -4 3 -22 -16 -38 -43z" id="25"/>
<path d="M6213 7065 c-98 -10 -134 -19 -185 -43 -135 -64 -130 -79 37 -95 139 -13 148 -10 246 89 46 47 58 64 44 63 -11 -1 -75 -7 -142 -14z" id="26"/>
<path d="M7020 6953 c-74 -34 -191 -74 -368 -124 -196 -55 -256 -87 -385 -204 -59 -53 -107 -99 -107 -102 0 -3 26 -2 58 2 52 6 62 12 117 65 111 106 229 168 461 245 126 42 225 88 279 129 29 22 8 18 -55 -11z" id="27"/>
<path d="M7466 6887 c-40 -102 -46 -131 -16 -77 24 43 64 160 57 166 -2 3 -21 -37 -41 -89z" id="28"/>
<path d="M7328 6918 l-36 -44 24 -83 c13 -46 24 -90 24 -97 0 -32 17 -9 51 69 31 69 35 84 24 97 -8 8 -22 35 -32 59 l-19 43 -36 -44z" id="29"/>
<path d="M6970 6874 c-25 -13 -96 -40 -159 -60 -212 -67 -379 -154 -461 -239 l-35 -37 50 7 c198 27 387 108 550 237 49 39 111 106 104 113 -2 2 -24 -8 -49 -21z" id="30"/>
<path d="M4970 6817 c1 -68 30 -115 129 -209 51 -49 96 -88 100 -88 11 0 -3 63 -29 132 -23 63 -125 181 -170 196 l-30 11 0 -42z" id="31"/>
<path d="M7190 6840 c-16 -10 -147 -54 -190 -64 -23 -5 -117 -102 -108 -112 3 -2 31 3 64 11 59 16 149 70 229 140 37 32 40 48 5 25z" id="32"/>
<path d="M7234 6822 c-16 -15 -85 -74 -152 -132 -67 -58 -122 -108 -122 -112 0 -3 22 -14 50 -23 l50 -17 60 30 c32 17 92 36 132 43 40 7 74 13 76 14 5 4 -38 177 -51 200 l-12 24 -31 -27z" id="33"/>
<path d="M1480 6776 c0 -10 170 -136 241 -180 178 -107 431 -207 667 -262 115 -27 374 -45 385 -27 8 12 -292 161 -448 223 -139 54 -337 116 -623 194 -201 55 -222 60 -222 52z" id="34"/>
<path d="M7396 6710 c-28 -76 -31 -90 -18 -90 9 0 55 150 49 157 -3 2 -16 -28 -31 -67z" id="35"/>
<path d="M1470 6728 c0 -22 70 -150 113 -208 93 -124 233 -229 432 -325 123 -60 214 -90 390 -131 150 -35 334 -39 458 -10 42 10 77 21 77 25 0 4 -20 28 -43 53 -24 25 -52 66 -63 91 l-19 46 -140 0 c-103 0 -166 5 -238 20 -354 74 -672 214 -899 398 -38 29 -68 48 -68 41z" id="36"/>
<path d="M6802 6675 c-91 -59 -199 -107 -289 -130 -32 -8 -155 -28 -273 -45 -118 -17 -231 -36 -250 -42 -200 -63 -470 -301 -574 -505 -25 -51 -35 -113 -17 -113 5 0 25 32 45 70 77 146 233 311 377 397 159 96 246 124 475 152 178 23 282 53 418 124 70 36 208 147 181 146 -5 -1 -47 -25 -93 -54z" id="37"/>
<path d="M5450 6713 c-60 -11 -100 -24 -100 -33 0 -5 23 -22 51 -37 28 -16 65 -36 82 -45 38 -21 200 -25 242 -6 25 11 22 13 -73 64 -95 52 -150 67 -202 57z" id="38"/>
<path d="M6901 6643 c-31 -3 -62 -17 -105 -46 l-61 -42 49 -3 c39 -3 55 2 85 22 53 38 97 75 86 74 -5 -1 -30 -3 -54 -5z" id="39"/>
<path d="M7187 6567 c-98 -34 -100 -41 -21 -67 37 -13 80 -23 94 -22 28 1 235 66 260 81 8 6 12 12 9 15 -3 3 -65 8 -139 11 -125 6 -140 4 -203 -18z" id="40"/>
<path d="M6924 6548 c-3 -5 -4 -11 -3 -12 11 -9 369 -135 387 -135 6 -1 12 6 12 14 0 8 -17 19 -42 25 -103 26 -157 44 -250 80 -56 22 -101 34 -104 28z" id="41"/>
<path d="M6649 6520 c-56 -32 -208 -71 -358 -90 -195 -24 -218 -33 -135 -50 86 -19 199 -17 268 4 83 25 180 73 224 112 35 32 36 44 1 24z" id="42"/>
<path d="M6694 6499 c-10 -12 -41 -37 -69 -55 -46 -31 -48 -34 -23 -34 42 0 129 37 166 70 17 16 32 32 32 35 0 3 -20 5 -43 5 -32 0 -49 -6 -63 -21z" id="43"/>
<path d="M6784 6432 c-114 -95 -364 -291 -439 -344 -38 -26 -99 -71 -135 -99 -95 -73 -228 -135 -365 -169 -64 -17 -130 -30 -145 -30 -29 0 -64 -25 -58 -41 2 -4 59 -40 127 -79 360 -206 551 -380 699 -635 38 -65 88 -192 79 -201 -2 -2 -16 18 -31 46 -79 146 -246 327 -403 439 -103 74 -329 187 -463 232 -88 29 -101 31 -200 27 -113 -5 -169 -24 -239 -84 -45 -38 -57 -68 -65 -161 -11 -136 -47 -254 -125 -410 -39 -78 -83 -177 -97 -220 -31 -92 -42 -213 -25 -266 18 -55 91 -112 257 -202 163 -88 268 -176 349 -289 45 -64 105 -177 105 -197 0 -7 23 -58 51 -114 34 -70 52 -119 56 -157 7 -66 1 -71 -77 -70 l-57 1 28 -102 c16 -56 29 -115 29 -131 0 -27 -2 -28 -32 -22 -18 4 -58 11 -88 16 -30 5 -75 12 -99 16 l-43 7 16 -31 c9 -17 41 -102 70 -188 30 -86 56 -158 58 -160 4 -3 107 22 113 28 2 2 -13 25 -32 51 -30 40 -38 46 -45 33 -12 -21 -35 -20 -46 1 -11 18 7 93 28 118 25 30 41 18 39 -28 -2 -38 3 -51 44 -105 l47 -60 67 -4 c38 -2 70 -2 72 -1 2 2 -15 44 -38 95 -37 81 -49 97 -89 123 -86 55 -61 94 33 51 54 -24 56 -27 50 -56 -5 -23 3 -50 39 -125 24 -52 47 -95 49 -95 27 0 67 27 77 51 7 16 21 36 31 43 29 20 15 98 -24 143 -32 36 -27 61 10 49 22 -7 78 -59 101 -94 19 -30 4 -49 -26 -33 -29 15 -30 14 -24 -15 5 -26 7 -26 61 -21 70 7 169 48 294 121 52 31 99 56 104 56 5 0 30 -13 56 -30 50 -31 102 -39 138 -20 24 13 26 7 -112 239 -55 91 -103 173 -108 182 -5 9 -31 22 -58 28 -26 7 -68 24 -93 39 -43 25 -51 26 -200 27 -129 0 -160 3 -187 18 -18 10 -33 22 -33 26 0 5 -3 16 -6 25 -5 13 -2 14 25 5 36 -13 94 -8 205 15 77 16 83 16 158 -4 42 -11 80 -20 83 -20 3 0 5 16 5 36 0 31 -11 46 -80 119 -51 54 -91 106 -108 142 -25 53 -27 68 -26 178 1 136 41 420 74 527 16 51 31 77 67 112 25 25 51 46 58 46 30 0 66 -61 110 -189 57 -169 72 -233 85 -368 17 -178 13 -228 -21 -323 -61 -169 -67 -236 -25 -295 34 -47 165 -261 217 -353 l47 -83 16 88 c9 48 16 117 16 152 0 41 3 62 10 55 11 -11 100 -292 100 -316 0 -11 8 -18 21 -18 25 0 53 -14 100 -51 20 -16 40 -29 43 -29 3 0 6 15 6 33 0 57 39 198 78 281 45 95 118 187 203 254 70 55 70 51 5 187 -23 50 -49 105 -57 123 -14 32 -17 33 -82 38 -37 2 -80 10 -95 18 -27 14 -76 71 -190 222 -79 104 -82 127 -10 85 18 -11 77 -35 130 -54 53 -19 109 -44 124 -56 15 -12 28 -20 30 -19 3 4 -63 234 -83 288 -9 25 -25 59 -34 75 -10 17 -24 53 -32 81 -8 28 -22 65 -31 82 -26 50 0 48 46 -3 l43 -47 11 87 c12 88 59 235 75 235 14 0 26 -38 49 -151 29 -148 27 -188 -16 -269 l-35 -68 80 -240 c43 -132 88 -257 99 -277 l19 -38 6 104 c6 115 54 294 78 294 15 0 43 -104 59 -224 15 -109 5 -154 -51 -210 l-40 -42 28 -45 c15 -24 33 -44 40 -44 6 0 32 20 56 45 25 25 49 45 52 45 13 0 -6 -54 -40 -111 l-33 -57 26 -86 c15 -47 30 -86 33 -86 4 0 21 53 39 118 l33 117 -7 200 c-8 278 -11 293 -53 318 -32 18 -35 23 -29 56 3 20 14 43 25 52 19 15 19 17 -5 135 -13 65 -40 186 -60 267 -41 168 -33 157 -178 238 -93 52 -107 71 -172 229 -25 63 -53 128 -61 144 -26 50 -3 53 84 10 59 -29 98 -58 162 -122 58 -58 82 -76 78 -60 -3 13 -16 76 -27 140 -19 99 -26 119 -46 133 -73 47 -172 147 -201 202 -45 83 -116 343 -99 360 14 14 53 -17 135 -108 57 -62 91 -93 91 -82 0 10 5 72 10 138 5 66 10 163 11 215 l3 95 -84 33 c-149 58 -315 112 -346 112 -22 0 -49 -16 -100 -58z" id="44"/>
<path d="M7366 6343 c-4 -76 -11 -201 -17 -278 -5 -77 -10 -153 -11 -170 0 -16 22 -142 50 -280 28 -137 63 -308 77 -380 15 -71 52 -229 82 -350 30 -121 70 -287 89 -370 19 -82 36 -156 39 -162 6 -17 2 -16 -39 8 -31 18 -37 19 -42 5 -8 -21 3 -36 41 -52 l33 -13 7 -114 c11 -170 0 -511 -18 -582 -8 -33 -30 -115 -48 -182 -18 -68 -30 -125 -27 -129 17 -16 43 21 67 97 15 46 33 93 39 104 11 20 11 20 11 0 1 -11 -12 -57 -27 -103 -36 -104 -19 -103 20 2 15 43 37 91 48 106 26 36 26 36 -10 49 l-30 10 6 88 c3 48 12 146 19 217 12 115 17 132 39 155 15 15 26 37 26 48 0 19 -3 20 -24 10 -14 -7 -28 -21 -32 -32 -6 -19 -6 -19 -11 -1 -3 11 0 36 7 57 10 28 10 57 2 125 -14 112 -117 680 -137 754 l-14 55 4 -50 c3 -27 7 -77 10 -110 l5 -60 -15 50 c-8 28 -26 127 -41 220 -14 94 -41 226 -59 295 -76 282 -95 369 -93 427 2 32 -3 100 -10 152 -12 88 -11 248 4 449 3 42 1 72 -5 72 -5 0 -12 -62 -15 -137z" id="45"/>
<path d="M2770 6442 c0 -27 52 -104 95 -140 21 -17 63 -44 94 -61 55 -28 181 -74 188 -68 3 4 -362 287 -371 287 -3 0 -6 -8 -6 -18z" id="46"/>
<path d="M7420 6400 c0 -12 41 -29 85 -36 30 -5 30 -5 -5 11 -63 30 -80 35 -80 25z" id="47"/>
<path d="M6555 6380 c-94 -9 -180 -32 -205 -55 -10 -9 -40 -24 -66 -35 l-49 -18 38 -7 c101 -19 271 23 338 85 24 21 40 39 34 38 -5 -1 -46 -4 -90 -8z" id="48"/>
<path d="M5968 6355 c-31 -13 -67 -30 -79 -39 l-22 -15 29 -8 c57 -16 265 -9 337 11 72 20 75 35 7 36 -19 0 -72 9 -118 20 -46 11 -86 20 -90 20 -4 -1 -33 -12 -64 -25z" id="49"/>
<path d="M5620 6324 c-39 -30 -80 -98 -67 -111 2 -2 32 30 66 72 34 41 59 75 54 74 -4 0 -28 -16 -53 -35z" id="50"/>
<path d="M7410 6260 c0 -51 1 -91 3 -89 2 2 17 22 34 44 l31 41 -29 44 c-16 24 -32 46 -34 49 -3 2 -5 -38 -5 -89z" id="51"/>
<path d="M7482 6298 c56 -74 305 -254 324 -235 10 9 -45 101 -91 154 -40 46 -52 53 -143 81 -55 18 -103 32 -107 32 -4 0 4 -15 17 -32z" id="52"/>
<path d="M1688 6272 c-59 -61 -150 -187 -329 -452 -167 -247 -196 -295 -239 -405 -18 -44 -41 -88 -51 -98 -53 -50 -161 -323 -265 -670 -46 -156 -55 -217 -30 -217 8 0 21 -2 29 -5 15 -7 38 67 57 190 6 39 20 103 31 144 20 74 88 245 95 238 2 -2 -10 -44 -26 -93 -36 -104 -63 -205 -57 -210 2 -2 16 29 32 68 38 99 133 284 161 311 12 13 25 34 29 48 11 45 190 187 505 401 85 58 171 120 191 139 19 19 87 65 150 102 134 80 155 95 146 103 -13 14 -357 -194 -357 -216 0 -5 -5 -10 -11 -10 -14 0 -255 -170 -479 -336 -113 -84 -179 -141 -208 -180 -24 -31 -46 -54 -49 -51 -3 3 11 32 30 64 19 32 60 108 90 168 30 61 78 147 105 193 28 46 56 100 63 120 38 117 228 391 398 572 61 66 77 89 70 101 -17 32 -36 28 -81 -19z" id="53"/>
<path d="M5785 6254 c-64 -44 -165 -132 -165 -145 0 -24 210 -3 306 30 53 19 164 87 164 100 0 5 -37 11 -82 14 -74 6 -111 13 -158 30 -8 3 -37 -10 -65 -29z" id="54"/>
<path d="M2850 6264 c0 -3 9 -22 19 -42 48 -94 188 -179 352 -212 142 -30 143 -29 70 44 -45 46 -74 66 -98 71 -78 14 -222 68 -280 105 -35 22 -63 37 -63 34z" id="55"/>
<path d="M5503 6242 c-20 -15 -22 -22 -15 -62 l8 -45 22 58 c12 32 22 60 22 62 0 10 -15 4 -37 -13z" id="56"/>
<path d="M6097 6210 l-47 -50 27 -7 c47 -13 245 -9 273 6 39 20 130 84 127 88 -2 1 -35 -1 -73 -6 -38 -4 -91 -5 -119 -1 -151 23 -135 25 -188 -30z" id="57"/>
<path d="M1840 6240 c0 -15 149 -150 204 -185 106 -68 239 -124 382 -161 138 -37 141 -37 383 -42 l244 -4 -28 36 c-15 19 -38 62 -51 93 -13 32 -29 58 -36 57 -7 -1 -57 -9 -112 -19 -239 -43 -561 19 -853 165 -73 37 -133 64 -133 60z" id="58"/>
<path d="M7465 6193 c-16 -19 -35 -45 -42 -57 -14 -24 -18 -216 -4 -216 24 0 171 194 171 226 0 11 -80 84 -91 84 -2 0 -17 -17 -34 -37z" id="59"/>
<path d="M1680 6097 c-161 -157 -286 -332 -340 -476 -12 -30 -30 -66 -40 -81 -22 -31 -131 -270 -124 -270 14 0 163 122 168 137 2 10 10 45 17 78 16 85 75 250 111 313 54 95 199 225 223 200 2 -2 7 -55 10 -118 l7 -115 -33 -50 c-19 -27 -74 -89 -122 -137 -49 -49 -86 -88 -83 -88 3 0 52 33 108 73 166 117 357 242 439 286 l75 41 -33 69 c-25 51 -44 75 -74 96 -23 15 -72 58 -109 96 -36 38 -68 69 -71 69 -2 0 -60 -56 -129 -123z" id="60"/>
<path d="M4883 6210 c-86 -13 -192 -49 -287 -98 l-91 -46 61 -7 c72 -9 115 -26 207 -81 82 -50 100 -49 242 13 108 46 205 61 265 41 38 -14 38 -6 0 45 -35 48 -111 99 -173 118 -60 18 -162 25 -224 15z" id="61"/>
<path d="M5420 6193 c-14 -9 -26 -17 -28 -19 -2 -1 4 -16 12 -33 9 -16 16 -44 16 -61 0 -37 17 -39 30 -4 12 30 13 134 2 134 -4 0 -19 -8 -32 -17z" id="62"/>
<path d="M5337 6142 c-22 -25 -21 -38 7 -93 12 -26 26 -57 30 -70 7 -23 8 -23 16 -4 20 45 1 173 -26 182 -6 2 -18 -5 -27 -15z" id="63"/>
<path d="M5955 6120 c-22 -10 -40 -25 -40 -32 0 -21 111 -71 168 -76 49 -4 57 -1 130 47 42 28 77 52 77 54 0 2 -24 2 -53 -1 -29 -2 -84 1 -123 8 -38 6 -80 13 -94 16 -14 2 -43 -5 -65 -16z" id="64"/>
<path d="M5790 6080 c-30 -5 -89 -8 -132 -9 l-76 -1 -50 -67 c-55 -76 -86 -132 -78 -141 4 -3 34 0 69 6 92 17 211 80 280 148 52 52 69 76 50 73 -5 -1 -33 -5 -63 -9z" id="65"/>
<path d="M2980 6048 c0 -26 52 -124 83 -156 39 -40 99 -58 222 -67 50 -3 119 -11 154 -16 35 -5 66 -8 68 -5 3 3 -20 36 -52 74 l-57 69 -91 13 c-93 12 -253 59 -294 86 -27 17 -33 18 -33 2z" id="66"/>
<path d="M5855 6026 c-21 -27 -24 -38 -16 -59 12 -32 48 -57 81 -57 14 1 54 16 90 35 64 33 65 33 35 40 -16 4 -58 23 -93 41 -34 19 -65 34 -67 34 -2 0 -16 -15 -30 -34z" id="67"/>
<path d="M4460 6018 c-22 -10 -18 -12 41 -18 54 -5 85 -17 180 -67 184 -98 193 -99 374 -14 82 37 110 46 156 46 49 0 62 -4 98 -33 46 -37 52 -31 18 19 -33 49 -61 61 -137 56 -49 -3 -92 -16 -173 -51 -141 -60 -170 -60 -263 -4 -38 23 -90 50 -117 60 -52 20 -139 23 -177 6z" id="68"/>
<path d="M7105 5995 c10 -67 55 -207 83 -259 26 -47 178 -194 189 -183 3 3 -4 41 -15 85 -31 123 -78 204 -177 307 l-86 90 6 -40z" id="69"/>
<path d="M2080 5983 c0 -17 43 -77 84 -116 131 -128 451 -203 751 -177 116 10 161 16 197 26 15 4 14 9 -7 40 -13 19 -25 40 -28 47 -3 9 -55 12 -198 13 -107 1 -225 5 -264 9 -113 11 -329 71 -433 120 -103 49 -102 49 -102 38z" id="70"/>
<path d="M4397 5966 c-27 -7 -56 -20 -64 -29 -15 -15 -8 -15 73 -10 144 9 257 -33 369 -137 71 -66 111 -82 176 -69 24 4 47 8 51 9 3 0 30 20 58 44 71 61 164 109 211 109 44 0 43 14 -2 41 -45 26 -93 17 -229 -45 -161 -74 -175 -73 -355 19 -155 80 -204 92 -288 68z" id="71"/>
<path d="M5730 5923 c-81 -56 -93 -73 -49 -73 27 0 124 21 167 35 10 4 7 13 -12 36 -14 17 -26 35 -26 40 0 15 -11 9 -80 -38z" id="72"/>
<path d="M1587 5895 c-35 -35 -78 -91 -95 -123 -33 -61 -102 -256 -102 -287 0 -22 154 116 227 204 l53 65 0 103 c0 58 -4 103 -9 103 -6 0 -39 -29 -74 -65z" id="73"/>
<path d="M4312 5882 c-60 -22 -86 -44 -147 -122 -40 -52 -105 -169 -105 -188 0 -5 17 -1 38 9 49 24 92 34 92 21 0 -5 -14 -36 -30 -67 -17 -32 -29 -60 -27 -62 2 -2 24 7 48 21 53 29 96 40 104 26 3 -5 -11 -41 -30 -81 -20 -39 -35 -73 -33 -74 2 -2 28 5 58 15 98 34 123 21 79 -41 -11 -16 -18 -29 -15 -29 12 0 177 71 213 92 92 53 322 209 363 246 45 41 45 41 15 36 -17 -3 -50 1 -75 10 -28 10 -46 12 -48 5 -9 -26 -59 -72 -101 -93 -120 -61 -240 -72 -354 -32 -71 26 -182 100 -172 117 4 5 32 9 64 9 97 0 148 22 239 102 56 49 79 75 72 82 -5 5 -52 12 -103 13 -71 3 -104 -1 -145 -15z" id="74"/>
<path d="M5601 5859 c-14 -6 -58 -15 -98 -21 -41 -6 -71 -14 -66 -18 16 -14 133 -51 143 -45 11 7 53 85 48 90 -2 1 -14 -1 -27 -6z" id="75"/>
<path d="M4570 5834 c-43 -36 -60 -74 -60 -132 0 -63 28 -102 72 -102 l30 0 -25 30 c-51 60 -47 139 9 195 41 41 21 48 -26 9z" id="76"/>
<path d="M5204 5835 c-16 -7 -38 -19 -48 -27 -18 -14 -14 -16 40 -22 85 -9 263 -58 374 -101 133 -52 314 -147 387 -203 34 -26 88 -67 120 -91 32 -25 84 -64 116 -88 87 -67 68 -34 -30 52 -210 184 -473 338 -746 435 -155 55 -178 60 -213 45z" id="77"/>
<path d="M4628 5824 c-14 -7 -33 -32 -42 -54 -44 -111 57 -199 136 -120 27 28 30 36 25 76 -3 31 -13 55 -32 74 -34 35 -55 41 -87 24z m67 -93 c0 -37 -22 -58 -49 -48 -19 8 -22 57 -4 75 7 7 22 11 33 10 16 -2 20 -11 20 -37z" id="78"/>
<path d="M2061 5774 c-39 -30 -71 -57 -71 -60 0 -2 15 -4 34 -2 27 1 58 -14 170 -87 132 -87 155 -109 119 -112 -10 -1 -70 -11 -133 -23 -201 -38 -186 -39 -257 19 l-63 51 -64 -9 c-77 -11 -105 -28 -353 -215 -231 -173 -305 -246 -366 -356 -45 -83 -180 -467 -193 -550 l-6 -39 61 -30 c33 -17 74 -46 90 -64 16 -17 48 -53 71 -79 27 -30 56 -51 79 -58 60 -17 65 -13 33 28 -39 49 -72 116 -72 144 0 13 11 47 25 76 32 68 32 122 0 190 -27 58 -31 77 -15 67 25 -15 62 -100 80 -183 23 -109 37 -139 103 -215 46 -53 51 -64 54 -115 2 -42 12 -70 35 -109 30 -50 173 -232 263 -338 l44 -50 31 30 c18 17 40 45 49 64 l18 34 -97 96 c-52 53 -113 122 -134 154 -44 68 -86 169 -86 208 0 14 -9 55 -21 90 -26 84 -34 173 -19 228 l11 43 45 -5 c53 -6 160 -82 248 -178 58 -62 148 -213 203 -339 35 -82 78 -143 96 -137 6 2 15 21 20 43 12 57 51 108 141 179 133 107 290 176 367 161 19 -3 59 -26 89 -51 l55 -45 112 0 c61 0 123 -4 136 -9 60 -23 107 -114 107 -205 0 -98 -23 -109 -89 -42 -46 47 -91 72 -115 63 -7 -3 -16 -21 -20 -39 -3 -19 -15 -52 -26 -73 -11 -22 -20 -40 -20 -41 0 -1 30 -4 68 -6 113 -8 192 -60 257 -172 39 -67 43 -128 12 -206 -39 -99 -39 -101 -17 -194 36 -155 26 -210 -46 -247 -35 -19 -48 -21 -71 -13 -27 10 -28 11 -25 75 4 81 -14 110 -65 102 -18 -3 -33 -11 -33 -19 0 -7 20 -53 46 -101 56 -109 84 -190 84 -244 0 -61 25 -145 65 -221 29 -54 41 -68 66 -73 17 -4 33 -4 36 -1 7 7 -17 105 -28 112 -5 3 -9 0 -9 -5 0 -16 -26 -13 -39 3 -16 19 6 64 49 100 46 38 67 13 36 -43 -11 -20 -10 -34 8 -97 l22 -74 63 -30 c34 -17 65 -30 67 -30 10 0 -10 206 -21 220 -19 23 -45 77 -45 95 0 28 37 16 74 -25 36 -40 44 -64 26 -75 -11 -7 -14 -175 -4 -212 9 -32 52 -39 83 -13 14 11 38 26 53 33 22 9 30 21 38 64 8 37 8 58 1 72 -16 28 -14 61 3 61 30 0 97 -135 80 -161 -8 -14 -31 -10 -38 6 -9 23 -26 18 -26 -9 0 -29 38 -47 106 -49 l49 -2 3 74 c3 73 2 75 -28 99 -16 13 -30 30 -30 38 0 21 53 17 84 -7 28 -22 33 -44 13 -56 -10 -6 -12 -27 -9 -80 l4 -73 37 0 c28 0 51 -10 91 -40 30 -22 61 -38 68 -35 8 3 34 10 57 16 l43 11 -22 66 c-15 47 -31 75 -55 97 -34 29 -81 115 -81 146 0 9 -10 24 -21 35 -25 22 -49 74 -49 106 0 13 -7 34 -15 48 -46 78 -75 153 -85 214 -6 38 -20 82 -31 98 -54 75 -86 202 -113 443 -10 89 -23 151 -40 195 -32 80 -53 192 -61 335 -15 244 -78 349 -265 443 -86 43 -95 50 -101 81 -4 21 -21 47 -43 67 -20 18 -36 39 -36 47 0 16 -42 58 -90 90 -22 14 -47 46 -68 87 -18 36 -41 74 -51 85 -10 11 -24 35 -31 53 -9 24 -27 40 -61 57 -26 14 -54 33 -61 43 -7 10 -29 29 -48 42 -75 52 -140 115 -154 150 -10 27 -30 46 -76 74 -83 51 -117 83 -206 188 -42 48 -79 88 -84 88 -4 0 -40 -25 -79 -56z" id="79"/>
<path d="M3110 5807 c0 -24 39 -65 73 -76 17 -6 83 -18 146 -26 126 -17 170 -27 238 -56 25 -11 48 -17 50 -15 3 3 -8 27 -24 55 -35 63 -61 76 -183 90 -52 6 -133 15 -180 20 -47 5 -93 13 -102 16 -12 5 -18 2 -18 -8z" id="80"/>
<path d="M3607 5768 c40 -63 147 -218 164 -238 17 -21 20 -21 14 -5 -4 11 -14 50 -24 86 -16 64 -20 69 -84 118 -70 52 -84 60 -70 39z" id="81"/>
<path d="M210 5733 c0 -60 20 -204 31 -227 6 -12 21 -30 34 -41 12 -11 52 -47 89 -79 37 -32 68 -57 70 -55 7 8 -33 148 -55 191 -30 58 -144 234 -158 242 -7 5 -11 -6 -11 -31z" id="82"/>
<path d="M5071 5738 l-32 -33 108 -6 c181 -11 355 -52 571 -135 63 -25 117 -42 120 -39 7 7 -206 108 -308 145 -106 39 -286 86 -366 95 -59 6 -61 6 -93 -27z" id="83"/>
<path d="M2298 5723 c47 -66 168 -132 327 -179 122 -36 343 -45 491 -20 145 25 140 21 96 64 -20 20 -46 50 -57 65 l-20 28 -160 -16 c-266 -27 -472 -3 -679 81 -19 7 -19 6 2 -23z" id="84"/>
<path d="M4441 5723 c-39 -26 -121 -53 -164 -53 -81 0 83 -80 180 -88 56 -4 63 -3 57 12 -4 10 -18 16 -38 16 -48 0 -146 21 -146 32 0 9 8 13 50 22 27 6 109 71 100 78 -3 3 -20 -6 -39 -19z" id="85"/>
<path d="M3180 5688 c0 -28 41 -78 79 -97 24 -13 77 -25 138 -31 54 -6 134 -15 177 -20 44 -6 81 -8 84 -5 10 10 -9 36 -40 55 -56 34 -178 68 -302 85 -66 9 -124 18 -128 21 -4 3 -8 -1 -8 -8z" id="86"/>
<path d="M1941 5675 c-93 -15 -131 -38 -97 -58 10 -7 35 -27 55 -46 20 -18 51 -45 68 -58 l33 -25 80 16 c44 9 95 16 113 17 17 1 43 4 56 8 22 6 12 15 -90 84 -63 42 -119 76 -124 76 -6 -1 -48 -7 -94 -14z" id="87"/>
<path d="M4435 5665 l-40 -25 46 0 c44 0 46 1 41 25 -2 14 -5 25 -6 25 0 0 -19 -12 -41 -25z" id="88"/>
<path d="M4925 5614 c-152 -119 -367 -252 -475 -294 -58 -23 -190 -106 -190 -120 0 -15 170 -23 222 -11 27 6 54 11 59 11 22 0 5 -28 -41 -65 -27 -22 -49 -44 -50 -48 0 -10 109 1 184 19 32 8 61 12 64 10 2 -3 -7 -25 -22 -50 -14 -24 -26 -47 -26 -50 0 -3 24 3 53 14 60 23 168 94 211 139 17 17 34 31 39 31 19 0 -5 -81 -51 -172 -9 -19 27 -5 61 23 54 45 84 111 107 241 26 148 33 170 64 211 35 46 33 57 -4 22 -49 -47 -34 -20 30 55 34 38 55 70 48 70 -7 0 -42 -28 -77 -62 -63 -61 -54 -43 18 35 56 60 14 44 -53 -20 -35 -35 -51 -46 -39 -28 12 17 33 41 47 54 14 14 26 28 26 33 0 18 -26 6 -74 -34 -48 -40 -48 -33 -2 20 24 27 14 29 -22 4 -48 -33 -57 -36 -33 -9 42 46 1 30 -74 -29z" id="89"/>
<path d="M3790 5636 c0 -24 33 -116 40 -111 3 2 7 26 9 53 2 43 -1 50 -24 60 -20 9 -25 9 -25 -2z" id="90"/>
<path d="M3871 5533 c1 -104 14 -138 23 -63 4 30 13 70 19 87 12 36 11 38 -20 47 -23 7 -23 6 -22 -71z" id="91"/>
<path d="M3940 5539 c-6 -23 -10 -43 -7 -45 2 -2 18 16 36 41 l32 45 -25 0 c-21 0 -27 -7 -36 -41z" id="92"/>
<path d="M3696 5550 c17 -64 35 -91 80 -120 26 -16 50 -28 52 -25 2 2 -19 30 -46 62 -28 32 -60 69 -72 83 l-21 25 7 -25z" id="93"/>
<path d="M4105 5554 c-81 -42 -105 -97 -105 -244 0 -103 14 -169 55 -255 58 -121 150 -207 304 -285 228 -115 375 -97 539 66 63 63 88 112 30 58 l-32 -29 28 38 c35 48 27 61 -9 13 -14 -19 -38 -42 -53 -52 l-27 -17 23 25 c31 34 28 47 -5 17 -49 -44 -69 -54 -35 -18 46 51 39 60 -10 13 -24 -21 -58 -53 -77 -69 -33 -29 -33 -28 7 20 43 51 48 72 10 39 -12 -10 7 15 43 58 61 71 126 174 117 183 -2 3 -28 -13 -56 -35 -67 -50 -150 -89 -207 -97 -51 -7 -58 5 -25 47 11 14 20 27 20 31 0 3 -59 5 -132 5 -143 -1 -166 8 -98 39 77 35 69 41 -55 49 -162 10 -167 13 -114 75 17 20 46 56 65 81 30 40 32 45 15 48 -11 2 -42 -8 -70 -22 -28 -14 -55 -26 -61 -26 -18 0 -11 31 22 102 17 37 29 71 25 74 -8 8 -62 -22 -101 -57 -21 -18 -37 -26 -41 -19 -9 14 4 67 27 113 11 22 18 41 16 43 -2 2 -17 -4 -33 -12z" id="94"/>
<path d="M3280 5530 c0 -32 55 -68 133 -85 62 -14 87 -15 156 -5 45 6 91 8 101 5 14 -5 20 -2 20 10 0 30 -77 53 -216 64 -72 6 -145 15 -162 20 -28 8 -32 7 -32 -9z" id="95"/>
<path d="M3095 5489 c-117 -20 -272 -19 -388 3 -48 9 -64 8 -102 -7 -25 -9 -45 -23 -45 -30 0 -35 200 -95 317 -95 120 0 305 32 396 68 l38 15 -32 33 c-37 38 -34 38 -184 13z" id="96"/>
<path d="M441 5465 c-1 -17 8 -62 20 -100 12 -39 57 -207 100 -375 71 -270 130 -488 145 -529 2 -8 7 -12 9 -9 3 3 -14 74 -39 159 -24 85 -55 215 -70 289 -26 134 -38 179 -116 440 -49 164 -48 162 -49 125z" id="97"/>
<path d="M3917 5398 c-177 -305 -230 -639 -145 -925 11 -40 25 -73 29 -73 5 0 9 -11 9 -25 0 -14 5 -25 10 -25 6 0 10 -9 10 -21 0 -15 5 -19 16 -15 12 4 14 1 9 -14 -8 -26 3 -44 18 -31 9 7 12 1 12 -22 0 -24 4 -32 17 -31 10 1 14 -4 11 -12 -3 -8 0 -21 7 -29 10 -12 16 -13 27 -3 12 10 13 7 8 -15 -8 -29 11 -37 33 -15 7 7 12 8 12 2 0 -5 -5 -15 -11 -21 -21 -21 1 -36 27 -18 27 17 30 14 12 -15 -17 -27 -3 -36 34 -22 30 11 30 11 13 -8 -23 -26 -12 -37 20 -22 36 17 41 15 20 -8 -17 -18 -17 -20 0 -26 9 -4 33 1 53 11 l37 17 -23 -25 c-33 -35 -10 -44 31 -13 45 35 57 33 23 -3 -24 -25 -25 -29 -10 -35 10 -4 36 6 66 24 28 17 52 29 54 27 3 -2 -11 -18 -31 -36 -28 -24 -32 -31 -17 -31 11 0 38 14 61 31 33 24 40 26 32 10 -6 -11 -16 -23 -21 -26 -6 -4 -8 -10 -5 -15 8 -13 49 4 93 38 34 26 36 17 4 -20 -28 -33 13 -21 58 17 50 42 56 43 34 10 -21 -32 -4 -32 34 0 17 14 37 23 45 19 20 -7 100 66 133 121 67 114 89 245 78 447 l-9 156 -65 -40 c-64 -39 -66 -40 -140 -34 -160 11 -371 109 -490 227 -48 47 -78 88 -108 148 -23 46 -42 90 -42 97 0 17 -17 18 -23 2 -3 -7 -3 12 0 42 5 57 2 58 -34 3 -8 -11 -7 0 3 32 8 28 17 64 20 80 l5 30 -20 -35 c-25 -44 -25 -40 -1 40 24 78 25 92 4 65 -16 -19 -16 -19 -9 5 4 14 10 31 12 38 11 27 -6 10 -30 -30z m-88 -338 c-12 -44 -24 -79 -26 -76 -8 7 16 136 29 160 21 39 20 -2 -3 -84z m56 -22 c-4 -18 -14 -48 -21 -68 l-14 -35 4 57 c5 61 11 78 27 78 7 0 8 -12 4 -32z m10 -124 c-15 -36 -29 -63 -32 -61 -7 8 18 102 34 127 29 43 27 3 -2 -66z m65 5 c0 -11 -68 -109 -76 -109 -2 0 9 27 26 60 28 55 50 77 50 49z m30 -58 c0 -9 -68 -101 -76 -101 -5 0 34 79 48 98 12 14 28 16 28 3z m30 -51 c0 -6 -18 -30 -41 -53 -30 -31 -37 -35 -28 -17 29 60 69 100 69 70z m5 -90 c-21 -28 -39 -49 -42 -46 -7 6 26 67 50 94 37 40 30 4 -8 -48z m-220 11 c-7 -12 -45 -21 -45 -11 0 12 33 30 42 23 5 -2 6 -8 3 -12z m285 -14 c0 -7 -16 -29 -36 -48 -31 -29 -35 -31 -24 -9 33 63 60 89 60 57z m-280 -22 c-7 -8 -19 -15 -27 -15 -13 0 -13 3 -3 15 7 8 19 15 27 15 13 0 13 -3 3 -15z m304 -46 c-10 -11 -27 -25 -37 -31 -18 -9 -18 -8 -1 16 17 27 45 48 53 40 2 -2 -4 -13 -15 -25z m-283 -3 c-6 -7 -22 -16 -34 -19 -20 -5 -19 -3 7 19 29 26 48 26 27 0z m349 -14 c0 -12 -79 -87 -85 -81 -6 7 64 89 76 89 5 0 9 -4 9 -8z m-315 -22 c-3 -6 -21 -17 -38 -26 l-32 -17 24 27 c23 25 59 37 46 16z m365 0 c0 -14 -80 -100 -92 -100 -5 0 1 15 13 33 45 65 79 94 79 67z m40 -45 c-8 -14 -29 -37 -48 -52 l-35 -26 18 31 c40 67 99 110 65 47z m534 11 c7 -28 -9 -119 -25 -144 -8 -13 -9 -10 -5 17 3 18 6 60 6 92 0 60 13 79 24 35z m-914 -4 c0 -4 -15 -16 -32 -27 -33 -18 -33 -18 -18 1 24 31 50 45 50 26z m424 -54 c-16 -16 -42 -39 -59 -51 -28 -20 -29 -20 -16 -2 34 46 96 105 99 95 3 -7 -9 -25 -24 -42z m428 -23 c-5 -28 -29 -85 -36 -85 -2 0 4 35 12 77 11 54 18 71 23 57 4 -10 4 -32 1 -49z m-827 35 c-3 -6 -21 -17 -38 -26 l-32 -17 24 27 c23 25 59 37 46 16z m747 -40 c-10 -29 -52 -90 -52 -77 0 12 54 116 58 112 2 -2 -1 -18 -6 -35z m-301 -22 c-48 -43 -60 -33 -16 12 24 24 41 36 44 29 2 -7 -10 -25 -28 -41z m-411 33 c0 -11 -40 -41 -54 -41 -5 0 1 11 14 25 24 26 40 32 40 16z m476 -39 c-35 -36 -41 -24 -9 17 17 21 29 29 31 22 2 -7 -7 -25 -22 -39z m104 -1 c-6 -12 -25 -28 -43 -37 l-32 -17 40 44 c40 44 56 48 35 10z m50 -21 c-12 -16 -31 -35 -43 -42 -22 -11 -15 0 47 81 21 27 17 -9 -4 -39z m-590 10 c0 -11 -59 -44 -66 -37 -6 6 45 47 57 47 5 0 9 -4 9 -10z m30 -29 c0 -12 -42 -42 -49 -36 -5 6 29 45 41 45 4 0 8 -4 8 -9z m30 -46 c-7 -9 -23 -21 -34 -27 -20 -11 -20 -10 -6 8 19 26 43 45 48 39 3 -2 -1 -12 -8 -20z m41 -24 c-12 -21 -61 -56 -61 -43 0 5 11 21 25 36 28 31 51 36 36 7z m49 -25 c0 -15 -46 -56 -62 -56 -5 0 3 16 18 35 28 37 44 44 44 21z m60 -30 c0 -15 -67 -62 -76 -53 -4 4 62 67 71 67 3 0 5 -6 5 -14z m50 -26 c0 -12 -78 -65 -86 -58 -4 5 73 68 83 68 2 0 3 -4 3 -10z m70 -19 c0 -6 -15 -21 -32 -34 -67 -49 -75 -47 -27 8 29 33 59 46 59 26z m450 -15 c0 -24 -48 -92 -57 -82 -5 4 47 106 54 106 1 0 3 -11 3 -24z m-382 -8 c-3 -7 -20 -22 -39 -32 l-34 -19 29 31 c30 33 51 42 44 20z m53 -17 c-7 -11 -26 -28 -44 -37 l-32 -16 39 41 c41 42 55 47 37 12z m63 -13 c-10 -11 -28 -25 -38 -30 -14 -8 -9 3 14 32 19 24 36 38 38 31 2 -7 -4 -21 -14 -33z m64 -15 c-12 -14 -31 -29 -42 -35 -17 -9 -17 -8 -5 9 40 55 64 79 67 65 2 -7 -7 -25 -20 -39z m78 30 c-3 -11 -23 -35 -43 -54 -20 -19 -32 -27 -26 -19 6 8 23 35 37 58 27 44 43 51 32 15z m63 0 c-11 -29 -57 -83 -71 -83 -5 0 8 25 28 55 40 59 60 72 43 28z" id="98"/>
<path d="M3350 5406 c-17 -45 26 -76 103 -76 77 1 247 46 247 65 0 19 -43 23 -138 13 -70 -8 -100 -7 -146 5 -56 14 -58 14 -66 -7z" id="99"/>
<path d="M7159 5398 c57 -145 105 -246 125 -267 26 -25 188 -122 195 -115 2 2 -2 32 -8 66 -15 77 -60 146 -149 229 -51 48 -144 109 -166 109 -3 0 -2 -10 3 -22z" id="100"/>
<path d="M3236 5383 c-104 -37 -252 -56 -389 -50 -104 4 -117 2 -104 -10 24 -24 125 -43 234 -43 106 0 162 8 276 41 66 20 67 20 67 54 0 19 -3 34 -7 34 -5 -1 -39 -13 -77 -26z" id="101"/>
<path d="M3740 5391 c0 -50 27 -65 65 -37 18 13 16 15 -23 35 -41 21 -42 21 -42 2z" id="102"/>
<path d="M3600 5324 c-47 -12 -111 -23 -142 -23 -70 -1 -79 -23 -21 -48 54 -22 144 -13 221 21 63 29 66 33 56 60 -7 19 -7 19 -114 -10z" id="103"/>
<path d="M3793 5317 c-29 -10 -33 -15 -32 -47 1 -19 4 -46 9 -60 l7 -25 11 25 c5 14 19 46 31 73 11 26 17 46 13 46 -4 -1 -22 -7 -39 -12z" id="104"/>
<path d="M3276 5299 c-77 -31 -179 -49 -276 -49 -84 0 -90 -1 -109 -26 -47 -59 -19 -84 94 -84 121 0 280 39 361 89 29 17 31 23 25 53 -8 40 -27 44 -95 17z" id="105"/>
<path d="M732 5229 c-57 -100 -114 -354 -84 -373 15 -9 88 58 117 108 34 59 38 97 25 194 -19 132 -21 135 -58 71z" id="106"/>
<path d="M3660 5243 c-30 -14 -77 -27 -105 -30 -75 -7 -107 -22 -103 -47 7 -47 93 -29 195 41 79 53 78 52 72 57 -2 2 -29 -8 -59 -21z" id="107"/>
<path d="M3346 5194 c-73 -40 -193 -74 -292 -81 -78 -6 -87 -11 -98 -56 -5 -21 -1 -33 18 -52 49 -49 173 -30 325 51 107 56 118 67 122 116 5 56 -8 60 -75 22z" id="108"/>
<path d="M7697 5133 c-50 -187 -53 -221 -32 -346 10 -62 21 -120 25 -131 6 -17 7 -16 22 5 33 52 72 166 76 226 5 79 -39 343 -58 343 -4 0 -18 -44 -33 -97z" id="109"/>
<path d="M3678 5192 c-28 -20 -43 -42 -58 -87 -31 -88 -60 -298 -67 -479 -7 -193 -2 -196 75 -45 51 99 54 110 68 229 7 69 23 166 34 215 20 91 18 185 -5 191 -6 2 -27 -9 -47 -24z" id="110"/>
<path d="M3470 5021 c-86 -88 -120 -115 -188 -150 -83 -42 -102 -64 -102 -112 0 -78 264 83 343 210 35 57 77 161 64 160 -7 -1 -59 -49 -117 -108z" id="111"/>
<path d="M3410 5084 c-53 -37 -180 -101 -230 -115 -60 -17 -80 -35 -80 -75 0 -24 5 -34 20 -39 31 -10 141 31 207 76 59 42 183 157 183 171 0 17 -67 5 -100 -18z" id="112"/>
<path d="M4875 4960 c-10 -11 -16 -22 -13 -25 3 -3 13 4 23 15 10 11 16 22 13 25 -3 3 -13 -4 -23 -15z" id="113"/>
<path d="M3485 4880 c-33 -34 -91 -82 -130 -109 -77 -52 -94 -81 -49 -81 46 0 106 36 171 102 49 51 62 71 68 106 4 23 5 42 3 42 -2 0 -30 -27 -63 -60z" id="114"/>
<path d="M7146 4884 c-24 -77 -31 -189 -16 -253 6 -28 16 -53 21 -56 13 -8 59 90 59 126 0 42 -30 222 -39 232 -4 4 -15 -18 -25 -49z" id="115"/>
<path d="M6288 4779 c-62 -45 -85 -118 -123 -388 -33 -231 -32 -351 4 -426 14 -29 57 -82 102 -126 63 -62 79 -84 84 -115 10 -58 13 -66 31 -62 12 2 16 22 19 102 3 87 7 106 34 157 55 105 62 154 46 319 -13 132 -52 320 -75 359 -6 10 -10 -43 -10 -154 0 -105 -5 -193 -14 -230 -18 -81 -32 -48 -17 39 13 71 5 416 -10 477 -5 20 -17 43 -26 52 -17 14 -20 14 -45 -4z m115 -819 c-3 -19 -9 -42 -14 -50 -11 -19 -12 14 -2 101 7 64 7 64 14 24 4 -22 5 -56 2 -75z" id="116"/>
<path d="M3509 4733 c-6 -16 -18 -50 -26 -76 -13 -45 -13 -50 5 -79 l20 -31 6 54 c17 172 17 187 -5 132z" id="117"/>
<path d="M3423 4705 l-42 -33 32 -21 c22 -14 33 -17 35 -8 2 7 10 31 17 55 8 23 11 42 7 41 -4 0 -26 -16 -49 -34z" id="118"/>
<path d="M7050 4671 c0 -7 18 -53 40 -102 22 -49 53 -138 70 -197 28 -103 132 -388 166 -455 53 -103 95 -166 109 -161 25 10 17 33 -31 100 -67 95 -96 160 -178 401 -106 311 -134 385 -157 408 -13 13 -19 15 -19 6z" id="119"/>
<path d="M3680 4574 c-24 -71 13 -194 76 -254 18 -19 36 -31 39 -28 3 3 -4 25 -14 49 -26 57 -71 215 -71 245 0 36 -17 29 -30 -12z" id="120"/>
<path d="M1496 4565 c-10 -27 -7 -147 5 -190 21 -74 68 -160 144 -260 42 -55 81 -109 86 -120 15 -29 -80 72 -134 145 -26 34 -47 56 -47 48 1 -45 99 -198 168 -260 52 -47 132 -84 144 -66 4 7 8 16 8 20 0 14 55 70 76 79 20 7 23 13 18 41 -11 65 -27 104 -80 205 -78 145 -131 211 -237 292 -100 76 -140 93 -151 66z m291 -492 c18 -29 33 -55 33 -59 0 -9 -76 91 -92 121 -23 41 24 -8 59 -62z" id="121"/>
<path d="M3617 4486 c-42 -63 6 -299 103 -501 39 -82 111 -175 135 -175 24 0 52 49 74 128 32 119 30 132 -35 215 -31 40 -68 78 -82 86 -85 45 -133 109 -162 214 l-16 59 -17 -26z" id="122"/>
<path d="M344 4450 c-82 -9 -114 -23 -114 -50 0 -34 60 -87 124 -110 33 -11 98 -47 145 -78 113 -74 122 -79 205 -104 54 -17 98 -22 183 -22 75 -1 109 -4 102 -11 -12 -12 -219 -12 -264 -1 l-30 8 24 -26 c13 -13 46 -37 75 -52 l51 -27 65 30 c60 28 137 53 203 67 33 8 36 35 7 61 -12 10 -30 35 -42 54 -74 123 -172 181 -400 237 -142 35 -193 39 -334 24z m361 -256 c89 -44 86 -48 -10 -13 -57 22 -145 74 -105 63 13 -4 65 -26 115 -50z" id="123"/>
<path d="M1187 4395 c-9 -20 -17 -47 -17 -61 0 -39 36 -101 100 -169 38 -41 63 -77 70 -103 5 -22 35 -75 65 -116 30 -42 66 -97 81 -121 14 -25 39 -52 55 -61 30 -15 36 -28 18 -39 -13 -9 13 -38 69 -77 56 -39 64 -30 15 17 -38 37 -31 38 19 3 43 -30 42 -21 -4 32 -118 139 -255 320 -278 373 -11 23 -20 60 -20 83 0 34 -9 51 -55 110 -31 38 -63 90 -73 117 -9 26 -19 47 -22 47 -4 0 -14 -16 -23 -35z" id="124"/>
<path d="M3561 4324 c-1 -88 4 -132 24 -210 29 -117 97 -259 156 -327 41 -47 107 -97 129 -97 19 0 71 63 95 115 26 56 40 157 30 206 -7 30 -9 24 -30 -58 -37 -147 -71 -189 -133 -167 -85 30 -209 297 -252 546 l-18 103 -1 -111z" id="125"/>
<path d="M4866 4303 c-11 -12 -6 -23 12 -23 34 -1 155 -49 225 -91 86 -51 214 -177 280 -275 26 -39 47 -74 47 -78 0 -13 -105 3 -210 30 -114 30 -208 75 -338 160 -91 61 -120 73 -92 39 26 -31 180 -126 281 -174 119 -55 190 -78 272 -86 31 -3 82 -7 112 -10 36 -3 55 -1 55 6 0 36 -179 256 -274 337 -66 55 -208 135 -271 150 -78 19 -92 22 -99 15z" id="126"/>
<path d="M6900 4303 c0 -5 114 -150 162 -206 30 -35 41 -40 108 -52 41 -7 76 -11 78 -10 1 1 -6 23 -17 48 -28 65 -105 140 -166 162 -27 10 -76 28 -107 40 -32 13 -58 21 -58 18z" id="127"/>
<path d="M2510 4293 c-158 -52 -351 -196 -386 -288 -33 -88 -3 -196 91 -325 45 -63 71 -117 105 -218 28 -87 28 -87 41 -57 7 17 14 84 15 159 4 153 13 185 64 229 47 40 82 51 220 73 58 9 115 20 127 25 31 12 59 72 77 169 18 94 33 117 85 126 70 14 0 23 -124 17 -123 -5 -159 -15 -235 -64 l-35 -23 30 33 c17 19 51 44 77 56 l47 22 -22 20 c-46 41 -72 53 -117 52 -25 0 -52 -3 -60 -6z m-50 -389 c0 -9 -5 -14 -12 -12 -18 6 -21 28 -4 28 9 0 16 -7 16 -16z m-203 -120 c7 -18 -7 -46 -25 -52 -13 -4 -27 42 -17 57 10 17 35 13 42 -5z m63 -9 c0 -8 -4 -15 -10 -15 -5 0 -10 7 -10 15 0 8 5 15 10 15 6 0 10 -7 10 -15z m9 -191 c-14 -14 -17 -14 -29 0 -10 13 -10 19 0 32 12 14 15 14 29 0 14 -15 14 -17 0 -32z" id="128"/>
<path d="M7425 4238 c-21 -61 -35 -308 -17 -308 18 0 61 59 71 98 8 27 7 64 -5 142 -8 58 -19 109 -23 113 -4 4 -16 -16 -26 -45z" id="129"/>
<path d="M4832 4198 c-12 -35 -23 -67 -25 -72 -7 -28 240 -174 358 -212 71 -23 205 -47 205 -37 0 18 -92 132 -152 188 -100 94 -235 171 -335 191 -27 5 -29 2 -51 -58z" id="130"/>
<path d="M2916 4144 c-9 -8 -16 -24 -16 -34 0 -10 -3 -25 -6 -34 -4 -12 0 -16 15 -16 32 0 81 -27 124 -68 l37 -36 0 67 c0 42 -6 79 -17 102 -16 33 -19 35 -69 35 -34 0 -58 -5 -68 -16z" id="131"/>
<path d="M1185 4090 c-1 -38 -1 -38 54 -54 62 -18 81 -10 73 30 -6 31 -34 50 -87 58 l-40 5 0 -39z" id="132"/>
<path d="M4735 4030 c-16 -18 -16 -21 -1 -44 47 -73 250 -218 441 -316 111 -57 382 -154 411 -148 16 3 -71 155 -121 211 -28 32 -35 34 -112 40 -46 4 -117 18 -160 32 -105 35 -274 124 -362 191 -40 30 -74 54 -75 54 -2 0 -11 -9 -21 -20z" id="133"/>
<path d="M1075 4024 c-33 -7 -86 -20 -117 -30 l-58 -17 0 -142 c0 -127 4 -161 41 -336 28 -135 47 -205 64 -229 12 -19 25 -52 28 -74 9 -58 55 -148 147 -284 l82 -124 28 49 c15 26 37 57 49 67 17 16 21 31 21 85 1 36 7 82 14 103 13 36 13 36 -17 42 -52 11 -59 9 -45 -14 7 -10 9 -22 5 -26 -18 -19 -127 65 -127 97 0 24 11 24 42 0 17 -14 49 -22 100 -27 l75 -6 22 30 c35 49 80 72 145 72 31 0 56 3 56 8 -1 18 -19 33 -51 42 -50 15 -59 13 -56 -12 1 -17 -3 -23 -18 -23 -26 0 -74 90 -56 108 8 8 17 5 33 -10 22 -19 115 -49 125 -39 3 2 0 13 -6 24 -10 18 -42 30 -289 108 -10 3 -12 -3 -7 -25 3 -16 2 -32 -4 -35 -22 -14 -121 100 -106 124 9 15 31 12 45 -5 7 -8 45 -25 84 -36 66 -19 235 -74 264 -86 7 -3 12 3 12 16 0 25 -76 67 -165 91 -39 10 -60 21 -60 30 0 12 16 15 80 15 91 0 138 -10 132 -28 -2 -7 -16 -14 -32 -17 l-28 -5 35 -17 35 -16 11 33 c8 27 7 37 -4 46 -20 17 -17 40 6 46 18 5 13 13 -40 64 -37 35 -73 60 -93 64 -87 19 -120 70 -44 70 20 0 37 4 37 9 0 20 -95 139 -128 161 -32 21 -126 55 -187 68 -11 2 -47 -2 -80 -9z m157 -672 c15 -24 28 -31 85 -41 96 -18 123 -33 48 -25 -33 3 -68 8 -79 11 -16 4 -18 1 -12 -21 8 -33 -12 -35 -42 -3 -25 26 -54 92 -45 101 13 13 29 5 45 -22z" id="134"/>
<path d="M4044 3955 c11 -81 53 -231 80 -283 14 -27 41 -66 61 -87 l37 -37 30 28 c47 45 95 125 111 184 23 80 31 140 19 140 -6 0 -13 -22 -17 -49 -14 -101 -93 -221 -145 -221 -10 0 -26 8 -36 17 -28 29 -74 140 -100 243 -28 108 -50 145 -40 65z" id="135"/>
<path d="M753 3967 c7 -25 63 -429 78 -557 26 -229 63 -373 113 -435 24 -31 20 1 -9 63 -29 63 -30 69 -9 51 22 -18 59 -94 85 -175 12 -38 56 -132 99 -209 42 -77 96 -183 118 -235 23 -52 55 -114 70 -137 39 -59 110 -133 128 -133 22 0 17 13 -22 51 -45 43 -205 314 -204 346 0 4 29 -36 63 -89 l62 -97 13 42 13 41 -50 47 c-28 26 -51 54 -51 61 0 8 -22 46 -48 84 -46 65 -87 134 -79 134 2 0 27 -32 56 -70 85 -111 77 -72 -13 69 -23 36 -75 123 -115 192 -60 106 -73 136 -78 185 -4 40 -12 66 -26 82 -28 31 -100 445 -111 637 -2 35 -6 42 -36 57 -47 23 -53 22 -47 -5z m200 -834 c39 -57 75 -142 82 -193 6 -43 5 -42 -23 27 -16 39 -46 101 -65 137 -40 72 -36 89 6 29z" id="136"/>
<path d="M4676 3982 c-3 -6 3 -48 14 -94 22 -94 26 -221 7 -258 -21 -41 -51 -37 -106 15 -66 62 -96 113 -145 249 -5 14 -10 16 -17 9 -16 -16 15 -124 52 -190 39 -68 126 -163 174 -188 42 -23 44 -21 70 63 22 69 16 214 -13 320 -21 79 -27 89 -36 74z" id="137"/>
<path d="M4096 3944 c17 -73 57 -184 82 -229 34 -63 55 -64 99 -7 31 41 44 76 59 155 6 36 5 37 -22 37 -25 0 -150 39 -207 65 -16 7 -17 4 -11 -21z" id="138"/>
<path d="M4600 3946 c-14 -7 -49 -19 -77 -26 -29 -6 -53 -15 -53 -18 0 -3 20 -47 44 -97 31 -62 59 -104 90 -133 50 -47 61 -50 71 -25 20 53 -12 301 -40 309 -6 2 -21 -3 -35 -10z" id="139"/>
<path d="M1933 3925 c-12 -8 -31 -41 -43 -73 -12 -31 -30 -72 -41 -90 -10 -18 -19 -38 -19 -45 0 -6 44 -56 98 -111 92 -95 84 -97 -28 -6 -25 21 -58 44 -75 53 -28 14 -32 14 -57 -5 -16 -11 -28 -23 -28 -27 0 -5 27 -27 60 -50 101 -71 63 -59 -49 16 -19 12 -36 21 -37 20 -1 -1 0 -14 3 -29 4 -19 24 -39 77 -74 89 -59 256 -186 282 -215 10 -12 -69 40 -177 115 -209 145 -241 158 -259 110 -19 -50 -13 -60 68 -107 117 -68 128 -83 25 -32 -51 25 -95 45 -98 45 -3 0 -5 -7 -5 -15 0 -9 37 -33 90 -60 50 -25 90 -47 90 -49 0 -2 -39 11 -86 30 -82 32 -85 32 -82 12 2 -15 17 -26 53 -40 l50 -18 -42 6 c-28 4 -43 2 -43 -5 0 -20 43 -30 184 -41 76 -6 172 -17 215 -25 114 -22 119 -21 173 36 48 51 48 52 48 119 0 90 -36 198 -108 325 -31 54 -64 122 -74 149 -9 28 -28 61 -43 73 -31 27 -90 31 -122 8z m185 -428 c3 -23 0 -28 -15 -25 -11 2 -19 14 -21 31 -3 23 0 28 15 25 11 -2 19 -14 21 -31z m-102 -34 c23 -18 63 -61 89 -95 47 -61 45 -60 -56 37 -57 55 -108 103 -114 108 -25 23 45 -20 81 -50z m180 -72 c-11 -18 -36 -13 -36 7 0 10 3 22 7 26 10 10 37 -20 29 -33z" id="140"/>
<path d="M4740 3923 c0 -52 225 -224 425 -325 136 -69 315 -124 443 -135 l73 -6 -21 53 c-61 156 -120 250 -156 250 l-25 0 30 -37 c42 -53 121 -194 121 -217 0 -16 -5 -18 -45 -13 -81 12 -295 88 -416 149 -143 71 -307 179 -369 242 -42 44 -60 55 -60 39z" id="141"/>
<path d="M3630 3875 c0 -20 30 -272 41 -339 9 -55 13 -66 22 -51 6 12 6 39 -2 84 -11 65 -31 231 -31 262 0 17 -29 60 -30 44z" id="142"/>
<path d="M4016 3837 c-4 -20 -23 -60 -42 -88 l-35 -53 22 -60 c27 -75 115 -252 129 -261 12 -8 34 40 55 122 15 57 15 57 -14 102 -38 59 -65 122 -81 191 -18 79 -26 89 -34 47z" id="143"/>
<path d="M2711 3850 c-225 -25 -296 -65 -308 -172 -4 -37 18 -163 31 -176 2 -2 22 8 43 21 56 35 127 58 204 64 63 5 166 -3 156 -13 -2 -3 -58 -8 -124 -13 -97 -7 -131 -13 -181 -36 -33 -15 -68 -35 -76 -44 -20 -22 -46 -106 -46 -148 0 -39 43 -75 110 -93 25 -6 70 -26 102 -43 l56 -31 59 27 c62 27 106 39 216 57 78 12 133 2 162 -30 10 -11 21 -20 25 -20 7 0 1 49 -20 147 -13 59 -13 65 13 130 14 37 29 80 32 94 18 74 -67 209 -159 254 -63 31 -166 40 -295 25z m-203 -233 c3 -21 -1 -27 -17 -27 -21 0 -37 32 -26 50 12 20 40 5 43 -23z m267 13 c13 -6 -11 -8 -70 -8 -60 0 -82 3 -65 8 33 11 110 11 135 0z m264 -71 c17 -6 36 -19 41 -29 15 -28 12 -35 -8 -17 -9 9 -38 25 -62 36 -49 22 -28 30 29 10z m-406 -35 c9 -10 -4 -34 -18 -34 -17 0 -28 17 -20 30 7 11 28 13 38 4z m-87 -35 c10 -17 -13 -36 -27 -22 -12 12 -4 33 11 33 5 0 12 -5 16 -11z m-16 -89 c0 -22 -25 -44 -40 -35 -14 9 -13 62 3 68 17 6 37 -12 37 -33z" id="144"/>
<path d="M4764 3813 c2 -10 8 -50 11 -90 l7 -72 80 -63 c233 -184 394 -265 601 -302 48 -9 48 -2 -1 100 l-39 79 -71 23 c-155 50 -415 197 -534 301 -51 45 -62 50 -54 24z" id="145"/>
<path d="M7515 3791 c-3 -6 -50 -44 -103 -85 -125 -95 -222 -196 -259 -271 -75 -148 -110 -340 -69 -371 33 -23 41 -17 52 44 7 31 19 73 27 92 l16 35 -5 -40 c-3 -22 -10 -61 -16 -88 -12 -56 -6 -77 22 -77 35 0 71 69 81 157 25 209 29 229 64 298 19 39 62 104 95 145 65 80 115 158 107 166 -3 3 -8 0 -12 -5z m-214 -283 c-38 -58 -70 -124 -82 -172 -15 -62 -34 -73 -25 -15 9 59 46 137 86 182 40 46 49 48 21 5z" id="146"/>
<path d="M4388 3732 c-10 -32 -37 -83 -63 -117 -25 -33 -45 -63 -45 -68 0 -23 66 -133 102 -169 39 -39 42 -40 56 -22 30 39 73 143 78 190 6 45 3 54 -31 104 -21 30 -46 74 -56 98 -10 23 -20 42 -21 42 -2 0 -11 -26 -20 -58z" id="147"/>
<path d="M3704 3708 c4 -43 11 -90 15 -104 6 -24 8 -22 35 34 l28 59 -42 44 -43 44 7 -77z" id="148"/>
<path d="M3772 3608 c-68 -165 -78 -242 -37 -305 24 -37 30 -15 11 41 -17 51 -12 82 43 238 34 95 35 98 22 98 -4 0 -22 -33 -39 -72z" id="149"/>
<path d="M6025 3655 l-70 -23 55 -7 c30 -3 75 -2 100 4 74 17 107 13 178 -24 37 -19 86 -40 110 -46 48 -11 34 7 190 -254 56 -94 102 -176 102 -183 0 -22 18 -12 24 13 5 18 -3 45 -23 88 -41 86 -237 399 -256 410 -9 4 -28 6 -43 2 -17 -3 -62 4 -115 20 -105 30 -160 30 -252 0z" id="150"/>
<path d="M7486 3671 c-6 -9 48 -228 58 -238 3 -3 8 7 12 22 4 18 -3 62 -21 126 -26 93 -36 112 -49 90z" id="151"/>
<path d="M3910 3652 c0 -23 58 -177 93 -247 11 -22 35 -62 54 -88 30 -41 37 -46 51 -35 28 23 92 170 92 210 0 53 -14 47 -28 -11 -18 -80 -59 -163 -78 -159 -19 3 -122 197 -149 280 -20 61 -35 83 -35 50z" id="152"/>
<path d="M3812 3578 c-45 -126 -54 -160 -50 -198 3 -34 4 -32 30 35 14 39 40 106 57 150 36 94 37 95 12 95 -15 0 -26 -18 -49 -82z" id="153"/>
<path d="M4785 3590 c31 -60 250 -221 387 -285 99 -45 214 -82 313 -100 44 -8 90 -17 103 -21 35 -10 28 24 -32 150 -40 82 -61 115 -76 119 -14 4 -20 2 -16 -6 2 -7 21 -50 41 -95 24 -54 34 -87 28 -93 -13 -13 -168 13 -247 41 -123 42 -326 166 -458 280 -26 22 -49 40 -53 40 -3 0 1 -13 10 -30z" id="154"/>
<path d="M7393 3552 c-65 -97 -86 -168 -98 -327 l-7 -89 39 35 c22 20 62 48 90 63 27 15 57 40 67 56 15 27 15 34 2 82 -8 29 -23 92 -32 141 -9 48 -19 87 -23 87 -3 0 -20 -21 -38 -48z" id="155"/>
<path d="M3847 3476 c-55 -135 -71 -217 -57 -300 11 -70 38 -153 51 -161 13 -9 11 11 -11 116 -29 138 -26 169 26 319 25 73 44 134 42 136 -2 2 -25 -48 -51 -110z" id="156"/>
<path d="M4542 3516 c-15 -57 -74 -177 -96 -195 -8 -7 -24 -10 -35 -6 -31 10 -95 88 -126 154 -28 59 -45 70 -45 29 0 -59 157 -259 192 -245 43 16 135 230 126 290 -2 15 -7 7 -16 -27z" id="157"/>
<path d="M4750 3554 c0 -6 9 -46 20 -89 21 -83 25 -141 11 -164 -14 -22 -49 -3 -127 71 -91 87 -97 73 -9 -20 70 -75 141 -129 153 -118 15 16 7 200 -12 256 -18 54 -36 85 -36 64z" id="158"/>
<path d="M3900 3505 c-45 -113 -63 -184 -62 -247 1 -109 15 -113 42 -11 12 48 33 116 45 150 21 60 22 63 5 100 l-18 38 -12 -30z" id="159"/>
<path d="M4580 3503 c0 -9 39 -55 87 -102 87 -86 87 -86 91 -56 4 33 -17 143 -29 150 -4 3 -10 1 -14 -5 -10 -16 -47 -12 -83 10 -40 24 -52 25 -52 3z" id="160"/>
<path d="M4824 3478 c3 -13 12 -59 18 -103 l12 -79 75 -78 c95 -100 229 -202 356 -271 55 -30 101 -54 103 -52 4 4 -101 237 -136 300 -24 43 -37 54 -109 91 -94 47 -185 108 -260 170 -58 50 -68 53 -59 22z" id="161"/>
<path d="M4188 3360 c-21 -43 -38 -85 -38 -93 0 -22 58 -181 74 -203 13 -17 15 -15 34 22 22 43 42 136 42 195 0 24 -12 56 -35 94 -19 32 -36 59 -37 60 -2 1 -20 -33 -40 -75z" id="162"/>
<path d="M3935 3329 c-43 -137 -55 -199 -55 -296 0 -97 15 -188 32 -199 10 -6 6 129 -8 251 -4 41 2 74 35 180 25 78 37 133 32 138 -6 6 -20 -24 -36 -74z" id="163"/>
<path d="M7920 3399 c-25 -5 -83 -29 -130 -53 -47 -24 -143 -63 -215 -86 -143 -46 -175 -60 -224 -100 -42 -35 -101 -118 -101 -142 0 -22 32 -24 50 -3 26 31 129 85 229 119 58 19 126 49 153 66 52 32 72 38 66 18 -2 -6 -76 -41 -164 -78 -87 -36 -188 -85 -223 -109 l-64 -44 27 -24 c15 -12 34 -23 43 -23 18 0 112 51 162 88 18 13 55 36 82 51 42 22 182 124 281 203 15 12 90 42 168 68 l140 47 -52 7 c-70 8 -172 6 -228 -5z" id="164"/>
<path d="M4521 3330 c-26 -45 -40 -78 -36 -89 7 -24 206 -231 221 -231 7 0 9 28 7 83 -7 147 -10 161 -52 200 -21 19 -51 51 -68 71 l-30 36 -42 -70z" id="165"/>
<path d="M6767 3292 c-9 -59 -17 -122 -17 -139 l0 -33 45 22 c39 19 45 26 45 52 0 26 -44 193 -53 202 -1 1 -10 -45 -20 -104z" id="166"/>
<path d="M3986 3350 c-36 -107 -66 -222 -65 -255 1 -39 1 -39 9 -10 4 17 15 64 25 105 10 41 25 91 35 111 12 22 15 40 10 49 -8 12 -10 12 -14 0z" id="167"/>
<path d="M2304 3282 c-32 -25 -40 -48 -58 -147 -8 -50 -22 -110 -31 -134 -8 -24 -15 -58 -15 -75 1 -47 41 -152 89 -231 34 -56 38 -65 17 -46 -41 39 -86 115 -111 188 l-23 68 -8 -40 c-10 -55 17 -153 62 -220 42 -64 107 -110 184 -131 30 -8 72 -19 92 -25 21 -5 50 -21 65 -35 l28 -25 -32 15 c-17 9 -71 25 -120 36 -48 12 -106 32 -129 45 -79 47 -147 146 -167 244 l-13 61 -96 -97 c-106 -108 -116 -130 -105 -226 18 -150 187 -327 312 -327 56 0 143 45 230 120 87 75 158 104 233 97 l54 -6 -5 37 c-2 20 -21 78 -43 127 -36 84 -38 96 -38 190 0 55 4 150 8 210 7 91 6 116 -7 147 -18 43 -88 93 -152 108 -49 13 -121 49 -142 73 -20 22 -52 22 -79 -1z m4 -260 c3 -17 -2 -22 -17 -22 -14 0 -21 6 -21 18 0 38 33 41 38 4z m-58 -108 c0 -15 -6 -24 -15 -24 -15 0 -21 40 -9 53 12 11 24 -3 24 -29z m68 -18 c3 -13 -1 -17 -14 -14 -11 2 -20 11 -22 22 -3 13 1 17 14 14 11 -2 20 -11 22 -22z m-3 -156 c3 -5 -1 -10 -9 -10 -9 0 -16 5 -16 10 0 6 4 10 9 10 6 0 13 -4 16 -10z m-197 -22 c-3 -25 -34 -36 -51 -19 -14 14 9 41 35 41 14 0 19 -6 16 -22z m32 -104 c0 -9 -5 -14 -12 -12 -18 6 -21 28 -4 28 9 0 16 -7 16 -16z" id="168"/>
<path d="M4000 3234 c-55 -178 -65 -420 -21 -521 13 -28 32 -60 43 -70 19 -17 19 -17 13 12 -4 17 -13 49 -21 72 -49 152 -41 379 18 526 8 20 8 31 0 39 -7 7 -17 -10 -32 -58z" id="169"/>
<path d="M4322 3204 c-12 -85 -56 -187 -85 -192 -22 -4 -48 39 -83 143 -30 89 -50 113 -39 46 14 -85 101 -281 124 -281 5 0 27 37 50 83 32 64 44 100 52 165 13 110 -4 144 -19 36z" id="170"/>
<path d="M4840 3253 c0 -9 46 -62 103 -117 100 -100 234 -199 332 -248 64 -32 193 -74 201 -65 16 15 -125 327 -176 389 -42 53 -25 1 55 -166 47 -97 85 -181 85 -187 0 -14 -15 -11 -78 14 -140 58 -326 190 -449 321 -45 46 -73 70 -73 59z" id="171"/>
<path d="M4047 3198 c-37 -131 -46 -249 -28 -358 l8 -45 7 40 c14 73 37 157 56 209 19 48 19 56 5 121 -8 39 -15 73 -15 78 0 4 -4 7 -9 7 -5 0 -16 -24 -24 -52z" id="172"/>
<path d="M1514 3226 c-17 -8 -41 -27 -53 -42 l-23 -29 92 -7 c50 -3 94 -8 96 -11 7 -7 -155 -19 -166 -12 -37 23 -70 -33 -70 -117 0 -49 0 -49 22 -34 47 33 39 14 -19 -47 -104 -108 -153 -243 -114 -315 l12 -22 39 31 c35 28 45 31 85 27 51 -6 56 -2 124 99 65 96 173 147 433 202 75 16 149 36 165 44 l27 15 -64 20 c-36 11 -132 35 -215 53 -82 19 -140 35 -127 37 36 5 227 -27 319 -54 95 -28 93 -27 93 -14 0 12 -182 70 -315 100 -55 13 -95 25 -89 27 25 9 310 -59 392 -93 19 -8 14 20 -8 48 -29 38 -158 66 -400 89 -113 10 -205 19 -205 19 0 -1 -14 -7 -31 -14z m276 -246 c0 -11 -7 -20 -15 -20 -15 0 -21 21 -8 33 12 13 23 7 23 -13z m-105 -50 c-5 -8 -11 -8 -17 -2 -6 6 -7 16 -3 22 5 8 11 8 17 2 6 -6 7 -16 3 -22z" id="173"/>
<path d="M4375 3175 c-6 -54 -4 -79 9 -113 9 -25 27 -113 41 -196 34 -201 88 -341 190 -496 45 -67 111 -138 120 -128 26 25 43 334 26 463 -21 158 -27 172 -86 209 -67 44 -151 129 -195 201 -19 31 -49 73 -66 93 l-32 36 -7 -69z" id="174"/>
<path d="M3026 3191 c10 -29 10 -48 3 -76 -11 -39 -3 -54 29 -55 23 0 72 57 72 84 0 29 -28 62 -66 76 -48 18 -53 14 -38 -29z" id="175"/>
<path d="M4450 3220 c0 -42 135 -207 220 -269 82 -59 96 -37 88 145 -7 152 -24 150 -20 -1 4 -123 3 -125 -18 -125 -22 0 -160 130 -233 220 -20 25 -37 38 -37 30z" id="176"/>
<path d="M4811 3203 c-7 -8 -16 -11 -22 -8 -9 6 -4 -140 7 -193 10 -49 355 -372 398 -372 18 0 -16 213 -45 280 -5 14 -46 52 -91 85 -44 33 -115 96 -157 140 -63 66 -80 78 -90 68z" id="177"/>
<path d="M2876 3180 c4 -19 8 -80 8 -135 1 -92 3 -104 31 -154 31 -55 66 -88 85 -76 5 3 10 32 10 63 0 50 -8 75 -64 190 -68 143 -83 166 -70 112z" id="178"/>
<path d="M2761 3174 c-36 -13 -67 -26 -69 -28 -2 -2 35 -42 82 -88 l86 -85 0 88 c0 79 -13 140 -29 139 -3 -1 -35 -12 -70 -26z" id="179"/>
<path d="M6860 3145 c-7 -8 -16 -13 -20 -10 -4 3 -34 -8 -66 -24 -86 -42 -132 -55 -195 -53 -47 1 -63 -3 -101 -28 -109 -72 -188 -177 -188 -248 0 -15 12 -51 25 -81 l26 -55 31 40 c57 70 122 124 192 159 98 50 117 43 22 -8 -149 -79 -241 -191 -265 -321 -13 -72 -14 -153 -2 -160 5 -3 28 4 51 17 31 16 45 32 55 59 24 71 70 114 173 165 l97 47 162 1 163 1 82 55 c89 59 125 83 167 112 14 9 45 22 69 28 23 6 42 17 42 24 0 19 -86 94 -133 116 -55 24 -158 24 -297 0 -58 -10 -114 -22 -125 -26 -11 -3 -8 1 7 9 15 9 54 22 88 30 68 16 113 41 107 59 -6 19 -119 107 -138 107 -9 0 -22 -7 -29 -15z m-240 -250 c-7 -8 -16 -12 -21 -9 -13 8 -1 24 18 24 13 0 13 -3 3 -15z m90 -75 c0 -5 -7 -10 -16 -10 -8 0 -12 5 -9 10 3 6 10 10 16 10 5 0 9 -4 9 -10z m-309 -33 c-13 -13 -26 -3 -16 12 3 6 11 8 17 5 6 -4 6 -10 -1 -17z m129 -52 c0 -8 -7 -15 -15 -15 -16 0 -20 12 -8 23 11 12 23 8 23 -8z m-35 -35 c8 -12 -21 -60 -35 -60 -11 0 -13 30 -4 54 7 18 30 21 39 6z m-94 -103 c-13 -13 -26 -3 -16 12 3 6 11 8 17 5 6 -4 6 -10 -1 -17z" id="180"/>
<path d="M6380 3068 c-36 -21 -97 -55 -137 -73 -39 -19 -79 -44 -87 -57 -8 -13 -18 -54 -22 -92 -6 -58 -9 -66 -16 -45 -6 13 -8 50 -5 81 l5 57 -46 -6 c-26 -3 -49 -8 -52 -10 -13 -11 97 -363 150 -480 17 -36 29 -68 27 -69 -2 -2 -22 31 -44 74 -64 119 -102 225 -153 421 -10 40 -13 42 -27 28 -23 -22 -20 -106 6 -202 44 -159 200 -435 246 -435 17 0 29 42 50 173 18 117 19 162 4 276 -11 80 -10 90 11 145 24 63 103 149 179 196 22 14 41 28 41 31 0 6 -47 29 -58 28 -4 0 -36 -19 -72 -41z m-200 -483 c9 -11 10 -19 2 -27 -14 -14 -32 -1 -32 23 0 23 13 25 30 4z" id="181"/>
<path d="M2720 3022 c0 -52 2 -55 55 -106 71 -67 68 -89 -11 -85 -30 2 -54 0 -54 -4 0 -4 0 -11 0 -17 0 -5 8 -10 18 -10 34 0 122 -51 122 -70 0 -19 -67 -64 -112 -75 -20 -5 -24 -11 -20 -27 4 -17 10 -19 40 -13 20 4 53 15 74 26 20 10 51 19 68 19 34 0 105 -37 135 -70 20 -22 65 -27 65 -7 0 27 -61 115 -112 163 -31 28 -73 82 -94 120 -21 38 -69 100 -106 139 l-67 70 -1 -53z" id="182"/>
<path d="M4102 2978 c-34 -113 -45 -194 -38 -288 7 -107 20 -152 58 -204 38 -52 64 -69 54 -35 -37 132 -48 289 -33 469 6 74 5 99 -6 114 -12 17 -15 11 -35 -56z" id="183"/>
<path d="M4340 3028 c0 -13 9 -77 21 -143 24 -146 34 -340 21 -417 -8 -52 -7 -58 8 -58 22 0 29 23 36 130 6 87 -18 292 -52 443 -15 65 -34 91 -34 45z" id="184"/>
<path d="M7535 2943 c-41 -80 -52 -77 -19 6 8 19 12 36 10 38 -10 10 -49 -26 -78 -70 -27 -43 -29 -50 -18 -77 7 -16 10 -39 7 -50 -6 -23 -2 -24 42 -9 17 6 31 16 31 22 0 7 20 60 44 120 23 59 39 107 35 107 -5 0 -29 -39 -54 -87z" id="185"/>
<path d="M4288 2938 c-13 -24 -33 -47 -45 -53 -16 -7 -24 -21 -28 -50 -11 -74 27 -352 57 -407 14 -28 75 -24 84 5 15 45 7 271 -15 406 -12 74 -23 136 -25 138 -2 2 -14 -15 -28 -39z" id="186"/>
<path d="M4793 2937 c23 -61 200 -236 332 -329 46 -33 127 -78 139 -78 10 0 -6 184 -21 250 -17 70 -38 120 -52 120 -4 0 0 -35 10 -77 11 -43 22 -111 26 -150 7 -87 -4 -98 -64 -60 -63 40 -223 178 -302 262 -41 44 -72 71 -68 62z" id="187"/>
<path d="M1959 2915 c-147 -26 -212 -46 -292 -88 -51 -27 -70 -46 -155 -161 -157 -212 -155 -209 -149 -262 6 -57 47 -118 136 -202 l66 -63 6 78 c3 43 6 71 8 63 15 -103 34 -178 54 -213 41 -69 125 -144 192 -171 l60 -24 6 82 c6 81 21 124 77 216 34 55 29 111 -18 205 -68 135 -65 231 10 322 22 26 62 74 88 105 26 31 57 75 70 97 l23 41 -28 -1 c-15 -1 -85 -12 -154 -24z m101 -9 c0 -2 -44 -30 -97 -61 -54 -32 -118 -72 -143 -89 -25 -16 -39 -22 -31 -13 38 47 271 187 271 163z m-238 -68 c-15 -15 -26 -4 -18 18 5 13 9 15 18 6 9 -9 9 -15 0 -24z m68 -112 c0 -18 -17 -29 -30 -21 -8 5 -7 11 1 21 15 18 29 18 29 0z m-205 -75 c-31 -46 -74 -165 -75 -203 0 -16 -5 -28 -10 -28 -12 0 -4 67 16 130 13 40 76 140 89 140 3 0 -6 -17 -20 -39z m135 -15 c0 -18 -16 -29 -30 -21 -13 8 -1 35 16 35 8 0 14 -6 14 -14z" id="188"/>
<path d="M4176 2931 c-4 -7 -8 -81 -8 -165 0 -151 15 -264 44 -323 15 -31 46 -47 34 -17 -33 84 -49 181 -55 344 -3 105 -9 170 -15 161z" id="189"/>
<path d="M2716 2914 c-11 -30 -6 -54 12 -54 9 0 27 -3 40 -6 34 -10 28 19 -12 50 -29 21 -35 23 -40 10z" id="190"/>
<path d="M4765 2881 c-3 -6 2 -46 12 -89 26 -109 25 -381 -1 -509 -12 -59 -23 -93 -31 -93 -18 0 -121 113 -163 179 -19 30 -54 95 -78 145 l-44 91 0 -48 c0 -57 18 -104 63 -160 18 -23 55 -77 81 -120 31 -50 62 -87 86 -102 21 -13 41 -29 45 -35 25 -40 61 40 85 193 16 99 8 292 -19 441 -21 113 -25 124 -36 107z" id="191"/>
<path d="M5307 2768 c5 -65 -11 -249 -22 -269 -6 -9 -155 36 -210 63 -22 11 -67 40 -101 64 l-61 43 -6 -117 c-12 -223 -46 -364 -102 -422 l-24 -25 20 -30 c58 -86 90 -191 69 -225 -7 -12 -13 -11 -34 9 -32 30 -88 42 -148 31 -39 -8 -101 -32 -117 -46 -2 -2 14 -23 35 -47 22 -24 64 -93 94 -153 36 -72 61 -109 71 -109 9 0 25 -11 36 -24 18 -22 21 -23 79 -11 32 6 66 13 74 16 12 3 15 24 15 111 1 60 6 172 13 250 16 190 32 232 123 318 39 36 81 71 94 77 17 8 24 21 28 59 8 62 22 83 114 165 82 74 106 116 118 204 3 30 8 62 11 70 3 12 -14 21 -68 37 -40 12 -81 25 -90 28 -15 6 -16 -1 -11 -67z" id="192"/>
<path d="M5700 2815 c0 -3 22 -36 49 -73 60 -83 141 -208 141 -218 0 -4 -51 59 -112 140 l-112 148 -41 -7 c-62 -9 -98 -35 -107 -75 -13 -57 -3 -75 54 -104 29 -15 85 -54 125 -86 92 -76 119 -121 31 -52 -76 60 -187 132 -202 132 -19 -1 -244 -224 -255 -253 -12 -31 -15 -106 -5 -131 16 -40 40 -38 139 14 l95 50 98 0 c58 0 122 -6 157 -16 33 -9 86 -22 119 -30 32 -8 98 -33 146 -55 48 -23 95 -39 103 -37 11 2 -6 29 -60 93 -99 120 -293 326 -350 372 -40 33 -46 35 -55 20 -5 -10 -14 -15 -19 -12 -16 11 -49 83 -49 110 0 31 25 34 41 4 6 -12 74 -85 152 -163 78 -78 198 -201 266 -274 67 -73 127 -132 132 -132 16 0 10 20 -15 53 -40 52 -141 254 -187 372 -39 101 -85 183 -96 172 -2 -3 16 -51 40 -108 69 -162 64 -167 -15 -13 -67 133 -74 143 -108 153 -38 11 -100 15 -100 6z m8 -388 c2 -11 -3 -17 -17 -17 -23 0 -35 15 -26 31 10 15 39 6 43 -14z m-14 -53 c23 -9 20 -24 -4 -24 -11 0 -20 7 -20 15 0 17 2 18 24 9z" id="193"/>
<path d="M7320 2807 c-26 -9 -34 -17 -32 -32 2 -11 7 -41 11 -68 11 -73 25 -78 59 -23 76 120 64 158 -38 123z" id="194"/>
<path d="M7625 2784 c-11 -2 -45 -9 -75 -15 -116 -22 -128 -28 -151 -67 -49 -83 -80 -99 -114 -62 -20 22 -51 25 -109 9 -37 -10 -86 -48 -86 -67 0 -4 25 -29 55 -55 l54 -48 58 29 c32 16 78 33 103 37 28 4 76 27 127 59 44 28 103 63 130 78 26 15 77 46 112 68 l65 40 -75 -1 c-41 -1 -83 -3 -94 -5z" id="195"/>
<path d="M2700 2738 c0 -66 8 -71 69 -43 31 15 50 29 46 36 -7 11 -89 49 -106 49 -5 0 -9 -19 -9 -42z" id="196"/>
<path d="M7188 2710 c-36 -32 -28 -37 35 -19 26 7 37 15 37 29 0 30 -34 25 -72 -10z" id="197"/>
<path d="M2835 2614 c-22 -14 -49 -37 -59 -51 -17 -23 -18 -30 -6 -57 30 -72 19 -167 -18 -150 -9 4 -36 9 -58 12 -58 5 -116 -22 -215 -104 -82 -66 -165 -113 -204 -115 -26 -1 52 -27 86 -28 14 -1 61 14 105 33 43 19 96 38 117 41 30 6 44 16 62 45 34 54 62 73 161 106 70 23 98 38 135 74 26 25 51 58 55 74 12 50 -39 120 -101 140 -14 4 -35 -3 -60 -20z" id="198"/>
<path d="M1352 2610 c-38 -24 -40 -54 -5 -77 20 -13 23 -11 57 33 20 26 36 51 36 55 0 16 -55 9 -88 -11z" id="199"/>
<path d="M6681 2610 c-78 -28 -159 -79 -190 -120 -58 -74 -46 -92 57 -88 63 3 73 0 97 -22 15 -14 34 -37 42 -51 11 -18 42 -38 92 -60 90 -39 179 -89 235 -130 22 -16 38 -29 35 -29 -2 0 -76 36 -163 80 -88 44 -162 77 -165 74 -8 -8 25 -32 108 -79 38 -22 68 -41 66 -43 -1 -2 -33 11 -70 28 -38 16 -71 28 -74 25 -2 -3 8 -31 23 -62 26 -54 27 -61 24 -188 -3 -163 4 -176 110 -195 26 -4 74 -20 107 -34 90 -38 201 -32 251 15 20 19 24 32 24 83 0 95 -15 134 -74 189 l-51 49 52 -26 c29 -14 57 -26 63 -26 6 0 17 15 24 33 41 94 56 138 56 164 0 39 -52 112 -151 214 -162 166 -228 204 -379 213 -80 5 -104 3 -149 -14z m-81 -130 c0 -21 -33 -29 -45 -10 -9 15 4 30 26 30 12 0 19 -7 19 -20z m98 -52 c19 -19 14 -30 -10 -26 -13 2 -24 11 -26 21 -4 20 18 23 36 5z m122 -48 c0 -5 -4 -10 -9 -10 -6 0 -13 5 -16 10 -3 6 1 10 9 10 9 0 16 -4 16 -10z m38 -274 c3 -12 -1 -17 -10 -14 -7 3 -15 13 -16 22 -3 12 1 17 10 14 7 -3 15 -13 16 -22z" id="200"/>
<path d="M3070 2510 c-46 -50 -44 -76 12 -139 35 -40 128 -211 128 -236 0 -5 -28 36 -62 92 -35 56 -77 118 -94 139 l-31 37 -84 -35 c-46 -19 -116 -47 -155 -62 -39 -15 -81 -37 -92 -49 -30 -32 -52 -90 -52 -138 0 -38 2 -41 23 -35 79 22 174 28 256 17 175 -25 284 -65 340 -125 18 -19 30 -24 48 -20 17 5 23 2 23 -10 0 -9 -7 -16 -16 -16 -13 0 -12 -6 7 -37 44 -75 95 -96 117 -48 16 34 6 497 -11 540 -10 26 -13 9 -17 -115 l-5 -145 -12 158 c-7 94 -17 165 -24 174 -7 8 -35 26 -62 40 l-50 25 6 -29 c3 -15 17 -75 30 -133 28 -121 42 -197 34 -190 -3 3 -26 82 -52 175 -25 94 -49 173 -53 177 -4 4 -33 10 -64 14 -56 6 -58 6 -88 -26z m101 -40 c4 -19 31 -87 62 -150 54 -113 119 -292 131 -360 4 -19 -16 22 -43 93 -84 215 -143 339 -155 327 -30 -30 -53 25 -40 96 9 46 36 43 45 -6z m-48 -305 c4 -8 2 -17 -4 -21 -15 -9 -39 3 -39 21 0 19 36 20 43 0z m-28 -66 c4 -6 5 -12 2 -15 -7 -7 -37 7 -37 17 0 13 27 11 35 -2z m190 -59 c0 -27 -22 -39 -31 -16 -8 22 3 49 19 43 6 -2 12 -14 12 -27z" id="201"/>
<path d="M7620 2514 c-36 -13 -103 -34 -150 -45 -80 -20 -190 -65 -190 -78 0 -3 9 -17 19 -30 l18 -24 64 32 c35 17 87 33 114 36 l50 6 -61 -24 c-87 -35 -144 -66 -144 -78 0 -5 8 -21 17 -35 15 -23 21 -25 56 -20 46 8 119 43 207 102 37 24 91 49 126 58 62 16 99 30 192 72 29 13 59 24 67 24 7 0 16 4 19 9 9 15 -51 21 -198 20 -125 0 -149 -3 -206 -25z m130 -23 c0 -10 -91 -51 -114 -51 -34 0 -13 16 47 36 34 12 63 22 65 23 1 1 2 -3 2 -8z" id="202"/>
<path d="M3581 2413 c-7 -49 -15 -180 -19 -293 -4 -148 -8 -195 -14 -170 -14 54 -13 334 1 438 7 51 10 96 6 100 -11 11 -53 -45 -65 -86 -6 -20 -14 -104 -17 -187 -6 -159 11 -305 42 -366 16 -31 23 -33 74 -23 25 5 31 11 31 33 0 15 10 45 23 68 67 126 95 182 106 215 17 51 78 143 139 208 29 30 52 58 52 61 0 10 -115 59 -138 59 -21 0 -25 -8 -37 -70 -12 -61 -154 -425 -162 -416 -2 1 28 94 66 207 78 235 87 269 66 269 -12 0 -69 -84 -89 -130 -3 -8 -4 -1 -1 17 2 18 12 49 22 70 9 21 17 42 17 47 1 6 -66 33 -90 36 -1 0 -7 -39 -13 -87z m39 -292 c0 -24 -18 -37 -31 -24 -13 13 -1 43 17 43 8 0 14 -9 14 -19z" id="203"/>
<path d="M4039 2411 c-91 -35 -162 -96 -218 -185 -29 -47 -41 -96 -23 -96 4 0 37 15 72 34 36 19 92 41 125 50 70 18 241 32 210 17 -11 -5 -33 -10 -50 -10 -53 -2 -196 -41 -259 -71 -34 -16 -80 -45 -104 -65 -47 -41 -118 -153 -128 -203 l-6 -32 47 0 c42 0 52 5 86 39 56 55 100 73 212 84 80 8 117 7 200 -7 122 -21 225 -50 287 -81 40 -21 48 -22 70 -9 61 33 152 56 206 52 30 -3 54 -1 54 4 0 5 -21 31 -46 58 -70 74 -168 115 -349 145 l-90 15 89 -5 c167 -10 301 -58 366 -132 38 -43 39 -24 1 30 -60 86 -88 102 -281 153 l-125 33 86 -6 c116 -8 125 -2 91 61 -46 84 -63 92 -208 88 -123 -3 -124 -3 -178 27 -61 36 -74 37 -137 12z m-138 -184 c-13 -13 -26 -3 -16 12 3 6 11 8 17 5 6 -4 6 -10 -1 -17z m99 -97 c0 -5 -7 -10 -15 -10 -8 0 -15 5 -15 10 0 6 7 10 15 10 8 0 15 -4 15 -10z m-53 -35 c-8 -20 -36 -30 -49 -17 -7 7 -3 17 12 32 24 24 48 14 37 -15z m-112 -34 c7 -12 -12 -24 -25 -16 -11 7 -4 25 10 25 5 0 11 -4 15 -9z" id="204"/>
<path d="M6483 2369 c-108 -13 -158 -46 -182 -121 -15 -44 -78 -118 -137 -159 -43 -30 -44 -31 -44 -87 0 -76 20 -150 70 -258 22 -48 39 -89 37 -90 -6 -6 -70 106 -94 167 -17 42 -28 93 -32 153 -6 79 -8 86 -15 54 -10 -46 9 -194 34 -264 21 -60 71 -140 132 -209 27 -30 34 -44 21 -37 -39 21 -124 127 -158 197 -44 90 -70 217 -62 304 l7 66 -83 38 c-95 43 -106 44 -157 16 -38 -22 -47 -33 -74 -103 -66 -164 -26 -578 66 -690 66 -80 266 -189 553 -301 130 -50 183 -61 208 -43 9 7 30 45 46 84 41 100 71 144 140 204 33 28 62 58 65 65 3 8 -7 67 -20 132 -22 99 -27 157 -33 363 l-7 245 -49 114 c-27 62 -61 126 -76 142 -29 32 -35 32 -156 18z m-225 -276 c-5 -25 -28 -28 -28 -4 0 12 6 21 16 21 9 0 14 -7 12 -17z m-347 -92 c-10 -18 -14 -19 -31 -8 -24 14 -25 21 -4 42 15 14 19 15 31 2 12 -11 12 -19 4 -36z m287 -12 c-2 -16 -10 -24 -23 -24 -26 0 -32 35 -9 52 22 16 37 4 32 -28z m-188 -4 c0 -8 -7 -15 -15 -15 -8 0 -15 7 -15 15 0 8 7 15 15 15 8 0 15 -7 15 -15z m250 -10 c0 -8 -4 -15 -10 -15 -5 0 -10 7 -10 15 0 8 5 15 10 15 6 0 10 -7 10 -15z m-60 -91 c12 -32 4 -50 -16 -33 -16 13 -19 59 -4 59 6 0 15 -12 20 -26z m-240 -9 c14 -17 4 -55 -15 -55 -13 0 -24 37 -17 58 5 16 17 15 32 -3z m285 -116 c4 -11 4 -23 1 -26 -8 -9 -36 17 -36 33 0 22 28 16 35 -7z m264 -385 c80 -62 123 -124 87 -124 -8 0 -17 9 -21 20 -3 11 -41 51 -83 90 -92 84 -82 92 17 14z" id="205"/>
<path d="M5503 2271 c-37 -10 -117 -58 -196 -118 -69 -53 -124 -124 -166 -213 -54 -114 -40 -186 58 -291 l50 -54 1 45 c0 25 10 65 21 89 11 25 29 78 39 119 11 42 23 78 26 81 8 8 -3 -91 -22 -193 -24 -131 -14 -210 40 -320 25 -51 111 -154 121 -144 3 3 -2 21 -10 41 -41 98 -9 178 124 307 l98 95 1 92 c2 170 45 305 110 348 64 42 89 42 181 -5 85 -42 108 -45 76 -10 -29 32 -136 79 -241 105 -102 26 -259 39 -311 26z m121 -37 c24 -9 19 -34 -6 -34 -30 0 -52 15 -44 29 8 12 26 14 50 5z m146 -24 c0 -5 -4 -10 -9 -10 -6 0 -13 5 -16 10 -3 6 1 10 9 10 9 0 16 -4 16 -10z m-240 -24 c0 -16 -14 -36 -25 -36 -17 0 -28 17 -20 30 6 10 45 15 45 6z m84 -50 c-34 -13 -76 -32 -94 -41 -17 -9 -34 -14 -36 -12 -8 8 64 48 109 63 71 22 86 14 21 -10z m44 -43 c-2 -10 -12 -18 -23 -18 -11 0 -21 8 -23 18 -3 13 3 17 23 17 20 0 26 -4 23 -17z m-148 -144 c0 -5 -7 -9 -15 -9 -15 0 -20 12 -9 23 8 8 24 -1 24 -14z" id="206"/>
<path d="M5172 2223 c-72 -48 -120 -107 -136 -168 -24 -88 -49 -358 -43 -457 7 -118 18 -155 62 -204 l35 -39 -6 40 c-5 34 0 28 30 -40 20 -44 36 -81 36 -82 0 -2 3 -3 8 -3 12 0 7 291 -6 350 -7 30 -21 66 -31 79 l-19 24 -11 -21 c-7 -12 -16 -48 -20 -80 l-9 -57 -1 58 c0 32 4 68 11 80 6 12 12 60 12 107 2 74 6 94 33 150 18 36 57 96 88 133 l57 69 -19 48 -18 48 -53 -35z" id="207"/>
<path d="M2040 2231 c0 -6 45 -45 100 -87 55 -42 100 -79 100 -81 0 -7 -66 30 -125 71 -86 60 -83 59 -95 37 -9 -18 -6 -22 27 -36 40 -17 143 -111 143 -131 0 -6 -14 -29 -31 -50 l-31 -39 49 -22 c26 -12 51 -22 54 -22 4 -1 14 18 23 40 17 41 17 42 -9 68 -34 37 -32 47 6 21 35 -25 32 -26 52 22 l16 37 -57 33 c-31 18 -67 38 -80 45 -13 7 -46 33 -75 58 -52 45 -67 53 -67 36z" id="208"/>
<path d="M2555 2156 c-67 -22 -171 -75 -193 -99 -11 -12 -37 -59 -56 -105 -20 -45 -49 -102 -65 -125 -46 -67 -61 -113 -61 -186 l1 -66 28 58 c16 33 43 73 60 91 17 18 31 40 31 51 0 38 43 105 101 160 33 30 57 55 54 55 -3 0 -21 -7 -41 -15 -19 -8 -32 -10 -29 -4 10 15 96 56 145 69 74 19 80 21 80 31 0 18 -71 8 -175 -25 -11 -4 7 7 40 24 35 17 76 30 98 30 36 0 37 1 37 35 0 39 1 39 -55 21z" id="209"/>
<path d="M1958 2098 c-21 -33 -48 -124 -48 -164 0 -78 30 -103 100 -84 44 12 49 17 112 98 l41 54 -55 55 c-43 43 -63 56 -94 60 -35 4 -43 2 -56 -19z" id="210"/>
<path d="M2664 2051 c-97 -28 -171 -68 -239 -132 -80 -76 -99 -114 -92 -188 7 -65 24 -145 26 -118 3 51 105 187 140 187 5 0 18 3 28 6 10 4 0 -7 -22 -23 -53 -40 -69 -59 -99 -119 -55 -109 -43 -212 43 -389 46 -94 111 -185 132 -185 5 0 8 59 7 138 -3 180 -3 179 134 224 82 26 105 38 115 58 6 14 30 63 52 110 76 158 152 230 243 230 40 0 50 13 21 28 -38 19 -152 34 -263 34 -70 0 -107 3 -95 8 11 5 74 9 139 9 95 1 121 4 130 17 10 13 14 13 35 -5 13 -12 29 -21 36 -21 7 0 40 -18 74 -40 57 -37 91 -49 91 -33 0 13 -60 99 -87 125 -32 30 -104 65 -178 84 -74 20 -294 17 -371 -5z m297 -41 c24 -13 25 -40 1 -40 -21 0 -42 18 -42 37 0 16 15 17 41 3z m-101 -15 c0 -9 -7 -18 -16 -22 -18 -7 -39 11 -30 26 11 17 46 13 46 -4z m291 5 c24 -13 25 -40 1 -40 -26 0 -56 25 -48 38 9 15 22 15 47 2z m-204 -121 c14 -14 6 -39 -12 -39 -7 0 -18 7 -25 15 -22 26 12 49 37 24z m-186 -94 c-1 -15 -24 -12 -29 3 -3 9 2 13 12 10 10 -1 17 -7 17 -13z" id="211"/>
<path d="M3930 1941 c-79 -26 -130 -70 -130 -112 0 -23 11 -33 84 -74 47 -26 95 -59 108 -73 19 -21 8 -17 -64 22 -85 46 -111 49 -67 10 12 -10 35 -39 52 -64 25 -37 27 -42 7 -25 l-23 20 9 -40 c5 -22 9 -104 9 -182 0 -135 1 -144 23 -165 21 -21 30 -23 110 -19 223 11 273 8 334 -22 32 -16 75 -48 98 -74 46 -52 50 -44 25 52 -33 124 -86 211 -189 309 -28 27 -38 39 -21 28 84 -56 195 -211 237 -331 20 -56 21 -152 3 -208 -6 -17 -1 -25 22 -36 15 -9 47 -34 70 -56 23 -23 45 -41 49 -41 14 0 -5 148 -30 225 -14 44 -46 121 -70 170 -34 67 -39 82 -20 60 42 -50 113 -207 139 -306 l25 -94 -5 80 c-11 151 -57 271 -157 410 -60 83 -26 57 39 -30 59 -78 92 -143 119 -235 l22 -75 7 118 c12 196 4 266 -45 387 -67 165 -122 231 -241 288 -112 55 -222 80 -371 86 -73 3 -144 2 -158 -3z m77 -57 c7 -20 -13 -34 -49 -34 -32 0 -44 15 -28 35 17 20 69 19 77 -1z m123 -19 c0 -9 -6 -12 -15 -9 -8 4 -12 10 -9 15 8 14 24 10 24 -6z m-90 -80 c10 -12 10 -19 2 -27 -13 -13 -42 6 -42 28 0 19 24 18 40 -1z m247 -11 c-9 -9 -28 6 -21 18 4 6 10 6 17 -1 6 -6 8 -13 4 -17z m-182 6 c-3 -5 -13 -10 -21 -10 -8 0 -12 5 -9 10 3 6 13 10 21 10 8 0 12 -4 9 -10z m35 -80 c0 -5 -7 -10 -15 -10 -8 0 -15 5 -15 10 0 6 7 10 15 10 8 0 15 -4 15 -10z m-22 -173 c2 -11 -3 -17 -16 -17 -26 0 -34 11 -20 27 14 17 32 12 36 -10z m-48 -97 c0 -11 -4 -20 -10 -20 -5 0 -10 2 -10 4 0 2 -3 11 -6 20 -4 11 -1 16 10 16 9 0 16 -8 16 -20z" id="212"/>
<path d="M3054 1786 c-55 -25 -87 -61 -127 -141 -70 -141 -133 -389 -123 -483 10 -84 27 -113 128 -213 52 -52 114 -123 138 -159 60 -90 125 -166 183 -211 39 -31 52 -37 67 -29 18 9 16 15 -25 93 -47 88 -80 178 -89 242 -6 40 -6 40 13 -10 45 -121 122 -285 134 -285 1 0 2 40 2 88 0 80 3 92 28 131 29 44 54 58 220 126 58 24 79 40 148 114 48 52 83 99 89 121 20 69 33 187 34 310 1 117 -1 128 -26 181 -29 59 -106 133 -149 144 -13 3 -60 -1 -103 -9 -65 -13 -86 -22 -114 -48 -30 -29 -33 -30 -27 -10 14 47 -33 10 -71 -55 -10 -18 -22 -33 -26 -33 -10 0 18 58 40 83 8 9 12 20 9 23 -13 13 -107 -102 -147 -179 -31 -62 -45 -105 -56 -177 -25 -154 -34 -179 -29 -74 7 134 62 291 140 394 34 46 15 51 -36 10 -22 -18 -43 -30 -46 -27 -6 7 57 67 72 68 5 0 -17 9 -50 19 -81 26 -139 25 -201 -4z m101 -87 c0 -15 -7 -25 -18 -27 -22 -4 -33 24 -17 43 18 21 35 13 35 -16z m515 -9 c0 -11 -48 -25 -57 -16 -3 3 5 10 18 15 32 13 39 13 39 1z m-150 -50 c0 -12 -28 -25 -36 -17 -9 9 6 27 22 27 8 0 14 -5 14 -10z m40 -44 c0 -7 -7 -19 -15 -26 -13 -10 -18 -11 -28 -1 -9 10 -8 15 7 27 25 18 36 18 36 0z m-140 -14 c0 -19 -18 -42 -32 -42 -13 0 -9 48 5 53 22 9 27 7 27 -11z m-272 -49 c-4 -36 -38 -45 -38 -10 0 27 7 37 27 37 10 0 13 -9 11 -27z m322 -1 c0 -13 -12 -22 -22 -16 -10 6 -1 24 13 24 5 0 9 -4 9 -8z m10 -142 c0 -13 -7 -20 -20 -20 -19 0 -27 20 -13 33 13 14 33 6 33 -13z m-196 -534 c18 -43 20 -66 8 -66 -11 0 -52 167 -51 205 0 18 6 3 14 -35 7 -36 20 -83 29 -104z" id="213"/>
<path d="M2268 1688 c-56 -75 -72 -163 -42 -234 17 -39 17 -39 26 -14 6 14 19 45 30 70 14 32 19 69 20 123 0 43 -2 81 -5 83 -3 3 -16 -10 -29 -28z" id="214"/>
<path d="M5644 1623 c-46 -26 -124 -105 -124 -126 0 -15 61 -47 90 -47 11 0 38 7 60 16 35 14 40 20 40 49 0 34 -14 54 -24 36 -7 -11 -105 -45 -111 -39 -2 2 25 23 60 46 43 28 65 49 65 61 0 29 -11 30 -56 4z" id="215"/>
<path d="M5223 1520 c-31 -19 -33 -23 -33 -80 0 -33 2 -60 4 -60 3 0 17 5 33 10 l28 10 -33 -27 c-22 -19 -32 -37 -32 -55 0 -16 2 -28 4 -28 2 0 33 13 68 30 34 16 69 30 76 30 6 0 12 4 12 10 0 13 -83 180 -90 180 -3 0 -20 -9 -37 -20z" id="216"/>
<path d="M6833 1488 c3 -25 14 -49 25 -58 10 -8 56 -44 101 -79 45 -35 80 -66 77 -68 -3 -4 -85 52 -158 108 l-28 21 6 -31 c4 -20 1 -37 -7 -47 -12 -15 -8 -21 29 -55 24 -21 64 -45 90 -54 26 -10 60 -22 76 -28 15 -6 72 -41 125 -79 52 -38 97 -64 99 -58 4 12 -164 266 -207 313 -50 56 -120 108 -176 133 l-58 25 6 -43z" id="217"/>
<path d="M4784 1453 c7 -30 12 -64 14 -102 2 -22 4 -23 56 -17 33 5 57 3 60 -3 6 -9 -19 -16 -83 -24 -8 -1 -16 -8 -19 -16 -4 -11 3 -13 34 -8 22 4 93 7 158 7 117 0 119 0 102 19 -15 17 -27 19 -92 14 -84 -7 -106 12 -26 22 26 3 53 7 60 8 9 1 3 15 -17 41 -17 22 -34 50 -37 63 -7 27 -22 28 -105 11 -45 -9 -64 -9 -85 0 -26 12 -26 12 -20 -15z" id="218"/>
<path d="M5484 1435 c-10 -39 1 -121 20 -149 14 -22 24 -26 67 -26 62 0 159 27 159 44 0 29 -149 135 -212 151 -24 6 -28 3 -34 -20z" id="219"/>
<path d="M2752 1265 c-18 -41 -32 -79 -32 -84 0 -6 -10 -36 -21 -67 -18 -46 -40 -76 -120 -156 -55 -54 -99 -103 -99 -107 0 -12 158 83 194 117 l29 27 -18 -27 c-9 -15 -55 -53 -102 -85 -46 -32 -80 -59 -74 -61 20 -7 144 39 186 68 24 16 59 54 79 85 l37 55 -18 50 -18 50 -18 -33 c-10 -17 -16 -24 -13 -15 16 53 51 258 44 258 -2 0 -18 -34 -36 -75z" id="220"/>
<path d="M3906 1223 c-17 -18 -4 -59 24 -78 66 -43 106 -125 94 -192 -3 -21 -17 -58 -30 -82 -13 -24 -22 -46 -19 -49 9 -10 91 84 113 129 42 86 47 192 12 234 -14 17 -66 20 -75 5 -4 -6 5 -24 19 -40 31 -37 42 -91 28 -133 l-11 -32 5 36 c7 44 -19 100 -68 145 -42 39 -84 65 -92 57z" id="221"/>
<path d="M5517 1109 c-21 -5 -93 -32 -159 -61 -109 -46 -118 -53 -97 -62 13 -5 85 -10 159 -10 132 -1 136 0 185 28 28 16 72 46 98 65 l48 36 -58 6 c-80 9 -131 9 -176 -2z" id="222"/>
<path d="M6156 1053 c-10 -65 5 -205 25 -239 11 -18 17 -38 14 -47 -7 -16 49 -174 100 -282 30 -64 160 -223 172 -211 3 2 -12 54 -31 115 -20 61 -36 119 -36 129 0 31 -29 131 -70 240 -31 81 -40 120 -40 167 0 39 -6 69 -16 83 -16 24 -91 82 -104 82 -4 0 -10 -17 -14 -37z" id="223"/>
<path d="M5840 1005 c-22 -57 -40 -139 -40 -181 0 -96 49 -274 64 -234 18 47 65 211 70 246 6 35 2 52 -22 100 -17 33 -37 68 -45 79 -15 20 -16 19 -27 -10z" id="224"/>
<path d="M2814 955 c-3 -25 -2 -71 3 -102 l9 -58 42 65 41 65 -36 37 c-21 21 -40 38 -44 38 -4 0 -11 -20 -15 -45z" id="225"/>
<path d="M6317 986 c-11 -28 6 -132 30 -179 13 -27 49 -74 80 -105 30 -31 70 -79 88 -107 35 -54 121 -142 130 -133 3 2 -10 38 -29 80 -19 41 -59 154 -88 251 l-53 177 -35 10 c-19 6 -38 10 -42 10 -10 0 1 -52 28 -132 13 -38 21 -68 19 -68 -12 0 -66 126 -72 165 -5 38 -9 45 -28 45 -13 0 -25 -6 -28 -14z m213 -322 c26 -60 25 -66 -3 -24 -30 44 -39 70 -26 70 5 0 19 -21 29 -46z" id="226"/>
<path d="M3723 956 l-33 -23 30 -28 c16 -16 32 -27 34 -24 8 9 17 99 9 99 -4 -1 -23 -11 -40 -24z" id="227"/>
<path d="M5227 749 c-46 -24 -69 -46 -119 -112 -55 -74 -128 -209 -128 -237 0 -27 268 177 285 218 11 25 32 162 26 162 -3 -1 -32 -14 -64 -31z" id="228"/>
<path d="M5585 695 c-23 -8 -57 -33 -78 -57 -48 -53 -150 -222 -137 -226 13 -5 114 42 172 80 44 28 50 36 73 109 37 117 37 118 -30 94z" id="229"/>
<path d="M4695 661 c-32 -8 -205 -108 -205 -118 0 -3 55 -3 123 -1 115 5 126 8 197 42 41 20 80 36 87 36 7 0 13 4 13 8 0 7 -45 17 -165 37 -11 2 -33 0 -50 -4z" id="230"/>
</g>
</svg>