<?xml version="1.0" ?><!DOCTYPE svg  PUBLIC '-//W3C//DTD SVG 20010904//EN'  'http://www.w3.org/TR/2001/REC-SVG-20010904/DTD/svg10.dtd'><svg height="850.000000pt" preserveAspectRatio="xMidYMid meet" version="1.0" viewBox="0 0 850.000000 850.000000" width="850.000000pt" xmlns="http://www.w3.org/2000/svg">
<metadata>
Created by potrace 1.14, written by Peter Selinger 2001-2017
</metadata>
<g fill="#ffffff" stroke="none" transform="translate(0.000000,850.000000) scale(0.100000,-0.100000)">
<path d="M0 4250 l0 -4250 4250 0 4250 0 0 4250 0 4250 -4250 0 -4250 0 0 -4250z m4740 3791 c195 -30 326 -58 485 -103 1167 -329 2104 -1267 2434 -2436 43 -153 79 -324 108 -517 26 -174 26 -736 0 -910 -29 -193 -65 -364 -108 -517 -249 -883 -848 -1646 -1654 -2109 -447 -256 -994 -421 -1507 -455 l-108 -7 6 -52 c8 -65 -16 -124 -77 -189 -216 -236 -772 -344 -1204 -235 -232 59 -421 192 -500 353 -77 155 -65 292 33 408 59 70 65 59 -75 134 -332 178 -689 455 -929 722 -509 563 -798 1181 -911 1947 -25 173 -25 737 0 910 85 576 261 1048 562 1500 574 864 1467 1422 2495 1559 175 24 184 24 510 21 250 -2 330 -7 440 -24z" id="1"/>
<path d="M4075 8029 c-652 -29 -1293 -247 -1829 -623 -338 -237 -673 -577 -902 -916 -359 -530 -566 -1154 -592 -1787 -24 -557 66 -1063 273 -1548 179 -418 416 -767 749 -1101 269 -269 570 -490 878 -645 l81 -41 25 26 c14 14 24 27 21 30 -2 2 -47 25 -99 51 -305 152 -580 354 -851 625 -350 349 -595 718 -772 1165 -398 1002 -295 2168 272 3073 240 382 563 727 928 990 358 257 799 454 1241 553 283 63 384 73 752 73 293 0 353 -3 477 -22 396 -60 735 -167 1073 -338 342 -172 601 -362 890 -653 167 -167 218 -227 354 -414 266 -366 470 -829 565 -1282 57 -271 66 -371 66 -715 0 -252 -4 -341 -18 -445 -57 -402 -167 -758 -343 -1105 -169 -335 -361 -598 -638 -876 -349 -348 -713 -589 -1161 -767 -314 -125 -696 -212 -1027 -233 -107 -7 -107 -7 -117 -36 -14 -39 -3 -42 127 -34 517 33 1068 203 1518 467 438 257 856 649 1140 1069 359 530 564 1148 593 1788 31 692 -125 1338 -465 1928 -242 421 -621 833 -1030 1120 -521 365 -1180 594 -1779 619 -71 3 -155 7 -185 8 -30 2 -127 0 -215 -4z" id="2"/>
<path d="M4080 7919 c-210 -10 -389 -34 -591 -80 l-85 -20 -43 -64 c-23 -36 -104 -129 -179 -208 -141 -146 -233 -261 -342 -427 -124 -189 -188 -345 -236 -575 -25 -115 -28 -152 -28 -325 -1 -152 3 -214 17 -280 52 -241 158 -459 349 -714 160 -214 246 -298 456 -447 225 -159 398 -369 493 -597 77 -187 73 -413 -11 -569 -15 -29 -26 -53 -24 -53 17 0 88 45 114 72 45 48 117 201 140 298 11 47 23 132 26 190 8 133 -9 213 -73 359 l-48 109 -120 4 c-107 3 -126 6 -177 31 -73 36 -130 100 -193 218 -81 150 -121 207 -160 226 -62 29 -41 41 80 45 l70 3 -40 25 c-97 59 -192 160 -253 270 -27 48 -77 171 -137 335 -10 27 -38 71 -62 97 l-45 47 29 14 c98 50 325 11 525 -89 37 -19 69 -34 72 -34 2 0 -23 53 -55 118 -162 324 -154 638 22 903 110 164 262 278 457 345 54 18 210 56 347 83 366 73 486 116 672 240 102 68 161 128 196 198 25 49 42 103 32 103 -2 0 -42 11 -87 24 -223 64 -504 112 -718 121 -69 3 -150 7 -180 8 -30 2 -125 0 -210 -4z" id="3"/>
<path d="M3175 7751 c-634 -216 -1171 -594 -1588 -1116 -44 -55 -86 -114 -93 -130 -20 -49 -44 -234 -44 -343 0 -266 74 -576 193 -807 42 -81 68 -116 137 -186 110 -111 176 -145 381 -197 180 -46 265 -85 370 -171 200 -161 312 -389 327 -669 l7 -123 57 103 c113 205 176 402 187 587 7 102 10 116 30 132 13 11 29 19 36 19 8 0 44 -30 82 -67 117 -115 165 -236 166 -418 1 -171 -39 -291 -125 -382 -52 -53 -58 -64 -49 -82 18 -33 13 -60 -24 -119 -47 -77 -75 -164 -75 -231 0 -79 2 -81 90 -71 41 5 109 9 150 10 41 0 147 9 235 21 183 23 188 26 235 124 38 81 54 161 53 275 0 158 -47 288 -169 472 -91 137 -207 255 -344 352 -237 167 -351 280 -521 518 -227 318 -325 568 -345 878 -16 254 53 596 167 822 85 169 261 416 411 575 118 125 234 274 212 272 -5 0 -72 -22 -149 -48z" id="4"/>
<path d="M5310 7738 c0 -32 -64 -144 -111 -193 -52 -56 -175 -143 -266 -188 -142 -73 -289 -116 -543 -162 -443 -80 -637 -182 -793 -418 -138 -208 -166 -470 -77 -737 31 -94 106 -242 138 -272 27 -27 170 -103 178 -96 2 3 -7 48 -21 101 -39 155 -41 241 -10 472 19 140 25 219 21 265 -7 71 -45 162 -98 236 -27 38 -30 47 -18 54 34 22 186 -13 293 -67 55 -27 72 -32 78 -21 7 11 34 79 54 136 11 30 49 7 141 -85 53 -54 150 -164 216 -245 66 -81 124 -145 129 -142 5 3 9 13 9 23 0 31 28 89 128 263 96 168 135 222 155 215 13 -4 18 -14 57 -101 l31 -70 26 27 c20 20 27 38 30 73 1 26 14 72 29 103 38 77 161 199 239 236 162 77 393 25 692 -156 193 -116 222 -125 284 -93 61 31 87 148 52 236 -36 92 -57 112 -228 227 -185 123 -474 273 -670 346 -127 48 -145 52 -145 33z" id="5"/>
<path d="M6370 7178 c0 -3 7 -26 16 -52 12 -33 15 -66 11 -107 -9 -97 -56 -155 -134 -166 -56 -7 -95 8 -220 84 -295 179 -500 242 -648 198 -115 -33 -232 -135 -286 -250 -27 -57 -37 -105 -22 -105 18 0 142 82 172 114 19 20 39 36 44 36 5 0 27 -20 48 -44 21 -24 66 -60 100 -80 l62 -37 61 27 c71 33 165 39 191 13 14 -14 13 -20 -5 -63 -29 -65 -29 -169 -1 -261 12 -38 25 -96 28 -128 3 -32 10 -60 15 -63 16 -10 36 16 47 63 20 78 95 133 181 133 62 0 159 -37 355 -135 225 -113 311 -142 387 -131 135 20 186 147 138 341 -26 108 -40 130 -163 264 -116 126 -377 367 -377 349z" id="6"/>
<path d="M5255 6844 c-22 -20 -68 -52 -103 -71 -69 -39 -122 -79 -122 -94 0 -5 13 -28 30 -50 l29 -41 15 36 c20 49 26 45 14 -9 -8 -36 -6 -54 6 -83 8 -20 15 -30 15 -21 2 31 32 115 50 139 20 25 20 24 0 -35 -11 -33 -18 -77 -17 -98 l3 -38 77 78 c42 43 84 86 93 96 20 21 35 14 35 -17 0 -27 31 -119 56 -167 l17 -34 17 55 c9 31 34 86 54 123 21 37 36 73 33 80 -3 7 -47 38 -98 69 -52 31 -107 70 -123 87 -17 17 -32 31 -35 31 -3 -1 -24 -17 -46 -36z" id="7"/>
<path d="M4883 6804 c-23 -32 -90 -152 -164 -290 -27 -50 -53 -113 -58 -140 -8 -42 -7 -54 12 -83 l21 -35 13 69 c7 38 20 87 29 110 20 51 75 148 80 142 3 -3 -9 -40 -27 -83 -66 -165 -75 -251 -35 -317 l24 -39 4 84 c3 50 11 97 21 118 12 24 15 27 11 10 -16 -68 -16 -189 1 -263 9 -42 21 -79 25 -82 4 -3 15 19 25 47 37 113 111 234 198 325 l60 63 -19 42 c-10 24 -48 85 -83 138 -35 52 -76 121 -91 154 l-27 59 -20 -29z" id="8"/>
<path d="M4132 6762 c-13 -31 -24 -62 -25 -68 -1 -6 34 -35 78 -65 101 -68 287 -252 353 -349 28 -41 79 -100 114 -131 35 -31 83 -88 108 -127 25 -39 48 -71 52 -71 11 -1 -27 92 -69 169 -72 135 -539 700 -577 700 -6 0 -21 -26 -34 -58z" id="9"/>
<path d="M5600 6773 c-46 -20 -45 -18 -22 -48 24 -31 19 -60 -25 -133 -72 -119 -72 -165 -3 -297 45 -85 50 -102 50 -158 0 -48 -6 -76 -25 -113 -29 -58 -29 -55 -10 -48 8 3 27 31 42 61 23 49 27 68 27 157 1 55 -2 139 -6 186 l-6 85 15 -45 c9 -27 17 -99 20 -181 6 -154 -7 -215 -57 -273 -29 -33 -27 -65 3 -53 52 20 82 169 73 362 -3 72 -8 157 -10 190 -5 55 -4 52 14 -30 27 -129 34 -237 21 -340 -15 -124 -28 -164 -64 -197 -21 -20 -27 -32 -20 -39 26 -26 108 67 123 138 5 21 11 106 15 188 6 146 6 153 -24 268 -39 148 -40 203 -6 315 7 21 5 22 -41 21 -27 0 -65 -7 -84 -16z" id="10"/>
<path d="M3760 6766 c0 -3 14 -27 30 -53 76 -120 86 -220 49 -494 -26 -186 -21 -309 16 -446 32 -122 110 -282 184 -379 60 -80 118 -141 125 -133 2 2 0 29 -5 59 -4 30 -8 79 -8 109 -1 33 -11 79 -26 117 -50 125 -55 172 -58 512 -3 317 -3 317 -30 395 -34 97 -78 168 -144 229 -44 41 -133 97 -133 84z" id="11"/>
<path d="M3934 6688 c73 -74 119 -157 147 -265 18 -69 21 -114 23 -388 3 -298 8 -354 38 -428 18 -45 20 -24 3 39 -21 80 -19 128 11 300 21 121 25 171 22 264 -5 107 -4 112 8 65 18 -76 16 -217 -6 -344 -21 -118 -26 -246 -11 -255 10 -7 28 84 36 184 3 41 13 113 21 160 11 58 15 116 11 180 -4 94 -4 95 9 45 18 -66 18 -165 -1 -262 -23 -119 -18 -126 26 -33 l41 85 -4 128 c-3 115 -2 124 9 91 7 -20 16 -64 21 -98 l7 -61 23 53 c13 30 28 81 34 115 6 34 12 64 14 66 2 2 15 -4 29 -13 53 -35 20 5 -102 125 -71 69 -159 146 -198 171 -77 51 -242 138 -261 138 -7 0 16 -28 50 -62z" id="12"/>
<path d="M5188 6447 c-169 -164 -225 -237 -278 -370 -16 -41 -35 -106 -42 -145 -11 -68 -11 -74 20 -174 17 -57 34 -120 38 -141 6 -37 7 -38 27 -20 32 29 54 90 76 209 58 320 92 398 235 532 70 66 89 66 97 -3 4 -28 19 -77 33 -110 34 -76 117 -205 133 -205 17 0 33 57 33 122 0 68 -14 100 -101 230 -59 87 -99 172 -99 208 0 11 -3 20 -7 20 -5 0 -79 -69 -165 -153z" id="13"/>
<path d="M6944 6569 c14 -48 18 -174 7 -215 -24 -89 -87 -147 -170 -159 -97 -13 -210 25 -431 146 -138 75 -256 119 -320 119 -75 0 -141 -43 -156 -104 -7 -29 -6 -29 27 -22 121 24 174 28 253 16 124 -18 141 -33 81 -70 -20 -12 -49 -45 -65 -74 -40 -68 -39 -79 4 -61 50 21 139 30 164 16 30 -16 28 -26 -12 -49 -60 -36 -74 -79 -82 -253 l-7 -154 149 -2 c100 -1 177 -8 234 -20 102 -23 112 -38 47 -76 -65 -39 -139 -125 -213 -249 -36 -61 -63 -112 -61 -114 2 -2 19 8 38 22 56 42 81 52 221 89 155 42 290 105 364 169 125 110 169 297 129 558 -30 198 -68 315 -141 429 -47 74 -72 98 -60 58z" id="14"/>
<path d="M1369 6328 c-68 -105 -196 -355 -253 -491 -112 -267 -191 -560 -231 -861 -20 -148 -34 -439 -24 -511 15 -110 135 -254 264 -315 148 -71 286 -84 545 -54 177 21 427 21 550 0 109 -18 217 -52 292 -93 68 -36 156 -123 195 -193 31 -53 32 -54 41 -30 6 14 25 61 43 105 31 75 33 87 33 200 0 294 -138 567 -367 724 -80 54 -167 90 -313 126 -295 74 -435 187 -563 456 -60 126 -115 304 -142 459 -26 145 -35 380 -20 479 6 40 10 76 8 78 -3 2 -29 -33 -58 -79z" id="15"/>
<path d="M5243 6268 c-102 -109 -147 -234 -183 -518 -14 -106 -44 -225 -76 -304 -14 -34 -34 -93 -44 -133 -21 -81 -47 -137 -97 -206 -19 -27 -32 -51 -30 -54 3 -2 20 2 38 10 89 37 228 246 270 403 17 62 23 127 29 309 11 286 28 355 122 493 17 24 28 45 26 48 -3 2 -27 -19 -55 -48z" id="16"/>
<path d="M5940 6306 c-61 -13 -109 -36 -130 -61 -8 -10 -18 -68 -25 -145 -14 -146 -33 -192 -106 -252 l-40 -34 22 -77 c13 -42 26 -74 31 -69 4 4 32 65 63 136 61 141 115 248 145 286 11 14 -3 -24 -31 -85 -28 -60 -73 -164 -100 -230 -27 -65 -56 -126 -64 -135 -17 -18 -21 -120 -6 -120 17 0 70 123 106 250 58 199 129 344 201 410 22 20 19 14 -13 -35 -76 -113 -107 -187 -164 -392 -41 -151 -72 -225 -108 -257 -20 -18 -29 -57 -13 -56 15 2 85 98 117 165 19 39 50 133 70 210 21 77 48 167 62 200 35 82 104 187 163 246 28 28 50 52 50 54 0 10 -178 3 -230 -9z" id="17"/>
<path d="M7134 6298 c38 -139 50 -231 50 -388 1 -147 -1 -171 -22 -225 -66 -176 -216 -285 -487 -356 -120 -31 -189 -60 -234 -96 l-24 -20 49 -13 c78 -21 224 -93 290 -143 61 -46 127 -124 157 -182 35 -69 44 -155 17 -155 -5 0 -26 11 -46 25 -42 29 -108 33 -195 13 -49 -12 -80 -28 -298 -158 l-92 -55 93 -12 c118 -16 191 -40 353 -115 245 -113 336 -134 453 -104 88 22 139 55 219 140 115 122 163 221 182 376 21 160 11 250 -54 515 -75 308 -197 611 -362 898 -46 78 -60 95 -49 55z" id="18"/>
<path d="M5268 6207 c-70 -122 -78 -165 -88 -447 -5 -135 -13 -261 -18 -280 -27 -103 -48 -161 -83 -234 -44 -90 -49 -130 -19 -146 36 -19 148 25 189 74 14 16 41 22 41 8 0 -4 -4 -22 -9 -39 -11 -36 6 -106 23 -100 6 2 25 27 43 56 27 45 52 121 78 235 12 55 16 17 6 -56 -15 -104 -36 -169 -75 -227 l-34 -50 25 -37 26 -37 18 24 c22 29 70 149 95 239 14 50 18 102 19 224 0 151 1 156 13 105 8 -35 11 -97 8 -179 -4 -144 -31 -250 -94 -378 -33 -66 -37 -81 -28 -104 5 -16 14 -28 19 -28 13 0 74 138 101 231 43 151 60 272 60 443 1 152 2 156 14 105 9 -37 11 -100 8 -204 -8 -242 -62 -456 -150 -588 -21 -31 -36 -64 -34 -74 5 -26 72 81 119 187 46 106 95 271 110 370 11 69 7 246 -7 340 -16 110 -63 213 -172 380 -74 114 -132 225 -132 255 0 36 -28 9 -72 -68z" id="19"/>
<path d="M4438 6250 c-3 -8 -9 -28 -13 -45 -3 -16 -42 -104 -85 -195 -88 -184 -113 -253 -136 -379 -18 -98 -22 -337 -5 -354 8 -8 11 2 11 35 0 50 22 188 46 288 24 101 57 201 129 394 54 144 65 187 63 224 -2 26 -6 40 -10 32z" id="20"/>
<path d="M4477 6192 c-3 -26 -37 -137 -77 -247 -98 -274 -141 -448 -155 -631 -16 -208 70 -383 230 -466 35 -18 66 -30 68 -28 3 3 8 19 11 36 6 28 4 32 -26 45 -50 20 -128 98 -154 154 -44 93 -28 258 37 387 34 67 145 222 163 226 6 1 19 -17 28 -40 10 -24 38 -68 63 -98 124 -152 175 -245 175 -316 0 -44 23 -13 49 67 21 63 23 83 18 177 -10 161 -71 368 -148 499 -34 58 -187 221 -246 261 l-31 22 -5 -48z" id="21"/>
<path d="M6085 6175 c-60 -83 -111 -190 -135 -285 -67 -261 -109 -355 -197 -451 l-53 -57 0 -75 c0 -117 36 -127 128 -37 96 94 160 272 227 630 26 135 55 264 65 288 10 23 16 42 12 42 -4 0 -25 -25 -47 -55z" id="22"/>
<path d="M6217 6125 c-84 -23 -92 -33 -106 -126 -24 -163 -70 -376 -99 -462 -16 -48 -26 -87 -21 -87 23 0 117 51 141 76 50 53 60 95 72 304 11 166 16 201 34 237 12 23 26 44 32 48 12 7 14 25 3 24 -5 0 -30 -7 -56 -14z" id="23"/>
<path d="M3150 5886 c0 -2 20 -16 44 -30 57 -33 89 -71 198 -234 100 -150 160 -214 268 -286 84 -56 158 -88 260 -110 99 -21 200 -34 200 -26 0 4 -44 20 -97 35 -158 46 -260 94 -383 178 -67 46 -161 146 -193 205 -33 61 -30 68 5 14 69 -104 221 -224 374 -297 56 -27 258 -95 281 -95 2 0 -5 13 -16 28 -26 37 -113 83 -242 128 -125 43 -188 74 -255 124 -50 38 -114 116 -127 155 -5 12 1 9 15 -10 36 -51 122 -128 180 -163 50 -30 327 -136 335 -128 2 1 -10 21 -27 44 -28 40 -86 75 -180 112 -42 17 -102 51 -98 56 2 2 53 -17 113 -41 61 -23 111 -42 113 -40 11 11 -24 45 -55 56 -42 13 -133 57 -133 64 0 2 32 -8 70 -22 39 -14 73 -24 75 -21 12 11 -8 37 -38 49 -18 7 -111 51 -207 97 -96 46 -204 95 -239 109 -88 33 -241 64 -241 49z" id="24"/>
<path d="M3068 5843 c18 -21 52 -93 77 -158 90 -238 154 -346 262 -445 65 -60 149 -102 298 -150 278 -89 405 -134 516 -185 67 -30 124 -55 126 -55 2 0 -17 28 -43 61 -26 34 -58 87 -70 118 l-23 56 -53 7 c-147 19 -388 122 -542 232 -99 71 -151 128 -251 281 -130 198 -188 252 -290 271 l-38 7 31 -40z" id="25"/>
<path d="M6244 5662 c-7 -4 -17 -27 -24 -52 -25 -94 -83 -151 -194 -188 -55 -18 -60 -23 -94 -83 -24 -44 -73 -101 -152 -179 -173 -170 -254 -299 -132 -210 25 17 56 56 79 95 50 87 64 83 17 -5 -38 -73 -88 -122 -144 -141 -20 -8 -38 -25 -51 -50 l-19 -39 29 0 c82 0 126 42 201 190 32 63 68 124 80 135 22 20 22 19 -2 -30 -14 -27 -40 -86 -58 -129 -56 -133 -152 -210 -240 -191 -19 4 -29 2 -33 -9 -13 -34 62 -35 131 0 76 38 121 96 181 232 50 114 112 211 139 220 8 2 -1 -16 -20 -40 -18 -24 -44 -68 -57 -98 -112 -253 -145 -299 -244 -346 -57 -26 -82 -29 -123 -14 -19 7 -30 7 -40 -1 -23 -19 -16 -28 28 -40 85 -23 179 15 246 99 39 50 52 74 130 242 78 167 197 312 311 376 60 34 111 55 111 46 0 -4 -32 -29 -71 -57 -83 -59 -188 -166 -243 -248 -21 -32 -58 -102 -83 -155 -77 -169 -87 -184 -157 -259 -38 -40 -62 -73 -55 -73 34 0 130 33 199 66 57 29 95 59 170 133 110 110 168 190 305 421 118 198 156 251 225 313 34 31 47 49 39 52 -62 21 -358 35 -385 17z" id="26"/>
<path d="M4518 5548 c-69 -96 -95 -146 -117 -228 -23 -83 -27 -170 -9 -221 18 -53 68 -117 117 -149 65 -44 70 -37 13 18 -75 71 -97 120 -97 217 0 62 6 92 24 132 36 81 53 85 25 6 -46 -131 -26 -234 64 -321 40 -40 57 -50 67 -42 9 8 5 18 -20 45 -71 75 -105 206 -73 284 13 33 14 32 10 -36 -4 -60 0 -80 21 -125 33 -70 95 -142 111 -129 10 8 4 27 -22 81 -25 49 -36 88 -39 128 l-3 57 19 -57 c15 -46 71 -159 87 -177 10 -10 65 56 80 95 21 56 15 144 -14 204 -12 25 -49 79 -83 120 -34 41 -71 94 -82 118 -12 23 -24 42 -27 42 -3 0 -27 -28 -52 -62z" id="27"/>
<path d="M6330 5145 c-17 -24 -30 -45 -30 -47 0 -2 33 -2 74 0 51 3 90 -1 123 -12 51 -17 168 -85 160 -93 -3 -2 -32 9 -64 25 -121 62 -221 75 -296 41 -32 -14 -111 -117 -81 -104 50 21 125 35 184 34 l65 -1 -60 -9 c-74 -11 -158 -35 -205 -59 -38 -20 -174 -140 -166 -147 3 -3 45 18 94 46 85 49 171 86 179 77 2 -2 -11 -9 -29 -15 -18 -6 -75 -37 -126 -67 -52 -31 -140 -78 -195 -106 -92 -44 -98 -48 -57 -42 60 9 190 50 270 85 91 40 44 6 -65 -47 -89 -44 -200 -73 -288 -75 -39 -1 -37 -2 18 -11 161 -25 316 21 590 177 92 52 217 95 277 95 50 0 110 -27 168 -77 39 -34 42 -35 35 -12 -24 77 -91 166 -170 226 -77 58 -222 127 -308 146 l-67 15 -30 -43z" id="28"/>
<path d="M5187 5083 c-36 -19 -130 -38 -286 -58 -231 -29 -309 -87 -299 -220 7 -77 34 -131 94 -184 55 -48 74 -53 45 -12 -12 16 -26 52 -33 79 -9 43 -9 58 6 97 34 87 113 140 262 175 113 27 174 54 214 96 39 39 37 49 -3 27z" id="29"/>
<path d="M3426 5069 c4 -8 20 -30 35 -49 15 -19 52 -82 83 -139 74 -138 112 -183 188 -220 55 -28 71 -31 152 -31 50 0 172 7 271 16 169 15 328 14 400 -2 l30 -7 -25 28 c-43 46 -55 49 -250 50 -166 2 -195 4 -285 28 -149 40 -262 99 -385 201 -101 84 -148 115 -199 131 -18 6 -22 4 -15 -6z" id="30"/>
<path d="M3520 5075 c0 -2 12 -11 28 -19 15 -8 68 -49 117 -91 103 -88 226 -153 349 -184 106 -28 136 -26 59 4 -128 49 -139 69 -17 30 43 -14 117 -32 163 -40 98 -18 94 -17 87 -6 -3 4 -98 39 -211 76 -113 37 -204 70 -201 72 7 8 257 -58 356 -93 52 -19 100 -34 105 -33 15 0 -139 77 -240 119 -218 91 -595 195 -595 165z" id="31"/>
<path d="M5212 5040 c-31 -40 -127 -84 -246 -115 -109 -28 -150 -49 -195 -100 -58 -66 -50 -156 21 -229 22 -23 36 -32 32 -21 -5 11 -9 50 -9 87 0 58 4 72 30 110 65 92 232 137 338 90 93 -41 100 -112 19 -193 -79 -79 -174 -89 -239 -24 -49 49 -42 100 19 131 58 30 158 1 158 -46 0 -18 -35 -53 -63 -63 -39 -14 -93 31 -67 57 7 7 10 5 10 -7 0 -24 34 -39 63 -28 66 25 26 87 -51 78 -78 -9 -107 -65 -57 -111 57 -52 145 -40 213 30 68 72 54 138 -35 163 -150 42 -324 -61 -323 -191 1 -58 34 -117 80 -137 92 -41 303 13 398 103 94 88 96 190 7 316 -18 25 -42 64 -54 88 -12 23 -22 42 -24 41 -1 0 -12 -13 -25 -29z" id="32"/>
<path d="M6626 4844 c-63 -15 -98 -32 -306 -141 -212 -113 -339 -139 -521 -108 -90 15 -222 21 -361 16 -47 -1 -50 -16 -5 -25 17 -3 86 -32 152 -64 l120 -57 110 -3 c61 -2 136 1 168 7 107 20 297 103 456 200 163 100 200 116 306 135 l70 13 -45 21 c-52 25 -64 25 -144 6z" id="33"/>
<path d="M3159 4808 c-1 -2 -2 -50 -4 -108 -5 -222 -80 -427 -279 -759 -48 -80 -93 -167 -101 -193 -19 -64 -12 -239 13 -304 25 -69 36 -72 123 -37 41 17 100 37 132 44 l57 12 0 43 c0 58 53 216 95 286 58 93 43 128 -36 84 -78 -45 -149 -27 -149 37 0 54 105 86 170 52 l34 -18 29 34 c103 122 127 191 134 380 6 160 -5 212 -66 306 -44 68 -116 143 -137 143 -8 0 -14 -1 -15 -2z" id="34"/>
<path d="M7620 4709 c-37 -137 -177 -320 -300 -392 -55 -32 -148 -57 -211 -57 -79 0 -192 36 -356 114 -240 113 -264 120 -418 121 -115 0 -139 -3 -212 -27 -116 -39 -199 -51 -317 -46 l-103 3 62 -90 c35 -49 79 -124 100 -165 69 -139 193 -297 294 -374 107 -82 167 -106 489 -190 245 -65 381 -133 498 -250 78 -79 125 -161 145 -253 l11 -57 21 39 c73 143 170 416 222 625 68 279 95 507 96 808 0 123 -2 226 -4 229 -3 3 -11 -14 -17 -38z" id="35"/>
<path d="M4166 4609 c-55 -5 -102 -11 -104 -14 -2 -2 16 -53 41 -112 69 -166 85 -264 67 -408 -17 -133 -37 -204 -90 -313 -27 -53 -47 -98 -46 -100 2 -1 52 32 112 74 161 114 223 141 251 113 8 -8 14 -1 22 27 21 75 61 300 80 453 l20 154 -22 46 c-18 38 -30 49 -68 63 -63 23 -145 28 -263 17z" id="36"/>
<path d="M4547 4594 c-10 -10 -9 -54 1 -54 20 0 73 33 65 40 -12 13 -58 22 -66 14z" id="37"/>
<path d="M5340 4559 c137 -43 205 -85 250 -156 38 -60 39 -88 1 -37 -53 72 -129 126 -211 149 -21 5 -17 0 20 -34 25 -22 48 -40 51 -41 4 0 30 -34 59 -76 63 -91 114 -211 140 -332 20 -91 37 -241 27 -232 -3 3 -19 70 -36 150 -44 211 -75 293 -151 395 -66 88 -178 175 -224 175 -14 0 -4 -10 30 -30 28 -16 71 -50 94 -77 76 -85 179 -328 230 -543 34 -145 22 -123 -49 92 -78 233 -132 345 -204 425 -44 48 -122 101 -133 91 -2 -3 16 -18 41 -36 48 -34 93 -91 130 -162 29 -57 65 -201 64 -254 0 -34 -5 -24 -30 64 -56 195 -133 311 -247 369 -74 38 -78 25 -14 -44 68 -72 129 -185 137 -255 5 -39 4 -42 -6 -20 -61 133 -85 174 -140 234 -66 72 -85 81 -44 20 33 -49 51 -115 65 -239 29 -252 107 -371 346 -533 34 -22 86 -67 115 -100 30 -32 71 -71 91 -86 49 -36 78 -98 78 -164 0 -29 4 -52 9 -52 10 0 63 133 86 215 26 97 31 274 11 395 -44 258 -198 545 -350 649 -61 42 -155 79 -217 85 -50 5 -51 5 -19 -5z" id="38"/>
<path d="M4645 4538 c-31 -18 -44 -40 -45 -74 0 -36 38 -195 49 -207 4 -4 20 10 34 32 15 22 63 70 107 107 44 36 80 70 80 75 0 17 -21 9 -66 -23 -24 -17 -46 -29 -49 -27 -2 3 9 22 26 42 19 23 25 37 17 37 -8 0 -18 -4 -23 -9 -6 -6 -28 -17 -50 -26 l-40 -16 33 31 c38 35 37 45 -2 30 -41 -15 -54 -11 -29 9 34 29 1 44 -42 19z" id="39"/>
<path d="M4556 4498 c-3 -7 -7 -35 -10 -63 -45 -366 -72 -512 -126 -671 -17 -48 -29 -89 -27 -90 2 -2 15 7 30 19 22 17 41 59 88 192 33 94 67 212 76 262 16 87 15 99 -1 203 -10 61 -15 122 -12 136 6 24 -11 35 -18 12z" id="40"/>
<path d="M4930 4468 c0 -2 9 -26 19 -54 11 -28 38 -131 61 -230 70 -299 80 -331 122 -395 74 -110 132 -149 351 -233 62 -24 121 -47 132 -52 41 -16 -7 27 -122 108 -142 102 -212 171 -256 257 -46 86 -65 155 -78 271 -19 174 -57 265 -132 310 -25 16 -97 29 -97 18z" id="41"/>
<path d="M4814 4341 c-42 -26 -129 -117 -148 -156 -8 -16 -27 -73 -41 -125 -14 -52 -47 -138 -72 -192 -25 -54 -44 -100 -42 -103 3 -2 41 10 85 27 57 23 101 32 159 36 114 6 117 0 76 -124 -86 -264 -79 -469 26 -679 81 -163 214 -300 503 -520 292 -222 421 -364 494 -544 29 -71 30 -84 31 -206 0 -97 -4 -141 -17 -173 -20 -53 -22 -53 107 23 l93 54 -8 37 c-10 42 0 154 40 469 59 467 61 666 5 939 -22 113 -89 327 -120 385 l-13 25 -6 -35 c-22 -109 -105 -309 -140 -338 -9 -7 -23 -11 -31 -7 -12 4 -15 24 -15 92 0 164 -20 180 -382 318 -118 45 -200 97 -256 162 -81 94 -101 150 -187 547 -14 67 -20 79 -45 92 -38 20 -59 19 -96 -4z" id="42"/>
<path d="M865 4265 c30 -339 115 -718 202 -903 89 -189 386 -477 558 -541 60 -23 182 -29 215 -11 17 9 17 13 -6 86 -14 43 -32 120 -41 173 -17 100 -16 111 18 356 12 90 6 242 -17 408 -14 98 -14 111 1 133 19 29 34 30 84 5 91 -47 188 -193 236 -356 34 -114 45 -306 24 -411 -7 -38 -14 -72 -14 -76 0 -4 26 -23 59 -43 l58 -35 60 55 c64 59 148 120 213 153 46 23 155 47 183 40 10 -3 30 5 45 17 l28 21 -16 60 c-8 32 -19 115 -24 184 -7 107 -13 134 -38 190 -83 179 -238 266 -528 296 -163 17 -294 14 -520 -11 -178 -20 -274 -19 -375 5 -162 39 -290 119 -384 240 l-27 35 6 -70z" id="43"/>
<path d="M1817 3945 c-4 -8 1 -65 9 -127 21 -155 21 -377 0 -514 -14 -90 -15 -126 -7 -194 39 -305 175 -515 471 -725 69 -49 148 -113 177 -143 69 -72 130 -194 188 -377 53 -167 93 -255 168 -363 137 -199 393 -356 712 -438 l130 -34 -100 4 c-136 5 -312 51 -429 111 -61 31 -93 42 -100 35 -20 -20 -19 -124 1 -172 26 -58 77 -114 124 -139 166 -84 548 -72 784 26 103 43 189 93 243 143 40 37 42 41 32 68 -6 16 -26 44 -43 63 l-32 34 50 -28 c28 -15 65 -39 84 -53 l34 -26 33 40 c43 51 153 248 192 344 105 259 162 566 148 795 -9 157 -65 483 -115 670 -41 150 -24 340 43 507 29 72 95 183 158 266 26 35 48 68 48 74 0 17 -105 1 -172 -26 -138 -56 -263 -157 -306 -246 -36 -76 -72 -218 -72 -284 0 -66 33 -215 74 -335 15 -41 26 -77 26 -79 0 -14 -45 38 -62 72 l-20 40 -19 -25 c-32 -39 -129 -242 -136 -281 -4 -29 0 -43 20 -70 14 -18 43 -69 63 -113 33 -68 38 -89 39 -150 0 -53 -5 -78 -21 -105 -28 -49 -57 -50 -99 -6 -55 59 -69 117 -63 273 l5 133 -54 50 c-92 84 -81 88 -169 -63 -43 -72 -105 -183 -137 -245 l-59 -113 49 -52 c121 -128 195 -262 239 -432 34 -132 44 -353 20 -464 -17 -80 -60 -181 -95 -221 -19 -23 -19 -21 4 32 93 208 82 578 -24 813 -51 111 -189 293 -213 279 -14 -9 -124 -234 -169 -345 -58 -147 -67 -194 -106 -544 l-7 -60 -12 60 c-41 193 -55 401 -33 507 20 101 62 211 135 357 l73 146 -37 33 -37 33 43 -23 c40 -21 44 -21 53 -6 5 9 67 112 138 230 147 243 145 221 21 253 -60 16 -70 16 -153 -1 -111 -21 -196 -15 -272 20 l-57 26 -29 -24 c-15 -13 -49 -32 -74 -41 -25 -10 -45 -21 -45 -24 0 -3 13 -12 30 -19 75 -33 169 -146 185 -219 4 -18 10 -33 15 -33 20 0 128 120 157 175 25 46 33 54 33 36 1 -77 -122 -209 -284 -305 -116 -69 -165 -115 -205 -193 -19 -37 -30 -50 -31 -37 0 35 49 120 93 161 23 22 79 61 125 88 45 28 82 53 82 58 0 5 -12 33 -26 63 -28 60 -70 94 -175 144 -57 27 -92 35 -262 59 -67 10 -117 32 -117 51 0 5 19 3 41 -5 53 -19 193 -19 280 -1 64 14 162 56 173 75 3 5 -14 28 -38 52 -63 64 -86 159 -47 198 20 20 52 19 80 -3 28 -22 51 -90 51 -153 0 -54 3 -65 23 -77 33 -22 125 -46 173 -46 92 0 259 49 365 106 131 72 302 317 258 370 -22 27 -93 12 -259 -54 -237 -93 -297 -107 -470 -105 -80 0 -174 6 -210 12 -102 17 -356 14 -421 -5 -199 -59 -283 -185 -234 -351 18 -62 54 -94 127 -118 161 -53 245 -136 282 -280 19 -70 20 -130 5 -191 -17 -66 -29 -53 -29 29 0 205 -93 338 -287 411 -39 15 -95 44 -125 64 l-53 38 3 -91 c3 -108 -8 -97 -32 30 -39 207 -97 313 -197 365 l-37 19 -27 -40 c-29 -45 -75 -69 -130 -69 -52 0 -75 15 -75 50 0 50 59 89 150 99 l55 6 14 50 c8 29 14 100 14 170 0 194 -41 341 -134 480 -65 97 -146 152 -162 110z" id="44"/>
<path d="M5943 3946 c17 -44 37 -196 37 -276 0 -80 3 -94 39 -172 116 -250 171 -507 171 -798 0 -164 -13 -315 -54 -632 -31 -236 -41 -352 -31 -367 13 -22 264 167 448 336 253 233 509 557 662 837 53 99 57 126 30 231 -32 121 -107 222 -225 300 -118 79 -232 122 -484 186 -269 68 -349 111 -503 273 -53 55 -93 93 -90 82z" id="45"/>
<path d="M3064 3940 c-33 -13 -37 -38 -9 -56 22 -14 27 -14 68 4 51 22 66 40 46 53 -18 11 -77 10 -105 -1z" id="46"/>
<path d="M4273 3785 c-181 -141 -327 -234 -422 -269 -74 -28 -256 -51 -481 -60 -336 -15 -495 -66 -644 -209 l-51 -48 33 5 c100 17 230 17 407 1 305 -28 398 -14 682 100 90 37 160 59 203 63 53 6 76 15 125 49 81 57 106 79 155 142 61 80 91 146 98 213 5 57 4 58 -21 58 -15 0 -49 -19 -84 -45z" id="47"/>
<path d="M4698 3484 l-43 -88 1 -140 c3 -243 50 -376 239 -673 188 -292 275 -484 309 -676 52 -294 10 -482 -144 -633 -27 -26 -48 -49 -47 -51 5 -5 220 55 317 87 133 45 228 83 350 141 95 46 107 54 124 92 89 189 47 409 -117 612 -74 91 -179 184 -387 340 -188 142 -369 321 -438 434 -104 171 -147 355 -124 538 7 53 10 98 8 100 -2 3 -24 -35 -48 -83z" id="48"/>
<path d="M4133 3386 c-43 -25 -51 -35 -46 -51 9 -26 8 -44 -1 -80 -5 -19 -4 -26 2 -20 16 16 105 175 101 179 -2 1 -27 -11 -56 -28z" id="49"/>
<path d="M4171 3292 c-24 -42 -101 -169 -171 -282 -489 -787 -606 -1009 -655 -1241 -15 -71 -18 -170 -6 -223 5 -24 9 -13 19 53 21 134 57 231 174 476 131 273 190 384 277 525 35 58 69 114 75 125 28 50 137 231 204 339 94 150 134 236 130 275 -3 29 -6 25 -47 -47z" id="50"/>
<path d="M2591 3254 c-76 -20 -162 -76 -301 -193 l-34 -29 25 -38 c14 -22 42 -74 62 -116 23 -47 49 -85 67 -98 34 -24 35 -21 15 35 -28 79 -14 177 37 245 13 18 50 50 83 72 33 22 77 62 97 89 42 55 39 57 -51 33z" id="51"/>
<path d="M4596 3192 c-12 -76 -5 -152 28 -298 131 -572 152 -817 92 -1095 -43 -201 -95 -333 -181 -454 -34 -48 -93 -151 -114 -199 -9 -20 442 35 492 60 16 9 64 50 107 92 118 117 160 223 160 401 0 256 -89 497 -313 848 -103 161 -174 295 -200 378 -25 77 -47 191 -47 245 0 59 -15 74 -24 22z" id="52"/>
<path d="M1140 3171 c0 -7 39 -90 87 -184 141 -276 321 -534 534 -764 91 -98 241 -243 252 -243 3 0 3 24 0 53 -7 65 17 153 52 195 31 37 89 61 168 69 34 3 68 9 75 13 9 4 -24 34 -97 88 -60 45 -138 113 -173 152 -56 62 -151 195 -161 223 -2 7 -14 6 -37 -1 -85 -30 -230 -2 -330 64 -115 76 -246 195 -338 309 -18 22 -32 34 -32 26z" id="53"/>
<path d="M4124 3008 c-131 -198 -166 -256 -162 -267 4 -11 129 -114 132 -109 1 1 13 31 25 64 12 34 45 99 72 145 64 109 74 146 59 222 -21 109 -16 112 -126 -55z" id="54"/>
<path d="M3120 3070 c0 -59 45 -140 77 -140 30 0 6 118 -32 156 -34 34 -45 30 -45 -16z" id="55"/>
<path d="M1970 3089 c-51 -21 -77 -63 -46 -75 39 -15 136 37 136 73 0 15 -53 17 -90 2z" id="56"/>
<path d="M3891 2975 c-34 -29 -94 -68 -132 -86 -38 -18 -66 -35 -63 -38 5 -5 114 -41 126 -41 7 0 140 211 136 216 -2 1 -32 -21 -67 -51z" id="57"/>
<path d="M4105 2486 c-13 -100 6 -185 53 -238 24 -28 40 -21 47 21 10 63 -28 189 -78 256 -14 18 -16 15 -22 -39z" id="58"/>
<path d="M2245 2266 c-108 -17 -119 -22 -154 -61 -60 -68 -62 -216 -4 -285 31 -38 175 -146 323 -243 117 -76 347 -203 356 -195 2 3 -16 40 -41 84 -54 93 -73 143 -120 307 -47 163 -111 292 -177 357 -56 56 -56 55 -183 36z" id="59"/>
<path d="M2761 1343 c-91 -103 -139 -230 -128 -339 7 -71 61 -191 105 -237 94 -97 260 -179 442 -218 89 -20 135 -23 305 -23 169 0 216 4 302 22 110 24 251 71 324 107 73 37 152 108 182 163 30 55 37 144 14 175 -11 16 -19 14 -92 -28 -220 -125 -465 -188 -735 -188 -215 0 -334 35 -439 129 -90 81 -121 179 -98 314 7 44 6 47 -39 95 l-45 50 -44 -48 c-66 -71 -99 -147 -103 -234 -7 -135 46 -240 175 -348 40 -32 71 -61 69 -63 -10 -9 -115 55 -161 99 -87 82 -131 197 -123 322 6 90 40 166 109 241 27 30 49 57 49 60 0 18 -24 0 -69 -51z" id="60"/>
</g>
</svg>