<?xml version="1.0" ?><!DOCTYPE svg  PUBLIC '-//W3C//DTD SVG 20010904//EN'  'http://www.w3.org/TR/2001/REC-SVG-20010904/DTD/svg10.dtd'><svg height="850.000000pt" preserveAspectRatio="xMidYMid meet" version="1.0" viewBox="0 0 850.000000 850.000000" width="850.000000pt" xmlns="http://www.w3.org/2000/svg">
<metadata>
Created by potrace 1.14, written by Peter Selinger 2001-2017
</metadata>
<g fill="#ffffff" stroke="none" transform="translate(0.000000,850.000000) scale(0.100000,-0.100000)">
<path d="M0 4250 l0 -4250 4250 0 4250 0 0 4250 0 4250 -2167 0 -2167 0 88 -82 c226 -209 567 -636 570 -713 2 -49 -33 -40 -69 18 -127 204 -270 387 -495 631 l-135 145 -2062 1 -2063 0 0 -4250z m1741 3588 c8 -7 28 -30 43 -52 27 -36 31 -38 71 -33 48 7 111 -7 138 -31 24 -21 21 -48 -9 -109 l-27 -52 32 -47 c37 -56 37 -58 10 -85 -22 -22 -40 -22 -120 -3 -23 5 -29 0 -53 -39 -68 -117 -157 -112 -174 9 l-7 49 -49 6 c-48 5 -76 26 -76 57 0 27 41 82 86 114 l44 31 0 71 c0 62 3 75 25 99 28 30 44 33 66 15z m3470 -247 c22 -18 23 -21 11 -53 -37 -90 -37 -96 -11 -126 52 -57 66 -137 27 -161 -12 -7 -48 -16 -81 -19 l-59 -5 -21 -49 c-35 -85 -90 -74 -122 23 l-17 49 -56 0 c-80 0 -126 24 -130 69 -3 28 3 39 43 78 l46 44 -20 35 c-26 44 -26 66 -1 89 24 22 106 17 162 -9 36 -17 37 -17 78 9 79 50 114 56 151 26z m1106 -648 c242 -146 448 -282 684 -454 342 -249 670 -540 656 -583 -11 -33 -45 -11 -180 121 -223 216 -404 361 -711 568 -333 225 -548 383 -521 385 6 0 38 -17 72 -37z m-2331 -19 c9 -20 14 -55 12 -77 -3 -39 -1 -42 37 -63 55 -31 65 -41 65 -68 0 -31 -19 -45 -77 -60 l-48 -12 -6 -55 c-8 -68 -22 -103 -49 -122 -31 -22 -66 -9 -111 41 l-40 46 -28 -17 c-96 -56 -140 31 -80 156 l21 44 -31 59 c-32 61 -38 93 -21 123 16 31 40 32 97 6 l54 -26 46 30 c36 24 58 31 95 31 47 0 50 -2 64 -36z m2969 -137 c222 -161 482 -403 657 -612 112 -134 129 -165 108 -190 -18 -22 -30 -11 -114 101 -139 187 -275 328 -576 598 -85 76 -166 150 -180 164 l-25 25 30 -18 c17 -10 62 -41 100 -68z m-2300 51 c4 -13 11 -147 15 -298 6 -232 12 -305 38 -470 17 -107 40 -262 52 -345 32 -226 148 -756 167 -762 6 -2 43 34 81 80 65 77 71 88 77 143 9 87 32 142 65 159 41 21 126 19 204 -6 l67 -20 42 36 c61 53 226 131 342 161 89 24 119 27 280 28 99 1 200 -2 225 -6 l46 -7 103 207 c155 310 247 442 310 442 82 0 84 -121 11 -556 -22 -131 -39 -238 -37 -239 123 -69 208 -160 237 -251 33 -107 23 -184 -33 -258 l-26 -33 26 -24 c14 -13 96 -107 183 -209 184 -216 220 -252 338 -340 109 -81 135 -126 140 -243 7 -146 -67 -299 -207 -429 -103 -96 -142 -112 -286 -118 -66 -3 -133 -11 -148 -18 -16 -7 -61 -12 -101 -12 -125 0 -269 -50 -338 -118 -21 -20 -38 -40 -38 -45 0 -4 -10 -29 -21 -55 -18 -38 -23 -77 -30 -197 -6 -112 -5 -153 4 -161 7 -6 41 -23 77 -39 221 -96 445 -214 608 -319 80 -52 100 -77 77 -96 -13 -11 -25 -7 -68 21 -181 115 -336 203 -505 286 -106 53 -194 94 -195 92 -2 -2 -16 -91 -32 -196 -33 -224 -30 -271 31 -453 67 -201 325 -686 456 -859 50 -67 64 -100 54 -126 -17 -45 -155 -83 -235 -64 -63 14 -115 54 -231 176 l-102 108 6 -84 c10 -126 50 -327 101 -506 54 -187 57 -248 13 -292 -36 -35 -109 -42 -190 -17 -93 28 -158 93 -244 246 -118 210 -285 452 -393 570 -136 149 -327 248 -579 299 -93 19 -125 21 -251 15 -442 -20 -824 -140 -1153 -362 -150 -101 -357 -266 -802 -636 -111 -93 -194 -114 -320 -82 -112 29 -128 53 -76 118 38 49 204 335 197 342 -3 3 -36 -10 -73 -29 -187 -94 -422 -143 -483 -101 -31 22 -24 50 40 164 57 101 80 123 177 176 187 102 331 214 538 419 181 179 197 201 224 315 21 91 135 384 220 568 43 92 43 94 26 120 -19 30 -52 98 -60 125 -4 14 -17 17 -70 17 -90 0 -160 -24 -417 -146 -363 -171 -497 -208 -667 -186 -146 20 -314 87 -417 169 -37 29 -70 44 -125 57 -100 24 -213 68 -283 110 -86 52 -230 179 -252 222 -11 21 -50 68 -86 104 -73 72 -100 128 -118 242 -15 92 -21 318 -9 318 5 0 33 -23 61 -50 28 -28 67 -55 87 -61 66 -20 276 -23 380 -5 95 17 350 82 614 158 275 78 437 99 604 79 296 -37 487 -180 666 -504 25 -44 52 -77 79 -96 23 -16 63 -51 88 -78 41 -44 53 -51 97 -56 28 -3 70 -15 93 -26 l42 -21 62 50 c34 27 81 60 103 73 l41 23 -99 90 c-99 89 -399 403 -433 453 -22 33 -38 88 -30 107 6 15 63 34 108 34 24 0 9 11 -80 58 -141 74 -228 136 -338 242 -182 174 -279 351 -237 431 13 23 42 24 125 4 113 -27 116 -24 43 53 -132 140 -234 327 -285 519 -45 173 -44 505 2 567 13 18 15 18 60 -4 30 -15 65 -46 105 -96 34 -40 80 -88 103 -107 84 -68 187 -137 187 -124 0 6 -7 37 -15 67 -44 165 -69 488 -54 707 12 183 37 311 90 466 58 171 71 193 102 181 21 -8 34 -43 57 -145 11 -50 44 -148 74 -217 29 -70 106 -256 170 -415 64 -158 156 -383 205 -500 187 -443 189 -447 236 -447 21 0 22 2 12 58 -15 84 -15 463 1 547 18 97 61 225 76 225 15 0 46 -33 75 -82 12 -21 52 -65 89 -98 73 -66 80 -65 81 15 1 66 30 271 58 405 60 301 186 636 255 685 30 20 34 19 43 -7z m-3963 -529 c259 -156 530 -373 792 -633 190 -189 260 -291 211 -309 -19 -8 -40 12 -117 113 -76 99 -257 286 -378 392 -105 90 -304 247 -512 402 -87 65 -158 119 -158 122 0 7 54 -22 162 -87z m91 -276 c238 -144 464 -321 690 -543 123 -121 148 -151 145 -171 -2 -15 -10 -25 -24 -27 -16 -2 -36 15 -78 67 -125 153 -336 340 -661 586 -243 184 -254 197 -72 88z m7337 -103 c24 -24 24 -30 5 -77 -21 -49 -19 -70 9 -96 32 -30 56 -80 56 -116 0 -39 -32 -61 -102 -70 -51 -6 -52 -7 -65 -50 -16 -54 -29 -71 -58 -71 -27 0 -59 36 -76 84 l-12 33 -71 -1 c-80 0 -113 13 -122 49 -8 34 1 55 41 97 l35 36 -25 47 c-27 52 -23 75 17 96 23 12 91 6 144 -13 29 -10 36 -8 94 30 69 47 100 52 130 22z m-6096 -662 c7 -12 7 -33 -2 -74 l-12 -57 45 -48 c28 -30 46 -60 51 -85 6 -33 4 -40 -21 -60 -15 -12 -48 -25 -72 -29 -47 -7 -56 -18 -67 -77 -14 -79 -78 -72 -121 12 -20 39 -30 50 -43 45 -37 -14 -102 -17 -136 -5 -59 19 -62 77 -6 138 16 18 30 36 30 38 0 3 -11 20 -25 38 -44 57 -28 99 43 111 21 3 58 1 82 -4 63 -15 59 -16 120 34 45 37 61 45 89 43 19 -2 39 -11 45 -20z m4859 -2237 c157 -105 269 -191 360 -273 94 -86 117 -119 97 -143 -7 -8 -16 -15 -21 -15 -5 0 -48 39 -96 86 -49 48 -133 123 -188 167 -127 101 -284 247 -267 247 7 0 59 -31 115 -69z m85 -233 c41 -27 109 -78 153 -113 43 -36 89 -71 102 -80 35 -22 52 -64 34 -82 -16 -16 -22 -12 -178 117 -124 102 -227 198 -241 223 -9 17 -8 17 24 1 18 -9 66 -39 106 -66z m712 -248 c7 -13 8 -43 4 -80 -4 -36 -3 -60 3 -60 24 0 93 -74 105 -112 12 -39 11 -42 -17 -64 -15 -12 -48 -28 -72 -34 -37 -11 -43 -16 -43 -39 0 -47 -20 -100 -40 -106 -28 -9 -54 9 -90 59 l-32 44 -37 -15 c-45 -19 -124 -21 -145 -4 -25 21 -20 82 9 125 14 20 25 39 25 42 0 3 -13 19 -30 34 -21 20 -30 37 -30 60 0 26 6 33 35 46 19 7 66 14 104 14 70 0 70 0 103 41 55 68 125 91 148 49z m-6571 -206 c32 -9 69 -30 94 -54 l42 -38 35 24 c48 34 131 57 173 49 140 -27 191 -215 100 -372 -18 -34 -21 -47 -13 -62 24 -46 6 -114 -44 -160 -21 -19 -26 -34 -26 -70 0 -94 -69 -173 -175 -202 -100 -28 -267 0 -339 55 -33 25 -36 25 -70 11 -49 -21 -82 -19 -128 7 -61 34 -98 121 -79 185 9 32 8 34 -47 70 -83 56 -97 80 -96 166 0 82 20 131 82 199 40 44 121 88 164 88 19 0 32 9 47 34 48 78 161 106 280 70z m616 -863 c17 -9 39 -31 50 -48 18 -28 25 -31 85 -35 78 -4 110 -24 141 -86 25 -51 27 -124 3 -178 -9 -22 -17 -65 -18 -96 -2 -91 -56 -144 -158 -155 -74 -7 -135 12 -179 56 -32 31 -43 37 -72 33 -80 -9 -135 58 -123 150 4 30 3 48 -3 48 -22 0 -43 61 -36 103 8 46 52 97 84 97 15 0 27 13 42 45 31 66 70 95 117 88 20 -3 51 -13 67 -22z m387 -888 c8 -75 36 -131 95 -194 l46 -49 -40 0 c-54 0 -101 33 -131 93 -32 61 -39 131 -18 181 22 53 40 41 48 -31z m-318 -19 c3 -9 6 -30 6 -48 0 -19 13 -52 31 -82 18 -27 38 -64 46 -82 l13 -32 -37 15 c-57 24 -101 73 -118 129 -18 60 -19 88 -3 104 17 17 55 15 62 -4z m4946 -100 c0 -3 -13 -25 -30 -49 -55 -80 -144 -135 -217 -135 -34 1 -73 18 -73 33 0 15 34 37 56 37 27 0 115 43 184 89 41 28 80 40 80 25z m124 -116 c-40 -78 -86 -118 -135 -118 -18 0 -20 4 -14 28 3 15 18 39 33 55 25 26 122 81 130 73 2 -2 -4 -19 -14 -38z" id="1"/>
<path d="M1707 7783 c-4 -3 -7 -35 -7 -70 0 -68 -12 -103 -34 -103 -18 0 -86 -76 -86 -96 0 -14 8 -16 46 -10 63 8 74 -3 74 -74 0 -75 18 -93 55 -56 14 15 33 43 42 64 19 47 28 52 70 40 19 -5 48 -8 64 -6 l31 3 -36 45 c-20 25 -36 49 -36 54 0 4 11 16 24 27 29 23 53 76 39 90 -11 11 -100 14 -130 5 -24 -8 -40 6 -73 59 -22 35 -31 41 -43 28z" id="2"/>
<path d="M5082 7524 l-63 -35 -42 20 c-51 25 -117 28 -117 7 0 -8 12 -28 26 -45 31 -38 26 -60 -21 -85 -19 -10 -42 -28 -52 -38 -17 -19 -17 -20 2 -35 14 -10 39 -13 80 -11 33 1 66 -1 73 -5 6 -5 17 -28 23 -52 18 -72 32 -73 62 -4 23 54 28 59 46 50 24 -13 81 -14 100 -2 20 13 8 49 -34 104 l-36 47 21 46 c37 85 26 92 -68 38z" id="3"/>
<path d="M3897 6905 c-20 -7 -53 -25 -72 -40 l-36 -26 -46 25 c-82 46 -90 34 -41 -61 l32 -63 -21 -37 c-24 -42 -34 -124 -17 -130 7 -2 25 8 42 22 39 33 59 32 80 -6 27 -49 52 -79 67 -79 22 0 38 56 31 110 -7 56 -8 55 82 79 23 7 42 16 42 21 0 5 -25 20 -56 34 -46 21 -55 29 -48 43 12 28 17 104 8 113 -5 5 -26 3 -47 -5z" id="4"/>
<path d="M4557 6652 c-113 -250 -211 -731 -204 -1009 1 -64 -2 -96 -11 -105 -18 -18 -43 0 -67 50 -24 50 -203 220 -210 200 -13 -35 -35 -165 -45 -262 -11 -108 -5 -216 20 -345 5 -29 10 -81 10 -114 l0 -60 -32 6 c-18 3 -41 8 -51 12 -17 7 -17 5 -1 -36 9 -24 62 -138 119 -254 96 -194 211 -395 344 -603 l54 -83 21 19 c11 11 71 45 132 75 125 63 170 104 159 146 -40 156 -22 323 54 501 17 40 31 82 31 95 0 12 -12 63 -26 111 -113 381 -222 1089 -241 1560 -3 91 -9 167 -13 169 -4 3 -23 -30 -43 -73z" id="5"/>
<path d="M3191 6634 c-66 -147 -74 -212 -40 -340 11 -43 36 -140 55 -214 36 -142 74 -264 79 -258 2 2 15 91 29 198 15 107 30 212 35 233 8 32 5 49 -17 100 -14 34 -46 123 -72 196 l-47 135 -22 -50z" id="6"/>
<path d="M3095 6264 c-12 -99 -7 -392 10 -519 58 -441 82 -506 251 -664 97 -91 288 -251 299 -251 4 0 4 7 1 16 -3 9 -15 67 -27 130 -20 113 -21 115 -94 224 -165 244 -280 524 -384 934 l-48 189 -8 -59z" id="7"/>
<path d="M3377 6165 c-16 -73 -57 -382 -57 -429 0 -44 10 -72 55 -166 31 -62 58 -111 60 -109 2 3 11 58 19 124 9 66 25 161 37 212 13 55 19 106 15 125 -3 18 -32 87 -65 153 -54 111 -58 118 -64 90z" id="8"/>
<path d="M6695 6008 c-64 -93 -105 -160 -105 -175 0 -13 118 57 143 85 18 20 36 162 21 162 -5 0 -31 -33 -59 -72z" id="9"/>
<path d="M3527 5835 c-9 -27 -57 -388 -57 -424 0 -25 80 -174 111 -205 5 -6 7 34 4 100 -3 60 -7 189 -10 287 -4 144 -8 186 -23 220 -16 35 -20 39 -25 22z" id="10"/>
<path d="M6688 5825 c-20 -14 -58 -33 -85 -43 -47 -18 -49 -20 -112 -145 -35 -70 -62 -129 -60 -132 8 -8 170 80 223 122 49 37 55 47 66 97 6 30 10 71 8 91 l-3 35 -37 -25z" id="11"/>
<path d="M2700 5649 c0 -6 57 -137 118 -271 48 -106 148 -283 227 -403 210 -319 451 -542 746 -690 39 -20 73 -34 75 -32 2 2 -18 51 -46 109 l-49 106 -68 37 c-137 75 -293 214 -424 377 -109 137 -254 357 -306 465 -31 65 -53 98 -76 114 -18 11 -69 60 -114 108 -45 47 -83 83 -83 80z" id="12"/>
<path d="M3620 5574 c0 -108 20 -347 41 -481 48 -321 133 -573 300 -890 125 -240 301 -523 325 -523 17 0 32 46 39 125 9 87 23 120 69 164 20 19 36 39 36 45 0 5 -36 65 -80 132 -188 289 -333 579 -610 1219 -62 143 -114 262 -116 264 -2 2 -4 -22 -4 -55z" id="13"/>
<path d="M6609 5539 c-30 -21 -89 -51 -130 -68 l-74 -29 -49 -87 c-26 -47 -46 -89 -43 -92 8 -8 131 34 212 72 113 54 165 118 165 205 0 49 -8 49 -81 -1z" id="14"/>
<path d="M2677 5541 c-4 -19 -7 -69 -7 -112 0 -306 112 -546 380 -817 246 -248 482 -395 744 -462 44 -11 91 -20 104 -20 l26 0 -28 29 c-15 15 -77 57 -138 91 -273 155 -420 271 -552 437 -194 241 -362 523 -507 853 l-16 34 -6 -33z" id="15"/>
<path d="M5976 5480 c-165 -19 -313 -71 -427 -152 l-61 -42 27 -23 26 -23 29 20 c122 87 387 137 580 111 47 -6 94 -13 105 -14 15 -1 27 12 48 53 l28 55 -38 7 c-73 12 -239 16 -317 8z" id="16"/>
<path d="M3020 5346 c0 -14 143 -232 223 -339 105 -141 218 -261 321 -342 91 -70 166 -119 166 -108 0 5 -13 50 -28 101 l-28 93 -135 109 c-151 121 -290 262 -340 343 -38 61 -179 174 -179 143z" id="17"/>
<path d="M6589 5311 c-33 -22 -109 -55 -185 -80 -121 -41 -163 -66 -164 -97 0 -13 194 -44 272 -44 67 0 88 17 112 88 15 42 33 173 25 171 -2 0 -29 -17 -60 -38z" id="18"/>
<path d="M5885 5320 c-83 -12 -166 -39 -232 -76 -34 -19 -64 -38 -67 -42 -2 -4 9 -22 24 -41 l29 -34 43 35 c63 50 108 76 222 124 106 46 103 52 -19 34z" id="19"/>
<path d="M6055 5295 c-116 -35 -275 -117 -334 -173 -43 -40 -49 -50 -41 -69 l9 -22 73 34 c100 47 174 65 299 72 l106 6 41 84 c23 46 42 85 42 88 0 14 -125 1 -195 -20z" id="20"/>
<path d="M6725 5263 c-18 -106 -48 -164 -117 -230 -70 -66 -146 -103 -299 -149 -121 -35 -192 -64 -203 -83 -7 -10 225 -28 299 -23 27 2 70 14 95 27 78 39 237 153 273 195 47 55 87 139 87 182 0 39 -25 65 -97 102 l-32 16 -6 -37z" id="21"/>
<path d="M5183 5233 c-20 -48 -13 -135 15 -190 53 -103 111 -138 252 -153 l95 -9 42 41 c56 54 55 79 0 154 -98 133 -199 194 -323 194 l-65 0 -16 -37z" id="22"/>
<path d="M6870 5066 c-31 -66 -108 -146 -207 -217 -46 -34 -83 -63 -81 -65 2 -2 38 5 80 15 160 38 248 120 248 230 0 82 -12 93 -40 37z" id="23"/>
<path d="M5933 5046 c-83 -20 -174 -70 -238 -131 l-60 -56 40 6 c22 3 130 10 240 15 151 6 218 14 271 29 69 20 231 86 247 101 4 4 -20 10 -55 14 -35 3 -106 13 -158 21 -113 18 -216 18 -287 1z" id="24"/>
<path d="M5040 4983 c-71 -97 -155 -272 -176 -367 -20 -95 -16 -148 27 -330 23 -98 30 -148 27 -198 -4 -66 -5 -69 -53 -118 -41 -42 -47 -52 -35 -60 23 -15 177 -13 187 3 14 22 6 158 -15 277 -30 166 -35 251 -23 370 18 173 63 313 127 397 24 31 24 34 9 63 -8 16 -18 30 -20 30 -3 0 -28 -30 -55 -67z" id="25"/>
<path d="M5110 4848 c-22 -46 -48 -117 -57 -158 -21 -98 -21 -311 1 -450 10 -58 20 -151 23 -207 l6 -103 59 32 c158 84 189 205 138 528 -25 163 -23 235 9 298 26 51 26 49 -2 56 -13 3 -44 24 -69 46 -26 22 -51 40 -57 40 -5 0 -28 -37 -51 -82z" id="26"/>
<path d="M5362 4807 c-28 -34 -35 -120 -17 -233 9 -60 21 -140 27 -179 15 -101 5 -237 -22 -310 -18 -45 -40 -76 -89 -126 -113 -112 -196 -139 -435 -139 -84 0 -177 -5 -206 -10 -128 -24 -237 -105 -284 -211 -15 -33 -26 -65 -24 -71 2 -6 24 15 49 48 70 92 219 168 384 194 33 6 134 10 225 10 267 1 370 30 464 130 109 116 124 207 81 465 -23 135 -26 177 -21 270 3 61 9 120 12 131 5 20 1 22 -52 29 -31 4 -62 9 -69 11 -6 3 -17 -1 -23 -9z" id="27"/>
<path d="M5903 4810 c-91 -18 -156 -71 -182 -149 -17 -53 -13 -189 11 -339 31 -196 31 -426 0 -537 -43 -149 -126 -271 -247 -362 -102 -77 -178 -105 -298 -111 -122 -5 -209 19 -283 79 -62 52 -80 61 -104 54 -19 -6 -19 -8 9 -48 65 -95 137 -266 167 -396 13 -56 21 -187 12 -196 -2 -2 -47 12 -100 30 -131 46 -239 65 -368 65 -80 0 -121 5 -163 19 -69 24 -292 130 -357 170 l-48 29 -60 -36 c-136 -82 -277 -221 -378 -374 -25 -37 -90 -152 -144 -255 -73 -139 -108 -219 -135 -308 -162 -534 -311 -902 -488 -1205 -30 -52 -54 -96 -52 -98 1 -2 43 -11 93 -22 49 -10 99 -23 111 -30 18 -9 26 -9 39 2 9 7 93 76 187 154 372 307 557 436 790 550 333 162 568 210 992 202 217 -5 247 -7 337 -31 192 -51 348 -148 506 -313 47 -49 112 -129 144 -179 246 -377 227 -355 309 -355 45 0 177 29 177 38 0 4 -11 61 -25 127 -71 345 -100 678 -92 1047 6 264 7 274 67 668 11 74 22 208 25 298 5 179 25 262 80 343 64 91 206 156 350 160 28 1 64 4 80 8 l30 6 -56 32 c-53 30 -109 83 -109 104 0 20 40 7 96 -31 83 -57 174 -83 272 -79 108 5 174 39 278 143 151 151 208 335 137 443 -9 14 -58 56 -109 94 -106 80 -152 128 -314 329 -64 80 -139 169 -167 199 l-50 55 -29 -21 c-77 -55 -220 -83 -421 -83 -127 0 -425 23 -462 36 -11 3 -8 11 12 32 48 50 30 61 -70 42z m349 -411 c52 -26 116 -28 185 -5 93 31 134 3 75 -52 -41 -38 -99 -54 -195 -52 -45 1 -108 -4 -139 -11 -66 -15 -84 -6 -48 23 l25 20 -56 -7 c-55 -7 -99 4 -99 25 0 5 27 17 60 26 33 9 60 21 60 25 0 5 9 18 20 29 22 22 32 20 112 -21z m1080 -261 c12 -17 23 -52 26 -77 8 -92 -59 -93 -105 -1 -28 54 -29 74 -4 99 25 25 55 17 83 -21z m-3602 -2489 c-61 -54 -180 -100 -180 -70 0 15 76 70 117 86 21 7 52 14 68 14 l30 0 -35 -30z m80 -29 c0 -17 -40 -51 -83 -69 -23 -10 -62 -35 -86 -55 -65 -54 -119 -62 -92 -13 11 20 103 88 176 129 33 19 85 24 85 8z" id="28"/>
<path d="M5680 4771 c-134 -27 -159 -132 -94 -401 50 -207 38 -331 -58 -599 -28 -78 -38 -93 -107 -162 -149 -149 -316 -190 -434 -106 -26 18 -33 18 -68 7 -21 -7 -39 -16 -39 -20 0 -17 81 -82 132 -105 250 -114 590 90 674 405 23 90 21 239 -6 435 -30 221 -26 377 12 455 15 30 35 65 44 78 16 21 15 22 -2 21 -11 -1 -35 -4 -54 -8z" id="29"/>
<path d="M3056 4393 c344 -254 497 -338 711 -392 86 -22 242 -45 250 -37 3 2 -5 23 -18 45 -18 33 -31 43 -63 51 -107 27 -331 106 -421 150 -115 55 -231 129 -326 206 -73 60 -161 94 -243 94 l-48 0 158 -117z" id="30"/>
<path d="M2850 4475 c0 -14 46 -95 85 -150 61 -86 200 -215 307 -286 51 -34 149 -89 218 -124 99 -49 141 -64 205 -74 136 -21 306 -61 404 -97 52 -18 97 -32 99 -29 5 5 -68 136 -96 173 -16 20 -31 24 -119 33 -192 18 -383 81 -558 184 -89 52 -125 77 -362 251 -127 93 -183 129 -183 119z" id="31"/>
<path d="M4767 4140 c-22 -16 -82 -52 -135 -81 -125 -66 -166 -100 -202 -163 -27 -46 -38 -86 -25 -86 3 0 25 10 47 21 67 34 142 57 229 70 l81 12 28 46 c37 58 56 138 43 177 -12 37 -21 38 -66 4z" id="32"/>
<path d="M5465 3840 c-42 -44 -111 -88 -158 -101 -27 -7 -44 -20 -58 -43 -23 -39 -73 -74 -150 -107 -30 -12 -58 -26 -63 -30 -17 -15 57 -41 115 -41 77 0 162 45 234 124 57 64 118 176 113 209 -3 19 -5 18 -33 -11z" id="33"/>
<path d="M3500 3799 c-25 -5 -52 -11 -59 -14 -9 -4 42 -33 120 -69 187 -88 370 -192 534 -304 366 -251 458 -304 622 -355 95 -30 183 -44 183 -30 0 27 -56 179 -101 273 l-50 104 -21 -34 c-30 -47 -29 -128 0 -194 12 -27 20 -51 17 -54 -11 -11 -98 33 -143 73 -84 75 -132 196 -132 335 l0 64 -40 -39 c-51 -50 -89 -125 -97 -193 -3 -29 -9 -52 -14 -52 -13 0 -48 56 -65 102 -8 24 -17 79 -18 123 l-3 80 -49 27 c-88 49 -279 106 -497 147 -117 23 -121 23 -187 10z" id="34"/>
<path d="M3422 3731 c7 -20 216 -247 306 -332 174 -164 309 -255 523 -350 172 -77 223 -92 294 -84 71 7 196 -13 305 -49 41 -13 77 -23 78 -21 2 2 1 17 -3 34 -5 25 -12 31 -43 36 -238 40 -398 115 -704 334 -98 69 -228 157 -289 194 -181 111 -476 261 -467 238z" id="35"/>
<path d="M2342 3719 c-112 -13 -286 -55 -521 -125 -269 -81 -422 -113 -578 -121 -68 -3 -123 -8 -123 -10 0 -17 81 -121 123 -158 134 -117 380 -176 647 -155 156 13 203 26 495 140 335 132 476 163 637 144 45 -6 85 -9 88 -6 8 7 -171 174 -225 210 -115 76 -320 107 -543 81z m-920 -356 l38 -37 -6 32 c-6 27 -4 32 13 32 27 0 88 -42 88 -60 0 -16 -45 -19 -80 -5 -16 7 -18 6 -7 -6 20 -21 14 -29 -22 -29 -25 0 -40 7 -55 26 -20 25 -29 84 -14 84 4 0 24 -17 45 -37z" id="36"/>
<path d="M4930 3694 c-184 -48 -360 -203 -360 -316 0 -35 21 -88 42 -106 13 -10 17 -5 26 40 15 77 27 102 68 148 48 53 97 81 225 128 107 40 189 79 224 106 18 14 13 15 -75 15 -52 0 -120 -7 -150 -15z" id="37"/>
<path d="M4661 3679 c-41 -11 -82 -24 -91 -29 -21 -11 -40 -81 -40 -144 0 -55 13 -66 30 -26 15 37 133 149 194 185 25 15 46 29 46 31 0 10 -71 1 -139 -17z" id="38"/>
<path d="M925 3449 c18 -130 71 -239 148 -302 105 -85 246 -165 357 -203 46 -16 84 -19 230 -19 156 0 186 3 282 27 151 38 253 80 493 201 257 130 347 159 490 159 55 0 136 -8 180 -16 108 -22 111 -21 66 19 -57 52 -97 65 -200 65 -163 0 -279 -30 -587 -151 -284 -111 -356 -129 -537 -136 -175 -7 -293 7 -423 48 -154 49 -281 150 -346 275 -28 55 -36 63 -68 68 -19 3 -48 9 -64 12 l-28 7 7 -54z" id="39"/>
<path d="M2795 3231 c-97 -25 -141 -44 -375 -163 -211 -107 -349 -159 -530 -200 -127 -28 -374 -31 -465 -6 -106 31 -111 31 -58 -1 195 -115 511 -186 720 -162 158 19 290 70 518 201 148 85 230 124 325 156 74 24 101 28 210 28 124 1 125 1 183 -33 32 -18 64 -30 73 -27 13 5 12 11 -7 46 -78 138 -372 217 -594 161z" id="40"/>
<path d="M3004 3000 c-117 -31 -297 -114 -503 -234 -182 -107 -360 -152 -561 -143 l-114 5 46 -24 c108 -55 298 -88 423 -73 104 13 179 41 415 154 118 57 256 117 305 134 89 30 265 58 285 46 5 -3 20 15 32 40 l23 47 -28 23 c-15 13 -44 29 -65 34 -57 16 -179 12 -258 -9z" id="41"/>
<path d="M3451 2972 c-40 -51 -81 -139 -81 -175 0 -29 25 -87 38 -87 4 0 16 14 26 30 9 17 43 63 75 103 31 39 67 87 79 104 l23 33 -23 9 c-13 5 -42 12 -64 15 -39 7 -43 5 -73 -32z" id="42"/>
<path d="M6355 2145 c-5 -27 -5 -172 -2 -321 l6 -272 51 -68 c92 -124 100 -134 131 -150 20 -10 41 -13 62 -8 42 9 137 56 137 67 0 5 -38 80 -84 166 -120 220 -221 431 -260 542 l-34 94 -7 -50z" id="43"/>
<path d="M2950 1613 c-79 -98 -238 -240 -420 -375 -60 -45 -78 -81 -88 -171 -10 -92 -29 -93 185 10 l155 75 45 97 c89 189 178 409 170 417 -1 2 -23 -22 -47 -53z" id="44"/>
<path d="M6698 1297 c-49 -18 -86 -36 -85 -42 2 -5 25 -21 52 -34 56 -29 146 -35 188 -12 l26 14 -39 45 c-22 25 -40 49 -40 53 0 12 -3 11 -102 -24z" id="45"/>
<path d="M2355 1131 c-40 -24 -80 -72 -111 -132 l-24 -49 24 0 c14 0 48 5 75 11 48 10 51 13 56 47 3 20 10 56 16 79 16 71 13 75 -36 44z" id="46"/>
<path d="M6350 778 c-14 -5 -62 -11 -107 -12 -46 0 -83 -3 -83 -7 0 -11 58 -95 81 -115 75 -67 155 -83 205 -41 l26 23 -34 79 c-35 83 -46 91 -88 73z" id="47"/>
<path d="M2607 717 c-41 -71 -44 -82 -21 -91 61 -24 175 11 248 75 38 33 38 33 14 42 -33 12 -155 37 -182 37 -16 0 -31 -16 -59 -63z" id="48"/>
<path d="M7997 5856 l-67 -44 -37 19 c-39 20 -63 23 -100 13 -31 -8 -29 -21 7 -52 41 -36 38 -56 -12 -93 -56 -40 -66 -58 -42 -76 18 -14 66 -13 129 3 22 5 27 0 52 -53 15 -32 33 -56 38 -54 6 2 17 27 25 55 l16 51 54 -3 c30 -1 61 2 69 7 21 14 7 52 -39 103 l-40 46 15 42 c16 47 19 80 7 80 -4 0 -38 -20 -75 -44z" id="49"/>
<path d="M1940 5223 c-14 -9 -42 -31 -64 -49 -38 -32 -39 -33 -69 -17 -30 15 -119 15 -134 -1 -4 -4 9 -23 30 -42 20 -19 37 -41 37 -48 0 -6 -20 -31 -45 -55 -25 -24 -45 -49 -45 -56 0 -28 56 -33 119 -11 47 17 61 9 85 -47 7 -18 20 -38 29 -45 14 -12 17 -10 22 15 21 100 19 98 79 98 30 0 60 5 66 11 16 16 -9 62 -56 104 -37 32 -37 33 -26 76 14 51 15 84 4 84 -4 0 -19 -8 -32 -17z" id="50"/>
<path d="M7567 2466 l-52 -56 -51 6 c-52 7 -124 -9 -124 -27 0 -5 18 -20 40 -34 22 -14 40 -33 40 -41 0 -9 -16 -34 -35 -55 -35 -39 -46 -78 -22 -80 34 -4 72 3 106 21 l38 19 20 -22 c11 -12 28 -34 38 -49 25 -40 45 -36 45 10 0 65 9 82 42 82 29 0 98 27 98 38 0 16 -53 70 -85 87 l-37 20 7 61 c9 85 -5 89 -68 20z" id="51"/>
<path d="M932 2270 c-20 -12 -40 -37 -49 -58 -14 -36 -16 -37 -66 -38 -131 -2 -244 -131 -218 -247 11 -48 34 -73 92 -102 64 -33 74 -48 59 -85 -18 -43 -7 -116 21 -146 33 -36 77 -32 111 8 l26 32 44 -40 c67 -62 143 -87 249 -82 107 5 165 34 194 97 17 39 17 55 -1 125 -5 23 -2 28 30 41 19 8 43 26 52 40 16 24 16 27 -5 49 -27 28 -26 40 3 79 37 51 59 130 54 199 -4 53 -9 65 -36 89 -45 41 -86 38 -181 -11 -43 -22 -84 -40 -93 -40 -8 0 -20 11 -26 25 -33 71 -189 110 -260 65z" id="52"/>
<path d="M1616 1421 c-10 -11 -23 -38 -30 -62 -11 -37 -16 -42 -46 -44 -64 -5 -97 -91 -40 -105 17 -5 24 -12 22 -26 -1 -10 -5 -45 -9 -76 l-6 -58 34 -14 c32 -15 35 -14 54 9 31 37 51 32 67 -17 17 -52 53 -80 115 -85 99 -10 161 41 150 122 -5 35 -2 52 13 78 40 65 15 159 -52 196 -21 12 -35 13 -67 5 -46 -13 -45 -13 -95 49 -43 52 -79 62 -110 28z" id="53"/>
</g>
</svg>